<?xml version="1.0" encoding="UTF-8"?>
<svg width="591px" height="329px" viewBox="0 0 591 329" version="1.1" xmlns="http://www.w3.org/2000/svg" xmlns:xlink="http://www.w3.org/1999/xlink">
    <title>adicionar_filtro_protetor2</title>
    <g id="Page-1" stroke="none" stroke-width="1" fill="none" fill-rule="evenodd">
        <g id="adicionar_filtro_protetor2" transform="translate(6.716418, 18.000000)">
            <g id="Group-2" transform="translate(0.518657, 46.600989)">
                <path d="M57.051367,84.0296201 L2.67964585,84.0296201 C1.20598054,84.0296201 0,82.8200292 0,81.3419521 L0,2.68766809 C0,1.20959097 1.20598054,0 2.67964585,0 L57.051367,0 C58.5250324,0 59.7310129,1.20959097 59.7310129,2.68766809 L59.7310129,81.3419521 C59.7310129,82.8200292 58.5250324,84.0296201 57.051367,84.0296201 Z" id="Fill-1" fill="#E6E6E6"></path>
                <path d="M0.932699566,0 C0.932699566,0.364841822 0,1.02717005 0,2.23676102 L0,81.0416592 C0,81.0416592 0,82.3578962 0.932699566,83.0333213 L0.932699566,0 Z" id="Fill-3" fill="#CFCFCF"></path>
                <path d="M38.902995,51.6441258 L21.5958219,51.6441258 C21.0912314,51.6441258 20.6780455,51.2297029 20.6780455,50.7236019 L20.6780455,33.364615 C20.6780455,32.8585139 21.0912314,32.4440911 21.5958219,32.4440911 L38.902995,32.4440911 C39.4075855,32.4440911 39.8207714,32.8585139 39.8207714,33.364615 L39.8207714,50.7236019 C39.8207714,51.2297029 39.4075855,51.6441258 38.902995,51.6441258" id="Fill-5" fill="#F2F3F5"></path>
                <polyline id="Fill-7" fill="#E5E9EC" points="39.2723441 51.0977986 39.2742095 32.4440911 20.6780455 51.0977986"></polyline>
                <path d="M21.0288175,32.2108075 C20.7061034,32.2108075 20.4440149,32.4736807 20.4440149,32.7973609 L20.4440149,50.1563477 C20.4440149,50.4800279 20.7061034,50.7429011 21.0288175,50.7429011 L38.3359906,50.7429011 C38.6587047,50.7429011 38.9207933,50.4800279 38.9207933,50.1563477 L38.9207933,32.7973609 C38.9207933,32.4736807 38.6587047,32.2108075 38.3359906,32.2108075 L21.0288175,32.2108075 Z M38.3359906,51.4108423 L21.0288175,51.4108423 C20.3395525,51.4108423 19.7790001,50.8476762 19.7790001,50.1563477 L19.7790001,32.7973609 C19.7790001,32.1060324 20.3395525,31.5428663 21.0288175,31.5428663 L38.3359906,31.5428663 C39.0261883,31.5428663 39.5867408,32.1060324 39.5867408,32.7973609 L39.5867408,50.1563477 C39.5867408,50.8476762 39.0261883,51.4108423 38.3359906,51.4108423 L38.3359906,51.4108423 Z" id="Fill-9" fill="#5B5B5D"></path>
                <polygon id="Fill-11" fill="#5A5A5C" points="29.9433292 35.1477653 22.4761364 35.1477653 22.4761364 43.567192 25.2742351 43.567192 25.2742351 46.3736675 27.1396343 46.3736675 27.1396343 48.2446512 29.9433292 48.2446512 32.7358317 48.2446512 32.7358317 46.3736675 34.6012308 46.3736675 34.6012308 43.567192 37.3993295 43.567192 37.3993295 35.1477653"></polygon>
                <polygon id="Fill-13" fill="#3F4243" points="22.4761364 36.0832572 37.3993295 36.0832572 37.3993295 35.1477653 22.4761364 35.1477653"></polygon>
                <polygon id="Fill-15" fill="#3F4243" points="22.4761364 43.2930552 25.2742351 43.2930552 25.2742351 42.3575633 22.4761364 42.3575633"></polygon>
                <polygon id="Fill-16" fill="#3F4243" points="34.1637274 43.2930552 36.9618261 43.2930552 36.9618261 42.3575633 34.1637274 42.3575633"></polygon>
                <polygon id="Fill-17" fill="#3F4243" points="25.1732728 45.9967294 27.038672 45.9967294 27.038672 45.0612376 25.1732728 45.0612376"></polygon>
                <polygon id="Fill-19" fill="#3F4243" points="32.3656365 45.9967294 34.2310356 45.9967294 34.2310356 45.0612376 32.3656365 45.0612376"></polygon>
                <polygon id="Fill-20" fill="#BDBEC2" points="27.8704092 39.6811588 29.1183612 39.6811588 29.1183612 35.1477653 27.8704092 35.1477653"></polygon>
                <polygon id="Fill-21" fill="#BDBEC2" points="26.0723183 39.6811588 27.3202703 39.6811588 27.3202703 35.1477653 26.0723183 35.1477653"></polygon>
                <polygon id="Fill-22" fill="#BDBEC2" points="30.5675456 39.6811588 31.8154976 39.6811588 31.8154976 35.1477653 30.5675456 35.1477653"></polygon>
                <polygon id="Fill-23" fill="#BDBEC2" points="32.3656365 39.6811588 33.6135885 39.6811588 33.6135885 35.1477653 32.3656365 35.1477653"></polygon>
            </g>
            <g id="Group-2" transform="translate(38.009597, 60.872411)">
                <g id="XMLID_66_" transform="translate(49.869202, 45.549880) scale(1, -1) rotate(-77.000000) translate(-49.869202, -45.549880) translate(30.869202, -0.950120)" fill-rule="nonzero">
                    <g id="XMLID_90_" transform="translate(0.000000, 23.277238)" fill="#8B8C8D">
                        <path d="M12.1427167,61.7443287 C13.3960505,60.3869748 14.8050508,58.8390384 16.2838828,57.1579854 C23.6794978,48.7534477 32.796901,37.0289938 33.3424612,29.7657681 C34.0182286,20.778572 28.5444406,3.20716695 28.3109408,2.46375016 C27.769745,0.739052308 25.9366625,-0.22477083 24.2076001,0.320789437 C22.4829023,0.861257807 21.5234436,2.69870478 22.063912,4.42340264 C23.5492908,9.15886575 27.2969261,22.8531559 26.8146508,29.2754913 C26.5156838,33.2515345 20.9495142,41.4887671 13.8252246,49.972593 C12.0445159,52.0937313 10.1670611,54.2301453 8.26196468,56.3250967 C-5.32394079,69.4381833 0.135298946,73.3327562 12.1427167,61.7443287 Z" id="XMLID_91_"></path>
                    </g>
                    <path d="M24.5131139,36.6289163 C23.6118483,32.9132872 22.6574816,29.5919163 22.0646394,27.6999133 C21.524171,25.9752154 22.4836297,24.1377684 24.2083276,23.5973001 C25.9373899,23.0517398 27.769745,24.0155629 28.3116682,25.7402608 C28.4193254,26.0843275 29.6479271,30.0283645 30.8707095,35.0562479 L24.5131139,36.6289163 Z" id="XMLID_89_" fill="#3E3F41"></path>
                    <g id="XMLID_67_" transform="translate(8.001551, 0.000000)">
                        <g id="XMLID_85_" transform="translate(0.000000, 1.454827)">
                            <path d="M9.4214621,35.0460641 L28.0788958,30.4313517 C29.0776348,30.1847584 29.6922994,29.1656518 29.4449787,28.1669129 L22.86043,1.54211702 C22.6138368,0.543378025 21.5947302,-0.0712865415 20.5959912,0.176034113 L1.93855748,4.79001914 C0.939818486,5.03661238 0.325153919,6.05571896 0.572474573,7.05445795 L7.15702328,33.6792538 C7.40361652,34.6779928 8.4227231,35.2926573 9.4214621,35.0460641 Z" id="XMLID_88_" fill="#F2F3F5"></path>
                            <path d="M21.073902,0.0829251605 C21.8136817,0.0429174076 22.7054909,0.62121129 22.9295343,1.52538651 L29.514083,28.1501823 C29.737399,29.0543576 29.2180256,29.98181 28.545168,30.2909608 L21.073902,0.0829251605 Z" id="XMLID_87_" fill="#CFCFCF"></path>
                            <path d="M8.7733365,35.1813631 C8.03355678,35.2213708 7.1417476,34.6430769 6.91770418,33.7389017 L0.333155469,7.11410588 C0.109839467,6.20993066 0.629212841,5.28247821 1.3020705,4.97332739 L8.7733365,35.1813631 Z" id="XMLID_86_" fill="#CFCFCF"></path>
                        </g>
                        <path d="M4.88967482,5.78366624 L4.69618277,5.00169652 C4.51432935,4.2670087 4.61834951,3.60288 5.35303733,3.42102658 L16.2955215,0.714320242 C17.0302093,0.53246682 17.9307474,0.94854745 18.1126008,1.68323528 L18.3060929,2.46520499 L4.88967482,5.78366624 Z" id="XMLID_84_" fill="#CFCFCF"></path>
                        <polygon id="XMLID_83_" fill="#E3E4E7" transform="translate(13.734242, 13.972429) rotate(166.108271) translate(-13.734242, -13.972429) " points="6.72125717 6.95944493 20.7472263 6.95944493 20.7472263 20.9854141 6.72125717 20.9854141"></polygon>
                        <g id="XMLID_70_" transform="translate(6.546723, 5.819310)">
                            <g id="XMLID_80_" transform="translate(8.728964, 0.000000)">
                                <polygon id="XMLID_82_" fill="#8D8F90" transform="translate(2.279706, 4.900662) rotate(166.108271) translate(-2.279706, -4.900662) " points="1.28637268 0.127860978 3.27303944 0.127860978 3.27303944 9.67346375 1.28637268 9.67346375"></polygon>
                                <polygon id="XMLID_81_" fill="#BDBEC2" transform="translate(2.137350, 5.136724) rotate(166.108271) translate(-2.137350, -5.136724) " points="1.33861005 0.558878857 2.9360909 0.558878857 2.9360909 9.71456827 1.33861005 9.71456827"></polygon>
                            </g>
                            <g id="XMLID_77_" transform="translate(5.819310, 0.727414)">
                                <polygon id="XMLID_79_" fill="#8D8F90" transform="translate(2.284018, 4.891752) rotate(166.108271) translate(-2.284018, -4.891752) " points="1.29068421 0.118950233 3.27735097 0.118950233 3.27735097 9.664553 1.29068421 9.664553"></polygon>
                                <polygon id="XMLID_78_" fill="#BDBEC2" transform="translate(2.140883, 5.127987) rotate(166.108271) translate(-2.140883, -5.127987) " points="1.34214266 0.550142764 2.93962351 0.550142764 2.93962351 9.70583217 1.34214266 9.70583217"></polygon>
                            </g>
                            <g id="XMLID_74_" transform="translate(2.909655, 1.454827)">
                                <polygon id="XMLID_76_" fill="#8D8F90" transform="translate(2.287550, 4.883016) rotate(166.108271) translate(-2.287550, -4.883016) " points="1.29421682 0.11021414 3.28088358 0.11021414 3.28088358 9.65581691 1.29421682 9.65581691"></polygon>
                                <polygon id="XMLID_75_" fill="#BDBEC2" transform="translate(2.145122, 5.119077) rotate(166.108271) translate(-2.145122, -5.119077) " points="1.34638145 0.541232019 2.9438623 0.541232019 2.9438623 9.69692143 1.34638145 9.69692143"></polygon>
                            </g>
                            <g id="XMLID_71_" transform="translate(0.000000, 2.182241)">
                                <polygon id="XMLID_73_" fill="#8D8F90" transform="translate(2.291716, 4.874032) rotate(166.108271) translate(-2.291716, -4.874032) " points="1.29838287 0.101230654 3.28504962 0.101230654 3.28504962 9.64683342 1.29838287 9.64683342"></polygon>
                                <polygon id="XMLID_72_" fill="#BDBEC2" transform="translate(2.149288, 5.110093) rotate(166.108271) translate(-2.149288, -5.110093) " points="1.35054749 0.532248533 2.94802834 0.532248533 2.94802834 9.68793794 1.35054749 9.68793794"></polygon>
                            </g>
                        </g>
                        <path d="M11.6451657,31.3755346 L23.741328,28.3836821 C24.1537715,28.2818442 24.4076389,27.8606717 24.305801,27.4482281 L23.0619236,22.4174351 C22.9600857,22.0049915 22.5389131,21.7511241 22.1264696,21.852962 L10.0303074,24.8448145 C9.61786379,24.9466525 9.36399641,25.367825 9.46583433,25.7802685 L10.7097117,30.8110616 C10.8115497,31.2235052 11.2327222,31.4773725 11.6451657,31.3755346 Z" id="XMLID_69_" fill="#5A5A5C"></path>
                        <path d="M10.3518242,27.8694007 L11.0625074,30.7434121 C11.0625074,30.7434121 10.9155698,31.2686048 11.5775163,31.1049367 C12.2394627,30.9412687 23.6860445,28.1101746 23.6860445,28.1101746 C23.6860445,28.1101746 11.7935581,30.6699434 10.3518242,27.8694007 Z" id="XMLID_68_" fill="#3E3F41"></path>
                    </g>
                </g>
                <rect id="Rectangle" fill="#232323" x="72.7561578" y="0.344963406" width="108.808372" height="69.2861538" rx="5"></rect>
                <rect id="Rectangle-Copy" fill="#5E5E5E" x="130.922312" y="7.61573264" width="42.7692308" height="54.7446154" rx="5"></rect>
                <circle id="Oval" fill="#FF0000" cx="101.197696" cy="34.7741942" r="2.78"></circle>
            </g>
            <g id="Group-6" transform="translate(338.951924, 124.841702) rotate(-12.000000) translate(-338.951924, -124.841702) translate(234.451924, 45.341702)">
                <g id="Group-5" transform="translate(104.774182, 79.493232) rotate(-3.000000) translate(-104.774182, -79.493232) translate(4.274182, 5.993232)">
                    <g id="Group-3" transform="translate(102.965583, 73.220240) rotate(28.000000) translate(-102.965583, -73.220240) translate(9.965583, 40.220240)">
                        <path d="M106.968129,9.5125489 C90.3558172,5.2186413 74.7153782,16.0310561 60.7808467,25.6750416 C51.6851605,31.9699663 43.0940648,37.9159525 35.3022927,39.1695116 C15.2268672,42.3988295 5.46150275,32.5321969 5.02686475,32.0794189 C3.92348116,30.913796 2.08419762,30.862344 0.91739046,31.9634179 C-0.255012894,33.0691692 -0.310974868,34.9186366 0.791476019,36.0945499 C1.27554709,36.6100059 12.9156377,48.6900122 36.2247325,44.9396254 C45.3185533,43.4774516 54.4366243,37.1666235 64.0909975,30.4853407 C77.0695119,21.5018125 90.4406929,12.2582175 104.002145,14.8392395 L106.968129,9.5125489 Z" id="Fill-54" fill="#B5AE86"></path>
                        <polygon id="Fill-70" fill="#EDEAD3" points="181.320234 16.9516737 141.131142 0.026755067 111.450777 6.08032284 104.570252 22.4617207 121.037063 48.0371324 161.235481 64.965793"></polygon>
                        <polygon id="Fill-71" fill="#D8D4B6" points="141.017819 -9.43261218e-14 111.399944 6.05263228 104.454131 22.4059654 120.943326 47.9897965 134.244688 16.1917517"></polygon>
                        <polygon id="Fill-72" fill="#D8D4B6" points="103.373785 21.6336233 109.956778 5.89584385 105.255973 3.91727858 98.6729791 19.655058"></polygon>
                        <path d="M185.185248,25.0409653 L169.701502,62.0565069 C168.432098,65.0921779 164.949398,66.520674 161.922788,65.2465341 L152.112654,61.1182085 C149.086044,59.8450041 147.661811,56.3518776 148.932148,53.317142 L164.415894,16.3006649 C165.685298,13.2659293 169.167998,11.8374333 172.193675,13.1106377 L182.004742,17.2398987 C185.031352,18.5131031 186.454652,22.0062297 185.185248,25.0409653" id="Fill-73" fill="#D8D4B6"></path>
                        <polygon id="Fill-74" fill="#F2F3F5" points="174.453513 44.354101 167.632681 60.6606595 151.374795 53.8194076 158.195627 37.5128491"></polygon>
                        <polyline id="Fill-75" fill="#E5E9EC" points="173.9825 44.5035926 158.188165 37.855052 167.356602 60.3424052"></polyline>
                        <path d="M151.776042,53.6544803 L167.468713,60.2581173 L174.052639,44.5184669 L158.359969,37.9148299 L151.776042,53.6544803 Z M174.736308,44.4735633 L167.915476,60.7791863 C167.849254,60.9363489 167.670176,61.0102528 167.513482,60.9438329 L151.256529,54.1025809 C151.099835,54.0370965 151.026152,53.8565466 151.092374,53.7003194 L157.913205,37.393761 C157.978494,37.2375338 158.158505,37.16363 158.314266,37.2291144 L174.572152,44.0703663 C174.727913,44.1358508 174.801597,44.3164007 174.736308,44.4735633 L174.736308,44.4735633 Z" id="Fill-76" fill="#5B5B5D"></path>
                        <polygon id="Fill-77" fill="#5A5A5C" points="157.693182 46.9000421 155.120796 53.0499655 161.959349 55.9275385 162.916299 53.6411964 165.195817 54.6000755 165.832851 53.0761593 168.112368 54.0350384 169.09077 51.6963088 170.025335 49.4623543 167.745818 48.5034751 168.701835 46.217133 166.422317 45.2573184 167.060283 43.7334022 160.22173 40.8558292"></polygon>
                        <polygon id="Fill-78" fill="#3F4243" points="155.234492 52.7777374 155.234492 52.7777374 160.314907 40.6322467"></polygon>
                        <polygon id="Fill-79" fill="#3F4243" points="161.959443 55.9273514 161.959443 55.9273514 162.91546 53.6410093"></polygon>
                        <polygon id="Fill-80" fill="#3F4243" points="166.42269 45.2575055 166.42269 45.2575055 167.060656 43.7335893"></polygon>
                        <polygon id="Fill-81" fill="#3F4243" points="164.435574 54.2805115 165.195724 54.6004497 165.832757 53.075598 165.07354 52.7565953"></polygon>
                        <polygon id="Fill-82" fill="#3F4243" points="167.352778 53.7154744 168.112928 54.0354126 170.025895 49.4627285 169.265745 49.1427902"></polygon>
                        <polygon id="Fill-83" fill="#3F4243" points="166.98604 48.1834433 167.746191 48.5033816 168.702208 46.2170395 167.942058 45.8971013"></polygon>
                        <polygon id="Fill-84" fill="#BDBEC2" points="161.12505 48.7054478 160.680152 49.769102 156.841161 48.1535076 157.286058 47.0898534"></polygon>
                        <polygon id="Fill-85" fill="#BDBEC2" points="160.393627 50.4541627 159.948729 51.517817 156.109738 49.9022225 156.554635 48.8385683"></polygon>
                        <polygon id="Fill-86" fill="#BDBEC2" points="161.856566 46.9567329 161.411668 48.0203871 157.57361 46.4047927 158.017575 45.3411385"></polygon>
                        <polygon id="Fill-87" fill="#BDBEC2" points="162.588082 45.2081115 162.143185 46.2717657 158.305126 44.6561713 158.749091 43.5925171"></polygon>
                        <polygon id="Fill-88" fill="#F2F3F5" points="182.742414 24.5386997 175.921582 40.8452582 159.663696 34.0040062 166.484528 17.6974478"></polygon>
                        <polyline id="Fill-89" fill="#E5E9EC" points="182.271401 24.6881913 166.477066 18.0396507 175.645503 40.5270038"></polyline>
                        <path d="M160.064943,33.839079 L175.757614,40.442716 L182.34154,24.7030656 L166.64887,18.0994286 L160.064943,33.839079 Z M183.025209,24.658162 L176.204377,40.963785 C176.138155,41.1209476 175.959077,41.1948515 175.802383,41.1284315 L159.54543,34.2871796 C159.388736,34.2216952 159.315053,34.0411453 159.381275,33.8849181 L166.202107,17.5783597 C166.267395,17.4221325 166.447406,17.3482287 166.603167,17.4137131 L182.861053,24.254965 C183.016814,24.3204494 183.090498,24.5009994 183.025209,24.658162 L183.025209,24.658162 Z" id="Fill-90" fill="#5B5B5D"></path>
                        <polygon id="Fill-91" fill="#5A5A5C" points="165.981989 27.0846408 163.409604 33.2345642 170.248157 36.1121371 171.205107 33.825795 173.484625 34.7846742 174.121659 33.260758 176.401176 34.2196371 177.379578 31.8809075 178.314143 29.6469529 176.034625 28.6880738 176.991575 26.4017317 174.711125 25.4419171 175.349091 23.9180008 168.510538 21.0404279"></polygon>
                        <polygon id="Fill-92" fill="#3F4243" points="163.5233 32.9623361 163.5233 32.9623361 168.603715 20.8168453"></polygon>
                        <polygon id="Fill-93" fill="#3F4243" points="170.248344 36.11195 170.248344 36.11195 171.204361 33.8256079"></polygon>
                        <polygon id="Fill-94" fill="#3F4243" points="174.711591 25.4421042 174.711591 25.4421042 175.349558 23.9181879"></polygon>
                        <polygon id="Fill-95" fill="#3F4243" points="172.724475 34.4651102 173.484625 34.7850484 174.121659 33.2601967 173.362441 32.941194"></polygon>
                        <polygon id="Fill-96" fill="#3F4243" points="175.641679 33.9000731 176.401829 34.2200113 178.314796 29.6473271 177.554646 29.3273889"></polygon>
                        <polygon id="Fill-97" fill="#3F4243" points="175.274848 28.368042 176.034998 28.6879802 176.991015 26.4016382 176.230865 26.0816999"></polygon>
                        <polygon id="Fill-98" fill="#BDBEC2" points="169.413951 28.8900465 168.969053 29.9537007 165.130062 28.3381063 165.574959 27.2744521"></polygon>
                        <polygon id="Fill-99" fill="#BDBEC2" points="168.682434 30.6387614 168.237537 31.7024156 164.399478 30.0868212 164.843443 29.023167"></polygon>
                        <polygon id="Fill-100" fill="#BDBEC2" points="170.145467 27.1414251 169.700569 28.2050793 165.861578 26.5894849 166.306476 25.5258307"></polygon>
                        <polygon id="Fill-101" fill="#BDBEC2" points="170.87689 25.3927102 170.431992 26.4563644 166.593934 24.84077 167.037899 23.7771158"></polygon>
                    </g>
                    <g id="Group-4" transform="translate(17.809529, 22.685193) rotate(-31.000000) translate(-17.809529, -22.685193) translate(6.809529, 6.685193)">
                        <path d="M12.9612839,31.5518732 C12.9460461,28.097461 13.0618535,24.9762235 13.1723276,23.1882947 C13.2728972,21.5580772 12.0294917,20.1546746 10.3952362,20.0547146 C8.75640937,19.9515546 7.35453056,21.1938935 7.2531991,22.8247966 C7.23338994,23.1495144 7.01091787,26.8769121 7.02920324,31.5518732 L12.9612839,31.5518732 Z" id="Path" fill="#3E3F41"></path>
                        <path d="M19.1661215,29.901618 L1.75768176,29.901618 C0.826651368,29.901618 0.0639988156,29.1404893 0.0639988156,28.2109827 L0.0639988156,3.42629849 C0.0639988156,2.49747759 0.826651368,1.73695833 1.75768176,1.73695833 L19.1661215,1.73695833 C20.0979138,1.73695833 20.8605663,2.49747759 20.8605663,3.42629849 L20.8605663,28.2109827 C20.8605663,29.1404893 20.0979138,29.901618 19.1661215,29.901618 Z" id="Path" fill="#F2F3F5"></path>
                        <path d="M1.31807084,1.75890078 C0.659035422,1.88446036 2.1654235e-14,2.5851712 2.1654235e-14,3.42660325 L2.1654235e-14,28.2117446 C2.1654235e-14,29.0528718 0.659035422,29.7538113 1.31807084,29.8795232 L1.31807084,1.75890078 Z" id="Path" fill="#CFCFCF"></path>
                        <path d="M19.7664913,29.8795232 C20.4247649,29.7538113 21.0838003,29.0528718 21.0838003,28.2117446 L21.0838003,3.42660325 C21.0838003,2.5851712 20.4247649,1.88446036 19.7664913,1.75890078 L19.7664913,29.8795232 Z" id="Path" fill="#CFCFCF"></path>
                        <path d="M16.4720761,1.9720016 L16.4720761,1.24439602 C16.4720761,0.560065825 16.2366519,-4.330847e-14 15.5501884,-4.330847e-14 L5.34085354,-4.330847e-14 C4.65515194,-4.330847e-14 3.95421253,0.560065825 3.95421253,1.24439602 L3.95421253,1.9720016 L16.4720761,1.9720016 Z" id="Path" fill="#CFCFCF"></path>
                        <polygon id="Path" fill="#E3E4E7" points="4.11040012 17.4155253 16.8134031 17.4155253 16.8134031 4.74139797 4.11040012 4.74139797"></polygon>
                        <polygon id="Path" fill="#8D8F90" points="5.49704112 13.3662288 7.29662687 13.3662288 7.29662687 4.74063608 5.49704112 4.74063608"></polygon>
                        <polygon id="Path" fill="#BDBEC2" points="5.84827272 13.3661526 7.29510309 13.3661526 7.29510309 5.09293432 5.84827272 5.09293432"></polygon>
                        <polygon id="Path" fill="#8D8F90" points="8.20860999 13.3662288 10.0074338 13.3662288 10.0074338 4.74063608 8.20860999 4.74063608"></polygon>
                        <polygon id="Path" fill="#BDBEC2" points="8.55984158 13.3661526 10.006672 13.3661526 10.006672 5.09293432 8.55984158 5.09293432"></polygon>
                        <polygon id="Path" fill="#8D8F90" points="10.919417 13.3662288 12.7190027 13.3662288 12.7190027 4.74063608 10.919417 4.74063608"></polygon>
                        <polygon id="Path" fill="#BDBEC2" points="11.2706486 13.3661526 12.7174789 13.3661526 12.7174789 5.09293432 11.2706486 5.09293432"></polygon>
                        <polygon id="Path" fill="#8D8F90" points="13.629462 13.3662288 15.4290478 13.3662288 15.4290478 4.74063608 13.629462 4.74063608"></polygon>
                        <polygon id="Path" fill="#BDBEC2" points="13.9822174 13.3661526 15.4290478 13.3661526 15.4290478 5.09293432 13.9822174 5.09293432"></polygon>
                        <path d="M16.0979878,25.8879018 L4.81133953,25.8879018 C4.42658474,25.8879018 4.1119239,25.5736219 4.1119239,25.1897814 L4.1119239,20.5068967 C4.1119239,20.12298 4.42658474,19.8087763 4.81133953,19.8087763 L16.0979878,19.8087763 C16.4827426,19.8087763 16.7974034,20.12298 16.7974034,20.5068967 L16.7974034,25.1897814 C16.7974034,25.5736219 16.4827426,25.8879018 16.0979878,25.8879018 Z" id="Path" fill="#5A5A5C"></path>
                        <path d="M16.4713142,22.5316211 L16.4713142,25.2070002 C16.4713142,25.2070002 16.7143573,25.6361732 16.0972259,25.6361732 L4.79914928,25.6361732 C4.79914928,25.6361732 15.8122788,25.3009413 16.4713142,22.5316211 Z" id="Path" fill="#3E3F41"></path>
                    </g>
                </g>
            </g>
            <g id="sfio-cabo-telefonico-bem-conectado-copy" transform="translate(408.391136, 89.130839)" fill-rule="nonzero">
                <g id="XMLID_28_">
                    <g id="XMLID_66_" transform="translate(0.481907, 49.696641)">
                        <g id="XMLID_90_" transform="translate(0.000000, 21.203900)" fill="#8B8C8D">
                            <path d="M45.0715406,114.644188 C50.8602054,113.212262 56.0101027,110.163539 60.6100238,105.474164 C65.628722,100.356735 70.2942427,89.4996754 75.2340888,78.0058362 C80.0977335,66.6882544 86.1507844,52.6035636 90.4737296,51.0954362 C92.0289031,50.5527489 92.849229,48.8524611 92.3072043,47.2986128 C91.764517,45.7427766 90.0675424,44.9158245 88.5097183,45.4644754 C82.1657764,47.6769699 77.1921365,58.3451822 69.7555311,75.650878 C65.2497023,86.1355441 60.5908078,96.9773634 56.3526782,101.298321 C48.8319198,108.966181 39.8255632,111.262166 28.0083645,108.525538 C25.2160758,107.878819 21.8579081,105.931373 18.6256386,103.315342 C17.0095038,102.007326 15.4258375,100.53233 13.9607805,98.9692048 C-3.74447627,83.6222193 17.3514167,66.8009001 28.2893161,56.2446709 C29.4310137,55.0082184 30.7145122,53.598159 32.0616225,52.0668399 C38.7984992,44.4109066 47.103802,33.7307671 47.6007684,27.1144875 C48.2163441,18.9277941 43.2301144,2.92149989 43.0174128,2.24430033 C42.5244221,0.673223835 40.854615,-0.204750163 39.2795627,0.292216251 C37.7084862,0.784544312 36.834488,2.45832719 37.326816,4.02940368 C38.6798899,8.34307216 42.0937179,20.8175918 41.6543996,26.6678804 C41.382062,30.2897716 36.3116793,37.7933018 29.8219606,45.5214609 C28.1998622,47.4536663 26.4896351,49.3997868 24.7542284,51.3081378 C12.3784394,63.2532225 -9.84457335,81.0360061 5.92649014,98.7074691 C7.05360997,100.236138 8.30994106,101.721736 9.64777465,103.13047 C14.9977837,108.764744 21.6326167,113.169854 26.663242,114.335406 C33.4292741,115.902507 39.541961,116.01184 45.0715406,114.644188 Z" id="XMLID_91_"></path>
                        </g>
                        <path d="M39.5578639,33.366325 C38.7368754,29.9816524 37.8675155,26.9561209 37.3274787,25.2326414 C36.8351506,23.6615649 37.7091489,21.987782 39.2802254,21.495454 C40.8552776,20.9984875 42.5244221,21.8764615 43.0180754,23.447538 C43.1161434,23.7609582 44.2353118,27.353694 45.3491792,31.9337365 L39.5578639,33.366325 Z" id="XMLID_89_" fill="#3E3F41"></path>
                        <g id="XMLID_67_" transform="translate(24.517010, 0.000000)">
                            <g id="XMLID_85_" transform="translate(0.000000, 1.325244)">
                                <path d="M8.58227866,31.9244598 L25.5778674,27.7207866 C26.4876472,27.4961577 27.0475627,26.5678245 26.8222713,25.6580446 L20.824218,1.4047584 C20.5995892,0.494978548 19.6712559,-0.0649369447 18.7614761,0.160354496 L1.76588732,4.36336511 C0.856107476,4.58799393 0.296191983,5.51632719 0.521483424,6.42610704 L6.51953673,30.6793933 C6.74416555,31.5891731 7.67249881,32.1490886 8.58227866,31.9244598 Z" id="XMLID_88_" fill="#F2F3F5"></path>
                                <path d="M19.1968186,0.0755388949 C19.8707051,0.0390946912 20.6830795,0.56587909 20.8871671,1.38951809 L26.8852204,25.6428043 C27.0886453,26.4664433 26.6155333,27.3112862 26.002608,27.5929005 L19.1968186,0.0755388949 Z" id="XMLID_87_" fill="#CFCFCF"></path>
                                <path d="M7.99188256,32.0477075 C7.3179961,32.0841517 6.50562167,31.5573673 6.30153413,30.7337283 L0.303480823,6.48044204 C0.100055905,5.65680303 0.573167931,4.81196013 1.18609317,4.53034583 L7.99188256,32.0477075 Z" id="XMLID_86_" fill="#CFCFCF"></path>
                            </g>
                            <path d="M4.45414431,5.26850661 L4.27788689,4.55618808 C4.11223142,3.88693998 4.20698635,3.2819662 4.87623445,3.11631073 L14.8440555,0.650694691 C15.5133036,0.48503922 16.3336295,0.864058938 16.4992849,1.53330704 L16.6755424,2.24562557 L4.45414431,5.26850661 Z" id="XMLID_84_" fill="#CFCFCF"></path>
                            <polygon id="XMLID_83_" fill="#E3E4E7" transform="translate(12.510913, 12.727885) rotate(166.108271) translate(-12.510913, -12.727885) " points="6.12258494 6.33955696 18.8992404 6.33955696 18.8992404 19.1162125 6.12258494 19.1162125"></polygon>
                            <g id="XMLID_70_" transform="translate(5.963597, 5.300975)">
                                <g id="XMLID_80_" transform="translate(7.951463, 0.000000)">
                                    <polygon id="XMLID_82_" fill="#8D8F90" transform="translate(2.076649, 4.464153) rotate(166.108271) translate(-2.076649, -4.464153) " points="1.17179358 0.116472213 2.98150502 0.116472213 2.98150502 8.81183415 1.17179358 8.81183415"></polygon>
                                    <polygon id="XMLID_81_" fill="#BDBEC2" transform="translate(1.946974, 4.679188) rotate(166.108271) translate(-1.946974, -4.679188) " points="1.21937809 0.509098698 2.67456898 0.509098698 2.67456898 8.84927743 1.21937809 8.84927743"></polygon>
                                </g>
                                <g id="XMLID_77_" transform="translate(5.300975, 0.662622)">
                                    <polygon id="XMLID_79_" fill="#8D8F90" transform="translate(2.080577, 4.456036) rotate(166.108271) translate(-2.080577, -4.456036) " points="1.17572108 0.108355162 2.98543251 0.108355162 2.98543251 8.8037171 1.17572108 8.8037171"></polygon>
                                    <polygon id="XMLID_78_" fill="#BDBEC2" transform="translate(1.950191, 4.671230) rotate(166.108271) translate(-1.950191, -4.671230) " points="1.22259605 0.501140741 2.67778694 0.501140741 2.67778694 8.84131948 1.22259605 8.84131948"></polygon>
                                </g>
                                <g id="XMLID_74_" transform="translate(2.650488, 1.325244)">
                                    <polygon id="XMLID_76_" fill="#8D8F90" transform="translate(2.083795, 4.448078) rotate(166.108271) translate(-2.083795, -4.448078) " points="1.17893903 0.100397205 2.98865047 0.100397205 2.98865047 8.79575914 1.17893903 8.79575914"></polygon>
                                    <polygon id="XMLID_75_" fill="#BDBEC2" transform="translate(1.954053, 4.663113) rotate(166.108271) translate(-1.954053, -4.663113) " points="1.22645728 0.49302369 2.68164817 0.49302369 2.68164817 8.83320242 1.22645728 8.83320242"></polygon>
                                </g>
                                <g id="XMLID_71_" transform="translate(0.000000, 1.987866)">
                                    <polygon id="XMLID_73_" fill="#8D8F90" transform="translate(2.087590, 4.439895) rotate(166.108271) translate(-2.087590, -4.439895) " points="1.182734 0.0922138913 2.99244544 0.0922138913 2.99244544 8.78757583 1.182734 8.78757583"></polygon>
                                    <polygon id="XMLID_72_" fill="#BDBEC2" transform="translate(1.957848, 4.654930) rotate(166.108271) translate(-1.957848, -4.654930) " points="1.23025225 0.484840376 2.68544313 0.484840376 2.68544313 8.82501911 1.23025225 8.82501911"></polygon>
                                </g>
                            </g>
                            <path d="M10.6079138,28.5808698 L21.6266531,25.855506 C22.0023597,25.7627389 22.2336147,25.3790808 22.1408477,25.0033742 L21.0077642,20.4206813 C20.9149972,20.0449746 20.5313391,19.8137196 20.1556325,19.9064867 L9.13689317,22.6318505 C8.76118657,22.7246176 8.52993153,23.1082756 8.62269859,23.4839822 L9.75578202,28.0666752 C9.84854908,28.4423818 10.2322072,28.6736368 10.6079138,28.5808698 Z" id="XMLID_69_" fill="#5A5A5C"></path>
                            <path d="M9.42977205,25.3870323 L10.0771536,28.0050514 C10.0771536,28.0050514 9.94330401,28.4834644 10.5462899,28.3343744 C11.1492758,28.1852845 21.5762938,25.6063601 21.5762938,25.6063601 C21.5762938,25.6063601 10.7430886,27.9381265 9.42977205,25.3870323 Z" id="XMLID_68_" fill="#3E3F41"></path>
                        </g>
                    </g>
                    <path d="M163.551165,187.840715 L81.1634102,187.840715 C78.3373278,187.840715 76.0247775,185.528164 76.0247775,182.702082 L76.0247775,180.810959 C76.0247775,177.984877 78.3373278,175.672326 81.1634102,175.672326 L163.551165,175.672326 C166.377247,175.672326 168.689798,177.984877 168.689798,180.810959 L168.689798,182.702082 C168.689798,185.528164 166.377247,187.840715 163.551165,187.840715 Z" id="XMLID_65_" fill="#D5DAE2"></path>
                    <g id="XMLID_29_" transform="translate(83.309642, 0.000000)">
                        <g id="XMLID_43_">
                            <path d="M74.9491614,181.264192 L2.94800477,181.264192 C1.43722687,181.264192 0.200774431,180.02774 0.200774431,178.516962 L0.200774431,106.515805 C0.200774431,105.005028 1.43722687,103.768575 2.94800477,103.768575 L74.9491614,103.768575 C76.4599393,103.768575 77.6963918,105.005028 77.6963918,106.515805 L77.6963918,178.516962 C77.6963918,180.028403 76.4599393,181.264192 74.9491614,181.264192 Z" id="XMLID_64_" fill="#444444"></path>
                            <path d="M57.3704654,166.704402 L20.5267008,166.704402 C16.8411978,166.704402 13.8262683,163.68881 13.8262683,160.003969 L13.8262683,6.92969967 C13.8262683,3.24419675 16.8418605,0.229267172 20.5267008,0.229267172 L57.3704654,0.229267172 C61.0559684,0.229267172 64.0708979,3.24485937 64.0708979,6.92969967 L64.0708979,160.003969 C64.0708979,163.689472 61.0559684,166.704402 57.3704654,166.704402 Z" id="XMLID_63_" fill="#232323"></path>
                            <g id="XMLID_46_" transform="translate(20.541278, 72.888407)" fill="#444444">
                                <g id="XMLID_59_">
                                    <circle id="XMLID_62_" cx="3.84850791" cy="3.89621668" r="3.6908039"></circle>
                                    <circle id="XMLID_61_" cx="18.4082986" cy="3.89621668" r="3.6908039"></circle>
                                    <circle id="XMLID_60_" cx="32.9680893" cy="3.89621668" r="3.6908039"></circle>
                                </g>
                                <g id="XMLID_55_" transform="translate(0.000000, 11.927194)">
                                    <circle id="XMLID_58_" cx="3.84718267" cy="3.84652004" r="3.6908039"></circle>
                                    <circle id="XMLID_57_" cx="18.407636" cy="3.84652004" r="3.6908039"></circle>
                                    <circle id="XMLID_56_" cx="32.9674267" cy="3.84652004" r="3.6908039"></circle>
                                </g>
                                <g id="XMLID_51_" transform="translate(0.000000, 23.854388)">
                                    <circle id="XMLID_54_" cx="3.84718267" cy="3.79748602" r="3.6908039"></circle>
                                    <circle id="XMLID_53_" cx="18.407636" cy="3.79748602" r="3.6908039"></circle>
                                    <circle id="XMLID_52_" cx="32.9674267" cy="3.79748602" r="3.6908039"></circle>
                                </g>
                                <g id="XMLID_47_" transform="translate(0.000000, 35.781582)">
                                    <circle id="XMLID_50_" cx="3.84718267" cy="3.74778938" r="3.6908039"></circle>
                                    <circle id="XMLID_49_" cx="18.407636" cy="3.74778938" r="3.6908039"></circle>
                                    <circle id="XMLID_48_" cx="32.9674267" cy="3.74778938" r="3.6908039"></circle>
                                </g>
                            </g>
                            <g id="XMLID_44_" transform="translate(20.541278, 21.866522)" fill="#6F7B84">
                                <rect id="XMLID_45_" x="0.156378765" y="0.139150596" width="36.5018518" height="23.6761426"></rect>
                            </g>
                        </g>
                        <path d="M44.3618726,65.1648867 L33.5359562,65.1648867 C31.8509088,65.1648867 30.47133,63.7859705 30.47133,62.1002605 L30.47133,55.2838691 C30.47133,53.5988217 31.8502462,52.2192429 33.5359562,52.2192429 L44.3618726,52.2192429 C46.04692,52.2192429 47.4264988,53.598159 47.4264988,55.2838691 L47.4264988,62.1002605 C47.4258362,63.7859705 46.04692,65.1648867 44.3618726,65.1648867 Z" id="XMLID_42_" fill="#444444"></path>
                        <path d="M25.9131541,65.1648867 L21.7697794,65.1648867 C20.5783853,65.1648867 19.6030059,64.1901699 19.6030059,62.9981131 L19.6030059,54.3866791 C19.6030059,53.1952849 20.5777226,52.2199055 21.7697794,52.2199055 L25.9131541,52.2199055 C27.1045482,52.2199055 28.0799276,53.1946223 28.0799276,54.3866791 L28.0799276,62.9981131 C28.079265,64.1901699 27.1045482,65.1648867 25.9131541,65.1648867 Z" id="XMLID_41_" fill="#444444"></path>
                        <path d="M55.5800611,65.1648867 L51.4366865,65.1648867 C50.2452923,65.1648867 49.2699129,64.1901699 49.2699129,62.9981131 L49.2699129,54.3866791 C49.2699129,53.1952849 50.2446297,52.2199055 51.4366865,52.2199055 L55.5800611,52.2199055 C56.7714553,52.2199055 57.7468347,53.1946223 57.7468347,54.3866791 L57.7468347,62.9981131 C57.7468347,64.1901699 56.7721179,65.1648867 55.5800611,65.1648867 Z" id="XMLID_40_" fill="#444444"></path>
                        <rect id="XMLID_39_" fill="#303030" x="32.3790184" y="9.26742969" width="1.37295255" height="4.31499372"></rect>
                        <rect id="XMLID_38_" fill="#303030" x="35.3210596" y="9.26742969" width="1.37295255" height="4.31499372"></rect>
                        <rect id="XMLID_37_" fill="#303030" x="38.2631008" y="9.26742969" width="1.37295255" height="4.31499372"></rect>
                        <rect id="XMLID_36_" fill="#303030" x="41.2051419" y="9.26742969" width="1.37295255" height="4.31499372"></rect>
                        <rect id="XMLID_35_" fill="#303030" x="44.1471831" y="9.26742969" width="1.37295255" height="4.31499372"></rect>
                        <rect id="XMLID_34_" fill="#303030" x="32.3790184" y="149.894347" width="1.37295255" height="8.62998743"></rect>
                        <rect id="XMLID_33_" fill="#303030" x="35.3210596" y="149.894347" width="1.37295255" height="8.62998743"></rect>
                        <rect id="XMLID_32_" fill="#303030" x="38.2631008" y="149.894347" width="1.37295255" height="8.62998743"></rect>
                        <rect id="XMLID_31_" fill="#303030" x="41.2051419" y="149.894347" width="1.37295255" height="8.62998743"></rect>
                        <rect id="XMLID_30_" fill="#303030" x="44.1471831" y="149.894347" width="1.37295255" height="8.62998743"></rect>
                    </g>
                </g>
            </g>
            <path d="M169.084715,34.648712 C177.385302,35.3009009 185.296057,35.9227038 194.01686,36.6075022 C191.96543,34.3292877 190.378684,32.5668953 188.422117,30.3939204 C199.630132,27.8904043 209.139491,30.4843375 217.832873,37.6369231 C213.644041,26.2873536 200.958967,20.1315795 183.237215,20.6963158 C182.573909,18.3313899 181.889852,15.8916104 181.032372,12.8307692 C178.814188,16.852848 176.854657,20.3865261 174.914395,23.9298389 C173.009707,27.4079327 171.125029,30.8956612 169.084715,34.648712 Z" id="XMLID_92_" fill="#00C0D2" fill-rule="nonzero" transform="translate(193.458794, 25.233846) rotate(-39.000000) translate(-193.458794, -25.233846) "></path>
        </g>
    </g>
</svg>