<?xml version="1.0" encoding="UTF-8"?>
<svg width="592px" height="329px" viewBox="0 0 592 329" version="1.1" xmlns="http://www.w3.org/2000/svg" xmlns:xlink="http://www.w3.org/1999/xlink">
    <title>adicionar_filtro_protetor4</title>
    <g id="Page-1" stroke="none" stroke-width="1" fill="none" fill-rule="evenodd">
        <g id="adicionar_filtro_protetor4" transform="translate(57.000000, 10.000000)">
            <g id="Group-7" transform="translate(17.000000, 62.000000)">
                <g id="Group-2" transform="translate(0.000000, 135.201023)">
                    <g id="XMLID_66_" transform="translate(58.500000, 53.500000) scale(1, -1) rotate(-77.000000) translate(-58.500000, -53.500000) translate(36.000000, -1.000000)" fill-rule="nonzero">
                        <g id="XMLID_90_" transform="translate(0.000000, 27.212598)" fill="#8B8C8D">
                            <path d="M14.195622,72.1831181 C15.6608504,70.5962835 17.308063,68.7866457 19.0369134,66.8213858 C27.6828661,56.995937 38.3417008,43.2892913 38.9794961,34.7981102 C39.7695118,24.2914961 33.3702992,3.74938583 33.0973228,2.88028346 C32.4646299,0.864 30.3216378,-0.262771654 28.300252,0.375023622 C26.2839685,1.00686614 25.1622992,3.15496063 25.7941417,5.17124409 C27.5306457,10.7073071 31.911874,26.7168189 31.348063,34.2249449 C30.9985512,38.8731969 24.4913386,48.5030551 16.1625827,58.4211969 C14.0808189,60.9009449 11.8859528,63.3985512 9.65877165,65.847685 C-6.2240315,81.1777323 0.158173228,85.7307402 14.195622,72.1831181 Z" id="XMLID_91_"></path>
                        </g>
                        <path d="M28.6574173,42.8215748 C27.6037795,38.4777638 26.488063,34.5948661 25.7949921,32.3829921 C25.1631496,30.3667087 26.2848189,28.2186142 28.3011024,27.5867717 C30.3224882,26.9489764 32.4646299,28.075748 33.0981732,30.0920315 C33.2240315,30.4942677 34.6603465,35.1051024 36.0898583,40.9830236 L28.6574173,42.8215748 Z" id="XMLID_89_" fill="#3E3F41"></path>
                        <g id="XMLID_67_" transform="translate(9.354331, 0.000000)">
                            <g id="XMLID_85_" transform="translate(0.000000, 1.700787)">
                                <path d="M11.0142992,40.9711181 L32.8260472,35.5762205 C33.9936378,35.287937 34.7122205,34.0965354 34.4230866,32.9289449 L26.7253228,1.80283465 C26.4370394,0.635244094 25.2456378,-0.0833385827 24.0780472,0.205795276 L2.26629921,5.59984252 C1.09870866,5.88812598 0.380125984,7.07952756 0.669259843,8.24711811 L8.36702362,39.3732283 C8.65530709,40.5408189 9.84670866,41.2594016 11.0142992,40.9711181 Z" id="XMLID_88_" fill="#F2F3F5"></path>
                                <path d="M24.6367559,0.0969448819 C25.5016063,0.0501732283 26.544189,0.72623622 26.8061102,1.78327559 L34.503874,32.9093858 C34.7649449,33.9664252 34.1577638,35.0506772 33.3711496,35.4120945 L24.6367559,0.0969448819 Z" id="XMLID_87_" fill="#CFCFCF"></path>
                                <path d="M10.2565984,41.1292913 C9.39174803,41.176063 8.34916535,40.5 8.08724409,39.4429606 L0.389480315,8.31685039 C0.128409449,7.25981102 0.735590551,6.17555906 1.52220472,5.81414173 L10.2565984,41.1292913 Z" id="XMLID_86_" fill="#CFCFCF"></path>
                            </g>
                            <path d="M5.71634646,6.76148031 L5.49014173,5.84730709 C5.27754331,4.98840945 5.39914961,4.212 6.25804724,3.99940157 L19.0505197,0.835086614 C19.9094173,0.622488189 20.9622047,1.10891339 21.1748031,1.96781102 L21.4010079,2.88198425 L5.71634646,6.76148031 Z" id="XMLID_84_" fill="#CFCFCF"></path>
                            <polygon id="XMLID_83_" fill="#E3E4E7" transform="translate(16.056218, 16.334675) rotate(166.108271) translate(-16.056218, -16.334675) " points="7.85758482 8.13604173 24.2548509 8.13604173 24.2548509 24.5333078 7.85758482 24.5333078"></polygon>
                            <g id="XMLID_70_" transform="translate(7.653543, 6.803150)">
                                <g id="XMLID_80_" transform="translate(10.204724, 0.000000)">
                                    <polygon id="XMLID_82_" fill="#8D8F90" transform="translate(2.665124, 5.729192) rotate(166.108271) translate(-2.665124, -5.729192) " points="1.50385296 0.149477762 3.82639503 0.149477762 3.82639503 11.3089055 1.50385296 11.3089055"></polygon>
                                    <polygon id="XMLID_81_" fill="#BDBEC2" transform="translate(2.498701, 6.005162) rotate(166.108271) translate(-2.498701, -6.005162) " points="1.56492182 0.65336557 3.43248037 0.65336557 3.43248037 11.3569593 1.56492182 11.3569593"></polygon>
                                </g>
                                <g id="XMLID_77_" transform="translate(6.803150, 0.850394)">
                                    <polygon id="XMLID_79_" fill="#8D8F90" transform="translate(2.670164, 5.718774) rotate(166.108271) translate(-2.670164, -5.718774) " points="1.50889341 0.139060524 3.83143548 0.139060524 3.83143548 11.2984882 1.50889341 11.2984882"></polygon>
                                    <polygon id="XMLID_78_" fill="#BDBEC2" transform="translate(2.502831, 5.994949) rotate(166.108271) translate(-2.502831, -5.994949) " points="1.56905168 0.643152512 3.43661022 0.643152512 3.43661022 11.3467462 1.56905168 11.3467462"></polygon>
                                </g>
                                <g id="XMLID_74_" transform="translate(3.401575, 1.700787)">
                                    <polygon id="XMLID_76_" fill="#8D8F90" transform="translate(2.674294, 5.708561) rotate(166.108271) translate(-2.674294, -5.708561) " points="1.51302326 0.128847466 3.83556533 0.128847466 3.83556533 11.2882752 1.51302326 11.2882752"></polygon>
                                    <polygon id="XMLID_75_" fill="#BDBEC2" transform="translate(2.507786, 5.984532) rotate(166.108271) translate(-2.507786, -5.984532) " points="1.57400709 0.632735274 3.44156563 0.632735274 3.44156563 11.336329 1.57400709 11.336329"></polygon>
                                </g>
                                <g id="XMLID_71_" transform="translate(0.000000, 2.551181)">
                                    <polygon id="XMLID_73_" fill="#8D8F90" transform="translate(2.679165, 5.698059) rotate(166.108271) translate(-2.679165, -5.698059) " points="1.51789364 0.118345189 3.84043571 0.118345189 3.84043571 11.2777729 1.51789364 11.2777729"></polygon>
                                    <polygon id="XMLID_72_" fill="#BDBEC2" transform="translate(2.512657, 5.974030) rotate(166.108271) translate(-2.512657, -5.974030) " points="1.57887746 0.622232997 3.44643601 0.622232997 3.44643601 11.3258267 1.57887746 11.3258267"></polygon>
                                </g>
                            </g>
                            <path d="M13.6139528,36.6800315 L27.7551496,33.1823622 C28.2373228,33.0633071 28.5341102,32.5709291 28.4150551,32.0887559 L26.9608819,26.2074331 C26.8418268,25.7252598 26.3494488,25.4284724 25.8672756,25.5475276 L11.7260787,29.0451969 C11.2439055,29.164252 10.9471181,29.6566299 11.0661732,30.1388031 L12.5203465,36.020126 C12.6394016,36.5022992 13.1317795,36.7990866 13.6139528,36.6800315 Z" id="XMLID_69_" fill="#5A5A5C"></path>
                            <path d="M12.1019528,32.5811339 L12.9327874,35.9410394 C12.9327874,35.9410394 12.7610079,36.5550236 13.5348661,36.363685 C14.3087244,36.1723465 27.6905197,32.8626142 27.6905197,32.8626142 C27.6905197,32.8626142 13.7874331,35.8551496 12.1019528,32.5811339 Z" id="XMLID_68_" fill="#3E3F41"></path>
                        </g>
                    </g>
                    <rect id="Rectangle" fill="#232323" x="85.0566593" y="0.403284557" width="127.204032" height="81" rx="5"></rect>
                    <rect id="Rectangle-Copy" fill="#5E5E5E" x="153.056659" y="8.90328456" width="50" height="64" rx="5"></rect>
                    <circle id="Oval" fill="#FF0000" cx="118.306659" cy="40.6532846" r="3.25"></circle>
                </g>
                <g id="Group-3" transform="translate(103.000000, 113.201023)" fill="#FF0000">
                    <path d="M-16.3558503,56.7956989 L140.011764,56.7956989 C142.113451,56.7956989 143.817204,58.4994524 143.817204,60.6011389 L143.817204,63.2199367 C143.817204,65.3216232 142.113451,67.0253767 140.011764,67.0253767 L-16.3558503,67.0253767 C-18.4575368,67.0253767 -20.1612903,65.3216232 -20.1612903,63.2199367 L-20.1612903,60.6011389 C-20.1612903,58.4994524 -18.4575368,56.7956989 -16.3558503,56.7956989 Z" id="Rectangle" transform="translate(61.827957, 61.910538) rotate(-315.000000) translate(-61.827957, -61.910538) "></path>
                    <path d="M-16.3558503,56.7956989 L140.011764,56.7956989 C142.113451,56.7956989 143.817204,58.4994524 143.817204,60.6011389 L143.817204,63.2199367 C143.817204,65.3216232 142.113451,67.0253767 140.011764,67.0253767 L-16.3558503,67.0253767 C-18.4575368,67.0253767 -20.1612903,65.3216232 -20.1612903,63.2199367 L-20.1612903,60.6011389 C-20.1612903,58.4994524 -18.4575368,56.7956989 -16.3558503,56.7956989 Z" id="Rectangle-Copy-2" transform="translate(61.827957, 61.910538) rotate(-45.000000) translate(-61.827957, -61.910538) "></path>
                </g>
                <g id="sfio-cabo-telefonico-bem-conectado-copy" transform="translate(263.000000, 0.000000)" fill-rule="nonzero">
                    <g id="XMLID_28_">
                        <g id="XMLID_66_" transform="translate(0.563380, 58.098592)">
                            <g id="XMLID_90_" transform="translate(0.000000, 24.788732)" fill="#8B8C8D">
                                <path d="M52.6915493,134.026479 C59.4588732,132.352465 65.4794366,128.78831 70.8570423,123.306127 C76.7242254,117.323521 82.1785211,104.630915 87.9535211,91.1938732 C93.6394366,77.9628873 100.715845,61.4969718 105.769648,59.7338732 C107.587746,59.0994366 108.546761,57.1116901 107.913099,55.2951408 C107.278662,53.4762676 105.294789,52.509507 103.473592,53.1509155 C96.0571127,55.7374648 90.2426056,68.2092958 81.5487324,88.4407746 C76.2811268,100.698028 70.8345775,113.372817 65.8799296,118.424296 C57.0876761,127.388521 46.558662,130.072676 32.7435915,126.87338 C29.4792254,126.117324 25.5533099,123.840634 21.7745775,120.782324 C19.8852113,119.253169 18.0338028,117.528803 16.3210563,115.701408 C-4.37753521,97.7597887 20.2849296,78.0945775 33.0720423,65.753662 C34.4067606,64.308169 35.9072535,62.6597183 37.4821127,60.869507 C45.3579577,51.9192254 55.0673944,39.4334507 55.6483803,31.6985915 C56.3680282,22.1278169 50.5388028,3.41542254 50.2901408,2.62373239 C49.7138028,0.787042254 47.7616901,-0.239366197 45.9203521,0.341619718 C44.083662,0.917183099 43.0619014,2.87394366 43.6374648,4.7106338 C45.2192958,9.75359155 49.2102817,24.3371127 48.6966901,31.1764789 C48.3783099,35.4107042 42.4507042,44.1828169 34.8638028,53.2175352 C32.9674648,55.4764085 30.9680986,57.7515493 28.9392958,59.9825352 C14.4711972,73.9471127 -11.5089437,94.736338 6.9284507,115.395423 C8.24612676,117.182535 9.71485915,118.919296 11.2788732,120.566197 C17.5333803,127.153028 25.2899296,132.302887 31.1710563,133.665493 C39.0809859,135.497535 46.2271127,135.625352 52.6915493,134.026479 Z" id="XMLID_91_"></path>
                            </g>
                            <path d="M46.2457042,39.0073944 C45.2859155,35.050493 44.2695775,31.5134507 43.6382394,29.4985915 C43.0626761,27.6619014 44.0844366,25.7051408 45.9211268,25.1295775 C47.7624648,24.5485915 49.7138028,25.575 50.2909155,27.4116901 C50.4055634,27.7780986 51.7139437,31.9782394 53.0161268,37.3326056 L46.2457042,39.0073944 Z" id="XMLID_89_" fill="#3E3F41"></path>
                            <g id="XMLID_67_" transform="translate(28.661972, 0.000000)">
                                <g id="XMLID_85_" transform="translate(0.000000, 1.549296)">
                                    <path d="M10.0332394,37.3217606 L29.9021831,32.4073944 C30.9657746,32.1447887 31.6203521,31.059507 31.3569718,29.9959155 L24.3448592,1.64225352 C24.0822535,0.578661972 22.9969718,-0.075915493 21.9333803,0.187464789 L2.06443662,5.10105634 C1.00084507,5.36366197 0.346267606,6.44894366 0.609647887,7.51253521 L7.62176056,35.8661972 C7.8843662,36.9297887 8.96964789,37.5843662 10.0332394,37.3217606 Z" id="XMLID_88_" fill="#F2F3F5"></path>
                                    <path d="M22.4423239,0.0883098592 C23.2301408,0.0457042254 24.1798592,0.661549296 24.4184507,1.62443662 L31.4305634,29.9780986 C31.6683803,30.9409859 31.1152817,31.928662 30.3987324,32.2578873 L22.4423239,0.0883098592 Z" id="XMLID_87_" fill="#CFCFCF"></path>
                                    <path d="M9.34302817,37.4658451 C8.55521127,37.5084507 7.60549296,36.8926056 7.36690141,35.9297183 L0.354788732,7.57605634 C0.116971831,6.61316901 0.670070423,5.62549296 1.38661972,5.29626761 L9.34302817,37.4658451 Z" id="XMLID_86_" fill="#CFCFCF"></path>
                                </g>
                                <path d="M5.2071831,6.15922535 L5.00112676,5.32647887 C4.80746479,4.54408451 4.91823944,3.83683099 5.7006338,3.64316901 L17.353662,0.760704225 C18.1360563,0.567042254 19.0950704,1.01014085 19.2887324,1.79253521 L19.4947887,2.62528169 L5.2071831,6.15922535 Z" id="XMLID_84_" fill="#CFCFCF"></path>
                                <polygon id="XMLID_83_" fill="#E3E4E7" transform="translate(14.626067, 14.879721) rotate(166.108271) translate(-14.626067, -14.879721) " points="7.15769822 7.41135257 22.0944358 7.41135257 22.0944358 22.3480901 7.15769822 22.3480901"></polygon>
                                <g id="XMLID_70_" transform="translate(6.971831, 6.197183)">
                                    <g id="XMLID_80_" transform="translate(9.295775, 0.000000)">
                                        <polygon id="XMLID_82_" fill="#8D8F90" transform="translate(2.427737, 5.218884) rotate(166.108271) translate(-2.427737, -5.218884) " points="1.36990257 0.136163559 3.48557241 0.136163559 3.48557241 10.3016047 1.36990257 10.3016047"></polygon>
                                        <polygon id="XMLID_81_" fill="#BDBEC2" transform="translate(2.276138, 5.470274) rotate(166.108271) translate(-2.276138, -5.470274) " points="1.42553194 0.595169341 3.12674431 0.595169341 3.12674431 10.3453783 1.42553194 10.3453783"></polygon>
                                    </g>
                                    <g id="XMLID_77_" transform="translate(6.197183, 0.774648)">
                                        <polygon id="XMLID_79_" fill="#8D8F90" transform="translate(2.432329, 5.209395) rotate(166.108271) translate(-2.432329, -5.209395) " points="1.37449406 0.1266742 3.49016391 0.1266742 3.49016391 10.2921153 1.37449406 10.2921153"></polygon>
                                        <polygon id="XMLID_78_" fill="#BDBEC2" transform="translate(2.279900, 5.460970) rotate(166.108271) translate(-2.279900, -5.460970) " points="1.42929394 0.585865975 3.13050631 0.585865975 3.13050631 10.3360749 1.42929394 10.3360749"></polygon>
                                    </g>
                                    <g id="XMLID_74_" transform="translate(3.098592, 1.549296)">
                                        <polygon id="XMLID_76_" fill="#8D8F90" transform="translate(2.436091, 5.200091) rotate(166.108271) translate(-2.436091, -5.200091) " points="1.37825606 0.117370834 3.49392591 0.117370834 3.49392591 10.2828119 1.37825606 10.2828119"></polygon>
                                        <polygon id="XMLID_75_" fill="#BDBEC2" transform="translate(2.284414, 5.451481) rotate(166.108271) translate(-2.284414, -5.451481) " points="1.43380797 0.576376616 3.13502034 0.576376616 3.13502034 10.3265856 1.43380797 10.3265856"></polygon>
                                    </g>
                                    <g id="XMLID_71_" transform="translate(0.000000, 2.323944)">
                                        <polygon id="XMLID_73_" fill="#8D8F90" transform="translate(2.440528, 5.190525) rotate(166.108271) translate(-2.440528, -5.190525) " points="1.38269263 0.10780401 3.49836247 0.10780401 3.49836247 10.2732451 1.38269263 10.2732451"></polygon>
                                        <polygon id="XMLID_72_" fill="#BDBEC2" transform="translate(2.288851, 5.441914) rotate(166.108271) translate(-2.288851, -5.441914) " points="1.43824453 0.566809792 3.1394569 0.566809792 3.1394569 10.3170187 1.43824453 10.3170187"></polygon>
                                    </g>
                                </g>
                                <path d="M12.401338,33.4128873 L25.2829577,30.2267606 C25.7221831,30.1183099 25.9925352,29.6697887 25.8840845,29.2305634 L24.5594366,23.8730986 C24.4509859,23.4338732 24.0024648,23.1635211 23.5632394,23.2719718 L10.6816197,26.4580986 C10.2423944,26.5665493 9.97204225,27.0150704 10.080493,27.4542958 L11.4051408,32.8117606 C11.5135915,33.2509859 11.9621127,33.521338 12.401338,33.4128873 Z" id="XMLID_69_" fill="#5A5A5C"></path>
                                <path d="M11.0240141,29.6790845 L11.7808451,32.7397183 C11.7808451,32.7397183 11.6243662,33.2990141 12.3292958,33.1247183 C13.0342254,32.9504225 25.2240845,29.935493 25.2240845,29.935493 C25.2240845,29.935493 12.5593662,32.6614789 11.0240141,29.6790845 Z" id="XMLID_68_" fill="#3E3F41"></path>
                            </g>
                        </g>
                        <path d="M191.201901,219.597958 L94.8852817,219.597958 C91.5814085,219.597958 88.8778873,216.894437 88.8778873,213.590563 L88.8778873,211.379718 C88.8778873,208.075845 91.5814085,205.372324 94.8852817,205.372324 L191.201901,205.372324 C194.505775,205.372324 197.209296,208.075845 197.209296,211.379718 L197.209296,213.590563 C197.209296,216.894437 194.505775,219.597958 191.201901,219.597958 Z" id="XMLID_65_" fill="#D5DAE2"></path>
                        <g id="XMLID_29_" transform="translate(97.394366, 0.000000)">
                            <g id="XMLID_43_">
                                <path d="M87.6204225,211.909577 L3.44640845,211.909577 C1.68021127,211.909577 0.23471831,210.464085 0.23471831,208.697887 L0.23471831,124.523873 C0.23471831,122.757676 1.68021127,121.312183 3.44640845,121.312183 L87.6204225,121.312183 C89.3866197,121.312183 90.8321127,122.757676 90.8321127,124.523873 L90.8321127,208.697887 C90.8321127,210.464859 89.3866197,211.909577 87.6204225,211.909577 Z" id="XMLID_64_" fill="#444444"></path>
                                <path d="M67.0697887,194.888239 L23.9970423,194.888239 C19.6884507,194.888239 16.1638028,191.362817 16.1638028,187.055 L16.1638028,8.10126761 C16.1638028,3.79267606 19.6892254,0.268028169 23.9970423,0.268028169 L67.0697887,0.268028169 C71.3783803,0.268028169 74.9030282,3.7934507 74.9030282,8.10126761 L74.9030282,187.055 C74.9030282,191.363592 71.3783803,194.888239 67.0697887,194.888239 Z" id="XMLID_63_" fill="#232323"></path>
                                <g id="XMLID_46_" transform="translate(24.014085, 85.211268)" fill="#444444">
                                    <g id="XMLID_59_">
                                        <circle id="XMLID_62_" cx="4.49915493" cy="4.55492958" r="4.31478873"></circle>
                                        <circle id="XMLID_61_" cx="21.520493" cy="4.55492958" r="4.31478873"></circle>
                                        <circle id="XMLID_60_" cx="38.541831" cy="4.55492958" r="4.31478873"></circle>
                                    </g>
                                    <g id="XMLID_55_" transform="translate(0.000000, 13.943662)">
                                        <circle id="XMLID_58_" cx="4.49760563" cy="4.49683099" r="4.31478873"></circle>
                                        <circle id="XMLID_57_" cx="21.5197183" cy="4.49683099" r="4.31478873"></circle>
                                        <circle id="XMLID_56_" cx="38.5410563" cy="4.49683099" r="4.31478873"></circle>
                                    </g>
                                    <g id="XMLID_51_" transform="translate(0.000000, 27.887324)">
                                        <circle id="XMLID_54_" cx="4.49760563" cy="4.43950704" r="4.31478873"></circle>
                                        <circle id="XMLID_53_" cx="21.5197183" cy="4.43950704" r="4.31478873"></circle>
                                        <circle id="XMLID_52_" cx="38.5410563" cy="4.43950704" r="4.31478873"></circle>
                                    </g>
                                    <g id="XMLID_47_" transform="translate(0.000000, 41.830986)">
                                        <circle id="XMLID_50_" cx="4.49760563" cy="4.38140845" r="4.31478873"></circle>
                                        <circle id="XMLID_49_" cx="21.5197183" cy="4.38140845" r="4.31478873"></circle>
                                        <circle id="XMLID_48_" cx="38.5410563" cy="4.38140845" r="4.31478873"></circle>
                                    </g>
                                </g>
                                <g id="XMLID_44_" transform="translate(24.014085, 25.563380)" fill="#6F7B84">
                                    <rect id="XMLID_45_" x="0.182816901" y="0.162676056" width="42.6730282" height="27.6789437"></rect>
                                </g>
                            </g>
                            <path d="M51.8619014,76.1819718 L39.2057042,76.1819718 C37.2357746,76.1819718 35.6229577,74.5699296 35.6229577,72.5992254 L35.6229577,64.6304225 C35.6229577,62.660493 37.235,61.0476761 39.2057042,61.0476761 L51.8619014,61.0476761 C53.831831,61.0476761 55.4446479,62.6597183 55.4446479,64.6304225 L55.4446479,72.5992254 C55.4438732,74.5699296 53.831831,76.1819718 51.8619014,76.1819718 Z" id="XMLID_42_" fill="#444444"></path>
                            <path d="M30.2941549,76.1819718 L25.4502817,76.1819718 C24.0574648,76.1819718 22.9171831,75.0424648 22.9171831,73.6488732 L22.9171831,63.5815493 C22.9171831,62.1887324 24.0566901,61.0484507 25.4502817,61.0484507 L30.2941549,61.0484507 C31.6869718,61.0484507 32.8272535,62.1879577 32.8272535,63.5815493 L32.8272535,73.6488732 C32.8264789,75.0424648 31.6869718,76.1819718 30.2941549,76.1819718 Z" id="XMLID_41_" fill="#444444"></path>
                            <path d="M64.9766901,76.1819718 L60.1328169,76.1819718 C58.74,76.1819718 57.5997183,75.0424648 57.5997183,73.6488732 L57.5997183,63.5815493 C57.5997183,62.1887324 58.7392254,61.0484507 60.1328169,61.0484507 L64.9766901,61.0484507 C66.369507,61.0484507 67.5097887,62.1879577 67.5097887,63.5815493 L67.5097887,73.6488732 C67.5097887,75.0424648 66.3702817,76.1819718 64.9766901,76.1819718 Z" id="XMLID_40_" fill="#444444"></path>
                            <rect id="XMLID_39_" fill="#303030" x="37.853169" y="10.8342254" width="1.60507042" height="5.04450704"></rect>
                            <rect id="XMLID_38_" fill="#303030" x="41.2926056" y="10.8342254" width="1.60507042" height="5.04450704"></rect>
                            <rect id="XMLID_37_" fill="#303030" x="44.7320423" y="10.8342254" width="1.60507042" height="5.04450704"></rect>
                            <rect id="XMLID_36_" fill="#303030" x="48.1714789" y="10.8342254" width="1.60507042" height="5.04450704"></rect>
                            <rect id="XMLID_35_" fill="#303030" x="51.6109155" y="10.8342254" width="1.60507042" height="5.04450704"></rect>
                            <rect id="XMLID_34_" fill="#303030" x="37.853169" y="175.236197" width="1.60507042" height="10.0890141"></rect>
                            <rect id="XMLID_33_" fill="#303030" x="41.2926056" y="175.236197" width="1.60507042" height="10.0890141"></rect>
                            <rect id="XMLID_32_" fill="#303030" x="44.7320423" y="175.236197" width="1.60507042" height="10.0890141"></rect>
                            <rect id="XMLID_31_" fill="#303030" x="48.1714789" y="175.236197" width="1.60507042" height="10.0890141"></rect>
                            <rect id="XMLID_30_" fill="#303030" x="51.6109155" y="175.236197" width="1.60507042" height="10.0890141"></rect>
                        </g>
                    </g>
                </g>
                <path d="M149.524656,101.207611 C159.228579,101.970062 168.476764,102.69699 178.671948,103.497563 C176.273693,100.834183 174.418684,98.7738323 172.131331,96.233484 C185.234226,93.3067116 196.351282,96.3391874 206.514408,104.701023 C201.617393,91.4326415 186.78772,84.236143 166.069844,84.8963563 C165.294397,82.1316047 164.49469,79.2793446 163.49224,75.701023 C160.89904,80.4030935 158.608221,84.5341921 156.339929,88.6765541 C154.113225,92.742671 151.909915,96.8200515 149.524656,101.207611 Z" id="XMLID_92_" fill="#00C0D2" fill-rule="nonzero" transform="translate(178.019532, 90.201023) rotate(-39.000000) translate(-178.019532, -90.201023) "></path>
            </g>
            <g id="microfiltro-00-copy">
                <g id="Group-2" transform="translate(0.000000, 6.519400)">
                    <path d="M62.8467675,92.5655295 L2.95185004,92.5655295 C1.32848663,92.5655295 0,91.2330657 0,89.6048423 L0,2.96068719 C0,1.33246381 1.32848663,0 2.95185004,0 L62.8467675,0 C64.4701309,0 65.7986175,1.33246381 65.7986175,2.96068719 L65.7986175,89.6048423 C65.7986175,91.2330657 64.4701309,92.5655295 62.8467675,92.5655295 Z" id="Fill-1" fill="#E6E6E6"></path>
                    <path d="M1.02744519,0 C1.02744519,0.401903239 0,1.1315122 0,2.46397601 L0,89.2740451 C0,89.2740451 0,90.7239883 1.02744519,91.4680245 L1.02744519,0 Z" id="Fill-3" fill="#CFCFCF"></path>
                    <path d="M42.8548449,56.8902471 L23.7895719,56.8902471 C23.2337241,56.8902471 22.7785658,56.4337263 22.7785658,55.8762143 L22.7785658,36.7538643 C22.7785658,36.1963524 23.2337241,35.7398315 23.7895719,35.7398315 L42.8548449,35.7398315 C43.4106927,35.7398315 43.865851,36.1963524 43.865851,36.7538643 L43.865851,55.8762143 C43.865851,56.4337263 43.4106927,56.8902471 42.8548449,56.8902471" id="Fill-5" fill="#F2F3F5"></path>
                    <polyline id="Fill-7" fill="#E5E9EC" points="43.2617132 56.2884228 43.2637681 35.7398315 22.7785658 56.2884228"></polyline>
                    <path d="M23.16497,35.4828505 C22.8094739,35.4828505 22.5207618,35.772427 22.5207618,36.1289873 L22.5207618,55.2513373 C22.5207618,55.6078976 22.8094739,55.897474 23.16497,55.897474 L42.2302429,55.897474 C42.585739,55.897474 42.8744511,55.6078976 42.8744511,55.2513373 L42.8744511,36.1289873 C42.8744511,35.772427 42.585739,35.4828505 42.2302429,35.4828505 L23.16497,35.4828505 Z M42.2302429,56.6332661 L23.16497,56.6332661 C22.405688,56.6332661 21.7881934,56.0128924 21.7881934,55.2513373 L21.7881934,36.1289873 C21.7881934,35.3674322 22.405688,34.7470584 23.16497,34.7470584 L42.2302429,34.7470584 C42.9905524,34.7470584 43.6080469,35.3674322 43.6080469,36.1289873 L43.6080469,55.2513373 C43.6080469,56.0128924 42.9905524,56.6332661 42.2302429,56.6332661 L42.2302429,56.6332661 Z" id="Fill-9" fill="#5B5B5D"></path>
                    <polygon id="Fill-11" fill="#5A5A5C" points="32.9850369 38.7181508 24.7593107 38.7181508 24.7593107 47.992841 27.8416463 47.992841 27.8416463 51.0844043 29.8965366 51.0844043 29.8965366 53.1454466 32.9850369 53.1454466 36.0612078 53.1454466 36.0612078 51.0844043 38.1160982 51.0844043 38.1160982 47.992841 41.1984338 47.992841 41.1984338 38.7181508"></polygon>
                    <polygon id="Fill-13" fill="#3F4243" points="24.7593107 39.748672 41.1984338 39.748672 41.1984338 38.7181508 24.7593107 38.7181508"></polygon>
                    <polygon id="Fill-15" fill="#3F4243" points="24.7593107 47.6908568 27.8416463 47.6908568 27.8416463 46.6603356 24.7593107 46.6603356"></polygon>
                    <polygon id="Fill-16" fill="#3F4243" points="37.6341522 47.6908568 40.7164878 47.6908568 40.7164878 46.6603356 37.6341522 46.6603356"></polygon>
                    <polygon id="Fill-17" fill="#3F4243" points="27.730428 50.669176 29.7853184 50.669176 29.7853184 49.6386549 27.730428 49.6386549"></polygon>
                    <polygon id="Fill-19" fill="#3F4243" points="35.6534074 50.669176 37.7082978 50.669176 37.7082978 49.6386549 35.6534074 49.6386549"></polygon>
                    <polygon id="Fill-20" fill="#BDBEC2" points="30.7015453 43.7120562 32.0762669 43.7120562 32.0762669 38.7181508 30.7015453 38.7181508"></polygon>
                    <polygon id="Fill-21" fill="#BDBEC2" points="28.7208004 43.7120562 30.0955221 43.7120562 30.0955221 38.7181508 28.7208004 38.7181508"></polygon>
                    <polygon id="Fill-22" fill="#BDBEC2" points="33.6726625 43.7120562 35.0473842 43.7120562 35.0473842 38.7181508 33.6726625 38.7181508"></polygon>
                    <polygon id="Fill-23" fill="#BDBEC2" points="35.6534074 43.7120562 37.0281291 43.7120562 37.0281291 38.7181508 35.6534074 38.7181508"></polygon>
                </g>
                <g id="Group-5" transform="translate(199.079841, 86.863190) rotate(-3.000000) translate(-199.079841, -86.863190) translate(88.079841, 5.863190)">
                    <g id="Group-3" transform="translate(113.402338, 80.813415) rotate(28.000000) translate(-113.402338, -80.813415) translate(10.902338, 44.313415)">
                        <path d="M117.834182,10.4788541 C99.5343553,5.7487621 82.3051269,17.6595253 66.9550957,28.2831675 C56.9354502,35.2175442 47.4716525,41.7675365 38.8883754,43.1484348 C16.7736451,46.7057937 6.01629393,35.8368874 5.53750447,35.3381152 C4.32203681,34.0540858 2.29591489,33.9974072 1.01058095,35.2103305 C-0.280917652,36.4284065 -0.342564363,38.4657468 0.871875854,39.7611118 C1.40511991,40.328929 14.2276359,53.6360483 39.9045187,49.5046891 C49.9221093,47.8939845 59.9664135,40.942089 70.6014987,33.5821072 C84.8983986,23.6860128 99.6278528,13.5034336 114.566906,16.3466413 L117.834182,10.4788541 Z" id="Fill-54" fill="#B5AE86"></path>
                        <polygon id="Fill-70" fill="#EDEAD3" points="199.739133 18.6736611 155.467547 0.0294729042 122.772186 6.6979751 115.192723 24.7434305 133.332268 52.9168476 177.614128 71.5651578"></polygon>
                        <polygon id="Fill-71" fill="#D8D4B6" points="155.342712 -1.03907972e-13 122.71619 6.66747168 115.064806 24.6820115 133.229009 52.8647032 147.881552 17.8365447"></polygon>
                        <polygon id="Fill-72" fill="#D8D4B6" points="113.874716 23.8312132 121.126424 6.49475634 115.9481 4.31520416 108.696392 21.651661"></polygon>
                        <path d="M203.996763,27.5846803 L186.940145,68.3603402 C185.541792,71.7043812 181.705312,73.277987 178.371252,71.8744172 L167.564584,67.3267275 C164.230524,65.9241883 162.661615,62.0762224 164.060996,58.7332118 L181.117613,17.9565214 C182.515966,14.6135109 186.352447,13.0399052 189.685479,14.4424444 L200.493175,18.9911647 C203.827234,20.3937039 205.395116,24.2416698 203.996763,27.5846803" id="Fill-73" fill="#D8D4B6"></path>
                        <polygon id="Fill-74" fill="#F2F3F5" points="192.174876 48.8596859 184.661169 66.8226996 166.751772 59.2864986 174.265479 41.3234849"></polygon>
                        <polyline id="Fill-75" fill="#E5E9EC" points="191.656016 49.0243632 174.257259 41.7004495 184.357045 66.4721163"></polyline>
                        <path d="M167.193779,59.1048178 L184.480544,66.3792664 L191.73328,49.0407485 L174.446514,41.7662998 L167.193779,59.1048178 Z M192.486397,48.9912834 L184.97269,66.9532666 C184.899742,67.1263942 184.702472,67.2078054 184.529862,67.1346384 L166.621492,59.5984374 C166.448881,59.5263009 166.367713,59.3274103 166.440662,59.1553133 L173.954368,41.1922996 C174.026289,41.0202025 174.224586,40.9387914 174.39617,41.0109278 L192.305567,48.5471288 C192.47715,48.6192653 192.558318,48.8181559 192.486397,48.9912834 L192.486397,48.9912834 Z" id="Fill-76" fill="#5B5B5D"></path>
                        <polygon id="Fill-77" fill="#5A5A5C" points="173.711994 51.6642491 170.8783 58.438895 178.411528 61.608778 179.465687 59.0901844 181.976763 60.1464685 182.678508 58.4677496 185.189584 59.5240338 186.267374 56.9477309 187.296874 54.4868465 184.785798 53.4305623 185.83893 50.9119687 183.327853 49.854654 184.030626 48.1759351 176.497398 45.0060521"></polygon>
                        <polygon id="Fill-78" fill="#3F4243" points="171.003546 58.1390134 171.003546 58.1390134 176.60004 44.7597576"></polygon>
                        <polygon id="Fill-79" fill="#3F4243" points="178.411631 61.6085719 178.411631 61.6085719 179.464762 59.0899783"></polygon>
                        <polygon id="Fill-80" fill="#3F4243" points="183.328264 49.8548601 183.328264 49.8548601 184.031037 48.1761412"></polygon>
                        <polygon id="Fill-81" fill="#3F4243" points="181.139292 59.7944425 181.97666 60.1468807 182.678405 58.4671313 181.842065 58.1157236"></polygon>
                        <polygon id="Fill-82" fill="#3F4243" points="184.352833 59.1720077 185.190201 59.524446 187.297491 54.4872587 186.460123 54.1348205"></polygon>
                        <polygon id="Fill-83" fill="#3F4243" points="183.948841 53.0780211 184.786209 53.4304593 185.83934 50.9118657 185.001973 50.5594274"></polygon>
                        <polygon id="Fill-84" fill="#BDBEC2" points="177.492478 53.6530519 177.002387 54.8247544 172.773423 53.0450444 173.263514 51.8733419"></polygon>
                        <polygon id="Fill-85" fill="#BDBEC2" points="176.686756 55.579405 176.196665 56.7511075 171.9677 54.9713975 172.457792 53.799695"></polygon>
                        <polygon id="Fill-86" fill="#BDBEC2" points="178.298304 51.7266987 177.808212 52.8984012 173.580275 51.1186913 174.069339 49.9469887"></polygon>
                        <polygon id="Fill-87" fill="#BDBEC2" points="179.104129 49.8004486 178.614038 50.9721511 174.386101 49.1924412 174.875165 48.0207386"></polygon>
                        <polygon id="Fill-88" fill="#F2F3F5" points="201.305781 27.0313935 193.792075 44.9944073 175.882677 37.4582063 183.396384 19.4951925"></polygon>
                        <polyline id="Fill-89" fill="#E5E9EC" points="200.786921 27.1960708 183.388164 19.8721572 193.487951 44.643824"></polyline>
                        <path d="M176.324684,37.2765254 L193.61145,44.550974 L200.864185,27.2124561 L183.57742,19.9380075 L176.324684,37.2765254 Z M201.617303,27.1629911 L194.103596,45.1249743 C194.030647,45.2981018 193.833378,45.379513 193.660767,45.306346 L175.752397,37.770145 C175.579787,37.6980085 175.498618,37.499118 175.571567,37.3270209 L183.085274,19.3640072 C183.157195,19.1919102 183.355492,19.110499 183.527075,19.1826355 L201.436472,26.7188365 C201.608056,26.7909729 201.689224,26.9898635 201.617303,27.1629911 L201.617303,27.1629911 Z" id="Fill-90" fill="#5B5B5D"></path>
                        <polygon id="Fill-91" fill="#5A5A5C" points="182.842797 29.8359568 180.009103 36.6106026 187.542331 39.7804856 188.59649 37.261892 191.107566 38.3181761 191.809311 36.6394572 194.320387 37.6957414 195.398177 35.1194386 196.427677 32.6585541 193.916601 31.60227 194.97076 29.0836763 192.458656 28.0263617 193.161429 26.3476428 185.6282 23.1777598"></polygon>
                        <polygon id="Fill-92" fill="#3F4243" points="180.134348 36.310721 180.134348 36.310721 185.730842 22.9314652"></polygon>
                        <polygon id="Fill-93" fill="#3F4243" points="187.542536 39.7802795 187.542536 39.7802795 188.595668 37.2616859"></polygon>
                        <polygon id="Fill-94" fill="#3F4243" points="192.45917 28.0265678 192.45917 28.0265678 193.161942 26.3478489"></polygon>
                        <polygon id="Fill-95" fill="#3F4243" points="190.270198 37.9661501 191.107566 38.3185884 191.809311 36.6388389 190.97297 36.2874312"></polygon>
                        <polygon id="Fill-96" fill="#3F4243" points="193.483738 37.3437154 194.321106 37.6961536 196.428396 32.6589663 195.591028 32.3065281"></polygon>
                        <polygon id="Fill-97" fill="#3F4243" points="193.079644 31.2497287 193.917012 31.6021669 194.970143 29.0835733 194.132775 28.7311351"></polygon>
                        <polygon id="Fill-98" fill="#BDBEC2" points="186.623384 31.8247595 186.133293 32.996462 181.904328 31.216752 182.394419 30.0450495"></polygon>
                        <polygon id="Fill-99" fill="#BDBEC2" points="185.817559 33.7511126 185.327467 34.9228151 181.09953 33.1431052 181.588594 31.9714026"></polygon>
                        <polygon id="Fill-100" fill="#BDBEC2" points="187.429209 29.8985094 186.939118 31.0702119 182.710153 29.2905019 183.200245 28.1187994"></polygon>
                        <polygon id="Fill-101" fill="#BDBEC2" points="188.234932 27.9721563 187.74484 29.1438588 183.516903 27.3641488 184.005967 26.1924463"></polygon>
                    </g>
                    <g id="Group-4" transform="translate(19.453483, 24.942655) rotate(-31.000000) translate(-19.453483, -24.942655) translate(7.453483, 7.442655)">
                        <path d="M14.277919,34.7569803 C14.2611333,30.9516614 14.3887047,27.5133619 14.510401,25.5438115 C14.6211866,23.747993 13.2514733,22.2020298 11.4512066,22.0919156 C9.64590426,21.9782764 8.10161958,23.3468147 7.98999465,25.1433885 C7.96817324,25.5010919 7.72310197,29.6071266 7.74324482,34.7569803 L14.277919,34.7569803 Z" id="Path" fill="#3E3F41"></path>
                        <path d="M21.1130573,32.9390887 L1.93623085,32.9390887 C0.91062439,32.9390887 0.0704999528,32.1006428 0.0704999528,31.0767149 L0.0704999528,3.77434926 C0.0704999528,2.75117673 0.91062439,1.91340229 1.93623085,1.91340229 L21.1130573,1.91340229 C22.139503,1.91340229 22.9796275,2.75117673 22.9796275,3.77434926 L22.9796275,31.0767149 C22.9796275,32.1006428 22.139503,32.9390887 21.1130573,32.9390887 Z" id="Path" fill="#F2F3F5"></path>
                        <path d="M1.45196331,1.9375737 C0.725981657,2.0758879 2.38539187e-14,2.84777845 2.38539187e-14,3.77468497 L2.38539187e-14,31.0775542 C2.38539187e-14,32.004125 0.725981657,32.7762673 1.45196331,32.9147494 L1.45196331,1.9375737 Z" id="Path" fill="#CFCFCF"></path>
                        <path d="M21.774414,32.9147494 C22.4995564,32.7762673 23.225538,32.004125 23.225538,31.0775542 L23.225538,3.77468497 C23.225538,2.84777845 22.4995564,2.0758879 21.774414,1.9375737 L21.774414,32.9147494 Z" id="Path" fill="#CFCFCF"></path>
                        <path d="M18.145345,2.17232176 L18.145345,1.37080444 C18.145345,0.616958515 17.8860059,-4.77078375e-14 17.12981,-4.77078375e-14 L5.88338892,-4.77078375e-14 C5.12803228,-4.77078375e-14 4.35588994,0.616958515 4.35588994,1.37080444 L4.35588994,2.17232176 L18.145345,2.17232176 Z" id="Path" fill="#CFCFCF"></path>
                        <polygon id="Path" fill="#E3E4E7" points="4.5279434 19.1846318 18.5213447 19.1846318 18.5213447 5.22303936 4.5279434 5.22303936"></polygon>
                        <polygon id="Path" fill="#8D8F90" points="6.05544237 14.7239991 8.0378339 14.7239991 8.0378339 5.22220007 6.05544237 5.22220007"></polygon>
                        <polygon id="Path" fill="#BDBEC2" points="6.44235283 14.7239151 8.03615533 14.7239151 8.03615533 5.61028553 6.44235283 5.61028553"></polygon>
                        <polygon id="Path" fill="#8D8F90" points="9.04245823 14.7239991 11.0240105 14.7239991 11.0240105 5.22220007 9.04245823 5.22220007"></polygon>
                        <polygon id="Path" fill="#BDBEC2" points="9.42936869 14.7239151 11.0231712 14.7239151 11.0231712 5.61028553 9.42936869 5.61028553"></polygon>
                        <polygon id="Path" fill="#8D8F90" points="12.0286348 14.7239991 14.0110263 14.7239991 14.0110263 5.22220007 12.0286348 5.22220007"></polygon>
                        <polygon id="Path" fill="#BDBEC2" points="12.4155453 14.7239151 14.0093478 14.7239151 14.0093478 5.61028553 12.4155453 5.61028553"></polygon>
                        <polygon id="Path" fill="#8D8F90" points="15.0139721 14.7239991 16.9963636 14.7239991 16.9963636 5.22220007 15.0139721 5.22220007"></polygon>
                        <polygon id="Path" fill="#BDBEC2" points="15.4025611 14.7239151 16.9963636 14.7239151 16.9963636 5.61028553 15.4025611 5.61028553"></polygon>
                        <path d="M17.733256,28.5176505 L5.30008574,28.5176505 C4.87624674,28.5176505 4.52962197,28.1714454 4.52962197,27.7486136 L4.52962197,22.5900313 C4.52962197,22.1671155 4.87624674,21.8209943 5.30008574,21.8209943 L17.733256,21.8209943 C18.157095,21.8209943 18.5037198,22.1671155 18.5037198,22.5900313 L18.5037198,27.7486136 C18.5037198,28.1714454 18.157095,28.5176505 17.733256,28.5176505 Z" id="Path" fill="#5A5A5C"></path>
                        <path d="M18.1445057,24.8204316 L18.1445057,27.7675814 C18.1445057,27.7675814 18.4122377,28.2403507 17.7324167,28.2403507 L5.28665717,28.2403507 C5.28665717,28.2403507 17.4185241,27.8710653 18.1445057,24.8204316 Z" id="Path" fill="#3E3F41"></path>
                    </g>
                </g>
            </g>
        </g>
    </g>
</svg>