<?xml version="1.0" encoding="UTF-8"?>
<svg width="591px" height="329px" viewBox="0 0 591 329" version="1.1" xmlns="http://www.w3.org/2000/svg" xmlns:xlink="http://www.w3.org/1999/xlink">
    <title>adicionar_filtro_protetor1</title>
    <g id="Page-1" stroke="none" stroke-width="1" fill="none" fill-rule="evenodd">
        <g id="adicionar_filtro_protetor1" transform="translate(9.000000, 18.000000)">
            <g id="Group-2" transform="translate(323.000000, 0.000000)" fill-rule="nonzero">
                <g id="sfio-cabo-telefonico-bem-conectado-copy">
                    <g id="XMLID_28_">
                        <g id="XMLID_66_" transform="translate(0.000000, 75.000000)">
                            <g id="XMLID_90_" transform="translate(0.000000, 32.000000)" fill="#8B8C8D">
                                <path d="M68.02,173.016 C76.756,170.855 84.528,166.254 91.47,159.177 C99.044,151.454 106.085,135.069 113.54,117.723 C120.88,100.643 130.015,79.387 136.539,77.111 C138.886,76.292 140.124,73.726 139.306,71.381 C138.487,69.033 135.926,67.785 133.575,68.613 C124.001,71.952 116.495,88.052 105.272,114.169 C98.472,129.992 91.441,146.354 85.045,152.875 C73.695,164.447 60.103,167.912 42.269,163.782 C38.055,162.806 32.987,159.867 28.109,155.919 C25.67,153.945 23.28,151.719 21.069,149.36 C-5.651,126.199 26.186,100.813 42.693,84.882 C44.416,83.016 46.353,80.888 48.386,78.577 C58.553,67.023 71.087,50.905 71.837,40.92 C72.766,28.565 65.241,4.409 64.92,3.387 C64.176,1.016 61.656,-0.309 59.279,0.441 C56.908,1.184 55.589,3.71 56.332,6.081 C58.374,12.591 63.526,31.417 62.863,40.246 C62.452,45.712 54.8,57.036 45.006,68.699 C42.558,71.615 39.977,74.552 37.358,77.432 C18.681,95.459 -14.857,122.296 8.944,148.965 C10.645,151.272 12.541,153.514 14.56,155.64 C22.634,164.143 32.647,170.791 40.239,172.55 C50.45,174.915 59.675,175.08 68.02,173.016 Z" id="XMLID_91_"></path>
                            </g>
                            <path d="M59.699,50.355 C58.46,45.247 57.148,40.681 56.333,38.08 C55.59,35.709 56.909,33.183 59.28,32.44 C61.657,31.69 64.176,33.015 64.921,35.386 C65.069,35.859 66.758,41.281 68.439,48.193 L59.699,50.355 Z" id="XMLID_89_" fill="#3E3F41"></path>
                            <g id="XMLID_67_" transform="translate(37.000000, 0.000000)">
                                <g id="XMLID_85_" transform="translate(0.000000, 2.000000)">
                                    <path d="M12.952,48.179 L38.601,41.835 C39.974,41.496 40.819,40.095 40.479,38.722 L31.427,2.12 C31.088,0.747 29.687,-0.098 28.314,0.242 L2.665,6.585 C1.292,6.924 0.447,8.325 0.787,9.698 L9.839,46.3 C10.178,47.673 11.579,48.518 12.952,48.179 Z" id="XMLID_88_" fill="#F2F3F5"></path>
                                    <path d="M28.971,0.114 C29.988,0.059 31.214,0.854 31.522,2.097 L40.574,38.699 C40.881,39.942 40.167,41.217 39.242,41.642 L28.971,0.114 Z" id="XMLID_87_" fill="#CFCFCF"></path>
                                    <path d="M12.061,48.365 C11.044,48.42 9.818,47.625 9.51,46.382 L0.458,9.78 C0.151,8.537 0.865,7.262 1.79,6.837 L12.061,48.365 Z" id="XMLID_86_" fill="#CFCFCF"></path>
                                </g>
                                <path d="M6.722,7.951 L6.456,6.876 C6.206,5.866 6.349,4.953 7.359,4.703 L22.402,0.982 C23.412,0.732 24.65,1.304 24.9,2.314 L25.166,3.389 L6.722,7.951 Z" id="XMLID_84_" fill="#CFCFCF"></path>
                                <rect id="XMLID_83_" fill="#E3E4E7" transform="translate(18.880923, 19.208368) rotate(166.108271) translate(-18.880923, -19.208368) " x="9.2399377" y="9.5673824" width="19.2819703" height="19.2819703"></rect>
                                <g id="XMLID_70_" transform="translate(9.000000, 8.000000)">
                                    <g id="XMLID_80_" transform="translate(12.000000, 0.000000)">
                                        <rect id="XMLID_82_" fill="#8D8F90" transform="translate(3.133988, 6.737105) rotate(166.108271) translate(-3.133988, -6.737105) " x="1.76841968" y="0.175774776" width="2.73113743" height="13.1226603"></rect>
                                        <rect id="XMLID_81_" fill="#BDBEC2" transform="translate(2.938287, 7.061626) rotate(166.108271) translate(-2.938287, -7.061626) " x="1.84023214" y="0.768309513" width="2.19611051" height="12.5866334"></rect>
                                    </g>
                                    <g id="XMLID_77_" transform="translate(8.000000, 1.000000)">
                                        <rect id="XMLID_79_" fill="#8D8F90" transform="translate(3.139916, 6.724855) rotate(166.108271) translate(-3.139916, -6.724855) " x="1.77434688" y="0.163524876" width="2.73113743" height="13.1226603"></rect>
                                        <rect id="XMLID_78_" fill="#BDBEC2" transform="translate(2.943144, 7.049616) rotate(166.108271) translate(-2.943144, -7.049616) " x="1.84508854" y="0.756299713" width="2.19611051" height="12.5866334"></rect>
                                    </g>
                                    <g id="XMLID_74_" transform="translate(4.000000, 2.000000)">
                                        <rect id="XMLID_76_" fill="#8D8F90" transform="translate(3.144772, 6.712845) rotate(166.108271) translate(-3.144772, -6.712845) " x="1.77920328" y="0.151515076" width="2.73113743" height="13.1226603"></rect>
                                        <rect id="XMLID_75_" fill="#BDBEC2" transform="translate(2.948971, 7.037366) rotate(166.108271) translate(-2.948971, -7.037366) " x="1.85091574" y="0.744049813" width="2.19611051" height="12.5866334"></rect>
                                    </g>
                                    <g id="XMLID_71_" transform="translate(0.000000, 3.000000)">
                                        <rect id="XMLID_73_" fill="#8D8F90" transform="translate(3.150499, 6.700495) rotate(166.108271) translate(-3.150499, -6.700495) " x="1.78493048" y="0.139165176" width="2.73113743" height="13.1226603"></rect>
                                        <rect id="XMLID_72_" fill="#BDBEC2" transform="translate(2.954698, 7.025017) rotate(166.108271) translate(-2.954698, -7.025017) " x="1.85664294" y="0.731699913" width="2.19611051" height="12.5866334"></rect>
                                    </g>
                                </g>
                                <path d="M16.009,43.133 L32.638,39.02 C33.205,38.88 33.554,38.301 33.414,37.734 L31.704,30.818 C31.564,30.251 30.985,29.902 30.418,30.042 L13.789,34.155 C13.222,34.295 12.873,34.874 13.013,35.441 L14.723,42.357 C14.863,42.924 15.442,43.273 16.009,43.133 Z" id="XMLID_69_" fill="#5A5A5C"></path>
                                <path d="M14.231,38.313 L15.208,42.264 C15.208,42.264 15.006,42.986 15.916,42.761 C16.826,42.536 32.562,38.644 32.562,38.644 C32.562,38.644 16.213,42.163 14.231,38.313 Z" id="XMLID_68_" fill="#3E3F41"></path>
                            </g>
                        </g>
                        <path d="M246.097,283.481 L121.761,283.481 C117.496,283.481 114.006,279.991 114.006,275.726 L114.006,272.872 C114.006,268.607 117.496,265.117 121.761,265.117 L246.097,265.117 C250.362,265.117 253.852,268.607 253.852,272.872 L253.852,275.726 C253.852,279.991 250.362,283.481 246.097,283.481 Z" id="XMLID_65_" fill="#D5DAE2"></path>
                        <g id="XMLID_29_" transform="translate(125.000000, 0.000000)">
                            <g id="XMLID_43_">
                                <path d="M113.11,273.556 L4.449,273.556 C2.169,273.556 0.303,271.69 0.303,269.41 L0.303,160.749 C0.303,158.469 2.169,156.603 4.449,156.603 L113.11,156.603 C115.39,156.603 117.256,158.469 117.256,160.749 L117.256,269.41 C117.256,271.691 115.39,273.556 113.11,273.556 Z" id="XMLID_64_" fill="#444444"></path>
                                <path d="M86.581,251.583 L30.978,251.583 C25.416,251.583 20.866,247.032 20.866,241.471 L20.866,10.458 C20.866,4.896 25.417,0.346 30.978,0.346 L86.581,0.346 C92.143,0.346 96.693,4.897 96.693,10.458 L96.693,241.471 C96.693,247.033 92.143,251.583 86.581,251.583 Z" id="XMLID_63_" fill="#232323"></path>
                                <g id="XMLID_46_" transform="translate(31.000000, 110.000000)" fill="#444444">
                                    <g id="XMLID_59_">
                                        <circle id="XMLID_62_" cx="5.808" cy="5.88" r="5.57"></circle>
                                        <circle id="XMLID_61_" cx="27.781" cy="5.88" r="5.57"></circle>
                                        <circle id="XMLID_60_" cx="49.754" cy="5.88" r="5.57"></circle>
                                    </g>
                                    <g id="XMLID_55_" transform="translate(0.000000, 18.000000)">
                                        <circle id="XMLID_58_" cx="5.806" cy="5.805" r="5.57"></circle>
                                        <circle id="XMLID_57_" cx="27.78" cy="5.805" r="5.57"></circle>
                                        <circle id="XMLID_56_" cx="49.753" cy="5.805" r="5.57"></circle>
                                    </g>
                                    <g id="XMLID_51_" transform="translate(0.000000, 36.000000)">
                                        <circle id="XMLID_54_" cx="5.806" cy="5.731" r="5.57"></circle>
                                        <circle id="XMLID_53_" cx="27.78" cy="5.731" r="5.57"></circle>
                                        <circle id="XMLID_52_" cx="49.753" cy="5.731" r="5.57"></circle>
                                    </g>
                                    <g id="XMLID_47_" transform="translate(0.000000, 54.000000)">
                                        <circle id="XMLID_50_" cx="5.806" cy="5.656" r="5.57"></circle>
                                        <circle id="XMLID_49_" cx="27.78" cy="5.656" r="5.57"></circle>
                                        <circle id="XMLID_48_" cx="49.753" cy="5.656" r="5.57"></circle>
                                    </g>
                                </g>
                                <g id="XMLID_44_" transform="translate(31.000000, 33.000000)" fill="#6F7B84">
                                    <rect id="XMLID_45_" x="0.236" y="0.21" width="55.087" height="35.731"></rect>
                                </g>
                            </g>
                            <path d="M66.949,98.344 L50.611,98.344 C48.068,98.344 45.986,96.263 45.986,93.719 L45.986,83.432 C45.986,80.889 48.067,78.807 50.611,78.807 L66.949,78.807 C69.492,78.807 71.574,80.888 71.574,83.432 L71.574,93.719 C71.573,96.263 69.492,98.344 66.949,98.344 Z" id="XMLID_42_" fill="#444444"></path>
                            <path d="M39.107,98.344 L32.854,98.344 C31.056,98.344 29.584,96.873 29.584,95.074 L29.584,82.078 C29.584,80.28 31.055,78.808 32.854,78.808 L39.107,78.808 C40.905,78.808 42.377,80.279 42.377,82.078 L42.377,95.074 C42.376,96.873 40.905,98.344 39.107,98.344 Z" id="XMLID_41_" fill="#444444"></path>
                            <path d="M83.879,98.344 L77.626,98.344 C75.828,98.344 74.356,96.873 74.356,95.074 L74.356,82.078 C74.356,80.28 75.827,78.808 77.626,78.808 L83.879,78.808 C85.677,78.808 87.149,80.279 87.149,82.078 L87.149,95.074 C87.149,96.873 85.678,98.344 83.879,98.344 Z" id="XMLID_40_" fill="#444444"></path>
                            <rect id="XMLID_39_" fill="#303030" x="48.865" y="13.986" width="2.072" height="6.512"></rect>
                            <rect id="XMLID_38_" fill="#303030" x="53.305" y="13.986" width="2.072" height="6.512"></rect>
                            <rect id="XMLID_37_" fill="#303030" x="57.745" y="13.986" width="2.072" height="6.512"></rect>
                            <rect id="XMLID_36_" fill="#303030" x="62.185" y="13.986" width="2.072" height="6.512"></rect>
                            <rect id="XMLID_35_" fill="#303030" x="66.625" y="13.986" width="2.072" height="6.512"></rect>
                            <rect id="XMLID_34_" fill="#303030" x="48.865" y="226.214" width="2.072" height="13.024"></rect>
                            <rect id="XMLID_33_" fill="#303030" x="53.305" y="226.214" width="2.072" height="13.024"></rect>
                            <rect id="XMLID_32_" fill="#303030" x="57.745" y="226.214" width="2.072" height="13.024"></rect>
                            <rect id="XMLID_31_" fill="#303030" x="62.185" y="226.214" width="2.072" height="13.024"></rect>
                            <rect id="XMLID_30_" fill="#303030" x="66.625" y="226.214" width="2.072" height="13.024"></rect>
                        </g>
                    </g>
                </g>
            </g>
            <g id="microfiltro-00-copy" transform="translate(0.000000, 18.000000)">
                <g id="Group-2" transform="translate(0.000000, 6.918777)">
                    <path d="M66.6967421,98.2360667 L3.1326795,98.2360667 C1.40986933,98.2360667 0,96.8219766 0,95.0940087 L0,3.14205802 C0,1.41409016 1.40986933,0 3.1326795,0 L66.6967421,0 C68.4195522,0 69.8294216,1.41409016 69.8294216,3.14205802 L69.8294216,95.0940087 C69.8294216,96.8219766 68.4195522,98.2360667 66.6967421,98.2360667 Z" id="Fill-1" fill="#E6E6E6"></path>
                    <path d="M1.09038618,0 C1.09038618,0.426523713 0,1.2008283 0,2.61491846 L0,94.7429469 C0,94.7429469 0,96.2817132 1.09038618,97.0713289 L1.09038618,0 Z" id="Fill-3" fill="#CFCFCF"></path>
                    <path d="M45.4801201,60.375327 L25.2469141,60.375327 C24.6570152,60.375327 24.1739741,59.8908398 24.1739741,59.2991748 L24.1739741,39.0053953 C24.1739741,38.4137303 24.6570152,37.9292431 25.2469141,37.9292431 L45.4801201,37.9292431 C46.070019,37.9292431 46.5530601,38.4137303 46.5530601,39.0053953 L46.5530601,59.2991748 C46.5530601,59.8908398 46.070019,60.375327 45.4801201,60.375327" id="Fill-5" fill="#F2F3F5"></path>
                    <polyline id="Fill-7" fill="#E5E9EC" points="45.911913 59.736635 45.9140938 37.9292431 24.1739741 59.736635"></polyline>
                    <path d="M24.5840492,37.6565195 C24.2067756,37.6565195 23.9003771,37.9638353 23.9003771,38.3422384 L23.9003771,58.636018 C23.9003771,59.0144211 24.2067756,59.3217369 24.5840492,59.3217369 L44.8172552,59.3217369 C45.1945289,59.3217369 45.5009274,59.0144211 45.5009274,58.636018 L45.5009274,38.3422384 C45.5009274,37.9638353 45.1945289,37.6565195 44.8172552,37.6565195 L24.5840492,37.6565195 Z M44.8172552,60.1026034 L24.5840492,60.1026034 C23.7782538,60.1026034 23.1229317,59.4442257 23.1229317,58.636018 L23.1229317,38.3422384 C23.1229317,37.5340307 23.7782538,36.8756531 24.5840492,36.8756531 L44.8172552,36.8756531 C45.624141,36.8756531 46.2794631,37.5340307 46.2794631,38.3422384 L46.2794631,58.636018 C46.2794631,59.4442257 45.624141,60.1026034 44.8172552,60.1026034 L44.8172552,60.1026034 Z" id="Fill-9" fill="#5B5B5D"></path>
                    <polygon id="Fill-11" fill="#5A5A5C" points="35.0056906 41.0900134 26.2760588 41.0900134 26.2760588 50.9328683 29.5472173 50.9328683 29.5472173 54.21382 31.7279897 54.21382 31.7279897 56.4011211 35.0056906 56.4011211 38.2703068 56.4011211 38.2703068 54.21382 40.4510792 54.21382 40.4510792 50.9328683 43.7222377 50.9328683 43.7222377 41.0900134"></polygon>
                    <polygon id="Fill-13" fill="#3F4243" points="26.2760588 42.1836639 43.7222377 42.1836639 43.7222377 41.0900134 26.2760588 41.0900134"></polygon>
                    <polygon id="Fill-15" fill="#3F4243" points="26.2760588 50.6123846 29.5472173 50.6123846 29.5472173 49.5187341 26.2760588 49.5187341"></polygon>
                    <polygon id="Fill-16" fill="#3F4243" points="39.9396094 50.6123846 43.2107679 50.6123846 43.2107679 49.5187341 39.9396094 49.5187341"></polygon>
                    <polygon id="Fill-17" fill="#3F4243" points="29.4291859 53.7731549 31.6099582 53.7731549 31.6099582 52.6795044 29.4291859 52.6795044"></polygon>
                    <polygon id="Fill-19" fill="#3F4243" points="37.8375247 53.7731549 40.018297 53.7731549 40.018297 52.6795044 37.8375247 52.6795044"></polygon>
                    <polygon id="Fill-20" fill="#BDBEC2" points="32.5823129 46.389844 34.0412496 46.389844 34.0412496 41.0900134 32.5823129 41.0900134"></polygon>
                    <polygon id="Fill-21" fill="#BDBEC2" points="30.4802282 46.389844 31.9391649 46.389844 31.9391649 41.0900134 30.4802282 41.0900134"></polygon>
                    <polygon id="Fill-22" fill="#BDBEC2" points="35.73544 46.389844 37.1943767 46.389844 37.1943767 41.0900134 35.73544 41.0900134"></polygon>
                    <polygon id="Fill-23" fill="#BDBEC2" points="37.8375247 46.389844 39.2964614 46.389844 39.2964614 41.0900134 37.8375247 41.0900134"></polygon>
                </g>
                <g id="Group-5" transform="translate(211.090395, 92.222779) rotate(-3.000000) translate(-211.090395, -92.222779) translate(93.477341, 6.232103)">
                    <g id="Group-3" transform="translate(120.265534, 85.831046) rotate(28.000000) translate(-120.265534, -85.831046) translate(11.528937, 46.996547)">
                        <path d="M125.052669,11.1207856 C105.631801,6.10092958 87.3471148,18.7413426 71.0567452,30.0157861 C60.4232992,37.3749606 50.3797521,44.3262035 41.2706659,45.7916952 C17.8011937,49.5669769 6.38485033,38.0322446 5.87673037,37.5029177 C4.58680352,36.1402291 2.43656196,36.0800784 1.07248885,37.3673051 C-0.298126585,38.66 -0.363549756,40.8221471 0.925286713,42.1968659 C1.49119714,42.7994673 15.0992167,56.9217768 42.3490578,52.5373318 C52.9803231,50.827956 63.6399384,43.4501894 74.9265258,35.6393372 C90.0992495,25.137011 105.731026,14.3306499 121.585241,17.3480318 L125.052669,11.1207856 Z" id="Fill-54" fill="#B5AE86"></path>
                        <polygon id="Fill-70" fill="#EDEAD3" points="211.975093 19.8176041 164.991443 0.0312784056 130.293174 7.10829109 122.249395 26.2592058 141.500163 56.1585181 188.494717 75.9492184"></polygon>
                        <polygon id="Fill-71" fill="#D8D4B6" points="164.858961 -1.10273344e-13 130.233748 7.07591904 122.113642 26.1940242 141.390579 56.1031794 156.940732 18.9292062"></polygon>
                        <polygon id="Fill-72" fill="#D8D4B6" points="120.850648 25.2911064 128.546593 6.89262321 123.051047 4.5795523 115.355101 22.9780354"></polygon>
                        <path d="M216.493545,29.2745097 L198.392044,72.5480746 C196.908028,76.0969706 192.836526,77.766975 189.298223,76.2774229 L177.829541,71.4511431 C174.291238,69.9626847 172.626218,65.8789935 174.111324,62.3311912 L192.212825,19.0565327 C193.696841,15.5087303 197.768343,13.8387259 201.305556,15.3271843 L212.775328,20.1545578 C216.313631,21.6430162 217.97756,25.7267074 216.493545,29.2745097" id="Fill-73" fill="#D8D4B6"></path>
                        <polygon id="Fill-74" fill="#F2F3F5" points="203.947452 51.8528159 195.973458 70.9162386 176.966937 62.9183722 184.940931 43.8549495"></polygon>
                        <polyline id="Fill-75" fill="#E5E9EC" points="203.396807 52.0275813 184.932208 44.2550068 195.650704 70.5441787"></polyline>
                        <path d="M177.436021,62.7255616 L195.781768,70.4456408 L203.478804,52.0449703 L185.133057,44.3248911 L177.436021,62.7255616 Z M204.278057,51.9924751 L196.304063,71.0548041 C196.226646,71.2385374 196.017292,71.3249358 195.834107,71.2472866 L176.828676,63.2494202 C176.645491,63.1728646 176.55935,62.9617901 176.636768,62.7791504 L184.610762,43.7157278 C184.687089,43.5330881 184.897533,43.4466897 185.079628,43.5232453 L204.086149,51.5211117 C204.268244,51.5976672 204.354384,51.8087418 204.278057,51.9924751 L204.278057,51.9924751 Z" id="Fill-76" fill="#5B5B5D"></path>
                        <polygon id="Fill-77" fill="#5A5A5C" points="184.35354 54.8291859 181.346255 62.0188446 189.340966 65.3829137 190.459702 62.7100317 193.124606 63.8310235 193.86934 62.0494668 196.534244 63.1704586 197.678059 60.4363322 198.770626 57.8246947 196.105722 56.7037029 197.223368 54.030821 194.558464 52.9087355 195.304288 51.1271788 187.309577 47.7631097"></polygon>
                        <polygon id="Fill-78" fill="#3F4243" points="181.479173 61.7005923 181.479173 61.7005923 187.418506 47.5017272"></polygon>
                        <polygon id="Fill-79" fill="#3F4243" points="189.341075 65.3826949 189.341075 65.3826949 190.458721 62.709813"></polygon>
                        <polygon id="Fill-80" fill="#3F4243" points="194.5589 52.9089543 194.5589 52.9089543 195.304724 51.1273975"></polygon>
                        <polygon id="Fill-81" fill="#3F4243" points="192.235832 63.4574325 193.124497 63.831461 193.869231 62.0488106 192.981657 61.6758758"></polygon>
                        <polygon id="Fill-82" fill="#3F4243" points="195.646233 62.7968676 196.534898 63.1708961 198.77128 57.8251322 197.882615 57.4511037"></polygon>
                        <polygon id="Fill-83" fill="#3F4243" points="195.217493 56.3295651 196.106158 56.7035936 197.223804 54.0307116 196.335139 53.6566831"></polygon>
                        <polygon id="Fill-84" fill="#BDBEC2" points="188.365616 56.9398221 187.845501 58.1833027 183.357472 56.2945682 183.877586 55.0510876"></polygon>
                        <polygon id="Fill-85" fill="#BDBEC2" points="187.510535 58.984183 186.990421 60.2276637 182.502391 58.3389292 183.022505 57.0954485"></polygon>
                        <polygon id="Fill-86" fill="#BDBEC2" points="189.220806 54.8954611 188.700691 56.1389418 184.213752 54.2502073 184.732776 53.0067266"></polygon>
                        <polygon id="Fill-87" fill="#BDBEC2" points="190.075995 52.8512095 189.555881 54.0946902 185.068942 52.2059557 185.587966 50.962475"></polygon>
                        <polygon id="Fill-88" fill="#F2F3F5" points="213.637714 28.6873288 205.66372 47.7507514 186.657199 39.752885 194.631193 20.6894623"></polygon>
                        <polyline id="Fill-89" fill="#E5E9EC" points="213.087069 28.8620941 194.62247 21.0895197 205.340966 47.3786915"></polyline>
                        <path d="M187.126283,39.5600744 L205.47203,47.2801536 L213.169066,28.8794832 L194.823319,21.159404 L187.126283,39.5600744 Z M213.968319,28.8269879 L205.994325,47.889317 C205.916908,48.0730503 205.707554,48.1594487 205.524369,48.0817995 L186.518938,40.083933 C186.335753,40.0073775 186.249612,39.7963029 186.32703,39.6136633 L194.301024,20.5502406 C194.377351,20.367601 194.587795,20.2812026 194.76989,20.3577581 L213.776411,28.3556246 C213.958506,28.4321801 214.044646,28.6432546 213.968319,28.8269879 L213.968319,28.8269879 Z" id="Fill-90" fill="#5B5B5D"></path>
                        <polygon id="Fill-91" fill="#5A5A5C" points="194.043693 31.6636987 191.036408 38.8533574 199.031119 42.2174265 200.149855 39.5445446 202.814759 40.6655364 203.559493 38.8839796 206.224397 40.0049714 207.368212 37.2708451 208.460779 34.6592076 205.795875 33.5382158 206.914611 30.8653338 204.248617 29.7432484 204.994441 27.9616916 196.99973 24.5976225"></polygon>
                        <polygon id="Fill-92" fill="#3F4243" points="191.169326 38.5351051 191.169326 38.5351051 197.108659 24.3362401"></polygon>
                        <polygon id="Fill-93" fill="#3F4243" points="199.031337 42.2172078 199.031337 42.2172078 200.148983 39.5443258"></polygon>
                        <polygon id="Fill-94" fill="#3F4243" points="204.249162 29.7434671 204.249162 29.7434671 204.994986 27.9619104"></polygon>
                        <polygon id="Fill-95" fill="#3F4243" points="201.926094 40.2919454 202.814759 40.6659738 203.559493 38.8833234 202.671919 38.5103886"></polygon>
                        <polygon id="Fill-96" fill="#3F4243" points="205.336495 39.6313804 206.22516 40.0054089 208.461542 34.659645 207.572877 34.2856165"></polygon>
                        <polygon id="Fill-97" fill="#3F4243" points="204.907646 33.1640779 205.796311 33.5381064 206.913957 30.8652245 206.025292 30.491196"></polygon>
                        <polygon id="Fill-98" fill="#BDBEC2" points="198.055878 33.7743349 197.535763 35.0178156 193.047734 33.1290811 193.567848 31.8856004"></polygon>
                        <polygon id="Fill-99" fill="#BDBEC2" points="197.200688 35.8186959 196.680574 37.0621766 192.193634 35.1734421 192.712658 33.9299614"></polygon>
                        <polygon id="Fill-100" fill="#BDBEC2" points="198.911068 31.7300833 198.390953 32.973564 193.902924 31.0848295 194.423038 29.8413488"></polygon>
                        <polygon id="Fill-101" fill="#BDBEC2" points="199.766148 29.6857223 199.246034 30.929203 194.759095 29.0404685 195.278119 27.7969879"></polygon>
                    </g>
                    <g id="Group-4" transform="translate(20.816028, 26.706811) rotate(-31.000000) translate(-20.816028, -26.706811) translate(8.056121, 7.844340)">
                        <path d="M15.1525801,36.8861827 C15.1347662,32.8477511 15.2701525,29.1988224 15.3993039,27.1086179 C15.5168762,25.2027881 14.0632546,23.5621196 12.1527042,23.4452598 C10.2368095,23.3246591 8.59792241,24.7770337 8.47945938,26.6836651 C8.45630119,27.0632813 8.19621693,31.4208505 8.21759372,36.8861827 L15.1525801,36.8861827 Z" id="Path" fill="#3E3F41"></path>
                        <path d="M22.406437,34.9569276 L2.05484378,34.9569276 C0.966408973,34.9569276 0.0748187592,34.0671188 0.0748187592,32.9804653 L0.0748187592,4.00556479 C0.0748187592,2.91971301 0.966408973,2.03061675 2.05484378,2.03061675 L22.406437,2.03061675 C23.4957625,2.03061675 24.3873527,2.91971301 24.3873527,4.00556479 L24.3873527,32.9804653 C24.3873527,34.0671188 23.4957625,34.9569276 22.406437,34.9569276 Z" id="Path" fill="#F2F3F5"></path>
                        <path d="M1.54091016,2.0562689 C0.77045508,2.20305618 2.53152028e-14,3.02223252 2.53152028e-14,4.00592107 L2.53152028e-14,32.981356 C2.53152028e-14,33.9646883 0.77045508,34.7841319 1.54091016,34.9310973 L1.54091016,2.0562689 Z" id="Path" fill="#CFCFCF"></path>
                        <path d="M23.1083082,34.9310973 C23.8778726,34.7841319 24.6483277,33.9646883 24.6483277,32.981356 L24.6483277,4.00592107 C24.6483277,3.02223252 23.8778726,2.20305618 23.1083082,2.0562689 L23.1083082,34.9310973 Z" id="Path" fill="#CFCFCF"></path>
                        <path d="M19.2569235,2.30539755 L19.2569235,1.45477952 C19.2569235,0.654753213 18.9816974,-5.06304056e-14 18.1791771,-5.06304056e-14 L6.2438036,-5.06304056e-14 C5.44217403,-5.06304056e-14 4.62273048,0.654753213 4.62273048,1.45477952 L4.62273048,2.30539755 L19.2569235,2.30539755 Z" id="Path" fill="#CFCFCF"></path>
                        <polygon id="Path" fill="#E3E4E7" points="4.80532388 20.3598767 19.6559569 20.3598767 19.6559569 5.54300122 4.80532388 5.54300122"></polygon>
                        <polygon id="Path" fill="#8D8F90" points="6.426397 15.6259869 8.53022925 15.6259869 8.53022925 5.54211052 6.426397 5.54211052"></polygon>
                        <polygon id="Path" fill="#BDBEC2" points="6.83700947 15.6258979 8.52844785 15.6258979 8.52844785 5.95396997 6.83700947 5.95396997"></polygon>
                        <polygon id="Path" fill="#8D8F90" points="9.59639657 15.6259869 11.6993381 15.6259869 11.6993381 5.54211052 9.59639657 5.54211052"></polygon>
                        <polygon id="Path" fill="#BDBEC2" points="10.007009 15.6258979 11.6984474 15.6258979 11.6984474 5.95396997 10.007009 5.95396997"></polygon>
                        <polygon id="Path" fill="#8D8F90" points="12.7655054 15.6259869 14.8693377 15.6259869 14.8693377 5.54211052 12.7655054 5.54211052"></polygon>
                        <polygon id="Path" fill="#BDBEC2" points="13.1761179 15.6258979 14.8675563 15.6258979 14.8675563 5.95396997 13.1761179 5.95396997"></polygon>
                        <polygon id="Path" fill="#8D8F90" points="15.9337236 15.6259869 18.0375559 15.6259869 18.0375559 5.54211052 15.9337236 5.54211052"></polygon>
                        <polygon id="Path" fill="#BDBEC2" points="16.3461175 15.6258979 18.0375559 15.6258979 18.0375559 5.95396997 16.3461175 5.95396997"></polygon>
                        <path d="M18.81959,30.2646335 L5.62476743,30.2646335 C5.17496418,30.2646335 4.80710528,29.8972199 4.80710528,29.4484855 L4.80710528,23.97389 C4.80710528,23.5250665 5.17496418,23.157742 5.62476743,23.157742 L18.81959,23.157742 C19.2693933,23.157742 19.6372522,23.5250665 19.6372522,23.97389 L19.6372522,29.4484855 C19.6372522,29.8972199 19.2693933,30.2646335 18.81959,30.2646335 Z" id="Path" fill="#5A5A5C"></path>
                        <path d="M19.2560328,26.340924 L19.2560328,29.4686153 C19.2560328,29.4686153 19.540166,29.9703463 18.8186993,29.9703463 L5.61051624,29.9703463 C5.61051624,29.9703463 18.4855777,29.5784385 19.2560328,26.340924 Z" id="Path" fill="#3E3F41"></path>
                    </g>
                </g>
                <ellipse id="Oval" fill="#D5DAE2" cx="272.037344" cy="183.285279" rx="43.9726644" ry="10.2430444"></ellipse>
            </g>
        </g>
        <path d="M299.424644,99.439 C310.624644,100.319 321.298644,101.158 333.065644,102.082 C330.297644,99.008 328.156644,96.63 325.516644,93.698 C340.639644,90.32 353.470644,93.82 365.200644,103.471 C359.548644,88.157 342.432644,79.851 318.520644,80.613 C317.625644,77.422 316.702644,74.13 315.545644,70 C312.552644,75.427 309.908644,80.195 307.290644,84.976 C304.720644,89.669 302.177644,94.375 299.424644,99.439 Z" id="XMLID_92_" fill="#00C0D2" fill-rule="nonzero" transform="translate(332.312644, 86.735500) rotate(-23.000000) translate(-332.312644, -86.735500) "></path>
    </g>
</svg>