<?xml version="1.0" encoding="UTF-8"?>
<svg width="592px" height="329px" viewBox="0 0 592 329" version="1.1" xmlns="http://www.w3.org/2000/svg" xmlns:xlink="http://www.w3.org/1999/xlink">
    <title>adicionar_filtro_protetor4 copy 2</title>
    <g id="Page-1" stroke="none" stroke-width="1" fill="none" fill-rule="evenodd">
        <g id="adicionar_filtro_protetor4-copy" transform="translate(52.023310, 66.000000)">
            <g id="Group-7" transform="translate(77.000000, 0.000000)">
                <g id="Group-2">
                    <g id="XMLID_66_" transform="translate(55.224216, 50.720730) scale(1, -1) rotate(-77.000000) translate(-55.224216, -50.720730) translate(34.224216, -0.779270)" fill-rule="nonzero">
                        <g id="XMLID_90_" transform="translate(0.000000, 25.975662)" fill="#8B8C8D">
                            <path d="M13.5503665,68.9020673 C14.9489936,67.3873615 16.5213329,65.65998 18.1715991,63.7840501 C26.424554,54.4052126 36.5988962,41.3215963 37.2077008,33.216378 C37.9618067,23.1873372 31.8534674,3.5789592 31.5928991,2.74936149 C30.9889649,0.824727273 28.9433815,-0.250827487 27.0138769,0.357977094 C25.0892427,0.961099499 24.0185583,3.01155333 24.6216807,4.93618754 C26.2792527,10.2206113 30.4613343,25.502418 29.923151,32.6692656 C29.5895261,37.1062334 23.3780959,46.2983708 15.4279198,55.7656879 C13.4407817,58.1327201 11.3456822,60.5167989 9.21973658,62.8546084 C-5.94112097,77.4878354 0.150983536,81.8338883 13.5503665,68.9020673 Z" id="XMLID_91_"></path>
                        </g>
                        <path d="M27.3548074,40.8751396 C26.3490623,36.7287745 25.2840601,33.0223722 24.6224925,30.9110379 C24.0193701,28.9864037 25.0900544,26.9359499 27.0146886,26.3328275 C28.9441933,25.7240229 30.9889649,26.7995777 31.5937108,28.7242119 C31.7138482,29.1081646 33.0848762,33.5094159 34.4494102,39.1201589 L27.3548074,40.8751396 Z" id="XMLID_89_" fill="#3E3F41"></path>
                        <g id="XMLID_67_" transform="translate(8.929134, 0.000000)">
                            <g id="XMLID_85_" transform="translate(0.000000, 1.623479)">
                                <path d="M10.5136492,39.1087946 L31.3339542,33.9591195 C32.4484724,33.6839399 33.1343923,32.5466929 32.8584009,31.4321747 L25.5105354,1.72088762 C25.2353558,0.606369363 24.0981088,-0.0795504653 22.9835906,0.196440945 L2.16328561,5.34530422 C1.04876736,5.62048389 0.36284753,6.75773085 0.638838941,7.87224911 L7.98670437,37.5835361 C8.26188404,38.6980544 9.39913099,39.3839742 10.5136492,39.1087946 Z" id="XMLID_88_" fill="#F2F3F5"></path>
                                <path d="M23.5169034,0.0925382963 C24.3424424,0.0478926271 25.3376349,0.693225483 25.5876507,1.70221761 L32.9355161,31.4135047 C33.1847201,32.4224968 32.6051382,33.4574646 31.8542792,33.8024538 L23.5169034,0.0925382963 Z" id="XMLID_87_" fill="#CFCFCF"></path>
                                <path d="M9.79038941,39.2597781 C8.96485039,39.3044238 7.96965784,38.6590909 7.71964209,37.6500988 L0.371776664,7.93881174 C0.122572656,6.92981961 0.702154617,5.89485183 1.4530136,5.54986256 L9.79038941,39.2597781 Z" id="XMLID_86_" fill="#CFCFCF"></path>
                            </g>
                            <path d="M5.45651253,6.4541403 L5.24058984,5.5815204 C5.03765497,4.76166356 5.15373372,4.02054545 5.97359055,3.81761059 L18.184587,0.797128132 C19.0044438,0.594193271 20.0093772,1.05850823 20.2123121,1.87836507 L20.4282348,2.75098497 L5.45651253,6.4541403 Z" id="XMLID_84_" fill="#CFCFCF"></path>
                            <polygon id="XMLID_83_" fill="#E3E4E7" transform="translate(15.326390, 15.592190) rotate(166.108271) translate(-15.326390, -15.592190) " points="7.50042187 7.76622165 23.1523577 7.76622165 23.1523577 23.4181574 7.50042187 23.4181574"></polygon>
                            <g id="XMLID_70_" transform="translate(7.305655, 6.493916)">
                                <g id="XMLID_80_" transform="translate(9.740873, 0.000000)">
                                    <polygon id="XMLID_82_" fill="#8D8F90" transform="translate(2.543982, 5.468774) rotate(166.108271) translate(-2.543982, -5.468774) " points="1.43549601 0.142683319 3.65246798 0.142683319 3.65246798 10.7948643 1.43549601 10.7948643"></polygon>
                                    <polygon id="XMLID_81_" fill="#BDBEC2" transform="translate(2.385124, 5.732201) rotate(166.108271) translate(-2.385124, -5.732201) " points="1.49378901 0.623667135 3.27645853 0.623667135 3.27645853 10.8407339 1.49378901 10.8407339"></polygon>
                                </g>
                                <g id="XMLID_77_" transform="translate(6.493916, 0.811739)">
                                    <polygon id="XMLID_79_" fill="#8D8F90" transform="translate(2.548793, 5.458830) rotate(166.108271) translate(-2.548793, -5.458830) " points="1.44030735 0.132739592 3.65727932 0.132739592 3.65727932 10.7849206 1.44030735 10.7849206"></polygon>
                                    <polygon id="XMLID_78_" fill="#BDBEC2" transform="translate(2.389066, 5.722452) rotate(166.108271) translate(-2.389066, -5.722452) " points="1.49773114 0.613918307 3.28040066 0.613918307 3.28040066 10.8309851 1.49773114 10.8309851"></polygon>
                                </g>
                                <g id="XMLID_74_" transform="translate(3.246958, 1.623479)">
                                    <polygon id="XMLID_76_" fill="#8D8F90" transform="translate(2.552735, 5.449081) rotate(166.108271) translate(-2.552735, -5.449081) " points="1.44424948 0.122990763 3.66122146 0.122990763 3.66122146 10.7751717 1.44424948 10.7751717"></polygon>
                                    <polygon id="XMLID_75_" fill="#BDBEC2" transform="translate(2.393796, 5.712508) rotate(166.108271) translate(-2.393796, -5.712508) " points="1.50246131 0.60397458 3.28513083 0.60397458 3.28513083 10.8210413 1.50246131 10.8210413"></polygon>
                                </g>
                                <g id="XMLID_71_" transform="translate(0.000000, 2.435218)">
                                    <polygon id="XMLID_73_" fill="#8D8F90" transform="translate(2.557384, 5.439056) rotate(166.108271) translate(-2.557384, -5.439056) " points="1.44889847 0.112965862 3.66587045 0.112965862 3.66587045 10.7651468 1.44889847 10.7651468"></polygon>
                                    <polygon id="XMLID_72_" fill="#BDBEC2" transform="translate(2.398445, 5.702483) rotate(166.108271) translate(-2.398445, -5.702483) " points="1.50711031 0.593949679 3.28977983 0.593949679 3.28977983 10.8110164 1.50711031 10.8110164"></polygon>
                                </g>
                            </g>
                            <path d="M12.9951367,35.0127573 L26.4935519,31.674073 C26.9538082,31.5604295 27.2371052,31.0904324 27.1234617,30.6301761 L25.7353873,25.0161861 C25.6217437,24.5559298 25.1517466,24.2726328 24.6914903,24.3862763 L11.1930752,27.7249606 C10.7328189,27.8386042 10.4495218,28.3086013 10.5631654,28.7688576 L11.9512398,34.3828475 C12.0648833,34.8431038 12.5348805,35.1264009 12.9951367,35.0127573 Z" id="XMLID_69_" fill="#5A5A5C"></path>
                            <path d="M11.551864,31.1001732 L12.3449334,34.3073558 C12.3449334,34.3073558 12.1809621,34.8934316 12.919645,34.7107903 C13.6583278,34.5281489 26.4318597,31.368859 26.4318597,31.368859 C26.4318597,31.368859 13.1607316,34.2253701 11.551864,31.1001732 Z" id="XMLID_68_" fill="#3E3F41"></path>
                        </g>
                    </g>
                    <rect id="Rectangle" fill="#232323" x="81.1904475" y="0.384953441" width="121.42203" height="77.3181818" rx="5"></rect>
                    <rect id="Rectangle-Copy" fill="#5E5E5E" x="146.099538" y="8.4985898" width="47.7272727" height="61.0909091" rx="5"></rect>
                    <circle id="Oval" fill="#FF0000" cx="112.929084" cy="38.805408" r="3.10227273"></circle>
                </g>
                <path d="M217.078042,36.8766197 C225.754098,37.5583099 234.02269,38.2082394 243.137972,38.9240141 C240.993746,36.5427465 239.335225,34.7006338 237.290155,32.4293662 C249.005155,29.8126056 258.944662,32.5238732 268.031281,40 C263.652972,28.1370423 250.394098,21.7028169 231.870718,22.2930986 C231.177408,19.8211972 230.462408,17.2710563 229.566141,14.0717606 C227.247619,18.2757746 225.19945,21.9692958 223.171422,25.6728873 C221.180577,29.3083099 219.210648,32.9538028 217.078042,36.8766197 Z" id="XMLID_92_" fill="#00C0D2" fill-rule="nonzero" transform="translate(242.554662, 27.035880) rotate(42.000000) translate(-242.554662, -27.035880) "></path>
                <g id="sfio-cabo-telefonico-bem-conectado-copy" transform="translate(213.000000, 6.000000)" fill-rule="nonzero">
                    <g id="XMLID_28_">
                        <g id="XMLID_66_" transform="translate(0.563380, 58.098592)">
                            <g id="XMLID_90_" transform="translate(0.000000, 24.788732)" fill="#8B8C8D">
                                <path d="M52.6915493,134.026479 C59.4588732,132.352465 65.4794366,128.78831 70.8570423,123.306127 C76.7242254,117.323521 82.1785211,104.630915 87.9535211,91.1938732 C93.6394366,77.9628873 100.715845,61.4969718 105.769648,59.7338732 C107.587746,59.0994366 108.546761,57.1116901 107.913099,55.2951408 C107.278662,53.4762676 105.294789,52.509507 103.473592,53.1509155 C96.0571127,55.7374648 90.2426056,68.2092958 81.5487324,88.4407746 C76.2811268,100.698028 70.8345775,113.372817 65.8799296,118.424296 C57.0876761,127.388521 46.558662,130.072676 32.7435915,126.87338 C29.4792254,126.117324 25.5533099,123.840634 21.7745775,120.782324 C19.8852113,119.253169 18.0338028,117.528803 16.3210563,115.701408 C-4.37753521,97.7597887 20.2849296,78.0945775 33.0720423,65.753662 C34.4067606,64.308169 35.9072535,62.6597183 37.4821127,60.869507 C45.3579577,51.9192254 55.0673944,39.4334507 55.6483803,31.6985915 C56.3680282,22.1278169 50.5388028,3.41542254 50.2901408,2.62373239 C49.7138028,0.787042254 47.7616901,-0.239366197 45.9203521,0.341619718 C44.083662,0.917183099 43.0619014,2.87394366 43.6374648,4.7106338 C45.2192958,9.75359155 49.2102817,24.3371127 48.6966901,31.1764789 C48.3783099,35.4107042 42.4507042,44.1828169 34.8638028,53.2175352 C32.9674648,55.4764085 30.9680986,57.7515493 28.9392958,59.9825352 C14.4711972,73.9471127 -11.5089437,94.736338 6.9284507,115.395423 C8.24612676,117.182535 9.71485915,118.919296 11.2788732,120.566197 C17.5333803,127.153028 25.2899296,132.302887 31.1710563,133.665493 C39.0809859,135.497535 46.2271127,135.625352 52.6915493,134.026479 Z" id="XMLID_91_"></path>
                            </g>
                            <path d="M46.2457042,39.0073944 C45.2859155,35.050493 44.2695775,31.5134507 43.6382394,29.4985915 C43.0626761,27.6619014 44.0844366,25.7051408 45.9211268,25.1295775 C47.7624648,24.5485915 49.7138028,25.575 50.2909155,27.4116901 C50.4055634,27.7780986 51.7139437,31.9782394 53.0161268,37.3326056 L46.2457042,39.0073944 Z" id="XMLID_89_" fill="#3E3F41"></path>
                            <g id="XMLID_67_" transform="translate(28.661972, 0.000000)">
                                <g id="XMLID_85_" transform="translate(0.000000, 1.549296)">
                                    <path d="M10.0332394,37.3217606 L29.9021831,32.4073944 C30.9657746,32.1447887 31.6203521,31.059507 31.3569718,29.9959155 L24.3448592,1.64225352 C24.0822535,0.578661972 22.9969718,-0.075915493 21.9333803,0.187464789 L2.06443662,5.10105634 C1.00084507,5.36366197 0.346267606,6.44894366 0.609647887,7.51253521 L7.62176056,35.8661972 C7.8843662,36.9297887 8.96964789,37.5843662 10.0332394,37.3217606 Z" id="XMLID_88_" fill="#F2F3F5"></path>
                                    <path d="M22.4423239,0.0883098592 C23.2301408,0.0457042254 24.1798592,0.661549296 24.4184507,1.62443662 L31.4305634,29.9780986 C31.6683803,30.9409859 31.1152817,31.928662 30.3987324,32.2578873 L22.4423239,0.0883098592 Z" id="XMLID_87_" fill="#CFCFCF"></path>
                                    <path d="M9.34302817,37.4658451 C8.55521127,37.5084507 7.60549296,36.8926056 7.36690141,35.9297183 L0.354788732,7.57605634 C0.116971831,6.61316901 0.670070423,5.62549296 1.38661972,5.29626761 L9.34302817,37.4658451 Z" id="XMLID_86_" fill="#CFCFCF"></path>
                                </g>
                                <path d="M5.2071831,6.15922535 L5.00112676,5.32647887 C4.80746479,4.54408451 4.91823944,3.83683099 5.7006338,3.64316901 L17.353662,0.760704225 C18.1360563,0.567042254 19.0950704,1.01014085 19.2887324,1.79253521 L19.4947887,2.62528169 L5.2071831,6.15922535 Z" id="XMLID_84_" fill="#CFCFCF"></path>
                                <polygon id="XMLID_83_" fill="#E3E4E7" transform="translate(14.626067, 14.879721) rotate(166.108271) translate(-14.626067, -14.879721) " points="7.15769822 7.41135257 22.0944358 7.41135257 22.0944358 22.3480901 7.15769822 22.3480901"></polygon>
                                <g id="XMLID_70_" transform="translate(6.971831, 6.197183)">
                                    <g id="XMLID_80_" transform="translate(9.295775, 0.000000)">
                                        <polygon id="XMLID_82_" fill="#8D8F90" transform="translate(2.427737, 5.218884) rotate(166.108271) translate(-2.427737, -5.218884) " points="1.36990257 0.136163559 3.48557241 0.136163559 3.48557241 10.3016047 1.36990257 10.3016047"></polygon>
                                        <polygon id="XMLID_81_" fill="#BDBEC2" transform="translate(2.276138, 5.470274) rotate(166.108271) translate(-2.276138, -5.470274) " points="1.42553194 0.595169341 3.12674431 0.595169341 3.12674431 10.3453783 1.42553194 10.3453783"></polygon>
                                    </g>
                                    <g id="XMLID_77_" transform="translate(6.197183, 0.774648)">
                                        <polygon id="XMLID_79_" fill="#8D8F90" transform="translate(2.432329, 5.209395) rotate(166.108271) translate(-2.432329, -5.209395) " points="1.37449406 0.1266742 3.49016391 0.1266742 3.49016391 10.2921153 1.37449406 10.2921153"></polygon>
                                        <polygon id="XMLID_78_" fill="#BDBEC2" transform="translate(2.279900, 5.460970) rotate(166.108271) translate(-2.279900, -5.460970) " points="1.42929394 0.585865975 3.13050631 0.585865975 3.13050631 10.3360749 1.42929394 10.3360749"></polygon>
                                    </g>
                                    <g id="XMLID_74_" transform="translate(3.098592, 1.549296)">
                                        <polygon id="XMLID_76_" fill="#8D8F90" transform="translate(2.436091, 5.200091) rotate(166.108271) translate(-2.436091, -5.200091) " points="1.37825606 0.117370834 3.49392591 0.117370834 3.49392591 10.2828119 1.37825606 10.2828119"></polygon>
                                        <polygon id="XMLID_75_" fill="#BDBEC2" transform="translate(2.284414, 5.451481) rotate(166.108271) translate(-2.284414, -5.451481) " points="1.43380797 0.576376616 3.13502034 0.576376616 3.13502034 10.3265856 1.43380797 10.3265856"></polygon>
                                    </g>
                                    <g id="XMLID_71_" transform="translate(0.000000, 2.323944)">
                                        <polygon id="XMLID_73_" fill="#8D8F90" transform="translate(2.440528, 5.190525) rotate(166.108271) translate(-2.440528, -5.190525) " points="1.38269263 0.10780401 3.49836247 0.10780401 3.49836247 10.2732451 1.38269263 10.2732451"></polygon>
                                        <polygon id="XMLID_72_" fill="#BDBEC2" transform="translate(2.288851, 5.441914) rotate(166.108271) translate(-2.288851, -5.441914) " points="1.43824453 0.566809792 3.1394569 0.566809792 3.1394569 10.3170187 1.43824453 10.3170187"></polygon>
                                    </g>
                                </g>
                                <path d="M12.401338,33.4128873 L25.2829577,30.2267606 C25.7221831,30.1183099 25.9925352,29.6697887 25.8840845,29.2305634 L24.5594366,23.8730986 C24.4509859,23.4338732 24.0024648,23.1635211 23.5632394,23.2719718 L10.6816197,26.4580986 C10.2423944,26.5665493 9.97204225,27.0150704 10.080493,27.4542958 L11.4051408,32.8117606 C11.5135915,33.2509859 11.9621127,33.521338 12.401338,33.4128873 Z" id="XMLID_69_" fill="#5A5A5C"></path>
                                <path d="M11.0240141,29.6790845 L11.7808451,32.7397183 C11.7808451,32.7397183 11.6243662,33.2990141 12.3292958,33.1247183 C13.0342254,32.9504225 25.2240845,29.935493 25.2240845,29.935493 C25.2240845,29.935493 12.5593662,32.6614789 11.0240141,29.6790845 Z" id="XMLID_68_" fill="#3E3F41"></path>
                            </g>
                        </g>
                        <path d="M191.201901,219.597958 L94.8852817,219.597958 C91.5814085,219.597958 88.8778873,216.894437 88.8778873,213.590563 L88.8778873,211.379718 C88.8778873,208.075845 91.5814085,205.372324 94.8852817,205.372324 L191.201901,205.372324 C194.505775,205.372324 197.209296,208.075845 197.209296,211.379718 L197.209296,213.590563 C197.209296,216.894437 194.505775,219.597958 191.201901,219.597958 Z" id="XMLID_65_" fill="#D5DAE2"></path>
                        <g id="XMLID_29_" transform="translate(97.394366, 0.000000)">
                            <g id="XMLID_43_">
                                <path d="M87.6204225,211.909577 L3.44640845,211.909577 C1.68021127,211.909577 0.23471831,210.464085 0.23471831,208.697887 L0.23471831,124.523873 C0.23471831,122.757676 1.68021127,121.312183 3.44640845,121.312183 L87.6204225,121.312183 C89.3866197,121.312183 90.8321127,122.757676 90.8321127,124.523873 L90.8321127,208.697887 C90.8321127,210.464859 89.3866197,211.909577 87.6204225,211.909577 Z" id="XMLID_64_" fill="#444444"></path>
                                <path d="M67.0697887,194.888239 L23.9970423,194.888239 C19.6884507,194.888239 16.1638028,191.362817 16.1638028,187.055 L16.1638028,8.10126761 C16.1638028,3.79267606 19.6892254,0.268028169 23.9970423,0.268028169 L67.0697887,0.268028169 C71.3783803,0.268028169 74.9030282,3.7934507 74.9030282,8.10126761 L74.9030282,187.055 C74.9030282,191.363592 71.3783803,194.888239 67.0697887,194.888239 Z" id="XMLID_63_" fill="#232323"></path>
                                <g id="XMLID_46_" transform="translate(24.014085, 85.211268)" fill="#444444">
                                    <g id="XMLID_59_">
                                        <circle id="XMLID_62_" cx="4.49915493" cy="4.55492958" r="4.31478873"></circle>
                                        <circle id="XMLID_61_" cx="21.520493" cy="4.55492958" r="4.31478873"></circle>
                                        <circle id="XMLID_60_" cx="38.541831" cy="4.55492958" r="4.31478873"></circle>
                                    </g>
                                    <g id="XMLID_55_" transform="translate(0.000000, 13.943662)">
                                        <circle id="XMLID_58_" cx="4.49760563" cy="4.49683099" r="4.31478873"></circle>
                                        <circle id="XMLID_57_" cx="21.5197183" cy="4.49683099" r="4.31478873"></circle>
                                        <circle id="XMLID_56_" cx="38.5410563" cy="4.49683099" r="4.31478873"></circle>
                                    </g>
                                    <g id="XMLID_51_" transform="translate(0.000000, 27.887324)">
                                        <circle id="XMLID_54_" cx="4.49760563" cy="4.43950704" r="4.31478873"></circle>
                                        <circle id="XMLID_53_" cx="21.5197183" cy="4.43950704" r="4.31478873"></circle>
                                        <circle id="XMLID_52_" cx="38.5410563" cy="4.43950704" r="4.31478873"></circle>
                                    </g>
                                    <g id="XMLID_47_" transform="translate(0.000000, 41.830986)">
                                        <circle id="XMLID_50_" cx="4.49760563" cy="4.38140845" r="4.31478873"></circle>
                                        <circle id="XMLID_49_" cx="21.5197183" cy="4.38140845" r="4.31478873"></circle>
                                        <circle id="XMLID_48_" cx="38.5410563" cy="4.38140845" r="4.31478873"></circle>
                                    </g>
                                </g>
                                <g id="XMLID_44_" transform="translate(24.014085, 25.563380)" fill="#6F7B84">
                                    <rect id="XMLID_45_" x="0.182816901" y="0.162676056" width="42.6730282" height="27.6789437"></rect>
                                </g>
                            </g>
                            <path d="M51.8619014,76.1819718 L39.2057042,76.1819718 C37.2357746,76.1819718 35.6229577,74.5699296 35.6229577,72.5992254 L35.6229577,64.6304225 C35.6229577,62.660493 37.235,61.0476761 39.2057042,61.0476761 L51.8619014,61.0476761 C53.831831,61.0476761 55.4446479,62.6597183 55.4446479,64.6304225 L55.4446479,72.5992254 C55.4438732,74.5699296 53.831831,76.1819718 51.8619014,76.1819718 Z" id="XMLID_42_" fill="#444444"></path>
                            <path d="M30.2941549,76.1819718 L25.4502817,76.1819718 C24.0574648,76.1819718 22.9171831,75.0424648 22.9171831,73.6488732 L22.9171831,63.5815493 C22.9171831,62.1887324 24.0566901,61.0484507 25.4502817,61.0484507 L30.2941549,61.0484507 C31.6869718,61.0484507 32.8272535,62.1879577 32.8272535,63.5815493 L32.8272535,73.6488732 C32.8264789,75.0424648 31.6869718,76.1819718 30.2941549,76.1819718 Z" id="XMLID_41_" fill="#444444"></path>
                            <path d="M64.9766901,76.1819718 L60.1328169,76.1819718 C58.74,76.1819718 57.5997183,75.0424648 57.5997183,73.6488732 L57.5997183,63.5815493 C57.5997183,62.1887324 58.7392254,61.0484507 60.1328169,61.0484507 L64.9766901,61.0484507 C66.369507,61.0484507 67.5097887,62.1879577 67.5097887,63.5815493 L67.5097887,73.6488732 C67.5097887,75.0424648 66.3702817,76.1819718 64.9766901,76.1819718 Z" id="XMLID_40_" fill="#444444"></path>
                            <rect id="XMLID_39_" fill="#303030" x="37.853169" y="10.8342254" width="1.60507042" height="5.04450704"></rect>
                            <rect id="XMLID_38_" fill="#303030" x="41.2926056" y="10.8342254" width="1.60507042" height="5.04450704"></rect>
                            <rect id="XMLID_37_" fill="#303030" x="44.7320423" y="10.8342254" width="1.60507042" height="5.04450704"></rect>
                            <rect id="XMLID_36_" fill="#303030" x="48.1714789" y="10.8342254" width="1.60507042" height="5.04450704"></rect>
                            <rect id="XMLID_35_" fill="#303030" x="51.6109155" y="10.8342254" width="1.60507042" height="5.04450704"></rect>
                            <rect id="XMLID_34_" fill="#303030" x="37.853169" y="175.236197" width="1.60507042" height="10.0890141"></rect>
                            <rect id="XMLID_33_" fill="#303030" x="41.2926056" y="175.236197" width="1.60507042" height="10.0890141"></rect>
                            <rect id="XMLID_32_" fill="#303030" x="44.7320423" y="175.236197" width="1.60507042" height="10.0890141"></rect>
                            <rect id="XMLID_31_" fill="#303030" x="48.1714789" y="175.236197" width="1.60507042" height="10.0890141"></rect>
                            <rect id="XMLID_30_" fill="#303030" x="51.6109155" y="175.236197" width="1.60507042" height="10.0890141"></rect>
                        </g>
                    </g>
                </g>
            </g>
            <g id="microfiltro-00-copy" transform="translate(0.000000, 6.000000)">
                <g id="Group-2" transform="translate(0.000000, 0.519400)">
                    <path d="M62.8467675,92.5655295 L2.95185004,92.5655295 C1.32848663,92.5655295 0,91.2330657 0,89.6048423 L0,2.96068719 C0,1.33246381 1.32848663,0 2.95185004,0 L62.8467675,0 C64.4701309,0 65.7986175,1.33246381 65.7986175,2.96068719 L65.7986175,89.6048423 C65.7986175,91.2330657 64.4701309,92.5655295 62.8467675,92.5655295 Z" id="Fill-1" fill="#E6E6E6"></path>
                    <path d="M1.02744519,0 C1.02744519,0.401903239 0,1.1315122 0,2.46397601 L0,89.2740451 C0,89.2740451 0,90.7239883 1.02744519,91.4680245 L1.02744519,0 Z" id="Fill-3" fill="#CFCFCF"></path>
                    <path d="M42.8548449,56.8902471 L23.7895719,56.8902471 C23.2337241,56.8902471 22.7785658,56.4337263 22.7785658,55.8762143 L22.7785658,36.7538643 C22.7785658,36.1963524 23.2337241,35.7398315 23.7895719,35.7398315 L42.8548449,35.7398315 C43.4106927,35.7398315 43.865851,36.1963524 43.865851,36.7538643 L43.865851,55.8762143 C43.865851,56.4337263 43.4106927,56.8902471 42.8548449,56.8902471" id="Fill-5" fill="#F2F3F5"></path>
                    <polyline id="Fill-7" fill="#E5E9EC" points="43.2617132 56.2884228 43.2637681 35.7398315 22.7785658 56.2884228"></polyline>
                    <path d="M23.16497,35.4828505 C22.8094739,35.4828505 22.5207618,35.772427 22.5207618,36.1289873 L22.5207618,55.2513373 C22.5207618,55.6078976 22.8094739,55.897474 23.16497,55.897474 L42.2302429,55.897474 C42.585739,55.897474 42.8744511,55.6078976 42.8744511,55.2513373 L42.8744511,36.1289873 C42.8744511,35.772427 42.585739,35.4828505 42.2302429,35.4828505 L23.16497,35.4828505 Z M42.2302429,56.6332661 L23.16497,56.6332661 C22.405688,56.6332661 21.7881934,56.0128924 21.7881934,55.2513373 L21.7881934,36.1289873 C21.7881934,35.3674322 22.405688,34.7470584 23.16497,34.7470584 L42.2302429,34.7470584 C42.9905524,34.7470584 43.6080469,35.3674322 43.6080469,36.1289873 L43.6080469,55.2513373 C43.6080469,56.0128924 42.9905524,56.6332661 42.2302429,56.6332661 L42.2302429,56.6332661 Z" id="Fill-9" fill="#5B5B5D"></path>
                    <polygon id="Fill-11" fill="#5A5A5C" points="32.9850369 38.7181508 24.7593107 38.7181508 24.7593107 47.992841 27.8416463 47.992841 27.8416463 51.0844043 29.8965366 51.0844043 29.8965366 53.1454466 32.9850369 53.1454466 36.0612078 53.1454466 36.0612078 51.0844043 38.1160982 51.0844043 38.1160982 47.992841 41.1984338 47.992841 41.1984338 38.7181508"></polygon>
                    <polygon id="Fill-13" fill="#3F4243" points="24.7593107 39.748672 41.1984338 39.748672 41.1984338 38.7181508 24.7593107 38.7181508"></polygon>
                    <polygon id="Fill-15" fill="#3F4243" points="24.7593107 47.6908568 27.8416463 47.6908568 27.8416463 46.6603356 24.7593107 46.6603356"></polygon>
                    <polygon id="Fill-16" fill="#3F4243" points="37.6341522 47.6908568 40.7164878 47.6908568 40.7164878 46.6603356 37.6341522 46.6603356"></polygon>
                    <polygon id="Fill-17" fill="#3F4243" points="27.730428 50.669176 29.7853184 50.669176 29.7853184 49.6386549 27.730428 49.6386549"></polygon>
                    <polygon id="Fill-19" fill="#3F4243" points="35.6534074 50.669176 37.7082978 50.669176 37.7082978 49.6386549 35.6534074 49.6386549"></polygon>
                    <polygon id="Fill-20" fill="#BDBEC2" points="30.7015453 43.7120562 32.0762669 43.7120562 32.0762669 38.7181508 30.7015453 38.7181508"></polygon>
                    <polygon id="Fill-21" fill="#BDBEC2" points="28.7208004 43.7120562 30.0955221 43.7120562 30.0955221 38.7181508 28.7208004 38.7181508"></polygon>
                    <polygon id="Fill-22" fill="#BDBEC2" points="33.6726625 43.7120562 35.0473842 43.7120562 35.0473842 38.7181508 33.6726625 38.7181508"></polygon>
                    <polygon id="Fill-23" fill="#BDBEC2" points="35.6534074 43.7120562 37.0281291 43.7120562 37.0281291 38.7181508 35.6534074 38.7181508"></polygon>
                </g>
            </g>
            <path d="M48.5051238,34.4056809 C58.2090466,35.168132 67.4572316,35.8950598 77.6524155,36.6956334 C75.2541603,34.0322531 73.3991515,31.9719024 71.1117983,29.431554 C84.2146933,26.5047816 95.3317499,29.5372575 105.494876,37.8990931 C100.597861,24.6307115 85.7681874,17.4342131 65.0503122,18.0944264 C64.2748648,15.3296748 63.4751576,12.4774146 62.4727077,8.8990931 C59.8795076,13.6011635 57.5886887,17.7322621 55.3203968,21.8746242 C53.093693,25.9407411 50.8903827,30.0181215 48.5051238,34.4056809 Z" id="XMLID_92_" fill="#00C0D2" fill-rule="nonzero" transform="translate(77.000000, 23.399093) rotate(-6.000000) translate(-77.000000, -23.399093) "></path>
        </g>
    </g>
</svg>