<?xml version="1.0" encoding="UTF-8"?>
<svg width="591px" height="329px" viewBox="0 0 591 329" version="1.1" xmlns="http://www.w3.org/2000/svg" xmlns:xlink="http://www.w3.org/1999/xlink">
    <title>adicionar_filtro_protetor3</title>
    <g id="Page-1" stroke="none" stroke-width="1" fill="none" fill-rule="evenodd">
        <g id="adicionar_filtro_protetor3" transform="translate(54.023310, 26.663170)">
            <g id="microfiltro-00-copy" transform="translate(-0.000000, 0.000000)">
                <g id="Group-2" transform="translate(0.000000, 9.583162)">
                    <path d="M92.381314,136.06627 L4.33905825,136.06627 C1.95280276,136.06627 0,134.107621 0,131.714222 L0,4.35204839 C0,1.958649 1.95280276,0 4.33905825,0 L92.381314,0 C94.7675695,0 96.7203722,1.958649 96.7203722,4.35204839 L96.7203722,131.714222 C96.7203722,134.107621 94.7675695,136.06627 92.381314,136.06627 Z" id="Fill-1" fill="#E6E6E6"></path>
                    <path d="M1.51028829,0 C1.51028829,0.590775799 0,1.6632611 0,3.62191009 L0,131.227968 C0,131.227968 0,133.359305 1.51028829,134.452998 L1.51028829,0 Z" id="Fill-3" fill="#CFCFCF"></path>
                    <path d="M62.9942802,83.6255545 L34.9693707,83.6255545 C34.1523048,83.6255545 33.483247,82.9544938 33.483247,82.1349817 L33.483247,54.0261722 C33.483247,53.2066601 34.1523048,52.5355994 34.9693707,52.5355994 L62.9942802,52.5355994 C63.8113462,52.5355994 64.4804039,53.2066601 64.4804039,54.0261722 L64.4804039,82.1349817 C64.4804039,82.9544938 63.8113462,83.6255545 62.9942802,83.6255545" id="Fill-5" fill="#F2F3F5"></path>
                    <polyline id="Fill-7" fill="#E5E9EC" points="63.5923543 82.7409056 63.5953749 52.5355994 33.483247 82.7409056"></polyline>
                    <path d="M34.05124,52.1578513 C33.5286803,52.1578513 33.1042892,52.5835129 33.1042892,53.107637 L33.1042892,81.2164466 C33.1042892,81.7405708 33.5286803,82.1662323 34.05124,82.1662323 L62.0761495,82.1662323 C62.5987092,82.1662323 63.0231002,81.7405708 63.0231002,81.2164466 L63.0231002,53.107637 C63.0231002,52.5835129 62.5987092,52.1578513 62.0761495,52.1578513 L34.05124,52.1578513 Z M62.0761495,83.2478065 L34.05124,83.2478065 C32.935137,83.2478065 32.0274537,82.335891 32.0274537,81.2164466 L32.0274537,53.107637 C32.0274537,51.9881926 32.935137,51.0762772 34.05124,51.0762772 L62.0761495,51.0762772 C63.1937628,51.0762772 64.1014461,51.9881926 64.1014461,53.107637 L64.1014461,81.2164466 C64.1014461,82.335891 63.1937628,83.2478065 62.0761495,83.2478065 L62.0761495,83.2478065 Z" id="Fill-9" fill="#5B5B5D"></path>
                    <polygon id="Fill-11" fill="#5A5A5C" points="48.4862018 56.913566 36.3948337 56.913566 36.3948337 70.5468537 40.9256986 70.5468537 40.9256986 75.0912829 43.9462752 75.0912829 43.9462752 78.1209024 48.4862018 78.1209024 53.0080049 78.1209024 53.0080049 75.0912829 56.0285815 75.0912829 56.0285815 70.5468537 60.5594463 70.5468537 60.5594463 56.913566"></polygon>
                    <polygon id="Fill-13" fill="#3F4243" points="36.3948337 58.4283757 60.5594463 58.4283757 60.5594463 56.913566 36.3948337 56.913566"></polygon>
                    <polygon id="Fill-15" fill="#3F4243" points="36.3948337 70.1029534 40.9256986 70.1029534 40.9256986 68.5881436 36.3948337 68.5881436"></polygon>
                    <polygon id="Fill-16" fill="#3F4243" points="55.3201473 70.1029534 59.8510122 70.1029534 59.8510122 68.5881436 55.3201473 68.5881436"></polygon>
                    <polygon id="Fill-17" fill="#3F4243" points="40.7622138 74.48092 43.7827904 74.48092 43.7827904 72.9661102 40.7622138 72.9661102"></polygon>
                    <polygon id="Fill-19" fill="#3F4243" points="52.4085606 74.48092 55.4291372 74.48092 55.4291372 72.9661102 52.4085606 72.9661102"></polygon>
                    <polygon id="Fill-20" fill="#BDBEC2" points="45.1295938 64.254334 47.1503596 64.254334 47.1503596 56.913566 45.1295938 56.913566"></polygon>
                    <polygon id="Fill-21" fill="#BDBEC2" points="42.2180071 64.254334 44.2387729 64.254334 44.2387729 56.913566 42.2180071 56.913566"></polygon>
                    <polygon id="Fill-22" fill="#BDBEC2" points="49.4969739 64.254334 51.5177396 64.254334 51.5177396 56.913566 49.4969739 56.913566"></polygon>
                    <polygon id="Fill-23" fill="#BDBEC2" points="52.4085606 64.254334 54.4293263 64.254334 54.4293263 56.913566 52.4085606 56.913566"></polygon>
                </g>
                <g id="Group-5" transform="translate(291.943864, 127.154092) rotate(-3.000000) translate(-291.943864, -127.154092) translate(129.443864, 8.654092)">
                    <g id="Group-3" transform="translate(166.617501, 118.576681) rotate(28.000000) translate(-166.617501, -118.576681) translate(16.117501, 65.076681)">
                        <path d="M173.209808,15.4033429 C146.310063,8.45036614 120.984039,25.9585371 98.420332,41.5747108 C83.6920006,51.7678655 69.7807352,61.3959962 57.1637868,63.4258413 C24.6563417,68.6549645 8.84362332,52.6782662 8.13982898,51.9450982 C6.35315793,50.0576453 3.37486943,49.9743308 1.48549878,51.7572618 C-0.412933597,53.5477669 -0.503550895,56.5425458 1.28160986,58.4466616 C2.06544948,59.2813218 20.9138473,78.84206 58.6574619,72.7691878 C73.3827727,70.4015401 88.147351,60.1826336 103.780345,49.3638624 C124.796007,34.8171445 146.4475,19.8493094 168.407091,24.0286695 L173.209808,15.4033429 Z" id="Fill-54" fill="#B5AE86"></path>
                        <polygon id="Fill-70" fill="#EDEAD3" points="293.60561 27.4492614 228.528798 0.0433235586 180.468405 9.84565739 169.327008 36.3714908 195.991148 77.7848743 261.083062 105.196871"></polygon>
                        <polygon id="Fill-71" fill="#D8D4B6" points="228.345298 -1.52739041e-13 180.386094 9.80081903 169.138977 36.2812081 195.839364 77.7082249 217.3778 26.218746"></polygon>
                        <polygon id="Fill-72" fill="#D8D4B6" points="167.38961 35.0305812 178.049225 9.54693691 170.437372 6.34311431 159.777757 31.8267586"></polygon>
                        <path d="M299.864094,40.5479727 L274.791798,100.485965 C272.736296,105.401522 267.096879,107.714637 262.195994,105.651466 L246.310782,98.9666104 C241.409896,96.9049543 239.103686,91.2486547 241.160699,86.3346119 L266.232994,26.3951053 C268.288497,21.4810625 273.927913,19.167948 278.827289,21.2296041 L294.714011,27.9159743 C299.614897,29.9776303 301.919596,35.6339299 299.864094,40.5479727" id="Fill-73" fill="#D8D4B6"></path>
                        <polygon id="Fill-74" fill="#F2F3F5" points="282.486566 71.8210683 271.441828 98.2257169 245.115993 87.1479133 256.160731 60.7432647"></polygon>
                        <polyline id="Fill-75" fill="#E5E9EC" points="281.72387 72.0631349 256.148649 61.2973821 270.994782 97.7103787"></polyline>
                        <path d="M245.765719,86.8808523 L271.176319,97.5738943 L281.837444,72.0872204 L256.426844,61.3941784 L245.765719,86.8808523 Z M282.944485,72.0145095 L271.899747,98.4176433 C271.792517,98.6721314 271.502541,98.7918013 271.248813,98.6842498 L244.924488,87.6064462 C244.67076,87.5004095 244.551447,87.2080512 244.658677,86.955078 L255.703416,60.5504294 C255.809136,60.2974562 256.100621,60.1777862 256.35284,60.2838229 L282.678675,71.3616265 C282.930893,71.4676632 283.050206,71.7600215 282.944485,72.0145095 L282.944485,72.0145095 Z" id="Fill-76" fill="#5B5B5D"></path>
                        <polygon id="Fill-77" fill="#5A5A5C" points="255.347139 75.943623 251.181763 85.9019823 262.255197 90.561537 263.804753 86.859342 267.495898 88.412022 268.527424 85.944397 272.218569 87.4970769 273.802861 83.7100526 275.31617 80.0926869 271.625026 78.5400069 273.173071 74.8378119 269.481927 73.2836171 270.514964 70.8159921 259.44153 66.1564373"></polygon>
                        <polygon id="Fill-78" fill="#3F4243" points="251.365868 85.4611726 251.365868 85.4611726 259.592408 65.7943978"></polygon>
                        <polygon id="Fill-79" fill="#3F4243" points="262.255348 90.5612341 262.255348 90.5612341 263.803394 86.8590391"></polygon>
                        <polygon id="Fill-80" fill="#3F4243" points="269.482531 73.2839201 269.482531 73.2839201 270.515568 70.816295"></polygon>
                        <polygon id="Fill-81" fill="#3F4243" points="266.264862 87.894563 267.495747 88.4126279 268.527273 85.9434881 267.297899 85.4269379"></polygon>
                        <polygon id="Fill-82" fill="#3F4243" points="270.98859 86.9796179 272.219475 87.4976829 275.317076 80.0932928 274.086192 79.5752279"></polygon>
                        <polygon id="Fill-83" fill="#3F4243" points="270.394745 78.0217905 271.62563 78.5398555 273.173675 74.8376605 271.94279 74.3195955"></polygon>
                        <polygon id="Fill-84" fill="#BDBEC2" points="260.904244 78.8670544 260.183837 80.589393 253.96749 77.9733166 254.687898 76.2509779"></polygon>
                        <polygon id="Fill-85" fill="#BDBEC2" points="259.719876 81.6986882 258.999469 83.4210269 252.783122 80.8049505 253.50353 79.0826118"></polygon>
                        <polygon id="Fill-86" fill="#BDBEC2" points="262.088763 76.0354205 261.368356 77.7577592 255.15352 75.1416828 255.872417 73.4193441"></polygon>
                        <polygon id="Fill-87" fill="#BDBEC2" points="263.273283 73.2039381 262.552875 74.9262768 256.338039 72.3102004 257.056936 70.5878617"></polygon>
                        <polygon id="Fill-88" fill="#F2F3F5" points="295.908498 39.7346714 284.86376 66.13932 258.537925 55.0615163 269.582663 28.6568677"></polygon>
                        <polyline id="Fill-89" fill="#E5E9EC" points="295.145802 39.976738 269.570581 29.2109851 284.416714 65.6239817"></polyline>
                        <path d="M259.187651,54.7944554 L284.598251,65.4874973 L295.259376,40.0008234 L269.848776,29.3077815 L259.187651,54.7944554 Z M296.366417,39.9281126 L285.321679,66.3312464 C285.214449,66.5857344 284.924473,66.7054044 284.670745,66.5978529 L258.34642,55.5200492 C258.092692,55.4140125 257.973379,55.1216543 258.080609,54.868681 L269.125348,28.4640324 C269.231068,28.2110592 269.522553,28.0913892 269.774772,28.1974259 L296.100607,39.2752296 C296.352825,39.3812662 296.472138,39.6736245 296.366417,39.9281126 L296.366417,39.9281126 Z" id="Fill-90" fill="#5B5B5D"></path>
                        <polygon id="Fill-91" fill="#5A5A5C" points="268.76892 43.8572261 264.603544 53.8155853 275.676978 58.4751401 277.226534 54.7729451 280.917679 56.325625 281.949205 53.858 285.64035 55.41068 287.224642 51.6236556 288.737951 48.00629 285.046807 46.45361 286.596363 42.751415 282.903708 41.1972202 283.936745 38.7295951 272.863311 34.0700403"></polygon>
                        <polygon id="Fill-92" fill="#3F4243" points="264.787649 53.3747757 264.787649 53.3747757 273.014189 33.7080008"></polygon>
                        <polygon id="Fill-93" fill="#3F4243" points="275.67728 58.4748371 275.67728 58.4748371 277.225326 54.7726421"></polygon>
                        <polygon id="Fill-94" fill="#3F4243" points="282.904463 41.1975231 282.904463 41.1975231 283.9375 38.7298981"></polygon>
                        <polygon id="Fill-95" fill="#3F4243" points="279.686794 55.808166 280.917679 56.326231 281.949205 53.8570911 280.719831 53.340541"></polygon>
                        <polygon id="Fill-96" fill="#3F4243" points="284.410522 54.893221 285.641407 55.4112859 288.739009 48.0068959 287.508124 47.4888309"></polygon>
                        <polygon id="Fill-97" fill="#3F4243" points="283.816526 45.9353936 285.047411 46.4534585 286.595456 42.7512635 285.364571 42.2331985"></polygon>
                        <polygon id="Fill-98" fill="#BDBEC2" points="274.326176 46.7806574 273.605769 48.5029961 267.389422 45.8869196 268.10983 44.164581"></polygon>
                        <polygon id="Fill-99" fill="#BDBEC2" points="273.141657 49.6122912 272.42125 51.3346299 266.206413 48.7185535 266.925311 46.9962148"></polygon>
                        <polygon id="Fill-100" fill="#BDBEC2" points="275.510695 43.949175 274.790288 45.6715137 268.573941 43.0554373 269.294349 41.3330986"></polygon>
                        <polygon id="Fill-101" fill="#BDBEC2" points="276.695064 41.1175412 275.974656 42.8398798 269.75982 40.2238034 270.478717 38.5014647"></polygon>
                    </g>
                    <g id="Group-4" transform="translate(28.618244, 36.972648) rotate(-31.000000) translate(-28.618244, -36.972648) translate(11.118244, 10.972648)">
                        <path d="M20.9877607,51.0908618 C20.9630867,45.4972509 21.1506096,40.4431386 21.3294965,37.548007 C21.4923454,34.908252 19.4789416,32.6357705 16.832648,32.4739087 C14.1789522,32.3068652 11.9089381,34.3185419 11.7448555,36.9594072 C11.7127792,37.4852115 11.3525379,43.5208582 11.3821468,51.0908618 L20.9877607,51.0908618 Z" id="Path" fill="#3E3F41"></path>
                        <path d="M31.0350405,48.4186604 L2.84615354,48.4186604 C1.33856809,48.4186604 0.103631078,47.1861908 0.103631078,45.6810727 L0.103631078,5.54808716 C0.103631078,4.04407945 1.33856809,2.81259681 2.84615354,2.81259681 L31.0350405,2.81259681 C32.5438597,2.81259681 33.7787967,4.04407945 33.7787967,5.54808716 L33.7787967,45.6810727 C33.7787967,47.1861908 32.5438597,48.4186604 31.0350405,48.4186604 Z" id="Path" fill="#F2F3F5"></path>
                        <path d="M2.13430673,2.84812746 C1.06715336,3.05144177 3.5063957e-14,4.18607871 3.5063957e-14,5.54858064 L3.5063957e-14,45.6823064 C3.5063957e-14,47.0443149 1.06715336,48.1793219 2.13430673,48.382883 L2.13430673,2.84812746 Z" id="Path" fill="#CFCFCF"></path>
                        <path d="M32.0071987,48.382883 C33.0731184,48.1793219 34.1402717,47.0443149 34.1402717,45.6823064 L34.1402717,5.54858064 C34.1402717,4.18607871 33.0731184,3.05144177 32.0071987,2.84812746 L32.0071987,48.382883 Z" id="Path" fill="#CFCFCF"></path>
                        <path d="M26.6726656,3.19319428 L26.6726656,2.01500762 C26.6726656,0.906895304 26.2914513,-7.01279141e-14 25.1798846,-7.01279141e-14 L8.64826021,-7.01279141e-14 C7.53792723,-7.01279141e-14 6.40292019,0.906895304 6.40292019,2.01500762 L6.40292019,3.19319428 L26.6726656,3.19319428 Z" id="Path" fill="#CFCFCF"></path>
                        <polygon id="Path" fill="#E3E4E7" points="6.65582936 28.2003604 27.2253647 28.2003604 27.2253647 7.67758245 6.65582936 7.67758245"></polygon>
                        <polygon id="Path" fill="#8D8F90" points="8.90116939 21.643474 11.8151766 21.643474 11.8151766 7.67634874 8.90116939 7.67634874"></polygon>
                        <polygon id="Path" fill="#BDBEC2" points="9.46990662 21.6433507 11.8127092 21.6433507 11.8127092 8.24681316 9.46990662 8.24681316"></polygon>
                        <polygon id="Path" fill="#8D8F90" points="13.2919195 21.643474 16.204693 21.643474 16.204693 7.67634874 13.2919195 7.67634874"></polygon>
                        <polygon id="Path" fill="#BDBEC2" points="13.8606567 21.6433507 16.2034593 21.6433507 16.2034593 8.24681316 13.8606567 8.24681316"></polygon>
                        <polygon id="Path" fill="#8D8F90" points="17.6814359 21.643474 20.5954431 21.643474 20.5954431 7.67634874 17.6814359 7.67634874"></polygon>
                        <polygon id="Path" fill="#BDBEC2" points="18.2501731 21.6433507 20.5929757 21.6433507 20.5929757 8.24681316 18.2501731 8.24681316"></polygon>
                        <polygon id="Path" fill="#8D8F90" points="22.0697185 21.643474 24.9837258 21.643474 24.9837258 7.67634874 22.0697185 7.67634874"></polygon>
                        <polygon id="Path" fill="#BDBEC2" points="22.6409232 21.6433507 24.9837258 21.6433507 24.9837258 8.24681316 22.6409232 8.24681316"></polygon>
                        <path d="M26.0669173,41.919388 L7.79083641,41.919388 C7.16781624,41.919388 6.65829677,41.4104853 6.65829677,40.7889456 L6.65829677,33.2061116 C6.65829677,32.5844485 7.16781624,32.0756692 7.79083641,32.0756692 L26.0669173,32.0756692 C26.6899374,32.0756692 27.1994569,32.5844485 27.1994569,33.2061116 L27.1994569,40.7889456 C27.1994569,41.4104853 26.6899374,41.919388 26.0669173,41.919388 Z" id="Path" fill="#5A5A5C"></path>
                        <path d="M26.6714319,36.4846781 L26.6714319,40.8168273 C26.6714319,40.8168273 27.0649832,41.5117724 26.0656836,41.5117724 L7.77109716,41.5117724 C7.77109716,41.5117724 25.6042785,40.9689429 26.6714319,36.4846781 Z" id="Path" fill="#3E3F41"></path>
                    </g>
                </g>
                <ellipse id="Oval" fill="#D5DAE2" cx="376.797525" cy="253.867497" rx="60.906311" ry="14.1875881"></ellipse>
            </g>
            <g id="Group-3" transform="translate(290.837632, 50.317454)" fill="#FF0000">
                <path d="M-24.1198594,78.6674301 L195.395029,78.6674301 C197.496716,78.6674301 199.200469,80.3711837 199.200469,82.4728701 L199.200469,89.0310642 C199.200469,91.1327507 197.496716,92.8365042 195.395029,92.8365042 L-24.1198594,92.8365042 C-26.2215459,92.8365042 -27.9252994,91.1327507 -27.9252994,89.0310642 L-27.9252994,82.4728701 C-27.9252994,80.3711837 -26.2215459,78.6674301 -24.1198594,78.6674301 Z" id="Rectangle" transform="translate(85.637585, 85.751967) rotate(-315.000000) translate(-85.637585, -85.751967) "></path>
                <path d="M-24.1198594,78.6674301 L195.395029,78.6674301 C197.496716,78.6674301 199.200469,80.3711837 199.200469,82.4728701 L199.200469,89.0310642 C199.200469,91.1327507 197.496716,92.8365042 195.395029,92.8365042 L-24.1198594,92.8365042 C-26.2215459,92.8365042 -27.9252994,91.1327507 -27.9252994,89.0310642 L-27.9252994,82.4728701 C-27.9252994,80.3711837 -26.2215459,78.6674301 -24.1198594,78.6674301 Z" id="Rectangle-Copy-2" transform="translate(85.637585, 85.751967) rotate(-45.000000) translate(-85.637585, -85.751967) "></path>
            </g>
        </g>
    </g>
</svg>