<?xml version="1.0" encoding="UTF-8"?>
<svg width="592px" height="330px" viewBox="0 0 592 330" version="1.1" xmlns="http://www.w3.org/2000/svg" xmlns:xlink="http://www.w3.org/1999/xlink">
    <title>desconectar_extensoes2</title>
    <g id="Page-1" stroke="none" stroke-width="1" fill="none" fill-rule="evenodd">
        <g id="desconectar_extensoes2" transform="translate(296.000000, 165.000000) scale(-1, 1) translate(-296.000000, -165.000000) translate(25.000000, 10.000000)">
            <path d="M102.1717,151.977 L6.2065,151.977 C2.8657,151.977 0.1324,149.2437 0.1324,145.9029 L0.1324,6.411 C0.1324,3.0702 2.8657,0.3369 6.2065,0.3369 L102.1717,0.3369 C105.5125,0.3369 108.2458,3.0702 108.2458,6.411 L108.2458,145.902 C108.2458,149.2437 105.5125,151.977 102.1717,151.977 Z" id="XMLID_130_" fill="#E6E6E6" fill-rule="nonzero"></path>
            <path d="M2.2366,1.1514 C1.1152,1.8102 0.0802,3.0045 0.0802,5.187 C0.0802,9.9525 0.0802,147.3996 0.0802,147.3996 C0.0802,147.3996 0.2521,149.7747 2.2366,150.9942 L2.2366,1.1514 Z" id="XMLID_128_" fill="#CFCFCF" fill-rule="nonzero"></path>
            <path d="M138.6199,115.221 L122.4199,115.221 C119.4733,115.221 117.0622,112.8099 117.0622,109.8633 L117.0622,109.8633 C117.0622,106.9167 119.4733,104.5056 122.4199,104.5056 L138.6199,104.5056 C141.5665,104.5056 143.9776,106.9167 143.9776,109.8633 L143.9776,109.8633 C143.9776,112.8099 141.5665,115.221 138.6199,115.221 Z" id="XMLID_126_" fill="#CFCFCF" fill-rule="nonzero"></path>
            <path d="M138.6199,68.5677 L122.4199,68.5677 C119.4733,68.5677 117.0622,66.1566 117.0622,63.21 L117.0622,63.21 C117.0622,60.2634 119.4733,57.8523 122.4199,57.8523 L138.6199,57.8523 C141.5665,57.8523 143.9776,60.2634 143.9776,63.21 L143.9776,63.21 C143.9776,66.1566 141.5665,68.5677 138.6199,68.5677 Z" id="XMLID_125_" fill="#CFCFCF" fill-rule="nonzero"></path>
            <rect id="XMLID_124_" fill="#232323" fill-rule="nonzero" x="150.3559" y="42.078" width="79.9272" height="88.7913"></rect>
            <rect id="XMLID_123_" fill="#303030" fill-rule="nonzero" x="137.5993" y="42.078" width="12.7575" height="88.7913"></rect>
            <path d="M206.7508,101.8668 L177.22,101.8668 C176.4235,101.8668 175.7719,101.2152 175.7719,100.4187 L175.7719,70.8879 C175.7719,70.0914 176.4235,69.4398 177.22,69.4398 L206.7508,69.4398 C207.5473,69.4398 208.1989,70.0914 208.1989,70.8879 L208.1989,100.4187 C208.1989,101.2152 207.5473,101.8668 206.7508,101.8668 Z" id="XMLID_122_" fill="#F2F3F5" fill-rule="nonzero"></path>
            <polyline id="XMLID_121_" fill="#E5E9EC" fill-rule="nonzero" points="207.6112 101.1738 207.6148 69.6693 176.113 101.1738"></polyline>
            <path d="M206.6455,102.4302 L177.3262,102.4302 C176.158,102.4302 175.2085,101.4798 175.2085,100.3125 L175.2085,70.9932 C175.2085,69.825 176.1589,68.8755 177.3262,68.8755 L206.6455,68.8755 C207.8137,68.8755 208.7632,69.8259 208.7632,70.9932 L208.7632,100.3125 C208.7632,101.4807 207.8128,102.4302 206.6455,102.4302 Z M177.3253,70.0032 C176.779,70.0032 176.3353,70.4478 176.3353,70.9932 L176.3353,100.3125 C176.3353,100.8588 176.779,101.3025 177.3253,101.3025 L206.6446,101.3025 C207.1909,101.3025 207.6346,100.8579 207.6346,100.3125 L207.6346,70.9932 C207.6346,70.4469 207.1909,70.0032 206.6446,70.0032 L177.3253,70.0032 L177.3253,70.0032 Z" id="XMLID_118_" fill="#5B5B5D" fill-rule="nonzero"></path>
            <polygon id="XMLID_116_" fill="#5A5A5C" fill-rule="nonzero" points="191.9674 74.8659 180.0262 74.8659 180.0262 89.3514 183.889 89.3514 183.889 93.2142 187.7518 93.2142 187.7518 98.0427 191.9674 98.0427 196.4431 98.0427 196.4431 93.2142 200.3059 93.2142 200.3059 89.3514 204.1687 89.3514 204.1687 74.8659"></polygon>
            <rect id="XMLID_115_" fill="#3F4243" fill-rule="nonzero" x="180.0262" y="74.8659" width="24.1425" height="1"></rect>
            <rect id="XMLID_114_" fill="#3F4243" fill-rule="nonzero" x="180.0262" y="88.3857" width="3.8628" height="1"></rect>
            <rect id="XMLID_113_" fill="#3F4243" fill-rule="nonzero" x="200.3059" y="88.3857" width="3.8628" height="1"></rect>
            <rect id="XMLID_112_" fill="#3F4243" fill-rule="nonzero" x="183.889" y="92.2485" width="3.8628" height="1"></rect>
            <rect id="XMLID_111_" fill="#3F4243" fill-rule="nonzero" x="187.7518" y="97.077" width="8.6913" height="1"></rect>
            <rect id="XMLID_110_" fill="#3F4243" fill-rule="nonzero" x="196.4431" y="92.2485" width="3.8628" height="1"></rect>
            <rect id="XMLID_108_" fill="#BDBEC2" fill-rule="nonzero" x="189.2422" y="74.6913" width="2.115" height="7.6563"></rect>
            <rect id="XMLID_107_" fill="#BDBEC2" fill-rule="nonzero" x="185.7646" y="74.6913" width="2.115" height="7.6563"></rect>
            <rect id="XMLID_106_" fill="#BDBEC2" fill-rule="nonzero" x="192.7198" y="74.6913" width="2.115" height="7.6563"></rect>
            <rect id="XMLID_105_" fill="#BDBEC2" fill-rule="nonzero" x="196.1974" y="74.6913" width="2.115" height="7.6563"></rect>
            <rect id="XMLID_100_" fill="#CFCFCF" fill-rule="nonzero" x="22.9861" y="42.8241" width="66.6657" height="66.6657"></rect>
            <rect id="XMLID_99_" fill="#5A5657" fill-rule="nonzero" x="36.8749" y="54.9534" width="5.7474" height="16.092"></rect>
            <rect id="XMLID_98_" fill="#5A5657" fill-rule="nonzero" x="61.9705" y="60.1257" width="16.092" height="5.7474"></rect>
            <rect id="XMLID_97_" fill="#5A5657" fill-rule="nonzero" x="67.1428" y="81.2685" width="5.7474" height="16.092"></rect>
            <rect id="XMLID_96_" fill="#5A5657" fill-rule="nonzero" x="36.8749" y="81.2685" width="5.7474" height="16.092"></rect>
            <path d="M67.1428,89.8185 C77.2228,90.6105 86.8294,91.3656 97.4197,92.1972 C94.9285,89.4306 93.0016,87.2904 90.6256,84.6516 C104.2363,81.6114 115.7842,84.7614 126.3412,93.4473 C121.2544,79.6647 105.85,72.1893 84.3292,72.8751 C83.5237,70.0032 82.693,67.0404 81.6517,63.3243 C78.958,68.2086 76.5784,72.4998 74.2222,76.8027 C71.9092,81.0246 69.6205,85.26 67.1428,89.8185 Z" id="XMLID_93_" fill="#00C0D2" fill-rule="nonzero"></path>
            <path d="M312.868,249.537 C320.7304,247.5921 327.7252,243.4512 333.973,237.0819 C340.7896,230.1312 347.1265,215.3847 353.836,199.7733 C360.442,184.4013 368.6635,165.2709 374.5351,163.2225 C376.6474,162.4854 377.7616,160.176 377.0254,158.0655 C376.2883,155.9523 373.9834,154.8291 371.8675,155.5743 C363.2509,158.5794 356.4955,173.0694 346.3948,196.5747 C340.2748,210.8154 333.9469,225.5412 328.1905,231.4101 C317.9755,241.8249 305.7427,244.9434 289.6921,241.2264 C285.8995,240.348 281.3383,237.7029 276.9481,234.1497 C274.753,232.3731 272.602,230.3697 270.6121,228.2466 C246.5641,207.4017 275.2174,184.5543 290.0737,170.2164 C291.6244,168.537 293.3677,166.6218 295.1974,164.5419 C304.3477,154.1433 315.6283,139.6371 316.3033,130.6506 C317.1394,119.5311 310.3669,97.7907 310.078,96.8709 C309.4084,94.737 307.1404,93.5445 305.0011,94.2195 C302.8672,94.8882 301.6801,97.1616 302.3488,99.2955 C304.1866,105.1545 308.8234,122.0979 308.2267,130.044 C307.8568,134.9634 300.97,145.155 292.1554,155.6517 C289.9522,158.2761 287.6293,160.9194 285.2722,163.5114 C268.4629,179.7357 238.2787,203.889 259.6996,227.8911 C261.2305,229.9674 262.9369,231.9852 264.754,233.8986 C272.0206,241.5513 281.0323,247.5345 287.8651,249.1176 C297.055,251.2461 305.3575,251.3946 312.868,249.537 Z" id="XMLID_91_" fill="#8B8C8D" fill-rule="nonzero"></path>
            <path d="M305.3791,110.3421 C304.264,105.7449 303.0832,101.6355 302.3497,99.2946 C301.681,97.1607 302.8681,94.8873 305.002,94.2186 C307.1413,93.5436 309.4084,94.7361 310.0789,96.87 C310.2121,97.2957 311.7322,102.1755 313.2451,108.3963 L305.3791,110.3421 Z" id="XMLID_89_" fill="#3E3F41" fill-rule="nonzero"></path>
            <path d="M296.6068,110.1837 L319.6909,104.4741 C320.9266,104.169 321.6871,102.9081 321.3811,101.6724 L313.2343,68.7306 C312.9292,67.4949 311.6683,66.7344 310.4326,67.0404 L287.3485,72.7491 C286.1128,73.0542 285.3523,74.3151 285.6583,75.5508 L293.8051,108.4926 C294.1102,109.7283 295.3711,110.4888 296.6068,110.1837 Z" id="XMLID_88_" fill="#F2F3F5" fill-rule="nonzero"></path>
            <path d="M311.0239,66.9252 C311.9392,66.8757 313.0426,67.5912 313.3198,68.7099 L321.4666,101.6517 C321.7429,102.7704 321.1003,103.9179 320.2678,104.3004 L311.0239,66.9252 Z" id="XMLID_87_" fill="#CFCFCF" fill-rule="nonzero"></path>
            <path d="M295.8049,110.3511 C294.8896,110.4006 293.7862,109.6851 293.509,108.5664 L285.3622,75.6246 C285.0859,74.5059 285.7285,73.3584 286.561,72.9759 L295.8049,110.3511 Z" id="XMLID_86_" fill="#CFCFCF" fill-rule="nonzero"></path>
            <path d="M290.9998,72.1785 L290.7604,71.211 C290.5354,70.302 290.6641,69.4803 291.5731,69.2553 L305.1118,65.9064 C306.0208,65.6814 307.135,66.1962 307.36,67.1052 L307.5994,68.0727 L290.9998,72.1785 Z" id="XMLID_84_" fill="#CFCFCF" fill-rule="nonzero"></path>
            <rect id="XMLID_83_" fill="#E3E4E7" fill-rule="nonzero" transform="translate(301.942831, 82.310131) rotate(166.108271) translate(-301.942831, -82.310131) " x="293.265944" y="73.6332442" width="17.3537733" height="17.3537733"></rect>
            <rect id="XMLID_82_" fill="#8D8F90" fill-rule="nonzero" transform="translate(306.670590, 78.285994) rotate(166.108271) translate(-306.670590, -78.285994) " x="305.441578" y="72.3807973" width="2.45802369" height="11.8103943"></rect>
            <rect id="XMLID_81_" fill="#BDBEC2" fill-rule="nonzero" transform="translate(306.494459, 78.578064) rotate(166.108271) translate(-306.494459, -78.578064) " x="305.506209" y="72.9140786" width="1.97649946" height="11.32797"></rect>
            <rect id="XMLID_79_" fill="#8D8F90" fill-rule="nonzero" transform="translate(303.075924, 79.174970) rotate(166.108271) translate(-303.075924, -79.174970) " x="301.846912" y="73.2697724" width="2.45802369" height="11.8103943"></rect>
            <rect id="XMLID_78_" fill="#BDBEC2" fill-rule="nonzero" transform="translate(302.898829, 79.467255) rotate(166.108271) translate(-302.898829, -79.467255) " x="301.91058" y="73.8032697" width="1.97649946" height="11.32797"></rect>
            <rect id="XMLID_76_" fill="#8D8F90" fill-rule="nonzero" transform="translate(299.480295, 80.064161) rotate(166.108271) translate(-299.480295, -80.064161) " x="298.251283" y="74.1589636" width="2.45802369" height="11.8103943"></rect>
            <rect id="XMLID_75_" fill="#BDBEC2" fill-rule="nonzero" transform="translate(299.304074, 80.356230) rotate(166.108271) translate(-299.304074, -80.356230) " x="298.315824" y="74.6922448" width="1.97649946" height="11.32797"></rect>
            <rect id="XMLID_73_" fill="#8D8F90" fill-rule="nonzero" transform="translate(295.885449, 80.953046) rotate(166.108271) translate(-295.885449, -80.953046) " x="294.656437" y="75.0478487" width="2.45802369" height="11.8103943"></rect>
            <rect id="XMLID_72_" fill="#BDBEC2" fill-rule="nonzero" transform="translate(295.709228, 81.245115) rotate(166.108271) translate(-295.709228, -81.245115) " x="294.720979" y="75.5811299" width="1.97649946" height="11.32797"></rect>
            <path d="M299.3581,103.8423 L314.3242,100.1406 C314.8345,100.0146 315.1486,99.4935 315.0226,98.9832 L313.4836,92.7588 C313.3576,92.2485 312.8365,91.9344 312.3262,92.0604 L297.3601,95.7621 C296.8498,95.8881 296.5357,96.4092 296.6617,96.9195 L298.2007,103.1439 C298.3267,103.6542 298.8478,103.9683 299.3581,103.8423 Z" id="XMLID_69_" fill="#5A5A5C" fill-rule="nonzero"></path>
            <path d="M297.7579,99.5043 L298.6372,103.0602 C298.6372,103.0602 298.4554,103.71 299.2744,103.5075 C300.0934,103.305 314.2558,99.8022 314.2558,99.8022 C314.2558,99.8022 299.5417,102.9693 297.7579,99.5043 Z" id="XMLID_68_" fill="#3E3F41" fill-rule="nonzero"></path>
            <path d="M223.4434,83.1504 C233.5234,83.9424 243.13,84.6975 253.7203,85.5291 C251.2291,82.7625 249.3022,80.6223 246.9262,77.9835 C260.5369,74.9433 272.0848,78.0933 282.6418,86.7792 C277.555,72.9966 262.1506,65.5212 240.6298,66.207 C239.8243,63.3351 238.9936,60.3723 237.9523,56.6553 C235.2586,61.5396 232.879,65.8308 230.5228,70.1337 C228.2098,74.3574 225.9211,78.5928 223.4434,83.1504 Z" id="XMLID_92_" fill="#00C0D2" fill-rule="nonzero"></path>
            <path d="M535.070858,250.78674 L341.243258,250.78674 C337.564958,250.78674 334.554458,247.77714 334.554458,244.09884 L334.554458,242.94054 C334.554458,239.26224 337.564958,236.25264 341.243258,236.25264 L535.070858,236.25264 C538.749158,236.25264 541.758758,239.26224 541.758758,242.94054 L541.758758,244.09884 C541.758758,247.77714 538.749158,250.78674 535.070858,250.78674" id="Fill-47" fill="#D5DAE2" transform="translate(438.156608, 243.519690) scale(-1, 1) translate(-438.156608, -243.519690) "></path>
            <path d="M529.977128,241.3704 L345.017228,241.3704 C340.994228,241.3704 337.702028,238.0791 337.702028,234.0561 L337.702028,52.8987 C337.702028,48.8757 340.994228,45.5844 345.017228,45.5844 L529.977128,45.5844 C534.000128,45.5844 537.291428,48.8757 537.291428,52.8987 L537.291428,234.0561 C537.291428,238.0791 534.000128,241.3704 529.977128,241.3704" id="Fill-48" fill="#444444" transform="translate(437.496728, 143.477400) scale(-1, 1) translate(-437.496728, -143.477400) "></path>
            <path d="M512.523518,224.805 L471.272018,224.805 C466.896218,224.805 463.315118,221.2239 463.315118,216.8481 L463.315118,43.3569 C463.315118,38.9811 466.896218,35.4 471.272018,35.4 L512.523518,35.4 C516.900218,35.4 520.480418,38.9811 520.480418,43.3569 L520.480418,216.8481 C520.480418,221.2239 516.900218,224.805 512.523518,224.805" id="Fill-49" fill="#232323" transform="translate(491.897768, 130.102500) scale(-1, 1) translate(-491.897768, -130.102500) "></path>
            <polygon id="Fill-50" fill="#6F7B84" transform="translate(403.407248, 86.840310) scale(-1, 1) translate(-403.407248, -86.840310) " points="358.071548 109.93386 448.742948 109.93386 448.742948 63.74676 358.071548 63.74676"></polygon>
            <polygon id="Fill-51" fill="#626E78" transform="translate(386.047238, 86.959560) scale(-1, 1) translate(-386.047238, -86.959560) " points="357.767438 63.91911 402.894338 110.17281 414.327038 110.17281 414.327038 63.74631"></polygon>
            <path d="M444.936038,134.81193 C444.936038,139.45053 441.175838,143.21073 436.537238,143.21073 C431.899538,143.21073 428.139338,139.45053 428.139338,134.81193 C428.139338,130.17333 431.899538,126.41313 436.537238,126.41313 C441.175838,126.41313 444.936038,130.17333 444.936038,134.81193" id="Fill-52" fill="#232323" transform="translate(436.537688, 134.811930) scale(-1, 1) translate(-436.537688, -134.811930) "></path>
            <path d="M411.805238,134.81193 C411.805238,139.45053 408.045038,143.21073 403.406438,143.21073 C398.768738,143.21073 395.008538,139.45053 395.008538,134.81193 C395.008538,130.17333 398.768738,126.41313 403.406438,126.41313 C408.045038,126.41313 411.805238,130.17333 411.805238,134.81193" id="Fill-53" fill="#232323" transform="translate(403.406888, 134.811930) scale(-1, 1) translate(-403.406888, -134.811930) "></path>
            <path d="M378.674348,134.81193 C378.674348,139.45053 374.914148,143.21073 370.275548,143.21073 C365.637848,143.21073 361.877648,139.45053 361.877648,134.81193 C361.877648,130.17333 365.637848,126.41313 370.275548,126.41313 C374.914148,126.41313 378.674348,130.17333 378.674348,134.81193" id="Fill-54" fill="#232323" transform="translate(370.275998, 134.811930) scale(-1, 1) translate(-370.275998, -134.811930) "></path>
            <path d="M444.936038,162.41088 C444.936038,167.04948 441.175838,170.80968 436.537238,170.80968 C431.899538,170.80968 428.139338,167.04948 428.139338,162.41088 C428.139338,157.77228 431.899538,154.01208 436.537238,154.01208 C441.175838,154.01208 444.936038,157.77228 444.936038,162.41088" id="Fill-55" fill="#232323" transform="translate(436.537688, 162.410880) scale(-1, 1) translate(-436.537688, -162.410880) "></path>
            <path d="M411.805238,162.41088 C411.805238,167.04948 408.045038,170.80968 403.406438,170.80968 C398.768738,170.80968 395.008538,167.04948 395.008538,162.41088 C395.008538,157.77228 398.768738,154.01208 403.406438,154.01208 C408.045038,154.01208 411.805238,157.77228 411.805238,162.41088" id="Fill-56" fill="#232323" transform="translate(403.406888, 162.410880) scale(-1, 1) translate(-403.406888, -162.410880) "></path>
            <path d="M378.674348,162.41088 C378.674348,167.04948 374.914148,170.80968 370.275548,170.80968 C365.637848,170.80968 361.877648,167.04948 361.877648,162.41088 C361.877648,157.77228 365.637848,154.01208 370.275548,154.01208 C374.914148,154.01208 378.674348,157.77228 378.674348,162.41088" id="Fill-57" fill="#232323" transform="translate(370.275998, 162.410880) scale(-1, 1) translate(-370.275998, -162.410880) "></path>
            <g id="Group-2" transform="translate(83.000000, 169.866950)">
                <path d="M94.6080371,139.345958 L4.44364522,139.345958 C1.99987235,139.345958 0,137.340099 0,134.88901 L0,4.45694846 C0,2.00585951 1.99987235,0 4.44364522,0 L94.6080371,0 C97.05181,0 99.0516823,2.00585951 99.0516823,4.45694846 L99.0516823,134.88901 C99.0516823,137.340099 97.05181,139.345958 94.6080371,139.345958 Z" id="Fill-1" fill="#E6E6E6"></path>
                <path d="M1.54669169,0 C1.54669169,0.605015628 0,1.70335169 0,3.7092112 L0,134.391036 C0,134.391036 0,136.573746 1.54669169,137.6938 L1.54669169,0 Z" id="Fill-3" fill="#CFCFCF"></path>
                <path d="M64.5126697,85.6412322 L35.8122588,85.6412322 C34.9754986,85.6412322 34.2903142,84.9539965 34.2903142,84.1147312 L34.2903142,55.3283979 C34.2903142,54.4891327 34.9754986,53.8018969 35.8122588,53.8018969 L64.5126697,53.8018969 C65.3494299,53.8018969 66.0346143,54.4891327 66.0346143,55.3283979 L66.0346143,84.1147312 C66.0346143,84.9539965 65.3494299,85.6412322 64.5126697,85.6412322" id="Fill-5" fill="#F2F3F5"></path>
                <polyline id="Fill-7" fill="#E5E9EC" points="65.1251596 84.7352601 65.128253 53.8018969 34.2903142 84.7352601"></polyline>
                <path d="M34.8719978,53.4150438 C34.3368425,53.4150438 33.9022221,53.8509653 33.9022221,54.3877228 L33.9022221,83.1740561 C33.9022221,83.7108136 34.3368425,84.1467351 34.8719978,84.1467351 L63.5724087,84.1467351 C64.1075641,84.1467351 64.5421844,83.7108136 64.5421844,83.1740561 L64.5421844,54.3877228 C64.5421844,53.8509653 64.1075641,53.4150438 63.5724087,53.4150438 L34.8719978,53.4150438 Z M63.5724087,85.2543791 L34.8719978,85.2543791 C33.7289926,85.2543791 32.7994309,84.3204832 32.7994309,83.1740561 L32.7994309,54.3877228 C32.7994309,53.2412957 33.7289926,52.3073998 34.8719978,52.3073998 L63.5724087,52.3073998 C64.7169606,52.3073998 65.6465223,53.2412957 65.6465223,54.3877228 L65.6465223,83.1740561 C65.6465223,84.3204832 64.7169606,85.2543791 63.5724087,85.2543791 L63.5724087,85.2543791 Z" id="Fill-9" fill="#5B5B5D"></path>
                <polygon id="Fill-11" fill="#5A5A5C" points="49.6548943 58.2853884 37.2720806 58.2853884 37.2720806 72.2472875 41.9121557 72.2472875 41.9121557 76.9012538 45.005539 76.9012538 45.005539 80.0038981 49.6548943 80.0038981 54.2856892 80.0038981 54.2856892 76.9012538 57.3790725 76.9012538 57.3790725 72.2472875 62.0191476 72.2472875 62.0191476 58.2853884"></polygon>
                <polygon id="Fill-13" fill="#3F4243" points="37.2720806 59.8367105 62.0191476 59.8367105 62.0191476 58.2853884 37.2720806 58.2853884"></polygon>
                <polygon id="Fill-15" fill="#3F4243" points="37.2720806 71.7926876 41.9121557 71.7926876 41.9121557 70.2413655 37.2720806 70.2413655"></polygon>
                <polygon id="Fill-16" fill="#3F4243" points="56.6535625 71.7926876 61.2936376 71.7926876 61.2936376 70.2413655 56.6535625 70.2413655"></polygon>
                <polygon id="Fill-17" fill="#3F4243" points="41.7447303 76.276179 44.8381137 76.276179 44.8381137 74.7248569 41.7447303 74.7248569"></polygon>
                <polygon id="Fill-19" fill="#3F4243" points="53.6717961 76.276179 56.7651794 76.276179 56.7651794 74.7248569 53.6717961 74.7248569"></polygon>
                <polygon id="Fill-20" fill="#BDBEC2" points="46.2173799 65.8030954 48.2868534 65.8030954 48.2868534 58.2853884 46.2173799 58.2853884"></polygon>
                <polygon id="Fill-21" fill="#BDBEC2" points="43.2356135 65.8030954 45.305087 65.8030954 45.305087 58.2853884 43.2356135 58.2853884"></polygon>
                <polygon id="Fill-22" fill="#BDBEC2" points="50.6900296 65.8030954 52.7595031 65.8030954 52.7595031 58.2853884 50.6900296 58.2853884"></polygon>
                <polygon id="Fill-23" fill="#BDBEC2" points="53.6717961 65.8030954 55.7412695 65.8030954 55.7412695 58.2853884 53.6717961 58.2853884"></polygon>
            </g>
            <path d="M444.936038,190.00992 C444.936038,194.64852 441.175838,198.40872 436.537238,198.40872 C431.899538,198.40872 428.139338,194.64852 428.139338,190.00992 C428.139338,185.37132 431.899538,181.61112 436.537238,181.61112 C441.175838,181.61112 444.936038,185.37132 444.936038,190.00992" id="Fill-58" fill="#232323" transform="translate(436.537688, 190.009920) scale(-1, 1) translate(-436.537688, -190.009920) "></path>
            <path d="M411.805238,190.00992 C411.805238,194.64852 408.045038,198.40872 403.406438,198.40872 C398.768738,198.40872 395.008538,194.64852 395.008538,190.00992 C395.008538,185.37132 398.768738,181.61112 403.406438,181.61112 C408.045038,181.61112 411.805238,185.37132 411.805238,190.00992" id="Fill-59" fill="#232323" transform="translate(403.406888, 190.009920) scale(-1, 1) translate(-403.406888, -190.009920) "></path>
            <path d="M378.674348,190.00992 C378.674348,194.64852 374.914148,198.40872 370.275548,198.40872 C365.637848,198.40872 361.877648,194.64852 361.877648,190.00992 C361.877648,185.37132 365.637848,181.61112 370.275548,181.61112 C374.914148,181.61112 378.674348,185.37132 378.674348,190.00992" id="Fill-60" fill="#232323" transform="translate(370.275998, 190.009920) scale(-1, 1) translate(-370.275998, -190.009920) "></path>
            <path d="M512.523518,224.805 L471.272018,224.805 C466.896218,224.805 463.315118,221.2239 463.315118,216.8481 L463.315118,43.3569 C463.315118,38.9811 466.896218,35.4 471.272018,35.4 L512.523518,35.4 C516.900218,35.4 520.480418,38.9811 520.480418,43.3569 L520.480418,216.8481 C520.480418,221.2239 516.900218,224.805 512.523518,224.805" id="Fill-61" fill="#232323" transform="translate(491.897768, 130.102500) scale(-1, 1) translate(-491.897768, -130.102500) "></path>
            <path d="M171.0847,251.3001 C181.1647,252.0921 190.7713,252.8472 201.3616,253.6788 C198.8704,250.9122 196.9435,248.772 194.5675,246.1332 C208.1782,243.093 219.7261,246.243 230.2831,254.9289 C225.1963,241.1463 209.7919,233.6709 188.2711,234.3567 C187.4656,231.4848 186.6349,228.522 185.5936,224.805 C182.8999,229.6893 180.5203,233.9805 178.1641,238.2834 C175.8511,242.5071 173.5624,246.7425 171.0847,251.3001 Z" id="XMLID_92_" fill="#00C0D2" fill-rule="nonzero" transform="translate(200.683900, 239.866950) scale(1, -1) translate(-200.683900, -239.866950) "></path>
        </g>
    </g>
</svg>