<svg width="600" height="364" viewBox="0 0 600 364" fill="none" xmlns="http://www.w3.org/2000/svg">
<rect width="600" height="364" fill="#F3F3F3"/>
<path d="M390.193 202.712C371.784 214.871 367.321 223.974 369.767 240.957C372.212 257.94 391.461 269.169 373.752 296.068C366.039 307.526 350.372 310.23 332.595 304.355C314.817 298.48 303.43 281.335 316.051 260.686C328.672 240.036 310.833 199.337 279.704 200.763" stroke="#8B8C8D" stroke-width="8"/>
<path d="M391.862 206.755C395.519 203.755 398.936 201.184 400.93 199.756C402.748 198.454 403.169 195.924 401.867 194.106C400.565 192.279 398.036 191.867 396.217 193.168C395.854 193.427 391.703 196.41 386.751 200.468L391.862 206.755Z" fill="#3E3F41"/>
<path d="M398.963 211.908L383.963 193.456C383.16 192.469 383.312 191.004 384.3 190.201L410.631 168.796C411.618 167.993 413.083 168.144 413.886 169.132L428.886 187.584C429.689 188.571 429.538 190.036 428.55 190.838L402.218 212.244C401.231 213.047 399.766 212.896 398.963 211.908Z" fill="#F2F3F5"/>
<path d="M413.482 168.685C412.781 168.094 411.469 168.002 410.575 168.728L384.244 190.134C383.35 190.861 383.172 192.164 383.607 192.971L413.482 168.685Z" fill="#CFCFCF"/>
<path d="M399.502 212.524C400.204 213.115 401.515 213.207 402.41 212.481L428.741 191.075C429.635 190.348 429.813 189.045 429.378 188.238L399.502 212.524Z" fill="#CFCFCF"/>
<path d="M426.313 184.931L427.087 184.302C427.813 183.712 428.205 182.978 427.614 182.251L418.817 171.429C418.227 170.702 417.027 170.443 416.3 171.033L415.527 171.662L426.313 184.931Z" fill="#CFCFCF"/>
<rect width="17.3538" height="17.3538" transform="matrix(0.630788 0.775955 0.775955 -0.630788 399.27 185.177)" fill="#E3E4E7"/>
<rect width="2.45802" height="11.8104" transform="matrix(0.630788 0.775955 0.775955 -0.630788 404.765 183.149)" fill="#8D8F90"/>
<rect width="1.9765" height="11.328" transform="matrix(0.630788 0.775955 0.775955 -0.630788 405.069 183.523)" fill="#BDBEC2"/>
<rect width="2.45802" height="11.8104" transform="matrix(0.630788 0.775955 0.775955 -0.630788 407.101 186.022)" fill="#8D8F90"/>
<rect width="1.9765" height="11.328" transform="matrix(0.630788 0.775955 0.775955 -0.630788 407.405 186.397)" fill="#BDBEC2"/>
<rect width="2.45802" height="11.8104" transform="matrix(0.630788 0.775955 0.775955 -0.630788 409.438 188.896)" fill="#8D8F90"/>
<rect width="1.9765" height="11.328" transform="matrix(0.630788 0.775955 0.775955 -0.630788 409.741 189.271)" fill="#BDBEC2"/>
<rect width="2.45802" height="11.8104" transform="matrix(0.630788 0.775955 0.775955 -0.630788 411.773 191.77)" fill="#8D8F90"/>
<rect width="1.9765" height="11.328" transform="matrix(0.630788 0.775955 0.775955 -0.630788 412.077 192.144)" fill="#BDBEC2"/>
<path d="M400.582 205.189L390.858 193.226C390.526 192.818 390.589 192.213 390.996 191.881L395.971 187.836C396.379 187.504 396.984 187.567 397.316 187.975L407.041 199.938C407.372 200.346 407.31 200.951 406.902 201.283L401.927 205.327C401.519 205.659 400.914 205.596 400.582 205.189Z" fill="#5A5A5C"/>
<path d="M404.471 202.687L401.628 204.997C401.628 204.997 401.383 205.626 400.85 204.971C400.318 204.316 391.116 192.996 391.116 192.996C391.116 192.996 400.961 204.38 404.471 202.687Z" fill="#3E3F41"/>
<path fill-rule="evenodd" clip-rule="evenodd" d="M279.928 306.53H64.5638C60.4768 306.53 57.1318 303.186 57.1318 299.099V297.812C57.1318 293.725 60.4768 290.381 64.5638 290.381H279.928C284.015 290.381 287.359 293.725 287.359 297.812V299.099C287.359 303.186 284.015 306.53 279.928 306.53" fill="#D5DAE2"/>
<path fill-rule="evenodd" clip-rule="evenodd" d="M275.735 296.067H70.2237C65.7537 296.067 62.0957 292.41 62.0957 287.94V86.6543C62.0957 82.1843 65.7537 78.5273 70.2237 78.5273H275.735C280.205 78.5273 283.862 82.1843 283.862 86.6543V287.94C283.862 292.41 280.205 296.067 275.735 296.067" fill="#444444"/>
<path fill-rule="evenodd" clip-rule="evenodd" d="M135.45 277.661H89.6154C84.7534 277.661 80.7744 273.682 80.7744 268.82V76.0519C80.7744 71.1899 84.7534 67.2109 89.6154 67.2109H135.45C140.313 67.2109 144.291 71.1899 144.291 76.0519V268.82C144.291 273.682 140.313 277.661 135.45 277.661" fill="#232323"/>
<path fill-rule="evenodd" clip-rule="evenodd" d="M160.483 150.026H261.229V98.707H160.483V150.026Z" fill="#6F7B84"/>
<path fill-rule="evenodd" clip-rule="evenodd" d="M198.723 98.899L248.864 150.292H261.567V98.707L198.723 98.899Z" fill="#626E78"/>
<path fill-rule="evenodd" clip-rule="evenodd" d="M183.376 177.669C183.376 182.823 179.198 187.001 174.044 187.001C168.891 187.001 164.713 182.823 164.713 177.669C164.713 172.515 168.891 168.337 174.044 168.337C179.198 168.337 183.376 172.515 183.376 177.669" fill="#232323"/>
<path fill-rule="evenodd" clip-rule="evenodd" d="M220.188 177.669C220.188 182.823 216.01 187.001 210.856 187.001C205.703 187.001 201.525 182.823 201.525 177.669C201.525 172.515 205.703 168.337 210.856 168.337C216.01 168.337 220.188 172.515 220.188 177.669" fill="#232323"/>
<path fill-rule="evenodd" clip-rule="evenodd" d="M257 177.669C257 182.823 252.822 187.001 247.668 187.001C242.515 187.001 238.337 182.823 238.337 177.669C238.337 172.515 242.515 168.337 247.668 168.337C252.822 168.337 257 172.515 257 177.669" fill="#232323"/>
<path fill-rule="evenodd" clip-rule="evenodd" d="M183.376 208.334C183.376 213.488 179.198 217.666 174.044 217.666C168.891 217.666 164.713 213.488 164.713 208.334C164.713 203.18 168.891 199.002 174.044 199.002C179.198 199.002 183.376 203.18 183.376 208.334" fill="#232323"/>
<path fill-rule="evenodd" clip-rule="evenodd" d="M220.188 208.334C220.188 213.488 216.01 217.666 210.856 217.666C205.703 217.666 201.525 213.488 201.525 208.334C201.525 203.18 205.703 199.002 210.856 199.002C216.01 199.002 220.188 203.18 220.188 208.334" fill="#232323"/>
<path fill-rule="evenodd" clip-rule="evenodd" d="M257 208.334C257 213.488 252.822 217.666 247.668 217.666C242.515 217.666 238.337 213.488 238.337 208.334C238.337 203.18 242.515 199.002 247.668 199.002C252.822 199.002 257 203.18 257 208.334" fill="#232323"/>
<path fill-rule="evenodd" clip-rule="evenodd" d="M183.376 239C183.376 244.154 179.198 248.332 174.044 248.332C168.891 248.332 164.713 244.154 164.713 239C164.713 233.846 168.891 229.668 174.044 229.668C179.198 229.668 183.376 233.846 183.376 239" fill="#232323"/>
<path fill-rule="evenodd" clip-rule="evenodd" d="M220.188 239C220.188 244.154 216.01 248.332 210.856 248.332C205.703 248.332 201.525 244.154 201.525 239C201.525 233.846 205.703 229.668 210.856 229.668C216.01 229.668 220.188 233.846 220.188 239" fill="#232323"/>
<path fill-rule="evenodd" clip-rule="evenodd" d="M257 239C257 244.154 252.822 248.332 247.668 248.332C242.515 248.332 238.337 244.154 238.337 239C238.337 233.846 242.515 229.668 247.668 229.668C252.822 229.668 257 233.846 257 239" fill="#232323"/>
<path fill-rule="evenodd" clip-rule="evenodd" d="M135.45 277.661H89.6154C84.7534 277.661 80.7744 273.682 80.7744 268.82V76.0519C80.7744 71.1899 84.7534 67.2109 89.6154 67.2109H135.45C140.313 67.2109 144.291 71.1899 144.291 76.0519V268.82C144.291 273.682 140.313 277.661 135.45 277.661" fill="#232323"/>
<path fill-rule="evenodd" clip-rule="evenodd" d="M113.627 273.282C111.634 270.605 107.078 273.217 109.097 275.93C110.086 277.257 110.827 278.765 111.408 280.312C111.661 280.985 112.129 281.969 112.142 282.677C112.155 283.385 111.77 284.079 111.237 284.57C110.341 282.946 108.914 281.538 106.916 280.6C105.156 279.774 102.98 280.744 102.969 282.865C102.952 286.1 104.751 288.539 107.151 289.683C107.026 290.487 106.62 291.294 105.872 292.03C104.272 293.603 102.906 293.526 101.424 292.993C101.628 291.502 101.412 289.964 100.664 288.615C99.2621 286.088 95.7241 284.344 93.2101 286.454C90.6191 288.629 92.3551 292.318 94.2571 294.623C93.7581 295.149 93.1261 295.592 92.0421 295.953C90.2311 296.557 88.2271 296.731 86.3381 296.429C85.1651 296.242 84.2781 295.738 83.3671 295.225C83.4831 294.916 83.5931 294.605 83.6711 294.28C84.3771 291.33 83.0151 287.7 79.7801 287.173C76.9201 286.706 74.9151 289.08 74.8751 291.811C74.8551 293.174 75.3031 294.479 76.0191 295.658C75.4021 295.998 74.8081 296.309 74.0001 296.46C72.4211 296.755 71.2881 296.483 70.3471 295.914C71.1841 295.412 71.8801 294.661 72.3611 293.601C74.9351 287.931 66.1101 285.23 63.4831 290.285C62.7741 290.071 62.0421 289.871 61.4351 289.497C60.9921 289.283 60.6541 288.997 60.3131 288.639C59.7131 288.275 59.3061 287.816 59.1941 287.263C60.7811 287.047 62.3981 286.282 63.9311 284.8C64.8861 283.878 65.0061 281.994 63.9311 281.091C61.0691 278.687 57.9031 279.137 55.8251 280.991C55.0201 280.265 54.3991 279.25 54.1151 278.261C53.8301 277.27 53.7361 276.168 53.7661 275.142C53.7821 275.021 53.7961 274.901 53.8111 274.78C54.6391 274.864 55.5401 274.766 56.5061 274.45C58.9561 273.648 62.1991 271.495 60.8301 268.525C59.5681 265.787 55.7761 265.483 53.2431 266.567C53.2371 266.54 53.2271 266.513 53.2211 266.486C52.9241 264.823 52.8101 263.667 53.7611 262.272C55.2751 260.051 58.1991 259.472 60.7211 259.338C61.1941 259.313 61.7731 259.179 61.7731 258.982V254.316C61.7731 254.157 61.1951 254.067 60.7211 254.092C56.6431 254.308 52.0941 255.502 49.4281 258.863C46.8131 262.16 47.4811 266.64 48.8231 270.348C48.9291 270.64 49.0701 270.917 49.1971 271.186C48.6001 272.859 48.4121 274.712 48.4941 276.422C48.6701 280.148 50.7191 283.746 53.5421 285.737C53.4741 286.861 53.6731 288.054 54.2091 289.243C55.3341 291.74 59.1971 294.671 63.1381 296.001C64.9211 301.086 72.3541 302.914 77.3311 300.969C78.2401 300.614 79.1141 300.125 79.9221 299.543C80.0421 299.619 80.1621 299.696 80.2821 299.767C85.7131 302.966 94.1791 302.506 98.8301 297.97C100.807 298.759 103 298.992 105.072 298.451C109.436 297.311 111.946 293.792 112.332 290.082C113.49 289.731 114.615 289.089 115.61 288.078C119.539 284.08 116.471 277.102 113.627 273.282" fill="#232323"/>
<path fill-rule="evenodd" clip-rule="evenodd" d="M551.002 306.351H448.397C444.132 306.351 440.642 302.861 440.642 298.596C440.642 294.331 444.132 290.841 448.397 290.841H551.002C555.267 290.841 558.757 294.331 558.757 298.596C558.757 302.861 555.267 306.351 551.002 306.351Z" fill="#D5DAE2"/>
<path fill-rule="evenodd" clip-rule="evenodd" d="M544.817 297.967H454.33C452.049 297.967 450.183 296.102 450.183 293.822V203.333C450.183 201.053 452.049 199.188 454.33 199.188H544.817C547.097 199.188 548.963 201.053 548.963 203.333V293.822C548.963 296.102 547.097 297.967 544.817 297.967" fill="#444444"/>
<path fill-rule="evenodd" clip-rule="evenodd" d="M521.483 279.409H477.663C472.101 279.409 467.551 274.858 467.551 269.297V77.3229C467.551 71.7619 472.101 67.2109 477.663 67.2109H521.483C527.045 67.2109 531.595 71.7619 531.595 77.3229V269.297C531.595 274.858 527.045 279.409 521.483 279.409" fill="#232323"/>
<path fill-rule="evenodd" clip-rule="evenodd" d="M485.72 164.792C485.72 167.39 483.614 169.497 481.015 169.497C478.417 169.497 476.311 167.39 476.311 164.792C476.311 162.194 478.417 160.087 481.015 160.087C483.614 160.087 485.72 162.194 485.72 164.792" fill="#444444"/>
<path fill-rule="evenodd" clip-rule="evenodd" d="M504.279 164.792C504.279 167.39 502.173 169.497 499.574 169.497C496.976 169.497 494.87 167.39 494.87 164.792C494.87 162.194 496.976 160.087 499.574 160.087C502.173 160.087 504.279 162.194 504.279 164.792" fill="#444444"/>
<path fill-rule="evenodd" clip-rule="evenodd" d="M522.838 164.792C522.838 167.39 520.732 169.497 518.133 169.497C515.535 169.497 513.429 167.39 513.429 164.792C513.429 162.194 515.535 160.087 518.133 160.087C520.732 160.087 522.838 162.194 522.838 164.792" fill="#444444"/>
<path fill-rule="evenodd" clip-rule="evenodd" d="M485.719 179.933C485.719 182.531 483.613 184.638 481.014 184.638C478.416 184.638 476.31 182.531 476.31 179.933C476.31 177.335 478.416 175.228 481.014 175.228C483.613 175.228 485.719 177.335 485.719 179.933" fill="#444444"/>
<path fill-rule="evenodd" clip-rule="evenodd" d="M504.278 179.933C504.278 182.531 502.172 184.638 499.573 184.638C496.975 184.638 494.869 182.531 494.869 179.933C494.869 177.335 496.975 175.228 499.573 175.228C502.172 175.228 504.278 177.335 504.278 179.933" fill="#444444"/>
<path fill-rule="evenodd" clip-rule="evenodd" d="M522.837 179.933C522.837 182.531 520.731 184.638 518.132 184.638C515.534 184.638 513.428 182.531 513.428 179.933C513.428 177.335 515.534 175.228 518.132 175.228C520.731 175.228 522.837 177.335 522.837 179.933" fill="#444444"/>
<path fill-rule="evenodd" clip-rule="evenodd" d="M485.719 195.072C485.719 197.67 483.613 199.777 481.014 199.777C478.416 199.777 476.31 197.67 476.31 195.072C476.31 192.474 478.416 190.367 481.014 190.367C483.613 190.367 485.719 192.474 485.719 195.072" fill="#444444"/>
<path fill-rule="evenodd" clip-rule="evenodd" d="M504.278 195.072C504.278 197.67 502.172 199.777 499.573 199.777C496.975 199.777 494.869 197.67 494.869 195.072C494.869 192.474 496.975 190.367 499.573 190.367C502.172 190.367 504.278 192.474 504.278 195.072" fill="#444444"/>
<path fill-rule="evenodd" clip-rule="evenodd" d="M522.837 195.072C522.837 197.67 520.731 199.777 518.132 199.777C515.534 199.777 513.428 197.67 513.428 195.072C513.428 192.474 515.534 190.367 518.132 190.367C520.731 190.367 522.837 192.474 522.837 195.072" fill="#444444"/>
<path fill-rule="evenodd" clip-rule="evenodd" d="M485.719 210.213C485.719 212.811 483.613 214.918 481.014 214.918C478.416 214.918 476.31 212.811 476.31 210.213C476.31 207.615 478.416 205.508 481.014 205.508C483.613 205.508 485.719 207.615 485.719 210.213" fill="#444444"/>
<path fill-rule="evenodd" clip-rule="evenodd" d="M504.278 210.213C504.278 212.811 502.172 214.918 499.573 214.918C496.975 214.918 494.869 212.811 494.869 210.213C494.869 207.615 496.975 205.508 499.573 205.508C502.172 205.508 504.278 207.615 504.278 210.213" fill="#444444"/>
<path fill-rule="evenodd" clip-rule="evenodd" d="M522.837 210.213C522.837 212.811 520.731 214.918 518.132 214.918C515.534 214.918 513.428 212.811 513.428 210.213C513.428 207.615 515.534 205.508 518.132 205.508C520.731 205.508 522.837 207.615 522.837 210.213" fill="#444444"/>
<path fill-rule="evenodd" clip-rule="evenodd" d="M476.31 125.147H522.837V94.9678H476.31V125.147Z" fill="#6F7B84"/>
<path fill-rule="evenodd" clip-rule="evenodd" d="M505.754 149.981H493.392C490.848 149.981 488.767 147.9 488.767 145.356V138.106C488.767 135.562 490.848 133.481 493.392 133.481H505.754C508.298 133.481 510.379 135.562 510.379 138.106V145.356C510.379 147.9 508.298 149.981 505.754 149.981" fill="#444444"/>
<path fill-rule="evenodd" clip-rule="evenodd" d="M482.449 149.981H478.184C476.386 149.981 474.914 148.51 474.914 146.711V136.751C474.914 134.952 476.386 133.481 478.184 133.481H482.449C484.247 133.481 485.719 134.952 485.719 136.751V146.711C485.719 148.51 484.247 149.981 482.449 149.981" fill="#444444"/>
<path fill-rule="evenodd" clip-rule="evenodd" d="M520.264 149.981H515.999C514.201 149.981 512.729 148.51 512.729 146.711V136.751C512.729 134.952 514.201 133.481 515.999 133.481H520.264C522.062 133.481 523.534 134.952 523.534 136.751V146.711C523.534 148.51 522.062 149.981 520.264 149.981" fill="#444444"/>
<path fill-rule="evenodd" clip-rule="evenodd" d="M491.199 84.2314H492.949V78.7314H491.199V84.2314Z" fill="#303030"/>
<path fill-rule="evenodd" clip-rule="evenodd" d="M494.949 84.2314H496.699V78.7314H494.949V84.2314Z" fill="#303030"/>
<path fill-rule="evenodd" clip-rule="evenodd" d="M498.699 84.2314H500.449V78.7314H498.699V84.2314Z" fill="#303030"/>
<path fill-rule="evenodd" clip-rule="evenodd" d="M502.449 84.2314H504.199V78.7314H502.449V84.2314Z" fill="#303030"/>
<path fill-rule="evenodd" clip-rule="evenodd" d="M506.199 84.2314H507.949V78.7314H506.199V84.2314Z" fill="#303030"/>
<path fill-rule="evenodd" clip-rule="evenodd" d="M491.199 268.981H492.949V257.981H491.199V268.981Z" fill="#303030"/>
<path fill-rule="evenodd" clip-rule="evenodd" d="M494.949 268.981H496.699V257.981H494.949V268.981Z" fill="#303030"/>
<path fill-rule="evenodd" clip-rule="evenodd" d="M498.699 268.981H500.449V257.981H498.699V268.981Z" fill="#303030"/>
<path fill-rule="evenodd" clip-rule="evenodd" d="M502.449 268.981H504.199V257.981H502.449V268.981Z" fill="#303030"/>
<path fill-rule="evenodd" clip-rule="evenodd" d="M506.199 268.981H507.949V257.981H506.199V268.981Z" fill="#303030"/>
<path fill-rule="evenodd" clip-rule="evenodd" d="M329.652 72.6629C342.846 88.0983 355.42 102.808 369.281 119.025C369.67 111.559 369.971 105.784 370.343 98.6611C393.991 113.666 405.923 134.533 408.587 161.859C420.928 135.06 409.659 102.573 378.118 72.9945C381.051 67.7718 384.077 62.3837 387.873 55.6265C377.113 58.7399 367.641 61.4559 358.185 64.2235C348.906 66.9388 339.642 69.7057 329.652 72.6629" fill="#00C0D2"/>
</svg>
