<svg width="600" height="364" viewBox="0 0 600 364" fill="none" xmlns="http://www.w3.org/2000/svg">
<rect width="600" height="364" fill="#F3F3F3"/>
<path d="M423.9 112.163C423.9 112.163 414.663 139.913 458.334 159.788C502.006 179.663 536.67 223.804 498.623 255.397C460.577 286.991 391.741 255.397 391.741 255.397" stroke="#979797" stroke-width="11" stroke-linecap="round"/>
<path d="M159.922 308.633C171.064 305.877 180.976 300.009 189.829 290.983C199.489 281.133 208.469 260.237 217.977 238.114C227.338 216.331 238.988 189.222 247.309 186.319C250.302 185.275 251.881 182.002 250.838 179.011C249.793 176.017 246.527 174.425 243.529 175.481C231.318 179.74 221.745 200.273 207.432 233.582C198.76 253.762 189.792 274.629 181.635 282.946C167.16 297.704 149.825 302.123 127.08 296.856C121.706 295.611 115.242 291.863 109.021 286.828C105.911 284.31 102.863 281.471 100.043 278.463C65.965 248.924 106.569 216.548 127.621 196.23C129.819 193.85 132.289 191.136 134.882 188.189C147.848 173.453 163.834 152.897 164.79 140.163C165.975 124.405 156.378 93.5978 155.969 92.2944C155.02 89.2705 151.806 87.5806 148.774 88.5371C145.75 89.4847 144.068 92.7063 145.016 95.7302C147.62 104.033 154.191 128.043 153.345 139.303C152.821 146.274 143.062 160.716 130.571 175.591C127.449 179.31 124.157 183.056 120.817 186.729C96.9971 209.72 54.224 243.946 84.5789 277.959C86.7483 280.901 89.1664 283.761 91.7414 286.472C102.039 297.317 114.809 305.795 124.491 308.038C137.514 311.055 149.279 311.265 159.922 308.633Z" fill="#8B8C8D"/>
<path d="M149.31 111.384C147.73 104.87 146.056 99.0464 145.017 95.7292C144.069 92.7053 145.752 89.4838 148.776 88.5362C151.807 87.5797 155.02 89.2695 155.97 92.2934C156.159 92.8966 158.313 99.8117 160.457 108.627L149.31 111.384Z" fill="#3E3F41"/>
<path d="M136.879 111.159L169.591 103.068C171.342 102.636 172.42 100.849 171.986 99.0977L160.441 52.4169C160.009 50.6658 158.222 49.5881 156.471 50.0217L123.759 58.1114C122.008 58.5437 120.931 60.3305 121.364 62.0816L132.909 108.762C133.341 110.513 135.128 111.591 136.879 111.159Z" fill="#F2F3F5"/>
<path d="M157.309 49.8589C158.606 49.7887 160.17 50.8027 160.562 52.3879L172.107 99.0687C172.499 100.654 171.588 102.28 170.408 102.822L157.309 49.8589Z" fill="#CFCFCF"/>
<path d="M135.743 111.397C134.446 111.467 132.882 110.453 132.489 108.868L120.945 62.187C120.553 60.6017 121.464 58.9756 122.643 58.4336L135.743 111.397Z" fill="#CFCFCF"/>
<path d="M128.933 57.3034L128.594 55.9324C128.275 54.6442 128.458 53.4798 129.746 53.161L148.931 48.4154C150.219 48.0965 151.798 48.826 152.117 50.1142L152.456 51.4852L128.933 57.3034Z" fill="#CFCFCF"/>
<path d="M159.329 80.6445L135.456 86.5487L129.552 62.6764L153.425 56.7723L159.329 80.6445Z" fill="#E3E4E7"/>
<path d="M154.84 73.6641L151.458 74.5003L147.44 58.2537L150.822 57.4174L154.84 73.6641Z" fill="#8D8F90"/>
<path d="M154.177 73.8271L151.458 74.4996L147.604 58.9166L150.323 58.2441L154.177 73.8271Z" fill="#BDBEC2"/>
<path d="M149.746 74.9238L146.365 75.7601L142.346 59.5135L145.728 58.6772L149.746 74.9238Z" fill="#8D8F90"/>
<path d="M149.082 75.0879L146.363 75.7603L142.509 60.1773L145.228 59.5049L149.082 75.0879Z" fill="#BDBEC2"/>
<path d="M144.651 76.1836L141.269 77.0199L137.251 60.7732L140.632 59.937L144.651 76.1836Z" fill="#8D8F90"/>
<path d="M143.988 76.3467L141.269 77.0191L137.415 61.4361L140.134 60.7637L143.988 76.3467Z" fill="#BDBEC2"/>
<path d="M139.557 77.4434L136.175 78.2796L132.157 62.033L135.538 61.1967L139.557 77.4434Z" fill="#8D8F90"/>
<path d="M138.893 77.6064L136.175 78.2789L132.321 62.6959L135.039 62.0234L138.893 77.6064Z" fill="#BDBEC2"/>
<path d="M140.778 102.173L161.986 96.9271C162.709 96.7486 163.154 96.0101 162.975 95.287L160.795 86.4666C160.616 85.7435 159.878 85.2984 159.154 85.4769L137.946 90.7225C137.223 90.901 136.778 91.6395 136.957 92.3626L139.138 101.183C139.316 101.906 140.055 102.351 140.778 102.173Z" fill="#5A5A5C"/>
<path d="M138.51 96.0264L139.756 101.065C139.756 101.065 139.499 101.986 140.659 101.699C141.82 101.412 161.889 96.4485 161.889 96.4485C161.889 96.4485 141.038 100.937 138.51 96.0264Z" fill="#3E3F41"/>
<path fill-rule="evenodd" clip-rule="evenodd" d="M239.616 101.378C259.86 102.963 279.152 104.473 300.421 106.139C295.417 100.585 291.546 96.2881 286.772 90.9891C314.104 84.8771 337.296 91.1951 358.503 108.634C348.279 80.9581 317.339 65.9541 274.121 67.3421C272.502 61.5751 270.832 55.6251 268.738 48.1631C263.331 57.9731 258.554 66.5911 253.824 75.2351C249.183 83.7161 244.589 92.2231 239.616 101.378" fill="#00C0D2"/>
<path fill-rule="evenodd" clip-rule="evenodd" d="M370.059 138.464C349.815 136.879 330.523 135.369 309.254 133.703C314.258 139.257 318.129 143.554 322.903 148.853C295.571 154.965 272.379 148.647 251.172 131.208C261.396 158.884 292.336 173.888 335.554 172.5C337.173 178.267 338.843 184.217 340.937 191.679C346.344 181.869 351.121 173.251 355.851 164.607C360.492 156.126 365.086 147.619 370.059 138.464" fill="#00C0D2"/>
<path d="M418.539 110.208C420.651 103.846 422.317 98.0204 423.194 94.6564C423.993 91.5899 427.126 89.7493 430.193 90.5481C433.271 91.3434 435.1 94.4789 434.303 97.5468C434.143 98.1584 432.306 105.164 429.453 113.776L418.539 110.208Z" fill="#3E3F41"/>
<path d="M408.115 103.429L440.144 113.903C441.858 114.464 443.719 113.52 444.279 111.805L459.226 66.0996C459.787 64.3855 458.843 62.5247 457.128 61.9645L425.1 51.4903C423.386 50.9291 421.525 51.8733 420.965 53.588L406.018 99.2933C405.457 101.007 406.401 102.868 408.115 103.429Z" fill="#F2F3F5"/>
<path d="M457.925 62.2705C459.062 62.8983 459.851 64.5867 459.344 66.1393L444.397 111.845C443.889 113.396 442.255 114.293 440.968 114.127L457.925 62.2705Z" fill="#CFCFCF"/>
<path d="M407.026 103.029C405.889 102.401 405.1 100.712 405.607 99.1598L420.554 53.4546C421.062 51.9027 422.696 51.0062 423.983 51.1717L407.026 103.029Z" fill="#CFCFCF"/>
<path d="M429.917 53.5473L430.355 52.2048C430.768 50.9435 431.539 50.0526 432.801 50.4648L451.585 56.607C452.847 57.0192 453.799 58.4745 453.387 59.7359L452.948 61.0783L429.917 53.5473Z" fill="#CFCFCF"/>
<path d="M443.324 89.4482L419.951 81.8049L427.594 58.4314L450.968 66.0747L443.324 89.4482Z" fill="#E3E4E7"/>
<path d="M443.217 81.1494L439.906 80.0668L445.108 64.1596L448.419 65.2422L443.217 81.1494Z" fill="#8D8F90"/>
<path d="M442.568 80.9375L439.906 80.067L444.895 64.8095L447.557 65.68L442.568 80.9375Z" fill="#BDBEC2"/>
<path d="M438.23 79.5186L434.919 78.4359L440.121 62.5287L443.431 63.6113L438.23 79.5186Z" fill="#8D8F90"/>
<path d="M437.579 79.3057L434.917 78.4351L439.906 63.1777L442.569 64.0482L437.579 79.3057Z" fill="#BDBEC2"/>
<path d="M433.241 77.8867L429.93 76.8041L435.132 60.8969L438.443 61.9795L433.241 77.8867Z" fill="#8D8F90"/>
<path d="M432.592 77.6738L429.93 76.8033L434.919 61.5458L437.581 62.4164L432.592 77.6738Z" fill="#BDBEC2"/>
<path d="M428.253 76.2559L424.943 75.1732L430.144 59.266L433.455 60.3486L428.253 76.2559Z" fill="#8D8F90"/>
<path d="M427.604 76.043L424.942 75.1724L429.931 59.915L432.593 60.7855L427.604 76.043Z" fill="#BDBEC2"/>
<path d="M416.184 97.8756L436.949 104.666C437.657 104.897 438.425 104.507 438.657 103.799L441.482 95.1634C441.714 94.4556 441.323 93.6868 440.615 93.455L419.85 86.665C419.142 86.4332 418.374 86.8235 418.142 87.5314L415.317 96.1672C415.085 96.8751 415.476 97.6439 416.184 97.8756Z" fill="#5A5A5C"/>
<path d="M417.518 91.4609L415.905 96.3945C415.905 96.3945 415.198 97.0389 416.334 97.4105C417.471 97.7822 437.121 104.208 437.121 104.208C437.121 104.208 417.06 96.9645 417.518 91.4609Z" fill="#3E3F41"/>
</svg>
