<svg width="600" height="363" viewBox="0 0 600 363" fill="none" xmlns="http://www.w3.org/2000/svg">
<rect width="600" height="363" fill="#F3F3F3"/>
<path d="M455.18 247.019C455.401 235.543 452.299 224.45 445.872 213.562C438.858 201.683 420.997 187.6 402.09 172.691C383.471 158.011 360.301 139.741 359.651 130.953C359.417 127.791 356.664 125.419 353.506 125.653C350.343 125.887 347.96 128.629 348.204 131.799C349.157 144.695 366.513 159.257 394.982 181.703C412.23 195.303 430.066 209.365 435.988 219.397C446.497 237.199 446.279 255.087 435.304 275.693C432.711 280.563 427.417 285.836 420.944 290.542C417.707 292.895 414.176 295.104 410.54 297.049C373.188 322.321 352.424 274.721 338.247 249.127C336.517 246.389 334.535 243.3 332.359 240.033C321.481 223.694 305.763 202.933 293.71 198.713C278.796 193.491 246.555 194.787 245.19 194.845C242.023 194.979 239.559 197.646 239.698 200.822C239.831 203.988 242.507 206.447 245.674 206.314C254.367 205.947 279.26 205.815 289.917 209.546C296.515 211.856 307.94 225.021 319.074 240.936C321.859 244.914 324.625 249.063 327.308 253.24C343.351 282.199 365.341 332.373 406.051 311.856C409.454 310.522 412.842 308.926 416.128 307.141C429.268 300.001 440.763 289.86 445.435 281.088C451.719 269.29 454.968 257.98 455.18 247.019Z" fill="#8B8C8D"/>
<path d="M261.905 206.218C255.204 206.058 249.146 206.167 245.673 206.313C242.507 206.445 239.83 203.986 239.697 200.82C239.558 197.645 242.022 194.979 245.189 194.844C245.82 194.817 253.057 194.527 262.127 194.737L261.905 206.218Z" fill="#3E3F41"/>
<path d="M258.471 218.166L259.122 184.475C259.158 182.671 257.711 181.168 255.907 181.134L207.829 180.203C206.026 180.167 204.523 181.614 204.488 183.418L203.836 217.109C203.8 218.912 205.247 220.416 207.051 220.45L255.129 221.381C256.932 221.416 258.436 219.969 258.471 218.166Z" fill="#F2F3F5"/>
<path d="M204.547 182.567C204.815 181.296 206.199 180.048 207.832 180.079L255.91 181.01C257.543 181.042 258.878 182.342 259.096 183.622L204.547 182.567Z" fill="#CFCFCF"/>
<path d="M258.406 219.325C258.138 220.596 256.754 221.844 255.121 221.813L207.043 220.882C205.411 220.85 204.076 219.55 203.857 218.27L258.406 219.325Z" fill="#CFCFCF"/>
<path d="M204.394 211.903L202.982 211.876C201.655 211.85 200.578 211.373 200.603 210.046L200.985 190.286C201.01 188.959 202.123 187.623 203.45 187.649L204.862 187.676L204.394 211.903Z" fill="#CFCFCF"/>
<path d="M234.807 188.584L234.331 213.171L209.744 212.695L210.22 188.108L234.807 188.584Z" fill="#E3E4E7"/>
<path d="M226.901 191.113L226.834 194.596L210.101 194.272L210.168 190.79L226.901 191.113Z" fill="#8D8F90"/>
<path d="M226.888 191.796L226.834 194.596L210.784 194.286L210.839 191.485L226.888 191.796Z" fill="#BDBEC2"/>
<path d="M226.8 196.359L226.732 199.842L209.999 199.518L210.067 196.036L226.8 196.359Z" fill="#8D8F90"/>
<path d="M226.786 197.044L226.732 199.844L210.683 199.534L210.737 196.733L226.786 197.044Z" fill="#BDBEC2"/>
<path d="M226.698 201.607L226.631 205.09L209.898 204.766L209.965 201.284L226.698 201.607Z" fill="#8D8F90"/>
<path d="M226.685 202.29L226.631 205.09L210.581 204.78L210.635 201.98L226.685 202.29Z" fill="#BDBEC2"/>
<path d="M226.596 206.854L226.529 210.337L209.796 210.013L209.863 206.531L226.596 206.854Z" fill="#8D8F90"/>
<path d="M226.583 207.537L226.529 210.337L210.479 210.027L210.534 207.227L226.583 207.537Z" fill="#BDBEC2"/>
<path d="M250.8 212.075L251.222 190.232C251.237 189.487 250.639 188.866 249.894 188.852L240.81 188.675C240.065 188.661 239.444 189.259 239.43 190.003L239.007 211.846C238.993 212.591 239.591 213.212 240.335 213.227L249.42 213.403C250.164 213.418 250.786 212.82 250.8 212.075Z" fill="#5A5A5C"/>
<path d="M244.276 212.675L249.465 212.775C249.465 212.775 250.288 213.263 250.311 212.067C250.334 210.872 250.734 190.202 250.734 190.202C250.734 190.202 249.673 211.504 244.276 212.675Z" fill="#3E3F41"/>
<path d="M346.94 134.001C344.909 127.613 342.833 121.92 341.565 118.684C340.409 115.733 341.862 112.402 344.813 111.246C347.77 110.08 351.093 111.542 352.252 114.492C352.482 115.081 355.113 121.829 357.867 130.473L346.94 134.001Z" fill="#3E3F41"/>
<path d="M334.523 134.644L366.591 124.291C368.308 123.738 369.258 121.88 368.703 120.164L353.931 74.4018C353.377 72.6852 351.52 71.7348 349.803 72.2895L317.735 82.6413C316.019 83.1947 315.068 85.0523 315.623 86.7689L330.396 132.531C330.949 134.247 332.807 135.198 334.523 134.644Z" fill="#F2F3F5"/>
<path d="M350.628 72.0679C351.917 71.9074 353.547 72.8098 354.049 74.3638L368.822 120.126C369.323 121.68 368.528 123.365 367.389 123.988L350.628 72.0679Z" fill="#CFCFCF"/>
<path d="M333.406 134.96C332.117 135.12 330.487 134.218 329.984 132.664L315.212 86.9019C314.711 85.3478 315.505 83.6621 316.644 83.0391L333.406 134.96Z" fill="#CFCFCF"/>
<path d="M322.84 81.4739L322.406 80.1299C321.998 78.8672 322.099 77.6929 323.362 77.285L342.169 71.2126C343.432 70.8047 345.058 71.4223 345.466 72.685L345.9 74.029L322.84 81.4739Z" fill="#CFCFCF"/>
<path d="M354.79 102.638L331.387 110.193L323.832 86.7905L347.235 79.2355L354.79 102.638Z" fill="#E3E4E7"/>
<path d="M349.825 95.9863L346.51 97.0564L341.368 81.1297L344.683 80.0596L349.825 95.9863Z" fill="#8D8F90"/>
<path d="M349.175 96.1963L346.51 97.0568L341.578 81.7806L344.243 80.9201L349.175 96.1963Z" fill="#BDBEC2"/>
<path d="M344.831 97.5986L341.516 98.6687L336.375 82.742L339.69 81.6719L344.831 97.5986Z" fill="#8D8F90"/>
<path d="M344.18 97.8096L341.515 98.67L336.583 83.3938L339.248 82.5334L344.18 97.8096Z" fill="#BDBEC2"/>
<path d="M339.836 99.2109L336.522 100.281L331.38 84.3543L334.695 83.2842L339.836 99.2109Z" fill="#8D8F90"/>
<path d="M339.186 99.4209L336.521 100.281L331.589 85.0052L334.255 84.1447L339.186 99.4209Z" fill="#BDBEC2"/>
<path d="M334.842 100.823L331.528 101.893L326.386 85.9666L329.701 84.8965L334.842 100.823Z" fill="#8D8F90"/>
<path d="M334.193 101.033L331.527 101.894L326.595 86.6175L329.261 85.757L334.193 101.033Z" fill="#BDBEC2"/>
<path d="M337.786 125.408L358.576 118.695C359.285 118.467 359.678 117.699 359.449 116.99L356.658 108.343C356.43 107.635 355.662 107.242 354.953 107.471L334.163 114.183C333.454 114.411 333.061 115.179 333.29 115.888L336.081 124.535C336.309 125.244 337.077 125.636 337.786 125.408Z" fill="#5A5A5C"/>
<path d="M335.095 119.434L336.689 124.373C336.689 124.373 336.497 125.31 337.634 124.943C338.772 124.575 358.446 118.224 358.446 118.224C358.446 118.224 337.959 124.155 335.095 119.434Z" fill="#3E3F41"/>
<path fill-rule="evenodd" clip-rule="evenodd" d="M174.034 136.501C189.47 123.307 204.179 110.733 220.396 96.8717C212.931 96.4828 207.155 96.1815 200.033 95.8103C215.037 72.1618 235.904 60.2301 263.231 57.5657C236.432 45.2253 203.944 56.4937 174.366 88.035C169.143 85.1019 163.755 82.0755 156.998 78.2797C160.111 89.0398 162.827 98.5114 165.595 107.968C168.31 117.247 171.077 126.511 174.034 136.501" fill="#00C0D2"/>
<path fill-rule="evenodd" clip-rule="evenodd" d="M292.495 70.4865C277.06 83.6805 262.351 96.2542 246.133 110.116C253.599 110.505 259.374 110.806 266.497 111.177C251.492 134.825 230.626 146.757 203.299 149.422C230.098 161.762 262.585 150.494 292.164 118.952C297.386 121.885 302.775 124.912 309.532 128.708C306.418 117.948 303.702 108.476 300.935 99.019C298.219 89.7404 295.452 80.4766 292.495 70.4865" fill="#00C0D2"/>
</svg>
