<svg width="600" height="364" viewBox="0 0 600 364" fill="none" xmlns="http://www.w3.org/2000/svg">
<rect width="600" height="364" fill="#F3F3F3"/>
<path d="M151.703 208.274H45.0747C41.3627 208.274 38.3257 205.237 38.3257 201.525V46.5342C38.3257 42.8222 41.3627 39.7852 45.0747 39.7852H151.703C155.415 39.7852 158.452 42.8222 158.452 46.5342V201.524C158.452 205.237 155.415 208.274 151.703 208.274Z" fill="#E6E6E6"/>
<path d="M40.6636 40.6904C39.4176 41.4224 38.2676 42.7494 38.2676 45.1744C38.2676 50.4694 38.2676 203.188 38.2676 203.188C38.2676 203.188 38.4586 205.827 40.6636 207.182V40.6904Z" fill="#CFCFCF"/>
<path d="M192.201 167.434H174.201C170.927 167.434 168.248 164.755 168.248 161.481V161.481C168.248 158.207 170.927 155.528 174.201 155.528H192.201C195.475 155.528 198.154 158.207 198.154 161.481V161.481C198.154 164.755 195.475 167.434 192.201 167.434Z" fill="#CFCFCF"/>
<path d="M192.201 115.597H174.201C170.927 115.597 168.248 112.918 168.248 109.644V109.644C168.248 106.37 170.927 103.691 174.201 103.691H192.201C195.475 103.691 198.154 106.37 198.154 109.644V109.644C198.154 112.918 195.475 115.597 192.201 115.597Z" fill="#CFCFCF"/>
<rect x="205.241" y="86.1641" width="88.808" height="98.657" fill="#232323"/>
<rect x="191.066" y="86.1641" width="14.175" height="98.657" fill="#303030"/>
<path d="M267.901 152.596H235.089C234.204 152.596 233.48 151.872 233.48 150.987V118.175C233.48 117.29 234.204 116.566 235.089 116.566H267.901C268.786 116.566 269.51 117.29 269.51 118.175V150.987C269.51 151.872 268.786 152.596 267.901 152.596Z" fill="#F2F3F5"/>
<path d="M268.857 151.826L268.861 116.821L233.859 151.826" fill="#E5E9EC"/>
<path fill-rule="evenodd" clip-rule="evenodd" d="M235.207 153.222H267.784C269.081 153.222 270.137 152.167 270.137 150.869V118.292C270.137 116.995 269.082 115.939 267.784 115.939H235.207C233.91 115.939 232.854 116.994 232.854 118.292V150.869C232.854 152.166 233.909 153.222 235.207 153.222ZM234.106 118.292C234.106 117.686 234.599 117.192 235.206 117.192H267.783C268.39 117.192 268.883 117.685 268.883 118.292V150.869C268.883 151.475 268.39 151.969 267.783 151.969H235.206C234.599 151.969 234.106 151.476 234.106 150.869V118.292Z" fill="#5B5B5D"/>
<path d="M251.476 122.596H238.208V138.691H242.5V142.983H246.792V148.348H251.476H256.449V142.983H260.741V138.691H265.033V122.596H251.476Z" fill="#5A5A5C"/>
<rect x="238.208" y="122.596" width="26.825" height="1.073" fill="#3F4243"/>
<rect x="238.208" y="137.618" width="4.292" height="1.073" fill="#3F4243"/>
<rect x="260.741" y="137.618" width="4.292" height="1.073" fill="#3F4243"/>
<rect x="242.5" y="141.91" width="4.292" height="1.073" fill="#3F4243"/>
<rect x="246.792" y="147.274" width="9.657" height="1.073" fill="#3F4243"/>
<rect x="256.449" y="141.91" width="4.292" height="1.073" fill="#3F4243"/>
<rect x="248.447" y="122.401" width="2.35" height="8.507" fill="#BDBEC2"/>
<rect x="244.583" y="122.401" width="2.35" height="8.507" fill="#BDBEC2"/>
<rect x="252.312" y="122.401" width="2.35" height="8.507" fill="#BDBEC2"/>
<rect x="256.175" y="122.401" width="2.35" height="8.507" fill="#BDBEC2"/>
<rect x="63.7188" y="86.9932" width="74.073" height="74.073" fill="#CFCFCF"/>
<rect x="79.1509" y="100.47" width="6.386" height="17.88" fill="#5A5657"/>
<rect x="107.035" y="106.217" width="17.88" height="6.386" fill="#5A5657"/>
<rect x="112.782" y="129.709" width="6.386" height="17.88" fill="#5A5657"/>
<rect x="79.1509" y="129.709" width="6.386" height="17.88" fill="#5A5657"/>
<path d="M112.782 139.209C123.982 140.089 134.656 140.928 146.423 141.852C143.655 138.778 141.514 136.4 138.874 133.468C153.997 130.09 166.828 133.59 178.558 143.241C172.906 127.927 155.79 119.621 131.878 120.383C130.983 117.192 130.06 113.9 128.903 109.771C125.91 115.198 123.266 119.966 120.648 124.747C118.078 129.438 115.535 134.144 112.782 139.209Z" fill="#00C0D2"/>
<path d="M285.616 130.714C296.816 131.594 307.49 132.433 319.257 133.357C316.489 130.283 314.348 127.905 311.708 124.973C326.831 121.595 339.662 125.095 351.392 134.746C345.74 119.432 328.624 111.126 304.712 111.888C303.817 108.697 302.894 105.405 301.737 101.275C298.744 106.702 296.1 111.47 293.482 116.251C290.912 120.944 288.369 125.65 285.616 130.714Z" fill="#00C0D2"/>
<path d="M385.81 316.674C394.546 314.513 402.318 309.912 409.26 302.835C416.834 295.112 423.875 278.727 431.33 261.381C438.67 244.301 447.805 223.045 454.329 220.769C456.676 219.95 457.914 217.384 457.096 215.039C456.277 212.691 453.716 211.443 451.365 212.271C441.791 215.61 434.285 231.71 423.062 257.827C416.262 273.65 409.231 290.012 402.835 296.533C391.485 308.105 377.893 311.57 360.059 307.44C355.845 306.464 350.777 303.525 345.899 299.577C343.46 297.603 341.07 295.377 338.859 293.018C312.139 269.857 343.976 244.471 360.483 228.54C362.206 226.674 364.143 224.546 366.176 222.235C376.343 210.681 388.877 194.563 389.627 184.578C390.556 172.223 383.031 148.067 382.71 147.045C381.966 144.674 379.446 143.349 377.069 144.099C374.698 144.842 373.379 147.368 374.122 149.739C376.164 156.249 381.316 175.075 380.653 183.904C380.242 189.37 372.59 200.694 362.796 212.357C360.348 215.273 357.767 218.21 355.148 221.09C336.471 239.117 302.933 265.954 326.734 292.623C328.435 294.93 330.331 297.172 332.35 299.298C340.424 307.801 350.437 314.449 358.029 316.208C368.24 318.573 377.465 318.738 385.81 316.674Z" fill="#8B8C8D"/>
<path d="M377.489 162.013C376.25 156.905 374.938 152.339 374.123 149.738C373.38 147.367 374.699 144.841 377.07 144.098C379.447 143.348 381.966 144.673 382.711 147.044C382.859 147.517 384.548 152.939 386.229 159.851L377.489 162.013Z" fill="#3E3F41"/>
<path d="M367.742 161.836L393.391 155.492C394.764 155.153 395.609 153.752 395.269 152.379L386.217 115.777C385.878 114.404 384.477 113.559 383.104 113.899L357.455 120.242C356.082 120.581 355.237 121.982 355.577 123.355L364.629 159.957C364.968 161.33 366.369 162.175 367.742 161.836Z" fill="#F2F3F5"/>
<path d="M383.761 113.771C384.778 113.716 386.004 114.511 386.312 115.754L395.364 152.356C395.671 153.599 394.957 154.874 394.032 155.299L383.761 113.771Z" fill="#CFCFCF"/>
<path d="M366.851 162.022C365.834 162.077 364.608 161.282 364.3 160.039L355.248 123.437C354.941 122.194 355.655 120.919 356.58 120.494L366.851 162.022Z" fill="#CFCFCF"/>
<path d="M361.511 119.609L361.245 118.534C360.995 117.524 361.138 116.611 362.148 116.361L377.191 112.64C378.201 112.39 379.439 112.962 379.689 113.972L379.955 115.047L361.511 119.609Z" fill="#CFCFCF"/>
<rect x="385.344" y="137.91" width="19.282" height="19.282" transform="rotate(166.108 385.344 137.91)" fill="#E3E4E7"/>
<rect x="381.824" y="132.437" width="2.73114" height="13.1227" transform="rotate(166.108 381.824 132.437)" fill="#8D8F90"/>
<rect x="381.305" y="132.564" width="2.19611" height="12.5866" transform="rotate(166.108 381.305 132.564)" fill="#BDBEC2"/>
<rect x="377.83" y="133.424" width="2.73114" height="13.1227" transform="rotate(166.108 377.83 133.424)" fill="#8D8F90"/>
<rect x="377.31" y="133.552" width="2.19611" height="12.5866" transform="rotate(166.108 377.31 133.552)" fill="#BDBEC2"/>
<rect x="373.835" y="134.412" width="2.73114" height="13.1227" transform="rotate(166.108 373.835 134.412)" fill="#8D8F90"/>
<rect x="373.315" y="134.54" width="2.19611" height="12.5866" transform="rotate(166.108 373.315 134.54)" fill="#BDBEC2"/>
<rect x="369.841" y="135.4" width="2.73114" height="13.1227" transform="rotate(166.108 369.841 135.4)" fill="#8D8F90"/>
<rect x="369.321" y="135.528" width="2.19611" height="12.5866" transform="rotate(166.108 369.321 135.528)" fill="#BDBEC2"/>
<path d="M370.798 154.791L387.427 150.678C387.994 150.538 388.343 149.959 388.203 149.392L386.493 142.476C386.353 141.909 385.774 141.56 385.207 141.7L368.578 145.813C368.011 145.953 367.662 146.532 367.802 147.099L369.512 154.015C369.652 154.582 370.231 154.931 370.798 154.791Z" fill="#5A5A5C"/>
<path d="M369.021 149.971L369.998 153.922C369.998 153.922 369.796 154.644 370.706 154.419C371.616 154.194 387.352 150.302 387.352 150.302C387.352 150.302 371.003 153.821 369.021 149.971Z" fill="#3E3F41"/>
<path d="M563.887 320.139H439.551C435.286 320.139 431.796 316.649 431.796 312.384V309.53C431.796 305.265 435.286 301.775 439.551 301.775H563.887C568.152 301.775 571.642 305.265 571.642 309.53V312.384C571.642 316.649 568.152 320.139 563.887 320.139Z" fill="#D5DAE2"/>
<path d="M555.9 310.214H447.239C444.959 310.214 443.093 308.348 443.093 306.068V197.407C443.093 195.127 444.959 193.261 447.239 193.261H555.9C558.18 193.261 560.046 195.127 560.046 197.407V306.068C560.046 308.349 558.18 310.214 555.9 310.214Z" fill="#444444"/>
<path d="M529.371 288.241H473.768C468.206 288.241 463.656 283.69 463.656 278.129V47.1159C463.656 41.5539 468.207 37.0039 473.768 37.0039H529.371C534.933 37.0039 539.483 41.5549 539.483 47.1159V278.129C539.483 283.691 534.933 288.241 529.371 288.241Z" fill="#232323"/>
<path d="M479.598 158.108C482.674 158.108 485.168 155.614 485.168 152.538C485.168 149.462 482.674 146.968 479.598 146.968C476.521 146.968 474.028 149.462 474.028 152.538C474.028 155.614 476.521 158.108 479.598 158.108Z" fill="#444444"/>
<path d="M501.57 158.108C504.647 158.108 507.14 155.614 507.14 152.538C507.14 149.462 504.647 146.968 501.57 146.968C498.494 146.968 496 149.462 496 152.538C496 155.614 498.494 158.108 501.57 158.108Z" fill="#444444"/>
<path d="M523.544 158.108C526.62 158.108 529.114 155.614 529.114 152.538C529.114 149.462 526.62 146.968 523.544 146.968C520.467 146.968 517.974 149.462 517.974 152.538C517.974 155.614 520.467 158.108 523.544 158.108Z" fill="#444444"/>
<path d="M479.596 176.033C482.672 176.033 485.166 173.539 485.166 170.463C485.166 167.386 482.672 164.893 479.596 164.893C476.519 164.893 474.026 167.386 474.026 170.463C474.026 173.539 476.519 176.033 479.596 176.033Z" fill="#444444"/>
<path d="M501.57 176.033C504.646 176.033 507.14 173.539 507.14 170.463C507.14 167.386 504.646 164.893 501.57 164.893C498.493 164.893 496 167.386 496 170.463C496 173.539 498.493 176.033 501.57 176.033Z" fill="#444444"/>
<path d="M523.543 176.033C526.619 176.033 529.113 173.539 529.113 170.463C529.113 167.386 526.619 164.893 523.543 164.893C520.466 164.893 517.973 167.386 517.973 170.463C517.973 173.539 520.466 176.033 523.543 176.033Z" fill="#444444"/>
<path d="M479.596 193.958C482.672 193.958 485.166 191.465 485.166 188.388C485.166 185.312 482.672 182.818 479.596 182.818C476.519 182.818 474.026 185.312 474.026 188.388C474.026 191.465 476.519 193.958 479.596 193.958Z" fill="#444444"/>
<path d="M501.57 193.958C504.646 193.958 507.14 191.465 507.14 188.388C507.14 185.312 504.646 182.818 501.57 182.818C498.493 182.818 496 185.312 496 188.388C496 191.465 498.493 193.958 501.57 193.958Z" fill="#444444"/>
<path d="M523.543 193.958C526.619 193.958 529.113 191.465 529.113 188.388C529.113 185.312 526.619 182.818 523.543 182.818C520.466 182.818 517.973 185.312 517.973 188.388C517.973 191.465 520.466 193.958 523.543 193.958Z" fill="#444444"/>
<path d="M479.596 211.884C482.672 211.884 485.166 209.39 485.166 206.314C485.166 203.238 482.672 200.744 479.596 200.744C476.519 200.744 474.026 203.238 474.026 206.314C474.026 209.39 476.519 211.884 479.596 211.884Z" fill="#444444"/>
<path d="M501.57 211.884C504.646 211.884 507.14 209.39 507.14 206.314C507.14 203.238 504.646 200.744 501.57 200.744C498.493 200.744 496 203.238 496 206.314C496 209.39 498.493 211.884 501.57 211.884Z" fill="#444444"/>
<path d="M523.543 211.884C526.619 211.884 529.113 209.39 529.113 206.314C529.113 203.238 526.619 200.744 523.543 200.744C520.466 200.744 517.973 203.238 517.973 206.314C517.973 209.39 520.466 211.884 523.543 211.884Z" fill="#444444"/>
<rect x="474.026" y="69.8682" width="55.087" height="35.731" fill="#6F7B84"/>
<path d="M509.739 135.002H493.401C490.858 135.002 488.776 132.921 488.776 130.377V120.09C488.776 117.547 490.857 115.465 493.401 115.465H509.739C512.282 115.465 514.364 117.546 514.364 120.09V130.377C514.363 132.921 512.282 135.002 509.739 135.002Z" fill="#444444"/>
<path d="M481.897 135.002H475.644C473.846 135.002 472.374 133.531 472.374 131.732V118.736C472.374 116.938 473.845 115.466 475.644 115.466H481.897C483.695 115.466 485.167 116.937 485.167 118.736V131.732C485.166 133.531 483.695 135.002 481.897 135.002Z" fill="#444444"/>
<path d="M526.669 135.002H520.416C518.618 135.002 517.146 133.531 517.146 131.732V118.736C517.146 116.938 518.617 115.466 520.416 115.466H526.669C528.467 115.466 529.939 116.937 529.939 118.736V131.732C529.939 133.531 528.468 135.002 526.669 135.002Z" fill="#444444"/>
<rect x="491.655" y="50.6436" width="2.072" height="6.512" fill="#303030"/>
<rect x="496.094" y="50.6436" width="2.072" height="6.512" fill="#303030"/>
<rect x="500.534" y="50.6436" width="2.072" height="6.512" fill="#303030"/>
<rect x="504.975" y="50.6436" width="2.072" height="6.512" fill="#303030"/>
<rect x="509.415" y="50.6436" width="2.072" height="6.512" fill="#303030"/>
<rect x="491.655" y="262.872" width="2.072" height="13.024" fill="#303030"/>
<rect x="496.094" y="262.872" width="2.072" height="13.024" fill="#303030"/>
<rect x="500.534" y="262.872" width="2.072" height="13.024" fill="#303030"/>
<rect x="504.975" y="262.872" width="2.072" height="13.024" fill="#303030"/>
<rect x="509.415" y="262.872" width="2.072" height="13.024" fill="#303030"/>
</svg>
