<?xml version="1.0" encoding="UTF-8"?>
<svg width="592px" height="330px" viewBox="0 0 592 330" version="1.1" xmlns="http://www.w3.org/2000/svg" xmlns:xlink="http://www.w3.org/1999/xlink">
    <title>isolar_rede2</title>
    <g id="Page-1" stroke="none" stroke-width="1" fill="none" fill-rule="evenodd">
        <g id="isolar_rede2" transform="translate(68.000000, 10.336900)">
            <path d="M449.7935,151.6401 L353.8283,151.6401 C350.4875,151.6401 347.7542,148.9068 347.7542,145.566 L347.7542,6.0741 C347.7542,2.7333 350.4875,4.26325641e-14 353.8283,4.26325641e-14 L449.7935,4.26325641e-14 C453.1343,4.26325641e-14 455.8676,2.7333 455.8676,6.0741 L455.8676,145.5651 C455.8676,148.9068 453.1343,151.6401 449.7935,151.6401 Z" id="XMLID_130_" fill="#E6E6E6" fill-rule="nonzero" transform="translate(401.810900, 75.820050) scale(-1, 1) translate(-401.810900, -75.820050) "></path>
            <path d="M455.9198,0.8145 C454.7984,1.4733 453.7634,2.6676 453.7634,4.8501 C453.7634,9.6156 453.7634,147.0627 453.7634,147.0627 C453.7634,147.0627 453.9353,149.4378 455.9198,150.6573 L455.9198,0.8145 Z" id="XMLID_128_" fill="#CFCFCF" fill-rule="nonzero" transform="translate(454.841600, 75.735900) scale(-1, 1) translate(-454.841600, -75.735900) "></path>
            <path d="M333.5801,114.8841 L317.3801,114.8841 C314.4335,114.8841 312.0224,112.473 312.0224,109.5264 L312.0224,109.5264 C312.0224,106.5798 314.4335,104.1687 317.3801,104.1687 L333.5801,104.1687 C336.5267,104.1687 338.9378,106.5798 338.9378,109.5264 L338.9378,109.5264 C338.9378,112.473 336.5267,114.8841 333.5801,114.8841 Z" id="XMLID_126_" fill="#CFCFCF" fill-rule="nonzero" transform="translate(325.480100, 109.526400) scale(-1, 1) translate(-325.480100, -109.526400) "></path>
            <path d="M333.5801,68.2308 L317.3801,68.2308 C314.4335,68.2308 312.0224,65.8197 312.0224,62.8731 L312.0224,62.8731 C312.0224,59.9265 314.4335,57.5154 317.3801,57.5154 L333.5801,57.5154 C336.5267,57.5154 338.9378,59.9265 338.9378,62.8731 L338.9378,62.8731 C338.9378,65.8197 336.5267,68.2308 333.5801,68.2308 Z" id="XMLID_125_" fill="#CFCFCF" fill-rule="nonzero" transform="translate(325.480100, 62.873100) scale(-1, 1) translate(-325.480100, -62.873100) "></path>
            <rect id="XMLID_124_" fill="#232323" fill-rule="nonzero" transform="translate(265.680500, 86.136750) scale(-1, 1) translate(-265.680500, -86.136750) " x="225.7169" y="41.7411" width="79.9272" height="88.7913"></rect>
            <rect id="XMLID_123_" fill="#303030" fill-rule="nonzero" transform="translate(312.021950, 86.136750) scale(-1, 1) translate(-312.021950, -86.136750) " x="305.6432" y="41.7411" width="12.7575" height="88.7913"></rect>
            <path d="M278.78,101.5299 L249.2492,101.5299 C248.4527,101.5299 247.8011,100.8783 247.8011,100.0818 L247.8011,70.551 C247.8011,69.7545 248.4527,69.1029 249.2492,69.1029 L278.78,69.1029 C279.5765,69.1029 280.2281,69.7545 280.2281,70.551 L280.2281,100.0818 C280.2281,100.8783 279.5765,101.5299 278.78,101.5299 Z" id="XMLID_122_" fill="#F2F3F5" fill-rule="nonzero" transform="translate(264.014600, 85.316400) scale(-1, 1) translate(-264.014600, -85.316400) "></path>
            <polyline id="XMLID_121_" fill="#E5E9EC" fill-rule="nonzero" transform="translate(264.136100, 85.084650) scale(-1, 1) translate(-264.136100, -85.084650) " points="279.8834 100.8369 279.887 69.3324 248.3852 100.8369"></polyline>
            <path d="M278.6738,102.0933 L249.3545,102.0933 C248.1863,102.0933 247.2368,101.1429 247.2368,99.9756 L247.2368,70.6563 C247.2368,69.4881 248.1872,68.5386 249.3545,68.5386 L278.6738,68.5386 C279.842,68.5386 280.7915,69.489 280.7915,70.6563 L280.7915,99.9756 C280.7915,101.1438 279.8411,102.0933 278.6738,102.0933 Z M249.3536,69.6663 C248.8073,69.6663 248.3636,70.1109 248.3636,70.6563 L248.3636,99.9756 C248.3636,100.5219 248.8073,100.9656 249.3536,100.9656 L278.6729,100.9656 C279.2192,100.9656 279.6629,100.521 279.6629,99.9756 L279.6629,70.6563 C279.6629,70.11 279.2192,69.6663 278.6729,69.6663 L249.3536,69.6663 L249.3536,69.6663 Z" id="XMLID_118_" fill="#5B5B5D" fill-rule="nonzero" transform="translate(264.014150, 85.315950) scale(-1, 1) translate(-264.014150, -85.315950) "></path>
            <polygon id="XMLID_116_" fill="#5A5A5C" fill-rule="nonzero" transform="translate(263.902550, 86.117400) scale(-1, 1) translate(-263.902550, -86.117400) " points="263.7725 74.529 251.8313 74.529 251.8313 89.0145 255.6941 89.0145 255.6941 92.8773 259.5569 92.8773 259.5569 97.7058 263.7725 97.7058 268.2482 97.7058 268.2482 92.8773 272.111 92.8773 272.111 89.0145 275.9738 89.0145 275.9738 74.529"></polygon>
            <rect id="XMLID_115_" fill="#3F4243" fill-rule="nonzero" transform="translate(263.902550, 75.011850) scale(-1, 1) translate(-263.902550, -75.011850) " x="251.8313" y="74.529" width="24.1425" height="1"></rect>
            <rect id="XMLID_114_" fill="#3F4243" fill-rule="nonzero" transform="translate(274.042400, 88.531650) scale(-1, 1) translate(-274.042400, -88.531650) " x="272.111" y="88.0488" width="3.8628" height="1"></rect>
            <rect id="XMLID_113_" fill="#3F4243" fill-rule="nonzero" transform="translate(253.762700, 88.531650) scale(-1, 1) translate(-253.762700, -88.531650) " x="251.8313" y="88.0488" width="3.8628" height="1"></rect>
            <rect id="XMLID_112_" fill="#3F4243" fill-rule="nonzero" transform="translate(270.179600, 92.394450) scale(-1, 1) translate(-270.179600, -92.394450) " x="268.2482" y="91.9116" width="3.8628" height="1"></rect>
            <rect id="XMLID_111_" fill="#3F4243" fill-rule="nonzero" transform="translate(263.902550, 97.222950) scale(-1, 1) translate(-263.902550, -97.222950) " x="259.5569" y="96.7401" width="8.6913" height="1"></rect>
            <rect id="XMLID_110_" fill="#3F4243" fill-rule="nonzero" transform="translate(257.625500, 92.394450) scale(-1, 1) translate(-257.625500, -92.394450) " x="255.6941" y="91.9116" width="3.8628" height="1"></rect>
            <rect id="XMLID_108_" fill="#BDBEC2" fill-rule="nonzero" transform="translate(265.700300, 78.182550) scale(-1, 1) translate(-265.700300, -78.182550) " x="264.6428" y="74.3544" width="2.115" height="7.6563"></rect>
            <rect id="XMLID_107_" fill="#BDBEC2" fill-rule="nonzero" transform="translate(269.177900, 78.182550) scale(-1, 1) translate(-269.177900, -78.182550) " x="268.1204" y="74.3544" width="2.115" height="7.6563"></rect>
            <rect id="XMLID_106_" fill="#BDBEC2" fill-rule="nonzero" transform="translate(262.222700, 78.182550) scale(-1, 1) translate(-262.222700, -78.182550) " x="261.1652" y="74.3544" width="2.115" height="7.6563"></rect>
            <rect id="XMLID_105_" fill="#BDBEC2" fill-rule="nonzero" transform="translate(258.745100, 78.182550) scale(-1, 1) translate(-258.745100, -78.182550) " x="257.6876" y="74.3544" width="2.115" height="7.6563"></rect>
            <rect id="XMLID_100_" fill="#CFCFCF" fill-rule="nonzero" transform="translate(399.681050, 75.820050) scale(-1, 1) translate(-399.681050, -75.820050) " x="366.3482" y="42.4872" width="66.6657" height="66.6657"></rect>
            <rect id="XMLID_99_" fill="#5A5657" fill-rule="nonzero" transform="translate(416.251400, 62.662500) scale(-1, 1) translate(-416.251400, -62.662500) " x="413.3777" y="54.6165" width="5.7474" height="16.092"></rect>
            <rect id="XMLID_98_" fill="#5A5657" fill-rule="nonzero" transform="translate(385.983500, 62.662500) scale(-1, 1) translate(-385.983500, -62.662500) " x="377.9375" y="59.7888" width="16.092" height="5.7474"></rect>
            <rect id="XMLID_97_" fill="#5A5657" fill-rule="nonzero" transform="translate(385.983500, 88.977600) scale(-1, 1) translate(-385.983500, -88.977600) " x="383.1098" y="80.9316" width="5.7474" height="16.092"></rect>
            <rect id="XMLID_96_" fill="#5A5657" fill-rule="nonzero" transform="translate(416.251400, 88.977600) scale(-1, 1) translate(-416.251400, -88.977600) " x="413.3777" y="80.9316" width="5.7474" height="16.092"></rect>
            <path d="M329.6588,89.4816 C339.7388,90.2736 349.3454,91.0287 359.9357,91.8603 C357.4445,89.0937 355.5176,86.9535 353.1416,84.3147 C366.7523,81.2745 378.3002,84.4245 388.8572,93.1104 C383.7704,79.3278 368.366,71.8524 346.8452,72.5382 C346.0397,69.6663 345.209,66.7035 344.1677,62.9874 C341.474,67.8717 339.0944,72.1629 336.7382,76.4658 C334.4252,80.6877 332.1365,84.9231 329.6588,89.4816 Z" id="XMLID_93_" fill="#00C0D2" fill-rule="nonzero" transform="translate(359.258000, 78.048900) scale(-1, 1) translate(-359.258000, -78.048900) "></path>
            <path d="M139.323306,249.2001 C147.185706,247.2552 154.180506,243.1143 160.428306,236.745 C167.244906,229.7943 173.581806,215.0478 180.291306,199.4364 C186.897306,184.0644 195.118806,164.934 200.990406,162.8856 C203.102706,162.1485 204.216906,159.8391 203.480706,157.7286 C202.743606,155.6154 200.438706,154.4922 198.322806,155.2374 C189.706206,158.2425 182.950806,172.7325 172.850106,196.2378 C166.730106,210.4785 160.402206,225.2043 154.645806,231.0732 C144.430806,241.488 132.198006,244.6065 116.147406,240.8895 C112.354806,240.0111 107.793606,237.366 103.403406,233.8128 C101.208306,232.0362 99.0573063,230.0328 97.0674063,227.9097 C73.0194063,207.0648 101.672706,184.2174 116.529006,169.8795 C118.079706,168.2001 119.823006,166.2849 121.652706,164.205 C130.803006,153.8064 142.083606,139.3002 142.758606,130.3137 C143.594706,119.1942 136.822206,97.4538 136.533306,96.534 C135.863706,94.4001 133.595706,93.2076 131.456406,93.8826 C129.322506,94.5513 128.135406,96.8247 128.804106,98.9586 C130.641906,104.8176 135.278706,121.761 134.682006,129.7071 C134.312106,134.6265 127.425306,144.8181 118.610706,155.3148 C116.407506,157.9392 114.084606,160.5825 111.727506,163.1745 C94.9182063,179.3988 64.7340063,203.5521 86.1549063,227.5542 C87.6858063,229.6305 89.3922063,231.6483 91.2093063,233.5617 C98.4759063,241.2144 107.487606,247.1976 114.320406,248.7807 C123.510306,250.9092 131.812806,251.0577 139.323306,249.2001 Z" id="XMLID_91_" fill="#8B8C8D" fill-rule="nonzero" transform="translate(141.227653, 172.093259) scale(-1, 1) translate(-141.227653, -172.093259) "></path>
            <path d="M145.970717,110.0052 C144.855617,105.408 143.674817,101.2986 142.941317,98.9577 C142.272617,96.8238 143.459717,94.5504 145.593617,93.8817 C147.732917,93.2067 150.000017,94.3992 150.670517,96.5331 C150.803717,96.9588 152.323817,101.8386 153.836717,108.0594 L145.970717,110.0052 Z" id="XMLID_89_" fill="#3E3F41" fill-rule="nonzero" transform="translate(148.295808, 101.849024) scale(-1, 1) translate(-148.295808, -101.849024) "></path>
            <path d="M145.5674,109.8468 L168.6515,104.1372 C169.8872,103.8321 170.6477,102.5712 170.3417,101.3355 L162.1949,68.3937 C161.8898,67.158 160.6289,66.3975 159.3932,66.7035 L136.3091,72.4122 C135.0734,72.7173 134.3129,73.9782 134.6189,75.2139 L142.7657,108.1557 C143.0708,109.3914 144.3317,110.1519 145.5674,109.8468 Z" id="XMLID_88_" fill="#F2F3F5" fill-rule="nonzero" transform="translate(152.480300, 88.274977) scale(-1, 1) translate(-152.480300, -88.274977) "></path>
            <path d="M134.468361,66.5883 C135.383661,66.5388 136.487061,67.2543 136.764261,68.373 L144.911061,101.3148 C145.187361,102.4335 144.544761,103.581 143.712261,103.9635 L134.468361,66.5883 Z" id="XMLID_87_" fill="#CFCFCF" fill-rule="nonzero" transform="translate(139.722230, 85.274693) scale(-1, 1) translate(-139.722230, -85.274693) "></path>
            <path d="M170.702839,110.0142 C169.787539,110.0637 168.684139,109.3482 168.406939,108.2295 L160.260139,75.2877 C159.983839,74.169 160.626439,73.0215 161.458939,72.639 L170.702839,110.0142 Z" id="XMLID_86_" fill="#CFCFCF" fill-rule="nonzero" transform="translate(165.448970, 91.327807) scale(-1, 1) translate(-165.448970, -91.327807) "></path>
            <path d="M148.736513,71.8416 L148.497113,70.8741 C148.272113,69.9651 148.400813,69.1434 149.309813,68.9184 L162.848513,65.5695 C163.757513,65.3445 164.871713,65.8593 165.096713,66.7683 L165.336113,67.7358 L148.736513,71.8416 Z" id="XMLID_84_" fill="#CFCFCF" fill-rule="nonzero" transform="translate(156.868356, 68.679246) scale(-1, 1) translate(-156.868356, -68.679246) "></path>
            <rect id="XMLID_83_" fill="#E3E4E7" fill-rule="nonzero" transform="translate(154.057169, 81.973231) scale(-1, 1) rotate(166.108271) translate(-154.057169, -81.973231) " x="145.380283" y="73.2963442" width="17.3537733" height="17.3537733"></rect>
            <rect id="XMLID_82_" fill="#8D8F90" fill-rule="nonzero" transform="translate(149.329410, 77.949094) scale(-1, 1) rotate(166.108271) translate(-149.329410, -77.949094) " x="148.100399" y="72.0438973" width="2.45802369" height="11.8103943"></rect>
            <rect id="XMLID_81_" fill="#BDBEC2" fill-rule="nonzero" transform="translate(149.505541, 78.241164) scale(-1, 1) rotate(166.108271) translate(-149.505541, -78.241164) " x="148.517292" y="72.5771786" width="1.97649946" height="11.32797"></rect>
            <rect id="XMLID_79_" fill="#8D8F90" fill-rule="nonzero" transform="translate(152.924076, 78.838070) scale(-1, 1) rotate(166.108271) translate(-152.924076, -78.838070) " x="151.695064" y="72.9328724" width="2.45802369" height="11.8103943"></rect>
            <rect id="XMLID_78_" fill="#BDBEC2" fill-rule="nonzero" transform="translate(153.101171, 79.130355) scale(-1, 1) rotate(166.108271) translate(-153.101171, -79.130355) " x="152.112921" y="73.4663697" width="1.97649946" height="11.32797"></rect>
            <rect id="XMLID_76_" fill="#8D8F90" fill-rule="nonzero" transform="translate(156.519705, 79.727261) scale(-1, 1) rotate(166.108271) translate(-156.519705, -79.727261) " x="155.290693" y="73.8220636" width="2.45802369" height="11.8103943"></rect>
            <rect id="XMLID_75_" fill="#BDBEC2" fill-rule="nonzero" transform="translate(156.695926, 80.019330) scale(-1, 1) rotate(166.108271) translate(-156.695926, -80.019330) " x="155.707676" y="74.3553448" width="1.97649946" height="11.32797"></rect>
            <rect id="XMLID_73_" fill="#8D8F90" fill-rule="nonzero" transform="translate(160.114551, 80.616146) scale(-1, 1) rotate(166.108271) translate(-160.114551, -80.616146) " x="158.885539" y="74.7109487" width="2.45802369" height="11.8103943"></rect>
            <rect id="XMLID_72_" fill="#BDBEC2" fill-rule="nonzero" transform="translate(160.290772, 80.908215) scale(-1, 1) rotate(166.108271) translate(-160.290772, -80.908215) " x="159.302522" y="75.2442299" width="1.97649946" height="11.32797"></rect>
            <path d="M143.6738,103.5054 L158.6399,99.8037 C159.1502,99.6777 159.4643,99.1566 159.3383,98.6463 L157.7993,92.4219 C157.6733,91.9116 157.1522,91.5975 156.6419,91.7235 L141.6758,95.4252 C141.1655,95.5512 140.8514,96.0723 140.9774,96.5826 L142.5164,102.807 C142.6424,103.3173 143.1635,103.6314 143.6738,103.5054 Z" id="XMLID_69_" fill="#5A5A5C" fill-rule="nonzero" transform="translate(150.157850, 97.614450) scale(-1, 1) translate(-150.157850, -97.614450) "></path>
            <path d="M141.7442,99.1674 L142.6235,102.7233 C142.6235,102.7233 142.4417,103.3731 143.2607,103.1706 C144.0797,102.9681 158.2421,99.4653 158.2421,99.4653 C158.2421,99.4653 143.528,102.6324 141.7442,99.1674 Z" id="XMLID_68_" fill="#3E3F41" fill-rule="nonzero" transform="translate(149.993150, 101.188554) scale(-1, 1) translate(-149.993150, -101.188554) "></path>
            <path d="M173.3582,82.8135 C183.4382,83.6055 193.0448,84.3606 203.6351,85.1922 C201.1439,82.4256 199.217,80.2854 196.841,77.6466 C210.4517,74.6064 221.9996,77.7564 232.5566,86.4423 C227.4698,72.6597 212.0654,65.1843 190.5446,65.8701 C189.7391,62.9982 188.9084,60.0354 187.8671,56.3184 C185.1734,61.2027 182.7938,65.4939 180.4376,69.7968 C178.1246,74.0205 175.8359,78.2559 173.3582,82.8135 Z" id="XMLID_92_" fill="#00C0D2" fill-rule="nonzero" transform="translate(202.957400, 71.380350) scale(-1, 1) translate(-202.957400, -71.380350) "></path>
            <g id="Group-2" transform="translate(323.000000, 239.530050) scale(-1, 1) translate(-323.000000, -239.530050) translate(273.000000, 169.530050)">
                <path d="M94.6080371,139.345958 L4.44364522,139.345958 C1.99987235,139.345958 0,137.340099 0,134.88901 L0,4.45694846 C0,2.00585951 1.99987235,0 4.44364522,0 L94.6080371,0 C97.05181,0 99.0516823,2.00585951 99.0516823,4.45694846 L99.0516823,134.88901 C99.0516823,137.340099 97.05181,139.345958 94.6080371,139.345958 Z" id="Fill-1" fill="#E6E6E6"></path>
                <path d="M1.54669169,0 C1.54669169,0.605015628 0,1.70335169 0,3.7092112 L0,134.391036 C0,134.391036 0,136.573746 1.54669169,137.6938 L1.54669169,0 Z" id="Fill-3" fill="#CFCFCF"></path>
                <path d="M64.5126697,85.6412322 L35.8122588,85.6412322 C34.9754986,85.6412322 34.2903142,84.9539965 34.2903142,84.1147312 L34.2903142,55.3283979 C34.2903142,54.4891327 34.9754986,53.8018969 35.8122588,53.8018969 L64.5126697,53.8018969 C65.3494299,53.8018969 66.0346143,54.4891327 66.0346143,55.3283979 L66.0346143,84.1147312 C66.0346143,84.9539965 65.3494299,85.6412322 64.5126697,85.6412322" id="Fill-5" fill="#F2F3F5"></path>
                <polyline id="Fill-7" fill="#E5E9EC" points="65.1251596 84.7352601 65.128253 53.8018969 34.2903142 84.7352601"></polyline>
                <path d="M34.8719978,53.4150438 C34.3368425,53.4150438 33.9022221,53.8509653 33.9022221,54.3877228 L33.9022221,83.1740561 C33.9022221,83.7108136 34.3368425,84.1467351 34.8719978,84.1467351 L63.5724087,84.1467351 C64.1075641,84.1467351 64.5421844,83.7108136 64.5421844,83.1740561 L64.5421844,54.3877228 C64.5421844,53.8509653 64.1075641,53.4150438 63.5724087,53.4150438 L34.8719978,53.4150438 Z M63.5724087,85.2543791 L34.8719978,85.2543791 C33.7289926,85.2543791 32.7994309,84.3204832 32.7994309,83.1740561 L32.7994309,54.3877228 C32.7994309,53.2412957 33.7289926,52.3073998 34.8719978,52.3073998 L63.5724087,52.3073998 C64.7169606,52.3073998 65.6465223,53.2412957 65.6465223,54.3877228 L65.6465223,83.1740561 C65.6465223,84.3204832 64.7169606,85.2543791 63.5724087,85.2543791 L63.5724087,85.2543791 Z" id="Fill-9" fill="#5B5B5D"></path>
                <polygon id="Fill-11" fill="#5A5A5C" points="49.6548943 58.2853884 37.2720806 58.2853884 37.2720806 72.2472875 41.9121557 72.2472875 41.9121557 76.9012538 45.005539 76.9012538 45.005539 80.0038981 49.6548943 80.0038981 54.2856892 80.0038981 54.2856892 76.9012538 57.3790725 76.9012538 57.3790725 72.2472875 62.0191476 72.2472875 62.0191476 58.2853884"></polygon>
                <polygon id="Fill-13" fill="#3F4243" points="37.2720806 59.8367105 62.0191476 59.8367105 62.0191476 58.2853884 37.2720806 58.2853884"></polygon>
                <polygon id="Fill-15" fill="#3F4243" points="37.2720806 71.7926876 41.9121557 71.7926876 41.9121557 70.2413655 37.2720806 70.2413655"></polygon>
                <polygon id="Fill-16" fill="#3F4243" points="56.6535625 71.7926876 61.2936376 71.7926876 61.2936376 70.2413655 56.6535625 70.2413655"></polygon>
                <polygon id="Fill-17" fill="#3F4243" points="41.7447303 76.276179 44.8381137 76.276179 44.8381137 74.7248569 41.7447303 74.7248569"></polygon>
                <polygon id="Fill-19" fill="#3F4243" points="53.6717961 76.276179 56.7651794 76.276179 56.7651794 74.7248569 53.6717961 74.7248569"></polygon>
                <polygon id="Fill-20" fill="#BDBEC2" points="46.2173799 65.8030954 48.2868534 65.8030954 48.2868534 58.2853884 46.2173799 58.2853884"></polygon>
                <polygon id="Fill-21" fill="#BDBEC2" points="43.2356135 65.8030954 45.305087 65.8030954 45.305087 58.2853884 43.2356135 58.2853884"></polygon>
                <polygon id="Fill-22" fill="#BDBEC2" points="50.6900296 65.8030954 52.7595031 65.8030954 52.7595031 58.2853884 50.6900296 58.2853884"></polygon>
                <polygon id="Fill-23" fill="#BDBEC2" points="53.6717961 65.8030954 55.7412695 65.8030954 55.7412695 58.2853884 53.6717961 58.2853884"></polygon>
            </g>
            <path d="M225.7169,250.9632 C235.7969,251.7552 245.4035,252.5103 255.9938,253.3419 C253.5026,250.5753 251.5757,248.4351 249.1997,245.7963 C262.8104,242.7561 274.3583,245.9061 284.9153,254.592 C279.8285,240.8094 264.4241,233.334 242.9033,234.0198 C242.0978,231.1479 241.2671,228.1851 240.2258,224.4681 C237.5321,229.3524 235.1525,233.6436 232.7963,237.9465 C230.4833,242.1702 228.1946,246.4056 225.7169,250.9632 Z" id="XMLID_92_" fill="#00C0D2" fill-rule="nonzero" transform="translate(255.316100, 239.530050) scale(-1, -1) translate(-255.316100, -239.530050) "></path>
            <g id="Group-3" transform="translate(0.000000, 10.532400)">
                <path d="M110.36,239.1395 L7.755,239.1395 C3.49,239.1395 -1.0658141e-13,235.6495 -1.0658141e-13,231.3845 C-1.0658141e-13,227.1195 3.49,223.6295 7.755,223.6295 L110.36,223.6295 C114.625,223.6295 118.115,227.1195 118.115,231.3845 C118.115,235.6495 114.625,239.1395 110.36,239.1395 Z" id="Fill-2" fill="#D5DAE2"></path>
                <path d="M104.1752,230.7568 L13.6882,230.7568 C11.4072,230.7568 9.5412,228.8908 9.5412,226.6108 L9.5412,136.1228 C9.5412,133.8428 11.4072,131.9768 13.6882,131.9768 L104.1752,131.9768 C106.4552,131.9768 108.3212,133.8428 108.3212,136.1228 L108.3212,226.6108 C108.3212,228.8908 106.4552,230.7568 104.1752,230.7568" id="Fill-4" fill="#444444"></path>
                <path d="M80.8414,212.198 L37.0214,212.198 C31.4594,212.198 26.9094,207.647 26.9094,202.086 L26.9094,10.112 C26.9094,4.551 31.4594,-7.10542736e-14 37.0214,-7.10542736e-14 L80.8414,-7.10542736e-14 C86.4034,-7.10542736e-14 90.9534,4.551 90.9534,10.112 L90.9534,202.086 C90.9534,207.647 86.4034,212.198 80.8414,212.198" id="Fill-6" fill="#232323"></path>
                <path d="M45.0782,97.5813 C45.0782,100.1793 42.9722,102.2863 40.3732,102.2863 C37.7752,102.2863 35.6692,100.1793 35.6692,97.5813 C35.6692,94.9833 37.7752,92.8763 40.3732,92.8763 C42.9722,92.8763 45.0782,94.9833 45.0782,97.5813" id="Fill-8" fill="#444444"></path>
                <path d="M63.637,97.5813 C63.637,100.1793 61.531,102.2863 58.932,102.2863 C56.334,102.2863 54.228,100.1793 54.228,97.5813 C54.228,94.9833 56.334,92.8763 58.932,92.8763 C61.531,92.8763 63.637,94.9833 63.637,97.5813" id="Fill-10" fill="#444444"></path>
                <path d="M82.1959,97.5813 C82.1959,100.1793 80.0899,102.2863 77.4909,102.2863 C74.8929,102.2863 72.7869,100.1793 72.7869,97.5813 C72.7869,94.9833 74.8929,92.8763 77.4909,92.8763 C80.0899,92.8763 82.1959,94.9833 82.1959,97.5813" id="Fill-12" fill="#444444"></path>
                <path d="M45.0772,112.7214 C45.0772,115.3194 42.9712,117.4264 40.3722,117.4264 C37.7742,117.4264 35.6682,115.3194 35.6682,112.7214 C35.6682,110.1234 37.7742,108.0164 40.3722,108.0164 C42.9712,108.0164 45.0772,110.1234 45.0772,112.7214" id="Fill-14" fill="#444444"></path>
                <path d="M63.6361,112.7214 C63.6361,115.3194 61.5301,117.4264 58.9311,117.4264 C56.3331,117.4264 54.2271,115.3194 54.2271,112.7214 C54.2271,110.1234 56.3331,108.0164 58.9311,108.0164 C61.5301,108.0164 63.6361,110.1234 63.6361,112.7214" id="Fill-16" fill="#444444"></path>
                <path d="M82.1949,112.7214 C82.1949,115.3194 80.0889,117.4264 77.4899,117.4264 C74.8919,117.4264 72.7859,115.3194 72.7859,112.7214 C72.7859,110.1234 74.8919,108.0164 77.4899,108.0164 C80.0889,108.0164 82.1949,110.1234 82.1949,112.7214" id="Fill-18" fill="#444444"></path>
                <path d="M45.0772,127.8615 C45.0772,130.4595 42.9712,132.5665 40.3722,132.5665 C37.7742,132.5665 35.6682,130.4595 35.6682,127.8615 C35.6682,125.2635 37.7742,123.1565 40.3722,123.1565 C42.9712,123.1565 45.0772,125.2635 45.0772,127.8615" id="Fill-20" fill="#444444"></path>
                <path d="M63.6361,127.8615 C63.6361,130.4595 61.5301,132.5665 58.9311,132.5665 C56.3331,132.5665 54.2271,130.4595 54.2271,127.8615 C54.2271,125.2635 56.3331,123.1565 58.9311,123.1565 C61.5301,123.1565 63.6361,125.2635 63.6361,127.8615" id="Fill-22" fill="#444444"></path>
                <path d="M82.1949,127.8615 C82.1949,130.4595 80.0889,132.5665 77.4899,132.5665 C74.8919,132.5665 72.7859,130.4595 72.7859,127.8615 C72.7859,125.2635 74.8919,123.1565 77.4899,123.1565 C80.0889,123.1565 82.1949,125.2635 82.1949,127.8615" id="Fill-24" fill="#444444"></path>
                <path d="M45.0772,143.0016 C45.0772,145.5996 42.9712,147.7066 40.3722,147.7066 C37.7742,147.7066 35.6682,145.5996 35.6682,143.0016 C35.6682,140.4036 37.7742,138.2966 40.3722,138.2966 C42.9712,138.2966 45.0772,140.4036 45.0772,143.0016" id="Fill-26" fill="#444444"></path>
                <path d="M63.6361,143.0016 C63.6361,145.5996 61.5301,147.7066 58.9311,147.7066 C56.3331,147.7066 54.2271,145.5996 54.2271,143.0016 C54.2271,140.4036 56.3331,138.2966 58.9311,138.2966 C61.5301,138.2966 63.6361,140.4036 63.6361,143.0016" id="Fill-28" fill="#444444"></path>
                <path d="M82.1949,143.0016 C82.1949,145.5996 80.0889,147.7066 77.4899,147.7066 C74.8919,147.7066 72.7859,145.5996 72.7859,143.0016 C72.7859,140.4036 74.8919,138.2966 77.4899,138.2966 C80.0889,138.2966 82.1949,140.4036 82.1949,143.0016" id="Fill-30" fill="#444444"></path>
                <polygon id="Fill-32" fill="#6F7B84" points="35.668 57.9363 82.195 57.9363 82.195 27.7573 35.668 27.7573"></polygon>
                <path d="M65.1126,82.7707 L52.7506,82.7707 C50.2066,82.7707 48.1256,80.6897 48.1256,78.1457 L48.1256,70.8957 C48.1256,68.3517 50.2066,66.2707 52.7506,66.2707 L65.1126,66.2707 C67.6566,66.2707 69.7376,68.3517 69.7376,70.8957 L69.7376,78.1457 C69.7376,80.6897 67.6566,82.7707 65.1126,82.7707" id="Fill-34" fill="#444444"></path>
                <path d="M41.8073,82.7707 L37.5423,82.7707 C35.7443,82.7707 34.2723,81.2997 34.2723,79.5007 L34.2723,69.5407 C34.2723,67.7417 35.7443,66.2707 37.5423,66.2707 L41.8073,66.2707 C43.6053,66.2707 45.0773,67.7417 45.0773,69.5407 L45.0773,79.5007 C45.0773,81.2997 43.6053,82.7707 41.8073,82.7707" id="Fill-35" fill="#444444"></path>
                <path d="M79.6228,82.7707 L75.3578,82.7707 C73.5598,82.7707 72.0878,81.2997 72.0878,79.5007 L72.0878,69.5407 C72.0878,67.7417 73.5598,66.2707 75.3578,66.2707 L79.6228,66.2707 C81.4208,66.2707 82.8928,67.7417 82.8928,69.5407 L82.8928,79.5007 C82.8928,81.2997 81.4208,82.7707 79.6228,82.7707" id="Fill-36" fill="#444444"></path>
                <polygon id="Fill-37" fill="#303030" points="50.557 17.0203 52.307 17.0203 52.307 11.5203 50.557 11.5203"></polygon>
                <polygon id="Fill-38" fill="#303030" points="54.307 17.0203 56.057 17.0203 56.057 11.5203 54.307 11.5203"></polygon>
                <polygon id="Fill-39" fill="#303030" points="58.057 17.0203 59.807 17.0203 59.807 11.5203 58.057 11.5203"></polygon>
                <polygon id="Fill-40" fill="#303030" points="61.807 17.0203 63.557 17.0203 63.557 11.5203 61.807 11.5203"></polygon>
                <polygon id="Fill-41" fill="#303030" points="65.557 17.0203 67.307 17.0203 67.307 11.5203 65.557 11.5203"></polygon>
                <polygon id="Fill-42" fill="#303030" points="50.557 201.7703 52.307 201.7703 52.307 190.7703 50.557 190.7703"></polygon>
                <polygon id="Fill-43" fill="#303030" points="54.307 201.7703 56.057 201.7703 56.057 190.7703 54.307 190.7703"></polygon>
                <polygon id="Fill-44" fill="#303030" points="58.057 201.7703 59.807 201.7703 59.807 190.7703 58.057 190.7703"></polygon>
                <polygon id="Fill-45" fill="#303030" points="61.807 201.7703 63.557 201.7703 63.557 190.7703 61.807 190.7703"></polygon>
                <polygon id="Fill-46" fill="#303030" points="65.557 201.7703 67.307 201.7703 67.307 190.7703 65.557 190.7703"></polygon>
            </g>
        </g>
    </g>
</svg>