<svg width="672" height="407" viewBox="0 0 672 407" fill="none" xmlns="http://www.w3.org/2000/svg">
<rect width="672" height="407" fill="#F2F2F2"/>
<path fill-rule="evenodd" clip-rule="evenodd" d="M187.191 323.32H84.5856C80.3206 323.32 76.8306 319.83 76.8306 315.565C76.8306 311.3 80.3206 307.81 84.5856 307.81H187.191C191.456 307.81 194.946 311.3 194.946 315.565C194.946 319.83 191.456 323.32 187.191 323.32Z" fill="#D5DAE2"/>
<path fill-rule="evenodd" clip-rule="evenodd" d="M181.006 314.936H90.5188C88.2378 314.936 86.3718 313.07 86.3718 310.79V220.302C86.3718 218.022 88.2378 216.156 90.5188 216.156H181.006C183.286 216.156 185.152 218.022 185.152 220.302V310.79C185.152 313.07 183.286 314.936 181.006 314.936" fill="#444444"/>
<path fill-rule="evenodd" clip-rule="evenodd" d="M157.672 296.378H113.852C108.29 296.378 103.74 291.827 103.74 286.266V94.2917C103.74 88.7307 108.29 84.1797 113.852 84.1797H157.672C163.234 84.1797 167.784 88.7307 167.784 94.2917V286.266C167.784 291.827 163.234 296.378 157.672 296.378" fill="#232323"/>
<path fill-rule="evenodd" clip-rule="evenodd" d="M121.909 181.761C121.909 184.359 119.803 186.466 117.204 186.466C114.606 186.466 112.5 184.359 112.5 181.761C112.5 179.163 114.606 177.056 117.204 177.056C119.803 177.056 121.909 179.163 121.909 181.761" fill="#444444"/>
<path fill-rule="evenodd" clip-rule="evenodd" d="M140.468 181.761C140.468 184.359 138.362 186.466 135.763 186.466C133.165 186.466 131.059 184.359 131.059 181.761C131.059 179.163 133.165 177.056 135.763 177.056C138.362 177.056 140.468 179.163 140.468 181.761" fill="#444444"/>
<path fill-rule="evenodd" clip-rule="evenodd" d="M159.026 181.761C159.026 184.359 156.92 186.466 154.321 186.466C151.723 186.466 149.617 184.359 149.617 181.761C149.617 179.163 151.723 177.056 154.321 177.056C156.92 177.056 159.026 179.163 159.026 181.761" fill="#444444"/>
<path fill-rule="evenodd" clip-rule="evenodd" d="M121.908 196.901C121.908 199.499 119.802 201.606 117.203 201.606C114.605 201.606 112.499 199.499 112.499 196.901C112.499 194.303 114.605 192.196 117.203 192.196C119.802 192.196 121.908 194.303 121.908 196.901" fill="#444444"/>
<path fill-rule="evenodd" clip-rule="evenodd" d="M140.467 196.901C140.467 199.499 138.361 201.606 135.762 201.606C133.164 201.606 131.058 199.499 131.058 196.901C131.058 194.303 133.164 192.196 135.762 192.196C138.361 192.196 140.467 194.303 140.467 196.901" fill="#444444"/>
<path fill-rule="evenodd" clip-rule="evenodd" d="M159.025 196.901C159.025 199.499 156.919 201.606 154.32 201.606C151.722 201.606 149.616 199.499 149.616 196.901C149.616 194.303 151.722 192.196 154.32 192.196C156.919 192.196 159.025 194.303 159.025 196.901" fill="#444444"/>
<path fill-rule="evenodd" clip-rule="evenodd" d="M121.908 212.041C121.908 214.639 119.802 216.746 117.203 216.746C114.605 216.746 112.499 214.639 112.499 212.041C112.499 209.443 114.605 207.336 117.203 207.336C119.802 207.336 121.908 209.443 121.908 212.041" fill="#444444"/>
<path fill-rule="evenodd" clip-rule="evenodd" d="M140.467 212.041C140.467 214.639 138.361 216.746 135.762 216.746C133.164 216.746 131.058 214.639 131.058 212.041C131.058 209.443 133.164 207.336 135.762 207.336C138.361 207.336 140.467 209.443 140.467 212.041" fill="#444444"/>
<path fill-rule="evenodd" clip-rule="evenodd" d="M159.025 212.041C159.025 214.639 156.919 216.746 154.32 216.746C151.722 216.746 149.616 214.639 149.616 212.041C149.616 209.443 151.722 207.336 154.32 207.336C156.919 207.336 159.025 209.443 159.025 212.041" fill="#444444"/>
<path fill-rule="evenodd" clip-rule="evenodd" d="M121.908 227.182C121.908 229.78 119.802 231.887 117.203 231.887C114.605 231.887 112.499 229.78 112.499 227.182C112.499 224.584 114.605 222.477 117.203 222.477C119.802 222.477 121.908 224.584 121.908 227.182" fill="#444444"/>
<path fill-rule="evenodd" clip-rule="evenodd" d="M140.467 227.182C140.467 229.78 138.361 231.887 135.762 231.887C133.164 231.887 131.058 229.78 131.058 227.182C131.058 224.584 133.164 222.477 135.762 222.477C138.361 222.477 140.467 224.584 140.467 227.182" fill="#444444"/>
<path fill-rule="evenodd" clip-rule="evenodd" d="M159.025 227.182C159.025 229.78 156.919 231.887 154.32 231.887C151.722 231.887 149.616 229.78 149.616 227.182C149.616 224.584 151.722 222.477 154.32 222.477C156.919 222.477 159.025 224.584 159.025 227.182" fill="#444444"/>
<path fill-rule="evenodd" clip-rule="evenodd" d="M112.499 142.116H159.026V111.937H112.499V142.116Z" fill="#6F7B84"/>
<path fill-rule="evenodd" clip-rule="evenodd" d="M141.943 166.95H129.581C127.037 166.95 124.956 164.869 124.956 162.325V155.075C124.956 152.531 127.037 150.45 129.581 150.45H141.943C144.487 150.45 146.568 152.531 146.568 155.075V162.325C146.568 164.869 144.487 166.95 141.943 166.95" fill="#444444"/>
<path fill-rule="evenodd" clip-rule="evenodd" d="M118.638 166.95H114.373C112.575 166.95 111.103 165.479 111.103 163.68V153.72C111.103 151.921 112.575 150.45 114.373 150.45H118.638C120.436 150.45 121.908 151.921 121.908 153.72V163.68C121.908 165.479 120.436 166.95 118.638 166.95" fill="#444444"/>
<path fill-rule="evenodd" clip-rule="evenodd" d="M156.453 166.95H152.188C150.39 166.95 148.918 165.479 148.918 163.68V153.72C148.918 151.921 150.39 150.45 152.188 150.45H156.453C158.251 150.45 159.723 151.921 159.723 153.72V163.68C159.723 165.479 158.251 166.95 156.453 166.95" fill="#444444"/>
<path fill-rule="evenodd" clip-rule="evenodd" d="M127.387 101.2H129.137V95.7002H127.387V101.2Z" fill="#303030"/>
<path fill-rule="evenodd" clip-rule="evenodd" d="M131.137 101.2H132.887V95.7002H131.137V101.2Z" fill="#303030"/>
<path fill-rule="evenodd" clip-rule="evenodd" d="M134.887 101.2H136.637V95.7002H134.887V101.2Z" fill="#303030"/>
<path fill-rule="evenodd" clip-rule="evenodd" d="M138.637 101.2H140.387V95.7002H138.637V101.2Z" fill="#303030"/>
<path fill-rule="evenodd" clip-rule="evenodd" d="M142.387 101.2H144.137V95.7002H142.387V101.2Z" fill="#303030"/>
<path fill-rule="evenodd" clip-rule="evenodd" d="M127.387 285.95H129.137V274.95H127.387V285.95Z" fill="#303030"/>
<path fill-rule="evenodd" clip-rule="evenodd" d="M131.137 285.95H132.887V274.95H131.137V285.95Z" fill="#303030"/>
<path fill-rule="evenodd" clip-rule="evenodd" d="M134.887 285.95H136.637V274.95H134.887V285.95Z" fill="#303030"/>
<path fill-rule="evenodd" clip-rule="evenodd" d="M138.637 285.95H140.387V274.95H138.637V285.95Z" fill="#303030"/>
<path fill-rule="evenodd" clip-rule="evenodd" d="M142.387 285.95H144.137V274.95H142.387V285.95Z" fill="#303030"/>
<path fill-rule="evenodd" clip-rule="evenodd" d="M587.302 323.319H371.938C367.851 323.319 364.506 319.975 364.506 315.888V314.601C364.506 310.514 367.851 307.17 371.938 307.17H587.302C591.389 307.17 594.733 310.514 594.733 314.601V315.888C594.733 319.975 591.389 323.319 587.302 323.319" fill="#D5DAE2"/>
<path fill-rule="evenodd" clip-rule="evenodd" d="M583.108 312.856H377.597C373.127 312.856 369.469 309.199 369.469 304.729V103.443C369.469 98.9734 373.127 95.3164 377.597 95.3164H583.108C587.578 95.3164 591.235 98.9734 591.235 103.443V304.729C591.235 309.199 587.578 312.856 583.108 312.856" fill="#444444"/>
<path fill-rule="evenodd" clip-rule="evenodd" d="M442.824 294.45H396.989C392.127 294.45 388.148 290.471 388.148 285.609V92.841C388.148 87.979 392.127 84 396.989 84H442.824C447.687 84 451.665 87.979 451.665 92.841V285.609C451.665 290.471 447.687 294.45 442.824 294.45" fill="#232323"/>
<path fill-rule="evenodd" clip-rule="evenodd" d="M467.857 166.815H568.603V115.496H467.857V166.815Z" fill="#6F7B84"/>
<path fill-rule="evenodd" clip-rule="evenodd" d="M506.097 115.688L556.238 167.081H568.941V115.496L506.097 115.688Z" fill="#626E78"/>
<path fill-rule="evenodd" clip-rule="evenodd" d="M490.75 194.458C490.75 199.612 486.572 203.79 481.418 203.79C476.265 203.79 472.087 199.612 472.087 194.458C472.087 189.304 476.265 185.126 481.418 185.126C486.572 185.126 490.75 189.304 490.75 194.458" fill="#232323"/>
<path fill-rule="evenodd" clip-rule="evenodd" d="M527.562 194.458C527.562 199.612 523.384 203.79 518.23 203.79C513.077 203.79 508.899 199.612 508.899 194.458C508.899 189.304 513.077 185.126 518.23 185.126C523.384 185.126 527.562 189.304 527.562 194.458" fill="#232323"/>
<path fill-rule="evenodd" clip-rule="evenodd" d="M564.374 194.458C564.374 199.612 560.196 203.79 555.042 203.79C549.889 203.79 545.711 199.612 545.711 194.458C545.711 189.304 549.889 185.126 555.042 185.126C560.196 185.126 564.374 189.304 564.374 194.458" fill="#232323"/>
<path fill-rule="evenodd" clip-rule="evenodd" d="M490.75 225.123C490.75 230.277 486.572 234.455 481.418 234.455C476.265 234.455 472.087 230.277 472.087 225.123C472.087 219.969 476.265 215.791 481.418 215.791C486.572 215.791 490.75 219.969 490.75 225.123" fill="#232323"/>
<path fill-rule="evenodd" clip-rule="evenodd" d="M527.562 225.123C527.562 230.277 523.384 234.455 518.23 234.455C513.077 234.455 508.899 230.277 508.899 225.123C508.899 219.969 513.077 215.791 518.23 215.791C523.384 215.791 527.562 219.969 527.562 225.123" fill="#232323"/>
<path fill-rule="evenodd" clip-rule="evenodd" d="M564.374 225.123C564.374 230.277 560.196 234.455 555.042 234.455C549.889 234.455 545.711 230.277 545.711 225.123C545.711 219.969 549.889 215.791 555.042 215.791C560.196 215.791 564.374 219.969 564.374 225.123" fill="#232323"/>
<path fill-rule="evenodd" clip-rule="evenodd" d="M490.75 255.789C490.75 260.943 486.572 265.121 481.418 265.121C476.265 265.121 472.087 260.943 472.087 255.789C472.087 250.635 476.265 246.457 481.418 246.457C486.572 246.457 490.75 250.635 490.75 255.789" fill="#232323"/>
<path fill-rule="evenodd" clip-rule="evenodd" d="M527.562 255.789C527.562 260.943 523.384 265.121 518.23 265.121C513.077 265.121 508.899 260.943 508.899 255.789C508.899 250.635 513.077 246.457 518.23 246.457C523.384 246.457 527.562 250.635 527.562 255.789" fill="#232323"/>
<path fill-rule="evenodd" clip-rule="evenodd" d="M564.374 255.789C564.374 260.943 560.196 265.121 555.042 265.121C549.889 265.121 545.711 260.943 545.711 255.789C545.711 250.635 549.889 246.457 555.042 246.457C560.196 246.457 564.374 250.635 564.374 255.789" fill="#232323"/>
<path fill-rule="evenodd" clip-rule="evenodd" d="M442.824 294.45H396.989C392.127 294.45 388.148 290.471 388.148 285.609V92.841C388.148 87.979 392.127 84 396.989 84H442.824C447.687 84 451.665 87.979 451.665 92.841V285.609C451.665 290.471 447.687 294.45 442.824 294.45" fill="#232323"/>
<path fill-rule="evenodd" clip-rule="evenodd" d="M421.001 290.071C419.008 287.394 414.452 290.006 416.471 292.719C417.46 294.046 418.201 295.554 418.782 297.101C419.035 297.774 419.503 298.758 419.516 299.466C419.529 300.174 419.144 300.868 418.611 301.359C417.715 299.735 416.288 298.327 414.29 297.389C412.53 296.563 410.354 297.533 410.343 299.654C410.326 302.889 412.125 305.328 414.525 306.472C414.4 307.276 413.994 308.083 413.246 308.819C411.646 310.392 410.28 310.315 408.798 309.782C409.002 308.291 408.786 306.753 408.038 305.404C406.636 302.877 403.098 301.133 400.584 303.243C397.993 305.418 399.729 309.107 401.631 311.412C401.132 311.938 400.5 312.381 399.416 312.742C397.605 313.346 395.601 313.52 393.712 313.218C392.539 313.031 391.652 312.527 390.741 312.014C390.857 311.705 390.967 311.394 391.045 311.069C391.751 308.119 390.389 304.489 387.154 303.962C384.294 303.495 382.289 305.869 382.249 308.6C382.229 309.963 382.677 311.268 383.393 312.447C382.776 312.787 382.182 313.098 381.374 313.249C379.795 313.544 378.662 313.272 377.721 312.703C378.558 312.201 379.254 311.45 379.735 310.39C382.309 304.72 373.484 302.019 370.857 307.074C370.148 306.86 369.416 306.66 368.809 306.286C368.366 306.072 368.028 305.786 367.687 305.428C367.087 305.064 366.68 304.605 366.568 304.052C368.155 303.836 369.772 303.071 371.305 301.589C372.26 300.667 372.38 298.783 371.305 297.88C368.443 295.476 365.277 295.926 363.199 297.78C362.394 297.054 361.773 296.039 361.489 295.05C361.204 294.059 361.11 292.957 361.14 291.931C361.156 291.81 361.17 291.69 361.185 291.569C362.013 291.653 362.914 291.555 363.88 291.239C366.33 290.437 369.573 288.284 368.204 285.314C366.942 282.576 363.15 282.272 360.617 283.356C360.611 283.329 360.601 283.302 360.595 283.275C360.298 281.612 360.184 280.456 361.135 279.061C362.649 276.84 365.573 276.261 368.095 276.127C368.568 276.102 369.147 275.968 369.147 275.771V271.105C369.147 270.946 368.569 270.856 368.095 270.881C364.017 271.097 359.468 272.291 356.802 275.652C354.187 278.949 354.855 283.429 356.197 287.137C356.303 287.429 356.444 287.706 356.571 287.975C355.974 289.648 355.786 291.501 355.868 293.211C356.044 296.937 358.093 300.535 360.916 302.526C360.848 303.65 361.047 304.843 361.583 306.032C362.708 308.529 366.571 311.46 370.512 312.79C372.295 317.875 379.728 319.703 384.705 317.758C385.614 317.403 386.488 316.914 387.296 316.332C387.416 316.408 387.536 316.485 387.656 316.556C393.087 319.755 401.553 319.295 406.204 314.759C408.181 315.548 410.374 315.781 412.446 315.24C416.81 314.1 419.32 310.581 419.706 306.871C420.864 306.52 421.989 305.878 422.984 304.867C426.913 300.869 423.845 293.891 421.001 290.071" fill="#232323"/>
</svg>
