<?xml version="1.0" encoding="UTF-8"?>
<svg width="591px" height="329px" viewBox="0 0 591 329" version="1.1" xmlns="http://www.w3.org/2000/svg" xmlns:xlink="http://www.w3.org/1999/xlink">
    <title>protetor_surto_filtro</title>
    <g id="Page-1" stroke="none" stroke-width="1" fill="none" fill-rule="evenodd">
        <g id="protetor_surto_filtro" transform="translate(35.000000, 44.663170)">
            <g id="microfiltro-00-copy" transform="translate(0.000000, 34.000000)">
                <g id="Group-2" transform="translate(0.000000, 6.918777)">
                    <path d="M66.6967421,98.2360667 L3.1326795,98.2360667 C1.40986933,98.2360667 0,96.8219766 0,95.0940087 L0,3.14205802 C0,1.41409016 1.40986933,0 3.1326795,0 L66.6967421,0 C68.4195522,0 69.8294216,1.41409016 69.8294216,3.14205802 L69.8294216,95.0940087 C69.8294216,96.8219766 68.4195522,98.2360667 66.6967421,98.2360667 Z" id="Fill-1" fill="#E6E6E6"></path>
                    <path d="M1.09038618,0 C1.09038618,0.426523713 0,1.2008283 0,2.61491846 L0,94.7429469 C0,94.7429469 0,96.2817132 1.09038618,97.0713289 L1.09038618,0 Z" id="Fill-3" fill="#CFCFCF"></path>
                    <path d="M45.4801201,60.375327 L25.2469141,60.375327 C24.6570152,60.375327 24.1739741,59.8908398 24.1739741,59.2991748 L24.1739741,39.0053953 C24.1739741,38.4137303 24.6570152,37.9292431 25.2469141,37.9292431 L45.4801201,37.9292431 C46.070019,37.9292431 46.5530601,38.4137303 46.5530601,39.0053953 L46.5530601,59.2991748 C46.5530601,59.8908398 46.070019,60.375327 45.4801201,60.375327" id="Fill-5" fill="#F2F3F5"></path>
                    <polyline id="Fill-7" fill="#E5E9EC" points="45.911913 59.736635 45.9140938 37.9292431 24.1739741 59.736635"></polyline>
                    <path d="M24.5840492,37.6565195 C24.2067756,37.6565195 23.9003771,37.9638353 23.9003771,38.3422384 L23.9003771,58.636018 C23.9003771,59.0144211 24.2067756,59.3217369 24.5840492,59.3217369 L44.8172552,59.3217369 C45.1945289,59.3217369 45.5009274,59.0144211 45.5009274,58.636018 L45.5009274,38.3422384 C45.5009274,37.9638353 45.1945289,37.6565195 44.8172552,37.6565195 L24.5840492,37.6565195 Z M44.8172552,60.1026034 L24.5840492,60.1026034 C23.7782538,60.1026034 23.1229317,59.4442257 23.1229317,58.636018 L23.1229317,38.3422384 C23.1229317,37.5340307 23.7782538,36.8756531 24.5840492,36.8756531 L44.8172552,36.8756531 C45.624141,36.8756531 46.2794631,37.5340307 46.2794631,38.3422384 L46.2794631,58.636018 C46.2794631,59.4442257 45.624141,60.1026034 44.8172552,60.1026034 L44.8172552,60.1026034 Z" id="Fill-9" fill="#5B5B5D"></path>
                    <polygon id="Fill-11" fill="#5A5A5C" points="35.0056906 41.0900134 26.2760588 41.0900134 26.2760588 50.9328683 29.5472173 50.9328683 29.5472173 54.21382 31.7279897 54.21382 31.7279897 56.4011211 35.0056906 56.4011211 38.2703068 56.4011211 38.2703068 54.21382 40.4510792 54.21382 40.4510792 50.9328683 43.7222377 50.9328683 43.7222377 41.0900134"></polygon>
                    <polygon id="Fill-13" fill="#3F4243" points="26.2760588 42.1836639 43.7222377 42.1836639 43.7222377 41.0900134 26.2760588 41.0900134"></polygon>
                    <polygon id="Fill-15" fill="#3F4243" points="26.2760588 50.6123846 29.5472173 50.6123846 29.5472173 49.5187341 26.2760588 49.5187341"></polygon>
                    <polygon id="Fill-16" fill="#3F4243" points="39.9396094 50.6123846 43.2107679 50.6123846 43.2107679 49.5187341 39.9396094 49.5187341"></polygon>
                    <polygon id="Fill-17" fill="#3F4243" points="29.4291859 53.7731549 31.6099582 53.7731549 31.6099582 52.6795044 29.4291859 52.6795044"></polygon>
                    <polygon id="Fill-19" fill="#3F4243" points="37.8375247 53.7731549 40.018297 53.7731549 40.018297 52.6795044 37.8375247 52.6795044"></polygon>
                    <polygon id="Fill-20" fill="#BDBEC2" points="32.5823129 46.389844 34.0412496 46.389844 34.0412496 41.0900134 32.5823129 41.0900134"></polygon>
                    <polygon id="Fill-21" fill="#BDBEC2" points="30.4802282 46.389844 31.9391649 46.389844 31.9391649 41.0900134 30.4802282 41.0900134"></polygon>
                    <polygon id="Fill-22" fill="#BDBEC2" points="35.73544 46.389844 37.1943767 46.389844 37.1943767 41.0900134 35.73544 41.0900134"></polygon>
                    <polygon id="Fill-23" fill="#BDBEC2" points="37.8375247 46.389844 39.2964614 46.389844 39.2964614 41.0900134 37.8375247 41.0900134"></polygon>
                </g>
                <g id="Group-5" transform="translate(211.090395, 92.222779) rotate(-3.000000) translate(-211.090395, -92.222779) translate(93.477341, 6.232103)">
                    <g id="Group-3" transform="translate(120.265534, 85.831046) rotate(28.000000) translate(-120.265534, -85.831046) translate(11.528937, 46.996547)">
                        <path d="M125.052669,11.1207856 C105.631801,6.10092958 87.3471148,18.7413426 71.0567452,30.0157861 C60.4232992,37.3749606 50.3797521,44.3262035 41.2706659,45.7916952 C17.8011937,49.5669769 6.38485033,38.0322446 5.87673037,37.5029177 C4.58680352,36.1402291 2.43656196,36.0800784 1.07248885,37.3673051 C-0.298126585,38.66 -0.363549756,40.8221471 0.925286713,42.1968659 C1.49119714,42.7994673 15.0992167,56.9217768 42.3490578,52.5373318 C52.9803231,50.827956 63.6399384,43.4501894 74.9265258,35.6393372 C90.0992495,25.137011 105.731026,14.3306499 121.585241,17.3480318 L125.052669,11.1207856 Z" id="Fill-54" fill="#B5AE86"></path>
                        <polygon id="Fill-70" fill="#EDEAD3" points="211.975093 19.8176041 164.991443 0.0312784056 130.293174 7.10829109 122.249395 26.2592058 141.500163 56.1585181 188.494717 75.9492184"></polygon>
                        <polygon id="Fill-71" fill="#D8D4B6" points="164.858961 -1.10273344e-13 130.233748 7.07591904 122.113642 26.1940242 141.390579 56.1031794 156.940732 18.9292062"></polygon>
                        <polygon id="Fill-72" fill="#D8D4B6" points="120.850648 25.2911064 128.546593 6.89262321 123.051047 4.5795523 115.355101 22.9780354"></polygon>
                        <path d="M216.493545,29.2745097 L198.392044,72.5480746 C196.908028,76.0969706 192.836526,77.766975 189.298223,76.2774229 L177.829541,71.4511431 C174.291238,69.9626847 172.626218,65.8789935 174.111324,62.3311912 L192.212825,19.0565327 C193.696841,15.5087303 197.768343,13.8387259 201.305556,15.3271843 L212.775328,20.1545578 C216.313631,21.6430162 217.97756,25.7267074 216.493545,29.2745097" id="Fill-73" fill="#D8D4B6"></path>
                        <polygon id="Fill-74" fill="#F2F3F5" points="203.947452 51.8528159 195.973458 70.9162386 176.966937 62.9183722 184.940931 43.8549495"></polygon>
                        <polyline id="Fill-75" fill="#E5E9EC" points="203.396807 52.0275813 184.932208 44.2550068 195.650704 70.5441787"></polyline>
                        <path d="M177.436021,62.7255616 L195.781768,70.4456408 L203.478804,52.0449703 L185.133057,44.3248911 L177.436021,62.7255616 Z M204.278057,51.9924751 L196.304063,71.0548041 C196.226646,71.2385374 196.017292,71.3249358 195.834107,71.2472866 L176.828676,63.2494202 C176.645491,63.1728646 176.55935,62.9617901 176.636768,62.7791504 L184.610762,43.7157278 C184.687089,43.5330881 184.897533,43.4466897 185.079628,43.5232453 L204.086149,51.5211117 C204.268244,51.5976672 204.354384,51.8087418 204.278057,51.9924751 L204.278057,51.9924751 Z" id="Fill-76" fill="#5B5B5D"></path>
                        <polygon id="Fill-77" fill="#5A5A5C" points="184.35354 54.8291859 181.346255 62.0188446 189.340966 65.3829137 190.459702 62.7100317 193.124606 63.8310235 193.86934 62.0494668 196.534244 63.1704586 197.678059 60.4363322 198.770626 57.8246947 196.105722 56.7037029 197.223368 54.030821 194.558464 52.9087355 195.304288 51.1271788 187.309577 47.7631097"></polygon>
                        <polygon id="Fill-78" fill="#3F4243" points="181.479173 61.7005923 181.479173 61.7005923 187.418506 47.5017272"></polygon>
                        <polygon id="Fill-79" fill="#3F4243" points="189.341075 65.3826949 189.341075 65.3826949 190.458721 62.709813"></polygon>
                        <polygon id="Fill-80" fill="#3F4243" points="194.5589 52.9089543 194.5589 52.9089543 195.304724 51.1273975"></polygon>
                        <polygon id="Fill-81" fill="#3F4243" points="192.235832 63.4574325 193.124497 63.831461 193.869231 62.0488106 192.981657 61.6758758"></polygon>
                        <polygon id="Fill-82" fill="#3F4243" points="195.646233 62.7968676 196.534898 63.1708961 198.77128 57.8251322 197.882615 57.4511037"></polygon>
                        <polygon id="Fill-83" fill="#3F4243" points="195.217493 56.3295651 196.106158 56.7035936 197.223804 54.0307116 196.335139 53.6566831"></polygon>
                        <polygon id="Fill-84" fill="#BDBEC2" points="188.365616 56.9398221 187.845501 58.1833027 183.357472 56.2945682 183.877586 55.0510876"></polygon>
                        <polygon id="Fill-85" fill="#BDBEC2" points="187.510535 58.984183 186.990421 60.2276637 182.502391 58.3389292 183.022505 57.0954485"></polygon>
                        <polygon id="Fill-86" fill="#BDBEC2" points="189.220806 54.8954611 188.700691 56.1389418 184.213752 54.2502073 184.732776 53.0067266"></polygon>
                        <polygon id="Fill-87" fill="#BDBEC2" points="190.075995 52.8512095 189.555881 54.0946902 185.068942 52.2059557 185.587966 50.962475"></polygon>
                        <polygon id="Fill-88" fill="#F2F3F5" points="213.637714 28.6873288 205.66372 47.7507514 186.657199 39.752885 194.631193 20.6894623"></polygon>
                        <polyline id="Fill-89" fill="#E5E9EC" points="213.087069 28.8620941 194.62247 21.0895197 205.340966 47.3786915"></polyline>
                        <path d="M187.126283,39.5600744 L205.47203,47.2801536 L213.169066,28.8794832 L194.823319,21.159404 L187.126283,39.5600744 Z M213.968319,28.8269879 L205.994325,47.889317 C205.916908,48.0730503 205.707554,48.1594487 205.524369,48.0817995 L186.518938,40.083933 C186.335753,40.0073775 186.249612,39.7963029 186.32703,39.6136633 L194.301024,20.5502406 C194.377351,20.367601 194.587795,20.2812026 194.76989,20.3577581 L213.776411,28.3556246 C213.958506,28.4321801 214.044646,28.6432546 213.968319,28.8269879 L213.968319,28.8269879 Z" id="Fill-90" fill="#5B5B5D"></path>
                        <polygon id="Fill-91" fill="#5A5A5C" points="194.043693 31.6636987 191.036408 38.8533574 199.031119 42.2174265 200.149855 39.5445446 202.814759 40.6655364 203.559493 38.8839796 206.224397 40.0049714 207.368212 37.2708451 208.460779 34.6592076 205.795875 33.5382158 206.914611 30.8653338 204.248617 29.7432484 204.994441 27.9616916 196.99973 24.5976225"></polygon>
                        <polygon id="Fill-92" fill="#3F4243" points="191.169326 38.5351051 191.169326 38.5351051 197.108659 24.3362401"></polygon>
                        <polygon id="Fill-93" fill="#3F4243" points="199.031337 42.2172078 199.031337 42.2172078 200.148983 39.5443258"></polygon>
                        <polygon id="Fill-94" fill="#3F4243" points="204.249162 29.7434671 204.249162 29.7434671 204.994986 27.9619104"></polygon>
                        <polygon id="Fill-95" fill="#3F4243" points="201.926094 40.2919454 202.814759 40.6659738 203.559493 38.8833234 202.671919 38.5103886"></polygon>
                        <polygon id="Fill-96" fill="#3F4243" points="205.336495 39.6313804 206.22516 40.0054089 208.461542 34.659645 207.572877 34.2856165"></polygon>
                        <polygon id="Fill-97" fill="#3F4243" points="204.907646 33.1640779 205.796311 33.5381064 206.913957 30.8652245 206.025292 30.491196"></polygon>
                        <polygon id="Fill-98" fill="#BDBEC2" points="198.055878 33.7743349 197.535763 35.0178156 193.047734 33.1290811 193.567848 31.8856004"></polygon>
                        <polygon id="Fill-99" fill="#BDBEC2" points="197.200688 35.8186959 196.680574 37.0621766 192.193634 35.1734421 192.712658 33.9299614"></polygon>
                        <polygon id="Fill-100" fill="#BDBEC2" points="198.911068 31.7300833 198.390953 32.973564 193.902924 31.0848295 194.423038 29.8413488"></polygon>
                        <polygon id="Fill-101" fill="#BDBEC2" points="199.766148 29.6857223 199.246034 30.929203 194.759095 29.0404685 195.278119 27.7969879"></polygon>
                    </g>
                    <g id="Group-4" transform="translate(20.816028, 26.706811) rotate(-31.000000) translate(-20.816028, -26.706811) translate(8.056121, 7.844340)">
                        <path d="M15.1525801,36.8861827 C15.1347662,32.8477511 15.2701525,29.1988224 15.3993039,27.1086179 C15.5168762,25.2027881 14.0632546,23.5621196 12.1527042,23.4452598 C10.2368095,23.3246591 8.59792241,24.7770337 8.47945938,26.6836651 C8.45630119,27.0632813 8.19621693,31.4208505 8.21759372,36.8861827 L15.1525801,36.8861827 Z" id="Path" fill="#3E3F41"></path>
                        <path d="M22.406437,34.9569276 L2.05484378,34.9569276 C0.966408973,34.9569276 0.0748187592,34.0671188 0.0748187592,32.9804653 L0.0748187592,4.00556479 C0.0748187592,2.91971301 0.966408973,2.03061675 2.05484378,2.03061675 L22.406437,2.03061675 C23.4957625,2.03061675 24.3873527,2.91971301 24.3873527,4.00556479 L24.3873527,32.9804653 C24.3873527,34.0671188 23.4957625,34.9569276 22.406437,34.9569276 Z" id="Path" fill="#F2F3F5"></path>
                        <path d="M1.54091016,2.0562689 C0.77045508,2.20305618 2.53152028e-14,3.02223252 2.53152028e-14,4.00592107 L2.53152028e-14,32.981356 C2.53152028e-14,33.9646883 0.77045508,34.7841319 1.54091016,34.9310973 L1.54091016,2.0562689 Z" id="Path" fill="#CFCFCF"></path>
                        <path d="M23.1083082,34.9310973 C23.8778726,34.7841319 24.6483277,33.9646883 24.6483277,32.981356 L24.6483277,4.00592107 C24.6483277,3.02223252 23.8778726,2.20305618 23.1083082,2.0562689 L23.1083082,34.9310973 Z" id="Path" fill="#CFCFCF"></path>
                        <path d="M19.2569235,2.30539755 L19.2569235,1.45477952 C19.2569235,0.654753213 18.9816974,-5.06304056e-14 18.1791771,-5.06304056e-14 L6.2438036,-5.06304056e-14 C5.44217403,-5.06304056e-14 4.62273048,0.654753213 4.62273048,1.45477952 L4.62273048,2.30539755 L19.2569235,2.30539755 Z" id="Path" fill="#CFCFCF"></path>
                        <polygon id="Path" fill="#E3E4E7" points="4.80532388 20.3598767 19.6559569 20.3598767 19.6559569 5.54300122 4.80532388 5.54300122"></polygon>
                        <polygon id="Path" fill="#8D8F90" points="6.426397 15.6259869 8.53022925 15.6259869 8.53022925 5.54211052 6.426397 5.54211052"></polygon>
                        <polygon id="Path" fill="#BDBEC2" points="6.83700947 15.6258979 8.52844785 15.6258979 8.52844785 5.95396997 6.83700947 5.95396997"></polygon>
                        <polygon id="Path" fill="#8D8F90" points="9.59639657 15.6259869 11.6993381 15.6259869 11.6993381 5.54211052 9.59639657 5.54211052"></polygon>
                        <polygon id="Path" fill="#BDBEC2" points="10.007009 15.6258979 11.6984474 15.6258979 11.6984474 5.95396997 10.007009 5.95396997"></polygon>
                        <polygon id="Path" fill="#8D8F90" points="12.7655054 15.6259869 14.8693377 15.6259869 14.8693377 5.54211052 12.7655054 5.54211052"></polygon>
                        <polygon id="Path" fill="#BDBEC2" points="13.1761179 15.6258979 14.8675563 15.6258979 14.8675563 5.95396997 13.1761179 5.95396997"></polygon>
                        <polygon id="Path" fill="#8D8F90" points="15.9337236 15.6259869 18.0375559 15.6259869 18.0375559 5.54211052 15.9337236 5.54211052"></polygon>
                        <polygon id="Path" fill="#BDBEC2" points="16.3461175 15.6258979 18.0375559 15.6258979 18.0375559 5.95396997 16.3461175 5.95396997"></polygon>
                        <path d="M18.81959,30.2646335 L5.62476743,30.2646335 C5.17496418,30.2646335 4.80710528,29.8972199 4.80710528,29.4484855 L4.80710528,23.97389 C4.80710528,23.5250665 5.17496418,23.157742 5.62476743,23.157742 L18.81959,23.157742 C19.2693933,23.157742 19.6372522,23.5250665 19.6372522,23.97389 L19.6372522,29.4484855 C19.6372522,29.8972199 19.2693933,30.2646335 18.81959,30.2646335 Z" id="Path" fill="#5A5A5C"></path>
                        <path d="M19.2560328,26.340924 L19.2560328,29.4686153 C19.2560328,29.4686153 19.540166,29.9703463 18.8186993,29.9703463 L5.61051624,29.9703463 C5.61051624,29.9703463 18.4855777,29.5784385 19.2560328,26.340924 Z" id="Path" fill="#3E3F41"></path>
                    </g>
                </g>
                <ellipse id="Oval" fill="#D5DAE2" cx="272.037344" cy="183.285279" rx="43.9726644" ry="10.2430444"></ellipse>
            </g>
            <g id="Group-2" transform="translate(455.167832, 119.004662) rotate(-270.000000) translate(-455.167832, -119.004662) translate(337.000000, 70.184149)">
                <g id="XMLID_66_" transform="translate(64.909091, 59.361305) scale(1, -1) rotate(-77.000000) translate(-64.909091, -59.361305) translate(39.944056, -1.109557)" fill-rule="nonzero">
                    <g id="XMLID_90_" transform="translate(0.000000, 30.193932)" fill="#8B8C8D">
                        <path d="M15.7508534,80.0912919 C17.3766079,78.3306082 19.2042843,76.3227117 21.1225426,74.1421437 C30.7157209,63.2402471 42.5423067,48.031941 43.249977,38.6104906 C44.1265446,26.9528022 37.0262527,4.1601577 36.7233699,3.195839 C36.0213609,0.958657343 33.6435888,-0.291560156 31.4007458,0.416110126 C29.1635641,1.11717549 27.919008,3.500609 28.6200733,5.73779065 C30.5468236,11.8803687 35.4080467,29.6438364 34.7824662,37.9745309 C34.3946628,43.1320319 27.1745388,53.8169096 17.9333085,64.8216543 C15.6234727,67.5730764 13.1881434,70.3443132 10.7169588,73.0617671 C-6.9059184,90.07133 0.17550223,95.1231522 15.7508534,80.0912919 Z" id="XMLID_91_"></path>
                    </g>
                    <path d="M31.7970411,47.5129828 C30.6279698,42.6932764 29.3900186,38.3849797 28.6210169,35.9307791 C27.9199515,33.6935975 29.1645077,31.310164 31.4016893,30.6090986 C33.6445323,29.9014283 36.0213609,31.1516458 36.7243134,33.3888275 C36.8639604,33.8351315 38.4576338,38.9511159 40.0437588,45.4730052 L31.7970411,47.5129828 Z" id="XMLID_89_" fill="#3E3F41"></path>
                    <g id="XMLID_67_" transform="translate(10.379164, 0.000000)">
                        <g id="XMLID_85_" transform="translate(0.000000, 1.887121)">
                            <path d="M12.220994,45.4597954 L36.4223741,39.4738484 C37.7178825,39.1539814 38.515191,37.8320533 38.1943805,36.5365449 L29.653272,2.000348 C29.333405,0.704839601 28.0114769,-0.0924689169 26.7159685,0.228341611 L2.5145884,6.21334508 C1.21908001,6.53321205 0.421771488,7.85514014 0.742582016,9.15064853 L9.28369055,43.6868454 C9.60355751,44.9823538 10.9254856,45.7796624 12.220994,45.4597954 Z" id="XMLID_88_" fill="#F2F3F5"></path>
                            <path d="M27.3358877,0.107565883 C28.2954886,0.0556700622 29.4522936,0.805800562 29.7429102,1.97864611 L38.2840187,36.514843 C38.5736918,37.6876886 37.8999896,38.890728 37.0271963,39.2917412 L27.3358877,0.107565883 Z" id="XMLID_87_" fill="#CFCFCF"></path>
                            <path d="M11.3802817,45.6352976 C10.4206808,45.6871934 9.26387578,44.9370629 8.97325918,43.7642174 L0.432150652,9.22802048 C0.142477617,8.05517494 0.816179726,6.85213546 1.68897307,6.4511223 L11.3802817,45.6352976 Z" id="XMLID_86_" fill="#CFCFCF"></path>
                        </g>
                        <path d="M6.34261285,7.50224855 L6.09162579,6.48792115 C5.8557357,5.53492517 5.99066483,4.67345455 6.94366081,4.43756445 L21.1376396,0.92657629 C22.0906355,0.690686196 23.2587633,1.23040273 23.4946534,2.18339871 L23.7456404,3.19772612 L6.34261285,7.50224855 Z" id="XMLID_84_" fill="#CFCFCF"></path>
                        <polygon id="XMLID_83_" fill="#E3E4E7" transform="translate(17.815291, 18.124255) rotate(166.108271) translate(-17.815291, -18.124255) " points="8.7184391 9.02740294 26.9121423 9.02740294 26.9121423 27.2211061 8.7184391 27.2211061"></polygon>
                        <g id="XMLID_70_" transform="translate(8.492043, 7.548483)">
                            <g id="XMLID_80_" transform="translate(11.322725, 0.000000)">
                                <polygon id="XMLID_82_" fill="#8D8F90" transform="translate(2.957107, 6.356865) rotate(166.108271) translate(-2.957107, -6.356865) " points="1.66861074 0.165854114 4.24560381 0.165854114 4.24560381 12.5478765 1.66861074 12.5478765"></polygon>
                                <polygon id="XMLID_81_" fill="#BDBEC2" transform="translate(2.772452, 6.663071) rotate(166.108271) translate(-2.772452, -6.663071) " points="1.73637014 0.724946413 3.808533 0.724946413 3.808533 12.6011949 1.73637014 12.6011949"></polygon>
                            </g>
                            <g id="XMLID_77_" transform="translate(7.548483, 0.943560)">
                                <polygon id="XMLID_79_" fill="#8D8F90" transform="translate(2.962700, 6.345307) rotate(166.108271) translate(-2.962700, -6.345307) " points="1.67420341 0.154295594 4.25119648 0.154295594 4.25119648 12.5363179 1.67420341 12.5363179"></polygon>
                                <polygon id="XMLID_78_" fill="#BDBEC2" transform="translate(2.777034, 6.651739) rotate(166.108271) translate(-2.777034, -6.651739) " points="1.74095244 0.713614442 3.8131153 0.713614442 3.8131153 12.589863 1.74095244 12.589863"></polygon>
                            </g>
                            <g id="XMLID_74_" transform="translate(3.774242, 1.887121)">
                                <polygon id="XMLID_76_" fill="#8D8F90" transform="translate(2.967282, 6.333975) rotate(166.108271) translate(-2.967282, -6.333975) " points="1.67878572 0.142963622 4.25577879 0.142963622 4.25577879 12.524986 1.67878572 12.524986"></polygon>
                                <polygon id="XMLID_75_" fill="#BDBEC2" transform="translate(2.782532, 6.640180) rotate(166.108271) translate(-2.782532, -6.640180) " points="1.74645076 0.702055922 3.81861362 0.702055922 3.81861362 12.5783044 1.74645076 12.5783044"></polygon>
                            </g>
                            <g id="XMLID_71_" transform="translate(0.000000, 2.830681)">
                                <polygon id="XMLID_73_" fill="#8D8F90" transform="translate(2.972686, 6.322322) rotate(166.108271) translate(-2.972686, -6.322322) " points="1.68418968 0.131310746 4.26118274 0.131310746 4.26118274 12.5133331 1.68418968 12.5133331"></polygon>
                                <polygon id="XMLID_72_" fill="#BDBEC2" transform="translate(2.787936, 6.628527) rotate(166.108271) translate(-2.787936, -6.628527) " points="1.75185472 0.690403045 3.82401758 0.690403045 3.82401758 12.5666516 1.75185472 12.5666516"></polygon>
                            </g>
                        </g>
                        <path d="M15.1054581,40.6985897 L30.7959236,36.8177259 C31.3309223,36.6856274 31.6602249,36.139306 31.5281264,35.6043073 L29.9146382,29.0786437 C29.7825397,28.543645 29.2362183,28.2143424 28.7012195,28.3464408 L13.010754,32.2273047 C12.4757553,32.3594031 12.1464527,32.9057246 12.2785512,33.4407233 L13.8920394,39.9663869 C14.0241379,40.5013856 14.5704593,40.8306882 15.1054581,40.6985897 Z" id="XMLID_69_" fill="#5A5A5C"></path>
                        <path d="M13.4278077,36.1506287 L14.3496662,39.8786358 C14.3496662,39.8786358 14.159067,40.5598863 15.017707,40.3475853 C15.8763469,40.1352842 30.724213,36.4629472 30.724213,36.4629472 C30.724213,36.4629472 15.2979444,39.7833362 13.4278077,36.1506287 Z" id="XMLID_68_" fill="#3E3F41"></path>
                    </g>
                </g>
                <rect id="Rectangle" fill="#232323" x="94.375221" y="0.447467248" width="141.140138" height="89.8741259" rx="5"></rect>
                <rect id="Rectangle-Copy" fill="#5E5E5E" x="169.825104" y="9.87870268" width="55.4778555" height="71.011655" rx="5"></rect>
                <circle id="Oval" fill="#FF0000" cx="131.267995" cy="45.1071409" r="3.60606061"></circle>
            </g>
        </g>
    </g>
</svg>