<svg width="600" height="364" viewBox="0 0 600 364" fill="none" xmlns="http://www.w3.org/2000/svg">
<rect width="600" height="364" fill="#F3F3F3"/>
<path fill-rule="evenodd" clip-rule="evenodd" d="M153.434 302.353H50.8292C46.5642 302.353 43.0742 298.863 43.0742 294.598C43.0742 290.333 46.5642 286.843 50.8292 286.843H153.434C157.699 286.843 161.189 290.333 161.189 294.598C161.189 298.863 157.699 302.353 153.434 302.353Z" fill="#D5DAE2"/>
<path fill-rule="evenodd" clip-rule="evenodd" d="M147.249 293.969H56.7622C54.4812 293.969 52.6152 292.103 52.6152 289.823V199.335C52.6152 197.055 54.4812 195.189 56.7622 195.189H147.249C149.529 195.189 151.395 197.055 151.395 199.335V289.823C151.395 292.103 149.529 293.969 147.249 293.969" fill="#444444"/>
<path fill-rule="evenodd" clip-rule="evenodd" d="M123.915 275.411H80.0954C74.5334 275.411 69.9834 270.86 69.9834 265.299V73.3249C69.9834 67.7639 74.5334 63.2129 80.0954 63.2129H123.915C129.477 63.2129 134.027 67.7639 134.027 73.3249V265.299C134.027 270.86 129.477 275.411 123.915 275.411" fill="#232323"/>
<path fill-rule="evenodd" clip-rule="evenodd" d="M88.1522 160.794C88.1522 163.392 86.0462 165.499 83.4472 165.499C80.8492 165.499 78.7432 163.392 78.7432 160.794C78.7432 158.196 80.8492 156.089 83.4472 156.089C86.0462 156.089 88.1522 158.196 88.1522 160.794" fill="#444444"/>
<path fill-rule="evenodd" clip-rule="evenodd" d="M106.711 160.794C106.711 163.392 104.605 165.499 102.006 165.499C99.4078 165.499 97.3018 163.392 97.3018 160.794C97.3018 158.196 99.4078 156.089 102.006 156.089C104.605 156.089 106.711 158.196 106.711 160.794" fill="#444444"/>
<path fill-rule="evenodd" clip-rule="evenodd" d="M125.27 160.794C125.27 163.392 123.164 165.499 120.565 165.499C117.967 165.499 115.861 163.392 115.861 160.794C115.861 158.196 117.967 156.089 120.565 156.089C123.164 156.089 125.27 158.196 125.27 160.794" fill="#444444"/>
<path fill-rule="evenodd" clip-rule="evenodd" d="M88.1512 175.934C88.1512 178.532 86.0452 180.639 83.4462 180.639C80.8482 180.639 78.7422 178.532 78.7422 175.934C78.7422 173.336 80.8482 171.229 83.4462 171.229C86.0452 171.229 88.1512 173.336 88.1512 175.934" fill="#444444"/>
<path fill-rule="evenodd" clip-rule="evenodd" d="M106.711 175.934C106.711 178.532 104.605 180.639 102.006 180.639C99.4078 180.639 97.3018 178.532 97.3018 175.934C97.3018 173.336 99.4078 171.229 102.006 171.229C104.605 171.229 106.711 173.336 106.711 175.934" fill="#444444"/>
<path fill-rule="evenodd" clip-rule="evenodd" d="M125.269 175.934C125.269 178.532 123.163 180.639 120.564 180.639C117.966 180.639 115.86 178.532 115.86 175.934C115.86 173.336 117.966 171.229 120.564 171.229C123.163 171.229 125.269 173.336 125.269 175.934" fill="#444444"/>
<path fill-rule="evenodd" clip-rule="evenodd" d="M88.1512 191.074C88.1512 193.672 86.0452 195.779 83.4462 195.779C80.8482 195.779 78.7422 193.672 78.7422 191.074C78.7422 188.476 80.8482 186.369 83.4462 186.369C86.0452 186.369 88.1512 188.476 88.1512 191.074" fill="#444444"/>
<path fill-rule="evenodd" clip-rule="evenodd" d="M106.711 191.074C106.711 193.672 104.605 195.779 102.006 195.779C99.4078 195.779 97.3018 193.672 97.3018 191.074C97.3018 188.476 99.4078 186.369 102.006 186.369C104.605 186.369 106.711 188.476 106.711 191.074" fill="#444444"/>
<path fill-rule="evenodd" clip-rule="evenodd" d="M125.269 191.074C125.269 193.672 123.163 195.779 120.564 195.779C117.966 195.779 115.86 193.672 115.86 191.074C115.86 188.476 117.966 186.369 120.564 186.369C123.163 186.369 125.269 188.476 125.269 191.074" fill="#444444"/>
<path fill-rule="evenodd" clip-rule="evenodd" d="M88.1512 206.215C88.1512 208.813 86.0452 210.92 83.4462 210.92C80.8482 210.92 78.7422 208.813 78.7422 206.215C78.7422 203.617 80.8482 201.51 83.4462 201.51C86.0452 201.51 88.1512 203.617 88.1512 206.215" fill="#444444"/>
<path fill-rule="evenodd" clip-rule="evenodd" d="M106.711 206.215C106.711 208.813 104.605 210.92 102.006 210.92C99.4078 210.92 97.3018 208.813 97.3018 206.215C97.3018 203.617 99.4078 201.51 102.006 201.51C104.605 201.51 106.711 203.617 106.711 206.215" fill="#444444"/>
<path fill-rule="evenodd" clip-rule="evenodd" d="M125.269 206.215C125.269 208.813 123.163 210.92 120.564 210.92C117.966 210.92 115.86 208.813 115.86 206.215C115.86 203.617 117.966 201.51 120.564 201.51C123.163 201.51 125.269 203.617 125.269 206.215" fill="#444444"/>
<path fill-rule="evenodd" clip-rule="evenodd" d="M78.7422 121.149H125.269V90.9697H78.7422V121.149Z" fill="#6F7B84"/>
<path fill-rule="evenodd" clip-rule="evenodd" d="M108.187 145.983H95.8252C93.2812 145.983 91.2002 143.902 91.2002 141.358V134.108C91.2002 131.564 93.2812 129.483 95.8252 129.483H108.187C110.731 129.483 112.812 131.564 112.812 134.108V141.358C112.812 143.902 110.731 145.983 108.187 145.983" fill="#444444"/>
<path fill-rule="evenodd" clip-rule="evenodd" d="M84.8817 145.983H80.6167C78.8187 145.983 77.3467 144.512 77.3467 142.713V132.753C77.3467 130.954 78.8187 129.483 80.6167 129.483H84.8817C86.6797 129.483 88.1517 130.954 88.1517 132.753V142.713C88.1517 144.512 86.6797 145.983 84.8817 145.983" fill="#444444"/>
<path fill-rule="evenodd" clip-rule="evenodd" d="M122.697 145.983H118.432C116.634 145.983 115.162 144.512 115.162 142.713V132.753C115.162 130.954 116.634 129.483 118.432 129.483H122.697C124.495 129.483 125.967 130.954 125.967 132.753V142.713C125.967 144.512 124.495 145.983 122.697 145.983" fill="#444444"/>
<path fill-rule="evenodd" clip-rule="evenodd" d="M93.6309 80.2334H95.3809V74.7334H93.6309V80.2334Z" fill="#303030"/>
<path fill-rule="evenodd" clip-rule="evenodd" d="M97.3809 80.2334H99.1309V74.7334H97.3809V80.2334Z" fill="#303030"/>
<path fill-rule="evenodd" clip-rule="evenodd" d="M101.131 80.2334H102.881V74.7334H101.131V80.2334Z" fill="#303030"/>
<path fill-rule="evenodd" clip-rule="evenodd" d="M104.881 80.2334H106.631V74.7334H104.881V80.2334Z" fill="#303030"/>
<path fill-rule="evenodd" clip-rule="evenodd" d="M108.631 80.2334H110.381V74.7334H108.631V80.2334Z" fill="#303030"/>
<path fill-rule="evenodd" clip-rule="evenodd" d="M93.6309 264.983H95.3809V253.983H93.6309V264.983Z" fill="#303030"/>
<path fill-rule="evenodd" clip-rule="evenodd" d="M97.3809 264.983H99.1309V253.983H97.3809V264.983Z" fill="#303030"/>
<path fill-rule="evenodd" clip-rule="evenodd" d="M101.131 264.983H102.881V253.983H101.131V264.983Z" fill="#303030"/>
<path fill-rule="evenodd" clip-rule="evenodd" d="M104.881 264.983H106.631V253.983H104.881V264.983Z" fill="#303030"/>
<path fill-rule="evenodd" clip-rule="evenodd" d="M108.631 264.983H110.381V253.983H108.631V264.983Z" fill="#303030"/>
<path fill-rule="evenodd" clip-rule="evenodd" d="M553.546 302.352H338.182C334.095 302.352 330.75 299.008 330.75 294.921V293.634C330.75 289.547 334.095 286.203 338.182 286.203H553.546C557.633 286.203 560.977 289.547 560.977 293.634V294.921C560.977 299.008 557.633 302.352 553.546 302.352" fill="#D5DAE2"/>
<path fill-rule="evenodd" clip-rule="evenodd" d="M549.353 291.89H343.842C339.372 291.89 335.714 288.233 335.714 283.763V82.4766C335.714 78.0066 339.372 74.3496 343.842 74.3496H549.353C553.823 74.3496 557.48 78.0066 557.48 82.4766V283.763C557.48 288.233 553.823 291.89 549.353 291.89" fill="#444444"/>
<path fill-rule="evenodd" clip-rule="evenodd" d="M409.069 273.483H363.234C358.372 273.483 354.393 269.504 354.393 264.642V71.8742C354.393 67.0122 358.372 63.0332 363.234 63.0332H409.069C413.932 63.0332 417.91 67.0122 417.91 71.8742V264.642C417.91 269.504 413.932 273.483 409.069 273.483" fill="#232323"/>
<path fill-rule="evenodd" clip-rule="evenodd" d="M434.101 145.848H534.847V94.5293H434.101V145.848Z" fill="#6F7B84"/>
<path fill-rule="evenodd" clip-rule="evenodd" d="M472.341 94.7213L522.482 146.114H535.185V94.5293L472.341 94.7213Z" fill="#626E78"/>
<path fill-rule="evenodd" clip-rule="evenodd" d="M456.994 173.491C456.994 178.645 452.816 182.823 447.662 182.823C442.509 182.823 438.331 178.645 438.331 173.491C438.331 168.337 442.509 164.159 447.662 164.159C452.816 164.159 456.994 168.337 456.994 173.491" fill="#232323"/>
<path fill-rule="evenodd" clip-rule="evenodd" d="M493.806 173.491C493.806 178.645 489.628 182.823 484.474 182.823C479.321 182.823 475.143 178.645 475.143 173.491C475.143 168.337 479.321 164.159 484.474 164.159C489.628 164.159 493.806 168.337 493.806 173.491" fill="#232323"/>
<path fill-rule="evenodd" clip-rule="evenodd" d="M530.618 173.491C530.618 178.645 526.44 182.823 521.286 182.823C516.133 182.823 511.955 178.645 511.955 173.491C511.955 168.337 516.133 164.159 521.286 164.159C526.44 164.159 530.618 168.337 530.618 173.491" fill="#232323"/>
<path fill-rule="evenodd" clip-rule="evenodd" d="M456.994 204.156C456.994 209.31 452.816 213.488 447.662 213.488C442.509 213.488 438.331 209.31 438.331 204.156C438.331 199.002 442.509 194.824 447.662 194.824C452.816 194.824 456.994 199.002 456.994 204.156" fill="#232323"/>
<path fill-rule="evenodd" clip-rule="evenodd" d="M493.806 204.156C493.806 209.31 489.628 213.488 484.474 213.488C479.321 213.488 475.143 209.31 475.143 204.156C475.143 199.002 479.321 194.824 484.474 194.824C489.628 194.824 493.806 199.002 493.806 204.156" fill="#232323"/>
<path fill-rule="evenodd" clip-rule="evenodd" d="M530.618 204.156C530.618 209.31 526.44 213.488 521.286 213.488C516.133 213.488 511.955 209.31 511.955 204.156C511.955 199.002 516.133 194.824 521.286 194.824C526.44 194.824 530.618 199.002 530.618 204.156" fill="#232323"/>
<path fill-rule="evenodd" clip-rule="evenodd" d="M456.994 234.822C456.994 239.976 452.816 244.154 447.662 244.154C442.509 244.154 438.331 239.976 438.331 234.822C438.331 229.668 442.509 225.49 447.662 225.49C452.816 225.49 456.994 229.668 456.994 234.822" fill="#232323"/>
<path fill-rule="evenodd" clip-rule="evenodd" d="M493.806 234.822C493.806 239.976 489.628 244.154 484.474 244.154C479.321 244.154 475.143 239.976 475.143 234.822C475.143 229.668 479.321 225.49 484.474 225.49C489.628 225.49 493.806 229.668 493.806 234.822" fill="#232323"/>
<path fill-rule="evenodd" clip-rule="evenodd" d="M530.618 234.822C530.618 239.976 526.44 244.154 521.286 244.154C516.133 244.154 511.955 239.976 511.955 234.822C511.955 229.668 516.133 225.49 521.286 225.49C526.44 225.49 530.618 229.668 530.618 234.822" fill="#232323"/>
<path fill-rule="evenodd" clip-rule="evenodd" d="M409.069 273.483H363.234C358.372 273.483 354.393 269.504 354.393 264.642V71.8742C354.393 67.0122 358.372 63.0332 363.234 63.0332H409.069C413.932 63.0332 417.91 67.0122 417.91 71.8742V264.642C417.91 269.504 413.932 273.483 409.069 273.483" fill="#232323"/>
<path fill-rule="evenodd" clip-rule="evenodd" d="M387.245 269.104C385.252 266.427 380.696 269.039 382.715 271.752C383.704 273.079 384.445 274.587 385.026 276.134C385.279 276.807 385.747 277.791 385.76 278.499C385.773 279.207 385.388 279.901 384.855 280.392C383.959 278.768 382.532 277.36 380.534 276.422C378.774 275.596 376.598 276.566 376.587 278.687C376.57 281.922 378.369 284.361 380.769 285.505C380.644 286.309 380.238 287.116 379.49 287.852C377.89 289.425 376.524 289.348 375.042 288.815C375.246 287.324 375.03 285.786 374.282 284.437C372.88 281.91 369.342 280.166 366.828 282.276C364.237 284.451 365.973 288.14 367.875 290.445C367.376 290.971 366.744 291.414 365.66 291.775C363.849 292.379 361.845 292.553 359.956 292.251C358.783 292.064 357.896 291.56 356.985 291.047C357.101 290.738 357.211 290.427 357.289 290.102C357.995 287.152 356.633 283.522 353.398 282.995C350.538 282.528 348.533 284.902 348.493 287.633C348.473 288.996 348.921 290.301 349.637 291.48C349.02 291.82 348.426 292.131 347.618 292.282C346.039 292.577 344.906 292.305 343.965 291.736C344.802 291.234 345.498 290.483 345.979 289.423C348.553 283.753 339.728 281.052 337.101 286.107C336.392 285.893 335.66 285.693 335.053 285.319C334.61 285.105 334.272 284.819 333.931 284.461C333.331 284.097 332.924 283.638 332.812 283.085C334.399 282.869 336.016 282.104 337.549 280.622C338.504 279.7 338.624 277.816 337.549 276.913C334.687 274.509 331.521 274.959 329.443 276.813C328.638 276.087 328.017 275.072 327.733 274.083C327.448 273.092 327.354 271.99 327.384 270.964C327.4 270.843 327.414 270.723 327.429 270.602C328.257 270.686 329.158 270.588 330.124 270.272C332.574 269.47 335.817 267.317 334.448 264.347C333.186 261.609 329.394 261.305 326.861 262.389C326.855 262.362 326.845 262.335 326.839 262.308C326.542 260.645 326.428 259.489 327.379 258.094C328.893 255.873 331.817 255.294 334.339 255.16C334.812 255.135 335.391 255.001 335.391 254.804V250.138C335.391 249.979 334.813 249.889 334.339 249.914C330.261 250.13 325.712 251.324 323.046 254.685C320.431 257.982 321.099 262.462 322.441 266.17C322.547 266.462 322.688 266.739 322.815 267.008C322.218 268.681 322.03 270.534 322.112 272.244C322.288 275.97 324.337 279.568 327.16 281.559C327.092 282.683 327.291 283.876 327.827 285.065C328.952 287.562 332.815 290.493 336.756 291.823C338.539 296.908 345.972 298.736 350.949 296.791C351.858 296.436 352.732 295.947 353.54 295.365C353.66 295.441 353.78 295.518 353.9 295.589C359.331 298.788 367.797 298.328 372.448 293.792C374.425 294.581 376.618 294.814 378.69 294.273C383.054 293.133 385.564 289.614 385.95 285.904C387.108 285.553 388.233 284.911 389.228 283.9C393.157 279.902 390.089 272.924 387.245 269.104" fill="#232323"/>
<path fill-rule="evenodd" clip-rule="evenodd" d="M175.873 146.078C196.117 147.663 215.409 149.173 236.678 150.839C231.674 145.285 227.803 140.988 223.029 135.689C250.361 129.577 273.553 135.895 294.76 153.334C284.536 125.658 253.596 110.654 210.378 112.042C208.759 106.275 207.089 100.325 204.995 92.8633C199.588 102.673 194.811 111.291 190.081 119.935C185.44 128.416 180.846 136.923 175.873 146.078" fill="#00C0D2"/>
</svg>
