<svg width="600" height="364" viewBox="0 0 600 364" fill="none" xmlns="http://www.w3.org/2000/svg">
<rect width="600" height="364" fill="#F3F3F3"/>
<path d="M190.132 251.3C190.132 251.3 262.253 210.024 301.359 268.818C340.465 327.611 437.143 329.846 437.143 231.46" stroke="#5A5657" stroke-width="5"/>
<path fill-rule="evenodd" clip-rule="evenodd" d="M198.283 317.188H95.6783C91.4133 317.188 87.9233 313.698 87.9233 309.433C87.9233 305.168 91.4133 301.678 95.6783 301.678H198.283C202.548 301.678 206.038 305.168 206.038 309.433C206.038 313.698 202.548 317.188 198.283 317.188Z" fill="#D5DAE2"/>
<path fill-rule="evenodd" clip-rule="evenodd" d="M192.098 308.804H101.611C99.3304 308.804 97.4644 306.938 97.4644 304.658V214.17C97.4644 211.89 99.3304 210.024 101.611 210.024H192.098C194.378 210.024 196.244 211.89 196.244 214.17V304.658C196.244 306.938 194.378 308.804 192.098 308.804" fill="#444444"/>
<path fill-rule="evenodd" clip-rule="evenodd" d="M168.765 290.246H124.945C119.383 290.246 114.833 285.695 114.833 280.134V88.1599C114.833 82.5989 119.383 78.0479 124.945 78.0479H168.765C174.327 78.0479 178.877 82.5989 178.877 88.1599V280.134C178.877 285.695 174.327 290.246 168.765 290.246" fill="#232323"/>
<path fill-rule="evenodd" clip-rule="evenodd" d="M133.002 175.629C133.002 178.227 130.896 180.334 128.297 180.334C125.699 180.334 123.593 178.227 123.593 175.629C123.593 173.031 125.699 170.924 128.297 170.924C130.896 170.924 133.002 173.031 133.002 175.629" fill="#444444"/>
<path fill-rule="evenodd" clip-rule="evenodd" d="M151.56 175.629C151.56 178.227 149.454 180.334 146.855 180.334C144.257 180.334 142.151 178.227 142.151 175.629C142.151 173.031 144.257 170.924 146.855 170.924C149.454 170.924 151.56 173.031 151.56 175.629" fill="#444444"/>
<path fill-rule="evenodd" clip-rule="evenodd" d="M170.119 175.629C170.119 178.227 168.013 180.334 165.414 180.334C162.816 180.334 160.71 178.227 160.71 175.629C160.71 173.031 162.816 170.924 165.414 170.924C168.013 170.924 170.119 173.031 170.119 175.629" fill="#444444"/>
<path fill-rule="evenodd" clip-rule="evenodd" d="M133 190.769C133 193.367 130.894 195.474 128.295 195.474C125.697 195.474 123.591 193.367 123.591 190.769C123.591 188.171 125.697 186.064 128.295 186.064C130.894 186.064 133 188.171 133 190.769" fill="#444444"/>
<path fill-rule="evenodd" clip-rule="evenodd" d="M151.559 190.769C151.559 193.367 149.453 195.474 146.854 195.474C144.256 195.474 142.15 193.367 142.15 190.769C142.15 188.171 144.256 186.064 146.854 186.064C149.453 186.064 151.559 188.171 151.559 190.769" fill="#444444"/>
<path fill-rule="evenodd" clip-rule="evenodd" d="M170.118 190.769C170.118 193.367 168.012 195.474 165.413 195.474C162.815 195.474 160.709 193.367 160.709 190.769C160.709 188.171 162.815 186.064 165.413 186.064C168.012 186.064 170.118 188.171 170.118 190.769" fill="#444444"/>
<path fill-rule="evenodd" clip-rule="evenodd" d="M133 205.909C133 208.507 130.894 210.614 128.295 210.614C125.697 210.614 123.591 208.507 123.591 205.909C123.591 203.311 125.697 201.204 128.295 201.204C130.894 201.204 133 203.311 133 205.909" fill="#444444"/>
<path fill-rule="evenodd" clip-rule="evenodd" d="M151.559 205.909C151.559 208.507 149.453 210.614 146.854 210.614C144.256 210.614 142.15 208.507 142.15 205.909C142.15 203.311 144.256 201.204 146.854 201.204C149.453 201.204 151.559 203.311 151.559 205.909" fill="#444444"/>
<path fill-rule="evenodd" clip-rule="evenodd" d="M170.118 205.909C170.118 208.507 168.012 210.614 165.413 210.614C162.815 210.614 160.709 208.507 160.709 205.909C160.709 203.311 162.815 201.204 165.413 201.204C168.012 201.204 170.118 203.311 170.118 205.909" fill="#444444"/>
<path fill-rule="evenodd" clip-rule="evenodd" d="M133 221.05C133 223.648 130.894 225.755 128.295 225.755C125.697 225.755 123.591 223.648 123.591 221.05C123.591 218.452 125.697 216.345 128.295 216.345C130.894 216.345 133 218.452 133 221.05" fill="#444444"/>
<path fill-rule="evenodd" clip-rule="evenodd" d="M151.559 221.05C151.559 223.648 149.453 225.755 146.854 225.755C144.256 225.755 142.15 223.648 142.15 221.05C142.15 218.452 144.256 216.345 146.854 216.345C149.453 216.345 151.559 218.452 151.559 221.05" fill="#444444"/>
<path fill-rule="evenodd" clip-rule="evenodd" d="M170.118 221.05C170.118 223.648 168.012 225.755 165.413 225.755C162.815 225.755 160.709 223.648 160.709 221.05C160.709 218.452 162.815 216.345 165.413 216.345C168.012 216.345 170.118 218.452 170.118 221.05" fill="#444444"/>
<path fill-rule="evenodd" clip-rule="evenodd" d="M123.591 135.984H170.118V105.805H123.591V135.984Z" fill="#6F7B84"/>
<path fill-rule="evenodd" clip-rule="evenodd" d="M153.036 160.818H140.674C138.13 160.818 136.049 158.737 136.049 156.193V148.943C136.049 146.399 138.13 144.318 140.674 144.318H153.036C155.58 144.318 157.661 146.399 157.661 148.943V156.193C157.661 158.737 155.58 160.818 153.036 160.818" fill="#444444"/>
<path fill-rule="evenodd" clip-rule="evenodd" d="M129.731 160.818H125.466C123.668 160.818 122.196 159.347 122.196 157.548V147.588C122.196 145.789 123.668 144.318 125.466 144.318H129.731C131.529 144.318 133.001 145.789 133.001 147.588V157.548C133.001 159.347 131.529 160.818 129.731 160.818" fill="#444444"/>
<path fill-rule="evenodd" clip-rule="evenodd" d="M167.546 160.818H163.281C161.483 160.818 160.011 159.347 160.011 157.548V147.588C160.011 145.789 161.483 144.318 163.281 144.318H167.546C169.344 144.318 170.816 145.789 170.816 147.588V157.548C170.816 159.347 169.344 160.818 167.546 160.818" fill="#444444"/>
<path fill-rule="evenodd" clip-rule="evenodd" d="M138.48 95.0684H140.23V89.5684H138.48V95.0684Z" fill="#303030"/>
<path fill-rule="evenodd" clip-rule="evenodd" d="M142.23 95.0684H143.98V89.5684H142.23V95.0684Z" fill="#303030"/>
<path fill-rule="evenodd" clip-rule="evenodd" d="M145.98 95.0684H147.73V89.5684H145.98V95.0684Z" fill="#303030"/>
<path fill-rule="evenodd" clip-rule="evenodd" d="M149.73 95.0684H151.48V89.5684H149.73V95.0684Z" fill="#303030"/>
<path fill-rule="evenodd" clip-rule="evenodd" d="M153.48 95.0684H155.23V89.5684H153.48V95.0684Z" fill="#303030"/>
<path fill-rule="evenodd" clip-rule="evenodd" d="M138.48 279.818H140.23V268.818H138.48V279.818Z" fill="#303030"/>
<path fill-rule="evenodd" clip-rule="evenodd" d="M142.23 279.818H143.98V268.818H142.23V279.818Z" fill="#303030"/>
<path fill-rule="evenodd" clip-rule="evenodd" d="M145.98 279.818H147.73V268.818H145.98V279.818Z" fill="#303030"/>
<path fill-rule="evenodd" clip-rule="evenodd" d="M149.73 279.818H151.48V268.818H149.73V279.818Z" fill="#303030"/>
<path fill-rule="evenodd" clip-rule="evenodd" d="M153.48 279.818H155.23V268.818H153.48V279.818Z" fill="#303030"/>
<path d="M306.449 152.444H230.871C228.822 152.444 227.146 150.768 227.146 148.719V39.7132C227.146 37.6645 228.822 35.9883 230.871 35.9883H306.449C308.498 35.9883 310.174 37.6645 310.174 39.7132V148.719C310.174 150.768 308.498 152.444 306.449 152.444Z" fill="#E6E6E6"/>
<path d="M296.674 109.155H240.645C239.128 109.155 237.886 107.914 237.886 106.396V82.037C237.886 80.5192 239.128 79.2773 240.645 79.2773H296.674C298.192 79.2773 299.434 80.5192 299.434 82.037V106.396C299.434 107.914 298.192 109.155 296.674 109.155Z" fill="#CFCFCF"/>
<path d="M283.633 84.8799L293.858 91.9264C295.461 93.0319 295.461 95.4008 293.858 96.5063L283.633 103.553C283.169 103.873 282.619 104.044 282.055 104.044H255.266C254.702 104.044 254.152 103.873 253.688 103.553L243.463 96.5063C241.859 95.4008 241.859 93.0319 243.463 91.9264L253.688 84.8799C254.152 84.5598 254.702 84.3887 255.266 84.3887H282.055C282.619 84.3887 283.169 84.5598 283.633 84.8799Z" fill="#E0E0E0"/>
<path d="M256.859 94.4821C258.189 94.4821 259.267 93.404 259.267 92.0741C259.267 90.7441 258.189 89.666 256.859 89.666C255.529 89.666 254.451 90.7441 254.451 92.0741C254.451 93.404 255.529 94.4821 256.859 94.4821Z" fill="#5A5657"/>
<path d="M280.461 94.4821C281.791 94.4821 282.869 93.404 282.869 92.0741C282.869 90.7441 281.791 89.666 280.461 89.666C279.131 89.666 278.053 90.7441 278.053 92.0741C278.053 93.404 279.131 94.4821 280.461 94.4821Z" fill="#5A5657"/>
<path d="M268.66 98.7663C269.99 98.7663 271.068 97.6882 271.068 96.3583C271.068 95.0283 269.99 93.9502 268.66 93.9502C267.33 93.9502 266.252 95.0283 266.252 96.3583C266.252 97.6882 267.33 98.7663 268.66 98.7663Z" fill="#5A5657"/>
<path d="M228.579 36.6143C228.027 37.1198 226.923 38.0371 226.923 39.7133C226.923 43.3726 226.923 148.929 226.923 148.929C226.923 148.929 227.475 150.753 228.579 151.69V36.6143Z" fill="#CFCFCF"/>
<path d="M498.949 152.444H423.371C421.322 152.444 419.646 150.768 419.646 148.719V39.7132C419.646 37.6645 421.322 35.9883 423.371 35.9883H498.949C500.998 35.9883 502.674 37.6645 502.674 39.7132V148.719C502.674 150.768 500.998 152.444 498.949 152.444Z" fill="#E6E6E6"/>
<path d="M489.174 109.155H433.145C431.628 109.155 430.386 107.914 430.386 106.396V82.037C430.386 80.5192 431.628 79.2773 433.145 79.2773H489.174C490.692 79.2773 491.934 80.5192 491.934 82.037V106.396C491.934 107.914 490.692 109.155 489.174 109.155Z" fill="#CFCFCF"/>
<path d="M476.133 84.8799L486.358 91.9264C487.961 93.0319 487.961 95.4008 486.358 96.5063L476.133 103.553C475.669 103.873 475.119 104.044 474.555 104.044H447.766C447.202 104.044 446.652 103.873 446.188 103.553L435.963 96.5063C434.359 95.4008 434.359 93.0319 435.963 91.9264L446.188 84.8799C446.652 84.5598 447.202 84.3887 447.766 84.3887H474.555C475.119 84.3887 475.669 84.5598 476.133 84.8799Z" fill="#E0E0E0"/>
<path d="M449.359 94.4821C450.689 94.4821 451.767 93.404 451.767 92.0741C451.767 90.7441 450.689 89.666 449.359 89.666C448.029 89.666 446.951 90.7441 446.951 92.0741C446.951 93.404 448.029 94.4821 449.359 94.4821Z" fill="#5A5657"/>
<path d="M472.961 94.4821C474.291 94.4821 475.369 93.404 475.369 92.0741C475.369 90.7441 474.291 89.666 472.961 89.666C471.631 89.666 470.553 90.7441 470.553 92.0741C470.553 93.404 471.631 94.4821 472.961 94.4821Z" fill="#5A5657"/>
<path d="M461.16 98.7663C462.49 98.7663 463.568 97.6882 463.568 96.3583C463.568 95.0283 462.49 93.9502 461.16 93.9502C459.83 93.9502 458.752 95.0283 458.752 96.3583C458.752 97.6882 459.83 98.7663 461.16 98.7663Z" fill="#5A5657"/>
<path d="M421.079 36.6143C420.527 37.1198 419.423 38.0371 419.423 39.7133C419.423 43.3726 419.423 148.929 419.423 148.929C419.423 148.929 419.975 150.753 421.079 151.69V36.6143Z" fill="#CFCFCF"/>
<path d="M375.115 90.6173C375.115 87.8795 375.115 85.2311 375.115 82.46C381.772 87.0542 388.317 91.5712 394.923 96.1309C388.332 100.572 381.786 104.981 375.139 109.46C375.139 106.707 375.139 104.058 375.139 101.363C363.037 101.363 351.003 101.363 338.923 101.363C338.923 97.7687 338.923 94.2202 338.923 90.6173C350.942 90.6173 362.974 90.6173 375.115 90.6173Z" fill="#00B9FA"/>
<path d="M458.027 197.764V174.421C458.027 173.267 457.129 172.323 455.975 172.323C454.821 172.323 453.923 173.268 453.923 174.421V197.765H458.027V197.764Z" fill="#CFCFCF"/>
<path d="M484.189 197.764V174.421C484.189 173.267 483.291 172.323 482.137 172.323C480.983 172.323 480.085 173.268 480.085 174.421V197.765H484.189V197.764Z" fill="#CFCFCF"/>
<rect x="431.972" y="227.578" width="10.5928" height="2.40905" fill="#5A5657"/>
<path fill-rule="evenodd" clip-rule="evenodd" d="M491.934 198.766C491.934 198.213 491.486 197.766 490.934 197.766H427.434C426.882 197.766 426.434 198.213 426.434 198.766V224.939C426.434 225.491 426.882 225.939 427.434 225.939H446.431C447.037 225.939 447.63 226.122 448.129 226.466L453.88 230.414C454.213 230.643 454.608 230.766 455.012 230.766H490.934C491.486 230.766 491.934 230.318 491.934 229.766V198.766Z" fill="#5A5657"/>
</svg>
