<svg width="600" height="364" viewBox="0 0 600 364" fill="none" xmlns="http://www.w3.org/2000/svg">
<rect width="600" height="364" fill="#F3F3F3"/>
<path fill-rule="evenodd" clip-rule="evenodd" d="M536.887 301.925H434.282C430.017 301.925 426.527 298.435 426.527 294.17C426.527 289.905 430.017 286.415 434.282 286.415H536.887C541.152 286.415 544.642 289.905 544.642 294.17C544.642 298.435 541.152 301.925 536.887 301.925Z" fill="#D5DAE2"/>
<path fill-rule="evenodd" clip-rule="evenodd" d="M530.702 293.543H440.215C437.934 293.543 436.068 291.677 436.068 289.397V198.909C436.068 196.629 437.934 194.763 440.215 194.763H530.702C532.982 194.763 534.848 196.629 534.848 198.909V289.397C534.848 291.677 532.982 293.543 530.702 293.543" fill="#444444"/>
<path fill-rule="evenodd" clip-rule="evenodd" d="M507.369 274.983H463.549C457.987 274.983 453.437 270.432 453.437 264.871V72.8972C453.437 67.3362 457.987 62.7852 463.549 62.7852H507.369C512.931 62.7852 517.481 67.3362 517.481 72.8972V264.871C517.481 270.432 512.931 274.983 507.369 274.983" fill="#232323"/>
<path fill-rule="evenodd" clip-rule="evenodd" d="M471.605 160.367C471.605 162.965 469.499 165.072 466.9 165.072C464.302 165.072 462.196 162.965 462.196 160.367C462.196 157.769 464.302 155.662 466.9 155.662C469.499 155.662 471.605 157.769 471.605 160.367" fill="#444444"/>
<path fill-rule="evenodd" clip-rule="evenodd" d="M490.164 160.367C490.164 162.965 488.058 165.072 485.459 165.072C482.861 165.072 480.755 162.965 480.755 160.367C480.755 157.769 482.861 155.662 485.459 155.662C488.058 155.662 490.164 157.769 490.164 160.367" fill="#444444"/>
<path fill-rule="evenodd" clip-rule="evenodd" d="M508.722 160.367C508.722 162.965 506.616 165.072 504.017 165.072C501.419 165.072 499.313 162.965 499.313 160.367C499.313 157.769 501.419 155.662 504.017 155.662C506.616 155.662 508.722 157.769 508.722 160.367" fill="#444444"/>
<path fill-rule="evenodd" clip-rule="evenodd" d="M471.604 175.507C471.604 178.105 469.498 180.212 466.899 180.212C464.301 180.212 462.195 178.105 462.195 175.507C462.195 172.909 464.301 170.802 466.899 170.802C469.498 170.802 471.604 172.909 471.604 175.507" fill="#444444"/>
<path fill-rule="evenodd" clip-rule="evenodd" d="M490.163 175.507C490.163 178.105 488.057 180.212 485.458 180.212C482.86 180.212 480.754 178.105 480.754 175.507C480.754 172.909 482.86 170.802 485.458 170.802C488.057 170.802 490.163 172.909 490.163 175.507" fill="#444444"/>
<path fill-rule="evenodd" clip-rule="evenodd" d="M508.722 175.507C508.722 178.105 506.615 180.212 504.016 180.212C501.418 180.212 499.312 178.105 499.312 175.507C499.312 172.909 501.418 170.802 504.016 170.802C506.615 170.802 508.722 172.909 508.722 175.507" fill="#444444"/>
<path fill-rule="evenodd" clip-rule="evenodd" d="M471.604 190.647C471.604 193.245 469.498 195.352 466.899 195.352C464.301 195.352 462.195 193.245 462.195 190.647C462.195 188.049 464.301 185.942 466.899 185.942C469.498 185.942 471.604 188.049 471.604 190.647" fill="#444444"/>
<path fill-rule="evenodd" clip-rule="evenodd" d="M490.163 190.647C490.163 193.245 488.057 195.352 485.458 195.352C482.86 195.352 480.754 193.245 480.754 190.647C480.754 188.049 482.86 185.942 485.458 185.942C488.057 185.942 490.163 188.049 490.163 190.647" fill="#444444"/>
<path fill-rule="evenodd" clip-rule="evenodd" d="M508.722 190.647C508.722 193.245 506.615 195.352 504.016 195.352C501.418 195.352 499.312 193.245 499.312 190.647C499.312 188.049 501.418 185.942 504.016 185.942C506.615 185.942 508.722 188.049 508.722 190.647" fill="#444444"/>
<path fill-rule="evenodd" clip-rule="evenodd" d="M471.604 205.787C471.604 208.385 469.498 210.492 466.899 210.492C464.301 210.492 462.195 208.385 462.195 205.787C462.195 203.189 464.301 201.082 466.899 201.082C469.498 201.082 471.604 203.189 471.604 205.787" fill="#444444"/>
<path fill-rule="evenodd" clip-rule="evenodd" d="M490.163 205.787C490.163 208.385 488.057 210.492 485.458 210.492C482.86 210.492 480.754 208.385 480.754 205.787C480.754 203.189 482.86 201.082 485.458 201.082C488.057 201.082 490.163 203.189 490.163 205.787" fill="#444444"/>
<path fill-rule="evenodd" clip-rule="evenodd" d="M508.722 205.787C508.722 208.385 506.615 210.492 504.016 210.492C501.418 210.492 499.312 208.385 499.312 205.787C499.312 203.189 501.418 201.082 504.016 201.082C506.615 201.082 508.722 203.189 508.722 205.787" fill="#444444"/>
<path fill-rule="evenodd" clip-rule="evenodd" d="M462.195 120.722H508.722V90.543H462.195V120.722Z" fill="#6F7B84"/>
<path fill-rule="evenodd" clip-rule="evenodd" d="M491.639 145.557H479.277C476.733 145.557 474.652 143.476 474.652 140.932V133.682C474.652 131.138 476.733 129.057 479.277 129.057H491.639C494.183 129.057 496.264 131.138 496.264 133.682V140.932C496.264 143.476 494.183 145.557 491.639 145.557" fill="#444444"/>
<path fill-rule="evenodd" clip-rule="evenodd" d="M468.334 145.557H464.069C462.271 145.557 460.799 144.086 460.799 142.287V132.327C460.799 130.528 462.271 129.057 464.069 129.057H468.334C470.132 129.057 471.604 130.528 471.604 132.327V142.287C471.604 144.086 470.132 145.557 468.334 145.557" fill="#444444"/>
<path fill-rule="evenodd" clip-rule="evenodd" d="M506.149 145.557H501.884C500.086 145.557 498.614 144.086 498.614 142.287V132.327C498.614 130.528 500.086 129.057 501.884 129.057H506.149C507.947 129.057 509.419 130.528 509.419 132.327V142.287C509.419 144.086 507.947 145.557 506.149 145.557" fill="#444444"/>
<path fill-rule="evenodd" clip-rule="evenodd" d="M477.084 79.8057H478.834V74.3057H477.084V79.8057Z" fill="#303030"/>
<path fill-rule="evenodd" clip-rule="evenodd" d="M480.834 79.8057H482.584V74.3057H480.834V79.8057Z" fill="#303030"/>
<path fill-rule="evenodd" clip-rule="evenodd" d="M484.584 79.8057H486.334V74.3057H484.584V79.8057Z" fill="#303030"/>
<path fill-rule="evenodd" clip-rule="evenodd" d="M488.334 79.8057H490.084V74.3057H488.334V79.8057Z" fill="#303030"/>
<path fill-rule="evenodd" clip-rule="evenodd" d="M492.084 79.8057H493.834V74.3057H492.084V79.8057Z" fill="#303030"/>
<path fill-rule="evenodd" clip-rule="evenodd" d="M477.084 264.556H478.834V253.556H477.084V264.556Z" fill="#303030"/>
<path fill-rule="evenodd" clip-rule="evenodd" d="M480.834 264.556H482.584V253.556H480.834V264.556Z" fill="#303030"/>
<path fill-rule="evenodd" clip-rule="evenodd" d="M484.584 264.556H486.334V253.556H484.584V264.556Z" fill="#303030"/>
<path fill-rule="evenodd" clip-rule="evenodd" d="M488.334 264.556H490.084V253.556H488.334V264.556Z" fill="#303030"/>
<path fill-rule="evenodd" clip-rule="evenodd" d="M492.084 264.556H493.834V253.556H492.084V264.556Z" fill="#303030"/>
<path fill-rule="evenodd" clip-rule="evenodd" d="M288.63 301.925H73.266C69.179 301.925 65.834 298.581 65.834 294.494V293.207C65.834 289.12 69.179 285.776 73.266 285.776H288.63C292.717 285.776 296.061 289.12 296.061 293.207V294.494C296.061 298.581 292.717 301.925 288.63 301.925" fill="#D5DAE2"/>
<path fill-rule="evenodd" clip-rule="evenodd" d="M284.437 291.463H78.9259C74.4559 291.463 70.7979 287.806 70.7979 283.336V82.0499C70.7979 77.5799 74.4559 73.9229 78.9259 73.9229H284.437C288.907 73.9229 292.564 77.5799 292.564 82.0499V283.336C292.564 287.806 288.907 291.463 284.437 291.463" fill="#444444"/>
<path fill-rule="evenodd" clip-rule="evenodd" d="M144.153 273.056H98.3176C93.4556 273.056 89.4766 269.077 89.4766 264.215V71.4474C89.4766 66.5854 93.4556 62.6064 98.3176 62.6064H144.153C149.016 62.6064 152.994 66.5854 152.994 71.4474V264.215C152.994 269.077 149.016 273.056 144.153 273.056" fill="#232323"/>
<path fill-rule="evenodd" clip-rule="evenodd" d="M169.185 145.422H269.931V94.1025H169.185V145.422Z" fill="#6F7B84"/>
<path fill-rule="evenodd" clip-rule="evenodd" d="M207.425 94.2945L257.566 145.688H270.269V94.1025L207.425 94.2945Z" fill="#626E78"/>
<path fill-rule="evenodd" clip-rule="evenodd" d="M192.078 173.064C192.078 178.218 187.9 182.396 182.746 182.396C177.593 182.396 173.415 178.218 173.415 173.064C173.415 167.91 177.593 163.732 182.746 163.732C187.9 163.732 192.078 167.91 192.078 173.064" fill="#232323"/>
<path fill-rule="evenodd" clip-rule="evenodd" d="M228.89 173.064C228.89 178.218 224.712 182.396 219.558 182.396C214.405 182.396 210.227 178.218 210.227 173.064C210.227 167.91 214.405 163.732 219.558 163.732C224.712 163.732 228.89 167.91 228.89 173.064" fill="#232323"/>
<path fill-rule="evenodd" clip-rule="evenodd" d="M265.702 173.064C265.702 178.218 261.524 182.396 256.37 182.396C251.217 182.396 247.039 178.218 247.039 173.064C247.039 167.91 251.217 163.732 256.37 163.732C261.524 163.732 265.702 167.91 265.702 173.064" fill="#232323"/>
<path fill-rule="evenodd" clip-rule="evenodd" d="M192.078 203.729C192.078 208.883 187.9 213.061 182.746 213.061C177.593 213.061 173.415 208.883 173.415 203.729C173.415 198.575 177.593 194.397 182.746 194.397C187.9 194.397 192.078 198.575 192.078 203.729" fill="#232323"/>
<path fill-rule="evenodd" clip-rule="evenodd" d="M228.89 203.729C228.89 208.883 224.712 213.061 219.558 213.061C214.405 213.061 210.227 208.883 210.227 203.729C210.227 198.575 214.405 194.397 219.558 194.397C224.712 194.397 228.89 198.575 228.89 203.729" fill="#232323"/>
<path fill-rule="evenodd" clip-rule="evenodd" d="M265.702 203.729C265.702 208.883 261.524 213.061 256.37 213.061C251.217 213.061 247.039 208.883 247.039 203.729C247.039 198.575 251.217 194.397 256.37 194.397C261.524 194.397 265.702 198.575 265.702 203.729" fill="#232323"/>
<path fill-rule="evenodd" clip-rule="evenodd" d="M192.078 234.395C192.078 239.549 187.9 243.727 182.746 243.727C177.593 243.727 173.415 239.549 173.415 234.395C173.415 229.241 177.593 225.063 182.746 225.063C187.9 225.063 192.078 229.241 192.078 234.395" fill="#232323"/>
<path fill-rule="evenodd" clip-rule="evenodd" d="M228.89 234.395C228.89 239.549 224.712 243.727 219.558 243.727C214.405 243.727 210.227 239.549 210.227 234.395C210.227 229.241 214.405 225.063 219.558 225.063C224.712 225.063 228.89 229.241 228.89 234.395" fill="#232323"/>
<path fill-rule="evenodd" clip-rule="evenodd" d="M265.702 234.395C265.702 239.549 261.524 243.727 256.37 243.727C251.217 243.727 247.039 239.549 247.039 234.395C247.039 229.241 251.217 225.063 256.37 225.063C261.524 225.063 265.702 229.241 265.702 234.395" fill="#232323"/>
<path fill-rule="evenodd" clip-rule="evenodd" d="M144.153 273.056H98.3176C93.4556 273.056 89.4766 269.077 89.4766 264.215V71.4474C89.4766 66.5854 93.4556 62.6064 98.3176 62.6064H144.153C149.016 62.6064 152.994 66.5854 152.994 71.4474V264.215C152.994 269.077 149.016 273.056 144.153 273.056" fill="#232323"/>
<path fill-rule="evenodd" clip-rule="evenodd" d="M122.329 268.678C120.336 266.001 115.78 268.613 117.799 271.326C118.788 272.653 119.529 274.161 120.11 275.708C120.363 276.381 120.831 277.365 120.844 278.073C120.857 278.781 120.472 279.475 119.939 279.966C119.043 278.342 117.616 276.934 115.618 275.996C113.858 275.17 111.682 276.14 111.671 278.261C111.654 281.496 113.453 283.935 115.853 285.079C115.728 285.883 115.322 286.69 114.574 287.426C112.974 288.999 111.608 288.922 110.126 288.389C110.33 286.898 110.114 285.36 109.366 284.011C107.964 281.484 104.426 279.74 101.912 281.85C99.3212 284.025 101.057 287.714 102.959 290.019C102.46 290.545 101.828 290.988 100.744 291.349C98.9332 291.953 96.9292 292.127 95.0402 291.825C93.8672 291.638 92.9802 291.134 92.0692 290.621C92.1852 290.312 92.2952 290.001 92.3732 289.676C93.0792 286.726 91.7172 283.096 88.4822 282.569C85.6222 282.102 83.6172 284.476 83.5772 287.207C83.5572 288.57 84.0052 289.875 84.7212 291.054C84.1042 291.394 83.5102 291.705 82.7022 291.856C81.1232 292.151 79.9902 291.879 79.0492 291.31C79.8862 290.808 80.5822 290.057 81.0632 288.997C83.6372 283.327 74.8122 280.626 72.1852 285.681C71.4762 285.467 70.7442 285.267 70.1372 284.893C69.6942 284.679 69.3562 284.393 69.0152 284.035C68.4152 283.671 68.0082 283.212 67.8962 282.659C69.4832 282.443 71.1002 281.678 72.6332 280.196C73.5882 279.274 73.7082 277.39 72.6332 276.487C69.7712 274.083 66.6052 274.533 64.5272 276.387C63.7222 275.661 63.1012 274.646 62.8172 273.657C62.5322 272.666 62.4382 271.564 62.4682 270.538C62.4842 270.417 62.4982 270.297 62.5132 270.176C63.3412 270.26 64.2422 270.162 65.2082 269.846C67.6582 269.044 70.9012 266.891 69.5322 263.921C68.2702 261.183 64.4782 260.879 61.9452 261.963C61.9392 261.936 61.9292 261.909 61.9232 261.882C61.6262 260.219 61.5122 259.063 62.4632 257.668C63.9772 255.447 66.9012 254.868 69.4232 254.734C69.8962 254.709 70.4752 254.575 70.4752 254.378V249.712C70.4752 249.553 69.8972 249.463 69.4232 249.488C65.3452 249.704 60.7962 250.898 58.1302 254.259C55.5152 257.556 56.1832 262.036 57.5252 265.744C57.6312 266.036 57.7722 266.313 57.8992 266.582C57.3022 268.255 57.1142 270.108 57.1962 271.818C57.3722 275.544 59.4212 279.142 62.2442 281.133C62.1762 282.257 62.3752 283.45 62.9112 284.639C64.0362 287.136 67.8992 290.067 71.8402 291.397C73.6232 296.482 81.0562 298.31 86.0332 296.365C86.9422 296.01 87.8162 295.521 88.6242 294.939C88.7442 295.015 88.8642 295.092 88.9842 295.163C94.4152 298.362 102.881 297.902 107.532 293.366C109.509 294.155 111.702 294.388 113.774 293.847C118.138 292.707 120.648 289.188 121.034 285.478C122.192 285.127 123.317 284.485 124.312 283.474C128.241 279.476 125.173 272.498 122.329 268.678" fill="#232323"/>
</svg>
