<svg width="672" height="407" viewBox="0 0 672 407" fill="none" xmlns="http://www.w3.org/2000/svg">
<rect width="672" height="407" fill="#F3F3F3"/>
<path fill-rule="evenodd" clip-rule="evenodd" d="M646.097 313.919H430.733C426.646 313.919 423.301 310.575 423.301 306.488V305.201C423.301 301.114 426.646 297.77 430.733 297.77H646.097C650.184 297.77 653.528 301.114 653.528 305.201V306.488C653.528 310.575 650.184 313.919 646.097 313.919" fill="#D5DAE2"/>
<path fill-rule="evenodd" clip-rule="evenodd" d="M641.904 303.456H436.393C431.923 303.456 428.265 299.799 428.265 295.329V94.043C428.265 89.573 431.923 85.916 436.393 85.916H641.904C646.374 85.916 650.031 89.573 650.031 94.043V295.329C650.031 299.799 646.374 303.456 641.904 303.456" fill="#444444"/>
<path fill-rule="evenodd" clip-rule="evenodd" d="M501.62 285.05H455.785C450.923 285.05 446.944 281.071 446.944 276.209V83.4406C446.944 78.5786 450.923 74.5996 455.785 74.5996H501.62C506.483 74.5996 510.461 78.5786 510.461 83.4406V276.209C510.461 281.071 506.483 285.05 501.62 285.05" fill="#232323"/>
<path fill-rule="evenodd" clip-rule="evenodd" d="M526.652 157.415H627.398V106.096H526.652V157.415Z" fill="#6F7B84"/>
<path fill-rule="evenodd" clip-rule="evenodd" d="M564.892 106.288L615.033 157.681H627.736V106.096L564.892 106.288Z" fill="#626E78"/>
<path fill-rule="evenodd" clip-rule="evenodd" d="M549.545 185.058C549.545 190.212 545.367 194.39 540.213 194.39C535.06 194.39 530.882 190.212 530.882 185.058C530.882 179.904 535.06 175.726 540.213 175.726C545.367 175.726 549.545 179.904 549.545 185.058" fill="#232323"/>
<path fill-rule="evenodd" clip-rule="evenodd" d="M586.357 185.058C586.357 190.212 582.179 194.39 577.025 194.39C571.872 194.39 567.694 190.212 567.694 185.058C567.694 179.904 571.872 175.726 577.025 175.726C582.179 175.726 586.357 179.904 586.357 185.058" fill="#232323"/>
<path fill-rule="evenodd" clip-rule="evenodd" d="M623.169 185.058C623.169 190.212 618.991 194.39 613.837 194.39C608.684 194.39 604.506 190.212 604.506 185.058C604.506 179.904 608.684 175.726 613.837 175.726C618.991 175.726 623.169 179.904 623.169 185.058" fill="#232323"/>
<path fill-rule="evenodd" clip-rule="evenodd" d="M549.545 215.723C549.545 220.877 545.367 225.055 540.213 225.055C535.06 225.055 530.882 220.877 530.882 215.723C530.882 210.569 535.06 206.391 540.213 206.391C545.367 206.391 549.545 210.569 549.545 215.723" fill="#232323"/>
<path fill-rule="evenodd" clip-rule="evenodd" d="M586.357 215.723C586.357 220.877 582.179 225.055 577.025 225.055C571.872 225.055 567.694 220.877 567.694 215.723C567.694 210.569 571.872 206.391 577.025 206.391C582.179 206.391 586.357 210.569 586.357 215.723" fill="#232323"/>
<path fill-rule="evenodd" clip-rule="evenodd" d="M623.169 215.723C623.169 220.877 618.991 225.055 613.837 225.055C608.684 225.055 604.506 220.877 604.506 215.723C604.506 210.569 608.684 206.391 613.837 206.391C618.991 206.391 623.169 210.569 623.169 215.723" fill="#232323"/>
<path fill-rule="evenodd" clip-rule="evenodd" d="M549.545 246.389C549.545 251.543 545.367 255.721 540.213 255.721C535.06 255.721 530.882 251.543 530.882 246.389C530.882 241.235 535.06 237.057 540.213 237.057C545.367 237.057 549.545 241.235 549.545 246.389" fill="#232323"/>
<path fill-rule="evenodd" clip-rule="evenodd" d="M586.357 246.389C586.357 251.543 582.179 255.721 577.025 255.721C571.872 255.721 567.694 251.543 567.694 246.389C567.694 241.235 571.872 237.057 577.025 237.057C582.179 237.057 586.357 241.235 586.357 246.389" fill="#232323"/>
<path fill-rule="evenodd" clip-rule="evenodd" d="M623.169 246.389C623.169 251.543 618.991 255.721 613.837 255.721C608.684 255.721 604.506 251.543 604.506 246.389C604.506 241.235 608.684 237.057 613.837 237.057C618.991 237.057 623.169 241.235 623.169 246.389" fill="#232323"/>
<path fill-rule="evenodd" clip-rule="evenodd" d="M501.62 285.05H455.785C450.923 285.05 446.944 281.071 446.944 276.209V83.4406C446.944 78.5786 450.923 74.5996 455.785 74.5996H501.62C506.483 74.5996 510.461 78.5786 510.461 83.4406V276.209C510.461 281.071 506.483 285.05 501.62 285.05" fill="#232323"/>
<path fill-rule="evenodd" clip-rule="evenodd" d="M479.797 280.671C477.804 277.994 473.248 280.606 475.267 283.319C476.256 284.646 476.997 286.154 477.578 287.701C477.831 288.374 478.299 289.358 478.312 290.066C478.325 290.774 477.94 291.468 477.407 291.959C476.511 290.335 475.084 288.927 473.086 287.989C471.326 287.163 469.15 288.133 469.139 290.254C469.122 293.489 470.921 295.928 473.321 297.072C473.196 297.876 472.79 298.683 472.042 299.419C470.442 300.992 469.076 300.915 467.594 300.382C467.798 298.891 467.582 297.353 466.834 296.004C465.432 293.477 461.894 291.733 459.38 293.843C456.789 296.018 458.525 299.707 460.427 302.012C459.928 302.538 459.296 302.981 458.212 303.342C456.401 303.946 454.397 304.12 452.508 303.818C451.335 303.631 450.448 303.127 449.537 302.614C449.653 302.305 449.763 301.994 449.841 301.669C450.547 298.719 449.185 295.089 445.95 294.562C443.09 294.095 441.085 296.469 441.045 299.2C441.025 300.563 441.473 301.868 442.189 303.047C441.572 303.387 440.978 303.698 440.17 303.849C438.591 304.144 437.458 303.872 436.517 303.303C437.354 302.801 438.05 302.05 438.531 300.99C441.105 295.32 432.28 292.619 429.653 297.674C428.944 297.46 428.212 297.26 427.605 296.886C427.162 296.672 426.824 296.386 426.483 296.028C425.883 295.664 425.476 295.205 425.364 294.652C426.951 294.436 428.568 293.671 430.101 292.189C431.056 291.267 431.176 289.383 430.101 288.48C427.239 286.076 424.073 286.526 421.995 288.38C421.19 287.654 420.569 286.639 420.285 285.65C420 284.659 419.906 283.557 419.936 282.531C419.952 282.41 419.966 282.29 419.981 282.169C420.809 282.253 421.71 282.155 422.676 281.839C425.126 281.037 428.369 278.884 427 275.914C425.738 273.176 421.946 272.872 419.413 273.956C419.407 273.929 419.397 273.902 419.391 273.875C419.094 272.212 418.98 271.056 419.931 269.661C421.445 267.44 424.369 266.861 426.891 266.727C427.364 266.702 427.943 266.568 427.943 266.371V261.705C427.943 261.546 427.365 261.456 426.891 261.481C422.813 261.697 418.264 262.891 415.598 266.252C412.983 269.549 413.651 274.029 414.993 277.737C415.099 278.029 415.24 278.306 415.367 278.575C414.77 280.248 414.582 282.101 414.664 283.811C414.84 287.537 416.889 291.135 419.712 293.126C419.644 294.25 419.843 295.443 420.379 296.632C421.504 299.129 425.367 302.06 429.308 303.39C431.091 308.475 438.524 310.303 443.501 308.358C444.41 308.003 445.284 307.514 446.092 306.932C446.212 307.008 446.332 307.085 446.452 307.156C451.883 310.355 460.349 309.895 465 305.359C466.977 306.148 469.17 306.381 471.242 305.84C475.606 304.7 478.116 301.181 478.502 297.471C479.66 297.12 480.785 296.478 481.78 295.467C485.709 291.469 482.641 284.491 479.797 280.671" fill="#232323"/>
<path fill-rule="evenodd" clip-rule="evenodd" d="M254.854 313.919H39.4896C35.4026 313.919 32.0576 310.575 32.0576 306.488V305.201C32.0576 301.114 35.4026 297.77 39.4896 297.77H254.854C258.941 297.77 262.285 301.114 262.285 305.201V306.488C262.285 310.575 258.941 313.919 254.854 313.919" fill="#D5DAE2"/>
<path fill-rule="evenodd" clip-rule="evenodd" d="M250.66 303.456H45.1495C40.6795 303.456 37.0215 299.799 37.0215 295.329V94.043C37.0215 89.573 40.6795 85.916 45.1495 85.916H250.66C255.13 85.916 258.787 89.573 258.787 94.043V295.329C258.787 299.799 255.13 303.456 250.66 303.456" fill="#444444"/>
<path fill-rule="evenodd" clip-rule="evenodd" d="M110.376 285.05H64.5412C59.6792 285.05 55.7002 281.071 55.7002 276.209V83.4406C55.7002 78.5786 59.6792 74.5996 64.5412 74.5996H110.376C115.239 74.5996 119.217 78.5786 119.217 83.4406V276.209C119.217 281.071 115.239 285.05 110.376 285.05" fill="#232323"/>
<path fill-rule="evenodd" clip-rule="evenodd" d="M135.409 157.415H236.155V106.096H135.409V157.415Z" fill="#6F7B84"/>
<path fill-rule="evenodd" clip-rule="evenodd" d="M173.648 106.288L223.789 157.681H236.492V106.096L173.648 106.288Z" fill="#626E78"/>
<path fill-rule="evenodd" clip-rule="evenodd" d="M158.302 185.058C158.302 190.212 154.124 194.39 148.97 194.39C143.817 194.39 139.639 190.212 139.639 185.058C139.639 179.904 143.817 175.726 148.97 175.726C154.124 175.726 158.302 179.904 158.302 185.058" fill="#232323"/>
<path fill-rule="evenodd" clip-rule="evenodd" d="M195.114 185.058C195.114 190.212 190.936 194.39 185.782 194.39C180.629 194.39 176.451 190.212 176.451 185.058C176.451 179.904 180.629 175.726 185.782 175.726C190.936 175.726 195.114 179.904 195.114 185.058" fill="#232323"/>
<path fill-rule="evenodd" clip-rule="evenodd" d="M231.926 185.058C231.926 190.212 227.748 194.39 222.594 194.39C217.441 194.39 213.263 190.212 213.263 185.058C213.263 179.904 217.441 175.726 222.594 175.726C227.748 175.726 231.926 179.904 231.926 185.058" fill="#232323"/>
<path fill-rule="evenodd" clip-rule="evenodd" d="M158.302 215.723C158.302 220.877 154.124 225.055 148.97 225.055C143.817 225.055 139.639 220.877 139.639 215.723C139.639 210.569 143.817 206.391 148.97 206.391C154.124 206.391 158.302 210.569 158.302 215.723" fill="#232323"/>
<path fill-rule="evenodd" clip-rule="evenodd" d="M195.114 215.723C195.114 220.877 190.936 225.055 185.782 225.055C180.629 225.055 176.451 220.877 176.451 215.723C176.451 210.569 180.629 206.391 185.782 206.391C190.936 206.391 195.114 210.569 195.114 215.723" fill="#232323"/>
<path fill-rule="evenodd" clip-rule="evenodd" d="M231.926 215.723C231.926 220.877 227.748 225.055 222.594 225.055C217.441 225.055 213.263 220.877 213.263 215.723C213.263 210.569 217.441 206.391 222.594 206.391C227.748 206.391 231.926 210.569 231.926 215.723" fill="#232323"/>
<path fill-rule="evenodd" clip-rule="evenodd" d="M158.302 246.389C158.302 251.543 154.124 255.721 148.97 255.721C143.817 255.721 139.639 251.543 139.639 246.389C139.639 241.235 143.817 237.057 148.97 237.057C154.124 237.057 158.302 241.235 158.302 246.389" fill="#232323"/>
<path fill-rule="evenodd" clip-rule="evenodd" d="M195.114 246.389C195.114 251.543 190.936 255.721 185.782 255.721C180.629 255.721 176.451 251.543 176.451 246.389C176.451 241.235 180.629 237.057 185.782 237.057C190.936 237.057 195.114 241.235 195.114 246.389" fill="#232323"/>
<path fill-rule="evenodd" clip-rule="evenodd" d="M231.926 246.389C231.926 251.543 227.748 255.721 222.594 255.721C217.441 255.721 213.263 251.543 213.263 246.389C213.263 241.235 217.441 237.057 222.594 237.057C227.748 237.057 231.926 241.235 231.926 246.389" fill="#232323"/>
<path fill-rule="evenodd" clip-rule="evenodd" d="M110.376 285.05H64.5412C59.6792 285.05 55.7002 281.071 55.7002 276.209V83.4406C55.7002 78.5786 59.6792 74.5996 64.5412 74.5996H110.376C115.239 74.5996 119.217 78.5786 119.217 83.4406V276.209C119.217 281.071 115.239 285.05 110.376 285.05" fill="#232323"/>
<path fill-rule="evenodd" clip-rule="evenodd" d="M88.5528 280.671C86.5598 277.994 82.0038 280.606 84.0229 283.319C85.0119 284.646 85.7529 286.154 86.3339 287.701C86.5869 288.374 87.0548 289.358 87.0678 290.066C87.0808 290.774 86.6959 291.468 86.1629 291.959C85.2669 290.335 83.8399 288.927 81.8419 287.989C80.0819 287.163 77.9059 288.133 77.8949 290.254C77.8779 293.489 79.6769 295.928 82.0769 297.072C81.9519 297.876 81.5459 298.683 80.7979 299.419C79.1979 300.992 77.8319 300.915 76.3499 300.382C76.5539 298.891 76.3379 297.353 75.5899 296.004C74.1879 293.477 70.6499 291.733 68.1359 293.843C65.5449 296.018 67.2808 299.707 69.1828 302.012C68.6838 302.538 68.0519 302.981 66.9679 303.342C65.1569 303.946 63.1529 304.12 61.2639 303.818C60.0909 303.631 59.2039 303.127 58.2929 302.614C58.4089 302.305 58.5189 301.994 58.5969 301.669C59.3029 298.719 57.9409 295.089 54.7059 294.562C51.8459 294.095 49.8409 296.469 49.8009 299.2C49.7809 300.563 50.2289 301.868 50.9449 303.047C50.3279 303.387 49.7339 303.698 48.9259 303.849C47.3469 304.144 46.2139 303.872 45.2729 303.303C46.1099 302.801 46.8059 302.05 47.2869 300.99C49.8609 295.32 41.0359 292.619 38.4089 297.674C37.6999 297.46 36.9679 297.26 36.3609 296.886C35.9179 296.672 35.5799 296.386 35.2389 296.028C34.6389 295.664 34.2319 295.205 34.1199 294.652C35.7069 294.436 37.3239 293.671 38.8569 292.189C39.8119 291.267 39.9319 289.383 38.8569 288.48C35.9949 286.076 32.8289 286.526 30.7509 288.38C29.9459 287.654 29.3249 286.639 29.0409 285.65C28.7559 284.659 28.6619 283.557 28.6919 282.531C28.7079 282.41 28.7219 282.29 28.7369 282.169C29.5649 282.253 30.4659 282.155 31.4319 281.839C33.8819 281.037 37.1249 278.884 35.7559 275.914C34.4939 273.176 30.7019 272.872 28.1689 273.956C28.1629 273.929 28.1529 273.902 28.1469 273.875C27.8499 272.212 27.7359 271.056 28.6869 269.661C30.2009 267.44 33.1249 266.861 35.6469 266.727C36.1199 266.702 36.6989 266.568 36.6989 266.371V261.705C36.6989 261.546 36.1209 261.456 35.6469 261.481C31.5689 261.697 27.0199 262.891 24.3539 266.252C21.7389 269.549 22.4069 274.029 23.7489 277.737C23.8549 278.029 23.9959 278.306 24.1229 278.575C23.5259 280.248 23.3379 282.101 23.4199 283.811C23.5959 287.537 25.6449 291.135 28.4679 293.126C28.3999 294.25 28.5989 295.443 29.1349 296.632C30.2599 299.129 34.1229 302.06 38.0639 303.39C39.8469 308.475 47.2799 310.303 52.2569 308.358C53.1659 308.003 54.0399 307.514 54.8479 306.932C54.9679 307.008 55.0879 307.085 55.2079 307.156C60.6389 310.355 69.1049 309.895 73.7559 305.359C75.7329 306.148 77.9259 306.381 79.9979 305.84C84.3619 304.7 86.8719 301.181 87.2579 297.471C88.4159 297.12 89.5409 296.478 90.5359 295.467C94.4649 291.469 91.3968 284.491 88.5528 280.671" fill="#232323"/>
<path fill-rule="evenodd" clip-rule="evenodd" d="M289.124 163.488C309.368 165.073 328.66 166.583 349.929 168.249C344.925 162.695 341.054 158.398 336.28 153.099C363.612 146.987 386.804 153.305 408.011 170.744C397.787 143.068 366.847 128.064 323.629 129.452C322.01 123.685 320.34 117.735 318.246 110.273C312.839 120.083 308.062 128.701 303.332 137.345C298.691 145.826 294.097 154.333 289.124 163.488" fill="#00C0D2"/>
<path fill-rule="evenodd" clip-rule="evenodd" d="M400.038 196.754C380.074 200.462 361.048 203.997 340.073 207.892C346.344 211.962 351.195 215.111 357.178 218.993C332.359 231.971 308.322 231.871 283.324 220.515C300.363 244.602 334.132 251.087 375.518 238.56C378.574 243.712 381.727 249.027 385.681 255.693C388.365 244.817 390.749 235.257 393.08 225.683C395.368 216.29 397.604 206.884 400.038 196.754" fill="#00C0D2"/>
</svg>
