<svg width="600" height="364" viewBox="0 0 600 364" fill="none" xmlns="http://www.w3.org/2000/svg">
<rect width="600" height="364" fill="#F3F3F3"/>
<path d="M389.267 197.104C370.857 209.262 366.395 218.365 368.84 235.348C371.286 252.332 390.534 263.56 372.825 290.459C365.112 301.918 349.445 304.622 331.668 298.747C313.891 292.872 302.503 275.727 315.124 255.077C327.745 234.428 309.906 193.728 278.777 195.155" stroke="#8B8C8D" stroke-width="8"/>
<path d="M390.935 201.147C394.592 198.147 398.008 195.575 400.003 194.147C401.821 192.845 402.241 190.315 400.94 188.497C399.637 186.671 397.109 186.259 395.289 187.559C394.927 187.819 390.776 190.801 385.824 194.859L390.935 201.147Z" fill="#3E3F41"/>
<path d="M398.036 206.3L383.036 187.848C382.233 186.86 382.384 185.396 383.372 184.593L409.704 163.187C410.691 162.384 412.156 162.536 412.958 163.524L427.959 181.975C428.762 182.963 428.61 184.427 427.622 185.23L401.291 206.636C400.304 207.439 398.839 207.287 398.036 206.3Z" fill="#F2F3F5"/>
<path d="M412.556 163.076C411.855 162.486 410.543 162.393 409.649 163.12L383.317 184.525C382.423 185.253 382.246 186.556 382.681 187.362L412.556 163.076Z" fill="#CFCFCF"/>
<path d="M398.576 206.916C399.277 207.506 400.589 207.599 401.484 206.872L427.815 185.467C428.709 184.74 428.886 183.437 428.452 182.63L398.576 206.916Z" fill="#CFCFCF"/>
<path d="M425.386 179.323L426.16 178.694C426.887 178.103 427.278 177.37 426.688 176.643L417.891 165.821C417.3 165.094 416.1 164.835 415.374 165.425L414.6 166.054L425.386 179.323Z" fill="#CFCFCF"/>
<rect width="17.3538" height="17.3538" transform="matrix(0.630788 0.775955 0.775955 -0.630788 398.344 179.568)" fill="#E3E4E7"/>
<rect width="2.45802" height="11.8104" transform="matrix(0.630788 0.775955 0.775955 -0.630788 403.838 177.541)" fill="#8D8F90"/>
<rect width="1.9765" height="11.328" transform="matrix(0.630788 0.775955 0.775955 -0.630788 404.143 177.915)" fill="#BDBEC2"/>
<rect width="2.45802" height="11.8104" transform="matrix(0.630788 0.775955 0.775955 -0.630788 406.174 180.414)" fill="#8D8F90"/>
<rect width="1.9765" height="11.328" transform="matrix(0.630788 0.775955 0.775955 -0.630788 406.479 180.789)" fill="#BDBEC2"/>
<rect width="2.45802" height="11.8104" transform="matrix(0.630788 0.775955 0.775955 -0.630788 408.51 183.288)" fill="#8D8F90"/>
<rect width="1.9765" height="11.328" transform="matrix(0.630788 0.775955 0.775955 -0.630788 408.814 183.662)" fill="#BDBEC2"/>
<rect width="2.45802" height="11.8104" transform="matrix(0.630788 0.775955 0.775955 -0.630788 410.846 186.161)" fill="#8D8F90"/>
<rect width="1.9765" height="11.328" transform="matrix(0.630788 0.775955 0.775955 -0.630788 411.15 186.535)" fill="#BDBEC2"/>
<path d="M399.656 199.58L389.931 187.617C389.599 187.209 389.662 186.604 390.07 186.272L395.045 182.228C395.452 181.896 396.058 181.959 396.389 182.366L406.114 194.33C406.446 194.737 406.383 195.342 405.975 195.674L401 199.719C400.592 200.051 399.987 199.988 399.656 199.58Z" fill="#5A5A5C"/>
<path d="M403.544 197.078L400.702 199.389C400.702 199.389 400.456 200.017 399.924 199.363C399.391 198.708 390.189 187.387 390.189 187.387C390.189 187.387 400.034 198.772 403.544 197.078Z" fill="#3E3F41"/>
<path fill-rule="evenodd" clip-rule="evenodd" d="M279.001 300.921H63.6371C59.5501 300.921 56.2051 297.577 56.2051 293.49V292.203C56.2051 288.116 59.5501 284.772 63.6371 284.772H279.001C283.088 284.772 286.432 288.116 286.432 292.203V293.49C286.432 297.577 283.088 300.921 279.001 300.921" fill="#D5DAE2"/>
<path fill-rule="evenodd" clip-rule="evenodd" d="M274.808 290.459H69.2969C64.8269 290.459 61.1689 286.802 61.1689 282.332V81.0459C61.1689 76.5759 64.8269 72.9189 69.2969 72.9189H274.808C279.278 72.9189 282.935 76.5759 282.935 81.0459V282.332C282.935 286.802 279.278 290.459 274.808 290.459" fill="#444444"/>
<path fill-rule="evenodd" clip-rule="evenodd" d="M134.524 272.053H88.6887C83.8267 272.053 79.8477 268.074 79.8477 263.212V70.4435C79.8477 65.5815 83.8267 61.6025 88.6887 61.6025H134.524C139.387 61.6025 143.365 65.5815 143.365 70.4435V263.212C143.365 268.074 139.387 272.053 134.524 272.053" fill="#232323"/>
<path fill-rule="evenodd" clip-rule="evenodd" d="M159.556 144.418H260.302V93.0986H159.556V144.418Z" fill="#6F7B84"/>
<path fill-rule="evenodd" clip-rule="evenodd" d="M197.796 93.2906L247.937 144.684H260.64V93.0986L197.796 93.2906Z" fill="#626E78"/>
<path fill-rule="evenodd" clip-rule="evenodd" d="M182.449 172.061C182.449 177.215 178.271 181.393 173.117 181.393C167.964 181.393 163.786 177.215 163.786 172.061C163.786 166.907 167.964 162.729 173.117 162.729C178.271 162.729 182.449 166.907 182.449 172.061" fill="#232323"/>
<path fill-rule="evenodd" clip-rule="evenodd" d="M219.261 172.061C219.261 177.215 215.083 181.393 209.929 181.393C204.776 181.393 200.598 177.215 200.598 172.061C200.598 166.907 204.776 162.729 209.929 162.729C215.083 162.729 219.261 166.907 219.261 172.061" fill="#232323"/>
<path fill-rule="evenodd" clip-rule="evenodd" d="M256.073 172.061C256.073 177.215 251.895 181.393 246.741 181.393C241.588 181.393 237.41 177.215 237.41 172.061C237.41 166.907 241.588 162.729 246.741 162.729C251.895 162.729 256.073 166.907 256.073 172.061" fill="#232323"/>
<path fill-rule="evenodd" clip-rule="evenodd" d="M182.449 202.726C182.449 207.88 178.271 212.058 173.117 212.058C167.964 212.058 163.786 207.88 163.786 202.726C163.786 197.572 167.964 193.394 173.117 193.394C178.271 193.394 182.449 197.572 182.449 202.726" fill="#232323"/>
<path fill-rule="evenodd" clip-rule="evenodd" d="M219.261 202.726C219.261 207.88 215.083 212.058 209.929 212.058C204.776 212.058 200.598 207.88 200.598 202.726C200.598 197.572 204.776 193.394 209.929 193.394C215.083 193.394 219.261 197.572 219.261 202.726" fill="#232323"/>
<path fill-rule="evenodd" clip-rule="evenodd" d="M256.073 202.726C256.073 207.88 251.895 212.058 246.741 212.058C241.588 212.058 237.41 207.88 237.41 202.726C237.41 197.572 241.588 193.394 246.741 193.394C251.895 193.394 256.073 197.572 256.073 202.726" fill="#232323"/>
<path fill-rule="evenodd" clip-rule="evenodd" d="M182.449 233.392C182.449 238.546 178.271 242.724 173.117 242.724C167.964 242.724 163.786 238.546 163.786 233.392C163.786 228.238 167.964 224.06 173.117 224.06C178.271 224.06 182.449 228.238 182.449 233.392" fill="#232323"/>
<path fill-rule="evenodd" clip-rule="evenodd" d="M219.261 233.392C219.261 238.546 215.083 242.724 209.929 242.724C204.776 242.724 200.598 238.546 200.598 233.392C200.598 228.238 204.776 224.06 209.929 224.06C215.083 224.06 219.261 228.238 219.261 233.392" fill="#232323"/>
<path fill-rule="evenodd" clip-rule="evenodd" d="M256.073 233.392C256.073 238.546 251.895 242.724 246.741 242.724C241.588 242.724 237.41 238.546 237.41 233.392C237.41 228.238 241.588 224.06 246.741 224.06C251.895 224.06 256.073 228.238 256.073 233.392" fill="#232323"/>
<path fill-rule="evenodd" clip-rule="evenodd" d="M134.524 272.053H88.6887C83.8267 272.053 79.8477 268.074 79.8477 263.212V70.4435C79.8477 65.5815 83.8267 61.6025 88.6887 61.6025H134.524C139.387 61.6025 143.365 65.5815 143.365 70.4435V263.212C143.365 268.074 139.387 272.053 134.524 272.053" fill="#232323"/>
<path fill-rule="evenodd" clip-rule="evenodd" d="M112.7 267.674C110.707 264.997 106.151 267.609 108.17 270.322C109.159 271.649 109.9 273.157 110.481 274.704C110.734 275.377 111.202 276.361 111.215 277.069C111.228 277.777 110.843 278.471 110.31 278.962C109.414 277.338 107.987 275.93 105.989 274.992C104.229 274.166 102.053 275.136 102.042 277.257C102.025 280.492 103.824 282.931 106.224 284.075C106.099 284.879 105.693 285.686 104.945 286.422C103.345 287.995 101.979 287.918 100.497 287.385C100.701 285.894 100.485 284.356 99.7373 283.007C98.3353 280.48 94.7973 278.736 92.2833 280.846C89.6923 283.021 91.4283 286.71 93.3303 289.015C92.8313 289.541 92.1993 289.984 91.1153 290.345C89.3043 290.949 87.3003 291.123 85.4113 290.821C84.2383 290.634 83.3513 290.13 82.4403 289.617C82.5563 289.308 82.6663 288.997 82.7443 288.672C83.4503 285.722 82.0883 282.092 78.8533 281.565C75.9933 281.098 73.9883 283.472 73.9483 286.203C73.9283 287.566 74.3763 288.871 75.0923 290.05C74.4753 290.39 73.8813 290.701 73.0733 290.852C71.4943 291.147 70.3613 290.875 69.4203 290.306C70.2573 289.804 70.9533 289.053 71.4343 287.993C74.0083 282.323 65.1833 279.622 62.5563 284.677C61.8473 284.463 61.1153 284.263 60.5083 283.889C60.0653 283.675 59.7273 283.389 59.3863 283.031C58.7863 282.667 58.3793 282.208 58.2673 281.655C59.8543 281.439 61.4713 280.674 63.0043 279.192C63.9593 278.27 64.0793 276.386 63.0043 275.483C60.1423 273.079 56.9763 273.529 54.8983 275.383C54.0933 274.657 53.4723 273.642 53.1883 272.653C52.9033 271.662 52.8093 270.56 52.8393 269.534C52.8553 269.413 52.8693 269.293 52.8843 269.172C53.7123 269.256 54.6133 269.158 55.5793 268.842C58.0293 268.04 61.2723 265.887 59.9033 262.917C58.6413 260.179 54.8493 259.875 52.3163 260.959C52.3103 260.932 52.3003 260.905 52.2943 260.878C51.9973 259.215 51.8833 258.059 52.8343 256.664C54.3483 254.443 57.2723 253.864 59.7943 253.73C60.2673 253.705 60.8463 253.571 60.8463 253.374V248.708C60.8463 248.549 60.2683 248.459 59.7943 248.484C55.7163 248.7 51.1673 249.894 48.5013 253.255C45.8863 256.552 46.5543 261.032 47.8963 264.74C48.0023 265.032 48.1433 265.309 48.2703 265.578C47.6733 267.251 47.4853 269.104 47.5673 270.814C47.7433 274.54 49.7923 278.138 52.6153 280.129C52.5473 281.253 52.7463 282.446 53.2823 283.635C54.4073 286.132 58.2703 289.063 62.2113 290.393C63.9943 295.478 71.4273 297.306 76.4043 295.361C77.3133 295.006 78.1873 294.517 78.9953 293.935C79.1153 294.011 79.2353 294.088 79.3553 294.159C84.7863 297.358 93.2523 296.898 97.9033 292.362C99.8803 293.151 102.073 293.384 104.145 292.843C108.509 291.703 111.019 288.184 111.405 284.474C112.563 284.123 113.688 283.481 114.683 282.47C118.612 278.472 115.544 271.494 112.7 267.674" fill="#232323"/>
<path fill-rule="evenodd" clip-rule="evenodd" d="M550.075 300.742H447.47C443.205 300.742 439.715 297.252 439.715 292.987C439.715 288.722 443.205 285.232 447.47 285.232H550.075C554.34 285.232 557.83 288.722 557.83 292.987C557.83 297.252 554.34 300.742 550.075 300.742Z" fill="#D5DAE2"/>
<path fill-rule="evenodd" clip-rule="evenodd" d="M543.89 292.359H453.403C451.122 292.359 449.256 290.493 449.256 288.213V197.725C449.256 195.445 451.122 193.579 453.403 193.579H543.89C546.17 193.579 548.036 195.445 548.036 197.725V288.213C548.036 290.493 546.17 292.359 543.89 292.359" fill="#444444"/>
<path fill-rule="evenodd" clip-rule="evenodd" d="M520.556 273.801H476.736C471.174 273.801 466.624 269.25 466.624 263.689V71.7145C466.624 66.1535 471.174 61.6025 476.736 61.6025H520.556C526.118 61.6025 530.668 66.1535 530.668 71.7145V263.689C530.668 269.25 526.118 273.801 520.556 273.801" fill="#232323"/>
<path fill-rule="evenodd" clip-rule="evenodd" d="M484.793 159.184C484.793 161.782 482.687 163.889 480.088 163.889C477.49 163.889 475.384 161.782 475.384 159.184C475.384 156.586 477.49 154.479 480.088 154.479C482.687 154.479 484.793 156.586 484.793 159.184" fill="#444444"/>
<path fill-rule="evenodd" clip-rule="evenodd" d="M503.351 159.184C503.351 161.782 501.245 163.889 498.646 163.889C496.048 163.889 493.942 161.782 493.942 159.184C493.942 156.586 496.048 154.479 498.646 154.479C501.245 154.479 503.351 156.586 503.351 159.184" fill="#444444"/>
<path fill-rule="evenodd" clip-rule="evenodd" d="M521.911 159.184C521.911 161.782 519.805 163.889 517.206 163.889C514.608 163.889 512.502 161.782 512.502 159.184C512.502 156.586 514.608 154.479 517.206 154.479C519.805 154.479 521.911 156.586 521.911 159.184" fill="#444444"/>
<path fill-rule="evenodd" clip-rule="evenodd" d="M484.792 174.324C484.792 176.922 482.686 179.029 480.087 179.029C477.489 179.029 475.383 176.922 475.383 174.324C475.383 171.726 477.489 169.619 480.087 169.619C482.686 169.619 484.792 171.726 484.792 174.324" fill="#444444"/>
<path fill-rule="evenodd" clip-rule="evenodd" d="M503.351 174.324C503.351 176.922 501.245 179.029 498.646 179.029C496.048 179.029 493.942 176.922 493.942 174.324C493.942 171.726 496.048 169.619 498.646 169.619C501.245 169.619 503.351 171.726 503.351 174.324" fill="#444444"/>
<path fill-rule="evenodd" clip-rule="evenodd" d="M521.91 174.324C521.91 176.922 519.804 179.029 517.205 179.029C514.607 179.029 512.501 176.922 512.501 174.324C512.501 171.726 514.607 169.619 517.205 169.619C519.804 169.619 521.91 171.726 521.91 174.324" fill="#444444"/>
<path fill-rule="evenodd" clip-rule="evenodd" d="M484.792 189.464C484.792 192.062 482.686 194.169 480.087 194.169C477.489 194.169 475.383 192.062 475.383 189.464C475.383 186.866 477.489 184.759 480.087 184.759C482.686 184.759 484.792 186.866 484.792 189.464" fill="#444444"/>
<path fill-rule="evenodd" clip-rule="evenodd" d="M503.351 189.464C503.351 192.062 501.245 194.169 498.646 194.169C496.048 194.169 493.942 192.062 493.942 189.464C493.942 186.866 496.048 184.759 498.646 184.759C501.245 184.759 503.351 186.866 503.351 189.464" fill="#444444"/>
<path fill-rule="evenodd" clip-rule="evenodd" d="M521.91 189.464C521.91 192.062 519.804 194.169 517.205 194.169C514.607 194.169 512.501 192.062 512.501 189.464C512.501 186.866 514.607 184.759 517.205 184.759C519.804 184.759 521.91 186.866 521.91 189.464" fill="#444444"/>
<path fill-rule="evenodd" clip-rule="evenodd" d="M484.792 204.604C484.792 207.202 482.686 209.309 480.087 209.309C477.489 209.309 475.383 207.202 475.383 204.604C475.383 202.006 477.489 199.899 480.087 199.899C482.686 199.899 484.792 202.006 484.792 204.604" fill="#444444"/>
<path fill-rule="evenodd" clip-rule="evenodd" d="M503.351 204.604C503.351 207.202 501.245 209.309 498.646 209.309C496.048 209.309 493.942 207.202 493.942 204.604C493.942 202.006 496.048 199.899 498.646 199.899C501.245 199.899 503.351 202.006 503.351 204.604" fill="#444444"/>
<path fill-rule="evenodd" clip-rule="evenodd" d="M521.91 204.604C521.91 207.202 519.804 209.309 517.205 209.309C514.607 209.309 512.501 207.202 512.501 204.604C512.501 202.006 514.607 199.899 517.205 199.899C519.804 199.899 521.91 202.006 521.91 204.604" fill="#444444"/>
<path fill-rule="evenodd" clip-rule="evenodd" d="M475.383 119.538H521.91V89.3594H475.383V119.538Z" fill="#6F7B84"/>
<path fill-rule="evenodd" clip-rule="evenodd" d="M504.828 144.373H492.466C489.922 144.373 487.841 142.292 487.841 139.748V132.498C487.841 129.954 489.922 127.873 492.466 127.873H504.828C507.372 127.873 509.453 129.954 509.453 132.498V139.748C509.453 142.292 507.372 144.373 504.828 144.373" fill="#444444"/>
<path fill-rule="evenodd" clip-rule="evenodd" d="M481.522 144.373H477.257C475.459 144.373 473.987 142.902 473.987 141.103V131.143C473.987 129.344 475.459 127.873 477.257 127.873H481.522C483.32 127.873 484.792 129.344 484.792 131.143V141.103C484.792 142.902 483.32 144.373 481.522 144.373" fill="#444444"/>
<path fill-rule="evenodd" clip-rule="evenodd" d="M519.338 144.373H515.073C513.275 144.373 511.803 142.902 511.803 141.103V131.143C511.803 129.344 513.275 127.873 515.073 127.873H519.338C521.136 127.873 522.608 129.344 522.608 131.143V141.103C522.608 142.902 521.136 144.373 519.338 144.373" fill="#444444"/>
<path fill-rule="evenodd" clip-rule="evenodd" d="M490.271 78.623H492.021V73.123H490.271V78.623Z" fill="#303030"/>
<path fill-rule="evenodd" clip-rule="evenodd" d="M494.021 78.623H495.771V73.123H494.021V78.623Z" fill="#303030"/>
<path fill-rule="evenodd" clip-rule="evenodd" d="M497.771 78.623H499.521V73.123H497.771V78.623Z" fill="#303030"/>
<path fill-rule="evenodd" clip-rule="evenodd" d="M501.521 78.623H503.271V73.123H501.521V78.623Z" fill="#303030"/>
<path fill-rule="evenodd" clip-rule="evenodd" d="M505.271 78.623H507.021V73.123H505.271V78.623Z" fill="#303030"/>
<path fill-rule="evenodd" clip-rule="evenodd" d="M490.271 263.373H492.021V252.373H490.271V263.373Z" fill="#303030"/>
<path fill-rule="evenodd" clip-rule="evenodd" d="M494.021 263.373H495.771V252.373H494.021V263.373Z" fill="#303030"/>
<path fill-rule="evenodd" clip-rule="evenodd" d="M497.771 263.373H499.521V252.373H497.771V263.373Z" fill="#303030"/>
<path fill-rule="evenodd" clip-rule="evenodd" d="M501.521 263.373H503.271V252.373H501.521V263.373Z" fill="#303030"/>
<path fill-rule="evenodd" clip-rule="evenodd" d="M505.271 263.373H507.021V252.373H505.271V263.373Z" fill="#303030"/>
<path fill-rule="evenodd" clip-rule="evenodd" d="M328.725 67.0545C341.919 82.4899 354.493 97.1991 368.354 113.417C368.743 105.951 369.044 100.175 369.415 93.0527C393.064 108.057 404.995 128.924 407.66 156.251C420 129.452 408.732 96.9644 377.191 67.3861C380.124 62.1634 383.15 56.7753 386.946 50.0181C376.186 53.1315 366.714 55.8475 357.257 58.6151C347.979 61.3304 338.715 64.0973 328.725 67.0545" fill="#00C0D2"/>
</svg>
