<svg width="600" height="364" viewBox="0 0 600 364" fill="none" xmlns="http://www.w3.org/2000/svg">
<rect width="600" height="364" fill="#F3F3F3"/>
<path fill-rule="evenodd" clip-rule="evenodd" d="M354.185 309.825H251.58C247.315 309.825 243.825 306.335 243.825 302.07C243.825 297.805 247.315 294.315 251.58 294.315H354.185C358.45 294.315 361.94 297.805 361.94 302.07C361.94 306.335 358.45 309.825 354.185 309.825Z" fill="#D5DAE2"/>
<path fill-rule="evenodd" clip-rule="evenodd" d="M348 301.442H257.513C255.232 301.442 253.366 299.576 253.366 297.296V206.808C253.366 204.528 255.232 202.662 257.513 202.662H348C350.28 202.662 352.146 204.528 352.146 206.808V297.296C352.146 299.576 350.28 301.442 348 301.442" fill="#444444"/>
<path fill-rule="evenodd" clip-rule="evenodd" d="M324.666 282.884H280.846C275.284 282.884 270.734 278.333 270.734 272.772V80.7975C270.734 75.2365 275.284 70.6855 280.846 70.6855H324.666C330.228 70.6855 334.778 75.2365 334.778 80.7975V272.772C334.778 278.333 330.228 282.884 324.666 282.884" fill="#232323"/>
<path fill-rule="evenodd" clip-rule="evenodd" d="M288.903 168.267C288.903 170.865 286.797 172.972 284.198 172.972C281.6 172.972 279.494 170.865 279.494 168.267C279.494 165.669 281.6 163.562 284.198 163.562C286.797 163.562 288.903 165.669 288.903 168.267" fill="#444444"/>
<path d="M288.903 168.267C288.903 170.865 286.797 172.972 284.198 172.972C281.6 172.972 279.494 170.865 279.494 168.267C279.494 165.669 281.6 163.562 284.198 163.562C286.797 163.562 288.903 165.669 288.903 168.267" stroke="#FF9E00" stroke-opacity="0.473203"/>
<path fill-rule="evenodd" clip-rule="evenodd" d="M307.462 168.267C307.462 170.865 305.356 172.972 302.757 172.972C300.159 172.972 298.053 170.865 298.053 168.267C298.053 165.669 300.159 163.562 302.757 163.562C305.356 163.562 307.462 165.669 307.462 168.267" fill="#444444"/>
<path d="M307.462 168.267C307.462 170.865 305.356 172.972 302.757 172.972C300.159 172.972 298.053 170.865 298.053 168.267C298.053 165.669 300.159 163.562 302.757 163.562C305.356 163.562 307.462 165.669 307.462 168.267" stroke="#FF9E00" stroke-opacity="0.473203"/>
<path fill-rule="evenodd" clip-rule="evenodd" d="M326.021 168.267C326.021 170.865 323.915 172.972 321.316 172.972C318.718 172.972 316.612 170.865 316.612 168.267C316.612 165.669 318.718 163.562 321.316 163.562C323.915 163.562 326.021 165.669 326.021 168.267" fill="#444444"/>
<path d="M326.021 168.267C326.021 170.865 323.915 172.972 321.316 172.972C318.718 172.972 316.612 170.865 316.612 168.267C316.612 165.669 318.718 163.562 321.316 163.562C323.915 163.562 326.021 165.669 326.021 168.267" stroke="#FF9E00" stroke-opacity="0.473203"/>
<path fill-rule="evenodd" clip-rule="evenodd" d="M288.902 183.407C288.902 186.005 286.796 188.112 284.197 188.112C281.599 188.112 279.493 186.005 279.493 183.407C279.493 180.809 281.599 178.702 284.197 178.702C286.796 178.702 288.902 180.809 288.902 183.407" fill="#444444"/>
<path d="M288.902 183.407C288.902 186.005 286.796 188.112 284.197 188.112C281.599 188.112 279.493 186.005 279.493 183.407C279.493 180.809 281.599 178.702 284.197 178.702C286.796 178.702 288.902 180.809 288.902 183.407" stroke="#FF9E00" stroke-opacity="0.473203"/>
<path fill-rule="evenodd" clip-rule="evenodd" d="M307.461 183.407C307.461 186.005 305.355 188.112 302.756 188.112C300.158 188.112 298.052 186.005 298.052 183.407C298.052 180.809 300.158 178.702 302.756 178.702C305.355 178.702 307.461 180.809 307.461 183.407" fill="#444444"/>
<path d="M307.461 183.407C307.461 186.005 305.355 188.112 302.756 188.112C300.158 188.112 298.052 186.005 298.052 183.407C298.052 180.809 300.158 178.702 302.756 178.702C305.355 178.702 307.461 180.809 307.461 183.407" stroke="#FF9E00" stroke-opacity="0.473203"/>
<path fill-rule="evenodd" clip-rule="evenodd" d="M326.02 183.407C326.02 186.005 323.914 188.112 321.315 188.112C318.717 188.112 316.611 186.005 316.611 183.407C316.611 180.809 318.717 178.702 321.315 178.702C323.914 178.702 326.02 180.809 326.02 183.407" fill="#444444"/>
<path d="M326.02 183.407C326.02 186.005 323.914 188.112 321.315 188.112C318.717 188.112 316.611 186.005 316.611 183.407C316.611 180.809 318.717 178.702 321.315 178.702C323.914 178.702 326.02 180.809 326.02 183.407" stroke="#FF9E00" stroke-opacity="0.473203"/>
<path fill-rule="evenodd" clip-rule="evenodd" d="M288.902 198.547C288.902 201.145 286.796 203.252 284.197 203.252C281.599 203.252 279.493 201.145 279.493 198.547C279.493 195.949 281.599 193.842 284.197 193.842C286.796 193.842 288.902 195.949 288.902 198.547" fill="#444444"/>
<path d="M288.902 198.547C288.902 201.145 286.796 203.252 284.197 203.252C281.599 203.252 279.493 201.145 279.493 198.547C279.493 195.949 281.599 193.842 284.197 193.842C286.796 193.842 288.902 195.949 288.902 198.547" stroke="#FF9E00" stroke-opacity="0.473203"/>
<path fill-rule="evenodd" clip-rule="evenodd" d="M307.461 198.547C307.461 201.145 305.355 203.252 302.756 203.252C300.158 203.252 298.052 201.145 298.052 198.547C298.052 195.949 300.158 193.842 302.756 193.842C305.355 193.842 307.461 195.949 307.461 198.547" fill="#444444"/>
<path d="M307.461 198.547C307.461 201.145 305.355 203.252 302.756 203.252C300.158 203.252 298.052 201.145 298.052 198.547C298.052 195.949 300.158 193.842 302.756 193.842C305.355 193.842 307.461 195.949 307.461 198.547" stroke="#FF9E00" stroke-opacity="0.473203"/>
<path fill-rule="evenodd" clip-rule="evenodd" d="M326.02 198.547C326.02 201.145 323.914 203.252 321.315 203.252C318.717 203.252 316.611 201.145 316.611 198.547C316.611 195.949 318.717 193.842 321.315 193.842C323.914 193.842 326.02 195.949 326.02 198.547" fill="#444444"/>
<path d="M326.02 198.547C326.02 201.145 323.914 203.252 321.315 203.252C318.717 203.252 316.611 201.145 316.611 198.547C316.611 195.949 318.717 193.842 321.315 193.842C323.914 193.842 326.02 195.949 326.02 198.547" stroke="#FF9E00" stroke-opacity="0.473203"/>
<path fill-rule="evenodd" clip-rule="evenodd" d="M288.902 213.687C288.902 216.285 286.796 218.392 284.197 218.392C281.599 218.392 279.493 216.285 279.493 213.687C279.493 211.089 281.599 208.982 284.197 208.982C286.796 208.982 288.902 211.089 288.902 213.687" fill="#444444"/>
<path d="M288.902 213.687C288.902 216.285 286.796 218.392 284.197 218.392C281.599 218.392 279.493 216.285 279.493 213.687C279.493 211.089 281.599 208.982 284.197 208.982C286.796 208.982 288.902 211.089 288.902 213.687" stroke="#FF9E00" stroke-opacity="0.473203"/>
<path fill-rule="evenodd" clip-rule="evenodd" d="M307.461 213.687C307.461 216.285 305.355 218.392 302.756 218.392C300.158 218.392 298.052 216.285 298.052 213.687C298.052 211.089 300.158 208.982 302.756 208.982C305.355 208.982 307.461 211.089 307.461 213.687" fill="#444444"/>
<path d="M307.461 213.687C307.461 216.285 305.355 218.392 302.756 218.392C300.158 218.392 298.052 216.285 298.052 213.687C298.052 211.089 300.158 208.982 302.756 208.982C305.355 208.982 307.461 211.089 307.461 213.687" stroke="#FF9E00" stroke-opacity="0.473203"/>
<path fill-rule="evenodd" clip-rule="evenodd" d="M326.02 213.687C326.02 216.285 323.914 218.392 321.315 218.392C318.717 218.392 316.611 216.285 316.611 213.687C316.611 211.089 318.717 208.982 321.315 208.982C323.914 208.982 326.02 211.089 326.02 213.687" fill="#444444"/>
<path d="M326.02 213.687C326.02 216.285 323.914 218.392 321.315 218.392C318.717 218.392 316.611 216.285 316.611 213.687C316.611 211.089 318.717 208.982 321.315 208.982C323.914 208.982 326.02 211.089 326.02 213.687" stroke="#FF9E00" stroke-opacity="0.473203"/>
<path fill-rule="evenodd" clip-rule="evenodd" d="M279.493 128.621H326.02V98.4424H279.493V128.621Z" fill="#E7E7BE"/>
<path fill-rule="evenodd" clip-rule="evenodd" d="M308.937 153.456H296.575C294.031 153.456 291.95 151.375 291.95 148.831V141.581C291.95 139.037 294.031 136.956 296.575 136.956H308.937C311.481 136.956 313.562 139.037 313.562 141.581V148.831C313.562 151.375 311.481 153.456 308.937 153.456" fill="#444444"/>
<path fill-rule="evenodd" clip-rule="evenodd" d="M285.632 153.456H281.367C279.569 153.456 278.097 151.985 278.097 150.186V140.226C278.097 138.427 279.569 136.956 281.367 136.956H285.632C287.43 136.956 288.902 138.427 288.902 140.226V150.186C288.902 151.985 287.43 153.456 285.632 153.456" fill="#444444"/>
<path fill-rule="evenodd" clip-rule="evenodd" d="M323.448 153.456H319.183C317.385 153.456 315.913 151.985 315.913 150.186V140.226C315.913 138.427 317.385 136.956 319.183 136.956H323.448C325.246 136.956 326.718 138.427 326.718 140.226V150.186C326.718 151.985 325.246 153.456 323.448 153.456" fill="#444444"/>
<path fill-rule="evenodd" clip-rule="evenodd" d="M294.382 87.7061H296.132V82.2061H294.382V87.7061Z" fill="#303030"/>
<path fill-rule="evenodd" clip-rule="evenodd" d="M294.152 124.012V123.292L293.051 122.743H284.669L283.652 123.292V124.012L284.697 124.493H292.997L294.152 124.012Z" fill="#303030"/>
<path fill-rule="evenodd" clip-rule="evenodd" d="M308.006 124.012V123.292L306.905 122.743H298.523L297.506 123.292V124.012L298.552 124.493H306.852L308.006 124.012Z" fill="#303030"/>
<path fill-rule="evenodd" clip-rule="evenodd" d="M321.862 124.012V123.292L320.76 122.743H312.379L311.362 123.292V124.012L312.407 124.493H320.707L321.862 124.012Z" fill="#303030"/>
<path fill-rule="evenodd" clip-rule="evenodd" d="M281.643 77.569H284.2V70.6855H281.643V77.569Z" fill="#70FF00"/>
<path fill-rule="evenodd" clip-rule="evenodd" d="M286.941 145.53V144.099H280.058V145.53H286.941Z" fill="#70FF00"/>
<path fill-rule="evenodd" clip-rule="evenodd" d="M324.757 145.53V144.099H317.873V145.53H324.757Z" fill="#FF0000"/>
<path fill-rule="evenodd" clip-rule="evenodd" d="M298.132 87.7061H299.882V82.2061H298.132V87.7061Z" fill="#303030"/>
<path fill-rule="evenodd" clip-rule="evenodd" d="M301.882 87.7061H303.632V82.2061H301.882V87.7061Z" fill="#303030"/>
<path fill-rule="evenodd" clip-rule="evenodd" d="M305.632 87.7061H307.382V82.2061H305.632V87.7061Z" fill="#303030"/>
<path fill-rule="evenodd" clip-rule="evenodd" d="M309.382 87.7061H311.132V82.2061H309.382V87.7061Z" fill="#303030"/>
<path fill-rule="evenodd" clip-rule="evenodd" d="M294.382 272.456H296.132V261.456H294.382V272.456Z" fill="#303030"/>
<path fill-rule="evenodd" clip-rule="evenodd" d="M298.132 272.456H299.882V261.456H298.132V272.456Z" fill="#303030"/>
<path fill-rule="evenodd" clip-rule="evenodd" d="M301.882 272.456H303.632V261.456H301.882V272.456Z" fill="#303030"/>
<path fill-rule="evenodd" clip-rule="evenodd" d="M305.632 272.456H307.382V261.456H305.632V272.456Z" fill="#303030"/>
<path fill-rule="evenodd" clip-rule="evenodd" d="M309.382 272.456H311.132V261.456H309.382V272.456Z" fill="#303030"/>
<path opacity="0.6" fill-rule="evenodd" clip-rule="evenodd" d="M282.575 95.5977C294.863 95.5977 304.825 85.636 304.825 73.3477C304.825 61.0593 294.863 51.0977 282.575 51.0977C270.286 51.0977 260.325 61.0593 260.325 73.3477C260.325 85.636 270.286 95.5977 282.575 95.5977Z" fill="url(#paint0_radial)"/>
<defs>
<radialGradient id="paint0_radial" cx="0" cy="0" r="1" gradientUnits="userSpaceOnUse" gradientTransform="translate(282.575 73.3477) rotate(90) scale(22.25)">
<stop stop-color="#7BFF00"/>
<stop offset="1" stop-color="#7FFF00" stop-opacity="0.01"/>
</radialGradient>
</defs>
</svg>
