<?xml version="1.0" encoding="UTF-8"?>
<svg width="135px" height="135px" viewBox="0 0 135 135" version="1.1" xmlns="http://www.w3.org/2000/svg" xmlns:xlink="http://www.w3.org/1999/xlink">
    <title>agendamento_sucesso</title>
    <g id="Page-1" stroke="none" stroke-width="1" fill="none" fill-rule="evenodd">
        <g id="agendamento_sucesso" fill-rule="nonzero">
            <g id="icon_semdatas">
                <g id="semdatas">
                    <circle id="Oval-2" fill="#00C0D2" cx="67.5" cy="67.5" r="67.5"></circle>
                    <g id="icon" transform="translate(45.000000, 42.000000)" fill="#FFFFFF">
                        <g id="Group">
                            <path d="M41.9748866,6.06908029 L35.8004345,6.06908029 L35.8004345,2.02677875 C35.8004345,0.908216373 34.8936673,0 33.7753211,0 C32.6569749,0 31.7502077,0.907512875 31.7502077,2.02677875 L31.7502077,6.06908029 L12.2497923,6.06908029 L12.2497923,2.02677875 C12.2497923,0.908216373 11.3430251,0 10.2246789,0 C9.10633267,0 8.19956547,0.907512875 8.19956547,2.02677875 L8.19956547,6.06908029 L2.02511343,6.06908029 C0.907470126,6.06908029 0,6.97659316 0,8.09585904 L0,48.0784844 C0,49.1970468 0.906767206,50.1052632 2.02511343,50.1052632 L41.9748866,50.1052632 C43.0932328,50.1045597 44,49.1970468 44,48.0777809 L44,8.09585904 C44,6.97729666 43.0932328,6.06908029 41.9748866,6.06908029 Z M39.9504761,46.0517057 L4.05022685,46.0517057 L4.05022685,10.1219343 L8.20026839,10.1219343 L8.20026839,12.7199537 C8.20026839,13.8385161 9.10703559,14.7467325 10.2253818,14.7467325 C11.343728,14.7467325 12.2504952,13.8392196 12.2504952,12.7199537 L12.2504952,10.1219343 L31.7516135,10.1219343 L31.7516135,12.7199537 C31.7516135,13.8385161 32.6583807,14.7467325 33.7767269,14.7467325 C34.8950732,14.7467325 35.8018404,13.8392196 35.8018404,12.7199537 L35.8018404,10.1219343 L39.9518819,10.1219343 L39.9518819,46.0517057 L39.9504761,46.0517057 Z" id="Shape"></path>
                        </g>
                    </g>
                </g>
            </g>
            <polygon id="Shape" fill="#FFFFFF" points="63.3333333 74.1263396 58.4444444 69.2764897 56 71.7014146 63.3333333 78.9779044 78 64.4266399 75.5555556 62"></polygon>
        </g>
    </g>
</svg>