<svg width="135" height="135" viewBox="0 0 135 135" fill="none" xmlns="http://www.w3.org/2000/svg">
<path d="M67.5 135C104.779 135 135 104.779 135 67.5C135 30.2208 104.779 0 67.5 0C30.2208 0 0 30.2208 0 67.5C0 104.779 30.2208 135 67.5 135Z" fill="#00C0D2"/>
<path d="M87 48.1H80.8V44C80.8 42.9 79.9 42 78.8 42C77.7 42 76.8 42.9 76.8 44V48H57.2V44C57.2 42.9 56.3 42 55.2 42C54.1 42 53.2 42.9 53.2 44V48H47C45.9 48 45 48.9 45 50V90C45 91.1 45.9 92 47 92H87C88.1 92 89 91.1 89 90V50C89 49 88.1 48.1 87 48.1ZM85 88.1H49.1V52.1H53.3V54.7C53.3 55.8 54.2 56.7 55.3 56.7C56.4 56.7 57.3 55.8 57.3 54.7V52.1H76.8V54.7C76.8 55.8 77.7 56.7 78.8 56.7C79.9 56.7 80.8 55.8 80.8 54.7V52.1H85V88.1Z" fill="white"/>
<path d="M68.5598 59.242H65.1622V71.8546H68.5598V59.242ZM64.8018 77.26H68.9202V73.1416H64.8018V77.26Z" fill="white"/>
</svg>
