<?xml version="1.0" encoding="utf-8"?>
<!-- Generator: Adobe Illustrator 22.0.0, SVG Export Plug-In . SVG Version: 6.00 Build 0)  -->
<svg version="1.1" id="Layer_1" xmlns="http://www.w3.org/2000/svg" xmlns:xlink="http://www.w3.org/1999/xlink" x="0px" y="0px"
	 viewBox="0 0 135 135" style="enable-background:new 0 0 135 135;" xml:space="preserve">
<style type="text/css">
	.st0{fill:#00C0D2;}
	.st1{fill:#FFFFFF;}
</style>
<title>icon_semdatas</title>
<desc>Created with Sketch.</desc>
<g id="agendar_visita_semdatas" transform="translate(-293.000000, -254.000000)">
	<g id="icon_semdatas" transform="translate(293.000000, 254.000000)">
		<circle id="Oval-2" class="st0" cx="67.5" cy="67.5" r="67.5"/>
		<g id="icon" transform="translate(45.000000, 42.000000)">
			<g id="Group">
				<path id="Shape" class="st1" d="M42,6.1h-6.2V2c0-1.1-0.9-2-2-2s-2,0.9-2,2v4H12.2V2c0-1.1-0.9-2-2-2s-2,0.9-2,2v4H2
					c-1.1,0-2,0.9-2,2v40c0,1.1,0.9,2,2,2H42c1.1,0,2-0.9,2-2v-40C44,7,43.1,6.1,42,6.1z M40,46.1H4.1V10.1h4.2v2.6c0,1.1,0.9,2,2,2
					s2-0.9,2-2v-2.6h19.5v2.6c0,1.1,0.9,2,2,2c1.1,0,2-0.9,2-2v-2.6H40L40,46.1L40,46.1z"/>

					<g id="Group-2" transform="translate(21.755634, 29.354017) rotate(-45.000000) translate(-21.755634, -29.354017) translate(7.183673, 14.315789)">
					<path id="Fill-456" class="st1" d="M27.5,13.1H1.5c-0.8,0-1.5,0.6-1.5,1.4c0,0.8,0.7,1.4,1.5,1.4h26.1c0.8,0,1.5-0.6,1.5-1.4
						C29,13.7,28.4,13.1,27.5,13.1z"/>
					<path id="Fill-457" class="st1" d="M14.3,29.1c0.8,0,1.4-0.7,1.4-1.5V1.6c0-0.8-0.6-1.5-1.4-1.5c-0.8,0-1.4,0.7-1.4,1.5v26.1
						C12.9,28.4,13.5,29.1,14.3,29.1"/>
				</g>
			</g>
		</g>
	</g>
</g>
</svg>
