<?xml version="1.0" encoding="UTF-8"?>
<svg width="60px" height="60px" viewBox="0 0 60 60" version="1.1" xmlns="http://www.w3.org/2000/svg" xmlns:xlink="http://www.w3.org/1999/xlink">
    <!-- Generator: Sketch 59 (86127) - https://sketch.com -->
    <title>Group 9</title>
    <desc>Created with Sketch.</desc>
    <g id="AGENDADO" stroke="none" stroke-width="1" fill="none" fill-rule="evenodd">
        <g id="Group-9" transform="translate(1.000000, 2.000000)">
            <g id="agendamento-/-alerta-copy-3" stroke="#00C0D2" stroke-width="3">
                <g id="agendamento">
                    <g id="Group-6">
                        <g id="offline_icon-copy-5">
                            <g id="offline_icon-copy-6">
                                <circle id="Oval-Copy-7" cx="28.6728516" cy="28.3271484" r="27.8623047"></circle>
                            </g>
                        </g>
                    </g>
                </g>
            </g>
            <g id="noun_21227_cc" transform="translate(14.810547, 10.000000)" fill="#00C0D2" fill-rule="nonzero">
                <g id="Group">
                    <path d="M27.3639975,4.27165362 L23.365838,4.27165362 L23.365838,1.66187991 C23.365838,0.939718378 22.7786766,0.353359545 22.0545108,0.353359545 C21.3303451,0.353359545 20.7431837,0.939264188 20.7431837,1.66187991 L20.7431837,4.27165362 L8.11602721,4.27165362 L8.11602721,1.66187991 C8.11602721,0.939718378 7.5288658,0.353359545 6.80470006,0.353359545 C6.08053432,0.353359545 5.49337291,0.939264188 5.49337291,1.66187991 L5.49337291,4.27165362 L1.49521336,4.27165362 C0.771502783,4.27165362 0.183886209,4.85755826 0.183886209,5.58017399 L0.183886209,31.3935883 C0.183886209,32.1157499 0.771047619,32.7021087 1.49521336,32.7021087 L27.3639975,32.7021087 C28.0881633,32.7016545 28.6753247,32.1157499 28.6753247,31.3931341 L28.6753247,5.58017399 C28.6753247,4.85801245 28.0881633,4.27165362 27.3639975,4.27165362 Z M26.0531255,30.085068 L2.80654051,30.085068 L2.80654051,6.88824017 L5.49382808,6.88824017 L5.49382808,8.56556253 C5.49382808,9.28772407 6.08098949,9.8740829 6.80515523,9.8740829 C7.52932096,9.8740829 8.11648237,9.28817826 8.11648237,8.56556253 L8.11648237,6.88824017 L20.744094,6.88824017 L20.744094,8.56556253 C20.744094,9.28772407 21.3312554,9.8740829 22.0554212,9.8740829 C22.7795869,9.8740829 23.3667483,9.28817826 23.3667483,8.56556253 L23.3667483,6.88824017 L26.0540359,6.88824017 L26.0540359,30.085068 L26.0531255,30.085068 Z" id="Shape"></path>
                </g>
            </g>
            <g id="Group-14" transform="translate(24.310547, 23.958144)" stroke="#00C0D2" stroke-linecap="round" stroke-width="3">
                <line x1="0.331558051" y1="0.419278353" x2="10.3942385" y2="9.64340211" id="Line-2"></line>
                <line x1="0.331558051" y1="0.419278353" x2="10.3942385" y2="9.64340211" id="Line-2-Copy" transform="translate(5.450619, 5.031340) scale(-1, 1) translate(-5.450619, -5.031340) "></line>
            </g>
        </g>
    </g>
</svg>
