<?xml version="1.0" encoding="UTF-8"?>
<svg width="60px" height="60px" viewBox="0 0 60 60" version="1.1" xmlns="http://www.w3.org/2000/svg" xmlns:xlink="http://www.w3.org/1999/xlink">
    <!-- Generator: Sketch 59 (86127) - https://sketch.com -->
    <title>Group 10</title>
    <desc>Created with Sketch.</desc>
    <defs>
        <circle id="path-1" cx="27.8623047" cy="27.8623047" r="27.8623047"></circle>
    </defs>
    <g id="AGENDADO" stroke="none" stroke-width="1" fill="none" fill-rule="evenodd">
        <g id="Group-10" transform="translate(2.395391, 2.062068)">
            <g id="Group-9">
                <g id="Group-5">
                    <mask id="mask-2" fill="white">
                        <use xlink:href="#path-1"></use>
                    </mask>
                    <g id="Mask"></g>
                    <g mask="url(#mask-2)" stroke="#00C0D2" stroke-width="2">
                        <g transform="translate(6.482910, 9.035156)">
                            <line x1="6.86888063" y1="14" x2="35.5442053" y2="14" id="Line-3" stroke-linecap="square"></line>
                            <line x1="10.206543" y1="41.2325557" x2="32.206543" y2="41.2325557" id="Line-3-Copy-4" stroke-linecap="square"></line>
                            <line x1="21.206543" y1="9.5" x2="21.206543" y2="0.5" id="Line-3-Copy" stroke-linecap="square"></line>
                            <line x1="17.206543" y1="9.5" x2="17.206543" y2="3.95410156" id="Line-3-Copy-2" stroke-linecap="square"></line>
                            <line x1="25.206543" y1="9.5" x2="25.206543" y2="3.95410156" id="Line-3-Copy-3" stroke-linecap="square"></line>
                            <path d="M9.70654297,32.2165553 L9.70654297,41.0083008 L13.2802734,41.0083008 L13.2802734,31.0032553 L9.70654297,32.2165553 Z M9.33934138,44.6957472 C9.52381339,44.7793123 9.64878304,44.8158193 9.69587005,44.8158193 C9.55689846,44.8158193 9.35970045,44.937774 9.28773722,45.10529 C9.31321719,45.0459777 9.33109722,44.906976 9.33934138,44.6957472 Z" id="Rectangle"></path>
                            <path d="M29.8579102,32.2165553 L29.8579102,43.1661277 L30.2479712,41.0141602 L33.4316406,41.0141602 L33.4316406,31.0032553 L29.8579102,32.2165553 Z M29.8579102,44.5 L29.8579102,44.9953952 L29.5829267,45.2250165 L29.4997896,45.1418794 L29.6161353,44.5 L29.8579102,44.5 Z" id="Rectangle-Copy-2" transform="translate(31.644775, 37.553845) scale(-1, 1) translate(-31.644775, -37.553845) "></path>
                            <path d="M0,42.3320313 L1.5478143,35.7485551 C1.76994543,34.8037422 2.43543996,34.024769 3.33397447,33.6578229 L13.2514648,29.6076896 L13.2514648,29.6076896 L14.2802734,25.6831055 C16.8102214,26.8943685 19.1189779,27.5 21.206543,27.5 C23.2941081,27.5 25.5817057,26.8943685 28.0693359,25.6831055 L29.7880859,29.6076896 L39.470764,33.616428 C40.4148753,34.0073133 41.0951118,34.8518632 41.2758695,35.8575789 C41.9669565,39.7027102 42.3125,41.860861 42.3125,42.3320313 C42.3125,42.8655442 36.3209635,46.1187994 24.3378906,52.0917969 L8.70654297,48.7861328 L0,42.3320313 Z" id="Path-2"></path>
                        </g>
                    </g>
                </g>
                <circle id="Mask-Copy" stroke="#00C0D2" stroke-width="3" cx="27.8623047" cy="27.8623047" r="27.8623047"></circle>
                <path d="M27.6894531,36.5351562 C34.5930125,36.5351562 40.1894531,30.9387156 40.1894531,24.0351562 C40.1894531,17.1315969 34.5930125,10.5351562 27.6894531,10.5351562 C20.7858938,10.5351562 15.1894531,17.1315969 15.1894531,24.0351562 C15.1894531,30.9387156 20.7858938,36.5351562 27.6894531,36.5351562 Z" id="Oval" stroke="#00C0D2" stroke-width="2"></path>
            </g>
            <path d="M21.5868285,45.0329695 C27.8110129,45.0329695 32.9726854,40.4838151 33.9283218,34.5290304" id="Oval-Copy-2" stroke="#00C0D2" stroke-width="2" transform="translate(27.757575, 39.781000) rotate(40.000000) translate(-27.757575, -39.781000) "></path>
        </g>
    </g>
</svg>
