<?xml version="1.0" encoding="UTF-8"?>
<svg width="600px" height="329px" viewBox="0 0 600 329" version="1.1" xmlns="http://www.w3.org/2000/svg" xmlns:xlink="http://www.w3.org/1999/xlink">
    <!-- Generator: Sketch 53 (72520) - https://sketchapp.com -->
    <title>Slice Copy 11</title>
    <desc>Created with Sketch.</desc>
    <g id="Page-1" stroke="none" stroke-width="1" fill="none" fill-rule="evenodd">
        <g id="caboenergiaeletrica" transform="translate(46.500000, 46.000000)" fill-rule="nonzero">
            <path d="M322.726,236.586 L26.379,236.586 C21.704,236.586 17.879,232.761 17.879,228.086 L17.879,228.086 C17.879,223.411 21.704,219.586 26.379,219.586 L322.726,219.586 C327.401,219.586 331.226,223.411 331.226,228.086 L331.226,228.086 C331.226,232.761 327.401,236.586 322.726,236.586 Z" id="XMLID_86_" fill="#D5DAE2"></path>
            <g id="XMLID_158_" transform="translate(401.000000, 0.000000)">
                <g id="XMLID_160_" fill="#E6E6E6">
                    <path d="M100.416,147.652 L5.037,147.652 C2.452,147.652 0.336,145.537 0.336,142.951 L0.336,5.388 C0.336,2.803 2.451,0.687 5.037,0.687 L100.416,0.687 C103.001,0.687 105.117,2.802 105.117,5.388 L105.117,142.951 C105.117,145.537 103.001,147.652 100.416,147.652 Z" id="XMLID_161_"></path>
                </g>
                <path d="M2,1.477 C1,2.115 0,3.273 0,5.388 C0,10.006 0,143.216 0,143.216 C0,143.216 0,145.518 2,146.7 L2,1.477 Z" id="XMLID_98_" fill="#CFCFCF"></path>
            </g>
            <path d="M491.124,95.882 L422.461,95.882 C419.711,95.882 417.461,93.632 417.461,90.882 L417.461,62.696 C417.461,59.946 419.711,57.696 422.461,57.696 L491.124,57.696 C493.874,57.696 496.124,59.946 496.124,62.696 L496.124,90.882 C496.124,93.632 493.874,95.882 491.124,95.882 Z" id="XMLID_84_" fill="#CFCFCF"></path>
            <path d="M476.309,65.119 L487.223,72.64 C490.129,74.643 490.129,78.935 487.223,80.938 L476.309,88.459 C475.468,89.039 474.471,89.349 473.45,89.349 L440.135,89.349 C439.114,89.349 438.117,89.039 437.276,88.459 L426.362,80.938 C423.456,78.935 423.456,74.643 426.362,72.64 L437.276,65.119 C438.117,64.539 439.114,64.229 440.135,64.229 L473.45,64.229 C474.471,64.229 475.468,64.539 476.309,65.119 Z" id="XMLID_83_" fill="#645E5E"></path>
            <g id="XMLID_78_" transform="translate(303.000000, 72.000000)" fill="#5A5657">
                <g id="XMLID_79_">
                    <path d="M15.352,116.274 C11.532,115.528 7.639,114.696 3.659,113.778 L3.884,112.803 C53.085,124.17 90.013,122.314 113.635,107.316 C136.535,92.776 141.63,69.173 144.367,56.493 L144.609,55.374 C149.61,32.356 153.819,4.387 153.861,4.107 L154.85,4.255 C154.808,4.535 150.595,32.536 145.587,55.586 L145.345,56.704 C142.577,69.527 137.425,93.396 114.171,108.16 C92.234,122.089 59.021,124.806 15.352,116.274 Z" id="XMLID_81_"></path>
                    <path d="M14.681,119.709 L14.681,119.709 C10.855,118.961 6.882,118.113 2.872,117.189 C1.967,116.98 1.183,116.421 0.69,115.633 C0.198,114.845 0.039,113.895 0.248,112.99 L0.473,112.015 C0.908,110.131 2.777,108.943 4.671,109.392 C52.92,120.539 88.945,118.845 111.759,104.361 C133.423,90.605 138.317,67.934 140.946,55.754 L141.188,54.633 C146.141,31.837 150.358,3.866 150.399,3.59 C150.536,2.671 151.033,1.845 151.779,1.293 C152.526,0.74 153.462,0.508 154.38,0.646 L155.369,0.794 C157.283,1.064 158.596,2.861 158.311,4.771 C158.269,5.05 154.014,33.277 149.006,56.328 L148.765,57.444 C145.889,70.766 140.537,95.566 116.046,111.115 C93.352,125.525 59.248,128.416 14.681,119.709 Z" id="XMLID_80_"></path>
                </g>
            </g>
            <g id="XMLID_4_">
                <path d="M23,212.732 L23,217.295 C23,222.874 25.673,227.732 28.881,227.732 L74.844,227.732 C78.052,227.732 80,222.874 80,217.295 L80,212.732 L23,212.732 L23,212.732 Z" id="XMLID_2_" fill="#2D2B2C"></path>
                <path d="M270,212.732 L270,217.295 C270,222.874 272.298,227.732 275.506,227.732 L321.469,227.732 C324.677,227.732 327,222.874 327,217.295 L327,212.732 L270,212.732 L270,212.732 Z" id="XMLID_3_" fill="#2D2B2C"></path>
                <path d="M321.508,143.101 L313.637,143.101 C312.616,143.101 311.781,142.266 311.781,141.245 L311.781,2.189 C311.781,1.168 312.616,0.333 313.637,0.333 L321.508,0.333 C322.529,0.333 323.364,1.168 323.364,2.189 L323.364,141.245 C323.365,142.266 322.529,143.101 321.508,143.101 Z" id="XMLID_75_" fill="#2D2B2C"></path>
                <path d="M331.1,213.188 L18.006,213.188 C8.277,213.188 0.317,205.228 0.317,195.499 L0.317,128.689 C0.317,118.96 8.277,111 18.006,111 L331.1,111 C340.829,111 348.789,118.96 348.789,128.689 L348.789,195.499 C348.788,205.228 340.828,213.188 331.1,213.188 Z" id="XMLID_74_" fill="#645E5E"></path>
                <path d="M316.252,188.651 L32.854,188.651 C27.188,188.651 22.553,184.016 22.553,178.35 L22.553,145.839 C22.553,140.173 27.188,135.538 32.854,135.538 L316.252,135.538 C321.918,135.538 326.553,140.173 326.553,145.839 L326.553,178.35 C326.553,184.015 321.917,188.651 316.252,188.651 Z" id="XMLID_47_" fill="#7C7777"></path>
                <circle id="XMLID_7_" fill="#00D400" cx="48.309" cy="163.059" r="7.965"></circle>
                <circle id="XMLID_6_" fill="#00B9FA" cx="79.221" cy="163.158" r="7.866"></circle>
                <circle id="XMLID_5_" fill="#00B9FA" cx="110.133" cy="163.059" r="7.965"></circle>
            </g>
        </g>
    </g>
</svg>