<?xml version="1.0" encoding="UTF-8"?>
<svg width="600px" height="337px" viewBox="0 0 600 337" version="1.1" xmlns="http://www.w3.org/2000/svg" xmlns:xlink="http://www.w3.org/1999/xlink">
    <!-- Generator: Sketch 53 (72520) - https://sketchapp.com -->
    <title>ligaredesligarocabodeenergia</title>
    <desc>Created with Sketch.</desc>
    <g id="Page-1" stroke="none" stroke-width="1" fill="none" fill-rule="evenodd">
        <g id="ligaredesligarocabodeenergia" fill-rule="nonzero">
            <g id="XMLID_90_" transform="translate(0.000000, 30.000000)">
                <g id="XMLID_97_" transform="translate(201.000000, 0.000000)" fill="#CFCFCF">
                    <path d="M8,49.732 L8,4.226 C8,1.976 6.25,0.136 4,0.136 C1.75,0.136 0,1.977 0,4.226 L0,49.733 L8,49.733 L8,49.732 Z" id="XMLID_47_"></path>
                    <path d="M59,49.732 L59,4.226 C59,1.976 57.25,0.136 55,0.136 C52.75,0.136 51,1.977 51,4.226 L51,49.733 L59,49.733 L59,49.732 Z" id="XMLID_7_"></path>
                    <path d="M33,49.732 L33,4.226 C33,1.976 31.25,0.136 29,0.136 C26.75,0.136 25,1.977 25,4.226 L25,49.733 L33,49.733 L33,49.732 Z" id="XMLID_6_"></path>
                </g>
                <polygon id="XMLID_5_" fill="#645E5E" points="194.33 60.732 194.315 90.659 220.005 121.055 241.512 121.094 267.316 90.669 267.33 60.732"></polygon>
                <rect id="XMLID_95_" fill="#645E5E" x="185.479" y="47.086" width="90.525" height="13.639"></rect>
                <polygon id="XMLID_4_" fill="#5A5657" points="267 60.732 267 67.135 219.815 60.732"></polygon>
                <polygon id="XMLID_3_" fill="#5A5657" points="194.346 90.732 220.005 121.092 241.512 121.185 267.313 90.732"></polygon>
                <rect id="XMLID_92_" fill="#5A5657" x="220.416" y="122.828" width="20.65" height="6.187"></rect>
                <path d="M224.83,130.732 L237.960296,130.732 C237.960296,130.732 237.763,137.951 237.942,156.44 C237.978,160.138 237.963,164.247 237.878,168.872 C237.331,191.622 237.331,216.604 225.543,236.845 C224.023,239.782 222.361,242.632 220.563,245.4 C218.765,248.168 216.831,250.841 214.765,253.417 C210.331,258.59 206.331,263.588 200.88,267.549 C198.28,269.829 195.582,272.006 192.796,274.082 C168.33,293.588 137.33,302.587 106.412,305.522 C101.714,305.916 96.726,306.191 91.853,306.368 C47.977,307.962 0,301.586 0,301.586 L0,292.586 C0,292.586 40.477,297.274 84.54,295.398 C89.433,295.19 94.455,294.9 99.385,294.515 C131.248,292.586 164.289,283.586 188.246,261.451 C190.563,259.365 192.812,257.194 194.952,254.942 C219.309,230.586 228.32,196.586 225.986,163.464 C225.871,159.753 225.7,156.284 225.491,152.993 C224.658,139.826 224.83,130.732 224.83,130.732 Z" id="XMLID_2_" fill="#5A5657"></path>
            </g>
            <g id="XMLID_80_" transform="translate(449.000000, 0.000000)">
                <g id="XMLID_82_">
                    <path d="M144.087,211.955 L7.152,211.955 C3.44,211.955 0.403,208.918 0.403,205.206 L0.403,7.706 C0.403,3.994 3.44,0.957 7.152,0.957 L144.087,0.957 C147.799,0.957 150.836,3.994 150.836,7.706 L150.836,205.206 C150.836,208.918 147.799,211.955 144.087,211.955 Z" id="XMLID_89_" fill="#E6E6E6"></path>
                    <path d="M126.377,133.523 L24.862,133.523 C22.112,133.523 19.862,131.273 19.862,128.523 L19.862,84.389 C19.862,81.639 22.112,79.389 24.862,79.389 L126.377,79.389 C129.127,79.389 131.377,81.639 131.377,84.389 L131.377,128.523 C131.377,131.273 129.127,133.523 126.377,133.523 Z" id="XMLID_88_" fill="#CFCFCF"></path>
                    <path d="M102.748,89.54 L121.273,102.307 C124.179,104.31 124.179,108.602 121.273,110.605 L102.748,123.372 C101.907,123.952 100.91,124.262 99.889,124.262 L51.351,124.262 C50.33,124.262 49.333,123.952 48.492,123.372 L29.967,110.605 C27.061,108.602 27.061,104.31 29.967,102.307 L48.492,89.54 C49.333,88.96 50.33,88.65 51.351,88.65 L99.889,88.65 C100.91,88.65 101.907,88.96 102.748,89.54 Z" id="XMLID_87_" fill="#E0E0E0"></path>
                    <g id="XMLID_83_" transform="translate(49.000000, 98.000000)" fill="#5A5657">
                        <circle id="XMLID_86_" cx="5.237" cy="4.575" r="4.363"></circle>
                        <circle id="XMLID_85_" cx="48.001" cy="4.575" r="4.363"></circle>
                        <circle id="XMLID_84_" cx="26.619" cy="12.338" r="4.363"></circle>
                    </g>
                </g>
                <path d="M3,2.091 C2,3.007 0,4.669 0,7.706 C0,14.336 0,205.586 0,205.586 C0,205.586 1,208.89 3,210.588 L3,2.091 Z" id="XMLID_1_" fill="#CFCFCF"></path>
            </g>
            <g id="XMLID_77_" transform="translate(291.000000, 88.000000)">
                <path d="M109.175,42.334 C109.175,37.648 109.175,33.117 109.175,28.379 C120.883,36.239 132.397,43.969 144.012,51.767 C132.419,59.365 120.905,66.912 109.215,74.573 C109.215,69.861 109.215,65.328 109.215,60.719 C87.93,60.719 66.76,60.719 45.507,60.719 C45.507,54.572 45.507,48.5 45.507,42.334 C66.649,42.334 87.814,42.334 109.175,42.334 Z" id="XMLID_79_" fill="#00D400"></path>
                <path d="M34.889,32.853 C34.889,37.537 34.889,42.068 34.889,46.809 C23.18,38.949 11.667,31.221 0.046,23.42 C11.641,15.822 23.154,8.278 34.847,0.616 C34.847,5.326 34.847,9.858 34.847,14.468 C56.135,14.468 77.302,14.468 98.551,14.468 C98.551,20.618 98.551,26.689 98.551,32.853 C77.41,32.853 56.246,32.853 34.889,32.853 Z" id="XMLID_78_" fill="#00B9FA"></path>
            </g>
        </g>
    </g>
</svg>