<svg width="457" height="210" viewBox="0 0 457 210" fill="none" xmlns="http://www.w3.org/2000/svg">
<path fill-rule="evenodd" clip-rule="evenodd" d="M118.808 70.1081V40.9087C118.808 39.461 117.684 38.2759 116.238 38.2759C114.792 38.2759 113.668 39.461 113.668 40.9087V70.1081H118.808Z" fill="#CFCFCF"/>
<path fill-rule="evenodd" clip-rule="evenodd" d="M151.578 70.1081V40.9087C151.578 39.461 150.453 38.2759 149.008 38.2759C147.562 38.2759 146.438 39.461 146.438 40.9087V70.1081H151.578Z" fill="#CFCFCF"/>
<path fill-rule="evenodd" clip-rule="evenodd" d="M134.871 70.1081V40.9087C134.871 39.461 133.746 38.2759 132.3 38.2759C130.855 38.2759 129.73 39.461 129.73 40.9087V70.1081H134.871Z" fill="#CFCFCF"/>
<path fill-rule="evenodd" clip-rule="evenodd" d="M109.173 77.189L109.164 96.5003L125.669 116.09L139.488 116.126L156.067 96.5003L156.076 77.189H109.173Z" fill="#645E5E"/>
<mask id="mask0" mask-type="alpha" maskUnits="userSpaceOnUse" x="34" y="-11" width="390" height="215">
<path fill-rule="evenodd" clip-rule="evenodd" d="M34.4297 203.734H423.999V-10.3564H34.4297V203.734Z" fill="white"/>
</mask>
<g mask="url(#mask0)">
<path fill-rule="evenodd" clip-rule="evenodd" d="M103.484 77.2786H161.647V68.499H103.484V77.2786Z" fill="#645E5E"/>
<path fill-rule="evenodd" clip-rule="evenodd" d="M156.075 77.189V81.4046L125.547 77.189H156.075Z" fill="#5A5657"/>
<path fill-rule="evenodd" clip-rule="evenodd" d="M109.184 96.5005L125.67 116.09L139.488 116.127L156.065 96.5005H109.184Z" fill="#5A5657"/>
<path fill-rule="evenodd" clip-rule="evenodd" d="M125.934 121.238H139.201V117.255H125.934V121.238Z" fill="#5A5657"/>
<path fill-rule="evenodd" clip-rule="evenodd" d="M128.77 122.249H137.206C137.206 122.249 137.078 126.943 137.193 138.845C137.217 141.225 137.208 143.894 137.152 146.871C136.801 161.515 136.801 177.608 129.227 190.638C128.25 192.529 127.183 194.369 126.027 196.15C124.872 197.932 123.629 199.656 122.302 201.314C119.453 204.644 116.883 207.863 113.382 210.413C111.711 211.88 109.977 213.282 108.188 214.618C92.468 227.174 72.5504 232.968 52.6855 234.857C49.667 235.111 46.5675 235.288 43.4373 235.401C15.2474 236.428 -15.4727 232.324 -15.4727 232.324V226.53C-15.4727 226.53 10.4286 229.548 38.7386 228.341C41.8824 228.207 45.0564 228.021 48.2233 227.772C68.6954 226.53 89.898 220.737 105.29 206.488C106.779 205.146 108.211 203.748 109.586 202.299C125.236 186.62 131.018 164.734 129.519 143.413C129.445 141.024 129.332 138.744 129.198 136.625C128.662 128.15 128.77 122.249 128.77 122.249Z" fill="#5A5657"/>
<path fill-rule="evenodd" clip-rule="evenodd" d="M365.376 155.315H277.395C275.01 155.315 273.059 153.36 273.059 150.971V23.8376C273.059 21.4481 275.01 19.4932 277.395 19.4932H365.376C367.761 19.4932 369.712 21.4481 369.712 23.8376V150.971C369.712 153.36 367.761 155.315 365.376 155.315Z" fill="#E6E6E6"/>
<path fill-rule="evenodd" clip-rule="evenodd" d="M353.995 104.828H288.771C287.004 104.828 285.559 103.379 285.559 101.609V73.1995C285.559 71.4293 287.004 69.981 288.771 69.981H353.995C355.762 69.981 357.207 71.4293 357.207 73.1995V101.609C357.207 103.379 355.762 104.828 353.995 104.828Z" fill="#CFCFCF"/>
<path fill-rule="evenodd" clip-rule="evenodd" d="M338.815 76.5153L350.718 84.7336C352.586 86.0229 352.586 88.7864 350.718 90.0751L338.815 98.2934C338.275 98.6667 337.634 98.8663 336.978 98.8663H305.793C305.136 98.8663 304.495 98.6667 303.955 98.2934L292.053 90.0751C290.186 88.7864 290.186 86.0229 292.053 84.7336L303.955 76.5153C304.495 76.1419 305.136 75.9424 305.793 75.9424H336.978C337.634 75.9424 338.275 76.1419 338.815 76.5153Z" fill="#E0E0E0"/>
<path fill-rule="evenodd" clip-rule="evenodd" d="M310.45 84.9062C310.45 86.4569 309.195 87.7147 307.647 87.7147C306.099 87.7147 304.844 86.4569 304.844 84.9062C304.844 83.3548 306.099 82.0977 307.647 82.0977C309.195 82.0977 310.45 83.3548 310.45 84.9062Z" fill="#5A5657"/>
<path fill-rule="evenodd" clip-rule="evenodd" d="M335.925 82.2148C337.408 82.6577 338.253 84.2219 337.811 85.7083C337.368 87.1946 335.807 88.0404 334.324 87.5976C332.84 87.1547 331.995 85.5905 332.438 84.1041C332.88 82.6178 334.441 81.772 335.925 82.2148Z" fill="#5A5657"/>
<path fill-rule="evenodd" clip-rule="evenodd" d="M324.189 89.9032C324.189 91.4546 322.934 92.7118 321.385 92.7118C319.837 92.7118 318.582 91.4546 318.582 89.9032C318.582 88.3525 319.837 87.0947 321.385 87.0947C322.934 87.0947 324.189 88.3525 324.189 89.9032Z" fill="#5A5657"/>
<path fill-rule="evenodd" clip-rule="evenodd" d="M274.939 20.2231C273.937 20.8128 273.012 21.8826 273.012 23.8376V151.216C273.012 151.216 273.165 153.343 274.939 154.435V20.2231Z" fill="#CFCFCF"/>
<path fill-rule="evenodd" clip-rule="evenodd" d="M241.43 102.775V93.7925C248.953 98.8521 256.351 103.828 263.813 108.848C256.364 113.739 248.967 118.597 241.456 123.528V114.61H200.523V102.775H241.43Z" fill="#00D400"/>
<path fill-rule="evenodd" clip-rule="evenodd" d="M193.699 96.6718V105.655C186.176 100.596 178.779 95.6212 171.312 90.5996C178.762 85.7093 186.16 80.8525 193.672 75.9204V84.8371H234.602V96.6718H193.699Z" fill="#00B9FA"/>
</g>
</svg>
