<svg width="434" height="222" viewBox="0 0 434 222" fill="none" xmlns="http://www.w3.org/2000/svg">
<path fill-rule="evenodd" clip-rule="evenodd" d="M215.089 103.53V72.7199C215.089 71.1923 213.907 69.9419 212.388 69.9419C210.869 69.9419 209.688 71.1923 209.688 72.7199V103.53H215.089Z" fill="#CFCFCF"/>
<path fill-rule="evenodd" clip-rule="evenodd" d="M249.523 103.53V72.7199C249.523 71.1923 248.341 69.9419 246.822 69.9419C245.303 69.9419 244.121 71.1923 244.121 72.7199V103.53H249.523Z" fill="#CFCFCF"/>
<path fill-rule="evenodd" clip-rule="evenodd" d="M231.968 103.53V72.7199C231.968 71.1923 230.786 69.9419 229.267 69.9419C227.748 69.9419 226.566 71.1923 226.566 72.7199V103.53H231.968Z" fill="#CFCFCF"/>
<path fill-rule="evenodd" clip-rule="evenodd" d="M204.959 111.001L204.949 131.378L222.294 152.048L236.815 152.087L254.238 131.378L254.247 111.001H204.959Z" fill="#645E5E"/>
<mask id="mask0" mask-type="alpha" maskUnits="userSpaceOnUse" x="0" y="-5" width="411" height="227">
<path fill-rule="evenodd" clip-rule="evenodd" d="M0.832031 221.433H410.217V-4.46582H0.832031V221.433Z" fill="white"/>
</mask>
<g mask="url(#mask0)">
<path fill-rule="evenodd" clip-rule="evenodd" d="M198.984 111.096H260.105V101.832H198.984V111.096Z" fill="#645E5E"/>
<path fill-rule="evenodd" clip-rule="evenodd" d="M254.249 111.001V115.45L222.168 111.001H254.249Z" fill="#5A5657"/>
<path fill-rule="evenodd" clip-rule="evenodd" d="M204.973 131.378L222.297 152.048L236.818 152.087L254.239 131.378H204.973Z" fill="#5A5657"/>
<path fill-rule="evenodd" clip-rule="evenodd" d="M222.574 157.48H236.517V153.277H222.574V157.48Z" fill="#5A5657"/>
<path fill-rule="evenodd" clip-rule="evenodd" d="M225.552 158.547H234.417C234.417 158.547 234.283 163.5 234.404 176.058C234.428 178.57 234.419 181.386 234.361 184.527C233.991 199.979 233.991 216.96 226.032 230.708C225.006 232.703 223.884 234.645 222.67 236.525C221.456 238.405 220.15 240.224 218.755 241.973C215.761 245.487 213.061 248.883 209.381 251.574C207.625 253.121 205.803 254.601 203.923 256.011C187.404 269.26 166.473 275.373 145.598 277.366C142.426 277.634 139.169 277.821 135.878 277.941C106.255 279.024 73.9727 274.693 73.9727 274.693V268.581C73.9727 268.581 101.191 271.764 130.941 270.49C134.245 270.349 137.58 270.153 140.908 269.891C162.422 268.581 184.703 262.468 200.878 247.433C202.443 246.016 203.947 244.542 205.392 243.012C221.838 226.469 227.915 203.375 226.34 180.878C226.262 178.358 226.142 175.952 226.002 173.716C225.439 164.773 225.552 158.547 225.552 158.547Z" fill="#5A5657"/>
<path fill-rule="evenodd" clip-rule="evenodd" d="M369.541 165.589H277.084C274.578 165.589 272.527 163.527 272.527 161.005V26.8594C272.527 24.3382 274.578 22.2754 277.084 22.2754H369.541C372.047 22.2754 374.097 24.3382 374.097 26.8594V161.005C374.097 163.527 372.047 165.589 369.541 165.589Z" fill="#E6E6E6"/>
<path fill-rule="evenodd" clip-rule="evenodd" d="M357.585 112.317H289.044C287.187 112.317 285.668 110.789 285.668 108.921V78.944C285.668 77.0761 287.187 75.5479 289.044 75.5479H357.585C359.442 75.5479 360.961 77.0761 360.961 78.944V108.921C360.961 110.789 359.442 112.317 357.585 112.317Z" fill="#CFCFCF"/>
<path fill-rule="evenodd" clip-rule="evenodd" d="M341.629 82.4424L354.136 91.114C356.099 92.4745 356.099 95.3904 354.136 96.7502L341.629 105.422C341.061 105.816 340.388 106.026 339.698 106.026H306.926C306.236 106.026 305.563 105.816 304.995 105.422L292.487 96.7502C290.525 95.3904 290.525 92.4745 292.487 91.114L304.995 82.4424C305.563 82.0484 306.236 81.8379 306.926 81.8379H339.698C340.388 81.8379 341.061 82.0484 341.629 82.4424Z" fill="#E0E0E0"/>
<path fill-rule="evenodd" clip-rule="evenodd" d="M311.821 91.2964C311.821 92.9327 310.503 94.2599 308.876 94.2599C307.249 94.2599 305.93 92.9327 305.93 91.2964C305.93 89.6602 307.249 88.333 308.876 88.333C310.503 88.333 311.821 89.6602 311.821 91.2964Z" fill="#5A5657"/>
<path fill-rule="evenodd" clip-rule="evenodd" d="M338.593 88.4567C340.152 88.924 341.039 90.5745 340.574 92.1428C340.109 93.7111 338.469 94.6036 336.91 94.1363C335.35 93.669 334.463 92.0185 334.928 90.4502C335.393 88.8819 337.034 87.9894 338.593 88.4567Z" fill="#5A5657"/>
<path fill-rule="evenodd" clip-rule="evenodd" d="M326.259 96.5689C326.259 98.2052 324.94 99.5323 323.313 99.5323C321.686 99.5323 320.367 98.2052 320.367 96.5689C320.367 94.932 321.686 93.6055 323.313 93.6055C324.94 93.6055 326.259 94.932 326.259 96.5689Z" fill="#5A5657"/>
<path fill-rule="evenodd" clip-rule="evenodd" d="M274.506 23.0454C273.453 23.6676 272.48 24.7964 272.48 26.8592V161.264C272.48 161.264 272.642 163.508 274.506 164.661V23.0454Z" fill="#CFCFCF"/>
<path fill-rule="evenodd" clip-rule="evenodd" d="M131.201 165.589H38.7443C36.238 165.589 34.1875 163.527 34.1875 161.005V26.8594C34.1875 24.3382 36.238 22.2754 38.7443 22.2754H131.201C133.707 22.2754 135.758 24.3382 135.758 26.8594V161.005C135.758 163.527 133.707 165.589 131.201 165.589Z" fill="#E6E6E6"/>
<path fill-rule="evenodd" clip-rule="evenodd" d="M119.245 112.317H50.704C48.8473 112.317 47.3281 110.789 47.3281 108.921V78.944C47.3281 77.0761 48.8473 75.5479 50.704 75.5479H119.245C121.102 75.5479 122.621 77.0761 122.621 78.944V108.921C122.621 110.789 121.102 112.317 119.245 112.317Z" fill="#CFCFCF"/>
<path fill-rule="evenodd" clip-rule="evenodd" d="M103.289 82.4424L115.796 91.114C117.759 92.4745 117.759 95.3904 115.796 96.7502L103.289 105.422C102.721 105.816 102.048 106.026 101.358 106.026H68.5862C67.8961 106.026 67.223 105.816 66.6551 105.422L54.1473 96.7502C52.1853 95.3904 52.1853 92.4745 54.1473 91.114L66.6551 82.4424C67.223 82.0484 67.8961 81.8379 68.5862 81.8379H101.358C102.048 81.8379 102.721 82.0484 103.289 82.4424Z" fill="#E0E0E0"/>
<path fill-rule="evenodd" clip-rule="evenodd" d="M73.4815 91.2964C73.4815 92.9327 72.1629 94.2599 70.5357 94.2599C68.9092 94.2599 67.5898 92.9327 67.5898 91.2964C67.5898 89.6602 68.9092 88.333 70.5357 88.333C72.1629 88.333 73.4815 89.6602 73.4815 91.2964Z" fill="#5A5657"/>
<path fill-rule="evenodd" clip-rule="evenodd" d="M100.253 88.4567C101.812 88.924 102.699 90.5745 102.234 92.1428C101.769 93.7111 100.129 94.6036 98.5696 94.1363C97.0106 93.669 96.1234 92.0185 96.5886 90.4502C97.0531 88.8819 98.6938 87.9894 100.253 88.4567Z" fill="#5A5657"/>
<path fill-rule="evenodd" clip-rule="evenodd" d="M87.919 96.5689C87.919 98.2052 86.6004 99.5323 84.9732 99.5323C83.3467 99.5323 82.0273 98.2052 82.0273 96.5689C82.0273 94.932 83.3467 93.6055 84.9732 93.6055C86.6004 93.6055 87.919 94.932 87.919 96.5689Z" fill="#5A5657"/>
<path fill-rule="evenodd" clip-rule="evenodd" d="M36.1662 23.0454C35.1129 23.6676 34.1406 24.7964 34.1406 26.8592V161.264C34.1406 161.264 34.302 163.508 36.1662 164.661V23.0454Z" fill="#CFCFCF"/>
<path fill-rule="evenodd" clip-rule="evenodd" d="M204.972 156.545C200.634 168.919 196.695 180.156 192.379 192.468C190.115 188.659 188.49 185.923 186.761 183.015C160.978 197.975 135.65 198.256 111.532 181.031C91.6231 166.812 83.9138 146.333 85.4823 121.963C89.2309 148.69 102.787 167.316 128.937 175.243C145.023 180.12 164.049 176.638 174.973 167.183C172.574 165.025 170.207 162.895 166.72 159.757C179.922 158.649 191.879 157.645 204.972 156.545Z" fill="#00C0D2"/>
</g>
</svg>
