<svg width="30" height="26" viewBox="0 0 30 26" fill="none" xmlns="http://www.w3.org/2000/svg">
<path fill-rule="evenodd" clip-rule="evenodd" d="M5.49874 3.18662C5.43661 3.24716 5.38897 3.32095 5.35937 3.40248L4.03248 7.05743C3.92317 7.35853 3.94354 7.69014 4.09531 7.97224C4.93899 9.54048 7.9525 14.923 11.347 18.3737C14.6748 21.7565 19.1021 24.0282 20.51 24.7022C20.7973 24.8398 21.1259 24.84 21.4188 24.7147L25.3849 23.017C25.4768 22.9777 25.5569 22.9151 25.6172 22.8355L26.9302 21.1031C27.2847 20.6354 27.2306 19.9759 26.8047 19.572L22.762 15.739C22.3039 15.3047 21.5815 15.3202 21.1424 15.7737L17.8044 19.2219C17.8044 19.2219 14.9391 18.3737 13.1643 16.644C11.3895 14.9143 8.91403 10.5578 8.91403 10.5578L12.8467 6.72149C13.3119 6.26761 13.3096 5.51882 12.8414 5.06791L8.98112 1.34993C8.53333 0.91864 7.82402 0.920712 7.37875 1.35461L5.49874 3.18662Z" stroke="#006F0A" stroke-width="1.19943"/>
<circle cx="22.361" cy="4.40182" r="0.839135" transform="rotate(11.0094 22.361 4.40182)" fill="#006F0A"/>
<circle cx="25.5213" cy="7.95089" r="0.839135" transform="rotate(11.0094 25.5213 7.95089)" fill="#006F0A"/>
<circle cx="25.222" cy="10.8894" r="0.839135" transform="rotate(11.0094 25.222 10.8894)" fill="#006F0A"/>
<path d="M18.42 9.98453C18.42 9.98453 20.7495 8.51929 21.5638 6.36911" stroke="#006F0A" stroke-width="0.594906"/>
<path d="M18.4174 9.99777C18.4174 9.99777 21.1954 8.81526 23.3957 8.3922" stroke="#006F0A" stroke-width="0.594906"/>
<path d="M18.0463 10.2456C18.0463 10.2456 19.6209 9.26259 23.1469 10.4996" stroke="#006F0A" stroke-width="0.594906"/>
<path d="M6.43552 12.2305C0.97618 14.1855 1.5703 19.9051 6.694 19.7595C11.8177 19.6138 11.4927 13.0394 18.5111 10.1046" stroke="#006F0A" stroke-width="1.23939"/>
</svg>
