<svg width="25" height="26" viewBox="0 0 25 26" fill="none" xmlns="http://www.w3.org/2000/svg">
<path fill-rule="evenodd" clip-rule="evenodd" d="M2.33876 3.60898C2.27664 3.66952 2.229 3.74331 2.1994 3.82485L0.872511 7.47979C0.763197 7.7809 0.783566 8.11251 0.935332 8.39461C1.77901 9.96284 4.79253 15.3453 8.18703 18.796C11.5149 22.1789 15.9422 24.4506 17.35 25.1246C17.6374 25.2622 17.9659 25.2624 18.2588 25.137L22.225 23.4394C22.3168 23.4001 22.3969 23.3375 22.4572 23.2579L23.7702 21.5255C24.1247 21.0577 24.0707 20.3982 23.6448 19.9944L19.602 16.1614C19.1439 15.7271 18.4215 15.7425 17.9825 16.1961L14.6444 19.6443C14.6444 19.6443 11.7792 18.796 10.0043 17.0664C8.22953 15.3367 5.75406 10.9801 5.75406 10.9801L9.68669 7.14386C10.152 6.68998 10.1496 5.94118 9.68142 5.49027L5.82115 1.7723C5.37335 1.341 4.66404 1.34308 4.21877 1.77698L2.33876 3.60898Z" stroke="#006F0A" stroke-width="1.19943"/>
</svg>
