<svg width="31" height="32" viewBox="0 0 31 32" fill="none" xmlns="http://www.w3.org/2000/svg">
<path fill-rule="evenodd" clip-rule="evenodd" d="M3.06609 4.17357C2.9884 4.24928 2.92882 4.34156 2.8918 4.44353L1.23241 9.01437C1.0957 9.39093 1.12117 9.80564 1.31097 10.1584C2.36608 12.1197 6.13475 18.851 10.3799 23.1664C14.5416 27.397 20.0784 30.2379 21.8391 31.0808C22.1984 31.2529 22.6093 31.2532 22.9756 31.0964L27.9356 28.9733C28.0505 28.9242 28.1506 28.8459 28.2261 28.7463L29.8681 26.5798C30.3114 25.9949 30.2439 25.1701 29.7112 24.6651L24.6554 19.8715C24.0825 19.3284 23.1791 19.3477 22.63 19.9149L18.4554 24.2272C18.4554 24.2272 14.8722 23.1664 12.6526 21.0033C10.433 18.8402 7.33723 13.3919 7.33723 13.3919L12.2554 8.59425C12.8372 8.02664 12.8342 7.0902 12.2488 6.5263L7.42114 1.87662C6.86113 1.33725 5.97407 1.33984 5.41722 1.88248L3.06609 4.17357Z" stroke="white" stroke-width="1.5"/>
<path d="M11.041 9.61356L7.47311 6.19685" stroke="white" stroke-width="0.5" stroke-linecap="round"/>
<path d="M28.7164 27.7079L25.0643 24.3842" stroke="white" stroke-width="0.5" stroke-linecap="round"/>
<path d="M23.0538 22.5179L21.5366 21.0008" stroke="white" stroke-width="0.5" stroke-linecap="round"/>
<path d="M5.67834 4.44787L4.11517 2.90668" stroke="white" stroke-width="0.5" stroke-linecap="round"/>
</svg>
