<svg width="38" height="25" viewBox="0 0 38 25" fill="none" xmlns="http://www.w3.org/2000/svg">
<g id="Group 4 Copy 3">
<g id="icon_blarga_sconexao copy 5">
<g id="offline_icon copy 5">
<g id="Group 9">
<path id="Oval" fill-rule="evenodd" clip-rule="evenodd" d="M19.1128 24.3852C20.1009 24.3852 20.9019 23.5842 20.9019 22.5961C20.9019 21.608 20.1009 20.807 19.1128 20.807C18.1247 20.807 17.3237 21.608 17.3237 22.5961C17.3237 23.5842 18.1247 24.3852 19.1128 24.3852Z" fill="white"/>
<path id="Oval Copy 2" d="M31.7239 13.4797C28.6196 10.0575 24.1373 7.90842 19.153 7.90842C14.1255 7.90842 9.60867 10.095 6.50165 13.569" stroke="white" stroke-width="1.81576" stroke-linecap="round"/>
<path id="Oval Copy 5" opacity="0.2" d="M37 8.90211C32.597 4.04825 26.2394 1 19.1698 1C12.039 1 5.63246 4.10134 1.22556 9.02877" stroke="white" stroke-width="1.81576" stroke-linecap="round"/>
<path id="Oval Copy 3" d="M25.9514 18.1646C24.2681 16.3088 21.8374 15.1434 19.1346 15.1434C16.4083 15.1434 13.959 16.3291 12.2741 18.213" stroke="white" stroke-width="1.81576" stroke-linecap="round"/>
</g>
</g>
</g>
</g>
</svg>
