<svg width="24" height="27" viewBox="0 0 24 27" fill="none" xmlns="http://www.w3.org/2000/svg">
<path d="M13.8548 10.086L13.8811 10.1138L13.9072 10.1415L13.9333 10.1691L13.9593 10.1966L13.9851 10.224L14.0109 10.2513L14.0366 10.2785L14.0622 10.3056L14.0876 10.3326L14.113 10.3595L14.1383 10.3863L14.1635 10.413L14.1886 10.4396L14.2137 10.4661L14.2386 10.4925L14.2634 10.5188L14.2882 10.545L14.3128 10.5712L14.3374 10.5972L14.3619 10.6231L14.3862 10.6489L14.4105 10.6747L14.4347 10.7003L14.4588 10.7258L14.4828 10.7513L14.5068 10.7766L14.5306 10.8019L14.5544 10.8271L14.578 10.8521L14.6016 10.8771L14.6251 10.902L14.6485 10.9268L14.6718 10.9515L14.6951 10.9761L14.7182 11.0006L14.7413 11.0251L14.7643 11.0494L14.7871 11.0737L14.81 11.0978L14.8327 11.1219L14.8553 11.1459L14.8779 11.1698L14.9003 11.1936L14.9227 11.2173L14.945 11.2409L14.9673 11.2645L14.9894 11.2879L15.0115 11.3113L15.0334 11.3346L15.0553 11.3578L15.0772 11.3809L15.0989 11.4039L15.1206 11.4269L15.1421 11.4497L15.1636 11.4725L15.1851 11.4952L15.2064 11.5178L15.2277 11.5403L15.2488 11.5628L15.2699 11.5851L15.291 11.6074L15.3119 11.6296L15.3328 11.6517L15.3536 11.6738L15.3743 11.6957L15.395 11.7176L15.4156 11.7394L15.4361 11.7611L15.4565 11.7827L15.4768 11.8043L15.4971 11.8258L15.5173 11.8472L15.5374 11.8685L15.5575 11.8897L15.5775 11.9109L15.5974 11.932L15.6172 11.953L15.637 11.974L15.6567 11.9948L15.6763 12.0156L15.6959 12.0363L15.7153 12.057L15.7348 12.0775L15.7541 12.098L15.7734 12.1185L15.7926 12.1388L15.8117 12.1591L15.8308 12.1793L15.8498 12.1994L15.8687 12.2195L15.8876 12.2394L15.9064 12.2594L15.9251 12.2792L15.9438 12.299L15.9624 12.3187L15.9809 12.3383L15.9994 12.3579L16.0178 12.3774L16.0361 12.3968L16.0544 12.4162L16.0726 12.4355L16.0908 12.4547L16.1088 12.4738L16.1269 12.4929L16.1448 12.512L16.1627 12.5309L16.1806 12.5498L16.1983 12.5686L16.216 12.5874L16.2337 12.6061L16.2513 12.6247L16.2688 12.6433L16.2863 12.6618L16.3037 12.6802L16.321 12.6986L16.3383 12.7169L16.3555 12.7352L16.3727 12.7534L16.3898 12.7715L16.4069 12.7896L16.4239 12.8076L16.4408 12.8255L16.4577 12.8434L16.4745 12.8612L16.4913 12.879L16.508 12.8967L16.5247 12.9144L16.5413 12.932L16.5578 12.9495L16.5743 12.967L16.5908 12.9844L16.6072 13.0017L16.6235 13.019L16.6398 13.0363L16.656 13.0535L16.6722 13.0706L16.6883 13.0877L16.7044 13.1047L16.7204 13.1217L16.7364 13.1386L16.7523 13.1555L16.7682 13.1723L16.784 13.1891L16.7997 13.2058L16.8155 13.2224L16.8311 13.239L16.8467 13.2556L16.8623 13.272L16.8778 13.2885L16.8933 13.3049L16.9087 13.3212L16.9241 13.3375L16.9395 13.3538L16.9547 13.37L16.97 13.3861L16.9852 13.4022L17.0003 13.4183L17.0154 13.4343L17.0305 13.4502L17.0455 13.4661L17.0605 13.482L17.0754 13.4978L17.0903 13.5136L17.1051 13.5293L17.1199 13.545L17.1347 13.5606L17.1494 13.5762L17.1641 13.5917L17.1787 13.6072L17.1933 13.6227L17.2078 13.6381L17.2223 13.6534L17.2368 13.6688L17.2512 13.6841L17.2656 13.6993L17.28 13.7145L17.2943 13.7296L17.3085 13.7448L17.3228 13.7598L17.337 13.7749L17.3511 13.7899L17.3652 13.8048L17.3793 13.8197L17.3934 13.8346L17.4074 13.8495L17.4213 13.8643L17.4353 13.879L17.4492 13.8938L17.463 13.9084L17.4769 13.9231L17.4907 13.9377L17.5044 13.9523L17.5182 13.9668L17.5318 13.9813L17.5455 13.9958L17.5591 14.0103L17.5727 14.0247L17.5863 14.039L17.5998 14.0534L17.6133 14.0677L17.6268 14.0819L17.6403 14.0962L17.6537 14.1104L17.667 14.1246L17.6804 14.1387L17.6937 14.1528L17.707 14.1669L17.7203 14.181L17.7335 14.195L17.7467 14.209L17.7599 14.2229L17.773 14.2369L17.7862 14.2508L17.7993 14.2646L17.8123 14.2785L17.8254 14.2923L17.8384 14.3061L17.8514 14.3199L17.8644 14.3336L17.8773 14.3473L17.8902 14.361L17.9031 14.3747L17.916 14.3883L17.9288 14.4019L17.9417 14.4155L17.9545 14.4291L17.9673 14.4426L17.98 14.4561L17.9927 14.4696L18.0055 14.4831L18.0182 14.4965L18.0308 14.51L18.0435 14.5234L18.0561 14.5367L18.0687 14.5501L18.0813 14.5634L18.0939 14.5768L18.1064 14.5901L18.119 14.6033L18.1315 14.6166L18.144 14.6298L18.1565 14.6431L18.169 14.6563L18.1814 14.6695L18.1938 14.6826L18.2062 14.6958L18.2187 14.7089L18.231 14.722L18.2434 14.7352L18.2558 14.7482L18.2681 14.7613L18.2804 14.7744L18.2927 14.7874L18.305 14.8004L18.3173 14.8135L18.3296 14.8265L18.3419 14.8395L18.3541 14.8524L18.3663 14.8654L18.3786 14.8783L18.3908 14.8913L18.403 14.9042L18.4152 14.9171L18.4274 14.93L18.4395 14.9429L18.4517 14.9558L18.4638 14.9687L18.476 14.9815L18.4881 14.9944L18.5002 15.0072L18.5124 15.0201L18.5245 15.0329L18.5366 15.0457L18.5487 15.0586L18.5608 15.0714L18.5729 15.0842L18.5849 15.097L18.597 15.1097L18.6091 15.1225L18.6211 15.1353L18.6332 15.1481L18.6452 15.1609L18.6573 15.1736L18.6693 15.1864L18.6814 15.1991L18.6934 15.2119L18.7055 15.2246L18.7175 15.2374L18.7295 15.2501L18.7416 15.2629L18.7536 15.2756L18.7656 15.2884L18.7776 15.3011L18.7897 15.3139L18.8017 15.3266L18.8137 15.3393L18.8258 15.3521L18.8378 15.3648L18.8498 15.3776L18.8619 15.3903L18.8739 15.4031L18.8859 15.4158L18.898 15.4286L18.91 15.4413L18.9221 15.4541L18.9341 15.4669L18.9462 15.4796L18.9582 15.4924L18.9703 15.5052L18.9823 15.518L18.9944 15.5308L19.0065 15.5436L19.0186 15.5564L19.0307 15.5692L19.0428 15.582L19.0549 15.5948L19.067 15.6076L19.0791 15.6205L19.0912 15.6333L19.1034 15.6462L19.1155 15.659L19.1277 15.6719L19.1398 15.6848L19.152 15.6977L19.1642 15.7106L19.1764 15.7235L19.1886 15.7364L19.2008 15.7494L19.213 15.7623L19.2252 15.7753L19.2375 15.7883L19.2498 15.8013L19.262 15.8143L19.2743 15.8273L19.2866 15.8403L19.2989 15.8534L19.3112 15.8664L19.3236 15.8795L19.3359 15.8926L19.3483 15.9057L19.3607 15.9188L19.3731 15.9319L19.3855 15.9451L19.3979 15.9583L19.4104 15.9714L19.4229 15.9847L19.4353 15.9979L19.4478 16.0111L19.4604 16.0244L19.4729 16.0377L19.4855 16.051L19.498 16.0643L19.5106 16.0776L19.5232 16.091L19.5359 16.1044L19.5485 16.1178L19.5612 16.1312L19.5739 16.1446L19.5866 16.1581L19.5993 16.1716L19.6121 16.1851L19.6249 16.1987L19.6377 16.2122L19.6505 16.2258L19.6634 16.2394L19.6762 16.2531L19.6891 16.2667L19.702 16.2804L19.715 16.2941L19.728 16.3079L19.7409 16.3216L19.754 16.3354L19.767 16.3492L19.7801 16.3631L19.7932 16.377L19.8063 16.3909L19.8195 16.4048L19.8326 16.4188L19.8458 16.4327L19.8591 16.4468L19.8723 16.4608L19.8856 16.4749L19.899 16.489L19.9123 16.5032L19.9257 16.5173L19.9391 16.5315L19.9525 16.5458L19.966 16.56L19.9795 16.5744L19.993 16.5887L20.0066 16.6031L20.0202 16.6175L20.0338 16.6319L20.0475 16.6464L20.0612 16.6609L20.0749 16.6754L20.0887 16.69L20.1025 16.7046L20.1163 16.7193L20.1302 16.734L20.1441 16.7487L20.158 16.7635L20.172 16.7783L20.186 16.7931L20.2 16.808L20.2141 16.8229L20.2282 16.8378L20.2424 16.8528L20.2566 16.8679L20.2708 16.883L20.2851 16.8981L20.2994 16.9132L20.3137 16.9284L20.3281 16.9437L20.3425 16.9589L20.357 16.9743L20.3715 16.9896L20.3861 17.005L20.4006 17.0205L20.4153 17.036L20.4299 17.0515L20.4447 17.0671L20.4594 17.0828L20.4742 17.0984L20.489 17.1141L20.5039 17.1299L20.5189 17.1457L20.5338 17.1616L20.5488 17.1775L20.5639 17.1934L20.579 17.2094L20.5942 17.2255L20.6094 17.2416L20.6246 17.2577L20.6399 17.2739L20.6552 17.2902L20.6706 17.3065L20.686 17.3228L20.7015 17.3392L20.717 17.3557L20.7326 17.3722L20.7482 17.3887L20.7639 17.4053L20.7796 17.422L20.7954 17.4387L20.8112 17.4554L20.827 17.4722L20.843 17.4891L20.8589 17.506L20.875 17.523L20.891 17.54L20.9072 17.5571L20.9233 17.5742L20.9396 17.5914L20.9558 17.6087L20.9722 17.626L20.9886 17.6433L21.005 17.6607L21.0215 17.6782L21.038 17.6957L21.0547 17.7133L21.0713 17.731L21.088 17.7487L21.1048 17.7665L21.1216 17.7843L21.1385 17.8022L21.1555 17.8201L21.1724 17.8381L21.1895 17.8562L21.2066 17.8743L21.2238 17.8925L21.241 17.9108L21.2583 17.9291L21.2757 17.9475L21.2931 17.9659L21.3105 17.9844L21.3281 18.003L21.3456 18.0216L21.3633 18.0403L21.381 18.0591L21.3988 18.0779L21.4166 18.0968L21.4345 18.1157L21.4525 18.1348L21.4705 18.1539L21.4886 18.173L21.5067 18.1922L21.5249 18.2115L21.5432 18.2309L21.5615 18.2503L21.5799 18.2698L21.5984 18.2894L21.6169 18.309L21.6219 18.3143C20.1636 19.4436 18.1306 19.7616 15.9017 19.2779C13.4746 18.7511 10.8695 17.2793 8.68551 14.9655C6.50148 12.6518 5.18222 9.96627 4.79617 7.51283C4.44165 5.25981 4.87628 3.24845 6.08773 1.85765L6.1009 1.8716L6.11598 1.88757L6.13101 1.9035L6.14602 1.91939L6.16098 1.93524L6.17591 1.95106L6.19081 1.96684L6.20567 1.98259L6.2205 1.9983L6.23529 2.01397L6.25005 2.0296L6.26478 2.0452L6.27947 2.06077L6.29413 2.0763L6.30875 2.09179L6.32335 2.10725L6.33791 2.12267L6.35244 2.13807L6.36693 2.15342L6.3814 2.16875L6.39583 2.18404L6.41023 2.19929L6.4246 2.21452L6.43894 2.22971L6.45325 2.24487L6.46753 2.25999L6.48178 2.27509L6.496 2.29015L6.51019 2.30518L6.52435 2.32019L6.53848 2.33516L6.55258 2.3501L6.56665 2.365L6.5807 2.37988L6.59472 2.39473L6.60871 2.40955L6.62267 2.42434L6.6366 2.43911L6.65051 2.45384L6.66439 2.46854L6.67824 2.48322L6.69207 2.49787L6.70587 2.51249L6.71964 2.52708L6.73339 2.54165L6.74712 2.55618L6.76081 2.5707L6.77449 2.58518L6.78814 2.59964L6.80176 2.61407L6.81536 2.62848L6.82894 2.64286L6.84249 2.65722L6.85602 2.67155L6.86952 2.68586L6.883 2.70014L6.89646 2.7144L6.9099 2.72863L6.92331 2.74285L6.93671 2.75703L6.95008 2.7712L6.96343 2.78534L6.97675 2.79946L6.99006 2.81356L7.00335 2.82763L7.01661 2.84168L7.02986 2.85571L7.04308 2.86972L7.05629 2.88371L7.06947 2.89768L7.08264 2.91163L7.09578 2.92555L7.10891 2.93946L7.12202 2.95335L7.13511 2.96722L7.14818 2.98106L7.16123 2.99489L7.17427 3.0087L7.18729 3.0225L7.20029 3.03627L7.21328 3.05003L7.22624 3.06376L7.2392 3.07748L7.25213 3.09119L7.26505 3.10487L7.27795 3.11854L7.29084 3.1322L7.30371 3.14583L7.31657 3.15946L7.32941 3.17306L7.34224 3.18665L7.35506 3.20022L7.36786 3.21378L7.38064 3.22733L7.39341 3.24086L7.40617 3.25438L7.41892 3.26788L7.43165 3.28137L7.44437 3.29484L7.45708 3.30831L7.46978 3.32176L7.48246 3.33519L7.49513 3.34862L7.50779 3.36203L7.52044 3.37543L7.53308 3.38882L7.54571 3.4022L7.55833 3.41556L7.57093 3.42892L7.58353 3.44227L7.59612 3.4556L7.6087 3.46893L7.62126 3.48224L7.63382 3.49555L7.64638 3.50884L7.65892 3.52213L7.67145 3.53541L7.68398 3.54868L7.6965 3.56194L7.70901 3.57519L7.72151 3.58844L7.73401 3.60168L7.7465 3.61491L7.75898 3.62813L7.77146 3.64135L7.78393 3.65456L7.79639 3.66777L7.80885 3.68097L7.82131 3.69416L7.83375 3.70735L7.8462 3.72053L7.85864 3.73371L7.87107 3.74688L7.8835 3.76005L7.89593 3.77322L7.90835 3.78638L7.92077 3.79953L7.93319 3.81269L7.9456 3.82584L7.95801 3.83899L7.97042 3.85213L7.98283 3.86527L7.99523 3.87842L8.00763 3.89155L8.02003 3.90469L8.03243 3.91783L8.04483 3.93096L8.05723 3.9441L8.06963 3.95723L8.08203 3.97036L8.09442 3.9835L8.10682 3.99663L8.11922 4.00976L8.13162 4.0229L8.14401 4.03603L8.15642 4.04917L8.16882 4.06231L8.18122 4.07545L8.19363 4.08859L8.20603 4.10174L8.21844 4.11488L8.23086 4.12803L8.24327 4.14118L8.25569 4.15434L8.26811 4.1675L8.28054 4.18066L8.29297 4.19383L8.3054 4.207L8.31784 4.22018L8.33028 4.23336L8.34273 4.24655L8.35518 4.25974L8.36764 4.27294L8.3801 4.28614L8.39257 4.29935L8.40504 4.31256L8.41752 4.32579L8.43001 4.33901L8.44251 4.35225L8.45501 4.36549L8.46752 4.37875L8.48003 4.392L8.49256 4.40527L8.50509 4.41855L8.51763 4.43183L8.53017 4.44513L8.54273 4.45843L8.5553 4.47174L8.56787 4.48506L8.58046 4.49839L8.59305 4.51173L8.60565 4.52509L8.61827 4.53845L8.63089 4.55182L8.64353 4.56521L8.65617 4.57861L8.66883 4.59202L8.6815 4.60544L8.69418 4.61887L8.70687 4.63231L8.71957 4.64577L8.73229 4.65924L8.74502 4.67273L8.75776 4.68623L8.77052 4.69974L8.78328 4.71326L8.79606 4.7268L8.80886 4.74036L8.82167 4.75393L8.83449 4.76751L8.84733 4.78111L8.86018 4.79473L8.87305 4.80836L8.88593 4.82201L8.89883 4.83567L8.91175 4.84935L8.92467 4.86305L8.93762 4.87677L8.95058 4.8905L8.96356 4.90425L8.97656 4.91802L8.98957 4.9318L9.0026 4.94561L9.01565 4.95943L9.02872 4.97327L9.0418 4.98713L9.0549 5.00101L9.06802 5.01491L9.08116 5.02883L9.09432 5.04278L9.1075 5.05674L9.1207 5.07072L9.13392 5.08472L9.14716 5.09874L9.16041 5.11279L9.17369 5.12686L9.18699 5.14095L9.20031 5.15506L9.21366 5.16919L9.22702 5.18335L9.2404 5.19753L9.25381 5.21173L9.26724 5.22596L9.28069 5.24021L9.29417 5.25449L9.30767 5.26878L9.32119 5.28311L9.33473 5.29746L9.3483 5.31183L9.36189 5.32623L9.37551 5.34065L9.38915 5.35511L9.40281 5.36958L9.4165 5.38408L9.43022 5.39861L9.44396 5.41317L9.45772 5.42775L9.47152 5.44237L9.48533 5.457L9.49918 5.47167L9.51305 5.48637L9.52695 5.50109L9.54087 5.51584L9.55483 5.53062L9.56881 5.54543L9.58281 5.56027L9.59685 5.57514L9.61091 5.59004L9.62501 5.60497L9.63913 5.61993L9.65328 5.63492L9.66746 5.64994L9.68167 5.665L9.69591 5.68008L9.71017 5.6952L9.72447 5.71035L9.7388 5.72553L9.75316 5.74074L9.76756 5.75598L9.78198 5.77126L9.79643 5.78658L9.81092 5.80192L9.82544 5.8173L9.83999 5.83272L9.85457 5.84816L9.86918 5.86365L9.88383 5.87916L9.89851 5.89472L9.91323 5.91031L9.92797 5.92593L9.94276 5.94159L9.95757 5.95728L9.97242 5.97302L9.98731 5.98879L10.0022 6.00459L10.0172 6.02043L10.0322 6.03631L10.0472 6.05223L10.0623 6.06819L10.0774 6.08418L10.0925 6.10021L10.1077 6.11629L10.1229 6.1324L10.1381 6.14854L10.1534 6.16473L10.1687 6.18096L10.1841 6.19723L10.1995 6.21354L10.2149 6.22989L10.2304 6.24628L10.2459 6.26271L10.2614 6.27918L10.277 6.2957L10.2926 6.31225L10.3083 6.32885L10.324 6.34549L10.3398 6.36217L10.3556 6.3789L10.3714 6.39567L10.3872 6.41248L10.4032 6.42933L10.4191 6.44623L10.4351 6.46317L10.4511 6.48016L10.4672 6.49719L10.4833 6.51427L10.4995 6.53139L10.5157 6.54856L10.532 6.56577L10.5482 6.58303L10.5646 6.60034L10.581 6.61769L10.5974 6.63509L10.6138 6.65253L10.6304 6.67002L10.6469 6.68756L10.6635 6.70515L10.6802 6.72279L10.6969 6.74047L10.7136 6.7582L10.7304 6.77598L10.7472 6.79381L10.7641 6.81169L10.781 6.82962L10.798 6.8476L10.815 6.86562L10.8321 6.8837L10.8492 6.90183L10.8663 6.92001L10.8835 6.93824L10.9008 6.95652L10.9181 6.97486L10.9355 6.99324L10.9529 7.01168L10.9703 7.03017L10.9878 7.04871L11.0054 7.0673L11.023 7.08595L11.0406 7.10465L11.0583 7.12341L11.0761 7.14222L11.0939 7.16108L11.1117 7.18L11.1297 7.19897L11.1476 7.21799L11.1656 7.23708L11.1837 7.25621L11.2018 7.27541L11.22 7.29465L11.2382 7.31396L11.2565 7.33332L11.2748 7.35274L11.2932 7.37221L11.3116 7.39174L11.3301 7.41133L11.3487 7.43098L11.3673 7.45068L11.3859 7.47045L11.4046 7.49027L11.4234 7.51015L11.4422 7.53009L11.4611 7.55009L11.48 7.57014L11.499 7.59026L11.5181 7.61044L11.5372 7.63068L11.5563 7.65098L11.5755 7.67134L11.5948 7.69176L11.6142 7.71224L11.6335 7.73278L11.653 7.75339L11.6725 7.77405L11.6921 7.79478L11.7117 7.81557L11.7314 7.83643L11.7511 7.85734L11.7709 7.87833L11.7908 7.89937L11.8107 7.92048L11.8307 7.94165L11.8508 7.96289L11.8709 7.98419L11.891 8.00556L11.9113 8.02699L11.9316 8.04848L11.9519 8.07005L11.9723 8.09167L11.9928 8.11337L12.0133 8.13513L12.0339 8.15696L12.0546 8.17885L12.0753 8.20081L12.0961 8.22284L12.117 8.24494L12.1379 8.2671L12.1589 8.28934L12.18 8.31164L12.2011 8.33401L12.2223 8.35645L12.2435 8.37896L12.2648 8.40153L12.2862 8.42418L12.3076 8.4469L12.3291 8.46969L12.3507 8.49254L12.3724 8.51547L12.3941 8.53847L12.4159 8.56155L12.4377 8.58469L12.4596 8.6079L12.4816 8.63119L12.5036 8.65455L12.5258 8.67798L12.5479 8.70148L12.5702 8.72506L12.5925 8.74871L12.6149 8.77244L12.6374 8.79624L12.6599 8.82011L12.6825 8.84406L12.7052 8.86808L12.7279 8.89217L12.7508 8.91634L12.7737 8.94059L12.7966 8.96491L12.8196 8.98931L12.8427 9.01379L12.8659 9.03834L12.8892 9.06296L12.9125 9.08767L12.9359 9.11245L12.9593 9.13731L12.9829 9.16225L13.0065 9.18726L13.0302 9.21236L13.0539 9.23753L13.0778 9.26278L13.1017 9.28811L13.1257 9.31351L13.1497 9.339L13.1739 9.36457L13.1981 9.39022L13.2224 9.41595L13.2467 9.44175L13.2712 9.46764L13.2957 9.49361L13.3203 9.51967L13.3449 9.5458L13.3697 9.57201L13.3945 9.59831L13.4194 9.62469L13.4444 9.65115L13.4694 9.6777L13.4946 9.70432L13.5198 9.73104L13.5451 9.75783L13.5705 9.78471L13.5959 9.81167L13.6214 9.83872L13.647 9.86585L13.6727 9.89307L13.6985 9.92037L13.7244 9.94776L13.7503 9.97523L13.7763 10.0028L13.8024 10.0304L13.8286 10.0582L13.8548 10.086Z" stroke="#006F0A"/>
<path d="M21.3787 18.289V18.289C22.5125 18.02 23.1239 16.788 22.6524 15.7224L19.047 7.5725" stroke="#006F0A"/>
<rect x="16.7029" y="4.97952" width="4.09272" height="1.93881" rx="0.969404" transform="rotate(46.6517 16.7029 4.97952)" stroke="#006F0A"/>
<path d="M5.16284 3.38409L20.2191 19.1812" stroke="#006F0A"/>
<circle cx="7.44591" cy="18.289" r="1.56121" stroke="#006F0A"/>
<path d="M8.78423 19.1042L12.4027 22.3073C12.6363 22.514 12.8182 22.7725 12.9341 23.0621L14.0985 25.9732H9.80856V23.316C9.80856 22.8663 9.65699 22.4297 9.37833 22.0767L7.79767 20.0746" stroke="#006F0A"/>
</svg>
