<?xml version="1.0" encoding="UTF-8"?>
<svg width="612px" height="341px" viewBox="0 0 612 341" version="1.1" xmlns="http://www.w3.org/2000/svg" xmlns:xlink="http://www.w3.org/1999/xlink">
    <title>microfiltro-00</title>
    <defs>
        <linearGradient x1="50%" y1="0%" x2="50%" y2="100%" id="linearGradient-1">
            <stop stop-color="#0D094F" offset="0%"></stop>
            <stop stop-color="#3177D7" offset="100%"></stop>
        </linearGradient>
        <radialGradient cx="50%" cy="50%" fx="50%" fy="50%" r="47.4912074%" id="radialGradient-2">
            <stop stop-color="#40FF00" offset="0%"></stop>
            <stop stop-color="#76FF00" stop-opacity="0" offset="100%"></stop>
        </radialGradient>
        <radialGradient cx="49.9687414%" cy="49.887506%" fx="49.9687414%" fy="49.887506%" r="47.3744513%" id="radialGradient-3">
            <stop stop-color="#00FDFF" offset="0%"></stop>
            <stop stop-color="#00ECFF" stop-opacity="0" offset="100%"></stop>
        </radialGradient>
    </defs>
    <g id="Page-1" stroke="none" stroke-width="1" fill="none" fill-rule="evenodd">
        <g id="Group-2-Copy" transform="translate(7.000000, 22.000000)">
            <path d="M260.787252,85.5385715 L361.787252,85.5385715 C368.966954,85.5385715 374.787252,91.3588697 374.787252,98.5385715 L374.787252,177.860411 C374.787252,185.040112 368.966954,190.860411 361.787252,190.860411 L260.787252,190.860411 C253.607551,190.860411 247.787252,185.040112 247.787252,177.860411 L247.787252,98.5385715 C247.787252,91.3588697 253.607551,85.5385715 260.787252,85.5385715 Z" id="Rectangle" fill="#00C0D2" opacity="0.100000001"></path>
            <path d="M423.862182,120.517436 C423.341046,136.262629 422.075314,154.913833 397.064842,156.404295 C366.084426,158.250527 370.464151,205.331716 370.464151,195.545102" id="Path-4" stroke="#000000" stroke-width="5" stroke-linejoin="round" transform="translate(397.056772, 158.699858) scale(-1, -1) rotate(87.000000) translate(-397.056772, -158.699858) "></path>
            <g id="Group-42" transform="translate(0.000000, 108.000000)">
                <g id="Group-Copy" transform="translate(0.514468, 0.566329)">
                    <path d="M17.2595843,103.474543 L20.4726159,100.972683 C21.4401639,100.219291 22.8352608,100.3929 23.5886522,101.360448 C24.0002842,101.889089 24.1511954,102.575338 23.9993185,103.227899 L17.835291,129.712529 C17.6723392,130.412675 17.3440237,131.063594 16.8778321,131.610789 L16.5557865,131.988792 C16.3460124,132.235015 15.9763531,132.264564 15.7301295,132.054789 C15.5995154,131.943511 15.5242694,131.780552 15.5242694,131.608962 L15.5242694,107.025109 C15.5242694,105.637321 16.1645992,104.327165 17.2595843,103.474543 Z" id="Rectangle-Copy-2" fill="#929292" transform="translate(20.472616, 115.159571) rotate(49.000000) translate(-20.472616, -115.159571) "></path>
                    <path d="M165.628104,102.077622 L168.841136,99.5757613 C169.808684,98.8223699 171.20378,98.9959782 171.957172,99.9635261 C172.368804,100.492167 172.519715,101.178416 172.367838,101.830977 L166.203811,128.315608 C166.040859,129.015754 165.712543,129.666672 165.246352,130.213868 L164.924306,130.59187 C164.714532,130.838094 164.344873,130.867642 164.098649,130.657868 C163.968035,130.546589 163.892789,130.38363 163.892789,130.212041 L163.892789,105.628188 C163.892789,104.240399 164.533119,102.930244 165.628104,102.077622 Z" id="Rectangle-Copy-3" fill="#929292" transform="translate(168.841136, 113.762649) scale(-1, 1) rotate(49.000000) translate(-168.841136, -113.762649) "></path>
                    <rect id="Rectangle" stroke="#979797" stroke-width="0.9" fill="#000000" x="0.45" y="0.45" width="189.677879" height="112.364983" rx="4.5"></rect>
                    <rect id="Rectangle-Copy" fill="url(#linearGradient-1)" x="1.64900682" y="1.59080033" width="187.279866" height="110.083383"></rect>
                </g>
                <path d="M90.9952327,39.3924656 L77.6670809,39.3924656 L77.6670809,79.579888 L70.4279324,79.579888 L70.4279324,39.3924656 L57.0997805,39.3924656 L57.0997805,32.2209727 L90.9952327,32.2209727 L90.9952327,39.3924656 Z M117.651536,79.579888 L110.209421,79.579888 L93.6338009,32.2209727 L101.075916,32.2209727 L113.930479,69.1609266 L126.785042,32.2209727 L134.227157,32.2209727 L117.651536,79.579888 Z" id="TV" fill="#FFFFFF" fill-rule="nonzero" opacity="0.300000012"></path>
            </g>
            <g id="Group-36" transform="translate(422.206897, 135.998068)" fill-rule="nonzero">
                <path d="M7.76375814,95.6650323 C7.04024872,95.6650323 6.44816877,95.5855401 6.44816877,95.4883757 L6.44816877,91.1130312 C6.44816877,91.0158668 7.04024872,90.9363747 7.76375814,90.9363747 L41.0275475,90.9363747 C41.7510569,90.9363747 42.342975,91.0158668 42.342975,91.1130312 L42.342975,95.4883757 C42.342975,95.5855401 41.7510569,95.6650323 41.0275475,95.6650323 L7.76375814,95.6650323 Z" id="Fill-48-Copy" fill="#2B2B2B" transform="translate(24.395572, 93.300703) scale(-1, 1) rotate(-180.000000) translate(-24.395572, -93.300703) "></path>
                <path d="M130.064026,95.6650323 C129.340517,95.6650323 128.748437,95.5855401 128.748437,95.4883757 L128.748437,91.1130312 C128.748437,91.0158668 129.340517,90.9363747 130.064026,90.9363747 L163.327815,90.9363747 C164.051325,90.9363747 164.643243,91.0158668 164.643243,91.1130312 L164.643243,95.4883757 C164.643243,95.5855401 164.051325,95.6650323 163.327815,95.6650323 L130.064026,95.6650323 Z" id="Fill-48-Copy-2" fill="#2B2B2B" transform="translate(146.695840, 93.300703) scale(-1, 1) rotate(-180.000000) translate(-146.695840, -93.300703) "></path>
                <path d="M6.34949105,93.5156423 C2.85758345,93.5156423 -4.98755159e-13,91.9435788 -4.98755159e-13,90.0220248 L-4.98755159e-13,3.49361785 C-4.98755159e-13,1.57206355 2.85758345,2.3470831e-13 6.34949105,2.3470831e-13 L166.892091,2.3470831e-13 C170.383999,2.3470831e-13 173.240801,1.57206355 173.240801,3.49361785 L173.240801,90.0220248 C173.240801,91.9435788 170.383999,93.5156423 166.892091,93.5156423 L6.34949105,93.5156423 Z" id="Fill-48" fill="#444444"></path>
                <rect id="Rectangle" fill="#C1C1C1" x="0" y="62.3143886" width="173.419355" height="6.19354839"></rect>
                <path d="M75.6875903,40.4040983 C79.2479615,26.433364 76.5357868,18.5582542 85.9462396,22.8473182 C91.1077742,25.2014485 97.2808894,31.0337913 97.6216618,37.1000066 C98.0950086,45.4577995 72.1430907,54.3118131 75.6875903,40.4040983 Z" id="Clip-14" fill="#C1C1C1"></path>
                <path d="M84.7222599,38.6801635 C83.8283159,38.6801635 83.3334957,37.7619453 83.3334957,36.8306564 C83.3334957,35.9003011 83.8283159,35.0072907 84.7222599,35.0072907 C85.6138698,35.0072907 86.1072896,35.9003011 86.1072896,36.8306564 C86.1072896,37.7619453 85.6138698,38.6801635 84.7222599,38.6801635 Z M84.7222599,33.3641142 C82.7728551,33.3641142 81.4760528,34.9069262 81.4760528,36.841393 C81.4760528,38.7781939 82.7728551,40.3196054 84.7222599,40.3196054 C86.6669965,40.3196054 87.9623985,38.7781939 87.9623985,36.841393 C87.9623985,34.9069262 86.6669965,33.3641142 84.7222599,33.3641142 Z M90.0103004,33.3678487 C89.3562975,33.3678487 88.8231988,34.9251319 88.8231988,36.8451275 C88.8231988,38.7660568 89.3562975,40.3219395 90.0103004,40.3219395 C90.665237,40.3219395 91.1960017,38.7660568 91.1960017,36.8451275 C91.1960017,34.9251319 90.665237,33.3678487 90.0103004,33.3678487 Z M89.9953625,32.5056479 C90.6400292,32.5056479 91.1595903,31.9832858 91.1595903,31.3395528 C91.1595903,30.697687 90.6400292,30.1762586 89.9953625,30.1762586 C89.3534967,30.1762586 88.8330019,30.697687 88.8330019,31.3395528 C88.8330019,31.9832858 89.3534967,32.5056479 89.9953625,32.5056479 L89.9953625,32.5056479 Z" id="Fill-16" fill="#444444"></path>
            </g>
            <g id="Group-3" transform="translate(426.265909, 197.449685)">
                <circle id="Oval-Copy-11" fill="url(#radialGradient-2)" cx="3.86682903" cy="3.86682903" r="3.86682903"></circle>
                <circle id="Oval-Copy-2" fill="#40FF00" cx="3.92732308" cy="3.80633499" r="1.58115935"></circle>
            </g>
            <g id="Group-3-Copy" transform="translate(436.265909, 197.449685)">
                <circle id="Oval-Copy-11" fill="url(#radialGradient-2)" cx="3.86682903" cy="3.86682903" r="3.86682903"></circle>
                <circle id="Oval-Copy-2" fill="#40FF00" cx="3.92732308" cy="3.80633499" r="1.58115935"></circle>
            </g>
            <g id="Group-3-Copy-2" transform="translate(446.265909, 197.449685)">
                <circle id="Oval-Copy-11" fill="url(#radialGradient-2)" cx="3.86682903" cy="3.86682903" r="3.86682903"></circle>
                <circle id="Oval-Copy-2" fill="#40FF00" cx="3.92732308" cy="3.80633499" r="1.58115935"></circle>
            </g>
            <g id="Group-3-Copy-3" transform="translate(466.265909, 197.449685)">
                <circle id="Oval-Copy-11" fill="url(#radialGradient-2)" cx="3.86682903" cy="3.86682903" r="3.86682903"></circle>
                <circle id="Oval-Copy-2" fill="#40FF00" cx="3.92732308" cy="3.80633499" r="1.58115935"></circle>
            </g>
            <g id="Group-3-Copy-4" transform="translate(476.265909, 197.449685)">
                <circle id="Oval-Copy-11" fill="url(#radialGradient-2)" cx="3.86682903" cy="3.86682903" r="3.86682903"></circle>
                <circle id="Oval-Copy-2" fill="#40FF00" cx="3.92732308" cy="3.80633499" r="1.58115935"></circle>
            </g>
            <g id="Group-3-Copy-5" transform="translate(506.265909, 197.449685)">
                <circle id="Oval-Copy-11" fill="url(#radialGradient-2)" cx="3.86682903" cy="3.86682903" r="3.86682903"></circle>
                <circle id="Oval-Copy-2" fill="#40FF00" cx="3.92732308" cy="3.80633499" r="1.58115935"></circle>
            </g>
            <g id="Group-3-Copy-6" transform="translate(556.265909, 197.449685)">
                <circle id="Oval-Copy-11" fill="url(#radialGradient-2)" cx="3.86682903" cy="3.86682903" r="3.86682903"></circle>
                <circle id="Oval-Copy-2" fill="#40FF00" cx="3.92732308" cy="3.80633499" r="1.58115935"></circle>
            </g>
            <g id="Group-3-Copy-7" transform="translate(576.265909, 197.449685)">
                <circle id="Oval-Copy-11" fill="url(#radialGradient-2)" cx="3.86682903" cy="3.86682903" r="3.86682903"></circle>
                <circle id="Oval-Copy-2" fill="#40FF00" cx="3.92732308" cy="3.80633499" r="1.58115935"></circle>
            </g>
            <path d="M261.698349,122.107013 C262.572898,140.674552 259.614696,161.354184 230.450167,163.05484 C194.324133,165.161437 199.431298,218.882282 199.431298,207.715504" id="Path-4" stroke="#000000" stroke-width="5" stroke-linejoin="round" transform="translate(230.504100, 165.674136) scale(-1, 1) rotate(-87.000000) translate(-230.504100, -165.674136) "></path>
            <path d="M260.787252,85.5385715 L361.787252,85.5385715 C368.966954,85.5385715 374.787252,91.3588697 374.787252,98.5385715 L374.787252,177.860411 C374.787252,185.040112 368.966954,190.860411 361.787252,190.860411 L260.787252,190.860411 C253.607551,190.860411 247.787252,185.040112 247.787252,177.860411 L247.787252,98.5385715 C247.787252,91.3588697 253.607551,85.5385715 260.787252,85.5385715 Z" id="Rectangle-Copy-4" stroke="#00C0D2" stroke-width="5" stroke-linecap="round" stroke-dasharray="12"></path>
            <g id="Group" transform="translate(30.700000, 191.296553)">
                <rect id="Rectangle-Copy-5" fill="#2B2B2B" x="151.959887" y="35.4515149" width="20.2" height="4.5" rx="2.25"></rect>
                <rect id="Rectangle-Copy-6" fill="#2B2B2B" x="21.959887" y="35.4515149" width="20.2" height="4.5" rx="2.25"></rect>
                <rect id="Rectangle" fill="#444444" x="0" y="0" width="189" height="37.7015149" rx="18.850757"></rect>
                <circle id="Oval-Copy-11" fill="url(#radialGradient-2)" cx="48.3646112" cy="18.9368409" r="5.50252279"></circle>
                <circle id="Oval-Copy-12" fill="url(#radialGradient-3)" opacity="0.800000012" cx="65.9506947" cy="18.9368409" r="5.50252279"></circle>
                <ellipse id="Oval" fill="#D8D8D8" opacity="0.200000003" cx="151.159887" cy="18.8507574" rx="13" ry="8.91079113"></ellipse>
                <line x1="137.8" y1="12.2034471" x2="167.3" y2="26.2034471" id="Line" stroke="#444444" stroke-linecap="square"></line>
                <line x1="137.8" y1="25.2034471" x2="165.8" y2="13.2034471" id="Line-Copy" stroke="#444444" stroke-linecap="square"></line>
                <ellipse id="Oval-Copy-5" fill="#D8D8D8" opacity="0.200000003" cx="122.459887" cy="19.0899663" rx="4.5" ry="3.35"></ellipse>
                <ellipse id="Oval-Copy-10" fill="#444444" cx="151.159887" cy="19.0899663" rx="4.5" ry="3.35"></ellipse>
                <ellipse id="Oval-Copy" stroke="#40FF00" fill="#444444" cx="20.0710985" cy="18.5811851" rx="5.62959617" ry="3.8587812"></ellipse>
                <circle id="Oval-Copy-2" fill="#40FF00" cx="48.4506947" cy="18.8507574" r="2.25"></circle>
                <circle id="Oval-Copy-3" fill="#00A5FF" cx="65.9506947" cy="18.8507574" r="2.25"></circle>
                <circle id="Oval-Copy-4" fill="#FF0000" opacity="0.300000012" cx="83.9506947" cy="18.8507574" r="2.25"></circle>
            </g>
            <g id="Group-Copy-2" transform="translate(268.303919, 119.500000)">
                <rect id="Rectangle-Copy-5" fill="#2B2B2B" x="67.4167613" y="26.5657149" width="12.6141164" height="3.37209052" rx="1.68604526"></rect>
                <rect id="Rectangle-Copy-6" fill="#2B2B2B" x="13.7130975" y="26.5657149" width="12.6141164" height="3.37209052" rx="1.68604526"></rect>
                <rect id="Rectangle" fill="#444444" x="0" y="0" width="89.6101832" height="28.2517602" rx="7"></rect>
                <ellipse id="Oval-Copy-2" fill="#40FF00" cx="12.3080598" cy="14.1258801" rx="1.40503772" ry="1.68604526"></ellipse>
                <ellipse id="Oval-Copy-6" fill="#40FF00" cx="24.797284" cy="14.1258801" rx="1.40503772" ry="1.68604526"></ellipse>
                <ellipse id="Oval-Copy-7" fill="#40FF00" cx="37.2865081" cy="14.1258801" rx="1.40503772" ry="1.68604526"></ellipse>
                <ellipse id="Oval-Copy-8" fill="#40FF00" opacity="0.300000012" cx="49.7757322" cy="14.1258801" rx="1.40503772" ry="1.68604526"></ellipse>
                <ellipse id="Oval-Copy-9" fill="#000000" opacity="0.544140637" cx="77.7483703" cy="14.1258801" rx="2.28250744" ry="2.73900893"></ellipse>
            </g>
            <path id="Line-4" d="M314.5,-2.5 C316.097681,-2.5 317.403661,-1.25108004 317.494907,0.323727212 L317.5,0.5 L317.5,53.797 L327.635273,35.7792163 C328.447565,34.3351426 330.27671,33.822982 331.720784,34.6352734 C333.111373,35.4174799 333.637802,37.1426127 332.949551,38.5588177 L332.864727,38.7207837 L317.114727,66.7207837 L314.5,71.3691866 L311.885273,66.7207837 L296.135273,38.7207837 C295.322982,37.2767101 295.835143,35.4475648 297.279216,34.6352734 C298.669806,33.8530668 300.417471,34.2990216 301.270359,35.6226186 L301.364727,35.7792163 L311.5,53.798 L311.5,0.5 C311.5,-1.15685425 312.843146,-2.5 314.5,-2.5 Z" fill="#00C0D2" fill-rule="nonzero"></path>
            <path d="M6.43710345,260 C8.03710345,260 9.34110345,259.492 10.3491034,258.476 C11.3571034,257.46 11.8611034,256.072 11.8611034,254.312 L11.8611034,248.888 C11.8611034,247.128 11.3571034,245.74 10.3491034,244.724 C9.34110345,243.708 8.03710345,243.2 6.43710345,243.2 L1.01310345,243.2 L1.01310345,260 L6.43710345,260 Z M6.43710345,258.176 L2.86110345,258.176 L2.86110345,245.024 L6.43710345,245.024 C7.42910345,245.04 8.27310345,245.372 8.96910345,246.02 C9.66510345,246.668 10.0131034,247.624 10.0131034,248.888 L10.0131034,254.312 C10.0131034,255.576 9.66510345,256.536 8.96910345,257.192 C8.27310345,257.848 7.42910345,258.176 6.43710345,258.176 Z M19.5891034,260.24 C20.6611034,260.24 21.6931034,259.936 22.6851034,259.328 C23.6771034,258.72 24.2531034,257.648 24.4131034,256.112 L22.5651034,256.112 C22.4211034,256.912 22.0651034,257.512 21.4971034,257.912 C20.9291034,258.312 20.2931034,258.512 19.5891034,258.512 C18.7891034,258.512 18.0811034,258.252 17.4651034,257.732 C16.8491034,257.212 16.5411034,256.44 16.5411034,255.416 L16.5411034,254.216 L24.4371034,254.216 L24.4371034,252.128 C24.4371034,250.32 23.9171034,249.06 22.8771034,248.348 C21.8371034,247.636 20.7411034,247.28 19.5891034,247.28 C18.4371034,247.28 17.3411034,247.636 16.3011034,248.348 C15.2611034,249.06 14.7411034,250.32 14.7411034,252.128 L14.7411034,255.392 C14.7411034,257.2 15.2611034,258.46 16.3011034,259.172 C17.3411034,259.884 18.4371034,260.24 19.5891034,260.24 Z M22.6371034,252.56 L16.5411034,252.56 L16.5411034,252.104 C16.5411034,251.08 16.8491034,250.308 17.4651034,249.788 C18.0811034,249.268 18.7891034,249.008 19.5891034,249.008 C20.3891034,249.008 21.0971034,249.268 21.7131034,249.788 C22.3291034,250.308 22.6371034,251.08 22.6371034,252.104 L22.6371034,252.56 Z M32.0931034,260.24 C33.1811034,260.24 34.2251034,259.928 35.2251034,259.304 C36.2251034,258.68 36.7891034,257.576 36.9171034,255.992 L35.0931034,255.992 C34.9811034,256.824 34.6331034,257.452 34.0491034,257.876 C33.4651034,258.3 32.8131034,258.512 32.0931034,258.512 C31.2931034,258.512 30.5851034,258.252 29.9691034,257.732 C29.3531034,257.212 29.0451034,256.44 29.0451034,255.416 L29.0451034,252.104 C29.0451034,251.08 29.3531034,250.308 29.9691034,249.788 C30.5851034,249.268 31.2931034,249.008 32.0931034,249.008 C32.8131034,249.008 33.4651034,249.22 34.0491034,249.644 C34.6331034,250.068 34.9811034,250.696 35.0931034,251.528 L36.9171034,251.528 C36.7891034,249.944 36.2251034,248.84 35.2251034,248.216 C34.2251034,247.592 33.1811034,247.28 32.0931034,247.28 C30.9411034,247.28 29.8451034,247.636 28.8051034,248.348 C27.7651034,249.06 27.2451034,250.32 27.2451034,252.128 L27.2451034,255.392 C27.2451034,257.216 27.7651034,258.48 28.8051034,259.184 C29.8451034,259.888 30.9411034,260.24 32.0931034,260.24 Z M44.4531034,260.24 C45.6051034,260.24 46.7011034,259.884 47.7411034,259.172 C48.7811034,258.46 49.3011034,257.2 49.3011034,255.392 L49.3011034,252.128 C49.3011034,250.32 48.7811034,249.06 47.7411034,248.348 C46.7011034,247.636 45.6051034,247.28 44.4531034,247.28 C43.3011034,247.28 42.2051034,247.636 41.1651034,248.348 C40.1251034,249.06 39.6051034,250.32 39.6051034,252.128 L39.6051034,255.392 C39.6051034,257.2 40.1251034,258.46 41.1651034,259.172 C42.2051034,259.884 43.3011034,260.24 44.4531034,260.24 Z M44.4531034,258.512 C43.6531034,258.512 42.9451034,258.252 42.3291034,257.732 C41.7131034,257.212 41.4051034,256.44 41.4051034,255.416 L41.4051034,252.104 C41.4051034,251.08 41.7131034,250.308 42.3291034,249.788 C42.9451034,249.268 43.6531034,249.008 44.4531034,249.008 C45.2531034,249.008 45.9611034,249.268 46.5771034,249.788 C47.1931034,250.308 47.5011034,251.08 47.5011034,252.104 L47.5011034,255.416 C47.5011034,256.44 47.1931034,257.212 46.5771034,257.732 C45.9611034,258.252 45.2531034,258.512 44.4531034,258.512 Z M57.0771034,260.24 C57.6371034,260.24 58.2091034,260.112 58.7931034,259.856 C59.3771034,259.6 59.8211034,259.224 60.1251034,258.728 L60.1251034,258.728 L60.1251034,260 L61.9251034,260 L61.9251034,243.2 L60.1251034,243.2 L60.1251034,248.792 C59.8211034,248.296 59.3771034,247.92 58.7931034,247.664 C58.2091034,247.408 57.6371034,247.28 57.0771034,247.28 C55.9251034,247.28 54.8291034,247.636 53.7891034,248.348 C52.7491034,249.06 52.2291034,250.32 52.2291034,252.128 L52.2291034,252.128 L52.2291034,255.392 C52.2291034,257.2 52.7491034,258.46 53.7891034,259.172 C54.8291034,259.884 55.9251034,260.24 57.0771034,260.24 Z M57.0771034,258.512 C56.2771034,258.512 55.5691034,258.252 54.9531034,257.732 C54.3371034,257.212 54.0291034,256.44 54.0291034,255.416 L54.0291034,255.416 L54.0291034,252.104 C54.0291034,251.08 54.3371034,250.308 54.9531034,249.788 C55.5691034,249.268 56.2771034,249.008 57.0771034,249.008 C57.8771034,249.008 58.5851034,249.268 59.2011034,249.788 C59.8171034,250.308 60.1251034,251.08 60.1251034,252.104 L60.1251034,252.104 L60.1251034,255.416 C60.1251034,256.44 59.8171034,257.212 59.2011034,257.732 C58.5851034,258.252 57.8771034,258.512 57.0771034,258.512 Z M67.3251034,245.528 L67.3251034,243.2 L65.5251034,243.2 L65.5251034,245.528 L67.3251034,245.528 Z M67.3251034,260 L67.3251034,247.616 L65.5251034,247.616 L65.5251034,260 L67.3251034,260 Z M73.3491034,260 L73.3491034,249.344 L76.3971034,249.344 L76.3971034,247.616 L73.3491034,247.616 L73.3491034,246.008 C73.3491034,245.608 73.4331034,245.328 73.6011034,245.168 C73.7691034,245.008 74.0691034,244.928 74.5011034,244.928 L76.3971034,244.928 L76.3971034,243.2 L74.5011034,243.2 C73.3491034,243.2 72.5691034,243.428 72.1611034,243.884 C71.7531034,244.34 71.5491034,245.096 71.5491034,246.152 L71.5491034,247.616 L69.7971034,247.616 L69.7971034,249.344 L71.5491034,249.344 L71.5491034,260 L73.3491034,260 Z M80.3331034,245.528 L80.3331034,243.2 L78.5331034,243.2 L78.5331034,245.528 L80.3331034,245.528 Z M80.3331034,260 L80.3331034,247.616 L78.5331034,247.616 L78.5331034,260 L80.3331034,260 Z M88.4451034,260.24 C89.5331034,260.24 90.5771034,259.928 91.5771034,259.304 C92.5771034,258.68 93.1411034,257.576 93.2691034,255.992 L91.4451034,255.992 C91.3331034,256.824 90.9851034,257.452 90.4011034,257.876 C89.8171034,258.3 89.1651034,258.512 88.4451034,258.512 C87.6451034,258.512 86.9371034,258.252 86.3211034,257.732 C85.7051034,257.212 85.3971034,256.44 85.3971034,255.416 L85.3971034,252.104 C85.3971034,251.08 85.7051034,250.308 86.3211034,249.788 C86.9371034,249.268 87.6451034,249.008 88.4451034,249.008 C89.1651034,249.008 89.8171034,249.22 90.4011034,249.644 C90.9851034,250.068 91.3331034,250.696 91.4451034,251.528 L93.2691034,251.528 C93.1411034,249.944 92.5771034,248.84 91.5771034,248.216 C90.5771034,247.592 89.5331034,247.28 88.4451034,247.28 C87.2931034,247.28 86.1971034,247.636 85.1571034,248.348 C84.1171034,249.06 83.5971034,250.32 83.5971034,252.128 L83.5971034,255.392 C83.5971034,257.216 84.1171034,258.48 85.1571034,259.184 C86.1971034,259.888 87.2931034,260.24 88.4451034,260.24 Z M99.6771034,260.24 C100.509103,260.24 101.261103,260.116 101.933103,259.868 C102.605103,259.62 103.141103,259.24 103.541103,258.728 L103.541103,260 L105.341103,260 L105.341103,252.128 C105.341103,250.32 104.821103,249.06 103.781103,248.348 C102.741103,247.636 101.645103,247.28 100.493103,247.28 C99.4211034,247.28 98.3891034,247.584 97.3971034,248.192 C96.4051034,248.8 95.8291034,249.872 95.6691034,251.408 L97.5171034,251.408 C97.6611034,250.608 98.0171034,250.008 98.5851034,249.608 C99.1531034,249.208 99.7891034,249.008 100.493103,249.008 C101.293103,249.008 102.001103,249.268 102.617103,249.788 C103.233103,250.308 103.541103,251.08 103.541103,252.104 L103.541103,252.32 C102.501103,252.384 101.537103,252.464 100.649103,252.56 C99.7611034,252.656 98.9651034,252.808 98.2611034,253.016 C97.1891034,253.32 96.4731034,253.832 96.1131034,254.552 C95.7531034,255.272 95.5731034,255.944 95.5731034,256.568 C95.5731034,257.832 95.9931034,258.76 96.8331034,259.352 C97.6731034,259.944 98.6211034,260.24 99.6771034,260.24 Z M100.061103,258.512 C99.1491034,258.512 98.4731034,258.32 98.0331034,257.936 C97.5931034,257.552 97.3731034,257.08 97.3731034,256.52 C97.3731034,256.168 97.4411034,255.848 97.5771034,255.56 C97.7131034,255.272 98.0051034,255 98.4531034,254.744 C98.8691034,254.52 99.4851034,254.352 100.301103,254.24 C101.117103,254.128 102.197103,254.024 103.541103,253.928 L103.541103,255.536 C103.541103,256.496 103.201103,257.232 102.521103,257.744 C101.841103,258.256 101.021103,258.512 100.061103,258.512 Z M113.285103,260.24 C113.845103,260.24 114.417103,260.112 115.001103,259.856 C115.585103,259.6 116.029103,259.224 116.333103,258.728 L116.333103,258.728 L116.333103,260 L118.133103,260 L118.133103,243.2 L116.333103,243.2 L116.333103,248.792 C116.029103,248.296 115.585103,247.92 115.001103,247.664 C114.417103,247.408 113.845103,247.28 113.285103,247.28 C112.133103,247.28 111.037103,247.636 109.997103,248.348 C108.957103,249.06 108.437103,250.32 108.437103,252.128 L108.437103,252.128 L108.437103,255.392 C108.437103,257.2 108.957103,258.46 109.997103,259.172 C111.037103,259.884 112.133103,260.24 113.285103,260.24 Z M113.285103,258.512 C112.485103,258.512 111.777103,258.252 111.161103,257.732 C110.545103,257.212 110.237103,256.44 110.237103,255.416 L110.237103,255.416 L110.237103,252.104 C110.237103,251.08 110.545103,250.308 111.161103,249.788 C111.777103,249.268 112.485103,249.008 113.285103,249.008 C114.085103,249.008 114.793103,249.268 115.409103,249.788 C116.025103,250.308 116.333103,251.08 116.333103,252.104 L116.333103,252.104 L116.333103,255.416 C116.333103,256.44 116.025103,257.212 115.409103,257.732 C114.793103,258.252 114.085103,258.512 113.285103,258.512 Z M126.245103,260.24 C127.397103,260.24 128.493103,259.884 129.533103,259.172 C130.573103,258.46 131.093103,257.2 131.093103,255.392 L131.093103,252.128 C131.093103,250.32 130.573103,249.06 129.533103,248.348 C128.493103,247.636 127.397103,247.28 126.245103,247.28 C125.093103,247.28 123.997103,247.636 122.957103,248.348 C121.917103,249.06 121.397103,250.32 121.397103,252.128 L121.397103,255.392 C121.397103,257.2 121.917103,258.46 122.957103,259.172 C123.997103,259.884 125.093103,260.24 126.245103,260.24 Z M126.245103,258.512 C125.445103,258.512 124.737103,258.252 124.121103,257.732 C123.505103,257.212 123.197103,256.44 123.197103,255.416 L123.197103,252.104 C123.197103,251.08 123.505103,250.308 124.121103,249.788 C124.737103,249.268 125.445103,249.008 126.245103,249.008 C127.045103,249.008 127.753103,249.268 128.369103,249.788 C128.985103,250.308 129.293103,251.08 129.293103,252.104 L129.293103,255.416 C129.293103,256.44 128.985103,257.212 128.369103,257.732 C127.753103,258.252 127.045103,258.512 126.245103,258.512 Z M136.157103,260 L136.157103,252.224 C136.157103,251.2 136.465103,250.428 137.081103,249.908 C137.697103,249.388 138.405103,249.128 139.205103,249.128 L139.997103,249.128 L139.997103,247.4 L139.205103,247.4 C138.645103,247.4 138.073103,247.528 137.489103,247.784 C136.905103,248.04 136.461103,248.416 136.157103,248.912 L136.157103,247.616 L134.357103,247.616 L134.357103,260 L136.157103,260 Z M152.117103,260.24 C152.677103,260.24 153.249103,260.112 153.833103,259.856 C154.417103,259.6 154.861103,259.224 155.165103,258.728 L155.165103,258.728 L155.165103,260 L156.965103,260 L156.965103,243.2 L155.165103,243.2 L155.165103,248.792 C154.861103,248.296 154.417103,247.92 153.833103,247.664 C153.249103,247.408 152.677103,247.28 152.117103,247.28 C150.965103,247.28 149.869103,247.636 148.829103,248.348 C147.789103,249.06 147.269103,250.32 147.269103,252.128 L147.269103,252.128 L147.269103,255.392 C147.269103,257.2 147.789103,258.46 148.829103,259.172 C149.869103,259.884 150.965103,260.24 152.117103,260.24 Z M152.117103,258.512 C151.317103,258.512 150.609103,258.252 149.993103,257.732 C149.377103,257.212 149.069103,256.44 149.069103,255.416 L149.069103,255.416 L149.069103,252.104 C149.069103,251.08 149.377103,250.308 149.993103,249.788 C150.609103,249.268 151.317103,249.008 152.117103,249.008 C152.917103,249.008 153.625103,249.268 154.241103,249.788 C154.857103,250.308 155.165103,251.08 155.165103,252.104 L155.165103,252.104 L155.165103,255.416 C155.165103,256.44 154.857103,257.212 154.241103,257.732 C153.625103,258.252 152.917103,258.512 152.117103,258.512 Z M164.117103,260.24 C164.949103,260.24 165.701103,260.116 166.373103,259.868 C167.045103,259.62 167.581103,259.24 167.981103,258.728 L167.981103,260 L169.781103,260 L169.781103,252.128 C169.781103,250.32 169.261103,249.06 168.221103,248.348 C167.181103,247.636 166.085103,247.28 164.933103,247.28 C163.861103,247.28 162.829103,247.584 161.837103,248.192 C160.845103,248.8 160.269103,249.872 160.109103,251.408 L161.957103,251.408 C162.101103,250.608 162.457103,250.008 163.025103,249.608 C163.593103,249.208 164.229103,249.008 164.933103,249.008 C165.733103,249.008 166.441103,249.268 167.057103,249.788 C167.673103,250.308 167.981103,251.08 167.981103,252.104 L167.981103,252.32 C166.941103,252.384 165.977103,252.464 165.089103,252.56 C164.201103,252.656 163.405103,252.808 162.701103,253.016 C161.629103,253.32 160.913103,253.832 160.553103,254.552 C160.193103,255.272 160.013103,255.944 160.013103,256.568 C160.013103,257.832 160.433103,258.76 161.273103,259.352 C162.113103,259.944 163.061103,260.24 164.117103,260.24 Z M164.501103,258.512 C163.589103,258.512 162.913103,258.32 162.473103,257.936 C162.033103,257.552 161.813103,257.08 161.813103,256.52 C161.813103,256.168 161.881103,255.848 162.017103,255.56 C162.153103,255.272 162.445103,255 162.893103,254.744 C163.309103,254.52 163.925103,254.352 164.741103,254.24 C165.557103,254.128 166.637103,254.024 167.981103,253.928 L167.981103,255.536 C167.981103,256.496 167.641103,257.232 166.961103,257.744 C166.281103,258.256 165.461103,258.512 164.501103,258.512 Z M183.485103,260 L183.485103,245.024 L187.973103,245.024 L187.973103,243.2 L177.149103,243.2 L177.149103,245.024 L181.637103,245.024 L181.637103,260 L183.485103,260 Z M196.757103,260 L202.157103,243.2 L200.285103,243.2 L195.701103,257.432 L191.117103,243.2 L189.245103,243.2 L194.645103,260 L196.757103,260 Z" id="DecodificadordaTV" fill="#444444" fill-rule="nonzero"></path>
            <path d="M282.979252,221.536553 C284.723252,221.536553 286.075252,221.100553 287.035252,220.228553 C287.995252,219.356553 288.475252,218.248553 288.475252,216.904553 C288.475252,215.560553 288.135252,214.476553 287.455252,213.652553 C286.775252,212.828553 285.771252,212.256553 284.443252,211.936553 L281.563252,211.240553 C281.019252,211.112553 280.567252,210.868553 280.207252,210.508553 C279.847252,210.148553 279.667252,209.648553 279.667252,209.008553 C279.667252,208.368553 279.891252,207.840553 280.339252,207.424553 C280.787252,207.008553 281.507252,206.800553 282.499252,206.800553 C283.315252,206.800553 283.995252,206.992553 284.539252,207.376553 C285.083252,207.760553 285.435252,208.296553 285.595252,208.984553 L288.211252,208.984553 C288.003252,207.592553 287.415252,206.456553 286.447252,205.576553 C285.479252,204.696553 284.155252,204.256553 282.475252,204.256553 C280.987252,204.256553 279.711252,204.644553 278.647252,205.420553 C277.583252,206.196553 277.051252,207.392553 277.051252,209.008553 C277.051252,210.208553 277.351252,211.228553 277.951252,212.068553 C278.551252,212.908553 279.403252,213.456553 280.507252,213.712553 L283.483252,214.432553 C284.315252,214.640553 284.919252,214.940553 285.295252,215.332553 C285.671252,215.724553 285.859252,216.232553 285.859252,216.856553 C285.859252,217.496553 285.603252,218.012553 285.091252,218.404553 C284.579252,218.796553 283.891252,218.992553 283.027252,218.992553 C282.051252,218.992553 281.247252,218.740553 280.615252,218.236553 C279.983252,217.732553 279.579252,217.016553 279.403252,216.088553 L276.787252,216.088553 C276.915252,217.640553 277.499252,218.936553 278.539252,219.976553 C279.579252,221.016553 281.059252,221.536553 282.979252,221.536553 Z M295.363252,221.296553 L297.643252,212.200553 L299.923252,221.296553 L302.467252,221.296553 L305.731252,208.912553 L303.163252,208.912553 L301.099252,217.336553 L298.987252,208.912553 L296.299252,208.912553 L294.187252,217.336553 L292.123252,208.912553 L289.555252,208.912553 L292.819252,221.296553 L295.363252,221.296553 Z M310.075252,207.064553 L310.075252,204.496553 L307.555252,204.496553 L307.555252,207.064553 L310.075252,207.064553 Z M310.075252,221.296553 L310.075252,208.912553 L307.555252,208.912553 L307.555252,221.296553 L310.075252,221.296553 Z M319.531252,221.296553 L319.531252,218.872553 L317.635252,218.872553 C317.139252,218.872553 316.823252,218.788553 316.687252,218.620553 C316.551252,218.452553 316.483252,218.144553 316.483252,217.696553 L316.483252,217.696553 L316.483252,211.288553 L319.531252,211.288553 L319.531252,208.912553 L316.483252,208.912553 L316.483252,206.104553 L313.963252,206.104553 L313.963252,208.912553 L312.211252,208.912553 L312.211252,211.288553 L313.963252,211.288553 L313.963252,218.344553 C313.963252,219.304553 314.199252,220.036553 314.671252,220.540553 C315.143252,221.044553 315.891252,221.296553 316.915252,221.296553 L316.915252,221.296553 L319.531252,221.296553 Z M326.827252,221.536553 C327.835252,221.536553 328.903252,221.232553 330.031252,220.624553 C331.159252,220.016553 331.803252,218.832553 331.963252,217.072553 L329.419252,217.072553 C329.307252,217.760553 329.015252,218.272553 328.543252,218.608553 C328.071252,218.944553 327.499252,219.112553 326.827252,219.112553 C326.043252,219.112553 325.407252,218.884553 324.919252,218.428553 C324.431252,217.972553 324.187252,217.280553 324.187252,216.352553 L324.187252,213.760553 C324.187252,212.832553 324.431252,212.140553 324.919252,211.684553 C325.407252,211.228553 326.043252,211.000553 326.827252,211.000553 C327.499252,211.000553 328.067252,211.168553 328.531252,211.504553 C328.995252,211.840553 329.283252,212.352553 329.395252,213.040553 L331.963252,213.040553 C331.803252,211.280553 331.159252,210.096553 330.031252,209.488553 C328.903252,208.880553 327.835252,208.576553 326.827252,208.576553 C325.755252,208.576553 324.627252,208.924553 323.443252,209.620553 C322.259252,210.316553 321.667252,211.680553 321.667252,213.712553 L321.667252,216.400553 C321.667252,218.432553 322.259252,219.796553 323.443252,220.492553 C324.627252,221.188553 325.755252,221.536553 326.827252,221.536553 Z M337.219252,221.296553 L337.219252,213.760553 C337.219252,212.832553 337.463252,212.144553 337.951252,211.696553 C338.439252,211.248553 339.075252,211.024553 339.859252,211.024553 C340.643252,211.024553 341.279252,211.248553 341.767252,211.696553 C342.255252,212.144553 342.499252,212.832553 342.499252,213.760553 L342.499252,221.296553 L345.019252,221.296553 L345.019252,213.712553 C345.019252,211.808553 344.463252,210.476553 343.351252,209.716553 C342.239252,208.956553 341.155252,208.576553 340.099252,208.576553 C339.459252,208.576553 338.863252,208.724553 338.311252,209.020553 C337.759252,209.316553 337.395252,209.640553 337.219252,209.992553 L337.219252,204.496553 L334.699252,204.496553 L334.699252,221.296553 L337.219252,221.296553 Z M274.699252,245.536553 C275.771252,245.536553 276.899252,245.188553 278.083252,244.492553 C279.267252,243.796553 279.859252,242.432553 279.859252,240.400553 L279.859252,237.712553 C279.859252,235.680553 279.267252,234.316553 278.083252,233.620553 C276.899252,232.924553 275.771252,232.576553 274.699252,232.576553 C273.627252,232.576553 272.499252,232.924553 271.315252,233.620553 C270.131252,234.316553 269.539252,235.680553 269.539252,237.712553 L269.539252,240.400553 C269.539252,242.432553 270.131252,243.796553 271.315252,244.492553 C272.499252,245.188553 273.627252,245.536553 274.699252,245.536553 Z M274.699252,243.112553 C273.915252,243.112553 273.279252,242.884553 272.791252,242.428553 C272.303252,241.972553 272.059252,241.280553 272.059252,240.352553 L272.059252,237.760553 C272.059252,236.832553 272.303252,236.140553 272.791252,235.684553 C273.279252,235.228553 273.915252,235.000553 274.699252,235.000553 C275.483252,235.000553 276.119252,235.228553 276.607252,235.684553 C277.095252,236.140553 277.339252,236.832553 277.339252,237.760553 L277.339252,240.352553 C277.339252,241.280553 277.095252,241.972553 276.607252,242.428553 C276.119252,242.884553 275.483252,243.112553 274.699252,243.112553 Z M287.443252,245.536553 C288.083252,245.536553 288.679252,245.388553 289.231252,245.092553 C289.783252,244.796553 290.147252,244.472553 290.323252,244.120553 L290.323252,245.296553 L292.843252,245.296553 L292.843252,232.912553 L290.323252,232.912553 L290.323252,240.352553 C290.323252,241.280553 290.079252,241.968553 289.591252,242.416553 C289.103252,242.864553 288.491252,243.088553 287.755252,243.088553 C287.019252,243.088553 286.407252,242.864553 285.919252,242.416553 C285.431252,241.968553 285.187252,241.280553 285.187252,240.352553 L285.187252,232.912553 L282.667252,232.912553 L282.667252,240.400553 C282.667252,242.208553 283.199252,243.516553 284.263252,244.324553 C285.327252,245.132553 286.387252,245.536553 287.443252,245.536553 Z M304.099252,245.296553 L304.099252,238.096553 L311.011252,238.096553 L311.011252,245.296553 L313.579252,245.296553 L313.579252,228.496553 L311.011252,228.496553 L311.011252,235.552553 L304.099252,235.552553 L304.099252,228.496553 L301.531252,228.496553 L301.531252,245.296553 L304.099252,245.296553 Z M321.619252,245.536553 C322.259252,245.536553 322.855252,245.388553 323.407252,245.092553 C323.959252,244.796553 324.323252,244.472553 324.499252,244.120553 L324.499252,245.296553 L327.019252,245.296553 L327.019252,232.912553 L324.499252,232.912553 L324.499252,240.352553 C324.499252,241.280553 324.255252,241.968553 323.767252,242.416553 C323.279252,242.864553 322.667252,243.088553 321.931252,243.088553 C321.195252,243.088553 320.583252,242.864553 320.095252,242.416553 C319.607252,241.968553 319.363252,241.280553 319.363252,240.352553 L319.363252,232.912553 L316.843252,232.912553 L316.843252,240.400553 C316.843252,242.208553 317.375252,243.516553 318.439252,244.324553 C319.503252,245.132553 320.563252,245.536553 321.619252,245.536553 Z M335.731252,245.536553 C336.787252,245.536553 337.871252,245.156553 338.983252,244.396553 C340.095252,243.636553 340.651252,242.304553 340.651252,240.400553 L340.651252,237.712553 C340.651252,235.808553 340.095252,234.476553 338.983252,233.716553 C337.871252,232.956553 336.787252,232.576553 335.731252,232.576553 C335.091252,232.576553 334.495252,232.724553 333.943252,233.020553 C333.391252,233.316553 333.027252,233.640553 332.851252,233.992553 L332.851252,228.496553 L330.331252,228.496553 L330.331252,245.296553 L332.851252,245.296553 L332.851252,244.120553 C333.027252,244.472553 333.391252,244.796553 333.943252,245.092553 C334.495252,245.388553 335.091252,245.536553 335.731252,245.536553 Z M335.491252,243.088553 C334.707252,243.088553 334.071252,242.864553 333.583252,242.416553 C333.095252,241.968553 332.851252,241.280553 332.851252,240.352553 L332.851252,237.760553 C332.851252,236.832553 333.095252,236.144553 333.583252,235.696553 C334.071252,235.248553 334.707252,235.024553 335.491252,235.024553 C336.275252,235.024553 336.911252,235.248553 337.399252,235.696553 C337.887252,236.144553 338.131252,236.832553 338.131252,237.760553 L338.131252,240.352553 C338.131252,241.280553 337.887252,241.968553 337.399252,242.416553 C336.911252,242.864553 336.275252,243.088553 335.491252,243.088553 Z M349.147252,240.256553 L349.147252,239.968553 C349.147252,239.696553 349.199252,239.472553 349.303252,239.296553 C349.407252,239.120553 349.603252,238.904553 349.891252,238.648553 L351.139252,237.496553 C351.699252,236.984553 352.175252,236.376553 352.567252,235.672553 C352.959252,234.968553 353.155252,234.208553 353.155252,233.392553 C353.155252,231.360553 352.563252,229.996553 351.379252,229.300553 C350.195252,228.604553 349.067252,228.256553 347.995252,228.256553 C346.939252,228.256553 345.819252,228.600553 344.635252,229.288553 C343.451252,229.976553 342.851252,231.304553 342.835252,233.272553 L342.835252,233.296553 L345.355252,233.296553 L345.355252,233.272553 C345.371252,232.408553 345.627252,231.760553 346.123252,231.328553 C346.619252,230.896553 347.243252,230.680553 347.995252,230.680553 C348.779252,230.680553 349.415252,230.908553 349.903252,231.364553 C350.391252,231.820553 350.635252,232.512553 350.635252,233.440553 C350.635252,233.952553 350.495252,234.412553 350.215252,234.820553 C349.935252,235.228553 349.643252,235.576553 349.339252,235.864553 L348.091252,237.016553 C347.499252,237.544553 347.107252,237.992553 346.915252,238.360553 C346.723252,238.728553 346.627252,239.184553 346.627252,239.728553 L346.627252,240.256553 L349.147252,240.256553 Z M349.507252,245.296553 L349.507252,242.080553 L346.291252,242.080553 L346.291252,245.296553 L349.507252,245.296553 Z" id="SwitchouHub?" fill="#00C0D2" fill-rule="nonzero"></path>
            <path d="M431.278897,260 L431.278897,247.088 L435.286897,255.488 L437.014897,255.488 L441.022897,247.088 L441.022897,260 L442.846897,260 L442.846897,243.2 L440.998897,243.2 L436.150897,253.376 L431.302897,243.2 L429.454897,243.2 L429.454897,260 L431.278897,260 Z M451.078897,260.24 C452.230897,260.24 453.326897,259.884 454.366897,259.172 C455.406897,258.46 455.926897,257.2 455.926897,255.392 L455.926897,252.128 C455.926897,250.32 455.406897,249.06 454.366897,248.348 C453.326897,247.636 452.230897,247.28 451.078897,247.28 C449.926897,247.28 448.830897,247.636 447.790897,248.348 C446.750897,249.06 446.230897,250.32 446.230897,252.128 L446.230897,255.392 C446.230897,257.2 446.750897,258.46 447.790897,259.172 C448.830897,259.884 449.926897,260.24 451.078897,260.24 Z M451.078897,258.512 C450.278897,258.512 449.570897,258.252 448.954897,257.732 C448.338897,257.212 448.030897,256.44 448.030897,255.416 L448.030897,252.104 C448.030897,251.08 448.338897,250.308 448.954897,249.788 C449.570897,249.268 450.278897,249.008 451.078897,249.008 C451.878897,249.008 452.586897,249.268 453.202897,249.788 C453.818897,250.308 454.126897,251.08 454.126897,252.104 L454.126897,255.416 C454.126897,256.44 453.818897,257.212 453.202897,257.732 C452.586897,258.252 451.878897,258.512 451.078897,258.512 Z M463.702897,260.24 C464.262897,260.24 464.834897,260.112 465.418897,259.856 C466.002897,259.6 466.446897,259.224 466.750897,258.728 L466.750897,258.728 L466.750897,260 L468.550897,260 L468.550897,243.2 L466.750897,243.2 L466.750897,248.792 C466.446897,248.296 466.002897,247.92 465.418897,247.664 C464.834897,247.408 464.262897,247.28 463.702897,247.28 C462.550897,247.28 461.454897,247.636 460.414897,248.348 C459.374897,249.06 458.854897,250.32 458.854897,252.128 L458.854897,252.128 L458.854897,255.392 C458.854897,257.2 459.374897,258.46 460.414897,259.172 C461.454897,259.884 462.550897,260.24 463.702897,260.24 Z M463.702897,258.512 C462.902897,258.512 462.194897,258.252 461.578897,257.732 C460.962897,257.212 460.654897,256.44 460.654897,255.416 L460.654897,255.416 L460.654897,252.104 C460.654897,251.08 460.962897,250.308 461.578897,249.788 C462.194897,249.268 462.902897,249.008 463.702897,249.008 C464.502897,249.008 465.210897,249.268 465.826897,249.788 C466.442897,250.308 466.750897,251.08 466.750897,252.104 L466.750897,252.104 L466.750897,255.416 C466.750897,256.44 466.442897,257.212 465.826897,257.732 C465.210897,258.252 464.502897,258.512 463.702897,258.512 Z M476.662897,260.24 C477.734897,260.24 478.766897,259.936 479.758897,259.328 C480.750897,258.72 481.326897,257.648 481.486897,256.112 L479.638897,256.112 C479.494897,256.912 479.138897,257.512 478.570897,257.912 C478.002897,258.312 477.366897,258.512 476.662897,258.512 C475.862897,258.512 475.154897,258.252 474.538897,257.732 C473.922897,257.212 473.614897,256.44 473.614897,255.416 L473.614897,254.216 L481.510897,254.216 L481.510897,252.128 C481.510897,250.32 480.990897,249.06 479.950897,248.348 C478.910897,247.636 477.814897,247.28 476.662897,247.28 C475.510897,247.28 474.414897,247.636 473.374897,248.348 C472.334897,249.06 471.814897,250.32 471.814897,252.128 L471.814897,255.392 C471.814897,257.2 472.334897,258.46 473.374897,259.172 C474.414897,259.884 475.510897,260.24 476.662897,260.24 Z M479.710897,252.56 L473.614897,252.56 L473.614897,252.104 C473.614897,251.08 473.922897,250.308 474.538897,249.788 C475.154897,249.268 475.862897,249.008 476.662897,249.008 C477.462897,249.008 478.170897,249.268 478.786897,249.788 C479.402897,250.308 479.710897,251.08 479.710897,252.104 L479.710897,252.56 Z M486.454897,260 L486.454897,252.104 C486.454897,251.112 486.750897,250.348 487.342897,249.812 C487.934897,249.276 488.598897,249.008 489.334897,249.008 C490.038897,249.008 490.690897,249.272 491.290897,249.8 C491.890897,250.328 492.190897,251.048 492.190897,251.96 L492.190897,260 L493.990897,260 L493.990897,252.104 C493.990897,251.112 494.286897,250.348 494.878897,249.812 C495.470897,249.276 496.134897,249.008 496.870897,249.008 C497.574897,249.008 498.226897,249.272 498.826897,249.8 C499.426897,250.328 499.726897,251.048 499.726897,251.96 L499.726897,260 L501.526897,260 L501.526897,252.128 C501.526897,250.384 501.022897,249.14 500.014897,248.396 C499.006897,247.652 497.950897,247.28 496.846897,247.28 C496.158897,247.28 495.462897,247.432 494.758897,247.736 C494.054897,248.04 493.494897,248.536 493.078897,249.224 C492.662897,248.536 492.106897,248.04 491.410897,247.736 C490.714897,247.432 490.022897,247.28 489.334897,247.28 C488.886897,247.28 488.370897,247.408 487.786897,247.664 C487.202897,247.92 486.758897,248.296 486.454897,248.792 L486.454897,247.616 L484.654897,247.616 L484.654897,260 L486.454897,260 Z M514.870897,260.24 C515.430897,260.24 516.002897,260.112 516.586897,259.856 C517.170897,259.6 517.614897,259.224 517.918897,258.728 L517.918897,258.728 L517.918897,260 L519.718897,260 L519.718897,243.2 L517.918897,243.2 L517.918897,248.792 C517.614897,248.296 517.170897,247.92 516.586897,247.664 C516.002897,247.408 515.430897,247.28 514.870897,247.28 C513.718897,247.28 512.622897,247.636 511.582897,248.348 C510.542897,249.06 510.022897,250.32 510.022897,252.128 L510.022897,252.128 L510.022897,255.392 C510.022897,257.2 510.542897,258.46 511.582897,259.172 C512.622897,259.884 513.718897,260.24 514.870897,260.24 Z M514.870897,258.512 C514.070897,258.512 513.362897,258.252 512.746897,257.732 C512.130897,257.212 511.822897,256.44 511.822897,255.416 L511.822897,255.416 L511.822897,252.104 C511.822897,251.08 512.130897,250.308 512.746897,249.788 C513.362897,249.268 514.070897,249.008 514.870897,249.008 C515.670897,249.008 516.378897,249.268 516.994897,249.788 C517.610897,250.308 517.918897,251.08 517.918897,252.104 L517.918897,252.104 L517.918897,255.416 C517.918897,256.44 517.610897,257.212 516.994897,257.732 C516.378897,258.252 515.670897,258.512 514.870897,258.512 Z M527.830897,260.24 C528.902897,260.24 529.934897,259.936 530.926897,259.328 C531.918897,258.72 532.494897,257.648 532.654897,256.112 L530.806897,256.112 C530.662897,256.912 530.306897,257.512 529.738897,257.912 C529.170897,258.312 528.534897,258.512 527.830897,258.512 C527.030897,258.512 526.322897,258.252 525.706897,257.732 C525.090897,257.212 524.782897,256.44 524.782897,255.416 L524.782897,254.216 L532.678897,254.216 L532.678897,252.128 C532.678897,250.32 532.158897,249.06 531.118897,248.348 C530.078897,247.636 528.982897,247.28 527.830897,247.28 C526.678897,247.28 525.582897,247.636 524.542897,248.348 C523.502897,249.06 522.982897,250.32 522.982897,252.128 L522.982897,255.392 C522.982897,257.2 523.502897,258.46 524.542897,259.172 C525.582897,259.884 526.678897,260.24 527.830897,260.24 Z M530.878897,252.56 L524.782897,252.56 L524.782897,252.104 C524.782897,251.08 525.090897,250.308 525.706897,249.788 C526.322897,249.268 527.030897,249.008 527.830897,249.008 C528.630897,249.008 529.338897,249.268 529.954897,249.788 C530.570897,250.308 530.878897,251.08 530.878897,252.104 L530.878897,252.56 Z M543.190897,260 L543.190897,252.416 L550.894897,252.416 L550.894897,250.592 L543.190897,250.592 L543.190897,245.024 L550.894897,245.024 L550.894897,243.2 L541.342897,243.2 L541.342897,260 L543.190897,260 Z M555.790897,245.528 L555.790897,243.2 L553.990897,243.2 L553.990897,245.528 L555.790897,245.528 Z M555.790897,260 L555.790897,247.616 L553.990897,247.616 L553.990897,260 L555.790897,260 Z M564.238897,260.24 C565.390897,260.24 566.486897,259.884 567.526897,259.172 C568.566897,258.46 569.086897,257.2 569.086897,255.392 L569.086897,252.128 C569.086897,250.32 568.566897,249.06 567.526897,248.348 C566.486897,247.636 565.390897,247.28 564.238897,247.28 C563.678897,247.28 563.106897,247.408 562.522897,247.664 C561.938897,247.92 561.494897,248.296 561.190897,248.792 L561.190897,243.2 L559.390897,243.2 L559.390897,260 L561.190897,260 L561.190897,258.728 C561.494897,259.224 561.938897,259.6 562.522897,259.856 C563.106897,260.112 563.678897,260.24 564.238897,260.24 Z M564.238897,258.512 C563.438897,258.512 562.730897,258.252 562.114897,257.732 C561.498897,257.212 561.190897,256.44 561.190897,255.416 L561.190897,252.104 C561.190897,251.08 561.498897,250.308 562.114897,249.788 C562.730897,249.268 563.438897,249.008 564.238897,249.008 C565.038897,249.008 565.746897,249.268 566.362897,249.788 C566.978897,250.308 567.286897,251.08 567.286897,252.104 L567.286897,255.416 C567.286897,256.44 566.978897,257.212 566.362897,257.732 C565.746897,258.252 565.038897,258.512 564.238897,258.512 Z M574.150897,260 L574.150897,252.224 C574.150897,251.2 574.458897,250.428 575.074897,249.908 C575.690897,249.388 576.398897,249.128 577.198897,249.128 L577.990897,249.128 L577.990897,247.4 L577.198897,247.4 C576.638897,247.4 576.066897,247.528 575.482897,247.784 C574.898897,248.04 574.454897,248.416 574.150897,248.912 L574.150897,247.616 L572.350897,247.616 L572.350897,260 L574.150897,260 Z M583.582897,260.24 C584.414897,260.24 585.166897,260.116 585.838897,259.868 C586.510897,259.62 587.046897,259.24 587.446897,258.728 L587.446897,260 L589.246897,260 L589.246897,252.128 C589.246897,250.32 588.726897,249.06 587.686897,248.348 C586.646897,247.636 585.550897,247.28 584.398897,247.28 C583.326897,247.28 582.294897,247.584 581.302897,248.192 C580.310897,248.8 579.734897,249.872 579.574897,251.408 L581.422897,251.408 C581.566897,250.608 581.922897,250.008 582.490897,249.608 C583.058897,249.208 583.694897,249.008 584.398897,249.008 C585.198897,249.008 585.906897,249.268 586.522897,249.788 C587.138897,250.308 587.446897,251.08 587.446897,252.104 L587.446897,252.32 C586.406897,252.384 585.442897,252.464 584.554897,252.56 C583.666897,252.656 582.870897,252.808 582.166897,253.016 C581.094897,253.32 580.378897,253.832 580.018897,254.552 C579.658897,255.272 579.478897,255.944 579.478897,256.568 C579.478897,257.832 579.898897,258.76 580.738897,259.352 C581.578897,259.944 582.526897,260.24 583.582897,260.24 Z M583.966897,258.512 C583.054897,258.512 582.378897,258.32 581.938897,257.936 C581.498897,257.552 581.278897,257.08 581.278897,256.52 C581.278897,256.168 581.346897,255.848 581.482897,255.56 C581.618897,255.272 581.910897,255 582.358897,254.744 C582.774897,254.52 583.390897,254.352 584.206897,254.24 C585.022897,254.128 586.102897,254.024 587.446897,253.928 L587.446897,255.536 C587.446897,256.496 587.106897,257.232 586.426897,257.744 C585.746897,258.256 584.926897,258.512 583.966897,258.512 Z" id="ModemdeFibra" fill="#444444" fill-rule="nonzero"></path>
        </g>
        <g id="-Connections" transform="translate(-18911.701232, -11548.000000)"></g>
    </g>
</svg>