<?xml version="1.0" encoding="UTF-8"?>
<svg width="612px" height="341px" viewBox="0 0 612 341" version="1.1" xmlns="http://www.w3.org/2000/svg" xmlns:xlink="http://www.w3.org/1999/xlink">
    <title>microfiltro-00 copy</title>
    <defs>
        <radialGradient cx="50%" cy="50%" fx="50%" fy="50%" r="47.4912074%" id="radialGradient-1">
            <stop stop-color="#40FF00" offset="0%"></stop>
            <stop stop-color="#76FF00" stop-opacity="0" offset="100%"></stop>
        </radialGradient>
        <polygon id="path-2" points="119.457855 85.2049 119.457855 0.00535384615 0.371158046 0.00535384615 0.371158046 85.2049 119.457855 85.2049"></polygon>
        <linearGradient x1="50%" y1="0%" x2="50%" y2="100%" id="linearGradient-4">
            <stop stop-color="#0D094F" offset="0%"></stop>
            <stop stop-color="#3177D7" offset="100%"></stop>
        </linearGradient>
        <radialGradient cx="49.9687414%" cy="49.887506%" fx="49.9687414%" fy="49.887506%" r="47.3744513%" id="radialGradient-5">
            <stop stop-color="#00FDFF" offset="0%"></stop>
            <stop stop-color="#00ECFF" stop-opacity="0" offset="100%"></stop>
        </radialGradient>
    </defs>
    <g id="Page-1" stroke="none" stroke-width="1" fill="none" fill-rule="evenodd">
        <path d="M447.206445,236.772841 C448.171875,249.304392 429.170099,249.599547 396.927845,249.208068 C345.806802,248.587366 340.14155,284.673752 340.14155,277.137101" id="Path-4-Copy-4" stroke="#000000" stroke-width="4.5" stroke-linejoin="round" transform="translate(393.691550, 257.472841) scale(1, -1) rotate(-165.000000) translate(-393.691550, -257.472841) "></path>
        <path d="M271.424945,240.330052 C272.211892,252.861604 256.723049,253.156758 230.441548,252.765279 C188.771454,252.144577 184.15356,288.230963 184.15356,280.694313" id="Path-4-Copy-5" stroke="#000000" stroke-width="4.5" stroke-linejoin="round" transform="translate(227.803560, 261.030052) scale(-1, -1) rotate(204.000000) translate(-227.803560, -261.030052) "></path>
        <g id="Group-36" transform="translate(430.254221, 192.184059)" fill-rule="nonzero">
            <path d="M6.98738233,86.098529 C6.33622385,86.098529 5.8033519,86.0269861 5.8033519,85.9395382 L5.8033519,82.0017281 C5.8033519,81.9142802 6.33622385,81.8427372 6.98738233,81.8427372 L36.9247928,81.8427372 C37.5759512,81.8427372 38.1086775,81.9142802 38.1086775,82.0017281 L38.1086775,85.9395382 C38.1086775,86.0269861 37.5759512,86.098529 36.9247928,86.098529 L6.98738233,86.098529 Z" id="Fill-48-Copy" fill="#2B2B2B" transform="translate(21.956015, 83.970633) scale(-1, 1) rotate(-180.000000) translate(-21.956015, -83.970633) "></path>
            <path d="M117.057623,86.098529 C116.406465,86.098529 115.873593,86.0269861 115.873593,85.9395382 L115.873593,82.0017281 C115.873593,81.9142802 116.406465,81.8427372 117.057623,81.8427372 L146.995034,81.8427372 C147.646192,81.8427372 148.178919,81.9142802 148.178919,82.0017281 L148.178919,85.9395382 C148.178919,86.0269861 147.646192,86.098529 146.995034,86.098529 L117.057623,86.098529 Z" id="Fill-48-Copy-2" fill="#2B2B2B" transform="translate(132.026256, 83.970633) scale(-1, 1) rotate(-180.000000) translate(-132.026256, -83.970633) "></path>
            <path d="M5.71454194,84.1640781 C2.5718251,84.1640781 -4.48879643e-13,82.749221 -4.48879643e-13,81.0198223 L-4.48879643e-13,3.14425606 C-4.48879643e-13,1.4148572 2.5718251,2.11237479e-13 5.71454194,2.11237479e-13 L150.202882,2.11237479e-13 C153.345599,2.11237479e-13 155.916721,1.4148572 155.916721,3.14425606 L155.916721,81.0198223 C155.916721,82.749221 153.345599,84.1640781 150.202882,84.1640781 L5.71454194,84.1640781 Z" id="Fill-48" fill="#444444"></path>
            <rect id="Rectangle" fill="#C1C1C1" x="0" y="56.0829498" width="156.077419" height="5.57419355"></rect>
            <path d="M68.1188313,36.3636885 C71.3231654,23.7900276 68.8822081,16.7024288 77.3516157,20.5625864 C81.9969968,22.6813037 87.5528005,27.9304121 87.8594956,33.3900059 C88.2855078,40.9120195 64.9287816,48.8806318 68.1188313,36.3636885 Z" id="Clip-14" fill="#C1C1C1"></path>
            <path d="M76.2500339,34.8121471 C75.4454843,34.8121471 75.0001461,33.9857508 75.0001461,33.1475907 C75.0001461,32.310271 75.4454843,31.5065616 76.2500339,31.5065616 C77.0524828,31.5065616 77.4965606,32.310271 77.4965606,33.1475907 C77.4965606,33.9857508 77.0524828,34.8121471 76.2500339,34.8121471 Z M76.2500339,30.0277028 C74.4955696,30.0277028 73.3284475,31.4162336 73.3284475,33.1572537 C73.3284475,34.9003745 74.4955696,36.2876449 76.2500339,36.2876449 C78.0002969,36.2876449 79.1661586,34.9003745 79.1661586,33.1572537 C79.1661586,31.4162336 78.0002969,30.0277028 76.2500339,30.0277028 Z M81.0092704,30.0310639 C80.4206678,30.0310639 79.9408789,31.4326187 79.9408789,33.1606148 C79.9408789,34.8894511 80.4206678,36.2897456 81.0092704,36.2897456 C81.5987133,36.2897456 82.0764015,34.8894511 82.0764015,33.1606148 C82.0764015,31.4326187 81.5987133,30.0310639 81.0092704,30.0310639 Z M80.9958262,29.2550831 C81.5760262,29.2550831 82.0436313,28.7849572 82.0436313,28.2055975 C82.0436313,27.6279183 81.5760262,27.1586327 80.9958262,27.1586327 C80.418147,27.1586327 79.9497017,27.6279183 79.9497017,28.2055975 C79.9497017,28.7849572 80.418147,29.2550831 80.9958262,29.2550831 L80.9958262,29.2550831 Z" id="Fill-16" fill="#444444"></path>
        </g>
        <g id="Group-39" transform="translate(441.721195, 247.825707)">
            <g id="Group-3">
                <circle id="Oval-Copy-11" fill="url(#radialGradient-1)" cx="3.38347541" cy="3.38347541" r="3.38347541"></circle>
                <circle id="Oval-Copy-2" fill="#40FF00" cx="3.4364077" cy="3.33054311" r="1.38351443"></circle>
            </g>
            <g id="Group-3-Copy" transform="translate(8.750000, 0.000000)">
                <circle id="Oval-Copy-11" fill="url(#radialGradient-1)" cx="3.38347541" cy="3.38347541" r="3.38347541"></circle>
                <circle id="Oval-Copy-2" fill="#40FF00" cx="3.4364077" cy="3.33054311" r="1.38351443"></circle>
            </g>
            <g id="Group-3-Copy-2" transform="translate(17.500000, 0.000000)">
                <circle id="Oval-Copy-11" fill="url(#radialGradient-1)" cx="3.38347541" cy="3.38347541" r="3.38347541"></circle>
                <circle id="Oval-Copy-2" fill="#40FF00" cx="3.4364077" cy="3.33054311" r="1.38351443"></circle>
            </g>
            <g id="Group-3-Copy-3" transform="translate(35.000000, 0.000000)">
                <circle id="Oval-Copy-11" fill="url(#radialGradient-1)" cx="3.38347541" cy="3.38347541" r="3.38347541"></circle>
                <circle id="Oval-Copy-2" fill="#40FF00" cx="3.4364077" cy="3.33054311" r="1.38351443"></circle>
            </g>
            <g id="Group-3-Copy-4" transform="translate(43.750000, 0.000000)">
                <circle id="Oval-Copy-11" fill="url(#radialGradient-1)" cx="3.38347541" cy="3.38347541" r="3.38347541"></circle>
                <circle id="Oval-Copy-2" fill="#40FF00" cx="3.4364077" cy="3.33054311" r="1.38351443"></circle>
            </g>
            <g id="Group-3-Copy-5" transform="translate(70.000000, 0.000000)">
                <circle id="Oval-Copy-11" fill="url(#radialGradient-1)" cx="3.38347541" cy="3.38347541" r="3.38347541"></circle>
                <circle id="Oval-Copy-2" fill="#40FF00" cx="3.4364077" cy="3.33054311" r="1.38351443"></circle>
            </g>
            <g id="Group-3-Copy-6" transform="translate(113.750000, 0.000000)">
                <circle id="Oval-Copy-11" fill="url(#radialGradient-1)" cx="3.38347541" cy="3.38347541" r="3.38347541"></circle>
                <circle id="Oval-Copy-2" fill="#40FF00" cx="3.4364077" cy="3.33054311" r="1.38351443"></circle>
            </g>
            <g id="Group-3-Copy-7" transform="translate(131.250000, 0.000000)">
                <circle id="Oval-Copy-11" fill="url(#radialGradient-1)" cx="3.38347541" cy="3.38347541" r="3.38347541"></circle>
                <circle id="Oval-Copy-2" fill="#40FF00" cx="3.4364077" cy="3.33054311" r="1.38351443"></circle>
            </g>
        </g>
        <path d="M335.854078,183.704798 C328.934193,183.342142 332.681982,183.700088 322.954171,183.028743 C314.599693,182.452175 293.711044,180.828247 277.298201,180.636015 C220.974363,179.976331 214.732535,218.329012 214.732535,210.319046" id="Path-4-Copy-3" stroke="#000000" stroke-width="4.5" stroke-linejoin="round" transform="translate(275.293306, 196.023714) rotate(87.000000) translate(-275.293306, -196.023714) "></path>
        <path d="M409.534189,182.196055 C402.614303,181.801508 407.81389,175.878786 397.934199,176.396559 C389.390045,176.844339 367.398955,177.996843 350.978311,178.857413 C295.48364,181.765765 288.412646,219.865004 288.412646,211.150668" id="Path-4-Copy-6" stroke="#000000" stroke-width="4.5" stroke-linejoin="round" transform="translate(348.973417, 194.403828) scale(1, -1) rotate(-87.000000) translate(-348.973417, -194.403828) "></path>
        <g id="Group-Copy-2" transform="translate(235.069306, 232.972841)">
            <rect id="Rectangle-Copy-5" fill="#2B2B2B" x="121.35017" y="43.0364581" width="22.7054095" height="5.46278664" rx="2.73139332"></rect>
            <rect id="Rectangle-Copy-6" fill="#2B2B2B" x="24.6835756" y="43.0364581" width="22.7054095" height="5.46278664" rx="2.73139332"></rect>
            <rect id="Rectangle" fill="#444444" x="0" y="0" width="161.29833" height="45.7678515" rx="12.6"></rect>
            <ellipse id="Oval-Copy-2" fill="#40FF00" cx="22.1545077" cy="22.8839257" rx="2.52906789" ry="2.73139332"></ellipse>
            <ellipse id="Oval-Copy-6" fill="#40FF00" cx="44.6351111" cy="22.8839257" rx="2.52906789" ry="2.73139332"></ellipse>
            <ellipse id="Oval-Copy-7" fill="#40FF00" cx="67.1157146" cy="22.8839257" rx="2.52906789" ry="2.73139332"></ellipse>
            <ellipse id="Oval-Copy-8" fill="#40FF00" opacity="0.300000012" cx="89.596318" cy="22.8839257" rx="2.52906789" ry="2.73139332"></ellipse>
            <ellipse id="Oval-Copy-9" fill="#000000" opacity="0.544140637" cx="139.947066" cy="22.8839257" rx="4.10851339" ry="4.43719446"></ellipse>
        </g>
        <g transform="translate(343.973776, 59.550000)">
            <path d="M71.395696,94.6934323 L71.395696,83.4258169 L60.0201167,83.4258169 L48.6498893,83.4258169 L48.6498893,94.6934323 C48.6498893,97.3324323 46.4199082,100.725432 43.2979348,100.096802 L43.2979348,102.610432 L60.0201167,102.610432 L76.7476505,102.610432 L76.7476505,100.096802 C73.625677,100.725432 71.395696,97.3324323 71.395696,94.6934323" id="Fill-22" fill="#444444"></path>
            <g id="Group-26" transform="translate(0.177728, 0.440800)">
                <mask id="mask-3" fill="white">
                    <use xlink:href="#path-2"></use>
                </mask>
                <g id="Clip-25"></g>
                <path d="M4.89355961,85.2049 C2.40623875,85.2049 0.371158046,83.1691 0.371158046,80.6809 L0.371158046,4.52913077 C0.371158046,2.04093077 2.40623875,0.00513076923 4.89355961,0.00513076923 L114.935542,0.00513076923 C117.422863,0.00513076923 119.457944,2.04093077 119.457944,4.52913077 L119.457944,80.6809 C119.457944,83.1691 117.422863,85.2049 114.935542,85.2049 L4.89355961,85.2049 Z" id="Fill-24" fill="#444444" mask="url(#mask-3)"></path>
            </g>
            <path d="M0.482298625,66.9179015 L0.482298625,81.1216554 C0.482298625,83.6098554 2.51158138,85.6563631 4.99890224,85.6563631 L115.040885,85.6563631 C117.528206,85.6563631 119.563287,83.6098554 119.563287,81.1216554 L119.563287,66.9179015 L0.482298625,66.9179015 Z" id="Fill-27" fill="#D1DDE8"></path>
            <polygon id="Fill-29" fill="#6F7B84" points="6.57821942 60.6385538 113.605714 60.6385538 113.605714 6.10070769 6.57821942 6.10070769"></polygon>
            <polygon id="Fill-31" fill="#626E78" points="46.8798195 6.18016769 100.469386 60.6716138 113.319429 60.6716138 113.319429 6.10075231"></polygon>
            <path d="M62.5103365,76.2209231 C62.5103365,77.5397538 61.4417296,78.6087385 60.1233648,78.6087385 C58.805446,78.6087385 57.7368391,77.5397538 57.7368391,76.2209231 C57.7368391,74.9020923 58.805446,73.8331077 60.1233648,73.8331077 C61.4417296,73.8331077 62.5103365,74.9020923 62.5103365,76.2209231" id="Fill-32" fill="#495361"></path>
        </g>
        <g id="Group-2" transform="translate(28.745779, 182.568143)">
            <g id="Group-42">
                <g id="Group-Copy" transform="translate(0.417421, 0.459498)">
                    <path d="M14.1576111,83.8357145 L16.6107361,81.9255631 C17.3957693,81.3142888 18.5277003,81.4551482 19.1389746,82.2401814 C19.4729579,82.6691017 19.5954017,83.225899 19.4721743,83.7553633 L14.4928872,105.149586 C14.3462306,105.779717 14.0507467,106.365544 13.6311742,106.85802 L13.4327631,107.090906 C13.26256,107.290683 12.962632,107.314657 12.7628551,107.144454 C12.6568796,107.054167 12.5958277,106.921948 12.5958277,106.782726 L12.5958277,87.0312236 C12.5958277,85.7822143 13.1721245,84.603074 14.1576111,83.8357145 Z" id="Rectangle-Copy-2" fill="#929292" transform="translate(16.610736, 93.436288) rotate(49.000000) translate(-16.610736, -93.436288) "></path>
                    <path d="M134.538433,82.7023032 L136.991558,80.7921518 C137.776591,80.1808774 138.908522,80.3217368 139.519796,81.1067701 C139.853779,81.5356903 139.976223,82.0924877 139.852996,82.621952 L134.873709,104.016175 C134.727052,104.646306 134.431568,105.232133 134.011996,105.724609 L133.813585,105.957495 C133.643382,106.157272 133.343454,106.181246 133.143677,106.011043 C133.037701,105.920755 132.976649,105.788536 132.976649,105.649315 L132.976649,85.8978123 C132.976649,84.6488029 133.552946,83.4696627 134.538433,82.7023032 Z" id="Rectangle-Copy-3" fill="#929292" transform="translate(136.991558, 92.302877) scale(-1, 1) rotate(49.000000) translate(-136.991558, -92.302877) "></path>
                    <rect id="Rectangle" stroke="#979797" stroke-width="0.81" fill="#000000" x="0.405" y="0.405" width="153.817961" height="91.0890888" rx="4.05"></rect>
                    <rect id="Rectangle-Copy" fill="url(#linearGradient-4)" x="1.33794417" y="1.29071754" width="151.952073" height="89.3176537"></rect>
                </g>
                <path d="M73.8302229,31.9616141 L63.0162452,31.9616141 L63.0162452,64.5682273 L57.1426633,64.5682273 L57.1426633,31.9616141 L46.3286856,31.9616141 L46.3286856,26.1429256 L73.8302229,26.1429256 L73.8302229,31.9616141 Z M95.4581784,64.5682273 L89.4199168,64.5682273 L75.9710612,26.1429256 L82.0093229,26.1429256 L92.4390476,56.1146609 L102.868772,26.1429256 L108.907034,26.1429256 L95.4581784,64.5682273 Z" id="TV" fill="#FFFFFF" fill-rule="nonzero" opacity="0.300000012"></path>
            </g>
            <g id="Group" transform="translate(24.908864, 67.583794)">
                <rect id="Rectangle-Copy-5" fill="#2B2B2B" x="123.294727" y="28.76407" width="16.3895455" height="3.65113636" rx="1.82556818"></rect>
                <rect id="Rectangle-Copy-6" fill="#2B2B2B" x="17.8174538" y="28.76407" width="16.3895455" height="3.65113636" rx="1.82556818"></rect>
                <rect id="Rectangle" fill="#444444" x="0" y="0" width="153.347727" height="30.5896382" rx="15.2948191"></rect>
                <circle id="Oval-Copy-11" fill="url(#radialGradient-1)" cx="39.2412869" cy="15.3646641" r="4.4645469"></circle>
                <circle id="Oval-Copy-12" fill="url(#radialGradient-5)" opacity="0.800000012" cx="53.5099954" cy="15.3646641" r="4.4645469"></circle>
                <ellipse id="Oval" fill="#D8D8D8" opacity="0.200000003" cx="122.645636" cy="15.2948191" rx="10.5477273" ry="7.22989189"></ellipse>
                <line x1="111.805909" y1="9.90143318" x2="135.741136" y2="21.2605241" id="Line" stroke="#444444" stroke-width="0.9" stroke-linecap="square"></line>
                <line x1="111.805909" y1="20.4491605" x2="134.524091" y2="10.7127968" id="Line-Copy" stroke="#444444" stroke-width="0.9" stroke-linecap="square"></line>
                <ellipse id="Oval-Copy-5" fill="#D8D8D8" opacity="0.200000003" cx="99.3594992" cy="15.4889045" rx="3.65113636" ry="2.71806818"></ellipse>
                <ellipse id="Oval-Copy-10" fill="#444444" cx="122.645636" cy="15.4889045" rx="3.65113636" ry="2.71806818"></ellipse>
                <ellipse id="Oval-Copy" stroke="#40FF00" stroke-width="0.9" fill="#444444" cx="16.2849595" cy="15.0760979" rx="4.56764962" ry="3.13087475"></ellipse>
                <circle id="Oval-Copy-2" fill="#40FF00" cx="39.3111318" cy="15.2948191" r="1.82556818"></circle>
                <circle id="Oval-Copy-3" fill="#00A5FF" cx="53.5099954" cy="15.2948191" r="1.82556818"></circle>
                <circle id="Oval-Copy-4" fill="#FF0000" opacity="0.300000012" cx="68.1145409" cy="15.2948191" r="1.82556818"></circle>
            </g>
        </g>
        <path d="M246.442209,118.243432 L246.442209,106.975817 L235.06663,106.975817 L223.696403,106.975817 L223.696403,118.243432 C223.696403,120.882432 221.466422,124.275432 218.344448,123.646802 L218.344448,126.160432 L235.06663,126.160432 L251.794164,126.160432 L251.794164,123.646802 C248.67219,124.275432 246.442209,120.882432 246.442209,118.243432" id="Fill-22" fill="#222222"></path>
        <rect id="Rectangle" fill="#444444" x="208.626441" y="123.674694" width="52.5" height="16.8153846" rx="3"></rect>
        <path d="M85.0316142,307.918143 L85.0316142,294.439743 L89.0708142,294.439743 L89.0708142,292.798143 L79.3292142,292.798143 L79.3292142,294.439743 L83.3684142,294.439743 L83.3684142,307.918143 L85.0316142,307.918143 Z M96.9764142,307.918143 L101.836414,292.798143 L100.151614,292.798143 L96.0260142,305.606943 L91.9004142,292.798143 L90.2156142,292.798143 L95.0756142,307.918143 L96.9764142,307.918143 Z M110.390014,307.918143 L110.390014,301.092543 L117.323614,301.092543 L117.323614,299.450943 L110.390014,299.450943 L110.390014,294.439743 L117.323614,294.439743 L117.323614,292.798143 L108.726814,292.798143 L108.726814,307.918143 L110.390014,307.918143 Z M121.730014,294.893343 L121.730014,292.798143 L120.110014,292.798143 L120.110014,294.893343 L121.730014,294.893343 Z M121.730014,307.918143 L121.730014,296.772543 L120.110014,296.772543 L120.110014,307.918143 L121.730014,307.918143 Z M129.333214,308.134143 C130.370014,308.134143 131.356414,307.813743 132.292414,307.172943 C133.228414,306.532143 133.696414,305.398143 133.696414,303.770943 L133.696414,300.833343 C133.696414,299.206143 133.228414,298.072143 132.292414,297.431343 C131.356414,296.790543 130.370014,296.470143 129.333214,296.470143 C128.829214,296.470143 128.314414,296.585343 127.788814,296.815743 C127.263214,297.046143 126.863614,297.384543 126.590014,297.830943 L126.590014,292.798143 L124.970014,292.798143 L124.970014,307.918143 L126.590014,307.918143 L126.590014,306.773343 C126.863614,307.219743 127.263214,307.558143 127.788814,307.788543 C128.314414,308.018943 128.829214,308.134143 129.333214,308.134143 Z M129.333214,306.578943 C128.613214,306.578943 127.976014,306.344943 127.421614,305.876943 C126.867214,305.408943 126.590014,304.714143 126.590014,303.792543 L126.590014,300.811743 C126.590014,299.890143 126.867214,299.195343 127.421614,298.727343 C127.976014,298.259343 128.613214,298.025343 129.333214,298.025343 C130.053214,298.025343 130.690414,298.259343 131.244814,298.727343 C131.799214,299.195343 132.076414,299.890143 132.076414,300.811743 L132.076414,303.792543 C132.076414,304.714143 131.799214,305.408943 131.244814,305.876943 C130.690414,306.344943 130.053214,306.578943 129.333214,306.578943 Z M138.254014,307.918143 L138.254014,300.919743 C138.254014,299.998143 138.531214,299.303343 139.085614,298.835343 C139.640014,298.367343 140.277214,298.133343 140.997214,298.133343 L141.710014,298.133343 L141.710014,296.578143 L140.997214,296.578143 C140.493214,296.578143 139.978414,296.693343 139.452814,296.923743 C138.927214,297.154143 138.527614,297.492543 138.254014,297.938943 L138.254014,296.772543 L136.634014,296.772543 L136.634014,307.918143 L138.254014,307.918143 Z M146.742814,308.134143 C147.491614,308.134143 148.168414,308.022543 148.773214,307.799343 C149.378014,307.576143 149.860414,307.234143 150.220414,306.773343 L150.220414,307.918143 L151.840414,307.918143 L151.840414,300.833343 C151.840414,299.206143 151.372414,298.072143 150.436414,297.431343 C149.500414,296.790543 148.514014,296.470143 147.477214,296.470143 C146.512414,296.470143 145.583614,296.743743 144.690814,297.290943 C143.798014,297.838143 143.279614,298.802943 143.135614,300.185343 L144.798814,300.185343 C144.928414,299.465343 145.248814,298.925343 145.760014,298.565343 C146.271214,298.205343 146.843614,298.025343 147.477214,298.025343 C148.197214,298.025343 148.834414,298.259343 149.388814,298.727343 C149.943214,299.195343 150.220414,299.890143 150.220414,300.811743 L150.220414,301.006143 C149.284414,301.063743 148.416814,301.135743 147.617614,301.222143 C146.818414,301.308543 146.102014,301.445343 145.468414,301.632543 C144.503614,301.906143 143.859214,302.366943 143.535214,303.014943 C143.211214,303.662943 143.049214,304.267743 143.049214,304.829343 C143.049214,305.966943 143.427214,306.802143 144.183214,307.334943 C144.939214,307.867743 145.792414,308.134143 146.742814,308.134143 Z M147.088414,306.578943 C146.267614,306.578943 145.659214,306.406143 145.263214,306.060543 C144.867214,305.714943 144.669214,305.290143 144.669214,304.786143 C144.669214,304.469343 144.730414,304.181343 144.852814,303.922143 C144.975214,303.662943 145.238014,303.418143 145.641214,303.187743 C146.015614,302.986143 146.570014,302.834943 147.304414,302.734143 C148.038814,302.633343 149.010814,302.539743 150.220414,302.453343 L150.220414,303.900543 C150.220414,304.764543 149.914414,305.426943 149.302414,305.887743 C148.690414,306.348543 147.952414,306.578943 147.088414,306.578943 Z" id="TVFibra" fill="#444444" fill-rule="nonzero"></path>
        <path d="M353.681376,46.716 C355.063776,46.716 356.197776,46.2984 357.083376,45.4632 C357.968976,44.628 358.454976,43.4832 358.541376,42.0288 L356.878176,42.0288 C356.791776,43.0224 356.446176,43.7784 355.841376,44.2968 C355.236576,44.8152 354.516576,45.0744 353.681376,45.0744 C352.788576,45.0744 352.028976,44.7792 351.402576,44.1888 C350.776176,43.5984 350.462976,42.7344 350.462976,41.5968 L350.462976,36.2832 C350.462976,35.1456 350.776176,34.2816 351.402576,33.6912 C352.028976,33.1008 352.788576,32.8056 353.681376,32.8056 C354.516576,32.8056 355.236576,33.0648 355.841376,33.5832 C356.446176,34.1016 356.791776,34.8576 356.878176,35.8512 L358.541376,35.8512 C358.454976,34.3968 357.968976,33.252 357.083376,32.4168 C356.197776,31.5816 355.063776,31.164 353.681376,31.164 C352.241376,31.164 351.067776,31.6212 350.160576,32.5356 C349.253376,33.45 348.799776,34.6992 348.799776,36.2832 L348.799776,41.5968 C348.799776,43.1808 349.253376,44.43 350.160576,45.3444 C351.067776,46.2588 352.241376,46.716 353.681376,46.716 Z M365.280576,46.716 C366.317376,46.716 367.303776,46.3956 368.239776,45.7548 C369.175776,45.114 369.643776,43.98 369.643776,42.3528 L369.643776,39.4152 C369.643776,37.788 369.175776,36.654 368.239776,36.0132 C367.303776,35.3724 366.317376,35.052 365.280576,35.052 C364.243776,35.052 363.257376,35.3724 362.321376,36.0132 C361.385376,36.654 360.917376,37.788 360.917376,39.4152 L360.917376,42.3528 C360.917376,43.98 361.385376,45.114 362.321376,45.7548 C363.257376,46.3956 364.243776,46.716 365.280576,46.716 Z M365.280576,45.1608 C364.560576,45.1608 363.923376,44.9268 363.368976,44.4588 C362.814576,43.9908 362.537376,43.296 362.537376,42.3744 L362.537376,39.3936 C362.537376,38.472 362.814576,37.7772 363.368976,37.3092 C363.923376,36.8412 364.560576,36.6072 365.280576,36.6072 C366.000576,36.6072 366.637776,36.8412 367.192176,37.3092 C367.746576,37.7772 368.023776,38.472 368.023776,39.3936 L368.023776,42.3744 C368.023776,43.296 367.746576,43.9908 367.192176,44.4588 C366.637776,44.9268 366.000576,45.1608 365.280576,45.1608 Z M374.201376,46.5 L374.201376,39.3936 C374.201376,38.5008 374.467776,37.8132 375.000576,37.3308 C375.533376,36.8484 376.130976,36.6072 376.793376,36.6072 C377.426976,36.6072 378.013776,36.8448 378.553776,37.32 C379.093776,37.7952 379.363776,38.4432 379.363776,39.264 L379.363776,46.5 L380.983776,46.5 L380.983776,39.3936 C380.983776,38.5008 381.250176,37.8132 381.782976,37.3308 C382.315776,36.8484 382.913376,36.6072 383.575776,36.6072 C384.209376,36.6072 384.796176,36.8448 385.336176,37.32 C385.876176,37.7952 386.146176,38.4432 386.146176,39.264 L386.146176,46.5 L387.766176,46.5 L387.766176,39.4152 C387.766176,37.8456 387.312576,36.726 386.405376,36.0564 C385.498176,35.3868 384.547776,35.052 383.554176,35.052 C382.934976,35.052 382.308576,35.1888 381.674976,35.4624 C381.041376,35.736 380.537376,36.1824 380.162976,36.8016 C379.788576,36.1824 379.288176,35.736 378.661776,35.4624 C378.035376,35.1888 377.412576,35.052 376.793376,35.052 C376.390176,35.052 375.925776,35.1672 375.400176,35.3976 C374.874576,35.628 374.474976,35.9664 374.201376,36.4128 L374.201376,35.3544 L372.581376,35.3544 L372.581376,46.5 L374.201376,46.5 Z M392.474976,50.4744 L392.474976,45.3552 C392.748576,45.8016 393.148176,46.14 393.673776,46.3704 C394.199376,46.6008 394.714176,46.716 395.218176,46.716 C396.254976,46.716 397.241376,46.3956 398.177376,45.7548 C399.113376,45.114 399.581376,43.98 399.581376,42.3528 L399.581376,39.4152 C399.581376,37.788 399.113376,36.654 398.177376,36.0132 C397.241376,35.3724 396.254976,35.052 395.218176,35.052 C394.714176,35.052 394.199376,35.1672 393.673776,35.3976 C393.148176,35.628 392.748576,35.9664 392.474976,36.4128 L392.474976,35.3544 L390.854976,35.3544 L390.854976,50.4744 L392.474976,50.4744 Z M395.218176,45.1608 C394.498176,45.1608 393.860976,44.9268 393.306576,44.4588 C392.752176,43.9908 392.474976,43.296 392.474976,42.3744 L392.474976,39.3936 C392.474976,38.472 392.752176,37.7772 393.306576,37.3092 C393.860976,36.8412 394.498176,36.6072 395.218176,36.6072 C395.938176,36.6072 396.575376,36.8412 397.129776,37.3092 C397.684176,37.7772 397.961376,38.472 397.961376,39.3936 L397.961376,42.3744 C397.961376,43.296 397.684176,43.9908 397.129776,44.4588 C396.575376,44.9268 395.938176,45.1608 395.218176,45.1608 Z M406.666176,46.716 C407.141376,46.716 407.638176,46.6008 408.156576,46.3704 C408.674976,46.14 409.070976,45.8016 409.344576,45.3552 L409.344576,46.5 L410.964576,46.5 L410.964576,35.3544 L409.344576,35.3544 L409.344576,42.3744 C409.344576,43.2816 409.067376,43.9728 408.512976,44.448 C407.958576,44.9232 407.342976,45.1608 406.666176,45.1608 C406.003776,45.1608 405.391776,44.934 404.830176,44.4804 C404.268576,44.0268 403.987776,43.3032 403.987776,42.3096 L403.987776,35.3544 L402.367776,35.3544 L402.367776,42.4176 C402.367776,44.0592 402.857376,45.186 403.836576,45.798 C404.815776,46.41 405.758976,46.716 406.666176,46.716 Z M419.086176,46.5 L419.086176,44.9448 L417.379776,44.9448 C416.990976,44.9448 416.720976,44.8728 416.569776,44.7288 C416.418576,44.5848 416.342976,44.3328 416.342976,43.9728 L416.342976,43.9728 L416.342976,36.9096 L419.086176,36.9096 L419.086176,35.3544 L416.342976,35.3544 L416.342976,32.8272 L414.722976,32.8272 L414.722976,35.3544 L413.146176,35.3544 L413.146176,36.9096 L414.722976,36.9096 L414.722976,43.8432 C414.722976,44.7936 414.906576,45.474 415.273776,45.8844 C415.640976,46.2948 416.342976,46.5 417.379776,46.5 L417.379776,46.5 L419.086176,46.5 Z M424.766976,46.716 C425.515776,46.716 426.192576,46.6044 426.797376,46.3812 C427.402176,46.158 427.884576,45.816 428.244576,45.3552 L428.244576,46.5 L429.864576,46.5 L429.864576,39.4152 C429.864576,37.788 429.396576,36.654 428.460576,36.0132 C427.524576,35.3724 426.538176,35.052 425.501376,35.052 C424.536576,35.052 423.607776,35.3256 422.714976,35.8728 C421.822176,36.42 421.303776,37.3848 421.159776,38.7672 L422.822976,38.7672 C422.952576,38.0472 423.272976,37.5072 423.784176,37.1472 C424.295376,36.7872 424.867776,36.6072 425.501376,36.6072 C426.221376,36.6072 426.858576,36.8412 427.412976,37.3092 C427.967376,37.7772 428.244576,38.472 428.244576,39.3936 L428.244576,39.588 C427.308576,39.6456 426.440976,39.7176 425.641776,39.804 C424.842576,39.8904 424.126176,40.0272 423.492576,40.2144 C422.527776,40.488 421.883376,40.9488 421.559376,41.5968 C421.235376,42.2448 421.073376,42.8496 421.073376,43.4112 C421.073376,44.5488 421.451376,45.384 422.207376,45.9168 C422.963376,46.4496 423.816576,46.716 424.766976,46.716 Z M425.112576,45.1608 C424.291776,45.1608 423.683376,44.988 423.287376,44.6424 C422.891376,44.2968 422.693376,43.872 422.693376,43.368 C422.693376,43.0512 422.754576,42.7632 422.876976,42.504 C422.999376,42.2448 423.262176,42 423.665376,41.7696 C424.039776,41.568 424.594176,41.4168 425.328576,41.316 C426.062976,41.2152 427.034976,41.1216 428.244576,41.0352 L428.244576,42.4824 C428.244576,43.3464 427.938576,44.0088 427.326576,44.4696 C426.714576,44.9304 425.976576,45.1608 425.112576,45.1608 Z M437.014176,46.716 C437.518176,46.716 438.032976,46.6008 438.558576,46.3704 C439.084176,46.14 439.483776,45.8016 439.757376,45.3552 L439.757376,45.3552 L439.757376,46.5 L441.377376,46.5 L441.377376,31.38 L439.757376,31.38 L439.757376,36.4128 C439.483776,35.9664 439.084176,35.628 438.558576,35.3976 C438.032976,35.1672 437.518176,35.052 437.014176,35.052 C435.977376,35.052 434.990976,35.3724 434.054976,36.0132 C433.118976,36.654 432.650976,37.788 432.650976,39.4152 L432.650976,39.4152 L432.650976,42.3528 C432.650976,43.98 433.118976,45.114 434.054976,45.7548 C434.990976,46.3956 435.977376,46.716 437.014176,46.716 Z M437.014176,45.1608 C436.294176,45.1608 435.656976,44.9268 435.102576,44.4588 C434.548176,43.9908 434.270976,43.296 434.270976,42.3744 L434.270976,42.3744 L434.270976,39.3936 C434.270976,38.472 434.548176,37.7772 435.102576,37.3092 C435.656976,36.8412 436.294176,36.6072 437.014176,36.6072 C437.734176,36.6072 438.371376,36.8412 438.925776,37.3092 C439.480176,37.7772 439.757376,38.472 439.757376,39.3936 L439.757376,39.3936 L439.757376,42.3744 C439.757376,43.296 439.480176,43.9908 438.925776,44.4588 C438.371376,44.9268 437.734176,45.1608 437.014176,45.1608 Z M448.678176,46.716 C449.714976,46.716 450.701376,46.3956 451.637376,45.7548 C452.573376,45.114 453.041376,43.98 453.041376,42.3528 L453.041376,39.4152 C453.041376,37.788 452.573376,36.654 451.637376,36.0132 C450.701376,35.3724 449.714976,35.052 448.678176,35.052 C447.641376,35.052 446.654976,35.3724 445.718976,36.0132 C444.782976,36.654 444.314976,37.788 444.314976,39.4152 L444.314976,42.3528 C444.314976,43.98 444.782976,45.114 445.718976,45.7548 C446.654976,46.3956 447.641376,46.716 448.678176,46.716 Z M448.678176,45.1608 C447.958176,45.1608 447.320976,44.9268 446.766576,44.4588 C446.212176,43.9908 445.934976,43.296 445.934976,42.3744 L445.934976,39.3936 C445.934976,38.472 446.212176,37.7772 446.766576,37.3092 C447.320976,36.8412 447.958176,36.6072 448.678176,36.6072 C449.398176,36.6072 450.035376,36.8412 450.589776,37.3092 C451.144176,37.7772 451.421376,38.472 451.421376,39.3936 L451.421376,42.3744 C451.421376,43.296 451.144176,43.9908 450.589776,44.4588 C450.035376,44.9268 449.398176,45.1608 448.678176,45.1608 Z M457.598976,46.5 L457.598976,39.5016 C457.598976,38.58 457.876176,37.8852 458.430576,37.4172 C458.984976,36.9492 459.622176,36.7152 460.342176,36.7152 L461.054976,36.7152 L461.054976,35.16 L460.342176,35.16 C459.838176,35.16 459.323376,35.2752 458.797776,35.5056 C458.272176,35.736 457.872576,36.0744 457.598976,36.5208 L457.598976,35.3544 L455.978976,35.3544 L455.978976,46.5 L457.598976,46.5 Z" id="Computador" fill="#444444" fill-rule="nonzero"></path>
        <path d="M203.39129,46.716 C204.77369,46.716 205.90769,46.2984 206.79329,45.4632 C207.67889,44.628 208.16489,43.4832 208.25129,42.0288 L206.58809,42.0288 C206.50169,43.0224 206.15609,43.7784 205.55129,44.2968 C204.94649,44.8152 204.22649,45.0744 203.39129,45.0744 C202.49849,45.0744 201.73889,44.7792 201.11249,44.1888 C200.48609,43.5984 200.17289,42.7344 200.17289,41.5968 L200.17289,36.2832 C200.17289,35.1456 200.48609,34.2816 201.11249,33.6912 C201.73889,33.1008 202.49849,32.8056 203.39129,32.8056 C204.22649,32.8056 204.94649,33.0648 205.55129,33.5832 C206.15609,34.1016 206.50169,34.8576 206.58809,35.8512 L208.25129,35.8512 C208.16489,34.3968 207.67889,33.252 206.79329,32.4168 C205.90769,31.5816 204.77369,31.164 203.39129,31.164 C201.95129,31.164 200.77769,31.6212 199.87049,32.5356 C198.96329,33.45 198.50969,34.6992 198.50969,36.2832 L198.50969,41.5968 C198.50969,43.1808 198.96329,44.43 199.87049,45.3444 C200.77769,46.2588 201.95129,46.716 203.39129,46.716 Z M213.43529,34.1664 L214.92569,32.6328 L216.41609,34.1664 L218.33849,34.1664 L215.63849,31.38 L214.21289,31.38 L211.51289,34.1664 L213.43529,34.1664 Z M214.12649,46.716 C214.87529,46.716 215.55209,46.6044 216.15689,46.3812 C216.76169,46.158 217.24409,45.816 217.60409,45.3552 L217.60409,46.5 L219.22409,46.5 L219.22409,39.4152 C219.22409,37.788 218.75609,36.654 217.82009,36.0132 C216.88409,35.3724 215.89769,35.052 214.86089,35.052 C213.89609,35.052 212.96729,35.3256 212.07449,35.8728 C211.18169,36.42 210.66329,37.3848 210.51929,38.7672 L212.18249,38.7672 C212.31209,38.0472 212.63249,37.5072 213.14369,37.1472 C213.65489,36.7872 214.22729,36.6072 214.86089,36.6072 C215.58089,36.6072 216.21809,36.8412 216.77249,37.3092 C217.32689,37.7772 217.60409,38.472 217.60409,39.3936 L217.60409,39.588 C216.66809,39.6456 215.80049,39.7176 215.00129,39.804 C214.20209,39.8904 213.48569,40.0272 212.85209,40.2144 C211.88729,40.488 211.24289,40.9488 210.91889,41.5968 C210.59489,42.2448 210.43289,42.8496 210.43289,43.4112 C210.43289,44.5488 210.81089,45.384 211.56689,45.9168 C212.32289,46.4496 213.17609,46.716 214.12649,46.716 Z M214.47209,45.1608 C213.65129,45.1608 213.04289,44.988 212.64689,44.6424 C212.25089,44.2968 212.05289,43.872 212.05289,43.368 C212.05289,43.0512 212.11409,42.7632 212.23649,42.504 C212.35889,42.2448 212.62169,42 213.02489,41.7696 C213.39929,41.568 213.95369,41.4168 214.68809,41.316 C215.42249,41.2152 216.39449,41.1216 217.60409,41.0352 L217.60409,42.4824 C217.60409,43.3464 217.29809,44.0088 216.68609,44.4696 C216.07409,44.9304 215.33609,45.1608 214.47209,45.1608 Z M223.93289,46.5 L223.93289,39.3936 C223.93289,38.5008 224.19929,37.8132 224.73209,37.3308 C225.26489,36.8484 225.86249,36.6072 226.52489,36.6072 C227.15849,36.6072 227.74529,36.8448 228.28529,37.32 C228.82529,37.7952 229.09529,38.4432 229.09529,39.264 L229.09529,46.5 L230.71529,46.5 L230.71529,39.3936 C230.71529,38.5008 230.98169,37.8132 231.51449,37.3308 C232.04729,36.8484 232.64489,36.6072 233.30729,36.6072 C233.94089,36.6072 234.52769,36.8448 235.06769,37.32 C235.60769,37.7952 235.87769,38.4432 235.87769,39.264 L235.87769,46.5 L237.49769,46.5 L237.49769,39.4152 C237.49769,37.8456 237.04409,36.726 236.13689,36.0564 C235.22969,35.3868 234.27929,35.052 233.28569,35.052 C232.66649,35.052 232.04009,35.1888 231.40649,35.4624 C230.77289,35.736 230.26889,36.1824 229.89449,36.8016 C229.52009,36.1824 229.01969,35.736 228.39329,35.4624 C227.76689,35.1888 227.14409,35.052 226.52489,35.052 C226.12169,35.052 225.65729,35.1672 225.13169,35.3976 C224.60609,35.628 224.20649,35.9664 223.93289,36.4128 L223.93289,35.3544 L222.31289,35.3544 L222.31289,46.5 L223.93289,46.5 Z M244.64729,46.716 C245.61209,46.716 246.54089,46.4424 247.43369,45.8952 C248.32649,45.348 248.84489,44.3832 248.98889,43.0008 L247.32569,43.0008 C247.19609,43.7208 246.87569,44.2608 246.36449,44.6208 C245.85329,44.9808 245.28089,45.1608 244.64729,45.1608 C243.92729,45.1608 243.29009,44.9268 242.73569,44.4588 C242.18129,43.9908 241.90409,43.296 241.90409,42.3744 L241.90409,41.2944 L249.01049,41.2944 L249.01049,39.4152 C249.01049,37.788 248.54249,36.654 247.60649,36.0132 C246.67049,35.3724 245.68409,35.052 244.64729,35.052 C243.61049,35.052 242.62409,35.3724 241.68809,36.0132 C240.75209,36.654 240.28409,37.788 240.28409,39.4152 L240.28409,42.3528 C240.28409,43.98 240.75209,45.114 241.68809,45.7548 C242.62409,46.3956 243.61049,46.716 244.64729,46.716 Z M247.39049,39.804 L241.90409,39.804 L241.90409,39.3936 C241.90409,38.472 242.18129,37.7772 242.73569,37.3092 C243.29009,36.8412 243.92729,36.6072 244.64729,36.6072 C245.36729,36.6072 246.00449,36.8412 246.55889,37.3092 C247.11329,37.7772 247.39049,38.472 247.39049,39.3936 L247.39049,39.804 Z M253.46009,46.5 L253.46009,39.5016 C253.46009,38.58 253.73729,37.8852 254.29169,37.4172 C254.84609,36.9492 255.48329,36.7152 256.20329,36.7152 L256.91609,36.7152 L256.91609,35.16 L256.20329,35.16 C255.69929,35.16 255.18449,35.2752 254.65889,35.5056 C254.13329,35.736 253.73369,36.0744 253.46009,36.5208 L253.46009,35.3544 L251.84009,35.3544 L251.84009,46.5 L253.46009,46.5 Z M261.94889,46.716 C262.69769,46.716 263.37449,46.6044 263.97929,46.3812 C264.58409,46.158 265.06649,45.816 265.42649,45.3552 L265.42649,46.5 L267.04649,46.5 L267.04649,39.4152 C267.04649,37.788 266.57849,36.654 265.64249,36.0132 C264.70649,35.3724 263.72009,35.052 262.68329,35.052 C261.71849,35.052 260.78969,35.3256 259.89689,35.8728 C259.00409,36.42 258.48569,37.3848 258.34169,38.7672 L260.00489,38.7672 C260.13449,38.0472 260.45489,37.5072 260.96609,37.1472 C261.47729,36.7872 262.04969,36.6072 262.68329,36.6072 C263.40329,36.6072 264.04049,36.8412 264.59489,37.3092 C265.14929,37.7772 265.42649,38.472 265.42649,39.3936 L265.42649,39.588 C264.49049,39.6456 263.62289,39.7176 262.82369,39.804 C262.02449,39.8904 261.30809,40.0272 260.67449,40.2144 C259.70969,40.488 259.06529,40.9488 258.74129,41.5968 C258.41729,42.2448 258.25529,42.8496 258.25529,43.4112 C258.25529,44.5488 258.63329,45.384 259.38929,45.9168 C260.14529,46.4496 260.99849,46.716 261.94889,46.716 Z M262.29449,45.1608 C261.47369,45.1608 260.86529,44.988 260.46929,44.6424 C260.07329,44.2968 259.87529,43.872 259.87529,43.368 C259.87529,43.0512 259.93649,42.7632 260.05889,42.504 C260.18129,42.2448 260.44409,42 260.84729,41.7696 C261.22169,41.568 261.77609,41.4168 262.51049,41.316 C263.24489,41.2152 264.21689,41.1216 265.42649,41.0352 L265.42649,42.4824 C265.42649,43.3464 265.12049,44.0088 264.50849,44.4696 C263.89649,44.9304 263.15849,45.1608 262.29449,45.1608 Z" id="Câmera" fill="#444444" fill-rule="nonzero"></path>
        <path d="M263.331487,305.874012 C264.829087,305.874012 265.966687,305.503212 266.744287,304.761612 C267.521887,304.020012 267.910687,303.044412 267.910687,301.834812 C267.910687,300.639612 267.590287,299.696412 266.949487,299.005212 C266.308687,298.314012 265.455487,297.817212 264.389887,297.514812 L262.618687,297.018012 C261.841087,296.802012 261.272287,296.474412 260.912287,296.035212 C260.552287,295.596012 260.372287,295.030812 260.372287,294.339612 C260.372287,293.677212 260.609887,293.115612 261.085087,292.654812 C261.560287,292.194012 262.251487,291.963612 263.158687,291.963612 C263.965087,291.963612 264.602287,292.183212 265.070287,292.622412 C265.538287,293.061612 265.851487,293.641212 266.009887,294.361212 L267.716287,294.361212 C267.557887,293.079612 267.082687,292.086012 266.290687,291.380412 C265.498687,290.674812 264.454687,290.322012 263.158687,290.322012 C261.949087,290.322012 260.901487,290.667612 260.015887,291.358812 C259.130287,292.050012 258.687487,293.043612 258.687487,294.339612 C258.687487,295.246812 258.935887,296.110812 259.432687,296.931612 C259.929487,297.752412 260.739487,298.321212 261.862687,298.638012 L263.785087,299.178012 C264.634687,299.408412 265.253887,299.739612 265.642687,300.171612 C266.031487,300.603612 266.225887,301.158012 266.225887,301.834812 C266.225887,302.626812 265.955887,303.224412 265.415887,303.627612 C264.875887,304.030812 264.181087,304.232412 263.331487,304.232412 C262.525087,304.232412 261.823087,303.966012 261.225487,303.433212 C260.627887,302.900412 260.264287,302.151612 260.134687,301.186812 L258.428287,301.186812 C258.529087,302.626812 259.029487,303.768012 259.929487,304.610412 C260.829487,305.452812 261.963487,305.874012 263.331487,305.874012 Z M273.721087,305.658012 L276.205087,296.910012 L278.689087,305.658012 L280.373887,305.658012 L283.311487,294.512412 L281.626687,294.512412 L279.466687,303.195612 L277.004287,294.512412 L275.405887,294.512412 L272.943487,303.195612 L270.783487,294.512412 L269.098687,294.512412 L272.036287,305.658012 L273.721087,305.658012 Z M286.832287,292.633212 L286.832287,290.538012 L285.212287,290.538012 L285.212287,292.633212 L286.832287,292.633212 Z M286.832287,305.658012 L286.832287,294.512412 L285.212287,294.512412 L285.212287,305.658012 L286.832287,305.658012 Z M294.953887,305.658012 L294.953887,304.102812 L293.247487,304.102812 C292.858687,304.102812 292.588687,304.030812 292.437487,303.886812 C292.286287,303.742812 292.210687,303.490812 292.210687,303.130812 L292.210687,303.130812 L292.210687,296.067612 L294.953887,296.067612 L294.953887,294.512412 L292.210687,294.512412 L292.210687,291.985212 L290.590687,291.985212 L290.590687,294.512412 L289.013887,294.512412 L289.013887,296.067612 L290.590687,296.067612 L290.590687,303.001212 C290.590687,303.951612 290.774287,304.632012 291.141487,305.042412 C291.508687,305.452812 292.210687,305.658012 293.247487,305.658012 L293.247487,305.658012 L294.953887,305.658012 Z M301.498687,305.874012 C302.477887,305.874012 303.417487,305.593212 304.317487,305.031612 C305.217487,304.470012 305.725087,303.476412 305.840287,302.050812 L304.198687,302.050812 C304.097887,302.799612 303.784687,303.364812 303.259087,303.746412 C302.733487,304.128012 302.146687,304.318812 301.498687,304.318812 C300.778687,304.318812 300.141487,304.084812 299.587087,303.616812 C299.032687,303.148812 298.755487,302.454012 298.755487,301.532412 L298.755487,298.551612 C298.755487,297.630012 299.032687,296.935212 299.587087,296.467212 C300.141487,295.999212 300.778687,295.765212 301.498687,295.765212 C302.146687,295.765212 302.733487,295.956012 303.259087,296.337612 C303.784687,296.719212 304.097887,297.284412 304.198687,298.033212 L305.840287,298.033212 C305.725087,296.607612 305.217487,295.614012 304.317487,295.052412 C303.417487,294.490812 302.477887,294.210012 301.498687,294.210012 C300.461887,294.210012 299.475487,294.530412 298.539487,295.171212 C297.603487,295.812012 297.135487,296.946012 297.135487,298.573212 L297.135487,301.510812 C297.135487,303.152412 297.603487,304.290012 298.539487,304.923612 C299.475487,305.557212 300.461887,305.874012 301.498687,305.874012 Z M310.181887,305.658012 L310.181887,298.551612 C310.181887,297.630012 310.459087,296.935212 311.013487,296.467212 C311.567887,295.999212 312.205087,295.765212 312.925087,295.765212 C313.645087,295.765212 314.282287,295.999212 314.836687,296.467212 C315.391087,296.935212 315.668287,297.630012 315.668287,298.551612 L315.668287,305.658012 L317.288287,305.658012 L317.288287,298.573212 C317.288287,296.946012 316.820287,295.812012 315.884287,295.171212 C314.948287,294.530412 313.961887,294.210012 312.925087,294.210012 C312.421087,294.210012 311.906287,294.325212 311.380687,294.555612 C310.855087,294.786012 310.455487,295.124412 310.181887,295.570812 L310.181887,290.538012 L308.561887,290.538012 L308.561887,305.658012 L310.181887,305.658012 Z M329.297887,305.874012 C330.334687,305.874012 331.321087,305.553612 332.257087,304.912812 C333.193087,304.272012 333.661087,303.138012 333.661087,301.510812 L333.661087,298.573212 C333.661087,296.946012 333.193087,295.812012 332.257087,295.171212 C331.321087,294.530412 330.334687,294.210012 329.297887,294.210012 C328.261087,294.210012 327.274687,294.530412 326.338687,295.171212 C325.402687,295.812012 324.934687,296.946012 324.934687,298.573212 L324.934687,301.510812 C324.934687,303.138012 325.402687,304.272012 326.338687,304.912812 C327.274687,305.553612 328.261087,305.874012 329.297887,305.874012 Z M329.297887,304.318812 C328.577887,304.318812 327.940687,304.084812 327.386287,303.616812 C326.831887,303.148812 326.554687,302.454012 326.554687,301.532412 L326.554687,298.551612 C326.554687,297.630012 326.831887,296.935212 327.386287,296.467212 C327.940687,295.999212 328.577887,295.765212 329.297887,295.765212 C330.017887,295.765212 330.655087,295.999212 331.209487,296.467212 C331.763887,296.935212 332.041087,297.630012 332.041087,298.551612 L332.041087,301.532412 C332.041087,302.454012 331.763887,303.148812 331.209487,303.616812 C330.655087,304.084812 330.017887,304.318812 329.297887,304.318812 Z M340.745887,305.874012 C341.221087,305.874012 341.717887,305.758812 342.236287,305.528412 C342.754687,305.298012 343.150687,304.959612 343.424287,304.513212 L343.424287,305.658012 L345.044287,305.658012 L345.044287,294.512412 L343.424287,294.512412 L343.424287,301.532412 C343.424287,302.439612 343.147087,303.130812 342.592687,303.606012 C342.038287,304.081212 341.422687,304.318812 340.745887,304.318812 C340.083487,304.318812 339.471487,304.092012 338.909887,303.638412 C338.348287,303.184812 338.067487,302.461212 338.067487,301.467612 L338.067487,294.512412 L336.447487,294.512412 L336.447487,301.575612 C336.447487,303.217212 336.937087,304.344012 337.916287,304.956012 C338.895487,305.568012 339.838687,305.874012 340.745887,305.874012 Z M354.915487,305.658012 L354.915487,298.832412 L361.352287,298.832412 L361.352287,305.658012 L363.015487,305.658012 L363.015487,290.538012 L361.352287,290.538012 L361.352287,297.190812 L354.915487,297.190812 L354.915487,290.538012 L353.252287,290.538012 L353.252287,305.658012 L354.915487,305.658012 Z M370.510687,305.874012 C370.985887,305.874012 371.482687,305.758812 372.001087,305.528412 C372.519487,305.298012 372.915487,304.959612 373.189087,304.513212 L373.189087,305.658012 L374.809087,305.658012 L374.809087,294.512412 L373.189087,294.512412 L373.189087,301.532412 C373.189087,302.439612 372.911887,303.130812 372.357487,303.606012 C371.803087,304.081212 371.187487,304.318812 370.510687,304.318812 C369.848287,304.318812 369.236287,304.092012 368.674687,303.638412 C368.113087,303.184812 367.832287,302.461212 367.832287,301.467612 L367.832287,294.512412 L366.212287,294.512412 L366.212287,301.575612 C366.212287,303.217212 366.701887,304.344012 367.681087,304.956012 C368.660287,305.568012 369.603487,305.874012 370.510687,305.874012 Z M382.412287,305.874012 C383.449087,305.874012 384.435487,305.553612 385.371487,304.912812 C386.307487,304.272012 386.775487,303.138012 386.775487,301.510812 L386.775487,298.573212 C386.775487,296.946012 386.307487,295.812012 385.371487,295.171212 C384.435487,294.530412 383.449087,294.210012 382.412287,294.210012 C381.908287,294.210012 381.393487,294.325212 380.867887,294.555612 C380.342287,294.786012 379.942687,295.124412 379.669087,295.570812 L379.669087,290.538012 L378.049087,290.538012 L378.049087,305.658012 L379.669087,305.658012 L379.669087,304.513212 C379.942687,304.959612 380.342287,305.298012 380.867887,305.528412 C381.393487,305.758812 381.908287,305.874012 382.412287,305.874012 Z M382.412287,304.318812 C381.692287,304.318812 381.055087,304.084812 380.500687,303.616812 C379.946287,303.148812 379.669087,302.454012 379.669087,301.532412 L379.669087,298.551612 C379.669087,297.630012 379.946287,296.935212 380.500687,296.467212 C381.055087,295.999212 381.692287,295.765212 382.412287,295.765212 C383.132287,295.765212 383.769487,295.999212 384.323887,296.467212 C384.878287,296.935212 385.155487,297.630012 385.155487,298.551612 L385.155487,301.532412 C385.155487,302.454012 384.878287,303.148812 384.323887,303.616812 C383.769487,304.084812 383.132287,304.318812 382.412287,304.318812 Z" id="SwitchouHub" fill="#444444" fill-rule="nonzero"></path>
        <path d="M439.362795,305.658012 L439.362795,294.037212 L442.969995,301.597212 L444.525195,301.597212 L448.132395,294.037212 L448.132395,305.658012 L449.773995,305.658012 L449.773995,290.538012 L448.110795,290.538012 L443.747595,299.696412 L439.384395,290.538012 L437.721195,290.538012 L437.721195,305.658012 L439.362795,305.658012 Z M457.182795,305.874012 C458.219595,305.874012 459.205995,305.553612 460.141995,304.912812 C461.077995,304.272012 461.545995,303.138012 461.545995,301.510812 L461.545995,298.573212 C461.545995,296.946012 461.077995,295.812012 460.141995,295.171212 C459.205995,294.530412 458.219595,294.210012 457.182795,294.210012 C456.145995,294.210012 455.159595,294.530412 454.223595,295.171212 C453.287595,295.812012 452.819595,296.946012 452.819595,298.573212 L452.819595,301.510812 C452.819595,303.138012 453.287595,304.272012 454.223595,304.912812 C455.159595,305.553612 456.145995,305.874012 457.182795,305.874012 Z M457.182795,304.318812 C456.462795,304.318812 455.825595,304.084812 455.271195,303.616812 C454.716795,303.148812 454.439595,302.454012 454.439595,301.532412 L454.439595,298.551612 C454.439595,297.630012 454.716795,296.935212 455.271195,296.467212 C455.825595,295.999212 456.462795,295.765212 457.182795,295.765212 C457.902795,295.765212 458.539995,295.999212 459.094395,296.467212 C459.648795,296.935212 459.925995,297.630012 459.925995,298.551612 L459.925995,301.532412 C459.925995,302.454012 459.648795,303.148812 459.094395,303.616812 C458.539995,304.084812 457.902795,304.318812 457.182795,304.318812 Z M468.544395,305.874012 C469.048395,305.874012 469.563195,305.758812 470.088795,305.528412 C470.614395,305.298012 471.013995,304.959612 471.287595,304.513212 L471.287595,304.513212 L471.287595,305.658012 L472.907595,305.658012 L472.907595,290.538012 L471.287595,290.538012 L471.287595,295.570812 C471.013995,295.124412 470.614395,294.786012 470.088795,294.555612 C469.563195,294.325212 469.048395,294.210012 468.544395,294.210012 C467.507595,294.210012 466.521195,294.530412 465.585195,295.171212 C464.649195,295.812012 464.181195,296.946012 464.181195,298.573212 L464.181195,298.573212 L464.181195,301.510812 C464.181195,303.138012 464.649195,304.272012 465.585195,304.912812 C466.521195,305.553612 467.507595,305.874012 468.544395,305.874012 Z M468.544395,304.318812 C467.824395,304.318812 467.187195,304.084812 466.632795,303.616812 C466.078395,303.148812 465.801195,302.454012 465.801195,301.532412 L465.801195,301.532412 L465.801195,298.551612 C465.801195,297.630012 466.078395,296.935212 466.632795,296.467212 C467.187195,295.999212 467.824395,295.765212 468.544395,295.765212 C469.264395,295.765212 469.901595,295.999212 470.455995,296.467212 C471.010395,296.935212 471.287595,297.630012 471.287595,298.551612 L471.287595,298.551612 L471.287595,301.532412 C471.287595,302.454012 471.010395,303.148812 470.455995,303.616812 C469.901595,304.084812 469.264395,304.318812 468.544395,304.318812 Z M480.208395,305.874012 C481.173195,305.874012 482.101995,305.600412 482.994795,305.053212 C483.887595,304.506012 484.405995,303.541212 484.549995,302.158812 L482.886795,302.158812 C482.757195,302.878812 482.436795,303.418812 481.925595,303.778812 C481.414395,304.138812 480.841995,304.318812 480.208395,304.318812 C479.488395,304.318812 478.851195,304.084812 478.296795,303.616812 C477.742395,303.148812 477.465195,302.454012 477.465195,301.532412 L477.465195,300.452412 L484.571595,300.452412 L484.571595,298.573212 C484.571595,296.946012 484.103595,295.812012 483.167595,295.171212 C482.231595,294.530412 481.245195,294.210012 480.208395,294.210012 C479.171595,294.210012 478.185195,294.530412 477.249195,295.171212 C476.313195,295.812012 475.845195,296.946012 475.845195,298.573212 L475.845195,301.510812 C475.845195,303.138012 476.313195,304.272012 477.249195,304.912812 C478.185195,305.553612 479.171595,305.874012 480.208395,305.874012 Z M482.951595,298.962012 L477.465195,298.962012 L477.465195,298.551612 C477.465195,297.630012 477.742395,296.935212 478.296795,296.467212 C478.851195,295.999212 479.488395,295.765212 480.208395,295.765212 C480.928395,295.765212 481.565595,295.999212 482.119995,296.467212 C482.674395,296.935212 482.951595,297.630012 482.951595,298.551612 L482.951595,298.962012 Z M489.021195,305.658012 L489.021195,298.551612 C489.021195,297.658812 489.287595,296.971212 489.820395,296.488812 C490.353195,296.006412 490.950795,295.765212 491.613195,295.765212 C492.246795,295.765212 492.833595,296.002812 493.373595,296.478012 C493.913595,296.953212 494.183595,297.601212 494.183595,298.422012 L494.183595,305.658012 L495.803595,305.658012 L495.803595,298.551612 C495.803595,297.658812 496.069995,296.971212 496.602795,296.488812 C497.135595,296.006412 497.733195,295.765212 498.395595,295.765212 C499.029195,295.765212 499.615995,296.002812 500.155995,296.478012 C500.695995,296.953212 500.965995,297.601212 500.965995,298.422012 L500.965995,305.658012 L502.585995,305.658012 L502.585995,298.573212 C502.585995,297.003612 502.132395,295.884012 501.225195,295.214412 C500.317995,294.544812 499.367595,294.210012 498.373995,294.210012 C497.754795,294.210012 497.128395,294.346812 496.494795,294.620412 C495.861195,294.894012 495.357195,295.340412 494.982795,295.959612 C494.608395,295.340412 494.107995,294.894012 493.481595,294.620412 C492.855195,294.346812 492.232395,294.210012 491.613195,294.210012 C491.209995,294.210012 490.745595,294.325212 490.219995,294.555612 C489.694395,294.786012 489.294795,295.124412 489.021195,295.570812 L489.021195,294.512412 L487.401195,294.512412 L487.401195,305.658012 L489.021195,305.658012 Z M514.595595,305.874012 C515.099595,305.874012 515.614395,305.758812 516.139995,305.528412 C516.665595,305.298012 517.065195,304.959612 517.338795,304.513212 L517.338795,304.513212 L517.338795,305.658012 L518.958795,305.658012 L518.958795,290.538012 L517.338795,290.538012 L517.338795,295.570812 C517.065195,295.124412 516.665595,294.786012 516.139995,294.555612 C515.614395,294.325212 515.099595,294.210012 514.595595,294.210012 C513.558795,294.210012 512.572395,294.530412 511.636395,295.171212 C510.700395,295.812012 510.232395,296.946012 510.232395,298.573212 L510.232395,298.573212 L510.232395,301.510812 C510.232395,303.138012 510.700395,304.272012 511.636395,304.912812 C512.572395,305.553612 513.558795,305.874012 514.595595,305.874012 Z M514.595595,304.318812 C513.875595,304.318812 513.238395,304.084812 512.683995,303.616812 C512.129595,303.148812 511.852395,302.454012 511.852395,301.532412 L511.852395,301.532412 L511.852395,298.551612 C511.852395,297.630012 512.129595,296.935212 512.683995,296.467212 C513.238395,295.999212 513.875595,295.765212 514.595595,295.765212 C515.315595,295.765212 515.952795,295.999212 516.507195,296.467212 C517.061595,296.935212 517.338795,297.630012 517.338795,298.551612 L517.338795,298.551612 L517.338795,301.532412 C517.338795,302.454012 517.061595,303.148812 516.507195,303.616812 C515.952795,304.084812 515.315595,304.318812 514.595595,304.318812 Z M526.259595,305.874012 C527.224395,305.874012 528.153195,305.600412 529.045995,305.053212 C529.938795,304.506012 530.457195,303.541212 530.601195,302.158812 L528.937995,302.158812 C528.808395,302.878812 528.487995,303.418812 527.976795,303.778812 C527.465595,304.138812 526.893195,304.318812 526.259595,304.318812 C525.539595,304.318812 524.902395,304.084812 524.347995,303.616812 C523.793595,303.148812 523.516395,302.454012 523.516395,301.532412 L523.516395,300.452412 L530.622795,300.452412 L530.622795,298.573212 C530.622795,296.946012 530.154795,295.812012 529.218795,295.171212 C528.282795,294.530412 527.296395,294.210012 526.259595,294.210012 C525.222795,294.210012 524.236395,294.530412 523.300395,295.171212 C522.364395,295.812012 521.896395,296.946012 521.896395,298.573212 L521.896395,301.510812 C521.896395,303.138012 522.364395,304.272012 523.300395,304.912812 C524.236395,305.553612 525.222795,305.874012 526.259595,305.874012 Z M529.002795,298.962012 L523.516395,298.962012 L523.516395,298.551612 C523.516395,297.630012 523.793595,296.935212 524.347995,296.467212 C524.902395,295.999212 525.539595,295.765212 526.259595,295.765212 C526.979595,295.765212 527.616795,295.999212 528.171195,296.467212 C528.725595,296.935212 529.002795,297.630012 529.002795,298.551612 L529.002795,298.962012 Z M540.083595,305.658012 L540.083595,298.832412 L547.017195,298.832412 L547.017195,297.190812 L540.083595,297.190812 L540.083595,292.179612 L547.017195,292.179612 L547.017195,290.538012 L538.420395,290.538012 L538.420395,305.658012 L540.083595,305.658012 Z M551.423595,292.633212 L551.423595,290.538012 L549.803595,290.538012 L549.803595,292.633212 L551.423595,292.633212 Z M551.423595,305.658012 L551.423595,294.512412 L549.803595,294.512412 L549.803595,305.658012 L551.423595,305.658012 Z M559.026795,305.874012 C560.063595,305.874012 561.049995,305.553612 561.985995,304.912812 C562.921995,304.272012 563.389995,303.138012 563.389995,301.510812 L563.389995,298.573212 C563.389995,296.946012 562.921995,295.812012 561.985995,295.171212 C561.049995,294.530412 560.063595,294.210012 559.026795,294.210012 C558.522795,294.210012 558.007995,294.325212 557.482395,294.555612 C556.956795,294.786012 556.557195,295.124412 556.283595,295.570812 L556.283595,290.538012 L554.663595,290.538012 L554.663595,305.658012 L556.283595,305.658012 L556.283595,304.513212 C556.557195,304.959612 556.956795,305.298012 557.482395,305.528412 C558.007995,305.758812 558.522795,305.874012 559.026795,305.874012 Z M559.026795,304.318812 C558.306795,304.318812 557.669595,304.084812 557.115195,303.616812 C556.560795,303.148812 556.283595,302.454012 556.283595,301.532412 L556.283595,298.551612 C556.283595,297.630012 556.560795,296.935212 557.115195,296.467212 C557.669595,295.999212 558.306795,295.765212 559.026795,295.765212 C559.746795,295.765212 560.383995,295.999212 560.938395,296.467212 C561.492795,296.935212 561.769995,297.630012 561.769995,298.551612 L561.769995,301.532412 C561.769995,302.454012 561.492795,303.148812 560.938395,303.616812 C560.383995,304.084812 559.746795,304.318812 559.026795,304.318812 Z M567.947595,305.658012 L567.947595,298.659612 C567.947595,297.738012 568.224795,297.043212 568.779195,296.575212 C569.333595,296.107212 569.970795,295.873212 570.690795,295.873212 L571.403595,295.873212 L571.403595,294.318012 L570.690795,294.318012 C570.186795,294.318012 569.671995,294.433212 569.146395,294.663612 C568.620795,294.894012 568.221195,295.232412 567.947595,295.678812 L567.947595,294.512412 L566.327595,294.512412 L566.327595,305.658012 L567.947595,305.658012 Z M576.436395,305.874012 C577.185195,305.874012 577.861995,305.762412 578.466795,305.539212 C579.071595,305.316012 579.553995,304.974012 579.913995,304.513212 L579.913995,305.658012 L581.533995,305.658012 L581.533995,298.573212 C581.533995,296.946012 581.065995,295.812012 580.129995,295.171212 C579.193995,294.530412 578.207595,294.210012 577.170795,294.210012 C576.205995,294.210012 575.277195,294.483612 574.384395,295.030812 C573.491595,295.578012 572.973195,296.542812 572.829195,297.925212 L574.492395,297.925212 C574.621995,297.205212 574.942395,296.665212 575.453595,296.305212 C575.964795,295.945212 576.537195,295.765212 577.170795,295.765212 C577.890795,295.765212 578.527995,295.999212 579.082395,296.467212 C579.636795,296.935212 579.913995,297.630012 579.913995,298.551612 L579.913995,298.746012 C578.977995,298.803612 578.110395,298.875612 577.311195,298.962012 C576.511995,299.048412 575.795595,299.185212 575.161995,299.372412 C574.197195,299.646012 573.552795,300.106812 573.228795,300.754812 C572.904795,301.402812 572.742795,302.007612 572.742795,302.569212 C572.742795,303.706812 573.120795,304.542012 573.876795,305.074812 C574.632795,305.607612 575.485995,305.874012 576.436395,305.874012 Z M576.781995,304.318812 C575.961195,304.318812 575.352795,304.146012 574.956795,303.800412 C574.560795,303.454812 574.362795,303.030012 574.362795,302.526012 C574.362795,302.209212 574.423995,301.921212 574.546395,301.662012 C574.668795,301.402812 574.931595,301.158012 575.334795,300.927612 C575.709195,300.726012 576.263595,300.574812 576.997995,300.474012 C577.732395,300.373212 578.704395,300.279612 579.913995,300.193212 L579.913995,301.640412 C579.913995,302.504412 579.607995,303.166812 578.995995,303.627612 C578.383995,304.088412 577.645995,304.318812 576.781995,304.318812 Z" id="ModemdeFibra" fill="#444444" fill-rule="nonzero"></path>
        <circle id="Oval" stroke="#444444" stroke-width="3" fill="#D1DDE8" cx="234.876441" cy="84.4264408" r="24.8764408"></circle>
        <circle id="Oval-Copy-13" fill="#444444" cx="234.433281" cy="84.4264408" r="16"></circle>
        <circle id="Oval-Copy-14" stroke="#C0C0C0" fill="#000000" cx="234.433281" cy="84.4264408" r="5.5"></circle>
        <circle id="Oval-Copy-16" stroke="#C0C0C0" fill="#A0A0A0" opacity="0.300000012" cx="234.542524" cy="84.3171979" r="3.00674085"></circle>
        <circle id="Oval-Copy-15" fill="#D2D2D2" cx="232.87529" cy="82.8684489" r="1.55799185"></circle>
        <g id="-Connections" transform="translate(-19991.701232, -11548.000000)"></g>
    </g>
</svg>