<?xml version="1.0" encoding="UTF-8"?>
<svg width="612px" height="341px" viewBox="0 0 612 341" version="1.1" xmlns="http://www.w3.org/2000/svg" xmlns:xlink="http://www.w3.org/1999/xlink">
    <title>microfiltro-00 copy 2</title>
    <defs>
        <radialGradient cx="50%" cy="50%" fx="50%" fy="50%" r="47.4912074%" id="radialGradient-1">
            <stop stop-color="#40FF00" offset="0%"></stop>
            <stop stop-color="#76FF00" stop-opacity="0" offset="100%"></stop>
        </radialGradient>
        <polygon id="path-2" points="119.457855 85.2049 119.457855 0.00535384615 0.371158046 0.00535384615 0.371158046 85.2049 119.457855 85.2049"></polygon>
        <linearGradient x1="50%" y1="0%" x2="50%" y2="100%" id="linearGradient-4">
            <stop stop-color="#0D094F" offset="0%"></stop>
            <stop stop-color="#3177D7" offset="100%"></stop>
        </linearGradient>
        <radialGradient cx="49.9687414%" cy="49.887506%" fx="49.9687414%" fy="49.887506%" r="47.3744513%" id="radialGradient-5">
            <stop stop-color="#00FDFF" offset="0%"></stop>
            <stop stop-color="#00ECFF" stop-opacity="0" offset="100%"></stop>
        </radialGradient>
    </defs>
    <g id="Page-1" stroke="none" stroke-width="1" fill="none" fill-rule="evenodd">
        <path d="M447.465118,236.772841 C448.430548,249.304392 429.428771,249.599547 397.186517,249.208068 C346.065475,248.587366 340.400223,284.673752 340.400223,277.137101" id="Path-4-Copy-11" stroke="#000000" stroke-width="4.5" stroke-linejoin="round" transform="translate(393.950223, 257.472841) scale(1, -1) rotate(-165.000000) translate(-393.950223, -257.472841) "></path>
        <path d="M271.683617,240.330052 C272.470565,252.861604 256.981722,253.156758 230.700221,252.765279 C189.030127,252.144577 184.412232,288.230963 184.412232,280.694313" id="Path-4-Copy-10" stroke="#000000" stroke-width="4.5" stroke-linejoin="round" transform="translate(228.062232, 261.030052) scale(-1, -1) rotate(204.000000) translate(-228.062232, -261.030052) "></path>
        <g id="Group-36-Copy-3" transform="translate(430.512894, 192.184059)" fill-rule="nonzero">
            <path d="M6.98738233,86.098529 C6.33622385,86.098529 5.8033519,86.0269861 5.8033519,85.9395382 L5.8033519,82.0017281 C5.8033519,81.9142802 6.33622385,81.8427372 6.98738233,81.8427372 L36.9247928,81.8427372 C37.5759512,81.8427372 38.1086775,81.9142802 38.1086775,82.0017281 L38.1086775,85.9395382 C38.1086775,86.0269861 37.5759512,86.098529 36.9247928,86.098529 L6.98738233,86.098529 Z" id="Fill-48-Copy" fill="#2B2B2B" transform="translate(21.956015, 83.970633) scale(-1, 1) rotate(-180.000000) translate(-21.956015, -83.970633) "></path>
            <path d="M117.057623,86.098529 C116.406465,86.098529 115.873593,86.0269861 115.873593,85.9395382 L115.873593,82.0017281 C115.873593,81.9142802 116.406465,81.8427372 117.057623,81.8427372 L146.995034,81.8427372 C147.646192,81.8427372 148.178919,81.9142802 148.178919,82.0017281 L148.178919,85.9395382 C148.178919,86.0269861 147.646192,86.098529 146.995034,86.098529 L117.057623,86.098529 Z" id="Fill-48-Copy-2" fill="#2B2B2B" transform="translate(132.026256, 83.970633) scale(-1, 1) rotate(-180.000000) translate(-132.026256, -83.970633) "></path>
            <path d="M5.71454194,84.1640781 C2.5718251,84.1640781 -4.48879643e-13,82.749221 -4.48879643e-13,81.0198223 L-4.48879643e-13,3.14425606 C-4.48879643e-13,1.4148572 2.5718251,2.11237479e-13 5.71454194,2.11237479e-13 L150.202882,2.11237479e-13 C153.345599,2.11237479e-13 155.916721,1.4148572 155.916721,3.14425606 L155.916721,81.0198223 C155.916721,82.749221 153.345599,84.1640781 150.202882,84.1640781 L5.71454194,84.1640781 Z" id="Fill-48" fill="#444444"></path>
            <rect id="Rectangle" fill="#C1C1C1" x="0" y="56.0829498" width="156.077419" height="5.57419355"></rect>
            <path d="M68.1188313,36.3636885 C71.3231654,23.7900276 68.8822081,16.7024288 77.3516157,20.5625864 C81.9969968,22.6813037 87.5528005,27.9304121 87.8594956,33.3900059 C88.2855078,40.9120195 64.9287816,48.8806318 68.1188313,36.3636885 Z" id="Clip-14" fill="#C1C1C1"></path>
            <path d="M76.2500339,34.8121471 C75.4454843,34.8121471 75.0001461,33.9857508 75.0001461,33.1475907 C75.0001461,32.310271 75.4454843,31.5065616 76.2500339,31.5065616 C77.0524828,31.5065616 77.4965606,32.310271 77.4965606,33.1475907 C77.4965606,33.9857508 77.0524828,34.8121471 76.2500339,34.8121471 Z M76.2500339,30.0277028 C74.4955696,30.0277028 73.3284475,31.4162336 73.3284475,33.1572537 C73.3284475,34.9003745 74.4955696,36.2876449 76.2500339,36.2876449 C78.0002969,36.2876449 79.1661586,34.9003745 79.1661586,33.1572537 C79.1661586,31.4162336 78.0002969,30.0277028 76.2500339,30.0277028 Z M81.0092704,30.0310639 C80.4206678,30.0310639 79.9408789,31.4326187 79.9408789,33.1606148 C79.9408789,34.8894511 80.4206678,36.2897456 81.0092704,36.2897456 C81.5987133,36.2897456 82.0764015,34.8894511 82.0764015,33.1606148 C82.0764015,31.4326187 81.5987133,30.0310639 81.0092704,30.0310639 Z M80.9958262,29.2550831 C81.5760262,29.2550831 82.0436313,28.7849572 82.0436313,28.2055975 C82.0436313,27.6279183 81.5760262,27.1586327 80.9958262,27.1586327 C80.418147,27.1586327 79.9497017,27.6279183 79.9497017,28.2055975 C79.9497017,28.7849572 80.418147,29.2550831 80.9958262,29.2550831 L80.9958262,29.2550831 Z" id="Fill-16" fill="#444444"></path>
        </g>
        <g id="Group-39-Copy" transform="translate(441.979867, 247.825707)">
            <g id="Group-3">
                <circle id="Oval-Copy-11" fill="url(#radialGradient-1)" cx="3.38347541" cy="3.38347541" r="3.38347541"></circle>
                <circle id="Oval-Copy-2" fill="#40FF00" cx="3.4364077" cy="3.33054311" r="1.38351443"></circle>
            </g>
            <g id="Group-3-Copy" transform="translate(8.750000, 0.000000)">
                <circle id="Oval-Copy-11" fill="url(#radialGradient-1)" cx="3.38347541" cy="3.38347541" r="3.38347541"></circle>
                <circle id="Oval-Copy-2" fill="#40FF00" cx="3.4364077" cy="3.33054311" r="1.38351443"></circle>
            </g>
            <g id="Group-3-Copy-2" transform="translate(17.500000, 0.000000)">
                <circle id="Oval-Copy-11" fill="url(#radialGradient-1)" cx="3.38347541" cy="3.38347541" r="3.38347541"></circle>
                <circle id="Oval-Copy-2" fill="#40FF00" cx="3.4364077" cy="3.33054311" r="1.38351443"></circle>
            </g>
            <g id="Group-3-Copy-3" transform="translate(35.000000, 0.000000)">
                <circle id="Oval-Copy-11" fill="url(#radialGradient-1)" cx="3.38347541" cy="3.38347541" r="3.38347541"></circle>
                <circle id="Oval-Copy-2" fill="#40FF00" cx="3.4364077" cy="3.33054311" r="1.38351443"></circle>
            </g>
            <g id="Group-3-Copy-4" transform="translate(43.750000, 0.000000)">
                <circle id="Oval-Copy-11" fill="url(#radialGradient-1)" cx="3.38347541" cy="3.38347541" r="3.38347541"></circle>
                <circle id="Oval-Copy-2" fill="#40FF00" cx="3.4364077" cy="3.33054311" r="1.38351443"></circle>
            </g>
            <g id="Group-3-Copy-5" transform="translate(70.000000, 0.000000)">
                <circle id="Oval-Copy-11" fill="url(#radialGradient-1)" cx="3.38347541" cy="3.38347541" r="3.38347541"></circle>
                <circle id="Oval-Copy-2" fill="#40FF00" cx="3.4364077" cy="3.33054311" r="1.38351443"></circle>
            </g>
            <g id="Group-3-Copy-6" transform="translate(113.750000, 0.000000)">
                <circle id="Oval-Copy-11" fill="url(#radialGradient-1)" cx="3.38347541" cy="3.38347541" r="3.38347541"></circle>
                <circle id="Oval-Copy-2" fill="#40FF00" cx="3.4364077" cy="3.33054311" r="1.38351443"></circle>
            </g>
            <g id="Group-3-Copy-7" transform="translate(131.250000, 0.000000)">
                <circle id="Oval-Copy-11" fill="url(#radialGradient-1)" cx="3.38347541" cy="3.38347541" r="3.38347541"></circle>
                <circle id="Oval-Copy-2" fill="#40FF00" cx="3.4364077" cy="3.33054311" r="1.38351443"></circle>
            </g>
        </g>
        <g id="Group-Copy-2" transform="translate(235.327979, 232.972841)">
            <rect id="Rectangle-Copy-5" fill="#2B2B2B" x="121.35017" y="43.0364581" width="22.7054095" height="5.46278664" rx="2.73139332"></rect>
            <rect id="Rectangle-Copy-6" fill="#2B2B2B" x="24.6835756" y="43.0364581" width="22.7054095" height="5.46278664" rx="2.73139332"></rect>
            <rect id="Rectangle" fill="#444444" x="0" y="0" width="161.29833" height="45.7678515" rx="12.6"></rect>
            <ellipse id="Oval-Copy-2" fill="#40FF00" cx="22.1545077" cy="22.8839257" rx="2.52906789" ry="2.73139332"></ellipse>
            <ellipse id="Oval-Copy-6" fill="#40FF00" cx="44.6351111" cy="22.8839257" rx="2.52906789" ry="2.73139332"></ellipse>
            <ellipse id="Oval-Copy-7" fill="#40FF00" cx="67.1157146" cy="22.8839257" rx="2.52906789" ry="2.73139332"></ellipse>
            <ellipse id="Oval-Copy-8" fill="#40FF00" opacity="0.300000012" cx="89.596318" cy="22.8839257" rx="2.52906789" ry="2.73139332"></ellipse>
            <ellipse id="Oval-Copy-9" fill="#000000" opacity="0.544140637" cx="139.947066" cy="22.8839257" rx="4.10851339" ry="4.43719446"></ellipse>
        </g>
        <g id="Group-44" opacity="0.300000012" transform="translate(198.768362, 31.164000)">
            <g id="Page-1-Copy" transform="translate(145.464087, 28.386000)">
                <path d="M71.395696,94.6934323 L71.395696,83.4258169 L60.0201167,83.4258169 L48.6498893,83.4258169 L48.6498893,94.6934323 C48.6498893,97.3324323 46.4199082,100.725432 43.2979348,100.096802 L43.2979348,102.610432 L60.0201167,102.610432 L76.7476505,102.610432 L76.7476505,100.096802 C73.625677,100.725432 71.395696,97.3324323 71.395696,94.6934323" id="Fill-22" fill="#444444"></path>
                <g id="Group-26" transform="translate(0.177728, 0.440800)">
                    <mask id="mask-3" fill="white">
                        <use xlink:href="#path-2"></use>
                    </mask>
                    <g id="Clip-25"></g>
                    <path d="M4.89355961,85.2049 C2.40623875,85.2049 0.371158046,83.1691 0.371158046,80.6809 L0.371158046,4.52913077 C0.371158046,2.04093077 2.40623875,0.00513076923 4.89355961,0.00513076923 L114.935542,0.00513076923 C117.422863,0.00513076923 119.457944,2.04093077 119.457944,4.52913077 L119.457944,80.6809 C119.457944,83.1691 117.422863,85.2049 114.935542,85.2049 L4.89355961,85.2049 Z" id="Fill-24" fill="#444444" mask="url(#mask-3)"></path>
                </g>
                <path d="M0.482298625,66.9179015 L0.482298625,81.1216554 C0.482298625,83.6098554 2.51158138,85.6563631 4.99890224,85.6563631 L115.040885,85.6563631 C117.528206,85.6563631 119.563287,83.6098554 119.563287,81.1216554 L119.563287,66.9179015 L0.482298625,66.9179015 Z" id="Fill-27" fill="#D1DDE8"></path>
                <polygon id="Fill-29" fill="#6F7B84" points="6.57821942 60.6385538 113.605714 60.6385538 113.605714 6.10070769 6.57821942 6.10070769"></polygon>
                <polygon id="Fill-31" fill="#626E78" points="46.8798195 6.18016769 100.469386 60.6716138 113.319429 60.6716138 113.319429 6.10075231"></polygon>
                <path d="M62.5103365,76.2209231 C62.5103365,77.5397538 61.4417296,78.6087385 60.1233648,78.6087385 C58.805446,78.6087385 57.7368391,77.5397538 57.7368391,76.2209231 C57.7368391,74.9020923 58.805446,73.8331077 60.1233648,73.8331077 C61.4417296,73.8331077 62.5103365,74.9020923 62.5103365,76.2209231" id="Fill-32" fill="#495361"></path>
            </g>
            <path d="M47.9325197,87.0794323 L47.9325197,75.8118169 L36.5569403,75.8118169 L25.186713,75.8118169 L25.186713,87.0794323 C25.186713,89.7184323 22.9567319,93.1114323 19.8347585,92.4828015 L19.8347585,94.9964323 L36.5569403,94.9964323 L53.2844742,94.9964323 L53.2844742,92.4828015 C50.1625007,93.1114323 47.9325197,89.7184323 47.9325197,87.0794323" id="Fill-22-Copy" fill="#222222"></path>
            <rect id="Rectangle-Copy-46" fill="#444444" x="10.1167511" y="92.5106941" width="52.5" height="16.8153846" rx="3"></rect>
            <path d="M155.171687,15.552 C156.554087,15.552 157.688087,15.1344 158.573687,14.2992 C159.459287,13.464 159.945287,12.3192 160.031687,10.8648 L158.368487,10.8648 C158.282087,11.8584 157.936487,12.6144 157.331687,13.1328 C156.726887,13.6512 156.006887,13.9104 155.171687,13.9104 C154.278887,13.9104 153.519287,13.6152 152.892887,13.0248 C152.266487,12.4344 151.953287,11.5704 151.953287,10.4328 L151.953287,5.1192 C151.953287,3.9816 152.266487,3.1176 152.892887,2.5272 C153.519287,1.9368 154.278887,1.6416 155.171687,1.6416 C156.006887,1.6416 156.726887,1.9008 157.331687,2.4192 C157.936487,2.9376 158.282087,3.6936 158.368487,4.6872 L160.031687,4.6872 C159.945287,3.2328 159.459287,2.088 158.573687,1.2528 C157.688087,0.4176 156.554087,0 155.171687,0 C153.731687,0 152.558087,0.4572 151.650887,1.3716 C150.743687,2.286 150.290087,3.5352 150.290087,5.1192 L150.290087,10.4328 C150.290087,12.0168 150.743687,13.266 151.650887,14.1804 C152.558087,15.0948 153.731687,15.552 155.171687,15.552 Z M166.770887,15.552 C167.807687,15.552 168.794087,15.2316 169.730087,14.5908 C170.666087,13.95 171.134087,12.816 171.134087,11.1888 L171.134087,8.2512 C171.134087,6.624 170.666087,5.49 169.730087,4.8492 C168.794087,4.2084 167.807687,3.888 166.770887,3.888 C165.734087,3.888 164.747687,4.2084 163.811687,4.8492 C162.875687,5.49 162.407687,6.624 162.407687,8.2512 L162.407687,11.1888 C162.407687,12.816 162.875687,13.95 163.811687,14.5908 C164.747687,15.2316 165.734087,15.552 166.770887,15.552 Z M166.770887,13.9968 C166.050887,13.9968 165.413687,13.7628 164.859287,13.2948 C164.304887,12.8268 164.027687,12.132 164.027687,11.2104 L164.027687,8.2296 C164.027687,7.308 164.304887,6.6132 164.859287,6.1452 C165.413687,5.6772 166.050887,5.4432 166.770887,5.4432 C167.490887,5.4432 168.128087,5.6772 168.682487,6.1452 C169.236887,6.6132 169.514087,7.308 169.514087,8.2296 L169.514087,11.2104 C169.514087,12.132 169.236887,12.8268 168.682487,13.2948 C168.128087,13.7628 167.490887,13.9968 166.770887,13.9968 Z M175.691687,15.336 L175.691687,8.2296 C175.691687,7.3368 175.958087,6.6492 176.490887,6.1668 C177.023687,5.6844 177.621287,5.4432 178.283687,5.4432 C178.917287,5.4432 179.504087,5.6808 180.044087,6.156 C180.584087,6.6312 180.854087,7.2792 180.854087,8.1 L180.854087,15.336 L182.474087,15.336 L182.474087,8.2296 C182.474087,7.3368 182.740487,6.6492 183.273287,6.1668 C183.806087,5.6844 184.403687,5.4432 185.066087,5.4432 C185.699687,5.4432 186.286487,5.6808 186.826487,6.156 C187.366487,6.6312 187.636487,7.2792 187.636487,8.1 L187.636487,15.336 L189.256487,15.336 L189.256487,8.2512 C189.256487,6.6816 188.802887,5.562 187.895687,4.8924 C186.988487,4.2228 186.038087,3.888 185.044487,3.888 C184.425287,3.888 183.798887,4.0248 183.165287,4.2984 C182.531687,4.572 182.027687,5.0184 181.653287,5.6376 C181.278887,5.0184 180.778487,4.572 180.152087,4.2984 C179.525687,4.0248 178.902887,3.888 178.283687,3.888 C177.880487,3.888 177.416087,4.0032 176.890487,4.2336 C176.364887,4.464 175.965287,4.8024 175.691687,5.2488 L175.691687,4.1904 L174.071687,4.1904 L174.071687,15.336 L175.691687,15.336 Z M193.965287,19.3104 L193.965287,14.1912 C194.238887,14.6376 194.638487,14.976 195.164087,15.2064 C195.689687,15.4368 196.204487,15.552 196.708487,15.552 C197.745287,15.552 198.731687,15.2316 199.667687,14.5908 C200.603687,13.95 201.071687,12.816 201.071687,11.1888 L201.071687,8.2512 C201.071687,6.624 200.603687,5.49 199.667687,4.8492 C198.731687,4.2084 197.745287,3.888 196.708487,3.888 C196.204487,3.888 195.689687,4.0032 195.164087,4.2336 C194.638487,4.464 194.238887,4.8024 193.965287,5.2488 L193.965287,4.1904 L192.345287,4.1904 L192.345287,19.3104 L193.965287,19.3104 Z M196.708487,13.9968 C195.988487,13.9968 195.351287,13.7628 194.796887,13.2948 C194.242487,12.8268 193.965287,12.132 193.965287,11.2104 L193.965287,8.2296 C193.965287,7.308 194.242487,6.6132 194.796887,6.1452 C195.351287,5.6772 195.988487,5.4432 196.708487,5.4432 C197.428487,5.4432 198.065687,5.6772 198.620087,6.1452 C199.174487,6.6132 199.451687,7.308 199.451687,8.2296 L199.451687,11.2104 C199.451687,12.132 199.174487,12.8268 198.620087,13.2948 C198.065687,13.7628 197.428487,13.9968 196.708487,13.9968 Z M208.156487,15.552 C208.631687,15.552 209.128487,15.4368 209.646887,15.2064 C210.165287,14.976 210.561287,14.6376 210.834887,14.1912 L210.834887,15.336 L212.454887,15.336 L212.454887,4.1904 L210.834887,4.1904 L210.834887,11.2104 C210.834887,12.1176 210.557687,12.8088 210.003287,13.284 C209.448887,13.7592 208.833287,13.9968 208.156487,13.9968 C207.494087,13.9968 206.882087,13.77 206.320487,13.3164 C205.758887,12.8628 205.478087,12.1392 205.478087,11.1456 L205.478087,4.1904 L203.858087,4.1904 L203.858087,11.2536 C203.858087,12.8952 204.347687,14.022 205.326887,14.634 C206.306087,15.246 207.249287,15.552 208.156487,15.552 Z M220.576487,15.336 L220.576487,13.7808 L218.870087,13.7808 C218.481287,13.7808 218.211287,13.7088 218.060087,13.5648 C217.908887,13.4208 217.833287,13.1688 217.833287,12.8088 L217.833287,12.8088 L217.833287,5.7456 L220.576487,5.7456 L220.576487,4.1904 L217.833287,4.1904 L217.833287,1.6632 L216.213287,1.6632 L216.213287,4.1904 L214.636487,4.1904 L214.636487,5.7456 L216.213287,5.7456 L216.213287,12.6792 C216.213287,13.6296 216.396887,14.31 216.764087,14.7204 C217.131287,15.1308 217.833287,15.336 218.870087,15.336 L218.870087,15.336 L220.576487,15.336 Z M226.257287,15.552 C227.006087,15.552 227.682887,15.4404 228.287687,15.2172 C228.892487,14.994 229.374887,14.652 229.734887,14.1912 L229.734887,15.336 L231.354887,15.336 L231.354887,8.2512 C231.354887,6.624 230.886887,5.49 229.950887,4.8492 C229.014887,4.2084 228.028487,3.888 226.991687,3.888 C226.026887,3.888 225.098087,4.1616 224.205287,4.7088 C223.312487,5.256 222.794087,6.2208 222.650087,7.6032 L224.313287,7.6032 C224.442887,6.8832 224.763287,6.3432 225.274487,5.9832 C225.785687,5.6232 226.358087,5.4432 226.991687,5.4432 C227.711687,5.4432 228.348887,5.6772 228.903287,6.1452 C229.457687,6.6132 229.734887,7.308 229.734887,8.2296 L229.734887,8.424 C228.798887,8.4816 227.931287,8.5536 227.132087,8.64 C226.332887,8.7264 225.616487,8.8632 224.982887,9.0504 C224.018087,9.324 223.373687,9.7848 223.049687,10.4328 C222.725687,11.0808 222.563687,11.6856 222.563687,12.2472 C222.563687,13.3848 222.941687,14.22 223.697687,14.7528 C224.453687,15.2856 225.306887,15.552 226.257287,15.552 Z M226.602887,13.9968 C225.782087,13.9968 225.173687,13.824 224.777687,13.4784 C224.381687,13.1328 224.183687,12.708 224.183687,12.204 C224.183687,11.8872 224.244887,11.5992 224.367287,11.34 C224.489687,11.0808 224.752487,10.836 225.155687,10.6056 C225.530087,10.404 226.084487,10.2528 226.818887,10.152 C227.553287,10.0512 228.525287,9.9576 229.734887,9.8712 L229.734887,11.3184 C229.734887,12.1824 229.428887,12.8448 228.816887,13.3056 C228.204887,13.7664 227.466887,13.9968 226.602887,13.9968 Z M238.504487,15.552 C239.008487,15.552 239.523287,15.4368 240.048887,15.2064 C240.574487,14.976 240.974087,14.6376 241.247687,14.1912 L241.247687,14.1912 L241.247687,15.336 L242.867687,15.336 L242.867687,0.216 L241.247687,0.216 L241.247687,5.2488 C240.974087,4.8024 240.574487,4.464 240.048887,4.2336 C239.523287,4.0032 239.008487,3.888 238.504487,3.888 C237.467687,3.888 236.481287,4.2084 235.545287,4.8492 C234.609287,5.49 234.141287,6.624 234.141287,8.2512 L234.141287,8.2512 L234.141287,11.1888 C234.141287,12.816 234.609287,13.95 235.545287,14.5908 C236.481287,15.2316 237.467687,15.552 238.504487,15.552 Z M238.504487,13.9968 C237.784487,13.9968 237.147287,13.7628 236.592887,13.2948 C236.038487,12.8268 235.761287,12.132 235.761287,11.2104 L235.761287,11.2104 L235.761287,8.2296 C235.761287,7.308 236.038487,6.6132 236.592887,6.1452 C237.147287,5.6772 237.784487,5.4432 238.504487,5.4432 C239.224487,5.4432 239.861687,5.6772 240.416087,6.1452 C240.970487,6.6132 241.247687,7.308 241.247687,8.2296 L241.247687,8.2296 L241.247687,11.2104 C241.247687,12.132 240.970487,12.8268 240.416087,13.2948 C239.861687,13.7628 239.224487,13.9968 238.504487,13.9968 Z M250.168487,15.552 C251.205287,15.552 252.191687,15.2316 253.127687,14.5908 C254.063687,13.95 254.531687,12.816 254.531687,11.1888 L254.531687,8.2512 C254.531687,6.624 254.063687,5.49 253.127687,4.8492 C252.191687,4.2084 251.205287,3.888 250.168487,3.888 C249.131687,3.888 248.145287,4.2084 247.209287,4.8492 C246.273287,5.49 245.805287,6.624 245.805287,8.2512 L245.805287,11.1888 C245.805287,12.816 246.273287,13.95 247.209287,14.5908 C248.145287,15.2316 249.131687,15.552 250.168487,15.552 Z M250.168487,13.9968 C249.448487,13.9968 248.811287,13.7628 248.256887,13.2948 C247.702487,12.8268 247.425287,12.132 247.425287,11.2104 L247.425287,8.2296 C247.425287,7.308 247.702487,6.6132 248.256887,6.1452 C248.811287,5.6772 249.448487,5.4432 250.168487,5.4432 C250.888487,5.4432 251.525687,5.6772 252.080087,6.1452 C252.634487,6.6132 252.911687,7.308 252.911687,8.2296 L252.911687,11.2104 C252.911687,12.132 252.634487,12.8268 252.080087,13.2948 C251.525687,13.7628 250.888487,13.9968 250.168487,13.9968 Z M259.089287,15.336 L259.089287,8.3376 C259.089287,7.416 259.366487,6.7212 259.920887,6.2532 C260.475287,5.7852 261.112487,5.5512 261.832487,5.5512 L262.545287,5.5512 L262.545287,3.996 L261.832487,3.996 C261.328487,3.996 260.813687,4.1112 260.288087,4.3416 C259.762487,4.572 259.362887,4.9104 259.089287,5.3568 L259.089287,4.1904 L257.469287,4.1904 L257.469287,15.336 L259.089287,15.336 Z" id="Computador-Copy" fill="#444444" fill-rule="nonzero"></path>
            <path d="M4.8816,15.552 C6.264,15.552 7.398,15.1344 8.2836,14.2992 C9.1692,13.464 9.6552,12.3192 9.7416,10.8648 L8.0784,10.8648 C7.992,11.8584 7.6464,12.6144 7.0416,13.1328 C6.4368,13.6512 5.7168,13.9104 4.8816,13.9104 C3.9888,13.9104 3.2292,13.6152 2.6028,13.0248 C1.9764,12.4344 1.6632,11.5704 1.6632,10.4328 L1.6632,5.1192 C1.6632,3.9816 1.9764,3.1176 2.6028,2.5272 C3.2292,1.9368 3.9888,1.6416 4.8816,1.6416 C5.7168,1.6416 6.4368,1.9008 7.0416,2.4192 C7.6464,2.9376 7.992,3.6936 8.0784,4.6872 L9.7416,4.6872 C9.6552,3.2328 9.1692,2.088 8.2836,1.2528 C7.398,0.4176 6.264,4.54747351e-13 4.8816,4.54747351e-13 C3.4416,4.54747351e-13 2.268,0.4572 1.3608,1.3716 C0.4536,2.286 0,3.5352 0,5.1192 L0,10.4328 C0,12.0168 0.4536,13.266 1.3608,14.1804 C2.268,15.0948 3.4416,15.552 4.8816,15.552 Z M14.9256,3.0024 L16.416,1.4688 L17.9064,3.0024 L19.8288,3.0024 L17.1288,0.216 L15.7032,0.216 L13.0032,3.0024 L14.9256,3.0024 Z M15.6168,15.552 C16.3656,15.552 17.0424,15.4404 17.6472,15.2172 C18.252,14.994 18.7344,14.652 19.0944,14.1912 L19.0944,15.336 L20.7144,15.336 L20.7144,8.2512 C20.7144,6.624 20.2464,5.49 19.3104,4.8492 C18.3744,4.2084 17.388,3.888 16.3512,3.888 C15.3864,3.888 14.4576,4.1616 13.5648,4.7088 C12.672,5.256 12.1536,6.2208 12.0096,7.6032 L13.6728,7.6032 C13.8024,6.8832 14.1228,6.3432 14.634,5.9832 C15.1452,5.6232 15.7176,5.4432 16.3512,5.4432 C17.0712,5.4432 17.7084,5.6772 18.2628,6.1452 C18.8172,6.6132 19.0944,7.308 19.0944,8.2296 L19.0944,8.424 C18.1584,8.4816 17.2908,8.5536 16.4916,8.64 C15.6924,8.7264 14.976,8.8632 14.3424,9.0504 C13.3776,9.324 12.7332,9.7848 12.4092,10.4328 C12.0852,11.0808 11.9232,11.6856 11.9232,12.2472 C11.9232,13.3848 12.3012,14.22 13.0572,14.7528 C13.8132,15.2856 14.6664,15.552 15.6168,15.552 Z M15.9624,13.9968 C15.1416,13.9968 14.5332,13.824 14.1372,13.4784 C13.7412,13.1328 13.5432,12.708 13.5432,12.204 C13.5432,11.8872 13.6044,11.5992 13.7268,11.34 C13.8492,11.0808 14.112,10.836 14.5152,10.6056 C14.8896,10.404 15.444,10.2528 16.1784,10.152 C16.9128,10.0512 17.8848,9.9576 19.0944,9.8712 L19.0944,11.3184 C19.0944,12.1824 18.7884,12.8448 18.1764,13.3056 C17.5644,13.7664 16.8264,13.9968 15.9624,13.9968 Z M25.4232,15.336 L25.4232,8.2296 C25.4232,7.3368 25.6896,6.6492 26.2224,6.1668 C26.7552,5.6844 27.3528,5.4432 28.0152,5.4432 C28.6488,5.4432 29.2356,5.6808 29.7756,6.156 C30.3156,6.6312 30.5856,7.2792 30.5856,8.1 L30.5856,15.336 L32.2056,15.336 L32.2056,8.2296 C32.2056,7.3368 32.472,6.6492 33.0048,6.1668 C33.5376,5.6844 34.1352,5.4432 34.7976,5.4432 C35.4312,5.4432 36.018,5.6808 36.558,6.156 C37.098,6.6312 37.368,7.2792 37.368,8.1 L37.368,15.336 L38.988,15.336 L38.988,8.2512 C38.988,6.6816 38.5344,5.562 37.6272,4.8924 C36.72,4.2228 35.7696,3.888 34.776,3.888 C34.1568,3.888 33.5304,4.0248 32.8968,4.2984 C32.2632,4.572 31.7592,5.0184 31.3848,5.6376 C31.0104,5.0184 30.51,4.572 29.8836,4.2984 C29.2572,4.0248 28.6344,3.888 28.0152,3.888 C27.612,3.888 27.1476,4.0032 26.622,4.2336 C26.0964,4.464 25.6968,4.8024 25.4232,5.2488 L25.4232,4.1904 L23.8032,4.1904 L23.8032,15.336 L25.4232,15.336 Z M46.1376,15.552 C47.1024,15.552 48.0312,15.2784 48.924,14.7312 C49.8168,14.184 50.3352,13.2192 50.4792,11.8368 L48.816,11.8368 C48.6864,12.5568 48.366,13.0968 47.8548,13.4568 C47.3436,13.8168 46.7712,13.9968 46.1376,13.9968 C45.4176,13.9968 44.7804,13.7628 44.226,13.2948 C43.6716,12.8268 43.3944,12.132 43.3944,11.2104 L43.3944,10.1304 L50.5008,10.1304 L50.5008,8.2512 C50.5008,6.624 50.0328,5.49 49.0968,4.8492 C48.1608,4.2084 47.1744,3.888 46.1376,3.888 C45.1008,3.888 44.1144,4.2084 43.1784,4.8492 C42.2424,5.49 41.7744,6.624 41.7744,8.2512 L41.7744,11.1888 C41.7744,12.816 42.2424,13.95 43.1784,14.5908 C44.1144,15.2316 45.1008,15.552 46.1376,15.552 Z M48.8808,8.64 L43.3944,8.64 L43.3944,8.2296 C43.3944,7.308 43.6716,6.6132 44.226,6.1452 C44.7804,5.6772 45.4176,5.4432 46.1376,5.4432 C46.8576,5.4432 47.4948,5.6772 48.0492,6.1452 C48.6036,6.6132 48.8808,7.308 48.8808,8.2296 L48.8808,8.64 Z M54.9504,15.336 L54.9504,8.3376 C54.9504,7.416 55.2276,6.7212 55.782,6.2532 C56.3364,5.7852 56.9736,5.5512 57.6936,5.5512 L58.4064,5.5512 L58.4064,3.996 L57.6936,3.996 C57.1896,3.996 56.6748,4.1112 56.1492,4.3416 C55.6236,4.572 55.224,4.9104 54.9504,5.3568 L54.9504,4.1904 L53.3304,4.1904 L53.3304,15.336 L54.9504,15.336 Z M63.4392,15.552 C64.188,15.552 64.8648,15.4404 65.4696,15.2172 C66.0744,14.994 66.5568,14.652 66.9168,14.1912 L66.9168,15.336 L68.5368,15.336 L68.5368,8.2512 C68.5368,6.624 68.0688,5.49 67.1328,4.8492 C66.1968,4.2084 65.2104,3.888 64.1736,3.888 C63.2088,3.888 62.28,4.1616 61.3872,4.7088 C60.4944,5.256 59.976,6.2208 59.832,7.6032 L61.4952,7.6032 C61.6248,6.8832 61.9452,6.3432 62.4564,5.9832 C62.9676,5.6232 63.54,5.4432 64.1736,5.4432 C64.8936,5.4432 65.5308,5.6772 66.0852,6.1452 C66.6396,6.6132 66.9168,7.308 66.9168,8.2296 L66.9168,8.424 C65.9808,8.4816 65.1132,8.5536 64.314,8.64 C63.5148,8.7264 62.7984,8.8632 62.1648,9.0504 C61.2,9.324 60.5556,9.7848 60.2316,10.4328 C59.9076,11.0808 59.7456,11.6856 59.7456,12.2472 C59.7456,13.3848 60.1236,14.22 60.8796,14.7528 C61.6356,15.2856 62.4888,15.552 63.4392,15.552 Z M63.7848,13.9968 C62.964,13.9968 62.3556,13.824 61.9596,13.4784 C61.5636,13.1328 61.3656,12.708 61.3656,12.204 C61.3656,11.8872 61.4268,11.5992 61.5492,11.34 C61.6716,11.0808 61.9344,10.836 62.3376,10.6056 C62.712,10.404 63.2664,10.2528 64.0008,10.152 C64.7352,10.0512 65.7072,9.9576 66.9168,9.8712 L66.9168,11.3184 C66.9168,12.1824 66.6108,12.8448 65.9988,13.3056 C65.3868,13.7664 64.6488,13.9968 63.7848,13.9968 Z" id="Câmera-Copy" fill="#444444" fill-rule="nonzero"></path>
            <circle id="Oval-Copy-21" stroke="#444444" stroke-width="3" fill="#D1DDE8" cx="36.3667511" cy="53.2624408" r="24.8764408"></circle>
            <circle id="Oval-Copy-20" fill="#444444" cx="35.9235918" cy="53.2624408" r="16"></circle>
            <circle id="Oval-Copy-19" stroke="#C0C0C0" fill="#000000" cx="35.9235918" cy="53.2624408" r="5.5"></circle>
            <circle id="Oval-Copy-18" stroke="#C0C0C0" fill="#A0A0A0" cx="36.0328347" cy="53.1531979" r="3.00674085"></circle>
            <circle id="Oval-Copy-17" fill="#D2D2D2" cx="34.3656" cy="51.7044489" r="1.55799185"></circle>
        </g>
        <g id="Group-2-Copy-6" transform="translate(29.004452, 182.568143)">
            <g id="Group-42">
                <g id="Group-Copy" transform="translate(0.417421, 0.459498)">
                    <path d="M14.1576111,83.8357145 L16.6107361,81.9255631 C17.3957693,81.3142888 18.5277003,81.4551482 19.1389746,82.2401814 C19.4729579,82.6691017 19.5954017,83.225899 19.4721743,83.7553633 L14.4928872,105.149586 C14.3462306,105.779717 14.0507467,106.365544 13.6311742,106.85802 L13.4327631,107.090906 C13.26256,107.290683 12.962632,107.314657 12.7628551,107.144454 C12.6568796,107.054167 12.5958277,106.921948 12.5958277,106.782726 L12.5958277,87.0312236 C12.5958277,85.7822143 13.1721245,84.603074 14.1576111,83.8357145 Z" id="Rectangle-Copy-2" fill="#929292" transform="translate(16.610736, 93.436288) rotate(49.000000) translate(-16.610736, -93.436288) "></path>
                    <path d="M134.538433,82.7023032 L136.991558,80.7921518 C137.776591,80.1808774 138.908522,80.3217368 139.519796,81.1067701 C139.853779,81.5356903 139.976223,82.0924877 139.852996,82.621952 L134.873709,104.016175 C134.727052,104.646306 134.431568,105.232133 134.011996,105.724609 L133.813585,105.957495 C133.643382,106.157272 133.343454,106.181246 133.143677,106.011043 C133.037701,105.920755 132.976649,105.788536 132.976649,105.649315 L132.976649,85.8978123 C132.976649,84.6488029 133.552946,83.4696627 134.538433,82.7023032 Z" id="Rectangle-Copy-3" fill="#929292" transform="translate(136.991558, 92.302877) scale(-1, 1) rotate(49.000000) translate(-136.991558, -92.302877) "></path>
                    <rect id="Rectangle" stroke="#979797" stroke-width="0.81" fill="#000000" x="0.405" y="0.405" width="153.817961" height="91.0890888" rx="4.05"></rect>
                    <rect id="Rectangle-Copy" fill="url(#linearGradient-4)" x="1.33794417" y="1.29071754" width="151.952073" height="89.3176537"></rect>
                </g>
                <path d="M73.8302229,31.9616141 L63.0162452,31.9616141 L63.0162452,64.5682273 L57.1426633,64.5682273 L57.1426633,31.9616141 L46.3286856,31.9616141 L46.3286856,26.1429256 L73.8302229,26.1429256 L73.8302229,31.9616141 Z M95.4581784,64.5682273 L89.4199168,64.5682273 L75.9710612,26.1429256 L82.0093229,26.1429256 L92.4390476,56.1146609 L102.868772,26.1429256 L108.907034,26.1429256 L95.4581784,64.5682273 Z" id="TV" fill="#FFFFFF" fill-rule="nonzero" opacity="0.300000012"></path>
            </g>
            <g id="Group" transform="translate(24.908864, 67.583794)">
                <rect id="Rectangle-Copy-5" fill="#2B2B2B" x="123.294727" y="28.76407" width="16.3895455" height="3.65113636" rx="1.82556818"></rect>
                <rect id="Rectangle-Copy-6" fill="#2B2B2B" x="17.8174538" y="28.76407" width="16.3895455" height="3.65113636" rx="1.82556818"></rect>
                <rect id="Rectangle" fill="#444444" x="0" y="0" width="153.347727" height="30.5896382" rx="15.2948191"></rect>
                <circle id="Oval-Copy-11" fill="url(#radialGradient-1)" cx="39.2412869" cy="15.3646641" r="4.4645469"></circle>
                <circle id="Oval-Copy-12" fill="url(#radialGradient-5)" opacity="0.800000012" cx="53.5099954" cy="15.3646641" r="4.4645469"></circle>
                <ellipse id="Oval" fill="#D8D8D8" opacity="0.200000003" cx="122.645636" cy="15.2948191" rx="10.5477273" ry="7.22989189"></ellipse>
                <line x1="111.805909" y1="9.90143318" x2="135.741136" y2="21.2605241" id="Line" stroke="#444444" stroke-width="0.9" stroke-linecap="square"></line>
                <line x1="111.805909" y1="20.4491605" x2="134.524091" y2="10.7127968" id="Line-Copy" stroke="#444444" stroke-width="0.9" stroke-linecap="square"></line>
                <ellipse id="Oval-Copy-5" fill="#D8D8D8" opacity="0.200000003" cx="99.3594992" cy="15.4889045" rx="3.65113636" ry="2.71806818"></ellipse>
                <ellipse id="Oval-Copy-10" fill="#444444" cx="122.645636" cy="15.4889045" rx="3.65113636" ry="2.71806818"></ellipse>
                <ellipse id="Oval-Copy" stroke="#40FF00" stroke-width="0.9" fill="#444444" cx="16.2849595" cy="15.0760979" rx="4.56764962" ry="3.13087475"></ellipse>
                <circle id="Oval-Copy-2" fill="#40FF00" cx="39.3111318" cy="15.2948191" r="1.82556818"></circle>
                <circle id="Oval-Copy-3" fill="#00A5FF" cx="53.5099954" cy="15.2948191" r="1.82556818"></circle>
                <circle id="Oval-Copy-4" fill="#FF0000" opacity="0.300000012" cx="68.1145409" cy="15.2948191" r="1.82556818"></circle>
            </g>
        </g>
        <path d="M85.290287,307.918143 L85.290287,294.439743 L89.329487,294.439743 L89.329487,292.798143 L79.587887,292.798143 L79.587887,294.439743 L83.627087,294.439743 L83.627087,307.918143 L85.290287,307.918143 Z M97.235087,307.918143 L102.095087,292.798143 L100.410287,292.798143 L96.284687,305.606943 L92.159087,292.798143 L90.474287,292.798143 L95.334287,307.918143 L97.235087,307.918143 Z M110.648687,307.918143 L110.648687,301.092543 L117.582287,301.092543 L117.582287,299.450943 L110.648687,299.450943 L110.648687,294.439743 L117.582287,294.439743 L117.582287,292.798143 L108.985487,292.798143 L108.985487,307.918143 L110.648687,307.918143 Z M121.988687,294.893343 L121.988687,292.798143 L120.368687,292.798143 L120.368687,294.893343 L121.988687,294.893343 Z M121.988687,307.918143 L121.988687,296.772543 L120.368687,296.772543 L120.368687,307.918143 L121.988687,307.918143 Z M129.591887,308.134143 C130.628687,308.134143 131.615087,307.813743 132.551087,307.172943 C133.487087,306.532143 133.955087,305.398143 133.955087,303.770943 L133.955087,300.833343 C133.955087,299.206143 133.487087,298.072143 132.551087,297.431343 C131.615087,296.790543 130.628687,296.470143 129.591887,296.470143 C129.087887,296.470143 128.573087,296.585343 128.047487,296.815743 C127.521887,297.046143 127.122287,297.384543 126.848687,297.830943 L126.848687,292.798143 L125.228687,292.798143 L125.228687,307.918143 L126.848687,307.918143 L126.848687,306.773343 C127.122287,307.219743 127.521887,307.558143 128.047487,307.788543 C128.573087,308.018943 129.087887,308.134143 129.591887,308.134143 Z M129.591887,306.578943 C128.871887,306.578943 128.234687,306.344943 127.680287,305.876943 C127.125887,305.408943 126.848687,304.714143 126.848687,303.792543 L126.848687,300.811743 C126.848687,299.890143 127.125887,299.195343 127.680287,298.727343 C128.234687,298.259343 128.871887,298.025343 129.591887,298.025343 C130.311887,298.025343 130.949087,298.259343 131.503487,298.727343 C132.057887,299.195343 132.335087,299.890143 132.335087,300.811743 L132.335087,303.792543 C132.335087,304.714143 132.057887,305.408943 131.503487,305.876943 C130.949087,306.344943 130.311887,306.578943 129.591887,306.578943 Z M138.512687,307.918143 L138.512687,300.919743 C138.512687,299.998143 138.789887,299.303343 139.344287,298.835343 C139.898687,298.367343 140.535887,298.133343 141.255887,298.133343 L141.968687,298.133343 L141.968687,296.578143 L141.255887,296.578143 C140.751887,296.578143 140.237087,296.693343 139.711487,296.923743 C139.185887,297.154143 138.786287,297.492543 138.512687,297.938943 L138.512687,296.772543 L136.892687,296.772543 L136.892687,307.918143 L138.512687,307.918143 Z M147.001487,308.134143 C147.750287,308.134143 148.427087,308.022543 149.031887,307.799343 C149.636687,307.576143 150.119087,307.234143 150.479087,306.773343 L150.479087,307.918143 L152.099087,307.918143 L152.099087,300.833343 C152.099087,299.206143 151.631087,298.072143 150.695087,297.431343 C149.759087,296.790543 148.772687,296.470143 147.735887,296.470143 C146.771087,296.470143 145.842287,296.743743 144.949487,297.290943 C144.056687,297.838143 143.538287,298.802943 143.394287,300.185343 L145.057487,300.185343 C145.187087,299.465343 145.507487,298.925343 146.018687,298.565343 C146.529887,298.205343 147.102287,298.025343 147.735887,298.025343 C148.455887,298.025343 149.093087,298.259343 149.647487,298.727343 C150.201887,299.195343 150.479087,299.890143 150.479087,300.811743 L150.479087,301.006143 C149.543087,301.063743 148.675487,301.135743 147.876287,301.222143 C147.077087,301.308543 146.360687,301.445343 145.727087,301.632543 C144.762287,301.906143 144.117887,302.366943 143.793887,303.014943 C143.469887,303.662943 143.307887,304.267743 143.307887,304.829343 C143.307887,305.966943 143.685887,306.802143 144.441887,307.334943 C145.197887,307.867743 146.051087,308.134143 147.001487,308.134143 Z M147.347087,306.578943 C146.526287,306.578943 145.917887,306.406143 145.521887,306.060543 C145.125887,305.714943 144.927887,305.290143 144.927887,304.786143 C144.927887,304.469343 144.989087,304.181343 145.111487,303.922143 C145.233887,303.662943 145.496687,303.418143 145.899887,303.187743 C146.274287,302.986143 146.828687,302.834943 147.563087,302.734143 C148.297487,302.633343 149.269487,302.539743 150.479087,302.453343 L150.479087,303.900543 C150.479087,304.764543 150.173087,305.426943 149.561087,305.887743 C148.949087,306.348543 148.211087,306.578943 147.347087,306.578943 Z" id="TVFibra-Copy" fill="#444444" fill-rule="nonzero"></path>
        <path d="M263.590159,305.874012 C265.087759,305.874012 266.225359,305.503212 267.002959,304.761612 C267.780559,304.020012 268.169359,303.044412 268.169359,301.834812 C268.169359,300.639612 267.848959,299.696412 267.208159,299.005212 C266.567359,298.314012 265.714159,297.817212 264.648559,297.514812 L262.877359,297.018012 C262.099759,296.802012 261.530959,296.474412 261.170959,296.035212 C260.810959,295.596012 260.630959,295.030812 260.630959,294.339612 C260.630959,293.677212 260.868559,293.115612 261.343759,292.654812 C261.818959,292.194012 262.510159,291.963612 263.417359,291.963612 C264.223759,291.963612 264.860959,292.183212 265.328959,292.622412 C265.796959,293.061612 266.110159,293.641212 266.268559,294.361212 L267.974959,294.361212 C267.816559,293.079612 267.341359,292.086012 266.549359,291.380412 C265.757359,290.674812 264.713359,290.322012 263.417359,290.322012 C262.207759,290.322012 261.160159,290.667612 260.274559,291.358812 C259.388959,292.050012 258.946159,293.043612 258.946159,294.339612 C258.946159,295.246812 259.194559,296.110812 259.691359,296.931612 C260.188159,297.752412 260.998159,298.321212 262.121359,298.638012 L264.043759,299.178012 C264.893359,299.408412 265.512559,299.739612 265.901359,300.171612 C266.290159,300.603612 266.484559,301.158012 266.484559,301.834812 C266.484559,302.626812 266.214559,303.224412 265.674559,303.627612 C265.134559,304.030812 264.439759,304.232412 263.590159,304.232412 C262.783759,304.232412 262.081759,303.966012 261.484159,303.433212 C260.886559,302.900412 260.522959,302.151612 260.393359,301.186812 L258.686959,301.186812 C258.787759,302.626812 259.288159,303.768012 260.188159,304.610412 C261.088159,305.452812 262.222159,305.874012 263.590159,305.874012 Z M273.979759,305.658012 L276.463759,296.910012 L278.947759,305.658012 L280.632559,305.658012 L283.570159,294.512412 L281.885359,294.512412 L279.725359,303.195612 L277.262959,294.512412 L275.664559,294.512412 L273.202159,303.195612 L271.042159,294.512412 L269.357359,294.512412 L272.294959,305.658012 L273.979759,305.658012 Z M287.090959,292.633212 L287.090959,290.538012 L285.470959,290.538012 L285.470959,292.633212 L287.090959,292.633212 Z M287.090959,305.658012 L287.090959,294.512412 L285.470959,294.512412 L285.470959,305.658012 L287.090959,305.658012 Z M295.212559,305.658012 L295.212559,304.102812 L293.506159,304.102812 C293.117359,304.102812 292.847359,304.030812 292.696159,303.886812 C292.544959,303.742812 292.469359,303.490812 292.469359,303.130812 L292.469359,303.130812 L292.469359,296.067612 L295.212559,296.067612 L295.212559,294.512412 L292.469359,294.512412 L292.469359,291.985212 L290.849359,291.985212 L290.849359,294.512412 L289.272559,294.512412 L289.272559,296.067612 L290.849359,296.067612 L290.849359,303.001212 C290.849359,303.951612 291.032959,304.632012 291.400159,305.042412 C291.767359,305.452812 292.469359,305.658012 293.506159,305.658012 L293.506159,305.658012 L295.212559,305.658012 Z M301.757359,305.874012 C302.736559,305.874012 303.676159,305.593212 304.576159,305.031612 C305.476159,304.470012 305.983759,303.476412 306.098959,302.050812 L304.457359,302.050812 C304.356559,302.799612 304.043359,303.364812 303.517759,303.746412 C302.992159,304.128012 302.405359,304.318812 301.757359,304.318812 C301.037359,304.318812 300.400159,304.084812 299.845759,303.616812 C299.291359,303.148812 299.014159,302.454012 299.014159,301.532412 L299.014159,298.551612 C299.014159,297.630012 299.291359,296.935212 299.845759,296.467212 C300.400159,295.999212 301.037359,295.765212 301.757359,295.765212 C302.405359,295.765212 302.992159,295.956012 303.517759,296.337612 C304.043359,296.719212 304.356559,297.284412 304.457359,298.033212 L306.098959,298.033212 C305.983759,296.607612 305.476159,295.614012 304.576159,295.052412 C303.676159,294.490812 302.736559,294.210012 301.757359,294.210012 C300.720559,294.210012 299.734159,294.530412 298.798159,295.171212 C297.862159,295.812012 297.394159,296.946012 297.394159,298.573212 L297.394159,301.510812 C297.394159,303.152412 297.862159,304.290012 298.798159,304.923612 C299.734159,305.557212 300.720559,305.874012 301.757359,305.874012 Z M310.440559,305.658012 L310.440559,298.551612 C310.440559,297.630012 310.717759,296.935212 311.272159,296.467212 C311.826559,295.999212 312.463759,295.765212 313.183759,295.765212 C313.903759,295.765212 314.540959,295.999212 315.095359,296.467212 C315.649759,296.935212 315.926959,297.630012 315.926959,298.551612 L315.926959,305.658012 L317.546959,305.658012 L317.546959,298.573212 C317.546959,296.946012 317.078959,295.812012 316.142959,295.171212 C315.206959,294.530412 314.220559,294.210012 313.183759,294.210012 C312.679759,294.210012 312.164959,294.325212 311.639359,294.555612 C311.113759,294.786012 310.714159,295.124412 310.440559,295.570812 L310.440559,290.538012 L308.820559,290.538012 L308.820559,305.658012 L310.440559,305.658012 Z M329.556559,305.874012 C330.593359,305.874012 331.579759,305.553612 332.515759,304.912812 C333.451759,304.272012 333.919759,303.138012 333.919759,301.510812 L333.919759,298.573212 C333.919759,296.946012 333.451759,295.812012 332.515759,295.171212 C331.579759,294.530412 330.593359,294.210012 329.556559,294.210012 C328.519759,294.210012 327.533359,294.530412 326.597359,295.171212 C325.661359,295.812012 325.193359,296.946012 325.193359,298.573212 L325.193359,301.510812 C325.193359,303.138012 325.661359,304.272012 326.597359,304.912812 C327.533359,305.553612 328.519759,305.874012 329.556559,305.874012 Z M329.556559,304.318812 C328.836559,304.318812 328.199359,304.084812 327.644959,303.616812 C327.090559,303.148812 326.813359,302.454012 326.813359,301.532412 L326.813359,298.551612 C326.813359,297.630012 327.090559,296.935212 327.644959,296.467212 C328.199359,295.999212 328.836559,295.765212 329.556559,295.765212 C330.276559,295.765212 330.913759,295.999212 331.468159,296.467212 C332.022559,296.935212 332.299759,297.630012 332.299759,298.551612 L332.299759,301.532412 C332.299759,302.454012 332.022559,303.148812 331.468159,303.616812 C330.913759,304.084812 330.276559,304.318812 329.556559,304.318812 Z M341.004559,305.874012 C341.479759,305.874012 341.976559,305.758812 342.494959,305.528412 C343.013359,305.298012 343.409359,304.959612 343.682959,304.513212 L343.682959,305.658012 L345.302959,305.658012 L345.302959,294.512412 L343.682959,294.512412 L343.682959,301.532412 C343.682959,302.439612 343.405759,303.130812 342.851359,303.606012 C342.296959,304.081212 341.681359,304.318812 341.004559,304.318812 C340.342159,304.318812 339.730159,304.092012 339.168559,303.638412 C338.606959,303.184812 338.326159,302.461212 338.326159,301.467612 L338.326159,294.512412 L336.706159,294.512412 L336.706159,301.575612 C336.706159,303.217212 337.195759,304.344012 338.174959,304.956012 C339.154159,305.568012 340.097359,305.874012 341.004559,305.874012 Z M355.174159,305.658012 L355.174159,298.832412 L361.610959,298.832412 L361.610959,305.658012 L363.274159,305.658012 L363.274159,290.538012 L361.610959,290.538012 L361.610959,297.190812 L355.174159,297.190812 L355.174159,290.538012 L353.510959,290.538012 L353.510959,305.658012 L355.174159,305.658012 Z M370.769359,305.874012 C371.244559,305.874012 371.741359,305.758812 372.259759,305.528412 C372.778159,305.298012 373.174159,304.959612 373.447759,304.513212 L373.447759,305.658012 L375.067759,305.658012 L375.067759,294.512412 L373.447759,294.512412 L373.447759,301.532412 C373.447759,302.439612 373.170559,303.130812 372.616159,303.606012 C372.061759,304.081212 371.446159,304.318812 370.769359,304.318812 C370.106959,304.318812 369.494959,304.092012 368.933359,303.638412 C368.371759,303.184812 368.090959,302.461212 368.090959,301.467612 L368.090959,294.512412 L366.470959,294.512412 L366.470959,301.575612 C366.470959,303.217212 366.960559,304.344012 367.939759,304.956012 C368.918959,305.568012 369.862159,305.874012 370.769359,305.874012 Z M382.670959,305.874012 C383.707759,305.874012 384.694159,305.553612 385.630159,304.912812 C386.566159,304.272012 387.034159,303.138012 387.034159,301.510812 L387.034159,298.573212 C387.034159,296.946012 386.566159,295.812012 385.630159,295.171212 C384.694159,294.530412 383.707759,294.210012 382.670959,294.210012 C382.166959,294.210012 381.652159,294.325212 381.126559,294.555612 C380.600959,294.786012 380.201359,295.124412 379.927759,295.570812 L379.927759,290.538012 L378.307759,290.538012 L378.307759,305.658012 L379.927759,305.658012 L379.927759,304.513212 C380.201359,304.959612 380.600959,305.298012 381.126559,305.528412 C381.652159,305.758812 382.166959,305.874012 382.670959,305.874012 Z M382.670959,304.318812 C381.950959,304.318812 381.313759,304.084812 380.759359,303.616812 C380.204959,303.148812 379.927759,302.454012 379.927759,301.532412 L379.927759,298.551612 C379.927759,297.630012 380.204959,296.935212 380.759359,296.467212 C381.313759,295.999212 381.950959,295.765212 382.670959,295.765212 C383.390959,295.765212 384.028159,295.999212 384.582559,296.467212 C385.136959,296.935212 385.414159,297.630012 385.414159,298.551612 L385.414159,301.532412 C385.414159,302.454012 385.136959,303.148812 384.582559,303.616812 C384.028159,304.084812 383.390959,304.318812 382.670959,304.318812 Z" id="SwitchouHub-Copy" fill="#444444" fill-rule="nonzero"></path>
        <path d="M439.621467,305.658012 L439.621467,294.037212 L443.228667,301.597212 L444.783867,301.597212 L448.391067,294.037212 L448.391067,305.658012 L450.032667,305.658012 L450.032667,290.538012 L448.369467,290.538012 L444.006267,299.696412 L439.643067,290.538012 L437.979867,290.538012 L437.979867,305.658012 L439.621467,305.658012 Z M457.441467,305.874012 C458.478267,305.874012 459.464667,305.553612 460.400667,304.912812 C461.336667,304.272012 461.804667,303.138012 461.804667,301.510812 L461.804667,298.573212 C461.804667,296.946012 461.336667,295.812012 460.400667,295.171212 C459.464667,294.530412 458.478267,294.210012 457.441467,294.210012 C456.404667,294.210012 455.418267,294.530412 454.482267,295.171212 C453.546267,295.812012 453.078267,296.946012 453.078267,298.573212 L453.078267,301.510812 C453.078267,303.138012 453.546267,304.272012 454.482267,304.912812 C455.418267,305.553612 456.404667,305.874012 457.441467,305.874012 Z M457.441467,304.318812 C456.721467,304.318812 456.084267,304.084812 455.529867,303.616812 C454.975467,303.148812 454.698267,302.454012 454.698267,301.532412 L454.698267,298.551612 C454.698267,297.630012 454.975467,296.935212 455.529867,296.467212 C456.084267,295.999212 456.721467,295.765212 457.441467,295.765212 C458.161467,295.765212 458.798667,295.999212 459.353067,296.467212 C459.907467,296.935212 460.184667,297.630012 460.184667,298.551612 L460.184667,301.532412 C460.184667,302.454012 459.907467,303.148812 459.353067,303.616812 C458.798667,304.084812 458.161467,304.318812 457.441467,304.318812 Z M468.803067,305.874012 C469.307067,305.874012 469.821867,305.758812 470.347467,305.528412 C470.873067,305.298012 471.272667,304.959612 471.546267,304.513212 L471.546267,304.513212 L471.546267,305.658012 L473.166267,305.658012 L473.166267,290.538012 L471.546267,290.538012 L471.546267,295.570812 C471.272667,295.124412 470.873067,294.786012 470.347467,294.555612 C469.821867,294.325212 469.307067,294.210012 468.803067,294.210012 C467.766267,294.210012 466.779867,294.530412 465.843867,295.171212 C464.907867,295.812012 464.439867,296.946012 464.439867,298.573212 L464.439867,298.573212 L464.439867,301.510812 C464.439867,303.138012 464.907867,304.272012 465.843867,304.912812 C466.779867,305.553612 467.766267,305.874012 468.803067,305.874012 Z M468.803067,304.318812 C468.083067,304.318812 467.445867,304.084812 466.891467,303.616812 C466.337067,303.148812 466.059867,302.454012 466.059867,301.532412 L466.059867,301.532412 L466.059867,298.551612 C466.059867,297.630012 466.337067,296.935212 466.891467,296.467212 C467.445867,295.999212 468.083067,295.765212 468.803067,295.765212 C469.523067,295.765212 470.160267,295.999212 470.714667,296.467212 C471.269067,296.935212 471.546267,297.630012 471.546267,298.551612 L471.546267,298.551612 L471.546267,301.532412 C471.546267,302.454012 471.269067,303.148812 470.714667,303.616812 C470.160267,304.084812 469.523067,304.318812 468.803067,304.318812 Z M480.467067,305.874012 C481.431867,305.874012 482.360667,305.600412 483.253467,305.053212 C484.146267,304.506012 484.664667,303.541212 484.808667,302.158812 L483.145467,302.158812 C483.015867,302.878812 482.695467,303.418812 482.184267,303.778812 C481.673067,304.138812 481.100667,304.318812 480.467067,304.318812 C479.747067,304.318812 479.109867,304.084812 478.555467,303.616812 C478.001067,303.148812 477.723867,302.454012 477.723867,301.532412 L477.723867,300.452412 L484.830267,300.452412 L484.830267,298.573212 C484.830267,296.946012 484.362267,295.812012 483.426267,295.171212 C482.490267,294.530412 481.503867,294.210012 480.467067,294.210012 C479.430267,294.210012 478.443867,294.530412 477.507867,295.171212 C476.571867,295.812012 476.103867,296.946012 476.103867,298.573212 L476.103867,301.510812 C476.103867,303.138012 476.571867,304.272012 477.507867,304.912812 C478.443867,305.553612 479.430267,305.874012 480.467067,305.874012 Z M483.210267,298.962012 L477.723867,298.962012 L477.723867,298.551612 C477.723867,297.630012 478.001067,296.935212 478.555467,296.467212 C479.109867,295.999212 479.747067,295.765212 480.467067,295.765212 C481.187067,295.765212 481.824267,295.999212 482.378667,296.467212 C482.933067,296.935212 483.210267,297.630012 483.210267,298.551612 L483.210267,298.962012 Z M489.279867,305.658012 L489.279867,298.551612 C489.279867,297.658812 489.546267,296.971212 490.079067,296.488812 C490.611867,296.006412 491.209467,295.765212 491.871867,295.765212 C492.505467,295.765212 493.092267,296.002812 493.632267,296.478012 C494.172267,296.953212 494.442267,297.601212 494.442267,298.422012 L494.442267,305.658012 L496.062267,305.658012 L496.062267,298.551612 C496.062267,297.658812 496.328667,296.971212 496.861467,296.488812 C497.394267,296.006412 497.991867,295.765212 498.654267,295.765212 C499.287867,295.765212 499.874667,296.002812 500.414667,296.478012 C500.954667,296.953212 501.224667,297.601212 501.224667,298.422012 L501.224667,305.658012 L502.844667,305.658012 L502.844667,298.573212 C502.844667,297.003612 502.391067,295.884012 501.483867,295.214412 C500.576667,294.544812 499.626267,294.210012 498.632667,294.210012 C498.013467,294.210012 497.387067,294.346812 496.753467,294.620412 C496.119867,294.894012 495.615867,295.340412 495.241467,295.959612 C494.867067,295.340412 494.366667,294.894012 493.740267,294.620412 C493.113867,294.346812 492.491067,294.210012 491.871867,294.210012 C491.468667,294.210012 491.004267,294.325212 490.478667,294.555612 C489.953067,294.786012 489.553467,295.124412 489.279867,295.570812 L489.279867,294.512412 L487.659867,294.512412 L487.659867,305.658012 L489.279867,305.658012 Z M514.854267,305.874012 C515.358267,305.874012 515.873067,305.758812 516.398667,305.528412 C516.924267,305.298012 517.323867,304.959612 517.597467,304.513212 L517.597467,304.513212 L517.597467,305.658012 L519.217467,305.658012 L519.217467,290.538012 L517.597467,290.538012 L517.597467,295.570812 C517.323867,295.124412 516.924267,294.786012 516.398667,294.555612 C515.873067,294.325212 515.358267,294.210012 514.854267,294.210012 C513.817467,294.210012 512.831067,294.530412 511.895067,295.171212 C510.959067,295.812012 510.491067,296.946012 510.491067,298.573212 L510.491067,298.573212 L510.491067,301.510812 C510.491067,303.138012 510.959067,304.272012 511.895067,304.912812 C512.831067,305.553612 513.817467,305.874012 514.854267,305.874012 Z M514.854267,304.318812 C514.134267,304.318812 513.497067,304.084812 512.942667,303.616812 C512.388267,303.148812 512.111067,302.454012 512.111067,301.532412 L512.111067,301.532412 L512.111067,298.551612 C512.111067,297.630012 512.388267,296.935212 512.942667,296.467212 C513.497067,295.999212 514.134267,295.765212 514.854267,295.765212 C515.574267,295.765212 516.211467,295.999212 516.765867,296.467212 C517.320267,296.935212 517.597467,297.630012 517.597467,298.551612 L517.597467,298.551612 L517.597467,301.532412 C517.597467,302.454012 517.320267,303.148812 516.765867,303.616812 C516.211467,304.084812 515.574267,304.318812 514.854267,304.318812 Z M526.518267,305.874012 C527.483067,305.874012 528.411867,305.600412 529.304667,305.053212 C530.197467,304.506012 530.715867,303.541212 530.859867,302.158812 L529.196667,302.158812 C529.067067,302.878812 528.746667,303.418812 528.235467,303.778812 C527.724267,304.138812 527.151867,304.318812 526.518267,304.318812 C525.798267,304.318812 525.161067,304.084812 524.606667,303.616812 C524.052267,303.148812 523.775067,302.454012 523.775067,301.532412 L523.775067,300.452412 L530.881467,300.452412 L530.881467,298.573212 C530.881467,296.946012 530.413467,295.812012 529.477467,295.171212 C528.541467,294.530412 527.555067,294.210012 526.518267,294.210012 C525.481467,294.210012 524.495067,294.530412 523.559067,295.171212 C522.623067,295.812012 522.155067,296.946012 522.155067,298.573212 L522.155067,301.510812 C522.155067,303.138012 522.623067,304.272012 523.559067,304.912812 C524.495067,305.553612 525.481467,305.874012 526.518267,305.874012 Z M529.261467,298.962012 L523.775067,298.962012 L523.775067,298.551612 C523.775067,297.630012 524.052267,296.935212 524.606667,296.467212 C525.161067,295.999212 525.798267,295.765212 526.518267,295.765212 C527.238267,295.765212 527.875467,295.999212 528.429867,296.467212 C528.984267,296.935212 529.261467,297.630012 529.261467,298.551612 L529.261467,298.962012 Z M540.342267,305.658012 L540.342267,298.832412 L547.275867,298.832412 L547.275867,297.190812 L540.342267,297.190812 L540.342267,292.179612 L547.275867,292.179612 L547.275867,290.538012 L538.679067,290.538012 L538.679067,305.658012 L540.342267,305.658012 Z M551.682267,292.633212 L551.682267,290.538012 L550.062267,290.538012 L550.062267,292.633212 L551.682267,292.633212 Z M551.682267,305.658012 L551.682267,294.512412 L550.062267,294.512412 L550.062267,305.658012 L551.682267,305.658012 Z M559.285467,305.874012 C560.322267,305.874012 561.308667,305.553612 562.244667,304.912812 C563.180667,304.272012 563.648667,303.138012 563.648667,301.510812 L563.648667,298.573212 C563.648667,296.946012 563.180667,295.812012 562.244667,295.171212 C561.308667,294.530412 560.322267,294.210012 559.285467,294.210012 C558.781467,294.210012 558.266667,294.325212 557.741067,294.555612 C557.215467,294.786012 556.815867,295.124412 556.542267,295.570812 L556.542267,290.538012 L554.922267,290.538012 L554.922267,305.658012 L556.542267,305.658012 L556.542267,304.513212 C556.815867,304.959612 557.215467,305.298012 557.741067,305.528412 C558.266667,305.758812 558.781467,305.874012 559.285467,305.874012 Z M559.285467,304.318812 C558.565467,304.318812 557.928267,304.084812 557.373867,303.616812 C556.819467,303.148812 556.542267,302.454012 556.542267,301.532412 L556.542267,298.551612 C556.542267,297.630012 556.819467,296.935212 557.373867,296.467212 C557.928267,295.999212 558.565467,295.765212 559.285467,295.765212 C560.005467,295.765212 560.642667,295.999212 561.197067,296.467212 C561.751467,296.935212 562.028667,297.630012 562.028667,298.551612 L562.028667,301.532412 C562.028667,302.454012 561.751467,303.148812 561.197067,303.616812 C560.642667,304.084812 560.005467,304.318812 559.285467,304.318812 Z M568.206267,305.658012 L568.206267,298.659612 C568.206267,297.738012 568.483467,297.043212 569.037867,296.575212 C569.592267,296.107212 570.229467,295.873212 570.949467,295.873212 L571.662267,295.873212 L571.662267,294.318012 L570.949467,294.318012 C570.445467,294.318012 569.930667,294.433212 569.405067,294.663612 C568.879467,294.894012 568.479867,295.232412 568.206267,295.678812 L568.206267,294.512412 L566.586267,294.512412 L566.586267,305.658012 L568.206267,305.658012 Z M576.695067,305.874012 C577.443867,305.874012 578.120667,305.762412 578.725467,305.539212 C579.330267,305.316012 579.812667,304.974012 580.172667,304.513212 L580.172667,305.658012 L581.792667,305.658012 L581.792667,298.573212 C581.792667,296.946012 581.324667,295.812012 580.388667,295.171212 C579.452667,294.530412 578.466267,294.210012 577.429467,294.210012 C576.464667,294.210012 575.535867,294.483612 574.643067,295.030812 C573.750267,295.578012 573.231867,296.542812 573.087867,297.925212 L574.751067,297.925212 C574.880667,297.205212 575.201067,296.665212 575.712267,296.305212 C576.223467,295.945212 576.795867,295.765212 577.429467,295.765212 C578.149467,295.765212 578.786667,295.999212 579.341067,296.467212 C579.895467,296.935212 580.172667,297.630012 580.172667,298.551612 L580.172667,298.746012 C579.236667,298.803612 578.369067,298.875612 577.569867,298.962012 C576.770667,299.048412 576.054267,299.185212 575.420667,299.372412 C574.455867,299.646012 573.811467,300.106812 573.487467,300.754812 C573.163467,301.402812 573.001467,302.007612 573.001467,302.569212 C573.001467,303.706812 573.379467,304.542012 574.135467,305.074812 C574.891467,305.607612 575.744667,305.874012 576.695067,305.874012 Z M577.040667,304.318812 C576.219867,304.318812 575.611467,304.146012 575.215467,303.800412 C574.819467,303.454812 574.621467,303.030012 574.621467,302.526012 C574.621467,302.209212 574.682667,301.921212 574.805067,301.662012 C574.927467,301.402812 575.190267,301.158012 575.593467,300.927612 C575.967867,300.726012 576.522267,300.574812 577.256667,300.474012 C577.991067,300.373212 578.963067,300.279612 580.172667,300.193212 L580.172667,301.640412 C580.172667,302.504412 579.866667,303.166812 579.254667,303.627612 C578.642667,304.088412 577.904667,304.318812 577.040667,304.318812 Z" id="ModemdeFibra-Copy" fill="#444444" fill-rule="nonzero"></path>
        <g id="-Connections" transform="translate(-20929.701232, -11548.000000)"></g>
    </g>
</svg>