<?xml version="1.0" encoding="UTF-8"?>
<svg width="612px" height="341px" viewBox="0 0 612 341" version="1.1" xmlns="http://www.w3.org/2000/svg" xmlns:xlink="http://www.w3.org/1999/xlink">
    <title>microfiltro-00 copy 3</title>
    <defs>
        <polygon id="path-1" points="119.457855 85.2049 119.457855 0.00535384615 0.371158046 0.00535384615 0.371158046 85.2049 119.457855 85.2049"></polygon>
        <linearGradient x1="50%" y1="0%" x2="50%" y2="100%" id="linearGradient-3">
            <stop stop-color="#0D094F" offset="0%"></stop>
            <stop stop-color="#3177D7" offset="100%"></stop>
        </linearGradient>
        <radialGradient cx="50%" cy="50%" fx="50%" fy="50%" r="47.4912074%" id="radialGradient-4">
            <stop stop-color="#40FF00" offset="0%"></stop>
            <stop stop-color="#76FF00" stop-opacity="0" offset="100%"></stop>
        </radialGradient>
        <radialGradient cx="49.9687414%" cy="49.887506%" fx="49.9687414%" fy="49.887506%" r="47.3744513%" id="radialGradient-5">
            <stop stop-color="#00FDFF" offset="0%"></stop>
            <stop stop-color="#00ECFF" stop-opacity="0" offset="100%"></stop>
        </radialGradient>
    </defs>
    <g id="Page-1" stroke="none" stroke-width="1" fill="none" fill-rule="evenodd">
        <g id="Group-4-Copy" transform="translate(3.620061, 30.500000)">
            <path d="M493.108299,145.300798 C486.188414,144.938142 489.936203,145.296088 480.208392,144.624743 C471.853914,144.048175 450.965265,142.424247 434.552422,142.232015 C378.228584,141.572331 371.986756,179.925012 371.986756,171.915046" id="Path-4-Copy-6" stroke="#000000" stroke-width="4.5" stroke-linejoin="round" transform="translate(432.547528, 157.619714) rotate(88.000000) translate(-432.547528, -157.619714) "></path>
            <path d="M570.938834,147.479543 C564.018949,147.20866 567.766738,147.476025 558.038927,146.974569 C549.68445,146.543907 528.795801,145.330928 512.382957,145.187341 C456.05912,144.694596 449.817292,173.341807 449.817292,167.35883" id="Path-4-Copy-7" stroke="#000000" stroke-width="4.5" stroke-linejoin="round" transform="translate(510.378063, 156.681053) scale(1, -1) rotate(-88.000000) translate(-510.378063, -156.681053) "></path>
            <path d="M418.460666,208.272841 C419.426096,220.804392 400.42432,221.099547 368.182066,220.708068 C317.061023,220.087366 311.395771,256.173752 311.395771,248.637101" id="Path-4-Copy-4" stroke="#000000" stroke-width="4.5" stroke-linejoin="round" transform="translate(364.945771, 228.972841) scale(1, -1) rotate(-165.000000) translate(-364.945771, -228.972841) "></path>
            <path d="M242.679166,211.830052 C243.466113,224.361604 227.97727,224.656758 201.695769,224.265279 C160.025676,223.644577 155.407781,259.730963 155.407781,252.194313" id="Path-4-Copy-5" stroke="#000000" stroke-width="4.5" stroke-linejoin="round" transform="translate(199.057781, 232.530052) scale(-1, -1) rotate(204.000000) translate(-199.057781, -232.530052) "></path>
            <g id="Group-36" transform="translate(401.508442, 163.684059)" fill-rule="nonzero">
                <path d="M6.98738233,86.098529 C6.33622385,86.098529 5.8033519,86.0269861 5.8033519,85.9395382 L5.8033519,82.0017281 C5.8033519,81.9142802 6.33622385,81.8427372 6.98738233,81.8427372 L36.9247928,81.8427372 C37.5759512,81.8427372 38.1086775,81.9142802 38.1086775,82.0017281 L38.1086775,85.9395382 C38.1086775,86.0269861 37.5759512,86.098529 36.9247928,86.098529 L6.98738233,86.098529 Z" id="Fill-48-Copy" fill="#2B2B2B" transform="translate(21.956015, 83.970633) scale(-1, 1) rotate(-180.000000) translate(-21.956015, -83.970633) "></path>
                <path d="M117.057623,86.098529 C116.406465,86.098529 115.873593,86.0269861 115.873593,85.9395382 L115.873593,82.0017281 C115.873593,81.9142802 116.406465,81.8427372 117.057623,81.8427372 L146.995034,81.8427372 C147.646192,81.8427372 148.178919,81.9142802 148.178919,82.0017281 L148.178919,85.9395382 C148.178919,86.0269861 147.646192,86.098529 146.995034,86.098529 L117.057623,86.098529 Z" id="Fill-48-Copy-2" fill="#2B2B2B" transform="translate(132.026256, 83.970633) scale(-1, 1) rotate(-180.000000) translate(-132.026256, -83.970633) "></path>
                <path d="M5.71454194,84.1640781 C2.5718251,84.1640781 -4.48879643e-13,82.749221 -4.48879643e-13,81.0198223 L-4.48879643e-13,3.14425606 C-4.48879643e-13,1.4148572 2.5718251,2.11237479e-13 5.71454194,2.11237479e-13 L150.202882,2.11237479e-13 C153.345599,2.11237479e-13 155.916721,1.4148572 155.916721,3.14425606 L155.916721,81.0198223 C155.916721,82.749221 153.345599,84.1640781 150.202882,84.1640781 L5.71454194,84.1640781 Z" id="Fill-48" fill="#444444"></path>
                <rect id="Rectangle" fill="#C1C1C1" x="0" y="56.0829498" width="156.077419" height="5.57419355"></rect>
                <path d="M68.1188313,36.3636885 C71.3231654,23.7900276 68.8822081,16.7024288 77.3516157,20.5625864 C81.9969968,22.6813037 87.5528005,27.9304121 87.8594956,33.3900059 C88.2855078,40.9120195 64.9287816,48.8806318 68.1188313,36.3636885 Z" id="Clip-14" fill="#C1C1C1"></path>
                <path d="M76.2500339,34.8121471 C75.4454843,34.8121471 75.0001461,33.9857508 75.0001461,33.1475907 C75.0001461,32.310271 75.4454843,31.5065616 76.2500339,31.5065616 C77.0524828,31.5065616 77.4965606,32.310271 77.4965606,33.1475907 C77.4965606,33.9857508 77.0524828,34.8121471 76.2500339,34.8121471 Z M76.2500339,30.0277028 C74.4955696,30.0277028 73.3284475,31.4162336 73.3284475,33.1572537 C73.3284475,34.9003745 74.4955696,36.2876449 76.2500339,36.2876449 C78.0002969,36.2876449 79.1661586,34.9003745 79.1661586,33.1572537 C79.1661586,31.4162336 78.0002969,30.0277028 76.2500339,30.0277028 Z M81.0092704,30.0310639 C80.4206678,30.0310639 79.9408789,31.4326187 79.9408789,33.1606148 C79.9408789,34.8894511 80.4206678,36.2897456 81.0092704,36.2897456 C81.5987133,36.2897456 82.0764015,34.8894511 82.0764015,33.1606148 C82.0764015,31.4326187 81.5987133,30.0310639 81.0092704,30.0310639 Z M80.9958262,29.2550831 C81.5760262,29.2550831 82.0436313,28.7849572 82.0436313,28.2055975 C82.0436313,27.6279183 81.5760262,27.1586327 80.9958262,27.1586327 C80.418147,27.1586327 79.9497017,27.6279183 79.9497017,28.2055975 C79.9497017,28.7849572 80.418147,29.2550831 80.9958262,29.2550831 L80.9958262,29.2550831 Z" id="Fill-16" fill="#444444"></path>
            </g>
            <g id="Group-Copy-2" transform="translate(206.323527, 204.472841)">
                <rect id="Rectangle-Copy-5" fill="#2B2B2B" x="121.35017" y="43.0364581" width="22.7054095" height="5.46278664" rx="2.73139332"></rect>
                <rect id="Rectangle-Copy-6" fill="#2B2B2B" x="24.6835756" y="43.0364581" width="22.7054095" height="5.46278664" rx="2.73139332"></rect>
                <rect id="Rectangle" fill="#444444" x="0" y="0" width="161.29833" height="45.7678515" rx="12.6"></rect>
                <ellipse id="Oval-Copy-2" fill="#40FF00" cx="22.1545077" cy="22.8839257" rx="2.52906789" ry="2.73139332"></ellipse>
                <ellipse id="Oval-Copy-6" fill="#40FF00" cx="44.6351111" cy="22.8839257" rx="2.52906789" ry="2.73139332"></ellipse>
                <ellipse id="Oval-Copy-7" fill="#40FF00" cx="67.1157146" cy="22.8839257" rx="2.52906789" ry="2.73139332"></ellipse>
                <ellipse id="Oval-Copy-8" fill="#40FF00" opacity="0.300000012" cx="89.596318" cy="22.8839257" rx="2.52906789" ry="2.73139332"></ellipse>
                <ellipse id="Oval-Copy-9" fill="#000000" opacity="0.544140637" cx="139.947066" cy="22.8839257" rx="4.10851339" ry="4.43719446"></ellipse>
            </g>
            <g id="Page-1" transform="translate(485.227997, 31.050000)">
                <path d="M71.395696,94.6934323 L71.395696,83.4258169 L60.0201167,83.4258169 L48.6498893,83.4258169 L48.6498893,94.6934323 C48.6498893,97.3324323 46.4199082,100.725432 43.2979348,100.096802 L43.2979348,102.610432 L60.0201167,102.610432 L76.7476505,102.610432 L76.7476505,100.096802 C73.625677,100.725432 71.395696,97.3324323 71.395696,94.6934323" id="Fill-22" fill="#444444"></path>
                <g id="Group-26" transform="translate(0.177728, 0.440800)">
                    <mask id="mask-2" fill="white">
                        <use xlink:href="#path-1"></use>
                    </mask>
                    <g id="Clip-25"></g>
                    <path d="M4.89355961,85.2049 C2.40623875,85.2049 0.371158046,83.1691 0.371158046,80.6809 L0.371158046,4.52913077 C0.371158046,2.04093077 2.40623875,0.00513076923 4.89355961,0.00513076923 L114.935542,0.00513076923 C117.422863,0.00513076923 119.457944,2.04093077 119.457944,4.52913077 L119.457944,80.6809 C119.457944,83.1691 117.422863,85.2049 114.935542,85.2049 L4.89355961,85.2049 Z" id="Fill-24" fill="#444444" mask="url(#mask-2)"></path>
                </g>
                <path d="M0.482298625,66.9179015 L0.482298625,81.1216554 C0.482298625,83.6098554 2.51158138,85.6563631 4.99890224,85.6563631 L115.040885,85.6563631 C117.528206,85.6563631 119.563287,83.6098554 119.563287,81.1216554 L119.563287,66.9179015 L0.482298625,66.9179015 Z" id="Fill-27" fill="#D1DDE8"></path>
                <polygon id="Fill-29" fill="#6F7B84" points="6.57821942 60.6385538 113.605714 60.6385538 113.605714 6.10070769 6.57821942 6.10070769"></polygon>
                <polygon id="Fill-31" fill="#626E78" points="46.8798195 6.18016769 100.469386 60.6716138 113.319429 60.6716138 113.319429 6.10075231"></polygon>
                <path d="M62.5103365,76.2209231 C62.5103365,77.5397538 61.4417296,78.6087385 60.1233648,78.6087385 C58.805446,78.6087385 57.7368391,77.5397538 57.7368391,76.2209231 C57.7368391,74.9020923 58.805446,73.8331077 60.1233648,73.8331077 C61.4417296,73.8331077 62.5103365,74.9020923 62.5103365,76.2209231" id="Fill-32" fill="#495361"></path>
            </g>
            <g id="Group-2" transform="translate(0.000000, 154.068143)">
                <g id="Group-42">
                    <g id="Group-Copy" transform="translate(0.417421, 0.459498)">
                        <path d="M14.1576111,83.8357145 L16.6107361,81.9255631 C17.3957693,81.3142888 18.5277003,81.4551482 19.1389746,82.2401814 C19.4729579,82.6691017 19.5954017,83.225899 19.4721743,83.7553633 L14.4928872,105.149586 C14.3462306,105.779717 14.0507467,106.365544 13.6311742,106.85802 L13.4327631,107.090906 C13.26256,107.290683 12.962632,107.314657 12.7628551,107.144454 C12.6568796,107.054167 12.5958277,106.921948 12.5958277,106.782726 L12.5958277,87.0312236 C12.5958277,85.7822143 13.1721245,84.603074 14.1576111,83.8357145 Z" id="Rectangle-Copy-2" fill="#929292" transform="translate(16.610736, 93.436288) rotate(49.000000) translate(-16.610736, -93.436288) "></path>
                        <path d="M134.538433,82.7023032 L136.991558,80.7921518 C137.776591,80.1808774 138.908522,80.3217368 139.519796,81.1067701 C139.853779,81.5356903 139.976223,82.0924877 139.852996,82.621952 L134.873709,104.016175 C134.727052,104.646306 134.431568,105.232133 134.011996,105.724609 L133.813585,105.957495 C133.643382,106.157272 133.343454,106.181246 133.143677,106.011043 C133.037701,105.920755 132.976649,105.788536 132.976649,105.649315 L132.976649,85.8978123 C132.976649,84.6488029 133.552946,83.4696627 134.538433,82.7023032 Z" id="Rectangle-Copy-3" fill="#929292" transform="translate(136.991558, 92.302877) scale(-1, 1) rotate(49.000000) translate(-136.991558, -92.302877) "></path>
                        <rect id="Rectangle" stroke="#979797" stroke-width="0.81" fill="#000000" x="0.405" y="0.405" width="153.817961" height="91.0890888" rx="4.05"></rect>
                        <rect id="Rectangle-Copy" fill="url(#linearGradient-3)" x="1.33794417" y="1.29071754" width="151.952073" height="89.3176537"></rect>
                    </g>
                    <path d="M73.8302229,31.9616141 L63.0162452,31.9616141 L63.0162452,64.5682273 L57.1426633,64.5682273 L57.1426633,31.9616141 L46.3286856,31.9616141 L46.3286856,26.1429256 L73.8302229,26.1429256 L73.8302229,31.9616141 Z M95.4581784,64.5682273 L89.4199168,64.5682273 L75.9710612,26.1429256 L82.0093229,26.1429256 L92.4390476,56.1146609 L102.868772,26.1429256 L108.907034,26.1429256 L95.4581784,64.5682273 Z" id="TV" fill="#FFFFFF" fill-rule="nonzero" opacity="0.300000012"></path>
                </g>
                <g id="Group" transform="translate(24.908864, 67.583794)">
                    <rect id="Rectangle-Copy-5" fill="#2B2B2B" x="123.294727" y="28.76407" width="16.3895455" height="3.65113636" rx="1.82556818"></rect>
                    <rect id="Rectangle-Copy-6" fill="#2B2B2B" x="17.8174538" y="28.76407" width="16.3895455" height="3.65113636" rx="1.82556818"></rect>
                    <rect id="Rectangle" fill="#444444" x="0" y="0" width="153.347727" height="30.5896382" rx="15.2948191"></rect>
                    <circle id="Oval-Copy-11" fill="url(#radialGradient-4)" cx="39.2412869" cy="15.3646641" r="4.4645469"></circle>
                    <circle id="Oval-Copy-12" fill="url(#radialGradient-5)" opacity="0.800000012" cx="53.5099954" cy="15.3646641" r="4.4645469"></circle>
                    <ellipse id="Oval" fill="#D8D8D8" opacity="0.200000003" cx="122.645636" cy="15.2948191" rx="10.5477273" ry="7.22989189"></ellipse>
                    <line x1="111.805909" y1="9.90143318" x2="135.741136" y2="21.2605241" id="Line" stroke="#444444" stroke-width="0.9" stroke-linecap="square"></line>
                    <line x1="111.805909" y1="20.4491605" x2="134.524091" y2="10.7127968" id="Line-Copy" stroke="#444444" stroke-width="0.9" stroke-linecap="square"></line>
                    <ellipse id="Oval-Copy-5" fill="#D8D8D8" opacity="0.200000003" cx="99.3594992" cy="15.4889045" rx="3.65113636" ry="2.71806818"></ellipse>
                    <ellipse id="Oval-Copy-10" fill="#444444" cx="122.645636" cy="15.4889045" rx="3.65113636" ry="2.71806818"></ellipse>
                    <ellipse id="Oval-Copy" stroke="#40FF00" stroke-width="0.9" fill="#444444" cx="16.2849595" cy="15.0760979" rx="4.56764962" ry="3.13087475"></ellipse>
                    <circle id="Oval-Copy-2" fill="#40FF00" cx="39.3111318" cy="15.2948191" r="1.82556818"></circle>
                    <circle id="Oval-Copy-3" fill="#00A5FF" cx="53.5099954" cy="15.2948191" r="1.82556818"></circle>
                    <circle id="Oval-Copy-4" fill="#FF0000" opacity="0.300000012" cx="68.1145409" cy="15.2948191" r="1.82556818"></circle>
                </g>
            </g>
            <g id="Group-3" transform="translate(370.752216, 0.000000)">
                <path d="M49.5669197,89.7434323 L49.5669197,78.4758169 L38.1913403,78.4758169 L26.821113,78.4758169 L26.821113,89.7434323 C26.821113,92.3824323 24.5911319,95.7754323 21.4691585,95.1468015 L21.4691585,97.6604323 L38.1913403,97.6604323 L54.9188742,97.6604323 L54.9188742,95.1468015 C51.7969007,95.7754323 49.5669197,92.3824323 49.5669197,89.7434323" id="Fill-22" fill="#222222"></path>
                <rect id="Rectangle" fill="#444444" x="11.7511511" y="95.1746941" width="52.5" height="16.8153846" rx="3"></rect>
                <path d="M6.516,18.216 C7.8984,18.216 9.0324,17.7984 9.918,16.9632 C10.8036,16.128 11.2896,14.9832 11.376,13.5288 L9.7128,13.5288 C9.6264,14.5224 9.2808,15.2784 8.676,15.7968 C8.0712,16.3152 7.3512,16.5744 6.516,16.5744 C5.6232,16.5744 4.8636,16.2792 4.2372,15.6888 C3.6108,15.0984 3.2976,14.2344 3.2976,13.0968 L3.2976,7.7832 C3.2976,6.6456 3.6108,5.7816 4.2372,5.1912 C4.8636,4.6008 5.6232,4.3056 6.516,4.3056 C7.3512,4.3056 8.0712,4.5648 8.676,5.0832 C9.2808,5.6016 9.6264,6.3576 9.7128,7.3512 L11.376,7.3512 C11.2896,5.8968 10.8036,4.752 9.918,3.9168 C9.0324,3.0816 7.8984,2.664 6.516,2.664 C5.076,2.664 3.9024,3.1212 2.9952,4.0356 C2.088,4.95 1.6344,6.1992 1.6344,7.7832 L1.6344,13.0968 C1.6344,14.6808 2.088,15.93 2.9952,16.8444 C3.9024,17.7588 5.076,18.216 6.516,18.216 Z M16.56,5.6664 L18.0504,4.1328 L19.5408,5.6664 L21.4632,5.6664 L18.7632,2.88 L17.3376,2.88 L14.6376,5.6664 L16.56,5.6664 Z M17.2512,18.216 C18,18.216 18.6768,18.1044 19.2816,17.8812 C19.8864,17.658 20.3688,17.316 20.7288,16.8552 L20.7288,18 L22.3488,18 L22.3488,10.9152 C22.3488,9.288 21.8808,8.154 20.9448,7.5132 C20.0088,6.8724 19.0224,6.552 17.9856,6.552 C17.0208,6.552 16.092,6.8256 15.1992,7.3728 C14.3064,7.92 13.788,8.8848 13.644,10.2672 L15.3072,10.2672 C15.4368,9.5472 15.7572,9.0072 16.2684,8.6472 C16.7796,8.2872 17.352,8.1072 17.9856,8.1072 C18.7056,8.1072 19.3428,8.3412 19.8972,8.8092 C20.4516,9.2772 20.7288,9.972 20.7288,10.8936 L20.7288,11.088 C19.7928,11.1456 18.9252,11.2176 18.126,11.304 C17.3268,11.3904 16.6104,11.5272 15.9768,11.7144 C15.012,11.988 14.3676,12.4488 14.0436,13.0968 C13.7196,13.7448 13.5576,14.3496 13.5576,14.9112 C13.5576,16.0488 13.9356,16.884 14.6916,17.4168 C15.4476,17.9496 16.3008,18.216 17.2512,18.216 Z M17.5968,16.6608 C16.776,16.6608 16.1676,16.488 15.7716,16.1424 C15.3756,15.7968 15.1776,15.372 15.1776,14.868 C15.1776,14.5512 15.2388,14.2632 15.3612,14.004 C15.4836,13.7448 15.7464,13.5 16.1496,13.2696 C16.524,13.068 17.0784,12.9168 17.8128,12.816 C18.5472,12.7152 19.5192,12.6216 20.7288,12.5352 L20.7288,13.9824 C20.7288,14.8464 20.4228,15.5088 19.8108,15.9696 C19.1988,16.4304 18.4608,16.6608 17.5968,16.6608 Z M27.0576,18 L27.0576,10.8936 C27.0576,10.0008 27.324,9.3132 27.8568,8.8308 C28.3896,8.3484 28.9872,8.1072 29.6496,8.1072 C30.2832,8.1072 30.87,8.3448 31.41,8.82 C31.95,9.2952 32.22,9.9432 32.22,10.764 L32.22,18 L33.84,18 L33.84,10.8936 C33.84,10.0008 34.1064,9.3132 34.6392,8.8308 C35.172,8.3484 35.7696,8.1072 36.432,8.1072 C37.0656,8.1072 37.6524,8.3448 38.1924,8.82 C38.7324,9.2952 39.0024,9.9432 39.0024,10.764 L39.0024,18 L40.6224,18 L40.6224,10.9152 C40.6224,9.3456 40.1688,8.226 39.2616,7.5564 C38.3544,6.8868 37.404,6.552 36.4104,6.552 C35.7912,6.552 35.1648,6.6888 34.5312,6.9624 C33.8976,7.236 33.3936,7.6824 33.0192,8.3016 C32.6448,7.6824 32.1444,7.236 31.518,6.9624 C30.8916,6.6888 30.2688,6.552 29.6496,6.552 C29.2464,6.552 28.782,6.6672 28.2564,6.8976 C27.7308,7.128 27.3312,7.4664 27.0576,7.9128 L27.0576,6.8544 L25.4376,6.8544 L25.4376,18 L27.0576,18 Z M47.772,18.216 C48.7368,18.216 49.6656,17.9424 50.5584,17.3952 C51.4512,16.848 51.9696,15.8832 52.1136,14.5008 L50.4504,14.5008 C50.3208,15.2208 50.0004,15.7608 49.4892,16.1208 C48.978,16.4808 48.4056,16.6608 47.772,16.6608 C47.052,16.6608 46.4148,16.4268 45.8604,15.9588 C45.306,15.4908 45.0288,14.796 45.0288,13.8744 L45.0288,12.7944 L52.1352,12.7944 L52.1352,10.9152 C52.1352,9.288 51.6672,8.154 50.7312,7.5132 C49.7952,6.8724 48.8088,6.552 47.772,6.552 C46.7352,6.552 45.7488,6.8724 44.8128,7.5132 C43.8768,8.154 43.4088,9.288 43.4088,10.9152 L43.4088,13.8528 C43.4088,15.48 43.8768,16.614 44.8128,17.2548 C45.7488,17.8956 46.7352,18.216 47.772,18.216 Z M50.5152,11.304 L45.0288,11.304 L45.0288,10.8936 C45.0288,9.972 45.306,9.2772 45.8604,8.8092 C46.4148,8.3412 47.052,8.1072 47.772,8.1072 C48.492,8.1072 49.1292,8.3412 49.6836,8.8092 C50.238,9.2772 50.5152,9.972 50.5152,10.8936 L50.5152,11.304 Z M56.5848,18 L56.5848,11.0016 C56.5848,10.08 56.862,9.3852 57.4164,8.9172 C57.9708,8.4492 58.608,8.2152 59.328,8.2152 L60.0408,8.2152 L60.0408,6.66 L59.328,6.66 C58.824,6.66 58.3092,6.7752 57.7836,7.0056 C57.258,7.236 56.8584,7.5744 56.5848,8.0208 L56.5848,6.8544 L54.9648,6.8544 L54.9648,18 L56.5848,18 Z M65.0736,18.216 C65.8224,18.216 66.4992,18.1044 67.104,17.8812 C67.7088,17.658 68.1912,17.316 68.5512,16.8552 L68.5512,18 L70.1712,18 L70.1712,10.9152 C70.1712,9.288 69.7032,8.154 68.7672,7.5132 C67.8312,6.8724 66.8448,6.552 65.808,6.552 C64.8432,6.552 63.9144,6.8256 63.0216,7.3728 C62.1288,7.92 61.6104,8.8848 61.4664,10.2672 L63.1296,10.2672 C63.2592,9.5472 63.5796,9.0072 64.0908,8.6472 C64.602,8.2872 65.1744,8.1072 65.808,8.1072 C66.528,8.1072 67.1652,8.3412 67.7196,8.8092 C68.274,9.2772 68.5512,9.972 68.5512,10.8936 L68.5512,11.088 C67.6152,11.1456 66.7476,11.2176 65.9484,11.304 C65.1492,11.3904 64.4328,11.5272 63.7992,11.7144 C62.8344,11.988 62.19,12.4488 61.866,13.0968 C61.542,13.7448 61.38,14.3496 61.38,14.9112 C61.38,16.0488 61.758,16.884 62.514,17.4168 C63.27,17.9496 64.1232,18.216 65.0736,18.216 Z M65.4192,16.6608 C64.5984,16.6608 63.99,16.488 63.594,16.1424 C63.198,15.7968 63,15.372 63,14.868 C63,14.5512 63.0612,14.2632 63.1836,14.004 C63.306,13.7448 63.5688,13.5 63.972,13.2696 C64.3464,13.068 64.9008,12.9168 65.6352,12.816 C66.3696,12.7152 67.3416,12.6216 68.5512,12.5352 L68.5512,13.9824 C68.5512,14.8464 68.2452,15.5088 67.6332,15.9696 C67.0212,16.4304 66.2832,16.6608 65.4192,16.6608 Z" id="Câmera" fill="#444444" fill-rule="nonzero"></path>
                <circle id="Oval" stroke="#444444" stroke-width="3" fill="#D1DDE8" cx="38.0011511" cy="55.9264408" r="24.8764408"></circle>
                <circle id="Oval-Copy-13" fill="#444444" cx="37.5579918" cy="55.9264408" r="16"></circle>
                <circle id="Oval-Copy-14" stroke="#C0C0C0" fill="#000000" cx="37.5579918" cy="55.9264408" r="5.5"></circle>
                <circle id="Oval-Copy-16" stroke="#C0C0C0" fill="#A0A0A0" opacity="0.300000012" cx="37.6672347" cy="55.8171979" r="3.00674085"></circle>
                <circle id="Oval-Copy-15" fill="#D2D2D2" cx="36" cy="54.3684489" r="1.55799185"></circle>
            </g>
            <path d="M56.2858354,279.418143 L56.2858354,265.939743 L60.3250354,265.939743 L60.3250354,264.298143 L50.5834354,264.298143 L50.5834354,265.939743 L54.6226354,265.939743 L54.6226354,279.418143 L56.2858354,279.418143 Z M68.2306354,279.418143 L73.0906354,264.298143 L71.4058354,264.298143 L67.2802354,277.106943 L63.1546354,264.298143 L61.4698354,264.298143 L66.3298354,279.418143 L68.2306354,279.418143 Z M81.6442354,279.418143 L81.6442354,272.592543 L88.5778354,272.592543 L88.5778354,270.950943 L81.6442354,270.950943 L81.6442354,265.939743 L88.5778354,265.939743 L88.5778354,264.298143 L79.9810354,264.298143 L79.9810354,279.418143 L81.6442354,279.418143 Z M92.9842354,266.393343 L92.9842354,264.298143 L91.3642354,264.298143 L91.3642354,266.393343 L92.9842354,266.393343 Z M92.9842354,279.418143 L92.9842354,268.272543 L91.3642354,268.272543 L91.3642354,279.418143 L92.9842354,279.418143 Z M100.587435,279.634143 C101.624235,279.634143 102.610635,279.313743 103.546635,278.672943 C104.482635,278.032143 104.950635,276.898143 104.950635,275.270943 L104.950635,272.333343 C104.950635,270.706143 104.482635,269.572143 103.546635,268.931343 C102.610635,268.290543 101.624235,267.970143 100.587435,267.970143 C100.083435,267.970143 99.5686354,268.085343 99.0430354,268.315743 C98.5174354,268.546143 98.1178354,268.884543 97.8442354,269.330943 L97.8442354,264.298143 L96.2242354,264.298143 L96.2242354,279.418143 L97.8442354,279.418143 L97.8442354,278.273343 C98.1178354,278.719743 98.5174354,279.058143 99.0430354,279.288543 C99.5686354,279.518943 100.083435,279.634143 100.587435,279.634143 Z M100.587435,278.078943 C99.8674354,278.078943 99.2302354,277.844943 98.6758354,277.376943 C98.1214354,276.908943 97.8442354,276.214143 97.8442354,275.292543 L97.8442354,272.311743 C97.8442354,271.390143 98.1214354,270.695343 98.6758354,270.227343 C99.2302354,269.759343 99.8674354,269.525343 100.587435,269.525343 C101.307435,269.525343 101.944635,269.759343 102.499035,270.227343 C103.053435,270.695343 103.330635,271.390143 103.330635,272.311743 L103.330635,275.292543 C103.330635,276.214143 103.053435,276.908943 102.499035,277.376943 C101.944635,277.844943 101.307435,278.078943 100.587435,278.078943 Z M109.508235,279.418143 L109.508235,272.419743 C109.508235,271.498143 109.785435,270.803343 110.339835,270.335343 C110.894235,269.867343 111.531435,269.633343 112.251435,269.633343 L112.964235,269.633343 L112.964235,268.078143 L112.251435,268.078143 C111.747435,268.078143 111.232635,268.193343 110.707035,268.423743 C110.181435,268.654143 109.781835,268.992543 109.508235,269.438943 L109.508235,268.272543 L107.888235,268.272543 L107.888235,279.418143 L109.508235,279.418143 Z M117.997035,279.634143 C118.745835,279.634143 119.422635,279.522543 120.027435,279.299343 C120.632235,279.076143 121.114635,278.734143 121.474635,278.273343 L121.474635,279.418143 L123.094635,279.418143 L123.094635,272.333343 C123.094635,270.706143 122.626635,269.572143 121.690635,268.931343 C120.754635,268.290543 119.768235,267.970143 118.731435,267.970143 C117.766635,267.970143 116.837835,268.243743 115.945035,268.790943 C115.052235,269.338143 114.533835,270.302943 114.389835,271.685343 L116.053035,271.685343 C116.182635,270.965343 116.503035,270.425343 117.014235,270.065343 C117.525435,269.705343 118.097835,269.525343 118.731435,269.525343 C119.451435,269.525343 120.088635,269.759343 120.643035,270.227343 C121.197435,270.695343 121.474635,271.390143 121.474635,272.311743 L121.474635,272.506143 C120.538635,272.563743 119.671035,272.635743 118.871835,272.722143 C118.072635,272.808543 117.356235,272.945343 116.722635,273.132543 C115.757835,273.406143 115.113435,273.866943 114.789435,274.514943 C114.465435,275.162943 114.303435,275.767743 114.303435,276.329343 C114.303435,277.466943 114.681435,278.302143 115.437435,278.834943 C116.193435,279.367743 117.046635,279.634143 117.997035,279.634143 Z M118.342635,278.078943 C117.521835,278.078943 116.913435,277.906143 116.517435,277.560543 C116.121435,277.214943 115.923435,276.790143 115.923435,276.286143 C115.923435,275.969343 115.984635,275.681343 116.107035,275.422143 C116.229435,275.162943 116.492235,274.918143 116.895435,274.687743 C117.269835,274.486143 117.824235,274.334943 118.558635,274.234143 C119.293035,274.133343 120.265035,274.039743 121.474635,273.953343 L121.474635,275.400543 C121.474635,276.264543 121.168635,276.926943 120.556635,277.387743 C119.944635,277.848543 119.206635,278.078943 118.342635,278.078943 Z" id="TVFibra" fill="#444444" fill-rule="nonzero"></path>
            <path d="M234.585708,277.374012 C236.083308,277.374012 237.220908,277.003212 237.998508,276.261612 C238.776108,275.520012 239.164908,274.544412 239.164908,273.334812 C239.164908,272.139612 238.844508,271.196412 238.203708,270.505212 C237.562908,269.814012 236.709708,269.317212 235.644108,269.014812 L233.872908,268.518012 C233.095308,268.302012 232.526508,267.974412 232.166508,267.535212 C231.806508,267.096012 231.626508,266.530812 231.626508,265.839612 C231.626508,265.177212 231.864108,264.615612 232.339308,264.154812 C232.814508,263.694012 233.505708,263.463612 234.412908,263.463612 C235.219308,263.463612 235.856508,263.683212 236.324508,264.122412 C236.792508,264.561612 237.105708,265.141212 237.264108,265.861212 L238.970508,265.861212 C238.812108,264.579612 238.336908,263.586012 237.544908,262.880412 C236.752908,262.174812 235.708908,261.822012 234.412908,261.822012 C233.203308,261.822012 232.155708,262.167612 231.270108,262.858812 C230.384508,263.550012 229.941708,264.543612 229.941708,265.839612 C229.941708,266.746812 230.190108,267.610812 230.686908,268.431612 C231.183708,269.252412 231.993708,269.821212 233.116908,270.138012 L235.039308,270.678012 C235.888908,270.908412 236.508108,271.239612 236.896908,271.671612 C237.285708,272.103612 237.480108,272.658012 237.480108,273.334812 C237.480108,274.126812 237.210108,274.724412 236.670108,275.127612 C236.130108,275.530812 235.435308,275.732412 234.585708,275.732412 C233.779308,275.732412 233.077308,275.466012 232.479708,274.933212 C231.882108,274.400412 231.518508,273.651612 231.388908,272.686812 L229.682508,272.686812 C229.783308,274.126812 230.283708,275.268012 231.183708,276.110412 C232.083708,276.952812 233.217708,277.374012 234.585708,277.374012 Z M244.975308,277.158012 L247.459308,268.410012 L249.943308,277.158012 L251.628108,277.158012 L254.565708,266.012412 L252.880908,266.012412 L250.720908,274.695612 L248.258508,266.012412 L246.660108,266.012412 L244.197708,274.695612 L242.037708,266.012412 L240.352908,266.012412 L243.290508,277.158012 L244.975308,277.158012 Z M258.086508,264.133212 L258.086508,262.038012 L256.466508,262.038012 L256.466508,264.133212 L258.086508,264.133212 Z M258.086508,277.158012 L258.086508,266.012412 L256.466508,266.012412 L256.466508,277.158012 L258.086508,277.158012 Z M266.208108,277.158012 L266.208108,275.602812 L264.501708,275.602812 C264.112908,275.602812 263.842908,275.530812 263.691708,275.386812 C263.540508,275.242812 263.464908,274.990812 263.464908,274.630812 L263.464908,274.630812 L263.464908,267.567612 L266.208108,267.567612 L266.208108,266.012412 L263.464908,266.012412 L263.464908,263.485212 L261.844908,263.485212 L261.844908,266.012412 L260.268108,266.012412 L260.268108,267.567612 L261.844908,267.567612 L261.844908,274.501212 C261.844908,275.451612 262.028508,276.132012 262.395708,276.542412 C262.762908,276.952812 263.464908,277.158012 264.501708,277.158012 L264.501708,277.158012 L266.208108,277.158012 Z M272.752908,277.374012 C273.732108,277.374012 274.671708,277.093212 275.571708,276.531612 C276.471708,275.970012 276.979308,274.976412 277.094508,273.550812 L275.452908,273.550812 C275.352108,274.299612 275.038908,274.864812 274.513308,275.246412 C273.987708,275.628012 273.400908,275.818812 272.752908,275.818812 C272.032908,275.818812 271.395708,275.584812 270.841308,275.116812 C270.286908,274.648812 270.009708,273.954012 270.009708,273.032412 L270.009708,270.051612 C270.009708,269.130012 270.286908,268.435212 270.841308,267.967212 C271.395708,267.499212 272.032908,267.265212 272.752908,267.265212 C273.400908,267.265212 273.987708,267.456012 274.513308,267.837612 C275.038908,268.219212 275.352108,268.784412 275.452908,269.533212 L277.094508,269.533212 C276.979308,268.107612 276.471708,267.114012 275.571708,266.552412 C274.671708,265.990812 273.732108,265.710012 272.752908,265.710012 C271.716108,265.710012 270.729708,266.030412 269.793708,266.671212 C268.857708,267.312012 268.389708,268.446012 268.389708,270.073212 L268.389708,273.010812 C268.389708,274.652412 268.857708,275.790012 269.793708,276.423612 C270.729708,277.057212 271.716108,277.374012 272.752908,277.374012 Z M281.436108,277.158012 L281.436108,270.051612 C281.436108,269.130012 281.713308,268.435212 282.267708,267.967212 C282.822108,267.499212 283.459308,267.265212 284.179308,267.265212 C284.899308,267.265212 285.536508,267.499212 286.090908,267.967212 C286.645308,268.435212 286.922508,269.130012 286.922508,270.051612 L286.922508,277.158012 L288.542508,277.158012 L288.542508,270.073212 C288.542508,268.446012 288.074508,267.312012 287.138508,266.671212 C286.202508,266.030412 285.216108,265.710012 284.179308,265.710012 C283.675308,265.710012 283.160508,265.825212 282.634908,266.055612 C282.109308,266.286012 281.709708,266.624412 281.436108,267.070812 L281.436108,262.038012 L279.816108,262.038012 L279.816108,277.158012 L281.436108,277.158012 Z M300.552108,277.374012 C301.588908,277.374012 302.575308,277.053612 303.511308,276.412812 C304.447308,275.772012 304.915308,274.638012 304.915308,273.010812 L304.915308,270.073212 C304.915308,268.446012 304.447308,267.312012 303.511308,266.671212 C302.575308,266.030412 301.588908,265.710012 300.552108,265.710012 C299.515308,265.710012 298.528908,266.030412 297.592908,266.671212 C296.656908,267.312012 296.188908,268.446012 296.188908,270.073212 L296.188908,273.010812 C296.188908,274.638012 296.656908,275.772012 297.592908,276.412812 C298.528908,277.053612 299.515308,277.374012 300.552108,277.374012 Z M300.552108,275.818812 C299.832108,275.818812 299.194908,275.584812 298.640508,275.116812 C298.086108,274.648812 297.808908,273.954012 297.808908,273.032412 L297.808908,270.051612 C297.808908,269.130012 298.086108,268.435212 298.640508,267.967212 C299.194908,267.499212 299.832108,267.265212 300.552108,267.265212 C301.272108,267.265212 301.909308,267.499212 302.463708,267.967212 C303.018108,268.435212 303.295308,269.130012 303.295308,270.051612 L303.295308,273.032412 C303.295308,273.954012 303.018108,274.648812 302.463708,275.116812 C301.909308,275.584812 301.272108,275.818812 300.552108,275.818812 Z M312.000108,277.374012 C312.475308,277.374012 312.972108,277.258812 313.490508,277.028412 C314.008908,276.798012 314.404908,276.459612 314.678508,276.013212 L314.678508,277.158012 L316.298508,277.158012 L316.298508,266.012412 L314.678508,266.012412 L314.678508,273.032412 C314.678508,273.939612 314.401308,274.630812 313.846908,275.106012 C313.292508,275.581212 312.676908,275.818812 312.000108,275.818812 C311.337708,275.818812 310.725708,275.592012 310.164108,275.138412 C309.602508,274.684812 309.321708,273.961212 309.321708,272.967612 L309.321708,266.012412 L307.701708,266.012412 L307.701708,273.075612 C307.701708,274.717212 308.191308,275.844012 309.170508,276.456012 C310.149708,277.068012 311.092908,277.374012 312.000108,277.374012 Z M326.169708,277.158012 L326.169708,270.332412 L332.606508,270.332412 L332.606508,277.158012 L334.269708,277.158012 L334.269708,262.038012 L332.606508,262.038012 L332.606508,268.690812 L326.169708,268.690812 L326.169708,262.038012 L324.506508,262.038012 L324.506508,277.158012 L326.169708,277.158012 Z M341.764908,277.374012 C342.240108,277.374012 342.736908,277.258812 343.255308,277.028412 C343.773708,276.798012 344.169708,276.459612 344.443308,276.013212 L344.443308,277.158012 L346.063308,277.158012 L346.063308,266.012412 L344.443308,266.012412 L344.443308,273.032412 C344.443308,273.939612 344.166108,274.630812 343.611708,275.106012 C343.057308,275.581212 342.441708,275.818812 341.764908,275.818812 C341.102508,275.818812 340.490508,275.592012 339.928908,275.138412 C339.367308,274.684812 339.086508,273.961212 339.086508,272.967612 L339.086508,266.012412 L337.466508,266.012412 L337.466508,273.075612 C337.466508,274.717212 337.956108,275.844012 338.935308,276.456012 C339.914508,277.068012 340.857708,277.374012 341.764908,277.374012 Z M353.666508,277.374012 C354.703308,277.374012 355.689708,277.053612 356.625708,276.412812 C357.561708,275.772012 358.029708,274.638012 358.029708,273.010812 L358.029708,270.073212 C358.029708,268.446012 357.561708,267.312012 356.625708,266.671212 C355.689708,266.030412 354.703308,265.710012 353.666508,265.710012 C353.162508,265.710012 352.647708,265.825212 352.122108,266.055612 C351.596508,266.286012 351.196908,266.624412 350.923308,267.070812 L350.923308,262.038012 L349.303308,262.038012 L349.303308,277.158012 L350.923308,277.158012 L350.923308,276.013212 C351.196908,276.459612 351.596508,276.798012 352.122108,277.028412 C352.647708,277.258812 353.162508,277.374012 353.666508,277.374012 Z M353.666508,275.818812 C352.946508,275.818812 352.309308,275.584812 351.754908,275.116812 C351.200508,274.648812 350.923308,273.954012 350.923308,273.032412 L350.923308,270.051612 C350.923308,269.130012 351.200508,268.435212 351.754908,267.967212 C352.309308,267.499212 352.946508,267.265212 353.666508,267.265212 C354.386508,267.265212 355.023708,267.499212 355.578108,267.967212 C356.132508,268.435212 356.409708,269.130012 356.409708,270.051612 L356.409708,273.032412 C356.409708,273.954012 356.132508,274.648812 355.578108,275.116812 C355.023708,275.584812 354.386508,275.818812 353.666508,275.818812 Z" id="SwitchouHub" fill="#444444" fill-rule="nonzero"></path>
            <path d="M410.617016,277.158012 L410.617016,265.537212 L414.224216,273.097212 L415.779416,273.097212 L419.386616,265.537212 L419.386616,277.158012 L421.028216,277.158012 L421.028216,262.038012 L419.365016,262.038012 L415.001816,271.196412 L410.638616,262.038012 L408.975416,262.038012 L408.975416,277.158012 L410.617016,277.158012 Z M428.437016,277.374012 C429.473816,277.374012 430.460216,277.053612 431.396216,276.412812 C432.332216,275.772012 432.800216,274.638012 432.800216,273.010812 L432.800216,270.073212 C432.800216,268.446012 432.332216,267.312012 431.396216,266.671212 C430.460216,266.030412 429.473816,265.710012 428.437016,265.710012 C427.400216,265.710012 426.413816,266.030412 425.477816,266.671212 C424.541816,267.312012 424.073816,268.446012 424.073816,270.073212 L424.073816,273.010812 C424.073816,274.638012 424.541816,275.772012 425.477816,276.412812 C426.413816,277.053612 427.400216,277.374012 428.437016,277.374012 Z M428.437016,275.818812 C427.717016,275.818812 427.079816,275.584812 426.525416,275.116812 C425.971016,274.648812 425.693816,273.954012 425.693816,273.032412 L425.693816,270.051612 C425.693816,269.130012 425.971016,268.435212 426.525416,267.967212 C427.079816,267.499212 427.717016,267.265212 428.437016,267.265212 C429.157016,267.265212 429.794216,267.499212 430.348616,267.967212 C430.903016,268.435212 431.180216,269.130012 431.180216,270.051612 L431.180216,273.032412 C431.180216,273.954012 430.903016,274.648812 430.348616,275.116812 C429.794216,275.584812 429.157016,275.818812 428.437016,275.818812 Z M439.798616,277.374012 C440.302616,277.374012 440.817416,277.258812 441.343016,277.028412 C441.868616,276.798012 442.268216,276.459612 442.541816,276.013212 L442.541816,276.013212 L442.541816,277.158012 L444.161816,277.158012 L444.161816,262.038012 L442.541816,262.038012 L442.541816,267.070812 C442.268216,266.624412 441.868616,266.286012 441.343016,266.055612 C440.817416,265.825212 440.302616,265.710012 439.798616,265.710012 C438.761816,265.710012 437.775416,266.030412 436.839416,266.671212 C435.903416,267.312012 435.435416,268.446012 435.435416,270.073212 L435.435416,270.073212 L435.435416,273.010812 C435.435416,274.638012 435.903416,275.772012 436.839416,276.412812 C437.775416,277.053612 438.761816,277.374012 439.798616,277.374012 Z M439.798616,275.818812 C439.078616,275.818812 438.441416,275.584812 437.887016,275.116812 C437.332616,274.648812 437.055416,273.954012 437.055416,273.032412 L437.055416,273.032412 L437.055416,270.051612 C437.055416,269.130012 437.332616,268.435212 437.887016,267.967212 C438.441416,267.499212 439.078616,267.265212 439.798616,267.265212 C440.518616,267.265212 441.155816,267.499212 441.710216,267.967212 C442.264616,268.435212 442.541816,269.130012 442.541816,270.051612 L442.541816,270.051612 L442.541816,273.032412 C442.541816,273.954012 442.264616,274.648812 441.710216,275.116812 C441.155816,275.584812 440.518616,275.818812 439.798616,275.818812 Z M451.462616,277.374012 C452.427416,277.374012 453.356216,277.100412 454.249016,276.553212 C455.141816,276.006012 455.660216,275.041212 455.804216,273.658812 L454.141016,273.658812 C454.011416,274.378812 453.691016,274.918812 453.179816,275.278812 C452.668616,275.638812 452.096216,275.818812 451.462616,275.818812 C450.742616,275.818812 450.105416,275.584812 449.551016,275.116812 C448.996616,274.648812 448.719416,273.954012 448.719416,273.032412 L448.719416,271.952412 L455.825816,271.952412 L455.825816,270.073212 C455.825816,268.446012 455.357816,267.312012 454.421816,266.671212 C453.485816,266.030412 452.499416,265.710012 451.462616,265.710012 C450.425816,265.710012 449.439416,266.030412 448.503416,266.671212 C447.567416,267.312012 447.099416,268.446012 447.099416,270.073212 L447.099416,273.010812 C447.099416,274.638012 447.567416,275.772012 448.503416,276.412812 C449.439416,277.053612 450.425816,277.374012 451.462616,277.374012 Z M454.205816,270.462012 L448.719416,270.462012 L448.719416,270.051612 C448.719416,269.130012 448.996616,268.435212 449.551016,267.967212 C450.105416,267.499212 450.742616,267.265212 451.462616,267.265212 C452.182616,267.265212 452.819816,267.499212 453.374216,267.967212 C453.928616,268.435212 454.205816,269.130012 454.205816,270.051612 L454.205816,270.462012 Z M460.275416,277.158012 L460.275416,270.051612 C460.275416,269.158812 460.541816,268.471212 461.074616,267.988812 C461.607416,267.506412 462.205016,267.265212 462.867416,267.265212 C463.501016,267.265212 464.087816,267.502812 464.627816,267.978012 C465.167816,268.453212 465.437816,269.101212 465.437816,269.922012 L465.437816,277.158012 L467.057816,277.158012 L467.057816,270.051612 C467.057816,269.158812 467.324216,268.471212 467.857016,267.988812 C468.389816,267.506412 468.987416,267.265212 469.649816,267.265212 C470.283416,267.265212 470.870216,267.502812 471.410216,267.978012 C471.950216,268.453212 472.220216,269.101212 472.220216,269.922012 L472.220216,277.158012 L473.840216,277.158012 L473.840216,270.073212 C473.840216,268.503612 473.386616,267.384012 472.479416,266.714412 C471.572216,266.044812 470.621816,265.710012 469.628216,265.710012 C469.009016,265.710012 468.382616,265.846812 467.749016,266.120412 C467.115416,266.394012 466.611416,266.840412 466.237016,267.459612 C465.862616,266.840412 465.362216,266.394012 464.735816,266.120412 C464.109416,265.846812 463.486616,265.710012 462.867416,265.710012 C462.464216,265.710012 461.999816,265.825212 461.474216,266.055612 C460.948616,266.286012 460.549016,266.624412 460.275416,267.070812 L460.275416,266.012412 L458.655416,266.012412 L458.655416,277.158012 L460.275416,277.158012 Z M485.849816,277.374012 C486.353816,277.374012 486.868616,277.258812 487.394216,277.028412 C487.919816,276.798012 488.319416,276.459612 488.593016,276.013212 L488.593016,276.013212 L488.593016,277.158012 L490.213016,277.158012 L490.213016,262.038012 L488.593016,262.038012 L488.593016,267.070812 C488.319416,266.624412 487.919816,266.286012 487.394216,266.055612 C486.868616,265.825212 486.353816,265.710012 485.849816,265.710012 C484.813016,265.710012 483.826616,266.030412 482.890616,266.671212 C481.954616,267.312012 481.486616,268.446012 481.486616,270.073212 L481.486616,270.073212 L481.486616,273.010812 C481.486616,274.638012 481.954616,275.772012 482.890616,276.412812 C483.826616,277.053612 484.813016,277.374012 485.849816,277.374012 Z M485.849816,275.818812 C485.129816,275.818812 484.492616,275.584812 483.938216,275.116812 C483.383816,274.648812 483.106616,273.954012 483.106616,273.032412 L483.106616,273.032412 L483.106616,270.051612 C483.106616,269.130012 483.383816,268.435212 483.938216,267.967212 C484.492616,267.499212 485.129816,267.265212 485.849816,267.265212 C486.569816,267.265212 487.207016,267.499212 487.761416,267.967212 C488.315816,268.435212 488.593016,269.130012 488.593016,270.051612 L488.593016,270.051612 L488.593016,273.032412 C488.593016,273.954012 488.315816,274.648812 487.761416,275.116812 C487.207016,275.584812 486.569816,275.818812 485.849816,275.818812 Z M497.513816,277.374012 C498.478616,277.374012 499.407416,277.100412 500.300216,276.553212 C501.193016,276.006012 501.711416,275.041212 501.855416,273.658812 L500.192216,273.658812 C500.062616,274.378812 499.742216,274.918812 499.231016,275.278812 C498.719816,275.638812 498.147416,275.818812 497.513816,275.818812 C496.793816,275.818812 496.156616,275.584812 495.602216,275.116812 C495.047816,274.648812 494.770616,273.954012 494.770616,273.032412 L494.770616,271.952412 L501.877016,271.952412 L501.877016,270.073212 C501.877016,268.446012 501.409016,267.312012 500.473016,266.671212 C499.537016,266.030412 498.550616,265.710012 497.513816,265.710012 C496.477016,265.710012 495.490616,266.030412 494.554616,266.671212 C493.618616,267.312012 493.150616,268.446012 493.150616,270.073212 L493.150616,273.010812 C493.150616,274.638012 493.618616,275.772012 494.554616,276.412812 C495.490616,277.053612 496.477016,277.374012 497.513816,277.374012 Z M500.257016,270.462012 L494.770616,270.462012 L494.770616,270.051612 C494.770616,269.130012 495.047816,268.435212 495.602216,267.967212 C496.156616,267.499212 496.793816,267.265212 497.513816,267.265212 C498.233816,267.265212 498.871016,267.499212 499.425416,267.967212 C499.979816,268.435212 500.257016,269.130012 500.257016,270.051612 L500.257016,270.462012 Z M511.337816,277.158012 L511.337816,270.332412 L518.271416,270.332412 L518.271416,268.690812 L511.337816,268.690812 L511.337816,263.679612 L518.271416,263.679612 L518.271416,262.038012 L509.674616,262.038012 L509.674616,277.158012 L511.337816,277.158012 Z M522.677816,264.133212 L522.677816,262.038012 L521.057816,262.038012 L521.057816,264.133212 L522.677816,264.133212 Z M522.677816,277.158012 L522.677816,266.012412 L521.057816,266.012412 L521.057816,277.158012 L522.677816,277.158012 Z M530.281016,277.374012 C531.317816,277.374012 532.304216,277.053612 533.240216,276.412812 C534.176216,275.772012 534.644216,274.638012 534.644216,273.010812 L534.644216,270.073212 C534.644216,268.446012 534.176216,267.312012 533.240216,266.671212 C532.304216,266.030412 531.317816,265.710012 530.281016,265.710012 C529.777016,265.710012 529.262216,265.825212 528.736616,266.055612 C528.211016,266.286012 527.811416,266.624412 527.537816,267.070812 L527.537816,262.038012 L525.917816,262.038012 L525.917816,277.158012 L527.537816,277.158012 L527.537816,276.013212 C527.811416,276.459612 528.211016,276.798012 528.736616,277.028412 C529.262216,277.258812 529.777016,277.374012 530.281016,277.374012 Z M530.281016,275.818812 C529.561016,275.818812 528.923816,275.584812 528.369416,275.116812 C527.815016,274.648812 527.537816,273.954012 527.537816,273.032412 L527.537816,270.051612 C527.537816,269.130012 527.815016,268.435212 528.369416,267.967212 C528.923816,267.499212 529.561016,267.265212 530.281016,267.265212 C531.001016,267.265212 531.638216,267.499212 532.192616,267.967212 C532.747016,268.435212 533.024216,269.130012 533.024216,270.051612 L533.024216,273.032412 C533.024216,273.954012 532.747016,274.648812 532.192616,275.116812 C531.638216,275.584812 531.001016,275.818812 530.281016,275.818812 Z M539.201816,277.158012 L539.201816,270.159612 C539.201816,269.238012 539.479016,268.543212 540.033416,268.075212 C540.587816,267.607212 541.225016,267.373212 541.945016,267.373212 L542.657816,267.373212 L542.657816,265.818012 L541.945016,265.818012 C541.441016,265.818012 540.926216,265.933212 540.400616,266.163612 C539.875016,266.394012 539.475416,266.732412 539.201816,267.178812 L539.201816,266.012412 L537.581816,266.012412 L537.581816,277.158012 L539.201816,277.158012 Z M547.690616,277.374012 C548.439416,277.374012 549.116216,277.262412 549.721016,277.039212 C550.325816,276.816012 550.808216,276.474012 551.168216,276.013212 L551.168216,277.158012 L552.788216,277.158012 L552.788216,270.073212 C552.788216,268.446012 552.320216,267.312012 551.384216,266.671212 C550.448216,266.030412 549.461816,265.710012 548.425016,265.710012 C547.460216,265.710012 546.531416,265.983612 545.638616,266.530812 C544.745816,267.078012 544.227416,268.042812 544.083416,269.425212 L545.746616,269.425212 C545.876216,268.705212 546.196616,268.165212 546.707816,267.805212 C547.219016,267.445212 547.791416,267.265212 548.425016,267.265212 C549.145016,267.265212 549.782216,267.499212 550.336616,267.967212 C550.891016,268.435212 551.168216,269.130012 551.168216,270.051612 L551.168216,270.246012 C550.232216,270.303612 549.364616,270.375612 548.565416,270.462012 C547.766216,270.548412 547.049816,270.685212 546.416216,270.872412 C545.451416,271.146012 544.807016,271.606812 544.483016,272.254812 C544.159016,272.902812 543.997016,273.507612 543.997016,274.069212 C543.997016,275.206812 544.375016,276.042012 545.131016,276.574812 C545.887016,277.107612 546.740216,277.374012 547.690616,277.374012 Z M548.036216,275.818812 C547.215416,275.818812 546.607016,275.646012 546.211016,275.300412 C545.815016,274.954812 545.617016,274.530012 545.617016,274.026012 C545.617016,273.709212 545.678216,273.421212 545.800616,273.162012 C545.923016,272.902812 546.185816,272.658012 546.589016,272.427612 C546.963416,272.226012 547.517816,272.074812 548.252216,271.974012 C548.986616,271.873212 549.958616,271.779612 551.168216,271.693212 L551.168216,273.140412 C551.168216,274.004412 550.862216,274.666812 550.250216,275.127612 C549.638216,275.588412 548.900216,275.818812 548.036216,275.818812 Z" id="ModemdeFibra" fill="#444444" fill-rule="nonzero"></path>
            <path d="M494.935597,18.216 C496.317997,18.216 497.451997,17.7984 498.337597,16.9632 C499.223197,16.128 499.709197,14.9832 499.795597,13.5288 L498.132397,13.5288 C498.045997,14.5224 497.700397,15.2784 497.095597,15.7968 C496.490797,16.3152 495.770797,16.5744 494.935597,16.5744 C494.042797,16.5744 493.283197,16.2792 492.656797,15.6888 C492.030397,15.0984 491.717197,14.2344 491.717197,13.0968 L491.717197,7.7832 C491.717197,6.6456 492.030397,5.7816 492.656797,5.1912 C493.283197,4.6008 494.042797,4.3056 494.935597,4.3056 C495.770797,4.3056 496.490797,4.5648 497.095597,5.0832 C497.700397,5.6016 498.045997,6.3576 498.132397,7.3512 L499.795597,7.3512 C499.709197,5.8968 499.223197,4.752 498.337597,3.9168 C497.451997,3.0816 496.317997,2.664 494.935597,2.664 C493.495597,2.664 492.321997,3.1212 491.414797,4.0356 C490.507597,4.95 490.053997,6.1992 490.053997,7.7832 L490.053997,13.0968 C490.053997,14.6808 490.507597,15.93 491.414797,16.8444 C492.321997,17.7588 493.495597,18.216 494.935597,18.216 Z M506.534797,18.216 C507.571597,18.216 508.557997,17.8956 509.493997,17.2548 C510.429997,16.614 510.897997,15.48 510.897997,13.8528 L510.897997,10.9152 C510.897997,9.288 510.429997,8.154 509.493997,7.5132 C508.557997,6.8724 507.571597,6.552 506.534797,6.552 C505.497997,6.552 504.511597,6.8724 503.575597,7.5132 C502.639597,8.154 502.171597,9.288 502.171597,10.9152 L502.171597,13.8528 C502.171597,15.48 502.639597,16.614 503.575597,17.2548 C504.511597,17.8956 505.497997,18.216 506.534797,18.216 Z M506.534797,16.6608 C505.814797,16.6608 505.177597,16.4268 504.623197,15.9588 C504.068797,15.4908 503.791597,14.796 503.791597,13.8744 L503.791597,10.8936 C503.791597,9.972 504.068797,9.2772 504.623197,8.8092 C505.177597,8.3412 505.814797,8.1072 506.534797,8.1072 C507.254797,8.1072 507.891997,8.3412 508.446397,8.8092 C509.000797,9.2772 509.277997,9.972 509.277997,10.8936 L509.277997,13.8744 C509.277997,14.796 509.000797,15.4908 508.446397,15.9588 C507.891997,16.4268 507.254797,16.6608 506.534797,16.6608 Z M515.455597,18 L515.455597,10.8936 C515.455597,10.0008 515.721997,9.3132 516.254797,8.8308 C516.787597,8.3484 517.385197,8.1072 518.047597,8.1072 C518.681197,8.1072 519.267997,8.3448 519.807997,8.82 C520.347997,9.2952 520.617997,9.9432 520.617997,10.764 L520.617997,18 L522.237997,18 L522.237997,10.8936 C522.237997,10.0008 522.504397,9.3132 523.037197,8.8308 C523.569997,8.3484 524.167597,8.1072 524.829997,8.1072 C525.463597,8.1072 526.050397,8.3448 526.590397,8.82 C527.130397,9.2952 527.400397,9.9432 527.400397,10.764 L527.400397,18 L529.020397,18 L529.020397,10.9152 C529.020397,9.3456 528.566797,8.226 527.659597,7.5564 C526.752397,6.8868 525.801997,6.552 524.808397,6.552 C524.189197,6.552 523.562797,6.6888 522.929197,6.9624 C522.295597,7.236 521.791597,7.6824 521.417197,8.3016 C521.042797,7.6824 520.542397,7.236 519.915997,6.9624 C519.289597,6.6888 518.666797,6.552 518.047597,6.552 C517.644397,6.552 517.179997,6.6672 516.654397,6.8976 C516.128797,7.128 515.729197,7.4664 515.455597,7.9128 L515.455597,6.8544 L513.835597,6.8544 L513.835597,18 L515.455597,18 Z M533.729197,21.9744 L533.729197,16.8552 C534.002797,17.3016 534.402397,17.64 534.927997,17.8704 C535.453597,18.1008 535.968397,18.216 536.472397,18.216 C537.509197,18.216 538.495597,17.8956 539.431597,17.2548 C540.367597,16.614 540.835597,15.48 540.835597,13.8528 L540.835597,10.9152 C540.835597,9.288 540.367597,8.154 539.431597,7.5132 C538.495597,6.8724 537.509197,6.552 536.472397,6.552 C535.968397,6.552 535.453597,6.6672 534.927997,6.8976 C534.402397,7.128 534.002797,7.4664 533.729197,7.9128 L533.729197,6.8544 L532.109197,6.8544 L532.109197,21.9744 L533.729197,21.9744 Z M536.472397,16.6608 C535.752397,16.6608 535.115197,16.4268 534.560797,15.9588 C534.006397,15.4908 533.729197,14.796 533.729197,13.8744 L533.729197,10.8936 C533.729197,9.972 534.006397,9.2772 534.560797,8.8092 C535.115197,8.3412 535.752397,8.1072 536.472397,8.1072 C537.192397,8.1072 537.829597,8.3412 538.383997,8.8092 C538.938397,9.2772 539.215597,9.972 539.215597,10.8936 L539.215597,13.8744 C539.215597,14.796 538.938397,15.4908 538.383997,15.9588 C537.829597,16.4268 537.192397,16.6608 536.472397,16.6608 Z M547.920397,18.216 C548.395597,18.216 548.892397,18.1008 549.410797,17.8704 C549.929197,17.64 550.325197,17.3016 550.598797,16.8552 L550.598797,18 L552.218797,18 L552.218797,6.8544 L550.598797,6.8544 L550.598797,13.8744 C550.598797,14.7816 550.321597,15.4728 549.767197,15.948 C549.212797,16.4232 548.597197,16.6608 547.920397,16.6608 C547.257997,16.6608 546.645997,16.434 546.084397,15.9804 C545.522797,15.5268 545.241997,14.8032 545.241997,13.8096 L545.241997,6.8544 L543.621997,6.8544 L543.621997,13.9176 C543.621997,15.5592 544.111597,16.686 545.090797,17.298 C546.069997,17.91 547.013197,18.216 547.920397,18.216 Z M560.340397,18 L560.340397,16.4448 L558.633997,16.4448 C558.245197,16.4448 557.975197,16.3728 557.823997,16.2288 C557.672797,16.0848 557.597197,15.8328 557.597197,15.4728 L557.597197,15.4728 L557.597197,8.4096 L560.340397,8.4096 L560.340397,6.8544 L557.597197,6.8544 L557.597197,4.3272 L555.977197,4.3272 L555.977197,6.8544 L554.400397,6.8544 L554.400397,8.4096 L555.977197,8.4096 L555.977197,15.3432 C555.977197,16.2936 556.160797,16.974 556.527997,17.3844 C556.895197,17.7948 557.597197,18 558.633997,18 L558.633997,18 L560.340397,18 Z M566.021197,18.216 C566.769997,18.216 567.446797,18.1044 568.051597,17.8812 C568.656397,17.658 569.138797,17.316 569.498797,16.8552 L569.498797,18 L571.118797,18 L571.118797,10.9152 C571.118797,9.288 570.650797,8.154 569.714797,7.5132 C568.778797,6.8724 567.792397,6.552 566.755597,6.552 C565.790797,6.552 564.861997,6.8256 563.969197,7.3728 C563.076397,7.92 562.557997,8.8848 562.413997,10.2672 L564.077197,10.2672 C564.206797,9.5472 564.527197,9.0072 565.038397,8.6472 C565.549597,8.2872 566.121997,8.1072 566.755597,8.1072 C567.475597,8.1072 568.112797,8.3412 568.667197,8.8092 C569.221597,9.2772 569.498797,9.972 569.498797,10.8936 L569.498797,11.088 C568.562797,11.1456 567.695197,11.2176 566.895997,11.304 C566.096797,11.3904 565.380397,11.5272 564.746797,11.7144 C563.781997,11.988 563.137597,12.4488 562.813597,13.0968 C562.489597,13.7448 562.327597,14.3496 562.327597,14.9112 C562.327597,16.0488 562.705597,16.884 563.461597,17.4168 C564.217597,17.9496 565.070797,18.216 566.021197,18.216 Z M566.366797,16.6608 C565.545997,16.6608 564.937597,16.488 564.541597,16.1424 C564.145597,15.7968 563.947597,15.372 563.947597,14.868 C563.947597,14.5512 564.008797,14.2632 564.131197,14.004 C564.253597,13.7448 564.516397,13.5 564.919597,13.2696 C565.293997,13.068 565.848397,12.9168 566.582797,12.816 C567.317197,12.7152 568.289197,12.6216 569.498797,12.5352 L569.498797,13.9824 C569.498797,14.8464 569.192797,15.5088 568.580797,15.9696 C567.968797,16.4304 567.230797,16.6608 566.366797,16.6608 Z M578.268397,18.216 C578.772397,18.216 579.287197,18.1008 579.812797,17.8704 C580.338397,17.64 580.737997,17.3016 581.011597,16.8552 L581.011597,16.8552 L581.011597,18 L582.631597,18 L582.631597,2.88 L581.011597,2.88 L581.011597,7.9128 C580.737997,7.4664 580.338397,7.128 579.812797,6.8976 C579.287197,6.6672 578.772397,6.552 578.268397,6.552 C577.231597,6.552 576.245197,6.8724 575.309197,7.5132 C574.373197,8.154 573.905197,9.288 573.905197,10.9152 L573.905197,10.9152 L573.905197,13.8528 C573.905197,15.48 574.373197,16.614 575.309197,17.2548 C576.245197,17.8956 577.231597,18.216 578.268397,18.216 Z M578.268397,16.6608 C577.548397,16.6608 576.911197,16.4268 576.356797,15.9588 C575.802397,15.4908 575.525197,14.796 575.525197,13.8744 L575.525197,13.8744 L575.525197,10.8936 C575.525197,9.972 575.802397,9.2772 576.356797,8.8092 C576.911197,8.3412 577.548397,8.1072 578.268397,8.1072 C578.988397,8.1072 579.625597,8.3412 580.179997,8.8092 C580.734397,9.2772 581.011597,9.972 581.011597,10.8936 L581.011597,10.8936 L581.011597,13.8744 C581.011597,14.796 580.734397,15.4908 580.179997,15.9588 C579.625597,16.4268 578.988397,16.6608 578.268397,16.6608 Z M589.932397,18.216 C590.969197,18.216 591.955597,17.8956 592.891597,17.2548 C593.827597,16.614 594.295597,15.48 594.295597,13.8528 L594.295597,10.9152 C594.295597,9.288 593.827597,8.154 592.891597,7.5132 C591.955597,6.8724 590.969197,6.552 589.932397,6.552 C588.895597,6.552 587.909197,6.8724 586.973197,7.5132 C586.037197,8.154 585.569197,9.288 585.569197,10.9152 L585.569197,13.8528 C585.569197,15.48 586.037197,16.614 586.973197,17.2548 C587.909197,17.8956 588.895597,18.216 589.932397,18.216 Z M589.932397,16.6608 C589.212397,16.6608 588.575197,16.4268 588.020797,15.9588 C587.466397,15.4908 587.189197,14.796 587.189197,13.8744 L587.189197,10.8936 C587.189197,9.972 587.466397,9.2772 588.020797,8.8092 C588.575197,8.3412 589.212397,8.1072 589.932397,8.1072 C590.652397,8.1072 591.289597,8.3412 591.843997,8.8092 C592.398397,9.2772 592.675597,9.972 592.675597,10.8936 L592.675597,13.8744 C592.675597,14.796 592.398397,15.4908 591.843997,15.9588 C591.289597,16.4268 590.652397,16.6608 589.932397,16.6608 Z M598.853197,18 L598.853197,11.0016 C598.853197,10.08 599.130397,9.3852 599.684797,8.9172 C600.239197,8.4492 600.876397,8.2152 601.596397,8.2152 L602.309197,8.2152 L602.309197,6.66 L601.596397,6.66 C601.092397,6.66 600.577597,6.7752 600.051997,7.0056 C599.526397,7.236 599.126797,7.5744 598.853197,8.0208 L598.853197,6.8544 L597.233197,6.8544 L597.233197,18 L598.853197,18 Z" id="Computador" fill="#444444" fill-rule="nonzero"></path>
        </g>
        <g id="Group-39-Copy" transform="translate(413.500000, 250.000000)">
            <g id="Group-3">
                <circle id="Oval-Copy-11" fill="url(#radialGradient-4)" cx="3.38347541" cy="3.38347541" r="3.38347541"></circle>
                <circle id="Oval-Copy-2" fill="#40FF00" cx="3.4364077" cy="3.33054311" r="1.38351443"></circle>
            </g>
            <g id="Group-3-Copy" transform="translate(8.750000, 0.000000)">
                <circle id="Oval-Copy-11" fill="url(#radialGradient-4)" cx="3.38347541" cy="3.38347541" r="3.38347541"></circle>
                <circle id="Oval-Copy-2" fill="#40FF00" cx="3.4364077" cy="3.33054311" r="1.38351443"></circle>
            </g>
            <g id="Group-3-Copy-2" transform="translate(17.500000, 0.000000)">
                <circle id="Oval-Copy-11" fill="url(#radialGradient-4)" cx="3.38347541" cy="3.38347541" r="3.38347541"></circle>
                <circle id="Oval-Copy-2" fill="#40FF00" cx="3.4364077" cy="3.33054311" r="1.38351443"></circle>
            </g>
            <g id="Group-3-Copy-3" transform="translate(35.000000, 0.000000)">
                <circle id="Oval-Copy-11" fill="url(#radialGradient-4)" cx="3.38347541" cy="3.38347541" r="3.38347541"></circle>
                <circle id="Oval-Copy-2" fill="#40FF00" cx="3.4364077" cy="3.33054311" r="1.38351443"></circle>
            </g>
            <g id="Group-3-Copy-4" transform="translate(43.750000, 0.000000)">
                <circle id="Oval-Copy-11" fill="url(#radialGradient-4)" cx="3.38347541" cy="3.38347541" r="3.38347541"></circle>
                <circle id="Oval-Copy-2" fill="#40FF00" cx="3.4364077" cy="3.33054311" r="1.38351443"></circle>
            </g>
            <g id="Group-3-Copy-5" transform="translate(70.000000, 0.000000)">
                <circle id="Oval-Copy-11" fill="url(#radialGradient-4)" cx="3.38347541" cy="3.38347541" r="3.38347541"></circle>
                <circle id="Oval-Copy-2" fill="#40FF00" cx="3.4364077" cy="3.33054311" r="1.38351443"></circle>
            </g>
            <g id="Group-3-Copy-6" transform="translate(113.750000, 0.000000)">
                <circle id="Oval-Copy-11" fill="url(#radialGradient-4)" cx="3.38347541" cy="3.38347541" r="3.38347541"></circle>
                <circle id="Oval-Copy-2" fill="#40FF00" cx="3.4364077" cy="3.33054311" r="1.38351443"></circle>
            </g>
            <g id="Group-3-Copy-7" transform="translate(131.250000, 0.000000)">
                <circle id="Oval-Copy-11" fill="url(#radialGradient-4)" cx="3.38347541" cy="3.38347541" r="3.38347541"></circle>
                <circle id="Oval-Copy-2" fill="#40FF00" cx="3.4364077" cy="3.33054311" r="1.38351443"></circle>
            </g>
        </g>
        <g id="-Connections" transform="translate(-22738.701232, -12500.000000)" fill="#F5A623" fill-rule="nonzero">
            <path id="Flow-arrow" d="M23345.439,12121.0227 C23351.3982,12121.3898 23356.073,12126.0464 23356.6431,12131.8024 L23354.8116,12131.6201 C23419.0563,12137.7786 23693.0423,12189.4808 24170.8684,12284.6888 C24532.7522,12356.795 24883.1214,12427.7971 25717.1001,12597.5402 C26530.7458,12763.1448 26873.5258,12832.6244 27231.3474,12904.0144 C27698.8761,12997.2923 27977.8489,13050.355 28064.6396,13061.7281 L28064.984,13061.772 L28065.873,13051.8979 L28088.7012,13066 L28063.7226,13075.8013 L28064.625,13065.759 L28064.1313,13065.6957 C27977.2025,13054.305 27698.2482,13001.2459 27230.5648,12907.9371 C26872.7361,12836.5457 26529.9536,12767.0655 25716.3023,12601.4598 C24882.3296,12431.718 24531.963,12360.7163 24170.0867,12288.6117 C23697.325,12194.4128 23423.965,12142.7788 23356.4139,12135.7997 L23356.373,12135.796 C23355.046,12141.3643 23349.8727,12145.3413 23343.9635,12144.9773 C23337.3486,12144.5699 23332.3165,12138.8771 23332.7239,12132.2623 C23333.1314,12125.6474 23338.8241,12120.6153 23345.439,12121.0227 Z M23336.7164,12132.5082 C23336.4447,12136.9181 23339.7995,12140.7132 23344.2094,12140.9849 C23348.6193,12141.2565 23352.4145,12137.9017 23352.6861,12133.4918 C23352.9577,12129.0819 23349.603,12125.2868 23345.1931,12125.0151 C23340.7831,12124.7435 23336.988,12128.0983 23336.7164,12132.5082 Z"></path>
        </g>
    </g>
</svg>