<?xml version="1.0" encoding="UTF-8"?>
<svg width="612px" height="341px" viewBox="0 0 612 341" version="1.1" xmlns="http://www.w3.org/2000/svg" xmlns:xlink="http://www.w3.org/1999/xlink">
    <title>microfiltro-00 copy 4</title>
    <defs>
        <linearGradient x1="50%" y1="0%" x2="50%" y2="100%" id="linearGradient-1">
            <stop stop-color="#0D094F" offset="0%"></stop>
            <stop stop-color="#3177D7" offset="100%"></stop>
        </linearGradient>
        <radialGradient cx="50%" cy="50%" fx="50%" fy="50%" r="47.4912074%" id="radialGradient-2">
            <stop stop-color="#40FF00" offset="0%"></stop>
            <stop stop-color="#76FF00" stop-opacity="0" offset="100%"></stop>
        </radialGradient>
        <radialGradient cx="49.9687414%" cy="49.887506%" fx="49.9687414%" fy="49.887506%" r="47.3744513%" id="radialGradient-3">
            <stop stop-color="#00FDFF" offset="0%"></stop>
            <stop stop-color="#00ECFF" stop-opacity="0" offset="100%"></stop>
        </radialGradient>
    </defs>
    <g id="Page-1" stroke="none" stroke-width="1" fill="none" fill-rule="evenodd">
        <g id="Group-4-Copy" transform="translate(2.620061, 41.442157)">
            <g id="Group-2">
                <g id="Group-3" transform="translate(325.348710, 168.427287) rotate(-263.000000) translate(-325.348710, -168.427287) translate(300.848710, 45.427287)">
                    <g transform="translate(0.500000, 0.824543)">
                        <path d="M15.6002038,27.5443602 C16.9515813,33.6017056 24.8404371,44.0555879 39.2667712,58.9060071 C47.4476517,68.8183643 49.7423837,80.5314888 46.1509672,94.0453808 C39.8360727,117.807259 -41.0078373,201.177768 33.5269021,244.158192" id="Path-2" stroke="#000000" stroke-width="5"></path>
                        <path d="M13.3447526,29.6033497 C12.6163343,26.5755471 11.8449987,23.8690188 11.3658535,22.327258 C10.9290377,20.9218312 11.7044887,19.4251199 13.0984191,18.9841087 C14.495877,18.5401337 15.9768178,19.3249439 16.4148095,20.7303707 C16.5018199,21.0107447 17.4947969,24.2252658 18.4830706,28.3218091 L13.3447526,29.6033497 Z" id="Fill-35" fill="#3E3F41"></path>
                        <path d="M7.61435229,29.4986688 L22.6936106,25.7388114 C23.5008086,25.537274 23.9975911,24.7068215 23.7977023,23.893559 L18.4759569,2.19746861 C18.276656,1.3836133 17.4529966,0.882733669 16.6457986,1.08367828 L1.56654028,4.84412845 C0.759930184,5.04507306 0.262559818,5.87552556 0.462448618,6.68938087 L5.78419396,28.3854712 C5.98408276,29.1987338 6.80715429,29.6996134 7.61435229,29.4986688" id="Fill-36" fill="#F2F3F5"></path>
                        <path d="M17.0324658,1.00798321 C17.6303685,0.975381582 18.351144,1.44662337 18.5322198,2.18342027 L23.8539651,23.8795106 C24.0344529,24.6163075 23.6146864,25.3720726 23.0708713,25.6239944 L17.0324658,1.00798321 Z" id="Fill-37" fill="#CFCFCF"></path>
                        <path d="M7.09070243,29.608803 C6.49279975,29.6414047 5.77202426,29.1701629 5.59094852,28.433366 L0.269203181,6.73727564 C0.0887153526,6.00047873 0.508481832,5.2447136 1.05229695,4.9927919 L7.09070243,29.608803 Z" id="Fill-38" fill="#CFCFCF"></path>
                        <path d="M3.95186036,4.46778705 L3.79547677,3.83057332 C3.64849971,3.23188879 3.73257059,2.69070168 4.32635791,2.54251244 L13.1708494,0.336863782 C13.7646367,0.189267298 14.4924671,0.527731524 14.6388563,1.12641606 L14.7952398,1.76362979 L3.95186036,4.46778705 Z" id="Fill-39" fill="#CFCFCF"></path>
                        <polygon id="Fill-40" fill="#E3E4E7" points="6.97094552 18.0603562 17.974824 15.3164843 15.2533967 4.22185219 4.2495183 6.96572417"></polygon>
                        <polygon id="Fill-41" fill="#8D8F90" points="14.3467834 12.4602256 15.9059161 12.071377 14.0534172 4.5208388 12.4948725 4.90968737"></polygon>
                        <polygon id="Fill-42" fill="#BDBEC2" points="14.3467834 12.4602256 15.6002038 12.1478426 13.8235451 4.90553807 12.5701248 5.21792099"></polygon>
                        <polygon id="Fill-43" fill="#8D8F90" points="11.9983252 13.0458694 13.5574578 12.6570209 11.704959 5.10648268 10.1464143 5.49533125"></polygon>
                        <polygon id="Fill-44" fill="#BDBEC2" points="11.9983252 13.0458694 13.2517456 12.7334865 11.4750869 5.49118195 10.2216665 5.80356487"></polygon>
                        <polygon id="Fill-45" fill="#8D8F90" points="9.64980818 13.631454 11.2089408 13.2426055 9.35644198 5.69206728 7.79789725 6.08091585"></polygon>
                        <polygon id="Fill-46" fill="#BDBEC2" points="9.64980818 13.631454 10.9032285 13.3190711 9.12656986 6.07676655 7.8731495 6.38914947"></polygon>
                        <polygon id="Fill-47" fill="#8D8F90" points="7.30129116 14.2170979 8.8604238 13.8282494 7.00792495 6.27771116 5.44938022 6.66655973"></polygon>
                        <polygon id="Fill-48" fill="#BDBEC2" points="7.30129116 14.2170979 8.55471152 13.904715 6.77805283 6.66241043 5.52463247 6.97479335"></polygon>
                        <path d="M9.41158777,25.3223403 L19.1879138,22.8843309 C19.5212578,22.801345 19.7264377,22.4581387 19.6441306,22.1226383 L18.6388075,18.0231311 C18.5565004,17.6870379 18.2161015,17.4801657 17.8827575,17.5631517 L8.10643149,20.0011611 C7.77308752,20.0841471 7.56790754,20.4273533 7.6502147,20.7634465 L8.65553778,24.8623609 C8.73784493,25.1984541 9.0782438,25.4053263 9.41158777,25.3223403" id="Fill-49" fill="#5A5A5C"></path>
                    </g>
                </g>
                <g id="Group-42" transform="translate(0.206897, 64.557843)">
                    <g id="Group-Copy" transform="translate(0.514468, 0.566329)">
                        <path d="M17.2595843,103.474543 L20.4726159,100.972683 C21.4401639,100.219291 22.8352608,100.3929 23.5886522,101.360448 C24.0002842,101.889089 24.1511954,102.575338 23.9993185,103.227899 L17.835291,129.712529 C17.6723392,130.412675 17.3440237,131.063594 16.8778321,131.610789 L16.5557865,131.988792 C16.3460124,132.235015 15.9763531,132.264564 15.7301295,132.054789 C15.5995154,131.943511 15.5242694,131.780552 15.5242694,131.608962 L15.5242694,107.025109 C15.5242694,105.637321 16.1645992,104.327165 17.2595843,103.474543 Z" id="Rectangle-Copy-2" fill="#929292" transform="translate(20.472616, 115.159571) rotate(49.000000) translate(-20.472616, -115.159571) "></path>
                        <path d="M165.628104,102.077622 L168.841136,99.5757613 C169.808684,98.8223699 171.20378,98.9959782 171.957172,99.9635261 C172.368804,100.492167 172.519715,101.178416 172.367838,101.830977 L166.203811,128.315608 C166.040859,129.015754 165.712543,129.666672 165.246352,130.213868 L164.924306,130.59187 C164.714532,130.838094 164.344873,130.867642 164.098649,130.657868 C163.968035,130.546589 163.892789,130.38363 163.892789,130.212041 L163.892789,105.628188 C163.892789,104.240399 164.533119,102.930244 165.628104,102.077622 Z" id="Rectangle-Copy-3" fill="#929292" transform="translate(168.841136, 113.762649) scale(-1, 1) rotate(49.000000) translate(-168.841136, -113.762649) "></path>
                        <rect id="Rectangle" stroke="#979797" stroke-width="0.9" fill="#000000" x="0.45" y="0.45" width="189.677879" height="112.364983" rx="4.5"></rect>
                        <rect id="Rectangle-Copy" fill="url(#linearGradient-1)" x="1.64900682" y="1.59080033" width="187.279866" height="110.083383"></rect>
                    </g>
                    <path d="M90.9952327,39.3924656 L77.6670809,39.3924656 L77.6670809,79.579888 L70.4279324,79.579888 L70.4279324,39.3924656 L57.0997805,39.3924656 L57.0997805,32.2209727 L90.9952327,32.2209727 L90.9952327,39.3924656 Z M117.651536,79.579888 L110.209421,79.579888 L93.6338009,32.2209727 L101.075916,32.2209727 L113.930479,69.1609266 L126.785042,32.2209727 L134.227157,32.2209727 L117.651536,79.579888 Z" id="TV" fill="#FFFFFF" fill-rule="nonzero" opacity="0.300000012"></path>
                </g>
                <g id="Group" transform="translate(30.906897, 147.854396)">
                    <rect id="Rectangle-Copy-5" fill="#2B2B2B" x="151.959887" y="35.4515149" width="20.2" height="4.5" rx="2.25"></rect>
                    <rect id="Rectangle-Copy-6" fill="#2B2B2B" x="21.959887" y="35.4515149" width="20.2" height="4.5" rx="2.25"></rect>
                    <rect id="Rectangle" fill="#444444" x="0" y="0" width="189" height="37.7015149" rx="18.850757"></rect>
                    <ellipse id="Oval" fill="#D8D8D8" opacity="0.200000003" cx="151.159887" cy="18.8507574" rx="13" ry="8.91079113"></ellipse>
                    <line x1="137.8" y1="12.2034471" x2="167.3" y2="26.2034471" id="Line" stroke="#444444" stroke-linecap="square"></line>
                    <line x1="137.8" y1="25.2034471" x2="165.8" y2="13.2034471" id="Line-Copy" stroke="#444444" stroke-linecap="square"></line>
                    <ellipse id="Oval-Copy-5" fill="#D8D8D8" opacity="0.200000003" cx="122.459887" cy="19.0899663" rx="4.5" ry="3.35"></ellipse>
                    <ellipse id="Oval-Copy-10" fill="#444444" cx="151.159887" cy="19.0899663" rx="4.5" ry="3.35"></ellipse>
                    <ellipse id="Oval-Copy" stroke="#40FF00" fill="#444444" cx="20.0710985" cy="18.5811851" rx="5.62959617" ry="3.8587812"></ellipse>
                    <circle id="Oval-Copy-2" fill="#40FF00" cx="48.4506947" cy="18.8507574" r="2.25"></circle>
                    <circle id="Oval-Copy-11" fill="url(#radialGradient-2)" cx="48.3646112" cy="18.9368409" r="5.50252279"></circle>
                    <circle id="Oval-Copy-12" fill="url(#radialGradient-3)" opacity="0.800000012" cx="65.9506947" cy="18.9368409" r="5.50252279"></circle>
                    <circle id="Oval-Copy-3" fill="#00A5FF" cx="65.9506947" cy="18.8507574" r="2.25"></circle>
                    <circle id="Oval-Copy-4" fill="#FF0000" opacity="0.300000012" cx="83.9506947" cy="18.8507574" r="2.25"></circle>
                </g>
                <g id="Group-Copy-3" opacity="0.300000012" transform="translate(263.266756, 68.555911)">
                    <g id="Group-Copy-2">
                        <rect id="Rectangle-Copy-5" fill="#2B2B2B" x="76.4056628" y="30.1078102" width="14.2959986" height="3.82170259" rx="1.91085129"></rect>
                        <rect id="Rectangle-Copy-6" fill="#2B2B2B" x="15.5415105" y="30.1078102" width="14.2959986" height="3.82170259" rx="1.91085129"></rect>
                        <rect id="Rectangle" fill="#444444" x="0" y="0" width="101.558208" height="32.0186615" rx="7"></rect>
                        <ellipse id="Oval-Copy-2" fill="#40FF00" cx="13.9491345" cy="16.0093308" rx="1.59237608" ry="1.91085129"></ellipse>
                        <ellipse id="Oval-Copy-6" fill="#40FF00" cx="28.1035885" cy="16.0093308" rx="1.59237608" ry="1.91085129"></ellipse>
                        <ellipse id="Oval-Copy-7" fill="#40FF00" cx="42.2580425" cy="16.0093308" rx="1.59237608" ry="1.91085129"></ellipse>
                        <ellipse id="Oval-Copy-8" fill="#40FF00" opacity="0.300000012" cx="56.4124965" cy="16.0093308" rx="1.59237608" ry="1.91085129"></ellipse>
                        <ellipse id="Oval-Copy-9" fill="#000000" opacity="0.544140637" cx="88.1148196" cy="16.0093308" rx="2.58684177" ry="3.10421012"></ellipse>
                    </g>
                </g>
                <path d="M6.644,216.557843 C8.244,216.557843 9.548,216.049843 10.556,215.033843 C11.564,214.017843 12.068,212.629843 12.068,210.869843 L12.068,205.445843 C12.068,203.685843 11.564,202.297843 10.556,201.281843 C9.548,200.265843 8.244,199.757843 6.644,199.757843 L1.22,199.757843 L1.22,216.557843 L6.644,216.557843 Z M6.644,214.733843 L3.068,214.733843 L3.068,201.581843 L6.644,201.581843 C7.636,201.597843 8.48,201.929843 9.176,202.577843 C9.872,203.225843 10.22,204.181843 10.22,205.445843 L10.22,210.869843 C10.22,212.133843 9.872,213.093843 9.176,213.749843 C8.48,214.405843 7.636,214.733843 6.644,214.733843 Z M19.796,216.797843 C20.868,216.797843 21.9,216.493843 22.892,215.885843 C23.884,215.277843 24.46,214.205843 24.62,212.669843 L22.772,212.669843 C22.628,213.469843 22.272,214.069843 21.704,214.469843 C21.136,214.869843 20.5,215.069843 19.796,215.069843 C18.996,215.069843 18.288,214.809843 17.672,214.289843 C17.056,213.769843 16.748,212.997843 16.748,211.973843 L16.748,210.773843 L24.644,210.773843 L24.644,208.685843 C24.644,206.877843 24.124,205.617843 23.084,204.905843 C22.044,204.193843 20.948,203.837843 19.796,203.837843 C18.644,203.837843 17.548,204.193843 16.508,204.905843 C15.468,205.617843 14.948,206.877843 14.948,208.685843 L14.948,211.949843 C14.948,213.757843 15.468,215.017843 16.508,215.729843 C17.548,216.441843 18.644,216.797843 19.796,216.797843 Z M22.844,209.117843 L16.748,209.117843 L16.748,208.661843 C16.748,207.637843 17.056,206.865843 17.672,206.345843 C18.288,205.825843 18.996,205.565843 19.796,205.565843 C20.596,205.565843 21.304,205.825843 21.92,206.345843 C22.536,206.865843 22.844,207.637843 22.844,208.661843 L22.844,209.117843 Z M32.3,216.797843 C33.388,216.797843 34.432,216.485843 35.432,215.861843 C36.432,215.237843 36.996,214.133843 37.124,212.549843 L35.3,212.549843 C35.188,213.381843 34.84,214.009843 34.256,214.433843 C33.672,214.857843 33.02,215.069843 32.3,215.069843 C31.5,215.069843 30.792,214.809843 30.176,214.289843 C29.56,213.769843 29.252,212.997843 29.252,211.973843 L29.252,208.661843 C29.252,207.637843 29.56,206.865843 30.176,206.345843 C30.792,205.825843 31.5,205.565843 32.3,205.565843 C33.02,205.565843 33.672,205.777843 34.256,206.201843 C34.84,206.625843 35.188,207.253843 35.3,208.085843 L37.124,208.085843 C36.996,206.501843 36.432,205.397843 35.432,204.773843 C34.432,204.149843 33.388,203.837843 32.3,203.837843 C31.148,203.837843 30.052,204.193843 29.012,204.905843 C27.972,205.617843 27.452,206.877843 27.452,208.685843 L27.452,211.949843 C27.452,213.773843 27.972,215.037843 29.012,215.741843 C30.052,216.445843 31.148,216.797843 32.3,216.797843 Z M44.66,216.797843 C45.812,216.797843 46.908,216.441843 47.948,215.729843 C48.988,215.017843 49.508,213.757843 49.508,211.949843 L49.508,208.685843 C49.508,206.877843 48.988,205.617843 47.948,204.905843 C46.908,204.193843 45.812,203.837843 44.66,203.837843 C43.508,203.837843 42.412,204.193843 41.372,204.905843 C40.332,205.617843 39.812,206.877843 39.812,208.685843 L39.812,211.949843 C39.812,213.757843 40.332,215.017843 41.372,215.729843 C42.412,216.441843 43.508,216.797843 44.66,216.797843 Z M44.66,215.069843 C43.86,215.069843 43.152,214.809843 42.536,214.289843 C41.92,213.769843 41.612,212.997843 41.612,211.973843 L41.612,208.661843 C41.612,207.637843 41.92,206.865843 42.536,206.345843 C43.152,205.825843 43.86,205.565843 44.66,205.565843 C45.46,205.565843 46.168,205.825843 46.784,206.345843 C47.4,206.865843 47.708,207.637843 47.708,208.661843 L47.708,211.973843 C47.708,212.997843 47.4,213.769843 46.784,214.289843 C46.168,214.809843 45.46,215.069843 44.66,215.069843 Z M57.284,216.797843 C57.844,216.797843 58.416,216.669843 59,216.413843 C59.584,216.157843 60.028,215.781843 60.332,215.285843 L60.332,215.285843 L60.332,216.557843 L62.132,216.557843 L62.132,199.757843 L60.332,199.757843 L60.332,205.349843 C60.028,204.853843 59.584,204.477843 59,204.221843 C58.416,203.965843 57.844,203.837843 57.284,203.837843 C56.132,203.837843 55.036,204.193843 53.996,204.905843 C52.956,205.617843 52.436,206.877843 52.436,208.685843 L52.436,208.685843 L52.436,211.949843 C52.436,213.757843 52.956,215.017843 53.996,215.729843 C55.036,216.441843 56.132,216.797843 57.284,216.797843 Z M57.284,215.069843 C56.484,215.069843 55.776,214.809843 55.16,214.289843 C54.544,213.769843 54.236,212.997843 54.236,211.973843 L54.236,211.973843 L54.236,208.661843 C54.236,207.637843 54.544,206.865843 55.16,206.345843 C55.776,205.825843 56.484,205.565843 57.284,205.565843 C58.084,205.565843 58.792,205.825843 59.408,206.345843 C60.024,206.865843 60.332,207.637843 60.332,208.661843 L60.332,208.661843 L60.332,211.973843 C60.332,212.997843 60.024,213.769843 59.408,214.289843 C58.792,214.809843 58.084,215.069843 57.284,215.069843 Z M67.532,202.085843 L67.532,199.757843 L65.732,199.757843 L65.732,202.085843 L67.532,202.085843 Z M67.532,216.557843 L67.532,204.173843 L65.732,204.173843 L65.732,216.557843 L67.532,216.557843 Z M73.556,216.557843 L73.556,205.901843 L76.604,205.901843 L76.604,204.173843 L73.556,204.173843 L73.556,202.565843 C73.556,202.165843 73.64,201.885843 73.808,201.725843 C73.976,201.565843 74.276,201.485843 74.708,201.485843 L76.604,201.485843 L76.604,199.757843 L74.708,199.757843 C73.556,199.757843 72.776,199.985843 72.368,200.441843 C71.96,200.897843 71.756,201.653843 71.756,202.709843 L71.756,204.173843 L70.004,204.173843 L70.004,205.901843 L71.756,205.901843 L71.756,216.557843 L73.556,216.557843 Z M80.54,202.085843 L80.54,199.757843 L78.74,199.757843 L78.74,202.085843 L80.54,202.085843 Z M80.54,216.557843 L80.54,204.173843 L78.74,204.173843 L78.74,216.557843 L80.54,216.557843 Z M88.652,216.797843 C89.74,216.797843 90.784,216.485843 91.784,215.861843 C92.784,215.237843 93.348,214.133843 93.476,212.549843 L91.652,212.549843 C91.54,213.381843 91.192,214.009843 90.608,214.433843 C90.024,214.857843 89.372,215.069843 88.652,215.069843 C87.852,215.069843 87.144,214.809843 86.528,214.289843 C85.912,213.769843 85.604,212.997843 85.604,211.973843 L85.604,208.661843 C85.604,207.637843 85.912,206.865843 86.528,206.345843 C87.144,205.825843 87.852,205.565843 88.652,205.565843 C89.372,205.565843 90.024,205.777843 90.608,206.201843 C91.192,206.625843 91.54,207.253843 91.652,208.085843 L93.476,208.085843 C93.348,206.501843 92.784,205.397843 91.784,204.773843 C90.784,204.149843 89.74,203.837843 88.652,203.837843 C87.5,203.837843 86.404,204.193843 85.364,204.905843 C84.324,205.617843 83.804,206.877843 83.804,208.685843 L83.804,211.949843 C83.804,213.773843 84.324,215.037843 85.364,215.741843 C86.404,216.445843 87.5,216.797843 88.652,216.797843 Z M99.884,216.797843 C100.716,216.797843 101.468,216.673843 102.14,216.425843 C102.812,216.177843 103.348,215.797843 103.748,215.285843 L103.748,216.557843 L105.548,216.557843 L105.548,208.685843 C105.548,206.877843 105.028,205.617843 103.988,204.905843 C102.948,204.193843 101.852,203.837843 100.7,203.837843 C99.628,203.837843 98.596,204.141843 97.604,204.749843 C96.612,205.357843 96.036,206.429843 95.876,207.965843 L97.724,207.965843 C97.868,207.165843 98.224,206.565843 98.792,206.165843 C99.36,205.765843 99.996,205.565843 100.7,205.565843 C101.5,205.565843 102.208,205.825843 102.824,206.345843 C103.44,206.865843 103.748,207.637843 103.748,208.661843 L103.748,208.877843 C102.708,208.941843 101.744,209.021843 100.856,209.117843 C99.968,209.213843 99.172,209.365843 98.468,209.573843 C97.396,209.877843 96.68,210.389843 96.32,211.109843 C95.96,211.829843 95.78,212.501843 95.78,213.125843 C95.78,214.389843 96.2,215.317843 97.04,215.909843 C97.88,216.501843 98.828,216.797843 99.884,216.797843 Z M100.268,215.069843 C99.356,215.069843 98.68,214.877843 98.24,214.493843 C97.8,214.109843 97.58,213.637843 97.58,213.077843 C97.58,212.725843 97.648,212.405843 97.784,212.117843 C97.92,211.829843 98.212,211.557843 98.66,211.301843 C99.076,211.077843 99.692,210.909843 100.508,210.797843 C101.324,210.685843 102.404,210.581843 103.748,210.485843 L103.748,212.093843 C103.748,213.053843 103.408,213.789843 102.728,214.301843 C102.048,214.813843 101.228,215.069843 100.268,215.069843 Z M113.492,216.797843 C114.052,216.797843 114.624,216.669843 115.208,216.413843 C115.792,216.157843 116.236,215.781843 116.54,215.285843 L116.54,215.285843 L116.54,216.557843 L118.34,216.557843 L118.34,199.757843 L116.54,199.757843 L116.54,205.349843 C116.236,204.853843 115.792,204.477843 115.208,204.221843 C114.624,203.965843 114.052,203.837843 113.492,203.837843 C112.34,203.837843 111.244,204.193843 110.204,204.905843 C109.164,205.617843 108.644,206.877843 108.644,208.685843 L108.644,208.685843 L108.644,211.949843 C108.644,213.757843 109.164,215.017843 110.204,215.729843 C111.244,216.441843 112.34,216.797843 113.492,216.797843 Z M113.492,215.069843 C112.692,215.069843 111.984,214.809843 111.368,214.289843 C110.752,213.769843 110.444,212.997843 110.444,211.973843 L110.444,211.973843 L110.444,208.661843 C110.444,207.637843 110.752,206.865843 111.368,206.345843 C111.984,205.825843 112.692,205.565843 113.492,205.565843 C114.292,205.565843 115,205.825843 115.616,206.345843 C116.232,206.865843 116.54,207.637843 116.54,208.661843 L116.54,208.661843 L116.54,211.973843 C116.54,212.997843 116.232,213.769843 115.616,214.289843 C115,214.809843 114.292,215.069843 113.492,215.069843 Z M126.452,216.797843 C127.604,216.797843 128.7,216.441843 129.74,215.729843 C130.78,215.017843 131.3,213.757843 131.3,211.949843 L131.3,208.685843 C131.3,206.877843 130.78,205.617843 129.74,204.905843 C128.7,204.193843 127.604,203.837843 126.452,203.837843 C125.3,203.837843 124.204,204.193843 123.164,204.905843 C122.124,205.617843 121.604,206.877843 121.604,208.685843 L121.604,211.949843 C121.604,213.757843 122.124,215.017843 123.164,215.729843 C124.204,216.441843 125.3,216.797843 126.452,216.797843 Z M126.452,215.069843 C125.652,215.069843 124.944,214.809843 124.328,214.289843 C123.712,213.769843 123.404,212.997843 123.404,211.973843 L123.404,208.661843 C123.404,207.637843 123.712,206.865843 124.328,206.345843 C124.944,205.825843 125.652,205.565843 126.452,205.565843 C127.252,205.565843 127.96,205.825843 128.576,206.345843 C129.192,206.865843 129.5,207.637843 129.5,208.661843 L129.5,211.973843 C129.5,212.997843 129.192,213.769843 128.576,214.289843 C127.96,214.809843 127.252,215.069843 126.452,215.069843 Z M136.364,216.557843 L136.364,208.781843 C136.364,207.757843 136.672,206.985843 137.288,206.465843 C137.904,205.945843 138.612,205.685843 139.412,205.685843 L140.204,205.685843 L140.204,203.957843 L139.412,203.957843 C138.852,203.957843 138.28,204.085843 137.696,204.341843 C137.112,204.597843 136.668,204.973843 136.364,205.469843 L136.364,204.173843 L134.564,204.173843 L134.564,216.557843 L136.364,216.557843 Z M152.324,216.797843 C152.884,216.797843 153.456,216.669843 154.04,216.413843 C154.624,216.157843 155.068,215.781843 155.372,215.285843 L155.372,215.285843 L155.372,216.557843 L157.172,216.557843 L157.172,199.757843 L155.372,199.757843 L155.372,205.349843 C155.068,204.853843 154.624,204.477843 154.04,204.221843 C153.456,203.965843 152.884,203.837843 152.324,203.837843 C151.172,203.837843 150.076,204.193843 149.036,204.905843 C147.996,205.617843 147.476,206.877843 147.476,208.685843 L147.476,208.685843 L147.476,211.949843 C147.476,213.757843 147.996,215.017843 149.036,215.729843 C150.076,216.441843 151.172,216.797843 152.324,216.797843 Z M152.324,215.069843 C151.524,215.069843 150.816,214.809843 150.2,214.289843 C149.584,213.769843 149.276,212.997843 149.276,211.973843 L149.276,211.973843 L149.276,208.661843 C149.276,207.637843 149.584,206.865843 150.2,206.345843 C150.816,205.825843 151.524,205.565843 152.324,205.565843 C153.124,205.565843 153.832,205.825843 154.448,206.345843 C155.064,206.865843 155.372,207.637843 155.372,208.661843 L155.372,208.661843 L155.372,211.973843 C155.372,212.997843 155.064,213.769843 154.448,214.289843 C153.832,214.809843 153.124,215.069843 152.324,215.069843 Z M164.324,216.797843 C165.156,216.797843 165.908,216.673843 166.58,216.425843 C167.252,216.177843 167.788,215.797843 168.188,215.285843 L168.188,216.557843 L169.988,216.557843 L169.988,208.685843 C169.988,206.877843 169.468,205.617843 168.428,204.905843 C167.388,204.193843 166.292,203.837843 165.14,203.837843 C164.068,203.837843 163.036,204.141843 162.044,204.749843 C161.052,205.357843 160.476,206.429843 160.316,207.965843 L162.164,207.965843 C162.308,207.165843 162.664,206.565843 163.232,206.165843 C163.8,205.765843 164.436,205.565843 165.14,205.565843 C165.94,205.565843 166.648,205.825843 167.264,206.345843 C167.88,206.865843 168.188,207.637843 168.188,208.661843 L168.188,208.877843 C167.148,208.941843 166.184,209.021843 165.296,209.117843 C164.408,209.213843 163.612,209.365843 162.908,209.573843 C161.836,209.877843 161.12,210.389843 160.76,211.109843 C160.4,211.829843 160.22,212.501843 160.22,213.125843 C160.22,214.389843 160.64,215.317843 161.48,215.909843 C162.32,216.501843 163.268,216.797843 164.324,216.797843 Z M164.708,215.069843 C163.796,215.069843 163.12,214.877843 162.68,214.493843 C162.24,214.109843 162.02,213.637843 162.02,213.077843 C162.02,212.725843 162.088,212.405843 162.224,212.117843 C162.36,211.829843 162.652,211.557843 163.1,211.301843 C163.516,211.077843 164.132,210.909843 164.948,210.797843 C165.764,210.685843 166.844,210.581843 168.188,210.485843 L168.188,212.093843 C168.188,213.053843 167.848,213.789843 167.168,214.301843 C166.488,214.813843 165.668,215.069843 164.708,215.069843 Z M183.692,216.557843 L183.692,201.581843 L188.18,201.581843 L188.18,199.757843 L177.356,199.757843 L177.356,201.581843 L181.844,201.581843 L181.844,216.557843 L183.692,216.557843 Z M196.964,216.557843 L202.364,199.757843 L200.492,199.757843 L195.908,213.989843 L191.324,199.757843 L189.452,199.757843 L194.852,216.557843 L196.964,216.557843 Z" id="DecodificadordaTV" fill="#444444" fill-rule="nonzero"></path>
                <path d="M437.485793,207.354396 L437.485793,194.442396 L441.493793,202.842396 L443.221793,202.842396 L447.229793,194.442396 L447.229793,207.354396 L449.053793,207.354396 L449.053793,190.554396 L447.205793,190.554396 L442.357793,200.730396 L437.509793,190.554396 L435.661793,190.554396 L435.661793,207.354396 L437.485793,207.354396 Z M457.285793,207.594396 C458.437793,207.594396 459.533793,207.238396 460.573793,206.526396 C461.613793,205.814396 462.133793,204.554396 462.133793,202.746396 L462.133793,199.482396 C462.133793,197.674396 461.613793,196.414396 460.573793,195.702396 C459.533793,194.990396 458.437793,194.634396 457.285793,194.634396 C456.133793,194.634396 455.037793,194.990396 453.997793,195.702396 C452.957793,196.414396 452.437793,197.674396 452.437793,199.482396 L452.437793,202.746396 C452.437793,204.554396 452.957793,205.814396 453.997793,206.526396 C455.037793,207.238396 456.133793,207.594396 457.285793,207.594396 Z M457.285793,205.866396 C456.485793,205.866396 455.777793,205.606396 455.161793,205.086396 C454.545793,204.566396 454.237793,203.794396 454.237793,202.770396 L454.237793,199.458396 C454.237793,198.434396 454.545793,197.662396 455.161793,197.142396 C455.777793,196.622396 456.485793,196.362396 457.285793,196.362396 C458.085793,196.362396 458.793793,196.622396 459.409793,197.142396 C460.025793,197.662396 460.333793,198.434396 460.333793,199.458396 L460.333793,202.770396 C460.333793,203.794396 460.025793,204.566396 459.409793,205.086396 C458.793793,205.606396 458.085793,205.866396 457.285793,205.866396 Z M469.909793,207.594396 C470.469793,207.594396 471.041793,207.466396 471.625793,207.210396 C472.209793,206.954396 472.653793,206.578396 472.957793,206.082396 L472.957793,206.082396 L472.957793,207.354396 L474.757793,207.354396 L474.757793,190.554396 L472.957793,190.554396 L472.957793,196.146396 C472.653793,195.650396 472.209793,195.274396 471.625793,195.018396 C471.041793,194.762396 470.469793,194.634396 469.909793,194.634396 C468.757793,194.634396 467.661793,194.990396 466.621793,195.702396 C465.581793,196.414396 465.061793,197.674396 465.061793,199.482396 L465.061793,199.482396 L465.061793,202.746396 C465.061793,204.554396 465.581793,205.814396 466.621793,206.526396 C467.661793,207.238396 468.757793,207.594396 469.909793,207.594396 Z M469.909793,205.866396 C469.109793,205.866396 468.401793,205.606396 467.785793,205.086396 C467.169793,204.566396 466.861793,203.794396 466.861793,202.770396 L466.861793,202.770396 L466.861793,199.458396 C466.861793,198.434396 467.169793,197.662396 467.785793,197.142396 C468.401793,196.622396 469.109793,196.362396 469.909793,196.362396 C470.709793,196.362396 471.417793,196.622396 472.033793,197.142396 C472.649793,197.662396 472.957793,198.434396 472.957793,199.458396 L472.957793,199.458396 L472.957793,202.770396 C472.957793,203.794396 472.649793,204.566396 472.033793,205.086396 C471.417793,205.606396 470.709793,205.866396 469.909793,205.866396 Z M482.869793,207.594396 C483.941793,207.594396 484.973793,207.290396 485.965793,206.682396 C486.957793,206.074396 487.533793,205.002396 487.693793,203.466396 L485.845793,203.466396 C485.701793,204.266396 485.345793,204.866396 484.777793,205.266396 C484.209793,205.666396 483.573793,205.866396 482.869793,205.866396 C482.069793,205.866396 481.361793,205.606396 480.745793,205.086396 C480.129793,204.566396 479.821793,203.794396 479.821793,202.770396 L479.821793,201.570396 L487.717793,201.570396 L487.717793,199.482396 C487.717793,197.674396 487.197793,196.414396 486.157793,195.702396 C485.117793,194.990396 484.021793,194.634396 482.869793,194.634396 C481.717793,194.634396 480.621793,194.990396 479.581793,195.702396 C478.541793,196.414396 478.021793,197.674396 478.021793,199.482396 L478.021793,202.746396 C478.021793,204.554396 478.541793,205.814396 479.581793,206.526396 C480.621793,207.238396 481.717793,207.594396 482.869793,207.594396 Z M485.917793,199.914396 L479.821793,199.914396 L479.821793,199.458396 C479.821793,198.434396 480.129793,197.662396 480.745793,197.142396 C481.361793,196.622396 482.069793,196.362396 482.869793,196.362396 C483.669793,196.362396 484.377793,196.622396 484.993793,197.142396 C485.609793,197.662396 485.917793,198.434396 485.917793,199.458396 L485.917793,199.914396 Z M492.661793,207.354396 L492.661793,199.458396 C492.661793,198.466396 492.957793,197.702396 493.549793,197.166396 C494.141793,196.630396 494.805793,196.362396 495.541793,196.362396 C496.245793,196.362396 496.897793,196.626396 497.497793,197.154396 C498.097793,197.682396 498.397793,198.402396 498.397793,199.314396 L498.397793,207.354396 L500.197793,207.354396 L500.197793,199.458396 C500.197793,198.466396 500.493793,197.702396 501.085793,197.166396 C501.677793,196.630396 502.341793,196.362396 503.077793,196.362396 C503.781793,196.362396 504.433793,196.626396 505.033793,197.154396 C505.633793,197.682396 505.933793,198.402396 505.933793,199.314396 L505.933793,207.354396 L507.733793,207.354396 L507.733793,199.482396 C507.733793,197.738396 507.229793,196.494396 506.221793,195.750396 C505.213793,195.006396 504.157793,194.634396 503.053793,194.634396 C502.365793,194.634396 501.669793,194.786396 500.965793,195.090396 C500.261793,195.394396 499.701793,195.890396 499.285793,196.578396 C498.869793,195.890396 498.313793,195.394396 497.617793,195.090396 C496.921793,194.786396 496.229793,194.634396 495.541793,194.634396 C495.093793,194.634396 494.577793,194.762396 493.993793,195.018396 C493.409793,195.274396 492.965793,195.650396 492.661793,196.146396 L492.661793,194.970396 L490.861793,194.970396 L490.861793,207.354396 L492.661793,207.354396 Z M521.077793,207.594396 C521.637793,207.594396 522.209793,207.466396 522.793793,207.210396 C523.377793,206.954396 523.821793,206.578396 524.125793,206.082396 L524.125793,206.082396 L524.125793,207.354396 L525.925793,207.354396 L525.925793,190.554396 L524.125793,190.554396 L524.125793,196.146396 C523.821793,195.650396 523.377793,195.274396 522.793793,195.018396 C522.209793,194.762396 521.637793,194.634396 521.077793,194.634396 C519.925793,194.634396 518.829793,194.990396 517.789793,195.702396 C516.749793,196.414396 516.229793,197.674396 516.229793,199.482396 L516.229793,199.482396 L516.229793,202.746396 C516.229793,204.554396 516.749793,205.814396 517.789793,206.526396 C518.829793,207.238396 519.925793,207.594396 521.077793,207.594396 Z M521.077793,205.866396 C520.277793,205.866396 519.569793,205.606396 518.953793,205.086396 C518.337793,204.566396 518.029793,203.794396 518.029793,202.770396 L518.029793,202.770396 L518.029793,199.458396 C518.029793,198.434396 518.337793,197.662396 518.953793,197.142396 C519.569793,196.622396 520.277793,196.362396 521.077793,196.362396 C521.877793,196.362396 522.585793,196.622396 523.201793,197.142396 C523.817793,197.662396 524.125793,198.434396 524.125793,199.458396 L524.125793,199.458396 L524.125793,202.770396 C524.125793,203.794396 523.817793,204.566396 523.201793,205.086396 C522.585793,205.606396 521.877793,205.866396 521.077793,205.866396 Z M534.037793,207.594396 C535.109793,207.594396 536.141793,207.290396 537.133793,206.682396 C538.125793,206.074396 538.701793,205.002396 538.861793,203.466396 L537.013793,203.466396 C536.869793,204.266396 536.513793,204.866396 535.945793,205.266396 C535.377793,205.666396 534.741793,205.866396 534.037793,205.866396 C533.237793,205.866396 532.529793,205.606396 531.913793,205.086396 C531.297793,204.566396 530.989793,203.794396 530.989793,202.770396 L530.989793,201.570396 L538.885793,201.570396 L538.885793,199.482396 C538.885793,197.674396 538.365793,196.414396 537.325793,195.702396 C536.285793,194.990396 535.189793,194.634396 534.037793,194.634396 C532.885793,194.634396 531.789793,194.990396 530.749793,195.702396 C529.709793,196.414396 529.189793,197.674396 529.189793,199.482396 L529.189793,202.746396 C529.189793,204.554396 529.709793,205.814396 530.749793,206.526396 C531.789793,207.238396 532.885793,207.594396 534.037793,207.594396 Z M537.085793,199.914396 L530.989793,199.914396 L530.989793,199.458396 C530.989793,198.434396 531.297793,197.662396 531.913793,197.142396 C532.529793,196.622396 533.237793,196.362396 534.037793,196.362396 C534.837793,196.362396 535.545793,196.622396 536.161793,197.142396 C536.777793,197.662396 537.085793,198.434396 537.085793,199.458396 L537.085793,199.914396 Z M549.397793,207.354396 L549.397793,199.770396 L557.101793,199.770396 L557.101793,197.946396 L549.397793,197.946396 L549.397793,192.378396 L557.101793,192.378396 L557.101793,190.554396 L547.549793,190.554396 L547.549793,207.354396 L549.397793,207.354396 Z M561.997793,192.882396 L561.997793,190.554396 L560.197793,190.554396 L560.197793,192.882396 L561.997793,192.882396 Z M561.997793,207.354396 L561.997793,194.970396 L560.197793,194.970396 L560.197793,207.354396 L561.997793,207.354396 Z M570.445793,207.594396 C571.597793,207.594396 572.693793,207.238396 573.733793,206.526396 C574.773793,205.814396 575.293793,204.554396 575.293793,202.746396 L575.293793,199.482396 C575.293793,197.674396 574.773793,196.414396 573.733793,195.702396 C572.693793,194.990396 571.597793,194.634396 570.445793,194.634396 C569.885793,194.634396 569.313793,194.762396 568.729793,195.018396 C568.145793,195.274396 567.701793,195.650396 567.397793,196.146396 L567.397793,190.554396 L565.597793,190.554396 L565.597793,207.354396 L567.397793,207.354396 L567.397793,206.082396 C567.701793,206.578396 568.145793,206.954396 568.729793,207.210396 C569.313793,207.466396 569.885793,207.594396 570.445793,207.594396 Z M570.445793,205.866396 C569.645793,205.866396 568.937793,205.606396 568.321793,205.086396 C567.705793,204.566396 567.397793,203.794396 567.397793,202.770396 L567.397793,199.458396 C567.397793,198.434396 567.705793,197.662396 568.321793,197.142396 C568.937793,196.622396 569.645793,196.362396 570.445793,196.362396 C571.245793,196.362396 571.953793,196.622396 572.569793,197.142396 C573.185793,197.662396 573.493793,198.434396 573.493793,199.458396 L573.493793,202.770396 C573.493793,203.794396 573.185793,204.566396 572.569793,205.086396 C571.953793,205.606396 571.245793,205.866396 570.445793,205.866396 Z M580.357793,207.354396 L580.357793,199.578396 C580.357793,198.554396 580.665793,197.782396 581.281793,197.262396 C581.897793,196.742396 582.605793,196.482396 583.405793,196.482396 L584.197793,196.482396 L584.197793,194.754396 L583.405793,194.754396 C582.845793,194.754396 582.273793,194.882396 581.689793,195.138396 C581.105793,195.394396 580.661793,195.770396 580.357793,196.266396 L580.357793,194.970396 L578.557793,194.970396 L578.557793,207.354396 L580.357793,207.354396 Z M589.789793,207.594396 C590.621793,207.594396 591.373793,207.470396 592.045793,207.222396 C592.717793,206.974396 593.253793,206.594396 593.653793,206.082396 L593.653793,207.354396 L595.453793,207.354396 L595.453793,199.482396 C595.453793,197.674396 594.933793,196.414396 593.893793,195.702396 C592.853793,194.990396 591.757793,194.634396 590.605793,194.634396 C589.533793,194.634396 588.501793,194.938396 587.509793,195.546396 C586.517793,196.154396 585.941793,197.226396 585.781793,198.762396 L587.629793,198.762396 C587.773793,197.962396 588.129793,197.362396 588.697793,196.962396 C589.265793,196.562396 589.901793,196.362396 590.605793,196.362396 C591.405793,196.362396 592.113793,196.622396 592.729793,197.142396 C593.345793,197.662396 593.653793,198.434396 593.653793,199.458396 L593.653793,199.674396 C592.613793,199.738396 591.649793,199.818396 590.761793,199.914396 C589.873793,200.010396 589.077793,200.162396 588.373793,200.370396 C587.301793,200.674396 586.585793,201.186396 586.225793,201.906396 C585.865793,202.626396 585.685793,203.298396 585.685793,203.922396 C585.685793,205.186396 586.105793,206.114396 586.945793,206.706396 C587.785793,207.298396 588.733793,207.594396 589.789793,207.594396 Z M590.173793,205.866396 C589.261793,205.866396 588.585793,205.674396 588.145793,205.290396 C587.705793,204.906396 587.485793,204.434396 587.485793,203.874396 C587.485793,203.522396 587.553793,203.202396 587.689793,202.914396 C587.825793,202.626396 588.117793,202.354396 588.565793,202.098396 C588.981793,201.874396 589.597793,201.706396 590.413793,201.594396 C591.229793,201.482396 592.309793,201.378396 593.653793,201.282396 L593.653793,202.890396 C593.653793,203.850396 593.313793,204.586396 592.633793,205.098396 C591.953793,205.610396 591.133793,205.866396 590.173793,205.866396 Z" id="ModemdeFibra" fill="#444444" fill-rule="nonzero"></path>
                <path id="Line-4" d="M314.266756,-7.16573953 L316.881483,-2.51733667 L332.631483,25.4826633 C333.443774,26.926737 332.931613,28.7558822 331.48754,29.5681737 C330.09695,30.3503802 328.349285,29.9044254 327.496397,28.5808284 L327.402029,28.4242308 L317.266,10.404 L317.266756,58.5877604 C317.266756,60.2446147 315.92361,61.5877604 314.266756,61.5877604 C312.669075,61.5877604 311.363095,60.3388405 311.271849,58.7640332 L311.266756,58.5877604 L311.266,10.407 L301.131483,28.4242308 C300.349276,29.8148202 298.624143,30.3412489 297.207938,29.6529978 L297.045972,29.5681737 C295.655383,28.7859671 295.128954,27.0608343 295.817205,25.6446294 L295.902029,25.4826633 L311.652029,-2.51733667 L314.266756,-7.16573953 Z" fill="#9D9D9D" fill-rule="nonzero" opacity="0.400000006"></path>
            </g>
            <g id="Group-3" transform="translate(424.206897, 40.991885)">
                <path d="M6.6467033,97.893 C2.99134358,97.893 0,96.24735 0,94.23585 L0,3.65715 C0,1.64565 2.99134358,-2.34479103e-13 6.6467033,-2.34479103e-13 L174.704115,-2.34479103e-13 C178.359474,-2.34479103e-13 181.35,1.64565 181.35,3.65715 L181.35,94.23585 C181.35,96.24735 178.359474,97.893 174.704115,97.893 L6.6467033,97.893 Z" id="Fill-48" fill="#444444" fill-rule="nonzero"></path>
                <rect id="Rectangle" stroke="#323232" stroke-width="1.8" x="15.525" y="16.65" width="152.55" height="44.1" rx="22.05"></rect>
                <g id="Group-16" transform="translate(102.150000, 74.741707)" fill-rule="nonzero">
                    <polygon id="Fill-25" fill="#000000" points="0 13.4165847 4.36039003 13.4165847 4.36039003 0 0 0"></polygon>
                    <polygon id="Fill-25-Copy" fill="#858585" points="3.01873156 12.4103408 3.6895608 12.4103408 3.6895608 1.00624385 3.01873156 1.00624385"></polygon>
                </g>
                <g id="Group-16-Copy" transform="translate(109.361415, 74.741707)" fill-rule="nonzero">
                    <polygon id="Fill-25" fill="#000000" points="0 13.4165847 4.36039003 13.4165847 4.36039003 0 0 0"></polygon>
                    <polygon id="Fill-25-Copy" fill="#858585" points="3.01873156 12.4103408 3.6895608 12.4103408 3.6895608 1.00624385 3.01873156 1.00624385"></polygon>
                </g>
                <path d="M8.12717055,100.143 C7.3697945,100.143 6.75,100.059787 6.75,99.9580745 L6.75,95.3779255 C6.75,95.276213 7.3697945,95.193 8.12717055,95.193 L42.9479989,95.193 C43.7053749,95.193 44.325,95.276213 44.325,95.3779255 L44.325,99.9580745 C44.325,100.059787 43.7053749,100.143 42.9479989,100.143 L8.12717055,100.143 Z" id="Fill-48-Copy" fill="#2B2B2B" fill-rule="nonzero" transform="translate(25.537500, 97.668000) scale(-1, 1) rotate(-180.000000) translate(-25.537500, -97.668000) "></path>
                <path d="M136.152171,100.143 C135.394794,100.143 134.775,100.059787 134.775,99.9580745 L134.775,95.3779255 C134.775,95.276213 135.394794,95.193 136.152171,95.193 L170.972999,95.193 C171.730375,95.193 172.35,95.276213 172.35,95.3779255 L172.35,99.9580745 C172.35,100.059787 171.730375,100.143 170.972999,100.143 L136.152171,100.143 Z" id="Fill-48-Copy-2" fill="#2B2B2B" fill-rule="nonzero" transform="translate(153.562500, 97.668000) scale(-1, 1) rotate(-180.000000) translate(-153.562500, -97.668000) "></path>
                <g id="Group-13" transform="translate(13.175000, 74.325000)" fill-rule="nonzero">
                    <g id="Group-11" transform="translate(6.700000, 6.750000) rotate(-180.000000) translate(-6.700000, -6.750000) translate(0.700000, 0.750000)">
                        <path d="M10.7164688,11.0252446 L0.98353125,11.0252446 C0.69980625,11.0252446 0.46775625,10.7924185 0.46775625,10.5077445 L0.46775625,0.742744565 C0.46775625,0.458070652 0.69980625,0.224755435 0.98353125,0.224755435 L10.7164688,0.224755435 C11.0001937,0.224755435 11.2322437,0.458070652 11.2322437,0.742744565 L11.2322437,10.5077445 C11.2322437,10.7924185 11.0001937,11.0252446 10.7164688,11.0252446 Z" id="Fill-27" fill="#B6B8BA"></path>
                        <polygon id="Fill-31" fill="#5A5A5C" points="5.7869175 1.33151087 1.51983 1.33151087 1.51983 6.2228152 2.98233 6.2228152 2.98233 7.6902065 4.44483 7.6902065 4.44483 9.15759785 5.7869175 9.15759785 7.36983 9.15759785 7.36983 7.6902065 8.83233 7.6902065 8.83233 6.2228152 10.29483 6.2228152 10.29483 1.33151087"></polygon>
                        <polygon id="Fill-33" fill="#3F4243" points="1.5201225 1.82049456 10.2951225 1.82049456 10.2951225 1.33136413 1.5201225 1.33136413"></polygon>
                        <polygon id="Fill-35" fill="#3F4243" points="1.5201225 6.2226685 2.9826225 6.2226685 2.9826225 5.73353805 1.5201225 5.73353805"></polygon>
                        <polygon id="Fill-36" fill="#3F4243" points="8.8326225 6.2226685 10.2951225 6.2226685 10.2951225 5.73353805 8.8326225 5.73353805"></polygon>
                        <polygon id="Fill-37" fill="#3F4243" points="2.9826225 7.6900598 4.4451225 7.6900598 4.4451225 7.20092935 2.9826225 7.20092935"></polygon>
                        <polygon id="Fill-38" fill="#3F4243" points="4.4451225 9.1574511 7.3701225 9.1574511 7.3701225 8.66832065 4.4451225 8.66832065"></polygon>
                        <polygon id="Fill-39" fill="#3F4243" points="7.3701225 7.6900598 8.8326225 7.6900598 8.8326225 7.20092935 7.3701225 7.20092935"></polygon>
                        <polygon id="Fill-40" fill="#BDBEC2" points="4.824885 4.52440761 5.526885 4.52440761 5.526885 1.97457065 4.824885 1.97457065"></polygon>
                        <polygon id="Fill-41" fill="#BDBEC2" points="3.670485 4.52440761 4.372485 4.52440761 4.372485 1.97457065 3.670485 1.97457065"></polygon>
                        <polygon id="Fill-42" fill="#BDBEC2" points="5.979285 4.52440761 6.681285 4.52440761 6.681285 1.97457065 5.979285 1.97457065"></polygon>
                        <polygon id="Fill-43" fill="#BDBEC2" points="7.133685 4.52440761 7.835685 4.52440761 7.835685 1.97457065 7.133685 1.97457065"></polygon>
                        <path d="M0.98358,0.412483696 C0.80223,0.412483696 0.655005,0.560690215 0.655005,0.74264674 L0.655005,10.5076468 C0.655005,10.6896033 0.80223,10.8373207 0.98358,10.8373207 L10.7165175,10.8373207 C10.8978675,10.8373207 11.0450925,10.6896033 11.0450925,10.5076468 L11.0450925,0.74264674 C11.0450925,0.560690215 10.8978675,0.412483696 10.7165175,0.412483696 L0.98358,0.412483696 Z M10.7165175,11.2129729 L0.98358,11.2129729 C0.5960175,11.2129729 0.280605,10.8969946 0.280605,10.5076468 L0.280605,0.74264674 C0.280605,0.353298913 0.5960175,0.0368315218 0.98358,0.0368315218 L10.7165175,0.0368315218 C11.10408,0.0368315218 11.4194925,0.353298913 11.4194925,0.74264674 L11.4194925,10.5076468 C11.4194925,10.8969946 11.10408,11.2129729 10.7165175,11.2129729 L10.7165175,11.2129729 Z" id="Fill-29" fill="#5B5B5D"></path>
                    </g>
                    <g id="Group-11-Copy" transform="translate(18.400000, 6.750000) rotate(-180.000000) translate(-18.400000, -6.750000) translate(12.400000, 0.750000)">
                        <path d="M10.7164688,11.0252446 L0.98353125,11.0252446 C0.69980625,11.0252446 0.46775625,10.7924185 0.46775625,10.5077445 L0.46775625,0.742744565 C0.46775625,0.458070652 0.69980625,0.224755435 0.98353125,0.224755435 L10.7164688,0.224755435 C11.0001937,0.224755435 11.2322437,0.458070652 11.2322437,0.742744565 L11.2322437,10.5077445 C11.2322437,10.7924185 11.0001937,11.0252446 10.7164688,11.0252446 Z" id="Fill-27" fill="#B6B8BA"></path>
                        <polygon id="Fill-31" fill="#5A5A5C" points="5.7869175 1.33151087 1.51983 1.33151087 1.51983 6.2228152 2.98233 6.2228152 2.98233 7.6902065 4.44483 7.6902065 4.44483 9.15759785 5.7869175 9.15759785 7.36983 9.15759785 7.36983 7.6902065 8.83233 7.6902065 8.83233 6.2228152 10.29483 6.2228152 10.29483 1.33151087"></polygon>
                        <polygon id="Fill-33" fill="#3F4243" points="1.5201225 1.82049456 10.2951225 1.82049456 10.2951225 1.33136413 1.5201225 1.33136413"></polygon>
                        <polygon id="Fill-35" fill="#3F4243" points="1.5201225 6.2226685 2.9826225 6.2226685 2.9826225 5.73353805 1.5201225 5.73353805"></polygon>
                        <polygon id="Fill-36" fill="#3F4243" points="8.8326225 6.2226685 10.2951225 6.2226685 10.2951225 5.73353805 8.8326225 5.73353805"></polygon>
                        <polygon id="Fill-37" fill="#3F4243" points="2.9826225 7.6900598 4.4451225 7.6900598 4.4451225 7.20092935 2.9826225 7.20092935"></polygon>
                        <polygon id="Fill-38" fill="#3F4243" points="4.4451225 9.1574511 7.3701225 9.1574511 7.3701225 8.66832065 4.4451225 8.66832065"></polygon>
                        <polygon id="Fill-39" fill="#3F4243" points="7.3701225 7.6900598 8.8326225 7.6900598 8.8326225 7.20092935 7.3701225 7.20092935"></polygon>
                        <polygon id="Fill-40" fill="#BDBEC2" points="4.824885 4.52440761 5.526885 4.52440761 5.526885 1.97457065 4.824885 1.97457065"></polygon>
                        <polygon id="Fill-41" fill="#BDBEC2" points="3.670485 4.52440761 4.372485 4.52440761 4.372485 1.97457065 3.670485 1.97457065"></polygon>
                        <polygon id="Fill-42" fill="#BDBEC2" points="5.979285 4.52440761 6.681285 4.52440761 6.681285 1.97457065 5.979285 1.97457065"></polygon>
                        <polygon id="Fill-43" fill="#BDBEC2" points="7.133685 4.52440761 7.835685 4.52440761 7.835685 1.97457065 7.133685 1.97457065"></polygon>
                        <path d="M0.98358,0.412483696 C0.80223,0.412483696 0.655005,0.560690215 0.655005,0.74264674 L0.655005,10.5076468 C0.655005,10.6896033 0.80223,10.8373207 0.98358,10.8373207 L10.7165175,10.8373207 C10.8978675,10.8373207 11.0450925,10.6896033 11.0450925,10.5076468 L11.0450925,0.74264674 C11.0450925,0.560690215 10.8978675,0.412483696 10.7165175,0.412483696 L0.98358,0.412483696 Z M10.7165175,11.2129729 L0.98358,11.2129729 C0.5960175,11.2129729 0.280605,10.8969946 0.280605,10.5076468 L0.280605,0.74264674 C0.280605,0.353298913 0.5960175,0.0368315218 0.98358,0.0368315218 L10.7165175,0.0368315218 C11.10408,0.0368315218 11.4194925,0.353298913 11.4194925,0.74264674 L11.4194925,10.5076468 C11.4194925,10.8969946 11.10408,11.2129729 10.7165175,11.2129729 L10.7165175,11.2129729 Z" id="Fill-29" fill="#5B5B5D"></path>
                    </g>
                </g>
                <g id="Group-15" transform="translate(43.325000, 74.325000)" fill-rule="nonzero">
                    <g id="Group-11" transform="translate(6.700000, 6.750000) rotate(-180.000000) translate(-6.700000, -6.750000) translate(0.700000, 0.750000)">
                        <path d="M10.7164688,11.0252446 L0.98353125,11.0252446 C0.69980625,11.0252446 0.46775625,10.7924185 0.46775625,10.5077445 L0.46775625,0.742744565 C0.46775625,0.458070652 0.69980625,0.224755435 0.98353125,0.224755435 L10.7164688,0.224755435 C11.0001937,0.224755435 11.2322437,0.458070652 11.2322437,0.742744565 L11.2322437,10.5077445 C11.2322437,10.7924185 11.0001937,11.0252446 10.7164688,11.0252446 Z" id="Fill-27" fill="#EDCD63"></path>
                        <polygon id="Fill-31" fill="#5A5A5C" points="5.7869175 1.33151087 1.51983 1.33151087 1.51983 6.2228152 2.98233 6.2228152 2.98233 7.6902065 4.44483 7.6902065 4.44483 9.15759785 5.7869175 9.15759785 7.36983 9.15759785 7.36983 7.6902065 8.83233 7.6902065 8.83233 6.2228152 10.29483 6.2228152 10.29483 1.33151087"></polygon>
                        <polygon id="Fill-33" fill="#3F4243" points="1.5201225 1.82049456 10.2951225 1.82049456 10.2951225 1.33136413 1.5201225 1.33136413"></polygon>
                        <polygon id="Fill-35" fill="#3F4243" points="1.5201225 6.2226685 2.9826225 6.2226685 2.9826225 5.73353805 1.5201225 5.73353805"></polygon>
                        <polygon id="Fill-36" fill="#3F4243" points="8.8326225 6.2226685 10.2951225 6.2226685 10.2951225 5.73353805 8.8326225 5.73353805"></polygon>
                        <polygon id="Fill-37" fill="#3F4243" points="2.9826225 7.6900598 4.4451225 7.6900598 4.4451225 7.20092935 2.9826225 7.20092935"></polygon>
                        <polygon id="Fill-38" fill="#3F4243" points="4.4451225 9.1574511 7.3701225 9.1574511 7.3701225 8.66832065 4.4451225 8.66832065"></polygon>
                        <polygon id="Fill-39" fill="#3F4243" points="7.3701225 7.6900598 8.8326225 7.6900598 8.8326225 7.20092935 7.3701225 7.20092935"></polygon>
                        <polygon id="Fill-40" fill="#BDBEC2" points="4.824885 4.52440761 5.526885 4.52440761 5.526885 1.97457065 4.824885 1.97457065"></polygon>
                        <polygon id="Fill-41" fill="#BDBEC2" points="3.670485 4.52440761 4.372485 4.52440761 4.372485 1.97457065 3.670485 1.97457065"></polygon>
                        <polygon id="Fill-42" fill="#BDBEC2" points="5.979285 4.52440761 6.681285 4.52440761 6.681285 1.97457065 5.979285 1.97457065"></polygon>
                        <polygon id="Fill-43" fill="#BDBEC2" points="7.133685 4.52440761 7.835685 4.52440761 7.835685 1.97457065 7.133685 1.97457065"></polygon>
                        <path d="M0.98358,0.412483696 C0.80223,0.412483696 0.655005,0.560690215 0.655005,0.74264674 L0.655005,10.5076468 C0.655005,10.6896033 0.80223,10.8373207 0.98358,10.8373207 L10.7165175,10.8373207 C10.8978675,10.8373207 11.0450925,10.6896033 11.0450925,10.5076468 L11.0450925,0.74264674 C11.0450925,0.560690215 10.8978675,0.412483696 10.7165175,0.412483696 L0.98358,0.412483696 Z M10.7165175,11.2129729 L0.98358,11.2129729 C0.5960175,11.2129729 0.280605,10.8969946 0.280605,10.5076468 L0.280605,0.74264674 C0.280605,0.353298913 0.5960175,0.0368315218 0.98358,0.0368315218 L10.7165175,0.0368315218 C11.10408,0.0368315218 11.4194925,0.353298913 11.4194925,0.74264674 L11.4194925,10.5076468 C11.4194925,10.8969946 11.10408,11.2129729 10.7165175,11.2129729 L10.7165175,11.2129729 Z" id="Fill-29" fill="#5B5B5D"></path>
                    </g>
                    <g id="Group-13-Copy-2" transform="translate(11.700000, 0.000000)">
                        <g id="Group-11" transform="translate(6.700000, 6.750000) rotate(-180.000000) translate(-6.700000, -6.750000) translate(0.700000, 0.750000)">
                            <path d="M10.7164688,11.0252446 L0.98353125,11.0252446 C0.69980625,11.0252446 0.46775625,10.7924185 0.46775625,10.5077445 L0.46775625,0.742744565 C0.46775625,0.458070652 0.69980625,0.224755435 0.98353125,0.224755435 L10.7164688,0.224755435 C11.0001937,0.224755435 11.2322437,0.458070652 11.2322437,0.742744565 L11.2322437,10.5077445 C11.2322437,10.7924185 11.0001937,11.0252446 10.7164688,11.0252446 Z" id="Fill-27" fill="#EDCD63"></path>
                            <polygon id="Fill-31" fill="#5A5A5C" points="5.7869175 1.33151087 1.51983 1.33151087 1.51983 6.2228152 2.98233 6.2228152 2.98233 7.6902065 4.44483 7.6902065 4.44483 9.15759785 5.7869175 9.15759785 7.36983 9.15759785 7.36983 7.6902065 8.83233 7.6902065 8.83233 6.2228152 10.29483 6.2228152 10.29483 1.33151087"></polygon>
                            <polygon id="Fill-33" fill="#3F4243" points="1.5201225 1.82049456 10.2951225 1.82049456 10.2951225 1.33136413 1.5201225 1.33136413"></polygon>
                            <polygon id="Fill-35" fill="#3F4243" points="1.5201225 6.2226685 2.9826225 6.2226685 2.9826225 5.73353805 1.5201225 5.73353805"></polygon>
                            <polygon id="Fill-36" fill="#3F4243" points="8.8326225 6.2226685 10.2951225 6.2226685 10.2951225 5.73353805 8.8326225 5.73353805"></polygon>
                            <polygon id="Fill-37" fill="#3F4243" points="2.9826225 7.6900598 4.4451225 7.6900598 4.4451225 7.20092935 2.9826225 7.20092935"></polygon>
                            <polygon id="Fill-38" fill="#3F4243" points="4.4451225 9.1574511 7.3701225 9.1574511 7.3701225 8.66832065 4.4451225 8.66832065"></polygon>
                            <polygon id="Fill-39" fill="#3F4243" points="7.3701225 7.6900598 8.8326225 7.6900598 8.8326225 7.20092935 7.3701225 7.20092935"></polygon>
                            <polygon id="Fill-40" fill="#BDBEC2" points="4.824885 4.52440761 5.526885 4.52440761 5.526885 1.97457065 4.824885 1.97457065"></polygon>
                            <polygon id="Fill-41" fill="#BDBEC2" points="3.670485 4.52440761 4.372485 4.52440761 4.372485 1.97457065 3.670485 1.97457065"></polygon>
                            <polygon id="Fill-42" fill="#BDBEC2" points="5.979285 4.52440761 6.681285 4.52440761 6.681285 1.97457065 5.979285 1.97457065"></polygon>
                            <polygon id="Fill-43" fill="#BDBEC2" points="7.133685 4.52440761 7.835685 4.52440761 7.835685 1.97457065 7.133685 1.97457065"></polygon>
                            <path d="M0.98358,0.412483696 C0.80223,0.412483696 0.655005,0.560690215 0.655005,0.74264674 L0.655005,10.5076468 C0.655005,10.6896033 0.80223,10.8373207 0.98358,10.8373207 L10.7165175,10.8373207 C10.8978675,10.8373207 11.0450925,10.6896033 11.0450925,10.5076468 L11.0450925,0.74264674 C11.0450925,0.560690215 10.8978675,0.412483696 10.7165175,0.412483696 L0.98358,0.412483696 Z M10.7165175,11.2129729 L0.98358,11.2129729 C0.5960175,11.2129729 0.280605,10.8969946 0.280605,10.5076468 L0.280605,0.74264674 C0.280605,0.353298913 0.5960175,0.0368315218 0.98358,0.0368315218 L10.7165175,0.0368315218 C11.10408,0.0368315218 11.4194925,0.353298913 11.4194925,0.74264674 L11.4194925,10.5076468 C11.4194925,10.8969946 11.10408,11.2129729 10.7165175,11.2129729 L10.7165175,11.2129729 Z" id="Fill-29" fill="#5B5B5D"></path>
                        </g>
                    </g>
                    <g id="Group-13-Copy-3" transform="translate(22.950000, 0.000000)">
                        <g id="Group-11" transform="translate(6.700000, 6.750000) rotate(-180.000000) translate(-6.700000, -6.750000) translate(0.700000, 0.750000)">
                            <path d="M10.7164688,11.0252446 L0.98353125,11.0252446 C0.69980625,11.0252446 0.46775625,10.7924185 0.46775625,10.5077445 L0.46775625,0.742744565 C0.46775625,0.458070652 0.69980625,0.224755435 0.98353125,0.224755435 L10.7164688,0.224755435 C11.0001937,0.224755435 11.2322438,0.458070652 11.2322438,0.742744565 L11.2322438,10.5077445 C11.2322438,10.7924185 11.0001937,11.0252446 10.7164688,11.0252446 Z" id="Fill-27" fill="#EDCD63"></path>
                            <polygon id="Fill-31" fill="#5A5A5C" points="5.7869175 1.33151087 1.51983 1.33151087 1.51983 6.2228152 2.98233 6.2228152 2.98233 7.6902065 4.44483 7.6902065 4.44483 9.15759785 5.7869175 9.15759785 7.36983 9.15759785 7.36983 7.6902065 8.83233 7.6902065 8.83233 6.2228152 10.29483 6.2228152 10.29483 1.33151087"></polygon>
                            <polygon id="Fill-33" fill="#3F4243" points="1.5201225 1.82049456 10.2951225 1.82049456 10.2951225 1.33136413 1.5201225 1.33136413"></polygon>
                            <polygon id="Fill-35" fill="#3F4243" points="1.5201225 6.2226685 2.9826225 6.2226685 2.9826225 5.73353805 1.5201225 5.73353805"></polygon>
                            <polygon id="Fill-36" fill="#3F4243" points="8.8326225 6.2226685 10.2951225 6.2226685 10.2951225 5.73353805 8.8326225 5.73353805"></polygon>
                            <polygon id="Fill-37" fill="#3F4243" points="2.9826225 7.6900598 4.4451225 7.6900598 4.4451225 7.20092935 2.9826225 7.20092935"></polygon>
                            <polygon id="Fill-38" fill="#3F4243" points="4.4451225 9.1574511 7.3701225 9.1574511 7.3701225 8.66832065 4.4451225 8.66832065"></polygon>
                            <polygon id="Fill-39" fill="#3F4243" points="7.3701225 7.6900598 8.8326225 7.6900598 8.8326225 7.20092935 7.3701225 7.20092935"></polygon>
                            <polygon id="Fill-40" fill="#BDBEC2" points="4.824885 4.52440761 5.526885 4.52440761 5.526885 1.97457065 4.824885 1.97457065"></polygon>
                            <polygon id="Fill-41" fill="#BDBEC2" points="3.670485 4.52440761 4.372485 4.52440761 4.372485 1.97457065 3.670485 1.97457065"></polygon>
                            <polygon id="Fill-42" fill="#BDBEC2" points="5.979285 4.52440761 6.681285 4.52440761 6.681285 1.97457065 5.979285 1.97457065"></polygon>
                            <polygon id="Fill-43" fill="#BDBEC2" points="7.133685 4.52440761 7.835685 4.52440761 7.835685 1.97457065 7.133685 1.97457065"></polygon>
                            <path d="M0.98358,0.412483695 C0.80223,0.412483695 0.655005,0.560690215 0.655005,0.74264674 L0.655005,10.5076467 C0.655005,10.6896032 0.80223,10.8373207 0.98358,10.8373207 L10.7165175,10.8373207 C10.8978675,10.8373207 11.0450925,10.6896032 11.0450925,10.5076467 L11.0450925,0.74264674 C11.0450925,0.560690215 10.8978675,0.412483695 10.7165175,0.412483695 L0.98358,0.412483695 Z M10.7165175,11.2129729 L0.98358,11.2129729 C0.5960175,11.2129729 0.280605,10.8969946 0.280605,10.5076468 L0.280605,0.74264674 C0.280605,0.353298913 0.5960175,0.0368315217 0.98358,0.0368315217 L10.7165175,0.0368315217 C11.10408,0.0368315217 11.4194925,0.353298913 11.4194925,0.74264674 L11.4194925,10.5076468 C11.4194925,10.8969946 11.10408,11.2129729 10.7165175,11.2129729 L10.7165175,11.2129729 Z" id="Fill-29" fill="#5B5B5D"></path>
                        </g>
                    </g>
                    <g id="Group-13-Copy-4" transform="translate(34.650000, 0.000000)">
                        <g id="Group-11" transform="translate(6.700000, 6.750000) rotate(-180.000000) translate(-6.700000, -6.750000) translate(0.700000, 0.750000)">
                            <path d="M10.7164688,11.0252446 L0.98353125,11.0252446 C0.69980625,11.0252446 0.46775625,10.7924185 0.46775625,10.5077445 L0.46775625,0.742744565 C0.46775625,0.458070652 0.69980625,0.224755435 0.98353125,0.224755435 L10.7164688,0.224755435 C11.0001937,0.224755435 11.2322437,0.458070652 11.2322437,0.742744565 L11.2322437,10.5077445 C11.2322437,10.7924185 11.0001937,11.0252446 10.7164688,11.0252446 Z" id="Fill-27" fill="#EDCD63"></path>
                            <polygon id="Fill-31" fill="#5A5A5C" points="5.7869175 1.33151087 1.51983 1.33151087 1.51983 6.2228152 2.98233 6.2228152 2.98233 7.6902065 4.44483 7.6902065 4.44483 9.15759785 5.7869175 9.15759785 7.36983 9.15759785 7.36983 7.6902065 8.83233 7.6902065 8.83233 6.2228152 10.29483 6.2228152 10.29483 1.33151087"></polygon>
                            <polygon id="Fill-33" fill="#3F4243" points="1.5201225 1.82049456 10.2951225 1.82049456 10.2951225 1.33136413 1.5201225 1.33136413"></polygon>
                            <polygon id="Fill-35" fill="#3F4243" points="1.5201225 6.2226685 2.9826225 6.2226685 2.9826225 5.73353805 1.5201225 5.73353805"></polygon>
                            <polygon id="Fill-36" fill="#3F4243" points="8.8326225 6.2226685 10.2951225 6.2226685 10.2951225 5.73353805 8.8326225 5.73353805"></polygon>
                            <polygon id="Fill-37" fill="#3F4243" points="2.9826225 7.6900598 4.4451225 7.6900598 4.4451225 7.20092935 2.9826225 7.20092935"></polygon>
                            <polygon id="Fill-38" fill="#3F4243" points="4.4451225 9.1574511 7.3701225 9.1574511 7.3701225 8.66832065 4.4451225 8.66832065"></polygon>
                            <polygon id="Fill-39" fill="#3F4243" points="7.3701225 7.6900598 8.8326225 7.6900598 8.8326225 7.20092935 7.3701225 7.20092935"></polygon>
                            <polygon id="Fill-40" fill="#BDBEC2" points="4.824885 4.52440761 5.526885 4.52440761 5.526885 1.97457065 4.824885 1.97457065"></polygon>
                            <polygon id="Fill-41" fill="#BDBEC2" points="3.670485 4.52440761 4.372485 4.52440761 4.372485 1.97457065 3.670485 1.97457065"></polygon>
                            <polygon id="Fill-42" fill="#BDBEC2" points="5.979285 4.52440761 6.681285 4.52440761 6.681285 1.97457065 5.979285 1.97457065"></polygon>
                            <polygon id="Fill-43" fill="#BDBEC2" points="7.133685 4.52440761 7.835685 4.52440761 7.835685 1.97457065 7.133685 1.97457065"></polygon>
                            <path d="M0.98358,0.412483696 C0.80223,0.412483696 0.655005,0.560690215 0.655005,0.74264674 L0.655005,10.5076468 C0.655005,10.6896033 0.80223,10.8373207 0.98358,10.8373207 L10.7165175,10.8373207 C10.8978675,10.8373207 11.0450925,10.6896033 11.0450925,10.5076468 L11.0450925,0.74264674 C11.0450925,0.560690215 10.8978675,0.412483696 10.7165175,0.412483696 L0.98358,0.412483696 Z M10.7165175,11.2129729 L0.98358,11.2129729 C0.5960175,11.2129729 0.280605,10.8969946 0.280605,10.5076468 L0.280605,0.74264674 C0.280605,0.353298913 0.5960175,0.0368315218 0.98358,0.0368315218 L10.7165175,0.0368315218 C11.10408,0.0368315218 11.4194925,0.353298913 11.4194925,0.74264674 L11.4194925,10.5076468 C11.4194925,10.8969946 11.10408,11.2129729 10.7165175,11.2129729 L10.7165175,11.2129729 Z" id="Fill-29" fill="#5B5B5D"></path>
                        </g>
                    </g>
                </g>
                <circle id="Oval" fill="#000000" fill-rule="nonzero" cx="165.15" cy="80.8584155" r="3.825"></circle>
                <circle id="Oval-Copy-3" fill="#000000" fill-rule="nonzero" cx="124.521805" cy="77.0334155" r="2.025"></circle>
                <circle id="Oval-Copy-4" fill="#000000" fill-rule="nonzero" cx="134.1" cy="77.0334155" r="2.025"></circle>
                <circle id="Oval-Copy-5" fill="#000000" fill-rule="nonzero" cx="124.521805" cy="85.3584155" r="2.025"></circle>
                <circle id="Oval-Copy-6" fill="#000000" fill-rule="nonzero" cx="133.7625" cy="85.3584155" r="1.0125"></circle>
                <circle id="Oval-Copy-7" fill="#000000" fill-rule="nonzero" cx="133.7625" cy="85.3584155" r="1.0125"></circle>
                <g id="Group-2" opacity="0.5" transform="translate(32.400000, 24.768000)" fill="#000000" fill-rule="nonzero">
                    <g id="Group">
                        <circle id="Oval-Copy-8" cx="1.0125" cy="1.0125" r="1.0125"></circle>
                        <circle id="Oval-Copy-9" cx="5.9532715" cy="1.0125" r="1.0125"></circle>
                        <circle id="Oval-Copy-10" cx="10.894043" cy="1.0125" r="1.0125"></circle>
                        <circle id="Oval-Copy-11" cx="15.8348145" cy="1.0125" r="1.0125"></circle>
                        <circle id="Oval-Copy-12" cx="20.775586" cy="1.0125" r="1.0125"></circle>
                        <circle id="Oval-Copy-13" cx="25.7163574" cy="1.0125" r="1.0125"></circle>
                        <circle id="Oval-Copy-14" cx="30.6571289" cy="1.0125" r="1.0125"></circle>
                        <circle id="Oval-Copy-15" cx="35.5979004" cy="1.0125" r="1.0125"></circle>
                    </g>
                    <g id="Group-Copy" transform="translate(0.000000, 3.825000)">
                        <circle id="Oval-Copy-8" cx="1.0125" cy="1.0125" r="1.0125"></circle>
                        <circle id="Oval-Copy-9" cx="5.9532715" cy="1.0125" r="1.0125"></circle>
                        <circle id="Oval-Copy-10" cx="10.894043" cy="1.0125" r="1.0125"></circle>
                        <circle id="Oval-Copy-11" cx="15.8348145" cy="1.0125" r="1.0125"></circle>
                        <circle id="Oval-Copy-12" cx="20.775586" cy="1.0125" r="1.0125"></circle>
                        <circle id="Oval-Copy-13" cx="25.7163574" cy="1.0125" r="1.0125"></circle>
                        <circle id="Oval-Copy-14" cx="30.6571289" cy="1.0125" r="1.0125"></circle>
                        <circle id="Oval-Copy-15" cx="35.5979004" cy="1.0125" r="1.0125"></circle>
                    </g>
                    <g id="Group-Copy-2" transform="translate(0.000000, 7.650000)">
                        <circle id="Oval-Copy-8" cx="1.0125" cy="1.0125" r="1.0125"></circle>
                        <circle id="Oval-Copy-9" cx="5.9532715" cy="1.0125" r="1.0125"></circle>
                        <circle id="Oval-Copy-10" cx="10.894043" cy="1.0125" r="1.0125"></circle>
                        <circle id="Oval-Copy-11" cx="15.8348145" cy="1.0125" r="1.0125"></circle>
                        <circle id="Oval-Copy-12" cx="20.775586" cy="1.0125" r="1.0125"></circle>
                        <circle id="Oval-Copy-13" cx="25.7163574" cy="1.0125" r="1.0125"></circle>
                        <circle id="Oval-Copy-14" cx="30.6571289" cy="1.0125" r="1.0125"></circle>
                        <circle id="Oval-Copy-15" cx="35.5979004" cy="1.0125" r="1.0125"></circle>
                    </g>
                    <g id="Group-Copy-3" transform="translate(0.000000, 11.475000)">
                        <circle id="Oval-Copy-8" cx="1.0125" cy="1.0125" r="1.0125"></circle>
                        <circle id="Oval-Copy-9" cx="5.9532715" cy="1.0125" r="1.0125"></circle>
                        <circle id="Oval-Copy-10" cx="10.894043" cy="1.0125" r="1.0125"></circle>
                        <circle id="Oval-Copy-11" cx="15.8348145" cy="1.0125" r="1.0125"></circle>
                        <circle id="Oval-Copy-12" cx="20.775586" cy="1.0125" r="1.0125"></circle>
                        <circle id="Oval-Copy-13" cx="25.7163574" cy="1.0125" r="1.0125"></circle>
                        <circle id="Oval-Copy-14" cx="30.6571289" cy="1.0125" r="1.0125"></circle>
                        <circle id="Oval-Copy-15" cx="35.5979004" cy="1.0125" r="1.0125"></circle>
                    </g>
                    <g id="Group-Copy-4" transform="translate(0.000000, 15.300000)">
                        <circle id="Oval-Copy-8" cx="1.0125" cy="1.0125" r="1.0125"></circle>
                        <circle id="Oval-Copy-9" cx="5.9532715" cy="1.0125" r="1.0125"></circle>
                        <circle id="Oval-Copy-10" cx="10.894043" cy="1.0125" r="1.0125"></circle>
                        <circle id="Oval-Copy-11" cx="15.8348145" cy="1.0125" r="1.0125"></circle>
                        <circle id="Oval-Copy-12" cx="20.775586" cy="1.0125" r="1.0125"></circle>
                        <circle id="Oval-Copy-13" cx="25.7163574" cy="1.0125" r="1.0125"></circle>
                        <circle id="Oval-Copy-14" cx="30.6571289" cy="1.0125" r="1.0125"></circle>
                        <circle id="Oval-Copy-15" cx="35.5979004" cy="1.0125" r="1.0125"></circle>
                    </g>
                    <g id="Group-Copy-5" transform="translate(0.000000, 19.125000)">
                        <circle id="Oval-Copy-8" cx="1.0125" cy="1.0125" r="1.0125"></circle>
                        <circle id="Oval-Copy-9" cx="5.9532715" cy="1.0125" r="1.0125"></circle>
                        <circle id="Oval-Copy-10" cx="10.894043" cy="1.0125" r="1.0125"></circle>
                        <circle id="Oval-Copy-11" cx="15.8348145" cy="1.0125" r="1.0125"></circle>
                        <circle id="Oval-Copy-12" cx="20.775586" cy="1.0125" r="1.0125"></circle>
                        <circle id="Oval-Copy-13" cx="25.7163574" cy="1.0125" r="1.0125"></circle>
                        <circle id="Oval-Copy-14" cx="30.6571289" cy="1.0125" r="1.0125"></circle>
                        <circle id="Oval-Copy-15" cx="35.5979004" cy="1.0125" r="1.0125"></circle>
                    </g>
                    <g id="Group-Copy-6" transform="translate(0.000000, 22.950000)">
                        <circle id="Oval-Copy-8" cx="1.0125" cy="1.0125" r="1.0125"></circle>
                        <circle id="Oval-Copy-9" cx="5.9532715" cy="1.0125" r="1.0125"></circle>
                        <circle id="Oval-Copy-10" cx="10.894043" cy="1.0125" r="1.0125"></circle>
                        <circle id="Oval-Copy-11" cx="15.8348145" cy="1.0125" r="1.0125"></circle>
                        <circle id="Oval-Copy-12" cx="20.775586" cy="1.0125" r="1.0125"></circle>
                        <circle id="Oval-Copy-13" cx="25.7163574" cy="1.0125" r="1.0125"></circle>
                        <circle id="Oval-Copy-14" cx="30.6571289" cy="1.0125" r="1.0125"></circle>
                        <circle id="Oval-Copy-15" cx="35.5979004" cy="1.0125" r="1.0125"></circle>
                    </g>
                    <g id="Group-Copy-7" transform="translate(0.000000, 26.775000)">
                        <circle id="Oval-Copy-8" cx="1.0125" cy="1.0125" r="1.0125"></circle>
                        <circle id="Oval-Copy-9" cx="5.9532715" cy="1.0125" r="1.0125"></circle>
                        <circle id="Oval-Copy-10" cx="10.894043" cy="1.0125" r="1.0125"></circle>
                        <circle id="Oval-Copy-11" cx="15.8348145" cy="1.0125" r="1.0125"></circle>
                        <circle id="Oval-Copy-12" cx="20.775586" cy="1.0125" r="1.0125"></circle>
                        <circle id="Oval-Copy-13" cx="25.7163574" cy="1.0125" r="1.0125"></circle>
                        <circle id="Oval-Copy-14" cx="30.6571289" cy="1.0125" r="1.0125"></circle>
                        <circle id="Oval-Copy-15" cx="35.5979004" cy="1.0125" r="1.0125"></circle>
                    </g>
                </g>
                <g id="Group-2-Copy" opacity="0.5" transform="translate(114.300000, 24.768000)" fill="#000000" fill-rule="nonzero">
                    <g id="Group">
                        <circle id="Oval-Copy-8" cx="1.0125" cy="1.0125" r="1.0125"></circle>
                        <circle id="Oval-Copy-9" cx="5.9532715" cy="1.0125" r="1.0125"></circle>
                        <circle id="Oval-Copy-10" cx="10.894043" cy="1.0125" r="1.0125"></circle>
                        <circle id="Oval-Copy-11" cx="15.8348145" cy="1.0125" r="1.0125"></circle>
                        <circle id="Oval-Copy-12" cx="20.775586" cy="1.0125" r="1.0125"></circle>
                        <circle id="Oval-Copy-13" cx="25.7163574" cy="1.0125" r="1.0125"></circle>
                        <circle id="Oval-Copy-14" cx="30.6571289" cy="1.0125" r="1.0125"></circle>
                        <circle id="Oval-Copy-15" cx="35.5979004" cy="1.0125" r="1.0125"></circle>
                    </g>
                    <g id="Group-Copy" transform="translate(0.000000, 3.825000)">
                        <circle id="Oval-Copy-8" cx="1.0125" cy="1.0125" r="1.0125"></circle>
                        <circle id="Oval-Copy-9" cx="5.9532715" cy="1.0125" r="1.0125"></circle>
                        <circle id="Oval-Copy-10" cx="10.894043" cy="1.0125" r="1.0125"></circle>
                        <circle id="Oval-Copy-11" cx="15.8348145" cy="1.0125" r="1.0125"></circle>
                        <circle id="Oval-Copy-12" cx="20.775586" cy="1.0125" r="1.0125"></circle>
                        <circle id="Oval-Copy-13" cx="25.7163574" cy="1.0125" r="1.0125"></circle>
                        <circle id="Oval-Copy-14" cx="30.6571289" cy="1.0125" r="1.0125"></circle>
                        <circle id="Oval-Copy-15" cx="35.5979004" cy="1.0125" r="1.0125"></circle>
                    </g>
                    <g id="Group-Copy-2" transform="translate(0.000000, 7.650000)">
                        <circle id="Oval-Copy-8" cx="1.0125" cy="1.0125" r="1.0125"></circle>
                        <circle id="Oval-Copy-9" cx="5.9532715" cy="1.0125" r="1.0125"></circle>
                        <circle id="Oval-Copy-10" cx="10.894043" cy="1.0125" r="1.0125"></circle>
                        <circle id="Oval-Copy-11" cx="15.8348145" cy="1.0125" r="1.0125"></circle>
                        <circle id="Oval-Copy-12" cx="20.775586" cy="1.0125" r="1.0125"></circle>
                        <circle id="Oval-Copy-13" cx="25.7163574" cy="1.0125" r="1.0125"></circle>
                        <circle id="Oval-Copy-14" cx="30.6571289" cy="1.0125" r="1.0125"></circle>
                        <circle id="Oval-Copy-15" cx="35.5979004" cy="1.0125" r="1.0125"></circle>
                    </g>
                    <g id="Group-Copy-3" transform="translate(0.000000, 11.475000)">
                        <circle id="Oval-Copy-8" cx="1.0125" cy="1.0125" r="1.0125"></circle>
                        <circle id="Oval-Copy-9" cx="5.9532715" cy="1.0125" r="1.0125"></circle>
                        <circle id="Oval-Copy-10" cx="10.894043" cy="1.0125" r="1.0125"></circle>
                        <circle id="Oval-Copy-11" cx="15.8348145" cy="1.0125" r="1.0125"></circle>
                        <circle id="Oval-Copy-12" cx="20.775586" cy="1.0125" r="1.0125"></circle>
                        <circle id="Oval-Copy-13" cx="25.7163574" cy="1.0125" r="1.0125"></circle>
                        <circle id="Oval-Copy-14" cx="30.6571289" cy="1.0125" r="1.0125"></circle>
                        <circle id="Oval-Copy-15" cx="35.5979004" cy="1.0125" r="1.0125"></circle>
                    </g>
                    <g id="Group-Copy-4" transform="translate(0.000000, 15.300000)">
                        <circle id="Oval-Copy-8" cx="1.0125" cy="1.0125" r="1.0125"></circle>
                        <circle id="Oval-Copy-9" cx="5.9532715" cy="1.0125" r="1.0125"></circle>
                        <circle id="Oval-Copy-10" cx="10.894043" cy="1.0125" r="1.0125"></circle>
                        <circle id="Oval-Copy-11" cx="15.8348145" cy="1.0125" r="1.0125"></circle>
                        <circle id="Oval-Copy-12" cx="20.775586" cy="1.0125" r="1.0125"></circle>
                        <circle id="Oval-Copy-13" cx="25.7163574" cy="1.0125" r="1.0125"></circle>
                        <circle id="Oval-Copy-14" cx="30.6571289" cy="1.0125" r="1.0125"></circle>
                        <circle id="Oval-Copy-15" cx="35.5979004" cy="1.0125" r="1.0125"></circle>
                    </g>
                    <g id="Group-Copy-5" transform="translate(0.000000, 19.125000)">
                        <circle id="Oval-Copy-8" cx="1.0125" cy="1.0125" r="1.0125"></circle>
                        <circle id="Oval-Copy-9" cx="5.9532715" cy="1.0125" r="1.0125"></circle>
                        <circle id="Oval-Copy-10" cx="10.894043" cy="1.0125" r="1.0125"></circle>
                        <circle id="Oval-Copy-11" cx="15.8348145" cy="1.0125" r="1.0125"></circle>
                        <circle id="Oval-Copy-12" cx="20.775586" cy="1.0125" r="1.0125"></circle>
                        <circle id="Oval-Copy-13" cx="25.7163574" cy="1.0125" r="1.0125"></circle>
                        <circle id="Oval-Copy-14" cx="30.6571289" cy="1.0125" r="1.0125"></circle>
                        <circle id="Oval-Copy-15" cx="35.5979004" cy="1.0125" r="1.0125"></circle>
                    </g>
                    <g id="Group-Copy-6" transform="translate(0.000000, 22.950000)">
                        <circle id="Oval-Copy-8" cx="1.0125" cy="1.0125" r="1.0125"></circle>
                        <circle id="Oval-Copy-9" cx="5.9532715" cy="1.0125" r="1.0125"></circle>
                        <circle id="Oval-Copy-10" cx="10.894043" cy="1.0125" r="1.0125"></circle>
                        <circle id="Oval-Copy-11" cx="15.8348145" cy="1.0125" r="1.0125"></circle>
                        <circle id="Oval-Copy-12" cx="20.775586" cy="1.0125" r="1.0125"></circle>
                        <circle id="Oval-Copy-13" cx="25.7163574" cy="1.0125" r="1.0125"></circle>
                        <circle id="Oval-Copy-14" cx="30.6571289" cy="1.0125" r="1.0125"></circle>
                        <circle id="Oval-Copy-15" cx="35.5979004" cy="1.0125" r="1.0125"></circle>
                    </g>
                    <g id="Group-Copy-7" transform="translate(0.000000, 26.775000)">
                        <circle id="Oval-Copy-8" cx="1.0125" cy="1.0125" r="1.0125"></circle>
                        <circle id="Oval-Copy-9" cx="5.9532715" cy="1.0125" r="1.0125"></circle>
                        <circle id="Oval-Copy-10" cx="10.894043" cy="1.0125" r="1.0125"></circle>
                        <circle id="Oval-Copy-11" cx="15.8348145" cy="1.0125" r="1.0125"></circle>
                        <circle id="Oval-Copy-12" cx="20.775586" cy="1.0125" r="1.0125"></circle>
                        <circle id="Oval-Copy-13" cx="25.7163574" cy="1.0125" r="1.0125"></circle>
                        <circle id="Oval-Copy-14" cx="30.6571289" cy="1.0125" r="1.0125"></circle>
                        <circle id="Oval-Copy-15" cx="35.5979004" cy="1.0125" r="1.0125"></circle>
                    </g>
                </g>
                <polygon id="Rectangle" fill="#9B9B9B" fill-rule="nonzero" points="77.625 28.8 107.775 28.8 107.775 47.9689453 105.839561 49.968 77.625 49.95"></polygon>
                <circle id="Oval-Copy" fill="#AFAFAF" fill-rule="nonzero" cx="150.075" cy="80.8584155" r="3.825"></circle>
                <circle id="Oval-Copy-2" fill="#000000" fill-rule="nonzero" cx="150.075" cy="80.8584155" r="2.475"></circle>
                <path d="M18.92835,71.7289 L18.3078,71.7289 L18.3078,73.6 L17.97075,73.6 L17.97075,71.7289 L17.3502,71.7289 L17.3502,71.395 L18.92835,71.395 L18.92835,71.7289 Z M19.4930182,71.7289 L19.4930182,72.3211 L20.4569182,72.3211 L20.4569182,72.655 L19.4930182,72.655 L19.4930182,73.2661 L20.4569182,73.2661 L20.4569182,73.6 L19.1559682,73.6 L19.1559682,71.395 L20.4569182,71.395 L20.4569182,71.7289 L19.4930182,71.7289 Z M20.8420363,73.6 L20.8420363,71.395 L21.1790863,71.395 L21.1790863,73.2661 L22.1429863,73.2661 L22.1429863,73.6 L20.8420363,73.6 Z M22.6919045,71.395 L23.0226545,71.395 L23.0226545,73.6 L22.6919045,73.6 L22.6919045,71.80765 L22.2698045,72.1699 L22.2698045,71.75725 L22.6919045,71.395 Z" id="TEL1" fill="#FFFFFF" fill-rule="nonzero"></path>
                <path d="M28.75815,71.6344 L28.1691,71.6344 L28.1691,71.395 L29.58975,71.395 L29.58975,71.6344 L29.0007,71.6344 L29.0007,73.6 L28.75815,73.6 L28.75815,71.6344 Z M30.0977182,72.6046 L30.0977182,73.3606 L31.1088682,73.3606 L31.1088682,73.6 L29.8551682,73.6 L29.8551682,71.395 L31.1088682,71.395 L31.1088682,71.6344 L30.0977182,71.6344 L30.0977182,72.3652 L31.1088682,72.3652 L31.1088682,72.6046 L30.0977182,72.6046 Z M31.5317864,73.6 L31.5317864,71.395 L31.7743364,71.395 L31.7743364,73.3606 L32.7854864,73.3606 L32.7854864,73.6 L31.5317864,73.6 Z M32.9532546,71.9998 C32.9532546,71.762499 33.0215039,71.5971255 33.1580046,71.503675 C33.2945053,71.4102245 33.4383538,71.3635 33.5895546,71.3635 C33.7407553,71.3635 33.8846039,71.4102245 34.0211046,71.503675 C34.1576053,71.5971255 34.2258546,71.759349 34.2258546,71.99035 C34.2258546,72.1226505 34.1964549,72.2412995 34.1376546,72.3463 C34.0788543,72.4513005 34.0011551,72.5562995 33.9045546,72.6613 L33.2588046,73.3732 L34.2258546,73.3732 L34.2258546,73.6 L32.9532546,73.6 L32.9532546,73.3732 L33.7376046,72.5101 C33.8069049,72.4344995 33.8662293,72.3526005 33.9155796,72.2644 C33.9649298,72.1761995 33.9896046,72.0838005 33.9896046,71.9872 C33.9896046,71.8590995 33.94918,71.7609255 33.8683296,71.692675 C33.7874792,71.6244245 33.6945551,71.5903 33.5895546,71.5903 C33.4845541,71.5903 33.39163,71.6244245 33.3107796,71.692675 C33.2299292,71.7609255 33.1895046,71.8622495 33.1895046,71.99665 L33.1895046,72.0565 L32.9532546,72.0565 L32.9532546,71.9998 Z" id="TEL2" fill="#FFFFFF" fill-rule="nonzero" opacity="0.300000012"></path>
                <path d="M46.827,73.6 L46.827,71.395 L47.06955,71.395 L47.06955,73.3606 L48.0807,73.3606 L48.0807,73.6 L46.827,73.6 Z M49.5903682,73.6 L49.3887682,72.97945 L48.5886682,72.97945 L48.3870682,73.6 L48.1413682,73.6 L48.8501182,71.395 L49.1273182,71.395 L49.8360682,73.6 L49.5903682,73.6 Z M49.3163182,72.7558 L48.9887182,71.73205 L48.6611182,72.7558 L49.3163182,72.7558 Z M51.5252865,71.395 L51.5252865,73.6 L51.2827365,73.6 L50.3440365,71.86435 L50.3440365,73.6 L50.1014865,73.6 L50.1014865,71.395 L50.3440365,71.395 L51.2827365,73.13065 L51.2827365,71.395 L51.5252865,71.395 Z M52.3167545,71.395 L52.5530045,71.395 L52.5530045,73.6 L52.3167545,73.6 L52.3167545,71.69425 L51.8946545,72.0565 L51.8946545,71.75725 L52.3167545,71.395 Z" id="LAN1" fill="#FFFFFF" fill-rule="nonzero" opacity="0.300000012"></path>
                <path d="M58.527,73.6 L58.527,71.395 L58.76955,71.395 L58.76955,73.3606 L59.7807,73.3606 L59.7807,73.6 L58.527,73.6 Z M61.290368,73.6 L61.088768,72.97945 L60.288668,72.97945 L60.087068,73.6 L59.841368,73.6 L60.550118,71.395 L60.827318,71.395 L61.536068,73.6 L61.290368,73.6 Z M61.016318,72.7558 L60.688718,71.73205 L60.361118,72.7558 L61.016318,72.7558 Z M63.2252865,71.395 L63.2252865,73.6 L62.9827365,73.6 L62.0440365,71.86435 L62.0440365,73.6 L61.8014865,73.6 L61.8014865,71.395 L62.0440365,71.395 L62.9827365,73.13065 L62.9827365,71.395 L63.2252865,71.395 Z M63.5978045,71.9998 C63.5978045,71.762499 63.666054,71.5971255 63.8025545,71.503675 C63.939055,71.4102245 64.082904,71.3635 64.2341045,71.3635 C64.3853055,71.3635 64.529154,71.4102245 64.6656545,71.503675 C64.802155,71.5971255 64.8704045,71.759349 64.8704045,71.99035 C64.8704045,72.1226505 64.841005,72.2412995 64.7822045,72.3463 C64.7234045,72.4513005 64.645705,72.5562995 64.5491045,72.6613 L63.9033545,73.3732 L64.8704045,73.3732 L64.8704045,73.6 L63.5978045,73.6 L63.5978045,73.3732 L64.3821545,72.5101 C64.451455,72.4344995 64.5107795,72.3526005 64.5601295,72.2644 C64.60948,72.1761995 64.6341545,72.0838005 64.6341545,71.9872 C64.6341545,71.8590995 64.59373,71.7609255 64.5128795,71.692675 C64.432029,71.6244245 64.339105,71.5903 64.2341045,71.5903 C64.129104,71.5903 64.03618,71.6244245 63.9553295,71.692675 C63.874479,71.7609255 63.8340545,71.8622495 63.8340545,71.99665 L63.8340545,72.0565 L63.5978045,72.0565 L63.5978045,71.9998 Z" id="LAN2" fill="#FFFFFF" fill-rule="nonzero" opacity="0.300000012"></path>
                <path d="M69.327,73.6 L69.327,71.395 L69.56955,71.395 L69.56955,73.3606 L70.5807,73.3606 L70.5807,73.6 L69.327,73.6 Z M72.090368,73.6 L71.888768,72.97945 L71.088668,72.97945 L70.887068,73.6 L70.641368,73.6 L71.350118,71.395 L71.627318,71.395 L72.336068,73.6 L72.090368,73.6 Z M71.816318,72.7558 L71.488718,71.73205 L71.161118,72.7558 L71.816318,72.7558 Z M74.0252865,71.395 L74.0252865,73.6 L73.7827365,73.6 L72.8440365,71.86435 L72.8440365,73.6 L72.6014865,73.6 L72.6014865,71.395 L72.8440365,71.395 L73.7827365,73.13065 L73.7827365,71.395 L74.0252865,71.395 Z M74.3946545,72.9952 L74.3946545,72.97 L74.6309045,72.97 L74.6309045,72.99835 C74.6309045,73.1327505 74.672904,73.2340745 74.7569045,73.302325 C74.840905,73.3705755 74.937504,73.4047 75.0467045,73.4047 C75.160105,73.4047 75.252504,73.3705755 75.3239045,73.302325 C75.395305,73.2340745 75.4310045,73.1380005 75.4310045,73.0141 C75.4310045,72.9090995 75.39688,72.8146005 75.3286295,72.7306 C75.260379,72.6465995 75.166405,72.6046 75.0467045,72.6046 L74.8892045,72.6046 L74.8892045,72.3778 L75.0467045,72.3778 C75.153805,72.3778 75.244629,72.3431505 75.3191795,72.27385 C75.39373,72.2045495 75.4310045,72.1069005 75.4310045,71.9809 C75.4310045,71.8590995 75.391105,71.7635505 75.3113045,71.69425 C75.231504,71.6249495 75.138055,71.5903 75.0309545,71.5903 C74.925954,71.5903 74.83303,71.6244245 74.7521795,71.692675 C74.671329,71.7609255 74.6309045,71.8622495 74.6309045,71.99665 L74.6309045,72.025 L74.3946545,72.025 L74.3946545,71.9998 C74.3946545,71.762499 74.462904,71.5971255 74.5994045,71.503675 C74.735905,71.4102245 74.879754,71.3635 75.0309545,71.3635 C75.1884555,71.3635 75.333879,71.4117995 75.4672295,71.5084 C75.60058,71.6050005 75.6672545,71.762499 75.6672545,71.9809 C75.6672545,72.1027005 75.641005,72.2087495 75.5885045,72.29905 C75.5360045,72.3893505 75.473005,72.4534 75.3995045,72.4912 C75.473005,72.5311 75.5360045,72.5967245 75.5885045,72.688075 C75.641005,72.7794255 75.6672545,72.8880995 75.6672545,73.0141 C75.6672545,73.232501 75.60163,73.3899995 75.4703795,73.4866 C75.339129,73.5832005 75.1979055,73.6315 75.0467045,73.6315 C74.891304,73.6315 74.7437805,73.5847755 74.6041295,73.491325 C74.464479,73.3978745 74.3946545,73.232501 74.3946545,72.9952 Z" id="LAN3" fill="#FFFFFF" fill-rule="nonzero" opacity="0.300000012"></path>
                <path d="M81.927,73.6 L81.927,71.395 L82.16955,71.395 L82.16955,73.3606 L83.1807,73.3606 L83.1807,73.6 L81.927,73.6 Z M84.690368,73.6 L84.488768,72.97945 L83.688668,72.97945 L83.487068,73.6 L83.241368,73.6 L83.950118,71.395 L84.227318,71.395 L84.936068,73.6 L84.690368,73.6 Z M84.416318,72.7558 L84.088718,71.73205 L83.761118,72.7558 L84.416318,72.7558 Z M86.6252865,71.395 L86.6252865,73.6 L86.3827365,73.6 L85.4440365,71.86435 L85.4440365,73.6 L85.2014865,73.6 L85.2014865,71.395 L85.4440365,71.395 L86.3827365,73.13065 L86.3827365,71.395 L86.6252865,71.395 Z M88.3712045,73.00465 L88.1412545,73.00465 L88.1412545,73.6 L87.9050045,73.6 L87.9050045,73.00465 L86.8938545,73.00465 L86.8938545,72.78415 L87.9050045,71.395 L88.1412545,71.395 L88.1412545,72.78415 L88.3712045,72.78415 L88.3712045,73.00465 Z M87.1647545,72.78415 L87.9050045,72.78415 L87.9050045,71.76985 L87.1647545,72.78415 Z" id="LAN4" fill="#FFFFFF" fill-rule="nonzero" opacity="0.300000012"></path>
            </g>
            <path d="M463.170062,153.402239 C464.972978,151.370195 466.368832,149.798316 468.088969,147.860465 C473.16432,156.24842 472.759538,164.220607 467.613558,172.377579 C477.984499,167.012792 481.217444,155.888447 476.582569,142.010315 C478.791786,141.057588 481.071631,140.074864 483.930171,138.842559 C479.403897,137.822637 475.425179,136.917907 471.440387,136.030575 C467.530019,135.159442 463.614336,134.305708 459.397913,133.377579 C460.653271,140.044266 461.850152,146.397778 463.170062,153.402239 Z" id="Fill-117" fill="#00C0D2" fill-rule="nonzero" transform="translate(471.664042, 152.877579) rotate(49.000000) translate(-471.664042, -152.877579) "></path>
        </g>
        <g id="-Connections" transform="translate(-23643.701232, -11239.000000)"></g>
    </g>
</svg>