<?xml version="1.0" encoding="UTF-8"?>
<svg width="569px" height="316px" viewBox="0 0 569 316" version="1.1" xmlns="http://www.w3.org/2000/svg" xmlns:xlink="http://www.w3.org/1999/xlink">
    <title>microfiltro-00 copy 5</title>
    <defs>
        <linearGradient x1="50%" y1="0%" x2="50%" y2="100%" id="linearGradient-1">
            <stop stop-color="#0D094F" offset="0%"></stop>
            <stop stop-color="#3177D7" offset="100%"></stop>
        </linearGradient>
        <radialGradient cx="50%" cy="50%" fx="50%" fy="50%" r="47.4912074%" id="radialGradient-2">
            <stop stop-color="#40FF00" offset="0%"></stop>
            <stop stop-color="#76FF00" stop-opacity="0" offset="100%"></stop>
        </radialGradient>
        <radialGradient cx="49.9687414%" cy="49.887506%" fx="49.9687414%" fy="49.887506%" r="47.3744513%" id="radialGradient-3">
            <stop stop-color="#00FDFF" offset="0%"></stop>
            <stop stop-color="#00ECFF" stop-opacity="0" offset="100%"></stop>
        </radialGradient>
    </defs>
    <g id="Page-1" stroke="none" stroke-width="1" fill="none" fill-rule="evenodd">
        <g id="Group-4-Copy" transform="translate(17.000000, 77.578284)">
            <g id="Group-2">
                <g id="Group-3" transform="translate(296.348710, 104.427287) rotate(-263.000000) translate(-296.348710, -104.427287) translate(271.848710, -18.572713)">
                    <g transform="translate(0.500000, 0.824543)">
                        <path d="M15.6002038,27.5443602 C16.9515813,33.6017056 24.8404371,44.0555879 39.2667712,58.9060071 C47.4476517,68.8183643 49.7423837,80.5314888 46.1509672,94.0453808 C39.8360727,117.807259 -41.0078373,201.177768 33.5269021,244.158192" id="Path-2" stroke="#000000" stroke-width="5"></path>
                        <path d="M13.3447526,29.6033497 C12.6163343,26.5755471 11.8449987,23.8690188 11.3658535,22.327258 C10.9290377,20.9218312 11.7044887,19.4251199 13.0984191,18.9841087 C14.495877,18.5401337 15.9768178,19.3249439 16.4148095,20.7303707 C16.5018199,21.0107447 17.4947969,24.2252658 18.4830706,28.3218091 L13.3447526,29.6033497 Z" id="Fill-35" fill="#3E3F41"></path>
                        <path d="M7.61435229,29.4986688 L22.6936106,25.7388114 C23.5008086,25.537274 23.9975911,24.7068215 23.7977023,23.893559 L18.4759569,2.19746861 C18.276656,1.3836133 17.4529966,0.882733669 16.6457986,1.08367828 L1.56654028,4.84412845 C0.759930184,5.04507306 0.262559818,5.87552556 0.462448618,6.68938087 L5.78419396,28.3854712 C5.98408276,29.1987338 6.80715429,29.6996134 7.61435229,29.4986688" id="Fill-36" fill="#F2F3F5"></path>
                        <path d="M17.0324658,1.00798321 C17.6303685,0.975381582 18.351144,1.44662337 18.5322198,2.18342027 L23.8539651,23.8795106 C24.0344529,24.6163075 23.6146864,25.3720726 23.0708713,25.6239944 L17.0324658,1.00798321 Z" id="Fill-37" fill="#CFCFCF"></path>
                        <path d="M7.09070243,29.608803 C6.49279975,29.6414047 5.77202426,29.1701629 5.59094852,28.433366 L0.269203181,6.73727564 C0.0887153526,6.00047873 0.508481832,5.2447136 1.05229695,4.9927919 L7.09070243,29.608803 Z" id="Fill-38" fill="#CFCFCF"></path>
                        <path d="M3.95186036,4.46778705 L3.79547677,3.83057332 C3.64849971,3.23188879 3.73257059,2.69070168 4.32635791,2.54251244 L13.1708494,0.336863782 C13.7646367,0.189267298 14.4924671,0.527731524 14.6388563,1.12641606 L14.7952398,1.76362979 L3.95186036,4.46778705 Z" id="Fill-39" fill="#CFCFCF"></path>
                        <polygon id="Fill-40" fill="#E3E4E7" points="6.97094552 18.0603562 17.974824 15.3164843 15.2533967 4.22185219 4.2495183 6.96572417"></polygon>
                        <polygon id="Fill-41" fill="#8D8F90" points="14.3467834 12.4602256 15.9059161 12.071377 14.0534172 4.5208388 12.4948725 4.90968737"></polygon>
                        <polygon id="Fill-42" fill="#BDBEC2" points="14.3467834 12.4602256 15.6002038 12.1478426 13.8235451 4.90553807 12.5701248 5.21792099"></polygon>
                        <polygon id="Fill-43" fill="#8D8F90" points="11.9983252 13.0458694 13.5574578 12.6570209 11.704959 5.10648268 10.1464143 5.49533125"></polygon>
                        <polygon id="Fill-44" fill="#BDBEC2" points="11.9983252 13.0458694 13.2517456 12.7334865 11.4750869 5.49118195 10.2216665 5.80356487"></polygon>
                        <polygon id="Fill-45" fill="#8D8F90" points="9.64980818 13.631454 11.2089408 13.2426055 9.35644198 5.69206728 7.79789725 6.08091585"></polygon>
                        <polygon id="Fill-46" fill="#BDBEC2" points="9.64980818 13.631454 10.9032285 13.3190711 9.12656986 6.07676655 7.8731495 6.38914947"></polygon>
                        <polygon id="Fill-47" fill="#8D8F90" points="7.30129116 14.2170979 8.8604238 13.8282494 7.00792495 6.27771116 5.44938022 6.66655973"></polygon>
                        <polygon id="Fill-48" fill="#BDBEC2" points="7.30129116 14.2170979 8.55471152 13.904715 6.77805283 6.66241043 5.52463247 6.97479335"></polygon>
                        <path d="M9.41158777,25.3223403 L19.1879138,22.8843309 C19.5212578,22.801345 19.7264377,22.4581387 19.6441306,22.1226383 L18.6388075,18.0231311 C18.5565004,17.6870379 18.2161015,17.4801657 17.8827575,17.5631517 L8.10643149,20.0011611 C7.77308752,20.0841471 7.56790754,20.4273533 7.6502147,20.7634465 L8.65553778,24.8623609 C8.73784493,25.1984541 9.0782438,25.4053263 9.41158777,25.3223403" id="Fill-49" fill="#5A5A5C"></path>
                    </g>
                </g>
                <g id="Group-42" transform="translate(1.206897, 0.557843)">
                    <g id="Group-Copy" transform="translate(0.514468, 0.566329)">
                        <path d="M17.2595843,103.474543 L20.4726159,100.972683 C21.4401639,100.219291 22.8352608,100.3929 23.5886522,101.360448 C24.0002842,101.889089 24.1511954,102.575338 23.9993185,103.227899 L17.835291,129.712529 C17.6723392,130.412675 17.3440237,131.063594 16.8778321,131.610789 L16.5557865,131.988792 C16.3460124,132.235015 15.9763531,132.264564 15.7301295,132.054789 C15.5995154,131.943511 15.5242694,131.780552 15.5242694,131.608962 L15.5242694,107.025109 C15.5242694,105.637321 16.1645992,104.327165 17.2595843,103.474543 Z" id="Rectangle-Copy-2" fill="#929292" transform="translate(20.472616, 115.159571) rotate(49.000000) translate(-20.472616, -115.159571) "></path>
                        <path d="M165.628104,102.077622 L168.841136,99.5757613 C169.808684,98.8223699 171.20378,98.9959782 171.957172,99.9635261 C172.368804,100.492167 172.519715,101.178416 172.367838,101.830977 L166.203811,128.315608 C166.040859,129.015754 165.712543,129.666672 165.246352,130.213868 L164.924306,130.59187 C164.714532,130.838094 164.344873,130.867642 164.098649,130.657868 C163.968035,130.546589 163.892789,130.38363 163.892789,130.212041 L163.892789,105.628188 C163.892789,104.240399 164.533119,102.930244 165.628104,102.077622 Z" id="Rectangle-Copy-3" fill="#929292" transform="translate(168.841136, 113.762649) scale(-1, 1) rotate(49.000000) translate(-168.841136, -113.762649) "></path>
                        <rect id="Rectangle" stroke="#979797" stroke-width="0.9" fill="#000000" x="0.45" y="0.45" width="189.677879" height="112.364983" rx="4.5"></rect>
                        <rect id="Rectangle-Copy" fill="url(#linearGradient-1)" x="1.64900682" y="1.59080033" width="187.279866" height="110.083383"></rect>
                    </g>
                    <path d="M90.9952327,39.3924656 L77.6670809,39.3924656 L77.6670809,79.579888 L70.4279324,79.579888 L70.4279324,39.3924656 L57.0997805,39.3924656 L57.0997805,32.2209727 L90.9952327,32.2209727 L90.9952327,39.3924656 Z M117.651536,79.579888 L110.209421,79.579888 L93.6338009,32.2209727 L101.075916,32.2209727 L113.930479,69.1609266 L126.785042,32.2209727 L134.227157,32.2209727 L117.651536,79.579888 Z" id="TV" fill="#FFFFFF" fill-rule="nonzero" opacity="0.300000012"></path>
                </g>
                <g id="Group" transform="translate(31.906897, 83.854396)">
                    <rect id="Rectangle-Copy-5" fill="#2B2B2B" x="151.959887" y="35.4515149" width="20.2" height="4.5" rx="2.25"></rect>
                    <rect id="Rectangle-Copy-6" fill="#2B2B2B" x="21.959887" y="35.4515149" width="20.2" height="4.5" rx="2.25"></rect>
                    <rect id="Rectangle" fill="#444444" x="0" y="0" width="189" height="37.7015149" rx="18.850757"></rect>
                    <ellipse id="Oval" fill="#D8D8D8" opacity="0.200000003" cx="151.159887" cy="18.8507574" rx="13" ry="8.91079113"></ellipse>
                    <line x1="137.8" y1="12.2034471" x2="167.3" y2="26.2034471" id="Line" stroke="#444444" stroke-linecap="square"></line>
                    <line x1="137.8" y1="25.2034471" x2="165.8" y2="13.2034471" id="Line-Copy" stroke="#444444" stroke-linecap="square"></line>
                    <ellipse id="Oval-Copy-5" fill="#D8D8D8" opacity="0.200000003" cx="122.459887" cy="19.0899663" rx="4.5" ry="3.35"></ellipse>
                    <ellipse id="Oval-Copy-10" fill="#444444" cx="151.159887" cy="19.0899663" rx="4.5" ry="3.35"></ellipse>
                    <ellipse id="Oval-Copy" stroke="#40FF00" fill="#444444" cx="20.0710985" cy="18.5811851" rx="5.62959617" ry="3.8587812"></ellipse>
                    <circle id="Oval-Copy-2" fill="#40FF00" cx="48.4506947" cy="18.8507574" r="2.25"></circle>
                    <circle id="Oval-Copy-11" fill="url(#radialGradient-2)" cx="48.3646112" cy="18.9368409" r="5.50252279"></circle>
                    <circle id="Oval-Copy-12" fill="url(#radialGradient-3)" opacity="0.800000012" cx="65.9506947" cy="18.9368409" r="5.50252279"></circle>
                    <circle id="Oval-Copy-3" fill="#00A5FF" cx="65.9506947" cy="18.8507574" r="2.25"></circle>
                    <circle id="Oval-Copy-4" fill="#FF0000" opacity="0.300000012" cx="83.9506947" cy="18.8507574" r="2.25"></circle>
                </g>
                <text id="Decodificador-da-TV" font-family="SimplonBP-Regular, Simplon BP" font-size="24" font-weight="normal" fill="#444444">
                    <tspan x="0.3" y="152.557843">Decodificador da TV</tspan>
                </text>
                <text id="Modem-de-Fibra" font-family="SimplonBP-Regular, Simplon BP" font-size="24" font-weight="normal" fill="#444444">
                    <tspan x="366.741793" y="152.354396">Modem de Fibra</tspan>
                </text>
            </g>
            <g id="Group-2-Copy" transform="translate(1.000000, 0.000000)">
                <g id="Group-3" transform="translate(295.348710, 104.427287) rotate(-263.000000) translate(-295.348710, -104.427287) translate(270.848710, -18.572713)">
                    <g transform="translate(0.500000, 0.824543)">
                        <path d="M15.6002038,27.5443602 C16.9515813,33.6017056 24.8404371,44.0555879 39.2667712,58.9060071 C47.4476517,68.8183643 49.7423837,80.5314888 46.1509672,94.0453808 C39.8360727,117.807259 -41.0078373,201.177768 33.5269021,244.158192" id="Path-2" stroke="#000000" stroke-width="5"></path>
                        <path d="M13.3447526,29.6033497 C12.6163343,26.5755471 11.8449987,23.8690188 11.3658535,22.327258 C10.9290377,20.9218312 11.7044887,19.4251199 13.0984191,18.9841087 C14.495877,18.5401337 15.9768178,19.3249439 16.4148095,20.7303707 C16.5018199,21.0107447 17.4947969,24.2252658 18.4830706,28.3218091 L13.3447526,29.6033497 Z" id="Fill-35" fill="#3E3F41"></path>
                        <path d="M7.61435229,29.4986688 L22.6936106,25.7388114 C23.5008086,25.537274 23.9975911,24.7068215 23.7977023,23.893559 L18.4759569,2.19746861 C18.276656,1.3836133 17.4529966,0.882733669 16.6457986,1.08367828 L1.56654028,4.84412845 C0.759930184,5.04507306 0.262559818,5.87552556 0.462448618,6.68938087 L5.78419396,28.3854712 C5.98408276,29.1987338 6.80715429,29.6996134 7.61435229,29.4986688" id="Fill-36" fill="#F2F3F5"></path>
                        <path d="M17.0324658,1.00798321 C17.6303685,0.975381582 18.351144,1.44662337 18.5322198,2.18342027 L23.8539651,23.8795106 C24.0344529,24.6163075 23.6146864,25.3720726 23.0708713,25.6239944 L17.0324658,1.00798321 Z" id="Fill-37" fill="#CFCFCF"></path>
                        <path d="M7.09070243,29.608803 C6.49279975,29.6414047 5.77202426,29.1701629 5.59094852,28.433366 L0.269203181,6.73727564 C0.0887153526,6.00047873 0.508481832,5.2447136 1.05229695,4.9927919 L7.09070243,29.608803 Z" id="Fill-38" fill="#CFCFCF"></path>
                        <path d="M3.95186036,4.46778705 L3.79547677,3.83057332 C3.64849971,3.23188879 3.73257059,2.69070168 4.32635791,2.54251244 L13.1708494,0.336863782 C13.7646367,0.189267298 14.4924671,0.527731524 14.6388563,1.12641606 L14.7952398,1.76362979 L3.95186036,4.46778705 Z" id="Fill-39" fill="#CFCFCF"></path>
                        <polygon id="Fill-40" fill="#E3E4E7" points="6.97094552 18.0603562 17.974824 15.3164843 15.2533967 4.22185219 4.2495183 6.96572417"></polygon>
                        <polygon id="Fill-41" fill="#8D8F90" points="14.3467834 12.4602256 15.9059161 12.071377 14.0534172 4.5208388 12.4948725 4.90968737"></polygon>
                        <polygon id="Fill-42" fill="#BDBEC2" points="14.3467834 12.4602256 15.6002038 12.1478426 13.8235451 4.90553807 12.5701248 5.21792099"></polygon>
                        <polygon id="Fill-43" fill="#8D8F90" points="11.9983252 13.0458694 13.5574578 12.6570209 11.704959 5.10648268 10.1464143 5.49533125"></polygon>
                        <polygon id="Fill-44" fill="#BDBEC2" points="11.9983252 13.0458694 13.2517456 12.7334865 11.4750869 5.49118195 10.2216665 5.80356487"></polygon>
                        <polygon id="Fill-45" fill="#8D8F90" points="9.64980818 13.631454 11.2089408 13.2426055 9.35644198 5.69206728 7.79789725 6.08091585"></polygon>
                        <polygon id="Fill-46" fill="#BDBEC2" points="9.64980818 13.631454 10.9032285 13.3190711 9.12656986 6.07676655 7.8731495 6.38914947"></polygon>
                        <polygon id="Fill-47" fill="#8D8F90" points="7.30129116 14.2170979 8.8604238 13.8282494 7.00792495 6.27771116 5.44938022 6.66655973"></polygon>
                        <polygon id="Fill-48" fill="#BDBEC2" points="7.30129116 14.2170979 8.55471152 13.904715 6.77805283 6.66241043 5.52463247 6.97479335"></polygon>
                        <path d="M9.41158777,25.3223403 L19.1879138,22.8843309 C19.5212578,22.801345 19.7264377,22.4581387 19.6441306,22.1226383 L18.6388075,18.0231311 C18.5565004,17.6870379 18.2161015,17.4801657 17.8827575,17.5631517 L8.10643149,20.0011611 C7.77308752,20.0841471 7.56790754,20.4273533 7.6502147,20.7634465 L8.65553778,24.8623609 C8.73784493,25.1984541 9.0782438,25.4053263 9.41158777,25.3223403" id="Fill-49" fill="#5A5A5C"></path>
                    </g>
                </g>
                <g id="Group-42" transform="translate(0.206897, 0.557843)">
                    <g id="Group-Copy" transform="translate(0.514468, 0.566329)">
                        <path d="M17.2595843,103.474543 L20.4726159,100.972683 C21.4401639,100.219291 22.8352608,100.3929 23.5886522,101.360448 C24.0002842,101.889089 24.1511954,102.575338 23.9993185,103.227899 L17.835291,129.712529 C17.6723392,130.412675 17.3440237,131.063594 16.8778321,131.610789 L16.5557865,131.988792 C16.3460124,132.235015 15.9763531,132.264564 15.7301295,132.054789 C15.5995154,131.943511 15.5242694,131.780552 15.5242694,131.608962 L15.5242694,107.025109 C15.5242694,105.637321 16.1645992,104.327165 17.2595843,103.474543 Z" id="Rectangle-Copy-2" fill="#929292" transform="translate(20.472616, 115.159571) rotate(49.000000) translate(-20.472616, -115.159571) "></path>
                        <path d="M165.628104,102.077622 L168.841136,99.5757613 C169.808684,98.8223699 171.20378,98.9959782 171.957172,99.9635261 C172.368804,100.492167 172.519715,101.178416 172.367838,101.830977 L166.203811,128.315608 C166.040859,129.015754 165.712543,129.666672 165.246352,130.213868 L164.924306,130.59187 C164.714532,130.838094 164.344873,130.867642 164.098649,130.657868 C163.968035,130.546589 163.892789,130.38363 163.892789,130.212041 L163.892789,105.628188 C163.892789,104.240399 164.533119,102.930244 165.628104,102.077622 Z" id="Rectangle-Copy-3" fill="#929292" transform="translate(168.841136, 113.762649) scale(-1, 1) rotate(49.000000) translate(-168.841136, -113.762649) "></path>
                        <rect id="Rectangle" stroke="#979797" stroke-width="0.9" fill="#000000" x="0.45" y="0.45" width="189.677879" height="112.364983" rx="4.5"></rect>
                        <rect id="Rectangle-Copy" fill="url(#linearGradient-1)" x="1.64900682" y="1.59080033" width="187.279866" height="110.083383"></rect>
                    </g>
                    <path d="M90.9952327,39.3924656 L77.6670809,39.3924656 L77.6670809,79.579888 L70.4279324,79.579888 L70.4279324,39.3924656 L57.0997805,39.3924656 L57.0997805,32.2209727 L90.9952327,32.2209727 L90.9952327,39.3924656 Z M117.651536,79.579888 L110.209421,79.579888 L93.6338009,32.2209727 L101.075916,32.2209727 L113.930479,69.1609266 L126.785042,32.2209727 L134.227157,32.2209727 L117.651536,79.579888 Z" id="TV" fill="#FFFFFF" fill-rule="nonzero" opacity="0.300000012"></path>
                </g>
                <g id="Group" transform="translate(30.906897, 83.854396)">
                    <rect id="Rectangle-Copy-5" fill="#2B2B2B" x="151.959887" y="35.4515149" width="20.2" height="4.5" rx="2.25"></rect>
                    <rect id="Rectangle-Copy-6" fill="#2B2B2B" x="21.959887" y="35.4515149" width="20.2" height="4.5" rx="2.25"></rect>
                    <rect id="Rectangle" fill="#444444" x="0" y="0" width="189" height="37.7015149" rx="18.850757"></rect>
                    <ellipse id="Oval" fill="#D8D8D8" opacity="0.200000003" cx="151.159887" cy="18.8507574" rx="13" ry="8.91079113"></ellipse>
                    <line x1="137.8" y1="12.2034471" x2="167.3" y2="26.2034471" id="Line" stroke="#444444" stroke-linecap="square"></line>
                    <line x1="137.8" y1="25.2034471" x2="165.8" y2="13.2034471" id="Line-Copy" stroke="#444444" stroke-linecap="square"></line>
                    <ellipse id="Oval-Copy-5" fill="#D8D8D8" opacity="0.200000003" cx="122.459887" cy="19.0899663" rx="4.5" ry="3.35"></ellipse>
                    <ellipse id="Oval-Copy-10" fill="#444444" cx="151.159887" cy="19.0899663" rx="4.5" ry="3.35"></ellipse>
                    <ellipse id="Oval-Copy" stroke="#40FF00" fill="#444444" cx="20.0710985" cy="18.5811851" rx="5.62959617" ry="3.8587812"></ellipse>
                    <circle id="Oval-Copy-2" fill="#40FF00" cx="48.4506947" cy="18.8507574" r="2.25"></circle>
                    <circle id="Oval-Copy-11" fill="url(#radialGradient-2)" cx="48.3646112" cy="18.9368409" r="5.50252279"></circle>
                    <circle id="Oval-Copy-12" fill="url(#radialGradient-3)" opacity="0.800000012" cx="65.9506947" cy="18.9368409" r="5.50252279"></circle>
                    <circle id="Oval-Copy-3" fill="#00A5FF" cx="65.9506947" cy="18.8507574" r="2.25"></circle>
                    <circle id="Oval-Copy-4" fill="#FF0000" opacity="0.300000012" cx="83.9506947" cy="18.8507574" r="2.25"></circle>
                </g>
                <path d="M6.644,152.557843 C8.244,152.557843 9.548,152.049843 10.556,151.033843 C11.564,150.017843 12.068,148.629843 12.068,146.869843 L12.068,141.445843 C12.068,139.685843 11.564,138.297843 10.556,137.281843 C9.548,136.265843 8.244,135.757843 6.644,135.757843 L1.22,135.757843 L1.22,152.557843 L6.644,152.557843 Z M6.644,150.733843 L3.068,150.733843 L3.068,137.581843 L6.644,137.581843 C7.636,137.597843 8.48,137.929843 9.176,138.577843 C9.872,139.225843 10.22,140.181843 10.22,141.445843 L10.22,146.869843 C10.22,148.133843 9.872,149.093843 9.176,149.749843 C8.48,150.405843 7.636,150.733843 6.644,150.733843 Z M19.796,152.797843 C20.868,152.797843 21.9,152.493843 22.892,151.885843 C23.884,151.277843 24.46,150.205843 24.62,148.669843 L22.772,148.669843 C22.628,149.469843 22.272,150.069843 21.704,150.469843 C21.136,150.869843 20.5,151.069843 19.796,151.069843 C18.996,151.069843 18.288,150.809843 17.672,150.289843 C17.056,149.769843 16.748,148.997843 16.748,147.973843 L16.748,146.773843 L24.644,146.773843 L24.644,144.685843 C24.644,142.877843 24.124,141.617843 23.084,140.905843 C22.044,140.193843 20.948,139.837843 19.796,139.837843 C18.644,139.837843 17.548,140.193843 16.508,140.905843 C15.468,141.617843 14.948,142.877843 14.948,144.685843 L14.948,147.949843 C14.948,149.757843 15.468,151.017843 16.508,151.729843 C17.548,152.441843 18.644,152.797843 19.796,152.797843 Z M22.844,145.117843 L16.748,145.117843 L16.748,144.661843 C16.748,143.637843 17.056,142.865843 17.672,142.345843 C18.288,141.825843 18.996,141.565843 19.796,141.565843 C20.596,141.565843 21.304,141.825843 21.92,142.345843 C22.536,142.865843 22.844,143.637843 22.844,144.661843 L22.844,145.117843 Z M32.3,152.797843 C33.388,152.797843 34.432,152.485843 35.432,151.861843 C36.432,151.237843 36.996,150.133843 37.124,148.549843 L35.3,148.549843 C35.188,149.381843 34.84,150.009843 34.256,150.433843 C33.672,150.857843 33.02,151.069843 32.3,151.069843 C31.5,151.069843 30.792,150.809843 30.176,150.289843 C29.56,149.769843 29.252,148.997843 29.252,147.973843 L29.252,144.661843 C29.252,143.637843 29.56,142.865843 30.176,142.345843 C30.792,141.825843 31.5,141.565843 32.3,141.565843 C33.02,141.565843 33.672,141.777843 34.256,142.201843 C34.84,142.625843 35.188,143.253843 35.3,144.085843 L37.124,144.085843 C36.996,142.501843 36.432,141.397843 35.432,140.773843 C34.432,140.149843 33.388,139.837843 32.3,139.837843 C31.148,139.837843 30.052,140.193843 29.012,140.905843 C27.972,141.617843 27.452,142.877843 27.452,144.685843 L27.452,147.949843 C27.452,149.773843 27.972,151.037843 29.012,151.741843 C30.052,152.445843 31.148,152.797843 32.3,152.797843 Z M44.66,152.797843 C45.812,152.797843 46.908,152.441843 47.948,151.729843 C48.988,151.017843 49.508,149.757843 49.508,147.949843 L49.508,144.685843 C49.508,142.877843 48.988,141.617843 47.948,140.905843 C46.908,140.193843 45.812,139.837843 44.66,139.837843 C43.508,139.837843 42.412,140.193843 41.372,140.905843 C40.332,141.617843 39.812,142.877843 39.812,144.685843 L39.812,147.949843 C39.812,149.757843 40.332,151.017843 41.372,151.729843 C42.412,152.441843 43.508,152.797843 44.66,152.797843 Z M44.66,151.069843 C43.86,151.069843 43.152,150.809843 42.536,150.289843 C41.92,149.769843 41.612,148.997843 41.612,147.973843 L41.612,144.661843 C41.612,143.637843 41.92,142.865843 42.536,142.345843 C43.152,141.825843 43.86,141.565843 44.66,141.565843 C45.46,141.565843 46.168,141.825843 46.784,142.345843 C47.4,142.865843 47.708,143.637843 47.708,144.661843 L47.708,147.973843 C47.708,148.997843 47.4,149.769843 46.784,150.289843 C46.168,150.809843 45.46,151.069843 44.66,151.069843 Z M57.284,152.797843 C57.844,152.797843 58.416,152.669843 59,152.413843 C59.584,152.157843 60.028,151.781843 60.332,151.285843 L60.332,151.285843 L60.332,152.557843 L62.132,152.557843 L62.132,135.757843 L60.332,135.757843 L60.332,141.349843 C60.028,140.853843 59.584,140.477843 59,140.221843 C58.416,139.965843 57.844,139.837843 57.284,139.837843 C56.132,139.837843 55.036,140.193843 53.996,140.905843 C52.956,141.617843 52.436,142.877843 52.436,144.685843 L52.436,144.685843 L52.436,147.949843 C52.436,149.757843 52.956,151.017843 53.996,151.729843 C55.036,152.441843 56.132,152.797843 57.284,152.797843 Z M57.284,151.069843 C56.484,151.069843 55.776,150.809843 55.16,150.289843 C54.544,149.769843 54.236,148.997843 54.236,147.973843 L54.236,147.973843 L54.236,144.661843 C54.236,143.637843 54.544,142.865843 55.16,142.345843 C55.776,141.825843 56.484,141.565843 57.284,141.565843 C58.084,141.565843 58.792,141.825843 59.408,142.345843 C60.024,142.865843 60.332,143.637843 60.332,144.661843 L60.332,144.661843 L60.332,147.973843 C60.332,148.997843 60.024,149.769843 59.408,150.289843 C58.792,150.809843 58.084,151.069843 57.284,151.069843 Z M67.532,138.085843 L67.532,135.757843 L65.732,135.757843 L65.732,138.085843 L67.532,138.085843 Z M67.532,152.557843 L67.532,140.173843 L65.732,140.173843 L65.732,152.557843 L67.532,152.557843 Z M73.556,152.557843 L73.556,141.901843 L76.604,141.901843 L76.604,140.173843 L73.556,140.173843 L73.556,138.565843 C73.556,138.165843 73.64,137.885843 73.808,137.725843 C73.976,137.565843 74.276,137.485843 74.708,137.485843 L76.604,137.485843 L76.604,135.757843 L74.708,135.757843 C73.556,135.757843 72.776,135.985843 72.368,136.441843 C71.96,136.897843 71.756,137.653843 71.756,138.709843 L71.756,140.173843 L70.004,140.173843 L70.004,141.901843 L71.756,141.901843 L71.756,152.557843 L73.556,152.557843 Z M80.54,138.085843 L80.54,135.757843 L78.74,135.757843 L78.74,138.085843 L80.54,138.085843 Z M80.54,152.557843 L80.54,140.173843 L78.74,140.173843 L78.74,152.557843 L80.54,152.557843 Z M88.652,152.797843 C89.74,152.797843 90.784,152.485843 91.784,151.861843 C92.784,151.237843 93.348,150.133843 93.476,148.549843 L91.652,148.549843 C91.54,149.381843 91.192,150.009843 90.608,150.433843 C90.024,150.857843 89.372,151.069843 88.652,151.069843 C87.852,151.069843 87.144,150.809843 86.528,150.289843 C85.912,149.769843 85.604,148.997843 85.604,147.973843 L85.604,144.661843 C85.604,143.637843 85.912,142.865843 86.528,142.345843 C87.144,141.825843 87.852,141.565843 88.652,141.565843 C89.372,141.565843 90.024,141.777843 90.608,142.201843 C91.192,142.625843 91.54,143.253843 91.652,144.085843 L93.476,144.085843 C93.348,142.501843 92.784,141.397843 91.784,140.773843 C90.784,140.149843 89.74,139.837843 88.652,139.837843 C87.5,139.837843 86.404,140.193843 85.364,140.905843 C84.324,141.617843 83.804,142.877843 83.804,144.685843 L83.804,147.949843 C83.804,149.773843 84.324,151.037843 85.364,151.741843 C86.404,152.445843 87.5,152.797843 88.652,152.797843 Z M99.884,152.797843 C100.716,152.797843 101.468,152.673843 102.14,152.425843 C102.812,152.177843 103.348,151.797843 103.748,151.285843 L103.748,152.557843 L105.548,152.557843 L105.548,144.685843 C105.548,142.877843 105.028,141.617843 103.988,140.905843 C102.948,140.193843 101.852,139.837843 100.7,139.837843 C99.628,139.837843 98.596,140.141843 97.604,140.749843 C96.612,141.357843 96.036,142.429843 95.876,143.965843 L97.724,143.965843 C97.868,143.165843 98.224,142.565843 98.792,142.165843 C99.36,141.765843 99.996,141.565843 100.7,141.565843 C101.5,141.565843 102.208,141.825843 102.824,142.345843 C103.44,142.865843 103.748,143.637843 103.748,144.661843 L103.748,144.877843 C102.708,144.941843 101.744,145.021843 100.856,145.117843 C99.968,145.213843 99.172,145.365843 98.468,145.573843 C97.396,145.877843 96.68,146.389843 96.32,147.109843 C95.96,147.829843 95.78,148.501843 95.78,149.125843 C95.78,150.389843 96.2,151.317843 97.04,151.909843 C97.88,152.501843 98.828,152.797843 99.884,152.797843 Z M100.268,151.069843 C99.356,151.069843 98.68,150.877843 98.24,150.493843 C97.8,150.109843 97.58,149.637843 97.58,149.077843 C97.58,148.725843 97.648,148.405843 97.784,148.117843 C97.92,147.829843 98.212,147.557843 98.66,147.301843 C99.076,147.077843 99.692,146.909843 100.508,146.797843 C101.324,146.685843 102.404,146.581843 103.748,146.485843 L103.748,148.093843 C103.748,149.053843 103.408,149.789843 102.728,150.301843 C102.048,150.813843 101.228,151.069843 100.268,151.069843 Z M113.492,152.797843 C114.052,152.797843 114.624,152.669843 115.208,152.413843 C115.792,152.157843 116.236,151.781843 116.54,151.285843 L116.54,151.285843 L116.54,152.557843 L118.34,152.557843 L118.34,135.757843 L116.54,135.757843 L116.54,141.349843 C116.236,140.853843 115.792,140.477843 115.208,140.221843 C114.624,139.965843 114.052,139.837843 113.492,139.837843 C112.34,139.837843 111.244,140.193843 110.204,140.905843 C109.164,141.617843 108.644,142.877843 108.644,144.685843 L108.644,144.685843 L108.644,147.949843 C108.644,149.757843 109.164,151.017843 110.204,151.729843 C111.244,152.441843 112.34,152.797843 113.492,152.797843 Z M113.492,151.069843 C112.692,151.069843 111.984,150.809843 111.368,150.289843 C110.752,149.769843 110.444,148.997843 110.444,147.973843 L110.444,147.973843 L110.444,144.661843 C110.444,143.637843 110.752,142.865843 111.368,142.345843 C111.984,141.825843 112.692,141.565843 113.492,141.565843 C114.292,141.565843 115,141.825843 115.616,142.345843 C116.232,142.865843 116.54,143.637843 116.54,144.661843 L116.54,144.661843 L116.54,147.973843 C116.54,148.997843 116.232,149.769843 115.616,150.289843 C115,150.809843 114.292,151.069843 113.492,151.069843 Z M126.452,152.797843 C127.604,152.797843 128.7,152.441843 129.74,151.729843 C130.78,151.017843 131.3,149.757843 131.3,147.949843 L131.3,144.685843 C131.3,142.877843 130.78,141.617843 129.74,140.905843 C128.7,140.193843 127.604,139.837843 126.452,139.837843 C125.3,139.837843 124.204,140.193843 123.164,140.905843 C122.124,141.617843 121.604,142.877843 121.604,144.685843 L121.604,147.949843 C121.604,149.757843 122.124,151.017843 123.164,151.729843 C124.204,152.441843 125.3,152.797843 126.452,152.797843 Z M126.452,151.069843 C125.652,151.069843 124.944,150.809843 124.328,150.289843 C123.712,149.769843 123.404,148.997843 123.404,147.973843 L123.404,144.661843 C123.404,143.637843 123.712,142.865843 124.328,142.345843 C124.944,141.825843 125.652,141.565843 126.452,141.565843 C127.252,141.565843 127.96,141.825843 128.576,142.345843 C129.192,142.865843 129.5,143.637843 129.5,144.661843 L129.5,147.973843 C129.5,148.997843 129.192,149.769843 128.576,150.289843 C127.96,150.809843 127.252,151.069843 126.452,151.069843 Z M136.364,152.557843 L136.364,144.781843 C136.364,143.757843 136.672,142.985843 137.288,142.465843 C137.904,141.945843 138.612,141.685843 139.412,141.685843 L140.204,141.685843 L140.204,139.957843 L139.412,139.957843 C138.852,139.957843 138.28,140.085843 137.696,140.341843 C137.112,140.597843 136.668,140.973843 136.364,141.469843 L136.364,140.173843 L134.564,140.173843 L134.564,152.557843 L136.364,152.557843 Z M152.324,152.797843 C152.884,152.797843 153.456,152.669843 154.04,152.413843 C154.624,152.157843 155.068,151.781843 155.372,151.285843 L155.372,151.285843 L155.372,152.557843 L157.172,152.557843 L157.172,135.757843 L155.372,135.757843 L155.372,141.349843 C155.068,140.853843 154.624,140.477843 154.04,140.221843 C153.456,139.965843 152.884,139.837843 152.324,139.837843 C151.172,139.837843 150.076,140.193843 149.036,140.905843 C147.996,141.617843 147.476,142.877843 147.476,144.685843 L147.476,144.685843 L147.476,147.949843 C147.476,149.757843 147.996,151.017843 149.036,151.729843 C150.076,152.441843 151.172,152.797843 152.324,152.797843 Z M152.324,151.069843 C151.524,151.069843 150.816,150.809843 150.2,150.289843 C149.584,149.769843 149.276,148.997843 149.276,147.973843 L149.276,147.973843 L149.276,144.661843 C149.276,143.637843 149.584,142.865843 150.2,142.345843 C150.816,141.825843 151.524,141.565843 152.324,141.565843 C153.124,141.565843 153.832,141.825843 154.448,142.345843 C155.064,142.865843 155.372,143.637843 155.372,144.661843 L155.372,144.661843 L155.372,147.973843 C155.372,148.997843 155.064,149.769843 154.448,150.289843 C153.832,150.809843 153.124,151.069843 152.324,151.069843 Z M164.324,152.797843 C165.156,152.797843 165.908,152.673843 166.58,152.425843 C167.252,152.177843 167.788,151.797843 168.188,151.285843 L168.188,152.557843 L169.988,152.557843 L169.988,144.685843 C169.988,142.877843 169.468,141.617843 168.428,140.905843 C167.388,140.193843 166.292,139.837843 165.14,139.837843 C164.068,139.837843 163.036,140.141843 162.044,140.749843 C161.052,141.357843 160.476,142.429843 160.316,143.965843 L162.164,143.965843 C162.308,143.165843 162.664,142.565843 163.232,142.165843 C163.8,141.765843 164.436,141.565843 165.14,141.565843 C165.94,141.565843 166.648,141.825843 167.264,142.345843 C167.88,142.865843 168.188,143.637843 168.188,144.661843 L168.188,144.877843 C167.148,144.941843 166.184,145.021843 165.296,145.117843 C164.408,145.213843 163.612,145.365843 162.908,145.573843 C161.836,145.877843 161.12,146.389843 160.76,147.109843 C160.4,147.829843 160.22,148.501843 160.22,149.125843 C160.22,150.389843 160.64,151.317843 161.48,151.909843 C162.32,152.501843 163.268,152.797843 164.324,152.797843 Z M164.708,151.069843 C163.796,151.069843 163.12,150.877843 162.68,150.493843 C162.24,150.109843 162.02,149.637843 162.02,149.077843 C162.02,148.725843 162.088,148.405843 162.224,148.117843 C162.36,147.829843 162.652,147.557843 163.1,147.301843 C163.516,147.077843 164.132,146.909843 164.948,146.797843 C165.764,146.685843 166.844,146.581843 168.188,146.485843 L168.188,148.093843 C168.188,149.053843 167.848,149.789843 167.168,150.301843 C166.488,150.813843 165.668,151.069843 164.708,151.069843 Z M183.692,152.557843 L183.692,137.581843 L188.18,137.581843 L188.18,135.757843 L177.356,135.757843 L177.356,137.581843 L181.844,137.581843 L181.844,152.557843 L183.692,152.557843 Z M196.964,152.557843 L202.364,135.757843 L200.492,135.757843 L195.908,149.989843 L191.324,135.757843 L189.452,135.757843 L194.852,152.557843 L196.964,152.557843 Z" id="DecodificadordaTV" fill="#444444" fill-rule="nonzero"></path>
                <path d="M369.485793,152.354396 L369.485793,139.442396 L373.493793,147.842396 L375.221793,147.842396 L379.229793,139.442396 L379.229793,152.354396 L381.053793,152.354396 L381.053793,135.554396 L379.205793,135.554396 L374.357793,145.730396 L369.509793,135.554396 L367.661793,135.554396 L367.661793,152.354396 L369.485793,152.354396 Z M389.285793,152.594396 C390.437793,152.594396 391.533793,152.238396 392.573793,151.526396 C393.613793,150.814396 394.133793,149.554396 394.133793,147.746396 L394.133793,144.482396 C394.133793,142.674396 393.613793,141.414396 392.573793,140.702396 C391.533793,139.990396 390.437793,139.634396 389.285793,139.634396 C388.133793,139.634396 387.037793,139.990396 385.997793,140.702396 C384.957793,141.414396 384.437793,142.674396 384.437793,144.482396 L384.437793,147.746396 C384.437793,149.554396 384.957793,150.814396 385.997793,151.526396 C387.037793,152.238396 388.133793,152.594396 389.285793,152.594396 Z M389.285793,150.866396 C388.485793,150.866396 387.777793,150.606396 387.161793,150.086396 C386.545793,149.566396 386.237793,148.794396 386.237793,147.770396 L386.237793,144.458396 C386.237793,143.434396 386.545793,142.662396 387.161793,142.142396 C387.777793,141.622396 388.485793,141.362396 389.285793,141.362396 C390.085793,141.362396 390.793793,141.622396 391.409793,142.142396 C392.025793,142.662396 392.333793,143.434396 392.333793,144.458396 L392.333793,147.770396 C392.333793,148.794396 392.025793,149.566396 391.409793,150.086396 C390.793793,150.606396 390.085793,150.866396 389.285793,150.866396 Z M401.909793,152.594396 C402.469793,152.594396 403.041793,152.466396 403.625793,152.210396 C404.209793,151.954396 404.653793,151.578396 404.957793,151.082396 L404.957793,151.082396 L404.957793,152.354396 L406.757793,152.354396 L406.757793,135.554396 L404.957793,135.554396 L404.957793,141.146396 C404.653793,140.650396 404.209793,140.274396 403.625793,140.018396 C403.041793,139.762396 402.469793,139.634396 401.909793,139.634396 C400.757793,139.634396 399.661793,139.990396 398.621793,140.702396 C397.581793,141.414396 397.061793,142.674396 397.061793,144.482396 L397.061793,144.482396 L397.061793,147.746396 C397.061793,149.554396 397.581793,150.814396 398.621793,151.526396 C399.661793,152.238396 400.757793,152.594396 401.909793,152.594396 Z M401.909793,150.866396 C401.109793,150.866396 400.401793,150.606396 399.785793,150.086396 C399.169793,149.566396 398.861793,148.794396 398.861793,147.770396 L398.861793,147.770396 L398.861793,144.458396 C398.861793,143.434396 399.169793,142.662396 399.785793,142.142396 C400.401793,141.622396 401.109793,141.362396 401.909793,141.362396 C402.709793,141.362396 403.417793,141.622396 404.033793,142.142396 C404.649793,142.662396 404.957793,143.434396 404.957793,144.458396 L404.957793,144.458396 L404.957793,147.770396 C404.957793,148.794396 404.649793,149.566396 404.033793,150.086396 C403.417793,150.606396 402.709793,150.866396 401.909793,150.866396 Z M414.869793,152.594396 C415.941793,152.594396 416.973793,152.290396 417.965793,151.682396 C418.957793,151.074396 419.533793,150.002396 419.693793,148.466396 L417.845793,148.466396 C417.701793,149.266396 417.345793,149.866396 416.777793,150.266396 C416.209793,150.666396 415.573793,150.866396 414.869793,150.866396 C414.069793,150.866396 413.361793,150.606396 412.745793,150.086396 C412.129793,149.566396 411.821793,148.794396 411.821793,147.770396 L411.821793,146.570396 L419.717793,146.570396 L419.717793,144.482396 C419.717793,142.674396 419.197793,141.414396 418.157793,140.702396 C417.117793,139.990396 416.021793,139.634396 414.869793,139.634396 C413.717793,139.634396 412.621793,139.990396 411.581793,140.702396 C410.541793,141.414396 410.021793,142.674396 410.021793,144.482396 L410.021793,147.746396 C410.021793,149.554396 410.541793,150.814396 411.581793,151.526396 C412.621793,152.238396 413.717793,152.594396 414.869793,152.594396 Z M417.917793,144.914396 L411.821793,144.914396 L411.821793,144.458396 C411.821793,143.434396 412.129793,142.662396 412.745793,142.142396 C413.361793,141.622396 414.069793,141.362396 414.869793,141.362396 C415.669793,141.362396 416.377793,141.622396 416.993793,142.142396 C417.609793,142.662396 417.917793,143.434396 417.917793,144.458396 L417.917793,144.914396 Z M424.661793,152.354396 L424.661793,144.458396 C424.661793,143.466396 424.957793,142.702396 425.549793,142.166396 C426.141793,141.630396 426.805793,141.362396 427.541793,141.362396 C428.245793,141.362396 428.897793,141.626396 429.497793,142.154396 C430.097793,142.682396 430.397793,143.402396 430.397793,144.314396 L430.397793,152.354396 L432.197793,152.354396 L432.197793,144.458396 C432.197793,143.466396 432.493793,142.702396 433.085793,142.166396 C433.677793,141.630396 434.341793,141.362396 435.077793,141.362396 C435.781793,141.362396 436.433793,141.626396 437.033793,142.154396 C437.633793,142.682396 437.933793,143.402396 437.933793,144.314396 L437.933793,152.354396 L439.733793,152.354396 L439.733793,144.482396 C439.733793,142.738396 439.229793,141.494396 438.221793,140.750396 C437.213793,140.006396 436.157793,139.634396 435.053793,139.634396 C434.365793,139.634396 433.669793,139.786396 432.965793,140.090396 C432.261793,140.394396 431.701793,140.890396 431.285793,141.578396 C430.869793,140.890396 430.313793,140.394396 429.617793,140.090396 C428.921793,139.786396 428.229793,139.634396 427.541793,139.634396 C427.093793,139.634396 426.577793,139.762396 425.993793,140.018396 C425.409793,140.274396 424.965793,140.650396 424.661793,141.146396 L424.661793,139.970396 L422.861793,139.970396 L422.861793,152.354396 L424.661793,152.354396 Z M453.077793,152.594396 C453.637793,152.594396 454.209793,152.466396 454.793793,152.210396 C455.377793,151.954396 455.821793,151.578396 456.125793,151.082396 L456.125793,151.082396 L456.125793,152.354396 L457.925793,152.354396 L457.925793,135.554396 L456.125793,135.554396 L456.125793,141.146396 C455.821793,140.650396 455.377793,140.274396 454.793793,140.018396 C454.209793,139.762396 453.637793,139.634396 453.077793,139.634396 C451.925793,139.634396 450.829793,139.990396 449.789793,140.702396 C448.749793,141.414396 448.229793,142.674396 448.229793,144.482396 L448.229793,144.482396 L448.229793,147.746396 C448.229793,149.554396 448.749793,150.814396 449.789793,151.526396 C450.829793,152.238396 451.925793,152.594396 453.077793,152.594396 Z M453.077793,150.866396 C452.277793,150.866396 451.569793,150.606396 450.953793,150.086396 C450.337793,149.566396 450.029793,148.794396 450.029793,147.770396 L450.029793,147.770396 L450.029793,144.458396 C450.029793,143.434396 450.337793,142.662396 450.953793,142.142396 C451.569793,141.622396 452.277793,141.362396 453.077793,141.362396 C453.877793,141.362396 454.585793,141.622396 455.201793,142.142396 C455.817793,142.662396 456.125793,143.434396 456.125793,144.458396 L456.125793,144.458396 L456.125793,147.770396 C456.125793,148.794396 455.817793,149.566396 455.201793,150.086396 C454.585793,150.606396 453.877793,150.866396 453.077793,150.866396 Z M466.037793,152.594396 C467.109793,152.594396 468.141793,152.290396 469.133793,151.682396 C470.125793,151.074396 470.701793,150.002396 470.861793,148.466396 L469.013793,148.466396 C468.869793,149.266396 468.513793,149.866396 467.945793,150.266396 C467.377793,150.666396 466.741793,150.866396 466.037793,150.866396 C465.237793,150.866396 464.529793,150.606396 463.913793,150.086396 C463.297793,149.566396 462.989793,148.794396 462.989793,147.770396 L462.989793,146.570396 L470.885793,146.570396 L470.885793,144.482396 C470.885793,142.674396 470.365793,141.414396 469.325793,140.702396 C468.285793,139.990396 467.189793,139.634396 466.037793,139.634396 C464.885793,139.634396 463.789793,139.990396 462.749793,140.702396 C461.709793,141.414396 461.189793,142.674396 461.189793,144.482396 L461.189793,147.746396 C461.189793,149.554396 461.709793,150.814396 462.749793,151.526396 C463.789793,152.238396 464.885793,152.594396 466.037793,152.594396 Z M469.085793,144.914396 L462.989793,144.914396 L462.989793,144.458396 C462.989793,143.434396 463.297793,142.662396 463.913793,142.142396 C464.529793,141.622396 465.237793,141.362396 466.037793,141.362396 C466.837793,141.362396 467.545793,141.622396 468.161793,142.142396 C468.777793,142.662396 469.085793,143.434396 469.085793,144.458396 L469.085793,144.914396 Z M481.397793,152.354396 L481.397793,144.770396 L489.101793,144.770396 L489.101793,142.946396 L481.397793,142.946396 L481.397793,137.378396 L489.101793,137.378396 L489.101793,135.554396 L479.549793,135.554396 L479.549793,152.354396 L481.397793,152.354396 Z M493.997793,137.882396 L493.997793,135.554396 L492.197793,135.554396 L492.197793,137.882396 L493.997793,137.882396 Z M493.997793,152.354396 L493.997793,139.970396 L492.197793,139.970396 L492.197793,152.354396 L493.997793,152.354396 Z M502.445793,152.594396 C503.597793,152.594396 504.693793,152.238396 505.733793,151.526396 C506.773793,150.814396 507.293793,149.554396 507.293793,147.746396 L507.293793,144.482396 C507.293793,142.674396 506.773793,141.414396 505.733793,140.702396 C504.693793,139.990396 503.597793,139.634396 502.445793,139.634396 C501.885793,139.634396 501.313793,139.762396 500.729793,140.018396 C500.145793,140.274396 499.701793,140.650396 499.397793,141.146396 L499.397793,135.554396 L497.597793,135.554396 L497.597793,152.354396 L499.397793,152.354396 L499.397793,151.082396 C499.701793,151.578396 500.145793,151.954396 500.729793,152.210396 C501.313793,152.466396 501.885793,152.594396 502.445793,152.594396 Z M502.445793,150.866396 C501.645793,150.866396 500.937793,150.606396 500.321793,150.086396 C499.705793,149.566396 499.397793,148.794396 499.397793,147.770396 L499.397793,144.458396 C499.397793,143.434396 499.705793,142.662396 500.321793,142.142396 C500.937793,141.622396 501.645793,141.362396 502.445793,141.362396 C503.245793,141.362396 503.953793,141.622396 504.569793,142.142396 C505.185793,142.662396 505.493793,143.434396 505.493793,144.458396 L505.493793,147.770396 C505.493793,148.794396 505.185793,149.566396 504.569793,150.086396 C503.953793,150.606396 503.245793,150.866396 502.445793,150.866396 Z M512.357793,152.354396 L512.357793,144.578396 C512.357793,143.554396 512.665793,142.782396 513.281793,142.262396 C513.897793,141.742396 514.605793,141.482396 515.405793,141.482396 L516.197793,141.482396 L516.197793,139.754396 L515.405793,139.754396 C514.845793,139.754396 514.273793,139.882396 513.689793,140.138396 C513.105793,140.394396 512.661793,140.770396 512.357793,141.266396 L512.357793,139.970396 L510.557793,139.970396 L510.557793,152.354396 L512.357793,152.354396 Z M521.789793,152.594396 C522.621793,152.594396 523.373793,152.470396 524.045793,152.222396 C524.717793,151.974396 525.253793,151.594396 525.653793,151.082396 L525.653793,152.354396 L527.453793,152.354396 L527.453793,144.482396 C527.453793,142.674396 526.933793,141.414396 525.893793,140.702396 C524.853793,139.990396 523.757793,139.634396 522.605793,139.634396 C521.533793,139.634396 520.501793,139.938396 519.509793,140.546396 C518.517793,141.154396 517.941793,142.226396 517.781793,143.762396 L519.629793,143.762396 C519.773793,142.962396 520.129793,142.362396 520.697793,141.962396 C521.265793,141.562396 521.901793,141.362396 522.605793,141.362396 C523.405793,141.362396 524.113793,141.622396 524.729793,142.142396 C525.345793,142.662396 525.653793,143.434396 525.653793,144.458396 L525.653793,144.674396 C524.613793,144.738396 523.649793,144.818396 522.761793,144.914396 C521.873793,145.010396 521.077793,145.162396 520.373793,145.370396 C519.301793,145.674396 518.585793,146.186396 518.225793,146.906396 C517.865793,147.626396 517.685793,148.298396 517.685793,148.922396 C517.685793,150.186396 518.105793,151.114396 518.945793,151.706396 C519.785793,152.298396 520.733793,152.594396 521.789793,152.594396 Z M522.173793,150.866396 C521.261793,150.866396 520.585793,150.674396 520.145793,150.290396 C519.705793,149.906396 519.485793,149.434396 519.485793,148.874396 C519.485793,148.522396 519.553793,148.202396 519.689793,147.914396 C519.825793,147.626396 520.117793,147.354396 520.565793,147.098396 C520.981793,146.874396 521.597793,146.706396 522.413793,146.594396 C523.229793,146.482396 524.309793,146.378396 525.653793,146.282396 L525.653793,147.890396 C525.653793,148.850396 525.313793,149.586396 524.633793,150.098396 C523.953793,150.610396 523.133793,150.866396 522.173793,150.866396 Z" id="ModemdeFibra" fill="#444444" fill-rule="nonzero"></path>
            </g>
            <g id="Group-36" transform="translate(359.413793, 30.555911)" fill-rule="nonzero">
                <path d="M7.76375814,95.6650323 C7.04024872,95.6650323 6.44816877,95.5855401 6.44816877,95.4883757 L6.44816877,91.1130312 C6.44816877,91.0158668 7.04024872,90.9363747 7.76375814,90.9363747 L41.0275475,90.9363747 C41.7510569,90.9363747 42.342975,91.0158668 42.342975,91.1130312 L42.342975,95.4883757 C42.342975,95.5855401 41.7510569,95.6650323 41.0275475,95.6650323 L7.76375814,95.6650323 Z" id="Fill-48-Copy" fill="#2B2B2B" transform="translate(24.395572, 93.300703) scale(-1, 1) rotate(-180.000000) translate(-24.395572, -93.300703) "></path>
                <path d="M130.064026,95.6650323 C129.340517,95.6650323 128.748437,95.5855401 128.748437,95.4883757 L128.748437,91.1130312 C128.748437,91.0158668 129.340517,90.9363747 130.064026,90.9363747 L163.327815,90.9363747 C164.051325,90.9363747 164.643243,91.0158668 164.643243,91.1130312 L164.643243,95.4883757 C164.643243,95.5855401 164.051325,95.6650323 163.327815,95.6650323 L130.064026,95.6650323 Z" id="Fill-48-Copy-2" fill="#2B2B2B" transform="translate(146.695840, 93.300703) scale(-1, 1) rotate(-180.000000) translate(-146.695840, -93.300703) "></path>
                <path d="M6.34949105,93.5156423 C2.85758345,93.5156423 -4.98755159e-13,91.9435788 -4.98755159e-13,90.0220248 L-4.98755159e-13,3.49361785 C-4.98755159e-13,1.57206355 2.85758345,2.3470831e-13 6.34949105,2.3470831e-13 L166.892091,2.3470831e-13 C170.383999,2.3470831e-13 173.240801,1.57206355 173.240801,3.49361785 L173.240801,90.0220248 C173.240801,91.9435788 170.383999,93.5156423 166.892091,93.5156423 L6.34949105,93.5156423 Z" id="Fill-48" fill="#444444"></path>
                <rect id="Rectangle" fill="#C1C1C1" x="0" y="62.3143886" width="173.419355" height="6.19354839"></rect>
                <path d="M75.6875903,40.4040983 C79.2479615,26.433364 76.5357868,18.5582542 85.9462396,22.8473182 C91.1077742,25.2014485 97.2808894,31.0337913 97.6216618,37.1000066 C98.0950086,45.4577995 72.1430907,54.3118131 75.6875903,40.4040983 Z" id="Clip-14" fill="#C1C1C1"></path>
                <path d="M84.7222599,38.6801635 C83.8283159,38.6801635 83.3334957,37.7619453 83.3334957,36.8306564 C83.3334957,35.9003011 83.8283159,35.0072907 84.7222599,35.0072907 C85.6138698,35.0072907 86.1072896,35.9003011 86.1072896,36.8306564 C86.1072896,37.7619453 85.6138698,38.6801635 84.7222599,38.6801635 Z M84.7222599,33.3641142 C82.7728551,33.3641142 81.4760528,34.9069262 81.4760528,36.841393 C81.4760528,38.7781939 82.7728551,40.3196054 84.7222599,40.3196054 C86.6669965,40.3196054 87.9623985,38.7781939 87.9623985,36.841393 C87.9623985,34.9069262 86.6669965,33.3641142 84.7222599,33.3641142 Z M90.0103004,33.3678487 C89.3562975,33.3678487 88.8231988,34.9251319 88.8231988,36.8451275 C88.8231988,38.7660568 89.3562975,40.3219395 90.0103004,40.3219395 C90.665237,40.3219395 91.1960017,38.7660568 91.1960017,36.8451275 C91.1960017,34.9251319 90.665237,33.3678487 90.0103004,33.3678487 Z M89.9953625,32.5056479 C90.6400292,32.5056479 91.1595903,31.9832858 91.1595903,31.3395528 C91.1595903,30.697687 90.6400292,30.1762586 89.9953625,30.1762586 C89.3534967,30.1762586 88.8330019,30.697687 88.8330019,31.3395528 C88.8330019,31.9832858 89.3534967,32.5056479 89.9953625,32.5056479 L89.9953625,32.5056479 Z" id="Fill-16" fill="#444444"></path>
            </g>
        </g>
        <g id="Group-39-Copy" transform="translate(396.000000, 170.000000)">
            <g id="Group-3">
                <circle id="Oval-Copy-11" fill="url(#radialGradient-2)" cx="3.38347541" cy="3.38347541" r="3.38347541"></circle>
                <circle id="Oval-Copy-2" fill="#40FF00" cx="3.4364077" cy="3.33054311" r="1.38351443"></circle>
            </g>
            <g id="Group-3-Copy" transform="translate(8.750000, 0.000000)">
                <circle id="Oval-Copy-11" fill="url(#radialGradient-2)" cx="3.38347541" cy="3.38347541" r="3.38347541"></circle>
                <circle id="Oval-Copy-2" fill="#40FF00" cx="3.4364077" cy="3.33054311" r="1.38351443"></circle>
            </g>
            <g id="Group-3-Copy-2" transform="translate(17.500000, 0.000000)">
                <circle id="Oval-Copy-11" fill="url(#radialGradient-2)" cx="3.38347541" cy="3.38347541" r="3.38347541"></circle>
                <circle id="Oval-Copy-2" fill="#40FF00" cx="3.4364077" cy="3.33054311" r="1.38351443"></circle>
            </g>
            <g id="Group-3-Copy-3" transform="translate(35.000000, 0.000000)">
                <circle id="Oval-Copy-11" fill="url(#radialGradient-2)" cx="3.38347541" cy="3.38347541" r="3.38347541"></circle>
                <circle id="Oval-Copy-2" fill="#40FF00" cx="3.4364077" cy="3.33054311" r="1.38351443"></circle>
            </g>
            <g id="Group-3-Copy-4" transform="translate(43.750000, 0.000000)">
                <circle id="Oval-Copy-11" fill="url(#radialGradient-2)" cx="3.38347541" cy="3.38347541" r="3.38347541"></circle>
                <circle id="Oval-Copy-2" fill="#40FF00" cx="3.4364077" cy="3.33054311" r="1.38351443"></circle>
            </g>
            <g id="Group-3-Copy-5" transform="translate(70.000000, 0.000000)">
                <circle id="Oval-Copy-11" fill="url(#radialGradient-2)" cx="3.38347541" cy="3.38347541" r="3.38347541"></circle>
                <circle id="Oval-Copy-2" fill="#40FF00" cx="3.4364077" cy="3.33054311" r="1.38351443"></circle>
            </g>
            <g id="Group-3-Copy-6" transform="translate(113.750000, 0.000000)">
                <circle id="Oval-Copy-11" fill="url(#radialGradient-2)" cx="3.38347541" cy="3.38347541" r="3.38347541"></circle>
                <circle id="Oval-Copy-2" fill="#40FF00" cx="3.4364077" cy="3.33054311" r="1.38351443"></circle>
            </g>
            <g id="Group-3-Copy-7" transform="translate(131.250000, 0.000000)">
                <circle id="Oval-Copy-11" fill="url(#radialGradient-2)" cx="3.38347541" cy="3.38347541" r="3.38347541"></circle>
                <circle id="Oval-Copy-2" fill="#40FF00" cx="3.4364077" cy="3.33054311" r="1.38351443"></circle>
            </g>
        </g>
        <g id="-Connections" transform="translate(-27831.701232, -10196.000000)" fill="#F5A623" fill-rule="nonzero">
            <path id="Flow-arrow" d="M33250.6133,6927.54957 C33251.4143,6934.12839 33246.7305,6940.11097 33240.1517,6940.91202 C33234.282,6941.62672 33228.8871,6937.97537 33227.2232,6932.5075 L33229.1854,6932.1716 C33128.6091,6948.80622 32367.2531,7136.01669 30974.9927,7485.21637 C29920.0904,7749.80163 28883.2551,8011.39882 26405.6912,8637.43905 C23964.9934,9254.16383 22941.7149,9512.35278 21893.1508,9775.42316 C20522.7889,10119.2282 19750.1198,10309.5998 19598.0602,10339.7711 L19595.712,10340.231 L19597.2506,10350.1993 L19571.7012,10342 L19593.5903,10326.4801 L19595.101,10336.274 L19597.2985,10335.8443 C19749.2471,10305.6943 20522.0164,10115.2981 21892.1774,9771.5434 C22940.7384,9508.47379 23964.0159,9250.2851 26404.7113,8633.56095 C28882.2777,8007.52006 29919.1141,7745.92261 30974.0196,7481.33655 C32358.8192,7134.00815 33119.1386,6947.01395 33226.7575,6928.52471 L33226.7084,6928.53727 C33226.9246,6922.74851 33231.3169,6917.81051 33237.2508,6917.08798 C33243.8296,6916.28693 33249.8122,6920.97074 33250.6133,6927.54957 Z M33237.7343,6921.05865 C33233.3484,6921.59269 33230.2259,6925.58107 33230.7599,6929.96696 C33231.2939,6934.35284 33235.2823,6937.47538 33239.6682,6936.94135 C33244.0541,6936.40731 33247.1766,6932.41893 33246.6426,6928.03304 C33246.1085,6923.64716 33242.1202,6920.52462 33237.7343,6921.05865 Z"></path>
            <path id="Flow-arrow" d="M30061.8986,998.685005 C30064.2817,1004.86914 30061.2004,1011.81425 30055.0162,1014.19736 C30049.5654,1016.29786 30043.5234,1014.15308 30040.5353,1009.38019 L30042.4038,1008.32249 C29955.5258,1055.64839 29368.1639,1568.75058 28302.8007,2523.64586 C27852.9353,2926.86454 27320.3171,3406.5913 26667.0668,3996.64039 C26172.1796,4443.64788 25758.0374,4818.28275 24812.5433,5673.98287 C23881.5738,6516.5378 23473.611,6885.58812 22985.4131,7326.58145 C22340.9911,7908.69339 21814.1594,8383.288 21367.1349,8784.11357 C20318.4092,9724.45592 19722.7578,10246.175 19596.0346,10331.4144 L19593.939,10332.802 L19598.534,10341.9568 L19571.7012,10342 L19587.7663,10320.5078 L19592.131,10329.202 L19593.8423,10328.0686 C19720.3009,10243.0008 20316.1739,9721.08778 21364.4645,8781.13544 C21811.4848,8380.31367 22338.3132,7905.7221 22982.7319,7323.61316 C23470.9285,6882.62097 23878.8906,6513.57119 24809.8592,5671.01713 C25622.985,4935.11425 26043.1226,4555.00749 26459.6007,4178.67875 L26488.6563,4152.42496 C26546.7751,4099.91192 26604.999,4047.31306 26664.3856,3993.67202 C27317.6394,3403.61979 27850.2611,2923.88986 28300.1309,2520.66723 C29360.7007,1570.06835 29946.8225,1057.91945 30039.0347,1005.61959 L30038.9969,1005.65438 C30037.6921,999.934157 30040.7509,993.974269 30046.3862,991.802642 C30052.5704,989.419537 30059.5155,992.500875 30061.8986,998.685005 Z M30047.8246,995.535095 C30043.7018,997.123832 30041.6476,1001.75391 30043.2363,1005.87666 C30044.8251,1009.99942 30049.4551,1012.05364 30053.5779,1010.46491 C30057.7006,1008.87617 30059.7549,1004.24609 30058.1661,1000.12334 C30056.5774,996.000584 30051.9473,993.946358 30047.8246,995.535095 Z"></path>
        </g>
    </g>
</svg>