<svg fill="none" height="424" viewBox="0 0 600 424" width="600" xmlns="http://www.w3.org/2000/svg" xmlns:xlink="http://www.w3.org/1999/xlink"><mask id="a" height="389" maskUnits="userSpaceOnUse" width="248" x="28" y="35"><path d="m28.7686 35h247.231v389h-247.231z" fill="#fff"/></mask><mask id="b" height="362" maskUnits="userSpaceOnUse" width="250" x="306" y="62"><path d="m306 62h249.398v362h-249.398z" fill="#fff"/></mask><g mask="url(#a)"><path clip-rule="evenodd" d="m236.492 111.305c-10.103-39.4892-69.556-38.7778-69.556-38.7778v.0003c-.461-.0049-59.49-.5571-69.5531 38.7775-5.6628 22.134-.4755 49.326 4.6651 76.272 4.03 21.128 8.032 42.104 6.751 60.372-.133 1.892-.277 3.928-.43 6.095-3.209 45.441-10.4973 148.657-5.161 196.453 5.591 50.076 18.822 76.774 34.284 89.868 14.863 12.588 24.231 12.543 28.905 12.521.155-.001.305-.002.449-.002.03.044.06.066.09.066.155 0 .316.001.484.002 4.654.017 14.038.053 28.963-12.587 15.461-13.094 28.693-40.044 34.284-89.868 5.343-47.623-1.973-151.28-5.175-196.642-.148-2.097-.287-4.07-.416-5.907-1.281-18.267 2.72-39.244 6.751-60.372 5.14-26.945 10.327-54.137 4.665-76.271z" fill="#645e5e" fill-rule="evenodd"/><path clip-rule="evenodd" d="m116.046 93.0184c-.498 0-.882-.1349-1.151-.4046-.27-.2697-.421-.6058-.455-1.0083h.679c.045.2407.15.4264.314.5571s.373.196.626.196c.224 0 .402-.0508.535-.1524.133-.1017.199-.2355.199-.4015 0-.1618-.049-.2936-.146-.3952-.098-.1017-.254-.1795-.47-.2334l-.772-.1867c-.286-.0664-.507-.2085-.663-.4264-.155-.2178-.233-.4823-.233-.7935 0-.4191.138-.7293.414-.9305.276-.2013.607-.3019.993-.3019.435 0 .779.1141 1.03.3423s.403.5228.457.8838h-.678c-.042-.1784-.133-.3174-.274-.417s-.318-.1493-.529-.1493c-.258 0-.444.0539-.56.1618-.117.1079-.175.2448-.175.4108 0 .1659.047.2956.14.389.094.0933.211.1566.352.1898l.747.1805c.344.083.605.2313.781.445s.265.4948.265.8434c0 .3485-.125.6358-.374.862-.249.2261-.599.3392-1.052.3392zm4.707-3.7589h-1.226v3.6971h-.666v-3.6971h-1.227v-.6597h3.119zm.387-.6597v4.3568h1.787c.431 0 .762-.1131.992-.3392.231-.2262.346-.5322.346-.9181 0-.1908-.043-.3724-.128-.5446s-.221-.3143-.407-.4263c.141-.0996.247-.2262.32-.3797s.109-.3216.109-.5041c0-.3735-.115-.6743-.345-.9025-.231-.2282-.562-.3423-.993-.3423zm1.681.6593h-1.015v1.1701h1.015c.203 0 .364-.0498.482-.1494.119-.0996.178-.2448.178-.4357 0-.1908-.059-.3361-.178-.4356-.118-.0996-.279-.1494-.482-.1494zm-1.015 1.8302h1.121c.203 0 .364.0508.482.1525.118.1016.177.252.177.4512s-.059.3496-.177.4512c-.118.1017-.279.1525-.482.1525h-1.121z" fill="#fff" fill-rule="evenodd"/><circle cx="120.536" cy="101.033" fill="#d8d8d8" r="5.31672"/><circle cx="120.537" cy="101.032" fill="#464646" r="2.65836"/><circle cx="141.803" cy="93.2982" fill="#d8d8d8" r="5.31672"/><circle cx="141.804" cy="93.299" fill="#464646" r="2.65836"/><circle cx="166.937" cy="90.3984" fill="#d8d8d8" r="8.21675"/><circle cx="132.137" cy="232.499" fill="#d8d8d8" r="5.31672"/><circle cx="202.704" cy="232.499" fill="#d8d8d8" r="5.31672"/><circle cx="205.605" cy="305.967" fill="#d8d8d8" r="5.31672"/><circle cx="186.271" cy="318.534" fill="#eb7065" r="5.31672"/><path clip-rule="evenodd" d="m149.678 313.31 5.18 10.83-10.734-.187z" fill="#ffe47b" fill-rule="evenodd"/><circle cx="132.137" cy="307.901" fill="#d8d8d8" r="5.31672"/><circle cx="166.937" cy="154.199" fill="#ffe47b" r="8.21675"/><g fill="#2c2828"><circle cx="132.137" cy="198.667" r="8.21675"/><circle cx="202.704" cy="198.667" r="8.21675"/><circle cx="211.404" cy="132.933" r="8.21675"/><ellipse cx="181.637" cy="124.232" rx="8.01773" ry="8.21675"/><ellipse cx="152.238" cy="124.232" rx="8.01773" ry="8.21675"/><path clip-rule="evenodd" d="m154.345 121.25c.08-2.193 2.722-3.523 4.733-2.646 2.085.91 4.695 1.69 7.409 1.609 2.882-.087 5.759-.859 8.023-1.665 1.995-.712 4.301.804 4.184 2.919l-.303 5.45c-.114 2.064-2.526 3.412-4.508 2.824-2.094-.62-4.878-1.121-8.155-.943-2.456.133-4.571.633-6.305 1.244-2.238.79-5.367-.94-5.28-3.312z" fill-rule="evenodd"/><ellipse cx="181.637" cy="181.266" rx="8.01773" ry="8.21675"/><ellipse cx="152.238" cy="181.266" rx="8.01773" ry="8.21675"/><path clip-rule="evenodd" d="m154.345 178.284c.08-2.193 2.722-3.524 4.733-2.646 2.085.909 4.695 1.689 7.409 1.608 2.882-.086 5.759-.858 8.023-1.665 1.995-.712 4.301.804 4.184 2.919l-.303 5.45c-.114 2.064-2.526 3.412-4.508 2.825-2.094-.621-4.878-1.122-8.155-.944-2.456.133-4.571.633-6.305 1.244-2.238.79-5.367-.94-5.28-3.312z" fill-rule="evenodd"/><ellipse cx="208.602" cy="335.681" rx="8.05164" ry="8.05324" transform="matrix(.12186934 -.99254615 .99254615 .12186934 -149.999074 501.818889)"/><ellipse cx="205.005" cy="364.984" rx="8.05164" ry="8.05324" transform="matrix(.12186934 -.99254615 .99254615 .12186934 -182.242289 523.980563)"/><path clip-rule="evenodd" d="m202.385 362.532c-2.151-.347-3.151-3.094-2.054-4.977 1.153-1.978 2.252-4.51 2.507-7.254.271-2.903-.135-5.884-.649-8.245-.447-2.06 1.335-4.139 3.409-3.763l5.193.939c2.02.366 3.061 2.888 2.249 4.773-.869 2.02-1.713 4.756-1.943 8.079-.174 2.503.063 4.7.457 6.518.5 2.306-1.586 5.153-3.915 4.777z" fill-rule="evenodd"/><ellipse rx="8.05164" ry="8.05324" transform="matrix(-.121869 -.992546 -.992546 .121869 124.47 335.681)"/><ellipse rx="8.05164" ry="8.05324" transform="matrix(-.121869 -.992546 -.992546 .121869 128.067 364.984)"/><path clip-rule="evenodd" d="m130.687 362.532c2.151-.347 3.151-3.094 2.054-4.977-1.153-1.978-2.252-4.51-2.507-7.254-.271-2.903.136-5.884.649-8.245.448-2.06-1.335-4.139-3.409-3.763l-5.193.939c-2.019.366-3.06 2.888-2.249 4.773.87 2.02 1.713 4.756 1.943 8.079.174 2.503-.063 4.7-.457 6.518-.499 2.306 1.586 5.153 3.916 4.777z" fill-rule="evenodd"/><circle cx="120.537" cy="132.933" r="8.21675"/><circle cx="134.07" cy="154.199" r="8.21675"/><circle cx="200.77" cy="154.199" r="8.21675"/></g><circle cx="166.938" cy="270.199" fill="#d8d8d8" r="14.0168"/><ellipse cx="135.271" cy="390.498" fill="#d8d8d8" rx="9.41762" ry="6.71303"/><ellipse cx="169.354" cy="390.497" fill="#d8d8d8" rx="9.41762" ry="6.71303"/><ellipse cx="203.436" cy="390.497" fill="#d8d8d8" rx="9.41762" ry="6.71303"/><ellipse cx="135.271" cy="418.244" fill="#d8d8d8" rx="9.41762" ry="6.71303"/><ellipse cx="169.354" cy="418.244" fill="#d8d8d8" rx="9.41762" ry="6.71303"/><ellipse cx="203.436" cy="418.244" fill="#d8d8d8" rx="9.41762" ry="6.71303"/><circle fill="#d8d8d8" r="5.31672" transform="matrix(-1 0 0 1 215.271 101.033)"/><circle fill="#464646" r="2.65836" transform="matrix(-1 0 0 1 215.271 101.032)"/><circle fill="#d8d8d8" r="5.31672" transform="matrix(-1 0 0 1 194.971 93.2982)"/><circle fill="#464646" r="2.65836" transform="matrix(-1 0 0 1 194.971 93.299)"/><path clip-rule="evenodd" d="m147.806 244.905 6.875 8.233s.44.455 1.145.455 1.28-.455 1.28-.455 3.945-2.808 9.931-2.808 9.046 2.808 9.046 2.808.524.455 1.088.455c.565 0 1.099-.455 1.099-.455l8.107-8.418s.395-.399.395-1.108c0-.71-.395-1.078-.395-1.078s-9.533-6.651-19.34-6.651-16.496 3.837-18.454 6.153c-.351.416-.718.732-.945 1.422-.269.818.168 1.447.168 1.447z" fill="#d8d8d8" fill-rule="evenodd"/><path clip-rule="evenodd" d="m192.411 251.103-8.242 6.867s-.456.44-.456 1.144.456 1.278.456 1.278 2.81 3.941 2.81 9.921c0 5.979-2.81 9.036-2.81 9.036s-.456.523-.456 1.087.456 1.097.456 1.097l8.426 8.099s.4.394 1.11.394 1.079-.394 1.079-.394 6.658-9.523 6.658-19.319c0-9.797-3.841-16.478-6.159-18.434-.417-.351-.733-.718-1.424-.945-.819-.268-1.448.169-1.448.169z" fill="#d8d8d8" fill-rule="evenodd"/><path clip-rule="evenodd" d="m185.538 295.038-6.874-8.232s-.44-.455-1.145-.455-1.28.455-1.28.455-3.945 2.807-9.931 2.807-9.046-2.807-9.046-2.807-.524-.455-1.089-.455c-.564 0-1.098.455-1.098.455l-8.107 8.417s-.395.4-.395 1.109.395 1.077.395 1.077 9.533 6.652 19.34 6.652 16.496-3.838 18.453-6.153c.352-.416.719-.732.946-1.422.269-.819-.169-1.448-.169-1.448z" fill="#d8d8d8" fill-rule="evenodd"/><path clip-rule="evenodd" d="m141.699 288.853 8.241-6.867s.456-.44.456-1.144-.456-1.278-.456-1.278-2.81-3.941-2.81-9.921c0-5.979 2.81-9.036 2.81-9.036s.456-.523.456-1.087-.456-1.097-.456-1.097l-8.426-8.099s-.4-.394-1.11-.394-1.078.394-1.078.394-6.659 9.523-6.659 19.319c0 9.797 3.841 16.478 6.16 18.434.416.351.732.718 1.423.945.819.268 1.449-.169 1.449-.169z" fill="#d8d8d8" fill-rule="evenodd"/><rect fill="#d8d8d8" height="13.5335" rx="2.7" width="24.1669" x="154.854" y="206.883"/><rect fill="#5b8fc9" height="10.6334" rx=".9" width="12.5668" x="160.654" y="316.117"/><path clip-rule="evenodd" d="m151.954 343.077c0-2.728 2.409-4.845 5.127-4.606 2.753.243 6.305.473 9.857.473 3.551 0 7.103-.23 9.856-.473 2.718-.239 5.127 1.878 5.127 4.606v1.889c0 2.234-1.637 4.124-3.86 4.355-2.874.298-6.999.63-11.123.63-4.125 0-8.25-.332-11.124-.63-2.222-.231-3.86-2.121-3.86-4.355z" fill="#d8d8d8" fill-rule="evenodd"/><rect fill="#d8d8d8" height="10.6334" rx="2.7" width="16.4335" x="145.187" y="361.552"/><rect fill="#d8d8d8" height="10.6334" rx="2.7" width="16.4335" x="172.254" y="361.552"/><path clip-rule="evenodd" d="m236.492 111.304c-10.103-39.4892-69.556-38.7777-69.556-38.7777v.0002c-.248-.0026-17.464-.1638-34.88 5.8218 11.698 4.7611 19.944 16.2431 19.944 29.6507 0 17.674-14.327 32-32 32-10.098 0-19.104-4.677-24.9689-11.984-.8275 18.442 3.1081 39.072 7.0169 59.561 4.03 21.128 8.032 42.104 6.751 60.372-.133 1.89-.276 3.924-.429 6.089v.002l-.001.004c-3.209 45.441-10.4973 148.657-5.161 196.453 5.591 50.076 18.822 76.774 34.284 89.868 14.863 12.588 24.231 12.543 28.905 12.521h.022c.147-.001.289-.002.427-.002.03.044.06.066.09.066.155 0 .316.001.484.002 4.654.017 14.038.053 28.963-12.587 15.461-13.094 28.693-40.044 34.284-89.868 5.343-47.623-1.973-151.28-5.175-196.642l-.003-.042-.001-.014c-.147-2.077-.285-4.03-.412-5.851-1.281-18.267 2.72-39.243 6.751-60.372 5.14-26.945 10.327-54.137 4.665-76.271zm-68.115 186.487c15.038 0 27.23-12.192 27.23-27.23 0-15.039-12.192-27.23-27.23-27.23-15.039 0-27.23 12.191-27.23 27.23 0 15.038 12.191 27.23 27.23 27.23z" fill="#f5f5f5" fill-rule="evenodd" opacity=".5"/><path clip-rule="evenodd" d="m92.5787 68.1248c-10.678-1.9805-20.8544-3.8686-32.0731-5.9489 3.3536-2.1778 5.9477-3.8625 9.1464-5.9397-13.2758-6.9379-26.1311-6.8807-39.4996-.8033 9.1096-12.884 27.1698-16.3582 49.3058-9.6643 1.6343-2.7566 3.3198-5.5995 5.4339-9.1643 1.4371 5.8153 2.713 10.9289 3.9611 16.049 1.2251 5.0229 2.4228 10.0545 3.7255 15.4715" fill="#00c0d2" fill-rule="evenodd"/><path clip-rule="evenodd" d="m211.751 257.019c10.678-1.98 20.855-3.868 32.074-5.949-3.354-2.177-5.948-3.862-9.147-5.939 13.276-6.938 26.131-6.881 39.5-.804-9.11-12.884-27.17-16.358-49.306-9.664-1.634-2.756-3.32-5.599-5.434-9.164-1.437 5.815-2.713 10.929-3.961 16.049-1.225 5.023-2.423 10.054-3.726 15.471" fill="#00c0d2" fill-rule="evenodd"/><circle cx="121.361" cy="107.79" r="31.7921" stroke="#00c0d2" stroke-width="5.4"/><circle cx="167.079" cy="270.129" r="27.6622" stroke="#00c0d2" stroke-width="5.4"/><path d="m166.098 271.453v-2.095c0-1.608-.996-2.687-2.738-2.687-1.743 0-2.739 1.079-2.739 2.687v2.095c0 1.608.996 2.687 2.739 2.687 1.742 0 2.738-1.079 2.738-2.687zm-1.39 0c0 .84-.591 1.307-1.348 1.307-.758 0-1.349-.467-1.349-1.307v-2.095c0-.841.591-1.307 1.349-1.307.757 0 1.348.466 1.348 1.307z" fill="#645e5e"/><path d="m168.642 271.982.933-1.089 2.065 3.143h1.701l-2.811-4.263 2.552-2.998h-1.774l-2.666 3.132v-3.132h-1.411v7.261h1.411z" fill="#645e5e"/></g><g mask="url(#b)"><path clip-rule="evenodd" d="m335.86 130.152c13.973-54.6142 96.197-53.6303 96.197-53.6303v.0006c.672-.0071 82.277-.759 96.192 53.6307 7.832 30.611.658 68.218-6.451 105.484-5.574 29.22-11.108 58.231-9.337 83.495.178 2.54.371 5.268.575 8.168 4.429 62.736 14.548 206.096 7.157 271.959-7.732 68.908-26.032 106.18-47.415 124.289-20.641 17.481-33.619 17.432-40.056 17.407-.232 0-.455-.001-.669-.001-.042 0-.084-.031-.125-.093-.2.001-.406.002-.62.003-6.465.031-19.42.092-39.976-17.316-21.384-18.11-39.683-55.034-47.415-124.29-7.381-66.102 2.7-208.851 7.138-271.696.211-2.998.41-5.814.594-8.431 1.771-25.264-3.763-54.274-9.337-83.495-7.109-37.266-14.283-74.873-6.452-105.484z" fill="#645e5e" fill-rule="evenodd"/><path clip-rule="evenodd" d="m361.671 104.863c-.689 0-1.219-.187-1.592-.56s-.583-.838-.629-1.394h.938c.064.333.208.589.435.77s.515.271.865.271c.31 0 .557-.07.741-.211.183-.14.275-.325.275-.555 0-.224-.067-.406-.202-.546-.135-.141-.352-.249-.65-.323l-1.068-.258c-.396-.092-.701-.289-.916-.59-.216-.301-.323-.667-.323-1.098 0-.5792.191-1.0082.572-1.2865.382-.2783.84-.4175 1.373-.4175.603 0 1.078.1578 1.425.4735.347.3156.558.723.633 1.2225h-.939c-.057-.247-.183-.4392-.378-.5769-.196-.1378-.439-.2066-.732-.2066-.356 0-.614.0746-.775.2238s-.241.3387-.241.5677c0 .23.065.409.194.538.129.13.291.217.486.263l1.033.25c.476.114.837.319 1.08.615.244.296.366.684.366 1.166s-.172.88-.516 1.193c-.345.312-.829.469-1.455.469zm6.509-5.2004h-1.696v5.1134h-.921v-5.1134h-1.695v-.9124h4.312zm.536-.9124v6.0258h2.47c.597 0 1.055-.157 1.373-.469.319-.313.478-.736.478-1.27 0-.264-.059-.515-.176-.753-.118-.238-.306-.435-.564-.59.195-.138.343-.313.443-.525s.151-.445.151-.697c0-.5167-.16-.9328-.478-1.2484-.319-.3156-.776-.4734-1.373-.4734zm2.324.9124h-1.403v1.6184h1.403c.282 0 .504-.069.668-.207.163-.137.245-.338.245-.602s-.082-.465-.245-.6028c-.164-.1377-.386-.2066-.668-.2066zm-1.403 2.5314h1.55c.281 0 .503.071.667.211.163.141.245.349.245.624 0 .276-.082.484-.245.624-.164.141-.386.211-.667.211h-1.55z" fill="#fff" fill-rule="evenodd"/><path d="m395.806 88.8896v-.9052h-4.203v.9052h1.652v5.0725h.898v-5.0725z" fill="#fff"/><path d="m399.111 93.9621h-.922l-2.056-5.9777h.923l1.594 4.6626 1.594-4.6626h.923z" fill="#fff"/><path d="m465.41 93.9621c1.239 0 2.074-.8198 2.074-2.1093v-1.7592c0-1.2894-.835-2.1092-2.074-2.1092h-2.074v5.9777zm-1.19-.9052v-4.1673h1.19c.578 0 1.19.3842 1.19 1.2211v1.725c0 .8369-.612 1.2212-1.19 1.2212z" fill="#fff"/><path d="m470.831 93.9621h-.909l-2.024-5.9777h.909l1.57 4.6626 1.57-4.6626h.908z" fill="#fff"/><path d="m475.609 93.9621c1.239 0 2.073-.8198 2.073-2.1093v-1.7592c0-1.2894-.834-2.1092-2.073-2.1092h-2.074v5.9777zm-1.19-.9052v-4.1673h1.19c.578 0 1.189.3842 1.189 1.2211v1.725c0 .8369-.611 1.2212-1.189 1.2212z" fill="#fff"/><path d="m494.996 104.639h.935l-2.082-5.8939h-.934l-2.082 5.8939h.935l.501-1.423h2.226zm-2.438-2.257.824-2.34.824 2.34z" fill="#fff"/><path d="m499.817 102.643c0 .825-.628 1.187-1.223 1.187s-1.223-.362-1.223-1.187v-3.8979h-.91v3.8979c0 1.272.859 2.08 2.133 2.08s2.132-.808 2.132-2.08v-3.8979h-.909z" fill="#fff"/><path d="m503.877 102.231-1.478 2.408h-1.02l1.886-3.048-1.758-2.8459h1.019l1.351 2.1979 1.351-2.1979h1.02l-1.759 2.8459 1.886 3.048h-1.02z" fill="#fff"/><circle cx="367.881" cy="115.945" fill="#ff4d4d" r="7.3531"/><circle cx="367.882" cy="115.944" fill="#464646" r="3.67655"/><circle cx="397.294" cy="105.249" fill="#ff4d4d" r="7.3531"/><circle cx="397.293" cy="105.25" fill="#464646" r="3.67655"/><circle cx="432.054" cy="101.238" fill="#d8d8d8" r="11.3639"/><circle cx="383.925" cy="297.767" fill="#d8d8d8" r="7.3531"/><circle cx="481.52" cy="297.767" fill="#d8d8d8" r="7.3531"/><circle cx="485.532" cy="399.373" fill="#d8d8d8" r="7.3531"/><circle cx="458.793" cy="416.753" fill="#eb7065" r="7.3531"/><path clip-rule="evenodd" d="m408.184 409.529 7.164 14.978-14.845-.26z" fill="#ffe47b" fill-rule="evenodd"/><circle cx="383.925" cy="402.046" fill="#d8d8d8" r="7.3531"/><circle cx="432.054" cy="189.475" fill="#ffe47b" r="11.3639"/><g fill="#2c2828"><circle cx="383.924" cy="250.974" r="11.3639"/><circle cx="481.519" cy="250.974" r="11.3639"/><circle cx="493.552" cy="160.063" r="11.3639"/><ellipse cx="452.385" cy="148.031" rx="11.0886" ry="11.3639"/><ellipse cx="411.726" cy="148.031" rx="11.0886" ry="11.3639"/><path clip-rule="evenodd" d="m414.713 141.9c.081-2.193 2.704-3.505 4.66-2.511 3.095 1.574 7.47 3.219 12.06 3.081 4.77-.143 9.529-1.644 12.838-2.96 1.968-.784 4.265.721 4.147 2.836l-.62 11.165c-.115 2.064-2.506 3.387-4.451 2.688-3.007-1.079-7.487-2.153-12.965-1.856-4.538.246-8.234 1.397-10.956 2.614-2.168.968-5.241-.69-5.154-3.063z" fill-rule="evenodd"/><ellipse cx="452.385" cy="226.909" rx="11.0886" ry="11.3639"/><ellipse cx="411.726" cy="226.909" rx="11.0886" ry="11.3639"/><path clip-rule="evenodd" d="m414.713 220.779c.081-2.193 2.704-3.505 4.66-2.511 3.095 1.574 7.47 3.219 12.06 3.081 4.77-.143 9.529-1.644 12.838-2.961 1.968-.783 4.265.722 4.147 2.837l-.62 11.165c-.115 2.064-2.506 3.387-4.451 2.688-3.007-1.079-7.487-2.153-12.965-1.856-4.538.246-8.234 1.397-10.956 2.614-2.168.968-5.241-.691-5.154-3.063z" fill-rule="evenodd"/><circle cx="367.882" cy="160.063" r="11.3639"/><circle cx="386.599" cy="189.475" r="11.3639"/><circle cx="478.847" cy="189.475" r="11.3639"/></g><circle cx="432.054" cy="349.907" fill="#d8d8d8" r="19.3854"/><circle fill="#ff4d4d" r="7.3531" transform="matrix(-1 0 0 1 498.901 115.945)"/><circle fill="#464646" r="3.67655" transform="matrix(-1 0 0 1 498.9 115.944)"/><circle fill="#ff4d4d" r="7.3531" transform="matrix(-1 0 0 1 470.826 105.249)"/><circle fill="#464646" r="3.67655" transform="matrix(-1 0 0 1 470.825 105.25)"/><path clip-rule="evenodd" d="m405.595 314.924 9.507 11.386s.609.629 1.584.629 1.77-.629 1.77-.629 5.456-3.883 13.735-3.883 12.511 3.883 12.511 3.883.724.629 1.505.629 1.519-.629 1.519-.629l11.213-11.642s.546-.552.546-1.533c0-.98-.546-1.489-.546-1.489s-13.185-9.2-26.748-9.2c-13.564 0-22.814 5.307-25.522 8.51-.486.575-.994 1.012-1.308 1.967-.372 1.131.234 2.001.234 2.001z" fill="#d8d8d8" fill-rule="evenodd"/><path clip-rule="evenodd" d="m467.281 323.495-11.398 9.497s-.63.608-.63 1.582.63 1.768.63 1.768 3.887 5.45 3.887 13.72-3.887 12.497-3.887 12.497-.63.724-.63 1.504.63 1.517.63 1.517l11.654 11.201s.553.545 1.535.545 1.491-.545 1.491-.545 9.209-13.17 9.209-26.719-5.312-22.789-8.518-25.494c-.576-.486-1.014-.993-1.969-1.306-1.133-.372-2.004.233-2.004.233z" fill="#d8d8d8" fill-rule="evenodd"/><path clip-rule="evenodd" d="m457.778 384.26-9.507-11.386s-.609-.629-1.584-.629-1.77.629-1.77.629-5.456 3.882-13.735 3.882-12.511-3.882-12.511-3.882-.724-.629-1.505-.629-1.519.629-1.519.629l-11.213 11.641s-.546.553-.546 1.533c0 .981.546 1.49.546 1.49s13.185 9.199 26.748 9.199c13.564 0 22.814-5.306 25.522-8.509.486-.576.994-1.012 1.308-1.967.372-1.132-.234-2.001-.234-2.001z" fill="#d8d8d8" fill-rule="evenodd"/><path clip-rule="evenodd" d="m397.147 375.704 11.399-9.497s.63-.608.63-1.582c0-.973-.63-1.768-.63-1.768s-3.887-5.45-3.887-13.72 3.887-12.497 3.887-12.497.63-.723.63-1.504c0-.78-.63-1.517-.63-1.517l-11.654-11.201s-.554-.545-1.535-.545c-.982 0-1.492.545-1.492.545s-9.209 13.17-9.209 26.719 5.313 22.789 8.519 25.494c.576.486 1.013.993 1.969 1.307 1.133.371 2.003-.234 2.003-.234z" fill="#d8d8d8" fill-rule="evenodd"/><rect fill="#d8d8d8" height="18.717" rx="2.7" width="33.4232" x="415.343" y="262.338"/><rect fill="#5b8fc9" height="14.7062" rx=".9" width="17.38" x="423.364" y="413.412"/><path clip-rule="evenodd" d="m529.251 134.491c-20.773 12.345-56.794 20.509-97.751 20.509-40.313 0-75.844-7.909-96.759-19.929-5.953 29.673.838 65.272 7.571 100.565 5.574 29.221 11.108 58.231 9.337 83.495-.184 2.617-.383 5.433-.594 8.43v.001c-4.438 62.845-14.519 205.594-7.138 271.696 7.732 69.256 26.031 106.18 47.415 124.29 20.556 17.408 33.511 17.347 39.976 17.316l.075-.001c.187-.001.369-.001.545-.002.041.062.083.093.125.093.214 0 .437.001.669.001 6.437.025 19.415.074 40.056-17.407 21.383-18.109 39.683-55.381 47.415-124.289 7.391-65.863-2.728-209.222-7.157-271.958v-.001c-.204-2.9-.397-5.628-.575-8.168-1.771-25.264 3.763-54.275 9.337-83.495 6.777-35.524 13.612-71.357 7.453-101.146z" fill="#f5f5f5" fill-rule="evenodd" opacity=".5"/><ellipse cx="431.057" cy="110.102" rx="115.967" ry="43.6371" stroke="#00c0d2" stroke-width="5.4"/></g><g fill="#00bcce"><path d="m313 56.7268v.2943h2.845v-.2408c0-2.0873 1.219-3.0775 2.981-3.0775 1.761 0 2.98.9366 2.98 2.8634 0 1.3915-.731 2.462-2.005 3.7732l-6.801 6.9578v2.7028h11.651v-2.7028h-7.776l5.067-5.1916c1.842-1.8732 2.709-3.345 2.709-5.5929 0-4.362-3.387-5.5127-5.825-5.5127-2.439 0-5.826 1.1775-5.826 5.7268z"/><path d="m332.578 65.0493-3.278 4.9507h-3.143l4.741-7.0915-4.525-6.717h3.143l3.062 4.6029 3.062-4.6029h3.143l-4.525 6.717 4.742 7.0915h-3.143z"/></g></svg>