<svg width="600" height="334" viewBox="0 0 600 334" fill="none" xmlns="http://www.w3.org/2000/svg">
<g id="Group 3">
<rect id="Mask" width="599.549" height="333.083" fill="#D8D8D8" fill-opacity="0.01"/>
<mask id="mask0" mask-type="alpha" maskUnits="userSpaceOnUse" x="0" y="0" width="600" height="334">
<rect id="Mask_2" width="599.549" height="333.083" fill="white"/>
</mask>
<g mask="url(#mask0)">
<g id="Group">
<g id="Group 42">
<g id="Group Copy">
<path id="Rectangle Copy 2" fill-rule="evenodd" clip-rule="evenodd" d="M86.389 227.086C87.4479 226.165 88.8757 225.791 90.25 226.075L94.7181 226.996C98.8599 227.85 99.6433 233.428 95.897 235.39L60.6391 253.855C60.399 253.98 60.132 254.046 59.8609 254.046C58.3095 254.046 57.5896 252.121 58.7605 251.103L86.389 227.086Z" fill="#929292"/>
<path id="Rectangle Copy 3" fill-rule="evenodd" clip-rule="evenodd" d="M191.843 225.213C190.784 224.292 189.356 223.918 187.982 224.202L183.514 225.123C179.372 225.977 178.589 231.555 182.335 233.517L217.593 251.982C217.833 252.107 218.1 252.173 218.371 252.173C219.923 252.173 220.643 250.248 219.472 249.23L191.843 225.213Z" fill="#929292"/>
<rect id="Rectangle" x="13.1398" y="88.2093" width="254.648" height="150.978" rx="4.05" fill="black" stroke="#979797" stroke-width="0.9"/>
<rect id="Rectangle Copy" x="14.901" y="89.8926" width="251.125" height="147.612" fill="url(#paint0_linear)"/>
</g>
<path id="TV" opacity="0.3" fill-rule="evenodd" clip-rule="evenodd" d="M116.144 139.821H134.016V130.205H88.5656V139.821H106.437V193.709H116.144V139.821ZM137.554 130.205L159.781 193.709H169.76L191.986 130.205H182.007L164.77 179.738L147.534 130.205H137.554Z" fill="white"/>
</g>
<g id="Group 36 Copy 2">
<g id="Group 33">
<path id="Fill 4" fill-rule="evenodd" clip-rule="evenodd" d="M224.04 244.96V248.503C224.04 252.074 226.173 254.56 228.226 254.56H257.643C259.696 254.56 260.52 252.074 260.52 248.503V244.96H224.04Z" fill="#2D2B2C"/>
<path id="Fill 6" fill-rule="evenodd" clip-rule="evenodd" d="M404.52 244.96V248.503C404.52 252.074 406.413 254.56 408.466 254.56H437.882C439.935 254.56 441 252.074 441 248.503V244.96H404.52Z" fill="#2D2B2C"/>
<g id="Group 10">
<mask id="mask1" mask-type="alpha" maskUnits="userSpaceOnUse" x="201" y="180" width="258" height="66">
<path id="Clip 9" fill-rule="evenodd" clip-rule="evenodd" d="M201 245.602V180.322L458.92 180.322V245.602H201Z" fill="white"/>
</mask>
<g mask="url(#mask1)">
<path id="Fill 8" fill-rule="evenodd" clip-rule="evenodd" d="M214.092 245.602C206.892 245.602 201 240.517 201 234.302V191.622C201 185.407 206.892 180.322 214.092 180.322H445.828C453.029 180.322 458.92 185.407 458.92 191.622V234.302C458.92 240.517 453.029 245.602 445.828 245.602H214.092Z" fill="#645E5E"/>
</g>
</g>
<g id="Group 34">
<g clip-path="url(#clip0)">
<g id="Group 2">
<path id="Fill 63" fill-rule="evenodd" clip-rule="evenodd" d="M414.31 217.172H405.807H397.303C396.635 217.172 396.09 217.719 396.09 218.386V221.385C396.09 222.053 396.635 222.599 397.303 222.599H398.55L398.723 222.865L398.737 222.888C398.737 222.888 399.462 223.904 399.707 223.904H401.996H405.807H409.617H411.906C412.151 223.904 412.877 222.888 412.877 222.888L412.89 222.865L413.064 222.599H414.31C414.978 222.599 415.524 222.053 415.524 221.385V218.386C415.524 217.719 414.978 217.172 414.31 217.172Z" fill="#0A0909"/>
<path id="Stroke 64" fill-rule="evenodd" clip-rule="evenodd" d="M414.31 217.172H405.807H397.303C396.635 217.172 396.09 217.719 396.09 218.386V221.385C396.09 222.053 396.635 222.599 397.303 222.599H398.55L398.723 222.865L398.737 222.888C398.737 222.888 399.462 223.904 399.707 223.904H401.996H405.807H409.617H411.906C412.151 223.904 412.877 222.888 412.877 222.888L412.89 222.865L413.064 222.599H414.31C414.978 222.599 415.524 222.053 415.524 221.385V218.386C415.524 217.719 414.978 217.172 414.31 217.172Z" stroke="#4A474B" stroke-width="0.64"/>
<path id="Fill 65" fill-rule="evenodd" clip-rule="evenodd" d="M401.575 220.431H402.496V219.105H401.575V220.431Z" fill="#BDBEC2"/>
<path id="Fill 66" fill-rule="evenodd" clip-rule="evenodd" d="M400.059 220.431H400.981V219.105H400.059V220.431Z" fill="#BDBEC2"/>
<path id="Fill 67" fill-rule="evenodd" clip-rule="evenodd" d="M403.09 220.431H404.012V219.105H403.09V220.431Z" fill="#BDBEC2"/>
<path id="Fill 68" fill-rule="evenodd" clip-rule="evenodd" d="M404.606 220.431H405.527V219.105H404.606V220.431Z" fill="#BDBEC2"/>
<path id="Fill 69" fill-rule="evenodd" clip-rule="evenodd" d="M407.601 220.431H408.523V219.105H407.601V220.431Z" fill="#BDBEC2"/>
<path id="Fill 70" fill-rule="evenodd" clip-rule="evenodd" d="M406.086 220.431H407.008V219.105H406.086V220.431Z" fill="#BDBEC2"/>
<path id="Fill 71" fill-rule="evenodd" clip-rule="evenodd" d="M409.117 220.431H410.039V219.105H409.117V220.431Z" fill="#BDBEC2"/>
<path id="Fill 72" fill-rule="evenodd" clip-rule="evenodd" d="M410.633 220.431H411.554V219.105H410.633V220.431Z" fill="#BDBEC2"/>
<path id="Fill 73" fill-rule="evenodd" clip-rule="evenodd" d="M400.06 221.049H411.554V220.042H400.06V221.049Z" fill="#5A5A5C"/>
<path id="Fill 74" fill-rule="evenodd" clip-rule="evenodd" d="M395.448 238.135H416.165V231.948H395.448V238.135Z" fill="#2D2B2C"/>
<path id="Fill 74 Copy" fill-rule="evenodd" clip-rule="evenodd" d="M371.88 238.135H392.597V231.948H371.88V238.135Z" fill="#2D2B2C"/>
</g>
<path id="HDMI" d="M402.141 234.661H400.851V233.344H400.372V236.48H400.851V235.136H402.141V236.48H402.62V233.344H402.141V234.661ZM404.41 236.48C404.577 236.48 404.729 236.455 404.867 236.404C405.004 236.353 405.122 236.28 405.221 236.184C405.322 236.086 405.4 235.968 405.454 235.83C405.507 235.693 405.534 235.541 405.534 235.373V234.451C405.534 234.283 405.507 234.131 405.454 233.994C405.4 233.856 405.322 233.74 405.221 233.644C405.122 233.546 405.004 233.471 404.867 233.42C404.729 233.369 404.577 233.344 404.41 233.344H403.285V236.48H404.41ZM403.765 236.005V233.819H404.41C404.49 233.819 404.568 233.832 404.643 233.859C404.72 233.886 404.791 233.926 404.853 233.98C404.916 234.031 404.965 234.098 405.001 234.182C405.037 234.262 405.055 234.355 405.055 234.46V235.364C405.055 235.469 405.037 235.563 405.001 235.647C404.965 235.727 404.916 235.795 404.853 235.848C404.791 235.899 404.72 235.938 404.643 235.965C404.568 235.992 404.49 236.005 404.41 236.005H403.765ZM407.42 235.078L406.582 233.344H406.103V236.48H406.578V234.303L407.223 235.638H407.617L408.262 234.303V236.48H408.737V233.344H408.258L407.42 235.078ZM411.005 233.819V233.344H409.334V233.819H409.93V236.005H409.334V236.48H411.005V236.005H410.41V233.819H411.005Z" fill="white"/>
<path id="optical" d="M374.037 235.418C374.037 235.585 374.064 235.738 374.118 235.875C374.172 236.013 374.248 236.131 374.347 236.229C374.448 236.325 374.568 236.398 374.705 236.449C374.842 236.499 374.995 236.525 375.162 236.525C375.329 236.525 375.481 236.499 375.619 236.449C375.756 236.398 375.874 236.325 375.973 236.229C376.074 236.131 376.152 236.013 376.206 235.875C376.26 235.738 376.286 235.585 376.286 235.418V234.406C376.286 234.238 376.26 234.086 376.206 233.949C376.152 233.811 376.074 233.695 375.973 233.599C375.874 233.501 375.756 233.426 375.619 233.375C375.481 233.325 375.329 233.299 375.162 233.299C374.995 233.299 374.842 233.325 374.705 233.375C374.568 233.426 374.448 233.501 374.347 233.599C374.248 233.695 374.172 233.811 374.118 233.949C374.064 234.086 374.037 234.238 374.037 234.406V235.418ZM375.807 235.418C375.807 235.523 375.789 235.615 375.753 235.696C375.717 235.777 375.668 235.844 375.605 235.898C375.543 235.948 375.473 235.987 375.395 236.014C375.32 236.038 375.243 236.05 375.162 236.05C375.081 236.05 375.002 236.038 374.924 236.014C374.85 235.987 374.781 235.948 374.718 235.898C374.656 235.844 374.606 235.777 374.571 235.696C374.535 235.615 374.517 235.523 374.517 235.418V234.406C374.517 234.301 374.535 234.209 374.571 234.128C374.606 234.047 374.656 233.982 374.718 233.931C374.781 233.877 374.85 233.838 374.924 233.814C375.002 233.788 375.081 233.774 375.162 233.774C375.243 233.774 375.32 233.788 375.395 233.814C375.473 233.838 375.543 233.877 375.605 233.931C375.668 233.982 375.717 234.047 375.753 234.128C375.789 234.209 375.807 234.301 375.807 234.406V235.418ZM377.337 235.396H378.049C378.225 235.396 378.38 235.369 378.515 235.315C378.649 235.261 378.76 235.188 378.846 235.096C378.933 235 378.997 234.891 379.039 234.769C379.084 234.643 379.106 234.51 379.106 234.37C379.106 234.23 379.084 234.098 379.039 233.976C378.997 233.85 378.933 233.741 378.846 233.649C378.76 233.553 378.649 233.478 378.515 233.425C378.38 233.371 378.225 233.344 378.049 233.344H376.857V236.48H377.337V235.396ZM378.049 233.81C378.147 233.81 378.233 233.825 378.304 233.855C378.376 233.882 378.434 233.92 378.479 233.971C378.527 234.022 378.561 234.082 378.582 234.15C378.606 234.216 378.618 234.288 378.618 234.365C378.618 234.443 378.606 234.516 378.582 234.585C378.561 234.651 378.527 234.709 378.479 234.76C378.434 234.81 378.376 234.851 378.304 234.881C378.233 234.908 378.147 234.921 378.049 234.921H377.337V233.81H378.049ZM381.488 233.819V233.344H379.243V233.819H380.126V236.48H380.605V233.819H381.488ZM383.457 233.819V233.344H381.786V233.819H382.382V236.005H381.786V236.48H383.457V236.005H382.861V233.819H383.457ZM386.134 235.508H385.655C385.646 235.597 385.621 235.677 385.579 235.745C385.54 235.814 385.491 235.871 385.431 235.916C385.371 235.96 385.306 235.995 385.234 236.019C385.162 236.039 385.089 236.05 385.014 236.05C384.934 236.05 384.855 236.038 384.777 236.014C384.702 235.987 384.634 235.948 384.571 235.898C384.508 235.844 384.459 235.777 384.423 235.696C384.387 235.615 384.369 235.523 384.369 235.418V234.406C384.369 234.301 384.387 234.209 384.423 234.128C384.459 234.047 384.508 233.982 384.571 233.931C384.634 233.877 384.702 233.838 384.777 233.814C384.855 233.788 384.934 233.774 385.014 233.774C385.089 233.774 385.162 233.786 385.234 233.81C385.306 233.831 385.371 233.864 385.431 233.908C385.491 233.953 385.54 234.01 385.579 234.079C385.621 234.147 385.646 234.227 385.655 234.316H386.134C386.125 234.161 386.093 234.02 386.036 233.895C385.979 233.77 385.901 233.662 385.803 233.572C385.704 233.483 385.588 233.416 385.453 233.371C385.319 233.323 385.173 233.299 385.014 233.299C384.847 233.299 384.695 233.325 384.557 233.375C384.42 233.426 384.301 233.501 384.199 233.599C384.101 233.695 384.024 233.811 383.971 233.949C383.917 234.086 383.89 234.238 383.89 234.406V235.418C383.89 235.585 383.917 235.738 383.971 235.875C384.024 236.013 384.101 236.131 384.199 236.229C384.301 236.325 384.42 236.398 384.557 236.449C384.695 236.499 384.847 236.525 385.014 236.525C385.173 236.525 385.318 236.501 385.449 236.453C385.583 236.405 385.7 236.338 385.798 236.252C385.897 236.162 385.975 236.054 386.031 235.929C386.091 235.804 386.125 235.663 386.134 235.508ZM387.249 235.279L387.684 234.034L388.118 235.279H387.249ZM388.535 236.48H389.028L387.93 233.344H387.437L386.34 236.48H386.832L387.097 235.723H388.27L388.535 236.48ZM389.396 236.48H391.246V236.005H389.875V233.344H389.396V236.48Z" fill="white"/>
</g>
</g>
<path id="Fill 11" fill-rule="evenodd" clip-rule="evenodd" d="M451.88 181.162V244.82C456.36 243.22 458.92 239.298 458.92 234.554V191.795C458.92 187.05 456.36 182.882 451.88 181.162Z" fill="#2D2B2C"/>
<g id="Group 28">
<g clip-path="url(#clip1)">
<g id="Group 19">
<path id="Fill 13" fill-rule="evenodd" clip-rule="evenodd" d="M331.487 211.658C330.694 211.658 330.047 212.337 330.047 213.173V227.823C330.047 228.658 330.694 229.338 331.487 229.338H366.847C367.64 229.338 368.287 228.658 368.287 227.823V213.173C368.287 212.337 367.64 211.658 366.847 211.658H331.487ZM366.847 230.417H331.487C330.127 230.417 329.021 229.253 329.021 227.823V213.173C329.021 211.742 330.127 210.578 331.487 210.578H366.847C368.206 210.578 369.313 211.742 369.313 213.173V227.823C369.313 229.253 368.206 230.417 366.847 230.417Z" fill="#808080"/>
<path id="Fill 15" fill-rule="evenodd" clip-rule="evenodd" d="M306.507 211.658C305.712 211.658 305.067 212.337 305.067 213.173V227.823C305.067 228.658 305.712 229.338 306.507 229.338H324.613C325.408 229.338 326.053 228.658 326.053 227.823V213.173C326.053 212.337 325.408 211.658 324.613 211.658H306.507ZM324.613 230.417H306.507C305.147 230.417 304.04 229.253 304.04 227.823V213.173C304.04 211.742 305.147 210.578 306.507 210.578H324.613C325.973 210.578 327.08 211.742 327.08 213.173V227.823C327.08 229.253 325.973 230.417 324.613 230.417Z" fill="#808080"/>
<path id="Fill 48" fill-rule="evenodd" clip-rule="evenodd" d="M364.142 221.045C364.142 224.666 361.207 227.601 357.586 227.601C353.966 227.601 351.031 224.666 351.031 221.045C351.031 217.425 353.966 214.49 357.586 214.49C361.207 214.49 364.142 217.425 364.142 221.045Z" fill="#4A474B"/>
<path id="Fill 49" fill-rule="evenodd" clip-rule="evenodd" d="M363.553 221.045C363.553 224.341 360.882 227.013 357.586 227.013C354.291 227.013 351.62 224.341 351.62 221.045C351.62 217.751 354.291 215.079 357.586 215.079C360.882 215.079 363.553 217.751 363.553 221.045Z" fill="#0A0909"/>
<path id="Fill 50" fill-rule="evenodd" clip-rule="evenodd" d="M361.734 221.045C361.734 223.337 359.877 225.194 357.587 225.194C355.295 225.194 353.438 223.337 353.438 221.045C353.438 218.755 355.295 216.897 357.587 216.897C359.877 216.897 361.734 218.755 361.734 221.045Z" fill="#F2F3F5"/>
<path id="Fill 51" fill-rule="evenodd" clip-rule="evenodd" d="M360.258 221.045C360.258 222.521 359.062 223.717 357.586 223.717C356.111 223.717 354.914 222.521 354.914 221.045C354.914 219.57 356.111 218.374 357.586 218.374C359.062 218.374 360.258 219.57 360.258 221.045Z" fill="#0A0909"/>
<path id="Fill 52" fill-rule="evenodd" clip-rule="evenodd" d="M346.841 221.045C346.841 224.666 343.906 227.601 340.286 227.601C336.665 227.601 333.73 224.666 333.73 221.045C333.73 217.425 336.665 214.49 340.286 214.49C343.906 214.49 346.841 217.425 346.841 221.045Z" fill="#4A474B"/>
<path id="Fill 53" fill-rule="evenodd" clip-rule="evenodd" d="M346.252 221.045C346.252 224.341 343.581 227.013 340.286 227.013C336.99 227.013 334.319 224.341 334.319 221.045C334.319 217.751 336.99 215.079 340.286 215.079C343.581 215.079 346.252 217.751 346.252 221.045Z" fill="#0A0909"/>
<path id="Fill 54" fill-rule="evenodd" clip-rule="evenodd" d="M344.434 221.045C344.434 223.337 342.577 225.194 340.286 225.194C337.994 225.194 336.138 223.337 336.138 221.045C336.138 218.755 337.994 216.897 340.286 216.897C342.577 216.897 344.434 218.755 344.434 221.045Z" fill="#F2F3F5"/>
<path id="Fill 55" fill-rule="evenodd" clip-rule="evenodd" d="M342.958 221.045C342.958 222.521 341.761 223.717 340.286 223.717C338.81 223.717 337.614 222.521 337.614 221.045C337.614 219.57 338.81 218.374 340.286 218.374C341.761 218.374 342.958 219.57 342.958 221.045Z" fill="#0A0909"/>
<path id="Fill 56" fill-rule="evenodd" clip-rule="evenodd" d="M322.116 221.045C322.116 224.666 319.181 227.601 315.56 227.601C311.94 227.601 309.005 224.666 309.005 221.045C309.005 217.425 311.94 214.49 315.56 214.49C319.181 214.49 322.116 217.425 322.116 221.045Z" fill="#4A474B"/>
<path id="Fill 57" fill-rule="evenodd" clip-rule="evenodd" d="M321.527 221.045C321.527 224.341 318.856 227.013 315.56 227.013C312.265 227.013 309.593 224.341 309.593 221.045C309.593 217.751 312.265 215.079 315.56 215.079C318.856 215.079 321.527 217.751 321.527 221.045Z" fill="#0A0909"/>
<path id="Fill 58" fill-rule="evenodd" clip-rule="evenodd" d="M319.708 221.045C319.708 223.337 317.851 225.194 315.56 225.194C313.269 225.194 311.412 223.337 311.412 221.045C311.412 218.755 313.269 216.897 315.56 216.897C317.851 216.897 319.708 218.755 319.708 221.045Z" fill="#F2F3F5"/>
<path id="Fill 59" fill-rule="evenodd" clip-rule="evenodd" d="M318.232 221.045C318.232 222.521 317.036 223.717 315.56 223.717C314.085 223.717 312.888 222.521 312.888 221.045C312.888 219.57 314.085 218.374 315.56 218.374C317.036 218.374 318.232 219.57 318.232 221.045Z" fill="#0A0909"/>
</g>
<g id="Group 19 Copy">
<path id="Fill 13_2" fill-rule="evenodd" clip-rule="evenodd" d="M331.487 190.361C330.694 190.361 330.047 191.041 330.047 191.876V206.527C330.047 207.362 330.694 208.041 331.487 208.041H366.847C367.64 208.041 368.287 207.362 368.287 206.527V191.876C368.287 191.041 367.64 190.361 366.847 190.361H331.487ZM366.847 209.121H331.487C330.127 209.121 329.021 207.957 329.021 206.527V191.876C329.021 190.446 330.127 189.282 331.487 189.282H366.847C368.206 189.282 369.313 190.446 369.313 191.876V206.527C369.313 207.957 368.206 209.121 366.847 209.121Z" fill="#808080"/>
<path id="Fill 15_2" fill-rule="evenodd" clip-rule="evenodd" d="M306.507 190.361C305.712 190.361 305.067 191.041 305.067 191.876V206.527C305.067 207.362 305.712 208.041 306.507 208.041H324.613C325.408 208.041 326.053 207.362 326.053 206.527V191.876C326.053 191.041 325.408 190.361 324.613 190.361H306.507ZM324.613 209.121H306.507C305.147 209.121 304.04 207.957 304.04 206.527V191.876C304.04 190.446 305.147 189.282 306.507 189.282H324.613C325.973 189.282 327.08 190.446 327.08 191.876V206.527C327.08 207.957 325.973 209.121 324.613 209.121Z" fill="#808080"/>
<path id="Fill 48_2" fill-rule="evenodd" clip-rule="evenodd" d="M364.142 199.749C364.142 203.369 361.207 206.304 357.586 206.304C353.966 206.304 351.031 203.369 351.031 199.749C351.031 196.129 353.966 193.193 357.586 193.193C361.207 193.193 364.142 196.129 364.142 199.749Z" fill="#4A474B"/>
<path id="Fill 49_2" fill-rule="evenodd" clip-rule="evenodd" d="M363.553 199.749C363.553 203.044 360.882 205.716 357.586 205.716C354.291 205.716 351.62 203.044 351.62 199.749C351.62 196.454 354.291 193.782 357.586 193.782C360.882 193.782 363.553 196.454 363.553 199.749Z" fill="#0A0909"/>
<path id="Fill 50_2" fill-rule="evenodd" clip-rule="evenodd" d="M361.734 199.749C361.734 202.04 359.877 203.897 357.587 203.897C355.295 203.897 353.438 202.04 353.438 199.749C353.438 197.458 355.295 195.601 357.587 195.601C359.877 195.601 361.734 197.458 361.734 199.749Z" fill="#F2F3F5"/>
<path id="Fill 51_2" fill-rule="evenodd" clip-rule="evenodd" d="M360.258 199.749C360.258 201.225 359.062 202.421 357.586 202.421C356.111 202.421 354.914 201.225 354.914 199.749C354.914 198.274 356.111 197.078 357.586 197.078C359.062 197.078 360.258 198.274 360.258 199.749Z" fill="#0A0909"/>
<path id="Fill 52_2" fill-rule="evenodd" clip-rule="evenodd" d="M346.841 199.749C346.841 203.369 343.906 206.304 340.286 206.304C336.665 206.304 333.73 203.369 333.73 199.749C333.73 196.129 336.665 193.193 340.286 193.193C343.906 193.193 346.841 196.129 346.841 199.749Z" fill="#4A474B"/>
<path id="Fill 53_2" fill-rule="evenodd" clip-rule="evenodd" d="M346.252 199.749C346.252 203.044 343.581 205.716 340.286 205.716C336.99 205.716 334.319 203.044 334.319 199.749C334.319 196.454 336.99 193.782 340.286 193.782C343.581 193.782 346.252 196.454 346.252 199.749Z" fill="#0A0909"/>
<path id="Fill 54_2" fill-rule="evenodd" clip-rule="evenodd" d="M344.434 199.749C344.434 202.04 342.577 203.897 340.286 203.897C337.994 203.897 336.138 202.04 336.138 199.749C336.138 197.458 337.994 195.601 340.286 195.601C342.577 195.601 344.434 197.458 344.434 199.749Z" fill="#F2F3F5"/>
<path id="Fill 55_2" fill-rule="evenodd" clip-rule="evenodd" d="M342.958 199.749C342.958 201.225 341.761 202.421 340.286 202.421C338.81 202.421 337.614 201.225 337.614 199.749C337.614 198.274 338.81 197.078 340.286 197.078C341.761 197.078 342.958 198.274 342.958 199.749Z" fill="#0A0909"/>
<g id="Group 29">
<path id="Fill 56_2" fill-rule="evenodd" clip-rule="evenodd" d="M322.116 199.749C322.116 203.369 319.181 206.304 315.56 206.304C311.94 206.304 309.005 203.369 309.005 199.749C309.005 196.129 311.94 193.193 315.56 193.193C319.181 193.193 322.116 196.129 322.116 199.749Z" fill="#4A474B"/>
<path id="Fill 57_2" fill-rule="evenodd" clip-rule="evenodd" d="M321.527 199.749C321.527 203.044 318.856 205.716 315.56 205.716C312.265 205.716 309.593 203.044 309.593 199.749C309.593 196.454 312.265 193.782 315.56 193.782C318.856 193.782 321.527 196.454 321.527 199.749Z" fill="#0A0909"/>
<path id="Fill 58_2" fill-rule="evenodd" clip-rule="evenodd" d="M319.708 199.749C319.708 202.04 317.851 203.897 315.56 203.897C313.269 203.897 311.412 202.04 311.412 199.749C311.412 197.458 313.269 195.601 315.56 195.601C317.851 195.601 319.708 197.458 319.708 199.749Z" fill="#F2F3F5"/>
<path id="Fill 59_2" fill-rule="evenodd" clip-rule="evenodd" d="M318.232 199.749C318.232 201.225 317.036 202.421 315.56 202.421C314.085 202.421 312.888 201.225 312.888 199.749C312.888 198.274 314.085 197.078 315.56 197.078C317.036 197.078 318.232 198.274 318.232 199.749Z" fill="#0A0909"/>
</g>
</g>
<path id="Fill 24" fill-rule="evenodd" clip-rule="evenodd" d="M304.996 238.575H367.758V232.389H304.996V238.575Z" fill="#2D2B2C"/>
<path id="Fill 24 Copy" fill-rule="evenodd" clip-rule="evenodd" d="M304.996 238.575H367.758V232.389H304.996V238.575Z" fill="#2D2B2C"/>
<path id="AV / OUT" d="M329.01 235.601L329.444 234.356L329.879 235.601H329.01ZM330.295 236.802H330.788L329.691 233.666H329.198L328.1 236.802H328.593L328.857 236.045H330.031L330.295 236.802ZM333.186 233.666H332.693L331.842 236.112L330.991 233.666H330.498L331.596 236.802H332.088L333.186 233.666ZM333.428 236.802H333.894L335.161 233.666H334.696L333.428 236.802ZM335.605 235.74C335.605 235.907 335.632 236.06 335.686 236.197C335.739 236.334 335.815 236.452 335.914 236.551C336.016 236.646 336.135 236.72 336.272 236.77C336.41 236.821 336.562 236.847 336.729 236.847C336.897 236.847 337.049 236.821 337.186 236.77C337.324 236.72 337.442 236.646 337.54 236.551C337.642 236.452 337.719 236.334 337.773 236.197C337.827 236.06 337.854 235.907 337.854 235.74V234.728C337.854 234.56 337.827 234.408 337.773 234.271C337.719 234.133 337.642 234.017 337.54 233.921C337.442 233.823 337.324 233.748 337.186 233.697C337.049 233.646 336.897 233.621 336.729 233.621C336.562 233.621 336.41 233.646 336.272 233.697C336.135 233.748 336.016 233.823 335.914 233.921C335.815 234.017 335.739 234.133 335.686 234.271C335.632 234.408 335.605 234.56 335.605 234.728V235.74ZM337.375 235.74C337.375 235.845 337.357 235.937 337.321 236.018C337.285 236.098 337.236 236.166 337.173 236.219C337.11 236.27 337.04 236.309 336.962 236.336C336.888 236.36 336.81 236.372 336.729 236.372C336.649 236.372 336.57 236.36 336.492 236.336C336.417 236.309 336.349 236.27 336.286 236.219C336.223 236.166 336.174 236.098 336.138 236.018C336.102 235.937 336.084 235.845 336.084 235.74V234.728C336.084 234.623 336.102 234.53 336.138 234.45C336.174 234.369 336.223 234.303 336.286 234.253C336.349 234.199 336.417 234.16 336.492 234.136C336.57 234.109 336.649 234.096 336.729 234.096C336.81 234.096 336.888 234.109 336.962 234.136C337.04 234.16 337.11 234.199 337.173 234.253C337.236 234.303 337.285 234.369 337.321 234.45C337.357 234.53 337.375 234.623 337.375 234.728V235.74ZM339.791 235.74C339.791 235.845 339.773 235.937 339.737 236.018C339.701 236.098 339.652 236.166 339.589 236.219C339.527 236.27 339.457 236.309 339.379 236.336C339.304 236.36 339.227 236.372 339.146 236.372C339.065 236.372 338.986 236.36 338.908 236.336C338.834 236.309 338.765 236.27 338.702 236.219C338.64 236.166 338.59 236.098 338.555 236.018C338.519 235.937 338.501 235.845 338.501 235.74V233.666H338.021V235.74C338.021 235.907 338.048 236.06 338.102 236.197C338.156 236.334 338.232 236.452 338.331 236.551C338.432 236.646 338.552 236.72 338.689 236.77C338.826 236.821 338.979 236.847 339.146 236.847C339.313 236.847 339.465 236.821 339.603 236.77C339.74 236.72 339.858 236.646 339.957 236.551C340.058 236.452 340.136 236.334 340.19 236.197C340.244 236.06 340.27 235.907 340.27 235.74V233.666H339.791V235.74ZM342.478 234.141V233.666H340.234V234.141H341.116V236.802H341.596V234.141H342.478Z" fill="white"/>
</g>
</g>
<g id="Group 20">
<path id="Fill 17" fill-rule="evenodd" clip-rule="evenodd" d="M242.507 203.162C241.713 203.162 241.067 203.841 241.067 204.677V219.327C241.067 220.162 241.713 220.842 242.507 220.842H260.613C261.408 220.842 262.053 220.162 262.053 219.327V204.677C262.053 203.841 261.408 203.162 260.613 203.162H242.507ZM260.613 221.921H242.507C241.147 221.921 240.04 220.757 240.04 219.327V204.677C240.04 203.246 241.147 202.082 242.507 202.082H260.613C261.973 202.082 263.08 203.246 263.08 204.677V219.327C263.08 220.757 261.973 221.921 260.613 221.921Z" fill="#808080"/>
<path id="Fill 28" fill-rule="evenodd" clip-rule="evenodd" d="M257.949 219.067H245.171C244.799 219.067 244.494 218.763 244.494 218.39V205.613C244.494 205.241 244.799 204.936 245.171 204.936H257.949C258.322 204.936 258.626 205.241 258.626 205.613V218.39C258.626 218.763 258.322 219.067 257.949 219.067Z" fill="#121212"/>
<path id="Fill 30" fill-rule="evenodd" clip-rule="evenodd" d="M245.172 205.181C244.934 205.181 244.74 205.375 244.74 205.613V218.391C244.74 218.629 244.934 218.821 245.172 218.821H257.949C258.187 218.821 258.381 218.629 258.381 218.391V205.613C258.381 205.375 258.187 205.181 257.949 205.181H245.172ZM257.949 219.313H245.172C244.663 219.313 244.249 218.899 244.249 218.391V205.613C244.249 205.104 244.663 204.689 245.172 204.689H257.949C258.458 204.689 258.872 205.104 258.872 205.613V218.391C258.872 218.899 258.458 219.313 257.949 219.313Z" fill="#5B5B5D"/>
<path id="Fill 32" fill-rule="evenodd" clip-rule="evenodd" d="M251.477 206.384H245.875V212.784H247.795V214.704H249.715V216.624H251.477H253.555V214.704H255.475V212.784H257.395V206.384H251.477Z" fill="#5A5A5C"/>
<path id="Fill 34" fill-rule="evenodd" clip-rule="evenodd" d="M245.876 207.023H257.396V206.383H245.876V207.023Z" fill="#3F4243"/>
<path id="Fill 36" fill-rule="evenodd" clip-rule="evenodd" d="M245.876 212.784H247.796V212.144H245.876V212.784Z" fill="#3F4243"/>
<path id="Fill 37" fill-rule="evenodd" clip-rule="evenodd" d="M255.476 212.784H257.396V212.144H255.476V212.784Z" fill="#3F4243"/>
<path id="Fill 38" fill-rule="evenodd" clip-rule="evenodd" d="M247.796 214.703H249.716V214.063H247.796V214.703Z" fill="#3F4243"/>
<path id="Fill 39" fill-rule="evenodd" clip-rule="evenodd" d="M249.716 216.623H253.556V215.983H249.716V216.623Z" fill="#3F4243"/>
<path id="Fill 40" fill-rule="evenodd" clip-rule="evenodd" d="M253.556 214.703H255.476V214.063H253.556V214.703Z" fill="#3F4243"/>
<path id="Fill 41" fill-rule="evenodd" clip-rule="evenodd" d="M250.214 210.562H251.136V207.225H250.214V210.562Z" fill="#BDBEC2"/>
<path id="Fill 42" fill-rule="evenodd" clip-rule="evenodd" d="M248.699 210.562H249.62V207.225H248.699V210.562Z" fill="#BDBEC2"/>
<path id="Fill 43" fill-rule="evenodd" clip-rule="evenodd" d="M251.73 210.562H252.651V207.225H251.73V210.562Z" fill="#BDBEC2"/>
<path id="Fill 44" fill-rule="evenodd" clip-rule="evenodd" d="M253.245 210.562H254.167V207.225H253.245V210.562Z" fill="#BDBEC2"/>
</g>
<g id="Group 24">
<g clip-path="url(#clip2)">
<path id="Fill 19" fill-rule="evenodd" clip-rule="evenodd" d="M214.987 202.522C214.192 202.522 213.547 203.201 213.547 204.036V218.687C213.547 219.522 214.192 220.202 214.987 220.202H233.093C233.888 220.202 234.533 219.522 234.533 218.687V204.036C234.533 203.201 233.888 202.522 233.093 202.522H214.987ZM233.093 221.281H214.987C213.627 221.281 212.52 220.117 212.52 218.687V204.036C212.52 202.606 213.627 201.442 214.987 201.442H233.093C234.453 201.442 235.56 202.606 235.56 204.036V218.687C235.56 220.117 234.453 221.281 233.093 221.281Z" fill="#808080"/>
<path id="Fill 21" fill-rule="evenodd" clip-rule="evenodd" d="M213.586 229.42H234.303V223.233H213.586V229.42Z" fill="#2D2B2C"/>
<path id="ANTENA" d="M216.839 226.84L217.273 225.594L217.708 226.84H216.839ZM218.124 228.041H218.617L217.52 224.905H217.027L215.929 228.041H216.422L216.686 227.283H217.86L218.124 228.041ZM221.235 224.905H220.755V227.153L219.465 224.905H218.986V228.041H219.465V225.792L220.755 228.041H221.235V224.905ZM223.848 225.379V224.905H221.604V225.379H222.486V228.041H222.966V225.379H223.848ZM224.693 225.379H226.064V224.905H224.214V228.041H226.064V227.566H224.693V226.697H226.064V226.222H224.693V225.379ZM228.904 224.905H228.425V227.153L227.134 224.905H226.655V228.041H227.134V225.792L228.425 228.041H228.904V224.905ZM230.182 226.84L230.617 225.594L231.052 226.84H230.182ZM231.468 228.041H231.961L230.863 224.905H230.371L229.273 228.041H229.766L230.03 227.283H231.204L231.468 228.041Z" fill="white"/>
<path id="Fill 21 Copy" fill-rule="evenodd" clip-rule="evenodd" d="M238.76 229.42H265V223.233H238.76V229.42Z" fill="#2D2B2C"/>
<path id="nertwork" d="M243.648 224.905H243.169V227.153L241.879 224.905H241.399V228.041H241.879V225.792L243.169 228.041H243.648V224.905ZM244.792 225.379H246.163V224.905H244.313V228.041H246.163V227.566H244.792V226.697H246.163V226.222H244.792V225.379ZM247.986 226.231H247.234V225.379H247.986C248.058 225.379 248.124 225.39 248.183 225.411C248.243 225.429 248.292 225.456 248.331 225.491C248.373 225.527 248.404 225.572 248.425 225.626C248.449 225.677 248.461 225.736 248.461 225.805C248.461 225.874 248.449 225.935 248.425 225.989C248.404 226.039 248.373 226.083 248.331 226.119C248.292 226.154 248.243 226.183 248.183 226.204C248.124 226.222 248.058 226.231 247.986 226.231ZM247.722 226.692L248.515 228.041H249.053L248.246 226.67C248.36 226.649 248.46 226.614 248.546 226.567C248.636 226.516 248.711 226.453 248.77 226.378C248.83 226.304 248.875 226.219 248.905 226.123C248.935 226.025 248.95 225.917 248.95 225.801C248.95 225.666 248.929 225.544 248.887 225.433C248.845 225.323 248.782 225.229 248.699 225.151C248.618 225.07 248.516 225.009 248.394 224.967C248.275 224.925 248.139 224.905 247.986 224.905H246.754V228.041H247.234V226.692H247.722ZM251.438 225.379V224.905H249.193V225.379H250.076V228.041H250.555V225.379H251.438ZM253.746 228.041H254.198L254.776 224.905H254.306L253.907 227.1L253.428 225.353H252.98L252.5 227.1L252.102 224.905H251.631L252.209 228.041H252.662L253.204 226.065L253.746 228.041ZM255.108 226.979C255.108 227.146 255.135 227.298 255.189 227.436C255.243 227.573 255.319 227.691 255.418 227.79C255.519 227.885 255.639 227.958 255.776 228.009C255.913 228.06 256.066 228.085 256.233 228.085C256.4 228.085 256.552 228.06 256.69 228.009C256.827 227.958 256.945 227.885 257.044 227.79C257.145 227.691 257.223 227.573 257.277 227.436C257.33 227.298 257.357 227.146 257.357 226.979V225.966C257.357 225.799 257.33 225.647 257.277 225.509C257.223 225.372 257.145 225.255 257.044 225.16C256.945 225.061 256.827 224.987 256.69 224.936C256.552 224.885 256.4 224.86 256.233 224.86C256.066 224.86 255.913 224.885 255.776 224.936C255.639 224.987 255.519 225.061 255.418 225.16C255.319 225.255 255.243 225.372 255.189 225.509C255.135 225.647 255.108 225.799 255.108 225.966V226.979ZM256.878 226.979C256.878 227.083 256.86 227.176 256.824 227.257C256.788 227.337 256.739 227.404 256.676 227.458C256.614 227.509 256.543 227.548 256.466 227.575C256.391 227.599 256.314 227.61 256.233 227.61C256.152 227.61 256.073 227.599 255.995 227.575C255.921 227.548 255.852 227.509 255.789 227.458C255.727 227.404 255.677 227.337 255.642 227.257C255.606 227.176 255.588 227.083 255.588 226.979V225.966C255.588 225.862 255.606 225.769 255.642 225.689C255.677 225.608 255.727 225.542 255.789 225.491C255.852 225.438 255.921 225.399 255.995 225.375C256.073 225.348 256.152 225.335 256.233 225.335C256.314 225.335 256.391 225.348 256.466 225.375C256.543 225.399 256.614 225.438 256.676 225.491C256.739 225.542 256.788 225.608 256.824 225.689C256.86 225.769 256.878 225.862 256.878 225.966V226.979ZM259.16 226.231H258.407V225.379H259.16C259.232 225.379 259.297 225.39 259.357 225.411C259.417 225.429 259.466 225.456 259.505 225.491C259.547 225.527 259.578 225.572 259.599 225.626C259.623 225.677 259.635 225.736 259.635 225.805C259.635 225.874 259.623 225.935 259.599 225.989C259.578 226.039 259.547 226.083 259.505 226.119C259.466 226.154 259.417 226.183 259.357 226.204C259.297 226.222 259.232 226.231 259.16 226.231ZM258.896 226.692L259.689 228.041H260.226L259.42 226.67C259.533 226.649 259.633 226.614 259.72 226.567C259.81 226.516 259.884 226.453 259.944 226.378C260.004 226.304 260.049 226.219 260.079 226.123C260.108 226.025 260.123 225.917 260.123 225.801C260.123 225.666 260.102 225.544 260.061 225.433C260.019 225.323 259.956 225.229 259.872 225.151C259.792 225.07 259.69 225.009 259.568 224.967C259.448 224.925 259.312 224.905 259.16 224.905H257.928V228.041H258.407V226.692H258.896ZM261.142 227.131L261.621 226.567L262.593 228.041H263.158L261.939 226.195L263.037 224.905H262.446L261.142 226.437V224.905H260.662V228.041H261.142V227.131Z" fill="white"/>
<path id="Fill 60" fill-rule="evenodd" clip-rule="evenodd" d="M230.521 211.931C230.521 215.551 227.586 218.487 223.966 218.487C220.345 218.487 217.41 215.551 217.41 211.931C217.41 208.311 220.345 205.375 223.966 205.375C227.586 205.375 230.521 208.311 230.521 211.931Z" fill="#4A474B"/>
<path id="Fill 61" fill-rule="evenodd" clip-rule="evenodd" d="M229.932 211.931C229.932 215.226 227.261 217.898 223.966 217.898C220.67 217.898 217.999 215.226 217.999 211.931C217.999 208.636 220.67 205.964 223.966 205.964C227.261 205.964 229.932 208.636 229.932 211.931Z" fill="#0A0909"/>
<path id="Fill 62" fill-rule="evenodd" clip-rule="evenodd" d="M228.114 211.931C228.114 214.222 226.256 216.079 223.966 216.079C221.675 216.079 219.817 214.222 219.817 211.931C219.817 209.64 221.675 207.783 223.966 207.783C226.256 207.783 228.114 209.64 228.114 211.931Z" fill="#F2F3F5"/>
<path id="Fill 63_2" fill-rule="evenodd" clip-rule="evenodd" d="M224.802 211.931C224.802 212.394 224.428 212.768 223.965 212.768C223.503 212.768 223.129 212.394 223.129 211.931C223.129 211.468 223.503 211.094 223.965 211.094C224.428 211.094 224.802 211.468 224.802 211.931Z" fill="#0A0909"/>
</g>
</g>
<g id="Group 31">
<g clip-path="url(#clip3)">
<path id="Fill 26" fill-rule="evenodd" clip-rule="evenodd" d="M421.527 232.157H447.127V203.997H421.527V232.157Z" fill="#2D2B2C"/>
<path id="Fill 46" fill-rule="evenodd" clip-rule="evenodd" d="M440.133 214.767C440.133 218.062 437.462 220.734 434.167 220.734C430.871 220.734 428.2 218.062 428.2 214.767C428.2 211.472 430.871 208.8 434.167 208.8C437.462 208.8 440.133 211.472 440.133 214.767Z" fill="#0A0909"/>
<path id="Fill 47" fill-rule="evenodd" clip-rule="evenodd" d="M439.181 214.768C439.181 217.538 436.936 219.783 434.167 219.783C431.397 219.783 429.152 217.538 429.152 214.768C429.152 211.999 431.397 209.754 434.167 209.754C436.936 209.754 439.181 211.999 439.181 214.768Z" fill="#141414"/>
<path id="POWER" d="M427.731 228.432H428.443C428.619 228.432 428.775 228.406 428.909 228.352C429.044 228.298 429.154 228.225 429.241 228.132C429.327 228.037 429.391 227.928 429.433 227.805C429.478 227.68 429.5 227.547 429.5 227.407C429.5 227.266 429.478 227.135 429.433 227.012C429.391 226.887 429.327 226.778 429.241 226.685C429.154 226.59 429.044 226.515 428.909 226.461C428.775 226.407 428.619 226.381 428.443 226.381H427.252V229.517H427.731V228.432ZM428.443 226.847C428.542 226.847 428.627 226.861 428.699 226.891C428.77 226.918 428.828 226.957 428.873 227.008C428.921 227.059 428.955 227.118 428.976 227.187C429 227.253 429.012 227.324 429.012 227.402C429.012 227.48 429 227.553 428.976 227.622C428.955 227.687 428.921 227.746 428.873 227.796C428.828 227.847 428.77 227.887 428.699 227.917C428.627 227.944 428.542 227.958 428.443 227.958H427.731V226.847H428.443ZM429.951 228.455C429.951 228.622 429.978 228.774 430.032 228.912C430.086 229.049 430.162 229.167 430.26 229.266C430.362 229.361 430.481 229.434 430.619 229.485C430.756 229.536 430.909 229.561 431.076 229.561C431.243 229.561 431.395 229.536 431.533 229.485C431.67 229.434 431.788 229.361 431.887 229.266C431.988 229.167 432.066 229.049 432.12 228.912C432.173 228.774 432.2 228.622 432.2 228.455V227.442C432.2 227.275 432.173 227.123 432.12 226.985C432.066 226.848 431.988 226.732 431.887 226.636C431.788 226.537 431.67 226.463 431.533 226.412C431.395 226.361 431.243 226.336 431.076 226.336C430.909 226.336 430.756 226.361 430.619 226.412C430.481 226.463 430.362 226.537 430.26 226.636C430.162 226.732 430.086 226.848 430.032 226.985C429.978 227.123 429.951 227.275 429.951 227.442V228.455ZM431.721 228.455C431.721 228.559 431.703 228.652 431.667 228.733C431.631 228.813 431.582 228.88 431.519 228.934C431.457 228.985 431.386 229.024 431.309 229.051C431.234 229.075 431.156 229.087 431.076 229.087C430.995 229.087 430.916 229.075 430.838 229.051C430.764 229.024 430.695 228.985 430.632 228.934C430.57 228.88 430.52 228.813 430.484 228.733C430.449 228.652 430.431 228.559 430.431 228.455V227.442C430.431 227.338 430.449 227.245 430.484 227.165C430.52 227.084 430.57 227.018 430.632 226.967C430.695 226.914 430.764 226.875 430.838 226.851C430.916 226.824 430.995 226.811 431.076 226.811C431.156 226.811 431.234 226.824 431.309 226.851C431.386 226.875 431.457 226.914 431.519 226.967C431.582 227.018 431.631 227.084 431.667 227.165C431.703 227.245 431.721 227.338 431.721 227.442V228.455ZM434.76 229.517H435.213L435.791 226.381H435.32L434.921 228.576L434.442 226.829H433.994L433.515 228.576L433.116 226.381H432.646L433.223 229.517H433.676L434.218 227.541L434.76 229.517ZM436.808 226.855H438.179V226.381H436.329V229.517H438.179V229.042H436.808V228.173H438.179V227.698H436.808V226.855ZM440.114 227.707H439.361V226.855H440.114C440.186 226.855 440.251 226.866 440.311 226.887C440.371 226.905 440.42 226.932 440.459 226.967C440.501 227.003 440.532 227.048 440.553 227.102C440.577 227.153 440.589 227.212 440.589 227.281C440.589 227.35 440.577 227.411 440.553 227.465C440.532 227.516 440.501 227.559 440.459 227.595C440.42 227.631 440.371 227.659 440.311 227.68C440.251 227.698 440.186 227.707 440.114 227.707ZM439.85 228.168L440.643 229.517H441.18L440.374 228.146C440.487 228.125 440.587 228.09 440.674 228.043C440.764 227.992 440.838 227.929 440.898 227.855C440.958 227.78 441.003 227.695 441.032 227.599C441.062 227.501 441.077 227.393 441.077 227.277C441.077 227.142 441.056 227.02 441.014 226.909C440.973 226.799 440.91 226.705 440.826 226.627C440.746 226.546 440.644 226.485 440.522 226.443C440.402 226.402 440.266 226.381 440.114 226.381H438.882V229.517H439.361V228.168H439.85Z" fill="white"/>
</g>
</g>
<g id="Group 30">
<g id="Group 29_2">
<path id="Fill 56_3" fill-rule="evenodd" clip-rule="evenodd" d="M283.231 199.037C283.231 202.658 280.296 205.593 276.676 205.593C273.055 205.593 270.12 202.658 270.12 199.037C270.12 195.418 273.055 192.482 276.676 192.482C280.296 192.482 283.231 195.418 283.231 199.037Z" fill="#4A474B"/>
<path id="Fill 57_3" fill-rule="evenodd" clip-rule="evenodd" d="M282.642 199.038C282.642 202.333 279.971 205.005 276.676 205.005C273.38 205.005 270.709 202.333 270.709 199.038C270.709 195.743 273.38 193.071 276.676 193.071C279.971 193.071 282.642 195.743 282.642 199.038Z" fill="#0A0909"/>
<path id="Fill 58_3" fill-rule="evenodd" clip-rule="evenodd" d="M280.824 199.037C280.824 201.329 278.966 203.186 276.676 203.186C274.385 203.186 272.527 201.329 272.527 199.037C272.527 196.747 274.385 194.89 276.676 194.89C278.966 194.89 280.824 196.747 280.824 199.037Z" fill="#F2F3F5"/>
<path id="Fill 59_3" fill-rule="evenodd" clip-rule="evenodd" d="M279.347 199.038C279.347 200.513 278.151 201.71 276.675 201.71C275.2 201.71 274.003 200.513 274.003 199.038C274.003 197.562 275.2 196.366 276.675 196.366C278.151 196.366 279.347 197.562 279.347 199.038Z" fill="#0A0909"/>
</g>
<g id="Group 29 Copy 2">
<path id="Fill 56_4" fill-rule="evenodd" clip-rule="evenodd" d="M283.231 220.158C283.231 223.778 280.296 226.713 276.676 226.713C273.055 226.713 270.12 223.778 270.12 220.158C270.12 216.538 273.055 213.602 276.676 213.602C280.296 213.602 283.231 216.538 283.231 220.158Z" fill="#4A474B"/>
<path id="Fill 57_4" fill-rule="evenodd" clip-rule="evenodd" d="M282.642 220.158C282.642 223.453 279.971 226.125 276.676 226.125C273.38 226.125 270.709 223.453 270.709 220.158C270.709 216.863 273.38 214.191 276.676 214.191C279.971 214.191 282.642 216.863 282.642 220.158Z" fill="#0A0909"/>
<path id="Fill 58_4" fill-rule="evenodd" clip-rule="evenodd" d="M280.824 220.158C280.824 222.449 278.966 224.306 276.676 224.306C274.385 224.306 272.527 222.449 272.527 220.158C272.527 217.867 274.385 216.01 276.676 216.01C278.966 216.01 280.824 217.867 280.824 220.158Z" fill="#F2F3F5"/>
<path id="Fill 59_4" fill-rule="evenodd" clip-rule="evenodd" d="M279.347 220.158C279.347 221.634 278.151 222.83 276.675 222.83C275.2 222.83 274.003 221.634 274.003 220.158C274.003 218.682 275.2 217.486 276.675 217.486C278.151 217.486 279.347 218.682 279.347 220.158Z" fill="#0A0909"/>
</g>
<g id="Group 29 Copy">
<path id="Fill 56_5" fill-rule="evenodd" clip-rule="evenodd" d="M299.231 199.037C299.231 202.658 296.296 205.593 292.676 205.593C289.055 205.593 286.12 202.658 286.12 199.037C286.12 195.418 289.055 192.482 292.676 192.482C296.296 192.482 299.231 195.418 299.231 199.037Z" fill="#4A474B"/>
<path id="Fill 57_5" fill-rule="evenodd" clip-rule="evenodd" d="M298.642 199.038C298.642 202.333 295.971 205.005 292.676 205.005C289.38 205.005 286.709 202.333 286.709 199.038C286.709 195.743 289.38 193.071 292.676 193.071C295.971 193.071 298.642 195.743 298.642 199.038Z" fill="#0A0909"/>
<path id="Fill 58_5" fill-rule="evenodd" clip-rule="evenodd" d="M296.824 199.037C296.824 201.329 294.966 203.186 292.676 203.186C290.385 203.186 288.527 201.329 288.527 199.037C288.527 196.747 290.385 194.89 292.676 194.89C294.966 194.89 296.824 196.747 296.824 199.037Z" fill="#F2F3F5"/>
<path id="Fill 59_5" fill-rule="evenodd" clip-rule="evenodd" d="M295.347 199.038C295.347 200.513 294.151 201.71 292.675 201.71C291.2 201.71 290.003 200.513 290.003 199.038C290.003 197.562 291.2 196.366 292.675 196.366C294.151 196.366 295.347 197.562 295.347 199.038Z" fill="#0A0909"/>
</g>
</g>
<g id="Group 32 Copy">
<path id="Fill 65_2" fill-rule="evenodd" clip-rule="evenodd" d="M454.164 130.27H385.844C383.991 130.27 382.477 128.755 382.477 126.903V28.3669C382.477 26.5156 383.991 25 385.844 25H454.164C456.016 25 457.53 26.5156 457.53 28.3669V126.903C457.53 128.755 456.016 130.27 454.164 130.27Z" fill="#E6E6E6"/>
<path id="Fill 66_2" fill-rule="evenodd" clip-rule="evenodd" d="M445.327 91.1399H394.68C393.307 91.1399 392.185 90.0167 392.185 88.6451V66.6257C392.185 65.2532 393.307 64.1309 394.68 64.1309H445.327C446.699 64.1309 447.822 65.2532 447.822 66.6257V88.6451C447.822 90.0167 446.699 91.1399 445.327 91.1399Z" fill="#CFCFCF"/>
<path id="Fill 67_2" fill-rule="evenodd" clip-rule="evenodd" d="M433.538 69.1952L442.781 75.5654C444.231 76.5644 444.231 78.7055 442.781 79.7054L433.538 86.0747C433.119 86.3636 432.621 86.5193 432.112 86.5193H407.895C407.386 86.5193 406.888 86.3636 406.469 86.0747L397.226 79.7054C395.776 78.7055 395.776 76.5644 397.226 75.5654L406.469 69.1952C406.888 68.9063 407.386 68.7515 407.895 68.7515H432.112C432.621 68.7515 433.119 68.9063 433.538 69.1952Z" fill="#E0E0E0"/>
<path id="Fill 68_2" fill-rule="evenodd" clip-rule="evenodd" d="M411.512 75.6991C411.512 76.9015 410.537 77.8753 409.336 77.8753C408.133 77.8753 407.159 76.9015 407.159 75.6991C407.159 74.4967 408.133 73.522 409.336 73.522C410.537 73.522 411.512 74.4967 411.512 75.6991Z" fill="#5A5657"/>
<path id="Fill 69_2" fill-rule="evenodd" clip-rule="evenodd" d="M431.293 73.6125C432.445 73.9563 433.1 75.1686 432.757 76.3206C432.414 77.4726 431.201 78.1287 430.049 77.7849C428.897 77.4411 428.242 76.2288 428.585 75.0768C428.929 73.9257 430.141 73.2696 431.293 73.6125Z" fill="#5A5657"/>
<path id="Fill 70_2" fill-rule="evenodd" clip-rule="evenodd" d="M422.18 79.5717C422.18 80.7741 421.205 81.7488 420.003 81.7488C418.801 81.7488 417.826 80.7741 417.826 79.5717C417.826 78.3702 418.801 77.3955 420.003 77.3955C421.205 77.3955 422.18 78.3702 422.18 79.5717Z" fill="#5A5657"/>
<path id="Fill 71_2" fill-rule="evenodd" clip-rule="evenodd" d="M383.937 25.5654C383.158 26.0226 382.44 26.8515 382.44 28.3671V127.094C382.44 127.094 382.559 128.742 383.937 129.588V25.5654Z" fill="#CFCFCF"/>
<path id="Fill 72_2" fill-rule="evenodd" clip-rule="evenodd" d="M514.404 94.7993H498.514C496.667 94.7993 495.154 93.2864 495.154 91.4387C495.154 89.5901 496.667 88.0781 498.514 88.0781H514.404C516.252 88.0781 517.764 89.5901 517.764 91.4387C517.764 93.2864 516.252 94.7993 514.404 94.7993Z" fill="#CFCFCF"/>
<path id="Fill 73_2" fill-rule="evenodd" clip-rule="evenodd" d="M514.404 76.0752H498.514C496.667 76.0752 495.154 74.5623 495.154 72.7146C495.154 70.866 496.667 69.354 498.514 69.354H514.404C516.252 69.354 517.764 70.866 517.764 72.7146C517.764 74.5623 516.252 76.0752 514.404 76.0752Z" fill="#CFCFCF"/>
<path id="Path 6" d="M435.275 216.379C435.275 216.379 449.535 225.443 455.372 235.62C461.21 245.796 474.885 276.038 498.516 281.394C522.147 286.751 541.008 278.955 547.644 266.648C554.279 254.34 552.528 233.41 528.974 221.069C505.419 208.727 507.296 194.786 515.746 181.733C524.195 168.681 549.153 169.467 556.646 158.581C564.14 147.695 564.14 131.627 564.14 117.7" stroke="black" stroke-width="8.1" stroke-linecap="round" stroke-linejoin="round"/>
<path id="Fill 74_2" fill-rule="evenodd" clip-rule="evenodd" d="M538.71 138.085H588.84V54.9414H538.71V138.085Z" fill="#232323"/>
<path id="Fill 75" fill-rule="evenodd" clip-rule="evenodd" d="M530.709 138.085H538.71V54.9414H530.709V138.085Z" fill="#303030"/>
<path id="Fill 76" fill-rule="evenodd" clip-rule="evenodd" d="M513.301 101.462H530.992V62.9629H513.301V101.462Z" fill="#232323"/>
<path id="Fill 77" fill-rule="evenodd" clip-rule="evenodd" d="M465.097 54.7733C467.588 52.0067 469.515 49.8665 471.891 47.2277C458.28 44.1875 446.733 47.3366 436.175 56.0234C441.263 42.2417 456.668 34.7654 478.187 35.4512C478.993 32.5784 479.824 29.6156 480.866 25.9004C483.559 30.7838 485.939 35.075 488.295 39.3788C490.607 43.6007 492.897 47.837 495.374 52.3946C485.294 53.1866 475.687 53.9408 465.097 54.7733Z" fill="#00C0D2"/>
<path id="Fill 77 Copy" fill-rule="evenodd" clip-rule="evenodd" d="M438.686 106.134C448.766 105.342 458.372 104.588 468.962 103.756C466.471 106.522 464.544 108.662 462.168 111.301C475.779 114.341 487.326 111.192 497.884 102.505C492.796 116.287 477.392 123.763 455.872 123.078C455.066 125.95 454.236 128.913 453.194 132.628C450.5 127.745 448.12 123.454 445.764 119.15C443.452 114.928 441.162 110.692 438.686 106.134Z" fill="#00C0D2"/>
</g>
<g id="Group 35">
<rect id="Rectangle Copy 39" x="373.8" y="210.72" width="17.28" height="17.28" fill="black"/>
<rect id="Rectangle Copy 40" x="376.04" y="212.96" width="12.8" height="12.8" stroke="#979797" stroke-width="0.64"/>
</g>
</g>
<g id="Path 4">
<mask id="mask2" mask-type="alpha" maskUnits="userSpaceOnUse" x="134" y="199" width="104" height="82">
<path id="Mask_3" fill-rule="evenodd" clip-rule="evenodd" d="M237.325 199.807H210.702V239.647H134.325V280.647H210.702H237.325V239.647V199.807Z" fill="white"/>
</mask>
<g mask="url(#mask2)">
<path id="Path 4_2" d="M224.04 212.768C224.04 212.768 231.049 273.865 179.236 273.865C150.759 273.865 144 253.127 144 239.637" stroke="black" stroke-width="8" stroke-linecap="round" stroke-linejoin="round"/>
</g>
</g>
</g>
</g>
</g>
</g>
<defs>
<linearGradient id="paint0_linear" x1="14.901" y1="89.8926" x2="14.901" y2="237.504" gradientUnits="userSpaceOnUse">
<stop stop-color="#0D094F"/>
<stop offset="1" stop-color="#3177D7"/>
</linearGradient>
<clipPath id="clip0">
<rect x="371.88" y="217.12" width="45" height="22" fill="white"/>
</clipPath>
<clipPath id="clip1">
<rect x="304.04" y="189.282" width="66" height="50" fill="white"/>
</clipPath>
<clipPath id="clip2">
<rect x="212.52" y="201.442" width="53" height="29" fill="white"/>
</clipPath>
<clipPath id="clip3">
<rect x="421.16" y="203.631" width="26" height="29" fill="white"/>
</clipPath>
</defs>
</svg>
