<svg width="600" height="413" viewBox="0 0 600 413" fill="none" xmlns="http://www.w3.org/2000/svg">
<mask id="mask0" mask-type="alpha" maskUnits="userSpaceOnUse" x="0" y="0" width="600" height="413">
<rect width="600" height="413" fill="white"/>
</mask>
<g mask="url(#mask0)">
<path fill-rule="evenodd" clip-rule="evenodd" d="M191.209 116.603C206.246 57.8291 294.732 58.888 294.732 58.888C294.732 58.888 294.732 58.8883 294.732 58.8889C295.329 58.8825 383.267 58.0294 398.253 116.604C406.681 149.547 398.96 190.018 391.31 230.123C385.311 261.569 379.355 292.789 381.262 319.977C381.453 322.711 381.661 325.647 381.881 328.768C386.647 396.282 397.536 550.561 389.583 621.441C381.262 695.597 361.568 735.708 338.556 755.197C316.343 774.009 302.377 773.956 295.449 773.93C295.2 773.929 294.96 773.928 294.729 773.928C294.684 773.928 294.639 773.894 294.595 773.828C294.379 773.828 294.157 773.83 293.926 773.831C286.969 773.864 273.027 773.93 250.905 755.196C227.893 735.707 208.2 695.97 199.879 621.44C191.936 550.302 202.784 396.681 207.56 329.049C207.788 325.823 208.002 322.793 208.2 319.976C210.106 292.788 204.15 261.568 198.151 230.122C190.501 190.017 182.781 149.546 191.209 116.603Z" fill="#645E5E"/>
<path fill-rule="evenodd" clip-rule="evenodd" d="M218.986 89.3865C218.245 89.3865 217.673 89.1858 217.272 88.7844C216.871 88.383 216.645 87.8827 216.596 87.2837H217.605C217.673 87.6419 217.829 87.9183 218.073 88.1128C218.317 88.3073 218.627 88.4046 219.004 88.4046C219.338 88.4046 219.603 88.3289 219.801 88.1776C219.998 88.0263 220.097 87.8272 220.097 87.5801C220.097 87.3393 220.025 87.1432 219.88 86.9919C219.734 86.8406 219.501 86.7248 219.18 86.6445L218.032 86.3666C217.605 86.2678 217.277 86.0563 217.045 85.7321C216.813 85.4078 216.698 85.0141 216.698 84.551C216.698 83.9272 216.903 83.4656 217.314 83.1661C217.724 82.8666 218.217 82.7168 218.791 82.7168C219.44 82.7168 219.951 82.8866 220.324 83.2263C220.698 83.566 220.925 84.0044 221.005 84.5417H219.995C219.934 84.2762 219.798 84.0693 219.588 83.9211C219.378 83.7728 219.115 83.6987 218.8 83.6987C218.418 83.6987 218.14 83.779 217.967 83.9396C217.794 84.1001 217.707 84.3039 217.707 84.551C217.707 84.798 217.777 84.991 217.916 85.1299C218.055 85.2689 218.229 85.3631 218.439 85.4125L219.551 85.6811C220.063 85.8046 220.451 86.0254 220.713 86.3435C220.976 86.6615 221.107 87.0799 221.107 87.5987C221.107 88.1174 220.922 88.5451 220.551 88.8817C220.181 89.2182 219.659 89.3865 218.986 89.3865ZM225.992 83.791H224.167V89.2936H223.176V83.791H221.351V82.8091H225.992V83.791ZM226.569 82.8091V89.2936H229.228C229.87 89.2936 230.363 89.1253 230.705 88.7887C231.048 88.4521 231.219 87.9967 231.219 87.4223C231.219 87.1383 231.156 86.8681 231.03 86.6118C230.903 86.3555 230.701 86.144 230.423 85.9772C230.633 85.829 230.792 85.6407 230.9 85.4122C231.008 85.1837 231.062 84.9335 231.062 84.6618C231.062 84.106 230.891 83.6583 230.548 83.3186C230.205 82.9789 229.713 82.8091 229.07 82.8091H226.569ZM229.07 83.7911H227.56V85.5326H229.07C229.373 85.5326 229.612 85.4585 229.788 85.3103C229.964 85.1621 230.052 84.9459 230.052 84.6618C230.052 84.3778 229.964 84.1616 229.788 84.0134C229.612 83.8652 229.373 83.7911 229.07 83.7911ZM227.56 86.5155H229.228C229.53 86.5155 229.77 86.5911 229.946 86.7424C230.122 86.8937 230.21 87.1176 230.21 87.414C230.21 87.7105 230.122 87.9343 229.946 88.0856C229.77 88.2369 229.53 88.3126 229.228 88.3126H227.56V86.5155Z" fill="white"/>
<circle cx="225.669" cy="101.313" r="7.91316" fill="#FF4D4D"/>
<circle cx="225.669" cy="101.312" r="3.95658" fill="#464646"/>
<circle cx="257.321" cy="89.8038" r="7.91316" fill="#D8D8D8"/>
<circle cx="257.322" cy="89.8042" r="3.95658" fill="#464646"/>
<circle cx="294.729" cy="85.4872" r="12.2294" fill="#D8D8D8"/>
<circle cx="242.935" cy="296.984" r="7.91316" fill="#D8D8D8"/>
<circle cx="347.964" cy="296.984" r="7.91316" fill="#D8D8D8"/>
<circle cx="352.28" cy="406.329" r="7.91316" fill="#D8D8D8"/>
<circle cx="242.935" cy="409.207" r="7.91316" fill="#D8D8D8"/>
<circle cx="294.729" cy="180.445" r="12.2294" fill="#FFE47B"/>
<circle cx="242.934" cy="246.628" r="12.2294" fill="#2C2828"/>
<circle cx="347.964" cy="246.628" r="12.2294" fill="#2C2828"/>
<circle cx="360.913" cy="148.792" r="12.2294" fill="#2C2828"/>
<ellipse cx="316.609" cy="135.844" rx="11.9332" ry="12.2294" fill="#2C2828"/>
<ellipse cx="272.855" cy="135.844" rx="11.9332" ry="12.2294" fill="#2C2828"/>
<path fill-rule="evenodd" clip-rule="evenodd" d="M276.083 128.848C276.163 126.655 278.78 125.345 280.725 126.361C284.071 128.107 288.942 130.013 294.061 129.86C299.362 129.701 304.651 127.984 308.22 126.536C310.183 125.74 312.478 127.241 312.361 129.357L311.653 142.094C311.538 144.158 309.154 145.476 307.216 144.757C303.982 143.556 299.032 142.306 292.931 142.637C287.798 142.916 283.666 144.27 280.7 145.65C278.548 146.652 275.489 145.006 275.576 142.634L276.083 128.848Z" fill="#2C2828"/>
<ellipse cx="316.609" cy="220.729" rx="11.9332" ry="12.2294" fill="#2C2828"/>
<ellipse cx="272.855" cy="220.729" rx="11.9332" ry="12.2294" fill="#2C2828"/>
<path fill-rule="evenodd" clip-rule="evenodd" d="M276.083 213.734C276.163 211.541 278.78 210.231 280.725 211.246C284.071 212.992 288.942 214.899 294.061 214.746C299.362 214.587 304.651 212.87 308.22 211.422C310.183 210.626 312.478 212.127 312.361 214.242L311.653 226.98C311.538 229.044 309.154 230.362 307.216 229.643C303.982 228.442 299.032 227.192 292.931 227.523C287.798 227.802 283.666 229.155 280.7 230.536C278.548 231.538 275.489 229.892 275.576 227.52L276.083 213.734Z" fill="#2C2828"/>
<circle cx="225.671" cy="148.792" r="12.2294" fill="#2C2828"/>
<circle cx="245.813" cy="180.445" r="12.2294" fill="#2C2828"/>
<circle cx="345.085" cy="180.445" r="12.2294" fill="#2C2828"/>
<circle cx="294.729" cy="353.095" r="20.862" fill="#D8D8D8"/>
<circle r="7.91316" transform="matrix(-1 0 0 1 366.669 101.313)" fill="#D8D8D8"/>
<circle r="3.95658" transform="matrix(-1 0 0 1 366.668 101.312)" fill="#464646"/>
<circle r="7.91316" transform="matrix(-1 0 0 1 336.454 89.8038)" fill="#D8D8D8"/>
<circle r="3.95658" transform="matrix(-1 0 0 1 336.454 89.8042)" fill="#464646"/>
<path fill-rule="evenodd" clip-rule="evenodd" d="M266.255 315.448L276.487 327.701C276.487 327.701 277.142 328.378 278.191 328.378C279.24 328.378 280.096 327.701 280.096 327.701C280.096 327.701 285.967 323.522 294.877 323.522C303.786 323.522 308.341 327.701 308.341 327.701C308.341 327.701 309.12 328.378 309.961 328.378C310.801 328.378 311.595 327.701 311.595 327.701L323.662 315.173C323.662 315.173 324.25 314.578 324.25 313.523C324.25 312.467 323.662 311.919 323.662 311.919C323.662 311.919 309.473 302.02 294.877 302.02C280.28 302.02 270.326 307.73 267.412 311.177C266.888 311.797 266.342 312.266 266.004 313.294C265.604 314.512 266.255 315.448 266.255 315.448Z" fill="#D8D8D8"/>
<path fill-rule="evenodd" clip-rule="evenodd" d="M332.643 324.671L320.377 334.891C320.377 334.891 319.699 335.546 319.699 336.594C319.699 337.642 320.377 338.497 320.377 338.497C320.377 338.497 324.56 344.362 324.56 353.262C324.56 362.161 320.377 366.711 320.377 366.711C320.377 366.711 319.699 367.489 319.699 368.329C319.699 369.168 320.377 369.962 320.377 369.962L332.919 382.016C332.919 382.016 333.514 382.603 334.57 382.603C335.627 382.603 336.175 382.016 336.175 382.016C336.175 382.016 346.086 367.842 346.086 353.262C346.086 338.681 340.369 328.737 336.918 325.826C336.298 325.303 335.828 324.757 334.799 324.42C333.58 324.02 332.643 324.671 332.643 324.671Z" fill="#D8D8D8"/>
<path fill-rule="evenodd" clip-rule="evenodd" d="M322.413 390.064L312.181 377.811C312.181 377.811 311.526 377.134 310.477 377.134C309.428 377.134 308.572 377.811 308.572 377.811C308.572 377.811 302.7 381.989 293.791 381.989C284.882 381.989 280.327 377.811 280.327 377.811C280.327 377.811 279.548 377.134 278.707 377.134C277.867 377.134 277.073 377.811 277.073 377.811L265.006 390.339C265.006 390.339 264.418 390.934 264.418 391.989C264.418 393.044 265.006 393.592 265.006 393.592C265.006 393.592 279.194 403.492 293.791 403.492C308.388 403.492 318.342 397.781 321.256 394.335C321.78 393.715 322.326 393.245 322.664 392.218C323.064 391 322.413 390.064 322.413 390.064Z" fill="#D8D8D8"/>
<path fill-rule="evenodd" clip-rule="evenodd" d="M257.165 380.857L269.432 370.637C269.432 370.637 270.11 369.983 270.11 368.935C270.11 367.887 269.432 367.032 269.432 367.032C269.432 367.032 265.249 361.167 265.249 352.267C265.249 343.367 269.432 338.818 269.432 338.818C269.432 338.818 270.11 338.039 270.11 337.2C270.11 336.36 269.432 335.566 269.432 335.566L256.89 323.513C256.89 323.513 256.295 322.926 255.238 322.926C254.182 322.926 253.633 323.513 253.633 323.513C253.633 323.513 243.723 337.686 243.723 352.267C243.723 366.848 249.44 376.792 252.89 379.702C253.51 380.225 253.981 380.771 255.009 381.109C256.228 381.509 257.165 380.857 257.165 380.857Z" fill="#D8D8D8"/>
<rect x="276.746" y="258.857" width="35.9689" height="20.1426" rx="2.7" fill="#D8D8D8"/>
<path opacity="0.5" fill-rule="evenodd" clip-rule="evenodd" d="M244.774 66.8959C255.242 74.2471 262.084 86.4122 262.084 100.175C262.084 122.619 243.89 140.812 221.447 140.812C208.426 140.812 196.835 134.688 189.398 125.163C184.091 156.424 191.149 193.426 198.15 230.122C204.148 261.568 210.104 292.788 208.198 319.976C208 322.793 207.786 325.823 207.558 329.049L207.558 329.049C202.782 396.681 191.934 550.302 199.877 621.44C208.198 695.97 227.891 735.707 250.903 755.196C273.025 773.93 286.967 773.864 293.924 773.831C294.155 773.83 294.378 773.828 294.593 773.828C294.637 773.894 294.682 773.928 294.727 773.928C294.874 773.928 295.024 773.928 295.179 773.929L295.447 773.93C302.375 773.956 316.341 774.009 338.554 755.197C361.566 735.708 381.26 695.597 389.581 621.441C397.534 550.561 386.645 396.282 381.879 328.768L381.872 328.673C381.655 325.587 381.45 322.683 381.26 319.977C379.354 292.789 385.309 261.569 391.308 230.123C398.958 190.018 406.679 149.547 398.251 116.604C383.265 58.0294 295.327 58.8825 294.73 58.8889L294.73 58.888C294.73 58.888 270.199 58.5944 244.774 66.8959Z" fill="#F5F5F5"/>
<circle cx="221.448" cy="100.175" r="40.6372" stroke="#00C0D2" stroke-width="5.4"/>
<path d="M178.289 55.3043V52.6714H176.305V41H173.452L165 52.6714V55.3043H173.452V60H176.305V55.3043H178.289ZM168.315 52.6714L173.452 45.5871V52.6714H168.315Z" fill="#00BCCE"/>
<path d="M185.559 54.9786L182.271 60H179.119L183.874 52.8071L179.336 45.9943H182.488L185.559 50.6629L188.63 45.9943H191.783L187.244 52.8071L192 60H188.848L185.559 54.9786Z" fill="#00BCCE"/>
</g>
</svg>
