<svg fill="none" height="400" viewBox="0 0 600 400" width="600" xmlns="http://www.w3.org/2000/svg"><path clip-rule="evenodd" d="m205.456 325.603c1.177-1.023 2.763-1.438 4.29-1.123l17.455 3.599c4.602.949 5.473 7.146 1.31 9.326l-69.703 36.504c-.425.222-.897.339-1.376.339-2.744 0-4.018-3.406-1.947-5.206z" fill="#929292" fill-rule="evenodd"/><path clip-rule="evenodd" d="m389.76 322.29c-1.176-1.023-2.763-1.438-4.29-1.123l-17.454 3.599c-4.602.949-5.473 7.146-1.31 9.326l69.703 36.504c.425.222.897.339 1.376.339 2.744 0 4.017-3.406 1.946-5.206z" fill="#929292" fill-rule="evenodd"/><rect fill="#000" height="267.625" rx="4.5" stroke="#979797" width="450.983" x="74.5" y="80.6382"/><path d="m77.9102 83.911h444.162v261.079h-444.162z" fill="#4a689d"/><path d="m319.613 304.629 25.707-45.29c.38-.671 1.344-.677 1.733-.011l26.42 45.291c.389.666-.092 1.503-.864 1.503h-52.126c-.766 0-1.248-.827-.87-1.493z" fill="#abc4ed"/><path d="m348.835 270.585h-4.556v21.778h4.556zm-4.556 30.07h4.556v-4.71h-4.556z" fill="#4a689d"/><path d="m290.056 283.612 11.72-10.552-42.532-47.237-11.72 10.552c-10.994 9.899-13.418 25.774-6.803 38.327l-18.51 16.666c-3.059 2.755-3.298 7.475-.535 10.544 2.764 3.069 7.483 3.325 10.543.571l18.376-16.547c11.847 8.351 28.27 7.753 39.461-2.324z" fill="#abc4ed"/><path d="m299.435 201.61-6.004-6.668 13.215-11.899c11.064-9.963 27.165-10.769 38.974-2.892l21.993-19.803c3.079-2.772 7.815-2.531 10.578.538 2.764 3.069 2.509 7.804-.57 10.577l-21.859 19.682c7.051 12.668 4.68 28.993-6.584 39.135l-13.215 11.899-6.505-7.225-23.214 20.902c-3.079 2.772-7.814 2.531-10.578-.538-2.763-3.07-2.508-7.804.571-10.577l23.213-20.901-10.007-11.115-23.214 20.902c-3.079 2.772-7.815 2.531-10.578-.539-2.764-3.069-2.508-7.804.57-10.576z" fill="#abc4ed"/><path d="m77.6445 102.008h444.679v62.8746h-444.679z" fill="#709edc"/><g fill="#fff"><path d="m131.021 141.418c3.189 0 4.829-1.708 4.829-4.26 0-2.528-1.458-3.918-3.713-4.556l-1.868-.524c-1.64-.455-2.369-1.367-2.369-2.825 0-1.389 1.025-2.506 2.939-2.506 1.708 0 2.665 1.003 3.007 2.529h1.799c-.341-2.711-2.05-4.26-4.806-4.26-2.552 0-4.716 1.504-4.716 4.237 0 1.937.98 3.873 3.349 4.534l2.027.569c1.8.501 2.574 1.367 2.574 2.802 0 1.686-1.253 2.529-3.052 2.529-1.709 0-3.098-1.162-3.372-3.212h-1.799c.227 3.052 2.278 4.943 5.171 4.943z"/><path d="m142.106 139.778c-1.526 0-2.893-.98-2.893-2.939v-1.139h7.495v-1.982c0-3.462-2.415-4.601-4.602-4.601s-4.602 1.139-4.602 4.601v3.099c0 3.462 2.415 4.601 4.602 4.601 2.05 0 4.283-.979 4.579-3.918h-1.754c-.274 1.526-1.481 2.278-2.825 2.278zm2.893-5.65h-5.786v-.432c0-1.96 1.367-2.939 2.893-2.939s2.893.979 2.893 2.939z"/><path d="m150.728 129.436h-1.708v11.754h1.708v-7.381c0-1.959 1.367-2.938 2.893-2.938h.752v-1.64h-.752c-1.07 0-2.301.478-2.893 1.435z"/><path d="m160.59 141.19h-1.913l-4.238-11.754h1.823l3.371 9.545 3.372-9.545h1.822z"/><path d="m167.693 125.244h-1.709v2.21h1.709zm0 4.192h-1.709v11.754h1.709z"/><path d="m172.604 144.79h2.233l.82-3.44c1.754-.274 3.394-1.39 3.622-3.964h-1.731c-.228 1.595-1.481 2.392-2.848 2.392-1.526 0-2.893-.98-2.893-2.939v-3.143c0-1.96 1.367-2.939 2.893-2.939 1.367 0 2.62.797 2.848 2.392h1.731c-.251-3.03-2.506-4.032-4.579-4.032-2.187 0-4.602 1.139-4.602 4.601v3.099c0 3.189 2.005 4.396 4.033 4.578z"/><path d="m188.634 136.839c0 1.959-1.367 2.939-2.893 2.939-1.527 0-2.893-.98-2.893-2.939v-3.143c0-1.96 1.366-2.939 2.893-2.939 1.526 0 2.893.979 2.893 2.939zm1.708-3.121c0-3.462-2.414-4.601-4.601-4.601s-4.602 1.139-4.602 4.601v3.099c0 3.462 2.415 4.601 4.602 4.601s4.601-1.139 4.601-4.601z"/><path d="m199.454 138.525c0 .752.273 1.025 1.094 1.025h1.799v1.64h-1.799c-2.187 0-2.802-.797-2.802-2.802v-7.312h-1.663v-1.64h1.663v-2.666h1.708v2.666h2.893v1.64h-2.893z"/><path d="m208.562 139.778c-1.526 0-2.893-.98-2.893-2.939v-1.139h7.495v-1.982c0-3.462-2.415-4.601-4.602-4.601s-4.601 1.139-4.601 4.601v3.099c0 3.462 2.414 4.601 4.601 4.601 2.051 0 4.283-.979 4.579-3.918h-1.754c-.273 1.526-1.481 2.278-2.825 2.278zm2.893-5.65h-5.786v-.432c0-1.96 1.367-2.939 2.893-2.939 1.527 0 2.893.979 2.893 2.939z"/><path d="m231.491 141.19v-7.472c0-3.326-2.324-4.601-4.443-4.601-1.321 0-2.779.546-3.576 1.845-.797-1.299-2.233-1.845-3.554-1.845-.866 0-2.164.478-2.734 1.435v-1.116h-1.708v11.754h1.708v-7.494c0-1.891 1.344-2.939 2.734-2.939 1.344 0 2.711 1.048 2.711 2.802v7.631h1.709v-7.494c0-1.891 1.344-2.939 2.733-2.939 1.344 0 2.711 1.048 2.711 2.802v7.631z"/><path d="m238.66 141.418c2.187 0 4.602-1.139 4.602-4.601v-3.099c0-3.462-2.415-4.601-4.602-4.601-1.071 0-2.301.478-2.893 1.435v-1.116h-1.709v15.946h1.709v-5.399c.592.957 1.822 1.435 2.893 1.435zm2.893-4.579c0 1.959-1.367 2.939-2.893 2.939s-2.893-.98-2.893-2.939v-3.143c0-1.96 1.367-2.939 2.893-2.939s2.893.979 2.893 2.939z"/><path d="m252.853 136.839c0 1.959-1.367 2.939-2.893 2.939s-2.893-.98-2.893-2.939v-3.143c0-1.96 1.367-2.939 2.893-2.939s2.893.979 2.893 2.939zm1.709-3.121c0-3.462-2.415-4.601-4.602-4.601s-4.602 1.139-4.602 4.601v3.099c0 3.462 2.415 4.601 4.602 4.601s4.602-1.139 4.602-4.601z"/><path d="m258.693 129.436h-1.708v11.754h1.708v-7.381c0-1.959 1.367-2.938 2.893-2.938h.752v-1.64h-.752c-1.07 0-2.3.478-2.893 1.435z"/><path d="m267.744 130.757c1.527 0 2.893.979 2.893 2.939v.205c-1.981.136-3.667.273-5.011.66-2.051.593-2.552 2.187-2.552 3.372 0 2.415 1.891 3.485 3.896 3.485 1.594 0 2.916-.455 3.667-1.435v1.207h1.709v-7.472c0-3.462-2.415-4.601-4.602-4.601-2.05 0-4.282.979-4.579 3.918h1.755c.273-1.526 1.48-2.278 2.824-2.278zm2.893 6.196c0 1.845-1.457 2.825-3.303 2.825-1.731 0-2.551-.82-2.551-1.891 0-.683.159-1.207 1.025-1.686.797-.432 2.255-.592 4.829-.774z"/><path d="m276.637 129.436h-1.709v11.754h1.709v-7.381c0-1.959 1.366-2.938 2.893-2.938h.752v-1.64h-.752c-1.071 0-2.301.478-2.893 1.435z"/><path d="m283.406 125.244h-1.709v2.21h1.709zm0 4.192h-1.709v11.754h1.709z"/><path d="m290.277 130.757c1.526 0 2.893.979 2.893 2.939v.205c-1.982.136-3.668.273-5.012.66-2.05.593-2.551 2.187-2.551 3.372 0 2.415 1.89 3.485 3.895 3.485 1.595 0 2.916-.455 3.668-1.435v1.207h1.708v-7.472c0-3.462-2.414-4.601-4.601-4.601-2.051 0-4.283.979-4.579 3.918h1.754c.273-1.526 1.481-2.278 2.825-2.278zm2.893 6.196c0 1.845-1.458 2.825-3.303 2.825-1.732 0-2.552-.82-2.552-1.891 0-.683.16-1.207 1.025-1.686.798-.432 2.256-.592 4.83-.774z"/><path d="m313.475 141.19v-7.472c0-3.326-2.323-4.601-4.442-4.601-1.321 0-2.779.546-3.577 1.845-.797-1.299-2.232-1.845-3.553-1.845-.866 0-2.164.478-2.734 1.435v-1.116h-1.709v11.754h1.709v-7.494c0-1.891 1.344-2.939 2.734-2.939 1.344 0 2.711 1.048 2.711 2.802v7.631h1.708v-7.494c0-1.891 1.344-2.939 2.734-2.939 1.344 0 2.711 1.048 2.711 2.802v7.631z"/><path d="m320.325 139.778c-1.526 0-2.893-.98-2.893-2.939v-1.139h7.495v-1.982c0-3.462-2.415-4.601-4.602-4.601-2.186 0-4.601 1.139-4.601 4.601v3.099c0 3.462 2.415 4.601 4.601 4.601 2.051 0 4.283-.979 4.579-3.918h-1.754c-.273 1.526-1.48 2.278-2.825 2.278zm2.894-5.65h-5.787v-.432c0-1.96 1.367-2.939 2.893-2.939 1.527 0 2.894.979 2.894 2.939z"/><path d="m331.841 129.117c-1.071 0-2.301.478-2.893 1.435v-1.116h-1.709v11.754h1.709v-7.494c0-1.96 1.366-2.939 2.893-2.939 1.526 0 2.893.979 2.893 2.939v7.494h1.708v-7.472c0-3.462-2.414-4.601-4.601-4.601z"/><path d="m341.269 138.525c0 .752.273 1.025 1.094 1.025h1.799v1.64h-1.799c-2.187 0-2.802-.797-2.802-2.802v-7.312h-1.663v-1.64h1.663v-2.666h1.708v2.666h2.893v1.64h-2.893z"/><path d="m350.377 139.778c-1.526 0-2.893-.98-2.893-2.939v-1.139h7.495v-1.982c0-3.462-2.415-4.601-4.602-4.601s-4.601 1.139-4.601 4.601v3.099c0 3.462 2.414 4.601 4.601 4.601 2.051 0 4.283-.979 4.579-3.918h-1.754c-.273 1.526-1.481 2.278-2.825 2.278zm2.893-5.65h-5.786v-.432c0-1.96 1.367-2.939 2.893-2.939 1.527 0 2.893.979 2.893 2.939z"/><path d="m363.433 125.244h-1.709v2.21h1.709zm0 4.192h-1.709v11.754h1.709z"/><path d="m370.759 129.117c-1.07 0-2.301.478-2.893 1.435v-1.116h-1.708v11.754h1.708v-7.494c0-1.96 1.367-2.939 2.893-2.939 1.527 0 2.893.979 2.893 2.939v7.494h1.709v-7.472c0-3.462-2.415-4.601-4.602-4.601z"/><path d="m382.215 141.418c-2.187 0-4.602-1.139-4.602-4.601v-3.099c0-3.462 2.415-4.601 4.602-4.601 1.071 0 2.301.478 2.893 1.435v-5.308h1.709v15.946h-1.709v-1.207c-.592.957-1.822 1.435-2.893 1.435zm-2.893-4.579c0 1.959 1.367 2.939 2.893 2.939s2.893-.98 2.893-2.939v-3.143c0-1.96-1.367-2.939-2.893-2.939s-2.893.979-2.893 2.939z"/><path d="m391.26 125.244h-1.709v2.21h1.709zm0 4.192h-1.709v11.754h1.709z"/><path d="m401.73 132.875c-.182-2.619-1.936-3.758-4.305-3.758-2.165 0-3.964 1.253-3.964 3.417 0 2.096 1.617 2.961 2.893 3.257l2.301.57c1.298.319 1.64.979 1.64 1.731-.023 1.025-.775 1.686-2.415 1.686-1.572 0-2.802-.683-2.961-2.346h-1.754c.182 2.847 2.255 3.986 4.715 3.986 2.392 0 4.146-.957 4.146-3.28 0-2.164-1.23-3.053-3.007-3.486l-2.21-.546c-.956-.228-1.617-.661-1.617-1.641 0-1.07.934-1.708 2.21-1.708 1.458 0 2.369.752 2.574 2.118zm7.586 8.543c2.187 0 4.602-1.139 4.602-4.601v-3.099c0-3.462-2.415-4.601-4.602-4.601-1.071 0-2.301.478-2.893 1.435v-1.116h-1.709v15.946h1.709v-5.399c.592.957 1.822 1.435 2.893 1.435zm2.893-4.579c0 1.959-1.367 2.939-2.893 2.939s-2.893-.98-2.893-2.939v-3.143c0-1.96 1.367-2.939 2.893-2.939s2.893.979 2.893 2.939z"/><path d="m423.503 136.839c0 1.959-1.367 2.939-2.894 2.939-1.526 0-2.893-.98-2.893-2.939v-3.143c0-1.96 1.367-2.939 2.893-2.939 1.527 0 2.894.979 2.894 2.939zm1.708-3.121c0-3.462-2.415-4.601-4.602-4.601s-4.601 1.139-4.601 4.601v3.099c0 3.462 2.414 4.601 4.601 4.601s4.602-1.139 4.602-4.601z"/><path d="m432.236 129.117c-1.071 0-2.301.478-2.893 1.435v-1.116h-1.709v11.754h1.709v-7.494c0-1.96 1.367-2.939 2.893-2.939s2.893.979 2.893 2.939v7.494h1.709v-7.472c0-3.462-2.415-4.601-4.602-4.601z"/><path d="m441.117 129.436h-1.708v11.754h1.708zm-.523-4.192-1.755 2.939h1.527l2.688-2.939z"/><path d="m448.421 141.19h-1.913l-4.238-11.754h1.823l3.371 9.545 3.372-9.545h1.822z"/><path d="m458.053 139.778c-1.526 0-2.893-.98-2.893-2.939v-1.139h7.495v-1.982c0-3.462-2.415-4.601-4.602-4.601s-4.601 1.139-4.601 4.601v3.099c0 3.462 2.414 4.601 4.601 4.601 2.051 0 4.283-.979 4.579-3.918h-1.754c-.273 1.526-1.481 2.278-2.825 2.278zm2.893-5.65h-5.786v-.432c0-1.96 1.367-2.939 2.893-2.939 1.527 0 2.893.979 2.893 2.939z"/><path d="m466.63 138.525c0 .752.273 1.025 1.093 1.025h.365v1.64h-.365c-2.187 0-2.802-.797-2.802-2.802v-13.144h1.709z"/><path d="m470.295 141.19h2.392v-2.392h-2.392z"/></g></svg>