<svg width="600" height="400" viewBox="0 0 600 400" fill="none" xmlns="http://www.w3.org/2000/svg">
<path fill-rule="evenodd" clip-rule="evenodd" d="M208.752 329.472C209.929 328.449 211.515 328.034 213.042 328.349L229.308 331.703C233.91 332.651 234.78 338.849 230.618 341.029L163.821 376.011C163.412 376.225 162.956 376.337 162.494 376.337V376.337C159.847 376.337 158.619 373.052 160.616 371.316L208.752 329.472Z" fill="#929292"/>
<path fill-rule="evenodd" clip-rule="evenodd" d="M386.666 326.277C385.489 325.254 383.903 324.838 382.376 325.153L366.11 328.507C361.508 329.456 360.638 335.654 364.8 337.834L431.597 372.815C432.006 373.03 432.462 373.142 432.924 373.142V373.142C435.571 373.142 436.799 369.857 434.802 368.121L386.666 326.277Z" fill="#929292"/>
<rect x="82.5" y="93.5" width="435" height="258" rx="4.5" fill="black" stroke="#979797"/>
<path d="M303.255 268.085C316.81 270.752 336.779 268.847 336.779 245.083C336.779 206.895 364.925 201.166 349.251 178.099C330.274 150.171 266.21 156.376 255.906 197.291C246.801 233.543 271.588 261.856 303.255 268.085Z" fill="url(#paint0_linear)"/>
<path fill-rule="evenodd" clip-rule="evenodd" d="M324.361 201.325C323.623 203.119 321.892 204.286 319.975 204.282C318.719 204.28 317.516 203.772 316.629 202.87C315.743 201.969 315.246 200.747 315.248 199.474C315.249 197.53 316.406 195.779 318.178 195.037C319.95 194.296 321.989 194.71 323.342 196.086C324.696 197.463 325.098 199.531 324.361 201.325ZM315.206 222.183C315.206 214.263 317.375 207.84 320.039 207.84C322.7 207.84 324.86 214.259 324.86 222.183C324.86 230.107 322.703 236.522 320.039 236.522C317.375 236.522 315.206 230.103 315.206 222.183ZM298.525 207.84C290.592 207.84 285.316 214.206 285.316 222.183C285.316 230.16 290.577 236.53 298.525 236.53C306.473 236.53 311.704 230.172 311.704 222.183C311.704 214.194 306.436 207.825 298.525 207.825V207.84ZM292.888 222.149C292.888 225.981 294.888 229.768 298.525 229.768V229.753C302.148 229.753 304.162 225.985 304.162 222.149C304.162 218.312 302.148 214.628 298.525 214.628C294.903 214.628 292.888 218.316 292.888 222.149Z" fill="white"/>
<defs>
<linearGradient id="paint0_linear" x1="235.769" y1="214.054" x2="314.81" y2="282.748" gradientUnits="userSpaceOnUse">
<stop stop-color="#F5EA14"/>
<stop offset="0.01" stop-color="#F5E714"/>
<stop offset="0.14" stop-color="#F4C218"/>
<stop offset="0.28" stop-color="#F3A31B"/>
<stop offset="0.43" stop-color="#E78500"/>
<stop offset="0.58" stop-color="#ED5E0B"/>
<stop offset="0.75" stop-color="#E53C2B"/>
<stop offset="0.96" stop-color="#D50F75"/>
</linearGradient>
</defs>
</svg>
