<?xml version="1.0" encoding="UTF-8"?>
<svg width="591px" height="329px" viewBox="0 0 591 329" version="1.1" xmlns="http://www.w3.org/2000/svg" xmlns:xlink="http://www.w3.org/1999/xlink">
    <title>decodificador_desligar_tomada copy</title>
    <g id="Page-1" stroke="none" stroke-width="1" fill="none" fill-rule="evenodd">
        <g id="Group-Copy-2" transform="translate(184.707154, 2.500000)">
            <g id="Group-4-Copy-2" transform="translate(0.393500, 0.149814)">
                <path d="M70.290785,26.0802784 C74.7481076,8.38018419 90.0915835,-0.310420262 116.321213,0.00846506175 C116.321234,0.0108101241 116.321256,0.0131551737 116.321277,0.0155002105 L115.533181,0.0225762937 C142.465419,-0.30567397 158.1602,8.37904591 162.617523,26.0767359 C166.161094,40.1463995 163.284585,57.2564644 160.085024,74.3917641 L159.539702,77.3012278 C156.869318,91.5211112 154.21414,105.640759 155.062745,117.934962 C156.991395,145.876333 162.46251,220.603354 158.762628,254.097735 C155.062745,287.592116 146.306318,305.709012 136.074263,314.511637 C126.760469,322.524283 120.707422,322.961273 117.464692,322.975174 L117.068661,322.975209 C116.899306,322.974697 116.738811,322.973802 116.587095,322.973802 C116.541891,322.973802 116.497539,322.917254 116.454038,322.804158 C116.410584,322.917252 116.366417,322.973802 116.321213,322.973802 C113.362749,322.973802 107.0661,323.358183 96.834045,314.554363 C86.6019902,305.750542 77.8455623,287.800268 74.1456801,254.132254 C70.4457979,220.46424 75.9169131,145.89615 77.8455623,117.950983 C78.617022,106.772917 76.4927921,94.0860132 74.0938938,81.186624 L73.7323267,79.250284 C73.6718313,78.9273491 73.6112463,78.6043218 73.5506124,78.2812226 L73.0046954,75.3719312 L73.0046954,75.3719312 L72.6425627,73.4318629 C69.5174604,56.6195745 66.8140734,39.8863519 70.290785,26.0802784 Z" id="Combined-Shape" fill="#645E5E"></path>
                <g id="Group-3" transform="translate(0.000000, 184.265053)">
                    <rect id="Rectangle" fill="#343030" x="91.3692435" y="19.0320317" width="48.4664687" height="80.9134367" rx="5"></rect>
                    <g id="Group" transform="translate(96.081261, 23.791646)">
                        <rect id="Rectangle-Copy-2" fill="#CDC2C2" transform="translate(8.750890, 2.719779) scale(1, -1) translate(-8.750890, -2.719779) " x="5.38516318" y="0" width="6.73145398" height="5.43955877" rx="2.71977939"></rect>
                        <rect id="Rectangle-Copy" fill="#F3EDED" x="0" y="2.71977939" width="17.5017803" height="69.3543743" rx="5"></rect>
                    </g>
                    <g id="Group-Copy" transform="translate(115.123694, 60.045744) rotate(-180.000000) translate(-115.123694, -60.045744) translate(95.123694, 23.545744)">
                        <rect id="Rectangle-Copy-2" fill="#CDC2C2" transform="translate(8.750890, 2.719779) scale(1, -1) translate(-8.750890, -2.719779) " x="5.38516318" y="0" width="6.73145398" height="5.43955877" rx="2.71977939"></rect>
                        <rect id="Rectangle-Copy" fill="#F3EDED" x="0" y="2.71977939" width="17.5017803" height="69.3543743" rx="5"></rect>
                        <g id="Group-2" transform="translate(0.000000, 15.638731)">
                            <rect id="Rectangle-Copy-4" fill="#B5AEAE" x="0" y="0" width="17.5017803" height="40.1167459"></rect>
                            <rect id="Rectangle-Copy-5" fill="#5974A0" x="0" y="37.3969666" width="17.5017803" height="2.71977939"></rect>
                            <rect id="Rectangle-Copy-6" fill="#5974A0" x="0" y="0" width="17.5017803" height="2.71977939"></rect>
                        </g>
                        <g id="Group-2-Copy" transform="translate(21.540653, 15.638731)">
                            <rect id="Rectangle-Copy-4" fill="#B5AEAE" x="0" y="0" width="17.5017803" height="40.1167459"></rect>
                            <rect id="Rectangle-Copy-5" fill="#5974A0" x="0" y="37.3969666" width="17.5017803" height="2.71977939"></rect>
                            <rect id="Rectangle-Copy-6" fill="#5974A0" x="0" y="0" width="17.5017803" height="2.71977939"></rect>
                        </g>
                    </g>
                    <rect id="Rectangle" stroke="#D1C7C7" x="97.9275521" y="92.2861303" width="13.8091988" height="1" rx="0.5"></rect>
                    <rect id="Rectangle-Copy-3" stroke="#D1C7C7" x="119.468205" y="27.6913699" width="13.8091988" height="1" rx="0.5"></rect>
                    <path d="M53.7500389,64.5875031 C45.179398,65.2968116 37.011362,65.9720725 28.0070964,66.7175777 C30.1325626,64.3418718 31.7767548,62.5035622 33.8054191,60.23751 C22.2451303,57.6772286 12.4199818,60.4087722 3.41914177,67.876712 C7.78585103,56.0636632 20.9028919,49.6174693 39.1933991,50.1376895 C39.8872249,47.6768834 40.6022316,45.1379272 41.4995661,41.9540355 C43.7740335,46.1264383 45.7833534,49.7919873 47.7730829,53.4684696 C49.7259818,57.075838 51.6579419,60.6941447 53.7500389,64.5875031" id="Fill-62" fill="#00C0D2" transform="translate(28.584590, 54.915374) scale(-1, 1) rotate(-203.000000) translate(-28.584590, -54.915374) "></path>
                    <path d="M63.6919674,28.7772202 C55.1294757,29.4776336 46.9692054,30.1444168 37.9735016,30.8805772 C40.0945375,28.5051807 41.735302,26.6671099 43.7597392,24.4013543 C32.2065902,21.8260429 22.3928849,24.5490434 13.4079668,32.0134379 C17.7579813,20.1950482 30.8566787,13.7578462 49.1320225,14.2988026 C49.8225562,11.8366445 50.534167,9.2962925 51.4272424,6.11065118 C53.7043232,10.289174 55.7159296,13.9601119 57.7079744,17.6419709 C59.6631444,21.2546155 61.5974057,24.8781847 63.6919674,28.7772202" id="Fill-62-Copy" fill="#00C0D2" transform="translate(38.549967, 19.062045) scale(-1, 1) rotate(-15.000000) translate(-38.549967, -19.062045) "></path>
                </g>
                <ellipse id="Oval" fill="#363232" cx="116.454154" cy="6.79944846" rx="6.05830858" ry="2.03983454"></ellipse>
                <ellipse id="Oval-Copy" fill="#423D3D" cx="80.4408751" cy="37.0569941" rx="2.69258159" ry="3.05975181"></ellipse>
                <ellipse id="Oval-Copy-2" fill="#423D3D" cx="153.477151" cy="37.0569941" rx="2.69258159" ry="3.05975181"></ellipse>
                <ellipse id="Oval-Copy-4" fill="#423D3D" cx="80.4408751" cy="250.559676" rx="2.69258159" ry="3.05975181"></ellipse>
                <ellipse id="Oval-Copy-3" fill="#423D3D" cx="153.477151" cy="250.559676" rx="2.69258159" ry="3.05975181"></ellipse>
                <path d="M86.1626109,13.5988969 L147.283424,13.5988969 C134.064181,15.4820254 123.32497,16.4235897 115.065791,16.4235897 C106.806613,16.4235897 97.1722195,15.4820254 86.1626109,13.5988969 Z" id="Path-5" fill="#2C2C2C"></path>
            </g>
        </g>
    </g>
</svg>