<?xml version="1.0" encoding="UTF-8"?>
<svg width="592px" height="405px" viewBox="0 0 592 405" version="1.1" xmlns="http://www.w3.org/2000/svg" xmlns:xlink="http://www.w3.org/1999/xlink">
    <title>69_ts_tv_cabo_coaxial copy 29</title>
    <defs>
        <linearGradient x1="50%" y1="0%" x2="50%" y2="100%" id="linearGradient-1">
            <stop stop-color="#0D094F" offset="0%"></stop>
            <stop stop-color="#3177D7" offset="100%"></stop>
        </linearGradient>
        <linearGradient x1="50%" y1="0%" x2="50%" y2="100%" id="linearGradient-2">
            <stop stop-color="#B5B5B5" offset="0%"></stop>
            <stop stop-color="#9D9D9D" offset="100%"></stop>
        </linearGradient>
        <rect id="path-3" x="2.84217094e-13" y="0.223078383" width="487.432789" height="286.513716"></rect>
    </defs>
    <g id="Page-1" stroke="none" stroke-width="1" fill="none" fill-rule="evenodd">
        <g id="Group-8" transform="translate(47.000000, 42.000000)">
            <g id="Group" transform="translate(0.785551, 0.000000)">
                <path d="M118.856512,264.912814 L135.680727,252.07349 C137.875938,250.398225 141.013578,250.819724 142.688843,253.014935 C143.598584,254.207029 143.925247,255.744502 143.578776,257.203501 L123.4121,342.126024 C123.225421,342.912137 122.851014,343.641302 122.320934,344.251088 L120.008877,346.910806 C119.364826,347.651702 118.242105,347.73021 117.501209,347.086159 C117.112848,346.748562 116.889847,346.259232 116.889847,345.744649 L116.889847,268.887594 C116.889847,267.32851 117.617109,265.858658 118.856512,264.912814 Z" id="Rectangle-Copy-2" fill="#929292" transform="translate(130.301975, 299.285101) rotate(49.000000) translate(-130.301975, -299.285101) "></path>
                <path d="M349.037945,261.27705 L365.862161,248.437726 C368.057371,246.762461 371.195011,247.18396 372.870276,249.379171 C373.780018,250.571265 374.106681,252.108738 373.76021,253.567737 L353.593534,338.49026 C353.406854,339.276374 353.032447,340.005538 352.502368,340.615324 L350.19031,343.275042 C349.54626,344.015938 348.423538,344.094446 347.682642,343.450395 C347.294282,343.112799 347.071281,342.623468 347.071281,342.108885 L347.071281,265.25183 C347.071281,263.692746 347.798542,262.222895 349.037945,261.27705 Z" id="Rectangle-Copy-3" fill="#929292" transform="translate(360.483408, 295.649337) scale(-1, 1) rotate(49.000000) translate(-360.483408, -295.649337) "></path>
                <rect id="Rectangle" stroke="#979797" fill="#000000" x="0.5" y="0.5" width="495.01652" height="293.794459" rx="5"></rect>
                <rect id="Rectangle-Copy" fill="url(#linearGradient-1)" x="4.2918655" y="4.14037162" width="487.432789" height="286.513716"></rect>
            </g>
            <g id="Bitmap" transform="translate(5.077416, 3.917293)">
                <mask id="mask-4" fill="white">
                    <use xlink:href="#path-3"></use>
                </mask>
                <use id="Mask" fill="url(#linearGradient-2)" xlink:href="#path-3"></use>
                <g id="Group-45" mask="url(#mask-4)">
                    <g transform="translate(391.338868, 171.205476) rotate(5.000000) translate(-391.338868, -171.205476) translate(252.338868, 24.205476)">
                        <g id="Group-37" stroke-width="1" fill="none" transform="translate(-0.000000, -0.000000)">
                            <path d="M130.372623,16.3372698 C137.010175,5.65916307 143.398766,0.320109699 149.538396,0.320109699 C158.747841,0.320109699 191.906362,-2.40438283 255.195382,53.3776226 C297.388062,90.5656262 255.780476,78.2188419 130.372623,16.3372698 Z" id="Path-9" fill="#5F5F5F"></path>
                            <path d="M98.3010547,50.1236444 C110.093135,40.4774308 118.47869,32.4347808 123.45772,25.9956942 C130.926264,16.3370644 129.946716,7.67124861 146.018326,7.67124861 C162.089936,7.67124861 233.683118,45.7589969 260.625006,69.2257219 C278.586264,84.8702052 282.362939,112.377569 271.95503,151.747813 L98.3010547,50.1236444 Z" id="Path-8" fill="#000000"></path>
                            <path d="M4.69886385,67.5670681 C1.89911676,59.0866277 37.5803496,42.8143429 94.8566187,42.8143429 C133.040798,42.8143429 187.139813,73.2820708 257.153664,134.217527 L257.153664,224.863256 C130.815346,167.071221 46.6637463,114.639159 4.69886385,67.5670681 Z" id="Path-7" fill="#5E5E5E"></path>
                            <path d="M57.7170692,141.385771 C31.6773276,112.576343 14.6498253,94.7310125 6.6345623,87.8497784 C-5.38833222,77.5279271 0.264832779,62.1613882 12.9360333,60.9518538 C48.7358495,54.5583623 66.9213875,53.3828387 103.131922,70.6163085 C139.342456,87.8497784 178.676178,120.55229 209.237667,154.973977 C229.611992,177.921768 250.51778,195.482021 271.95503,207.654738 L271.95503,282.134068 L155.033373,293.672807 L57.7170692,141.385771 Z" id="Path-5" fill="#000000"></path>
                            <path d="M69.4394447,92.7412149 C57.5374025,93.0605256 57.5374025,99.9440465 56.6171818,113.460099 C55.6969611,126.976152 38.3690491,137.956343 22.933775,142.165605 C15.9388359,144.073153 13.9079084,151.769168 25.3177819,161.179191 C36.7276554,170.589213 29.5655829,173.903986 25.3177819,179.300129 C21.4651664,182.621974 30.9974658,196.7831 33.783262,198.324286 C36.5690582,199.865473 26.9596624,192.467958 26.9596624,201.827474 C26.9596624,211.186991 33.9135094,207.811965 32.3682101,212.544444 C30.8229107,217.276923 25.5074,217.624261 26.9596624,224.650765 C28.4119248,231.67727 43.5999843,243.868654 59.420695,247.933039 C75.2414057,251.997424 84.2553565,253.069564 86.4909013,261.006945 C87.9812645,266.298532 89.0997753,270.146717 89.8464337,272.5515 L127.302221,272.5515 C139.137702,267.652736 147.121748,263.804551 151.254361,261.006945 C155.386973,258.209339 150.337578,249.74534 136.106174,235.614948 L157.72796,177.543946 L170.540476,122.269369 C134.195927,101.750752 100.495583,91.9080337 69.4394447,92.7412149 Z" id="Path-3" fill="#D8D8D8"></path>
                        </g>
                        <path d="M100.990766,94.3629012 C108.861102,96.279424 112.79627,101.208174 112.79627,109.149151 C112.79627,121.060616 107.842827,154.995626 123.445249,151.747813 C139.047672,148.5 157.03874,160.135839 144.091797,181.419566 C131.144854,202.703293 115.309402,215.034731 126.734827,232.013925 C134.351776,243.333388 140.137433,249.126513 144.091797,249.393302 C137.972012,245.738009 134.912119,241.572159 134.912119,236.895752 C134.912119,232.219345 137.972012,233.381827 144.091797,240.383196 C150.246411,247.612778 153.323719,253.066119 153.323719,256.743221 C153.323719,260.420322 153.323719,262.763978 153.323719,263.774188 L163.579257,261.686395 L167.233616,274.79965 L254.251751,272.406349 L257.153664,199.034194 C236.07602,174.539087 208.156537,148.09198 173.395215,119.692872 C161.380558,110.18039 137.245742,101.737067 100.990766,94.3629012 Z" id="Path-11" fill="#303030"></path>
                    </g>
                </g>
                <g id="Group-46" mask="url(#mask-4)">
                    <g transform="translate(-34.393635, -12.000000)">
                        <path d="M179.149775,260.610497 C184.331828,269.994104 191.507052,282.689782 200.675447,298.697531 C209.843842,314.70528 183.645155,317.764817 122.079385,307.876144 L126.886747,255.144153 L179.149775,260.610497 Z" id="Path-17" stroke="none" fill="#525252"></path>
                        <polygon id="Path-10" stroke="#979797" stroke-width="1" fill="#525252" points="26.516662 202.412163 56.6611828 240.737324 82.3102158 278.186852 94.8688098 307.876144 26.516662 302.704612"></polygon>
                        <path d="M46.7147999,229.471613 C64.6839128,245.397579 80.7352494,257.555576 94.8688098,265.945602 C109.00237,274.335628 119.003055,281.699176 124.870864,288.036247 L126.886747,291.936742 L126.886747,299.93004 L83.4236085,302.65746 L64.6110393,267.641801 L46.7147999,229.471613 Z" id="Path-12" stroke="none" fill="#FFFFFF"></path>
                        <polygon id="Path-13" stroke="none" fill="#FFFFFF" points="137.002115 268.702667 134.070682 268.702667 122.079385 276.587425 125.511331 285.946785 126.886747 288.393269 131.256723 288.393269 135.712819 293.75112 137.002115 300.131544 139.09074 300.131544 139.09074 293.75112 137.002115 288.393269 137.002115 275.211017"></polygon>
                        <path d="M122.490011,288.990252 C129.030694,285.941488 132.890918,279.178959 134.070682,268.702667 C131.033037,268.702667 134.154368,268.702667 143.434675,268.702667 C157.355136,268.702667 169.689903,271.060248 177.783695,266.064536 C185.877488,261.068825 192.573422,253.458645 191.674961,248.989664 C190.7765,244.520683 184.735249,239.449025 186.081629,237.34093 C187.760307,233.237585 198.006707,231.184473 201.948625,223.787063 C203.310824,221.630861 201.874164,218.919512 197.638645,215.653017 C201.41134,215.502165 204.185586,214.185424 205.961383,211.702793 C208.033203,208.806311 205.751121,203.857239 205.961383,198.949328 C206.203973,193.286831 206.586737,188.603549 207.109676,184.899481 L212.101087,184.899481 L217.586509,183.993194 C220.769119,182.034701 222.940849,179.838836 224.101697,177.405599 C225.262546,174.972362 224.951831,173.015275 223.16955,171.534337 L207.109676,133.866735 L205.961383,119.002995 L207.109676,113.648421 L56.1703976,124.096061 L26.516662,129.88156 L19.3702686,195.500923 L64.6110393,267.641801 L122.490011,288.990252 Z" id="Path-14" stroke="none" fill="#D8D8D8"></path>
                        <polygon id="Path-20" stroke="none" fill="#5E5E5E" points="26.516662 70.3706109 26.516662 11.9067624 189.485647 0 185.585527 36.0022287"></polygon>
                        <path d="M27.1303974,138.292994 C90.1466995,125.852483 148.968384,118.374762 203.59545,115.859832 C285.53605,112.087437 278.60177,76.2055658 276.964123,68.2699562 C275.326476,60.3343465 257.797023,31.1839143 215.388381,36.721714 C187.115953,40.4135804 122.052539,66.7929531 20.1981379,115.859832 L27.1303974,138.292994 Z" id="Path-15" stroke="none" fill="#5E5E5E"></path>
                        <path d="M27.8612119,115.954351 C133.750795,84.9741915 191.974259,65.401847 202.531602,57.2373176 C213.088945,49.0727882 216.619553,45.1985443 213.123424,45.6145859 C206.062209,34.7207081 202.531602,22.2521018 202.531602,8.20876696 C202.531602,-5.83456786 183.394837,-1.85918679 145.121307,20.1349102 C104.096193,40.5163522 65.0094944,54.9031173 27.8612119,63.2952053 C-9.28707063,71.6872934 -9.28707063,89.240342 27.8612119,115.954351 Z" id="Path-16" stroke="none" fill="#000000"></path>
                        <path d="M125.471068,288.990252 C125.019422,288.558578 124.819354,288.240576 124.870864,288.036247 C124.988187,287.570855 125.933971,287.072099 126.074813,287.057566 C126.308409,287.033463 126.672786,287.619328 127.167945,288.815163 L131.256723,288.393269 C132.906951,289.863181 134.392316,291.649131 135.712819,293.75112 C137.033323,295.853109 137.463088,297.979917 137.002115,300.131544 L136.491728,301.682081 C139.485869,308.752195 140.585383,312.287251 139.790269,312.287251 C139.091362,312.287251 134.498077,321.216764 131.405405,315.777541 C131.121594,315.27839 130.466886,310.579903 129.441281,301.682081 L126.886747,300.131544 L125.471068,288.990252 Z" id="Path-18" stroke="none" fill="#000000"></path>
                        <path d="M134.070682,268.702667 C89.0342639,254.172271 63.2158458,244.001164 56.6154274,238.189344 C46.7147999,229.471613 81.9950173,276.21169 97.7060942,280.481964 C112.710537,284.560175 117.862651,288.293163 122.490011,288.990252 C122.776069,289.033345 122.923165,288.742984 123.21794,288.620474 C129.046247,286.198193 132.663827,279.558924 134.070682,268.702667 Z" id="Path-19" stroke="none" fill="#ACACAC"></path>
                        <path d="M26.516662,138.292994 C89.9928017,146.096609 130.816258,152.453677 148.98703,157.364198 C167.157802,162.274718 182.773756,162.274718 195.834892,157.364198 C203.129585,148.68951 208.273056,144.352167 211.265303,144.352167 C209.547668,139.575705 208.162459,136.080561 207.109676,133.866735 L205.961383,119.002995 L206.638584,115.535706 C186.820214,116.813412 172.765083,117.812567 164.473192,118.533169 C136.467956,120.96695 116.148293,123.5426 102.02493,125.469941 C81.6290231,128.253262 56.4596003,132.527613 26.516662,138.292994 Z" id="Path-21" stroke="none" fill="#383838" opacity="0.100000001"></path>
                    </g>
                </g>
            </g>
        </g>
        <g id="-Connections" transform="translate(-8803.400000, -1964.000000)"></g>
    </g>
</svg>