<?xml version="1.0" encoding="UTF-8"?>
<svg width="76px" height="74px" viewBox="0 0 76 74" version="1.1" xmlns="http://www.w3.org/2000/svg" xmlns:xlink="http://www.w3.org/1999/xlink">
    <!-- Generator: Sketch 53 (72520) - https://sketchapp.com -->
    <title>Slice</title>
    <desc>Created with Sketch.</desc>
    <g id="Não-faz-chamada" stroke="none" stroke-width="1" fill="none" fill-rule="evenodd">
        <g id="Group-10-Copy" transform="translate(0.000000, 14.000000)">
            <g id="Group-5-Copy" stroke="#595959">
                <g id="Group-2">
                    <rect id="Rectangle" stroke-width="2" x="1" y="1" width="25" height="44" rx="6"></rect>
                    <circle id="Oval" cx="12.7952365" cy="40.1573675" r="2.03888882"></circle>
                    <rect id="Rectangle-Copy-3" fill="#979797" x="8.5" y="4.5" width="10" height="1" rx="0.5"></rect>
                </g>
                <rect id="Rectangle-Copy-2" stroke-width="2" x="49" y="1" width="25" height="44" rx="6"></rect>
                <g id="Group-4" transform="translate(31.500000, 15.986165)" fill="#979797">
                    <rect id="Rectangle-Copy-3" x="0.5" y="6.01383464" width="10" height="1" rx="0.5"></rect>
                    <g id="Group-3" transform="translate(6.857585, 6.500000) rotate(-315.000000) translate(-6.857585, -6.500000) translate(2.357585, 2.000000)">
                        <rect id="Rectangle-Copy-5" transform="translate(7.882324, 4.325846) rotate(-90.000000) translate(-7.882324, -4.325846) " x="4.0764974" y="4.07584635" width="7.61165365" height="1" rx="0.5"></rect>
                        <rect id="Rectangle-Copy-6" transform="translate(4.305827, 0.750000) rotate(-180.000000) translate(-4.305827, -0.750000) " x="0.5" y="0.5" width="7.61165365" height="1" rx="0.5"></rect>
                    </g>
                </g>
                <rect id="Rectangle" fill="#D8D8D8" x="56.5" y="4.5" width="10" height="1" rx="0.5"></rect>
                <rect id="Rectangle-Copy-4" x="57.2145996" y="38.6184787" width="8.57080078" height="3.07777764" rx="1"></rect>
            </g>
            <path d="M61.214,34.8384566 L61.214,32.4724566 C59.5673251,32.3511226 58.2846713,31.7401287 57.366,30.6394566 C56.4473287,29.5387844 55.9620003,28.1911312 55.91,26.5964566 L58.64,26.5964566 C58.6920003,27.4977944 58.9433311,28.2344537 59.394,28.8064566 C59.8446689,29.3784594 60.4513295,29.7251226 61.214,29.8464566 L61.214,24.3084566 L59.94,23.8144566 C58.7959943,23.3811211 57.8860034,22.7571273 57.21,21.9424566 C56.5339966,21.1277858 56.196,20.0704631 56.196,18.7704566 C56.196,17.262449 56.6683286,16.0794609 57.613,15.2214566 C58.5576714,14.3634523 59.7579927,13.8911237 61.214,13.8044566 L61.214,11.4384566 L62.332,11.4384566 L62.332,13.8044566 C63.736007,13.9257905 64.8539958,14.4501186 65.686,15.3774566 C66.5180042,16.3047945 66.9859995,17.4791161 67.09,18.9004566 L64.36,18.9004566 C64.2733329,18.25912 64.0610017,17.7217921 63.723,17.2884566 C63.3849983,16.8551211 62.9213363,16.5777905 62.332,16.4564566 L62.332,21.7604566 L63.684,22.2804566 C65.0533402,22.8177926 66.0109973,23.5241189 66.557,24.3994566 C67.1030027,25.2747943 67.376,26.3104506 67.376,27.5064566 C67.376,28.9104636 66.9600042,30.067452 66.128,30.9774566 C65.2959958,31.8874611 64.0306752,32.3857895 62.332,32.4724566 L62.332,34.8384566 L61.214,34.8384566 Z M62.41,24.7764566 L62.332,24.7504566 L62.332,29.8464566 C63.0773371,29.7771229 63.6493313,29.5301254 64.048,29.1054566 C64.4466687,28.6807878 64.646,28.1477931 64.646,27.5064566 C64.646,26.9691206 64.4900016,26.4621256 64.178,25.9854566 C63.8659984,25.5087875 63.276671,25.1057916 62.41,24.7764566 Z M58.926,18.7704566 C58.926,19.4637934 59.1296646,19.9924548 59.537,20.3564566 C59.9443354,20.7204584 60.4339971,21.0151221 61.006,21.2404566 L61.214,21.3184566 L61.214,16.4304566 C60.4513295,16.5171237 59.8793352,16.7771211 59.498,17.2104566 C59.1166648,17.6437921 58.926,18.1637869 58.926,18.7704566 Z" id="$" fill="#595959" fill-rule="nonzero"></path>
        </g>
    </g>
</svg>