<?xml version="1.0" encoding="UTF-8"?>
<svg width="600px" height="329px" viewBox="0 0 600 329" version="1.1" xmlns="http://www.w3.org/2000/svg" xmlns:xlink="http://www.w3.org/1999/xlink">
    <!-- Generator: Sketch 53 (72520) - https://sketchapp.com -->
    <title>Slice Copy 3</title>
    <desc>Created with Sketch.</desc>
    <g id="Page-1" stroke="none" stroke-width="1" fill="none" fill-rule="evenodd">
        <g id="Group-6" transform="translate(41.000000, 5.000000)">
            <g id="Group-4">
                <g id="Group-3">
                    <g id="Group-2" transform="translate(302.000000, 0.000000)">
                        <g id="Group">
                            <path d="M26.8312,217.8879 C42.2272,217.9589 50.3732,233.0539 56.7372,244.8799 C63.2502,256.9849 70.4172,268.5539 83.5552,274.1849 C97.2072,280.0339 112.9482,282.3959 127.6742,283.4779 C140.6502,284.4319 154.8162,284.6479 167.3542,280.6329 C179.8852,276.6209 188.2512,268.0679 192.9202,255.8659 C197.4582,244.0039 199.1092,229.8799 190.9092,219.2139 C184.4252,210.7799 174.2292,206.8579 166.6772,199.6389 C156.6232,190.0299 158.1152,176.3049 167.2292,166.7839 C175.5582,158.0839 186.6212,152.4259 194.3662,143.1099 C203.7122,131.8659 205.0472,117.8429 203.0952,103.8149 C202.3442,98.4179 194.1492,100.7149 194.8952,106.0749 C196.7102,119.1249 194.4962,131.3879 184.8942,140.8339 C177.8172,147.7979 169.1252,152.8749 162.0902,159.8829 C154.6522,167.2919 149.8582,176.9039 151.2812,187.6299 C152.8142,199.1919 160.7382,206.5369 169.8562,212.7849 C179.4362,219.3499 188.7482,225.4909 188.2422,238.4669 C187.7312,251.5379 181.1592,265.5879 168.7992,271.0399 C156.8512,276.3119 142.3152,275.8979 129.5602,275.1029 C115.2492,274.2099 99.3902,272.0939 86.2082,266.1269 C71.8392,259.6229 66.6202,244.0289 58.9822,231.4589 C51.9002,219.8039 41.2952,209.4499 26.8312,209.3839 C21.3582,209.3589 21.3512,217.8629 26.8312,217.8879" id="Fill-64" fill="#0A0909"></path>
                            <path d="M79.652,116.967 L3.741,116.967 C1.683,116.967 2.84217094e-14,115.283 2.84217094e-14,113.226 L2.84217094e-14,3.741 C2.84217094e-14,1.684 1.683,2.77111667e-13 3.741,2.77111667e-13 L79.652,2.77111667e-13 C81.71,2.77111667e-13 83.393,1.684 83.393,3.741 L83.393,113.226 C83.393,115.283 81.71,116.967 79.652,116.967" id="Fill-65" fill="#E6E6E6"></path>
                            <path d="M69.8341,73.4885 L13.5591,73.4885 C12.0341,73.4885 10.7871,72.2405 10.7871,70.7165 L10.7871,46.2505 C10.7871,44.7255 12.0341,43.4785 13.5591,43.4785 L69.8341,43.4785 C71.3581,43.4785 72.6061,44.7255 72.6061,46.2505 L72.6061,70.7165 C72.6061,72.2405 71.3581,73.4885 69.8341,73.4885" id="Fill-66" fill="#CFCFCF"></path>
                            <path d="M56.735,49.1057 L67.005,56.1837 C68.616,57.2937 68.616,59.6727 67.005,60.7837 L56.735,67.8607 C56.269,68.1817 55.716,68.3547 55.15,68.3547 L28.243,68.3547 C27.677,68.3547 27.124,68.1817 26.658,67.8607 L16.388,60.7837 C14.777,59.6727 14.777,57.2937 16.388,56.1837 L26.658,49.1057 C27.124,48.7847 27.677,48.6127 28.243,48.6127 L55.15,48.6127 C55.716,48.6127 56.269,48.7847 56.735,49.1057" id="Fill-67" fill="#E0E0E0"></path>
                            <path d="M32.2614,56.3322 C32.2614,57.6682 31.1784,58.7502 29.8434,58.7502 C28.5074,58.7502 27.4244,57.6682 27.4244,56.3322 C27.4244,54.9962 28.5074,53.9132 29.8434,53.9132 C31.1784,53.9132 32.2614,54.9962 32.2614,56.3322" id="Fill-68" fill="#5A5657"></path>
                            <path d="M54.2404,54.0139 C55.5204,54.3959 56.2484,55.7429 55.8674,57.0229 C55.4854,58.3029 54.1384,59.0319 52.8584,58.6499 C51.5784,58.2679 50.8504,56.9209 51.2314,55.6409 C51.6134,54.3619 52.9604,53.6329 54.2404,54.0139" id="Fill-69" fill="#5A5657"></path>
                            <path d="M44.1144,60.635 C44.1144,61.971 43.0314,63.054 41.6964,63.054 C40.3604,63.054 39.2774,61.971 39.2774,60.635 C39.2774,59.3 40.3604,58.217 41.6964,58.217 C43.0314,58.217 44.1144,59.3 44.1144,60.635" id="Fill-70" fill="#5A5657"></path>
                            <path d="M146.5856,77.5549 L128.9306,77.5549 C126.8776,77.5549 125.1966,75.8739 125.1966,73.8209 C125.1966,71.7669 126.8776,70.0869 128.9306,70.0869 L146.5856,70.0869 C148.6396,70.0869 150.3196,71.7669 150.3196,73.8209 C150.3196,75.8739 148.6396,77.5549 146.5856,77.5549" id="Fill-72" fill="#CFCFCF"></path>
                            <path d="M146.5856,56.7502 L128.9306,56.7502 C126.8776,56.7502 125.1966,55.0692 125.1966,53.0162 C125.1966,50.9622 126.8776,49.2822 128.9306,49.2822 L146.5856,49.2822 C148.6396,49.2822 150.3196,50.9622 150.3196,53.0162 C150.3196,55.0692 148.6396,56.7502 146.5856,56.7502" id="Fill-73" fill="#CFCFCF"></path>
                            <polygon id="Fill-74" fill="#232323" points="173.5922 125.6502 229.2922 125.6502 229.2922 33.2682 173.5922 33.2682"></polygon>
                            <polygon id="Fill-75" fill="#303030" points="164.7022 125.6502 173.5922 125.6502 173.5922 33.2682 164.7022 33.2682"></polygon>
                            <polygon id="Fill-76" fill="#232323" points="145.3602 84.9582 165.0172 84.9582 165.0172 42.1812 145.3602 42.1812"></polygon>
                            <path d="M125.4412,30.4382 C114.2412,31.3182 103.5672,32.1562 91.8002,33.0812 C94.5682,30.0072 96.7092,27.6292 99.3492,24.6972 C84.2262,21.3192 71.3962,24.8182 59.6652,34.4702 C65.3182,19.1572 82.4342,10.8502 106.3452,11.6122 C107.2402,8.4202 108.1632,5.1282 109.3212,1.0002 C112.3142,6.4262 114.9582,11.1942 117.5762,15.9762 C120.1452,20.6672 122.6892,25.3742 125.4412,30.4382" id="Fill-77" fill="#00BCCE"></path>
                            <path d="M128.230262,115.555388 C117.030262,116.435388 106.356262,117.273388 94.5892625,118.198388 C97.3572625,115.124388 99.4982625,112.746388 102.138262,109.814388 C87.0152625,106.436388 74.1852625,109.935388 62.4542625,119.587388 C68.1072625,104.274388 85.2232625,95.9673875 109.134262,96.7293875 C110.029262,93.5373875 110.952262,90.2453875 112.110262,86.1173875 C115.103262,91.5433875 117.747262,96.3113875 120.365262,101.093388 C122.934262,105.784388 125.478262,110.491388 128.230262,115.555388" id="Fill-77-Copy" fill="#00BCCE" transform="translate(95.342262, 102.852388) rotate(-180.000000) translate(-95.342262, -102.852388) "></path>
                        </g>
                    </g>
                    <path d="M2.394,87.136 L1.358,88.536 L0.63,88.004 L1.652,86.604 L-1.42108547e-13,86.058 L0.28,85.204 L1.932,85.736 L1.932,84 L2.842,84 L2.842,85.736 L4.494,85.204 L4.774,86.058 L3.122,86.604 L4.144,88.004 L3.416,88.536 L2.394,87.136 Z M9.982,93.8 L9.982,84 L11.06,84 L11.06,93.8 L9.982,93.8 Z M23.072,93.8 L22.022,93.8 L22.022,89.11 C22.022,88.5779973 21.8470017,88.1580015 21.497,87.85 C21.1469982,87.5419985 20.7666687,87.388 20.356,87.388 C19.9266645,87.388 19.5393351,87.5443318 19.194,87.857 C18.8486649,88.1696682 18.676,88.6153304 18.676,89.194 L18.676,93.8 L17.626,93.8 L17.626,89.11 C17.626,88.5779973 17.4510017,88.1580015 17.101,87.85 C16.7509982,87.5419985 16.3706687,87.388 15.96,87.388 C15.5306645,87.388 15.1433351,87.5443318 14.798,87.857 C14.4526649,88.1696682 14.28,88.6153304 14.28,89.194 L14.28,93.8 L13.23,93.8 L13.23,86.576 L14.28,86.576 L14.28,87.262 C14.4573342,86.9726652 14.7163316,86.7533341 15.057,86.604 C15.3976684,86.4546659 15.6986654,86.38 15.96,86.38 C16.3613353,86.38 16.764998,86.4686658 17.171,86.646 C17.577002,86.8233342 17.9013321,87.1126647 18.144,87.514 C18.3866679,87.1126647 18.7133313,86.8233342 19.124,86.646 C19.5346687,86.4686658 19.9406647,86.38 20.342,86.38 C20.9860032,86.38 21.6019971,86.5969978 22.19,87.031 C22.7780029,87.4650022 23.072,88.1906616 23.072,89.208 L23.072,93.8 Z M27.622,87.388 C27.2113313,87.388 26.840335,87.5046655 26.509,87.738 C26.177665,87.9713345 25.9700004,88.321331 25.886,88.788 L24.808,88.788 C24.9013338,87.8919955 25.2373304,87.2666684 25.816,86.912 C26.3946696,86.5573316 26.9966635,86.38 27.622,86.38 C28.2940034,86.38 28.9333303,86.5876646 29.54,87.003 C30.1466697,87.4183354 30.45,88.1533281 30.45,89.208 L30.45,93.8 L29.4,93.8 L29.4,93.058 C29.1666655,93.3566682 28.854002,93.5783326 28.462,93.723 C28.069998,93.8676674 27.6313358,93.94 27.146,93.94 C26.5299969,93.94 25.9770024,93.7673351 25.487,93.422 C24.9969975,93.0766649 24.752,92.535337 24.752,91.798 C24.752,91.4339982 24.8569989,91.0420021 25.067,90.622 C25.277001,90.2019979 25.6946635,89.9033342 26.32,89.726 C26.7306687,89.6046661 27.1949974,89.5160003 27.713,89.46 C28.2310026,89.4039997 28.7933303,89.3573335 29.4,89.32 L29.4,89.194 C29.4,88.5966637 29.2203351,88.1463348 28.861,87.843 C28.5016649,87.5396651 28.088669,87.388 27.622,87.388 Z M29.4,91.196 L29.4,90.258 C28.6159961,90.3140003 27.9860024,90.3746663 27.51,90.44 C27.0339976,90.5053337 26.6746679,90.6033327 26.432,90.734 C26.1706654,90.8833341 26.0003337,91.0419992 25.921,91.21 C25.8416663,91.3780008 25.802,91.5646656 25.802,91.77 C25.802,92.0966683 25.930332,92.3719989 26.187,92.596 C26.4436679,92.8200011 26.8379973,92.932 27.37,92.932 C27.9300028,92.932 28.4083313,92.7826682 28.805,92.484 C29.2016686,92.1853318 29.4,91.7560028 29.4,91.196 Z M35.07,95.508 C35.536669,95.508 35.9496649,95.3563348 36.309,95.053 C36.6683351,94.7496651 36.848,94.2993363 36.848,93.702 L36.848,92.778 C36.6706658,93.0673348 36.4116684,93.2866659 36.071,93.436 C35.7303316,93.5853341 35.3966683,93.66 35.07,93.66 C34.3979966,93.66 33.7586697,93.4523354 33.152,93.037 C32.5453303,92.6216646 32.242,91.8866719 32.242,90.832 L32.242,89.208 C32.242,88.1533281 32.5453303,87.4183354 33.152,87.003 C33.7586697,86.5876646 34.3979966,86.38 35.07,86.38 C35.3966683,86.38 35.7303316,86.4546659 36.071,86.604 C36.4116684,86.7533341 36.6706658,86.9726652 36.848,87.262 L36.848,86.576 L37.898,86.576 L37.898,93.688 C37.898,94.7520053 37.5946697,95.4893313 36.988,95.9 C36.3813303,96.3106687 35.7420034,96.516 35.07,96.516 C34.4353302,96.516 33.8263362,96.3340018 33.243,95.97 C32.6596637,95.6059982 32.330667,94.9620046 32.256,94.038 L33.32,94.038 C33.3853337,94.5233358 33.5883316,94.8896654 33.929,95.137 C34.2696684,95.3843346 34.6499979,95.508 35.07,95.508 Z M33.292,89.194 L33.292,90.846 C33.292,91.4433363 33.4716649,91.8936651 33.831,92.197 C34.1903351,92.5003348 34.603331,92.652 35.07,92.652 C35.536669,92.652 35.9496649,92.5003348 36.309,92.197 C36.6683351,91.8936651 36.848,91.4433363 36.848,90.846 L36.848,89.194 C36.848,88.5966637 36.6683351,88.1463348 36.309,87.843 C35.9496649,87.5396651 35.536669,87.388 35.07,87.388 C34.603331,87.388 34.1903351,87.5396651 33.831,87.843 C33.4716649,88.1463348 33.292,88.5966637 33.292,89.194 Z M42.63,92.932 C43.0406687,92.932 43.411665,92.8153345 43.743,92.582 C44.074335,92.3486655 44.2819996,91.998669 44.366,91.532 L45.444,91.532 C45.3506662,92.4280045 45.0146696,93.0533316 44.436,93.408 C43.8573304,93.7626684 43.2553365,93.94 42.63,93.94 C41.9579966,93.94 41.3186697,93.7323354 40.712,93.317 C40.1053303,92.9016646 39.802,92.1666719 39.802,91.112 L39.802,89.208 C39.802,88.1533281 40.1053303,87.4183354 40.712,87.003 C41.3186697,86.5876646 41.9579966,86.38 42.63,86.38 C43.3020034,86.38 43.9413303,86.5876646 44.548,87.003 C45.1546697,87.4183354 45.458,88.1533281 45.458,89.208 L45.458,90.426 L40.852,90.426 L40.852,91.126 C40.852,91.7233363 41.0316649,92.1736652 41.391,92.477 C41.7503351,92.7803349 42.163331,92.932 42.63,92.932 Z M44.408,89.46 L44.408,89.194 C44.408,88.5966637 44.2283351,88.1463348 43.869,87.843 C43.5096649,87.5396651 43.096669,87.388 42.63,87.388 C42.163331,87.388 41.7503351,87.5396651 41.391,87.843 C41.0316649,88.1463348 40.852,88.5966637 40.852,89.194 L40.852,89.46 L44.408,89.46 Z M57.134,93.8 L56.084,93.8 L56.084,89.11 C56.084,88.5779973 55.9090017,88.1580015 55.559,87.85 C55.2089982,87.5419985 54.8286687,87.388 54.418,87.388 C53.9886645,87.388 53.6013351,87.5443318 53.256,87.857 C52.9106649,88.1696682 52.738,88.6153304 52.738,89.194 L52.738,93.8 L51.688,93.8 L51.688,89.11 C51.688,88.5779973 51.5130017,88.1580015 51.163,87.85 C50.8129982,87.5419985 50.4326687,87.388 50.022,87.388 C49.5926645,87.388 49.2053351,87.5443318 48.86,87.857 C48.5146649,88.1696682 48.342,88.6153304 48.342,89.194 L48.342,93.8 L47.292,93.8 L47.292,86.576 L48.342,86.576 L48.342,87.262 C48.5193342,86.9726652 48.7783316,86.7533341 49.119,86.604 C49.4596684,86.4546659 49.7606654,86.38 50.022,86.38 C50.4233353,86.38 50.826998,86.4686658 51.233,86.646 C51.639002,86.8233342 51.9633321,87.1126647 52.206,87.514 C52.4486679,87.1126647 52.7753313,86.8233342 53.186,86.646 C53.5966687,86.4686658 54.0026647,86.38 54.404,86.38 C55.0480032,86.38 55.6639971,86.5969978 56.252,87.031 C56.8400029,87.4650022 57.134,88.1906616 57.134,89.208 L57.134,93.8 Z M72.128,93.8 L71.078,93.8 L71.078,89.11 C71.078,88.5779973 70.9030017,88.1580015 70.553,87.85 C70.2029982,87.5419985 69.8226687,87.388 69.412,87.388 C68.9826645,87.388 68.5953351,87.5443318 68.25,87.857 C67.9046649,88.1696682 67.732,88.6153304 67.732,89.194 L67.732,93.8 L66.682,93.8 L66.682,89.11 C66.682,88.5779973 66.5070017,88.1580015 66.157,87.85 C65.8069982,87.5419985 65.4266687,87.388 65.016,87.388 C64.5866645,87.388 64.1993351,87.5443318 63.854,87.857 C63.5086649,88.1696682 63.336,88.6153304 63.336,89.194 L63.336,93.8 L62.286,93.8 L62.286,86.576 L63.336,86.576 L63.336,87.262 C63.5133342,86.9726652 63.7723316,86.7533341 64.113,86.604 C64.4536684,86.4546659 64.7546654,86.38 65.016,86.38 C65.4173353,86.38 65.820998,86.4686658 66.227,86.646 C66.633002,86.8233342 66.9573321,87.1126647 67.2,87.514 C67.4426679,87.1126647 67.7693313,86.8233342 68.18,86.646 C68.5906687,86.4686658 68.9966647,86.38 69.398,86.38 C70.0420032,86.38 70.6579971,86.5969978 71.246,87.031 C71.8340029,87.4650022 72.128,88.1906616 72.128,89.208 L72.128,93.8 Z M76.762,92.932 C77.1726687,92.932 77.543665,92.8153345 77.875,92.582 C78.206335,92.3486655 78.4139996,91.998669 78.498,91.532 L79.576,91.532 C79.4826662,92.4280045 79.1466696,93.0533316 78.568,93.408 C77.9893304,93.7626684 77.3873365,93.94 76.762,93.94 C76.0899966,93.94 75.4506697,93.7323354 74.844,93.317 C74.2373303,92.9016646 73.934,92.1666719 73.934,91.112 L73.934,89.208 C73.934,88.1533281 74.2373303,87.4183354 74.844,87.003 C75.4506697,86.5876646 76.0899966,86.38 76.762,86.38 C77.4340034,86.38 78.0733303,86.5876646 78.68,87.003 C79.2866697,87.4183354 79.59,88.1533281 79.59,89.208 L79.59,90.426 L74.984,90.426 L74.984,91.126 C74.984,91.7233363 75.1636649,92.1736652 75.523,92.477 C75.8823351,92.7803349 76.295331,92.932 76.762,92.932 Z M78.54,89.46 L78.54,89.194 C78.54,88.5966637 78.3603351,88.1463348 78.001,87.843 C77.6416649,87.5396651 77.228669,87.388 76.762,87.388 C76.295331,87.388 75.8823351,87.5396651 75.523,87.843 C75.1636649,88.1463348 74.984,88.5966637 74.984,89.194 L74.984,89.46 L78.54,89.46 Z M82.474,86.576 L82.474,87.332 C82.6513342,87.0426652 82.9103316,86.8233341 83.251,86.674 C83.5916684,86.5246659 83.9253317,86.45 84.252,86.45 L84.714,86.45 L84.714,87.458 L84.252,87.458 C83.785331,87.458 83.3723351,87.6096651 83.013,87.913 C82.6536649,88.2163348 82.474,88.6666637 82.474,89.264 L82.474,93.8 L81.424,93.8 L81.424,86.576 L82.474,86.576 Z M88.452,87.388 C88.0413313,87.388 87.670335,87.5046655 87.339,87.738 C87.007665,87.9713345 86.8000004,88.321331 86.716,88.788 L85.638,88.788 C85.7313338,87.8919955 86.0673304,87.2666684 86.646,86.912 C87.2246696,86.5573316 87.8266635,86.38 88.452,86.38 C89.1240034,86.38 89.7633303,86.5876646 90.37,87.003 C90.9766697,87.4183354 91.28,88.1533281 91.28,89.208 L91.28,93.8 L90.23,93.8 L90.23,93.058 C89.9966655,93.3566682 89.684002,93.5783326 89.292,93.723 C88.899998,93.8676674 88.4613358,93.94 87.976,93.94 C87.3599969,93.94 86.8070024,93.7673351 86.317,93.422 C85.8269975,93.0766649 85.582,92.535337 85.582,91.798 C85.582,91.4339982 85.6869989,91.0420021 85.897,90.622 C86.107001,90.2019979 86.5246635,89.9033342 87.15,89.726 C87.5606687,89.6046661 88.0249974,89.5160003 88.543,89.46 C89.0610026,89.4039997 89.6233303,89.3573335 90.23,89.32 L90.23,89.194 C90.23,88.5966637 90.0503351,88.1463348 89.691,87.843 C89.3316649,87.5396651 88.918669,87.388 88.452,87.388 Z M90.23,91.196 L90.23,90.258 C89.4459961,90.3140003 88.8160024,90.3746663 88.34,90.44 C87.8639976,90.5053337 87.5046679,90.6033327 87.262,90.734 C87.0006654,90.8833341 86.8303337,91.0419992 86.751,91.21 C86.6716663,91.3780008 86.632,91.5646656 86.632,91.77 C86.632,92.0966683 86.760332,92.3719989 87.017,92.596 C87.2736679,92.8200011 87.6679973,92.932 88.2,92.932 C88.7600028,92.932 89.2383313,92.7826682 89.635,92.484 C90.0316686,92.1853318 90.23,91.7560028 90.23,91.196 Z M103.124,93.8 L102.074,93.8 L102.074,89.11 C102.074,88.5779973 101.899002,88.1580015 101.549,87.85 C101.198998,87.5419985 100.818669,87.388 100.408,87.388 C99.9786645,87.388 99.5913351,87.5443318 99.246,87.857 C98.9006649,88.1696682 98.728,88.6153304 98.728,89.194 L98.728,93.8 L97.678,93.8 L97.678,89.11 C97.678,88.5779973 97.5030017,88.1580015 97.153,87.85 C96.8029982,87.5419985 96.4226687,87.388 96.012,87.388 C95.5826645,87.388 95.1953351,87.5443318 94.85,87.857 C94.5046649,88.1696682 94.332,88.6153304 94.332,89.194 L94.332,93.8 L93.282,93.8 L93.282,86.576 L94.332,86.576 L94.332,87.262 C94.5093342,86.9726652 94.7683316,86.7533341 95.109,86.604 C95.4496684,86.4546659 95.7506654,86.38 96.012,86.38 C96.4133353,86.38 96.816998,86.4686658 97.223,86.646 C97.629002,86.8233342 97.9533321,87.1126647 98.196,87.514 C98.4386679,87.1126647 98.7653313,86.8233342 99.176,86.646 C99.5866687,86.4686658 99.9926647,86.38 100.394,86.38 C101.038003,86.38 101.653997,86.5969978 102.242,87.031 C102.830003,87.4650022 103.124,88.1906616 103.124,89.208 L103.124,93.8 Z M107.758,92.932 C108.168669,92.932 108.539665,92.8153345 108.871,92.582 C109.202335,92.3486655 109.41,91.998669 109.494,91.532 L110.572,91.532 C110.478666,92.4280045 110.14267,93.0533316 109.564,93.408 C108.98533,93.7626684 108.383336,93.94 107.758,93.94 C107.085997,93.94 106.44667,93.7323354 105.84,93.317 C105.23333,92.9016646 104.93,92.1666719 104.93,91.112 L104.93,89.208 C104.93,88.1533281 105.23333,87.4183354 105.84,87.003 C106.44667,86.5876646 107.085997,86.38 107.758,86.38 C108.430003,86.38 109.06933,86.5876646 109.676,87.003 C110.28267,87.4183354 110.586,88.1533281 110.586,89.208 L110.586,90.426 L105.98,90.426 L105.98,91.126 C105.98,91.7233363 106.159665,92.1736652 106.519,92.477 C106.878335,92.7803349 107.291331,92.932 107.758,92.932 Z M109.536,89.46 L109.536,89.194 C109.536,88.5966637 109.356335,88.1463348 108.997,87.843 C108.637665,87.5396651 108.224669,87.388 107.758,87.388 C107.291331,87.388 106.878335,87.5396651 106.519,87.843 C106.159665,88.1463348 105.98,88.5966637 105.98,89.194 L105.98,89.46 L109.536,89.46 Z M115.248,86.38 C115.920003,86.38 116.55933,86.5876646 117.166,87.003 C117.77267,87.4183354 118.076,88.1533281 118.076,89.208 L118.076,93.8 L117.026,93.8 L117.026,89.194 C117.026,88.5966637 116.846335,88.1463348 116.487,87.843 C116.127665,87.5396651 115.714669,87.388 115.248,87.388 C114.781331,87.388 114.368335,87.5396651 114.009,87.843 C113.649665,88.1463348 113.47,88.5966637 113.47,89.194 L113.47,93.8 L112.42,93.8 L112.42,86.576 L113.47,86.576 L113.47,87.262 C113.647334,86.9726652 113.906332,86.7533341 114.247,86.604 C114.587668,86.4546659 114.921332,86.38 115.248,86.38 Z M121.464,92.162 C121.464,92.3953345 121.513,92.5586662 121.611,92.652 C121.709,92.7453338 121.883999,92.792 122.136,92.792 L123.242,92.792 L123.242,93.8 L122.136,93.8 C121.463997,93.8 121.009001,93.6670013 120.771,93.401 C120.532999,93.1349987 120.414,92.6940031 120.414,92.078 L120.414,87.584 L119.392,87.584 L119.392,86.576 L120.414,86.576 L120.414,84.938 L121.464,84.938 L121.464,86.576 L123.242,86.576 L123.242,87.584 L121.464,87.584 L121.464,92.162 Z M127.484,92.932 C127.894669,92.932 128.265665,92.8153345 128.597,92.582 C128.928335,92.3486655 129.136,91.998669 129.22,91.532 L130.298,91.532 C130.204666,92.4280045 129.86867,93.0533316 129.29,93.408 C128.71133,93.7626684 128.109336,93.94 127.484,93.94 C126.811997,93.94 126.17267,93.7323354 125.566,93.317 C124.95933,92.9016646 124.656,92.1666719 124.656,91.112 L124.656,89.208 C124.656,88.1533281 124.95933,87.4183354 125.566,87.003 C126.17267,86.5876646 126.811997,86.38 127.484,86.38 C128.156003,86.38 128.79533,86.5876646 129.402,87.003 C130.00867,87.4183354 130.312,88.1533281 130.312,89.208 L130.312,90.426 L125.706,90.426 L125.706,91.126 C125.706,91.7233363 125.885665,92.1736652 126.245,92.477 C126.604335,92.7803349 127.017331,92.932 127.484,92.932 Z M129.262,89.46 L129.262,89.194 C129.262,88.5966637 129.082335,88.1463348 128.723,87.843 C128.363665,87.5396651 127.950669,87.388 127.484,87.388 C127.017331,87.388 126.604335,87.5396651 126.245,87.843 C125.885665,88.1463348 125.706,88.5966637 125.706,89.194 L125.706,89.46 L129.262,89.46 Z M136.346,84 L136.346,85.358 L135.296,85.358 L135.296,84 L136.346,84 Z M136.346,86.576 L136.346,93.8 L135.296,93.8 L135.296,86.576 L136.346,86.576 Z M139.468,92.162 C139.468,92.3953345 139.517,92.5586662 139.615,92.652 C139.713,92.7453338 139.887999,92.792 140.14,92.792 L140.364,92.792 L140.364,93.8 L140.14,93.8 C139.467997,93.8 139.013001,93.6670013 138.775,93.401 C138.536999,93.1349987 138.418,92.6940031 138.418,92.078 L138.418,84 L139.468,84 L139.468,92.162 Z M144.69,93.94 C144.101997,93.94 143.49067,93.7416686 142.856,93.345 C142.22133,92.9483313 141.904,92.2180053 141.904,91.154 L141.904,86.576 L142.954,86.576 L142.954,91.084 C142.954,91.7280032 143.135998,92.1969985 143.5,92.491 C143.864002,92.7850015 144.260665,92.932 144.69,92.932 C145.128669,92.932 145.527665,92.7780015 145.887,92.47 C146.246335,92.1619985 146.426,91.7140029 146.426,91.126 L146.426,86.576 L147.476,86.576 L147.476,93.8 L146.426,93.8 L146.426,93.058 C146.248666,93.3473348 145.992002,93.5666659 145.656,93.716 C145.319998,93.8653341 144.998002,93.94 144.69,93.94 Z M153.258,88.69 C153.192666,88.2699979 153.024668,87.9480011 152.754,87.724 C152.483332,87.4999989 152.124002,87.388 151.676,87.388 C151.283998,87.388 150.959668,87.4813324 150.703,87.668 C150.446332,87.8546676 150.318,88.1113317 150.318,88.438 C150.318,88.7366682 150.411332,88.9629992 150.598,89.117 C150.784668,89.2710008 151.022665,89.3806663 151.312,89.446 L152.67,89.782 C153.211336,89.9126673 153.654665,90.1366651 154,90.454 C154.345335,90.7713349 154.518,91.26133 154.518,91.924 C154.518,92.6333369 154.275336,93.1466651 153.79,93.464 C153.304664,93.7813349 152.698004,93.94 151.97,93.94 C151.213996,93.94 150.556003,93.7486686 149.996,93.366 C149.435997,92.9833314 149.128,92.3580043 149.072,91.49 L150.15,91.49 C150.196667,91.9940025 150.392665,92.3603322 150.738,92.589 C151.083335,92.8176678 151.493998,92.932 151.97,92.932 C152.474003,92.932 152.844999,92.8386676 153.083,92.652 C153.321001,92.4653324 153.444667,92.2133349 153.454,91.896 C153.454,91.6626655 153.386334,91.4503343 153.251,91.259 C153.115666,91.0676657 152.847335,90.9253338 152.446,90.832 L151.032,90.482 C150.639998,90.3886662 150.245669,90.1926682 149.849,89.894 C149.452331,89.5953318 149.254,89.1240032 149.254,88.48 C149.254,87.81733 149.494331,87.3016685 149.975,86.933 C150.455669,86.5643315 151.02733,86.38 151.69,86.38 C152.418004,86.38 153.026998,86.5643315 153.517,86.933 C154.007002,87.3016685 154.28,87.8873293 154.336,88.69 L153.258,88.69 Z M157.556,92.162 C157.556,92.3953345 157.605,92.5586662 157.703,92.652 C157.801,92.7453338 157.975999,92.792 158.228,92.792 L159.334,92.792 L159.334,93.8 L158.228,93.8 C157.555997,93.8 157.101001,93.6670013 156.863,93.401 C156.624999,93.1349987 156.506,92.6940031 156.506,92.078 L156.506,87.584 L155.484,87.584 L155.484,86.576 L156.506,86.576 L156.506,84.938 L157.556,84.938 L157.556,86.576 L159.334,86.576 L159.334,87.584 L157.556,87.584 L157.556,92.162 Z M161.994,86.576 L161.994,87.332 C162.171334,87.0426652 162.430332,86.8233341 162.771,86.674 C163.111668,86.5246659 163.445332,86.45 163.772,86.45 L164.234,86.45 L164.234,87.458 L163.772,87.458 C163.305331,87.458 162.892335,87.6096651 162.533,87.913 C162.173665,88.2163348 161.994,88.6666637 161.994,89.264 L161.994,93.8 L160.944,93.8 L160.944,86.576 L161.994,86.576 Z M167.972,87.388 C167.561331,87.388 167.190335,87.5046655 166.859,87.738 C166.527665,87.9713345 166.32,88.321331 166.236,88.788 L165.158,88.788 C165.251334,87.8919955 165.58733,87.2666684 166.166,86.912 C166.74467,86.5573316 167.346664,86.38 167.972,86.38 C168.644003,86.38 169.28333,86.5876646 169.89,87.003 C170.49667,87.4183354 170.8,88.1533281 170.8,89.208 L170.8,93.8 L169.75,93.8 L169.75,93.058 C169.516665,93.3566682 169.204002,93.5783326 168.812,93.723 C168.419998,93.8676674 167.981336,93.94 167.496,93.94 C166.879997,93.94 166.327002,93.7673351 165.837,93.422 C165.346998,93.0766649 165.102,92.535337 165.102,91.798 C165.102,91.4339982 165.206999,91.0420021 165.417,90.622 C165.627001,90.2019979 166.044664,89.9033342 166.67,89.726 C167.080669,89.6046661 167.544997,89.5160003 168.063,89.46 C168.581003,89.4039997 169.14333,89.3573335 169.75,89.32 L169.75,89.194 C169.75,88.5966637 169.570335,88.1463348 169.211,87.843 C168.851665,87.5396651 168.438669,87.388 167.972,87.388 Z M169.75,91.196 L169.75,90.258 C168.965996,90.3140003 168.336002,90.3746663 167.86,90.44 C167.383998,90.5053337 167.024668,90.6033327 166.782,90.734 C166.520665,90.8833341 166.350334,91.0419992 166.271,91.21 C166.191666,91.3780008 166.152,91.5646656 166.152,91.77 C166.152,92.0966683 166.280332,92.3719989 166.537,92.596 C166.793668,92.8200011 167.187997,92.932 167.72,92.932 C168.280003,92.932 168.758331,92.7826682 169.155,92.484 C169.551669,92.1853318 169.75,91.7560028 169.75,91.196 Z M174.188,92.162 C174.188,92.3953345 174.237,92.5586662 174.335,92.652 C174.433,92.7453338 174.607999,92.792 174.86,92.792 L175.966,92.792 L175.966,93.8 L174.86,93.8 C174.187997,93.8 173.733001,93.6670013 173.495,93.401 C173.256999,93.1349987 173.138,92.6940031 173.138,92.078 L173.138,87.584 L172.116,87.584 L172.116,86.576 L173.138,86.576 L173.138,84.938 L174.188,84.938 L174.188,86.576 L175.966,86.576 L175.966,87.584 L174.188,87.584 L174.188,92.162 Z M178.626,84 L178.626,85.358 L177.576,85.358 L177.576,84 L178.626,84 Z M178.626,86.576 L178.626,93.8 L177.576,93.8 L177.576,86.576 L178.626,86.576 Z M183.54,93.8 L182.364,93.8 L179.76,86.576 L180.88,86.576 L182.952,92.442 L185.024,86.576 L186.144,86.576 L183.54,93.8 Z M189.742,87.388 C189.331331,87.388 188.960335,87.5046655 188.629,87.738 C188.297665,87.9713345 188.09,88.321331 188.006,88.788 L186.928,88.788 C187.021334,87.8919955 187.35733,87.2666684 187.936,86.912 C188.51467,86.5573316 189.116664,86.38 189.742,86.38 C190.414003,86.38 191.05333,86.5876646 191.66,87.003 C192.26667,87.4183354 192.57,88.1533281 192.57,89.208 L192.57,93.8 L191.52,93.8 L191.52,93.058 C191.286665,93.3566682 190.974002,93.5783326 190.582,93.723 C190.189998,93.8676674 189.751336,93.94 189.266,93.94 C188.649997,93.94 188.097002,93.7673351 187.607,93.422 C187.116998,93.0766649 186.872,92.535337 186.872,91.798 C186.872,91.4339982 186.976999,91.0420021 187.187,90.622 C187.397001,90.2019979 187.814664,89.9033342 188.44,89.726 C188.850669,89.6046661 189.314997,89.5160003 189.833,89.46 C190.351003,89.4039997 190.91333,89.3573335 191.52,89.32 L191.52,89.194 C191.52,88.5966637 191.340335,88.1463348 190.981,87.843 C190.621665,87.5396651 190.208669,87.388 189.742,87.388 Z M191.52,91.196 L191.52,90.258 C190.735996,90.3140003 190.106002,90.3746663 189.63,90.44 C189.153998,90.5053337 188.794668,90.6033327 188.552,90.734 C188.290665,90.8833341 188.120334,91.0419992 188.041,91.21 C187.961666,91.3780008 187.922,91.5646656 187.922,91.77 C187.922,92.0966683 188.050332,92.3719989 188.307,92.596 C188.563668,92.8200011 188.957997,92.932 189.49,92.932 C190.050003,92.932 190.528331,92.7826682 190.925,92.484 C191.321669,92.1853318 191.52,91.7560028 191.52,91.196 Z" id="*Imagemmeramenteilusrativa" fill="#909090" fill-rule="nonzero"></path>
                </g>
            </g>
            <g id="Group-5" transform="translate(3.000000, 107.265872)">
                <path d="M15.0422814,185.351 C13.6404819,185.351 12.493327,185.196984 12.493327,185.008728 L12.493327,176.531498 C12.493327,176.343242 13.6404819,176.189226 15.0422814,176.189226 L79.4908733,176.189226 C80.8926728,176.189226 82.0395141,176.343242 82.0395141,176.531498 L82.0395141,185.008728 C82.0395141,185.196984 80.8926728,185.351 79.4908733,185.351 L15.0422814,185.351 Z" id="Fill-48-Copy" fill="#2B2B2B" transform="translate(47.266421, 180.770113) scale(1, -1) translate(-47.266421, -180.770113) "></path>
                <path d="M251.99905,185.351 C250.597251,185.351 249.450096,185.196984 249.450096,185.008728 L249.450096,176.531498 C249.450096,176.343242 250.597251,176.189226 251.99905,176.189226 L316.447642,176.189226 C317.849442,176.189226 318.996283,176.343242 318.996283,176.531498 L318.996283,185.008728 C318.996283,185.196984 317.849442,185.351 316.447642,185.351 L251.99905,185.351 Z" id="Fill-48-Copy-2" fill="#2B2B2B" transform="translate(284.223190, 180.770113) scale(1, -1) translate(-284.223190, -180.770113) "></path>
                <path d="M12.3021389,181.186557 C5.53656793,181.186557 0,178.140684 0,174.417673 L0,6.76888458 C0,3.04587313 5.53656793,0 12.3021389,0 L323.353427,0 C330.118998,0 335.654052,3.04587313 335.654052,6.76888458 L335.654052,174.417673 C335.654052,178.140684 330.118998,181.186557 323.353427,181.186557 L12.3021389,181.186557 Z" id="Fill-48" fill="#444444"></path>
            </g>
            <rect id="Rectangle" fill="#C1C1C1" x="3" y="228" width="336" height="12"></rect>
            <g id="Group-14" transform="translate(149.000000, 149.265872)">
                <path d="M0.644706224,36.2829405 C7.54292549,9.21464282 2.2880869,-6.04338249 20.5208393,2.26667895 C30.5213126,6.8278065 42.4817232,18.1279706 43.1419697,29.8812628 C44.0590792,46.0744865 -6.22276184,63.2291378 0.644706224,36.2829405 Z" id="Clip-14" fill="#C1C1C1"></path>
                <path d="M18.1493785,32.9428167 C16.417362,32.9428167 15.4586479,31.163769 15.4586479,29.3593967 C15.4586479,27.5568333 16.417362,25.8266257 18.1493785,25.8266257 C19.8768728,25.8266257 20.8328736,27.5568333 20.8328736,29.3593967 C20.8328736,31.163769 19.8768728,32.9428167 18.1493785,32.9428167 Z M18.1493785,22.6429713 C14.3724068,22.6429713 11.8598523,25.6321695 11.8598523,29.380199 C11.8598523,33.1327507 14.3724068,36.1192355 18.1493785,36.1192355 C21.9173058,36.1192355 24.427147,33.1327507 24.427147,29.380199 C24.427147,25.6321695 21.9173058,22.6429713 18.1493785,22.6429713 Z M28.3949571,22.6502069 C27.1278265,22.6502069 26.0949477,25.667443 26.0949477,29.3874346 C26.0949477,33.109235 27.1278265,36.1237578 28.3949571,36.1237578 C29.6638966,36.1237578 30.6922532,33.109235 30.6922532,29.3874346 C30.6922532,25.667443 29.6638966,22.6502069 28.3949571,22.6502069 Z M28.3660148,20.9796928 C29.6150565,20.9796928 30.6217063,19.9676163 30.6217063,18.7203835 C30.6217063,17.4767686 29.6150565,16.466501 28.3660148,16.466501 C27.1223998,16.466501 26.1139411,17.4767686 26.1139411,18.7203835 C26.1139411,19.9676163 27.1223998,20.9796928 28.3660148,20.9796928 L28.3660148,20.9796928 Z" id="Fill-16" fill="#444444"></path>
            </g>
        </g>
    </g>
</svg>