<?xml version="1.0" encoding="UTF-8"?>
<svg width="19px" height="19px" viewBox="0 0 19 19" version="1.1" xmlns="http://www.w3.org/2000/svg" xmlns:xlink="http://www.w3.org/1999/xlink">
    <title>icon_result</title>
    <g id="Page-1" stroke="none" stroke-width="1" fill="none" fill-rule="evenodd">
        <g id="5_ts_conclusao_teste_netq_nok-copy" transform="translate(-33.000000, -71.000000)" fill="#4A4A4A" fill-rule="nonzero">
            <g id="resultado_da_analise" transform="translate(33.000000, 62.150000)">
                <g id="icon_resul" transform="translate(0.550000, 8.800000)">
                    <path d="M0.108777778,0.956083333 L0.108777778,15.5015972 C0.108777778,15.7550556 0.314111111,15.9614583 0.568638889,15.9614583 L14.7911806,15.9614583 C15.0446389,15.9614583 15.2510417,15.756125 15.2510417,15.5015972 L15.2510417,0.956083333 C15.2510417,0.702625 15.0457083,0.496222222 14.7911806,0.496222222 L0.568638889,0.496222222 C0.314111111,0.496222222 0.108777778,0.702625 0.108777778,0.956083333 Z M1.02743056,1.41594444 L14.33025,1.41594444 L14.33025,15.0428056 L1.02743056,15.0428056 L1.02743056,1.41594444 Z" id="Shape"></path>
                    <path d="M3.35988889,16.5464444 C3.10643056,16.5464444 2.90002778,16.7517778 2.90002778,17.0063056 L2.90002778,18.2939167 C2.90002778,18.547375 3.10536111,18.7537778 3.35988889,18.7537778 L17.5824306,18.7537778 C17.8358889,18.7537778 18.0422917,18.5484444 18.0422917,18.2939167 L18.0422917,3.74733333 C18.0422917,3.493875 17.8369583,3.28747222 17.5824306,3.28747222 L16.399625,3.28747222 C16.1461667,3.28747222 15.9397639,3.49280556 15.9397639,3.74733333 C15.9397639,4.00186111 16.1450972,4.20719444 16.399625,4.20719444 L17.1225694,4.20719444 L17.1225694,17.8340556 L3.81975,17.8340556 L3.81975,17.0063056 C3.81975,16.7528472 3.61334722,16.5464444 3.35988889,16.5464444 Z" id="Shape"></path>
                    <path d="M11.8320278,4.13233333 L3.608,4.13233333 C3.35454167,4.13233333 3.14813889,4.33766667 3.14813889,4.59219444 C3.14813889,4.84565278 3.35347222,5.05205556 3.608,5.05205556 L11.8320278,5.05205556 C12.0854861,5.05205556 12.2918889,4.84672222 12.2918889,4.59219444 C12.2908194,4.33873611 12.0854861,4.13233333 11.8320278,4.13233333 Z" id="Shape"></path>
                    <path d="M11.8320278,7.58236111 L3.608,7.58236111 C3.35454167,7.58236111 3.14813889,7.78769444 3.14813889,8.04222222 C3.14813889,8.29675 3.35347222,8.50208333 3.608,8.50208333 L11.8320278,8.50208333 C12.0854861,8.50208333 12.2918889,8.29675 12.2918889,8.04222222 C12.2918889,7.78769444 12.0854861,7.58236111 11.8320278,7.58236111 Z" id="Shape"></path>
                    <path d="M11.8320278,11.0323889 L3.608,11.0323889 C3.35454167,11.0323889 3.14813889,11.2377222 3.14813889,11.49225 C3.14813889,11.7457083 3.35347222,11.9521111 3.608,11.9521111 L11.8320278,11.9521111 C12.0854861,11.9521111 12.2918889,11.7467778 12.2918889,11.49225 C12.2908194,11.2387917 12.0854861,11.0323889 11.8320278,11.0323889 Z" id="Shape"></path>
                </g>
            </g>
        </g>
    </g>
</svg>