<?xml version="1.0" encoding="UTF-8"?>
<svg width="16px" height="20px" viewBox="0 0 16 20" version="1.1" xmlns="http://www.w3.org/2000/svg" xmlns:xlink="http://www.w3.org/1999/xlink">
    <title>Group 11 Copy</title>
    <defs>
        <filter id="filter-1">
            <feColorMatrix in="SourceGraphic" type="matrix" values="0 0 0 0 0.000000 0 0 0 0 0.752941 0 0 0 0 0.823529 0 0 0 1.000000 0"></feColorMatrix>
        </filter>
    </defs>
    <g id="Page-1" stroke="none" stroke-width="1" fill="none" fill-rule="evenodd">
        <g id="Group-11-Copy" transform="translate(1.000000, 1.500000)">
            <g filter="url(#filter-1)" id="Group-9">
                <g transform="translate(10.167271, 8.433149) rotate(-90.000000) translate(-10.167271, -8.433149) translate(2.167271, 3.933149)">
                    <g id="Group-37-Copy" transform="translate(0.000000, 0.629060)" stroke="#00C0D2" stroke-width="1.3">
                        <path d="M15.6909278,0.284276374 L15.6909278,4.47030956 L15.6909278,5.23782216 C15.6909278,6.28008261 14.8460088,7.12500165 13.8037483,7.12500165 C11.1046226,7.12500165 8.40549696,7.12500165 5.70637129,7.12500165" id="Rectangle"></path>
                        <path d="M10.1721863,0.284276374 L10.1721863,5.23306904 L10.1721863,5.23782216 C10.1721863,6.28008261 9.3272673,7.12500165 8.28500685,7.12500165 C5.58588117,7.12500165 2.8867555,7.12500165 0.187629822,7.12500165" id="Rectangle-Copy-6" transform="translate(5.179908, 3.704639) scale(-1, 1) translate(-5.179908, -3.704639) "></path>
                    </g>
                </g>
            </g>
            <g id="Group-10" transform="translate(5.000000, 8.000000) rotate(-90.000000) translate(-5.000000, -8.000000) translate(0.000000, 3.000000)" stroke="#00C0D2" stroke-width="1.3">
                <line x1="4.5" y1="0.416666667" x2="4.5" y2="8.75" id="Line-2" stroke-linecap="square"></line>
                <line x1="0.193010208" y1="5.55847923" x2="4.5" y2="9.3301016" id="Line-2-Copy" stroke-linecap="round"></line>
                <line x1="4.3465051" y1="5.55847923" x2="8.6534949" y2="9.3301016" id="Line-2-Copy-2" stroke-linecap="round" transform="translate(6.653495, 7.246768) scale(-1, 1) translate(-6.653495, -7.246768) "></line>
            </g>
        </g>
    </g>
</svg>