<svg width="214" height="88" viewBox="0 0 214 88" fill="none" xmlns="http://www.w3.org/2000/svg">
<path d="M55.645 35.7867C56.3383 35.7891 57.0168 35.5847 57.5945 35.1994C58.1722 34.8141 58.6231 34.2652 58.8901 33.6222C59.1571 32.9792 59.2282 32.2711 59.0944 31.5875C58.9606 30.9039 58.628 30.2755 58.1385 29.782C57.6491 29.2885 57.0249 28.9521 56.345 28.8152C55.6652 28.6784 54.9602 28.7474 54.3193 29.0135C53.6785 29.2795 53.1307 29.7307 52.7452 30.3098C52.3597 30.8889 52.154 31.57 52.154 32.2667C52.1532 32.7281 52.2428 33.1852 52.4178 33.6119C52.5928 34.0385 52.8498 34.4263 53.1739 34.7532C53.4981 35.08 53.8832 35.3395 54.3071 35.5169C54.7311 35.6942 55.1857 35.7859 55.645 35.7867V35.7867ZM55.6936 38.39C53.7292 38.39 52.1236 43.0895 52.1236 48.8828C52.1236 54.6761 53.7292 59.3756 55.6936 59.3756C57.658 59.3756 59.2515 54.6761 59.2515 48.8889C59.2515 43.1017 57.658 38.3961 55.6936 38.3961V38.39ZM39.7896 38.3778C33.951 38.3778 30.0586 43.0345 30.0586 48.8889C30.0586 54.7434 33.951 59.3878 39.7896 59.3878C45.6281 59.3878 49.5205 54.7189 49.5205 48.8889C49.5205 43.0589 45.6525 38.3778 39.7896 38.3778ZM39.7896 54.4195C37.1075 54.4195 35.6174 51.6511 35.6174 48.84C35.6174 46.0289 37.1075 43.34 39.7896 43.34C42.4717 43.34 43.9495 46.035 43.9495 48.84C43.9495 51.645 42.4838 54.4195 39.7896 54.4195Z" fill="#4BE188"/>
<path d="M80.1358 60.5V63.91H64.1162V60.5H80.1358Z" fill="black"/>
<path d="M95.4627 52.5861H99.4584C98.7833 57.7195 94.6416 59.1067 91.552 59.1067C88.1948 59.1067 83.5361 57.4567 83.5361 51.0828V46.8845C83.5361 40.5106 88.1948 38.8667 91.552 38.8667C94.9092 38.8667 99.574 40.5106 99.574 46.8845V50.3739H87.4468V50.985C87.4468 53.9061 89.1254 55.2628 91.5459 55.2628C93.4861 55.3178 94.9457 54.4195 95.4627 52.5861ZM87.4468 46.8478V46.8845H95.6512V46.8478C95.6147 44.0367 93.9361 42.6495 91.5459 42.6495C89.1558 42.6495 87.4468 44.0367 87.4468 46.8478V46.8478Z" fill="black"/>
<path d="M110.01 51.7978L105.473 58.7339H101.148L107.674 48.7972L101.471 39.3922H105.795L110.01 45.8333L114.224 39.3922H118.555L112.327 48.7972L118.853 58.7339H114.522L110.01 51.7978Z" fill="black"/>
<path d="M137.805 51.0828C137.805 57.0472 133.474 59.1067 130.154 59.1067C128.141 59.1067 126.237 58.0189 125.677 56.8945V65.6272H121.761V39.3923H125.677V41.0789C126.237 39.9545 128.141 38.8667 130.154 38.8667C133.474 38.8667 137.805 40.9261 137.805 46.8845V51.0828ZM133.888 46.9639C133.888 44.0367 132.209 42.6861 129.783 42.6861C127.356 42.6861 125.677 44.0367 125.677 46.9639V51.0095C125.677 53.9306 127.356 55.2873 129.783 55.2873C132.209 55.2873 133.888 53.9367 133.888 51.0095V46.9639Z" fill="black"/>
<path d="M153.842 52.5861H157.832C157.163 57.7195 153.021 59.1067 149.925 59.1067C146.568 59.1067 141.903 57.4567 141.903 51.0828V46.8845C141.903 40.5106 146.568 38.8667 149.925 38.8667C153.282 38.8667 157.947 40.5106 157.947 46.8845V50.3739H145.82V50.985C145.82 53.9061 147.499 55.2628 149.925 55.2628C151.865 55.3178 153.319 54.4195 153.842 52.5861ZM145.82 46.8478V46.8845H154.031V46.8478C153.988 44.0367 152.309 42.6495 149.925 42.6495C147.541 42.6495 145.82 44.0367 145.82 46.8478Z" fill="black"/>
<path d="M170.403 42.8756C167.97 42.8756 166.298 44.2262 166.298 47.1534V58.7645H162.381V39.3923H166.291V41.2623C166.851 40.1378 168.755 39.05 170.768 39.05H172.264V42.8756H170.403Z" fill="black"/>
<path d="M180.061 53.1116C180.061 54.5355 180.323 54.945 181.855 54.945H184.799V58.7338H180.736C177.525 58.7338 176.145 57.1572 176.145 54.1199V43.1199H173.42V39.3922H176.145V35.0044H180.061V39.3922H184.799V43.1016H180.061V53.1116Z" fill="black"/>
</svg>
