<?xml version="1.0" encoding="UTF-8"?>
<svg width="132px" height="104px" viewBox="0 0 132 104" version="1.1" xmlns="http://www.w3.org/2000/svg" xmlns:xlink="http://www.w3.org/1999/xlink">
    <!-- Generator: Sketch 53 (72520) - https://sketchapp.com -->
    <title>Group 13</title>
    <desc>Created with Sketch.</desc>
    <g id="Page-1" stroke="none" stroke-width="1" fill="none" fill-rule="evenodd">
        <g id="balao" transform="translate(-533.000000, -896.000000)">
            <g id="Group-13" transform="translate(533.000000, 896.000000)">
                <g id="Group-14">
                    <rect id="Rectangle" fill="#F8562C" x="7.2475359e-13" y="0" width="131.125828" height="95.5" rx="8"></rect>
                    <path d="M57.4196762,68.359204 L78.7622061,89.7017339 C79.5432547,90.4827825 79.5432547,91.7491125 78.7622061,92.530161 L57.4196762,113.872691 C56.6386276,114.65374 55.3722976,114.65374 54.591249,113.872691 C54.2161763,113.497618 54.0054626,112.98891 54.0054626,112.458477 L54.0054626,69.7734176 C54.0054626,68.6688481 54.9008931,67.7734176 56.0054626,67.7734176 C56.5358956,67.7734176 57.0446034,67.9841313 57.4196762,68.359204 Z" id="Rectangle-Copy-3" fill="#F8562C" transform="translate(66.652924, 91.115947) rotate(-270.000000) translate(-66.652924, -91.115947) "></path>
                    <path d="M40.0611624,27.8576155 L44.6490303,13.613607 L46.5226098,13.613607 L41.1180534,30.4277823 L39.0042714,30.4277823 L33.599715,13.613607 L35.4732946,13.613607 L40.0611624,27.8576155 Z M51.7892837,28.9385268 C52.4938813,28.9385268 53.1304115,28.7383601 53.6988936,28.3380205 C54.2673757,27.937681 54.6236726,27.3371808 54.7677948,26.5365018 L56.6173541,26.5365018 C56.4572183,28.0738055 55.880738,29.1466993 54.887896,29.7552153 C53.895054,30.3637314 52.8621936,30.6679848 51.7892837,30.6679848 C50.6363059,30.6679848 49.5393921,30.311688 48.4985094,29.5990837 C47.4576267,28.8864794 46.9371931,27.6254288 46.9371931,25.8158942 L46.9371931,22.5491402 C46.9371931,20.7396056 47.4576267,19.478555 48.4985094,18.7659507 C49.5393921,18.0533464 50.6363059,17.6970496 51.7892837,17.6970496 C52.9422615,17.6970496 54.0391753,18.0533464 55.080058,18.7659507 C56.1209408,19.478555 56.6413743,20.7396056 56.6413743,22.5491402 L56.6413743,24.638902 L48.7387119,24.638902 L48.7387119,25.8399145 C48.7387119,26.8647836 49.0469687,27.6374273 49.6634915,28.1578687 C50.2800144,28.67831 50.9886047,28.9385268 51.7892837,28.9385268 Z M54.8398555,22.9815047 L54.8398555,22.5251199 C54.8398555,21.5002508 54.5315987,20.7276071 53.9150759,20.2071657 C53.298553,19.6867244 52.5899627,19.4265076 51.7892837,19.4265076 C50.9886047,19.4265076 50.2800144,19.6867244 49.6634915,20.2071657 C49.0469687,20.7276071 48.7387119,21.5002508 48.7387119,22.5251199 L48.7387119,22.9815047 L54.8398555,22.9815047 Z M61.3555825,13.613607 L61.3555825,15.9435713 L59.5540637,15.9435713 L59.5540637,13.613607 L61.3555825,13.613607 Z M59.5540637,32.0371391 L59.5540637,18.0333331 L61.3555825,18.0333331 L61.3555825,31.8930176 C61.3555825,32.9499139 61.1514124,33.7065442 60.7430661,34.1629313 C60.3347198,34.6193183 59.5540695,34.8475084 58.4010917,34.8475084 L58.0167677,34.8475084 L58.0167677,33.1180504 L58.4010917,33.1180504 C58.8334583,33.1180504 59.1337085,33.0379837 59.3018511,32.8778479 C59.4699937,32.7177121 59.5540637,32.4374786 59.5540637,32.0371391 Z M69.0963422,19.4265076 C68.3917447,19.4265076 67.7552144,19.6266744 67.1867323,20.0270139 C66.6182502,20.4273534 66.2619534,21.0278536 66.1178311,21.8285327 L64.2682719,21.8285327 C64.4284077,20.2912289 65.0048879,19.2183351 65.9977299,18.6098191 C66.9905719,18.001303 68.0234323,17.6970496 69.0963422,17.6970496 C70.24932,17.6970496 71.3462338,18.0533464 72.3871165,18.7659507 C73.4279993,19.478555 73.9484328,20.7396056 73.9484328,22.5491402 L73.9484328,30.4277823 L72.146914,30.4277823 L72.146914,29.1547091 C71.7465745,29.6671436 71.2101276,30.0474605 70.5375572,30.295671 C69.8649869,30.5438815 69.1123599,30.6679848 68.2796537,30.6679848 C67.2227574,30.6679848 66.273967,30.371738 65.433254,29.7792356 C64.592541,29.1867331 64.1721909,28.2579594 64.1721909,26.9928865 C64.1721909,26.3683569 64.3523409,25.6957966 64.7126465,24.9751855 C65.072952,24.2545743 65.789549,23.7421475 66.8624589,23.4378894 C67.5670564,23.2297129 68.3637201,23.0775862 69.2524738,22.9815047 C70.1412275,22.8854232 71.1060313,22.8053565 72.146914,22.7413022 L72.146914,22.5251199 C72.146914,21.5002508 71.8386572,20.7276071 71.2221344,20.2071657 C70.6056115,19.6867244 69.8970212,19.4265076 69.0963422,19.4265076 Z M72.146914,25.9600157 L72.146914,24.350659 C70.8017733,24.4467404 69.7208728,24.5508271 68.9041802,24.6629222 C68.0874876,24.7750173 67.470974,24.9431573 67.0546209,25.1673475 C66.6062407,25.4235648 66.3139972,25.6957915 66.1778818,25.984036 C66.0417663,26.2722804 65.9737096,26.5925472 65.9737096,26.944846 C65.9737096,27.5053213 66.1938931,27.9777149 66.6342665,28.3620408 C67.07464,28.7463667 67.7512036,28.9385268 68.6639777,28.9385268 C69.6247925,28.9385268 70.4454762,28.6823134 71.1260534,28.1698788 C71.8066305,27.6574442 72.146914,26.9208306 72.146914,25.9600157 Z M91.8622366,19.4265076 C91.1576391,19.4265076 90.5211088,19.6266744 89.9526267,20.0270139 C89.3841446,20.4273534 89.0278478,21.0278536 88.8837256,21.8285327 L87.0341663,21.8285327 C87.1943021,20.2912289 87.7707823,19.2183351 88.7636243,18.6098191 C89.7564663,18.001303 90.7893267,17.6970496 91.8622366,17.6970496 C93.0152144,17.6970496 94.1121282,18.0533464 95.1530109,18.7659507 C96.1938937,19.478555 96.7143272,20.7396056 96.7143272,22.5491402 L96.7143272,30.4277823 L94.9128084,30.4277823 L94.9128084,29.1547091 C94.5124689,29.6671436 93.976022,30.0474605 93.3034517,30.295671 C92.6308813,30.5438815 91.8782543,30.6679848 91.0455481,30.6679848 C89.9886518,30.6679848 89.0398614,30.371738 88.1991484,29.7792356 C87.3584354,29.1867331 86.9380853,28.2579594 86.9380853,26.9928865 C86.9380853,26.3683569 87.1182353,25.6957966 87.4785409,24.9751855 C87.8388465,24.2545743 88.5554434,23.7421475 89.6283533,23.4378894 C90.3329509,23.2297129 91.1296145,23.0775862 92.0183683,22.9815047 C92.907122,22.8854232 93.8719257,22.8053565 94.9128084,22.7413022 L94.9128084,22.5251199 C94.9128084,21.5002508 94.6045516,20.7276071 93.9880288,20.2071657 C93.3715059,19.6867244 92.6629156,19.4265076 91.8622366,19.4265076 Z M94.9128084,25.9600157 L94.9128084,24.350659 C93.5676677,24.4467404 92.4867672,24.5508271 91.6700746,24.6629222 C90.853382,24.7750173 90.2368684,24.9431573 89.8205153,25.1673475 C89.3721351,25.4235648 89.0798916,25.6957915 88.9437762,25.984036 C88.8076608,26.2722804 88.7396041,26.5925472 88.7396041,26.944846 C88.7396041,27.5053213 88.9597875,27.9777149 89.4001609,28.3620408 C89.8405344,28.7463667 90.517098,28.9385268 91.4298721,28.9385268 C92.3906869,28.9385268 93.2113706,28.6823134 93.8919478,28.1698788 C94.572525,27.6574442 94.9128084,26.9208306 94.9128084,25.9600157 Z M31.8342266,51.6376635 C31.8342266,52.0380031 31.9182966,52.3182365 32.0864392,52.4783723 C32.2545818,52.6385081 32.554832,52.7185748 32.9871986,52.7185748 L34.8847984,52.7185748 L34.8847984,54.4480329 L32.9871986,54.4480329 C31.8342208,54.4480329 31.0535705,54.2198428 30.6452242,53.7634557 C30.2368779,53.3070687 30.0327078,52.5504383 30.0327078,51.493542 L30.0327078,43.7830416 L28.2792295,43.7830416 L28.2792295,42.0535836 L30.0327078,42.0535836 L30.0327078,39.2432143 L31.8342266,39.2432143 L31.8342266,42.0535836 L34.8847984,42.0535836 L34.8847984,43.7830416 L31.8342266,43.7830416 L31.8342266,51.6376635 Z M41.9289709,52.9587773 C42.6335684,52.9587773 43.2700987,52.7586106 43.8385808,52.3582711 C44.4070629,51.9579315 44.7633597,51.3574313 44.9074819,50.5567523 L46.7570412,50.5567523 C46.5969054,52.094056 46.0204252,53.1669498 45.0275832,53.7754658 C44.0347412,54.3839819 43.0018808,54.6882354 41.9289709,54.6882354 C40.7759931,54.6882354 39.6790793,54.3319385 38.6381966,53.6193342 C37.5973138,52.9067299 37.0768803,51.6456793 37.0768803,49.8361448 L37.0768803,46.5693907 C37.0768803,44.7598561 37.5973138,43.4988056 38.6381966,42.7862012 C39.6790793,42.0735969 40.7759931,41.7173001 41.9289709,41.7173001 C43.0819487,41.7173001 44.1788625,42.0735969 45.2197452,42.7862012 C46.2606279,43.4988056 46.7810615,44.7598561 46.7810615,46.5693907 L46.7810615,48.6591525 L38.8783991,48.6591525 L38.8783991,49.860165 C38.8783991,50.8850341 39.1866559,51.6576778 39.8031787,52.1781192 C40.4197016,52.6985605 41.1282919,52.9587773 41.9289709,52.9587773 Z M44.9795427,47.0017552 L44.9795427,46.5453704 C44.9795427,45.5205013 44.6712859,44.7478576 44.054763,44.2274163 C43.4382402,43.7069749 42.7296499,43.4467581 41.9289709,43.4467581 C41.1282919,43.4467581 40.4197016,43.7069749 39.8031787,44.2274163 C39.1866559,44.7478576 38.8783991,45.5205013 38.8783991,46.5453704 L38.8783991,47.0017552 L44.9795427,47.0017552 Z M51.4472291,51.6376635 C51.4472291,52.0380031 51.5312992,52.3182365 51.6994418,52.4783723 C51.8675844,52.6385081 52.1678345,52.7185748 52.6002012,52.7185748 L52.9845252,52.7185748 L52.9845252,54.4480329 L52.6002012,54.4480329 C51.4472234,54.4480329 50.666573,54.2198428 50.2582267,53.7634557 C49.8498804,53.3070687 49.6457104,52.5504383 49.6457104,51.493542 L49.6457104,37.6338575 L51.4472291,37.6338575 L51.4472291,51.6376635 Z M59.9326166,43.4467581 C59.2280191,43.4467581 58.5914888,43.6469249 58.0230067,44.0472644 C57.4545246,44.4476039 57.0982278,45.0481041 56.9541056,45.8487832 L55.1045463,45.8487832 C55.2646821,44.3114794 55.8411623,43.2385857 56.8340043,42.6300696 C57.8268463,42.0215535 58.8597067,41.7173001 59.9326166,41.7173001 C61.0855944,41.7173001 62.1825082,42.0735969 63.223391,42.7862012 C64.2642737,43.4988056 64.7847072,44.7598561 64.7847072,46.5693907 L64.7847072,54.4480329 L62.9831885,54.4480329 L62.9831885,53.1749596 C62.5828489,53.6873941 62.046402,54.067711 61.3738317,54.3159215 C60.7012613,54.564132 59.9486343,54.6882354 59.1159281,54.6882354 C58.0590318,54.6882354 57.1102414,54.3919886 56.2695284,53.7994861 C55.4288155,53.2069836 55.0084653,52.2782099 55.0084653,51.013137 C55.0084653,50.3886074 55.1886154,49.7160471 55.5489209,48.995436 C55.9092265,48.2748249 56.6258234,47.762398 57.6987333,47.45814 C58.4033309,47.2499634 59.1999946,47.0978367 60.0887483,47.0017552 C60.977502,46.9056737 61.9423057,46.825607 62.9831885,46.7615527 L62.9831885,46.5453704 C62.9831885,45.5205013 62.6749317,44.7478576 62.0584088,44.2274163 C61.441886,43.7069749 60.7332957,43.4467581 59.9326166,43.4467581 Z M62.9831885,49.9802663 L62.9831885,48.3709095 C61.6380477,48.466991 60.5571472,48.5710777 59.7404546,48.6831727 C58.923762,48.7952678 58.3072484,48.9634079 57.8908953,49.187598 C57.4425151,49.4438153 57.1502716,49.7160421 57.0141562,50.0042865 C56.8780408,50.292531 56.8099841,50.6127978 56.8099841,50.9650965 C56.8099841,51.5255718 57.0301675,51.9979654 57.470541,52.3822913 C57.9109144,52.7666172 58.587478,52.9587773 59.5002521,52.9587773 C60.461067,52.9587773 61.2817506,52.7025639 61.9623278,52.1901293 C62.642905,51.6776947 62.9831885,50.9410811 62.9831885,49.9802663 Z M77.6720396,52.9587773 C78.3766372,52.9587773 79.0131674,52.7586106 79.5816496,52.3582711 C80.1501317,51.9579315 80.5064285,51.3574313 80.6505507,50.5567523 L82.50011,50.5567523 C82.3399742,52.094056 81.7634939,53.1669498 80.770652,53.7754658 C79.77781,54.3839819 78.7449495,54.6882354 77.6720396,54.6882354 C76.5190618,54.6882354 75.422148,54.3319385 74.3812653,53.6193342 C73.3403826,52.9067299 72.819949,51.6456793 72.819949,49.8361448 L72.819949,46.5693907 C72.819949,44.7598561 73.3403826,43.4988056 74.3812653,42.7862012 C75.422148,42.0735969 76.5190618,41.7173001 77.6720396,41.7173001 C78.8250174,41.7173001 79.9219312,42.0735969 80.962814,42.7862012 C82.0036967,43.4988056 82.5241302,44.7598561 82.5241302,46.5693907 L82.5241302,48.6591525 L74.6214678,48.6591525 L74.6214678,49.860165 C74.6214678,50.8850341 74.9297246,51.6576778 75.5462475,52.1781192 C76.1627703,52.6985605 76.8713606,52.9587773 77.6720396,52.9587773 Z M80.7226115,47.0017552 L80.7226115,46.5453704 C80.7226115,45.5205013 80.4143547,44.7478576 79.7978318,44.2274163 C79.181309,43.7069749 78.4727187,43.4467581 77.6720396,43.4467581 C76.8713606,43.4467581 76.1627703,43.7069749 75.5462475,44.2274163 C74.9297246,44.7478576 74.6214678,45.5205013 74.6214678,46.5453704 L74.6214678,47.0017552 L80.7226115,47.0017552 Z M102.323056,54.4480329 L100.521537,54.4480329 L100.521537,46.4012489 C100.521537,45.4884748 100.221287,44.7678745 99.6207775,44.2394264 C99.0202683,43.7109782 98.3677247,43.4467581 97.6631271,43.4467581 C96.9265024,43.4467581 96.2619488,43.7149816 95.6694463,44.2514365 C95.0769439,44.7878915 94.7806971,45.5525284 94.7806971,46.5453704 L94.7806971,54.4480329 L92.9791783,54.4480329 L92.9791783,46.4012489 C92.9791783,45.4884748 92.6789281,44.7678745 92.0784189,44.2394264 C91.4779096,43.7109782 90.825366,43.4467581 90.1207685,43.4467581 C89.3841438,43.4467581 88.7195901,43.7149816 88.1270877,44.2514365 C87.5345852,44.7878915 87.2383384,45.5525284 87.2383384,46.5453704 L87.2383384,54.4480329 L85.4368196,54.4480329 L85.4368196,42.0535836 L87.2383384,42.0535836 L87.2383384,43.2305759 C87.5425964,42.7341549 87.9869666,42.3578414 88.5714623,42.1016241 C89.155958,41.8454068 89.6723882,41.7173001 90.1207685,41.7173001 C90.8093524,41.7173001 91.5019294,41.8694268 92.1985201,42.1736848 C92.8951109,42.4779429 93.4515745,42.9743564 93.8679275,43.6629404 C94.2842806,42.9743564 94.8447475,42.4779429 95.5493451,42.1736848 C96.2539426,41.8694268 96.9505229,41.7173001 97.6391069,41.7173001 C98.7440439,41.7173001 99.8009244,42.0896102 100.80978,42.8342417 C101.818636,43.5788732 102.323056,44.8239104 102.323056,46.5693907 L102.323056,54.4480329 Z M28.2400796,78.7084859 C27.0871018,78.7084859 25.990188,78.3521891 24.9493053,77.6395847 C23.9084226,76.9269804 23.387989,75.6659299 23.387989,73.8563953 L23.387989,70.5896412 C23.387989,68.7801066 23.9084226,67.5190561 24.9493053,66.8064517 C25.990188,66.0938474 27.0871018,65.7375506 28.2400796,65.7375506 C28.8005549,65.7375506 29.3730318,65.8656573 29.9575275,66.1218746 C30.5420232,66.3780919 30.9863934,66.7544054 31.2906514,67.2508264 L31.2906514,61.654108 L33.0921702,61.654108 L33.0921702,78.4682834 L31.2906514,78.4682834 L31.2906514,77.1952101 C30.9863934,77.6916311 30.5420232,78.0679446 29.9575275,78.3241619 C29.3730318,78.5803791 28.8005549,78.7084859 28.2400796,78.7084859 Z M25.1895078,73.8804155 C25.1895078,74.9052847 25.4977646,75.6779283 26.1142875,76.1983697 C26.7308103,76.7188111 27.4394006,76.9790278 28.2400796,76.9790278 C29.0407586,76.9790278 29.7493489,76.7188111 30.3658718,76.1983697 C30.9823946,75.6779283 31.2906514,74.9052847 31.2906514,73.8804155 L31.2906514,70.5656209 C31.2906514,69.5407518 30.9823946,68.7681081 30.3658718,68.2476668 C29.7493489,67.7272254 29.0407586,67.4670086 28.2400796,67.4670086 C27.4394006,67.4670086 26.7308103,67.7272254 26.1142875,68.2476668 C25.4977646,68.7681081 25.1895078,69.5407518 25.1895078,70.5656209 L25.1895078,73.8804155 Z M40.9770515,76.9790278 C41.681649,76.9790278 42.3181793,76.7788611 42.8866614,76.3785216 C43.4551435,75.9781821 43.8114403,75.3776818 43.9555625,74.5770028 L45.8051218,74.5770028 C45.644986,76.1143065 45.0685058,77.1872003 44.0756638,77.7957164 C43.0828218,78.4042324 42.0499613,78.7084859 40.9770515,78.7084859 C39.8240737,78.7084859 38.7271599,78.3521891 37.6862771,77.6395847 C36.6453944,76.9269804 36.1249608,75.6659299 36.1249608,73.8563953 L36.1249608,70.5896412 C36.1249608,68.7801066 36.6453944,67.5190561 37.6862771,66.8064517 C38.7271599,66.0938474 39.8240737,65.7375506 40.9770515,65.7375506 C42.1300292,65.7375506 43.226943,66.0938474 44.2678258,66.8064517 C45.3087085,67.5190561 45.8291421,68.7801066 45.8291421,70.5896412 L45.8291421,72.679403 L37.9264796,72.679403 L37.9264796,73.8804155 C37.9264796,74.9052847 38.2347364,75.6779283 38.8512593,76.1983697 C39.4677821,76.7188111 40.1763724,76.9790278 40.9770515,76.9790278 Z M44.0276233,71.0220057 L44.0276233,70.5656209 C44.0276233,69.5407518 43.7193665,68.7681081 43.1028436,68.2476668 C42.4863208,67.7272254 41.7777305,67.4670086 40.9770515,67.4670086 C40.1763724,67.4670086 39.4677821,67.7272254 38.8512593,68.2476668 C38.2347364,68.7681081 37.9264796,69.5407518 37.9264796,70.5656209 L37.9264796,71.0220057 L44.0276233,71.0220057 Z M51.1198362,75.6579141 C51.1198362,76.0582536 51.2039063,76.338487 51.3720489,76.4986228 C51.5401915,76.6587586 51.8404416,76.7388253 52.2728083,76.7388253 L54.170408,76.7388253 L54.170408,78.4682834 L52.2728083,78.4682834 C51.1198305,78.4682834 50.3391801,78.2400933 49.9308338,77.7837062 C49.5224875,77.3273192 49.3183174,76.5706889 49.3183174,75.5137926 L49.3183174,67.8032921 L47.5648392,67.8032921 L47.5648392,66.0738341 L49.3183174,66.0738341 L49.3183174,63.2634648 L51.1198362,63.2634648 L51.1198362,66.0738341 L54.170408,66.0738341 L54.170408,67.8032921 L51.1198362,67.8032921 L51.1198362,75.6579141 Z M61.070459,67.4670086 C60.3658615,67.4670086 59.7293312,67.6671754 59.1608491,68.0675149 C58.592367,68.4678544 58.2360702,69.0683547 58.0919479,69.8690337 L56.2423887,69.8690337 C56.4025245,68.33173 56.9790047,67.2588362 57.9718467,66.6503201 C58.9646887,66.0418041 59.9975491,65.7375506 61.070459,65.7375506 C62.2234368,65.7375506 63.3203506,66.0938474 64.3612333,66.8064517 C65.4021161,67.5190561 65.9225496,68.7801066 65.9225496,70.5896412 L65.9225496,78.4682834 L64.1210308,78.4682834 L64.1210308,77.1952101 C63.7206913,77.7076447 63.1842444,78.0879615 62.511674,78.336172 C61.8391037,78.5843825 61.0864767,78.7084859 60.2537705,78.7084859 C59.1968742,78.7084859 58.2480838,78.4122391 57.4073708,77.8197366 C56.5666578,77.2272341 56.1463076,76.2984604 56.1463076,75.0333875 C56.1463076,74.4088579 56.3264577,73.7362976 56.6867633,73.0156865 C57.0470688,72.2950754 57.7636658,71.7826485 58.8365757,71.4783905 C59.5411732,71.2702139 60.3378369,71.1180872 61.2265906,71.0220057 C62.1153443,70.9259242 63.0801481,70.8458575 64.1210308,70.7818032 L64.1210308,70.5656209 C64.1210308,69.5407518 63.812774,68.7681081 63.1962512,68.2476668 C62.5797283,67.7272254 61.871138,67.4670086 61.070459,67.4670086 Z M64.1210308,74.0005168 L64.1210308,72.39116 C62.7758901,72.4872415 61.6949896,72.5913282 60.878297,72.7034232 C60.0616044,72.8155183 59.4450908,72.9836584 59.0287377,73.2078485 C58.5803575,73.4640658 58.288114,73.7362926 58.1519986,74.024537 C58.0158831,74.3127815 57.9478264,74.6330483 57.9478264,74.985347 C57.9478264,75.5458224 58.1680099,76.0182159 58.6083833,76.4025418 C59.0487568,76.7868678 59.7253204,76.9790278 60.6380945,76.9790278 C61.5989093,76.9790278 62.419593,76.7228144 63.1001702,76.2103798 C63.7807473,75.6979452 64.1210308,74.9613316 64.1210308,74.0005168 Z M70.8769603,75.6579141 C70.8769603,76.0582536 70.9610303,76.338487 71.1291729,76.4986228 C71.2973155,76.6587586 71.5975656,76.7388253 72.0299323,76.7388253 L72.4142563,76.7388253 L72.4142563,78.4682834 L72.0299323,78.4682834 C70.8769545,78.4682834 70.0963042,78.2400933 69.6879579,77.7837062 C69.2796116,77.3273192 69.0754415,76.5706889 69.0754415,75.5137926 L69.0754415,61.654108 L70.8769603,61.654108 L70.8769603,75.6579141 Z M79.8427528,65.7375506 C80.9957306,65.7375506 82.0926444,66.0938474 83.1335271,66.8064517 C84.1744098,67.5190561 84.6948434,68.7801066 84.6948434,70.5896412 L84.6948434,78.4682834 L82.8933246,78.4682834 L82.8933246,70.5656209 C82.8933246,69.5407518 82.5850678,68.7681081 81.9685449,68.2476668 C81.3520221,67.7272254 80.6434318,67.4670086 79.8427528,67.4670086 C79.0420738,67.4670086 78.3334835,67.7272254 77.7169606,68.2476668 C77.1004378,68.7681081 76.792181,69.5407518 76.792181,70.5656209 L76.792181,78.4682834 L74.9906622,78.4682834 L74.9906622,61.654108 L76.792181,61.654108 L76.792181,67.2508264 C77.096439,66.7544054 77.5408092,66.3780919 78.1253049,66.1218746 C78.7098006,65.8656573 79.2822775,65.7375506 79.8427528,65.7375506 Z M92.4115829,76.9790278 C93.1161804,76.9790278 93.7527107,76.7788611 94.3211928,76.3785216 C94.8896749,75.9781821 95.2459717,75.3776818 95.3900939,74.5770028 L97.2396532,74.5770028 C97.0795174,76.1143065 96.5030372,77.1872003 95.5101952,77.7957164 C94.5173532,78.4042324 93.4844927,78.7084859 92.4115829,78.7084859 C91.2586051,78.7084859 90.1616913,78.3521891 89.1208085,77.6395847 C88.0799258,76.9269804 87.5594923,75.6659299 87.5594923,73.8563953 L87.5594923,70.5896412 C87.5594923,68.7801066 88.0799258,67.5190561 89.1208085,66.8064517 C90.1616913,66.0938474 91.2586051,65.7375506 92.4115829,65.7375506 C93.5645606,65.7375506 94.6614745,66.0938474 95.7023572,66.8064517 C96.7432399,67.5190561 97.2636735,68.7801066 97.2636735,70.5896412 L97.2636735,72.679403 L89.361011,72.679403 L89.361011,73.8804155 C89.361011,74.9052847 89.6692678,75.6779283 90.2857907,76.1983697 C90.9023135,76.7188111 91.6109038,76.9790278 92.4115829,76.9790278 Z M95.4621547,71.0220057 L95.4621547,70.5656209 C95.4621547,69.5407518 95.1538979,68.7681081 94.537375,68.2476668 C93.9208522,67.7272254 93.2122619,67.4670086 92.4115829,67.4670086 C91.6109038,67.4670086 90.9023135,67.7272254 90.2857907,68.2476668 C89.6692678,68.7681081 89.361011,69.5407518 89.361011,70.5656209 L89.361011,71.0220057 L95.4621547,71.0220057 Z M108.343248,69.7008919 L106.493689,69.7008919 C106.381594,68.9802808 106.093354,68.4278206 105.62896,68.0434946 C105.164566,67.6591687 104.548052,67.4670086 103.7794,67.4670086 C103.10683,67.4670086 102.550366,67.627142 102.109993,67.9474136 C101.66962,68.2676852 101.449436,68.7080521 101.449436,69.2685274 C101.449436,69.780962 101.60957,70.1692855 101.929841,70.4335096 C102.250113,70.6977336 102.658453,70.8858904 103.154874,70.9979855 L105.484838,71.5744715 C106.413626,71.7986616 107.17426,72.1829818 107.766762,72.7274435 C108.359264,73.2719052 108.655511,74.1126056 108.655511,75.2495698 C108.655511,76.4666019 108.239164,77.3473356 107.406458,77.8917974 C106.573752,78.4362591 105.532885,78.7084859 104.283826,78.7084859 C102.986726,78.7084859 101.857785,78.3802124 100.89697,77.7236556 C99.9361555,77.0670988 99.4077153,75.994205 99.3116338,74.504942 L101.161193,74.504942 C101.241261,75.3696754 101.577541,75.998199 102.170044,76.3905317 C102.762546,76.7828644 103.467133,76.9790278 104.283826,76.9790278 C105.148559,76.9790278 105.785089,76.8188944 106.193436,76.4986228 C106.601782,76.1783512 106.813959,75.745991 106.829972,75.2015293 C106.829972,74.8011898 106.713876,74.4368863 106.481679,74.1086079 C106.249482,73.7803295 105.789098,73.5361261 105.100514,73.3759903 L102.674469,72.775484 C102.001899,72.6153482 101.325335,72.279068 100.644758,71.7666335 C99.9641806,71.2541989 99.6238971,70.4455252 99.6238971,69.3405882 C99.6238971,68.203624 100.036241,67.3188869 100.86094,66.6863505 C101.685639,66.0538141 102.666456,65.7375506 103.803421,65.7375506 C105.05248,65.7375506 106.09735,66.0538141 106.938063,66.6863505 C107.778776,67.3188869 108.247167,68.323724 108.343248,69.7008919 Z" id="Vejaatelaemdetalhes" fill="#FFFFFF" fill-rule="nonzero"></path>
                </g>
            </g>
        </g>
    </g>
</svg>