<?xml version="1.0" encoding="UTF-8"?>
<svg width="341px" height="507px" viewBox="0 0 341 507" version="1.1" xmlns="http://www.w3.org/2000/svg" xmlns:xlink="http://www.w3.org/1999/xlink">
    <!-- Generator: Sketch 53 (72520) - https://sketchapp.com -->
    <title>balao copy 7</title>
    <desc>Created with Sketch.</desc>
    <g id="Page-1" stroke="none" stroke-width="1" fill="none" fill-rule="evenodd">
        <g id="Group-6" transform="translate(99.791920, 15.000000)">
            <g id="Group">
                <g id="Group-27-Copy" transform="translate(0.029359, 0.569233)">
                    <path d="M70.6924495,472.220774 C66.254923,472.228744 56.9295214,472.685133 41.849873,459.914193 C26.6506775,447.042008 13.6434505,420.796668 8.14746421,371.570209 C2.65147794,322.34375 10.7785405,213.316736 13.6434505,172.45773 C16.5083605,131.598723 -7.51047394,76.9516493 2.42121414,38.1323282 C9.04233953,12.2527808 31.8342904,-0.453869668 70.7970667,0.0123768814 C109.758254,-0.453303284 132.549336,12.2533575 139.170314,38.1323282 C149.102002,76.9516493 125.083167,131.598723 127.948078,172.45773 C130.812988,213.316736 138.94005,322.590968 133.444064,371.570209 C127.948078,420.549449 114.940851,447.042008 99.741655,459.914193 C84.5424594,472.786378 75.1891083,472.285914 70.7944613,472.285914 C70.7600533,472.285914 70.7260493,472.264201 70.6924495,472.220774 Z" id="Combined-Shape" fill="#645E5E"></path>
                    <g id="Group-32" transform="translate(19.955853, 22.806689)">
                        <circle id="Oval" fill="#D8D8D8" cx="5.22653291" cy="5.22653291" r="5.22653291"></circle>
                        <circle id="Oval-Copy" fill="#464646" cx="5.22653291" cy="5.22653291" r="2.61326646"></circle>
                    </g>
                    <g id="Group-32-Copy-2" transform="translate(40.861985, 15.204459)">
                        <circle id="Oval" fill="#D8D8D8" cx="5.22653291" cy="5.22653291" r="5.22653291"></circle>
                        <circle id="Oval-Copy" fill="#464646" cx="5.22653291" cy="5.22653291" r="2.61326646"></circle>
                    </g>
                    <g id="Group-32-Copy-5" transform="translate(62.718395, 9.502787)" fill="#D8D8D8">
                        <circle id="Oval" cx="8.07736905" cy="8.07736905" r="8.07736905"></circle>
                    </g>
                    <g id="Group-32-Copy-25" transform="translate(31.359197, 152.044594)" fill="#D8D8D8">
                        <circle id="Oval" cx="5.22653291" cy="5.22653291" r="5.22653291"></circle>
                    </g>
                    <g id="Group-32-Copy-26" transform="translate(100.729543, 152.044594)" fill="#D8D8D8">
                        <circle id="Oval" cx="5.22653291" cy="5.22653291" r="5.22653291"></circle>
                    </g>
                    <g id="Group-32-Copy-27" transform="translate(103.580380, 224.265776)" fill="#D8D8D8">
                        <circle id="Oval" cx="5.22653291" cy="5.22653291" r="5.22653291"></circle>
                    </g>
                    <circle id="Oval" fill="#EB7065" cx="89.8013382" cy="241.845932" r="5.22653291"></circle>
                    <polygon id="Triangle" fill="#FFE47B" transform="translate(53.737785, 241.988470) rotate(1.000000) translate(-53.737785, -241.988470) " points="53.7377485 236.710705 59.0144885 247.266235 48.461082 247.266199"></polygon>
                    <g id="Group-32-Copy-28" transform="translate(31.359197, 226.166333)" fill="#D8D8D8">
                        <circle id="Oval" cx="5.22653291" cy="5.22653291" r="5.22653291"></circle>
                    </g>
                    <circle id="Oval" fill="#FFE47B" cx="70.795764" cy="80.2985511" r="8.07736905"></circle>
                    <circle id="Oval" fill="#2C2828" cx="36.5857304" cy="124.011372" r="8.07736905"></circle>
                    <circle id="Oval-Copy-2" fill="#2C2828" cx="105.956076" cy="124.011372" r="8.07736905"></circle>
                    <circle id="Oval-Copy-3" fill="#2C2828" cx="114.508585" cy="59.3924195" r="8.07736905"></circle>
                    <g id="Group-23" transform="translate(48.464214, 42.762542)" fill="#2C2828">
                        <ellipse id="Oval-Copy-13" cx="36.781376" cy="8.07736905" rx="7.88172343" ry="8.07736905"></ellipse>
                        <ellipse id="Oval-Copy-14" cx="7.88172343" cy="8.07736905" rx="7.88172343" ry="8.07736905"></ellipse>
                        <path d="M14.2194578,2.50799433 C16.7016874,3.6651744 19.2583494,4.20432733 21.8894439,4.12545314 C24.5474938,4.04577088 27.2021896,3.52116857 29.8535314,2.55164623 L29.8535305,2.55164382 C31.4096125,1.98262766 33.132345,2.78280265 33.7013612,4.33888469 C33.8412995,4.72157234 33.9018122,5.12875625 33.8792085,5.53559975 L33.5846252,10.8378631 C33.4927138,12.4921686 32.0771253,13.7587393 30.4228198,13.6668279 C30.1618528,13.6523288 29.9038994,13.6037882 29.6555119,13.522439 C27.1766448,12.7105866 24.3390714,12.3913736 21.1427915,12.5648001 C18.3869756,12.7143274 15.9587191,13.2157902 13.8580223,14.0691883 L13.8580217,14.0691868 C12.3229999,14.6927821 10.573095,13.953925 9.94949964,12.4189032 C9.78983529,12.0258786 9.71534009,11.6034606 9.7309308,11.1795291 L9.95388371,5.11680092 C10.0147761,3.46105891 11.4063832,2.16817781 13.0621252,2.22907016 C13.4626618,2.24380048 13.856186,2.3386422 14.2194578,2.50799433 Z" id="Rectangle-Copy-45"></path>
                    </g>
                    <g id="Group-23-Copy" transform="translate(48.464214, 98.828986)" fill="#2C2828">
                        <ellipse id="Oval-Copy-13" cx="36.781376" cy="8.07736905" rx="7.88172343" ry="8.07736905"></ellipse>
                        <ellipse id="Oval-Copy-14" cx="7.88172343" cy="8.07736905" rx="7.88172343" ry="8.07736905"></ellipse>
                        <path d="M14.2194578,2.50799433 C16.7016874,3.6651744 19.2583494,4.20432733 21.8894439,4.12545314 C24.5474938,4.04577088 27.2021896,3.52116857 29.8535314,2.55164623 L29.8535305,2.55164382 C31.4096125,1.98262766 33.132345,2.78280265 33.7013612,4.33888469 C33.8412995,4.72157234 33.9018122,5.12875625 33.8792085,5.53559975 L33.5846252,10.8378631 C33.4927138,12.4921686 32.0771253,13.7587393 30.4228198,13.6668279 C30.1618528,13.6523288 29.9038994,13.6037882 29.6555119,13.522439 C27.1766448,12.7105866 24.3390714,12.3913736 21.1427915,12.5648001 C18.3869756,12.7143274 15.9587191,13.2157902 13.8580223,14.0691883 L13.8580217,14.0691868 C12.3229999,14.6927821 10.573095,13.953925 9.94949964,12.4189032 C9.78983529,12.0258786 9.71534009,11.6034606 9.7309308,11.1795291 L9.95388371,5.11680092 C10.0147761,3.46105891 11.4063832,2.16817781 13.0621252,2.22907016 C13.4626618,2.24380048 13.856186,2.3386422 14.2194578,2.50799433 Z" id="Rectangle-Copy-45"></path>
                    </g>
                    <g id="Group-23-Copy-2" transform="translate(110.078041, 273.041679) rotate(-83.000000) translate(-110.078041, -273.041679) translate(87.578041, 265.041679)" fill="#2C2828">
                        <ellipse id="Oval-Copy-13" cx="36.9369203" cy="7.91663417" rx="7.91505436" ry="7.91663417"></ellipse>
                        <ellipse id="Oval-Copy-14" cx="7.91505436" cy="7.91663417" rx="7.91505436" ry="7.91663417"></ellipse>
                        <path d="M14.2407699,2.4403723 C16.7456585,3.58673614 19.3260725,4.12106506 21.9820119,4.04335905 C24.6621674,3.96494454 27.3389272,3.4469065 30.0122913,2.48924492 L30.0122951,2.48925547 C31.5720838,1.93050265 33.289501,2.74200257 33.8482538,4.30179127 C33.9838887,4.68042345 34.0420047,5.08246318 34.0191462,5.48400601 L33.7291037,10.5789986 C33.634937,12.2331738 32.2176259,13.4978106 30.5634507,13.4036439 C30.309022,13.3891602 30.0574757,13.3423166 29.8148886,13.2642448 C27.3175028,12.4605113 24.4566073,12.144019 21.232202,12.3147679 C18.4502026,12.4620892 16.0006109,12.9579739 13.8834271,13.8024221 L13.883432,13.8024344 C12.3444674,14.4162572 10.5992884,13.6662817 9.98546563,12.1273171 C9.83034719,11.7384072 9.75835545,11.3213333 9.77412178,10.9029267 L9.99446624,5.0553103 C10.0568554,3.39962862 11.449627,2.10800981 13.1053086,2.17039895 C13.4978199,2.18518949 13.8836062,2.27691612 14.2407699,2.4403723 Z" id="Rectangle-Copy-45"></path>
                    </g>
                    <g id="Group-23-Copy-3" transform="translate(30.724694, 273.041679) scale(-1, 1) rotate(-83.000000) translate(-30.724694, -273.041679) translate(8.224694, 265.041679)" fill="#2C2828">
                        <ellipse id="Oval-Copy-13" cx="36.9369203" cy="7.91663417" rx="7.91505436" ry="7.91663417"></ellipse>
                        <ellipse id="Oval-Copy-14" cx="7.91505436" cy="7.91663417" rx="7.91505436" ry="7.91663417"></ellipse>
                        <path d="M14.2407699,2.4403723 C16.7456585,3.58673614 19.3260725,4.12106506 21.9820119,4.04335905 C24.6621674,3.96494454 27.3389272,3.4469065 30.0122913,2.48924492 L30.0122951,2.48925547 C31.5720838,1.93050265 33.289501,2.74200257 33.8482538,4.30179127 C33.9838887,4.68042345 34.0420047,5.08246318 34.0191462,5.48400601 L33.7291037,10.5789986 C33.634937,12.2331738 32.2176259,13.4978106 30.5634507,13.4036439 C30.309022,13.3891602 30.0574757,13.3423166 29.8148886,13.2642448 C27.3175028,12.4605113 24.4566073,12.144019 21.232202,12.3147679 C18.4502026,12.4620892 16.0006109,12.9579739 13.8834271,13.8024221 L13.883432,13.8024344 C12.3444674,14.4162572 10.5992884,13.6662817 9.98546563,12.1273171 C9.83034719,11.7384072 9.75835545,11.3213333 9.77412178,10.9029267 L9.99446624,5.0553103 C10.0568554,3.39962862 11.449627,2.10800981 13.1053086,2.17039895 C13.4978199,2.18518949 13.8836062,2.27691612 14.2407699,2.4403723 Z" id="Rectangle-Copy-45"></path>
                    </g>
                    <circle id="Oval-Copy-4" fill="#2C2828" cx="25.1823859" cy="59.3924195" r="8.07736905"></circle>
                    <circle id="Oval-Copy-5" fill="#2C2828" cx="38.4862878" cy="80.2985511" r="8.07736905"></circle>
                    <circle id="Oval-Copy-6" fill="#2C2828" cx="104.055519" cy="80.2985511" r="8.07736905"></circle>
                    <g id="Group-32-Copy-6" transform="translate(57.016723, 180.552955)" fill="#D8D8D8">
                        <circle id="Oval" cx="13.7790413" cy="13.7790413" r="13.7790413"></circle>
                    </g>
                    <g id="Group-37" transform="translate(30.408919, 305.989745)" fill="#D8D8D8">
                        <g id="Group-32-Copy-7">
                            <ellipse id="Oval" cx="9.25786992" cy="6.59915772" rx="9.25786992" ry="6.59915772"></ellipse>
                        </g>
                        <g id="Group-32-Copy-8" transform="translate(33.504672, 0.000000)">
                            <ellipse id="Oval" cx="9.25786992" cy="6.59915772" rx="9.25786992" ry="6.59915772"></ellipse>
                        </g>
                        <g id="Group-32-Copy-9" transform="translate(67.009344, 0.000000)">
                            <ellipse id="Oval" cx="9.25786992" cy="6.59915772" rx="9.25786992" ry="6.59915772"></ellipse>
                        </g>
                        <g id="Group-32-Copy-12" transform="translate(0.000000, 27.276519)">
                            <ellipse id="Oval" cx="9.25786992" cy="6.59915772" rx="9.25786992" ry="6.59915772"></ellipse>
                        </g>
                        <g id="Group-32-Copy-11" transform="translate(33.504672, 27.276519)">
                            <ellipse id="Oval" cx="9.25786992" cy="6.59915772" rx="9.25786992" ry="6.59915772"></ellipse>
                        </g>
                        <g id="Group-32-Copy-10" transform="translate(67.009344, 27.276519)">
                            <ellipse id="Oval" cx="9.25786992" cy="6.59915772" rx="9.25786992" ry="6.59915772"></ellipse>
                        </g>
                        <g id="Group-32-Copy-15" transform="translate(0.000000, 54.553037)">
                            <ellipse id="Oval" cx="9.25786992" cy="6.59915772" rx="9.25786992" ry="6.59915772"></ellipse>
                        </g>
                        <g id="Group-32-Copy-14" transform="translate(33.504672, 54.553037)">
                            <ellipse id="Oval" cx="9.25786992" cy="6.59915772" rx="9.25786992" ry="6.59915772"></ellipse>
                        </g>
                        <g id="Group-32-Copy-13" transform="translate(67.009344, 54.553037)">
                            <ellipse id="Oval" cx="9.25786992" cy="6.59915772" rx="9.25786992" ry="6.59915772"></ellipse>
                        </g>
                        <g id="Group-32-Copy-18" transform="translate(0.000000, 81.829556)">
                            <ellipse id="Oval" cx="9.25786992" cy="6.59915772" rx="9.25786992" ry="6.59915772"></ellipse>
                        </g>
                        <g id="Group-32-Copy-17" transform="translate(33.504672, 81.829556)">
                            <ellipse id="Oval" cx="9.25786992" cy="6.59915772" rx="9.25786992" ry="6.59915772"></ellipse>
                        </g>
                        <g id="Group-32-Copy-16" transform="translate(67.009344, 81.829556)">
                            <ellipse id="Oval" cx="9.25786992" cy="6.59915772" rx="9.25786992" ry="6.59915772"></ellipse>
                        </g>
                    </g>
                    <g id="Group-32-Copy-4" transform="translate(118.036232, 28.306689) scale(-1, 1) translate(-118.036232, -28.306689) translate(112.536232, 22.806689)">
                        <circle id="Oval" fill="#D8D8D8" cx="5.22653291" cy="5.22653291" r="5.22653291"></circle>
                        <circle id="Oval-Copy" fill="#464646" cx="5.22653291" cy="5.22653291" r="2.61326646"></circle>
                    </g>
                    <g id="Group-32-Copy-3" transform="translate(98.080380, 20.704459) scale(-1, 1) translate(-98.080380, -20.704459) translate(92.580380, 15.204459)">
                        <circle id="Oval" fill="#D8D8D8" cx="5.22653291" cy="5.22653291" r="5.22653291"></circle>
                        <circle id="Oval-Copy" fill="#464646" cx="5.22653291" cy="5.22653291" r="2.61326646"></circle>
                    </g>
                    <g id="Group-38" transform="translate(37.060870, 160.597102)" fill="#D8D8D8">
                        <path d="M14.9285608,8.86900459 L21.6863403,16.9620014 C21.9748075,17.2602108 22.3500077,17.4093156 22.8119408,17.4093156 C23.2738739,17.4093156 23.6933329,17.2602108 24.0703177,16.9620014 C26.6555879,15.1222585 29.9097434,14.2023871 33.832784,14.2023871 C37.7558246,14.2023871 40.720027,15.1222585 42.725391,16.9620014 C43.068575,17.2602108 43.425215,17.4093156 43.7953112,17.4093156 C44.1654073,17.4093156 44.5253311,17.2602108 44.8750825,16.9620014 L52.8450883,8.68743694 C53.103788,8.42555881 53.2331378,8.06228091 53.2331378,7.59760322 C53.2331378,7.13292553 53.103788,6.77998726 52.8450883,6.53878841 C46.5974494,2.17959614 40.2600146,0 33.832784,0 C24.1919381,0 17.6169601,3.77200768 15.6923459,6.04847555 C15.3464825,6.457569 14.9857057,6.76797274 14.7625904,7.44651968 C14.5862692,7.98275481 14.6415927,8.45691645 14.9285608,8.86900459 Z" id="Path-8"></path>
                        <path d="M39.9419311,34.1241458 L46.6923969,42.2259107 C46.980552,42.5244433 47.3553461,42.6737096 47.8167793,42.6737096 C48.2782125,42.6737096 48.6972175,42.5244433 49.0737943,42.2259107 C51.6562666,40.3841747 54.9069003,39.4633066 58.8256952,39.4633066 C62.7444901,39.4633066 65.7054844,40.3841747 67.7086781,42.2259107 C68.0514907,42.5244433 68.4077448,42.6737096 68.7774404,42.6737096 C69.147136,42.6737096 69.5066702,42.5244433 69.8560431,42.2259107 L77.8174234,33.9423815 C78.0758431,33.6802196 78.2050529,33.3165481 78.2050529,32.851367 C78.2050529,32.3861859 78.0758431,32.0328652 77.8174234,31.7914051 C71.576546,27.4274899 65.2459699,25.2455324 58.8256952,25.2455324 C49.195283,25.2455324 42.6274209,29.0216267 40.7048896,31.300561 C40.3594004,31.7100976 39.9990141,32.0208377 39.7761403,32.7001198 C39.6000099,33.2369359 39.6552735,33.7116112 39.9419311,34.1241458 Z" id="Path-8-Copy" transform="translate(58.940322, 33.959621) rotate(-270.000000) translate(-58.940322, -33.959621) "></path>
                        <path d="M13.9811375,58.4813076 L20.738917,66.5743044 C21.0273842,66.8725138 21.4025844,67.0216186 21.8645175,67.0216186 C22.3264506,67.0216186 22.7459096,66.8725138 23.1228944,66.5743044 C25.7081646,64.7345615 28.9623201,63.8146901 32.8853607,63.8146901 C36.8084013,63.8146901 39.7726037,64.7345615 41.7779677,66.5743044 C42.1211517,66.8725138 42.4777917,67.0216186 42.8478879,67.0216186 C43.217984,67.0216186 43.5779078,66.8725138 43.9276592,66.5743044 L51.897665,58.2997399 C52.1563647,58.0378618 52.2857145,57.6745839 52.2857145,57.2099062 C52.2857145,56.7452285 52.1563647,56.3922903 51.897665,56.1510914 C45.6500261,51.7918991 39.3125913,49.612303 32.8853607,49.612303 C23.2445148,49.612303 16.6695368,53.3843107 14.7449226,55.6607786 C14.3990592,56.069872 14.0382824,56.3802758 13.8151671,57.0588227 C13.6388459,57.5950578 13.6941694,58.0692195 13.9811375,58.4813076 Z" id="Path-8-Copy-2" transform="translate(33.000112, 58.316961) rotate(-180.000000) translate(-33.000112, -58.316961) "></path>
                        <path d="M-10.2389525,33.2376465 L-3.48848671,41.3394114 C-3.20033163,41.637944 -2.8255375,41.7872103 -2.36410432,41.7872103 C-1.90267114,41.7872103 -1.48366614,41.637944 -1.10708932,41.3394114 C1.475383,39.4976753 4.72601662,38.5768073 8.64481154,38.5768073 C12.5636065,38.5768073 15.5246008,39.4976753 17.5277945,41.3394114 C17.8706071,41.637944 18.2268611,41.7872103 18.5965568,41.7872103 C18.9662524,41.7872103 19.3257866,41.637944 19.6751595,41.3394114 L27.6365398,33.0558821 C27.8949595,32.7937203 28.0241693,32.4300488 28.0241693,31.9648676 C28.0241693,31.4996865 27.8949595,31.1463659 27.6365398,30.9049057 C21.3956624,26.5409906 15.0650863,24.359033 8.64481154,24.359033 C-0.985600583,24.359033 -7.55346274,28.1351274 -9.47599403,30.4140616 C-9.82148319,30.8235983 -10.1818695,31.1343383 -10.4047433,31.8136204 C-10.5808737,32.3504365 -10.5256101,32.8251119 -10.2389525,33.2376465 Z" id="Path-8-Copy-3" transform="translate(8.759438, 33.073122) rotate(-90.000000) translate(-8.759438, -33.073122) "></path>
                    </g>
                    <rect id="Rectangle" fill="#D8D8D8" x="58.9172801" y="132.088741" width="23.7569678" height="13.303902" rx="3"></rect>
                    <rect id="Rectangle-Copy-44" fill="#5B8FC9" x="64.6189524" y="239.470235" width="12.3536232" height="10.4530658" rx="1"></rect>
                    <path d="M61.2953724,261.490653 C64.4621698,261.770436 67.6289672,261.910328 70.7957646,261.910328 C73.9625619,261.910328 77.1293593,261.770436 80.2961567,261.490653 L80.2961559,261.490644 C82.9401151,261.257053 85.2728306,263.211042 85.5064218,265.855001 C85.5188474,265.995644 85.5250692,266.136766 85.5250692,266.277956 L85.5250669,267.236264 C85.5250669,269.802217 83.5827161,271.951652 81.0298744,272.210713 C77.6185045,272.556898 74.2071345,272.72999 70.7957646,272.72999 C67.3843936,272.72999 63.9730227,272.556898 60.5616518,272.210713 L60.5616521,272.210711 C58.0088105,271.951649 56.0664599,269.802214 56.0664599,267.236261 L56.0664599,266.277956 C56.0664599,263.623698 58.2181611,261.471997 60.872419,261.471997 C61.0136092,261.471997 61.1547308,261.478218 61.2953732,261.490644 Z" id="Rectangle-Copy-41" fill="#D8D8D8"></path>
                    <rect id="Rectangle-Copy-42" fill="#D8D8D8" x="49.414493" y="284.133335" width="16.1547381" height="10.4530658" rx="3"></rect>
                    <rect id="Rectangle-Copy-43" fill="#D8D8D8" x="76.0222969" y="284.133335" width="16.1547381" height="10.4530658" rx="3"></rect>
                </g>
            </g>
            <path d="M70.7218085,472.790007 C66.2842821,472.797977 56.9588804,473.254366 41.8792321,460.483425 C26.6800365,447.61124 13.6728095,421.365901 8.17682325,372.139442 C2.68083698,322.912983 10.8078995,213.885969 13.6728095,173.026963 C16.5377195,132.167956 -7.4811149,77.5208821 2.45057318,38.701561 C9.07169857,12.8220136 31.8636494,0.115363132 70.8264257,0.581609681 C109.787613,0.115929515 132.578695,12.8225903 139.199673,38.701561 C149.131361,77.5208821 125.112527,132.167956 127.977437,173.026963 C130.842347,213.885969 138.969409,323.160201 133.473423,372.139442 C127.977437,421.118682 114.97021,447.61124 99.771014,460.483425 C84.5718185,473.355611 75.2184674,472.855147 70.8238203,472.855147 C70.7894123,472.855147 70.7554084,472.833434 70.7218085,472.790007 Z M70.908317,236.751986 C94.1379224,236.751986 112.969238,217.92067 112.969238,194.691065 C112.969238,171.461459 94.1379224,152.630143 70.908317,152.630143 C47.6787116,152.630143 28.8473958,171.461459 28.8473958,194.691065 C28.8473958,217.92067 47.6787116,236.751986 70.908317,236.751986 Z" id="Combined-Shape" fill="#F5F5F5" opacity="0.5"></path>
            <circle id="Oval-Copy-7" stroke="#00C0D2" stroke-width="6" cx="70.6345051" cy="194.865495" r="42.1345051"></circle>
        </g>
        <path d="M337.203917,189.217364 C319.665605,190.595374 302.950968,191.907615 284.524779,193.356092 C288.859248,188.542452 292.211884,184.818692 296.345914,180.227413 C272.664496,174.937733 252.573733,180.416889 234.203917,195.531156 C243.056067,171.552212 269.858366,158.544109 307.301096,159.73734 C308.702595,154.738922 310.147939,149.583911 311.961276,143.11979 C316.648076,151.616476 320.788371,159.082786 324.887951,166.571018 C328.910801,173.916752 332.894504,181.287541 337.203917,189.217364" id="Fill-77-Copy" fill="#00C0D2" transform="translate(285.703917, 169.325473) scale(-1, 1) rotate(-355.000000) translate(-285.703917, -169.325473) "></path>
    </g>
</svg>