<?xml version="1.0" encoding="UTF-8"?>
<svg width="605px" height="415px" viewBox="0 0 605 415" version="1.1" xmlns="http://www.w3.org/2000/svg" xmlns:xlink="http://www.w3.org/1999/xlink">
    <!-- Generator: Sketch 53 (72520) - https://sketchapp.com -->
    <title>69_ts_tv_cabo_coaxial copy 33</title>
    <desc>Created with Sketch.</desc>
    <g id="Page-1" stroke="none" stroke-width="1" fill="none" fill-rule="evenodd">
        <g id="Group-Copy-2" transform="translate(164.036308, 15.382707)">
            <g id="Group-5-Copy-2">
                <g id="Group-4-Copy-2" transform="translate(0.470220, 0.179023)">
                    <path d="M139.000192,0.0185521289 C170.607681,-0.160950701 189.04852,10.2198189 194.32271,31.1608609 C202.312246,62.8831166 182.990321,107.539448 185.294994,140.928487 C187.599668,174.317527 194.137475,263.613914 189.716235,303.638622 C185.294994,343.66333 174.831345,365.312439 162.604368,375.831293 C150.377392,386.350146 142.853098,385.941179 139.317829,385.941179 C139.263686,385.941179 139.210565,385.87329 139.158466,385.737512 C139.106918,385.872697 139.054133,385.94029 139.000109,385.94029 C135.46484,385.94029 127.940546,386.402631 115.71357,375.882348 C103.486593,365.362066 93.0229437,343.912065 88.6017035,303.679871 C84.1804632,263.447677 90.7182699,174.341208 93.0229437,140.947632 C95.3276175,107.554057 76.005692,62.8916592 83.9952278,31.165094 C89.3215849,10.0140506 107.656545,-0.370942231 139.000109,0.0101154766 Z" id="Combined-Shape" fill="#645E5E"></path>
                    <g id="Group-3" transform="translate(0.000000, 220.190813)">
                        <rect id="Rectangle" fill="#343030" x="109.183308" y="22.7426659" width="57.9158715" height="96.688955" rx="5"></rect>
                        <g id="Group" transform="translate(114.814018, 28.430251)">
                            <rect id="Rectangle-Copy-2" fill="#CDC2C2" transform="translate(10.457032, 3.250049) scale(1, -1) translate(-10.457032, -3.250049) " x="6.43509684" y="0" width="8.04387104" height="6.50009781" rx="3.25004891"></rect>
                            <rect id="Rectangle-Copy" fill="#F3EDED" x="0" y="3.25004891" width="20.9140647" height="82.8762471" rx="5"></rect>
                        </g>
                        <g id="Group-Copy" transform="translate(137.968470, 71.869060) rotate(-180.000000) translate(-137.968470, -71.869060) translate(114.468470, 28.369060)">
                            <rect id="Rectangle-Copy-2" fill="#CDC2C2" transform="translate(10.457032, 3.250049) scale(1, -1) translate(-10.457032, -3.250049) " x="6.43509684" y="0" width="8.04387104" height="6.50009781" rx="3.25004891"></rect>
                            <rect id="Rectangle-Copy" fill="#F3EDED" x="0" y="3.25004891" width="20.9140647" height="82.8762471" rx="5"></rect>
                            <g id="Group-2" transform="translate(0.000000, 18.687781)">
                                <rect id="Rectangle-Copy-4" fill="#B5AEAE" x="0" y="0" width="20.9140647" height="47.9382214"></rect>
                                <rect id="Rectangle-Copy-5" fill="#5974A0" x="0" y="44.6881725" width="20.9140647" height="3.25004891"></rect>
                                <rect id="Rectangle-Copy-6" fill="#5974A0" x="0" y="0" width="20.9140647" height="3.25004891"></rect>
                            </g>
                            <g id="Group-2-Copy" transform="translate(25.740387, 18.687781)">
                                <rect id="Rectangle-Copy-4" fill="#B5AEAE" x="0" y="0" width="20.9140647" height="47.9382214"></rect>
                                <rect id="Rectangle-Copy-5" fill="#5974A0" x="0" y="44.6881725" width="20.9140647" height="3.25004891"></rect>
                                <rect id="Rectangle-Copy-6" fill="#5974A0" x="0" y="0" width="20.9140647" height="3.25004891"></rect>
                            </g>
                        </g>
                        <rect id="Rectangle" stroke="#D1C7C7" x="116.922792" y="110.181474" width="16.6965163" height="1" rx="0.5"></rect>
                        <rect id="Rectangle-Copy-3" stroke="#D1C7C7" x="142.663179" y="32.9928126" width="16.6965163" height="1" rx="0.5"></rect>
                        <path d="M64.229568,77.1799893 C53.9879278,78.0275901 44.2273874,78.8345052 33.4675796,79.7253599 C36.0074434,76.8864678 37.9722002,74.6897469 40.3963887,71.9818874 C26.5822153,68.9224334 14.8414788,72.1865403 4.08576447,81.1104881 C9.30384161,66.9942747 24.9782836,59.2912803 46.8348516,59.9129267 C47.6639511,56.9723425 48.5183611,53.9383715 49.590647,50.1337233 C52.3085624,55.1196105 54.7096351,59.4998236 57.0872979,63.8931018 C59.4209492,68.2037911 61.7295794,72.5275512 64.229568,77.1799893" id="Fill-62" fill="#00C0D2" transform="translate(34.157666, 65.622106) scale(-1, 1) rotate(-203.000000) translate(-34.157666, -65.622106) "></path>
                        <path d="M76.1098529,34.3878528 C65.8779507,35.2248243 56.1266901,36.0216087 45.3771134,36.9012967 C47.911683,34.0627743 49.8723438,31.8663388 52.2914812,29.1588337 C38.4858396,26.0814194 26.7587774,29.3353175 16.0220891,38.2550288 C21.2202166,24.1324332 36.8727388,16.4401837 58.711187,17.0866093 C59.5363525,14.1444096 60.3867046,11.1087706 61.453901,7.30203166 C64.1749393,12.2952321 66.5787442,16.6818848 68.9591737,21.0815879 C71.295539,25.3985821 73.606919,29.7286307 76.1098529,34.3878528" id="Fill-62-Copy" fill="#00C0D2" transform="translate(46.065971, 22.778530) scale(-1, 1) rotate(-15.000000) translate(-46.065971, -22.778530) "></path>
                    </g>
                    <ellipse id="Oval" fill="#363232" cx="139.158969" cy="8.12512227" rx="7.23948394" ry="2.43753668"></ellipse>
                    <ellipse id="Oval-Copy" fill="#423D3D" cx="96.124259" cy="44.2819164" rx="3.21754842" ry="3.65630502"></ellipse>
                    <ellipse id="Oval-Copy-2" fill="#423D3D" cx="183.40026" cy="44.2819164" rx="3.21754842" ry="3.65630502"></ellipse>
                    <ellipse id="Oval-Copy-4" fill="#423D3D" cx="96.124259" cy="299.410756" rx="3.21754842" ry="3.65630502"></ellipse>
                    <ellipse id="Oval-Copy-3" fill="#423D3D" cx="183.40026" cy="299.410756" rx="3.21754842" ry="3.65630502"></ellipse>
                    <path d="M102.961549,16.2502445 L175.998956,16.2502445 C160.202385,18.5005225 147.369373,19.6256615 137.499921,19.6256615 C127.630468,19.6256615 116.117678,18.5005225 102.961549,16.2502445 Z" id="Path-5" fill="#2C2C2C"></path>
                </g>
            </g>
        </g>
    </g>
</svg>