<?xml version="1.0" encoding="UTF-8"?>
<svg width="605px" height="415px" viewBox="0 0 605 415" version="1.1" xmlns="http://www.w3.org/2000/svg" xmlns:xlink="http://www.w3.org/1999/xlink">
    <!-- Generator: Sketch 53 (72520) - https://sketchapp.com -->
    <title>69_ts_tv_cabo_coaxial copy 32</title>
    <desc>Created with Sketch.</desc>
    <defs>
        <rect id="path-1" x="0.503218563" y="0" width="603.408244" height="428.4"></rect>
    </defs>
    <g id="Page-1" stroke="none" stroke-width="1" fill="none" fill-rule="evenodd">
        <g id="Group" transform="translate(0.289580, -13.317293)">
            <mask id="mask-2" fill="white">
                <use xlink:href="#path-1"></use>
            </mask>
            <use id="Mask" fill-opacity="0" fill="#D8D8D8" xlink:href="#path-1"></use>
            <g mask="url(#mask-2)">
                <g transform="translate(163.546033, 12.077246)">
                    <g id="Group-27-Copy" stroke="none" stroke-width="1" fill="none" fill-rule="evenodd" transform="translate(68.225663, 50.380421)">
                        <path d="M74.8701458,500.127503 C70.1703758,500.135943 60.2938729,500.619304 44.3230659,487.093642 C28.2256468,473.460752 14.4497345,445.664397 8.62895313,393.528813 C2.80817175,341.393229 11.4155175,225.923069 14.4497345,182.649427 C17.4839515,139.375784 -7.95431878,81.4992442 2.56430011,40.3858261 C9.5767127,12.9768807 33.7155945,-0.480691905 74.9809456,0.0131083153 C116.244613,-0.48009205 140.382575,12.9774915 147.394832,40.3858261 C157.913451,81.4992442 132.47518,139.375784 135.509397,182.649427 C138.543614,225.923069 147.15096,341.655057 141.330179,393.528813 C135.509397,445.402569 121.733485,473.460752 105.636066,487.093642 C89.5386468,500.726532 79.6325427,500.196492 74.9781862,500.196492 C74.9417447,500.196492 74.9057313,500.173496 74.8701458,500.127503 Z" id="Combined-Shape" fill="#645E5E"></path>
                        <path d="M21.9949825,21.3471054 C21.4765799,21.3471054 21.0769839,21.2067068 20.7961825,20.9259054 C20.5153811,20.645104 20.3577027,20.2951875 20.3231425,19.8761454 L21.0294625,19.8761454 C21.0769828,20.1267066 21.1860617,20.3200247 21.3567025,20.4561054 C21.5273434,20.5921861 21.7444212,20.6602254 22.0079425,20.6602254 C22.2412237,20.6602254 22.4269818,20.6073059 22.5652225,20.5014654 C22.7034632,20.3956249 22.7725825,20.2563063 22.7725825,20.0835054 C22.7725825,19.9150245 22.721823,19.7778659 22.6203025,19.6720254 C22.518782,19.5661849 22.3557036,19.4851857 22.1310625,19.4290254 L21.3275425,19.2346254 C21.029461,19.165505 20.7994233,19.0175465 20.6374225,18.7907454 C20.4754217,18.5639443 20.3944225,18.288547 20.3944225,17.9645454 C20.3944225,17.5282232 20.5380611,17.2053064 20.8253425,16.9957854 C21.112624,16.7862643 21.4571405,16.6815054 21.8589025,16.6815054 C22.3125048,16.6815054 22.6699812,16.8003042 22.9313425,17.0379054 C23.1927038,17.2755066 23.3514622,17.5822235 23.4076225,17.9580654 L22.7013025,17.9580654 C22.6581023,17.7723045 22.5630632,17.6275859 22.4161825,17.5239054 C22.2693018,17.4202249 22.0857036,17.3683854 21.8653825,17.3683854 C21.5975412,17.3683854 21.4031431,17.4245448 21.2821825,17.5368654 C21.1612219,17.649186 21.1007425,17.7917445 21.1007425,17.9645454 C21.1007425,18.1373463 21.149342,18.2723449 21.2465425,18.3695454 C21.343743,18.4667459 21.4657818,18.5326252 21.6126625,18.5671854 L22.3902625,18.7551054 C22.7488243,18.8415058 23.0199016,18.9959443 23.2035025,19.2184254 C23.3871034,19.4409065 23.4789025,19.7335836 23.4789025,20.0964654 C23.4789025,20.4593472 23.3493038,20.7585042 23.0901025,20.9939454 C22.8309012,21.2293866 22.4658649,21.3471054 21.9949825,21.3471054 Z M26.8955678,17.4331854 L25.6190078,17.4331854 L25.6190078,21.2823054 L24.9256478,21.2823054 L24.9256478,17.4331854 L23.6490878,17.4331854 L23.6490878,16.7463054 L26.8955678,16.7463054 L26.8955678,17.4331854 Z M27.2990331,21.2823054 L27.2990331,16.7463054 L29.0486331,16.7463054 C29.4979153,16.7463054 29.8424319,16.8651042 30.0821931,17.1027054 C30.3219543,17.3403066 30.4418331,17.6535034 30.4418331,18.0423054 C30.4418331,18.2323863 30.4040335,18.4073446 30.3284331,18.5671854 C30.2528327,18.7270262 30.1415938,18.8587849 29.9947131,18.9624654 C30.1891141,19.079106 30.3305927,19.2270645 30.4191531,19.4063454 C30.5077135,19.5856263 30.5519931,19.7746244 30.5519931,19.9733454 C30.5519931,20.3751074 30.4321143,20.6937042 30.1923531,20.9291454 C29.9525919,21.1645866 29.6080753,21.2823054 29.1587931,21.2823054 L27.2990331,21.2823054 Z M29.0486331,17.4331854 L27.9923931,17.4331854 L27.9923931,18.6514254 L29.0486331,18.6514254 C29.2603142,18.6514254 29.4277125,18.5995859 29.5508331,18.4959054 C29.6739537,18.3922249 29.7355131,18.2410264 29.7355131,18.0423054 C29.7355131,17.8435844 29.6739537,17.6923859 29.5508331,17.5887054 C29.4277125,17.4850249 29.2603142,17.4331854 29.0486331,17.4331854 Z M29.1587931,19.3383054 L27.9923931,19.3383054 L27.9923931,20.5954254 L29.1587931,20.5954254 C29.3704742,20.5954254 29.5378725,20.5425059 29.6609931,20.4366654 C29.7841137,20.3308249 29.8456731,20.1742264 29.8456731,19.9668654 C29.8456731,19.7595044 29.7841137,19.6029059 29.6609931,19.4970654 C29.5378725,19.3912249 29.3704742,19.3383054 29.1587931,19.3383054 Z" id="STB" fill="#FFFFFF" fill-rule="nonzero"></path>
                        <g id="Group-32" transform="translate(21.135180, 24.154491)">
                            <circle id="Oval" fill="#D8D8D8" cx="5.53540419" cy="5.53540419" r="5.53540419"></circle>
                            <circle id="Oval-Copy" fill="#464646" cx="5.53540419" cy="5.53540419" r="2.7677021"></circle>
                        </g>
                        <g id="Group-32-Copy-2" transform="translate(43.276796, 16.102994)">
                            <circle id="Oval" fill="#D8D8D8" cx="5.53540419" cy="5.53540419" r="5.53540419"></circle>
                            <circle id="Oval-Copy" fill="#464646" cx="5.53540419" cy="5.53540419" r="2.7677021"></circle>
                        </g>
                        <g id="Group-32-Copy-5" transform="translate(66.424850, 10.064371)" fill="#D8D8D8">
                            <circle id="Oval" cx="8.55471557" cy="8.55471557" r="8.55471557"></circle>
                        </g>
                        <g id="Group-32-Copy-25" transform="translate(33.212425, 161.029940)" fill="#D8D8D8">
                            <circle id="Oval" cx="5.53540419" cy="5.53540419" r="5.53540419"></circle>
                        </g>
                        <g id="Group-32-Copy-26" transform="translate(106.682335, 161.029940)" fill="#D8D8D8">
                            <circle id="Oval" cx="5.53540419" cy="5.53540419" r="5.53540419"></circle>
                        </g>
                        <g id="Group-32-Copy-27" transform="translate(109.701647, 237.519162)" fill="#D8D8D8">
                            <circle id="Oval" cx="5.53540419" cy="5.53540419" r="5.53540419"></circle>
                        </g>
                        <circle id="Oval" fill="#EB7065" cx="95.1083084" cy="256.138249" r="5.53540419"></circle>
                        <polygon id="Triangle" fill="#FFE47B" transform="translate(56.913515, 256.289210) rotate(1.000000) translate(-56.913515, -256.289210) " points="56.9134765 250.699547 62.5020549 261.878874 51.3249761 261.878835"></polygon>
                        <g id="Group-32-Copy-28" transform="translate(33.212425, 239.532036)" fill="#D8D8D8">
                            <circle id="Oval" cx="5.53540419" cy="5.53540419" r="5.53540419"></circle>
                        </g>
                        <circle id="Oval" fill="#FFE47B" cx="74.9795659" cy="85.0439371" r="8.55471557"></circle>
                        <circle id="Oval" fill="#2C2828" cx="38.7478293" cy="131.340045" r="8.55471557"></circle>
                        <circle id="Oval-Copy-2" fill="#2C2828" cx="112.21774" cy="131.340045" r="8.55471557"></circle>
                        <circle id="Oval-Copy-3" fill="#2C2828" cx="121.275674" cy="62.9023204" r="8.55471557"></circle>
                        <g id="Group-23" transform="translate(51.328293, 45.289671)" fill="#2C2828">
                            <ellipse id="Oval-Copy-13" cx="38.955037" cy="8.55471557" rx="8.34750793" ry="8.55471557"></ellipse>
                            <ellipse id="Oval-Copy-14" cx="8.34750793" cy="8.55471557" rx="8.34750793" ry="8.55471557"></ellipse>
                            <path d="M14.1471004,2.20276178 C17.060877,3.74032619 20.0728567,4.46249031 23.1830396,4.36925414 C26.3286838,4.27495492 29.4698926,3.59230097 32.606666,2.32129227 L32.6066583,2.32127322 C33.8504917,1.81727668 35.2673877,2.41703289 35.7713843,3.66086623 C35.9059175,3.99288619 35.9653763,4.35054492 35.9455035,4.70823406 L35.5140794,12.4737471 C35.4396307,13.8137431 34.2929968,14.8396718 32.9530008,14.7652231 C32.7030959,14.7513387 32.4568361,14.6989289 32.2229347,14.6098482 C29.4099672,13.5385367 26.1330764,13.1043671 22.3922625,13.3073393 C19.0521896,13.4885678 16.1664411,14.1579299 13.7350171,15.3154256 L13.7350145,15.3154202 C12.5232689,15.8922798 11.0733179,15.3776031 10.4964582,14.1658574 C10.3281539,13.8123191 10.2477751,13.4233454 10.2621654,13.0320544 L10.5846886,4.26257921 C10.6340109,2.92144099 11.7612019,1.87421729 13.1023402,1.92353963 C13.4671461,1.9369559 13.8242415,2.03239306 14.1471004,2.20276178 Z" id="Rectangle-Copy-45"></path>
                        </g>
                        <g id="Group-23-Copy" transform="translate(51.328293, 104.669461)" fill="#2C2828">
                            <ellipse id="Oval-Copy-13" cx="38.955037" cy="8.55471557" rx="8.34750793" ry="8.55471557"></ellipse>
                            <ellipse id="Oval-Copy-14" cx="8.34750793" cy="8.55471557" rx="8.34750793" ry="8.55471557"></ellipse>
                            <path d="M14.1471004,2.20276178 C17.060877,3.74032619 20.0728567,4.46249031 23.1830396,4.36925414 C26.3286838,4.27495492 29.4698926,3.59230097 32.606666,2.32129227 L32.6066583,2.32127322 C33.8504917,1.81727668 35.2673877,2.41703289 35.7713843,3.66086623 C35.9059175,3.99288619 35.9653763,4.35054492 35.9455035,4.70823406 L35.5140794,12.4737471 C35.4396307,13.8137431 34.2929968,14.8396718 32.9530008,14.7652231 C32.7030959,14.7513387 32.4568361,14.6989289 32.2229347,14.6098482 C29.4099672,13.5385367 26.1330764,13.1043671 22.3922625,13.3073393 C19.0521896,13.4885678 16.1664411,14.1579299 13.7350171,15.3154256 L13.7350145,15.3154202 C12.5232689,15.8922798 11.0733179,15.3776031 10.4964582,14.1658574 C10.3281539,13.8123191 10.2477751,13.4233454 10.2621654,13.0320544 L10.5846886,4.26257921 C10.6340109,2.92144099 11.7612019,1.87421729 13.1023402,1.92353963 C13.4671461,1.9369559 13.8242415,2.03239306 14.1471004,2.20276178 Z" id="Rectangle-Copy-45"></path>
                        </g>
                        <g id="Group-23-Copy-2" transform="translate(116.623245, 289.116656) rotate(-83.000000) translate(-116.623245, -289.116656) translate(92.728245, 280.611656)" fill="#2C2828">
                            <ellipse id="Oval-Copy-13" cx="39.1197735" cy="8.38448178" rx="8.38280861" ry="8.38448178"></ellipse>
                            <ellipse id="Oval-Copy-14" cx="8.38280861" cy="8.38448178" rx="8.38280861" ry="8.38448178"></ellipse>
                            <path d="M14.1729871,2.14141066 C17.1096348,3.66041011 20.1456652,4.37404275 23.2810781,4.28230857 C26.4495443,4.18960733 29.6135295,3.51677859 32.7730337,2.26382235 L32.7730399,2.26383783 C34.0205665,1.7691095 35.4329431,2.37937308 35.9276715,3.62689967 C36.0578962,3.95527948 36.1149576,4.30810398 36.0948803,4.66079177 L35.6661314,12.1922527 C35.5898566,13.532131 34.4418378,14.556484 33.1019595,14.4802092 C32.8582654,14.4663365 32.6180522,14.4158261 32.3894083,14.3303789 C29.5578053,13.272171 26.2569881,12.8428884 22.4869569,13.0425311 C19.119173,13.2208727 16.2113384,13.8815179 13.763453,15.0244667 L13.7634489,15.0244578 C12.5474236,15.5922355 11.1013656,15.0667269 10.533588,13.8507017 C10.3702197,13.5008112 10.2925891,13.1170247 10.3071297,12.7311477 L10.628288,4.20826414 C10.6788231,2.86716421 11.8069662,1.82095472 13.1480662,1.87148983 C13.5054054,1.88495503 13.8553688,1.9771206 14.1729871,2.14141066 Z" id="Rectangle-Copy-45"></path>
                        </g>
                        <g id="Group-23-Copy-3" transform="translate(32.500478, 289.116656) scale(-1, 1) rotate(-83.000000) translate(-32.500478, -289.116656) translate(8.605478, 280.611656)" fill="#2C2828">
                            <ellipse id="Oval-Copy-13" cx="39.1197735" cy="8.38448178" rx="8.38280861" ry="8.38448178"></ellipse>
                            <ellipse id="Oval-Copy-14" cx="8.38280861" cy="8.38448178" rx="8.38280861" ry="8.38448178"></ellipse>
                            <path d="M14.1729871,2.14141066 C17.1096348,3.66041011 20.1456652,4.37404275 23.2810781,4.28230857 C26.4495443,4.18960733 29.6135295,3.51677859 32.7730337,2.26382235 L32.7730399,2.26383783 C34.0205665,1.7691095 35.4329431,2.37937308 35.9276715,3.62689967 C36.0578962,3.95527948 36.1149576,4.30810398 36.0948803,4.66079177 L35.6661314,12.1922527 C35.5898566,13.532131 34.4418378,14.556484 33.1019595,14.4802092 C32.8582654,14.4663365 32.6180522,14.4158261 32.3894083,14.3303789 C29.5578053,13.272171 26.2569881,12.8428884 22.4869569,13.0425311 C19.119173,13.2208727 16.2113384,13.8815179 13.763453,15.0244667 L13.7634489,15.0244578 C12.5474236,15.5922355 11.1013656,15.0667269 10.533588,13.8507017 C10.3702197,13.5008112 10.2925891,13.1170247 10.3071297,12.7311477 L10.628288,4.20826414 C10.6788231,2.86716421 11.8069662,1.82095472 13.1480662,1.87148983 C13.5054054,1.88495503 13.8553688,1.9771206 14.1729871,2.14141066 Z" id="Rectangle-Copy-45"></path>
                        </g>
                        <circle id="Oval-Copy-4" fill="#2C2828" cx="26.6705838" cy="62.9023204" r="8.55471557"></circle>
                        <circle id="Oval-Copy-5" fill="#2C2828" cx="40.7607036" cy="85.0439371" r="8.55471557"></circle>
                        <circle id="Oval-Copy-6" fill="#2C2828" cx="110.204865" cy="85.0439371" r="8.55471557"></circle>
                        <g id="Group-32-Copy-6" transform="translate(60.386228, 191.223054)" fill="#D8D8D8">
                            <circle id="Oval" cx="14.5933383" cy="14.5933383" r="14.5933383"></circle>
                        </g>
                        <g id="Group-37" transform="translate(32.205988, 324.072754)" fill="#D8D8D8">
                            <g id="Group-32-Copy-7">
                                <ellipse id="Oval" cx="9.80498025" cy="6.98914671" rx="9.80498025" ry="6.98914671"></ellipse>
                            </g>
                            <g id="Group-32-Copy-8" transform="translate(35.484690, 0.000000)">
                                <ellipse id="Oval" cx="9.80498025" cy="6.98914671" rx="9.80498025" ry="6.98914671"></ellipse>
                            </g>
                            <g id="Group-32-Copy-9" transform="translate(70.969381, 0.000000)">
                                <ellipse id="Oval" cx="9.80498025" cy="6.98914671" rx="9.80498025" ry="6.98914671"></ellipse>
                            </g>
                            <g id="Group-32-Copy-12" transform="translate(0.000000, 28.888473)">
                                <ellipse id="Oval" cx="9.80498025" cy="6.98914671" rx="9.80498025" ry="6.98914671"></ellipse>
                            </g>
                            <g id="Group-32-Copy-11" transform="translate(35.484690, 28.888473)">
                                <ellipse id="Oval" cx="9.80498025" cy="6.98914671" rx="9.80498025" ry="6.98914671"></ellipse>
                            </g>
                            <g id="Group-32-Copy-10" transform="translate(70.969381, 28.888473)">
                                <ellipse id="Oval" cx="9.80498025" cy="6.98914671" rx="9.80498025" ry="6.98914671"></ellipse>
                            </g>
                        </g>
                        <g id="Group-32-Copy-4" transform="translate(125.166826, 29.824491) scale(-1, 1) translate(-125.166826, -29.824491) translate(119.496826, 24.154491)">
                            <circle id="Oval" fill="#D8D8D8" cx="5.53540419" cy="5.53540419" r="5.53540419"></circle>
                            <circle id="Oval-Copy" fill="#464646" cx="5.53540419" cy="5.53540419" r="2.7677021"></circle>
                        </g>
                        <g id="Group-32-Copy-3" transform="translate(104.031647, 21.772994) scale(-1, 1) translate(-104.031647, -21.772994) translate(98.361647, 16.102994)">
                            <circle id="Oval" fill="#D8D8D8" cx="5.53540419" cy="5.53540419" r="5.53540419"></circle>
                            <circle id="Oval-Copy" fill="#464646" cx="5.53540419" cy="5.53540419" r="2.7677021"></circle>
                        </g>
                        <g id="Group-38" transform="translate(39.251048, 170.087874)" fill="#D8D8D8">
                            <path d="M15.8107908,9.39313422 L22.9679332,17.9644011 C23.273448,18.2802338 23.6708213,18.4381501 24.1600531,18.4381501 C24.649285,18.4381501 25.0935326,18.2802338 25.492796,17.9644011 C28.2308474,16.0159353 31.677313,15.0417024 35.8321927,15.0417024 C39.9870724,15.0417024 43.1264495,16.0159353 45.2503241,17.9644011 C45.6137892,18.2802338 45.9915055,18.4381501 46.3834732,18.4381501 C46.7754408,18.4381501 47.1566349,18.2802338 47.5270555,17.9644011 L55.968063,9.20083651 C56.242051,8.92348223 56.379045,8.53873577 56.379045,8.04659712 C56.379045,7.55445848 56.242051,7.18066269 55.968063,6.92520977 C49.3512087,2.30840326 42.639252,0 35.8321927,0 C25.6216038,0 18.6580658,3.9949212 16.6197131,6.40592099 C16.2534102,6.83919055 15.8713127,7.16793816 15.635012,7.88658504 C15.4482708,8.45450994 15.5068637,8.956693 15.8107908,9.39313422 Z" id="Path-8"></path>
                            <path d="M42.3023707,36.1407731 L49.4517674,44.7213262 C49.7569515,45.0375011 50.1538947,45.1955885 50.6425971,45.1955885 C51.1312995,45.1955885 51.5750664,45.0375011 51.9738977,44.7213262 C54.7089858,42.7707495 58.1517214,41.7954611 62.3021045,41.7954611 C66.4524876,41.7954611 69.5884671,42.7707495 71.7100432,44.7213262 C72.0731148,45.0375011 72.4504224,45.1955885 72.8419658,45.1955885 C73.2335093,45.1955885 73.6142908,45.0375011 73.9843105,44.7213262 L82.4161827,35.948267 C82.6898742,35.6706122 82.82672,35.2854489 82.82672,34.7927771 C82.82672,34.3001053 82.6898742,33.9259045 82.4161827,33.6701748 C75.8064896,29.0483663 69.1017968,26.7374621 62.3021045,26.7374621 C52.102566,26.7374621 45.1465643,30.7367115 43.1104176,33.1503234 C42.7445112,33.5840624 42.3628272,33.9131662 42.1267823,34.6325916 C41.9402431,35.2011319 41.9987726,35.703859 42.3023707,36.1407731 Z" id="Path-8-Copy" transform="translate(62.423506, 35.966525) rotate(-270.000000) translate(-62.423506, -35.966525) "></path>
                            <path d="M14.8073778,61.9373647 L21.9645202,70.5086316 C22.270035,70.8244643 22.6674083,70.9823806 23.1566402,70.9823806 C23.645872,70.9823806 24.0901197,70.8244643 24.4893831,70.5086316 C27.2274345,68.5601658 30.6739,67.5859329 34.8287797,67.5859329 C38.9836594,67.5859329 42.1230366,68.5601658 44.2469112,70.5086316 C44.6103762,70.8244643 44.9880925,70.9823806 45.3800602,70.9823806 C45.7720278,70.9823806 46.1532219,70.8244643 46.5236425,70.5086316 L54.96465,61.745067 C55.238638,61.4677127 55.375632,61.0829663 55.375632,60.5908276 C55.375632,60.098689 55.238638,59.7248932 54.96465,59.4694403 C48.3477958,54.8526338 41.635839,52.5442305 34.8287797,52.5442305 C24.6181908,52.5442305 17.6546528,56.5391517 15.6163001,58.9501515 C15.2499972,59.383421 14.8678997,59.7121687 14.6315991,60.4308155 C14.4448578,60.9987404 14.5034507,61.5009235 14.8073778,61.9373647 Z" id="Path-8-Copy-2" transform="translate(34.950312, 61.763306) rotate(-180.000000) translate(-34.950312, -61.763306) "></path>
                            <path d="M-10.8440417,35.2018845 L-3.69464505,43.7824376 C-3.38946093,44.0986125 -2.99251768,44.2566999 -2.50381528,44.2566999 C-2.01511288,44.2566999 -1.57134603,44.0986125 -1.17251473,43.7824376 C1.56257339,41.8318608 5.005309,40.8565725 9.15569208,40.8565725 C13.3060752,40.8565725 16.4420547,41.8318608 18.5636308,43.7824376 C18.9267024,44.0986125 19.30401,44.2566999 19.6955534,44.2566999 C20.0870969,44.2566999 20.4678784,44.0986125 20.8378981,43.7824376 L29.2697703,35.0093784 C29.5434618,34.7317236 29.6803075,34.3465603 29.6803075,33.8538885 C29.6803075,33.3612166 29.5434618,32.9870159 29.2697703,32.7312862 C22.6600772,28.1094777 15.9553844,25.7985735 9.15569208,25.7985735 C-1.04384641,25.7985735 -7.99984808,29.7978229 -10.0359948,32.2114348 C-10.4019012,32.6451738 -10.7835852,32.9742776 -11.0196301,33.693703 C-11.2061693,34.2622432 -11.1476398,34.7649704 -10.8440417,35.2018845 Z" id="Path-8-Copy-3" transform="translate(9.277093, 35.027637) rotate(-90.000000) translate(-9.277093, -35.027637) "></path>
                        </g>
                        <rect id="Rectangle" fill="#D8D8D8" x="62.3991018" y="139.89476" width="25.1609281" height="14.0901198" rx="2.43"></rect>
                        <rect id="Rectangle-Copy-44" fill="#5B8FC9" x="68.4377246" y="253.622156" width="13.0836826" height="11.0708084" rx="0.81"></rect>
                        <path d="M63.824605,276.842086 C67.5429255,277.206286 71.261246,277.388385 74.9795665,277.388385 C78.6978841,277.388385 82.4162017,277.206286 86.1345193,276.842087 L86.1345184,276.842078 C88.360624,276.624037 90.3419962,278.251895 90.5600371,280.478001 C90.5728885,280.609208 90.5793257,280.740964 90.5793257,280.872799 L90.5793188,284.148464 C90.5793188,286.210213 89.0304276,287.9429 86.9815735,288.173128 C82.9809045,288.622679 78.9802355,288.847455 74.9795665,288.847455 C70.9788954,288.847455 66.9782242,288.622679 62.9775531,288.173127 L62.9775537,288.173122 C60.928699,287.942894 59.3798073,286.210206 59.3798073,284.148457 L59.3798036,280.872801 C59.3798036,278.636046 61.193052,276.822798 63.4298073,276.822798 C63.561642,276.822798 63.6933981,276.829235 63.824605,276.842086 Z" id="Rectangle-Copy-41" fill="#D8D8D8"></path>
                        <rect id="Rectangle-Copy-42" fill="#D8D8D8" x="52.3347305" y="300.924701" width="17.1094311" height="11.0708084" rx="2.43"></rect>
                        <rect id="Rectangle-Copy-43" fill="#D8D8D8" x="80.5149701" y="300.924701" width="17.1094311" height="11.0708084" rx="2.43"></rect>
                    </g>
                    <path d="M68.7176281,102.836813 C74.2515664,106.861573 81.0633987,109.235653 88.4297269,109.235653 C106.958461,109.235653 121.978967,94.2151463 121.978967,75.6864126 C121.978967,66.990741 118.670709,59.0677544 113.244156,53.1074159 C121.955677,51.1633768 131.943159,50.2587461 143.206608,50.3935297 C184.470276,49.9003294 208.608238,63.3579129 215.620495,90.7662475 C226.139113,131.879666 200.700843,189.756206 203.73506,233.029848 C206.769277,276.303491 215.376623,392.035478 209.555842,443.909234 C203.73506,495.78299 189.959148,523.841173 173.861729,537.474063 C157.76431,551.106953 147.858206,550.576914 143.203849,550.576914 C143.167408,550.576914 143.131394,550.553917 143.095809,550.507924 C138.396039,550.516365 128.519536,550.999725 112.548729,537.474063 C96.4513097,523.841173 82.6753974,496.044818 76.854616,443.909234 C71.0338347,391.77365 79.6411804,276.303491 82.6753974,233.029848 C85.4230582,193.843036 64.8222516,142.68132 68.7176281,102.836813 Z M144.503207,365.521235 C163.031941,365.521235 178.052447,350.500728 178.052447,331.971995 C178.052447,313.443261 163.031941,298.422754 144.503207,298.422754 C125.974474,298.422754 110.953967,313.443261 110.953967,331.971995 C110.953967,350.500728 125.974474,365.521235 144.503207,365.521235 Z" id="Combined-Shape" stroke="none" fill="#F5F5F5" fill-rule="evenodd" opacity="0.5"></path>
                    <path d="M70.2251569,37.6789931 C58.9530611,38.5646578 48.2103512,39.4080521 36.3676055,40.3390064 C39.1534235,37.2452187 41.3082054,34.8519112 43.9651994,31.9010376 C28.7448507,28.501293 15.8322624,32.0228165 4.0257485,41.7369476 C9.71513757,26.3253759 26.9413154,17.9649027 51.0062335,18.7318078 C51.9069948,15.5192605 52.8359362,12.2060695 54.0013904,8.05149701 C57.0136567,13.5124249 59.6746765,18.3111171 62.3095289,23.1238994 C64.8950659,27.845096 67.4554419,32.5823955 70.2251569,37.6789931" id="Fill-77-Copy" stroke="none" fill="#00C0D2" fill-rule="evenodd" transform="translate(37.125453, 24.894222) rotate(-345.000000) translate(-37.125453, -24.894222) "></path>
                    <path d="M251.625367,309.407525 C240.353271,310.29319 229.610561,311.136584 217.767816,312.067539 C220.553634,308.973751 222.708416,306.580443 225.36541,303.62957 C210.145061,300.229825 197.232473,303.751349 185.425959,313.46548 C191.115348,298.053908 208.341526,289.693435 232.406444,290.46034 C233.307205,287.247793 234.236146,283.934602 235.401601,279.780029 C238.413867,285.240957 241.074887,290.039649 243.709739,294.852432 C246.295276,299.573628 248.855652,304.310928 251.625367,309.407525" id="Fill-77-Copy-2" stroke="none" fill="#00C0D2" fill-rule="evenodd" transform="translate(218.525663, 296.622754) scale(-1, 1) rotate(-345.000000) translate(-218.525663, -296.622754) "></path>
                    <circle id="Oval" stroke="#00C0D2" stroke-width="4.86" fill="none" cx="88.4671264" cy="75.6540705" r="33.0997042"></circle>
                    <circle id="Oval-Copy-7" stroke="#00C0D2" stroke-width="4.86" fill="none" cx="143.375663" cy="331.522459" r="33.0997042"></circle>
                </g>
            </g>
        </g>
    </g>
</svg>