<?xml version="1.0" encoding="UTF-8"?>
<svg width="272px" height="237px" viewBox="0 0 272 237" version="1.1" xmlns="http://www.w3.org/2000/svg" xmlns:xlink="http://www.w3.org/1999/xlink">
    <!-- Generator: Sketch 53 (72520) - https://sketchapp.com -->
    <title>op3_51 copy 2</title>
    <desc>Created with Sketch.</desc>
    <g id="Page-1" stroke="none" stroke-width="1" fill="none" fill-rule="evenodd">
        <g id="Group-3" transform="translate(30.989580, 13.200000)">
            <g id="Group-2" transform="translate(105.174000, 105.426000) rotate(-90.000000) translate(-105.174000, -105.426000) translate(0.324000, 0.576000)">
                <path d="M44.1235357,19.0932813 C59.4386631,6.36442709 79.841834,0 105.333048,0 C130.866649,0 151.117444,6.54607263 166.085435,19.6382179 L166.085439,19.6382138 C169.856702,22.9368476 170.239843,28.6681314 166.941209,32.4393943 C166.824093,32.5732907 166.703064,32.7037134 166.57828,32.8304933 L148.538746,51.1584371 C144.347175,55.417021 137.787302,56.2578304 132.65719,53.19405 C124.737179,48.4641 115.629132,46.099125 105.333048,46.099125 C94.7833111,46.099125 85.1779297,48.4430508 76.5169043,53.1309024 L76.5169057,53.130905 C71.3882318,55.9068422 65.0371233,54.9153906 60.9985353,50.7083809 L43.3776739,32.3526753 C39.9079259,28.7382281 40.0252277,22.9953532 43.6396749,19.5256052 C43.795755,19.3757735 43.9571452,19.2315734 44.1235357,19.0932813 Z" id="Rectangle-Copy-15" fill="#00C0D2"></path>
                <path d="M44.1235357,173.369676 C59.4386631,160.640822 79.841834,154.276395 105.333048,154.276395 C130.866649,154.276395 151.117444,160.822468 166.085435,173.914613 L166.085439,173.914609 C169.856702,177.213243 170.239843,182.944526 166.941209,186.715789 C166.824093,186.849686 166.703064,186.980108 166.57828,187.106888 L148.538746,205.434832 C144.347175,209.693416 137.787302,210.534225 132.65719,207.470445 C124.737179,202.740495 115.629132,200.37552 105.333048,200.37552 C94.7833111,200.37552 85.1779297,202.719446 76.5169043,207.407297 L76.5169057,207.4073 C71.3882318,210.183237 65.0371233,209.191786 60.9985353,204.984776 L43.3776739,186.62907 C39.9079259,183.014623 40.0252277,177.271748 43.6396749,173.802 C43.795755,173.652168 43.9571452,173.507968 44.1235357,173.369676 Z" id="Rectangle-Copy-14" fill="#00C0D2" transform="translate(105.017530, 181.790197) scale(1, -1) translate(-105.017530, -181.790197) "></path>
                <path d="M121.261733,96.2314787 C136.576861,83.5026246 156.980032,77.1381975 182.471246,77.1381975 C208.004846,77.1381975 228.255642,83.6842701 243.223633,96.7764154 L243.223636,96.7764113 C246.994899,100.075045 247.378041,105.806329 244.079407,109.577592 C243.962291,109.711488 243.841262,109.841911 243.716477,109.968691 L225.676943,128.296635 C221.485372,132.555218 214.925499,133.396028 209.795387,130.332247 C201.875376,125.602297 192.767329,123.237322 182.471246,123.237322 C171.921509,123.237322 162.316127,125.581248 153.655102,130.2691 L153.655103,130.269102 C148.526429,133.04504 142.175321,132.053588 138.136733,127.846578 L120.515871,109.490873 C117.046123,105.876426 117.163425,100.133551 120.777872,96.6638027 C120.933953,96.513971 121.095343,96.3697708 121.261733,96.2314787 Z" id="Rectangle-Copy-13" fill="#D8D8D8" transform="translate(182.155728, 104.652000) rotate(-270.000000) translate(-182.155728, -104.652000) "></path>
                <path d="M-33.0146618,96.2314787 C-17.6995343,83.5026246 2.70363656,77.1381975 28.1948509,77.1381975 C53.728451,77.1381975 73.9792466,83.6842701 88.9472376,96.7764154 L88.9472412,96.7764113 C92.7185042,100.075045 93.1016457,105.806329 89.8030119,109.577592 C89.6858959,109.711488 89.564867,109.841911 89.4400821,109.968691 L71.400548,128.296635 C67.2089774,132.555218 60.6491045,133.396028 55.5189924,130.332247 C47.5989814,125.602297 38.4909343,123.237322 28.1948509,123.237322 C17.6451136,123.237322 8.03973225,125.581248 -0.621293144,130.2691 L-0.621291733,130.269102 C-5.74996568,133.04504 -12.1010741,132.053588 -16.1396622,127.846578 L-33.7605236,109.490873 C-37.2302716,105.876426 -37.1129697,100.133551 -33.4985225,96.6638027 C-33.3424424,96.513971 -33.1810523,96.3697708 -33.0146618,96.2314787 Z" id="Rectangle-Copy-12" fill="#D8D8D8" transform="translate(27.879333, 104.652000) scale(1, -1) rotate(-90.000000) translate(-27.879333, -104.652000) "></path>
            </g>
            <circle id="Oval" fill="#D8D8D8" cx="105.3" cy="105.3" r="34.3461768"></circle>
            <path d="M100.253376,107.686656 L100.253376,101.242944 C100.253376,99.8553531 99.8161964,98.8384352 98.941824,98.19216 C98.0674516,97.5458848 97.1360689,97.222752 96.147648,97.222752 C95.1592271,97.222752 94.2278444,97.5458848 93.353472,98.19216 C92.4790996,98.8384352 92.04192,99.8553531 92.04192,101.242944 L92.04192,107.686656 C92.04192,109.074247 92.4790996,110.091165 93.353472,110.73744 C94.2278444,111.383715 95.1592271,111.706848 96.147648,111.706848 C97.1360689,111.706848 98.0674516,111.383715 98.941824,110.73744 C99.8161964,110.091165 100.253376,109.074247 100.253376,107.686656 Z M88.991136,107.686656 L88.991136,101.242944 C88.991136,99.0950293 89.6516574,97.3843264 90.97272,96.110784 C92.2937826,94.8372416 94.0187414,94.20048 96.147648,94.20048 C98.2765546,94.20048 100.001513,94.8372416 101.322576,96.110784 C102.643639,97.3843264 103.30416,99.0950293 103.30416,101.242944 L103.30416,107.686656 C103.30416,109.834571 102.643639,111.545274 101.322576,112.818816 C100.001513,114.092358 98.2765546,114.72912 96.147648,114.72912 C94.0187414,114.72912 92.2937826,114.092358 90.97272,112.818816 C89.6516574,111.545274 88.991136,109.834571 88.991136,107.686656 Z M109.975968,108.656064 L109.975968,114.444 L106.925184,114.444 L106.925184,94.4856 L109.975968,94.4856 L109.975968,104.236704 L118.27296,94.4856 L122.036544,94.4856 L115.051104,102.697056 L122.806368,114.444 L119.213856,114.444 L113.026752,105.063552 L109.975968,108.656064 Z" id="OK" fill="#7E7E7E" fill-rule="nonzero"></path>
            <g id="Group" transform="translate(30.481313, 104.004000) rotate(-135.000000) translate(-30.481313, -104.004000) translate(20.113312, 93.312000)" fill="#FFFFFF">
                <rect id="Rectangle" x="0" y="0" width="20.7182813" height="3.24" rx="1.62"></rect>
                <rect id="Rectangle-Copy" transform="translate(19.053035, 10.393945) rotate(-90.000000) translate(-19.053035, -10.393945) " x="8.69389453" y="8.77394531" width="20.7182813" height="3.24" rx="1.62"></rect>
            </g>
            <g id="Group-Copy" transform="translate(179.470687, 104.004000) scale(1, -1) rotate(-315.000000) translate(-179.470687, -104.004000) translate(169.102688, 93.312000)" fill="#FFFFFF">
                <rect id="Rectangle" x="0" y="0" width="20.7182813" height="3.24" rx="1.62"></rect>
                <rect id="Rectangle-Copy" transform="translate(19.053035, 10.393945) rotate(-90.000000) translate(-19.053035, -10.393945) " x="8.69389453" y="8.77394531" width="20.7182813" height="3.24" rx="1.62"></rect>
            </g>
            <g id="Group-Copy-3" transform="translate(104.976000, 178.498687) rotate(-225.000000) translate(-104.976000, -178.498687) translate(94.608000, 167.806687)" fill="#7E7E7E">
                <rect id="Rectangle" x="0" y="0" width="20.7182813" height="3.24" rx="1.62"></rect>
                <rect id="Rectangle-Copy" transform="translate(19.053035, 10.393945) rotate(-90.000000) translate(-19.053035, -10.393945) " x="8.69389453" y="8.77394531" width="20.7182812" height="3.24" rx="1.62"></rect>
            </g>
            <g id="Group-Copy-2" transform="translate(104.976000, 29.509312) scale(1, -1) rotate(-225.000000) translate(-104.976000, -29.509312) translate(94.608000, 18.817312)" fill="#7E7E7E">
                <rect id="Rectangle" x="0" y="0" width="20.7182813" height="3.24" rx="1.62"></rect>
                <rect id="Rectangle-Copy" transform="translate(19.053035, 10.393945) rotate(-90.000000) translate(-19.053035, -10.393945) " x="8.69389453" y="8.77394531" width="20.7182813" height="3.24" rx="1.62"></rect>
            </g>
        </g>
    </g>
</svg>