<?xml version="1.0" encoding="UTF-8"?>
<svg width="272px" height="237px" viewBox="0 0 272 237" version="1.1" xmlns="http://www.w3.org/2000/svg" xmlns:xlink="http://www.w3.org/1999/xlink">
    <!-- Generator: Sketch 53 (72520) - https://sketchapp.com -->
    <title>op3_51 copy 7</title>
    <desc>Created with Sketch.</desc>
    <g id="Page-1" stroke="none" stroke-width="1" fill="none" fill-rule="evenodd">
        <g id="Group-2" transform="translate(29.679240, 54.000000)">
            <g id="Group-23-Copy-3" transform="translate(110.959632, 64.423008) rotate(96.000000) translate(-110.959632, -64.423008) translate(62.460720, -42.022656)" fill="#D8D8D8">
                <ellipse id="Oval-Copy-13" transform="translate(40.376233, 40.760558) scale(-1, 1) rotate(-83.000000) translate(-40.376233, -40.760558) " cx="40.3762332" cy="40.7605585" rx="36.1990492" ry="36.2062744"></ellipse>
                <ellipse id="Oval-Copy-14" transform="translate(56.551933, 172.501058) scale(-1, 1) rotate(-83.000000) translate(-56.551933, -172.501058) " cx="56.5519325" cy="172.501058" rx="36.1990492" ry="36.2062744"></ellipse>
                <path d="M4.2960832,78.0108893 C13.8110583,87.3336132 27.5658835,91.7667477 45.5605589,91.3102929 C63.7875648,90.8479447 79.5262494,86.7585964 92.776613,79.0422479 L92.776607,79.0422377 C93.0772152,78.8671786 93.4628199,78.9689562 93.637879,79.2695644 C93.6920033,79.3625055 93.7214272,79.4677578 93.7233471,79.5752929 L94.7194654,135.368528 C94.7256748,135.716309 94.4487765,136.003275 94.1009957,136.009484 C93.9754091,136.011727 93.8520206,135.976366 93.7466842,135.907946 C79.2400051,126.485347 62.615305,122.924706 43.8725839,125.226023 C25.3957007,127.494699 11.6253143,131.534426 2.56142443,137.345205 L2.56141573,137.345192 C2.26857597,137.532929 1.87899156,137.447726 1.6912546,137.154886 C1.62297727,137.048385 1.58835409,136.92379 1.59189473,136.797331 L3.22578241,78.443112 C3.23551704,78.095426 3.52526373,77.8214622 3.87294977,77.8311968 C4.03159752,77.8356387 4.18271892,77.8998156 4.2960832,78.0108893 Z" id="Rectangle-Copy-45" transform="translate(48.155644, 107.637923) scale(-1, 1) rotate(-83.000000) translate(-48.155644, -107.637923) "></path>
            </g>
            <path d="M19.7816774,10.1663982 L19.7816774,17.7498644 L17.0858938,17.7498644 L17.0858938,0.113896435 L24.0143098,0.113896435 C25.7611191,0.113896435 27.1005995,0.575786216 28.032791,1.49957964 C28.9649826,2.42337305 29.4310714,3.64108248 29.4310714,5.15274444 C29.4310714,6.44605522 29.0909525,7.52519771 28.4107046,8.39020428 C27.7304568,9.25521084 26.7520902,9.80527958 25.4755757,10.040427 L30.0105389,17.7498644 L26.9872301,17.7498644 L22.5278496,10.1663982 L19.7816774,10.1663982 Z M26.6848992,5.17793868 C26.6848992,4.40531145 26.4455563,3.81325273 25.9668634,3.40174476 C25.4881704,2.99023678 24.8373257,2.78448588 24.0143098,2.78448588 L19.7816774,2.78448588 L19.7816774,7.57139148 L24.0143098,7.57139148 C24.8373257,7.57139148 25.4881704,7.36564057 25.9668634,6.9541326 C26.4455563,6.54262462 26.6848992,5.9505659 26.6848992,5.17793868 Z M34.9047654,2.78448588 L34.9047654,7.521003 L42.6142028,7.521003 L42.6142028,10.1915924 L34.9047654,10.1915924 L34.9047654,15.079275 L42.6142028,15.079275 L42.6142028,17.7498644 L32.2089817,17.7498644 L32.2089817,0.113896435 L42.6142028,0.113896435 L42.6142028,2.78448588 L34.9047654,2.78448588 Z M53.2023276,6.6392046 L50.1538245,17.7498644 L47.6092063,17.7498644 L44.3591493,0.113896435 L47.0045445,0.113896435 L49.2468319,12.459074 L51.9426156,2.63332044 L54.4620396,2.63332044 L57.1578233,12.459074 L59.4001106,0.113896435 L62.0455058,0.113896435 L58.7954489,17.7498644 L56.2508306,17.7498644 L53.2023276,6.6392046 Z" id="REW" fill="#00C0D2" fill-rule="nonzero"></path>
            <path d="M173.361565,2.78448588 L173.361565,7.521003 L181.071003,7.521003 L181.071003,10.1915924 L173.361565,10.1915924 L173.361565,17.7498644 L170.665782,17.7498644 L170.665782,0.113896435 L181.071003,0.113896435 L181.071003,2.78448588 L173.361565,2.78448588 Z M186.595085,2.78448588 L186.595085,7.521003 L194.304523,7.521003 L194.304523,10.1915924 L186.595085,10.1915924 L186.595085,17.7498644 L183.899302,17.7498644 L183.899302,0.113896435 L194.304523,0.113896435 L194.304523,2.78448588 L186.595085,2.78448588 Z" id="FF" fill="#7E7E7E" fill-rule="nonzero"></path>
            <g id="Group" transform="translate(19.525536, 52.140816)" fill="#00C0D2">
                <polygon id="Triangle" transform="translate(30.940348, 11.652336) rotate(-90.000000) translate(-30.940348, -11.652336) " points="30.9403483 0 42.5926843 23.304672 19.2880123 23.304672"></polygon>
                <polygon id="Triangle-Copy" transform="translate(11.652336, 11.652336) rotate(-90.000000) translate(-11.652336, -11.652336) " points="11.652336 0 23.304672 23.304672 -5.68434189e-14 23.304672"></polygon>
            </g>
            <g id="Group-Copy" transform="translate(182.343312, 63.793152) scale(-1, 1) translate(-182.343312, -63.793152) translate(160.928208, 52.140816)" fill="#7E7E7E">
                <polygon id="Triangle" transform="translate(30.940348, 11.652336) rotate(-90.000000) translate(-30.940348, -11.652336) " points="30.9403483 0 42.5926843 23.304672 19.2880123 23.304672"></polygon>
                <polygon id="Triangle-Copy" transform="translate(11.652336, 11.652336) rotate(-90.000000) translate(-11.652336, -11.652336) " points="11.652336 0 23.304672 23.304672 -5.68434189e-14 23.304672"></polygon>
            </g>
        </g>
    </g>
</svg>