<?xml version="1.0" encoding="UTF-8"?>
<svg width="600px" height="329px" viewBox="0 0 600 329" version="1.1" xmlns="http://www.w3.org/2000/svg" xmlns:xlink="http://www.w3.org/1999/xlink">
    <!-- Generator: Sketch 53 (72520) - https://sketchapp.com -->
    <title>Slice Copy 4</title>
    <desc>Created with Sketch.</desc>
    <g id="Page-1" stroke="none" stroke-width="1" fill="none" fill-rule="evenodd">
        <g id="Group-3-Copy" transform="translate(128.500000, 46.000000)">
            <g id="Group">
                <path d="M110.36,239.1395 L7.755,239.1395 C3.49,239.1395 8.02913291e-13,235.6495 8.02913291e-13,231.3845 C8.02913291e-13,227.1195 3.49,223.6295 7.755,223.6295 L110.36,223.6295 C114.625,223.6295 118.115,227.1195 118.115,231.3845 C118.115,235.6495 114.625,239.1395 110.36,239.1395 Z" id="Fill-2" fill="#D5DAE2"></path>
                <path d="M104.1752,230.7568 L13.6882,230.7568 C11.4072,230.7568 9.5412,228.8908 9.5412,226.6108 L9.5412,136.1228 C9.5412,133.8428 11.4072,131.9768 13.6882,131.9768 L104.1752,131.9768 C106.4552,131.9768 108.3212,133.8428 108.3212,136.1228 L108.3212,226.6108 C108.3212,228.8908 106.4552,230.7568 104.1752,230.7568" id="Fill-4" fill="#444444"></path>
                <path d="M80.8414,212.198 L37.0214,212.198 C31.4594,212.198 26.9094,207.647 26.9094,202.086 L26.9094,10.112 C26.9094,4.551 31.4594,1.56319402e-13 37.0214,1.56319402e-13 L80.8414,1.56319402e-13 C86.4034,1.56319402e-13 90.9534,4.551 90.9534,10.112 L90.9534,202.086 C90.9534,207.647 86.4034,212.198 80.8414,212.198" id="Fill-6" fill="#232323"></path>
                <path d="M45.0782,97.5813 C45.0782,100.1793 42.9722,102.2863 40.3732,102.2863 C37.7752,102.2863 35.6692,100.1793 35.6692,97.5813 C35.6692,94.9833 37.7752,92.8763 40.3732,92.8763 C42.9722,92.8763 45.0782,94.9833 45.0782,97.5813" id="Fill-8" fill="#444444"></path>
                <path d="M63.637,97.5813 C63.637,100.1793 61.531,102.2863 58.932,102.2863 C56.334,102.2863 54.228,100.1793 54.228,97.5813 C54.228,94.9833 56.334,92.8763 58.932,92.8763 C61.531,92.8763 63.637,94.9833 63.637,97.5813" id="Fill-10" fill="#444444"></path>
                <path d="M82.1959,97.5813 C82.1959,100.1793 80.0899,102.2863 77.4909,102.2863 C74.8929,102.2863 72.7869,100.1793 72.7869,97.5813 C72.7869,94.9833 74.8929,92.8763 77.4909,92.8763 C80.0899,92.8763 82.1959,94.9833 82.1959,97.5813" id="Fill-12" fill="#444444"></path>
                <path d="M45.0772,112.7214 C45.0772,115.3194 42.9712,117.4264 40.3722,117.4264 C37.7742,117.4264 35.6682,115.3194 35.6682,112.7214 C35.6682,110.1234 37.7742,108.0164 40.3722,108.0164 C42.9712,108.0164 45.0772,110.1234 45.0772,112.7214" id="Fill-14" fill="#444444"></path>
                <path d="M63.6361,112.7214 C63.6361,115.3194 61.5301,117.4264 58.9311,117.4264 C56.3331,117.4264 54.2271,115.3194 54.2271,112.7214 C54.2271,110.1234 56.3331,108.0164 58.9311,108.0164 C61.5301,108.0164 63.6361,110.1234 63.6361,112.7214" id="Fill-16" fill="#444444"></path>
                <path d="M82.1949,112.7214 C82.1949,115.3194 80.0889,117.4264 77.4899,117.4264 C74.8919,117.4264 72.7859,115.3194 72.7859,112.7214 C72.7859,110.1234 74.8919,108.0164 77.4899,108.0164 C80.0889,108.0164 82.1949,110.1234 82.1949,112.7214" id="Fill-18" fill="#444444"></path>
                <path d="M45.0772,127.8615 C45.0772,130.4595 42.9712,132.5665 40.3722,132.5665 C37.7742,132.5665 35.6682,130.4595 35.6682,127.8615 C35.6682,125.2635 37.7742,123.1565 40.3722,123.1565 C42.9712,123.1565 45.0772,125.2635 45.0772,127.8615" id="Fill-20" fill="#444444"></path>
                <path d="M63.6361,127.8615 C63.6361,130.4595 61.5301,132.5665 58.9311,132.5665 C56.3331,132.5665 54.2271,130.4595 54.2271,127.8615 C54.2271,125.2635 56.3331,123.1565 58.9311,123.1565 C61.5301,123.1565 63.6361,125.2635 63.6361,127.8615" id="Fill-22" fill="#444444"></path>
                <path d="M82.1949,127.8615 C82.1949,130.4595 80.0889,132.5665 77.4899,132.5665 C74.8919,132.5665 72.7859,130.4595 72.7859,127.8615 C72.7859,125.2635 74.8919,123.1565 77.4899,123.1565 C80.0889,123.1565 82.1949,125.2635 82.1949,127.8615" id="Fill-24" fill="#444444"></path>
                <path d="M45.0772,143.0016 C45.0772,145.5996 42.9712,147.7066 40.3722,147.7066 C37.7742,147.7066 35.6682,145.5996 35.6682,143.0016 C35.6682,140.4036 37.7742,138.2966 40.3722,138.2966 C42.9712,138.2966 45.0772,140.4036 45.0772,143.0016" id="Fill-26" fill="#444444"></path>
                <path d="M63.6361,143.0016 C63.6361,145.5996 61.5301,147.7066 58.9311,147.7066 C56.3331,147.7066 54.2271,145.5996 54.2271,143.0016 C54.2271,140.4036 56.3331,138.2966 58.9311,138.2966 C61.5301,138.2966 63.6361,140.4036 63.6361,143.0016" id="Fill-28" fill="#444444"></path>
                <path d="M82.1949,143.0016 C82.1949,145.5996 80.0889,147.7066 77.4899,147.7066 C74.8919,147.7066 72.7859,145.5996 72.7859,143.0016 C72.7859,140.4036 74.8919,138.2966 77.4899,138.2966 C80.0889,138.2966 82.1949,140.4036 82.1949,143.0016" id="Fill-30" fill="#444444"></path>
                <polygon id="Fill-32" fill="#6F7B84" points="35.668 57.9363 82.195 57.9363 82.195 27.7573 35.668 27.7573"></polygon>
                <path d="M65.1126,82.7707 L52.7506,82.7707 C50.2066,82.7707 48.1256,80.6897 48.1256,78.1457 L48.1256,70.8957 C48.1256,68.3517 50.2066,66.2707 52.7506,66.2707 L65.1126,66.2707 C67.6566,66.2707 69.7376,68.3517 69.7376,70.8957 L69.7376,78.1457 C69.7376,80.6897 67.6566,82.7707 65.1126,82.7707" id="Fill-34" fill="#444444"></path>
                <path d="M41.8073,82.7707 L37.5423,82.7707 C35.7443,82.7707 34.2723,81.2997 34.2723,79.5007 L34.2723,69.5407 C34.2723,67.7417 35.7443,66.2707 37.5423,66.2707 L41.8073,66.2707 C43.6053,66.2707 45.0773,67.7417 45.0773,69.5407 L45.0773,79.5007 C45.0773,81.2997 43.6053,82.7707 41.8073,82.7707" id="Fill-35" fill="#444444"></path>
                <path d="M79.6228,82.7707 L75.3578,82.7707 C73.5598,82.7707 72.0878,81.2997 72.0878,79.5007 L72.0878,69.5407 C72.0878,67.7417 73.5598,66.2707 75.3578,66.2707 L79.6228,66.2707 C81.4208,66.2707 82.8928,67.7417 82.8928,69.5407 L82.8928,79.5007 C82.8928,81.2997 81.4208,82.7707 79.6228,82.7707" id="Fill-36" fill="#444444"></path>
                <polygon id="Fill-37" fill="#303030" points="50.557 17.0203 52.307 17.0203 52.307 11.5203 50.557 11.5203"></polygon>
                <polygon id="Fill-38" fill="#303030" points="54.307 17.0203 56.057 17.0203 56.057 11.5203 54.307 11.5203"></polygon>
                <polygon id="Fill-39" fill="#303030" points="58.057 17.0203 59.807 17.0203 59.807 11.5203 58.057 11.5203"></polygon>
                <polygon id="Fill-40" fill="#303030" points="61.807 17.0203 63.557 17.0203 63.557 11.5203 61.807 11.5203"></polygon>
                <polygon id="Fill-41" fill="#303030" points="65.557 17.0203 67.307 17.0203 67.307 11.5203 65.557 11.5203"></polygon>
                <polygon id="Fill-42" fill="#303030" points="50.557 201.7703 52.307 201.7703 52.307 190.7703 50.557 190.7703"></polygon>
                <polygon id="Fill-43" fill="#303030" points="54.307 201.7703 56.057 201.7703 56.057 190.7703 54.307 190.7703"></polygon>
                <polygon id="Fill-44" fill="#303030" points="58.057 201.7703 59.807 201.7703 59.807 190.7703 58.057 190.7703"></polygon>
                <polygon id="Fill-45" fill="#303030" points="61.807 201.7703 63.557 201.7703 63.557 190.7703 61.807 190.7703"></polygon>
                <polygon id="Fill-46" fill="#303030" points="65.557 201.7703 67.307 201.7703 67.307 190.7703 65.557 190.7703"></polygon>
            </g>
            <path d="M174,63.0947996 C194.244,64.6797996 213.536,66.1897996 234.805,67.8557996 C229.801,62.3017996 225.93,58.0047996 221.156,52.7057996 C248.488,46.5937996 271.68,52.9117996 292.887,70.3507996 C282.663,42.6747996 251.723,27.6707996 208.505,29.0587996 C206.886,23.2917996 205.216,17.3417996 203.122,9.87979963 C197.715,19.6897996 192.938,28.3077996 188.208,36.9517996 C183.567,45.4327996 178.973,53.9397996 174,63.0947996" id="Fill-63" fill="#00BCCE" transform="translate(233.443500, 40.115300) scale(-1, 1) translate(-233.443500, -40.115300) "></path>
            <g id="Group-2" transform="translate(126.774145, 64.610222)">
                <path d="M42.8895681,44.170576 C44.0973897,43.830576 44.8407323,42.429576 44.5416359,41.057576 L37.5705334,8.69924292 C37.2723167,7.32624292 36.0398636,6.48124292 34.832042,6.82024292 L12.268737,13.1642429 C11.061795,13.5032429 10.3175728,14.9042429 10.6166692,16.2772429 L17.5877716,48.635576 C17.886868,50.007576 19.1184414,50.852576 20.3262631,50.513576 L42.8895681,44.170576 Z" id="Fill-36" fill="#F2F3F5" transform="translate(27.579178, 28.666911) rotate(-39.000000) translate(-27.579178, -28.666911) "></path>
                <path d="M30.2277861,0.00268288973 C31.1224362,-0.0523171103 32.2009426,0.74268289 32.4718888,1.98568289 L39.89588,34.036909 C40.1659464,35.279909 39.537844,36.554909 38.7241258,36.979909 L30.2277861,0.00268288973 Z" id="Fill-37" fill="#CFCFCF" transform="translate(35.093619, 18.489954) rotate(-39.000000) translate(-35.093619, -18.489954) "></path>
                <path d="M24.6577083,57.917169 C23.7630582,57.972169 22.6845517,57.177169 22.4136056,55.934169 L15.2967902,24.019049 C15.0267238,22.776049 15.6548262,21.501049 16.4685444,21.076049 L24.6577083,57.917169 Z" id="Fill-38" fill="#CFCFCF" transform="translate(19.945463, 39.497950) rotate(-39.000000) translate(-19.945463, -39.497950) "></path>
                <polygon id="Fill-40" fill="#E3E4E7" transform="translate(20.268683, 22.847551) rotate(-39.000000) translate(-20.268683, -22.847551) " points="14.0721096 34.5205513 30.5373667 29.8915513 26.4652571 11.1745513 10 15.8035513"></polygon>
                <polygon id="Fill-40-Copy" fill="#B1B3B6" transform="translate(32.538848, 32.246627) rotate(-39.000000) translate(-32.538848, -32.246627) " points="29.1136095 41.3327274 39.2408182 39.2018048 35.5745415 23.160526 25.8368769 25.7596667"></polygon>
                <polygon id="Fill-40-Copy-2" fill="#E3E4E7" transform="translate(32.302230, 31.404850) rotate(-43.000000) translate(-32.302230, -31.404850) " points="28.8531659 39.9316474 39.0042002 38.6476777 35.7994907 22.8780523 25.6002589 25.2055395"></polygon>
                <polygon id="Fill-41" fill="#8D8F90" transform="translate(21.045768, 16.464406) rotate(-39.000000) translate(-21.045768, -16.464406) " points="21.2648122 23.1614065 23.5977642 22.5054065 20.8258442 9.76740647 18.493772 10.4234065"></polygon>
                <polygon id="Fill-42" fill="#BDBEC2" transform="translate(21.115987, 16.825098) rotate(-39.000000) translate(-21.115987, -16.825098) " points="21.5074512 23.1975979 23.3829616 22.6705979 20.7245224 10.4525979 18.849012 10.9795979"></polygon>
                <polygon id="Fill-43" fill="#8D8F90" transform="translate(18.936622, 19.443678) rotate(-39.000000) translate(-18.936622, -19.443678) " points="19.1556658 26.140678 21.4886178 25.484678 18.7166979 12.746678 16.3846256 13.402678"></polygon>
                <polygon id="Fill-44" fill="#BDBEC2" transform="translate(19.006840, 19.804369) rotate(-39.000000) translate(-19.006840, -19.804369) " points="19.3983049 26.1768694 21.2738153 25.6498694 18.615376 13.4318694 16.7398656 13.9588694"></polygon>
                <polygon id="Fill-45" fill="#8D8F90" transform="translate(16.827344, 22.422927) rotate(-39.000000) translate(-16.827344, -22.422927) " points="17.0463882 29.1199271 19.3793401 28.4639271 16.6074202 15.7259271 14.275348 16.3819271"></polygon>
                <polygon id="Fill-46" fill="#BDBEC2" transform="translate(16.897563, 22.783619) rotate(-39.000000) translate(-16.897563, -22.783619) " points="17.2890272 29.1561186 19.1645376 28.6291186 16.5060984 16.4111186 14.630588 16.9381186"></polygon>
                <polygon id="Fill-47" fill="#8D8F90" transform="translate(14.718129, 25.402254) rotate(-39.000000) translate(-14.718129, -25.402254) " points="14.9371735 32.099254 17.2701254 31.443254 14.4982055 18.705254 12.1661332 19.361254"></polygon>
                <polygon id="Fill-48" fill="#BDBEC2" transform="translate(14.788348, 25.762945) rotate(-39.000000) translate(-14.788348, -25.762945) " points="15.1798125 32.1354454 17.0553229 31.6084454 14.3968836 19.3904454 12.5213733 19.9174454"></polygon>
            </g>
            <path d="M213.900309,46.2724239 C217.571997,61.9173355 218.985136,74.5244114 218.139725,84.0936515 C216.871609,98.4475117 215.298216,112.986539 197.737312,137.638155 C180.176407,162.289771 185.367404,191.717716 197.049943,206.201411 C208.732482,220.685106 223.303342,238.053769 248.747202,225.411098 C274.191062,212.768427 287.380976,171.177846 315.66608,173.869378 C343.951184,176.56091 346.816294,202.544017 363.816876,219.229906" id="Path" stroke="#A2A2A2" stroke-width="8" transform="translate(275.090044, 138.027819) rotate(-39.000000) translate(-275.090044, -138.027819) "></path>
        </g>
    </g>
</svg>