<?xml version="1.0" encoding="UTF-8"?>
<svg width="600px" height="329px" viewBox="0 0 600 329" version="1.1" xmlns="http://www.w3.org/2000/svg" xmlns:xlink="http://www.w3.org/1999/xlink">
    <!-- Generator: Sketch 53 (72520) - https://sketchapp.com -->
    <title>Slice Copy 2</title>
    <desc>Created with Sketch.</desc>
    <g id="Page-1" stroke="none" stroke-width="1" fill="none" fill-rule="evenodd">
        <g id="Group-6-Copy" transform="translate(61.000000, 2.000000)">
            <g id="Group-4" transform="translate(0.000000, 11.541171)">
                <path d="M267.881827,305.84388 L17.080211,305.84388 C12.3207053,305.84388 8.42529373,302.875135 8.42529373,299.246769 L8.42529373,298.104193 C8.42529373,294.475826 12.3207053,291.507082 17.080211,291.507082 L267.881827,291.507082 C272.641333,291.507082 276.53558,294.475826 276.53558,298.104193 L276.53558,299.246769 C276.53558,302.875135 272.641333,305.84388 267.881827,305.84388" id="Fill-47" fill="#D5DAE2"></path>
                <polygon id="Fill-50-Copy" fill="#D1D4D6" points="100.178404 166.903092 250.35503 166.903092 250.35503 0 100.178404 0"></polygon>
                <polygon id="Fill-50-Copy-3" fill="#B0B4B8" points="121.626581 25.2308648 229.935643 25.2308648 229.935643 19.9041703 121.626581 19.9041703"></polygon>
                <polygon id="Fill-50-Copy-4" fill="#B0B4B8" points="121.626581 39.2263105 229.935643 39.2263105 229.935643 33.8996161 121.626581 33.8996161"></polygon>
                <polygon id="Fill-50-Copy-8" fill="#B0B4B8" points="190.185683 81.2126477 229.935643 81.2126477 229.935643 47.8950618 190.185683 47.8950618"></polygon>
                <polygon id="Fill-50-Copy-5" fill="#B0B4B8" points="121.626581 53.2217562 178.015856 53.2217562 178.015856 47.8950618 121.626581 47.8950618"></polygon>
                <polygon id="Fill-50-Copy-6" fill="#B0B4B8" points="121.626581 67.217202 178.015856 67.217202 178.015856 61.8905075 121.626581 61.8905075"></polygon>
                <polygon id="Fill-50-Copy-7" fill="#B0B4B8" points="121.626581 81.2126477 161.376541 81.2126477 161.376541 75.8859533 121.626581 75.8859533"></polygon>
                <path d="M22.3494409,296.555367 C17.1153054,296.555367 12.8319793,293.308747 12.8319793,289.34036 L12.8319793,110.642191 C12.8319793,106.673803 17.1153054,103.427183 22.3494409,103.427183 L262.992042,103.427183 C268.226178,103.427183 272.508333,106.673803 272.508333,110.642191 L272.508333,289.34036 C272.508333,293.308747 268.226178,296.555367 262.992042,296.555367 L22.3494409,296.555367 Z" id="Fill-48" fill="#444444"></path>
                <path d="M77.9551689,280.214845 L37.2636623,280.214845 C32.9472642,280.214845 29.414778,276.682358 29.414778,272.36596 L29.414778,101.229921 C29.414778,96.9135234 32.9472642,93.3810372 37.2636623,93.3810372 L77.9551689,93.3810372 C82.2724547,93.3810372 85.8040531,96.9135234 85.8040531,101.229921 L85.8040531,272.36596 C85.8040531,276.682358 82.2724547,280.214845 77.9551689,280.214845" id="Fill-49" fill="#232323"></path>
                <polygon id="Fill-50" fill="#6F7B84" points="100.178404 166.903092 250.35503 166.903092 250.35503 121.342987 100.178404 121.342987"></polygon>
                <polygon id="Fill-51" fill="#626E78" points="157.207503 121.512997 232.284971 167.138799 251.305515 167.138799 251.305515 121.342543"></polygon>
                <path d="M120.502318,191.44344 C120.502318,196.01907 116.793163,199.728225 112.217533,199.728225 C107.64279,199.728225 103.933635,196.01907 103.933635,191.44344 C103.933635,186.867809 107.64279,183.158654 112.217533,183.158654 C116.793163,183.158654 120.502318,186.867809 120.502318,191.44344" id="Fill-52" fill="#232323"></path>
                <path d="M153.183364,191.44344 C153.183364,196.01907 149.474209,199.728225 144.898579,199.728225 C140.323836,199.728225 136.614681,196.01907 136.614681,191.44344 C136.614681,186.867809 140.323836,183.158654 144.898579,183.158654 C149.474209,183.158654 153.183364,186.867809 153.183364,191.44344" id="Fill-53" fill="#232323"></path>
                <path d="M185.864499,191.44344 C185.864499,196.01907 182.155344,199.728225 177.579713,199.728225 C173.004971,199.728225 169.295816,196.01907 169.295816,191.44344 C169.295816,186.867809 173.004971,183.158654 177.579713,183.158654 C182.155344,183.158654 185.864499,186.867809 185.864499,191.44344" id="Fill-54" fill="#232323"></path>
                <path d="M120.502318,218.667731 C120.502318,223.243362 116.793163,226.952517 112.217533,226.952517 C107.64279,226.952517 103.933635,223.243362 103.933635,218.667731 C103.933635,214.092101 107.64279,210.382946 112.217533,210.382946 C116.793163,210.382946 120.502318,214.092101 120.502318,218.667731" id="Fill-55" fill="#232323"></path>
                <path d="M153.183364,218.667731 C153.183364,223.243362 149.474209,226.952517 144.898579,226.952517 C140.323836,226.952517 136.614681,223.243362 136.614681,218.667731 C136.614681,214.092101 140.323836,210.382946 144.898579,210.382946 C149.474209,210.382946 153.183364,214.092101 153.183364,218.667731" id="Fill-56" fill="#232323"></path>
                <path d="M185.864499,218.667731 C185.864499,223.243362 182.155344,226.952517 177.579713,226.952517 C173.004971,226.952517 169.295816,223.243362 169.295816,218.667731 C169.295816,214.092101 173.004971,210.382946 177.579713,210.382946 C182.155344,210.382946 185.864499,214.092101 185.864499,218.667731" id="Fill-57" fill="#232323"></path>
                <path d="M120.502318,245.892111 C120.502318,250.467742 116.793163,254.176897 112.217533,254.176897 C107.64279,254.176897 103.933635,250.467742 103.933635,245.892111 C103.933635,241.316481 107.64279,237.607326 112.217533,237.607326 C116.793163,237.607326 120.502318,241.316481 120.502318,245.892111" id="Fill-58" fill="#232323"></path>
                <path d="M153.183364,245.892111 C153.183364,250.467742 149.474209,254.176897 144.898579,254.176897 C140.323836,254.176897 136.614681,250.467742 136.614681,245.892111 C136.614681,241.316481 140.323836,237.607326 144.898579,237.607326 C149.474209,237.607326 153.183364,241.316481 153.183364,245.892111" id="Fill-59" fill="#232323"></path>
                <path d="M185.864499,245.892111 C185.864499,250.467742 182.155344,254.176897 177.579713,254.176897 C173.004971,254.176897 169.295816,250.467742 169.295816,245.892111 C169.295816,241.316481 173.004971,237.607326 177.579713,237.607326 C182.155344,237.607326 185.864499,241.316481 185.864499,245.892111" id="Fill-60" fill="#232323"></path>
                <path d="M218.545634,191.44344 C218.545634,196.01907 214.836479,199.728225 210.260848,199.728225 C205.686105,199.728225 201.97695,196.01907 201.97695,191.44344 C201.97695,186.867809 205.686105,183.158654 210.260848,183.158654 C214.836479,183.158654 218.545634,186.867809 218.545634,191.44344" id="Fill-54-Copy" fill="#232323"></path>
                <path d="M218.545634,218.667731 C218.545634,223.243362 214.836479,226.952517 210.260848,226.952517 C205.686105,226.952517 201.97695,223.243362 201.97695,218.667731 C201.97695,214.092101 205.686105,210.382946 210.260848,210.382946 C214.836479,210.382946 218.545634,214.092101 218.545634,218.667731" id="Fill-57-Copy" fill="#232323"></path>
                <path d="M218.545634,245.892111 C218.545634,250.467742 214.836479,254.176897 210.260848,254.176897 C205.686105,254.176897 201.97695,250.467742 201.97695,245.892111 C201.97695,241.316481 205.686105,237.607326 210.260848,237.607326 C214.836479,237.607326 218.545634,241.316481 218.545634,245.892111" id="Fill-60-Copy" fill="#232323"></path>
                <path d="M251.226679,193.804743 C251.226679,199.684505 246.460353,204.450832 240.580591,204.450832 C234.70197,204.450832 229.935643,199.684505 229.935643,193.804743 C229.935643,187.924981 234.70197,183.158654 240.580591,183.158654 C246.460353,183.158654 251.226679,187.924981 251.226679,193.804743" id="Fill-60-Copy-2" fill="#5CB300"></path>
                <path d="M77.9551689,280.214845 L37.2636623,280.214845 C32.9472642,280.214845 29.414778,276.682358 29.414778,272.36596 L29.414778,101.229921 C29.414778,96.9135234 32.9472642,93.3810372 37.2636623,93.3810372 L77.9551689,93.3810372 C82.2724547,93.3810372 85.8040531,96.9135234 85.8040531,101.229921 L85.8040531,272.36596 C85.8040531,276.682358 82.2724547,280.214845 77.9551689,280.214845" id="Fill-61" fill="#232323"></path>
                <path d="M58.5807383,276.327689 C56.811388,273.951096 52.7666513,276.269983 54.559084,278.678537 C55.4371008,279.856624 56.0949476,281.1954 56.6107491,282.5688 C56.8353581,283.166277 57.2508403,284.039855 57.2623814,284.668405 C57.2739226,285.296955 56.9321264,285.913076 56.4589383,286.348977 C55.6634853,284.907218 54.3966198,283.657221 52.6228306,282.824481 C51.0603335,282.091173 49.128519,282.952322 49.1187534,284.835308 C49.1036611,287.707284 50.7007817,289.872585 52.8314594,290.888209 C52.7204866,291.601986 52.360047,292.318426 51.6959857,292.971834 C50.2755339,294.368316 49.0628231,294.299956 47.7471296,293.826768 C47.9282372,292.503085 47.7364762,291.137675 47.072415,289.940057 C45.827744,287.696631 42.6867699,286.148338 40.4548849,288.021559 C38.1546407,289.952486 39.695831,293.227515 41.3843931,295.273854 C40.9413897,295.740827 40.3803112,296.134115 39.4179551,296.454604 C37.8101811,296.990825 36.0310652,297.145299 34.3540442,296.877189 C33.3126755,296.711173 32.5252125,296.263731 31.7164427,295.808299 C31.8194255,295.533974 31.9170815,295.257874 31.9863286,294.969344 C32.6131029,292.350386 31.4039433,289.127736 28.5319672,288.659875 C25.9929095,288.24528 24.2129058,290.352876 24.1773945,292.777409 C24.1596389,293.987457 24.5573654,295.146013 25.1930176,296.192708 C24.6452558,296.494554 24.1179131,296.770655 23.4005849,296.90471 C21.9987765,297.166606 20.992919,296.925129 20.1575158,296.419981 C20.9005897,295.974314 21.5184862,295.307589 21.9455095,294.36654 C24.2306615,289.332814 16.3959817,286.934913 14.0637773,291.422654 C13.4343396,291.232668 12.7844829,291.055112 12.245599,290.723081 C11.8523114,290.533096 11.5522409,290.27919 11.2495071,289.961364 C10.7168377,289.638211 10.3555102,289.230719 10.2560786,288.739775 C11.6649893,288.548014 13.1005334,287.868861 14.4615039,286.553167 C15.3093361,285.734632 15.4158699,284.06205 14.4615039,283.260382 C11.9206706,281.126153 9.10995152,281.525655 7.26513968,283.171604 C6.55047484,282.527074 5.99916197,281.625975 5.74703177,280.747958 C5.49401378,279.868166 5.41056224,278.889829 5.43719571,277.978965 C5.45140023,277.871543 5.46382918,277.765009 5.47714592,277.657587 C6.21222975,277.732161 7.0121217,277.645158 7.8697195,277.364619 C10.0447864,276.652618 12.9238647,274.741222 11.7084906,272.104508 C10.5881092,269.67376 7.22163834,269.403874 4.97288551,270.36623 C4.96755882,270.34226 4.95868099,270.31829 4.9533543,270.29432 C4.68968292,268.817938 4.58847573,267.791661 5.4327568,266.553205 C6.77685936,264.58144 9.37273511,264.067414 11.6117223,263.948451 C12.0316434,263.926257 12.5456694,263.807294 12.5456694,263.632401 L12.5456694,259.490008 C12.5456694,259.348851 12.0325312,259.26895 11.6117223,259.291145 C7.99134569,259.482906 3.95282353,260.542918 1.58599563,263.526755 C-0.735555359,266.453773 -0.142516712,270.431039 1.04888728,273.722936 C1.14299221,273.982168 1.26816953,274.228084 1.3809179,274.466897 C0.8509118,275.952157 0.684008707,277.597218 0.756806865,279.115326 C0.913056568,282.423203 2.73212272,285.617444 5.23833245,287.385019 C5.17796325,288.382887 5.35463194,289.442011 5.83048331,290.497584 C6.82923852,292.714377 10.258742,295.316467 13.7574924,296.497218 C15.3404084,301.011591 21.9392951,302.634458 26.3577881,300.907721 C27.1647823,300.592558 27.9407041,300.158432 28.6580323,299.641743 C28.7645662,299.709214 28.8711001,299.777574 28.977634,299.840606 C33.7991802,302.680622 41.3151461,302.272242 45.444222,298.245261 C47.1993679,298.945722 49.1462747,299.152575 50.9857598,298.672285 C54.8600422,297.660213 57.0883761,294.536106 57.4310601,291.242434 C58.4591121,290.930822 59.4578673,290.360866 60.3412108,289.463318 C63.8293079,285.913964 61.1055915,279.719018 58.5807383,276.327689" id="Fill-62" fill="#232323"></path>
                <g id="Group" transform="translate(170.073424, 270.201103)" fill="#303030">
                    <polygon id="Fill-42" points="0 9.76560646 1.55361921 9.76560646 1.55361921 0 0 0"></polygon>
                    <polygon id="Fill-43" points="3.32918402 9.76560646 4.88280323 9.76560646 4.88280323 0 3.32918402 0"></polygon>
                    <polygon id="Fill-44" points="6.65836804 9.76560646 8.21198725 9.76560646 8.21198725 0 6.65836804 0"></polygon>
                    <polygon id="Fill-45" points="9.98755206 9.76560646 11.5411713 9.76560646 11.5411713 0 9.98755206 0"></polygon>
                    <polygon id="Fill-46" points="13.3167361 9.76560646 14.8703553 9.76560646 14.8703553 0 13.3167361 0"></polygon>
                </g>
            </g>
            <g id="Group-5" transform="translate(304.953256, 210.189725)">
                <path d="M151.206457,107.195326 L5.04392532,107.195326 C2.2701736,107.195326 0,104.226581 0,100.598215 L0,99.4556387 C0,95.827272 2.2701736,92.8585277 5.04392532,92.8585277 L151.206457,92.8585277 C153.980208,92.8585277 156.249703,95.827272 156.249703,99.4556387 L156.249703,100.598215 C156.249703,104.226581 153.980208,107.195326 151.206457,107.195326" id="Fill-47-Copy" fill="#D5DAE2"></path>
                <g id="Group-3" transform="translate(4.882803, 0.000000)">
                    <rect id="Rectangle" fill="#444444" x="0" y="0" width="146.484097" height="97.6560646" rx="10"></rect>
                    <polygon id="Fill-50-Copy-2" fill="#6F7B84" points="19.3425842 47.825003 126.113649 47.825003 126.113649 17.6686678 19.3425842 17.6686678"></polygon>
                    <polygon id="Fill-51-Copy" fill="#626E78" points="59.5751592 17.781198 113.281172 47.9810174 126.887352 47.9810174 126.887352 17.668374"></polygon>
                    <path d="M35.088144,58.8749929 C35.088144,61.5014899 32.9590201,63.6306137 30.3325232,63.6306137 C27.7065358,63.6306137 25.577412,61.5014899 25.577412,58.8749929 C25.577412,56.248496 27.7065358,54.1193721 30.3325232,54.1193721 C32.9590201,54.1193721 35.088144,56.248496 35.088144,58.8749929" id="Fill-52-Copy" fill="#232323"></path>
                    <path d="M64.3305252,58.8749929 C64.3305252,61.5014899 62.2014014,63.6306137 59.5749044,63.6306137 C56.948917,63.6306137 54.8197932,61.5014899 54.8197932,58.8749929 C54.8197932,56.248496 56.948917,54.1193721 59.5749044,54.1193721 C62.2014014,54.1193721 64.3305252,56.248496 64.3305252,58.8749929" id="Fill-52-Copy-2" fill="#232323"></path>
                    <path d="M93.5729064,58.8749929 C93.5729064,61.5014899 91.4437826,63.6306137 88.8172856,63.6306137 C86.1912982,63.6306137 84.0621744,61.5014899 84.0621744,58.8749929 C84.0621744,56.248496 86.1912982,54.1193721 88.8172856,54.1193721 C91.4437826,54.1193721 93.5729064,56.248496 93.5729064,58.8749929" id="Fill-52-Copy-3" fill="#232323"></path>
                    <path d="M122.815288,58.8749929 C122.815288,61.5014899 120.686164,63.6306137 118.059667,63.6306137 C115.433679,63.6306137 113.304556,61.5014899 113.304556,58.8749929 C113.304556,56.248496 115.433679,54.1193721 118.059667,54.1193721 C120.686164,54.1193721 122.815288,56.248496 122.815288,58.8749929" id="Fill-52-Copy-4" fill="#232323"></path>
                    <g id="Group-2" transform="translate(49.903867, 71.898671)" fill="#232323">
                        <path d="M20.8217229,16.3223756 C9.31537532,16.3049484 0,12.657806 0,8.16118782 C0,3.66456963 9.31537532,0.0174272833 20.8217229,-2.40838775e-14 L20.8217229,16.3223801 Z" id="Combined-Shape"></path>
                        <path d="M46.1806968,16.3223756 C34.6743492,16.3049484 25.3589738,12.657806 25.3589738,8.16118782 C25.3589738,3.66456963 34.6743492,0.0174272833 46.1806968,-2.40606011e-14 L46.1806968,16.3223801 Z" id="Combined-Shape-Copy" transform="translate(35.769835, 8.161190) scale(-1, 1) translate(-35.769835, -8.161190) "></path>
                    </g>
                </g>
            </g>
            <path d="M432.112011,79.9114307 C434.543339,92.956169 435.537339,103.590496 435.094013,111.81441 C434.429023,124.150282 432.571371,137.465007 416.981109,159.350278 C401.390847,181.23555 399.075487,209.350779 436.376527,239.556566" id="Path" stroke="#A2A2A2" stroke-width="8" transform="translate(421.344623, 159.733998) rotate(-63.000000) translate(-421.344623, -159.733998) "></path>
            <path d="M344.045389,59.2396768 C362.017656,60.646812 379.144754,61.9873634 398.026998,63.4664089 C393.584535,58.5356654 390.147929,54.7208644 385.909656,50.0165054 C410.174524,44.5903794 430.763974,50.1993886 449.591175,65.681426 C440.514488,41.1111601 413.0465,27.7908729 374.67832,29.0231149 C373.241001,23.9032737 371.758404,18.6209684 369.899388,11.9963361 C365.099148,20.7054815 360.858212,28.3563903 356.659001,36.0303814 C352.538803,43.559664 348.46033,51.1120289 344.045389,59.2396768" id="Fill-63-Copy" fill="#00BCCE" transform="translate(396.818282, 38.838881) scale(-1, 1) rotate(13.000000) translate(-396.818282, -38.838881) "></path>
            <g id="Group-2" transform="translate(339.508283, 107.908228) rotate(-20.000000) translate(-339.508283, -107.908228) translate(315.008283, 82.408228)">
                <path d="M38.0766039,39.2138603 C39.1488867,38.9120142 39.8088132,37.6682311 39.5432806,36.4501936 L33.3544586,7.72303481 C33.089707,6.50410957 31.9955568,5.75393343 30.923274,6.05489167 L10.8919688,11.6869833 C9.820467,11.9879415 9.1597596,13.2317246 9.42529212,14.4506499 L15.6141142,43.1778087 C15.8796467,44.3958462 16.9730159,45.1460223 18.0452988,44.8450641 L38.0766039,39.2138603 Z" id="Fill-36" fill="#F2F3F5" transform="translate(24.484309, 25.449979) rotate(-39.000000) translate(-24.484309, -25.449979) "></path>
                <path d="M26.8356966,0.00238182233 C27.6299513,-0.04644621 28.5874303,0.659340803 28.8279716,1.76285433 L35.4188603,30.217369 C35.6586205,31.3208825 35.1010022,32.4528051 34.3785976,32.8301126 L26.8356966,0.00238182233 Z" id="Fill-37" fill="#CFCFCF" transform="translate(31.155497, 16.415056) rotate(-39.000000) translate(-31.155497, -16.415056) "></path>
                <path d="M21.8906796,51.4178436 C21.0964249,51.4666716 20.1389459,50.7608846 19.8984047,49.6573711 L13.5802212,21.3236891 C13.340461,20.2201756 13.8980793,19.088253 14.6204839,18.7109455 L21.8906796,51.4178436 Z" id="Fill-38" fill="#CFCFCF" transform="translate(17.707231, 35.065585) rotate(-39.000000) translate(-17.707231, -35.065585) "></path>
                <polygon id="Fill-40" fill="#E3E4E7" transform="translate(17.994180, 20.283654) rotate(-39.000000) translate(-17.994180, -20.283654) " points="12.4929713 30.6467381 27.1105368 26.5371934 23.4953896 9.92057007 8.87782406 14.0301148"></polygon>
                <polygon id="Fill-40-Copy" fill="#B1B3B6" transform="translate(28.887416, 28.627988) rotate(-39.000000) translate(-28.887416, -28.627988) " points="25.8465502 36.6944682 34.837308 34.8026726 31.582452 20.5615075 22.9375247 22.8689789"></polygon>
                <polygon id="Fill-40-Copy-2" fill="#E3E4E7" transform="translate(28.677351, 27.880673) rotate(-43.000000) translate(-28.677351, -27.880673) " points="25.6153331 35.450614 34.6272427 34.3107282 31.7821579 20.3107323 22.7274594 22.3770345"></polygon>
                <polygon id="Fill-41" fill="#8D8F90" transform="translate(18.684063, 14.616810) rotate(-39.000000) translate(-18.684063, -14.616810) " points="18.8785261 20.5622892 20.9496798 19.9799039 18.4888181 8.67133161 16.4184454 9.25371687"></polygon>
                <polygon id="Fill-42" fill="#BDBEC2" transform="translate(18.746402, 14.937026) rotate(-39.000000) translate(-18.746402, -14.937026) " points="19.0939368 20.5944193 20.7589819 20.126558 18.3988663 9.27963254 16.7338212 9.74749386"></polygon>
                <polygon id="Fill-43" fill="#8D8F90" transform="translate(16.811600, 17.261755) rotate(-39.000000) translate(-16.811600, -17.261755) " points="17.0060631 23.207234 19.0772168 22.6248487 16.6163551 11.3162764 14.5459823 11.8986617"></polygon>
                <polygon id="Fill-44" fill="#BDBEC2" transform="translate(16.873939, 17.581971) rotate(-39.000000) translate(-16.873939, -17.581971) " points="17.2214738 23.2393641 18.8865189 22.7715028 16.5264033 11.9245774 14.8613582 12.3924387"></polygon>
                <polygon id="Fill-45" fill="#8D8F90" transform="translate(14.939020, 19.906680) rotate(-39.000000) translate(-14.939020, -19.906680) " points="15.1334835 25.8521589 17.2046372 25.2697737 14.7437755 13.9612014 12.6734027 14.5435867"></polygon>
                <polygon id="Fill-46" fill="#BDBEC2" transform="translate(15.001359, 20.226896) rotate(-39.000000) translate(-15.001359, -20.226896) " points="15.3488942 25.8842891 17.0139393 25.4164278 14.6538237 14.5695023 12.9887786 15.0373637"></polygon>
                <polygon id="Fill-47" fill="#8D8F90" transform="translate(13.066496, 22.551674) rotate(-39.000000) translate(-13.066496, -22.551674) " points="13.2609598 28.4971529 15.3321135 27.9147676 12.8712518 16.6061954 10.800879 17.1885806"></polygon>
                <polygon id="Fill-48" fill="#BDBEC2" transform="translate(13.128835, 22.871890) rotate(-39.000000) translate(-13.128835, -22.871890) " points="13.4763704 28.5292831 15.1414156 28.0614217 12.7813 17.2144963 11.1162549 17.6823576"></polygon>
            </g>
        </g>
    </g>
</svg>