<?xml version="1.0" encoding="UTF-8"?>
<svg width="600px" height="329px" viewBox="0 0 600 329" version="1.1" xmlns="http://www.w3.org/2000/svg" xmlns:xlink="http://www.w3.org/1999/xlink">
    <!-- Generator: Sketch 53 (72520) - https://sketchapp.com -->
    <title>Slice Copy</title>
    <desc>Created with Sketch.</desc>
    <g id="Page-1" stroke="none" stroke-width="1" fill="none" fill-rule="evenodd">
        <g id="Group-5-Copy" transform="translate(-7.000000, 8.000000)">
            <g id="Group-3" transform="translate(131.500000, 0.000000)">
                <path d="M14.7704517,217.54 C6.64743017,217.54 0,213.883 0,209.413 L0,8.127 C0,3.657 6.64743017,-4.68958206e-13 14.7704517,-4.68958206e-13 L388.231365,-4.68958206e-13 C396.354387,-4.68958206e-13 403,3.657 403,8.127 L403,209.413 C403,213.883 396.354387,217.54 388.231365,217.54 L14.7704517,217.54 Z" id="Fill-48" fill="#444444"></path>
                <rect id="Rectangle" stroke="#323232" stroke-width="4" x="34.5" y="37" width="339" height="98" rx="49"></rect>
                <g id="Group-16" transform="translate(227.000000, 166.092684)">
                    <polygon id="Fill-25" fill="#000000" points="0 29.8146327 9.68975563 29.8146327 9.68975563 0 0 0"></polygon>
                    <polygon id="Fill-25-Copy" fill="#858585" points="6.70829236 27.5785352 8.19902399 27.5785352 8.19902399 2.23609745 6.70829236 2.23609745"></polygon>
                </g>
                <g id="Group-16-Copy" transform="translate(243.025365, 166.092684)">
                    <polygon id="Fill-25" fill="#000000" points="0 29.8146327 9.68975563 29.8146327 9.68975563 0 0 0"></polygon>
                    <polygon id="Fill-25-Copy" fill="#858585" points="6.70829236 27.5785352 8.19902399 27.5785352 8.19902399 2.23609745 6.70829236 2.23609745"></polygon>
                </g>
                <path d="M18.060379,222.54 C16.3773211,222.54 15,222.355082 15,222.129055 L15,211.950945 C15,211.724918 16.3773211,211.54 18.060379,211.54 L95.4399976,211.54 C97.1230554,211.54 98.5,211.724918 98.5,211.950945 L98.5,222.129055 C98.5,222.355082 97.1230554,222.54 95.4399976,222.54 L18.060379,222.54 Z" id="Fill-48-Copy" fill="#2B2B2B" transform="translate(56.750000, 217.040000) scale(1, -1) translate(-56.750000, -217.040000) "></path>
                <path d="M302.560379,222.54 C300.877321,222.54 299.5,222.355082 299.5,222.129055 L299.5,211.950945 C299.5,211.724918 300.877321,211.54 302.560379,211.54 L379.939998,211.54 C381.623055,211.54 383,211.724918 383,211.950945 L383,222.129055 C383,222.355082 381.623055,222.54 379.939998,222.54 L302.560379,222.54 Z" id="Fill-48-Copy-2" fill="#2B2B2B" transform="translate(341.250000, 217.040000) scale(1, -1) translate(-341.250000, -217.040000) "></path>
                <g id="Group-13" transform="translate(31.500000, 168.500000)">
                    <g id="Group-11" transform="translate(13.000000, 12.500000) rotate(-180.000000) translate(-13.000000, -12.500000) translate(0.000000, 0.000000)">
                        <path d="M23.814375,24.5005435 L2.185625,24.5005435 C1.555125,24.5005435 1.03945833,23.9831522 1.03945833,23.3505435 L1.03945833,1.65054348 C1.03945833,1.01793478 1.555125,0.499456522 2.185625,0.499456522 L23.814375,0.499456522 C24.444875,0.499456522 24.9605417,1.01793478 24.9605417,1.65054348 L24.9605417,23.3505435 C24.9605417,23.9831522 24.444875,24.5005435 23.814375,24.5005435 Z" id="Fill-27" fill="#B6B8BA"></path>
                        <polygon id="Fill-31" fill="#5A5A5C" points="12.8598167 2.95891304 3.3774 2.95891304 3.3774 13.8284783 6.6274 13.8284783 6.6274 17.0893478 9.8774 17.0893478 9.8774 20.3502174 12.8598167 20.3502174 16.3774 20.3502174 16.3774 17.0893478 19.6274 17.0893478 19.6274 13.8284783 22.8774 13.8284783 22.8774 2.95891304"></polygon>
                        <polygon id="Fill-33" fill="#3F4243" points="3.37805 4.04554348 22.87805 4.04554348 22.87805 2.95858696 3.37805 2.95858696"></polygon>
                        <polygon id="Fill-35" fill="#3F4243" points="3.37805 13.8281522 6.62805 13.8281522 6.62805 12.7411957 3.37805 12.7411957"></polygon>
                        <polygon id="Fill-36" fill="#3F4243" points="19.62805 13.8281522 22.87805 13.8281522 22.87805 12.7411957 19.62805 12.7411957"></polygon>
                        <polygon id="Fill-37" fill="#3F4243" points="6.62805 17.0890217 9.87805 17.0890217 9.87805 16.0020652 6.62805 16.0020652"></polygon>
                        <polygon id="Fill-38" fill="#3F4243" points="9.87805 20.3498913 16.37805 20.3498913 16.37805 19.2629348 9.87805 19.2629348"></polygon>
                        <polygon id="Fill-39" fill="#3F4243" points="16.37805 17.0890217 19.62805 17.0890217 19.62805 16.0020652 16.37805 16.0020652"></polygon>
                        <polygon id="Fill-40" fill="#BDBEC2" points="10.7219667 10.0542391 12.2819667 10.0542391 12.2819667 4.38793478 10.7219667 4.38793478"></polygon>
                        <polygon id="Fill-41" fill="#BDBEC2" points="8.15663333 10.0542391 9.71663333 10.0542391 9.71663333 4.38793478 8.15663333 4.38793478"></polygon>
                        <polygon id="Fill-42" fill="#BDBEC2" points="13.2873 10.0542391 14.8473 10.0542391 14.8473 4.38793478 13.2873 4.38793478"></polygon>
                        <polygon id="Fill-43" fill="#BDBEC2" points="15.8526333 10.0542391 17.4126333 10.0542391 17.4126333 4.38793478 15.8526333 4.38793478"></polygon>
                        <path d="M2.18573333,0.916630435 C1.78273333,0.916630435 1.45556667,1.24597826 1.45556667,1.65032609 L1.45556667,23.3503261 C1.45556667,23.7546739 1.78273333,24.0829348 2.18573333,24.0829348 L23.8144833,24.0829348 C24.2174833,24.0829348 24.54465,23.7546739 24.54465,23.3503261 L24.54465,1.65032609 C24.54465,1.24597826 24.2174833,0.916630435 23.8144833,0.916630435 L2.18573333,0.916630435 Z M23.8144833,24.9177174 L2.18573333,24.9177174 C1.32448333,24.9177174 0.623566667,24.2155435 0.623566667,23.3503261 L0.623566667,1.65032609 C0.623566667,0.785108696 1.32448333,0.0818478261 2.18573333,0.0818478261 L23.8144833,0.0818478261 C24.6757333,0.0818478261 25.37665,0.785108696 25.37665,1.65032609 L25.37665,23.3503261 C25.37665,24.2155435 24.6757333,24.9177174 23.8144833,24.9177174 L23.8144833,24.9177174 Z" id="Fill-29" fill="#5B5B5D"></path>
                    </g>
                    <g id="Group-11-Copy" transform="translate(39.000000, 12.500000) rotate(-180.000000) translate(-39.000000, -12.500000) translate(26.000000, 0.000000)">
                        <path d="M23.814375,24.5005435 L2.185625,24.5005435 C1.555125,24.5005435 1.03945833,23.9831522 1.03945833,23.3505435 L1.03945833,1.65054348 C1.03945833,1.01793478 1.555125,0.499456522 2.185625,0.499456522 L23.814375,0.499456522 C24.444875,0.499456522 24.9605417,1.01793478 24.9605417,1.65054348 L24.9605417,23.3505435 C24.9605417,23.9831522 24.444875,24.5005435 23.814375,24.5005435 Z" id="Fill-27" fill="#B6B8BA"></path>
                        <polygon id="Fill-31" fill="#5A5A5C" points="12.8598167 2.95891304 3.3774 2.95891304 3.3774 13.8284783 6.6274 13.8284783 6.6274 17.0893478 9.8774 17.0893478 9.8774 20.3502174 12.8598167 20.3502174 16.3774 20.3502174 16.3774 17.0893478 19.6274 17.0893478 19.6274 13.8284783 22.8774 13.8284783 22.8774 2.95891304"></polygon>
                        <polygon id="Fill-33" fill="#3F4243" points="3.37805 4.04554348 22.87805 4.04554348 22.87805 2.95858696 3.37805 2.95858696"></polygon>
                        <polygon id="Fill-35" fill="#3F4243" points="3.37805 13.8281522 6.62805 13.8281522 6.62805 12.7411957 3.37805 12.7411957"></polygon>
                        <polygon id="Fill-36" fill="#3F4243" points="19.62805 13.8281522 22.87805 13.8281522 22.87805 12.7411957 19.62805 12.7411957"></polygon>
                        <polygon id="Fill-37" fill="#3F4243" points="6.62805 17.0890217 9.87805 17.0890217 9.87805 16.0020652 6.62805 16.0020652"></polygon>
                        <polygon id="Fill-38" fill="#3F4243" points="9.87805 20.3498913 16.37805 20.3498913 16.37805 19.2629348 9.87805 19.2629348"></polygon>
                        <polygon id="Fill-39" fill="#3F4243" points="16.37805 17.0890217 19.62805 17.0890217 19.62805 16.0020652 16.37805 16.0020652"></polygon>
                        <polygon id="Fill-40" fill="#BDBEC2" points="10.7219667 10.0542391 12.2819667 10.0542391 12.2819667 4.38793478 10.7219667 4.38793478"></polygon>
                        <polygon id="Fill-41" fill="#BDBEC2" points="8.15663333 10.0542391 9.71663333 10.0542391 9.71663333 4.38793478 8.15663333 4.38793478"></polygon>
                        <polygon id="Fill-42" fill="#BDBEC2" points="13.2873 10.0542391 14.8473 10.0542391 14.8473 4.38793478 13.2873 4.38793478"></polygon>
                        <polygon id="Fill-43" fill="#BDBEC2" points="15.8526333 10.0542391 17.4126333 10.0542391 17.4126333 4.38793478 15.8526333 4.38793478"></polygon>
                        <path d="M2.18573333,0.916630435 C1.78273333,0.916630435 1.45556667,1.24597826 1.45556667,1.65032609 L1.45556667,23.3503261 C1.45556667,23.7546739 1.78273333,24.0829348 2.18573333,24.0829348 L23.8144833,24.0829348 C24.2174833,24.0829348 24.54465,23.7546739 24.54465,23.3503261 L24.54465,1.65032609 C24.54465,1.24597826 24.2174833,0.916630435 23.8144833,0.916630435 L2.18573333,0.916630435 Z M23.8144833,24.9177174 L2.18573333,24.9177174 C1.32448333,24.9177174 0.623566667,24.2155435 0.623566667,23.3503261 L0.623566667,1.65032609 C0.623566667,0.785108696 1.32448333,0.0818478261 2.18573333,0.0818478261 L23.8144833,0.0818478261 C24.6757333,0.0818478261 25.37665,0.785108696 25.37665,1.65032609 L25.37665,23.3503261 C25.37665,24.2155435 24.6757333,24.9177174 23.8144833,24.9177174 L23.8144833,24.9177174 Z" id="Fill-29" fill="#5B5B5D"></path>
                    </g>
                </g>
                <g id="Group-15" transform="translate(98.500000, 168.500000)">
                    <g id="Group-13-Copy" transform="translate(0.000000, 0.000000)">
                        <g id="Group-11" transform="translate(13.000000, 12.500000) rotate(-180.000000) translate(-13.000000, -12.500000) ">
                            <path d="M23.814375,24.5005435 L2.185625,24.5005435 C1.555125,24.5005435 1.03945833,23.9831522 1.03945833,23.3505435 L1.03945833,1.65054348 C1.03945833,1.01793478 1.555125,0.499456522 2.185625,0.499456522 L23.814375,0.499456522 C24.444875,0.499456522 24.9605417,1.01793478 24.9605417,1.65054348 L24.9605417,23.3505435 C24.9605417,23.9831522 24.444875,24.5005435 23.814375,24.5005435 Z" id="Fill-27" fill="#EDCD63"></path>
                            <polygon id="Fill-31" fill="#5A5A5C" points="12.8598167 2.95891304 3.3774 2.95891304 3.3774 13.8284783 6.6274 13.8284783 6.6274 17.0893478 9.8774 17.0893478 9.8774 20.3502174 12.8598167 20.3502174 16.3774 20.3502174 16.3774 17.0893478 19.6274 17.0893478 19.6274 13.8284783 22.8774 13.8284783 22.8774 2.95891304"></polygon>
                            <polygon id="Fill-33" fill="#3F4243" points="3.37805 4.04554348 22.87805 4.04554348 22.87805 2.95858696 3.37805 2.95858696"></polygon>
                            <polygon id="Fill-35" fill="#3F4243" points="3.37805 13.8281522 6.62805 13.8281522 6.62805 12.7411957 3.37805 12.7411957"></polygon>
                            <polygon id="Fill-36" fill="#3F4243" points="19.62805 13.8281522 22.87805 13.8281522 22.87805 12.7411957 19.62805 12.7411957"></polygon>
                            <polygon id="Fill-37" fill="#3F4243" points="6.62805 17.0890217 9.87805 17.0890217 9.87805 16.0020652 6.62805 16.0020652"></polygon>
                            <polygon id="Fill-38" fill="#3F4243" points="9.87805 20.3498913 16.37805 20.3498913 16.37805 19.2629348 9.87805 19.2629348"></polygon>
                            <polygon id="Fill-39" fill="#3F4243" points="16.37805 17.0890217 19.62805 17.0890217 19.62805 16.0020652 16.37805 16.0020652"></polygon>
                            <polygon id="Fill-40" fill="#BDBEC2" points="10.7219667 10.0542391 12.2819667 10.0542391 12.2819667 4.38793478 10.7219667 4.38793478"></polygon>
                            <polygon id="Fill-41" fill="#BDBEC2" points="8.15663333 10.0542391 9.71663333 10.0542391 9.71663333 4.38793478 8.15663333 4.38793478"></polygon>
                            <polygon id="Fill-42" fill="#BDBEC2" points="13.2873 10.0542391 14.8473 10.0542391 14.8473 4.38793478 13.2873 4.38793478"></polygon>
                            <polygon id="Fill-43" fill="#BDBEC2" points="15.8526333 10.0542391 17.4126333 10.0542391 17.4126333 4.38793478 15.8526333 4.38793478"></polygon>
                            <path d="M2.18573333,0.916630435 C1.78273333,0.916630435 1.45556667,1.24597826 1.45556667,1.65032609 L1.45556667,23.3503261 C1.45556667,23.7546739 1.78273333,24.0829348 2.18573333,24.0829348 L23.8144833,24.0829348 C24.2174833,24.0829348 24.54465,23.7546739 24.54465,23.3503261 L24.54465,1.65032609 C24.54465,1.24597826 24.2174833,0.916630435 23.8144833,0.916630435 L2.18573333,0.916630435 Z M23.8144833,24.9177174 L2.18573333,24.9177174 C1.32448333,24.9177174 0.623566667,24.2155435 0.623566667,23.3503261 L0.623566667,1.65032609 C0.623566667,0.785108696 1.32448333,0.0818478261 2.18573333,0.0818478261 L23.8144833,0.0818478261 C24.6757333,0.0818478261 25.37665,0.785108696 25.37665,1.65032609 L25.37665,23.3503261 C25.37665,24.2155435 24.6757333,24.9177174 23.8144833,24.9177174 L23.8144833,24.9177174 Z" id="Fill-29" fill="#5B5B5D"></path>
                        </g>
                    </g>
                    <g id="Group-13-Copy-2" transform="translate(26.000000, 0.000000)">
                        <g id="Group-11" transform="translate(13.000000, 12.500000) rotate(-180.000000) translate(-13.000000, -12.500000) ">
                            <path d="M23.814375,24.5005435 L2.185625,24.5005435 C1.555125,24.5005435 1.03945833,23.9831522 1.03945833,23.3505435 L1.03945833,1.65054348 C1.03945833,1.01793478 1.555125,0.499456522 2.185625,0.499456522 L23.814375,0.499456522 C24.444875,0.499456522 24.9605417,1.01793478 24.9605417,1.65054348 L24.9605417,23.3505435 C24.9605417,23.9831522 24.444875,24.5005435 23.814375,24.5005435 Z" id="Fill-27" fill="#EDCD63"></path>
                            <polygon id="Fill-31" fill="#5A5A5C" points="12.8598167 2.95891304 3.3774 2.95891304 3.3774 13.8284783 6.6274 13.8284783 6.6274 17.0893478 9.8774 17.0893478 9.8774 20.3502174 12.8598167 20.3502174 16.3774 20.3502174 16.3774 17.0893478 19.6274 17.0893478 19.6274 13.8284783 22.8774 13.8284783 22.8774 2.95891304"></polygon>
                            <polygon id="Fill-33" fill="#3F4243" points="3.37805 4.04554348 22.87805 4.04554348 22.87805 2.95858696 3.37805 2.95858696"></polygon>
                            <polygon id="Fill-35" fill="#3F4243" points="3.37805 13.8281522 6.62805 13.8281522 6.62805 12.7411957 3.37805 12.7411957"></polygon>
                            <polygon id="Fill-36" fill="#3F4243" points="19.62805 13.8281522 22.87805 13.8281522 22.87805 12.7411957 19.62805 12.7411957"></polygon>
                            <polygon id="Fill-37" fill="#3F4243" points="6.62805 17.0890217 9.87805 17.0890217 9.87805 16.0020652 6.62805 16.0020652"></polygon>
                            <polygon id="Fill-38" fill="#3F4243" points="9.87805 20.3498913 16.37805 20.3498913 16.37805 19.2629348 9.87805 19.2629348"></polygon>
                            <polygon id="Fill-39" fill="#3F4243" points="16.37805 17.0890217 19.62805 17.0890217 19.62805 16.0020652 16.37805 16.0020652"></polygon>
                            <polygon id="Fill-40" fill="#BDBEC2" points="10.7219667 10.0542391 12.2819667 10.0542391 12.2819667 4.38793478 10.7219667 4.38793478"></polygon>
                            <polygon id="Fill-41" fill="#BDBEC2" points="8.15663333 10.0542391 9.71663333 10.0542391 9.71663333 4.38793478 8.15663333 4.38793478"></polygon>
                            <polygon id="Fill-42" fill="#BDBEC2" points="13.2873 10.0542391 14.8473 10.0542391 14.8473 4.38793478 13.2873 4.38793478"></polygon>
                            <polygon id="Fill-43" fill="#BDBEC2" points="15.8526333 10.0542391 17.4126333 10.0542391 17.4126333 4.38793478 15.8526333 4.38793478"></polygon>
                            <path d="M2.18573333,0.916630435 C1.78273333,0.916630435 1.45556667,1.24597826 1.45556667,1.65032609 L1.45556667,23.3503261 C1.45556667,23.7546739 1.78273333,24.0829348 2.18573333,24.0829348 L23.8144833,24.0829348 C24.2174833,24.0829348 24.54465,23.7546739 24.54465,23.3503261 L24.54465,1.65032609 C24.54465,1.24597826 24.2174833,0.916630435 23.8144833,0.916630435 L2.18573333,0.916630435 Z M23.8144833,24.9177174 L2.18573333,24.9177174 C1.32448333,24.9177174 0.623566667,24.2155435 0.623566667,23.3503261 L0.623566667,1.65032609 C0.623566667,0.785108696 1.32448333,0.0818478261 2.18573333,0.0818478261 L23.8144833,0.0818478261 C24.6757333,0.0818478261 25.37665,0.785108696 25.37665,1.65032609 L25.37665,23.3503261 C25.37665,24.2155435 24.6757333,24.9177174 23.8144833,24.9177174 L23.8144833,24.9177174 Z" id="Fill-29" fill="#5B5B5D"></path>
                        </g>
                    </g>
                    <g id="Group-13-Copy-3" transform="translate(51.000000, 0.000000)">
                        <g id="Group-11" transform="translate(13.000000, 12.500000) rotate(-180.000000) translate(-13.000000, -12.500000) ">
                            <path d="M23.814375,24.5005435 L2.185625,24.5005435 C1.555125,24.5005435 1.03945833,23.9831522 1.03945833,23.3505435 L1.03945833,1.65054348 C1.03945833,1.01793478 1.555125,0.499456522 2.185625,0.499456522 L23.814375,0.499456522 C24.444875,0.499456522 24.9605417,1.01793478 24.9605417,1.65054348 L24.9605417,23.3505435 C24.9605417,23.9831522 24.444875,24.5005435 23.814375,24.5005435 Z" id="Fill-27" fill="#EDCD63"></path>
                            <polygon id="Fill-31" fill="#5A5A5C" points="12.8598167 2.95891304 3.3774 2.95891304 3.3774 13.8284783 6.6274 13.8284783 6.6274 17.0893478 9.8774 17.0893478 9.8774 20.3502174 12.8598167 20.3502174 16.3774 20.3502174 16.3774 17.0893478 19.6274 17.0893478 19.6274 13.8284783 22.8774 13.8284783 22.8774 2.95891304"></polygon>
                            <polygon id="Fill-33" fill="#3F4243" points="3.37805 4.04554348 22.87805 4.04554348 22.87805 2.95858696 3.37805 2.95858696"></polygon>
                            <polygon id="Fill-35" fill="#3F4243" points="3.37805 13.8281522 6.62805 13.8281522 6.62805 12.7411957 3.37805 12.7411957"></polygon>
                            <polygon id="Fill-36" fill="#3F4243" points="19.62805 13.8281522 22.87805 13.8281522 22.87805 12.7411957 19.62805 12.7411957"></polygon>
                            <polygon id="Fill-37" fill="#3F4243" points="6.62805 17.0890217 9.87805 17.0890217 9.87805 16.0020652 6.62805 16.0020652"></polygon>
                            <polygon id="Fill-38" fill="#3F4243" points="9.87805 20.3498913 16.37805 20.3498913 16.37805 19.2629348 9.87805 19.2629348"></polygon>
                            <polygon id="Fill-39" fill="#3F4243" points="16.37805 17.0890217 19.62805 17.0890217 19.62805 16.0020652 16.37805 16.0020652"></polygon>
                            <polygon id="Fill-40" fill="#BDBEC2" points="10.7219667 10.0542391 12.2819667 10.0542391 12.2819667 4.38793478 10.7219667 4.38793478"></polygon>
                            <polygon id="Fill-41" fill="#BDBEC2" points="8.15663333 10.0542391 9.71663333 10.0542391 9.71663333 4.38793478 8.15663333 4.38793478"></polygon>
                            <polygon id="Fill-42" fill="#BDBEC2" points="13.2873 10.0542391 14.8473 10.0542391 14.8473 4.38793478 13.2873 4.38793478"></polygon>
                            <polygon id="Fill-43" fill="#BDBEC2" points="15.8526333 10.0542391 17.4126333 10.0542391 17.4126333 4.38793478 15.8526333 4.38793478"></polygon>
                            <path d="M2.18573333,0.916630435 C1.78273333,0.916630435 1.45556667,1.24597826 1.45556667,1.65032609 L1.45556667,23.3503261 C1.45556667,23.7546739 1.78273333,24.0829348 2.18573333,24.0829348 L23.8144833,24.0829348 C24.2174833,24.0829348 24.54465,23.7546739 24.54465,23.3503261 L24.54465,1.65032609 C24.54465,1.24597826 24.2174833,0.916630435 23.8144833,0.916630435 L2.18573333,0.916630435 Z M23.8144833,24.9177174 L2.18573333,24.9177174 C1.32448333,24.9177174 0.623566667,24.2155435 0.623566667,23.3503261 L0.623566667,1.65032609 C0.623566667,0.785108696 1.32448333,0.0818478261 2.18573333,0.0818478261 L23.8144833,0.0818478261 C24.6757333,0.0818478261 25.37665,0.785108696 25.37665,1.65032609 L25.37665,23.3503261 C25.37665,24.2155435 24.6757333,24.9177174 23.8144833,24.9177174 L23.8144833,24.9177174 Z" id="Fill-29" fill="#5B5B5D"></path>
                        </g>
                    </g>
                    <g id="Group-13-Copy-4" transform="translate(77.000000, 0.000000)">
                        <g id="Group-11" transform="translate(13.000000, 12.500000) rotate(-180.000000) translate(-13.000000, -12.500000) ">
                            <path d="M23.814375,24.5005435 L2.185625,24.5005435 C1.555125,24.5005435 1.03945833,23.9831522 1.03945833,23.3505435 L1.03945833,1.65054348 C1.03945833,1.01793478 1.555125,0.499456522 2.185625,0.499456522 L23.814375,0.499456522 C24.444875,0.499456522 24.9605417,1.01793478 24.9605417,1.65054348 L24.9605417,23.3505435 C24.9605417,23.9831522 24.444875,24.5005435 23.814375,24.5005435 Z" id="Fill-27" fill="#EDCD63"></path>
                            <polygon id="Fill-31" fill="#5A5A5C" points="12.8598167 2.95891304 3.3774 2.95891304 3.3774 13.8284783 6.6274 13.8284783 6.6274 17.0893478 9.8774 17.0893478 9.8774 20.3502174 12.8598167 20.3502174 16.3774 20.3502174 16.3774 17.0893478 19.6274 17.0893478 19.6274 13.8284783 22.8774 13.8284783 22.8774 2.95891304"></polygon>
                            <polygon id="Fill-33" fill="#3F4243" points="3.37805 4.04554348 22.87805 4.04554348 22.87805 2.95858696 3.37805 2.95858696"></polygon>
                            <polygon id="Fill-35" fill="#3F4243" points="3.37805 13.8281522 6.62805 13.8281522 6.62805 12.7411957 3.37805 12.7411957"></polygon>
                            <polygon id="Fill-36" fill="#3F4243" points="19.62805 13.8281522 22.87805 13.8281522 22.87805 12.7411957 19.62805 12.7411957"></polygon>
                            <polygon id="Fill-37" fill="#3F4243" points="6.62805 17.0890217 9.87805 17.0890217 9.87805 16.0020652 6.62805 16.0020652"></polygon>
                            <polygon id="Fill-38" fill="#3F4243" points="9.87805 20.3498913 16.37805 20.3498913 16.37805 19.2629348 9.87805 19.2629348"></polygon>
                            <polygon id="Fill-39" fill="#3F4243" points="16.37805 17.0890217 19.62805 17.0890217 19.62805 16.0020652 16.37805 16.0020652"></polygon>
                            <polygon id="Fill-40" fill="#BDBEC2" points="10.7219667 10.0542391 12.2819667 10.0542391 12.2819667 4.38793478 10.7219667 4.38793478"></polygon>
                            <polygon id="Fill-41" fill="#BDBEC2" points="8.15663333 10.0542391 9.71663333 10.0542391 9.71663333 4.38793478 8.15663333 4.38793478"></polygon>
                            <polygon id="Fill-42" fill="#BDBEC2" points="13.2873 10.0542391 14.8473 10.0542391 14.8473 4.38793478 13.2873 4.38793478"></polygon>
                            <polygon id="Fill-43" fill="#BDBEC2" points="15.8526333 10.0542391 17.4126333 10.0542391 17.4126333 4.38793478 15.8526333 4.38793478"></polygon>
                            <path d="M2.18573333,0.916630435 C1.78273333,0.916630435 1.45556667,1.24597826 1.45556667,1.65032609 L1.45556667,23.3503261 C1.45556667,23.7546739 1.78273333,24.0829348 2.18573333,24.0829348 L23.8144833,24.0829348 C24.2174833,24.0829348 24.54465,23.7546739 24.54465,23.3503261 L24.54465,1.65032609 C24.54465,1.24597826 24.2174833,0.916630435 23.8144833,0.916630435 L2.18573333,0.916630435 Z M23.8144833,24.9177174 L2.18573333,24.9177174 C1.32448333,24.9177174 0.623566667,24.2155435 0.623566667,23.3503261 L0.623566667,1.65032609 C0.623566667,0.785108696 1.32448333,0.0818478261 2.18573333,0.0818478261 L23.8144833,0.0818478261 C24.6757333,0.0818478261 25.37665,0.785108696 25.37665,1.65032609 L25.37665,23.3503261 C25.37665,24.2155435 24.6757333,24.9177174 23.8144833,24.9177174 L23.8144833,24.9177174 Z" id="Fill-29" fill="#5B5B5D"></path>
                        </g>
                    </g>
                </g>
                <circle id="Oval" fill="#000000" cx="367" cy="179.685367" r="8.5"></circle>
                <circle id="Oval-Copy-3" fill="#000000" cx="276.715121" cy="171.185367" r="4.5"></circle>
                <circle id="Oval-Copy-4" fill="#000000" cx="298" cy="171.185367" r="4.5"></circle>
                <circle id="Oval-Copy-5" fill="#000000" cx="276.715121" cy="189.685367" r="4.5"></circle>
                <circle id="Oval-Copy-6" fill="#000000" cx="297.25" cy="189.685367" r="2.25"></circle>
                <circle id="Oval-Copy-7" fill="#000000" cx="297.25" cy="189.685367" r="2.25"></circle>
                <g id="Group-2" opacity="0.5" transform="translate(72.000000, 55.040000)" fill="#000000">
                    <g id="Group">
                        <circle id="Oval-Copy-8" cx="2.25" cy="2.25" r="2.25"></circle>
                        <circle id="Oval-Copy-9" cx="13.2294922" cy="2.25" r="2.25"></circle>
                        <circle id="Oval-Copy-10" cx="24.2089844" cy="2.25" r="2.25"></circle>
                        <circle id="Oval-Copy-11" cx="35.1884766" cy="2.25" r="2.25"></circle>
                        <circle id="Oval-Copy-12" cx="46.1679688" cy="2.25" r="2.25"></circle>
                        <circle id="Oval-Copy-13" cx="57.1474609" cy="2.25" r="2.25"></circle>
                        <circle id="Oval-Copy-14" cx="68.1269531" cy="2.25" r="2.25"></circle>
                        <circle id="Oval-Copy-15" cx="79.1064453" cy="2.25" r="2.25"></circle>
                    </g>
                    <g id="Group-Copy" transform="translate(0.000000, 8.500000)">
                        <circle id="Oval-Copy-8" cx="2.25" cy="2.25" r="2.25"></circle>
                        <circle id="Oval-Copy-9" cx="13.2294922" cy="2.25" r="2.25"></circle>
                        <circle id="Oval-Copy-10" cx="24.2089844" cy="2.25" r="2.25"></circle>
                        <circle id="Oval-Copy-11" cx="35.1884766" cy="2.25" r="2.25"></circle>
                        <circle id="Oval-Copy-12" cx="46.1679688" cy="2.25" r="2.25"></circle>
                        <circle id="Oval-Copy-13" cx="57.1474609" cy="2.25" r="2.25"></circle>
                        <circle id="Oval-Copy-14" cx="68.1269531" cy="2.25" r="2.25"></circle>
                        <circle id="Oval-Copy-15" cx="79.1064453" cy="2.25" r="2.25"></circle>
                    </g>
                    <g id="Group-Copy-2" transform="translate(0.000000, 17.000000)">
                        <circle id="Oval-Copy-8" cx="2.25" cy="2.25" r="2.25"></circle>
                        <circle id="Oval-Copy-9" cx="13.2294922" cy="2.25" r="2.25"></circle>
                        <circle id="Oval-Copy-10" cx="24.2089844" cy="2.25" r="2.25"></circle>
                        <circle id="Oval-Copy-11" cx="35.1884766" cy="2.25" r="2.25"></circle>
                        <circle id="Oval-Copy-12" cx="46.1679688" cy="2.25" r="2.25"></circle>
                        <circle id="Oval-Copy-13" cx="57.1474609" cy="2.25" r="2.25"></circle>
                        <circle id="Oval-Copy-14" cx="68.1269531" cy="2.25" r="2.25"></circle>
                        <circle id="Oval-Copy-15" cx="79.1064453" cy="2.25" r="2.25"></circle>
                    </g>
                    <g id="Group-Copy-3" transform="translate(0.000000, 25.500000)">
                        <circle id="Oval-Copy-8" cx="2.25" cy="2.25" r="2.25"></circle>
                        <circle id="Oval-Copy-9" cx="13.2294922" cy="2.25" r="2.25"></circle>
                        <circle id="Oval-Copy-10" cx="24.2089844" cy="2.25" r="2.25"></circle>
                        <circle id="Oval-Copy-11" cx="35.1884766" cy="2.25" r="2.25"></circle>
                        <circle id="Oval-Copy-12" cx="46.1679688" cy="2.25" r="2.25"></circle>
                        <circle id="Oval-Copy-13" cx="57.1474609" cy="2.25" r="2.25"></circle>
                        <circle id="Oval-Copy-14" cx="68.1269531" cy="2.25" r="2.25"></circle>
                        <circle id="Oval-Copy-15" cx="79.1064453" cy="2.25" r="2.25"></circle>
                    </g>
                    <g id="Group-Copy-4" transform="translate(0.000000, 34.000000)">
                        <circle id="Oval-Copy-8" cx="2.25" cy="2.25" r="2.25"></circle>
                        <circle id="Oval-Copy-9" cx="13.2294922" cy="2.25" r="2.25"></circle>
                        <circle id="Oval-Copy-10" cx="24.2089844" cy="2.25" r="2.25"></circle>
                        <circle id="Oval-Copy-11" cx="35.1884766" cy="2.25" r="2.25"></circle>
                        <circle id="Oval-Copy-12" cx="46.1679688" cy="2.25" r="2.25"></circle>
                        <circle id="Oval-Copy-13" cx="57.1474609" cy="2.25" r="2.25"></circle>
                        <circle id="Oval-Copy-14" cx="68.1269531" cy="2.25" r="2.25"></circle>
                        <circle id="Oval-Copy-15" cx="79.1064453" cy="2.25" r="2.25"></circle>
                    </g>
                    <g id="Group-Copy-5" transform="translate(0.000000, 42.500000)">
                        <circle id="Oval-Copy-8" cx="2.25" cy="2.25" r="2.25"></circle>
                        <circle id="Oval-Copy-9" cx="13.2294922" cy="2.25" r="2.25"></circle>
                        <circle id="Oval-Copy-10" cx="24.2089844" cy="2.25" r="2.25"></circle>
                        <circle id="Oval-Copy-11" cx="35.1884766" cy="2.25" r="2.25"></circle>
                        <circle id="Oval-Copy-12" cx="46.1679688" cy="2.25" r="2.25"></circle>
                        <circle id="Oval-Copy-13" cx="57.1474609" cy="2.25" r="2.25"></circle>
                        <circle id="Oval-Copy-14" cx="68.1269531" cy="2.25" r="2.25"></circle>
                        <circle id="Oval-Copy-15" cx="79.1064453" cy="2.25" r="2.25"></circle>
                    </g>
                    <g id="Group-Copy-6" transform="translate(0.000000, 51.000000)">
                        <circle id="Oval-Copy-8" cx="2.25" cy="2.25" r="2.25"></circle>
                        <circle id="Oval-Copy-9" cx="13.2294922" cy="2.25" r="2.25"></circle>
                        <circle id="Oval-Copy-10" cx="24.2089844" cy="2.25" r="2.25"></circle>
                        <circle id="Oval-Copy-11" cx="35.1884766" cy="2.25" r="2.25"></circle>
                        <circle id="Oval-Copy-12" cx="46.1679688" cy="2.25" r="2.25"></circle>
                        <circle id="Oval-Copy-13" cx="57.1474609" cy="2.25" r="2.25"></circle>
                        <circle id="Oval-Copy-14" cx="68.1269531" cy="2.25" r="2.25"></circle>
                        <circle id="Oval-Copy-15" cx="79.1064453" cy="2.25" r="2.25"></circle>
                    </g>
                    <g id="Group-Copy-7" transform="translate(0.000000, 59.500000)">
                        <circle id="Oval-Copy-8" cx="2.25" cy="2.25" r="2.25"></circle>
                        <circle id="Oval-Copy-9" cx="13.2294922" cy="2.25" r="2.25"></circle>
                        <circle id="Oval-Copy-10" cx="24.2089844" cy="2.25" r="2.25"></circle>
                        <circle id="Oval-Copy-11" cx="35.1884766" cy="2.25" r="2.25"></circle>
                        <circle id="Oval-Copy-12" cx="46.1679688" cy="2.25" r="2.25"></circle>
                        <circle id="Oval-Copy-13" cx="57.1474609" cy="2.25" r="2.25"></circle>
                        <circle id="Oval-Copy-14" cx="68.1269531" cy="2.25" r="2.25"></circle>
                        <circle id="Oval-Copy-15" cx="79.1064453" cy="2.25" r="2.25"></circle>
                    </g>
                </g>
                <g id="Group-2-Copy" opacity="0.5" transform="translate(254.000000, 55.040000)" fill="#000000">
                    <g id="Group">
                        <circle id="Oval-Copy-8" cx="2.25" cy="2.25" r="2.25"></circle>
                        <circle id="Oval-Copy-9" cx="13.2294922" cy="2.25" r="2.25"></circle>
                        <circle id="Oval-Copy-10" cx="24.2089844" cy="2.25" r="2.25"></circle>
                        <circle id="Oval-Copy-11" cx="35.1884766" cy="2.25" r="2.25"></circle>
                        <circle id="Oval-Copy-12" cx="46.1679688" cy="2.25" r="2.25"></circle>
                        <circle id="Oval-Copy-13" cx="57.1474609" cy="2.25" r="2.25"></circle>
                        <circle id="Oval-Copy-14" cx="68.1269531" cy="2.25" r="2.25"></circle>
                        <circle id="Oval-Copy-15" cx="79.1064453" cy="2.25" r="2.25"></circle>
                    </g>
                    <g id="Group-Copy" transform="translate(0.000000, 8.500000)">
                        <circle id="Oval-Copy-8" cx="2.25" cy="2.25" r="2.25"></circle>
                        <circle id="Oval-Copy-9" cx="13.2294922" cy="2.25" r="2.25"></circle>
                        <circle id="Oval-Copy-10" cx="24.2089844" cy="2.25" r="2.25"></circle>
                        <circle id="Oval-Copy-11" cx="35.1884766" cy="2.25" r="2.25"></circle>
                        <circle id="Oval-Copy-12" cx="46.1679688" cy="2.25" r="2.25"></circle>
                        <circle id="Oval-Copy-13" cx="57.1474609" cy="2.25" r="2.25"></circle>
                        <circle id="Oval-Copy-14" cx="68.1269531" cy="2.25" r="2.25"></circle>
                        <circle id="Oval-Copy-15" cx="79.1064453" cy="2.25" r="2.25"></circle>
                    </g>
                    <g id="Group-Copy-2" transform="translate(0.000000, 17.000000)">
                        <circle id="Oval-Copy-8" cx="2.25" cy="2.25" r="2.25"></circle>
                        <circle id="Oval-Copy-9" cx="13.2294922" cy="2.25" r="2.25"></circle>
                        <circle id="Oval-Copy-10" cx="24.2089844" cy="2.25" r="2.25"></circle>
                        <circle id="Oval-Copy-11" cx="35.1884766" cy="2.25" r="2.25"></circle>
                        <circle id="Oval-Copy-12" cx="46.1679688" cy="2.25" r="2.25"></circle>
                        <circle id="Oval-Copy-13" cx="57.1474609" cy="2.25" r="2.25"></circle>
                        <circle id="Oval-Copy-14" cx="68.1269531" cy="2.25" r="2.25"></circle>
                        <circle id="Oval-Copy-15" cx="79.1064453" cy="2.25" r="2.25"></circle>
                    </g>
                    <g id="Group-Copy-3" transform="translate(0.000000, 25.500000)">
                        <circle id="Oval-Copy-8" cx="2.25" cy="2.25" r="2.25"></circle>
                        <circle id="Oval-Copy-9" cx="13.2294922" cy="2.25" r="2.25"></circle>
                        <circle id="Oval-Copy-10" cx="24.2089844" cy="2.25" r="2.25"></circle>
                        <circle id="Oval-Copy-11" cx="35.1884766" cy="2.25" r="2.25"></circle>
                        <circle id="Oval-Copy-12" cx="46.1679688" cy="2.25" r="2.25"></circle>
                        <circle id="Oval-Copy-13" cx="57.1474609" cy="2.25" r="2.25"></circle>
                        <circle id="Oval-Copy-14" cx="68.1269531" cy="2.25" r="2.25"></circle>
                        <circle id="Oval-Copy-15" cx="79.1064453" cy="2.25" r="2.25"></circle>
                    </g>
                    <g id="Group-Copy-4" transform="translate(0.000000, 34.000000)">
                        <circle id="Oval-Copy-8" cx="2.25" cy="2.25" r="2.25"></circle>
                        <circle id="Oval-Copy-9" cx="13.2294922" cy="2.25" r="2.25"></circle>
                        <circle id="Oval-Copy-10" cx="24.2089844" cy="2.25" r="2.25"></circle>
                        <circle id="Oval-Copy-11" cx="35.1884766" cy="2.25" r="2.25"></circle>
                        <circle id="Oval-Copy-12" cx="46.1679688" cy="2.25" r="2.25"></circle>
                        <circle id="Oval-Copy-13" cx="57.1474609" cy="2.25" r="2.25"></circle>
                        <circle id="Oval-Copy-14" cx="68.1269531" cy="2.25" r="2.25"></circle>
                        <circle id="Oval-Copy-15" cx="79.1064453" cy="2.25" r="2.25"></circle>
                    </g>
                    <g id="Group-Copy-5" transform="translate(0.000000, 42.500000)">
                        <circle id="Oval-Copy-8" cx="2.25" cy="2.25" r="2.25"></circle>
                        <circle id="Oval-Copy-9" cx="13.2294922" cy="2.25" r="2.25"></circle>
                        <circle id="Oval-Copy-10" cx="24.2089844" cy="2.25" r="2.25"></circle>
                        <circle id="Oval-Copy-11" cx="35.1884766" cy="2.25" r="2.25"></circle>
                        <circle id="Oval-Copy-12" cx="46.1679688" cy="2.25" r="2.25"></circle>
                        <circle id="Oval-Copy-13" cx="57.1474609" cy="2.25" r="2.25"></circle>
                        <circle id="Oval-Copy-14" cx="68.1269531" cy="2.25" r="2.25"></circle>
                        <circle id="Oval-Copy-15" cx="79.1064453" cy="2.25" r="2.25"></circle>
                    </g>
                    <g id="Group-Copy-6" transform="translate(0.000000, 51.000000)">
                        <circle id="Oval-Copy-8" cx="2.25" cy="2.25" r="2.25"></circle>
                        <circle id="Oval-Copy-9" cx="13.2294922" cy="2.25" r="2.25"></circle>
                        <circle id="Oval-Copy-10" cx="24.2089844" cy="2.25" r="2.25"></circle>
                        <circle id="Oval-Copy-11" cx="35.1884766" cy="2.25" r="2.25"></circle>
                        <circle id="Oval-Copy-12" cx="46.1679688" cy="2.25" r="2.25"></circle>
                        <circle id="Oval-Copy-13" cx="57.1474609" cy="2.25" r="2.25"></circle>
                        <circle id="Oval-Copy-14" cx="68.1269531" cy="2.25" r="2.25"></circle>
                        <circle id="Oval-Copy-15" cx="79.1064453" cy="2.25" r="2.25"></circle>
                    </g>
                    <g id="Group-Copy-7" transform="translate(0.000000, 59.500000)">
                        <circle id="Oval-Copy-8" cx="2.25" cy="2.25" r="2.25"></circle>
                        <circle id="Oval-Copy-9" cx="13.2294922" cy="2.25" r="2.25"></circle>
                        <circle id="Oval-Copy-10" cx="24.2089844" cy="2.25" r="2.25"></circle>
                        <circle id="Oval-Copy-11" cx="35.1884766" cy="2.25" r="2.25"></circle>
                        <circle id="Oval-Copy-12" cx="46.1679688" cy="2.25" r="2.25"></circle>
                        <circle id="Oval-Copy-13" cx="57.1474609" cy="2.25" r="2.25"></circle>
                        <circle id="Oval-Copy-14" cx="68.1269531" cy="2.25" r="2.25"></circle>
                        <circle id="Oval-Copy-15" cx="79.1064453" cy="2.25" r="2.25"></circle>
                    </g>
                </g>
                <polygon id="Rectangle" fill="#9B9B9B" points="172.5 64 239.5 64 239.5 106.597656 235.199024 111.04 172.5 111"></polygon>
                <circle id="Oval-Copy" fill="#AFAFAF" cx="333.5" cy="179.685367" r="8.5"></circle>
                <circle id="Oval-Copy-2" fill="#000000" cx="333.5" cy="179.685367" r="5.5"></circle>
                <path d="M42.063,159.842 L40.684,159.842 L40.684,164 L39.935,164 L39.935,159.842 L38.556,159.842 L38.556,159.1 L42.063,159.1 L42.063,159.842 Z M43.3178182,159.842 L43.3178182,161.158 L45.4598182,161.158 L45.4598182,161.9 L43.3178182,161.9 L43.3178182,163.258 L45.4598182,163.258 L45.4598182,164 L42.5688182,164 L42.5688182,159.1 L45.4598182,159.1 L45.4598182,159.842 L43.3178182,159.842 Z M46.3156364,164 L46.3156364,159.1 L47.0646364,159.1 L47.0646364,163.258 L49.2066364,163.258 L49.2066364,164 L46.3156364,164 Z M50.4264546,159.1 L51.1614546,159.1 L51.1614546,164 L50.4264546,164 L50.4264546,160.017 L49.4884546,160.822 L49.4884546,159.905 L50.4264546,159.1 Z" id="TEL1" fill="#FFFFFF" fill-rule="nonzero"></path>
                <path d="M63.907,159.632 L62.598,159.632 L62.598,159.1 L65.755,159.1 L65.755,159.632 L64.446,159.632 L64.446,164 L63.907,164 L63.907,159.632 Z M66.8838182,161.788 L66.8838182,163.468 L69.1308182,163.468 L69.1308182,164 L66.3448182,164 L66.3448182,159.1 L69.1308182,159.1 L69.1308182,159.632 L66.8838182,159.632 L66.8838182,161.256 L69.1308182,161.256 L69.1308182,161.788 L66.8838182,161.788 Z M70.0706364,164 L70.0706364,159.1 L70.6096364,159.1 L70.6096364,163.468 L72.8566364,163.468 L72.8566364,164 L70.0706364,164 Z M73.2294546,160.444 C73.2294546,159.916664 73.3811197,159.549168 73.6844546,159.3415 C73.9877894,159.133832 74.3074529,159.03 74.6434546,159.03 C74.9794562,159.03 75.2991197,159.133832 75.6024546,159.3415 C75.9057894,159.549168 76.0574546,159.909664 76.0574546,160.423 C76.0574546,160.717001 75.9921219,160.980665 75.8614546,161.214 C75.7307872,161.447335 75.5581223,161.680666 75.3434546,161.914 L73.9084546,163.496 L76.0574546,163.496 L76.0574546,164 L73.2294546,164 L73.2294546,163.496 L74.9724546,161.578 C75.1264553,161.409999 75.2582874,161.228001 75.3679546,161.032 C75.4776218,160.835999 75.5324546,160.630668 75.5324546,160.416 C75.5324546,160.131332 75.4426221,159.913167 75.2629546,159.7615 C75.083287,159.609833 74.8767891,159.534 74.6434546,159.534 C74.4101201,159.534 74.2036221,159.609833 74.0239546,159.7615 C73.844287,159.913167 73.7544546,160.138332 73.7544546,160.437 L73.7544546,160.57 L73.2294546,160.57 L73.2294546,160.444 Z" id="TEL2" fill="#FFFFFF" fill-rule="nonzero" opacity="0.300000012"></path>
                <path d="M104.06,164 L104.06,159.1 L104.599,159.1 L104.599,163.468 L106.846,163.468 L106.846,164 L104.06,164 Z M110.200818,164 L109.752818,162.621 L107.974818,162.621 L107.526818,164 L106.980818,164 L108.555818,159.1 L109.171818,159.1 L110.746818,164 L110.200818,164 Z M109.591818,162.124 L108.863818,159.849 L108.135818,162.124 L109.591818,162.124 Z M114.500636,159.1 L114.500636,164 L113.961636,164 L111.875636,160.143 L111.875636,164 L111.336636,164 L111.336636,159.1 L111.875636,159.1 L113.961636,162.957 L113.961636,159.1 L114.500636,159.1 Z M116.259455,159.1 L116.784455,159.1 L116.784455,164 L116.259455,164 L116.259455,159.765 L115.321455,160.57 L115.321455,159.905 L116.259455,159.1 Z" id="LAN1" fill="#FFFFFF" fill-rule="nonzero" opacity="0.300000012"></path>
                <path d="M130.06,164 L130.06,159.1 L130.599,159.1 L130.599,163.468 L132.846,163.468 L132.846,164 L130.06,164 Z M136.200818,164 L135.752818,162.621 L133.974818,162.621 L133.526818,164 L132.980818,164 L134.555818,159.1 L135.171818,159.1 L136.746818,164 L136.200818,164 Z M135.591818,162.124 L134.863818,159.849 L134.135818,162.124 L135.591818,162.124 Z M140.500636,159.1 L140.500636,164 L139.961636,164 L137.875636,160.143 L137.875636,164 L137.336636,164 L137.336636,159.1 L137.875636,159.1 L139.961636,162.957 L139.961636,159.1 L140.500636,159.1 Z M141.328455,160.444 C141.328455,159.916664 141.48012,159.549168 141.783455,159.3415 C142.086789,159.133832 142.406453,159.03 142.742455,159.03 C143.078456,159.03 143.39812,159.133832 143.701455,159.3415 C144.004789,159.549168 144.156455,159.909664 144.156455,160.423 C144.156455,160.717001 144.091122,160.980665 143.960455,161.214 C143.829787,161.447335 143.657122,161.680666 143.442455,161.914 L142.007455,163.496 L144.156455,163.496 L144.156455,164 L141.328455,164 L141.328455,163.496 L143.071455,161.578 C143.225455,161.409999 143.357287,161.228001 143.466955,161.032 C143.576622,160.835999 143.631455,160.630668 143.631455,160.416 C143.631455,160.131332 143.541622,159.913167 143.361955,159.7615 C143.182287,159.609833 142.975789,159.534 142.742455,159.534 C142.50912,159.534 142.302622,159.609833 142.122955,159.7615 C141.943287,159.913167 141.853455,160.138332 141.853455,160.437 L141.853455,160.57 L141.328455,160.57 L141.328455,160.444 Z" id="LAN2" fill="#FFFFFF" fill-rule="nonzero" opacity="0.300000012"></path>
                <path d="M154.06,164 L154.06,159.1 L154.599,159.1 L154.599,163.468 L156.846,163.468 L156.846,164 L154.06,164 Z M160.200818,164 L159.752818,162.621 L157.974818,162.621 L157.526818,164 L156.980818,164 L158.555818,159.1 L159.171818,159.1 L160.746818,164 L160.200818,164 Z M159.591818,162.124 L158.863818,159.849 L158.135818,162.124 L159.591818,162.124 Z M164.500636,159.1 L164.500636,164 L163.961636,164 L161.875636,160.143 L161.875636,164 L161.336636,164 L161.336636,159.1 L161.875636,159.1 L163.961636,162.957 L163.961636,159.1 L164.500636,159.1 Z M165.321455,162.656 L165.321455,162.6 L165.846455,162.6 L165.846455,162.663 C165.846455,162.961668 165.939787,163.186833 166.126455,163.3385 C166.313122,163.490167 166.527787,163.566 166.770455,163.566 C167.022456,163.566 167.227787,163.490167 167.386455,163.3385 C167.545122,163.186833 167.624455,162.973335 167.624455,162.698 C167.624455,162.464665 167.548622,162.254668 167.396955,162.068 C167.245287,161.881332 167.036456,161.788 166.770455,161.788 L166.420455,161.788 L166.420455,161.284 L166.770455,161.284 C167.008456,161.284 167.210287,161.207001 167.375955,161.053 C167.541622,160.898999 167.624455,160.682001 167.624455,160.402 C167.624455,160.131332 167.535789,159.919001 167.358455,159.765 C167.18112,159.610999 166.973456,159.534 166.735455,159.534 C166.50212,159.534 166.295622,159.609833 166.115955,159.7615 C165.936287,159.913167 165.846455,160.138332 165.846455,160.437 L165.846455,160.5 L165.321455,160.5 L165.321455,160.444 C165.321455,159.916664 165.47312,159.549168 165.776455,159.3415 C166.079789,159.133832 166.399453,159.03 166.735455,159.03 C167.085456,159.03 167.40862,159.137332 167.704955,159.352 C168.001289,159.566668 168.149455,159.916664 168.149455,160.402 C168.149455,160.672668 168.091122,160.908332 167.974455,161.109 C167.857787,161.309668 167.717789,161.452 167.554455,161.536 C167.717789,161.624667 167.857787,161.770499 167.974455,161.9735 C168.091122,162.176501 168.149455,162.417999 168.149455,162.698 C168.149455,163.183336 168.003623,163.533332 167.711955,163.748 C167.420286,163.962668 167.106456,164.07 166.770455,164.07 C166.42512,164.07 166.097289,163.966168 165.786955,163.7585 C165.47662,163.550832 165.321455,163.183336 165.321455,162.656 Z" id="LAN3" fill="#FFFFFF" fill-rule="nonzero" opacity="0.300000012"></path>
                <path d="M182.06,164 L182.06,159.1 L182.599,159.1 L182.599,163.468 L184.846,163.468 L184.846,164 L182.06,164 Z M188.200818,164 L187.752818,162.621 L185.974818,162.621 L185.526818,164 L184.980818,164 L186.555818,159.1 L187.171818,159.1 L188.746818,164 L188.200818,164 Z M187.591818,162.124 L186.863818,159.849 L186.135818,162.124 L187.591818,162.124 Z M192.500636,159.1 L192.500636,164 L191.961636,164 L189.875636,160.143 L189.875636,164 L189.336636,164 L189.336636,159.1 L189.875636,159.1 L191.961636,162.957 L191.961636,159.1 L192.500636,159.1 Z M196.380455,162.677 L195.869455,162.677 L195.869455,164 L195.344455,164 L195.344455,162.677 L193.097455,162.677 L193.097455,162.187 L195.344455,159.1 L195.869455,159.1 L195.869455,162.187 L196.380455,162.187 L196.380455,162.677 Z M193.699455,162.187 L195.344455,162.187 L195.344455,159.933 L193.699455,162.187 Z" id="LAN4" fill="#FFFFFF" fill-rule="nonzero" opacity="0.300000012"></path>
            </g>
            <rect id="Rectangle" fill="#323232" x="236.5" y="26.6220703" width="8.37792969" height="8.37792969"></rect>
            <rect id="Rectangle-Copy-3" fill="#323232" x="219.5" y="38.5" width="8.37792969" height="8.37792969"></rect>
            <rect id="Rectangle-Copy-9" fill="#323232" x="236.5" y="124.5" width="8.37792969" height="8.37792969"></rect>
            <rect id="Rectangle-Copy-8" fill="#323232" x="219.5" y="136.37793" width="8.37792969" height="8.37792969"></rect>
            <rect id="Rectangle-Copy-6" fill="#323232" x="156.5" y="83" width="8.37792969" height="8.37792969"></rect>
            <rect id="Rectangle-Copy-7" fill="#323232" x="506" y="83" width="8.37792969" height="8.37792969"></rect>
            <rect id="Rectangle-Copy-4" fill="#323232" x="333" y="38.5" width="8.37792969" height="8.37792969"></rect>
            <rect id="Rectangle-Copy-5" fill="#323232" x="439.5" y="38.5" width="8.37792969" height="8.37792969"></rect>
            <rect id="Rectangle-Copy-2" fill="#323232" x="318" y="26.6220703" width="8.37792969" height="8.37792969"></rect>
            <rect id="Rectangle-Copy-11" fill="#323232" x="318" y="136.37793" width="8.37792969" height="8.37792969"></rect>
            <rect id="Rectangle-Copy-10" fill="#323232" x="333" y="125.5" width="8.37792969" height="8.37792969"></rect>
            <rect id="Rectangle-Copy-12" fill="#323232" x="439.5" y="125.5" width="8.37792969" height="8.37792969"></rect>
            <rect id="Rectangle-Copy" fill="#323232" x="420.5" y="26.6220703" width="8.37792969" height="8.37792969"></rect>
            <path d="M127.675823,266.776486 C142.579357,267.943355 156.782032,269.05501 172.440165,270.281511 C168.756245,266.192683 165.906434,263.029253 162.391839,259.128155 C182.513523,254.628531 199.587359,259.279811 215.199848,272.118318 C207.67299,251.743382 184.895114,240.697511 153.078235,241.71935 C151.886335,237.473713 150.656889,233.093352 149.115296,227.599865 C145.13469,234.821938 141.617886,241.166468 138.135683,247.530138 C134.719002,253.773808 131.336921,260.03662 127.675823,266.776486" id="Fill-63-Copy" fill="#00BCCE" transform="translate(171.437836, 249.859091) scale(-1, -1) rotate(-427.000000) translate(-171.437836, -249.859091) "></path>
            <g id="Group-4" transform="translate(0.000000, 249.859091)">
                <path d="M52.04348,-8 C54.782133,6.6936212 55.9017774,18.6721494 55.4024133,27.9355845 C54.653367,41.8307373 52.5609047,56.8284716 35,81.4800879" id="Path" stroke="#A2A2A2" stroke-width="8" transform="translate(45.258965, 36.740044) rotate(91.000000) translate(-45.258965, -36.740044) "></path>
                <g id="Group-2" transform="translate(107.485330, 39.248695) rotate(126.000000) translate(-107.485330, -39.248695) translate(79.985330, 10.748695)">
                    <path d="M42.8895681,44.170576 C44.0973897,43.830576 44.8407323,42.429576 44.5416359,41.057576 L37.5705334,8.69924292 C37.2723167,7.32624292 36.0398636,6.48124292 34.832042,6.82024292 L12.268737,13.1642429 C11.061795,13.5032429 10.3175728,14.9042429 10.6166692,16.2772429 L17.5877716,48.635576 C17.886868,50.007576 19.1184414,50.852576 20.3262631,50.513576 L42.8895681,44.170576 Z" id="Fill-36" fill="#F2F3F5" transform="translate(27.579178, 28.666911) rotate(-39.000000) translate(-27.579178, -28.666911) "></path>
                    <path d="M30.2277861,0.00268288973 C31.1224362,-0.0523171103 32.2009426,0.74268289 32.4718888,1.98568289 L39.89588,34.036909 C40.1659464,35.279909 39.537844,36.554909 38.7241258,36.979909 L30.2277861,0.00268288973 Z" id="Fill-37" fill="#CFCFCF" transform="translate(35.093619, 18.489954) rotate(-39.000000) translate(-35.093619, -18.489954) "></path>
                    <path d="M24.6577083,57.917169 C23.7630582,57.972169 22.6845517,57.177169 22.4136056,55.934169 L15.2967902,24.019049 C15.0267238,22.776049 15.6548262,21.501049 16.4685444,21.076049 L24.6577083,57.917169 Z" id="Fill-38" fill="#CFCFCF" transform="translate(19.945463, 39.497950) rotate(-39.000000) translate(-19.945463, -39.497950) "></path>
                    <polygon id="Fill-40" fill="#E3E4E7" transform="translate(20.268683, 22.847551) rotate(-39.000000) translate(-20.268683, -22.847551) " points="14.0721096 34.5205513 30.5373667 29.8915513 26.4652571 11.1745513 10 15.8035513"></polygon>
                    <polygon id="Fill-40-Copy" fill="#B1B3B6" transform="translate(32.538848, 32.246627) rotate(-39.000000) translate(-32.538848, -32.246627) " points="29.1136095 41.3327274 39.2408182 39.2018048 35.5745415 23.160526 25.8368769 25.7596667"></polygon>
                    <polygon id="Fill-40-Copy-2" fill="#E3E4E7" transform="translate(32.302230, 31.404850) rotate(-43.000000) translate(-32.302230, -31.404850) " points="28.8531659 39.9316474 39.0042002 38.6476777 35.7994907 22.8780523 25.6002589 25.2055395"></polygon>
                    <polygon id="Fill-41" fill="#8D8F90" transform="translate(21.045768, 16.464406) rotate(-39.000000) translate(-21.045768, -16.464406) " points="21.2648122 23.1614065 23.5977642 22.5054065 20.8258442 9.76740647 18.493772 10.4234065"></polygon>
                    <polygon id="Fill-42" fill="#BDBEC2" transform="translate(21.115987, 16.825098) rotate(-39.000000) translate(-21.115987, -16.825098) " points="21.5074512 23.1975979 23.3829616 22.6705979 20.7245224 10.4525979 18.849012 10.9795979"></polygon>
                    <polygon id="Fill-43" fill="#8D8F90" transform="translate(18.936622, 19.443678) rotate(-39.000000) translate(-18.936622, -19.443678) " points="19.1556658 26.140678 21.4886178 25.484678 18.7166979 12.746678 16.3846256 13.402678"></polygon>
                    <polygon id="Fill-44" fill="#BDBEC2" transform="translate(19.006840, 19.804369) rotate(-39.000000) translate(-19.006840, -19.804369) " points="19.3983049 26.1768694 21.2738153 25.6498694 18.615376 13.4318694 16.7398656 13.9588694"></polygon>
                    <polygon id="Fill-45" fill="#8D8F90" transform="translate(16.827344, 22.422927) rotate(-39.000000) translate(-16.827344, -22.422927) " points="17.0463882 29.1199271 19.3793401 28.4639271 16.6074202 15.7259271 14.275348 16.3819271"></polygon>
                    <polygon id="Fill-46" fill="#BDBEC2" transform="translate(16.897563, 22.783619) rotate(-39.000000) translate(-16.897563, -22.783619) " points="17.2890272 29.1561186 19.1645376 28.6291186 16.5060984 16.4111186 14.630588 16.9381186"></polygon>
                    <polygon id="Fill-47" fill="#8D8F90" transform="translate(14.718129, 25.402254) rotate(-39.000000) translate(-14.718129, -25.402254) " points="14.9371735 32.099254 17.2701254 31.443254 14.4982055 18.705254 12.1661332 19.361254"></polygon>
                    <polygon id="Fill-48" fill="#BDBEC2" transform="translate(14.788348, 25.762945) rotate(-39.000000) translate(-14.788348, -25.762945) " points="15.1798125 32.1354454 17.0553229 31.6084454 14.3968836 19.3904454 12.5213733 19.9174454"></polygon>
                </g>
            </g>
        </g>
    </g>
</svg>