<svg width="600" height="363" viewBox="0 0 600 363" fill="none" xmlns="http://www.w3.org/2000/svg">
<rect width="600" height="363" fill="#F2F2F2"/>
<g clip-path="url(#clip0)">
<path fill-rule="evenodd" clip-rule="evenodd" d="M166.468 229.757C158.345 229.757 151.697 226.1 151.697 221.63V20.3438C151.697 15.8738 158.345 12.2168 166.468 12.2168H539.929C548.052 12.2168 554.697 15.8738 554.697 20.3438V221.63C554.697 226.1 548.052 229.757 539.929 229.757H166.468Z" fill="#444444"/>
<rect x="186.197" y="49.2168" width="339" height="98" rx="48" stroke="#323232" stroke-width="4"/>
<path fill-rule="evenodd" clip-rule="evenodd" d="M378.697 208.124H388.387V178.31H378.697V208.124Z" fill="black"/>
<path fill-rule="evenodd" clip-rule="evenodd" d="M385.406 205.888H386.897V180.546H385.406V205.888Z" fill="#858585"/>
<path fill-rule="evenodd" clip-rule="evenodd" d="M394.723 208.124H404.412V178.31H394.723V208.124Z" fill="black"/>
<path fill-rule="evenodd" clip-rule="evenodd" d="M401.432 205.888H402.922V180.546H401.432V205.888Z" fill="#858585"/>
<path fill-rule="evenodd" clip-rule="evenodd" d="M169.758 223.757C168.075 223.757 166.697 223.942 166.697 224.168V234.346C166.697 234.572 168.075 234.757 169.758 234.757H247.137C248.82 234.757 250.197 234.572 250.197 234.346V224.168C250.197 223.942 248.82 223.757 247.137 223.757H169.758Z" fill="#2B2B2B"/>
<path fill-rule="evenodd" clip-rule="evenodd" d="M454.258 223.757C452.575 223.757 451.197 223.942 451.197 224.168V234.346C451.197 234.572 452.575 234.757 454.258 234.757H531.637C533.32 234.757 534.697 234.572 534.697 234.346V224.168C534.697 223.942 533.32 223.757 531.637 223.757H454.258Z" fill="#2B2B2B"/>
<path fill-rule="evenodd" clip-rule="evenodd" d="M185.383 181.216H207.012C207.643 181.216 208.158 181.734 208.158 182.366V204.066C208.158 204.699 207.643 205.217 207.012 205.217H185.383C184.753 205.217 184.237 204.699 184.237 204.066V182.366C184.237 181.734 184.753 181.216 185.383 181.216Z" fill="#B6B8BA"/>
<path fill-rule="evenodd" clip-rule="evenodd" d="M196.338 202.758H205.82V191.888H202.57V188.627H199.32V185.367H196.338H192.82V188.627H189.57V191.888H186.32V202.758H196.338Z" fill="#5A5A5C"/>
<path fill-rule="evenodd" clip-rule="evenodd" d="M205.82 201.671H186.32V202.758H205.82V201.671Z" fill="#3F4243"/>
<path fill-rule="evenodd" clip-rule="evenodd" d="M205.82 191.889H202.57V192.976H205.82V191.889Z" fill="#3F4243"/>
<path fill-rule="evenodd" clip-rule="evenodd" d="M189.57 191.889H186.32V192.976H189.57V191.889Z" fill="#3F4243"/>
<path fill-rule="evenodd" clip-rule="evenodd" d="M202.57 188.627H199.32V189.714H202.57V188.627Z" fill="#3F4243"/>
<path fill-rule="evenodd" clip-rule="evenodd" d="M199.32 185.367H192.82V186.454H199.32V185.367Z" fill="#3F4243"/>
<path fill-rule="evenodd" clip-rule="evenodd" d="M192.82 188.627H189.57V189.714H192.82V188.627Z" fill="#3F4243"/>
<path fill-rule="evenodd" clip-rule="evenodd" d="M198.477 195.662H196.917V201.329H198.477V195.662Z" fill="#BDBEC2"/>
<path fill-rule="evenodd" clip-rule="evenodd" d="M201.041 195.662H199.481V201.329H201.041V195.662Z" fill="#BDBEC2"/>
<path fill-rule="evenodd" clip-rule="evenodd" d="M195.91 195.662H194.35V201.329H195.91V195.662Z" fill="#BDBEC2"/>
<path fill-rule="evenodd" clip-rule="evenodd" d="M193.346 195.662H191.786V201.329H193.346V195.662Z" fill="#BDBEC2"/>
<path fill-rule="evenodd" clip-rule="evenodd" d="M207.012 204.8C207.415 204.8 207.742 204.471 207.742 204.066V182.366C207.742 181.962 207.415 181.634 207.012 181.634H185.383C184.98 181.634 184.653 181.962 184.653 182.366V204.066C184.653 204.471 184.98 204.8 185.383 204.8H207.012ZM185.383 180.799H207.012C207.873 180.799 208.574 181.501 208.574 182.366V204.066C208.574 204.932 207.873 205.635 207.012 205.635H185.383C184.522 205.635 183.821 204.932 183.821 204.066V182.366C183.821 181.501 184.522 180.799 185.383 180.799V180.799Z" fill="#5B5B5D"/>
<path fill-rule="evenodd" clip-rule="evenodd" d="M211.383 181.216H233.012C233.643 181.216 234.158 181.734 234.158 182.366V204.066C234.158 204.699 233.643 205.217 233.012 205.217H211.383C210.753 205.217 210.237 204.699 210.237 204.066V182.366C210.237 181.734 210.753 181.216 211.383 181.216Z" fill="#B6B8BA"/>
<path fill-rule="evenodd" clip-rule="evenodd" d="M222.338 202.758H231.82V191.888H228.57V188.627H225.32V185.367H222.338H218.82V188.627H215.57V191.888H212.32V202.758H222.338Z" fill="#5A5A5C"/>
<path fill-rule="evenodd" clip-rule="evenodd" d="M231.82 201.671H212.32V202.758H231.82V201.671Z" fill="#3F4243"/>
<path fill-rule="evenodd" clip-rule="evenodd" d="M231.82 191.889H228.57V192.976H231.82V191.889Z" fill="#3F4243"/>
<path fill-rule="evenodd" clip-rule="evenodd" d="M215.57 191.889H212.32V192.976H215.57V191.889Z" fill="#3F4243"/>
<path fill-rule="evenodd" clip-rule="evenodd" d="M228.57 188.627H225.32V189.714H228.57V188.627Z" fill="#3F4243"/>
<path fill-rule="evenodd" clip-rule="evenodd" d="M225.32 185.367H218.82V186.454H225.32V185.367Z" fill="#3F4243"/>
<path fill-rule="evenodd" clip-rule="evenodd" d="M218.82 188.627H215.57V189.714H218.82V188.627Z" fill="#3F4243"/>
<path fill-rule="evenodd" clip-rule="evenodd" d="M224.477 195.662H222.917V201.329H224.477V195.662Z" fill="#BDBEC2"/>
<path fill-rule="evenodd" clip-rule="evenodd" d="M227.041 195.662H225.481V201.329H227.041V195.662Z" fill="#BDBEC2"/>
<path fill-rule="evenodd" clip-rule="evenodd" d="M221.91 195.662H220.35V201.329H221.91V195.662Z" fill="#BDBEC2"/>
<path fill-rule="evenodd" clip-rule="evenodd" d="M219.346 195.662H217.786V201.329H219.346V195.662Z" fill="#BDBEC2"/>
<path fill-rule="evenodd" clip-rule="evenodd" d="M233.012 204.8C233.415 204.8 233.742 204.471 233.742 204.066V182.366C233.742 181.962 233.415 181.634 233.012 181.634H211.383C210.98 181.634 210.653 181.962 210.653 182.366V204.066C210.653 204.471 210.98 204.8 211.383 204.8H233.012ZM211.383 180.799H233.012C233.873 180.799 234.574 181.501 234.574 182.366V204.066C234.574 204.932 233.873 205.635 233.012 205.635H211.383C210.522 205.635 209.821 204.932 209.821 204.066V182.366C209.821 181.501 210.522 180.799 211.383 180.799V180.799Z" fill="#5B5B5D"/>
<path fill-rule="evenodd" clip-rule="evenodd" d="M252.383 181.216H274.012C274.643 181.216 275.158 181.734 275.158 182.366V204.066C275.158 204.699 274.643 205.217 274.012 205.217H252.383C251.753 205.217 251.237 204.699 251.237 204.066V182.366C251.237 181.734 251.753 181.216 252.383 181.216Z" fill="#EDCD63"/>
<path fill-rule="evenodd" clip-rule="evenodd" d="M263.338 202.758H272.82V191.888H269.57V188.627H266.32V185.367H263.338H259.82V188.627H256.57V191.888H253.32V202.758H263.338Z" fill="#5A5A5C"/>
<path fill-rule="evenodd" clip-rule="evenodd" d="M272.82 201.671H253.32V202.758H272.82V201.671Z" fill="#3F4243"/>
<path fill-rule="evenodd" clip-rule="evenodd" d="M272.82 191.889H269.57V192.976H272.82V191.889Z" fill="#3F4243"/>
<path fill-rule="evenodd" clip-rule="evenodd" d="M256.57 191.889H253.32V192.976H256.57V191.889Z" fill="#3F4243"/>
<path fill-rule="evenodd" clip-rule="evenodd" d="M269.57 188.627H266.32V189.714H269.57V188.627Z" fill="#3F4243"/>
<path fill-rule="evenodd" clip-rule="evenodd" d="M266.32 185.367H259.82V186.454H266.32V185.367Z" fill="#3F4243"/>
<path fill-rule="evenodd" clip-rule="evenodd" d="M259.82 188.627H256.57V189.714H259.82V188.627Z" fill="#3F4243"/>
<path fill-rule="evenodd" clip-rule="evenodd" d="M265.477 195.662H263.917V201.329H265.477V195.662Z" fill="#BDBEC2"/>
<path fill-rule="evenodd" clip-rule="evenodd" d="M268.041 195.662H266.481V201.329H268.041V195.662Z" fill="#BDBEC2"/>
<path fill-rule="evenodd" clip-rule="evenodd" d="M262.91 195.662H261.35V201.329H262.91V195.662Z" fill="#BDBEC2"/>
<path fill-rule="evenodd" clip-rule="evenodd" d="M260.346 195.662H258.786V201.329H260.346V195.662Z" fill="#BDBEC2"/>
<path fill-rule="evenodd" clip-rule="evenodd" d="M274.012 204.8C274.415 204.8 274.742 204.471 274.742 204.066V182.366C274.742 181.962 274.415 181.634 274.012 181.634H252.383C251.98 181.634 251.653 181.962 251.653 182.366V204.066C251.653 204.471 251.98 204.8 252.383 204.8H274.012ZM252.383 180.799H274.012C274.873 180.799 275.574 181.501 275.574 182.366V204.066C275.574 204.932 274.873 205.635 274.012 205.635H252.383C251.522 205.635 250.821 204.932 250.821 204.066V182.366C250.821 181.501 251.522 180.799 252.383 180.799V180.799Z" fill="#5B5B5D"/>
<path fill-rule="evenodd" clip-rule="evenodd" d="M278.383 181.216H300.012C300.643 181.216 301.158 181.734 301.158 182.366V204.066C301.158 204.699 300.643 205.217 300.012 205.217H278.383C277.753 205.217 277.237 204.699 277.237 204.066V182.366C277.237 181.734 277.753 181.216 278.383 181.216Z" fill="#EDCD63"/>
<path fill-rule="evenodd" clip-rule="evenodd" d="M289.338 202.758H298.82V191.888H295.57V188.627H292.32V185.367H289.338H285.82V188.627H282.57V191.888H279.32V202.758H289.338Z" fill="#5A5A5C"/>
<path fill-rule="evenodd" clip-rule="evenodd" d="M298.82 201.671H279.32V202.758H298.82V201.671Z" fill="#3F4243"/>
<path fill-rule="evenodd" clip-rule="evenodd" d="M298.82 191.889H295.57V192.976H298.82V191.889Z" fill="#3F4243"/>
<path fill-rule="evenodd" clip-rule="evenodd" d="M282.57 191.889H279.32V192.976H282.57V191.889Z" fill="#3F4243"/>
<path fill-rule="evenodd" clip-rule="evenodd" d="M295.57 188.627H292.32V189.714H295.57V188.627Z" fill="#3F4243"/>
<path fill-rule="evenodd" clip-rule="evenodd" d="M292.32 185.367H285.82V186.454H292.32V185.367Z" fill="#3F4243"/>
<path fill-rule="evenodd" clip-rule="evenodd" d="M285.82 188.627H282.57V189.714H285.82V188.627Z" fill="#3F4243"/>
<path fill-rule="evenodd" clip-rule="evenodd" d="M291.477 195.662H289.917V201.329H291.477V195.662Z" fill="#BDBEC2"/>
<path fill-rule="evenodd" clip-rule="evenodd" d="M294.041 195.662H292.481V201.329H294.041V195.662Z" fill="#BDBEC2"/>
<path fill-rule="evenodd" clip-rule="evenodd" d="M288.91 195.662H287.35V201.329H288.91V195.662Z" fill="#BDBEC2"/>
<path fill-rule="evenodd" clip-rule="evenodd" d="M286.346 195.662H284.786V201.329H286.346V195.662Z" fill="#BDBEC2"/>
<path fill-rule="evenodd" clip-rule="evenodd" d="M300.012 204.8C300.415 204.8 300.742 204.471 300.742 204.066V182.366C300.742 181.962 300.415 181.634 300.012 181.634H278.383C277.98 181.634 277.653 181.962 277.653 182.366V204.066C277.653 204.471 277.98 204.8 278.383 204.8H300.012ZM278.383 180.799H300.012C300.873 180.799 301.574 181.501 301.574 182.366V204.066C301.574 204.932 300.873 205.635 300.012 205.635H278.383C277.522 205.635 276.821 204.932 276.821 204.066V182.366C276.821 181.501 277.522 180.799 278.383 180.799V180.799Z" fill="#5B5B5D"/>
<path fill-rule="evenodd" clip-rule="evenodd" d="M303.383 181.216H325.012C325.643 181.216 326.158 181.734 326.158 182.366V204.066C326.158 204.699 325.643 205.217 325.012 205.217H303.383C302.753 205.217 302.237 204.699 302.237 204.066V182.366C302.237 181.734 302.753 181.216 303.383 181.216Z" fill="#EDCD63"/>
<path fill-rule="evenodd" clip-rule="evenodd" d="M314.338 202.758H323.82V191.888H320.57V188.627H317.32V185.367H314.338H310.82V188.627H307.57V191.888H304.32V202.758H314.338Z" fill="#5A5A5C"/>
<path fill-rule="evenodd" clip-rule="evenodd" d="M323.82 201.671H304.32V202.758H323.82V201.671Z" fill="#3F4243"/>
<path fill-rule="evenodd" clip-rule="evenodd" d="M323.82 191.889H320.57V192.976H323.82V191.889Z" fill="#3F4243"/>
<path fill-rule="evenodd" clip-rule="evenodd" d="M307.57 191.889H304.32V192.976H307.57V191.889Z" fill="#3F4243"/>
<path fill-rule="evenodd" clip-rule="evenodd" d="M320.57 188.627H317.32V189.714H320.57V188.627Z" fill="#3F4243"/>
<path fill-rule="evenodd" clip-rule="evenodd" d="M317.32 185.367H310.82V186.454H317.32V185.367Z" fill="#3F4243"/>
<path fill-rule="evenodd" clip-rule="evenodd" d="M310.82 188.627H307.57V189.714H310.82V188.627Z" fill="#3F4243"/>
<path fill-rule="evenodd" clip-rule="evenodd" d="M316.477 195.662H314.917V201.329H316.477V195.662Z" fill="#BDBEC2"/>
<path fill-rule="evenodd" clip-rule="evenodd" d="M319.041 195.662H317.481V201.329H319.041V195.662Z" fill="#BDBEC2"/>
<path fill-rule="evenodd" clip-rule="evenodd" d="M313.91 195.662H312.35V201.329H313.91V195.662Z" fill="#BDBEC2"/>
<path fill-rule="evenodd" clip-rule="evenodd" d="M311.346 195.662H309.786V201.329H311.346V195.662Z" fill="#BDBEC2"/>
<path fill-rule="evenodd" clip-rule="evenodd" d="M325.012 204.8C325.415 204.8 325.742 204.471 325.742 204.066V182.366C325.742 181.962 325.415 181.634 325.012 181.634H303.383C302.98 181.634 302.653 181.962 302.653 182.366V204.066C302.653 204.471 302.98 204.8 303.383 204.8H325.012ZM303.383 180.799H325.012C325.873 180.799 326.574 181.501 326.574 182.366V204.066C326.574 204.932 325.873 205.635 325.012 205.635H303.383C302.522 205.635 301.821 204.932 301.821 204.066V182.366C301.821 181.501 302.522 180.799 303.383 180.799V180.799Z" fill="#5B5B5D"/>
<path fill-rule="evenodd" clip-rule="evenodd" d="M329.383 181.216H351.012C351.643 181.216 352.158 181.734 352.158 182.366V204.066C352.158 204.699 351.643 205.217 351.012 205.217H329.383C328.753 205.217 328.237 204.699 328.237 204.066V182.366C328.237 181.734 328.753 181.216 329.383 181.216Z" fill="#EDCD63"/>
<path fill-rule="evenodd" clip-rule="evenodd" d="M340.338 202.758H349.82V191.888H346.57V188.627H343.32V185.367H340.338H336.82V188.627H333.57V191.888H330.32V202.758H340.338Z" fill="#5A5A5C"/>
<path fill-rule="evenodd" clip-rule="evenodd" d="M349.82 201.671H330.32V202.758H349.82V201.671Z" fill="#3F4243"/>
<path fill-rule="evenodd" clip-rule="evenodd" d="M349.82 191.889H346.57V192.976H349.82V191.889Z" fill="#3F4243"/>
<path fill-rule="evenodd" clip-rule="evenodd" d="M333.57 191.889H330.32V192.976H333.57V191.889Z" fill="#3F4243"/>
<path fill-rule="evenodd" clip-rule="evenodd" d="M346.57 188.627H343.32V189.714H346.57V188.627Z" fill="#3F4243"/>
<path fill-rule="evenodd" clip-rule="evenodd" d="M343.32 185.367H336.82V186.454H343.32V185.367Z" fill="#3F4243"/>
<path fill-rule="evenodd" clip-rule="evenodd" d="M336.82 188.627H333.57V189.714H336.82V188.627Z" fill="#3F4243"/>
<path fill-rule="evenodd" clip-rule="evenodd" d="M342.477 195.662H340.917V201.329H342.477V195.662Z" fill="#BDBEC2"/>
<path fill-rule="evenodd" clip-rule="evenodd" d="M345.041 195.662H343.481V201.329H345.041V195.662Z" fill="#BDBEC2"/>
<path fill-rule="evenodd" clip-rule="evenodd" d="M339.91 195.662H338.35V201.329H339.91V195.662Z" fill="#BDBEC2"/>
<path fill-rule="evenodd" clip-rule="evenodd" d="M337.346 195.662H335.786V201.329H337.346V195.662Z" fill="#BDBEC2"/>
<path fill-rule="evenodd" clip-rule="evenodd" d="M351.012 204.8C351.415 204.8 351.742 204.471 351.742 204.066V182.366C351.742 181.962 351.415 181.634 351.012 181.634H329.383C328.98 181.634 328.653 181.962 328.653 182.366V204.066C328.653 204.471 328.98 204.8 329.383 204.8H351.012ZM329.383 180.799H351.012C351.873 180.799 352.574 181.501 352.574 182.366V204.066C352.574 204.932 351.873 205.635 351.012 205.635H329.383C328.522 205.635 327.821 204.932 327.821 204.066V182.366C327.821 181.501 328.522 180.799 329.383 180.799V180.799Z" fill="#5B5B5D"/>
<path fill-rule="evenodd" clip-rule="evenodd" d="M518.697 200.402C523.392 200.402 527.197 196.597 527.197 191.902C527.197 187.208 523.392 183.402 518.697 183.402C514.003 183.402 510.197 187.208 510.197 191.902C510.197 196.597 514.003 200.402 518.697 200.402Z" fill="black"/>
<path fill-rule="evenodd" clip-rule="evenodd" d="M428.412 187.902C430.897 187.902 432.912 185.888 432.912 183.402C432.912 180.917 430.897 178.902 428.412 178.902C425.927 178.902 423.912 180.917 423.912 183.402C423.912 185.888 425.927 187.902 428.412 187.902Z" fill="black"/>
<path fill-rule="evenodd" clip-rule="evenodd" d="M449.697 187.902C452.183 187.902 454.197 185.888 454.197 183.402C454.197 180.917 452.183 178.902 449.697 178.902C447.212 178.902 445.197 180.917 445.197 183.402C445.197 185.888 447.212 187.902 449.697 187.902Z" fill="black"/>
<path fill-rule="evenodd" clip-rule="evenodd" d="M428.412 206.402C430.897 206.402 432.912 204.388 432.912 201.902C432.912 199.417 430.897 197.402 428.412 197.402C425.927 197.402 423.912 199.417 423.912 201.902C423.912 204.388 425.927 206.402 428.412 206.402Z" fill="black"/>
<path fill-rule="evenodd" clip-rule="evenodd" d="M448.947 204.152C450.19 204.152 451.197 203.145 451.197 201.902C451.197 200.66 450.19 199.652 448.947 199.652C447.705 199.652 446.697 200.66 446.697 201.902C446.697 203.145 447.705 204.152 448.947 204.152Z" fill="black"/>
<path fill-rule="evenodd" clip-rule="evenodd" d="M448.947 204.152C450.19 204.152 451.197 203.145 451.197 201.902C451.197 200.66 450.19 199.652 448.947 199.652C447.705 199.652 446.697 200.66 446.697 201.902C446.697 203.145 447.705 204.152 448.947 204.152Z" fill="black"/>
<g opacity="0.5">
<path fill-rule="evenodd" clip-rule="evenodd" d="M225.947 71.7568C227.19 71.7568 228.197 70.7495 228.197 69.5068C228.197 68.2642 227.19 67.2568 225.947 67.2568C224.705 67.2568 223.697 68.2642 223.697 69.5068C223.697 70.7495 224.705 71.7568 225.947 71.7568Z" fill="black"/>
<path fill-rule="evenodd" clip-rule="evenodd" d="M236.926 71.7568C238.168 71.7568 239.176 70.7495 239.176 69.5068C239.176 68.2642 238.168 67.2568 236.926 67.2568C235.683 67.2568 234.676 68.2642 234.676 69.5068C234.676 70.7495 235.683 71.7568 236.926 71.7568Z" fill="black"/>
<path fill-rule="evenodd" clip-rule="evenodd" d="M247.906 71.7568C249.149 71.7568 250.156 70.7495 250.156 69.5068C250.156 68.2642 249.149 67.2568 247.906 67.2568C246.664 67.2568 245.656 68.2642 245.656 69.5068C245.656 70.7495 246.664 71.7568 247.906 71.7568Z" fill="black"/>
<path fill-rule="evenodd" clip-rule="evenodd" d="M258.887 71.7568C260.129 71.7568 261.137 70.7495 261.137 69.5068C261.137 68.2642 260.129 67.2568 258.887 67.2568C257.644 67.2568 256.637 68.2642 256.637 69.5068C256.637 70.7495 257.644 71.7568 258.887 71.7568Z" fill="black"/>
<path fill-rule="evenodd" clip-rule="evenodd" d="M269.865 71.7568C271.108 71.7568 272.115 70.7495 272.115 69.5068C272.115 68.2642 271.108 67.2568 269.865 67.2568C268.623 67.2568 267.615 68.2642 267.615 69.5068C267.615 70.7495 268.623 71.7568 269.865 71.7568Z" fill="black"/>
<path fill-rule="evenodd" clip-rule="evenodd" d="M280.844 71.7568C282.086 71.7568 283.094 70.7495 283.094 69.5068C283.094 68.2642 282.086 67.2568 280.844 67.2568C279.601 67.2568 278.594 68.2642 278.594 69.5068C278.594 70.7495 279.601 71.7568 280.844 71.7568Z" fill="black"/>
<path fill-rule="evenodd" clip-rule="evenodd" d="M291.824 71.7568C293.067 71.7568 294.074 70.7495 294.074 69.5068C294.074 68.2642 293.067 67.2568 291.824 67.2568C290.582 67.2568 289.574 68.2642 289.574 69.5068C289.574 70.7495 290.582 71.7568 291.824 71.7568Z" fill="black"/>
<path fill-rule="evenodd" clip-rule="evenodd" d="M302.805 71.7568C304.047 71.7568 305.055 70.7495 305.055 69.5068C305.055 68.2642 304.047 67.2568 302.805 67.2568C301.562 67.2568 300.555 68.2642 300.555 69.5068C300.555 70.7495 301.562 71.7568 302.805 71.7568Z" fill="black"/>
<path fill-rule="evenodd" clip-rule="evenodd" d="M225.947 80.2568C227.19 80.2568 228.197 79.2495 228.197 78.0068C228.197 76.7642 227.19 75.7568 225.947 75.7568C224.705 75.7568 223.697 76.7642 223.697 78.0068C223.697 79.2495 224.705 80.2568 225.947 80.2568Z" fill="black"/>
<path fill-rule="evenodd" clip-rule="evenodd" d="M236.926 80.2568C238.168 80.2568 239.176 79.2495 239.176 78.0068C239.176 76.7642 238.168 75.7568 236.926 75.7568C235.683 75.7568 234.676 76.7642 234.676 78.0068C234.676 79.2495 235.683 80.2568 236.926 80.2568Z" fill="black"/>
<path fill-rule="evenodd" clip-rule="evenodd" d="M247.906 80.2568C249.149 80.2568 250.156 79.2495 250.156 78.0068C250.156 76.7642 249.149 75.7568 247.906 75.7568C246.664 75.7568 245.656 76.7642 245.656 78.0068C245.656 79.2495 246.664 80.2568 247.906 80.2568Z" fill="black"/>
<path fill-rule="evenodd" clip-rule="evenodd" d="M258.887 80.2568C260.129 80.2568 261.137 79.2495 261.137 78.0068C261.137 76.7642 260.129 75.7568 258.887 75.7568C257.644 75.7568 256.637 76.7642 256.637 78.0068C256.637 79.2495 257.644 80.2568 258.887 80.2568Z" fill="black"/>
<path fill-rule="evenodd" clip-rule="evenodd" d="M269.865 80.2568C271.108 80.2568 272.115 79.2495 272.115 78.0068C272.115 76.7642 271.108 75.7568 269.865 75.7568C268.623 75.7568 267.615 76.7642 267.615 78.0068C267.615 79.2495 268.623 80.2568 269.865 80.2568Z" fill="black"/>
<path fill-rule="evenodd" clip-rule="evenodd" d="M280.844 80.2568C282.086 80.2568 283.094 79.2495 283.094 78.0068C283.094 76.7642 282.086 75.7568 280.844 75.7568C279.601 75.7568 278.594 76.7642 278.594 78.0068C278.594 79.2495 279.601 80.2568 280.844 80.2568Z" fill="black"/>
<path fill-rule="evenodd" clip-rule="evenodd" d="M291.824 80.2568C293.067 80.2568 294.074 79.2495 294.074 78.0068C294.074 76.7642 293.067 75.7568 291.824 75.7568C290.582 75.7568 289.574 76.7642 289.574 78.0068C289.574 79.2495 290.582 80.2568 291.824 80.2568Z" fill="black"/>
<path fill-rule="evenodd" clip-rule="evenodd" d="M302.805 80.2568C304.047 80.2568 305.055 79.2495 305.055 78.0068C305.055 76.7642 304.047 75.7568 302.805 75.7568C301.562 75.7568 300.555 76.7642 300.555 78.0068C300.555 79.2495 301.562 80.2568 302.805 80.2568Z" fill="black"/>
<path fill-rule="evenodd" clip-rule="evenodd" d="M225.947 88.7568C227.19 88.7568 228.197 87.7495 228.197 86.5068C228.197 85.2642 227.19 84.2568 225.947 84.2568C224.705 84.2568 223.697 85.2642 223.697 86.5068C223.697 87.7495 224.705 88.7568 225.947 88.7568Z" fill="black"/>
<path fill-rule="evenodd" clip-rule="evenodd" d="M236.926 88.7568C238.168 88.7568 239.176 87.7495 239.176 86.5068C239.176 85.2642 238.168 84.2568 236.926 84.2568C235.683 84.2568 234.676 85.2642 234.676 86.5068C234.676 87.7495 235.683 88.7568 236.926 88.7568Z" fill="black"/>
<path fill-rule="evenodd" clip-rule="evenodd" d="M247.906 88.7568C249.149 88.7568 250.156 87.7495 250.156 86.5068C250.156 85.2642 249.149 84.2568 247.906 84.2568C246.664 84.2568 245.656 85.2642 245.656 86.5068C245.656 87.7495 246.664 88.7568 247.906 88.7568Z" fill="black"/>
<path fill-rule="evenodd" clip-rule="evenodd" d="M258.887 88.7568C260.129 88.7568 261.137 87.7495 261.137 86.5068C261.137 85.2642 260.129 84.2568 258.887 84.2568C257.644 84.2568 256.637 85.2642 256.637 86.5068C256.637 87.7495 257.644 88.7568 258.887 88.7568Z" fill="black"/>
<path fill-rule="evenodd" clip-rule="evenodd" d="M269.865 88.7568C271.108 88.7568 272.115 87.7495 272.115 86.5068C272.115 85.2642 271.108 84.2568 269.865 84.2568C268.623 84.2568 267.615 85.2642 267.615 86.5068C267.615 87.7495 268.623 88.7568 269.865 88.7568Z" fill="black"/>
<path fill-rule="evenodd" clip-rule="evenodd" d="M280.844 88.7568C282.086 88.7568 283.094 87.7495 283.094 86.5068C283.094 85.2642 282.086 84.2568 280.844 84.2568C279.601 84.2568 278.594 85.2642 278.594 86.5068C278.594 87.7495 279.601 88.7568 280.844 88.7568Z" fill="black"/>
<path fill-rule="evenodd" clip-rule="evenodd" d="M291.824 88.7568C293.067 88.7568 294.074 87.7495 294.074 86.5068C294.074 85.2642 293.067 84.2568 291.824 84.2568C290.582 84.2568 289.574 85.2642 289.574 86.5068C289.574 87.7495 290.582 88.7568 291.824 88.7568Z" fill="black"/>
<path fill-rule="evenodd" clip-rule="evenodd" d="M302.805 88.7568C304.047 88.7568 305.055 87.7495 305.055 86.5068C305.055 85.2642 304.047 84.2568 302.805 84.2568C301.562 84.2568 300.555 85.2642 300.555 86.5068C300.555 87.7495 301.562 88.7568 302.805 88.7568Z" fill="black"/>
<path fill-rule="evenodd" clip-rule="evenodd" d="M225.947 97.2568C227.19 97.2568 228.197 96.2495 228.197 95.0068C228.197 93.7642 227.19 92.7568 225.947 92.7568C224.705 92.7568 223.697 93.7642 223.697 95.0068C223.697 96.2495 224.705 97.2568 225.947 97.2568Z" fill="black"/>
<path fill-rule="evenodd" clip-rule="evenodd" d="M236.926 97.2568C238.168 97.2568 239.176 96.2495 239.176 95.0068C239.176 93.7642 238.168 92.7568 236.926 92.7568C235.683 92.7568 234.676 93.7642 234.676 95.0068C234.676 96.2495 235.683 97.2568 236.926 97.2568Z" fill="black"/>
<path fill-rule="evenodd" clip-rule="evenodd" d="M247.906 97.2568C249.149 97.2568 250.156 96.2495 250.156 95.0068C250.156 93.7642 249.149 92.7568 247.906 92.7568C246.664 92.7568 245.656 93.7642 245.656 95.0068C245.656 96.2495 246.664 97.2568 247.906 97.2568Z" fill="black"/>
<path fill-rule="evenodd" clip-rule="evenodd" d="M258.887 97.2568C260.129 97.2568 261.137 96.2495 261.137 95.0068C261.137 93.7642 260.129 92.7568 258.887 92.7568C257.644 92.7568 256.637 93.7642 256.637 95.0068C256.637 96.2495 257.644 97.2568 258.887 97.2568Z" fill="black"/>
<path fill-rule="evenodd" clip-rule="evenodd" d="M269.865 97.2568C271.108 97.2568 272.115 96.2495 272.115 95.0068C272.115 93.7642 271.108 92.7568 269.865 92.7568C268.623 92.7568 267.615 93.7642 267.615 95.0068C267.615 96.2495 268.623 97.2568 269.865 97.2568Z" fill="black"/>
<path fill-rule="evenodd" clip-rule="evenodd" d="M280.844 97.2568C282.086 97.2568 283.094 96.2495 283.094 95.0068C283.094 93.7642 282.086 92.7568 280.844 92.7568C279.601 92.7568 278.594 93.7642 278.594 95.0068C278.594 96.2495 279.601 97.2568 280.844 97.2568Z" fill="black"/>
<path fill-rule="evenodd" clip-rule="evenodd" d="M291.824 97.2568C293.067 97.2568 294.074 96.2495 294.074 95.0068C294.074 93.7642 293.067 92.7568 291.824 92.7568C290.582 92.7568 289.574 93.7642 289.574 95.0068C289.574 96.2495 290.582 97.2568 291.824 97.2568Z" fill="black"/>
<path fill-rule="evenodd" clip-rule="evenodd" d="M302.805 97.2568C304.047 97.2568 305.055 96.2495 305.055 95.0068C305.055 93.7642 304.047 92.7568 302.805 92.7568C301.562 92.7568 300.555 93.7642 300.555 95.0068C300.555 96.2495 301.562 97.2568 302.805 97.2568Z" fill="black"/>
<path fill-rule="evenodd" clip-rule="evenodd" d="M225.947 105.757C227.19 105.757 228.197 104.749 228.197 103.507C228.197 102.264 227.19 101.257 225.947 101.257C224.705 101.257 223.697 102.264 223.697 103.507C223.697 104.749 224.705 105.757 225.947 105.757Z" fill="black"/>
<path fill-rule="evenodd" clip-rule="evenodd" d="M236.926 105.757C238.168 105.757 239.176 104.749 239.176 103.507C239.176 102.264 238.168 101.257 236.926 101.257C235.683 101.257 234.676 102.264 234.676 103.507C234.676 104.749 235.683 105.757 236.926 105.757Z" fill="black"/>
<path fill-rule="evenodd" clip-rule="evenodd" d="M247.906 105.757C249.149 105.757 250.156 104.749 250.156 103.507C250.156 102.264 249.149 101.257 247.906 101.257C246.664 101.257 245.656 102.264 245.656 103.507C245.656 104.749 246.664 105.757 247.906 105.757Z" fill="black"/>
<path fill-rule="evenodd" clip-rule="evenodd" d="M258.887 105.757C260.129 105.757 261.137 104.749 261.137 103.507C261.137 102.264 260.129 101.257 258.887 101.257C257.644 101.257 256.637 102.264 256.637 103.507C256.637 104.749 257.644 105.757 258.887 105.757Z" fill="black"/>
<path fill-rule="evenodd" clip-rule="evenodd" d="M269.865 105.757C271.108 105.757 272.115 104.749 272.115 103.507C272.115 102.264 271.108 101.257 269.865 101.257C268.623 101.257 267.615 102.264 267.615 103.507C267.615 104.749 268.623 105.757 269.865 105.757Z" fill="black"/>
<path fill-rule="evenodd" clip-rule="evenodd" d="M280.844 105.757C282.086 105.757 283.094 104.749 283.094 103.507C283.094 102.264 282.086 101.257 280.844 101.257C279.601 101.257 278.594 102.264 278.594 103.507C278.594 104.749 279.601 105.757 280.844 105.757Z" fill="black"/>
<path fill-rule="evenodd" clip-rule="evenodd" d="M291.824 105.757C293.067 105.757 294.074 104.749 294.074 103.507C294.074 102.264 293.067 101.257 291.824 101.257C290.582 101.257 289.574 102.264 289.574 103.507C289.574 104.749 290.582 105.757 291.824 105.757Z" fill="black"/>
<path fill-rule="evenodd" clip-rule="evenodd" d="M302.805 105.757C304.047 105.757 305.055 104.749 305.055 103.507C305.055 102.264 304.047 101.257 302.805 101.257C301.562 101.257 300.555 102.264 300.555 103.507C300.555 104.749 301.562 105.757 302.805 105.757Z" fill="black"/>
<path fill-rule="evenodd" clip-rule="evenodd" d="M225.947 114.257C227.19 114.257 228.197 113.249 228.197 112.007C228.197 110.764 227.19 109.757 225.947 109.757C224.705 109.757 223.697 110.764 223.697 112.007C223.697 113.249 224.705 114.257 225.947 114.257Z" fill="black"/>
<path fill-rule="evenodd" clip-rule="evenodd" d="M236.926 114.257C238.168 114.257 239.176 113.249 239.176 112.007C239.176 110.764 238.168 109.757 236.926 109.757C235.683 109.757 234.676 110.764 234.676 112.007C234.676 113.249 235.683 114.257 236.926 114.257Z" fill="black"/>
<path fill-rule="evenodd" clip-rule="evenodd" d="M247.906 114.257C249.149 114.257 250.156 113.249 250.156 112.007C250.156 110.764 249.149 109.757 247.906 109.757C246.664 109.757 245.656 110.764 245.656 112.007C245.656 113.249 246.664 114.257 247.906 114.257Z" fill="black"/>
<path fill-rule="evenodd" clip-rule="evenodd" d="M258.887 114.257C260.129 114.257 261.137 113.249 261.137 112.007C261.137 110.764 260.129 109.757 258.887 109.757C257.644 109.757 256.637 110.764 256.637 112.007C256.637 113.249 257.644 114.257 258.887 114.257Z" fill="black"/>
<path fill-rule="evenodd" clip-rule="evenodd" d="M269.865 114.257C271.108 114.257 272.115 113.249 272.115 112.007C272.115 110.764 271.108 109.757 269.865 109.757C268.623 109.757 267.615 110.764 267.615 112.007C267.615 113.249 268.623 114.257 269.865 114.257Z" fill="black"/>
<path fill-rule="evenodd" clip-rule="evenodd" d="M280.844 114.257C282.086 114.257 283.094 113.249 283.094 112.007C283.094 110.764 282.086 109.757 280.844 109.757C279.601 109.757 278.594 110.764 278.594 112.007C278.594 113.249 279.601 114.257 280.844 114.257Z" fill="black"/>
<path fill-rule="evenodd" clip-rule="evenodd" d="M291.824 114.257C293.067 114.257 294.074 113.249 294.074 112.007C294.074 110.764 293.067 109.757 291.824 109.757C290.582 109.757 289.574 110.764 289.574 112.007C289.574 113.249 290.582 114.257 291.824 114.257Z" fill="black"/>
<path fill-rule="evenodd" clip-rule="evenodd" d="M302.805 114.257C304.047 114.257 305.055 113.249 305.055 112.007C305.055 110.764 304.047 109.757 302.805 109.757C301.562 109.757 300.555 110.764 300.555 112.007C300.555 113.249 301.562 114.257 302.805 114.257Z" fill="black"/>
<path fill-rule="evenodd" clip-rule="evenodd" d="M225.947 122.757C227.19 122.757 228.197 121.749 228.197 120.507C228.197 119.264 227.19 118.257 225.947 118.257C224.705 118.257 223.697 119.264 223.697 120.507C223.697 121.749 224.705 122.757 225.947 122.757Z" fill="black"/>
<path fill-rule="evenodd" clip-rule="evenodd" d="M236.926 122.757C238.168 122.757 239.176 121.749 239.176 120.507C239.176 119.264 238.168 118.257 236.926 118.257C235.683 118.257 234.676 119.264 234.676 120.507C234.676 121.749 235.683 122.757 236.926 122.757Z" fill="black"/>
<path fill-rule="evenodd" clip-rule="evenodd" d="M247.906 122.757C249.149 122.757 250.156 121.749 250.156 120.507C250.156 119.264 249.149 118.257 247.906 118.257C246.664 118.257 245.656 119.264 245.656 120.507C245.656 121.749 246.664 122.757 247.906 122.757Z" fill="black"/>
<path fill-rule="evenodd" clip-rule="evenodd" d="M258.887 122.757C260.129 122.757 261.137 121.749 261.137 120.507C261.137 119.264 260.129 118.257 258.887 118.257C257.644 118.257 256.637 119.264 256.637 120.507C256.637 121.749 257.644 122.757 258.887 122.757Z" fill="black"/>
<path fill-rule="evenodd" clip-rule="evenodd" d="M269.865 122.757C271.108 122.757 272.115 121.749 272.115 120.507C272.115 119.264 271.108 118.257 269.865 118.257C268.623 118.257 267.615 119.264 267.615 120.507C267.615 121.749 268.623 122.757 269.865 122.757Z" fill="black"/>
<path fill-rule="evenodd" clip-rule="evenodd" d="M280.844 122.757C282.086 122.757 283.094 121.749 283.094 120.507C283.094 119.264 282.086 118.257 280.844 118.257C279.601 118.257 278.594 119.264 278.594 120.507C278.594 121.749 279.601 122.757 280.844 122.757Z" fill="black"/>
<path fill-rule="evenodd" clip-rule="evenodd" d="M291.824 122.757C293.067 122.757 294.074 121.749 294.074 120.507C294.074 119.264 293.067 118.257 291.824 118.257C290.582 118.257 289.574 119.264 289.574 120.507C289.574 121.749 290.582 122.757 291.824 122.757Z" fill="black"/>
<path fill-rule="evenodd" clip-rule="evenodd" d="M302.805 122.757C304.047 122.757 305.055 121.749 305.055 120.507C305.055 119.264 304.047 118.257 302.805 118.257C301.562 118.257 300.555 119.264 300.555 120.507C300.555 121.749 301.562 122.757 302.805 122.757Z" fill="black"/>
<path fill-rule="evenodd" clip-rule="evenodd" d="M225.947 131.257C227.19 131.257 228.197 130.249 228.197 129.007C228.197 127.764 227.19 126.757 225.947 126.757C224.705 126.757 223.697 127.764 223.697 129.007C223.697 130.249 224.705 131.257 225.947 131.257Z" fill="black"/>
<path fill-rule="evenodd" clip-rule="evenodd" d="M236.926 131.257C238.168 131.257 239.176 130.249 239.176 129.007C239.176 127.764 238.168 126.757 236.926 126.757C235.683 126.757 234.676 127.764 234.676 129.007C234.676 130.249 235.683 131.257 236.926 131.257Z" fill="black"/>
<path fill-rule="evenodd" clip-rule="evenodd" d="M247.906 131.257C249.149 131.257 250.156 130.249 250.156 129.007C250.156 127.764 249.149 126.757 247.906 126.757C246.664 126.757 245.656 127.764 245.656 129.007C245.656 130.249 246.664 131.257 247.906 131.257Z" fill="black"/>
<path fill-rule="evenodd" clip-rule="evenodd" d="M258.887 131.257C260.129 131.257 261.137 130.249 261.137 129.007C261.137 127.764 260.129 126.757 258.887 126.757C257.644 126.757 256.637 127.764 256.637 129.007C256.637 130.249 257.644 131.257 258.887 131.257Z" fill="black"/>
<path fill-rule="evenodd" clip-rule="evenodd" d="M269.865 131.257C271.108 131.257 272.115 130.249 272.115 129.007C272.115 127.764 271.108 126.757 269.865 126.757C268.623 126.757 267.615 127.764 267.615 129.007C267.615 130.249 268.623 131.257 269.865 131.257Z" fill="black"/>
<path fill-rule="evenodd" clip-rule="evenodd" d="M280.844 131.257C282.086 131.257 283.094 130.249 283.094 129.007C283.094 127.764 282.086 126.757 280.844 126.757C279.601 126.757 278.594 127.764 278.594 129.007C278.594 130.249 279.601 131.257 280.844 131.257Z" fill="black"/>
<path fill-rule="evenodd" clip-rule="evenodd" d="M291.824 131.257C293.067 131.257 294.074 130.249 294.074 129.007C294.074 127.764 293.067 126.757 291.824 126.757C290.582 126.757 289.574 127.764 289.574 129.007C289.574 130.249 290.582 131.257 291.824 131.257Z" fill="black"/>
<path fill-rule="evenodd" clip-rule="evenodd" d="M302.805 131.257C304.047 131.257 305.055 130.249 305.055 129.007C305.055 127.764 304.047 126.757 302.805 126.757C301.562 126.757 300.555 127.764 300.555 129.007C300.555 130.249 301.562 131.257 302.805 131.257Z" fill="black"/>
</g>
<g opacity="0.5">
<path fill-rule="evenodd" clip-rule="evenodd" d="M407.947 71.7568C409.19 71.7568 410.197 70.7495 410.197 69.5068C410.197 68.2642 409.19 67.2568 407.947 67.2568C406.705 67.2568 405.697 68.2642 405.697 69.5068C405.697 70.7495 406.705 71.7568 407.947 71.7568Z" fill="black"/>
<path fill-rule="evenodd" clip-rule="evenodd" d="M418.926 71.7568C420.168 71.7568 421.176 70.7495 421.176 69.5068C421.176 68.2642 420.168 67.2568 418.926 67.2568C417.683 67.2568 416.676 68.2642 416.676 69.5068C416.676 70.7495 417.683 71.7568 418.926 71.7568Z" fill="black"/>
<path fill-rule="evenodd" clip-rule="evenodd" d="M429.906 71.7568C431.149 71.7568 432.156 70.7495 432.156 69.5068C432.156 68.2642 431.149 67.2568 429.906 67.2568C428.664 67.2568 427.656 68.2642 427.656 69.5068C427.656 70.7495 428.664 71.7568 429.906 71.7568Z" fill="black"/>
<path fill-rule="evenodd" clip-rule="evenodd" d="M440.887 71.7568C442.129 71.7568 443.137 70.7495 443.137 69.5068C443.137 68.2642 442.129 67.2568 440.887 67.2568C439.644 67.2568 438.637 68.2642 438.637 69.5068C438.637 70.7495 439.644 71.7568 440.887 71.7568Z" fill="black"/>
<path fill-rule="evenodd" clip-rule="evenodd" d="M451.865 71.7568C453.108 71.7568 454.115 70.7495 454.115 69.5068C454.115 68.2642 453.108 67.2568 451.865 67.2568C450.623 67.2568 449.615 68.2642 449.615 69.5068C449.615 70.7495 450.623 71.7568 451.865 71.7568Z" fill="black"/>
<path fill-rule="evenodd" clip-rule="evenodd" d="M462.844 71.7568C464.086 71.7568 465.094 70.7495 465.094 69.5068C465.094 68.2642 464.086 67.2568 462.844 67.2568C461.601 67.2568 460.594 68.2642 460.594 69.5068C460.594 70.7495 461.601 71.7568 462.844 71.7568Z" fill="black"/>
<path fill-rule="evenodd" clip-rule="evenodd" d="M473.824 71.7568C475.067 71.7568 476.074 70.7495 476.074 69.5068C476.074 68.2642 475.067 67.2568 473.824 67.2568C472.582 67.2568 471.574 68.2642 471.574 69.5068C471.574 70.7495 472.582 71.7568 473.824 71.7568Z" fill="black"/>
<path fill-rule="evenodd" clip-rule="evenodd" d="M484.805 71.7568C486.047 71.7568 487.055 70.7495 487.055 69.5068C487.055 68.2642 486.047 67.2568 484.805 67.2568C483.562 67.2568 482.555 68.2642 482.555 69.5068C482.555 70.7495 483.562 71.7568 484.805 71.7568Z" fill="black"/>
<path fill-rule="evenodd" clip-rule="evenodd" d="M407.947 80.2568C409.19 80.2568 410.197 79.2495 410.197 78.0068C410.197 76.7642 409.19 75.7568 407.947 75.7568C406.705 75.7568 405.697 76.7642 405.697 78.0068C405.697 79.2495 406.705 80.2568 407.947 80.2568Z" fill="black"/>
<path fill-rule="evenodd" clip-rule="evenodd" d="M418.926 80.2568C420.168 80.2568 421.176 79.2495 421.176 78.0068C421.176 76.7642 420.168 75.7568 418.926 75.7568C417.683 75.7568 416.676 76.7642 416.676 78.0068C416.676 79.2495 417.683 80.2568 418.926 80.2568Z" fill="black"/>
<path fill-rule="evenodd" clip-rule="evenodd" d="M429.906 80.2568C431.149 80.2568 432.156 79.2495 432.156 78.0068C432.156 76.7642 431.149 75.7568 429.906 75.7568C428.664 75.7568 427.656 76.7642 427.656 78.0068C427.656 79.2495 428.664 80.2568 429.906 80.2568Z" fill="black"/>
<path fill-rule="evenodd" clip-rule="evenodd" d="M440.887 80.2568C442.129 80.2568 443.137 79.2495 443.137 78.0068C443.137 76.7642 442.129 75.7568 440.887 75.7568C439.644 75.7568 438.637 76.7642 438.637 78.0068C438.637 79.2495 439.644 80.2568 440.887 80.2568Z" fill="black"/>
<path fill-rule="evenodd" clip-rule="evenodd" d="M451.865 80.2568C453.108 80.2568 454.115 79.2495 454.115 78.0068C454.115 76.7642 453.108 75.7568 451.865 75.7568C450.623 75.7568 449.615 76.7642 449.615 78.0068C449.615 79.2495 450.623 80.2568 451.865 80.2568Z" fill="black"/>
<path fill-rule="evenodd" clip-rule="evenodd" d="M462.844 80.2568C464.086 80.2568 465.094 79.2495 465.094 78.0068C465.094 76.7642 464.086 75.7568 462.844 75.7568C461.601 75.7568 460.594 76.7642 460.594 78.0068C460.594 79.2495 461.601 80.2568 462.844 80.2568Z" fill="black"/>
<path fill-rule="evenodd" clip-rule="evenodd" d="M473.824 80.2568C475.067 80.2568 476.074 79.2495 476.074 78.0068C476.074 76.7642 475.067 75.7568 473.824 75.7568C472.582 75.7568 471.574 76.7642 471.574 78.0068C471.574 79.2495 472.582 80.2568 473.824 80.2568Z" fill="black"/>
<path fill-rule="evenodd" clip-rule="evenodd" d="M484.805 80.2568C486.047 80.2568 487.055 79.2495 487.055 78.0068C487.055 76.7642 486.047 75.7568 484.805 75.7568C483.562 75.7568 482.555 76.7642 482.555 78.0068C482.555 79.2495 483.562 80.2568 484.805 80.2568Z" fill="black"/>
<path fill-rule="evenodd" clip-rule="evenodd" d="M407.947 88.7568C409.19 88.7568 410.197 87.7495 410.197 86.5068C410.197 85.2642 409.19 84.2568 407.947 84.2568C406.705 84.2568 405.697 85.2642 405.697 86.5068C405.697 87.7495 406.705 88.7568 407.947 88.7568Z" fill="black"/>
<path fill-rule="evenodd" clip-rule="evenodd" d="M418.926 88.7568C420.168 88.7568 421.176 87.7495 421.176 86.5068C421.176 85.2642 420.168 84.2568 418.926 84.2568C417.683 84.2568 416.676 85.2642 416.676 86.5068C416.676 87.7495 417.683 88.7568 418.926 88.7568Z" fill="black"/>
<path fill-rule="evenodd" clip-rule="evenodd" d="M429.906 88.7568C431.149 88.7568 432.156 87.7495 432.156 86.5068C432.156 85.2642 431.149 84.2568 429.906 84.2568C428.664 84.2568 427.656 85.2642 427.656 86.5068C427.656 87.7495 428.664 88.7568 429.906 88.7568Z" fill="black"/>
<path fill-rule="evenodd" clip-rule="evenodd" d="M440.887 88.7568C442.129 88.7568 443.137 87.7495 443.137 86.5068C443.137 85.2642 442.129 84.2568 440.887 84.2568C439.644 84.2568 438.637 85.2642 438.637 86.5068C438.637 87.7495 439.644 88.7568 440.887 88.7568Z" fill="black"/>
<path fill-rule="evenodd" clip-rule="evenodd" d="M451.865 88.7568C453.108 88.7568 454.115 87.7495 454.115 86.5068C454.115 85.2642 453.108 84.2568 451.865 84.2568C450.623 84.2568 449.615 85.2642 449.615 86.5068C449.615 87.7495 450.623 88.7568 451.865 88.7568Z" fill="black"/>
<path fill-rule="evenodd" clip-rule="evenodd" d="M462.844 88.7568C464.086 88.7568 465.094 87.7495 465.094 86.5068C465.094 85.2642 464.086 84.2568 462.844 84.2568C461.601 84.2568 460.594 85.2642 460.594 86.5068C460.594 87.7495 461.601 88.7568 462.844 88.7568Z" fill="black"/>
<path fill-rule="evenodd" clip-rule="evenodd" d="M473.824 88.7568C475.067 88.7568 476.074 87.7495 476.074 86.5068C476.074 85.2642 475.067 84.2568 473.824 84.2568C472.582 84.2568 471.574 85.2642 471.574 86.5068C471.574 87.7495 472.582 88.7568 473.824 88.7568Z" fill="black"/>
<path fill-rule="evenodd" clip-rule="evenodd" d="M484.805 88.7568C486.047 88.7568 487.055 87.7495 487.055 86.5068C487.055 85.2642 486.047 84.2568 484.805 84.2568C483.562 84.2568 482.555 85.2642 482.555 86.5068C482.555 87.7495 483.562 88.7568 484.805 88.7568Z" fill="black"/>
<path fill-rule="evenodd" clip-rule="evenodd" d="M407.947 97.2568C409.19 97.2568 410.197 96.2495 410.197 95.0068C410.197 93.7642 409.19 92.7568 407.947 92.7568C406.705 92.7568 405.697 93.7642 405.697 95.0068C405.697 96.2495 406.705 97.2568 407.947 97.2568Z" fill="black"/>
<path fill-rule="evenodd" clip-rule="evenodd" d="M418.926 97.2568C420.168 97.2568 421.176 96.2495 421.176 95.0068C421.176 93.7642 420.168 92.7568 418.926 92.7568C417.683 92.7568 416.676 93.7642 416.676 95.0068C416.676 96.2495 417.683 97.2568 418.926 97.2568Z" fill="black"/>
<path fill-rule="evenodd" clip-rule="evenodd" d="M429.906 97.2568C431.149 97.2568 432.156 96.2495 432.156 95.0068C432.156 93.7642 431.149 92.7568 429.906 92.7568C428.664 92.7568 427.656 93.7642 427.656 95.0068C427.656 96.2495 428.664 97.2568 429.906 97.2568Z" fill="black"/>
<path fill-rule="evenodd" clip-rule="evenodd" d="M440.887 97.2568C442.129 97.2568 443.137 96.2495 443.137 95.0068C443.137 93.7642 442.129 92.7568 440.887 92.7568C439.644 92.7568 438.637 93.7642 438.637 95.0068C438.637 96.2495 439.644 97.2568 440.887 97.2568Z" fill="black"/>
<path fill-rule="evenodd" clip-rule="evenodd" d="M451.865 97.2568C453.108 97.2568 454.115 96.2495 454.115 95.0068C454.115 93.7642 453.108 92.7568 451.865 92.7568C450.623 92.7568 449.615 93.7642 449.615 95.0068C449.615 96.2495 450.623 97.2568 451.865 97.2568Z" fill="black"/>
<path fill-rule="evenodd" clip-rule="evenodd" d="M462.844 97.2568C464.086 97.2568 465.094 96.2495 465.094 95.0068C465.094 93.7642 464.086 92.7568 462.844 92.7568C461.601 92.7568 460.594 93.7642 460.594 95.0068C460.594 96.2495 461.601 97.2568 462.844 97.2568Z" fill="black"/>
<path fill-rule="evenodd" clip-rule="evenodd" d="M473.824 97.2568C475.067 97.2568 476.074 96.2495 476.074 95.0068C476.074 93.7642 475.067 92.7568 473.824 92.7568C472.582 92.7568 471.574 93.7642 471.574 95.0068C471.574 96.2495 472.582 97.2568 473.824 97.2568Z" fill="black"/>
<path fill-rule="evenodd" clip-rule="evenodd" d="M484.805 97.2568C486.047 97.2568 487.055 96.2495 487.055 95.0068C487.055 93.7642 486.047 92.7568 484.805 92.7568C483.562 92.7568 482.555 93.7642 482.555 95.0068C482.555 96.2495 483.562 97.2568 484.805 97.2568Z" fill="black"/>
<path fill-rule="evenodd" clip-rule="evenodd" d="M407.947 105.757C409.19 105.757 410.197 104.749 410.197 103.507C410.197 102.264 409.19 101.257 407.947 101.257C406.705 101.257 405.697 102.264 405.697 103.507C405.697 104.749 406.705 105.757 407.947 105.757Z" fill="black"/>
<path fill-rule="evenodd" clip-rule="evenodd" d="M418.926 105.757C420.168 105.757 421.176 104.749 421.176 103.507C421.176 102.264 420.168 101.257 418.926 101.257C417.683 101.257 416.676 102.264 416.676 103.507C416.676 104.749 417.683 105.757 418.926 105.757Z" fill="black"/>
<path fill-rule="evenodd" clip-rule="evenodd" d="M429.906 105.757C431.149 105.757 432.156 104.749 432.156 103.507C432.156 102.264 431.149 101.257 429.906 101.257C428.664 101.257 427.656 102.264 427.656 103.507C427.656 104.749 428.664 105.757 429.906 105.757Z" fill="black"/>
<path fill-rule="evenodd" clip-rule="evenodd" d="M440.887 105.757C442.129 105.757 443.137 104.749 443.137 103.507C443.137 102.264 442.129 101.257 440.887 101.257C439.644 101.257 438.637 102.264 438.637 103.507C438.637 104.749 439.644 105.757 440.887 105.757Z" fill="black"/>
<path fill-rule="evenodd" clip-rule="evenodd" d="M451.865 105.757C453.108 105.757 454.115 104.749 454.115 103.507C454.115 102.264 453.108 101.257 451.865 101.257C450.623 101.257 449.615 102.264 449.615 103.507C449.615 104.749 450.623 105.757 451.865 105.757Z" fill="black"/>
<path fill-rule="evenodd" clip-rule="evenodd" d="M462.844 105.757C464.086 105.757 465.094 104.749 465.094 103.507C465.094 102.264 464.086 101.257 462.844 101.257C461.601 101.257 460.594 102.264 460.594 103.507C460.594 104.749 461.601 105.757 462.844 105.757Z" fill="black"/>
<path fill-rule="evenodd" clip-rule="evenodd" d="M473.824 105.757C475.067 105.757 476.074 104.749 476.074 103.507C476.074 102.264 475.067 101.257 473.824 101.257C472.582 101.257 471.574 102.264 471.574 103.507C471.574 104.749 472.582 105.757 473.824 105.757Z" fill="black"/>
<path fill-rule="evenodd" clip-rule="evenodd" d="M484.805 105.757C486.047 105.757 487.055 104.749 487.055 103.507C487.055 102.264 486.047 101.257 484.805 101.257C483.562 101.257 482.555 102.264 482.555 103.507C482.555 104.749 483.562 105.757 484.805 105.757Z" fill="black"/>
<path fill-rule="evenodd" clip-rule="evenodd" d="M407.947 114.257C409.19 114.257 410.197 113.249 410.197 112.007C410.197 110.764 409.19 109.757 407.947 109.757C406.705 109.757 405.697 110.764 405.697 112.007C405.697 113.249 406.705 114.257 407.947 114.257Z" fill="black"/>
<path fill-rule="evenodd" clip-rule="evenodd" d="M418.926 114.257C420.168 114.257 421.176 113.249 421.176 112.007C421.176 110.764 420.168 109.757 418.926 109.757C417.683 109.757 416.676 110.764 416.676 112.007C416.676 113.249 417.683 114.257 418.926 114.257Z" fill="black"/>
<path fill-rule="evenodd" clip-rule="evenodd" d="M429.906 114.257C431.149 114.257 432.156 113.249 432.156 112.007C432.156 110.764 431.149 109.757 429.906 109.757C428.664 109.757 427.656 110.764 427.656 112.007C427.656 113.249 428.664 114.257 429.906 114.257Z" fill="black"/>
<path fill-rule="evenodd" clip-rule="evenodd" d="M440.887 114.257C442.129 114.257 443.137 113.249 443.137 112.007C443.137 110.764 442.129 109.757 440.887 109.757C439.644 109.757 438.637 110.764 438.637 112.007C438.637 113.249 439.644 114.257 440.887 114.257Z" fill="black"/>
<path fill-rule="evenodd" clip-rule="evenodd" d="M451.865 114.257C453.108 114.257 454.115 113.249 454.115 112.007C454.115 110.764 453.108 109.757 451.865 109.757C450.623 109.757 449.615 110.764 449.615 112.007C449.615 113.249 450.623 114.257 451.865 114.257Z" fill="black"/>
<path fill-rule="evenodd" clip-rule="evenodd" d="M462.844 114.257C464.086 114.257 465.094 113.249 465.094 112.007C465.094 110.764 464.086 109.757 462.844 109.757C461.601 109.757 460.594 110.764 460.594 112.007C460.594 113.249 461.601 114.257 462.844 114.257Z" fill="black"/>
<path fill-rule="evenodd" clip-rule="evenodd" d="M473.824 114.257C475.067 114.257 476.074 113.249 476.074 112.007C476.074 110.764 475.067 109.757 473.824 109.757C472.582 109.757 471.574 110.764 471.574 112.007C471.574 113.249 472.582 114.257 473.824 114.257Z" fill="black"/>
<path fill-rule="evenodd" clip-rule="evenodd" d="M484.805 114.257C486.047 114.257 487.055 113.249 487.055 112.007C487.055 110.764 486.047 109.757 484.805 109.757C483.562 109.757 482.555 110.764 482.555 112.007C482.555 113.249 483.562 114.257 484.805 114.257Z" fill="black"/>
<path fill-rule="evenodd" clip-rule="evenodd" d="M407.947 122.757C409.19 122.757 410.197 121.749 410.197 120.507C410.197 119.264 409.19 118.257 407.947 118.257C406.705 118.257 405.697 119.264 405.697 120.507C405.697 121.749 406.705 122.757 407.947 122.757Z" fill="black"/>
<path fill-rule="evenodd" clip-rule="evenodd" d="M418.926 122.757C420.168 122.757 421.176 121.749 421.176 120.507C421.176 119.264 420.168 118.257 418.926 118.257C417.683 118.257 416.676 119.264 416.676 120.507C416.676 121.749 417.683 122.757 418.926 122.757Z" fill="black"/>
<path fill-rule="evenodd" clip-rule="evenodd" d="M429.906 122.757C431.149 122.757 432.156 121.749 432.156 120.507C432.156 119.264 431.149 118.257 429.906 118.257C428.664 118.257 427.656 119.264 427.656 120.507C427.656 121.749 428.664 122.757 429.906 122.757Z" fill="black"/>
<path fill-rule="evenodd" clip-rule="evenodd" d="M440.887 122.757C442.129 122.757 443.137 121.749 443.137 120.507C443.137 119.264 442.129 118.257 440.887 118.257C439.644 118.257 438.637 119.264 438.637 120.507C438.637 121.749 439.644 122.757 440.887 122.757Z" fill="black"/>
<path fill-rule="evenodd" clip-rule="evenodd" d="M451.865 122.757C453.108 122.757 454.115 121.749 454.115 120.507C454.115 119.264 453.108 118.257 451.865 118.257C450.623 118.257 449.615 119.264 449.615 120.507C449.615 121.749 450.623 122.757 451.865 122.757Z" fill="black"/>
<path fill-rule="evenodd" clip-rule="evenodd" d="M462.844 122.757C464.086 122.757 465.094 121.749 465.094 120.507C465.094 119.264 464.086 118.257 462.844 118.257C461.601 118.257 460.594 119.264 460.594 120.507C460.594 121.749 461.601 122.757 462.844 122.757Z" fill="black"/>
<path fill-rule="evenodd" clip-rule="evenodd" d="M473.824 122.757C475.067 122.757 476.074 121.749 476.074 120.507C476.074 119.264 475.067 118.257 473.824 118.257C472.582 118.257 471.574 119.264 471.574 120.507C471.574 121.749 472.582 122.757 473.824 122.757Z" fill="black"/>
<path fill-rule="evenodd" clip-rule="evenodd" d="M484.805 122.757C486.047 122.757 487.055 121.749 487.055 120.507C487.055 119.264 486.047 118.257 484.805 118.257C483.562 118.257 482.555 119.264 482.555 120.507C482.555 121.749 483.562 122.757 484.805 122.757Z" fill="black"/>
<path fill-rule="evenodd" clip-rule="evenodd" d="M407.947 131.257C409.19 131.257 410.197 130.249 410.197 129.007C410.197 127.764 409.19 126.757 407.947 126.757C406.705 126.757 405.697 127.764 405.697 129.007C405.697 130.249 406.705 131.257 407.947 131.257Z" fill="black"/>
<path fill-rule="evenodd" clip-rule="evenodd" d="M418.926 131.257C420.168 131.257 421.176 130.249 421.176 129.007C421.176 127.764 420.168 126.757 418.926 126.757C417.683 126.757 416.676 127.764 416.676 129.007C416.676 130.249 417.683 131.257 418.926 131.257Z" fill="black"/>
<path fill-rule="evenodd" clip-rule="evenodd" d="M429.906 131.257C431.149 131.257 432.156 130.249 432.156 129.007C432.156 127.764 431.149 126.757 429.906 126.757C428.664 126.757 427.656 127.764 427.656 129.007C427.656 130.249 428.664 131.257 429.906 131.257Z" fill="black"/>
<path fill-rule="evenodd" clip-rule="evenodd" d="M440.887 131.257C442.129 131.257 443.137 130.249 443.137 129.007C443.137 127.764 442.129 126.757 440.887 126.757C439.644 126.757 438.637 127.764 438.637 129.007C438.637 130.249 439.644 131.257 440.887 131.257Z" fill="black"/>
<path fill-rule="evenodd" clip-rule="evenodd" d="M451.865 131.257C453.108 131.257 454.115 130.249 454.115 129.007C454.115 127.764 453.108 126.757 451.865 126.757C450.623 126.757 449.615 127.764 449.615 129.007C449.615 130.249 450.623 131.257 451.865 131.257Z" fill="black"/>
<path fill-rule="evenodd" clip-rule="evenodd" d="M462.844 131.257C464.086 131.257 465.094 130.249 465.094 129.007C465.094 127.764 464.086 126.757 462.844 126.757C461.601 126.757 460.594 127.764 460.594 129.007C460.594 130.249 461.601 131.257 462.844 131.257Z" fill="black"/>
<path fill-rule="evenodd" clip-rule="evenodd" d="M473.824 131.257C475.067 131.257 476.074 130.249 476.074 129.007C476.074 127.764 475.067 126.757 473.824 126.757C472.582 126.757 471.574 127.764 471.574 129.007C471.574 130.249 472.582 131.257 473.824 131.257Z" fill="black"/>
<path fill-rule="evenodd" clip-rule="evenodd" d="M484.805 131.257C486.047 131.257 487.055 130.249 487.055 129.007C487.055 127.764 486.047 126.757 484.805 126.757C483.562 126.757 482.555 127.764 482.555 129.007C482.555 130.249 483.562 131.257 484.805 131.257Z" fill="black"/>
</g>
<path fill-rule="evenodd" clip-rule="evenodd" d="M324.197 76.2168H391.197V118.814L386.896 123.257L324.197 123.217V76.2168Z" fill="#9B9B9B"/>
<path fill-rule="evenodd" clip-rule="evenodd" d="M485.197 200.402C489.892 200.402 493.697 196.597 493.697 191.902C493.697 187.208 489.892 183.402 485.197 183.402C480.503 183.402 476.697 187.208 476.697 191.902C476.697 196.597 480.503 200.402 485.197 200.402Z" fill="#AFAFAF"/>
<path fill-rule="evenodd" clip-rule="evenodd" d="M485.197 197.402C488.235 197.402 490.697 194.94 490.697 191.902C490.697 188.865 488.235 186.402 485.197 186.402C482.16 186.402 479.697 188.865 479.697 191.902C479.697 194.94 482.16 197.402 485.197 197.402Z" fill="black"/>
<path d="M193.76 172.059V171.317H190.253V172.059H191.632V176.217H192.381V172.059H193.76ZM195.012 172.059H197.154V171.317H194.263V176.217H197.154V175.475H195.012V174.117H197.154V173.375H195.012V172.059ZM198.01 176.217H200.901V175.475H198.759V171.317H198.01V176.217ZM202.121 171.317L201.183 172.122V173.039L202.121 172.234V176.217H202.856V171.317H202.121Z" fill="white"/>
<path opacity="0.3" d="M215.604 171.849V176.217H216.143V171.849H217.452V171.317H214.295V171.849H215.604ZM218.578 174.005H220.825V173.473H218.578V171.849H220.825V171.317H218.039V176.217H220.825V175.685H218.578V174.005ZM221.764 176.217H224.55V175.685H222.303V171.317H221.764V176.217ZM224.924 172.661V172.787H225.449V172.654C225.449 172.355 225.538 172.131 225.715 171.982C225.897 171.828 226.105 171.751 226.338 171.751C226.572 171.751 226.777 171.828 226.954 171.982C227.136 172.131 227.227 172.348 227.227 172.633C227.227 172.847 227.171 173.053 227.059 173.249C226.952 173.445 226.821 173.627 226.667 173.795L224.924 175.713V176.217H227.752V175.713H225.603L227.038 174.131C227.253 173.897 227.426 173.664 227.556 173.431C227.687 173.197 227.752 172.934 227.752 172.64C227.752 172.126 227.601 171.767 227.297 171.562C226.994 171.352 226.674 171.247 226.338 171.247C226.002 171.247 225.683 171.352 225.379 171.562C225.076 171.767 224.924 172.133 224.924 172.661Z" fill="white"/>
<path opacity="0.3" d="M255.757 176.217H258.543V175.685H256.296V171.317H255.757V176.217ZM261.899 176.217H262.445L260.87 171.317H260.254L258.679 176.217H259.225L259.673 174.838H261.451L261.899 176.217ZM261.29 174.341H259.834L260.562 172.066L261.29 174.341ZM266.202 171.317H265.663V175.174L263.577 171.317H263.038V176.217H263.577V172.36L265.663 176.217H266.202V171.317ZM267.963 171.317L267.025 172.122V172.787L267.963 171.982V176.217H268.488V171.317H267.963Z" fill="white"/>
<path opacity="0.3" d="M281.757 176.217H284.543V175.685H282.296V171.317H281.757V176.217ZM287.899 176.217H288.445L286.87 171.317H286.254L284.679 176.217H285.225L285.673 174.838H287.451L287.899 176.217ZM287.29 174.341H285.834L286.562 172.066L287.29 174.341ZM292.202 171.317H291.663V175.174L289.577 171.317H289.038V176.217H289.577V172.36L291.663 176.217H292.202V171.317ZM293.032 172.661V172.787H293.557V172.654C293.557 172.355 293.646 172.131 293.823 171.982C294.005 171.828 294.213 171.751 294.446 171.751C294.679 171.751 294.885 171.828 295.062 171.982C295.244 172.131 295.335 172.348 295.335 172.633C295.335 172.847 295.279 173.053 295.167 173.249C295.06 173.445 294.929 173.627 294.775 173.795L293.032 175.713V176.217H295.86V175.713H293.711L295.146 174.131C295.361 173.897 295.533 173.664 295.664 173.431C295.795 173.197 295.86 172.934 295.86 172.64C295.86 172.126 295.708 171.767 295.405 171.562C295.102 171.352 294.782 171.247 294.446 171.247C294.11 171.247 293.79 171.352 293.487 171.562C293.184 171.767 293.032 172.133 293.032 172.661Z" fill="white"/>
<path opacity="0.3" d="M305.757 176.217H308.543V175.685H306.296V171.317H305.757V176.217ZM311.899 176.217H312.445L310.87 171.317H310.254L308.679 176.217H309.225L309.673 174.838H311.451L311.899 176.217ZM311.29 174.341H309.834L310.562 172.066L311.29 174.341ZM316.202 171.317H315.663V175.174L313.577 171.317H313.038V176.217H313.577V172.36L315.663 176.217H316.202V171.317ZM317.025 174.873V174.817H317.55V174.88C317.55 175.178 317.643 175.405 317.83 175.559C318.017 175.708 318.231 175.783 318.474 175.783C318.726 175.783 318.931 175.708 319.09 175.559C319.249 175.405 319.328 175.19 319.328 174.915C319.328 174.681 319.251 174.471 319.097 174.285C318.948 174.098 318.74 174.005 318.474 174.005H318.124V173.501H318.474C318.712 173.501 318.913 173.424 319.076 173.27C319.244 173.116 319.328 172.899 319.328 172.619C319.328 172.348 319.239 172.136 319.062 171.982C318.885 171.828 318.677 171.751 318.439 171.751C318.206 171.751 317.998 171.828 317.816 171.982C317.639 172.131 317.55 172.355 317.55 172.654V172.717H317.025V172.661C317.025 172.133 317.177 171.767 317.48 171.562C317.783 171.352 318.103 171.247 318.439 171.247C318.789 171.247 319.111 171.354 319.405 171.569C319.704 171.783 319.853 172.133 319.853 172.619C319.853 172.889 319.795 173.125 319.678 173.326C319.561 173.526 319.421 173.669 319.258 173.753C319.421 173.841 319.561 173.988 319.678 174.194C319.795 174.394 319.853 174.635 319.853 174.915C319.853 175.4 319.706 175.75 319.412 175.965C319.123 176.179 318.81 176.287 318.474 176.287C318.129 176.287 317.8 176.184 317.487 175.979C317.179 175.769 317.025 175.4 317.025 174.873Z" fill="white"/>
<path opacity="0.3" d="M333.757 176.217H336.543V175.685H334.296V171.317H333.757V176.217ZM339.899 176.217H340.445L338.87 171.317H338.254L336.679 176.217H337.225L337.673 174.838H339.451L339.899 176.217ZM339.29 174.341H337.834L338.562 172.066L339.29 174.341ZM344.202 171.317H343.663V175.174L341.577 171.317H341.038V176.217H341.577V172.36L343.663 176.217H344.202V171.317ZM348.084 174.894V174.404H347.573V171.317H347.048L344.801 174.404V174.894H347.048V176.217H347.573V174.894H348.084ZM345.403 174.404L347.048 172.15V174.404H345.403Z" fill="white"/>
</g>
<rect x="256.697" y="38.8389" width="8.37793" height="8.37793" fill="#323232"/>
<rect x="239.697" y="50.7168" width="8.37793" height="8.37793" fill="#323232"/>
<rect x="256.697" y="136.717" width="8.37793" height="8.37793" fill="#323232"/>
<rect x="239.697" y="148.595" width="8.37793" height="8.37793" fill="#323232"/>
<rect x="176.697" y="95.2168" width="8.37793" height="8.37793" fill="#323232"/>
<rect x="526.199" y="95.2168" width="8.37793" height="8.37793" fill="#323232"/>
<rect x="353.199" y="50.7168" width="8.37793" height="8.37793" fill="#323232"/>
<rect x="459.699" y="50.7168" width="8.37793" height="8.37793" fill="#323232"/>
<rect x="338.199" y="38.8389" width="8.37793" height="8.37793" fill="#323232"/>
<rect x="338.199" y="148.595" width="8.37793" height="8.37793" fill="#323232"/>
<rect x="353.199" y="137.717" width="8.37793" height="8.37793" fill="#323232"/>
<rect x="459.699" y="137.717" width="8.37793" height="8.37793" fill="#323232"/>
<rect x="440.699" y="38.8389" width="8.37793" height="8.37793" fill="#323232"/>
<path fill-rule="evenodd" clip-rule="evenodd" d="M193.162 215.183C186.265 228.446 179.692 241.085 172.445 255.019C177.648 253.226 181.674 251.838 186.638 250.127C182.918 270.408 171.965 284.307 154.047 293.662C175.743 294.694 194.811 278.043 206.302 248.356C210.676 248.918 215.188 249.498 220.848 250.225C215.755 243.739 211.289 238.023 206.792 232.331C202.379 226.747 197.936 221.186 193.162 215.183" fill="#00C0D2"/>
<path d="M110.072 306.38C110.072 306.38 87.9629 310.103 74.083 309.111C60.203 308.12 45.2441 305.766 20.9027 287.778" stroke="#A2A2A2" stroke-width="8"/>
<path fill-rule="evenodd" clip-rule="evenodd" d="M112.821 317.391C113.223 318.579 114.661 319.248 116.016 318.878L147.965 310.223C149.32 309.853 150.1 308.578 149.698 307.39L142.182 285.189C141.78 284.002 140.342 283.332 138.987 283.703L107.037 292.358C105.683 292.728 104.904 294.002 105.305 295.191L112.821 317.391Z" fill="#F2F3F5"/>
<path fill-rule="evenodd" clip-rule="evenodd" d="M149.527 307.525C149.628 308.416 148.891 309.534 147.664 309.87L116.045 318.961C114.818 319.296 113.512 318.735 113.045 317.945L149.527 307.525Z" fill="#CFCFCF"/>
<path fill-rule="evenodd" clip-rule="evenodd" d="M105.08 294.418C104.978 293.528 105.715 292.409 106.942 292.073L138.441 283.296C139.668 282.961 140.975 283.522 141.442 284.312L105.08 294.418Z" fill="#CFCFCF"/>
<path fill-rule="evenodd" clip-rule="evenodd" d="M124.526 293.22L130.01 309.42L148.489 304.374L143.004 288.173L124.526 293.22Z" fill="#E3E4E7"/>
<path fill-rule="evenodd" clip-rule="evenodd" d="M112.438 300.254L115.096 310.255L130.924 305.755L127.818 296.166L112.438 300.254Z" fill="#B1B3B6"/>
<path fill-rule="evenodd" clip-rule="evenodd" d="M113.626 301.118L116.138 311.037L131.399 305.934L127.846 296.095L113.626 301.118Z" fill="#E3E4E7"/>
<path fill-rule="evenodd" clip-rule="evenodd" d="M134.537 303.747L135.314 306.042L147.89 302.607L147.112 300.313L134.537 303.747Z" fill="#8D8F90"/>
<path fill-rule="evenodd" clip-rule="evenodd" d="M134.539 303.747L135.163 305.592L147.225 302.298L146.601 300.452L134.539 303.747Z" fill="#BDBEC2"/>
<path fill-rule="evenodd" clip-rule="evenodd" d="M133.367 300.289L134.144 302.584L146.72 299.15L145.943 296.855L133.367 300.289Z" fill="#8D8F90"/>
<path fill-rule="evenodd" clip-rule="evenodd" d="M133.367 300.289L133.991 302.134L146.053 298.84L145.429 296.995L133.367 300.289Z" fill="#BDBEC2"/>
<path fill-rule="evenodd" clip-rule="evenodd" d="M132.197 296.832L132.974 299.127L145.55 295.692L144.773 293.398L132.197 296.832Z" fill="#8D8F90"/>
<path fill-rule="evenodd" clip-rule="evenodd" d="M132.197 296.832L132.821 298.677L144.883 295.383L144.259 293.537L132.197 296.832Z" fill="#BDBEC2"/>
<path fill-rule="evenodd" clip-rule="evenodd" d="M131.027 293.374L131.804 295.669L144.38 292.235L143.603 289.94L131.027 293.374Z" fill="#8D8F90"/>
<path fill-rule="evenodd" clip-rule="evenodd" d="M131.027 293.374L131.651 295.219L143.713 291.925L143.089 290.079L131.027 293.374Z" fill="#BDBEC2"/>
<path d="M292.671 260.542C292.671 260.542 312.154 257.447 328.753 259.698C345.353 261.949 363.894 290.252 389.516 295.809C415.138 301.365 440.138 269.098 477.569 268.23" stroke="#A2A2A2" stroke-width="8"/>
<path fill-rule="evenodd" clip-rule="evenodd" d="M293.408 251.205C293.153 249.976 291.808 249.137 290.418 249.34L257.652 254.037C256.262 254.238 255.333 255.409 255.587 256.637L260.341 279.588C260.595 280.816 261.941 281.656 263.332 281.453L296.097 276.757C297.487 276.554 298.416 275.384 298.162 274.156L293.408 251.205Z" fill="#F2F3F5"/>
<path fill-rule="evenodd" clip-rule="evenodd" d="M255.774 256.525C255.782 255.628 256.65 254.608 257.909 254.424L290.4 249.254C291.659 249.071 292.887 249.787 293.254 250.628L255.774 256.525Z" fill="#CFCFCF"/>
<path fill-rule="evenodd" clip-rule="evenodd" d="M298.292 274.95C298.284 275.846 297.416 276.867 296.157 277.05L263.823 281.924C262.564 282.106 261.336 281.391 260.969 280.549L298.292 274.95Z" fill="#CFCFCF"/>
<path fill-rule="evenodd" clip-rule="evenodd" d="M278.845 273.77L275.376 257.022L256.42 259.778L259.889 276.527L278.845 273.77Z" fill="#E3E4E7"/>
<path fill-rule="evenodd" clip-rule="evenodd" d="M291.698 268.262L290.279 258.01L274.021 260.549L275.935 270.444L291.698 268.262Z" fill="#B1B3B6"/>
<path fill-rule="evenodd" clip-rule="evenodd" d="M290.624 267.259L289.34 257.108L273.57 260.312L275.898 270.512L290.624 267.259Z" fill="#E3E4E7"/>
<path fill-rule="evenodd" clip-rule="evenodd" d="M270.189 262.101L269.698 259.728L256.797 261.605L257.289 263.977L270.189 262.101Z" fill="#8D8F90"/>
<path fill-rule="evenodd" clip-rule="evenodd" d="M270.19 262.101L269.796 260.194L257.422 261.993L257.817 263.901L270.19 262.101Z" fill="#BDBEC2"/>
<path fill-rule="evenodd" clip-rule="evenodd" d="M270.93 265.676L270.438 263.303L257.538 265.179L258.029 267.552L270.93 265.676Z" fill="#8D8F90"/>
<path fill-rule="evenodd" clip-rule="evenodd" d="M270.931 265.676L270.536 263.768L258.162 265.568L258.557 267.475L270.931 265.676Z" fill="#BDBEC2"/>
<path fill-rule="evenodd" clip-rule="evenodd" d="M271.67 269.25L271.178 266.877L258.278 268.754L258.77 271.126L271.67 269.25Z" fill="#8D8F90"/>
<path fill-rule="evenodd" clip-rule="evenodd" d="M271.671 269.25L271.276 267.343L258.902 269.142L259.297 271.05L271.671 269.25Z" fill="#BDBEC2"/>
<path fill-rule="evenodd" clip-rule="evenodd" d="M272.41 272.825L271.918 270.452L259.018 272.328L259.51 274.701L272.41 272.825Z" fill="#8D8F90"/>
<path fill-rule="evenodd" clip-rule="evenodd" d="M272.411 272.824L272.016 270.917L259.643 272.716L260.037 274.624L272.411 272.824Z" fill="#BDBEC2"/>
<path fill-rule="evenodd" clip-rule="evenodd" d="M342.854 344.449C332.006 334.163 321.668 324.361 310.271 313.554C310.561 319.05 310.785 323.301 311.061 328.545C292.592 319.379 282.25 305.019 278.197 285.217C271.224 305.788 281.974 328.706 307.344 347.935C305.598 351.985 303.797 356.163 301.538 361.402C309.176 358.295 315.902 355.577 322.613 352.823C329.197 350.121 335.767 347.382 342.854 344.449" fill="#00C0D2"/>
<defs>
<clipPath id="clip0">
<rect x="151.697" y="12.2168" width="403" height="223" fill="white"/>
</clipPath>
</defs>
</svg>
