<?xml version="1.0" encoding="UTF-8"?>
<svg width="601px" height="329px" viewBox="0 0 601 329" version="1.1" xmlns="http://www.w3.org/2000/svg" xmlns:xlink="http://www.w3.org/1999/xlink">
    <!-- Generator: Sketch 53 (72520) - https://sketchapp.com -->
    <title>Slice Copy 5</title>
    <desc>Created with Sketch.</desc>
    <g id="Page-1" stroke="none" stroke-width="1" fill="none" fill-rule="evenodd">
        <g id="Page-1-Copy" transform="translate(55.500000, 18.000000)">
            <g id="Group-64">
                <path d="M481.358,240.2272 L378.753,240.2272 C374.488,240.2272 370.998,236.7372 370.998,232.4722 C370.998,228.2072 374.488,224.7172 378.753,224.7172 L481.358,224.7172 C485.623,224.7172 489.113,228.2072 489.113,232.4722 C489.113,236.7372 485.623,240.2272 481.358,240.2272 Z" id="Fill-2" fill="#D5DAE2"></path>
                <path d="M475.1732,231.8445 L384.6862,231.8445 C382.4052,231.8445 380.5392,229.9785 380.5392,227.6985 L380.5392,137.2105 C380.5392,134.9305 382.4052,133.0645 384.6862,133.0645 L475.1732,133.0645 C477.4532,133.0645 479.3192,134.9305 479.3192,137.2105 L479.3192,227.6985 C479.3192,229.9785 477.4532,231.8445 475.1732,231.8445" id="Fill-4" fill="#444444"></path>
                <path d="M451.8394,213.2857 L408.0194,213.2857 C402.4574,213.2857 397.9074,208.7347 397.9074,203.1737 L397.9074,11.1997 C397.9074,5.6387 402.4574,1.0877 408.0194,1.0877 L451.8394,1.0877 C457.4014,1.0877 461.9514,5.6387 461.9514,11.1997 L461.9514,203.1737 C461.9514,208.7347 457.4014,213.2857 451.8394,213.2857" id="Fill-6" fill="#232323"></path>
                <path d="M416.0762,98.669 C416.0762,101.267 413.9702,103.374 411.3712,103.374 C408.7732,103.374 406.6672,101.267 406.6672,98.669 C406.6672,96.071 408.7732,93.964 411.3712,93.964 C413.9702,93.964 416.0762,96.071 416.0762,98.669" id="Fill-8" fill="#444444"></path>
                <path d="M434.635,98.669 C434.635,101.267 432.529,103.374 429.93,103.374 C427.332,103.374 425.226,101.267 425.226,98.669 C425.226,96.071 427.332,93.964 429.93,93.964 C432.529,93.964 434.635,96.071 434.635,98.669" id="Fill-10" fill="#444444"></path>
                <path d="M453.1939,98.669 C453.1939,101.267 451.0879,103.374 448.4889,103.374 C445.8909,103.374 443.7849,101.267 443.7849,98.669 C443.7849,96.071 445.8909,93.964 448.4889,93.964 C451.0879,93.964 453.1939,96.071 453.1939,98.669" id="Fill-12" fill="#444444"></path>
                <path d="M416.0752,113.8091 C416.0752,116.4071 413.9692,118.5141 411.3702,118.5141 C408.7722,118.5141 406.6662,116.4071 406.6662,113.8091 C406.6662,111.2111 408.7722,109.1041 411.3702,109.1041 C413.9692,109.1041 416.0752,111.2111 416.0752,113.8091" id="Fill-14" fill="#444444"></path>
                <path d="M434.6341,113.8091 C434.6341,116.4071 432.5281,118.5141 429.9291,118.5141 C427.3311,118.5141 425.2251,116.4071 425.2251,113.8091 C425.2251,111.2111 427.3311,109.1041 429.9291,109.1041 C432.5281,109.1041 434.6341,111.2111 434.6341,113.8091" id="Fill-16" fill="#444444"></path>
                <path d="M453.1929,113.8091 C453.1929,116.4071 451.0869,118.5141 448.4879,118.5141 C445.8899,118.5141 443.7839,116.4071 443.7839,113.8091 C443.7839,111.2111 445.8899,109.1041 448.4879,109.1041 C451.0869,109.1041 453.1929,111.2111 453.1929,113.8091" id="Fill-18" fill="#444444"></path>
                <path d="M416.0752,128.9492 C416.0752,131.5472 413.9692,133.6542 411.3702,133.6542 C408.7722,133.6542 406.6662,131.5472 406.6662,128.9492 C406.6662,126.3512 408.7722,124.2442 411.3702,124.2442 C413.9692,124.2442 416.0752,126.3512 416.0752,128.9492" id="Fill-20" fill="#444444"></path>
                <path d="M434.6341,128.9492 C434.6341,131.5472 432.5281,133.6542 429.9291,133.6542 C427.3311,133.6542 425.2251,131.5472 425.2251,128.9492 C425.2251,126.3512 427.3311,124.2442 429.9291,124.2442 C432.5281,124.2442 434.6341,126.3512 434.6341,128.9492" id="Fill-22" fill="#444444"></path>
                <path d="M453.1929,128.9492 C453.1929,131.5472 451.0869,133.6542 448.4879,133.6542 C445.8899,133.6542 443.7839,131.5472 443.7839,128.9492 C443.7839,126.3512 445.8899,124.2442 448.4879,124.2442 C451.0869,124.2442 453.1929,126.3512 453.1929,128.9492" id="Fill-24" fill="#444444"></path>
                <path d="M416.0752,144.0893 C416.0752,146.6873 413.9692,148.7943 411.3702,148.7943 C408.7722,148.7943 406.6662,146.6873 406.6662,144.0893 C406.6662,141.4913 408.7722,139.3843 411.3702,139.3843 C413.9692,139.3843 416.0752,141.4913 416.0752,144.0893" id="Fill-26" fill="#444444"></path>
                <path d="M434.6341,144.0893 C434.6341,146.6873 432.5281,148.7943 429.9291,148.7943 C427.3311,148.7943 425.2251,146.6873 425.2251,144.0893 C425.2251,141.4913 427.3311,139.3843 429.9291,139.3843 C432.5281,139.3843 434.6341,141.4913 434.6341,144.0893" id="Fill-28" fill="#444444"></path>
                <path d="M453.1929,144.0893 C453.1929,146.6873 451.0869,148.7943 448.4879,148.7943 C445.8899,148.7943 443.7839,146.6873 443.7839,144.0893 C443.7839,141.4913 445.8899,139.3843 448.4879,139.3843 C451.0869,139.3843 453.1929,141.4913 453.1929,144.0893" id="Fill-30" fill="#444444"></path>
                <polygon id="Fill-32" fill="#6F7B84" points="406.666 59.024 453.193 59.024 453.193 28.845 406.666 28.845"></polygon>
                <path d="M436.1106,83.8584 L423.7486,83.8584 C421.2046,83.8584 419.1236,81.7774 419.1236,79.2334 L419.1236,71.9834 C419.1236,69.4394 421.2046,67.3584 423.7486,67.3584 L436.1106,67.3584 C438.6546,67.3584 440.7356,69.4394 440.7356,71.9834 L440.7356,79.2334 C440.7356,81.7774 438.6546,83.8584 436.1106,83.8584" id="Fill-34" fill="#444444"></path>
                <path d="M412.8053,83.8584 L408.5403,83.8584 C406.7423,83.8584 405.2703,82.3874 405.2703,80.5884 L405.2703,70.6284 C405.2703,68.8294 406.7423,67.3584 408.5403,67.3584 L412.8053,67.3584 C414.6033,67.3584 416.0753,68.8294 416.0753,70.6284 L416.0753,80.5884 C416.0753,82.3874 414.6033,83.8584 412.8053,83.8584" id="Fill-35" fill="#444444"></path>
                <path d="M450.6208,83.8584 L446.3558,83.8584 C444.5578,83.8584 443.0858,82.3874 443.0858,80.5884 L443.0858,70.6284 C443.0858,68.8294 444.5578,67.3584 446.3558,67.3584 L450.6208,67.3584 C452.4188,67.3584 453.8908,68.8294 453.8908,70.6284 L453.8908,80.5884 C453.8908,82.3874 452.4188,83.8584 450.6208,83.8584" id="Fill-36" fill="#444444"></path>
                <polygon id="Fill-37" fill="#303030" points="421.555 18.108 423.305 18.108 423.305 12.608 421.555 12.608"></polygon>
                <polygon id="Fill-38" fill="#303030" points="425.305 18.108 427.055 18.108 427.055 12.608 425.305 12.608"></polygon>
                <polygon id="Fill-39" fill="#303030" points="429.055 18.108 430.805 18.108 430.805 12.608 429.055 12.608"></polygon>
                <polygon id="Fill-40" fill="#303030" points="432.805 18.108 434.555 18.108 434.555 12.608 432.805 12.608"></polygon>
                <polygon id="Fill-41" fill="#303030" points="436.555 18.108 438.305 18.108 438.305 12.608 436.555 12.608"></polygon>
                <polygon id="Fill-42" fill="#303030" points="421.555 202.858 423.305 202.858 423.305 191.858 421.555 191.858"></polygon>
                <polygon id="Fill-43" fill="#303030" points="425.305 202.858 427.055 202.858 427.055 191.858 425.305 191.858"></polygon>
                <polygon id="Fill-44" fill="#303030" points="429.055 202.858 430.805 202.858 430.805 191.858 429.055 191.858"></polygon>
                <polygon id="Fill-45" fill="#303030" points="432.805 202.858 434.555 202.858 434.555 191.858 432.805 191.858"></polygon>
                <polygon id="Fill-46" fill="#303030" points="436.555 202.858 438.305 202.858 438.305 191.858 436.555 191.858"></polygon>
                <path d="M233.1011,240.2272 L17.7371,240.2272 C13.6501,240.2272 10.3051,236.8832 10.3051,232.7962 L10.3051,231.5092 C10.3051,227.4222 13.6501,224.0782 17.7371,224.0782 L233.1011,224.0782 C237.1881,224.0782 240.5321,227.4222 240.5321,231.5092 L240.5321,232.7962 C240.5321,236.8832 237.1881,240.2272 233.1011,240.2272" id="Fill-47" fill="#D5DAE2"></path>
                <path d="M228.9078,229.7646 L23.3968,229.7646 C18.9268,229.7646 15.2688,226.1076 15.2688,221.6376 L15.2688,20.3516 C15.2688,15.8816 18.9268,12.2246 23.3968,12.2246 L228.9078,12.2246 C233.3778,12.2246 237.0348,15.8816 237.0348,20.3516 L237.0348,221.6376 C237.0348,226.1076 233.3778,229.7646 228.9078,229.7646" id="Fill-48" fill="#444444"></path>
                <path d="M88.6237,211.3586 L42.7887,211.3586 C37.9267,211.3586 33.9477,207.3796 33.9477,202.5176 L33.9477,9.7496 C33.9477,4.8876 37.9267,0.9086 42.7887,0.9086 L88.6237,0.9086 C93.4867,0.9086 97.4647,4.8876 97.4647,9.7496 L97.4647,202.5176 C97.4647,207.3796 93.4867,211.3586 88.6237,211.3586" id="Fill-49" fill="#232323"></path>
                <polygon id="Fill-50" fill="#6F7B84" points="113.656 83.724 214.402 83.724 214.402 32.405 113.656 32.405"></polygon>
                <polygon id="Fill-51" fill="#626E78" points="151.8959 32.5965 202.0369 83.9895 214.7399 83.9895 214.7399 32.4045"></polygon>
                <path d="M136.5489,111.3663 C136.5489,116.5203 132.3709,120.6983 127.2169,120.6983 C122.0639,120.6983 117.8859,116.5203 117.8859,111.3663 C117.8859,106.2123 122.0639,102.0343 127.2169,102.0343 C132.3709,102.0343 136.5489,106.2123 136.5489,111.3663" id="Fill-52" fill="#232323"></path>
                <path d="M173.3609,111.3663 C173.3609,116.5203 169.1829,120.6983 164.0289,120.6983 C158.8759,120.6983 154.6979,116.5203 154.6979,111.3663 C154.6979,106.2123 158.8759,102.0343 164.0289,102.0343 C169.1829,102.0343 173.3609,106.2123 173.3609,111.3663" id="Fill-53" fill="#232323"></path>
                <path d="M210.173,111.3663 C210.173,116.5203 205.995,120.6983 200.841,120.6983 C195.688,120.6983 191.51,116.5203 191.51,111.3663 C191.51,106.2123 195.688,102.0343 200.841,102.0343 C205.995,102.0343 210.173,106.2123 210.173,111.3663" id="Fill-54" fill="#232323"></path>
                <path d="M136.5489,142.0318 C136.5489,147.1858 132.3709,151.3638 127.2169,151.3638 C122.0639,151.3638 117.8859,147.1858 117.8859,142.0318 C117.8859,136.8778 122.0639,132.6998 127.2169,132.6998 C132.3709,132.6998 136.5489,136.8778 136.5489,142.0318" id="Fill-55" fill="#232323"></path>
                <path d="M173.3609,142.0318 C173.3609,147.1858 169.1829,151.3638 164.0289,151.3638 C158.8759,151.3638 154.6979,147.1858 154.6979,142.0318 C154.6979,136.8778 158.8759,132.6998 164.0289,132.6998 C169.1829,132.6998 173.3609,136.8778 173.3609,142.0318" id="Fill-56" fill="#232323"></path>
                <path d="M210.173,142.0318 C210.173,147.1858 205.995,151.3638 200.841,151.3638 C195.688,151.3638 191.51,147.1858 191.51,142.0318 C191.51,136.8778 195.688,132.6998 200.841,132.6998 C205.995,132.6998 210.173,136.8778 210.173,142.0318" id="Fill-57" fill="#232323"></path>
                <path d="M136.5489,172.6974 C136.5489,177.8514 132.3709,182.0294 127.2169,182.0294 C122.0639,182.0294 117.8859,177.8514 117.8859,172.6974 C117.8859,167.5434 122.0639,163.3654 127.2169,163.3654 C132.3709,163.3654 136.5489,167.5434 136.5489,172.6974" id="Fill-58" fill="#232323"></path>
                <path d="M173.3609,172.6974 C173.3609,177.8514 169.1829,182.0294 164.0289,182.0294 C158.8759,182.0294 154.6979,177.8514 154.6979,172.6974 C154.6979,167.5434 158.8759,163.3654 164.0289,163.3654 C169.1829,163.3654 173.3609,167.5434 173.3609,172.6974" id="Fill-59" fill="#232323"></path>
                <path d="M210.173,172.6974 C210.173,177.8514 205.995,182.0294 200.841,182.0294 C195.688,182.0294 191.51,177.8514 191.51,172.6974 C191.51,167.5434 195.688,163.3654 200.841,163.3654 C205.995,163.3654 210.173,167.5434 210.173,172.6974" id="Fill-60" fill="#232323"></path>
                <path d="M88.6237,211.3586 L42.7887,211.3586 C37.9267,211.3586 33.9477,207.3796 33.9477,202.5176 L33.9477,9.7496 C33.9477,4.8876 37.9267,0.9086 42.7887,0.9086 L88.6237,0.9086 C93.4867,0.9086 97.4647,4.8876 97.4647,9.7496 L97.4647,202.5176 C97.4647,207.3796 93.4867,211.3586 88.6237,211.3586" id="Fill-61" fill="#232323"></path>
                <path d="M66.8003,206.9801 C64.8073,204.3031 60.2513,206.9151 62.2703,209.6281 C63.2593,210.9551 64.0003,212.4631 64.5813,214.0101 C64.8343,214.6831 65.3023,215.6671 65.3153,216.3751 C65.3283,217.0831 64.9433,217.7771 64.4103,218.2681 C63.5143,216.6441 62.0873,215.2361 60.0893,214.2981 C58.3293,213.4721 56.1533,214.4421 56.1423,216.5631 C56.1253,219.7981 57.9243,222.2371 60.3243,223.3811 C60.1993,224.1851 59.7933,224.9921 59.0453,225.7281 C57.4453,227.3011 56.0793,227.2241 54.5973,226.6911 C54.8013,225.2001 54.5853,223.6621 53.8373,222.3131 C52.4353,219.7861 48.8973,218.0421 46.3833,220.1521 C43.7923,222.3271 45.5283,226.0161 47.4303,228.3211 C46.9313,228.8471 46.2993,229.2901 45.2153,229.6511 C43.4043,230.2551 41.4003,230.4291 39.5113,230.1271 C38.3383,229.9401 37.4513,229.4361 36.5403,228.9231 C36.6563,228.6141 36.7663,228.3031 36.8443,227.9781 C37.5503,225.0281 36.1883,221.3981 32.9533,220.8711 C30.0933,220.4041 28.0883,222.7781 28.0483,225.5091 C28.0283,226.8721 28.4763,228.1771 29.1923,229.3561 C28.5753,229.6961 27.9813,230.0071 27.1733,230.1581 C25.5943,230.4531 24.4613,230.1811 23.5203,229.6121 C24.3573,229.1101 25.0533,228.3591 25.5343,227.2991 C28.1083,221.6291 19.2833,218.9281 16.6563,223.9831 C15.9473,223.7691 15.2153,223.5691 14.6083,223.1951 C14.1653,222.9811 13.8273,222.6951 13.4863,222.3371 C12.8863,221.9731 12.4793,221.5141 12.3673,220.9611 C13.9543,220.7451 15.5713,219.9801 17.1043,218.4981 C18.0593,217.5761 18.1793,215.6921 17.1043,214.7891 C14.2423,212.3851 11.0763,212.8351 8.9983,214.6891 C8.1933,213.9631 7.5723,212.9481 7.2883,211.9591 C7.0033,210.9681 6.9093,209.8661 6.9393,208.8401 C6.9553,208.7191 6.9693,208.5991 6.9843,208.4781 C7.8123,208.5621 8.7133,208.4641 9.6793,208.1481 C12.1293,207.3461 15.3723,205.1931 14.0033,202.2231 C12.7413,199.4851 8.9493,199.1811 6.4163,200.2651 C6.4103,200.2381 6.4003,200.2111 6.3943,200.1841 C6.0973,198.5211 5.9833,197.3651 6.9343,195.9701 C8.4483,193.7491 11.3723,193.1701 13.8943,193.0361 C14.3673,193.0111 14.9463,192.8771 14.9463,192.6801 L14.9463,188.0141 C14.9463,187.8551 14.3683,187.7651 13.8943,187.7901 C9.8163,188.0061 5.2673,189.2001 2.6013,192.5611 C-0.0137,195.8581 0.6543,200.3381 1.9963,204.0461 C2.1023,204.3381 2.2433,204.6151 2.3703,204.8841 C1.7733,206.5571 1.5853,208.4101 1.6673,210.1201 C1.8433,213.8461 3.8923,217.4441 6.7153,219.4351 C6.6473,220.5591 6.8463,221.7521 7.3823,222.9411 C8.5073,225.4381 12.3703,228.3691 16.3113,229.6991 C18.0943,234.7841 25.5273,236.6121 30.5043,234.6671 C31.4133,234.3121 32.2873,233.8231 33.0953,233.2411 C33.2153,233.3171 33.3353,233.3941 33.4553,233.4651 C38.8863,236.6641 47.3523,236.2041 52.0033,231.6681 C53.9803,232.4571 56.1733,232.6901 58.2453,232.1491 C62.6093,231.0091 65.1193,227.4901 65.5053,223.7801 C66.6633,223.4291 67.7883,222.7871 68.7833,221.7761 C72.7123,217.7781 69.6443,210.8001 66.8003,206.9801" id="Fill-62" fill="#232323"></path>
                <path d="M255.9777,83.9539 C276.2217,85.5389 295.5137,87.0489 316.7827,88.7149 C311.7787,83.1609 307.9077,78.8639 303.1337,73.5649 C330.4657,67.4529 353.6577,73.7709 374.8647,91.2099 C364.6407,63.5339 333.7007,48.5299 290.4827,49.9179 C288.8637,44.1509 287.1937,38.2009 285.0997,30.7389 C279.6927,40.5489 274.9157,49.1669 270.1857,57.8109 C265.5447,66.2919 260.9507,74.7989 255.9777,83.9539" id="Fill-63" fill="#00BCCE"></path>
            </g>
        </g>
    </g>
</svg>