<?xml version="1.0" encoding="UTF-8"?>
<svg width="591px" height="329px" viewBox="0 0 591 329" version="1.1" xmlns="http://www.w3.org/2000/svg" xmlns:xlink="http://www.w3.org/1999/xlink">
    <title>cabo_coaxial</title>
    <defs>
        <polygon id="path-1" points="0 264 440.602 264 440.602 0.5 0 0.5"></polygon>
        <polygon id="path-3" points="0 264 440.602 264 440.602 0.5 0 0.5"></polygon>
        <polygon id="path-5" points="0 264 440.602 264 440.602 0.5 0 0.5"></polygon>
        <polygon id="path-7" points="0 264 440.602 264 440.602 0.5 0 0.5"></polygon>
        <polygon id="path-9" points="0 264 440.602 264 440.602 0.5 0 0.5"></polygon>
        <polygon id="path-11" points="0 264 440.602 264 440.602 0.5 0 0.5"></polygon>
        <polygon id="path-13" points="0 264 440.602 264 440.602 0.5 0 0.5"></polygon>
        <polygon id="path-15" points="0 264 440.602 264 440.602 0.5 0 0.5"></polygon>
        <polygon id="path-17" points="0 264 440.602 264 440.602 0.5 0 0.5"></polygon>
        <polygon id="path-19" points="0 264 440.602 264 440.602 0.5 0 0.5"></polygon>
        <polygon id="path-21" points="0 264 440.602 264 440.602 0.5 0 0.5"></polygon>
        <polygon id="path-23" points="0 264 440.602 264 440.602 0.5 0 0.5"></polygon>
        <polygon id="path-25" points="0 264 440.602 264 440.602 0.5 0 0.5"></polygon>
        <polygon id="path-27" points="0 264 440.602 264 440.602 0.5 0 0.5"></polygon>
        <polygon id="path-29" points="0 264 440.602 264 440.602 0.5 0 0.5"></polygon>
        <polygon id="path-31" points="0 264 440.602 264 440.602 0.5 0 0.5"></polygon>
        <polygon id="path-33" points="0 264 440.602 264 440.602 0.5 0 0.5"></polygon>
        <polygon id="path-35" points="0 264 440.602 264 440.602 0.5 0 0.5"></polygon>
        <polygon id="path-37" points="0 264 440.602 264 440.602 0.5 0 0.5"></polygon>
        <polygon id="path-39" points="0 264 440.602 264 440.602 0.5 0 0.5"></polygon>
        <polygon id="path-41" points="0 264 440.602 264 440.602 0.5 0 0.5"></polygon>
        <polygon id="path-43" points="0 264 440.602 264 440.602 0.5 0 0.5"></polygon>
        <polygon id="path-45" points="0 264 440.602 264 440.602 0.5 0 0.5"></polygon>
        <polygon id="path-47" points="0 264 440.602 264 440.602 0.5 0 0.5"></polygon>
        <polygon id="path-49" points="0 264 440.602 264 440.602 0.5 0 0.5"></polygon>
        <polygon id="path-51" points="0 264 440.602 264 440.602 0.5 0 0.5"></polygon>
        <polygon id="path-53" points="0 264 440.602 264 440.602 0.5 0 0.5"></polygon>
        <polygon id="path-55" points="0 264 440.602 264 440.602 0.5 0 0.5"></polygon>
        <polygon id="path-57" points="0 264 440.602 264 440.602 0.5 0 0.5"></polygon>
        <polygon id="path-59" points="0 264 440.602 264 440.602 0.5 0 0.5"></polygon>
        <polygon id="path-61" points="0 264 440.602 264 440.602 0.5 0 0.5"></polygon>
        <polygon id="path-63" points="0 264 440.602 264 440.602 0.5 0 0.5"></polygon>
        <polygon id="path-65" points="0 264 440.602 264 440.602 0.5 0 0.5"></polygon>
        <polygon id="path-67" points="0 264 440.602 264 440.602 0.5 0 0.5"></polygon>
        <polygon id="path-69" points="0 264 440.602 264 440.602 0.5 0 0.5"></polygon>
        <polygon id="path-71" points="0 264 440.602 264 440.602 0.5 0 0.5"></polygon>
        <polygon id="path-73" points="0 264 440.602 264 440.602 0.5 0 0.5"></polygon>
        <polygon id="path-75" points="0 264 440.602 264 440.602 0.5 0 0.5"></polygon>
        <polygon id="path-77" points="0 264 440.602 264 440.602 0.5 0 0.5"></polygon>
        <polygon id="path-79" points="0 264 440.602 264 440.602 0.5 0 0.5"></polygon>
        <polygon id="path-81" points="0 264 440.602 264 440.602 0.5 0 0.5"></polygon>
    </defs>
    <g id="Page-1" stroke="none" stroke-width="1" fill="none" fill-rule="evenodd">
        <g id="cabo_coaxial" transform="translate(75.000000, 40.000000)">
            <g id="Group-21" transform="translate(0.000000, 0.500000)">
                <path d="M414.4932,126.019 L118.1452,126.019 C113.4712,126.019 109.6462,122.194 109.6462,117.519 C109.6462,112.844 113.4712,109.019 118.1452,109.019 L414.4932,109.019 C419.1682,109.019 422.9932,112.844 422.9932,117.519 C422.9932,122.194 419.1682,126.019 414.4932,126.019 Z" id="Fill-1" fill="#D5DAE2" fill-rule="nonzero"></path>
                <path d="M114.1543,101.519 L114.1543,107.055 C114.1543,112.634 117.4873,116.519 120.6953,116.519 L166.6583,116.519 C169.8663,116.519 171.1543,112.634 171.1543,107.055 L171.1543,101.519 L114.1543,101.519 Z" id="Fill-3" fill="#2D2B2C" fill-rule="nonzero"></path>
                <path d="M361.1543,101.519 L361.1543,107.055 C361.1543,112.634 364.1123,116.519 367.3203,116.519 L413.2833,116.519 C416.4903,116.519 418.1543,112.634 418.1543,107.055 L418.1543,101.519 L361.1543,101.519 Z" id="Fill-5" fill="#2D2B2C" fill-rule="nonzero"></path>
                <path d="M422.9136,102.688 L109.8196,102.688 C100.0906,102.688 92.1306,94.728 92.1306,84.999 L92.1306,18.189 C92.1306,8.459 100.0906,0.5 109.8196,0.5 L422.9136,0.5 C432.6426,0.5 440.6016,8.459 440.6016,18.189 L440.6016,84.999 C440.6016,94.728 432.6426,102.688 422.9136,102.688" id="Fill-7" fill="#645E5E" fill-rule="nonzero"></path>
                <path d="M429.1543,1.8345 L429.1543,101.3005 C436.1543,98.7995 440.1543,92.6725 440.1543,85.2595 L440.1543,18.4485 C440.1543,11.0345 436.1543,4.5215 429.1543,1.8345" id="Fill-9" fill="#2D2B2C" fill-rule="nonzero"></path>
                <path d="M217.3301,38.4839 C216.0891,38.4839 215.0801,39.5459 215.0801,40.8519 L215.0801,63.7429 C215.0801,65.0479 216.0891,66.1099 217.3301,66.1099 L272.5781,66.1099 C273.8191,66.1099 274.8281,65.0479 274.8281,63.7429 L274.8281,40.8519 C274.8281,39.5459 273.8191,38.4839 272.5781,38.4839 L217.3301,38.4839 Z M272.5781,67.7969 L217.3301,67.7969 C215.2051,67.7969 213.4761,65.9779 213.4761,63.7429 L213.4761,40.8519 C213.4761,38.6159 215.2051,36.7969 217.3301,36.7969 L272.5781,36.7969 C274.7031,36.7969 276.4321,38.6159 276.4321,40.8519 L276.4321,63.7429 C276.4321,65.9779 274.7031,67.7969 272.5781,67.7969 L272.5781,67.7969 Z" id="Fill-11" fill="#808080" fill-rule="nonzero"></path>
                <path d="M178.2969,38.4839 C177.0559,38.4839 176.0469,39.5459 176.0469,40.8519 L176.0469,63.7429 C176.0469,65.0479 177.0559,66.1099 178.2969,66.1099 L206.5889,66.1099 C207.8299,66.1099 208.8389,65.0479 208.8389,63.7429 L208.8389,40.8519 C208.8389,39.5459 207.8299,38.4839 206.5889,38.4839 L178.2969,38.4839 Z M206.5889,67.7969 L178.2969,67.7969 C176.1719,67.7969 174.4429,65.9779 174.4429,63.7429 L174.4429,40.8519 C174.4429,38.6159 176.1719,36.7969 178.2969,36.7969 L206.5889,36.7969 C208.7139,36.7969 210.4429,38.6159 210.4429,40.8519 L210.4429,63.7429 C210.4429,65.9779 208.7139,67.7969 206.5889,67.7969 L206.5889,67.7969 Z" id="Fill-13" fill="#808080" fill-rule="nonzero"></path>
                <path d="M296.6299,38.4839 C295.3899,38.4839 294.3799,39.5459 294.3799,40.8519 L294.3799,63.7429 C294.3799,65.0479 295.3899,66.1099 296.6299,66.1099 L324.9219,66.1099 C326.1629,66.1099 327.1719,65.0479 327.1719,63.7429 L327.1719,40.8519 C327.1719,39.5459 326.1629,38.4839 324.9219,38.4839 L296.6299,38.4839 Z M324.9219,67.7969 L296.6299,67.7969 C294.5049,67.7969 292.7759,65.9779 292.7759,63.7429 L292.7759,40.8519 C292.7759,38.6159 294.5049,36.7969 296.6299,36.7969 L324.9219,36.7969 C327.0469,36.7969 328.7759,38.6159 328.7759,40.8519 L328.7759,63.7429 C328.7759,65.9779 327.0469,67.7969 324.9219,67.7969 L324.9219,67.7969 Z" id="Fill-15" fill="#808080" fill-rule="nonzero"></path>
                <path d="M125.0469,38.4839 C123.8059,38.4839 122.7969,39.5459 122.7969,40.8519 L122.7969,63.7429 C122.7969,65.0479 123.8059,66.1099 125.0469,66.1099 L153.3389,66.1099 C154.5799,66.1099 155.5889,65.0479 155.5889,63.7429 L155.5889,40.8519 C155.5889,39.5459 154.5799,38.4839 153.3389,38.4839 L125.0469,38.4839 Z M153.3389,67.7969 L125.0469,67.7969 C122.9219,67.7969 121.1929,65.9779 121.1929,63.7429 L121.1929,40.8519 C121.1929,38.6159 122.9219,36.7969 125.0469,36.7969 L153.3389,36.7969 C155.4639,36.7969 157.1929,38.6159 157.1929,40.8519 L157.1929,63.7429 C157.1929,65.9779 155.4639,67.7969 153.3389,67.7969 L153.3389,67.7969 Z" id="Fill-17" fill="#808080" fill-rule="nonzero"></path>
                <g id="Fill-19-Clipped">
                    <mask id="mask-2" fill="white">
                        <use xlink:href="#path-1"></use>
                    </mask>
                    <g id="path-1"></g>
                    <polygon id="Fill-19" fill="#2D2B2C" fill-rule="nonzero" mask="url(#mask-2)" points="122.858 80.513 155.229 80.513 155.229 70.847 122.858 70.847"></polygon>
                </g>
            </g>
            <g id="ANTENA" transform="translate(126.000000, 71.000000)" fill="#FFFFFF" font-family="SimplonOi-Headline, Simplon Oi" font-size="7" font-weight="500">
                <text>
                    <tspan x="0.4639" y="6.6074">ANTENA</tspan>
                </text>
            </g>
            <g id="Group-25" transform="translate(175.000000, 34.500000)" fill="#2D2B2C" fill-rule="nonzero">
                <polygon id="Fill-22" points="0.936 46.543 99.003 46.543 99.003 36.877 0.936 36.877"></polygon>
                <polygon id="Fill-24" points="196.388 47.514 242.961 47.514 242.961 0.942 196.388 0.942"></polygon>
            </g>
            <g id="AV-/-OUT" transform="translate(211.000000, 71.000000)" fill="#FFFFFF" font-family="SimplonOi-Headline, Simplon Oi" font-size="7" font-weight="500">
                <text id="A">
                    <tspan x="0.9814" y="6.6377">A</tspan>
                </text>
                <text id="V-/-OUT">
                    <tspan x="4.1594" y="6.6377">V / OUT</tspan>
                </text>
            </g>
            <g id="12V---1.5-A" transform="translate(377.000000, 71.000000)" fill="#FFFFFF" font-family="SimplonOi-Headline, Simplon Oi" font-size="7" font-weight="500">
                <text id="1">
                    <tspan x="0.7274" y="6.6377">1</tspan>
                </text>
                <text id="2V--">
                    <tspan x="4.3674" y="6.6377">2V -</tspan>
                </text>
                <text id="1">
                    <tspan x="18.2484" y="6.6377">1</tspan>
                </text>
                <text id=".5-A">
                    <tspan x="22.1957" y="6.6377">.5 A</tspan>
                </text>
            </g>
            <g id="Group-73" transform="translate(0.000000, 0.500000)">
                <path d="M320.7588,63.3374 L300.7938,63.3374 C300.2118,63.3374 299.7358,62.8614 299.7358,62.2794 L299.7358,42.3154 C299.7358,41.7334 300.2118,41.2564 300.7938,41.2564 L320.7588,41.2564 C321.3408,41.2564 321.8168,41.7334 321.8168,42.3154 L321.8168,62.2794 C321.8168,62.8614 321.3408,63.3374 320.7588,63.3374 Z" id="Fill-26" fill="#F2F3F5" fill-rule="nonzero"></path>
                <path d="M300.794,41.6401 C300.422,41.6401 300.12,41.9431 300.12,42.3151 L300.12,62.2801 C300.12,62.6511 300.422,62.9531 300.794,62.9531 L320.759,62.9531 C321.13,62.9531 321.433,62.6511 321.433,62.2801 L321.433,42.3151 C321.433,41.9431 321.13,41.6401 320.759,41.6401 L300.794,41.6401 Z M320.759,63.7221 L300.794,63.7221 C299.999,63.7221 299.352,63.0751 299.352,62.2801 L299.352,42.3151 C299.352,41.5191 299.999,40.8721 300.794,40.8721 L320.759,40.8721 C321.554,40.8721 322.201,41.5191 322.201,42.3151 L322.201,62.2801 C322.201,63.0751 321.554,63.7221 320.759,63.7221 L320.759,63.7221 Z" id="Fill-28" fill="#5B5B5D" fill-rule="nonzero"></path>
                <polygon id="Fill-30" fill="#5A5A5C" fill-rule="nonzero" points="310.6465 43.519 301.8935 43.519 301.8935 53.519 304.8935 53.519 304.8935 56.519 307.8935 56.519 307.8935 59.519 310.6465 59.519 313.8935 59.519 313.8935 56.519 316.8935 56.519 316.8935 53.519 319.8935 53.519 319.8935 43.519"></polygon>
                <g id="Fill-32-Clipped">
                    <mask id="mask-4" fill="white">
                        <use xlink:href="#path-3"></use>
                    </mask>
                    <g id="path-3"></g>
                    <polygon id="Fill-32" fill="#3F4243" fill-rule="nonzero" mask="url(#mask-4)" points="301.894 44.519 319.894 44.519 319.894 43.519 301.894 43.519"></polygon>
                </g>
                <g id="Fill-34-Clipped">
                    <mask id="mask-6" fill="white">
                        <use xlink:href="#path-5"></use>
                    </mask>
                    <g id="path-3"></g>
                    <polygon id="Fill-34" fill="#3F4243" fill-rule="nonzero" mask="url(#mask-6)" points="301.894 53.519 304.894 53.519 304.894 52.519 301.894 52.519"></polygon>
                </g>
                <g id="Fill-35-Clipped">
                    <mask id="mask-8" fill="white">
                        <use xlink:href="#path-7"></use>
                    </mask>
                    <g id="path-3"></g>
                    <polygon id="Fill-35" fill="#3F4243" fill-rule="nonzero" mask="url(#mask-8)" points="316.894 53.519 319.894 53.519 319.894 52.519 316.894 52.519"></polygon>
                </g>
                <g id="Fill-36-Clipped">
                    <mask id="mask-10" fill="white">
                        <use xlink:href="#path-9"></use>
                    </mask>
                    <g id="path-3"></g>
                    <polygon id="Fill-36" fill="#3F4243" fill-rule="nonzero" mask="url(#mask-10)" points="304.894 56.519 307.894 56.519 307.894 55.519 304.894 55.519"></polygon>
                </g>
                <g id="Fill-37-Clipped">
                    <mask id="mask-12" fill="white">
                        <use xlink:href="#path-11"></use>
                    </mask>
                    <g id="path-3"></g>
                    <polygon id="Fill-37" fill="#3F4243" fill-rule="nonzero" mask="url(#mask-12)" points="307.894 59.519 313.894 59.519 313.894 58.519 307.894 58.519"></polygon>
                </g>
                <g id="Fill-38-Clipped">
                    <mask id="mask-14" fill="white">
                        <use xlink:href="#path-13"></use>
                    </mask>
                    <g id="path-3"></g>
                    <polygon id="Fill-38" fill="#3F4243" fill-rule="nonzero" mask="url(#mask-14)" points="313.894 56.519 316.894 56.519 316.894 55.519 313.894 55.519"></polygon>
                </g>
                <g id="Fill-39-Clipped">
                    <mask id="mask-16" fill="white">
                        <use xlink:href="#path-15"></use>
                    </mask>
                    <g id="path-3"></g>
                    <polygon id="Fill-39" fill="#BDBEC2" fill-rule="nonzero" mask="url(#mask-16)" points="308.673 50.046 310.113 50.046 310.113 44.833 308.673 44.833"></polygon>
                </g>
                <g id="Fill-40-Clipped">
                    <mask id="mask-18" fill="white">
                        <use xlink:href="#path-17"></use>
                    </mask>
                    <g id="path-3"></g>
                    <polygon id="Fill-40" fill="#BDBEC2" fill-rule="nonzero" mask="url(#mask-18)" points="306.305 50.046 307.745 50.046 307.745 44.833 306.305 44.833"></polygon>
                </g>
                <g id="Fill-41-Clipped">
                    <mask id="mask-20" fill="white">
                        <use xlink:href="#path-19"></use>
                    </mask>
                    <g id="path-3"></g>
                    <polygon id="Fill-41" fill="#BDBEC2" fill-rule="nonzero" mask="url(#mask-20)" points="311.041 50.046 312.481 50.046 312.481 44.833 311.041 44.833"></polygon>
                </g>
                <g id="Fill-42-Clipped">
                    <mask id="mask-22" fill="white">
                        <use xlink:href="#path-21"></use>
                    </mask>
                    <g id="path-3"></g>
                    <polygon id="Fill-42" fill="#BDBEC2" fill-rule="nonzero" mask="url(#mask-22)" points="313.409 50.046 314.849 50.046 314.849 44.833 313.409 44.833"></polygon>
                </g>
                <g id="Fill-43-Clipped">
                    <mask id="mask-24" fill="white">
                        <use xlink:href="#path-23"></use>
                    </mask>
                    <g id="path-3"></g>
                    <path d="M404.2598,53.0171 C404.2598,58.6741 399.6738,63.2601 394.0168,63.2601 C388.3598,63.2601 383.7738,58.6741 383.7738,53.0171 C383.7738,47.3601 388.3598,42.7741 394.0168,42.7741 C399.6738,42.7741 404.2598,47.3601 404.2598,53.0171" id="Fill-43" fill="#4A474B" fill-rule="nonzero" mask="url(#mask-24)"></path>
                </g>
                <g id="Fill-44-Clipped">
                    <mask id="mask-26" fill="white">
                        <use xlink:href="#path-25"></use>
                    </mask>
                    <g id="path-3"></g>
                    <path d="M403.3399,53.0171 C403.3399,58.1661 399.1659,62.3401 394.0169,62.3401 C388.8679,62.3401 384.6939,58.1661 384.6939,53.0171 C384.6939,47.8691 388.8679,43.6941 394.0169,43.6941 C399.1659,43.6941 403.3399,47.8691 403.3399,53.0171" id="Fill-44" fill="#0A0909" fill-rule="nonzero" mask="url(#mask-26)"></path>
                </g>
                <g id="Fill-45-Clipped">
                    <mask id="mask-28" fill="white">
                        <use xlink:href="#path-27"></use>
                    </mask>
                    <g id="path-3"></g>
                    <path d="M397.9659,53.0171 C397.9659,55.1991 396.1979,56.9661 394.0169,56.9661 C391.8359,56.9661 390.0679,55.1991 390.0679,53.0171 C390.0679,50.8361 391.8359,49.0681 394.0169,49.0681 C396.1979,49.0681 397.9659,50.8361 397.9659,53.0171" id="Fill-45" fill="#F2F3F5" fill-rule="nonzero" mask="url(#mask-28)"></path>
                </g>
                <g id="Fill-46-Clipped">
                    <mask id="mask-30" fill="white">
                        <use xlink:href="#path-29"></use>
                    </mask>
                    <g id="path-3"></g>
                    <path d="M268.3521,53.1528 C268.3521,58.8098 263.7661,63.3958 258.1091,63.3958 C252.4521,63.3958 247.8661,58.8098 247.8661,53.1528 C247.8661,47.4958 252.4521,42.9098 258.1091,42.9098 C263.7661,42.9098 268.3521,47.4958 268.3521,53.1528" id="Fill-46" fill="#4A474B" fill-rule="nonzero" mask="url(#mask-30)"></path>
                </g>
                <g id="Fill-47-Clipped">
                    <mask id="mask-32" fill="white">
                        <use xlink:href="#path-31"></use>
                    </mask>
                    <g id="path-3"></g>
                    <path d="M267.4322,53.1528 C267.4322,58.3018 263.2582,62.4758 258.1092,62.4758 C252.9602,62.4758 248.7862,58.3018 248.7862,53.1528 C248.7862,48.0048 252.9602,43.8298 258.1092,43.8298 C263.2582,43.8298 267.4322,48.0048 267.4322,53.1528" id="Fill-47" fill="#0A0909" fill-rule="nonzero" mask="url(#mask-32)"></path>
                </g>
                <g id="Fill-48-Clipped">
                    <mask id="mask-34" fill="white">
                        <use xlink:href="#path-33"></use>
                    </mask>
                    <g id="path-3"></g>
                    <path d="M264.5904,53.1528 C264.5904,56.7328 261.6884,59.6348 258.1094,59.6348 C254.5294,59.6348 251.6274,56.7328 251.6274,53.1528 C251.6274,49.5738 254.5294,46.6718 258.1094,46.6718 C261.6884,46.6718 264.5904,49.5738 264.5904,53.1528" id="Fill-48" fill="#F2F3F5" fill-rule="nonzero" mask="url(#mask-34)"></path>
                </g>
                <g id="Fill-49-Clipped">
                    <mask id="mask-36" fill="white">
                        <use xlink:href="#path-35"></use>
                    </mask>
                    <g id="path-3"></g>
                    <path d="M262.2837,53.1528 C262.2837,55.4588 260.4147,57.3278 258.1087,57.3278 C255.8037,57.3278 253.9337,55.4588 253.9337,53.1528 C253.9337,50.8468 255.8037,48.9778 258.1087,48.9778 C260.4147,48.9778 262.2837,50.8468 262.2837,53.1528" id="Fill-49" fill="#0A0909" fill-rule="nonzero" mask="url(#mask-36)"></path>
                </g>
                <g id="Fill-50-Clipped">
                    <mask id="mask-38" fill="white">
                        <use xlink:href="#path-37"></use>
                    </mask>
                    <g id="path-3"></g>
                    <path d="M241.3199,53.1528 C241.3199,58.8098 236.7339,63.3958 231.0769,63.3958 C225.4199,63.3958 220.8339,58.8098 220.8339,53.1528 C220.8339,47.4958 225.4199,42.9098 231.0769,42.9098 C236.7339,42.9098 241.3199,47.4958 241.3199,53.1528" id="Fill-50" fill="#4A474B" fill-rule="nonzero" mask="url(#mask-38)"></path>
                </g>
                <g id="Fill-51-Clipped">
                    <mask id="mask-40" fill="white">
                        <use xlink:href="#path-39"></use>
                    </mask>
                    <g id="path-3"></g>
                    <path d="M240.3999,53.1528 C240.3999,58.3018 236.2259,62.4758 231.0769,62.4758 C225.9279,62.4758 221.7539,58.3018 221.7539,53.1528 C221.7539,48.0048 225.9279,43.8298 231.0769,43.8298 C236.2259,43.8298 240.3999,48.0048 240.3999,53.1528" id="Fill-51" fill="#0A0909" fill-rule="nonzero" mask="url(#mask-40)"></path>
                </g>
                <g id="Fill-52-Clipped">
                    <mask id="mask-42" fill="white">
                        <use xlink:href="#path-41"></use>
                    </mask>
                    <g id="path-3"></g>
                    <path d="M237.5586,53.1528 C237.5586,56.7328 234.6566,59.6348 231.0766,59.6348 C227.4966,59.6348 224.5956,56.7328 224.5956,53.1528 C224.5956,49.5738 227.4966,46.6718 231.0766,46.6718 C234.6566,46.6718 237.5586,49.5738 237.5586,53.1528" id="Fill-52" fill="#F2F3F5" fill-rule="nonzero" mask="url(#mask-42)"></path>
                </g>
                <g id="Fill-53-Clipped">
                    <mask id="mask-44" fill="white">
                        <use xlink:href="#path-43"></use>
                    </mask>
                    <g id="path-3"></g>
                    <path d="M235.2515,53.1528 C235.2515,55.4588 233.3825,57.3278 231.0765,57.3278 C228.7715,57.3278 226.9015,55.4588 226.9015,53.1528 C226.9015,50.8468 228.7715,48.9778 231.0765,48.9778 C233.3825,48.9778 235.2515,50.8468 235.2515,53.1528" id="Fill-53" fill="#0A0909" fill-rule="nonzero" mask="url(#mask-44)"></path>
                </g>
                <g id="Fill-54-Clipped">
                    <mask id="mask-46" fill="white">
                        <use xlink:href="#path-45"></use>
                    </mask>
                    <g id="path-3"></g>
                    <path d="M202.6861,53.1528 C202.6861,58.8098 198.1001,63.3958 192.4431,63.3958 C186.7861,63.3958 182.2001,58.8098 182.2001,53.1528 C182.2001,47.4958 186.7861,42.9098 192.4431,42.9098 C198.1001,42.9098 202.6861,47.4958 202.6861,53.1528" id="Fill-54" fill="#4A474B" fill-rule="nonzero" mask="url(#mask-46)"></path>
                </g>
                <g id="Fill-55-Clipped">
                    <mask id="mask-48" fill="white">
                        <use xlink:href="#path-47"></use>
                    </mask>
                    <g id="path-3"></g>
                    <path d="M201.7661,53.1528 C201.7661,58.3018 197.5921,62.4758 192.4431,62.4758 C187.2941,62.4758 183.1201,58.3018 183.1201,53.1528 C183.1201,48.0048 187.2941,43.8298 192.4431,43.8298 C197.5921,43.8298 201.7661,48.0048 201.7661,53.1528" id="Fill-55" fill="#0A0909" fill-rule="nonzero" mask="url(#mask-48)"></path>
                </g>
                <g id="Fill-56-Clipped">
                    <mask id="mask-50" fill="white">
                        <use xlink:href="#path-49"></use>
                    </mask>
                    <g id="path-3"></g>
                    <path d="M198.9243,53.1528 C198.9243,56.7328 196.0223,59.6348 192.4433,59.6348 C188.8633,59.6348 185.9613,56.7328 185.9613,53.1528 C185.9613,49.5738 188.8633,46.6718 192.4433,46.6718 C196.0223,46.6718 198.9243,49.5738 198.9243,53.1528" id="Fill-56" fill="#F2F3F5" fill-rule="nonzero" mask="url(#mask-50)"></path>
                </g>
                <g id="Fill-57-Clipped">
                    <mask id="mask-52" fill="white">
                        <use xlink:href="#path-51"></use>
                    </mask>
                    <g id="path-3"></g>
                    <path d="M196.6177,53.1528 C196.6177,55.4588 194.7487,57.3278 192.4427,57.3278 C190.1377,57.3278 188.2677,55.4588 188.2677,53.1528 C188.2677,50.8468 190.1377,48.9778 192.4427,48.9778 C194.7487,48.9778 196.6177,50.8468 196.6177,53.1528" id="Fill-57" fill="#0A0909" fill-rule="nonzero" mask="url(#mask-52)"></path>
                </g>
                <g id="Fill-58-Clipped">
                    <mask id="mask-54" fill="white">
                        <use xlink:href="#path-53"></use>
                    </mask>
                    <g id="path-3"></g>
                    <path d="M149.3199,53.187 C149.3199,58.844 144.7339,63.43 139.0769,63.43 C133.4199,63.43 128.8339,58.844 128.8339,53.187 C128.8339,47.53 133.4199,42.944 139.0769,42.944 C144.7339,42.944 149.3199,47.53 149.3199,53.187" id="Fill-58" fill="#4A474B" fill-rule="nonzero" mask="url(#mask-54)"></path>
                </g>
                <g id="Fill-59-Clipped">
                    <mask id="mask-56" fill="white">
                        <use xlink:href="#path-55"></use>
                    </mask>
                    <g id="path-3"></g>
                    <path d="M148.3999,53.187 C148.3999,58.336 144.2259,62.51 139.0769,62.51 C133.9279,62.51 129.7539,58.336 129.7539,53.187 C129.7539,48.038 133.9279,43.864 139.0769,43.864 C144.2259,43.864 148.3999,48.038 148.3999,53.187" id="Fill-59" fill="#0A0909" fill-rule="nonzero" mask="url(#mask-56)"></path>
                </g>
                <g id="Fill-60-Clipped">
                    <mask id="mask-58" fill="white">
                        <use xlink:href="#path-57"></use>
                    </mask>
                    <g id="path-3"></g>
                    <path d="M145.5581,53.187 C145.5581,56.767 142.6561,59.668 139.0771,59.668 C135.4971,59.668 132.5951,56.767 132.5951,53.187 C132.5951,49.607 135.4971,46.706 139.0771,46.706 C142.6561,46.706 145.5581,49.607 145.5581,53.187" id="Fill-60" fill="#F2F3F5" fill-rule="nonzero" mask="url(#mask-58)"></path>
                </g>
                <g id="Fill-61-Clipped">
                    <mask id="mask-60" fill="white">
                        <use xlink:href="#path-59"></use>
                    </mask>
                    <g id="path-3"></g>
                    <path d="M140.3843,53.187 C140.3843,53.909 139.7993,54.495 139.0763,54.495 C138.3543,54.495 137.7693,53.909 137.7693,53.187 C137.7693,52.464 138.3543,51.879 139.0763,51.879 C139.7993,51.879 140.3843,52.464 140.3843,53.187" id="Fill-61" fill="#0A0909" fill-rule="nonzero" mask="url(#mask-60)"></path>
                </g>
                <g id="Fill-62-Clipped">
                    <mask id="mask-62" fill="white">
                        <use xlink:href="#path-61"></use>
                    </mask>
                    <g id="path-3"></g>
                    <path d="M105.7437,40.2261 C93.0347,41.2251 80.9227,42.1761 67.5707,43.2261 C70.7107,39.7381 73.1397,37.0391 76.1367,33.7121 C58.9757,29.8791 44.4167,33.8501 31.1057,44.8021 C37.5197,27.4251 56.9417,18.0001 84.0747,18.8641 C85.0907,15.2431 86.1377,11.5071 87.4517,6.8221 C90.8477,12.9801 93.8477,18.3901 96.8187,23.8161 C99.7347,29.1401 102.6197,34.4801 105.7437,40.2261" id="Fill-62" fill="#00C0D2" fill-rule="nonzero" mask="url(#mask-62)"></path>
                </g>
                <g id="Fill-63-Clipped">
                    <mask id="mask-64" fill="white">
                        <use xlink:href="#path-63"></use>
                    </mask>
                    <g id="path-3"></g>
                    <path d="M280.0562,197.0474 C296.0612,198.5594 316.7202,203.7344 326.9232,217.2934 C336.9092,230.5644 334.7022,249.9484 327.4862,264.0004 L345.9472,264.0004 C349.7952,254.2354 351.5222,243.6164 350.0742,231.9834 C344.9252,190.6274 298.2272,178.3394 262.6542,179.5644 C221.8462,180.9694 184.4562,197.6524 146.6512,211.2504 C128.1382,217.9084 109.0652,224.0444 89.4672,226.4674 C70.9542,228.7554 50.3842,228.4734 34.2812,217.8534 C27.1372,213.1414 20.9342,205.9614 18.2542,197.7494 C15.1582,188.2664 17.2982,178.8174 21.0652,169.8324 C29.4132,149.9204 43.8192,128.9524 34.7492,106.5804 C33.0252,102.3264 29.0862,99.3214 24.2882,100.6414 C20.2552,101.7484 16.6132,106.8194 18.3492,111.1014 C25.6222,129.0424 12.4702,146.9284 5.6872,162.8814 C-1.6508,180.1394 -2.8538,198.6704 7.8632,214.8584 C30.3832,248.8744 75.8772,247.7354 111.2772,239.7444 C149.6452,231.0824 184.8732,212.5924 222.8992,202.7964 C241.5452,197.9934 260.7912,195.2294 280.0562,197.0474" id="Fill-63" fill="#EDEAD3" fill-rule="nonzero" mask="url(#mask-64)"></path>
                </g>
                <g id="Fill-64-Clipped">
                    <mask id="mask-66" fill="white">
                        <use xlink:href="#path-65"></use>
                    </mask>
                    <g id="path-3"></g>
                    <polygon id="Fill-64" fill="#C3AE95" fill-rule="nonzero" mask="url(#mask-66)" points="27.142 72.509 29.307 72.509 29.307 50.54 27.142 50.54"></polygon>
                </g>
                <g id="Fill-65-Clipped">
                    <mask id="mask-68" fill="white">
                        <use xlink:href="#path-67"></use>
                    </mask>
                    <g id="path-3"></g>
                    <polygon id="Fill-65" fill="#343434" fill-rule="nonzero" mask="url(#mask-68)" points="15.794 91.688 40.401 91.688 40.401 88.985 15.794 88.985"></polygon>
                </g>
                <g id="Fill-66-Clipped">
                    <mask id="mask-70" fill="white">
                        <use xlink:href="#path-69"></use>
                    </mask>
                    <g id="path-3"></g>
                    <polygon id="Fill-66" fill="#00B9FA" fill-rule="nonzero" mask="url(#mask-70)" points="11.893 133.708 44.302 133.708 44.302 129.688 11.893 129.688"></polygon>
                </g>
                <g id="Fill-67-Clipped">
                    <mask id="mask-72" fill="white">
                        <use xlink:href="#path-71"></use>
                    </mask>
                    <g id="path-3"></g>
                    <polygon id="Fill-67" fill="#CFCFCF" fill-rule="nonzero" mask="url(#mask-72)" points="15.794 100.476 40.401 100.476 40.401 91.645 15.794 91.645"></polygon>
                </g>
                <g id="Fill-68-Clipped">
                    <mask id="mask-74" fill="white">
                        <use xlink:href="#path-73"></use>
                    </mask>
                    <g id="path-3"></g>
                    <polygon id="Fill-68" fill="#B2B2B2" fill-rule="nonzero" mask="url(#mask-74)" points="15.794 74.083 40.401 74.083 40.401 65.251 15.794 65.251"></polygon>
                </g>
                <g id="Fill-69-Clipped">
                    <mask id="mask-76" fill="white">
                        <use xlink:href="#path-75"></use>
                    </mask>
                    <g id="path-3"></g>
                    <polygon id="Fill-69" fill="#CFCFCF" fill-rule="nonzero" mask="url(#mask-76)" points="11.893 88.816 44.302 88.816 44.302 73.706 11.893 73.706"></polygon>
                </g>
                <g id="Fill-70-Clipped">
                    <mask id="mask-78" fill="white">
                        <use xlink:href="#path-77"></use>
                    </mask>
                    <g id="path-3"></g>
                    <polygon id="Fill-70" fill="#999999" fill-rule="nonzero" mask="url(#mask-78)" points="28.097 88.816 44.302 88.816 44.302 73.706 28.097 73.706"></polygon>
                </g>
                <g id="Fill-71-Clipped">
                    <mask id="mask-80" fill="white">
                        <use xlink:href="#path-79"></use>
                    </mask>
                    <g id="path-3"></g>
                    <polygon id="Fill-71" fill="#B2B2B2" fill-rule="nonzero" mask="url(#mask-80)" points="11.893 130.422 44.302 130.422 44.302 98.014 11.893 98.014"></polygon>
                </g>
                <g id="Fill-72-Clipped">
                    <mask id="mask-82" fill="white">
                        <use xlink:href="#path-81"></use>
                    </mask>
                    <g id="path-3"></g>
                    <polygon id="Fill-72" fill="#999999" fill-rule="nonzero" mask="url(#mask-82)" points="37.509 130.422 44.302 130.422 44.302 98.145 37.509 98.145"></polygon>
                </g>
            </g>
        </g>
    </g>
</svg>