<?xml version="1.0" encoding="UTF-8"?>
<svg width="591px" height="329px" viewBox="0 0 591 329" version="1.1" xmlns="http://www.w3.org/2000/svg" xmlns:xlink="http://www.w3.org/1999/xlink">
    <title>decodificador_desligar_tomada</title>
    <defs>
        <polygon id="path-1" points="330.8623 286 0 286 0 0.503 504.628 0.503 504.628 286 330.8623 286 330.8623 269.0001 17.5153 269.0001 17.5153 286.0001 330.8623 286.0001"></polygon>
        <polygon id="path-3" points="7.08587106e-15 102.669 7.08587106e-15 0.481 348.4707 0.481 348.4707 102.669"></polygon>
        <polygon id="path-5" points="0 286 504.628 286 504.628 0.503 0 0.503"></polygon>
        <polygon id="path-7" points="0 286 504.628 286 504.628 0.503 0 0.503"></polygon>
        <polygon id="path-9" points="0 286 504.628 286 504.628 0.503 0 0.503"></polygon>
        <polygon id="path-11" points="0 286 504.628 286 504.628 0.503 0 0.503"></polygon>
        <polygon id="path-13" points="0 286 504.628 286 504.628 0.503 0 0.503"></polygon>
        <polygon id="path-15" points="0 286 504.628 286 504.628 0.503 0 0.503"></polygon>
        <polygon id="path-17" points="0 286 504.628 286 504.628 0.503 0 0.503"></polygon>
        <polygon id="path-19" points="0 286 504.628 286 504.628 0.503 0 0.503"></polygon>
        <polygon id="path-21" points="0 286 504.628 286 504.628 0.503 0 0.503"></polygon>
        <polygon id="path-23" points="0 286 504.628 286 504.628 0.503 0 0.503"></polygon>
        <polygon id="path-25" points="0 286 504.628 286 504.628 0.503 0 0.503"></polygon>
        <polygon id="path-27" points="0 286 504.628 286 504.628 0.503 0 0.503"></polygon>
        <polygon id="path-29" points="0 286 504.628 286 504.628 0.503 0 0.503"></polygon>
        <polygon id="path-31" points="0 286 504.628 286 504.628 0.503 0 0.503"></polygon>
        <polygon id="path-33" points="0 286 504.628 286 504.628 0.503 0 0.503"></polygon>
        <polygon id="path-35" points="0 286 504.628 286 504.628 0.503 0 0.503"></polygon>
        <polygon id="path-37" points="0 286 504.628 286 504.628 0.503 0 0.503"></polygon>
        <polygon id="path-39" points="0 286 504.628 286 504.628 0.503 0 0.503"></polygon>
        <polygon id="path-41" points="0 286 504.628 286 504.628 0.503 0 0.503"></polygon>
        <polygon id="path-43" points="0 286 504.628 286 504.628 0.503 0 0.503"></polygon>
        <polygon id="path-45" points="0 286 504.628 286 504.628 0.503 0 0.503"></polygon>
        <polygon id="path-47" points="0 286 504.628 286 504.628 0.503 0 0.503"></polygon>
        <polygon id="path-49" points="0 286 504.628 286 504.628 0.503 0 0.503"></polygon>
        <polygon id="path-51" points="0 286 504.628 286 504.628 0.503 0 0.503"></polygon>
        <polygon id="path-53" points="0 286 504.628 286 504.628 0.503 0 0.503"></polygon>
        <polygon id="path-55" points="0 286 504.628 286 504.628 0.503 0 0.503"></polygon>
        <polygon id="path-57" points="0 286 504.628 286 504.628 0.503 0 0.503"></polygon>
        <polygon id="path-59" points="0 286 504.628 286 504.628 0.503 0 0.503"></polygon>
        <polygon id="path-61" points="0 286 504.628 286 504.628 0.503 0 0.503"></polygon>
        <polygon id="path-63" points="0 286 504.628 286 504.628 0.503 0 0.503"></polygon>
        <polygon id="path-65" points="0 286 504.628 286 504.628 0.503 0 0.503"></polygon>
        <polygon id="path-67" points="0 286 504.628 286 504.628 0.503 0 0.503"></polygon>
        <polygon id="path-69" points="0 286 504.628 286 504.628 0.503 0 0.503"></polygon>
        <polygon id="path-71" points="0 286 504.628 286 504.628 0.503 0 0.503"></polygon>
        <polygon id="path-73" points="0 286 504.628 286 504.628 0.503 0 0.503"></polygon>
        <polygon id="path-75" points="0 286 504.628 286 504.628 0.503 0 0.503"></polygon>
        <polygon id="path-77" points="0 286 504.628 286 504.628 0.503 0 0.503"></polygon>
        <polygon id="path-79" points="0 286 504.628 286 504.628 0.503 0 0.503"></polygon>
        <polygon id="path-81" points="0 286 504.628 286 504.628 0.503 0 0.503"></polygon>
        <polygon id="path-83" points="0 286 504.628 286 504.628 0.503 0 0.503"></polygon>
        <polygon id="path-85" points="0 286 504.628 286 504.628 0.503 0 0.503"></polygon>
        <polygon id="path-87" points="0 286 504.628 286 504.628 0.503 0 0.503"></polygon>
        <polygon id="path-89" points="0 286 504.628 286 504.628 0.503 0 0.503"></polygon>
        <polygon id="path-91" points="0 286 504.628 286 504.628 0.503 0 0.503"></polygon>
    </defs>
    <g id="Page-1" stroke="none" stroke-width="1" fill="none" fill-rule="evenodd">
        <g id="decodificador_desligar_tomada" transform="translate(43.000000, 18.000000)">
            <g id="Group-23" transform="translate(0.000000, 0.497000)">
                <g id="Group-3">
                    <g id="Fill-1-Clipped">
                        <mask id="mask-2" fill="white">
                            <use xlink:href="#path-1"></use>
                        </mask>
                        <g id="path-1"></g>
                        <path d="M322.3623,286.0001 L26.0143,286.0001 C21.3403,286.0001 17.5153,282.1751 17.5153,277.5001 C17.5153,272.8251 21.3403,269.0001 26.0143,269.0001 L322.3623,269.0001 C327.0373,269.0001 330.8623,272.8251 330.8623,277.5001 C330.8623,282.1751 327.0373,286.0001 322.3623,286.0001" id="Fill-1" fill="#D5DAE2" fill-rule="nonzero" mask="url(#mask-2)"></path>
                    </g>
                </g>
                <path d="M22.0234,261.5001 L22.0234,267.0361 C22.0234,272.6151 25.3564,276.5001 28.5644,276.5001 L74.5274,276.5001 C77.7354,276.5001 79.0234,272.6151 79.0234,267.0361 L79.0234,261.5001 L22.0234,261.5001 Z" id="Fill-4" fill="#2D2B2C" fill-rule="nonzero"></path>
                <path d="M269.0234,261.5001 L269.0234,267.0361 C269.0234,272.6151 271.9814,276.5001 275.1894,276.5001 L321.1514,276.5001 C324.3594,276.5001 326.0234,272.6151 326.0234,267.0361 L326.0234,261.5001 L269.0234,261.5001 Z" id="Fill-6" fill="#2D2B2C" fill-rule="nonzero"></path>
                <g id="Group-10" transform="translate(0.000000, 160.000000)">
                    <g id="Fill-8-Clipped">
                        <mask id="mask-4" fill="white">
                            <use xlink:href="#path-3"></use>
                        </mask>
                        <g id="path-3"></g>
                        <path d="M330.7827,102.669 L17.6887,102.669 C7.9597,102.669 -0.0003,94.709 -0.0003,84.981 L-0.0003,18.17 C-0.0003,8.441 7.9597,0.481 17.6887,0.481 L330.7827,0.481 C340.5117,0.481 348.4707,8.441 348.4707,18.17 L348.4707,84.981 C348.4707,94.709 340.5117,102.669 330.7827,102.669" id="Fill-8" fill="#645E5E" fill-rule="nonzero" mask="url(#mask-4)"></path>
                    </g>
                </g>
                <path d="M337.0234,161.8155 L337.0234,261.2815 C344.0234,258.7805 348.0234,252.6535 348.0234,245.2405 L348.0234,178.4295 C348.0234,171.0155 344.0234,164.5025 337.0234,161.8155" id="Fill-11" fill="#2D2B2C" fill-rule="nonzero"></path>
                <path d="M125.1987,198.4659 C123.9587,198.4659 122.9487,199.5279 122.9487,200.8329 L122.9487,223.7239 C122.9487,225.0289 123.9587,226.0909 125.1987,226.0909 L180.4477,226.0909 C181.6877,226.0909 182.6977,225.0289 182.6977,223.7239 L182.6977,200.8329 C182.6977,199.5279 181.6877,198.4659 180.4477,198.4659 L125.1987,198.4659 Z M180.4477,227.7779 L125.1987,227.7779 C123.0737,227.7779 121.3447,225.9589 121.3447,223.7239 L121.3447,200.8329 C121.3447,198.5979 123.0737,196.7789 125.1987,196.7789 L180.4477,196.7789 C182.5717,196.7789 184.3017,198.5979 184.3017,200.8329 L184.3017,223.7239 C184.3017,225.9589 182.5717,227.7779 180.4477,227.7779 L180.4477,227.7779 Z" id="Fill-13" fill="#808080" fill-rule="nonzero"></path>
                <path d="M86.166,198.4659 C84.925,198.4659 83.916,199.5279 83.916,200.8329 L83.916,223.7239 C83.916,225.0289 84.925,226.0909 86.166,226.0909 L114.458,226.0909 C115.699,226.0909 116.708,225.0289 116.708,223.7239 L116.708,200.8329 C116.708,199.5279 115.699,198.4659 114.458,198.4659 L86.166,198.4659 Z M114.458,227.7779 L86.166,227.7779 C84.041,227.7779 82.312,225.9589 82.312,223.7239 L82.312,200.8329 C82.312,198.5979 84.041,196.7789 86.166,196.7789 L114.458,196.7789 C116.583,196.7789 118.312,198.5979 118.312,200.8329 L118.312,223.7239 C118.312,225.9589 116.583,227.7779 114.458,227.7779 L114.458,227.7779 Z" id="Fill-15" fill="#808080" fill-rule="nonzero"></path>
                <path d="M204.499,198.4659 C203.259,198.4659 202.249,199.5279 202.249,200.8329 L202.249,223.7239 C202.249,225.0289 203.259,226.0909 204.499,226.0909 L232.791,226.0909 C234.032,226.0909 235.041,225.0289 235.041,223.7239 L235.041,200.8329 C235.041,199.5279 234.032,198.4659 232.791,198.4659 L204.499,198.4659 Z M232.791,227.7779 L204.499,227.7779 C202.374,227.7779 200.645,225.9589 200.645,223.7239 L200.645,200.8329 C200.645,198.5979 202.374,196.7789 204.499,196.7789 L232.791,196.7789 C234.916,196.7789 236.645,198.5979 236.645,200.8329 L236.645,223.7239 C236.645,225.9589 234.916,227.7779 232.791,227.7779 L232.791,227.7779 Z" id="Fill-17" fill="#808080" fill-rule="nonzero"></path>
                <path d="M32.916,198.4659 C31.675,198.4659 30.666,199.5279 30.666,200.8329 L30.666,223.7239 C30.666,225.0289 31.675,226.0909 32.916,226.0909 L61.208,226.0909 C62.449,226.0909 63.458,225.0289 63.458,223.7239 L63.458,200.8329 C63.458,199.5279 62.449,198.4659 61.208,198.4659 L32.916,198.4659 Z M61.208,227.7779 L32.916,227.7779 C30.791,227.7779 29.062,225.9589 29.062,223.7239 L29.062,200.8329 C29.062,198.5979 30.791,196.7789 32.916,196.7789 L61.208,196.7789 C63.333,196.7789 65.062,198.5979 65.062,200.8329 L65.062,223.7239 C65.062,225.9589 63.333,227.7779 61.208,227.7779 L61.208,227.7779 Z" id="Fill-19" fill="#808080" fill-rule="nonzero"></path>
                <g id="Fill-21-Clipped">
                    <mask id="mask-6" fill="white">
                        <use xlink:href="#path-5"></use>
                    </mask>
                    <g id="path-5"></g>
                    <polygon id="Fill-21" fill="#2D2B2C" fill-rule="nonzero" mask="url(#mask-6)" points="30.727 240.494 63.098 240.494 63.098 230.828 30.727 230.828"></polygon>
                </g>
            </g>
            <g id="ANTENA" transform="translate(34.000000, 231.000000)" fill="#FFFFFF" font-family="SimplonOi-Headline, Simplon Oi" font-size="7" font-weight="500">
                <text>
                    <tspan x="0.333" y="6.5859">ANTENA</tspan>
                </text>
            </g>
            <g id="Group-27" transform="translate(83.000000, 194.497000)" fill="#2D2B2C" fill-rule="nonzero">
                <polygon id="Fill-24" points="0.805 46.524 98.872 46.524 98.872 36.858 0.805 36.858"></polygon>
                <polygon id="Fill-26" points="196.257 47.495 242.83 47.495 242.83 0.923 196.257 0.923"></polygon>
            </g>
            <g id="AV-/-OUT" transform="translate(119.000000, 231.000000)" fill="#FFFFFF" font-family="SimplonOi-Headline, Simplon Oi" font-size="7" font-weight="500">
                <text id="A">
                    <tspan x="0.8501" y="6.6161">A</tspan>
                </text>
                <text id="V-/-OUT">
                    <tspan x="4.0281" y="6.6161">V / OUT</tspan>
                </text>
            </g>
            <g id="12V---1.5-A" transform="translate(285.000000, 231.000000)" fill="#FFFFFF" font-family="SimplonOi-Headline, Simplon Oi" font-size="7" font-weight="500">
                <text id="1">
                    <tspan x="0.5961" y="6.6161">1</tspan>
                </text>
                <text id="2V--">
                    <tspan x="4.2361" y="6.6161">2V -</tspan>
                </text>
                <text id="1">
                    <tspan x="18.1171" y="6.6161">1</tspan>
                </text>
                <text id=".5-A">
                    <tspan x="22.0644" y="6.6161">.5 A</tspan>
                </text>
            </g>
            <g id="Group-78" transform="translate(0.000000, 0.497000)">
                <path d="M228.6279,223.3184 L208.6629,223.3184 C208.0809,223.3184 207.6049,222.8424 207.6049,222.2604 L207.6049,202.2964 C207.6049,201.7144 208.0809,201.2374 208.6629,201.2374 L228.6279,201.2374 C229.2099,201.2374 229.6859,201.7144 229.6859,202.2964 L229.6859,222.2604 C229.6859,222.8424 229.2099,223.3184 228.6279,223.3184 Z" id="Fill-28" fill="#F2F3F5" fill-rule="nonzero"></path>
                <path d="M208.6631,201.6212 C208.2911,201.6212 207.9891,201.9242 207.9891,202.2962 L207.9891,222.2612 C207.9891,222.6332 208.2911,222.9342 208.6631,222.9342 L228.6281,222.9342 C228.9991,222.9342 229.3021,222.6332 229.3021,222.2612 L229.3021,202.2962 C229.3021,201.9242 228.9991,201.6212 228.6281,201.6212 L208.6631,201.6212 Z M228.6281,223.7032 L208.6631,223.7032 C207.8681,223.7032 207.2211,223.0562 207.2211,222.2612 L207.2211,202.2962 C207.2211,201.5012 207.8681,200.8532 208.6631,200.8532 L228.6281,200.8532 C229.4231,200.8532 230.0701,201.5012 230.0701,202.2962 L230.0701,222.2612 C230.0701,223.0562 229.4231,223.7032 228.6281,223.7032 L228.6281,223.7032 Z" id="Fill-30" fill="#5B5B5D" fill-rule="nonzero"></path>
                <polygon id="Fill-32" fill="#5A5A5C" fill-rule="nonzero" points="218.5156 203.5001 209.7626 203.5001 209.7626 213.5001 212.7626 213.5001 212.7626 216.5001 215.7626 216.5001 215.7626 219.5001 218.5156 219.5001 221.7626 219.5001 221.7626 216.5001 224.7626 216.5001 224.7626 213.5001 227.7626 213.5001 227.7626 203.5001"></polygon>
                <g id="Fill-34-Clipped">
                    <mask id="mask-8" fill="white">
                        <use xlink:href="#path-7"></use>
                    </mask>
                    <g id="path-7"></g>
                    <polygon id="Fill-34" fill="#3F4243" fill-rule="nonzero" mask="url(#mask-8)" points="209.763 204.5 227.763 204.5 227.763 203.5 209.763 203.5"></polygon>
                </g>
                <g id="Fill-36-Clipped">
                    <mask id="mask-10" fill="white">
                        <use xlink:href="#path-9"></use>
                    </mask>
                    <g id="path-7"></g>
                    <polygon id="Fill-36" fill="#3F4243" fill-rule="nonzero" mask="url(#mask-10)" points="209.763 213.5 212.763 213.5 212.763 212.5 209.763 212.5"></polygon>
                </g>
                <g id="Fill-37-Clipped">
                    <mask id="mask-12" fill="white">
                        <use xlink:href="#path-11"></use>
                    </mask>
                    <g id="path-7"></g>
                    <polygon id="Fill-37" fill="#3F4243" fill-rule="nonzero" mask="url(#mask-12)" points="224.763 213.5 227.763 213.5 227.763 212.5 224.763 212.5"></polygon>
                </g>
                <g id="Fill-38-Clipped">
                    <mask id="mask-14" fill="white">
                        <use xlink:href="#path-13"></use>
                    </mask>
                    <g id="path-7"></g>
                    <polygon id="Fill-38" fill="#3F4243" fill-rule="nonzero" mask="url(#mask-14)" points="212.763 216.5 215.763 216.5 215.763 215.5 212.763 215.5"></polygon>
                </g>
                <g id="Fill-39-Clipped">
                    <mask id="mask-16" fill="white">
                        <use xlink:href="#path-15"></use>
                    </mask>
                    <g id="path-7"></g>
                    <polygon id="Fill-39" fill="#3F4243" fill-rule="nonzero" mask="url(#mask-16)" points="215.763 219.5 221.763 219.5 221.763 218.5 215.763 218.5"></polygon>
                </g>
                <g id="Fill-40-Clipped">
                    <mask id="mask-18" fill="white">
                        <use xlink:href="#path-17"></use>
                    </mask>
                    <g id="path-7"></g>
                    <polygon id="Fill-40" fill="#3F4243" fill-rule="nonzero" mask="url(#mask-18)" points="221.763 216.5 224.763 216.5 224.763 215.5 221.763 215.5"></polygon>
                </g>
                <g id="Fill-41-Clipped">
                    <mask id="mask-20" fill="white">
                        <use xlink:href="#path-19"></use>
                    </mask>
                    <g id="path-7"></g>
                    <polygon id="Fill-41" fill="#BDBEC2" fill-rule="nonzero" mask="url(#mask-20)" points="216.542 210.028 217.982 210.028 217.982 204.814 216.542 204.814"></polygon>
                </g>
                <g id="Fill-42-Clipped">
                    <mask id="mask-22" fill="white">
                        <use xlink:href="#path-21"></use>
                    </mask>
                    <g id="path-7"></g>
                    <polygon id="Fill-42" fill="#BDBEC2" fill-rule="nonzero" mask="url(#mask-22)" points="214.174 210.028 215.614 210.028 215.614 204.814 214.174 204.814"></polygon>
                </g>
                <g id="Fill-43-Clipped">
                    <mask id="mask-24" fill="white">
                        <use xlink:href="#path-23"></use>
                    </mask>
                    <g id="path-7"></g>
                    <polygon id="Fill-43" fill="#BDBEC2" fill-rule="nonzero" mask="url(#mask-24)" points="218.91 210.028 220.35 210.028 220.35 204.814 218.91 204.814"></polygon>
                </g>
                <g id="Fill-44-Clipped">
                    <mask id="mask-26" fill="white">
                        <use xlink:href="#path-25"></use>
                    </mask>
                    <g id="path-7"></g>
                    <polygon id="Fill-44" fill="#BDBEC2" fill-rule="nonzero" mask="url(#mask-26)" points="221.278 210.028 222.718 210.028 222.718 204.814 221.278 204.814"></polygon>
                </g>
                <g id="Fill-45-Clipped">
                    <mask id="mask-28" fill="white">
                        <use xlink:href="#path-27"></use>
                    </mask>
                    <g id="path-7"></g>
                    <path d="M312.1289,212.9981 C312.1289,218.6551 307.5429,223.2411 301.8859,223.2411 C296.2289,223.2411 291.6429,218.6551 291.6429,212.9981 C291.6429,207.3411 296.2289,202.7551 301.8859,202.7551 C307.5429,202.7551 312.1289,207.3411 312.1289,212.9981" id="Fill-45" fill="#0A0909" fill-rule="nonzero" mask="url(#mask-28)"></path>
                </g>
                <g id="Fill-46-Clipped">
                    <mask id="mask-30" fill="white">
                        <use xlink:href="#path-29"></use>
                    </mask>
                    <g id="path-7"></g>
                    <path d="M311.209,212.9981 C311.209,218.1471 307.035,222.3211 301.886,222.3211 C296.737,222.3211 292.563,218.1471 292.563,212.9981 C292.563,207.8501 296.737,203.6751 301.886,203.6751 C307.035,203.6751 311.209,207.8501 311.209,212.9981" id="Fill-46" fill="#0A0909" fill-rule="nonzero" mask="url(#mask-30)"></path>
                </g>
                <g id="Fill-47-Clipped">
                    <mask id="mask-32" fill="white">
                        <use xlink:href="#path-31"></use>
                    </mask>
                    <g id="path-7"></g>
                    <path d="M309.7207,213.0001 C309.7207,217.3271 306.2127,220.8351 301.8857,220.8351 C297.5587,220.8351 294.0507,217.3271 294.0507,213.0001 C294.0507,208.6731 297.5587,205.1651 301.8857,205.1651 C306.2127,205.1651 309.7207,208.6731 309.7207,213.0001" id="Fill-47" fill="#141414" fill-rule="nonzero" mask="url(#mask-32)"></path>
                </g>
                <g id="Fill-48-Clipped">
                    <mask id="mask-34" fill="white">
                        <use xlink:href="#path-33"></use>
                    </mask>
                    <g id="path-7"></g>
                    <path d="M176.2212,213.1339 C176.2212,218.7909 171.6352,223.3769 165.9782,223.3769 C160.3212,223.3769 155.7352,218.7909 155.7352,213.1339 C155.7352,207.4779 160.3212,202.8909 165.9782,202.8909 C171.6352,202.8909 176.2212,207.4779 176.2212,213.1339" id="Fill-48" fill="#4A474B" fill-rule="nonzero" mask="url(#mask-34)"></path>
                </g>
                <g id="Fill-49-Clipped">
                    <mask id="mask-36" fill="white">
                        <use xlink:href="#path-35"></use>
                    </mask>
                    <g id="path-7"></g>
                    <path d="M175.3013,213.1339 C175.3013,218.2829 171.1273,222.4579 165.9783,222.4579 C160.8293,222.4579 156.6553,218.2829 156.6553,213.1339 C156.6553,207.9859 160.8293,203.8109 165.9783,203.8109 C171.1273,203.8109 175.3013,207.9859 175.3013,213.1339" id="Fill-49" fill="#0A0909" fill-rule="nonzero" mask="url(#mask-36)"></path>
                </g>
                <g id="Fill-50-Clipped">
                    <mask id="mask-38" fill="white">
                        <use xlink:href="#path-37"></use>
                    </mask>
                    <g id="path-7"></g>
                    <path d="M172.4595,213.1339 C172.4595,216.7139 169.5575,219.6159 165.9785,219.6159 C162.3985,219.6159 159.4965,216.7139 159.4965,213.1339 C159.4965,209.5549 162.3985,206.6529 165.9785,206.6529 C169.5575,206.6529 172.4595,209.5549 172.4595,213.1339" id="Fill-50" fill="#F2F3F5" fill-rule="nonzero" mask="url(#mask-38)"></path>
                </g>
                <g id="Fill-51-Clipped">
                    <mask id="mask-40" fill="white">
                        <use xlink:href="#path-39"></use>
                    </mask>
                    <g id="path-7"></g>
                    <path d="M170.1528,213.1339 C170.1528,215.4399 168.2838,217.3089 165.9778,217.3089 C163.6728,217.3089 161.8028,215.4399 161.8028,213.1339 C161.8028,210.8289 163.6728,208.9599 165.9778,208.9599 C168.2838,208.9599 170.1528,210.8289 170.1528,213.1339" id="Fill-51" fill="#0A0909" fill-rule="nonzero" mask="url(#mask-40)"></path>
                </g>
                <g id="Fill-52-Clipped">
                    <mask id="mask-42" fill="white">
                        <use xlink:href="#path-41"></use>
                    </mask>
                    <g id="path-7"></g>
                    <path d="M149.189,213.1339 C149.189,218.7909 144.603,223.3769 138.946,223.3769 C133.289,223.3769 128.703,218.7909 128.703,213.1339 C128.703,207.4779 133.289,202.8909 138.946,202.8909 C144.603,202.8909 149.189,207.4779 149.189,213.1339" id="Fill-52" fill="#4A474B" fill-rule="nonzero" mask="url(#mask-42)"></path>
                </g>
                <g id="Fill-53-Clipped">
                    <mask id="mask-44" fill="white">
                        <use xlink:href="#path-43"></use>
                    </mask>
                    <g id="path-7"></g>
                    <path d="M148.269,213.1339 C148.269,218.2829 144.095,222.4579 138.946,222.4579 C133.797,222.4579 129.623,218.2829 129.623,213.1339 C129.623,207.9859 133.797,203.8109 138.946,203.8109 C144.095,203.8109 148.269,207.9859 148.269,213.1339" id="Fill-53" fill="#0A0909" fill-rule="nonzero" mask="url(#mask-44)"></path>
                </g>
                <g id="Fill-54-Clipped">
                    <mask id="mask-46" fill="white">
                        <use xlink:href="#path-45"></use>
                    </mask>
                    <g id="path-7"></g>
                    <path d="M145.4277,213.1339 C145.4277,216.7139 142.5257,219.6159 138.9457,219.6159 C135.3657,219.6159 132.4647,216.7139 132.4647,213.1339 C132.4647,209.5549 135.3657,206.6529 138.9457,206.6529 C142.5257,206.6529 145.4277,209.5549 145.4277,213.1339" id="Fill-54" fill="#F2F3F5" fill-rule="nonzero" mask="url(#mask-46)"></path>
                </g>
                <g id="Fill-55-Clipped">
                    <mask id="mask-48" fill="white">
                        <use xlink:href="#path-47"></use>
                    </mask>
                    <g id="path-7"></g>
                    <path d="M143.1206,213.1339 C143.1206,215.4399 141.2516,217.3089 138.9456,217.3089 C136.6406,217.3089 134.7706,215.4399 134.7706,213.1339 C134.7706,210.8289 136.6406,208.9599 138.9456,208.9599 C141.2516,208.9599 143.1206,210.8289 143.1206,213.1339" id="Fill-55" fill="#0A0909" fill-rule="nonzero" mask="url(#mask-48)"></path>
                </g>
                <g id="Fill-56-Clipped">
                    <mask id="mask-50" fill="white">
                        <use xlink:href="#path-49"></use>
                    </mask>
                    <g id="path-7"></g>
                    <path d="M110.5552,213.1339 C110.5552,218.7909 105.9692,223.3769 100.3122,223.3769 C94.6552,223.3769 90.0692,218.7909 90.0692,213.1339 C90.0692,207.4779 94.6552,202.8909 100.3122,202.8909 C105.9692,202.8909 110.5552,207.4779 110.5552,213.1339" id="Fill-56" fill="#4A474B" fill-rule="nonzero" mask="url(#mask-50)"></path>
                </g>
                <g id="Fill-57-Clipped">
                    <mask id="mask-52" fill="white">
                        <use xlink:href="#path-51"></use>
                    </mask>
                    <g id="path-7"></g>
                    <path d="M109.6353,213.1339 C109.6353,218.2829 105.4613,222.4579 100.3123,222.4579 C95.1633,222.4579 90.9893,218.2829 90.9893,213.1339 C90.9893,207.9859 95.1633,203.8109 100.3123,203.8109 C105.4613,203.8109 109.6353,207.9859 109.6353,213.1339" id="Fill-57" fill="#0A0909" fill-rule="nonzero" mask="url(#mask-52)"></path>
                </g>
                <g id="Fill-58-Clipped">
                    <mask id="mask-54" fill="white">
                        <use xlink:href="#path-53"></use>
                    </mask>
                    <g id="path-7"></g>
                    <path d="M106.7935,213.1339 C106.7935,216.7139 103.8915,219.6159 100.3125,219.6159 C96.7325,219.6159 93.8305,216.7139 93.8305,213.1339 C93.8305,209.5549 96.7325,206.6529 100.3125,206.6529 C103.8915,206.6529 106.7935,209.5549 106.7935,213.1339" id="Fill-58" fill="#F2F3F5" fill-rule="nonzero" mask="url(#mask-54)"></path>
                </g>
                <g id="Fill-59-Clipped">
                    <mask id="mask-56" fill="white">
                        <use xlink:href="#path-55"></use>
                    </mask>
                    <g id="path-7"></g>
                    <path d="M104.4868,213.1339 C104.4868,215.4399 102.6178,217.3089 100.3118,217.3089 C98.0068,217.3089 96.1368,215.4399 96.1368,213.1339 C96.1368,210.8289 98.0068,208.9599 100.3118,208.9599 C102.6178,208.9599 104.4868,210.8289 104.4868,213.1339" id="Fill-59" fill="#0A0909" fill-rule="nonzero" mask="url(#mask-56)"></path>
                </g>
                <g id="Fill-60-Clipped">
                    <mask id="mask-58" fill="white">
                        <use xlink:href="#path-57"></use>
                    </mask>
                    <g id="path-7"></g>
                    <path d="M57.189,213.168 C57.189,218.825 52.603,223.411 46.946,223.411 C41.289,223.411 36.703,218.825 36.703,213.168 C36.703,207.511 41.289,202.925 46.946,202.925 C52.603,202.925 57.189,207.511 57.189,213.168" id="Fill-60" fill="#4A474B" fill-rule="nonzero" mask="url(#mask-58)"></path>
                </g>
                <g id="Fill-61-Clipped">
                    <mask id="mask-60" fill="white">
                        <use xlink:href="#path-59"></use>
                    </mask>
                    <g id="path-7"></g>
                    <path d="M56.269,213.168 C56.269,218.317 52.095,222.491 46.946,222.491 C41.796,222.491 37.623,218.317 37.623,213.168 C37.623,208.019 41.796,203.845 46.946,203.845 C52.095,203.845 56.269,208.019 56.269,213.168" id="Fill-61" fill="#0A0909" fill-rule="nonzero" mask="url(#mask-60)"></path>
                </g>
                <g id="Fill-62-Clipped">
                    <mask id="mask-62" fill="white">
                        <use xlink:href="#path-61"></use>
                    </mask>
                    <g id="path-7"></g>
                    <path d="M53.4272,213.168 C53.4272,216.748 50.5252,219.649 46.9462,219.649 C43.3662,219.649 40.4642,216.748 40.4642,213.168 C40.4642,209.588 43.3662,206.687 46.9462,206.687 C50.5252,206.687 53.4272,209.588 53.4272,213.168" id="Fill-62" fill="#F2F3F5" fill-rule="nonzero" mask="url(#mask-62)"></path>
                </g>
                <g id="Fill-63-Clipped">
                    <mask id="mask-64" fill="white">
                        <use xlink:href="#path-63"></use>
                    </mask>
                    <g id="path-7"></g>
                    <path d="M48.2534,213.168 C48.2534,213.891 47.6684,214.476 46.9454,214.476 C46.2234,214.476 45.6384,213.891 45.6384,213.168 C45.6384,212.445 46.2234,211.86 46.9454,211.86 C47.6684,211.86 48.2534,212.445 48.2534,213.168" id="Fill-63" fill="#0A0909" fill-rule="nonzero" mask="url(#mask-64)"></path>
                </g>
                <g id="Fill-64-Clipped">
                    <mask id="mask-66" fill="white">
                        <use xlink:href="#path-65"></use>
                    </mask>
                    <g id="path-7"></g>
                    <path d="M302.166,218.3907 C317.562,218.4617 325.708,233.5567 332.072,245.3827 C338.585,257.4877 345.752,269.0567 358.89,274.6877 C372.542,280.5367 388.283,282.8987 403.009,283.9807 C415.985,284.9347 430.151,285.1507 442.689,281.1357 C455.22,277.1237 463.586,268.5707 468.255,256.3687 C472.793,244.5067 474.444,230.3827 466.244,219.7167 C459.76,211.2827 449.564,207.3607 442.012,200.1417 C431.958,190.5327 433.45,176.8077 442.564,167.2867 C450.893,158.5867 461.956,152.9287 469.701,143.6127 C479.047,132.3687 480.382,118.3457 478.43,104.3177 C477.679,98.9207 469.484,101.2177 470.23,106.5777 C472.045,119.6277 469.831,131.8907 460.229,141.3367 C453.152,148.3007 444.46,153.3777 437.425,160.3857 C429.987,167.7947 425.193,177.4067 426.616,188.1327 C428.149,199.6947 436.073,207.0397 445.191,213.2877 C454.771,219.8527 464.083,225.9937 463.577,238.9697 C463.066,252.0407 456.494,266.0907 444.134,271.5427 C432.186,276.8147 417.65,276.4007 404.895,275.6057 C390.584,274.7127 374.725,272.5967 361.543,266.6297 C347.174,260.1257 341.955,244.5317 334.317,231.9617 C327.235,220.3067 316.63,209.9527 302.166,209.8867 C296.693,209.8617 296.686,218.3657 302.166,218.3907" id="Fill-64" fill="#0A0909" fill-rule="nonzero" mask="url(#mask-66)"></path>
                </g>
                <g id="Fill-65-Clipped">
                    <mask id="mask-68" fill="white">
                        <use xlink:href="#path-67"></use>
                    </mask>
                    <g id="path-7"></g>
                    <path d="M354.9868,117.4698 L279.0758,117.4698 C277.0178,117.4698 275.3348,115.7858 275.3348,113.7288 L275.3348,4.2438 C275.3348,2.1868 277.0178,0.5028 279.0758,0.5028 L354.9868,0.5028 C357.0448,0.5028 358.7278,2.1868 358.7278,4.2438 L358.7278,113.7288 C358.7278,115.7858 357.0448,117.4698 354.9868,117.4698" id="Fill-65" fill="#E6E6E6" fill-rule="nonzero" mask="url(#mask-68)"></path>
                </g>
                <g id="Fill-66-Clipped">
                    <mask id="mask-70" fill="white">
                        <use xlink:href="#path-69"></use>
                    </mask>
                    <g id="path-7"></g>
                    <path d="M345.1689,73.9913 L288.8939,73.9913 C287.3689,73.9913 286.1219,72.7433 286.1219,71.2193 L286.1219,46.7533 C286.1219,45.2283 287.3689,43.9813 288.8939,43.9813 L345.1689,43.9813 C346.6929,43.9813 347.9409,45.2283 347.9409,46.7533 L347.9409,71.2193 C347.9409,72.7433 346.6929,73.9913 345.1689,73.9913" id="Fill-66" fill="#CFCFCF" fill-rule="nonzero" mask="url(#mask-70)"></path>
                </g>
                <g id="Fill-67-Clipped">
                    <mask id="mask-72" fill="white">
                        <use xlink:href="#path-71"></use>
                    </mask>
                    <g id="path-7"></g>
                    <path d="M332.0698,49.6085 L342.3398,56.6865 C343.9508,57.7965 343.9508,60.1755 342.3398,61.2865 L332.0698,68.3635 C331.6038,68.6845 331.0508,68.8575 330.4848,68.8575 L303.5778,68.8575 C303.0118,68.8575 302.4588,68.6845 301.9928,68.3635 L291.7228,61.2865 C290.1118,60.1755 290.1118,57.7965 291.7228,56.6865 L301.9928,49.6085 C302.4588,49.2875 303.0118,49.1155 303.5778,49.1155 L330.4848,49.1155 C331.0508,49.1155 331.6038,49.2875 332.0698,49.6085" id="Fill-67" fill="#E0E0E0" fill-rule="nonzero" mask="url(#mask-72)"></path>
                </g>
                <g id="Fill-68-Clipped">
                    <mask id="mask-74" fill="white">
                        <use xlink:href="#path-73"></use>
                    </mask>
                    <g id="path-7"></g>
                    <path d="M307.5962,56.835 C307.5962,58.171 306.5132,59.253 305.1782,59.253 C303.8422,59.253 302.7592,58.171 302.7592,56.835 C302.7592,55.499 303.8422,54.416 305.1782,54.416 C306.5132,54.416 307.5962,55.499 307.5962,56.835" id="Fill-68" fill="#5A5657" fill-rule="nonzero" mask="url(#mask-74)"></path>
                </g>
                <g id="Fill-69-Clipped">
                    <mask id="mask-76" fill="white">
                        <use xlink:href="#path-75"></use>
                    </mask>
                    <g id="path-7"></g>
                    <path d="M329.5752,54.5167 C330.8552,54.8987 331.5832,56.2457 331.2022,57.5257 C330.8202,58.8057 329.4732,59.5347 328.1932,59.1527 C326.9132,58.7707 326.1852,57.4237 326.5662,56.1437 C326.9482,54.8647 328.2952,54.1357 329.5752,54.5167" id="Fill-69" fill="#5A5657" fill-rule="nonzero" mask="url(#mask-76)"></path>
                </g>
                <g id="Fill-70-Clipped">
                    <mask id="mask-78" fill="white">
                        <use xlink:href="#path-77"></use>
                    </mask>
                    <g id="path-7"></g>
                    <path d="M319.4492,61.1378 C319.4492,62.4738 318.3662,63.5568 317.0312,63.5568 C315.6952,63.5568 314.6122,62.4738 314.6122,61.1378 C314.6122,59.8028 315.6952,58.7198 317.0312,58.7198 C318.3662,58.7198 319.4492,59.8028 319.4492,61.1378" id="Fill-70" fill="#5A5657" fill-rule="nonzero" mask="url(#mask-78)"></path>
                </g>
                <g id="Fill-71-Clipped">
                    <mask id="mask-80" fill="white">
                        <use xlink:href="#path-79"></use>
                    </mask>
                    <g id="path-7"></g>
                    <path d="M276.957,1.1309 C276.092,1.6389 275.294,2.5599 275.294,4.2439 L275.294,113.9399 C275.294,113.9399 275.426,115.7719 276.957,116.7119 L276.957,1.1309 Z" id="Fill-71" fill="#CFCFCF" fill-rule="nonzero" mask="url(#mask-80)"></path>
                </g>
                <g id="Fill-72-Clipped">
                    <mask id="mask-82" fill="white">
                        <use xlink:href="#path-81"></use>
                    </mask>
                    <g id="path-7"></g>
                    <path d="M421.9204,78.0577 L404.2654,78.0577 C402.2124,78.0577 400.5314,76.3767 400.5314,74.3237 C400.5314,72.2697 402.2124,70.5897 404.2654,70.5897 L421.9204,70.5897 C423.9744,70.5897 425.6544,72.2697 425.6544,74.3237 C425.6544,76.3767 423.9744,78.0577 421.9204,78.0577" id="Fill-72" fill="#CFCFCF" fill-rule="nonzero" mask="url(#mask-82)"></path>
                </g>
                <g id="Fill-73-Clipped">
                    <mask id="mask-84" fill="white">
                        <use xlink:href="#path-83"></use>
                    </mask>
                    <g id="path-7"></g>
                    <path d="M421.9204,57.253 L404.2654,57.253 C402.2124,57.253 400.5314,55.572 400.5314,53.519 C400.5314,51.465 402.2124,49.785 404.2654,49.785 L421.9204,49.785 C423.9744,49.785 425.6544,51.465 425.6544,53.519 C425.6544,55.572 423.9744,57.253 421.9204,57.253" id="Fill-73" fill="#CFCFCF" fill-rule="nonzero" mask="url(#mask-84)"></path>
                </g>
                <g id="Fill-74-Clipped">
                    <mask id="mask-86" fill="white">
                        <use xlink:href="#path-85"></use>
                    </mask>
                    <g id="path-7"></g>
                    <polygon id="Fill-74" fill="#232323" fill-rule="nonzero" mask="url(#mask-86)" points="448.927 126.153 504.627 126.153 504.627 33.771 448.927 33.771"></polygon>
                </g>
                <g id="Fill-75-Clipped">
                    <mask id="mask-88" fill="white">
                        <use xlink:href="#path-87"></use>
                    </mask>
                    <g id="path-7"></g>
                    <polygon id="Fill-75" fill="#303030" fill-rule="nonzero" mask="url(#mask-88)" points="440.037 126.153 448.927 126.153 448.927 33.771 440.037 33.771"></polygon>
                </g>
                <g id="Fill-76-Clipped">
                    <mask id="mask-90" fill="white">
                        <use xlink:href="#path-89"></use>
                    </mask>
                    <g id="path-7"></g>
                    <polygon id="Fill-76" fill="#232323" fill-rule="nonzero" mask="url(#mask-90)" points="420.695 85.461 440.352 85.461 440.352 42.684 420.695 42.684"></polygon>
                </g>
                <g id="Fill-77-Clipped">
                    <mask id="mask-92" fill="white">
                        <use xlink:href="#path-91"></use>
                    </mask>
                    <g id="path-7"></g>
                    <path d="M400.5317,59.7637 C389.3317,60.6437 378.6577,61.4817 366.8907,62.4067 C369.6587,59.3327 371.7997,56.9547 374.4397,54.0227 C359.3167,50.6447 346.4867,54.1437 334.7557,63.7957 C340.4087,48.4827 357.5247,40.1757 381.4357,40.9377 C382.3307,37.7457 383.2537,34.4537 384.4117,30.3257 C387.4047,35.7517 390.0487,40.5197 392.6667,45.3017 C395.2357,49.9927 397.7797,54.6997 400.5317,59.7637" id="Fill-77" fill="#00C0D2" fill-rule="nonzero" mask="url(#mask-92)"></path>
                </g>
            </g>
        </g>
    </g>
</svg>