<?xml version="1.0" encoding="UTF-8"?>
<svg width="591px" height="329px" viewBox="0 0 591 329" version="1.1" xmlns="http://www.w3.org/2000/svg" xmlns:xlink="http://www.w3.org/1999/xlink">
    <title>divisor_de_sinal</title>
    <defs>
        <polygon id="path-1" points="26.6611369 65.8 0.752673433 65.8 0.752673433 0.439479002 26.6611369 0.439479002"></polygon>
        <polygon id="path-3" points="40.1493922 69.7283582 0.857623253 69.7283582 0.857623253 0.716661495 40.1493922 0.716661495"></polygon>
        <polygon id="path-5" points="0 327.035821 368.197158 327.035821 368.197158 0.406585075 0 0.406585075"></polygon>
        <polygon id="path-7" points="0 327.035821 368.197158 327.035821 368.197158 0.406585075 0 0.406585075"></polygon>
        <polygon id="path-9" points="0 327.035821 368.197158 327.035821 368.197158 0.406585075 0 0.406585075"></polygon>
        <polygon id="path-11" points="0 327.035821 368.197158 327.035821 368.197158 0.406585075 0 0.406585075"></polygon>
        <polygon id="path-13" points="0 327.035821 368.197158 327.035821 368.197158 0.406585075 0 0.406585075"></polygon>
        <polygon id="path-15" points="0 327.035821 368.197158 327.035821 368.197158 0.406585075 0 0.406585075"></polygon>
        <polygon id="path-17" points="0 327.035821 368.197158 327.035821 368.197158 0.406585075 0 0.406585075"></polygon>
        <polygon id="path-19" points="0 327.035821 368.197158 327.035821 368.197158 0.406585075 0 0.406585075"></polygon>
        <polygon id="path-21" points="0 327.035821 368.197158 327.035821 368.197158 0.406585075 0 0.406585075"></polygon>
        <polygon id="path-23" points="0 327.035821 368.197158 327.035821 368.197158 0.406585075 0 0.406585075"></polygon>
        <polygon id="path-25" points="0 327.035821 368.197158 327.035821 368.197158 0.406585075 0 0.406585075"></polygon>
        <polygon id="path-27" points="0 327.035821 368.197158 327.035821 368.197158 0.406585075 0 0.406585075"></polygon>
        <polygon id="path-29" points="0 327.035821 368.197158 327.035821 368.197158 0.406585075 0 0.406585075"></polygon>
        <polygon id="path-31" points="0 327.035821 368.197158 327.035821 368.197158 0.406585075 0 0.406585075"></polygon>
        <polygon id="path-33" points="0 327.035821 368.197158 327.035821 368.197158 0.406585075 0 0.406585075"></polygon>
        <polygon id="path-35" points="0 327.035821 368.197158 327.035821 368.197158 0.406585075 0 0.406585075"></polygon>
        <polygon id="path-37" points="0 327.035821 368.197158 327.035821 368.197158 0.406585075 0 0.406585075"></polygon>
        <polygon id="path-39" points="0 327.035821 368.197158 327.035821 368.197158 0.406585075 0 0.406585075"></polygon>
        <polygon id="path-41" points="0 327.035821 368.197158 327.035821 368.197158 0.406585075 0 0.406585075"></polygon>
        <polygon id="path-43" points="0 327.035821 368.197158 327.035821 368.197158 0.406585075 0 0.406585075"></polygon>
        <polygon id="path-45" points="0 327.035821 368.197158 327.035821 368.197158 0.406585075 0 0.406585075"></polygon>
        <polygon id="path-47" points="0 327.035821 368.197158 327.035821 368.197158 0.406585075 0 0.406585075"></polygon>
        <polygon id="path-49" points="0 327.035821 368.197158 327.035821 368.197158 0.406585075 0 0.406585075"></polygon>
        <polygon id="path-51" points="0 327.035821 368.197158 327.035821 368.197158 0.406585075 0 0.406585075"></polygon>
        <polygon id="path-53" points="0 327.035821 368.197158 327.035821 368.197158 0.406585075 0 0.406585075"></polygon>
        <polygon id="path-55" points="0 327.035821 368.197158 327.035821 368.197158 0.406585075 0 0.406585075"></polygon>
        <polygon id="path-57" points="0 327.035821 368.197158 327.035821 368.197158 0.406585075 0 0.406585075"></polygon>
        <polygon id="path-59" points="0 327.035821 368.197158 327.035821 368.197158 0.406585075 0 0.406585075"></polygon>
        <polygon id="path-61" points="0 327.035821 368.197158 327.035821 368.197158 0.406585075 0 0.406585075"></polygon>
        <polygon id="path-63" points="0 327.035821 368.197158 327.035821 368.197158 0.406585075 0 0.406585075"></polygon>
        <polygon id="path-65" points="0 327.035821 368.197158 327.035821 368.197158 0.406585075 0 0.406585075"></polygon>
        <polygon id="path-67" points="0 327.035821 368.197158 327.035821 368.197158 0.406585075 0 0.406585075"></polygon>
        <polygon id="path-69" points="0 327.035821 368.197158 327.035821 368.197158 0.406585075 0 0.406585075"></polygon>
        <polygon id="path-71" points="184.546412 39.3491827 184.546412 0.406585075 0.196330976 0.406585075 0.196330976 78.2917804 184.546412 78.2917804"></polygon>
    </defs>
    <g id="Page-1" stroke="none" stroke-width="1" fill="none" fill-rule="evenodd">
        <g id="divisor_de_sinal" transform="translate(126.000000, 0.000000)">
            <g id="Group-41" transform="translate(0.000000, 0.575504)">
                <g id="Group-3" transform="translate(39.283582, 261.235821)">
                    <g id="Fill-1-Clipped">
                        <mask id="mask-2" fill="white">
                            <use xlink:href="#path-1"></use>
                        </mask>
                        <g id="path-1"></g>
                        <path d="M0.752673433,65.800491 L17.4766764,65.800491 C21.6986794,46.8667866 27.0432107,28.0283448 26.6395719,8.50342239 C26.4186018,-2.22983433 9.7142406,-2.26715373 9.93717493,8.50342239 C10.3398316,28.0342373 4.97860478,46.8510731 0.752673433,65.800491" id="Fill-1" fill="#E0DCC1" fill-rule="nonzero" mask="url(#mask-2)"></path>
                    </g>
                </g>
                <g id="Group-6" transform="translate(143.385075, 257.307463)">
                    <g id="Fill-4-Clipped">
                        <mask id="mask-4" fill="white">
                            <use xlink:href="#path-3"></use>
                        </mask>
                        <g id="path-3"></g>
                        <path d="M20.1609236,69.7288493 L40.1493922,69.7288493 C26.7860997,52.2574761 18.6877893,30.717306 17.5740997,8.76367612 C17.0310042,-1.93324328 0.324678806,-1.99806119 0.870720597,8.76367612 C1.98342806,30.6819507 8.78046985,51.5886731 20.1609236,69.7288493" id="Fill-4" fill="#E0DCC1" fill-rule="nonzero" mask="url(#mask-4)"></path>
                    </g>
                </g>
                <g id="Fill-7-Clipped">
                    <mask id="mask-6" fill="white">
                        <use xlink:href="#path-5"></use>
                    </mask>
                    <g id="path-5"></g>
                    <polygon id="Fill-7" fill="#343434" fill-rule="nonzero" mask="url(#mask-6)" points="48.4150507 248.652307 67.0472537 248.652307 67.0472537 246.605633 48.4150507 246.605633"></polygon>
                </g>
                <g id="Fill-9-Clipped">
                    <mask id="mask-8" fill="white">
                        <use xlink:href="#path-7"></use>
                    </mask>
                    <g id="path-5"></g>
                    <polygon id="Fill-9" fill="#00B9FA" fill-rule="nonzero" mask="url(#mask-8)" points="45.4628896 280.468081 70.0013791 280.468081 70.0013791 277.424585 45.4628896 277.424585"></polygon>
                </g>
                <g id="Fill-10-Clipped">
                    <mask id="mask-10" fill="white">
                        <use xlink:href="#path-9"></use>
                    </mask>
                    <g id="path-5"></g>
                    <polygon id="Fill-10" fill="#CFCFCF" fill-rule="nonzero" mask="url(#mask-10)" points="48.4150507 255.306946 67.0472537 255.306946 67.0472537 248.618916 48.4150507 248.618916"></polygon>
                </g>
                <g id="Fill-11-Clipped">
                    <mask id="mask-12" fill="white">
                        <use xlink:href="#path-11"></use>
                    </mask>
                    <g id="path-5"></g>
                    <polygon id="Fill-11" fill="#B2B2B2" fill-rule="nonzero" mask="url(#mask-12)" points="48.4150507 235.323388 67.0472537 235.323388 67.0472537 228.635358 48.4150507 228.635358"></polygon>
                </g>
                <g id="Fill-12-Clipped">
                    <mask id="mask-14" fill="white">
                        <use xlink:href="#path-13"></use>
                    </mask>
                    <g id="path-5"></g>
                    <polygon id="Fill-12" fill="#CFCFCF" fill-rule="nonzero" mask="url(#mask-14)" points="45.4628896 246.476979 70.0013791 246.476979 70.0013791 235.036618 45.4628896 235.036618"></polygon>
                </g>
                <g id="Fill-13-Clipped">
                    <mask id="mask-16" fill="white">
                        <use xlink:href="#path-15"></use>
                    </mask>
                    <g id="path-5"></g>
                    <polygon id="Fill-13" fill="#999999" fill-rule="nonzero" mask="url(#mask-16)" points="57.7321343 246.476979 70.0013791 246.476979 70.0013791 235.036618 57.7321343 235.036618"></polygon>
                </g>
                <g id="Fill-14-Clipped">
                    <mask id="mask-18" fill="white">
                        <use xlink:href="#path-17"></use>
                    </mask>
                    <g id="path-5"></g>
                    <polygon id="Fill-14" fill="#B2B2B2" fill-rule="nonzero" mask="url(#mask-18)" points="45.4628896 277.98143 70.0013791 277.98143 70.0013791 253.441958 45.4628896 253.441958"></polygon>
                </g>
                <g id="Fill-15-Clipped">
                    <mask id="mask-20" fill="white">
                        <use xlink:href="#path-19"></use>
                    </mask>
                    <g id="path-5"></g>
                    <polygon id="Fill-15" fill="#999999" fill-rule="nonzero" mask="url(#mask-20)" points="64.8581761 277.98143 70.0013791 277.98143 70.0013791 253.541149 64.8581761 253.541149"></polygon>
                </g>
                <g id="Fill-16-Clipped">
                    <mask id="mask-22" fill="white">
                        <use xlink:href="#path-21"></use>
                    </mask>
                    <g id="path-5"></g>
                    <polygon id="Fill-16" fill="#343434" fill-rule="nonzero" mask="url(#mask-22)" points="143.677737 248.652307 162.30994 248.652307 162.30994 246.605633 143.677737 246.605633"></polygon>
                </g>
                <g id="Fill-17-Clipped">
                    <mask id="mask-24" fill="white">
                        <use xlink:href="#path-23"></use>
                    </mask>
                    <g id="path-5"></g>
                    <polygon id="Fill-17" fill="#00B9FA" fill-rule="nonzero" mask="url(#mask-24)" points="140.725576 280.468081 165.264066 280.468081 165.264066 277.424585 140.725576 277.424585"></polygon>
                </g>
                <g id="Fill-18-Clipped">
                    <mask id="mask-26" fill="white">
                        <use xlink:href="#path-25"></use>
                    </mask>
                    <g id="path-5"></g>
                    <polygon id="Fill-18" fill="#CFCFCF" fill-rule="nonzero" mask="url(#mask-26)" points="143.677737 255.306946 162.30994 255.306946 162.30994 248.618916 143.677737 248.618916"></polygon>
                </g>
                <g id="Fill-19-Clipped">
                    <mask id="mask-28" fill="white">
                        <use xlink:href="#path-27"></use>
                    </mask>
                    <g id="path-5"></g>
                    <polygon id="Fill-19" fill="#B2B2B2" fill-rule="nonzero" mask="url(#mask-28)" points="143.677737 235.323388 162.30994 235.323388 162.30994 228.635358 143.677737 228.635358"></polygon>
                </g>
                <g id="Fill-20-Clipped">
                    <mask id="mask-30" fill="white">
                        <use xlink:href="#path-29"></use>
                    </mask>
                    <g id="path-5"></g>
                    <polygon id="Fill-20" fill="#CFCFCF" fill-rule="nonzero" mask="url(#mask-30)" points="140.725576 246.476979 165.264066 246.476979 165.264066 235.036618 140.725576 235.036618"></polygon>
                </g>
                <g id="Fill-21-Clipped">
                    <mask id="mask-32" fill="white">
                        <use xlink:href="#path-31"></use>
                    </mask>
                    <g id="path-5"></g>
                    <polygon id="Fill-21" fill="#999999" fill-rule="nonzero" mask="url(#mask-32)" points="152.994821 246.476979 165.264066 246.476979 165.264066 235.036618 152.994821 235.036618"></polygon>
                </g>
                <g id="Fill-22-Clipped">
                    <mask id="mask-34" fill="white">
                        <use xlink:href="#path-33"></use>
                    </mask>
                    <g id="path-5"></g>
                    <polygon id="Fill-22" fill="#B2B2B2" fill-rule="nonzero" mask="url(#mask-34)" points="140.725576 277.98143 165.264066 277.98143 165.264066 253.441958 140.725576 253.441958"></polygon>
                </g>
                <g id="Fill-23-Clipped">
                    <mask id="mask-36" fill="white">
                        <use xlink:href="#path-35"></use>
                    </mask>
                    <g id="path-5"></g>
                    <polygon id="Fill-23" fill="#999999" fill-rule="nonzero" mask="url(#mask-36)" points="160.120863 277.98143 165.264066 277.98143 165.264066 253.541149 160.120863 253.541149"></polygon>
                </g>
                <g id="Fill-24-Clipped">
                    <mask id="mask-38" fill="white">
                        <use xlink:href="#path-37"></use>
                    </mask>
                    <g id="path-5"></g>
                    <polygon id="Fill-24" fill="#CFCFCF" fill-rule="nonzero" mask="url(#mask-38)" points="95.0220746 120.514173 113.654278 120.514173 113.654278 113.826143 95.0220746 113.826143"></polygon>
                </g>
                <g id="Fill-25-Clipped">
                    <mask id="mask-40" fill="white">
                        <use xlink:href="#path-39"></use>
                    </mask>
                    <g id="path-5"></g>
                    <polygon id="Fill-25" fill="#B2B2B2" fill-rule="nonzero" mask="url(#mask-40)" points="92.0699134 143.188657 116.608403 143.188657 116.608403 118.650167 92.0699134 118.650167"></polygon>
                </g>
                <g id="Fill-26-Clipped">
                    <mask id="mask-42" fill="white">
                        <use xlink:href="#path-41"></use>
                    </mask>
                    <g id="path-5"></g>
                    <polygon id="Fill-26" fill="#999999" fill-rule="nonzero" mask="url(#mask-42)" points="111.4652 143.188657 116.608403 143.188657 116.608403 118.748376 111.4652 118.748376"></polygon>
                </g>
                <g id="Stroke-27-Clipped">
                    <mask id="mask-44" fill="white">
                        <use xlink:href="#path-43"></use>
                    </mask>
                    <g id="path-5"></g>
                    <line x1="92.069226" y1="121.823691" x2="116.607716" y2="121.823691" id="Stroke-27" stroke="#777777" stroke-width="1.417" mask="url(#mask-44)"></line>
                </g>
                <g id="Stroke-28-Clipped">
                    <mask id="mask-46" fill="white">
                        <use xlink:href="#path-45"></use>
                    </mask>
                    <g id="path-5"></g>
                    <line x1="92.069226" y1="124.771924" x2="116.607716" y2="124.771924" id="Stroke-28" stroke="#777777" stroke-width="1.417" mask="url(#mask-46)"></line>
                </g>
                <g id="Stroke-29-Clipped">
                    <mask id="mask-48" fill="white">
                        <use xlink:href="#path-47"></use>
                    </mask>
                    <g id="path-5"></g>
                    <line x1="92.069226" y1="127.720059" x2="116.607716" y2="127.720059" id="Stroke-29" stroke="#777777" stroke-width="1.417" mask="url(#mask-48)"></line>
                </g>
                <g id="Stroke-30-Clipped">
                    <mask id="mask-50" fill="white">
                        <use xlink:href="#path-49"></use>
                    </mask>
                    <g id="path-5"></g>
                    <line x1="92.069226" y1="130.668292" x2="116.607716" y2="130.668292" id="Stroke-30" stroke="#777777" stroke-width="1.417" mask="url(#mask-50)"></line>
                </g>
                <g id="Stroke-31-Clipped">
                    <mask id="mask-52" fill="white">
                        <use xlink:href="#path-51"></use>
                    </mask>
                    <g id="path-5"></g>
                    <line x1="92.069226" y1="133.616426" x2="116.607716" y2="133.616426" id="Stroke-31" stroke="#777777" stroke-width="1.417" mask="url(#mask-52)"></line>
                </g>
                <g id="Stroke-32-Clipped">
                    <mask id="mask-54" fill="white">
                        <use xlink:href="#path-53"></use>
                    </mask>
                    <g id="path-5"></g>
                    <line x1="92.069226" y1="136.564659" x2="116.607716" y2="136.564659" id="Stroke-32" stroke="#777777" stroke-width="1.417" mask="url(#mask-54)"></line>
                </g>
                <g id="Stroke-33-Clipped">
                    <mask id="mask-56" fill="white">
                        <use xlink:href="#path-55"></use>
                    </mask>
                    <g id="path-5"></g>
                    <line x1="92.069226" y1="139.512794" x2="116.607716" y2="139.512794" id="Stroke-33" stroke="#777777" stroke-width="1.417" mask="url(#mask-56)"></line>
                </g>
                <g id="Stroke-34-Clipped">
                    <mask id="mask-58" fill="white">
                        <use xlink:href="#path-57"></use>
                    </mask>
                    <g id="path-5"></g>
                    <line x1="92.069226" y1="142.461027" x2="116.607716" y2="142.461027" id="Stroke-34" stroke="#777777" stroke-width="1.417" mask="url(#mask-58)"></line>
                </g>
                <g id="Fill-35-Clipped">
                    <mask id="mask-60" fill="white">
                        <use xlink:href="#path-59"></use>
                    </mask>
                    <g id="path-5"></g>
                    <path d="M187.549151,228.260495 L21.1281836,228.260495 C18.8104522,228.260495 16.9130552,226.36408 16.9130552,224.046348 L16.9130552,147.317656 C16.9130552,144.999924 18.8104522,143.102527 21.1281836,143.102527 L187.549151,143.102527 C189.866882,143.102527 191.764279,144.999924 191.764279,147.317656 L191.764279,224.046348 C191.764279,226.36408 189.866882,228.260495 187.549151,228.260495" id="Fill-35" fill="#686868" fill-rule="nonzero" mask="url(#mask-60)"></path>
                </g>
                <g id="Fill-36-Clipped">
                    <mask id="mask-62" fill="white">
                        <use xlink:href="#path-61"></use>
                    </mask>
                    <g id="path-5"></g>
                    <path d="M10.8886233,191.304661 C8.06118746,191.304661 5.76899045,189.012464 5.76899045,186.185028 C5.76899045,183.357593 8.06118746,181.065396 10.8886233,181.065396 C13.7160591,181.065396 16.0082561,183.357593 16.0082561,186.185028 C16.0082561,189.012464 13.7160591,191.304661 10.8886233,191.304661 L10.8886233,191.304661 Z M0.63168,171.262178 L1.02255164,171.18361 C0.459814328,171.18361 0.00019641791,171.643228 0.00019641791,172.205966 L0.00019641791,177.452288 L0.00019641791,194.918751 L0.00019641791,200.164091 C0.00019641791,200.726828 0.459814328,201.187428 1.02255164,201.187428 L0.63168,201.107879 L18.452677,208.012951 L18.452677,200.164091 L18.452677,194.918751 L18.452677,189.517258 L18.452677,182.853781 L18.452677,177.452288 L18.452677,172.205966 L18.452677,164.357106 L0.63168,171.262178 Z" id="Fill-36" fill="#686868" fill-rule="nonzero" mask="url(#mask-62)"></path>
                </g>
                <g id="Fill-37-Clipped">
                    <mask id="mask-64" fill="white">
                        <use xlink:href="#path-63"></use>
                    </mask>
                    <g id="path-5"></g>
                    <path d="M200.563703,191.304661 C197.736267,191.304661 195.44407,189.012464 195.44407,186.185028 C195.44407,183.357593 197.736267,181.065396 200.563703,181.065396 C203.391139,181.065396 205.683336,183.357593 205.683336,186.185028 C205.683336,189.012464 203.391139,191.304661 200.563703,191.304661 M208.768079,171.18361 L209.158951,171.262178 L191.336972,164.357106 L191.336972,172.205966 L191.336972,177.452288 L191.336972,182.853781 L191.336972,189.517258 L191.336972,194.918751 L191.336972,200.164091 L191.336972,208.012951 L209.158951,201.107879 L208.768079,201.187428 C209.329835,201.187428 209.790435,200.726828 209.790435,200.164091 L209.790435,194.918751 L209.790435,177.452288 L209.790435,172.205966 C209.790435,171.643228 209.329835,171.18361 208.768079,171.18361" id="Fill-37" fill="#686868" fill-rule="nonzero" mask="url(#mask-64)"></path>
                </g>
                <g id="Fill-38-Clipped">
                    <mask id="mask-66" fill="white">
                        <use xlink:href="#path-65"></use>
                    </mask>
                    <g id="path-5"></g>
                    <path d="M181.652292,222.343994 L27.0252385,222.343994 C24.9540116,222.343994 23.2589251,220.648908 23.2589251,218.577681 L23.2589251,152.78652 C23.2589251,150.714311 24.9540116,149.020206 27.0252385,149.020206 L181.652292,149.020206 C183.723519,149.020206 185.418606,150.714311 185.418606,152.78652 L185.418606,218.577681 C185.418606,220.648908 183.723519,222.343994 181.652292,222.343994" id="Fill-38" fill="#A0A0A0" fill-rule="nonzero" mask="url(#mask-66)"></path>
                </g>
                <g id="Stroke-39-Clipped">
                    <mask id="mask-68" fill="white">
                        <use xlink:href="#path-67"></use>
                    </mask>
                    <g id="path-5"></g>
                    <path d="M181.652292,222.343994 L27.0252385,222.343994 C24.9540116,222.343994 23.2589251,220.648908 23.2589251,218.577681 L23.2589251,152.78652 C23.2589251,150.714311 24.9540116,149.020206 27.0252385,149.020206 L181.652292,149.020206 C183.723519,149.020206 185.418606,150.714311 185.418606,152.78652 L185.418606,218.577681 C185.418606,220.648908 183.723519,222.343994 181.652292,222.343994 Z" id="Stroke-39" stroke="#777777" stroke-width="1.417" mask="url(#mask-68)"></path>
                </g>
                <g id="Fill-40-Clipped">
                    <mask id="mask-70" fill="white">
                        <use xlink:href="#path-69"></use>
                    </mask>
                    <g id="path-5"></g>
                    <polygon id="Fill-40" fill="#2D2B2C" fill-rule="nonzero" mask="url(#mask-70)" points="86.5240537 161.367134 122.153281 161.367134 122.153281 151.874257 86.5240537 151.874257"></polygon>
                </g>
            </g>
            <g id="ENTRADA" transform="translate(89.370149, 152.223881)" fill="#FFFFFF" font-family="SimplonOi-Headline, Simplon Oi" font-size="7" font-weight="500">
                <text id="ENTRA">
                    <tspan x="0.627751642" y="6.41883194">ENTRA</tspan>
                </text>
                <text id="D">
                    <tspan x="20.8254054" y="6.41883194">D</tspan>
                </text>
                <text id="A">
                    <tspan x="24.9983039" y="6.41883194">A</tspan>
                </text>
            </g>
            <polygon id="Fill-42" fill="#2D2B2C" fill-rule="nonzero" points="41.8360328 219.672809 73.6272537 219.672809 73.6272537 210.179931 41.8360328 210.179931"></polygon>
            <g id="SAÍDA-1" transform="translate(45.176119, 210.167164)" fill="#FFFFFF" font-family="SimplonOi-Headline, Simplon Oi" font-size="7" font-weight="500">
                <text id="SAÍ">
                    <tspan x="0.201426567" y="6.20591493">SAÍ</tspan>
                </text>
                <text id="D">
                    <tspan x="11.6270564" y="6.20591493">D</tspan>
                </text>
                <text id="A-1">
                    <tspan x="15.7999549" y="6.20591493">A 1</tspan>
                </text>
            </g>
            <polygon id="Fill-44" fill="#2D2B2C" fill-rule="nonzero" points="137.098719 219.672809 168.88994 219.672809 168.88994 210.179931 137.098719 210.179931"></polygon>
            <g id="SAÍDA-2" transform="translate(140.438806, 210.167164)" fill="#FFFFFF" font-family="SimplonOi-Headline, Simplon Oi" font-size="7" font-weight="500">
                <text id="SAÍ">
                    <tspan x="0.201426567" y="6.20591493">SAÍ</tspan>
                </text>
                <text id="D">
                    <tspan x="11.6270564" y="6.20591493">D</tspan>
                </text>
                <text id="A-2">
                    <tspan x="15.7999549" y="6.20591493">A 2</tspan>
                </text>
            </g>
            <g id="Group-69" transform="translate(102.137313, 0.575504)">
                <path d="M2.48851672,106.609946 C9.71669582,102.788635 16.606054,99.1480293 24.2005525,95.1332472 C21.3024063,94.3220412 19.0602958,93.694486 16.2947316,92.9196173 C24.2771555,84.9529069 33.5284391,82.1077934 44.4993615,83.47388 C35.0604988,76.2604322 21.3024063,77.8190084 6.89809881,87.5986561 C5.10480328,85.985083 3.25552866,84.3204412 0.934851045,82.2325188 C1.20885403,86.7353994 1.43964507,90.6961666 1.69204209,94.6549696 C1.93952866,98.5401158 2.20862119,102.423298 2.48851672,106.609946" id="Fill-46" fill="#00C0D2" fill-rule="nonzero"></path>
                <g id="Group-50" transform="translate(81.513433, 0.000000)">
                    <g id="Fill-48-Clipped">
                        <mask id="mask-72" fill="white">
                            <use xlink:href="#path-71"></use>
                        </mask>
                        <g id="path-7"></g>
                        <path d="M167.885263,0.406192239 C165.822875,21.5014758 151.103316,40.2849206 129.856791,46.3021833 C123.556687,48.0876221 117.156409,48.712231 110.623549,48.2152937 C102.878791,47.6240758 95.4492836,44.7740519 87.9873672,42.8049624 C73.8138507,39.0651654 59.1158985,38.7567893 44.7970328,41.9210818 C29.0806537,45.3966967 14.5584955,53.2347534 2.79797313,64.175231 C-5.09017015,71.51144 6.74204478,83.3033893 14.6085821,75.98584 C25.0972985,66.2287803 38.1414119,60.018046 52.2000239,57.4292579 C59.0864358,56.1613803 66.3303284,56.0121027 73.2815582,56.8292012 C81.163809,57.7553116 88.6640269,60.5189116 96.3135224,62.4880012 C126.502955,70.2573116 159.501164,58.2561773 175.358964,30.7792758 C180.759475,21.4199624 183.810827,11.0147236 184.546412,0.406192239 L167.885263,0.406192239 Z" id="Fill-48" fill="#E0DCC1" fill-rule="nonzero" mask="url(#mask-72)"></path>
                    </g>
                </g>
                <polygon id="Fill-51" fill="#C3AE95" fill-rule="nonzero" points="58.789943 94.3539591 59.8447072 95.5963024 47.2395878 106.298132 46.1848236 105.055789"></polygon>
                <polygon id="Fill-53" fill="#343434" fill-rule="nonzero" points="64.3899158 78.6443564 76.378283 92.7638579 74.8265815 94.0818221 62.8382143 79.9613385"></polygon>
                <polygon id="Fill-55" fill="#00B9FA" fill-rule="nonzero" points="86.6000675 55.9354997 102.389121 74.5313654 100.083175 76.4896519 84.2931391 57.8937863"></polygon>
                <polygon id="Fill-57" fill="#CFCFCF" fill-rule="nonzero" points="69.4327493 74.3630352 81.4211164 88.4825367 76.3535343 92.7860531 64.3651672 78.6655696"></polygon>
                <polygon id="Fill-59" fill="#B2B2B2" fill-rule="nonzero" points="54.2885355 87.2213373 66.2769027 101.340839 61.2083385 105.643373 49.2209534 91.5238716"></polygon>
                <polygon id="Fill-61" fill="#CFCFCF" fill-rule="nonzero" points="60.8413316 77.806143 76.6303854 96.4020087 67.9604988 103.763752 52.1714451 85.1669042"></polygon>
                <polygon id="Fill-63" fill="#999999" fill-rule="nonzero" points="60.8413316 77.806143 68.7353675 87.1045669 60.0654809 94.4653281 52.1714451 85.1669042"></polygon>
                <polygon id="Fill-65" fill="#B2B2B2" fill-rule="nonzero" points="84.7150448 57.5361093 100.504099 76.1319749 81.9082328 91.9210287 66.1191791 73.3241809"></polygon>
                <polygon id="Fill-67" fill="#999999" fill-rule="nonzero" points="84.7150448 57.5361093 88.0246866 61.4340227 69.5034597 77.1582585 66.1948 73.2613272"></polygon>
            </g>
        </g>
    </g>
</svg>