<?xml version="1.0" encoding="UTF-8"?>
<svg width="591px" height="329px" viewBox="0 0 591 329" version="1.1" xmlns="http://www.w3.org/2000/svg" xmlns:xlink="http://www.w3.org/1999/xlink">
    <title>ligar_decodificador</title>
    <defs>
        <polygon id="path-1" points="0 286 419.098 286 419.098 0.503 0 0.503"></polygon>
        <polygon id="path-3" points="0 286 419.098 286 419.098 0.503 0 0.503"></polygon>
        <polygon id="path-5" points="0 286 419.098 286 419.098 0.503 0 0.503"></polygon>
        <polygon id="path-7" points="0 286 419.098 286 419.098 0.503 0 0.503"></polygon>
        <polygon id="path-9" points="0 286 419.098 286 419.098 0.503 0 0.503"></polygon>
        <polygon id="path-11" points="0 286 419.098 286 419.098 0.503 0 0.503"></polygon>
        <polygon id="path-13" points="0 286 419.098 286 419.098 0.503 0 0.503"></polygon>
        <polygon id="path-15" points="0 286 419.098 286 419.098 0.503 0 0.503"></polygon>
        <polygon id="path-17" points="0 286 419.098 286 419.098 0.503 0 0.503"></polygon>
        <polygon id="path-19" points="0 286 419.098 286 419.098 0.503 0 0.503"></polygon>
        <polygon id="path-21" points="0 286 419.098 286 419.098 0.503 0 0.503"></polygon>
        <polygon id="path-23" points="0 286 419.098 286 419.098 0.503 0 0.503"></polygon>
        <polygon id="path-25" points="0 286 419.098 286 419.098 0.503 0 0.503"></polygon>
        <polygon id="path-27" points="0 286 419.098 286 419.098 0.503 0 0.503"></polygon>
        <polygon id="path-29" points="0 286 419.098 286 419.098 0.503 0 0.503"></polygon>
        <polygon id="path-31" points="0 286 419.098 286 419.098 0.503 0 0.503"></polygon>
        <polygon id="path-33" points="0 286 419.098 286 419.098 0.503 0 0.503"></polygon>
        <polygon id="path-35" points="0 286 419.098 286 419.098 0.503 0 0.503"></polygon>
        <polygon id="path-37" points="0 286 419.098 286 419.098 0.503 0 0.503"></polygon>
        <polygon id="path-39" points="0 286 419.098 286 419.098 0.503 0 0.503"></polygon>
        <polygon id="path-41" points="0 286 419.098 286 419.098 0.503 0 0.503"></polygon>
        <polygon id="path-43" points="0 286 419.098 286 419.098 0.503 0 0.503"></polygon>
        <polygon id="path-45" points="0 286 419.098 286 419.098 0.503 0 0.503"></polygon>
        <polygon id="path-47" points="0 286 419.098 286 419.098 0.503 0 0.503"></polygon>
        <polygon id="path-49" points="0 286 419.098 286 419.098 0.503 0 0.503"></polygon>
        <polygon id="path-51" points="0 286 419.098 286 419.098 0.503 0 0.503"></polygon>
        <polygon id="path-53" points="0 286 419.098 286 419.098 0.503 0 0.503"></polygon>
        <polygon id="path-55" points="0 286 419.098 286 419.098 0.503 0 0.503"></polygon>
        <polygon id="path-57" points="0 286 419.098 286 419.098 0.503 0 0.503"></polygon>
        <polygon id="path-59" points="0 286 419.098 286 419.098 0.503 0 0.503"></polygon>
        <polygon id="path-61" points="0 286 419.098 286 419.098 0.503 0 0.503"></polygon>
        <polygon id="path-63" points="0 286 419.098 286 419.098 0.503 0 0.503"></polygon>
        <polygon id="path-65" points="0 286 419.098 286 419.098 0.503 0 0.503"></polygon>
        <polygon id="path-67" points="0 286 419.098 286 419.098 0.503 0 0.503"></polygon>
        <polygon id="path-69" points="0 286 419.098 286 419.098 0.503 0 0.503"></polygon>
        <polygon id="path-71" points="0 286 419.098 286 419.098 0.503 0 0.503"></polygon>
        <polygon id="path-73" points="0 286 419.098 286 419.098 0.503 0 0.503"></polygon>
        <polygon id="path-75" points="0 286 419.098 286 419.098 0.503 0 0.503"></polygon>
        <polygon id="path-77" points="0 286 419.098 286 419.098 0.503 0 0.503"></polygon>
        <polygon id="path-79" points="0 286 419.098 286 419.098 0.503 0 0.503"></polygon>
        <polygon id="path-81" points="0 286 419.098 286 419.098 0.503 0 0.503"></polygon>
    </defs>
    <g id="Page-1" stroke="none" stroke-width="1" fill="none" fill-rule="evenodd">
        <g id="ligar_decodificador" transform="translate(96.000000, 18.000000)">
            <g id="Group-21" transform="translate(0.000000, 0.497000)">
                <path d="M322.3618,285.9998 L26.0148,285.9998 C21.3408,285.9998 17.5148,282.1758 17.5148,277.4998 C17.5148,272.8248 21.3408,269.0008 26.0148,269.0008 L322.3618,269.0008 C327.0368,269.0008 330.8618,272.8248 330.8618,277.4998 C330.8618,282.1758 327.0368,285.9998 322.3618,285.9998 Z" id="Fill-1" fill="#D5DAE2" fill-rule="nonzero"></path>
                <path d="M22.0238,261.4998 L22.0238,267.0358 C22.0238,272.6148 25.3558,276.4998 28.5638,276.4998 L74.5278,276.4998 C77.7348,276.4998 79.0238,272.6148 79.0238,267.0358 L79.0238,261.4998 L22.0238,261.4998 Z" id="Fill-3" fill="#2D2B2C" fill-rule="nonzero"></path>
                <path d="M269.0239,261.4998 L269.0239,267.0358 C269.0239,272.6148 271.9809,276.4998 275.1889,276.4998 L321.1519,276.4998 C324.3599,276.4998 326.0239,272.6148 326.0239,267.0358 L326.0239,261.4998 L269.0239,261.4998 Z" id="Fill-5" fill="#2D2B2C" fill-rule="nonzero"></path>
                <path d="M330.7827,262.6687 L17.6887,262.6687 C7.9607,262.6687 0.0007,254.7087 0.0007,244.9807 L0.0007,178.1697 C0.0007,168.4407 7.9607,160.4807 17.6887,160.4807 L330.7827,160.4807 C340.5117,160.4807 348.4707,168.4407 348.4707,178.1697 L348.4707,244.9807 C348.4707,254.7087 340.5117,262.6687 330.7827,262.6687" id="Fill-7" fill="#645E5E" fill-rule="nonzero"></path>
                <path d="M337.0239,161.8152 L337.0239,261.2812 C344.0239,258.7802 348.0239,252.6542 348.0239,245.2402 L348.0239,178.4292 C348.0239,171.0162 344.0239,164.5022 337.0239,161.8152" id="Fill-9" fill="#2D2B2C" fill-rule="nonzero"></path>
                <path d="M125.1987,198.4656 C123.9587,198.4656 122.9487,199.5276 122.9487,200.8326 L122.9487,223.7236 C122.9487,225.0286 123.9587,226.0906 125.1987,226.0906 L180.4477,226.0906 C181.6877,226.0906 182.6977,225.0286 182.6977,223.7236 L182.6977,200.8326 C182.6977,199.5276 181.6877,198.4656 180.4477,198.4656 L125.1987,198.4656 Z M180.4477,227.7776 L125.1987,227.7776 C123.0747,227.7776 121.3447,225.9586 121.3447,223.7236 L121.3447,200.8326 C121.3447,198.5976 123.0747,196.7786 125.1987,196.7786 L180.4477,196.7786 C182.5717,196.7786 184.3017,198.5976 184.3017,200.8326 L184.3017,223.7236 C184.3017,225.9586 182.5717,227.7776 180.4477,227.7776 L180.4477,227.7776 Z" id="Fill-11" fill="#808080" fill-rule="nonzero"></path>
                <path d="M86.1655,198.4656 C84.9255,198.4656 83.9155,199.5276 83.9155,200.8326 L83.9155,223.7236 C83.9155,225.0286 84.9255,226.0906 86.1655,226.0906 L114.4585,226.0906 C115.6985,226.0906 116.7085,225.0286 116.7085,223.7236 L116.7085,200.8326 C116.7085,199.5276 115.6985,198.4656 114.4585,198.4656 L86.1655,198.4656 Z M114.4585,227.7776 L86.1655,227.7776 C84.0415,227.7776 82.3115,225.9586 82.3115,223.7236 L82.3115,200.8326 C82.3115,198.5976 84.0415,196.7786 86.1655,196.7786 L114.4585,196.7786 C116.5825,196.7786 118.3115,198.5976 118.3115,200.8326 L118.3115,223.7236 C118.3115,225.9586 116.5825,227.7776 114.4585,227.7776 L114.4585,227.7776 Z" id="Fill-13" fill="#808080" fill-rule="nonzero"></path>
                <path d="M204.4994,198.4656 C203.2584,198.4656 202.2494,199.5276 202.2494,200.8326 L202.2494,223.7236 C202.2494,225.0286 203.2584,226.0906 204.4994,226.0906 L232.7914,226.0906 C234.0314,226.0906 235.0414,225.0286 235.0414,223.7236 L235.0414,200.8326 C235.0414,199.5276 234.0314,198.4656 232.7914,198.4656 L204.4994,198.4656 Z M232.7914,227.7776 L204.4994,227.7776 C202.3744,227.7776 200.6454,225.9586 200.6454,223.7236 L200.6454,200.8326 C200.6454,198.5976 202.3744,196.7786 204.4994,196.7786 L232.7914,196.7786 C234.9164,196.7786 236.6454,198.5976 236.6454,200.8326 L236.6454,223.7236 C236.6454,225.9586 234.9164,227.7776 232.7914,227.7776 L232.7914,227.7776 Z" id="Fill-15" fill="#808080" fill-rule="nonzero"></path>
                <path d="M32.9155,198.4656 C31.6755,198.4656 30.6655,199.5276 30.6655,200.8326 L30.6655,223.7236 C30.6655,225.0286 31.6755,226.0906 32.9155,226.0906 L61.2085,226.0906 C62.4485,226.0906 63.4585,225.0286 63.4585,223.7236 L63.4585,200.8326 C63.4585,199.5276 62.4485,198.4656 61.2085,198.4656 L32.9155,198.4656 Z M61.2085,227.7776 L32.9155,227.7776 C30.7915,227.7776 29.0615,225.9586 29.0615,223.7236 L29.0615,200.8326 C29.0615,198.5976 30.7915,196.7786 32.9155,196.7786 L61.2085,196.7786 C63.3325,196.7786 65.0615,198.5976 65.0615,200.8326 L65.0615,223.7236 C65.0615,225.9586 63.3325,227.7776 61.2085,227.7776 L61.2085,227.7776 Z" id="Fill-17" fill="#808080" fill-rule="nonzero"></path>
                <g id="Fill-19-Clipped">
                    <mask id="mask-2" fill="white">
                        <use xlink:href="#path-1"></use>
                    </mask>
                    <g id="path-1"></g>
                    <polygon id="Fill-19" fill="#2D2B2C" fill-rule="nonzero" mask="url(#mask-2)" points="30.727 240.495 63.098 240.495 63.098 230.828 30.727 230.828"></polygon>
                </g>
            </g>
            <g id="ANTENA" transform="translate(34.000000, 231.000000)" fill="#FFFFFF" font-family="SimplonOi-Headline, Simplon Oi" font-size="7" font-weight="500">
                <text>
                    <tspan x="0.3325" y="6.5859">ANTENA</tspan>
                </text>
            </g>
            <g id="Group-25" transform="translate(83.000000, 194.497000)" fill="#2D2B2C" fill-rule="nonzero">
                <polygon id="Fill-22" points="0.805 46.525 98.872 46.525 98.872 36.858 0.805 36.858"></polygon>
                <polygon id="Fill-24" points="196.258 47.495 242.831 47.495 242.831 0.923 196.258 0.923"></polygon>
            </g>
            <g id="AV-/-OUT" transform="translate(119.000000, 231.000000)" fill="#FFFFFF" font-family="SimplonOi-Headline, Simplon Oi" font-size="7" font-weight="500">
                <text id="A">
                    <tspan x="0.8501" y="6.6161">A</tspan>
                </text>
                <text id="V-/-OUT">
                    <tspan x="4.0281" y="6.6161">V / OUT</tspan>
                </text>
            </g>
            <g id="12V---1.5-A" transform="translate(285.000000, 231.000000)" fill="#FFFFFF" font-family="SimplonOi-Headline, Simplon Oi" font-size="7" font-weight="500">
                <text id="1">
                    <tspan x="0.5961" y="6.6161">1</tspan>
                </text>
                <text id="2V--">
                    <tspan x="4.2361" y="6.6161">2V -</tspan>
                </text>
                <text id="1">
                    <tspan x="18.1171" y="6.6161">1</tspan>
                </text>
                <text id=".5-A">
                    <tspan x="22.0644" y="6.6161">.5 A</tspan>
                </text>
            </g>
            <g id="Group-73" transform="translate(0.000000, 0.497000)">
                <path d="M228.6274,223.3191 L208.6624,223.3191 C208.0804,223.3191 207.6054,222.8421 207.6054,222.2601 L207.6054,202.2961 C207.6054,201.7141 208.0804,201.2371 208.6624,201.2371 L228.6274,201.2371 C229.2094,201.2371 229.6864,201.7141 229.6864,202.2961 L229.6864,222.2601 C229.6864,222.8421 229.2094,223.3191 228.6274,223.3191 Z" id="Fill-26" fill="#F2F3F5" fill-rule="nonzero"></path>
                <path d="M208.6625,201.6219 C208.2915,201.6219 207.9885,201.9239 207.9885,202.2959 L207.9885,222.2609 C207.9885,222.6329 208.2915,222.9349 208.6625,222.9349 L228.6275,222.9349 C228.9995,222.9349 229.3025,222.6329 229.3025,222.2609 L229.3025,202.2959 C229.3025,201.9239 228.9995,201.6219 228.6275,201.6219 L208.6625,201.6219 Z M228.6275,223.7029 L208.6625,223.7029 C207.8675,223.7029 207.2215,223.0559 207.2215,222.2609 L207.2215,202.2959 C207.2215,201.5009 207.8675,200.8529 208.6625,200.8529 L228.6275,200.8529 C229.4235,200.8529 230.0695,201.5009 230.0695,202.2959 L230.0695,222.2609 C230.0695,223.0559 229.4235,223.7029 228.6275,223.7029 L228.6275,223.7029 Z" id="Fill-28" fill="#5B5B5D" fill-rule="nonzero"></path>
                <polygon id="Fill-30" fill="#5A5A5C" fill-rule="nonzero" points="218.516 203.4998 209.763 203.4998 209.763 213.4998 212.763 213.4998 212.763 216.4998 215.763 216.4998 215.763 219.4998 218.516 219.4998 221.763 219.4998 221.763 216.4998 224.763 216.4998 224.763 213.4998 227.763 213.4998 227.763 203.4998"></polygon>
                <g id="Fill-32-Clipped">
                    <mask id="mask-4" fill="white">
                        <use xlink:href="#path-3"></use>
                    </mask>
                    <g id="path-3"></g>
                    <polygon id="Fill-32" fill="#3F4243" fill-rule="nonzero" mask="url(#mask-4)" points="209.763 204.5 227.763 204.5 227.763 203.5 209.763 203.5"></polygon>
                </g>
                <g id="Fill-34-Clipped">
                    <mask id="mask-6" fill="white">
                        <use xlink:href="#path-5"></use>
                    </mask>
                    <g id="path-3"></g>
                    <polygon id="Fill-34" fill="#3F4243" fill-rule="nonzero" mask="url(#mask-6)" points="209.763 213.5 212.763 213.5 212.763 212.5 209.763 212.5"></polygon>
                </g>
                <g id="Fill-35-Clipped">
                    <mask id="mask-8" fill="white">
                        <use xlink:href="#path-7"></use>
                    </mask>
                    <g id="path-3"></g>
                    <polygon id="Fill-35" fill="#3F4243" fill-rule="nonzero" mask="url(#mask-8)" points="224.763 213.5 227.763 213.5 227.763 212.5 224.763 212.5"></polygon>
                </g>
                <g id="Fill-36-Clipped">
                    <mask id="mask-10" fill="white">
                        <use xlink:href="#path-9"></use>
                    </mask>
                    <g id="path-3"></g>
                    <polygon id="Fill-36" fill="#3F4243" fill-rule="nonzero" mask="url(#mask-10)" points="212.763 216.5 215.763 216.5 215.763 215.5 212.763 215.5"></polygon>
                </g>
                <g id="Fill-37-Clipped">
                    <mask id="mask-12" fill="white">
                        <use xlink:href="#path-11"></use>
                    </mask>
                    <g id="path-3"></g>
                    <polygon id="Fill-37" fill="#3F4243" fill-rule="nonzero" mask="url(#mask-12)" points="215.763 219.5 221.763 219.5 221.763 218.5 215.763 218.5"></polygon>
                </g>
                <g id="Fill-38-Clipped">
                    <mask id="mask-14" fill="white">
                        <use xlink:href="#path-13"></use>
                    </mask>
                    <g id="path-3"></g>
                    <polygon id="Fill-38" fill="#3F4243" fill-rule="nonzero" mask="url(#mask-14)" points="221.763 216.5 224.763 216.5 224.763 215.5 221.763 215.5"></polygon>
                </g>
                <g id="Fill-39-Clipped">
                    <mask id="mask-16" fill="white">
                        <use xlink:href="#path-15"></use>
                    </mask>
                    <g id="path-3"></g>
                    <polygon id="Fill-39" fill="#BDBEC2" fill-rule="nonzero" mask="url(#mask-16)" points="216.543 210.028 217.982 210.028 217.982 204.814 216.543 204.814"></polygon>
                </g>
                <g id="Fill-40-Clipped">
                    <mask id="mask-18" fill="white">
                        <use xlink:href="#path-17"></use>
                    </mask>
                    <g id="path-3"></g>
                    <polygon id="Fill-40" fill="#BDBEC2" fill-rule="nonzero" mask="url(#mask-18)" points="214.175 210.028 215.615 210.028 215.615 204.814 214.175 204.814"></polygon>
                </g>
                <g id="Fill-41-Clipped">
                    <mask id="mask-20" fill="white">
                        <use xlink:href="#path-19"></use>
                    </mask>
                    <g id="path-3"></g>
                    <polygon id="Fill-41" fill="#BDBEC2" fill-rule="nonzero" mask="url(#mask-20)" points="218.911 210.028 220.35 210.028 220.35 204.814 218.911 204.814"></polygon>
                </g>
                <g id="Fill-42-Clipped">
                    <mask id="mask-22" fill="white">
                        <use xlink:href="#path-21"></use>
                    </mask>
                    <g id="path-3"></g>
                    <polygon id="Fill-42" fill="#BDBEC2" fill-rule="nonzero" mask="url(#mask-22)" points="221.278 210.028 222.718 210.028 222.718 204.814 221.278 204.814"></polygon>
                </g>
                <g id="Fill-43-Clipped">
                    <mask id="mask-24" fill="white">
                        <use xlink:href="#path-23"></use>
                    </mask>
                    <g id="path-3"></g>
                    <path d="M312.1293,212.9988 C312.1293,218.6558 307.5423,223.2418 301.8863,223.2418 C296.2293,223.2418 291.6433,218.6558 291.6433,212.9988 C291.6433,207.3418 296.2293,202.7558 301.8863,202.7558 C307.5423,202.7558 312.1293,207.3418 312.1293,212.9988" id="Fill-43" fill="#0A0909" fill-rule="nonzero" mask="url(#mask-24)"></path>
                </g>
                <g id="Fill-44-Clipped">
                    <mask id="mask-26" fill="white">
                        <use xlink:href="#path-25"></use>
                    </mask>
                    <g id="path-3"></g>
                    <path d="M311.2094,212.9988 C311.2094,218.1468 307.0344,222.3218 301.8864,222.3218 C296.7364,222.3218 292.5624,218.1468 292.5624,212.9988 C292.5624,207.8498 296.7364,203.6758 301.8864,203.6758 C307.0344,203.6758 311.2094,207.8498 311.2094,212.9988" id="Fill-44" fill="#0A0909" fill-rule="nonzero" mask="url(#mask-26)"></path>
                </g>
                <g id="Fill-45-Clipped">
                    <mask id="mask-28" fill="white">
                        <use xlink:href="#path-27"></use>
                    </mask>
                    <g id="path-3"></g>
                    <path d="M309.7202,212.9998 C309.7202,217.3268 306.2122,220.8348 301.8862,220.8348 C297.5592,220.8348 294.0512,217.3268 294.0512,212.9998 C294.0512,208.6738 297.5592,205.1658 301.8862,205.1658 C306.2122,205.1658 309.7202,208.6738 309.7202,212.9998" id="Fill-45" fill="#141414" fill-rule="nonzero" mask="url(#mask-28)"></path>
                </g>
                <g id="Fill-46-Clipped">
                    <mask id="mask-30" fill="white">
                        <use xlink:href="#path-29"></use>
                    </mask>
                    <g id="path-3"></g>
                    <path d="M176.2211,213.1346 C176.2211,218.7916 171.6351,223.3776 165.9781,223.3776 C160.3211,223.3776 155.7351,218.7916 155.7351,213.1346 C155.7351,207.4776 160.3211,202.8916 165.9781,202.8916 C171.6351,202.8916 176.2211,207.4776 176.2211,213.1346" id="Fill-46" fill="#4A474B" fill-rule="nonzero" mask="url(#mask-30)"></path>
                </g>
                <g id="Fill-47-Clipped">
                    <mask id="mask-32" fill="white">
                        <use xlink:href="#path-31"></use>
                    </mask>
                    <g id="path-3"></g>
                    <path d="M175.3012,213.1346 C175.3012,218.2826 171.1272,222.4576 165.9782,222.4576 C160.8282,222.4576 156.6552,218.2826 156.6552,213.1346 C156.6552,207.9856 160.8282,203.8116 165.9782,203.8116 C171.1272,203.8116 175.3012,207.9856 175.3012,213.1346" id="Fill-47" fill="#0A0909" fill-rule="nonzero" mask="url(#mask-32)"></path>
                </g>
                <g id="Fill-48-Clipped">
                    <mask id="mask-34" fill="white">
                        <use xlink:href="#path-33"></use>
                    </mask>
                    <g id="path-3"></g>
                    <path d="M172.4594,213.1346 C172.4594,216.7136 169.5584,219.6156 165.9784,219.6156 C162.3974,219.6156 159.4964,216.7136 159.4964,213.1346 C159.4964,209.5546 162.3974,206.6536 165.9784,206.6536 C169.5584,206.6536 172.4594,209.5546 172.4594,213.1346" id="Fill-48" fill="#F2F3F5" fill-rule="nonzero" mask="url(#mask-34)"></path>
                </g>
                <g id="Fill-49-Clipped">
                    <mask id="mask-36" fill="white">
                        <use xlink:href="#path-35"></use>
                    </mask>
                    <g id="path-3"></g>
                    <path d="M170.1528,213.1346 C170.1528,215.4406 168.2838,217.3096 165.9778,217.3096 C163.6728,217.3096 161.8028,215.4406 161.8028,213.1346 C161.8028,210.8286 163.6728,208.9596 165.9778,208.9596 C168.2838,208.9596 170.1528,210.8286 170.1528,213.1346" id="Fill-49" fill="#0A0909" fill-rule="nonzero" mask="url(#mask-36)"></path>
                </g>
                <g id="Fill-50-Clipped">
                    <mask id="mask-38" fill="white">
                        <use xlink:href="#path-37"></use>
                    </mask>
                    <g id="path-3"></g>
                    <path d="M149.1889,213.1346 C149.1889,218.7916 144.6029,223.3776 138.9459,223.3776 C133.2889,223.3776 128.7029,218.7916 128.7029,213.1346 C128.7029,207.4776 133.2889,202.8916 138.9459,202.8916 C144.6029,202.8916 149.1889,207.4776 149.1889,213.1346" id="Fill-50" fill="#4A474B" fill-rule="nonzero" mask="url(#mask-38)"></path>
                </g>
                <g id="Fill-51-Clipped">
                    <mask id="mask-40" fill="white">
                        <use xlink:href="#path-39"></use>
                    </mask>
                    <g id="path-3"></g>
                    <path d="M148.269,213.1346 C148.269,218.2826 144.095,222.4576 138.946,222.4576 C133.796,222.4576 129.623,218.2826 129.623,213.1346 C129.623,207.9856 133.796,203.8116 138.946,203.8116 C144.095,203.8116 148.269,207.9856 148.269,213.1346" id="Fill-51" fill="#0A0909" fill-rule="nonzero" mask="url(#mask-40)"></path>
                </g>
                <g id="Fill-52-Clipped">
                    <mask id="mask-42" fill="white">
                        <use xlink:href="#path-41"></use>
                    </mask>
                    <g id="path-3"></g>
                    <path d="M145.4272,213.1346 C145.4272,216.7136 142.5262,219.6156 138.9462,219.6156 C135.3662,219.6156 132.4642,216.7136 132.4642,213.1346 C132.4642,209.5546 135.3662,206.6536 138.9462,206.6536 C142.5262,206.6536 145.4272,209.5546 145.4272,213.1346" id="Fill-52" fill="#F2F3F5" fill-rule="nonzero" mask="url(#mask-42)"></path>
                </g>
                <g id="Fill-53-Clipped">
                    <mask id="mask-44" fill="white">
                        <use xlink:href="#path-43"></use>
                    </mask>
                    <g id="path-3"></g>
                    <path d="M143.1205,213.1346 C143.1205,215.4406 141.2515,217.3096 138.9455,217.3096 C136.6405,217.3096 134.7705,215.4406 134.7705,213.1346 C134.7705,210.8286 136.6405,208.9596 138.9455,208.9596 C141.2515,208.9596 143.1205,210.8286 143.1205,213.1346" id="Fill-53" fill="#0A0909" fill-rule="nonzero" mask="url(#mask-44)"></path>
                </g>
                <g id="Fill-54-Clipped">
                    <mask id="mask-46" fill="white">
                        <use xlink:href="#path-45"></use>
                    </mask>
                    <g id="path-3"></g>
                    <path d="M110.5551,213.1346 C110.5551,218.7916 105.9691,223.3776 100.3121,223.3776 C94.6551,223.3776 90.0691,218.7916 90.0691,213.1346 C90.0691,207.4776 94.6551,202.8916 100.3121,202.8916 C105.9691,202.8916 110.5551,207.4776 110.5551,213.1346" id="Fill-54" fill="#4A474B" fill-rule="nonzero" mask="url(#mask-46)"></path>
                </g>
                <g id="Fill-55-Clipped">
                    <mask id="mask-48" fill="white">
                        <use xlink:href="#path-47"></use>
                    </mask>
                    <g id="path-3"></g>
                    <path d="M109.6352,213.1346 C109.6352,218.2826 105.4612,222.4576 100.3122,222.4576 C95.1622,222.4576 90.9892,218.2826 90.9892,213.1346 C90.9892,207.9856 95.1622,203.8116 100.3122,203.8116 C105.4612,203.8116 109.6352,207.9856 109.6352,213.1346" id="Fill-55" fill="#0A0909" fill-rule="nonzero" mask="url(#mask-48)"></path>
                </g>
                <g id="Fill-56-Clipped">
                    <mask id="mask-50" fill="white">
                        <use xlink:href="#path-49"></use>
                    </mask>
                    <g id="path-3"></g>
                    <path d="M106.7934,213.1346 C106.7934,216.7136 103.8924,219.6156 100.3124,219.6156 C96.7314,219.6156 93.8304,216.7136 93.8304,213.1346 C93.8304,209.5546 96.7314,206.6536 100.3124,206.6536 C103.8924,206.6536 106.7934,209.5546 106.7934,213.1346" id="Fill-56" fill="#F2F3F5" fill-rule="nonzero" mask="url(#mask-50)"></path>
                </g>
                <g id="Fill-57-Clipped">
                    <mask id="mask-52" fill="white">
                        <use xlink:href="#path-51"></use>
                    </mask>
                    <g id="path-3"></g>
                    <path d="M104.4868,213.1346 C104.4868,215.4406 102.6178,217.3096 100.3118,217.3096 C98.0068,217.3096 96.1368,215.4406 96.1368,213.1346 C96.1368,210.8286 98.0068,208.9596 100.3118,208.9596 C102.6178,208.9596 104.4868,210.8286 104.4868,213.1346" id="Fill-57" fill="#0A0909" fill-rule="nonzero" mask="url(#mask-52)"></path>
                </g>
                <g id="Fill-58-Clipped">
                    <mask id="mask-54" fill="white">
                        <use xlink:href="#path-53"></use>
                    </mask>
                    <g id="path-3"></g>
                    <path d="M57.1889,213.1678 C57.1889,218.8248 52.6029,223.4108 46.9459,223.4108 C41.2889,223.4108 36.7029,218.8248 36.7029,213.1678 C36.7029,207.5108 41.2889,202.9248 46.9459,202.9248 C52.6029,202.9248 57.1889,207.5108 57.1889,213.1678" id="Fill-58" fill="#4A474B" fill-rule="nonzero" mask="url(#mask-54)"></path>
                </g>
                <g id="Fill-59-Clipped">
                    <mask id="mask-56" fill="white">
                        <use xlink:href="#path-55"></use>
                    </mask>
                    <g id="path-3"></g>
                    <path d="M56.269,213.1678 C56.269,218.3168 52.095,222.4908 46.946,222.4908 C41.796,222.4908 37.623,218.3168 37.623,213.1678 C37.623,208.0198 41.796,203.8448 46.946,203.8448 C52.095,203.8448 56.269,208.0198 56.269,213.1678" id="Fill-59" fill="#0A0909" fill-rule="nonzero" mask="url(#mask-56)"></path>
                </g>
                <g id="Fill-60-Clipped">
                    <mask id="mask-58" fill="white">
                        <use xlink:href="#path-57"></use>
                    </mask>
                    <g id="path-3"></g>
                    <path d="M53.4272,213.1678 C53.4272,216.7478 50.5262,219.6488 46.9462,219.6488 C43.3652,219.6488 40.4642,216.7478 40.4642,213.1678 C40.4642,209.5888 43.3652,206.6868 46.9462,206.6868 C50.5262,206.6868 53.4272,209.5888 53.4272,213.1678" id="Fill-60" fill="#F2F3F5" fill-rule="nonzero" mask="url(#mask-58)"></path>
                </g>
                <g id="Fill-61-Clipped">
                    <mask id="mask-60" fill="white">
                        <use xlink:href="#path-59"></use>
                    </mask>
                    <g id="path-3"></g>
                    <path d="M48.2533,213.1678 C48.2533,213.8908 47.6683,214.4758 46.9453,214.4758 C46.2233,214.4758 45.6383,213.8908 45.6383,213.1678 C45.6383,212.4458 46.2233,211.8598 46.9453,211.8598 C47.6683,211.8598 48.2533,212.4458 48.2533,213.1678" id="Fill-61" fill="#0A0909" fill-rule="nonzero" mask="url(#mask-60)"></path>
                </g>
                <g id="Fill-62-Clipped">
                    <mask id="mask-62" fill="white">
                        <use xlink:href="#path-61"></use>
                    </mask>
                    <g id="path-3"></g>
                    <path d="M354.9868,117.4695 L279.0758,117.4695 C277.0178,117.4695 275.3348,115.7855 275.3348,113.7285 L275.3348,4.2435 C275.3348,2.1865 277.0178,0.5025 279.0758,0.5025 L354.9868,0.5025 C357.0448,0.5025 358.7278,2.1865 358.7278,4.2435 L358.7278,113.7285 C358.7278,115.7855 357.0448,117.4695 354.9868,117.4695" id="Fill-62" fill="#E6E6E6" fill-rule="nonzero" mask="url(#mask-62)"></path>
                </g>
                <g id="Fill-63-Clipped">
                    <mask id="mask-64" fill="white">
                        <use xlink:href="#path-63"></use>
                    </mask>
                    <g id="path-3"></g>
                    <path d="M345.1694,73.991 L288.8944,73.991 C287.3684,73.991 286.1214,72.744 286.1214,71.22 L286.1214,46.754 C286.1214,45.229 287.3684,43.981 288.8944,43.981 L345.1694,43.981 C346.6934,43.981 347.9404,45.229 347.9404,46.754 L347.9404,71.22 C347.9404,72.744 346.6934,73.991 345.1694,73.991" id="Fill-63" fill="#CFCFCF" fill-rule="nonzero" mask="url(#mask-64)"></path>
                </g>
                <g id="Fill-64-Clipped">
                    <mask id="mask-66" fill="white">
                        <use xlink:href="#path-65"></use>
                    </mask>
                    <g id="path-3"></g>
                    <path d="M332.0698,49.6082 L342.3398,56.6862 C343.9508,57.7962 343.9508,60.1752 342.3398,61.2862 L332.0698,68.3642 C331.6038,68.6852 331.0508,68.8572 330.4848,68.8572 L303.5778,68.8572 C303.0108,68.8572 302.4588,68.6852 301.9928,68.3642 L291.7228,61.2862 C290.1118,60.1752 290.1118,57.7962 291.7228,56.6862 L301.9928,49.6082 C302.4588,49.2872 303.0108,49.1152 303.5778,49.1152 L330.4848,49.1152 C331.0508,49.1152 331.6038,49.2872 332.0698,49.6082" id="Fill-64" fill="#E0E0E0" fill-rule="nonzero" mask="url(#mask-66)"></path>
                </g>
                <g id="Fill-65-Clipped">
                    <mask id="mask-68" fill="white">
                        <use xlink:href="#path-67"></use>
                    </mask>
                    <g id="path-3"></g>
                    <path d="M307.5961,56.8347 C307.5961,58.1707 306.5131,59.2537 305.1771,59.2537 C303.8421,59.2537 302.7591,58.1707 302.7591,56.8347 C302.7591,55.4987 303.8421,54.4167 305.1771,54.4167 C306.5131,54.4167 307.5961,55.4987 307.5961,56.8347" id="Fill-65" fill="#5A5657" fill-rule="nonzero" mask="url(#mask-68)"></path>
                </g>
                <g id="Fill-66-Clipped">
                    <mask id="mask-70" fill="white">
                        <use xlink:href="#path-69"></use>
                    </mask>
                    <g id="path-3"></g>
                    <path d="M329.5756,54.5174 C330.8546,54.8984 331.5836,56.2464 331.2016,57.5264 C330.8206,58.8054 329.4726,59.5344 328.1936,59.1524 C326.9136,58.7714 326.1846,57.4234 326.5666,56.1444 C326.9476,54.8644 328.2956,54.1354 329.5756,54.5174" id="Fill-66" fill="#5A5657" fill-rule="nonzero" mask="url(#mask-70)"></path>
                </g>
                <g id="Fill-67-Clipped">
                    <mask id="mask-72" fill="white">
                        <use xlink:href="#path-71"></use>
                    </mask>
                    <g id="path-3"></g>
                    <path d="M319.4496,61.1385 C319.4496,62.4745 318.3666,63.5565 317.0306,63.5565 C315.6946,63.5565 314.6126,62.4745 314.6126,61.1385 C314.6126,59.8025 315.6946,58.7195 317.0306,58.7195 C318.3666,58.7195 319.4496,59.8025 319.4496,61.1385" id="Fill-67" fill="#5A5657" fill-rule="nonzero" mask="url(#mask-72)"></path>
                </g>
                <g id="Fill-68-Clipped">
                    <mask id="mask-74" fill="white">
                        <use xlink:href="#path-73"></use>
                    </mask>
                    <g id="path-3"></g>
                    <path d="M276.9575,1.1306 C276.0925,1.6386 275.2945,2.5606 275.2945,4.2436 L275.2945,113.9396 C275.2945,113.9396 275.4265,115.7716 276.9575,116.7126 L276.9575,1.1306 Z" id="Fill-68" fill="#CFCFCF" fill-rule="nonzero" mask="url(#mask-74)"></path>
                </g>
                <g id="Fill-69-Clipped">
                    <mask id="mask-76" fill="white">
                        <use xlink:href="#path-75"></use>
                    </mask>
                    <g id="path-3"></g>
                    <path d="M214.1407,102.2366 C216.9087,99.1616 219.0507,96.7836 221.6897,93.8516 C206.5667,90.4746 193.7367,93.9736 182.0067,103.6246 C187.6587,88.3116 204.7747,80.0056 228.6857,80.7666 C229.5817,77.5756 230.5047,74.2826 231.6617,70.1546 C234.6547,75.5806 237.2987,80.3496 239.9177,85.1306 C242.4867,89.8216 245.0297,94.5286 247.7817,99.5926 C236.5827,100.4726 225.9087,101.3116 214.1407,102.2366 Z" id="Fill-69" fill="#00C0D2" fill-rule="nonzero" mask="url(#mask-76)"></path>
                </g>
                <g id="Fill-70-Clipped">
                    <mask id="mask-78" fill="white">
                        <use xlink:href="#path-77"></use>
                    </mask>
                    <g id="path-3"></g>
                    <path d="M318.2524,80.449 C303.6244,97.294 309.1684,121.41 323.4734,136.47 C340.2924,154.176 365.6704,158.602 383.3564,175.067 C399.9274,190.495 410.1294,212.729 410.3124,235.434 C410.3954,245.844 408.1394,259.014 398.0214,264.415 C386.5334,270.547 373.3154,263.386 365.5984,254.66 C356.6094,244.495 353.5524,230.011 342.6404,221.532 C331.5004,212.877 316.8204,209.005 302.8904,208.84 C297.4164,208.774 297.4124,217.278 302.8904,217.344 C315.9864,217.498 332.2034,221.365 341.1714,231.701 C345.3524,236.52 347.6534,242.807 350.8154,248.28 C353.7314,253.326 357.1124,258.184 361.1704,262.385 C368.9974,270.486 379.9034,275.947 391.3824,274.947 C402.5004,273.978 411.0264,266.717 415.1834,256.577 C423.4464,236.414 417.5454,211.084 407.5514,192.635 C402.3434,183.021 395.3774,174.199 387.1174,167.027 C377.4334,158.618 366.1374,153.378 354.7424,147.742 C342.7914,141.833 330.7754,134.492 323.5854,122.885 C316.8144,111.953 315.3754,96.7 324.2664,86.463 C327.8394,82.347 321.8494,76.307 318.2524,80.449" id="Fill-70" fill="#1D1D1B" fill-rule="nonzero" mask="url(#mask-78)"></path>
                </g>
                <g id="Fill-71-Clipped">
                    <mask id="mask-80" fill="white">
                        <use xlink:href="#path-79"></use>
                    </mask>
                    <g id="path-3"></g>
                    <polygon id="Fill-71" fill="#232323" fill-rule="nonzero" mask="url(#mask-80)" points="286.15 126.53 351.898 126.53 351.898 34.148 286.15 34.148"></polygon>
                </g>
                <g id="Fill-72-Clipped">
                    <mask id="mask-82" fill="white">
                        <use xlink:href="#path-81"></use>
                    </mask>
                    <g id="path-3"></g>
                    <polygon id="Fill-72" fill="#303030" fill-rule="nonzero" mask="url(#mask-82)" points="281.705 126.53 286.15 126.53 286.15 34.148 281.705 34.148"></polygon>
                </g>
            </g>
        </g>
    </g>
</svg>