<?xml version="1.0" encoding="UTF-8"?>
<svg width="600px" height="330px" viewBox="0 0 600 330" version="1.1" xmlns="http://www.w3.org/2000/svg" xmlns:xlink="http://www.w3.org/1999/xlink">
    <!-- Generator: Sketch 53 (72520) - https://sketchapp.com -->
    <title>Slice Copy 6</title>
    <desc>Created with Sketch.</desc>
    <defs>
        <polygon id="path-1" points="1.08169782e-14 135.30396 1.08169782e-14 0.66396 531.96 0.66396 531.96 135.30396"></polygon>
    </defs>
    <g id="VISÃO-DE-CADA-LADO" stroke="none" stroke-width="1" fill="none" fill-rule="evenodd">
        <g id="Group-3-Copy-2" transform="translate(30.850000, 26.500000)">
            <g id="Group-3-Copy">
                <g id="Group-33">
                    <path d="M47.52,133.980132 L47.52,141.287652 C47.52,148.651932 51.91956,153.780132 56.15412,153.780132 L116.82528,153.780132 C121.05984,153.780132 122.76,148.651932 122.76,141.287652 L122.76,133.980132 L47.52,133.980132 Z" id="Fill-4" fill="#2D2B2C"></path>
                    <path d="M419.76,133.980132 L419.76,141.287652 C419.76,148.651932 423.66456,153.780132 427.89912,153.780132 L488.56896,153.780132 C492.80352,153.780132 495,148.651932 495,141.287652 L495,133.980132 L419.76,133.980132 Z" id="Fill-6" fill="#2D2B2C"></path>
                    <g id="Group-10">
                        <mask id="mask-2" fill="white">
                            <use xlink:href="#path-1"></use>
                        </mask>
                        <g id="Clip-9"></g>
                        <path d="M504.958303,135.30396 L27.0032239,135.30396 C12.1513744,135.30396 0,124.816091 0,111.998755 L0,23.9704829 C0,11.1518294 12.1513744,0.66396 27.0032239,0.66396 L504.958303,0.66396 C519.810152,0.66396 531.96,11.1518294 531.96,23.9704829 L531.96,111.998755 C531.96,124.816091 519.810152,135.30396 504.958303,135.30396 L794.330625,19.14396" id="Fill-8" fill="#645E5E" mask="url(#mask-2)"></path>
                    </g>
                    <g id="Group-2" transform="translate(236.280000, 86.460000)">
                        <path d="M46.2036412,0.132202064 L24.6506494,0.132202064 L3.09765769,0.132202064 C1.40579569,0.132202064 0.0221348212,1.51748504 0.0221348212,3.20772493 L0.0221348212,10.8105602 C0.0221348212,12.5024222 1.40579569,13.8860831 3.09765769,13.8860831 L6.25753034,13.8860831 L6.69712248,14.5608813 L6.73118682,14.6192773 C6.73118682,14.6192773 8.57066094,17.1935678 9.19192953,17.1935678 L14.9925992,17.1935678 L24.6506494,17.1935678 L34.3086996,17.1935678 L40.1093693,17.1935678 C40.7306379,17.1935678 42.5717342,14.6192773 42.5717342,14.6192773 L42.6041764,14.5608813 L43.0437685,13.8860831 L46.2036412,13.8860831 C47.8955032,13.8860831 49.279164,12.5024222 49.279164,10.8105602 L49.279164,3.20772493 C49.279164,1.51748504 47.8955032,0.132202064 46.2036412,0.132202064" id="Fill-63" fill="#0A0909"></path>
                        <path d="M46.2036412,0.132202064 L24.6506494,0.132202064 L3.09765769,0.132202064 C1.40579569,0.132202064 0.0221348212,1.51748504 0.0221348212,3.20772493 L0.0221348212,10.8105602 C0.0221348212,12.5024222 1.40579569,13.8860831 3.09765769,13.8860831 L6.25753034,13.8860831 L6.69712248,14.5608813 L6.73118682,14.6192773 C6.73118682,14.6192773 8.57066094,17.1935678 9.19192953,17.1935678 L14.9925992,17.1935678 L24.6506494,17.1935678 L34.3086996,17.1935678 L40.1093693,17.1935678 C40.7306379,17.1935678 42.5717342,14.6192773 42.5717342,14.6192773 L42.6041764,14.5608813 L43.0437685,13.8860831 L46.2036412,13.8860831 C47.8955032,13.8860831 49.279164,12.5024222 49.279164,10.8105602 L49.279164,3.20772493 C49.279164,1.51748504 47.8955032,0.132202064 46.2036412,0.132202064 Z" id="Stroke-64" stroke="#4A474B" stroke-width="1.32"></path>
                        <polygon id="Fill-65" fill="#BDBEC2" points="13.9246012 8.39118133 16.2604414 8.39118133 16.2604414 5.031789 13.9246012 5.031789"></polygon>
                        <polygon id="Fill-66" fill="#BDBEC2" points="10.0834419 8.39118133 12.419282 8.39118133 12.419282 5.031789 10.0834419 5.031789"></polygon>
                        <polygon id="Fill-67" fill="#BDBEC2" points="17.7657606 8.39118133 20.1016007 8.39118133 20.1016007 5.031789 17.7657606 5.031789"></polygon>
                        <polygon id="Fill-68" fill="#BDBEC2" points="21.6069199 8.39118133 23.9427601 8.39118133 23.9427601 5.031789 21.6069199 5.031789"></polygon>
                        <polygon id="Fill-69" fill="#BDBEC2" points="29.1984004 8.39118133 31.5342406 8.39118133 31.5342406 5.031789 29.1984004 5.031789"></polygon>
                        <polygon id="Fill-70" fill="#BDBEC2" points="25.3588632 8.39118133 27.6947033 8.39118133 27.6947033 5.031789 25.3588632 5.031789"></polygon>
                        <polygon id="Fill-71" fill="#BDBEC2" points="33.0411819 8.39118133 35.3770221 8.39118133 35.3770221 5.031789 33.0411819 5.031789"></polygon>
                        <polygon id="Fill-72" fill="#BDBEC2" points="36.8823413 8.39118133 39.2181814 8.39118133 39.2181814 5.031789 36.8823413 5.031789"></polygon>
                        <polygon id="Fill-73" fill="#5A5A5C" points="10.085064 9.95651865 39.2181814 9.95651865 39.2181814 7.40655982 10.085064 7.40655982"></polygon>
                    </g>
                    <rect id="Rectangle" fill="#000000" x="303.293203" y="91.08" width="58.5242969" height="5.28"></rect>
                    <path d="M517.44,3.155724 L517.44,132.804276 C526.68,129.544358 531.96,121.558145 531.96,111.8957 L531.96,24.8111745 C531.96,15.1474265 526.68,6.65808319 517.44,3.155724 L557.475703,40.0525619" id="Fill-11" fill="#2D2B2C"></path>
                    <path d="M0,3.155724 L0,132.804276 C9.24,129.544358 14.52,121.558145 14.52,111.8957 L14.52,24.8111745 C14.52,15.1474265 9.24,6.65808319 0,3.155724" id="Fill-11-Copy" fill="#2D2B2C" transform="translate(7.260000, 67.980000) rotate(-180.000000) translate(-7.260000, -67.980000) "></path>
                    <g id="Group-20" transform="translate(359.770703, 168.260000) rotate(-180.000000) translate(-359.770703, -168.260000) translate(295.770703, 59.760000)">
                        <path d="M42.0595002,216.072285 L2.86178645,216.072285 C1.71913334,216.072285 0.784592308,215.137744 0.784592308,213.995091 L0.784592308,174.79934 C0.784592308,173.656687 1.71913334,172.720183 2.86178645,172.720183 L42.0595002,172.720183 C43.2021533,172.720183 44.1366943,173.656687 44.1366943,174.79934 L44.1366943,213.995091 C44.1366943,215.137744 43.2021533,216.072285 42.0595002,216.072285 Z" id="Fill-28" fill="#121212"></path>
                        <path d="M2.86217912,173.473706 C2.13182352,173.473706 1.53890043,174.068592 1.53890043,174.798948 L1.53890043,213.996661 C1.53890043,214.727017 2.13182352,215.317977 2.86217912,215.317977 L42.0598929,215.317977 C42.7882851,215.317977 43.3831716,214.727017 43.3831716,213.996661 L43.3831716,174.798948 C43.3831716,174.068592 42.7882851,173.473706 42.0598929,173.473706 L2.86217912,173.473706 Z M42.0598929,216.827771 L2.86217912,216.827771 C1.30133853,216.827771 0.0310695162,215.557502 0.0310695162,213.996661 L0.0310695162,174.798948 C0.0310695162,173.238107 1.30133853,171.965875 2.86217912,171.965875 L42.0598929,171.965875 C43.6207335,171.965875 44.8910025,173.238107 44.8910025,174.798948 L44.8910025,213.996661 C44.8910025,215.557502 43.6207335,216.827771 42.0598929,216.827771 L42.0598929,216.827771 Z" id="Fill-30" fill="#5B5B5D"></path>
                        <g id="Group" transform="translate(90.944694, 77.082252) rotate(-360.000000) translate(-90.944694, -77.082252) translate(54.444694, 0.082252)">
                            <g id="Group-9" transform="translate(36.584622, 57.500000) rotate(-270.000000) translate(-36.584622, -57.500000) translate(-20.915378, 21.500000)">
                                <path d="M9.580032,2.84217094e-14 L105.284387,3.01980663e-14 C110.575292,2.92261427e-14 114.864419,4.28912642 114.864419,9.580032 L114.864419,61.7810368 C114.864419,67.0719424 110.575292,71.3610688 105.284387,71.3610688 L27.6789907,71.3610688 L15.7431235,60.3690194 C15.6975163,60.3270186 15.6523179,60.284576 15.6075347,60.2416976 L1.42108547e-14,45.2980195 L1.42108547e-14,9.580032 C1.35629057e-14,4.28912642 4.28912642,3.11699899e-14 9.580032,3.01980663e-14 Z" id="Rectangle" fill="#E0E0E0"></path>
                                <g id="Group-7" transform="translate(68.640000, 31.680000)" fill="#4B4B4B" fill-rule="nonzero">
                                    <path d="M7.67555712,3.04267008 L4.70486016,3.04267008 L4.70486016,12 L3.0913344,12 L3.0913344,3.04267008 L0.12063744,3.04267008 L0.12063744,1.444224 L7.67555712,1.444224 L7.67555712,3.04267008 Z M13.4075111,12 L11.7487463,12 L8.05422467,1.444224 L9.71298947,1.444224 L12.5781287,9.67772928 L15.4432679,1.444224 L17.1020327,1.444224 L13.4075111,12 Z M7.07236992,20.8776499 L7.07236992,16.444224 L8.68589568,16.444224 L8.68589568,27 L7.07236992,27 L7.07236992,22.476096 L2.72942208,22.476096 L2.72942208,27 L1.11589632,27 L1.11589632,16.444224 L2.72942208,16.444224 L2.72942208,20.8776499 L7.07236992,20.8776499 Z M14.493248,27 L10.7082483,27 L10.7082483,16.444224 L14.493248,16.444224 C15.6192031,16.444224 16.5315146,16.7810002 17.2302099,17.4545626 C17.9289053,18.128125 18.2782477,19.0328967 18.2782477,20.168905 L18.2782477,23.275319 C18.2782477,24.4113273 17.9289053,25.316099 17.2302099,25.9896614 C16.5315146,26.6632238 15.6192031,27 14.493248,27 Z M12.3217741,25.4015539 L14.493248,25.4015539 C15.0160129,25.4015539 15.5086108,25.2256261 15.9710567,24.8737651 C16.4335025,24.5219042 16.6647219,23.9790411 16.6647219,23.2451597 L16.6647219,20.1990643 C16.6647219,19.4651829 16.4335025,18.9223198 15.9710567,18.5704589 C15.5086108,18.2185979 15.0160129,18.0426701 14.493248,18.0426701 L12.3217741,18.0426701 L12.3217741,25.4015539 Z" id="TVHD"></path>
                                </g>
                                <g id="Group-2" transform="translate(50.688000, 31.680000) rotate(-360.000000) translate(-50.688000, -31.680000) translate(32.736000, 12.672000)" fill-rule="nonzero">
                                    <path d="M17.4677941,37.2108718 C22.2732286,38.1357855 29.3639838,37.4829053 29.3639838,29.2208608 C29.3639838,15.9534009 39.350522,13.9558982 33.7859227,5.94257002 C27.0551838,-3.76513789 4.32720033,-1.60441507 0.680079013,12.6112757 C-2.56006739,25.2103105 6.22902539,35.050149 17.4677941,37.2108718 Z" id="Shape" fill="#EDB400"></path>
                                    <path d="M21.341256,16.7927225 C22.2624991,16.7927225 23.0056868,16.0541395 23.0056868,15.1386044 C23.0056868,14.2307628 22.2624991,13.4844862 21.341256,13.4844862 C20.4277544,13.4844862 19.6845667,14.2230692 19.6845667,15.1386044 C19.6845667,16.0464459 20.4277544,16.7927225 21.341256,16.7927225 Z M21.3644806,18.0160005 C20.4277544,18.0160005 19.6690836,20.2240559 19.6690836,22.9475806 C19.6690836,25.6711053 20.4277544,27.8791606 21.3644806,27.8791606 C22.3012068,27.8791606 23.0598776,25.6711053 23.0598776,22.9475806 C23.0598776,20.2240559 22.3012068,18.0160005 21.3644806,18.0160005 Z M13.8164804,18.0083069 C11.0295264,18.0083069 9.17929869,20.2009751 9.17929869,22.939887 C9.17929869,25.6864924 11.0295264,27.871467 13.8164804,27.871467 C16.5956928,27.871467 18.438179,25.6864924 18.438179,22.939887 C18.438179,20.1932816 16.5956928,18.0083069 13.8164804,18.0083069 Z M13.8164804,25.5480081 C12.5391265,25.5480081 11.8346465,24.2477943 11.8346465,22.9244999 C11.8346465,21.6012054 12.5391265,20.3394595 13.8164804,20.3394595 C15.0860927,20.3394595 15.7905727,21.6088989 15.7905727,22.9244999 C15.7905727,24.2477943 15.0860927,25.5480081 13.8164804,25.5480081 Z" id="Shape" fill="#FFFFFF"></path>
                                </g>
                            </g>
                            <path d="M33.2295583,134.129131 C33.2295583,137.15343 33.2295583,140.078942 33.2295583,143.140044 C25.6694565,138.06511 18.2359052,133.075404 10.732622,128.038565 C18.2191179,123.132795 25.6526692,118.261892 33.2024404,113.3148 C33.2024404,116.355886 33.2024404,119.282044 33.2024404,122.258564 C46.9473756,122.258564 47.7008677,122.258564 61.420622,122.258564 C61.420622,126.229409 61.420622,130.149246 61.420622,134.129131 C47.7705996,134.129131 47.0190445,134.129131 33.2295583,134.129131 Z" id="XMLID_78_" fill="#00B9FA" fill-rule="nonzero" transform="translate(36.076622, 128.227422) rotate(-90.000000) translate(-36.076622, -128.227422) "></path>
                        </g>
                        <polygon id="Fill-32" fill="#5A5A5C" points="21.9858042 176.94259 4.80085111 176.94259 4.80085111 196.575805 10.6908156 196.575805 10.6908156 202.46577 16.5807801 202.46577 16.5807801 208.355734 21.9858042 208.355734 28.3607091 208.355734 28.3607091 202.46577 34.2506736 202.46577 34.2506736 196.575805 40.1406381 196.575805 40.1406381 176.94259"></polygon>
                        <polygon id="Fill-34" fill="#3F4243" points="4.80163644 178.905716 40.1414234 178.905716 40.1414234 176.942394 4.80163644 176.942394"></polygon>
                        <polygon id="Fill-36" fill="#3F4243" points="4.80163644 196.575609 10.6916009 196.575609 10.6916009 194.612288 4.80163644 194.612288"></polygon>
                        <polygon id="Fill-37" fill="#3F4243" points="34.2514589 196.575609 40.1414234 196.575609 40.1414234 194.612288 34.2514589 194.612288"></polygon>
                        <polygon id="Fill-38" fill="#3F4243" points="10.6916009 202.465574 16.5815654 202.465574 16.5815654 200.502252 10.6916009 200.502252"></polygon>
                        <polygon id="Fill-39" fill="#3F4243" points="16.5815654 208.355538 28.3614944 208.355538 28.3614944 206.392217 16.5815654 206.392217"></polygon>
                        <polygon id="Fill-40" fill="#3F4243" points="28.3614944 202.465574 34.2514589 202.465574 34.2514589 200.502252 28.3614944 200.502252"></polygon>
                        <polygon id="Fill-41" fill="#BDBEC2" points="18.1109929 189.758957 20.9381758 189.758957 20.9381758 179.522199 18.1109929 179.522199"></polygon>
                        <polygon id="Fill-42" fill="#BDBEC2" points="13.4618476 189.758957 16.2890305 189.758957 16.2890305 179.522199 13.4618476 179.522199"></polygon>
                        <polygon id="Fill-43" fill="#BDBEC2" points="22.7601382 189.758957 25.5873212 189.758957 25.5873212 179.522199 22.7601382 179.522199"></polygon>
                        <polygon id="Fill-44" fill="#BDBEC2" points="27.4092835 189.758957 30.2364665 189.758957 30.2364665 179.522199 27.4092835 179.522199"></polygon>
                    </g>
                    <g id="Group-24" transform="translate(33.000000, 60.720000)">
                        <path d="M38.5075189,18.9358861 C38.5075189,29.2467222 30.1487608,37.6054802 19.8379247,37.6054802 C9.52708862,37.6054802 1.16833055,29.2467222 1.16833055,18.9358861 C1.16833055,8.62504995 9.52708862,0.266291878 19.8379247,0.266291878 C30.1487608,0.266291878 38.5075189,8.62504995 38.5075189,18.9358861" id="Fill-60" fill="#4A474B"></path>
                        <path d="M36.8306638,18.9358861 C36.8306638,28.3208065 29.2228452,35.9286251 19.8379247,35.9286251 C10.4511816,35.9286251 2.84518564,28.3208065 2.84518564,18.9358861 C2.84518564,9.55096558 10.4511816,1.94314696 19.8379247,1.94314696 C29.2228452,1.94314696 36.8306638,9.55096558 36.8306638,18.9358861" id="Fill-61" fill="#0A0909"></path>
                        <path d="M31.6510043,18.9358861 C31.6510043,25.4610395 26.3616201,30.7486011 19.8382893,30.7486011 C13.3131358,30.7486011 8.02375159,25.4610395 8.02375159,18.9358861 C8.02375159,12.4107326 13.3131358,7.12317104 19.8382893,7.12317104 C26.3616201,7.12317104 31.6510043,12.4107326 31.6510043,18.9358861" id="Fill-62" fill="#F2F3F5"></path>
                        <path d="M22.2208816,18.9358861 C22.2208816,20.2536754 21.1546205,21.3199365 19.8368311,21.3199365 C18.5208644,21.3199365 17.4546033,20.2536754 17.4546033,18.9358861 C17.4546033,17.6180967 18.5208644,16.5518356 19.8368311,16.5518356 C21.1546205,16.5518356 22.2208816,17.6180967 22.2208816,18.9358861" id="Fill-63" fill="#0A0909"></path>
                    </g>
                    <g id="Group-31" transform="translate(462.000000, 67.980000)">
                        <polygon id="Fill-26" fill="#2D2B2C" points="0 35.7376024 31.8644118 35.7376024 31.8644118 0.544072941 0 0.544072941"></polygon>
                        <path d="M24.8000241,16.5504706 C24.8000241,21.4480782 20.8298135,25.4182888 15.9322059,25.4182888 C11.0345982,25.4182888 7.06438765,21.4480782 7.06438765,16.5504706 C7.06438765,11.6538141 11.0345982,7.68265235 15.9322059,7.68265235 C20.8298135,7.68265235 24.8000241,11.6538141 24.8000241,16.5504706" id="Fill-46" fill="#0A0909"></path>
                        <path d="M23.3843882,16.5523729 C23.3843882,20.6681135 20.0476611,24.0048406 15.9319205,24.0048406 C11.8161799,24.0048406 8.47945288,20.6681135 8.47945288,16.5523729 C8.47945288,12.4366324 11.8161799,9.09990529 15.9319205,9.09990529 C20.0476611,9.09990529 23.3843882,12.4366324 23.3843882,16.5523729" id="Fill-47" fill="#141414"></path>
                        <path d="M18.7666932,16.5504706 C18.7666932,18.1158601 17.4975954,19.3849579 15.9322059,19.3849579 C14.3668164,19.3849579 13.0977186,18.1158601 13.0977186,16.5504706 C13.0977186,14.9850811 14.3668164,13.7159833 15.9322059,13.7159833 C17.4975954,13.7159833 18.7666932,14.9850811 18.7666932,16.5504706" id="Fill-47-Copy" fill="#000000"></path>
                    </g>
                    <g id="Group-30" transform="translate(91.080000, 60.060000)">
                        <g id="Group-29" transform="translate(43.560000, 0.000000)">
                            <path d="M35.5313448,17.7656724 C35.5313448,27.5772909 27.5772909,35.5313448 17.7656724,35.5313448 C7.95405385,35.5313448 -6.21724894e-14,27.5772909 -6.21724894e-14,17.7656724 C-6.21724894e-14,7.95578827 7.95405385,3.92574862e-13 17.7656724,3.92574862e-13 C27.5772909,3.92574862e-13 35.5313448,7.95578827 35.5313448,17.7656724" id="Fill-56" fill="#4A474B"></path>
                            <path d="M33.9358511,17.7656724 C33.9358511,26.6962052 26.6963786,33.9374121 17.7658458,33.9374121 C8.83531307,33.9374121 1.59584059,26.6962052 1.59584059,17.7656724 C1.59584059,8.83687405 8.83531307,1.59566715 17.7658458,1.59566715 C26.6963786,1.59566715 33.9358511,8.83687405 33.9358511,17.7656724" id="Fill-57" fill="#0A0909"></path>
                            <path d="M29.006974,17.7656724 C29.006974,23.9748989 23.9736848,29.0081881 17.7661927,29.0081881 C11.5569662,29.0081881 6.52367701,23.9748989 6.52367701,17.7656724 C6.52367701,11.5581803 11.5569662,6.5248911 17.7661927,6.5248911 C23.9736848,6.5248911 29.006974,11.5581803 29.006974,17.7656724" id="Fill-58" fill="#FF0202"></path>
                            <path d="M25.0061855,17.7656724 C25.0061855,21.7652468 21.764553,25.0068793 17.7649786,25.0068793 C13.7671387,25.0068793 10.5237717,21.7652468 10.5237717,17.7656724 C10.5237717,13.7678324 13.7671387,10.5261999 17.7649786,10.5261999 C21.764553,10.5261999 25.0061855,13.7678324 25.0061855,17.7656724" id="Fill-59" fill="#0A0909"></path>
                        </g>
                        <g id="Group-29-Copy-2" transform="translate(0.199480, 0.000000)">
                            <path d="M35.5313448,17.7656724 C35.5313448,27.5772909 27.5772909,35.5313448 17.7656724,35.5313448 C7.95405385,35.5313448 -6.21724894e-14,27.5772909 -6.21724894e-14,17.7656724 C-6.21724894e-14,7.95578827 7.95405385,3.92574862e-13 17.7656724,3.92574862e-13 C27.5772909,3.92574862e-13 35.5313448,7.95578827 35.5313448,17.7656724" id="Fill-56" fill="#4A474B"></path>
                            <path d="M33.9358511,17.7656724 C33.9358511,26.6962052 26.6963786,33.9374121 17.7658458,33.9374121 C8.83531307,33.9374121 1.59584059,26.6962052 1.59584059,17.7656724 C1.59584059,8.83687405 8.83531307,1.59566715 17.7658458,1.59566715 C26.6963786,1.59566715 33.9358511,8.83687405 33.9358511,17.7656724" id="Fill-57" fill="#0A0909"></path>
                            <path d="M29.006974,17.7656724 C29.006974,23.9748989 23.9736848,29.0081881 17.7661927,29.0081881 C11.5569662,29.0081881 6.52367701,23.9748989 6.52367701,17.7656724 C6.52367701,11.5581803 11.5569662,6.5248911 17.7661927,6.5248911 C23.9736848,6.5248911 29.006974,11.5581803 29.006974,17.7656724" id="Fill-58" fill="#F2F3F5"></path>
                            <path d="M25.0061855,17.7656724 C25.0061855,21.7652468 21.764553,25.0068793 17.7649786,25.0068793 C13.7671387,25.0068793 10.5237717,21.7652468 10.5237717,17.7656724 C10.5237717,13.7678324 13.7671387,10.5261999 17.7649786,10.5261999 C21.764553,10.5261999 25.0061855,13.7678324 25.0061855,17.7656724" id="Fill-59" fill="#0A0909"></path>
                        </g>
                        <g id="Group-29-Copy" transform="translate(86.920520, 0.000000)">
                            <path d="M35.5313448,17.7656724 C35.5313448,27.5772909 27.5772909,35.5313448 17.7656724,35.5313448 C7.95405385,35.5313448 -6.21724894e-14,27.5772909 -6.21724894e-14,17.7656724 C-6.21724894e-14,7.95578827 7.95405385,3.92574862e-13 17.7656724,3.92574862e-13 C27.5772909,3.92574862e-13 35.5313448,7.95578827 35.5313448,17.7656724" id="Fill-56" fill="#4A474B"></path>
                            <path d="M33.9358511,17.7656724 C33.9358511,26.6962052 26.6963786,33.9374121 17.7658458,33.9374121 C8.83531307,33.9374121 1.59584059,26.6962052 1.59584059,17.7656724 C1.59584059,8.83687405 8.83531307,1.59566715 17.7658458,1.59566715 C26.6963786,1.59566715 33.9358511,8.83687405 33.9358511,17.7656724" id="Fill-57" fill="#0A0909"></path>
                            <path d="M29.006974,17.7656724 C29.006974,23.9748989 23.9736848,29.0081881 17.7661927,29.0081881 C11.5569662,29.0081881 6.52367701,23.9748989 6.52367701,17.7656724 C6.52367701,11.5581803 11.5569662,6.5248911 17.7661927,6.5248911 C23.9736848,6.5248911 29.006974,11.5581803 29.006974,17.7656724" id="Fill-58" fill="#FFBA00"></path>
                            <path d="M25.0061855,17.7656724 C25.0061855,21.7652468 21.764553,25.0068793 17.7649786,25.0068793 C13.7671387,25.0068793 10.5237717,21.7652468 10.5237717,17.7656724 C10.5237717,13.7678324 13.7671387,10.5261999 17.7649786,10.5261999 C21.764553,10.5261999 25.0061855,13.7678324 25.0061855,17.7656724" id="Fill-59" fill="#0A0909"></path>
                        </g>
                    </g>
                </g>
            </g>
            <polygon id="Path-3" stroke="#FFFFFF" stroke-width="1.32" points="317.681719 79.4526563 347.051719 79.4526563 353.667188 46.3727344 342.759141 34.98 309.54 34.98"></polygon>
            <path d="M321.406657,59.4621973 C321.318677,59.4621973 321.230794,59.4680613 321.143594,59.4797503 C320.059765,59.6250358 319.298924,60.6214303 319.44421,61.7052598 L321.036703,73.5852598 C321.16848,74.5683191 322.007298,75.3021973 322.99915,75.3021973 L341.506032,75.3021973 C342.498226,75.3021973 343.337222,74.5678269 343.468599,73.5843691 L345.055603,61.7043691 C345.067213,61.6174609 345.073037,61.5298775 345.073037,61.4421973 C345.073037,60.3486735 344.18656,59.4621973 343.093037,59.4621973 L321.406657,59.4621973 Z" id="Rectangle" stroke="#FFFFFF" stroke-width="1.32"></path>
            <polygon id="Triangle" fill="#FFFFFF" transform="translate(332.249092, 50.185459) rotate(-180.000000) translate(-332.249092, -50.185459) " points="332.249092 44.245459 338.189092 56.125459 326.309092 56.125459"></polygon>
        </g>
    </g>
</svg>