<?xml version="1.0" encoding="UTF-8"?>
<svg width="600px" height="330px" viewBox="0 0 600 330" version="1.1" xmlns="http://www.w3.org/2000/svg" xmlns:xlink="http://www.w3.org/1999/xlink">
    <!-- Generator: Sketch 53 (72520) - https://sketchapp.com -->
    <title>Slice Copy 4</title>
    <desc>Created with Sketch.</desc>
    <defs>
        <rect id="path-1" x="0.5" y="0" width="16" height="25.5" rx="2"></rect>
        <rect id="path-3" x="0.5" y="0" width="16" height="25.5" rx="2"></rect>
        <radialGradient cx="50%" cy="-32.7480408%" fx="50%" fy="-32.7480408%" r="112.093443%" gradientTransform="translate(0.500000,-0.327480),scale(0.709763,1.000000),rotate(90.000000),translate(-0.500000,0.327480)" id="radialGradient-5">
            <stop stop-color="#FF0000" offset="0%"></stop>
            <stop stop-color="#FF0000" stop-opacity="0" offset="100%"></stop>
        </radialGradient>
        <linearGradient x1="50%" y1="0%" x2="50%" y2="100%" id="linearGradient-6">
            <stop stop-color="#FBA747" offset="0%"></stop>
            <stop stop-color="#FA7842" offset="100%"></stop>
        </linearGradient>
        <linearGradient x1="19.9469091%" y1="12.2420975%" x2="85.8436194%" y2="81.4774427%" id="linearGradient-7">
            <stop stop-color="#FEFF7F" offset="0%"></stop>
            <stop stop-color="#E4652E" offset="100%"></stop>
        </linearGradient>
    </defs>
    <g id="VISÃO-DE-CADA-LADO" stroke="none" stroke-width="1" fill="none" fill-rule="evenodd">
        <g id="Group-5-Copy-3" transform="translate(4.000000, 33.500000)">
            <circle id="Oval" fill="#2F2D2D" cx="269.708984" cy="206.208984" r="10.7089844"></circle>
            <circle id="Oval-Copy-4" fill="#2F2D2D" cx="249.708984" cy="206.208984" r="10.7089844"></circle>
            <circle id="Oval-Copy" fill="#2F2D2D" cx="291.126953" cy="206.208984" r="10.7089844"></circle>
            <circle id="Oval-Copy-2" fill="#2F2D2D" cx="311" cy="206.208984" r="10.7089844"></circle>
            <circle id="Oval-Copy-3" fill="#2F2D2D" cx="331" cy="206.208984" r="10.7089844"></circle>
            <rect id="Rectangle" fill="#C8C8C8" x="141" y="14.5" width="16" height="21" rx="2"></rect>
            <rect id="Rectangle-Copy-20" fill="#C8C8C8" x="170" y="14.5" width="16" height="21" rx="2"></rect>
            <g id="Group-5-Copy" transform="translate(227.208984, 10.503418)">
                <mask id="mask-2" fill="white">
                    <use xlink:href="#path-1"></use>
                </mask>
                <use id="Mask" fill="#C8C8C8" xlink:href="#path-1"></use>
                <g opacity="0.5" mask="url(#mask-2)" stroke="#979797" stroke-linecap="square">
                    <g transform="translate(0.000000, -1.000000)">
                        <path d="M0.708984375,16 L16.7089844,12.5" id="Line"></path>
                        <path d="M0.708984375,13.7086182 L16.7089844,10.2086182" id="Line-Copy"></path>
                        <path d="M0.708984375,11.4681396 L16.7089844,7.96813965" id="Line-Copy-2"></path>
                        <path d="M0.708984375,9.17260742 L16.7089844,5.67260742" id="Line-Copy-3"></path>
                        <path d="M0.708984375,6.88146973 L16.7089844,3.38146973" id="Line-Copy-4"></path>
                        <path d="M0.708984375,4.52087402 L16.7089844,1.02087402" id="Line-Copy-5"></path>
                    </g>
                </g>
            </g>
            <g id="Group-5-Copy-2" transform="translate(257.208984, 10.503418)">
                <mask id="mask-4" fill="white">
                    <use xlink:href="#path-3"></use>
                </mask>
                <use id="Mask" fill="#C8C8C8" xlink:href="#path-3"></use>
                <g id="Group-5-Copy" opacity="0.5" mask="url(#mask-4)" stroke="#979797" stroke-linecap="square">
                    <g transform="translate(0.000000, -1.000000)">
                        <path d="M0.708984375,16 L16.7089844,12.5" id="Line"></path>
                        <path d="M0.708984375,13.7086182 L16.7089844,10.2086182" id="Line-Copy"></path>
                        <path d="M0.708984375,11.4681396 L16.7089844,7.96813965" id="Line-Copy-2"></path>
                        <path d="M0.708984375,9.17260742 L16.7089844,5.67260742" id="Line-Copy-3"></path>
                        <path d="M0.708984375,6.88146973 L16.7089844,3.38146973" id="Line-Copy-4"></path>
                        <path d="M0.708984375,4.52087402 L16.7089844,1.02087402" id="Line-Copy-5"></path>
                    </g>
                </g>
            </g>
            <path d="M119.705466,177.447212 L81.5,219.177071 C90.2419815,231.409428 97.7686745,238.830784 104.080079,241.441136 C110.391483,244.051489 120.031457,247.088706 133,250.552788 C148.843421,247.249139 159.824706,244.211922 165.943856,241.441136 C172.063006,238.670351 178.248387,231.248996 184.5,219.177071 L144.578531,177.447212 L119.705466,177.447212 Z" id="Path-2" fill="url(#radialGradient-5)"></path>
            <g id="Group-3" transform="translate(0.000000, 25.000000)">
                <rect id="Rectangle" fill="#645E5E" x="0" y="0" width="369" height="189" rx="18"></rect>
                <path d="M365.074763,174.5 L3.92523681,174.5 C5.4909998,180.817275 11.1986454,185.5 18,185.5 L351,185.5 C357.801355,185.5 363.509,180.817275 365.074763,174.5 Z" id="Rectangle-Copy-19" stroke="#2E2B2B" stroke-width="7"></path>
                <g id="Group-2" transform="translate(40.000000, 21.000000)" fill="#2B2828">
                    <g id="Group">
                        <rect id="Rectangle-Copy" transform="translate(8.404880, 2.028764) scale(1, -1) translate(-8.404880, -2.028764) " x="-1.59872116e-14" y="1.33226763e-14" width="16.8097596" height="4.05752817" rx="2.02876409"></rect>
                        <rect id="Rectangle-Copy-2" transform="translate(31.011108, 2.028764) scale(1, -1) translate(-31.011108, -2.028764) " x="22.6062284" y="1.33226763e-14" width="16.8097596" height="4.05752817" rx="2.02876409"></rect>
                        <rect id="Rectangle-Copy-3" transform="translate(53.617337, 2.028764) scale(1, -1) translate(-53.617337, -2.028764) " x="45.2124568" y="1.33226763e-14" width="16.8097596" height="4.05752817" rx="2.02876409"></rect>
                        <rect id="Rectangle-Copy-4" transform="translate(76.223565, 2.028764) scale(1, -1) translate(-76.223565, -2.028764) " x="67.8186851" y="1.33226763e-14" width="16.8097596" height="4.05752817" rx="2.02876409"></rect>
                        <rect id="Rectangle-Copy-8" transform="translate(98.829793, 2.028764) scale(1, -1) translate(-98.829793, -2.028764) " x="90.4249135" y="1.33226763e-14" width="16.8097596" height="4.05752817" rx="2.02876409"></rect>
                        <rect id="Rectangle-Copy-7" transform="translate(121.436022, 2.028764) scale(1, -1) translate(-121.436022, -2.028764) " x="113.031142" y="1.33226763e-14" width="16.8097596" height="4.05752817" rx="2.02876409"></rect>
                        <rect id="Rectangle-Copy-6" transform="translate(144.042250, 2.028764) scale(1, -1) translate(-144.042250, -2.028764) " x="135.63737" y="1.33226763e-14" width="16.8097596" height="4.05752817" rx="2.02876409"></rect>
                        <rect id="Rectangle-Copy-5" transform="translate(166.648478, 2.028764) scale(1, -1) translate(-166.648478, -2.028764) " x="158.243599" y="1.33226763e-14" width="16.8097596" height="4.05752817" rx="2.02876409"></rect>
                        <rect id="Rectangle-Copy-9" transform="translate(189.254707, 2.028764) scale(1, -1) translate(-189.254707, -2.028764) " x="180.849827" y="1.33226763e-14" width="16.8097596" height="4.05752817" rx="2.02876409"></rect>
                        <rect id="Rectangle-Copy-18" transform="translate(213.203664, 2.028764) scale(1, -1) translate(-213.203664, -2.028764) " x="204.798785" y="1.33226763e-14" width="16.8097596" height="4.05752817" rx="2.02876409"></rect>
                        <rect id="Rectangle-Copy-17" transform="translate(235.809893, 2.028764) scale(1, -1) translate(-235.809893, -2.028764) " x="227.405013" y="1.33226763e-14" width="16.8097596" height="4.05752817" rx="2.02876409"></rect>
                        <rect id="Rectangle-Copy-16" transform="translate(258.416121, 2.028764) scale(1, -1) translate(-258.416121, -2.028764) " x="250.011241" y="1.33226763e-14" width="16.8097596" height="4.05752817" rx="2.02876409"></rect>
                        <rect id="Rectangle-Copy-10" transform="translate(281.022349, 2.028764) scale(1, -1) translate(-281.022349, -2.028764) " x="272.61747" y="1.33226763e-14" width="16.8097596" height="4.05752817" rx="2.02876409"></rect>
                        <rect id="Rectangle-Copy-2" transform="translate(19.418171, 9.853997) scale(1, -1) translate(-19.418171, -9.853997) " x="11.0132907" y="7.8252329" width="16.8097596" height="4.05752817" rx="2.02876409"></rect>
                        <rect id="Rectangle-Copy-3" transform="translate(42.024399, 9.853997) scale(1, -1) translate(-42.024399, -9.853997) " x="33.6195191" y="7.8252329" width="16.8097596" height="4.05752817" rx="2.02876409"></rect>
                        <rect id="Rectangle-Copy-4" transform="translate(64.630627, 9.853997) scale(1, -1) translate(-64.630627, -9.853997) " x="56.2257475" y="7.8252329" width="16.8097596" height="4.05752817" rx="2.02876409"></rect>
                        <rect id="Rectangle-Copy-8" transform="translate(87.236856, 9.853997) scale(1, -1) translate(-87.236856, -9.853997) " x="78.8319759" y="7.8252329" width="16.8097596" height="4.05752817" rx="2.02876409"></rect>
                        <rect id="Rectangle-Copy-7" transform="translate(109.843084, 9.853997) scale(1, -1) translate(-109.843084, -9.853997) " x="101.438204" y="7.8252329" width="16.8097596" height="4.05752817" rx="2.02876409"></rect>
                        <rect id="Rectangle-Copy-6" transform="translate(132.449312, 9.853997) scale(1, -1) translate(-132.449312, -9.853997) " x="124.044433" y="7.8252329" width="16.8097596" height="4.05752817" rx="2.02876409"></rect>
                        <rect id="Rectangle-Copy-15" transform="translate(200.758974, 9.853997) scale(1, -1) translate(-200.758974, -9.853997) " x="192.354094" y="7.8252329" width="16.8097596" height="4.05752817" rx="2.02876409"></rect>
                        <rect id="Rectangle-Copy-14" transform="translate(223.365202, 9.853997) scale(1, -1) translate(-223.365202, -9.853997) " x="214.960323" y="7.8252329" width="16.8097596" height="4.05752817" rx="2.02876409"></rect>
                        <rect id="Rectangle-Copy-13" transform="translate(245.971431, 9.853997) scale(1, -1) translate(-245.971431, -9.853997) " x="237.566551" y="7.8252329" width="16.8097596" height="4.05752817" rx="2.02876409"></rect>
                        <rect id="Rectangle-Copy-12" transform="translate(268.577659, 9.853997) scale(1, -1) translate(-268.577659, -9.853997) " x="260.172779" y="7.8252329" width="16.8097596" height="4.05752817" rx="2.02876409"></rect>
                        <rect id="Rectangle-Copy-11" transform="translate(291.183888, 9.853997) scale(1, -1) translate(-291.183888, -9.853997) " x="282.779008" y="7.8252329" width="16.8097596" height="4.05752817" rx="2.02876409"></rect>
                        <rect id="Rectangle-Copy-5" transform="translate(155.055541, 9.853997) scale(1, -1) translate(-155.055541, -9.853997) " x="146.650661" y="7.8252329" width="16.8097596" height="4.05752817" rx="2.02876409"></rect>
                        <rect id="Rectangle-Copy-9" transform="translate(177.661769, 9.853997) scale(1, -1) translate(-177.661769, -9.853997) " x="169.256889" y="7.8252329" width="16.8097596" height="4.05752817" rx="2.02876409"></rect>
                    </g>
                    <g id="Group-Copy" transform="translate(0.000000, 16.688255)">
                        <rect id="Rectangle-Copy" transform="translate(8.404880, 2.028764) scale(1, -1) translate(-8.404880, -2.028764) " x="-1.59872116e-14" y="1.33226763e-14" width="16.8097596" height="4.05752817" rx="2.02876409"></rect>
                        <rect id="Rectangle-Copy-2" transform="translate(31.011108, 2.028764) scale(1, -1) translate(-31.011108, -2.028764) " x="22.6062284" y="1.33226763e-14" width="16.8097596" height="4.05752817" rx="2.02876409"></rect>
                        <rect id="Rectangle-Copy-3" transform="translate(53.617337, 2.028764) scale(1, -1) translate(-53.617337, -2.028764) " x="45.2124568" y="1.33226763e-14" width="16.8097596" height="4.05752817" rx="2.02876409"></rect>
                        <rect id="Rectangle-Copy-4" transform="translate(76.223565, 2.028764) scale(1, -1) translate(-76.223565, -2.028764) " x="67.8186851" y="1.33226763e-14" width="16.8097596" height="4.05752817" rx="2.02876409"></rect>
                        <rect id="Rectangle-Copy-8" transform="translate(98.829793, 2.028764) scale(1, -1) translate(-98.829793, -2.028764) " x="90.4249135" y="1.33226763e-14" width="16.8097596" height="4.05752817" rx="2.02876409"></rect>
                        <rect id="Rectangle-Copy-7" transform="translate(121.436022, 2.028764) scale(1, -1) translate(-121.436022, -2.028764) " x="113.031142" y="1.33226763e-14" width="16.8097596" height="4.05752817" rx="2.02876409"></rect>
                        <rect id="Rectangle-Copy-6" transform="translate(144.042250, 2.028764) scale(1, -1) translate(-144.042250, -2.028764) " x="135.63737" y="1.33226763e-14" width="16.8097596" height="4.05752817" rx="2.02876409"></rect>
                        <rect id="Rectangle-Copy-5" transform="translate(166.648478, 2.028764) scale(1, -1) translate(-166.648478, -2.028764) " x="158.243599" y="1.33226763e-14" width="16.8097596" height="4.05752817" rx="2.02876409"></rect>
                        <rect id="Rectangle-Copy-9" transform="translate(189.254707, 2.028764) scale(1, -1) translate(-189.254707, -2.028764) " x="180.849827" y="1.33226763e-14" width="16.8097596" height="4.05752817" rx="2.02876409"></rect>
                        <rect id="Rectangle-Copy-18" transform="translate(213.203664, 2.028764) scale(1, -1) translate(-213.203664, -2.028764) " x="204.798785" y="1.33226763e-14" width="16.8097596" height="4.05752817" rx="2.02876409"></rect>
                        <rect id="Rectangle-Copy-17" transform="translate(235.809893, 2.028764) scale(1, -1) translate(-235.809893, -2.028764) " x="227.405013" y="1.33226763e-14" width="16.8097596" height="4.05752817" rx="2.02876409"></rect>
                        <rect id="Rectangle-Copy-16" transform="translate(258.416121, 2.028764) scale(1, -1) translate(-258.416121, -2.028764) " x="250.011241" y="1.33226763e-14" width="16.8097596" height="4.05752817" rx="2.02876409"></rect>
                        <rect id="Rectangle-Copy-10" transform="translate(281.022349, 2.028764) scale(1, -1) translate(-281.022349, -2.028764) " x="272.61747" y="1.33226763e-14" width="16.8097596" height="4.05752817" rx="2.02876409"></rect>
                        <rect id="Rectangle-Copy-2" transform="translate(19.418171, 9.853997) scale(1, -1) translate(-19.418171, -9.853997) " x="11.0132907" y="7.8252329" width="16.8097596" height="4.05752817" rx="2.02876409"></rect>
                        <rect id="Rectangle-Copy-3" transform="translate(42.024399, 9.853997) scale(1, -1) translate(-42.024399, -9.853997) " x="33.6195191" y="7.8252329" width="16.8097596" height="4.05752817" rx="2.02876409"></rect>
                        <rect id="Rectangle-Copy-4" transform="translate(64.630627, 9.853997) scale(1, -1) translate(-64.630627, -9.853997) " x="56.2257475" y="7.8252329" width="16.8097596" height="4.05752817" rx="2.02876409"></rect>
                        <rect id="Rectangle-Copy-8" transform="translate(87.236856, 9.853997) scale(1, -1) translate(-87.236856, -9.853997) " x="78.8319759" y="7.8252329" width="16.8097596" height="4.05752817" rx="2.02876409"></rect>
                        <rect id="Rectangle-Copy-7" transform="translate(109.843084, 9.853997) scale(1, -1) translate(-109.843084, -9.853997) " x="101.438204" y="7.8252329" width="16.8097596" height="4.05752817" rx="2.02876409"></rect>
                        <rect id="Rectangle-Copy-6" transform="translate(132.449312, 9.853997) scale(1, -1) translate(-132.449312, -9.853997) " x="124.044433" y="7.8252329" width="16.8097596" height="4.05752817" rx="2.02876409"></rect>
                        <rect id="Rectangle-Copy-15" transform="translate(200.758974, 9.853997) scale(1, -1) translate(-200.758974, -9.853997) " x="192.354094" y="7.8252329" width="16.8097596" height="4.05752817" rx="2.02876409"></rect>
                        <rect id="Rectangle-Copy-14" transform="translate(223.365202, 9.853997) scale(1, -1) translate(-223.365202, -9.853997) " x="214.960323" y="7.8252329" width="16.8097596" height="4.05752817" rx="2.02876409"></rect>
                        <rect id="Rectangle-Copy-13" transform="translate(245.971431, 9.853997) scale(1, -1) translate(-245.971431, -9.853997) " x="237.566551" y="7.8252329" width="16.8097596" height="4.05752817" rx="2.02876409"></rect>
                        <rect id="Rectangle-Copy-12" transform="translate(268.577659, 9.853997) scale(1, -1) translate(-268.577659, -9.853997) " x="260.172779" y="7.8252329" width="16.8097596" height="4.05752817" rx="2.02876409"></rect>
                        <rect id="Rectangle-Copy-11" transform="translate(291.183888, 9.853997) scale(1, -1) translate(-291.183888, -9.853997) " x="282.779008" y="7.8252329" width="16.8097596" height="4.05752817" rx="2.02876409"></rect>
                        <rect id="Rectangle-Copy-5" transform="translate(155.055541, 9.853997) scale(1, -1) translate(-155.055541, -9.853997) " x="146.650661" y="7.8252329" width="16.8097596" height="4.05752817" rx="2.02876409"></rect>
                        <rect id="Rectangle-Copy-9" transform="translate(177.661769, 9.853997) scale(1, -1) translate(-177.661769, -9.853997) " x="169.256889" y="7.8252329" width="16.8097596" height="4.05752817" rx="2.02876409"></rect>
                    </g>
                    <g id="Group-Copy-2" transform="translate(0.000000, 33.376510)">
                        <rect id="Rectangle-Copy" transform="translate(8.404880, 2.028764) scale(1, -1) translate(-8.404880, -2.028764) " x="-1.59872116e-14" y="1.33226763e-14" width="16.8097596" height="4.05752817" rx="2.02876409"></rect>
                        <rect id="Rectangle-Copy-2" transform="translate(31.011108, 2.028764) scale(1, -1) translate(-31.011108, -2.028764) " x="22.6062284" y="1.33226763e-14" width="16.8097596" height="4.05752817" rx="2.02876409"></rect>
                        <rect id="Rectangle-Copy-3" transform="translate(53.617337, 2.028764) scale(1, -1) translate(-53.617337, -2.028764) " x="45.2124568" y="1.33226763e-14" width="16.8097596" height="4.05752817" rx="2.02876409"></rect>
                        <rect id="Rectangle-Copy-4" transform="translate(76.223565, 2.028764) scale(1, -1) translate(-76.223565, -2.028764) " x="67.8186851" y="1.33226763e-14" width="16.8097596" height="4.05752817" rx="2.02876409"></rect>
                        <rect id="Rectangle-Copy-8" transform="translate(98.829793, 2.028764) scale(1, -1) translate(-98.829793, -2.028764) " x="90.4249135" y="1.33226763e-14" width="16.8097596" height="4.05752817" rx="2.02876409"></rect>
                        <rect id="Rectangle-Copy-7" transform="translate(121.436022, 2.028764) scale(1, -1) translate(-121.436022, -2.028764) " x="113.031142" y="1.33226763e-14" width="16.8097596" height="4.05752817" rx="2.02876409"></rect>
                        <rect id="Rectangle-Copy-6" transform="translate(144.042250, 2.028764) scale(1, -1) translate(-144.042250, -2.028764) " x="135.63737" y="1.33226763e-14" width="16.8097596" height="4.05752817" rx="2.02876409"></rect>
                        <rect id="Rectangle-Copy-5" transform="translate(166.648478, 2.028764) scale(1, -1) translate(-166.648478, -2.028764) " x="158.243599" y="1.33226763e-14" width="16.8097596" height="4.05752817" rx="2.02876409"></rect>
                        <rect id="Rectangle-Copy-9" transform="translate(189.254707, 2.028764) scale(1, -1) translate(-189.254707, -2.028764) " x="180.849827" y="1.33226763e-14" width="16.8097596" height="4.05752817" rx="2.02876409"></rect>
                        <rect id="Rectangle-Copy-18" transform="translate(213.203664, 2.028764) scale(1, -1) translate(-213.203664, -2.028764) " x="204.798785" y="1.33226763e-14" width="16.8097596" height="4.05752817" rx="2.02876409"></rect>
                        <rect id="Rectangle-Copy-17" transform="translate(235.809893, 2.028764) scale(1, -1) translate(-235.809893, -2.028764) " x="227.405013" y="1.33226763e-14" width="16.8097596" height="4.05752817" rx="2.02876409"></rect>
                        <rect id="Rectangle-Copy-16" transform="translate(258.416121, 2.028764) scale(1, -1) translate(-258.416121, -2.028764) " x="250.011241" y="1.33226763e-14" width="16.8097596" height="4.05752817" rx="2.02876409"></rect>
                        <rect id="Rectangle-Copy-10" transform="translate(281.022349, 2.028764) scale(1, -1) translate(-281.022349, -2.028764) " x="272.61747" y="1.33226763e-14" width="16.8097596" height="4.05752817" rx="2.02876409"></rect>
                        <rect id="Rectangle-Copy-2" transform="translate(19.418171, 9.853997) scale(1, -1) translate(-19.418171, -9.853997) " x="11.0132907" y="7.8252329" width="16.8097596" height="4.05752817" rx="2.02876409"></rect>
                        <rect id="Rectangle-Copy-3" transform="translate(42.024399, 9.853997) scale(1, -1) translate(-42.024399, -9.853997) " x="33.6195191" y="7.8252329" width="16.8097596" height="4.05752817" rx="2.02876409"></rect>
                        <rect id="Rectangle-Copy-4" transform="translate(64.630627, 9.853997) scale(1, -1) translate(-64.630627, -9.853997) " x="56.2257475" y="7.8252329" width="16.8097596" height="4.05752817" rx="2.02876409"></rect>
                        <rect id="Rectangle-Copy-8" transform="translate(87.236856, 9.853997) scale(1, -1) translate(-87.236856, -9.853997) " x="78.8319759" y="7.8252329" width="16.8097596" height="4.05752817" rx="2.02876409"></rect>
                        <rect id="Rectangle-Copy-7" transform="translate(109.843084, 9.853997) scale(1, -1) translate(-109.843084, -9.853997) " x="101.438204" y="7.8252329" width="16.8097596" height="4.05752817" rx="2.02876409"></rect>
                        <rect id="Rectangle-Copy-6" transform="translate(132.449312, 9.853997) scale(1, -1) translate(-132.449312, -9.853997) " x="124.044433" y="7.8252329" width="16.8097596" height="4.05752817" rx="2.02876409"></rect>
                        <rect id="Rectangle-Copy-15" transform="translate(200.758974, 9.853997) scale(1, -1) translate(-200.758974, -9.853997) " x="192.354094" y="7.8252329" width="16.8097596" height="4.05752817" rx="2.02876409"></rect>
                        <rect id="Rectangle-Copy-14" transform="translate(223.365202, 9.853997) scale(1, -1) translate(-223.365202, -9.853997) " x="214.960323" y="7.8252329" width="16.8097596" height="4.05752817" rx="2.02876409"></rect>
                        <rect id="Rectangle-Copy-13" transform="translate(245.971431, 9.853997) scale(1, -1) translate(-245.971431, -9.853997) " x="237.566551" y="7.8252329" width="16.8097596" height="4.05752817" rx="2.02876409"></rect>
                        <rect id="Rectangle-Copy-12" transform="translate(268.577659, 9.853997) scale(1, -1) translate(-268.577659, -9.853997) " x="260.172779" y="7.8252329" width="16.8097596" height="4.05752817" rx="2.02876409"></rect>
                        <rect id="Rectangle-Copy-11" transform="translate(291.183888, 9.853997) scale(1, -1) translate(-291.183888, -9.853997) " x="282.779008" y="7.8252329" width="16.8097596" height="4.05752817" rx="2.02876409"></rect>
                        <rect id="Rectangle-Copy-5" transform="translate(155.055541, 9.853997) scale(1, -1) translate(-155.055541, -9.853997) " x="146.650661" y="7.8252329" width="16.8097596" height="4.05752817" rx="2.02876409"></rect>
                        <rect id="Rectangle-Copy-9" transform="translate(177.661769, 9.853997) scale(1, -1) translate(-177.661769, -9.853997) " x="169.256889" y="7.8252329" width="16.8097596" height="4.05752817" rx="2.02876409"></rect>
                    </g>
                </g>
            </g>
            <g id="Group-4" transform="translate(448.155034, 125.511318)">
                <rect id="Rectangle" fill="url(#linearGradient-6)" x="5.68434189e-14" y="-2.84217094e-14" width="141.844966" height="81.2384804" rx="7"></rect>
                <path d="M24.9890879,30.7216551 L38.8995566,50.0347969 C39.2223357,50.4829399 39.1207083,51.1078957 38.6725653,51.4306748 C38.5023506,51.5532735 38.2978921,51.6192402 38.0881221,51.6192402 L9.65250414,51.6192402 C9.10021939,51.6192402 8.65250414,51.1715249 8.65250414,50.6192402 C8.65250414,50.4024136 8.72297798,50.1914612 8.85330519,50.0181736 L23.3784544,30.7050318 C23.7104143,30.2636464 24.3373345,30.1749395 24.7787199,30.5068994 C24.8592636,30.5674752 24.9301875,30.6398784 24.9890879,30.7216551 Z" id="Triangle" fill="#FFFFFF" transform="translate(23.844966, 40.619240) rotate(-90.000000) translate(-23.844966, -40.619240) "></path>
                <g id="Group-8" transform="translate(106.844966, 40.619240) rotate(-180.000000) translate(-106.844966, -40.619240) translate(83.844966, 18.119240)" fill-rule="nonzero">
                    <g id="Group-2" transform="translate(14.040000, 29.790000) rotate(-360.000000) translate(-14.040000, -29.790000) translate(0.000000, 14.940000)">
                        <path d="M13.7845597,29.36464 C17.5767271,30.0945277 23.1723357,29.5793129 23.1723357,23.0593914 C23.1723357,12.5894894 31.0531266,11.0131772 26.6618708,4.68952811 C21.350366,-2.97122624 3.41477299,-1.26611038 0.536678514,9.95207994 C-2.0202552,19.8945001 4.91558191,27.6595241 13.7845597,29.36464 Z" id="Shape" fill="url(#linearGradient-7)"></path>
                        <path d="M16.8412689,17.4184994 C17.56826,17.4184994 18.1547402,16.835653 18.1547402,16.1131663 C18.1547402,15.3967509 17.56826,14.8078332 16.8412689,14.8078332 C16.120387,14.8078332 15.5339068,15.3906796 15.5339068,16.1131663 C15.5339068,16.8295817 16.120387,17.4184994 16.8412689,17.4184994 Z M16.8595964,18.3838388 C16.120387,18.3838388 15.5216885,20.1263067 15.5216885,22.2755528 C15.5216885,24.424799 16.120387,26.1672669 16.8595964,26.1672669 C17.5988058,26.1672669 18.1975044,24.424799 18.1975044,22.2755528 C18.1975044,20.1263067 17.5988058,18.3838388 16.8595964,18.3838388 Z M10.9031569,18.3777675 C8.70385609,18.3777675 7.24376475,20.1080928 7.24376475,22.2694815 C7.24376475,24.4369416 8.70385609,26.1611956 10.9031569,26.1611956 C13.0963484,26.1611956 14.5503306,24.4369416 14.5503306,22.2694815 C14.5503306,20.1020214 13.0963484,18.3777675 10.9031569,18.3777675 Z M10.9031569,24.3276579 C9.89514401,24.3276579 9.33920965,23.3016054 9.33920965,22.2573389 C9.33920965,21.2130724 9.89514401,20.2173765 10.9031569,20.2173765 C11.9050605,20.2173765 12.4609949,21.2191437 12.4609949,22.2573389 C12.4609949,23.3016054 11.9050605,24.3276579 10.9031569,24.3276579 Z" id="Shape" fill="#FFFFFF"></path>
                    </g>
                    <g id="Group-7" transform="translate(14.040000, 0.000000)" fill="#FFFFFF">
                        <path d="M13.743,5.962 L8.424,5.962 L8.424,22 L5.535,22 L5.535,5.962 L0.216,5.962 L0.216,3.1 L13.743,3.1 L13.743,5.962 Z M24.006,22 L21.036,22 L14.421,3.1 L17.391,3.1 L22.521,17.842 L27.651,3.1 L30.621,3.1 L24.006,22 Z" id="TV"></path>
                        <path d="M17.0136,29.5536 L17.0136,25.32 L18.5544,25.32 L18.5544,35.4 L17.0136,35.4 L17.0136,31.08 L12.8664,31.08 L12.8664,35.4 L11.3256,35.4 L11.3256,25.32 L12.8664,25.32 L12.8664,29.5536 L17.0136,29.5536 Z M24.1,35.4 L20.4856,35.4 L20.4856,25.32 L24.1,25.32 C25.1752054,25.32 26.0463967,25.6415968 26.7136,26.2848 C27.3808034,26.9280032 27.7144,27.7919946 27.7144,28.8768 L27.7144,31.8432 C27.7144,32.9280054 27.3808034,33.7919968 26.7136,34.4352 C26.0463967,35.0784032 25.1752054,35.4 24.1,35.4 Z M22.0264,33.8736 L24.1,33.8736 C24.5992025,33.8736 25.0695978,33.7056017 25.5112,33.3696 C25.9528022,33.0335983 26.1736,32.5152035 26.1736,31.8144 L26.1736,28.9056 C26.1736,28.2047965 25.9528022,27.6864017 25.5112,27.3504 C25.0695978,27.0143983 24.5992025,26.8464 24.1,26.8464 L22.0264,26.8464 L22.0264,33.8736 Z" id="HD"></path>
                    </g>
                </g>
            </g>
            <path d="M404.766212,171.494268 C404.766212,175.542834 404.766212,179.459156 404.766212,183.556989 C394.645662,176.763281 384.694523,170.083666 374.650034,163.340954 C384.67205,156.773703 394.623189,150.253127 404.72991,143.630558 C404.72991,147.701597 404.72991,151.618783 404.72991,155.603388 C423.129968,155.603388 424.138652,155.603388 442.505,155.603388 C442.505,160.919075 442.505,166.16648 442.505,171.494268 C424.232,171.494268 423.225909,171.494268 404.766212,171.494268 Z" id="XMLID_78_" fill="#00B9FA" fill-rule="nonzero"></path>
            <rect id="Rectangle" fill="#FF0000" x="48" y="211" width="6" height="3"></rect>
            <path d="M14.2369844,10.288 L17.2929844,0.8 L18.5409844,0.8 L14.9409844,12 L13.5329844,12 L9.93298438,0.8 L11.1809844,0.8 L14.2369844,10.288 Z M21.1649844,0.8 L21.1649844,2.352 L19.9649844,2.352 L19.9649844,0.8 L21.1649844,0.8 Z M21.1649844,3.744 L21.1649844,12 L19.9649844,12 L19.9649844,3.744 L21.1649844,3.744 Z M29.0049844,6.16 L27.7729844,6.16 C27.6983173,5.6799976 27.5063193,5.31200128 27.1969844,5.056 C26.8876495,4.79999872 26.4769869,4.672 25.9649844,4.672 C25.5169821,4.672 25.1463192,4.7786656 24.8529844,4.992 C24.5596496,5.2053344 24.4129844,5.4986648 24.4129844,5.872 C24.4129844,6.21333504 24.51965,6.47199912 24.7329844,6.648 C24.9463188,6.82400088 25.2183161,6.94933296 25.5489844,7.024 L27.1009844,7.408 C27.7196541,7.55733408 28.2263157,7.81333152 28.6209844,8.176 C29.015653,8.53866848 29.2129844,9.09866288 29.2129844,9.856 C29.2129844,10.6666707 28.9356538,11.2533315 28.3809844,11.616 C27.8263149,11.9786685 27.1329885,12.16 26.3009844,12.16 C25.4369801,12.16 24.6849876,11.9413355 24.0449844,11.504 C23.4049812,11.0666645 23.0529847,10.352005 22.9889844,9.36 L24.2209844,9.36 C24.274318,9.93600288 24.4983157,10.3546654 24.8929844,10.616 C25.287653,10.8773346 25.7569817,11.008 26.3009844,11.008 C26.8769873,11.008 27.300983,10.9013344 27.5729844,10.688 C27.8449857,10.4746656 27.9863177,10.1866685 27.9969844,9.824 C27.9969844,9.557332 27.9196518,9.31466776 27.7649844,9.096 C27.6103169,8.87733224 27.3036533,8.7146672 26.8449844,8.608 L25.2289844,8.208 C24.7809821,8.1013328 24.33032,7.87733504 23.8769844,7.536 C23.4236488,7.19466496 23.1969844,6.65600368 23.1969844,5.92 C23.1969844,5.16266288 23.4716483,4.57333544 24.0209844,4.152 C24.5703205,3.73066456 25.2236473,3.52 25.9809844,3.52 C26.8129885,3.52 27.5089816,3.73066456 28.0689844,4.152 C28.6289872,4.57333544 28.9409841,5.24266208 29.0049844,6.16 Z M34.0129844,4.672 C33.5436487,4.672 33.1196529,4.805332 32.7409844,5.072 C32.3623158,5.338668 32.1249849,5.738664 32.0289844,6.272 L30.7969844,6.272 C30.9036516,5.24799488 31.2876477,4.53333536 31.9489844,4.128 C32.610321,3.72266464 33.2983141,3.52 34.0129844,3.52 C34.7809882,3.52 35.5116476,3.75733096 36.2049844,4.232 C36.8983212,4.70666904 37.2449844,5.54666064 37.2449844,6.752 L37.2449844,12 L36.0449844,12 L36.0449844,11.152 C35.7783164,11.493335 35.4209866,11.7466658 34.9729844,11.912 C34.5249821,12.0773342 34.0236538,12.16 33.4689844,12.16 C32.7649809,12.16 32.1329872,11.9626686 31.5729844,11.568 C31.0129816,11.1733314 30.7329844,10.5546709 30.7329844,9.712 C30.7329844,9.29599792 30.8529832,8.8480024 31.0929844,8.368 C31.3329856,7.8879976 31.8103141,7.54666768 32.5249844,7.344 C32.9943201,7.20533264 33.5249814,7.10400032 34.1169844,7.04 C34.7089873,6.97599968 35.3516476,6.92266688 36.0449844,6.88 L36.0449844,6.736 C36.0449844,6.05332992 35.8396531,5.5386684 35.4289844,5.192 C35.0183157,4.8453316 34.5463204,4.672 34.0129844,4.672 Z M36.0449844,9.024 L36.0449844,7.952 C35.1489799,8.01600032 34.4289871,8.08533296 33.8849844,8.16 C33.3409817,8.23466704 32.9303191,8.34666592 32.6529844,8.496 C32.3543162,8.66666752 32.1596515,8.84799904 32.0689844,9.04 C31.9783173,9.23200096 31.9329844,9.44533216 31.9329844,9.68 C31.9329844,10.0533352 32.0796496,10.3679987 32.3729844,10.624 C32.6663192,10.8800013 33.1169813,11.008 33.7249844,11.008 C34.3649876,11.008 34.9116488,10.837335 35.3649844,10.496 C35.81832,10.154665 36.0449844,9.6640032 36.0449844,9.024 Z M32.4449844,2.624 L31.5169844,2.624 C31.6129849,2.15466432 31.8129829,1.76533488 32.1169844,1.456 C32.4209859,1.14666512 32.7703157,0.992 33.1649844,0.992 C33.3356519,0.992 33.4929837,1.01066648 33.6369844,1.048 C33.7809851,1.08533352 33.9169837,1.14133296 34.0449844,1.216 L34.5249844,1.488 C34.5889847,1.53066688 34.6636506,1.5653332 34.7489844,1.592 C34.8343181,1.6186668 34.9249839,1.632 35.0209844,1.632 C35.1596517,1.632 35.2929837,1.57333392 35.4209844,1.456 C35.548985,1.33866608 35.6343175,1.19466752 35.6769844,1.024 L36.6049844,1.024 C36.5089839,1.49333568 36.3089859,1.88266512 36.0049844,2.192 C35.7009829,2.50133488 35.351653,2.656 34.9569844,2.656 C34.7863169,2.656 34.6289851,2.63733352 34.4849844,2.6 C34.3409837,2.56266648 34.204985,2.50666704 34.0769844,2.432 L33.5969844,2.16 C33.5329841,2.11733312 33.4583181,2.0826668 33.3729844,2.056 C33.2876506,2.0293332 33.1969849,2.016 33.1009844,2.016 C32.962317,2.016 32.828985,2.07466608 32.7009844,2.192 C32.5729837,2.30933392 32.4876513,2.45333248 32.4449844,2.624 Z M44.5729844,8.944 L44.5729844,6.736 C44.5729844,6.05332992 44.3676531,5.5386684 43.9569844,5.192 C43.5463157,4.8453316 43.0743204,4.672 42.5409844,4.672 C42.0076484,4.672 41.5356531,4.8453316 41.1249844,5.192 C40.7143157,5.5386684 40.5089844,6.05332992 40.5089844,6.736 L40.5089844,8.944 C40.5089844,9.62667008 40.7143157,10.1413316 41.1249844,10.488 C41.5356531,10.8346684 42.0076484,11.008 42.5409844,11.008 C43.0743204,11.008 43.5463157,10.8346684 43.9569844,10.488 C44.3676531,10.1413316 44.5729844,9.62667008 44.5729844,8.944 Z M45.7729844,6.752 L45.7729844,8.928 C45.7729844,10.1333394 45.4263212,10.973331 44.7329844,11.448 C44.0396476,11.922669 43.3089882,12.16 42.5409844,12.16 C41.7729805,12.16 41.0423212,11.922669 40.3489844,11.448 C39.6556476,10.973331 39.3089844,10.1333394 39.3089844,8.928 L39.3089844,6.752 C39.3089844,5.54666064 39.6556476,4.70666904 40.3489844,4.232 C41.0423212,3.75733096 41.7729805,3.52 42.5409844,3.52 C43.3089882,3.52 44.0396476,3.75733096 44.7329844,4.232 C45.4263212,4.70666904 45.7729844,5.54666064 45.7729844,6.752 Z M56.9889844,6.16 L55.7569844,6.16 C55.6823173,5.6799976 55.4903193,5.31200128 55.1809844,5.056 C54.8716495,4.79999872 54.4609869,4.672 53.9489844,4.672 C53.5009821,4.672 53.1303192,4.7786656 52.8369844,4.992 C52.5436496,5.2053344 52.3969844,5.4986648 52.3969844,5.872 C52.3969844,6.21333504 52.50365,6.47199912 52.7169844,6.648 C52.9303188,6.82400088 53.2023161,6.94933296 53.5329844,7.024 L55.0849844,7.408 C55.7036541,7.55733408 56.2103157,7.81333152 56.6049844,8.176 C56.999653,8.53866848 57.1969844,9.09866288 57.1969844,9.856 C57.1969844,10.6666707 56.9196538,11.2533315 56.3649844,11.616 C55.8103149,11.9786685 55.1169885,12.16 54.2849844,12.16 C53.4209801,12.16 52.6689876,11.9413355 52.0289844,11.504 C51.3889812,11.0666645 51.0369847,10.352005 50.9729844,9.36 L52.2049844,9.36 C52.258318,9.93600288 52.4823157,10.3546654 52.8769844,10.616 C53.271653,10.8773346 53.7409817,11.008 54.2849844,11.008 C54.8609873,11.008 55.284983,10.9013344 55.5569844,10.688 C55.8289857,10.4746656 55.9703177,10.1866685 55.9809844,9.824 C55.9809844,9.557332 55.9036518,9.31466776 55.7489844,9.096 C55.5943169,8.87733224 55.2876533,8.7146672 54.8289844,8.608 L53.2129844,8.208 C52.7649821,8.1013328 52.31432,7.87733504 51.8609844,7.536 C51.4076488,7.19466496 51.1809844,6.65600368 51.1809844,5.92 C51.1809844,5.16266288 51.4556483,4.57333544 52.0049844,4.152 C52.5543205,3.73066456 53.2076473,3.52 53.9649844,3.52 C54.7969885,3.52 55.4929816,3.73066456 56.0529844,4.152 C56.6129872,4.57333544 56.9249841,5.24266208 56.9889844,6.16 Z M62.1569844,12.16 C61.484981,12.16 60.7863213,11.9333356 60.0609844,11.48 C59.3356474,11.0266644 58.9729844,10.1920061 58.9729844,8.976 L58.9729844,3.744 L60.1729844,3.744 L60.1729844,8.896 C60.1729844,9.63200368 60.3809823,10.1679983 60.7969844,10.504 C61.2129865,10.8400017 61.6663153,11.008 62.1569844,11.008 C62.6583202,11.008 63.1143157,10.8320018 63.5249844,10.48 C63.9356531,10.1279982 64.1409844,9.61600336 64.1409844,8.944 L64.1409844,3.744 L65.3409844,3.744 L65.3409844,12 L64.1409844,12 L64.1409844,11.152 C63.9383167,11.4826683 63.6449863,11.7333325 63.2609844,11.904 C62.8769825,12.0746675 62.5089861,12.16 62.1569844,12.16 Z M70.9729844,12.16 C70.5996492,12.16 70.2183197,12.0746675 69.8289844,11.904 C69.4396491,11.7333325 69.1436521,11.4826683 68.9409844,11.152 L68.9409844,14.944 L67.7409844,14.944 L67.7409844,3.744 L68.9409844,3.744 L68.9409844,4.528 C69.1436521,4.19733168 69.4396491,3.94666752 69.8289844,3.776 C70.2183197,3.60533248 70.5996492,3.52 70.9729844,3.52 C71.7409882,3.52 72.4716476,3.75733096 73.1649844,4.232 C73.8583212,4.70666904 74.2049844,5.54666064 74.2049844,6.752 L74.2049844,8.928 C74.2049844,10.1333394 73.8583212,10.973331 73.1649844,11.448 C72.4716476,11.922669 71.7409882,12.16 70.9729844,12.16 Z M73.0049844,8.944 L73.0049844,6.736 C73.0049844,6.05332992 72.7996531,5.5386684 72.3889844,5.192 C71.9783157,4.8453316 71.5063204,4.672 70.9729844,4.672 C70.4396484,4.672 69.9676531,4.8453316 69.5569844,5.192 C69.1463157,5.5386684 68.9409844,6.05332992 68.9409844,6.736 L68.9409844,8.944 C68.9409844,9.62667008 69.1463157,10.1413316 69.5569844,10.488 C69.9676531,10.8346684 70.4396484,11.008 70.9729844,11.008 C71.5063204,11.008 71.9783157,10.8346684 72.3889844,10.488 C72.7996531,10.1413316 73.0049844,9.62667008 73.0049844,8.944 Z M79.3889844,11.008 C79.8583201,11.008 80.2823158,10.874668 80.6609844,10.608 C81.0396529,10.341332 81.2769839,9.941336 81.3729844,9.408 L82.6049844,9.408 C82.4983172,10.4320051 82.114321,11.1466646 81.4529844,11.552 C80.7916477,11.9573354 80.1036546,12.16 79.3889844,12.16 C78.6209805,12.16 77.8903212,11.922669 77.1969844,11.448 C76.5036476,10.973331 76.1569844,10.1333394 76.1569844,8.928 L76.1569844,6.752 C76.1569844,5.54666064 76.5036476,4.70666904 77.1969844,4.232 C77.8903212,3.75733096 78.6209805,3.52 79.3889844,3.52 C80.1569882,3.52 80.8876476,3.75733096 81.5809844,4.232 C82.2743212,4.70666904 82.6209844,5.54666064 82.6209844,6.752 L82.6209844,8.144 L77.3569844,8.144 L77.3569844,8.944 C77.3569844,9.62667008 77.5623157,10.1413316 77.9729844,10.488 C78.3836531,10.8346684 78.8556484,11.008 79.3889844,11.008 Z M81.4209844,7.04 L81.4209844,6.736 C81.4209844,6.05332992 81.2156531,5.5386684 80.8049844,5.192 C80.3943157,4.8453316 79.9223204,4.672 79.3889844,4.672 C78.8556484,4.672 78.3836531,4.8453316 77.9729844,5.192 C77.5623157,5.5386684 77.3569844,6.05332992 77.3569844,6.736 L77.3569844,7.04 L81.4209844,7.04 Z M85.9169844,3.744 L85.9169844,4.608 C86.1196521,4.27733168 86.4156491,4.02666752 86.8049844,3.856 C87.1943197,3.68533248 87.5756492,3.6 87.9489844,3.6 L88.4769844,3.6 L88.4769844,4.752 L87.9489844,4.752 C87.4156484,4.752 86.9436531,4.9253316 86.5329844,5.272 C86.1223157,5.6186684 85.9169844,6.13332992 85.9169844,6.816 L85.9169844,12 L84.7169844,12 L84.7169844,3.744 L85.9169844,3.744 Z M91.1489844,0.8 L91.1489844,2.352 L89.9489844,2.352 L89.9489844,0.8 L91.1489844,0.8 Z M91.1489844,3.744 L91.1489844,12 L89.9489844,12 L89.9489844,3.744 L91.1489844,3.744 Z M98.5889844,8.944 L98.5889844,6.736 C98.5889844,6.05332992 98.3836531,5.5386684 97.9729844,5.192 C97.5623157,4.8453316 97.0903204,4.672 96.5569844,4.672 C96.0236484,4.672 95.5516531,4.8453316 95.1409844,5.192 C94.7303157,5.5386684 94.5249844,6.05332992 94.5249844,6.736 L94.5249844,8.944 C94.5249844,9.62667008 94.7303157,10.1413316 95.1409844,10.488 C95.5516531,10.8346684 96.0236484,11.008 96.5569844,11.008 C97.0903204,11.008 97.5623157,10.8346684 97.9729844,10.488 C98.3836531,10.1413316 98.5889844,9.62667008 98.5889844,8.944 Z M99.7889844,6.752 L99.7889844,8.928 C99.7889844,10.1333394 99.4423212,10.973331 98.7489844,11.448 C98.0556476,11.922669 97.3249882,12.16 96.5569844,12.16 C95.7889805,12.16 95.0583212,11.922669 94.3649844,11.448 C93.6716476,10.973331 93.3249844,10.1333394 93.3249844,8.928 L93.3249844,6.752 C93.3249844,5.54666064 93.6716476,4.70666904 94.3649844,4.232 C95.0583212,3.75733096 95.7889805,3.52 96.5569844,3.52 C97.3249882,3.52 98.0556476,3.75733096 98.7489844,4.232 C99.4423212,4.70666904 99.7889844,5.54666064 99.7889844,6.752 Z M103.164984,3.744 L103.164984,4.608 C103.367652,4.27733168 103.663649,4.02666752 104.052984,3.856 C104.44232,3.68533248 104.823649,3.6 105.196984,3.6 L105.724984,3.6 L105.724984,4.752 L105.196984,4.752 C104.663648,4.752 104.191653,4.9253316 103.780984,5.272 C103.370316,5.6186684 103.164984,6.13332992 103.164984,6.816 L103.164984,12 L101.964984,12 L101.964984,3.744 L103.164984,3.744 Z" id="Visãosuperior" fill="#909090" fill-rule="nonzero"></path>
        </g>
    </g>
</svg>