<?xml version="1.0" encoding="UTF-8"?>
<svg width="562px" height="290px" viewBox="0 0 562 290" version="1.1" xmlns="http://www.w3.org/2000/svg" xmlns:xlink="http://www.w3.org/1999/xlink">
    <!-- Generator: Sketch 46.2 (44496) - http://www.bohemiancoding.com/sketch -->
    <title>Page 1</title>
    <desc>Created with Sketch.</desc>
    <defs>
        <polygon id="path-1" points="330.862 291 0 291 0 0.932 561.433 0.932 561.433 291 330.862 291 330.862 274.0001 17.515 274.0001 17.515 291.0001 330.862 291.0001"></polygon>
        <polygon id="path-3" points="0 291 561.433 291 561.433 0.932 0 0.932"></polygon>
        <polygon id="path-5" points="0 291 561.433 291 561.433 0.932 0 0.932"></polygon>
    </defs>
    <g id="Page-1" stroke="none" stroke-width="1" fill="none" fill-rule="evenodd">
        <g id="ts_tv_cabo_energia" transform="translate(-75.000000, -572.000000)">
            <g id="Page-1" transform="translate(75.000000, 571.000000)">
                <g id="Group-22" transform="translate(0.000000, 0.068000)">
                    <g id="Group-3">
                        <mask id="mask-2" fill="white">
                            <use xlink:href="#path-1"></use>
                        </mask>
                        <g id="Clip-2"></g>
                        <path d="M322.362,291.0001 L26.015,291.0001 C21.34,291.0001 17.515,287.1751 17.515,282.5001 C17.515,277.8251 21.34,274.0001 26.015,274.0001 L322.362,274.0001 C327.037,274.0001 330.862,277.8251 330.862,282.5001 C330.862,287.1751 327.037,291.0001 322.362,291.0001" id="Fill-1" fill="#D5DAE2" mask="url(#mask-2)"></path>
                    </g>
                    <path d="M22.0237,266.5001 L22.0237,272.0361 C22.0237,277.6151 25.3567,281.5001 28.5647,281.5001 L74.5277,281.5001 C77.7347,281.5001 79.0237,277.6151 79.0237,272.0361 L79.0237,266.5001 L22.0237,266.5001 Z" id="Fill-4" fill="#2D2B2C"></path>
                    <path d="M269.0237,266.5001 L269.0237,272.0361 C269.0237,277.6151 271.9807,281.5001 275.1887,281.5001 L321.1517,281.5001 C324.3597,281.5001 326.0237,277.6151 326.0237,272.0361 L326.0237,266.5001 L269.0237,266.5001 Z" id="Fill-6" fill="#2D2B2C"></path>
                    <path d="M330.7824,267.669 L17.6884,267.669 C7.9594,267.669 0.0004,259.709 0.0004,249.981 L0.0004,183.17 C0.0004,173.441 7.9594,165.481 17.6884,165.481 L330.7824,165.481 C340.5114,165.481 348.4714,173.441 348.4714,183.17 L348.4714,249.981 C348.4714,259.709 340.5114,267.669 330.7824,267.669" id="Fill-8" fill="#645E5E"></path>
                    <path d="M337.0237,166.8155 L337.0237,266.2815 C344.0237,263.7805 348.0237,257.6535 348.0237,250.2405 L348.0237,183.4295 C348.0237,176.0155 344.0237,169.5025 337.0237,166.8155" id="Fill-10" fill="#2D2B2C"></path>
                    <path d="M125.199,203.4659 C123.959,203.4659 122.949,204.5279 122.949,205.8329 L122.949,228.7239 C122.949,230.0289 123.959,231.0909 125.199,231.0909 L180.448,231.0909 C181.688,231.0909 182.698,230.0289 182.698,228.7239 L182.698,205.8329 C182.698,204.5279 181.688,203.4659 180.448,203.4659 L125.199,203.4659 Z M180.448,232.7779 L125.199,232.7779 C123.074,232.7779 121.345,230.9589 121.345,228.7239 L121.345,205.8329 C121.345,203.5979 123.074,201.7789 125.199,201.7789 L180.448,201.7789 C182.572,201.7789 184.301,203.5979 184.301,205.8329 L184.301,228.7239 C184.301,230.9589 182.572,232.7779 180.448,232.7779 L180.448,232.7779 Z" id="Fill-12" fill="#808080"></path>
                    <path d="M86.1658,203.4659 C84.9258,203.4659 83.9158,204.5279 83.9158,205.8329 L83.9158,228.7239 C83.9158,230.0289 84.9258,231.0909 86.1658,231.0909 L114.4578,231.0909 C115.6988,231.0909 116.7078,230.0289 116.7078,228.7239 L116.7078,205.8329 C116.7078,204.5279 115.6988,203.4659 114.4578,203.4659 L86.1658,203.4659 Z M114.4578,232.7779 L86.1658,232.7779 C84.0408,232.7779 82.3118,230.9589 82.3118,228.7239 L82.3118,205.8329 C82.3118,203.5979 84.0408,201.7789 86.1658,201.7789 L114.4578,201.7789 C116.5828,201.7789 118.3118,203.5979 118.3118,205.8329 L118.3118,228.7239 C118.3118,230.9589 116.5828,232.7779 114.4578,232.7779 L114.4578,232.7779 Z" id="Fill-14" fill="#808080"></path>
                    <path d="M204.4992,203.4659 C203.2582,203.4659 202.2492,204.5279 202.2492,205.8329 L202.2492,228.7239 C202.2492,230.0289 203.2582,231.0909 204.4992,231.0909 L232.7912,231.0909 C234.0322,231.0909 235.0412,230.0289 235.0412,228.7239 L235.0412,205.8329 C235.0412,204.5279 234.0322,203.4659 232.7912,203.4659 L204.4992,203.4659 Z M232.7912,232.7779 L204.4992,232.7779 C202.3742,232.7779 200.6452,230.9589 200.6452,228.7239 L200.6452,205.8329 C200.6452,203.5979 202.3742,201.7789 204.4992,201.7789 L232.7912,201.7789 C234.9162,201.7789 236.6452,203.5979 236.6452,205.8329 L236.6452,228.7239 C236.6452,230.9589 234.9162,232.7779 232.7912,232.7779 L232.7912,232.7779 Z" id="Fill-16" fill="#808080"></path>
                    <path d="M32.9157,203.4659 C31.6757,203.4659 30.6657,204.5279 30.6657,205.8329 L30.6657,228.7239 C30.6657,230.0289 31.6757,231.0909 32.9157,231.0909 L61.2077,231.0909 C62.4487,231.0909 63.4577,230.0289 63.4577,228.7239 L63.4577,205.8329 C63.4577,204.5279 62.4487,203.4659 61.2077,203.4659 L32.9157,203.4659 Z M61.2077,232.7779 L32.9157,232.7779 C30.7907,232.7779 29.0617,230.9589 29.0617,228.7239 L29.0617,205.8329 C29.0617,203.5979 30.7907,201.7789 32.9157,201.7789 L61.2077,201.7789 C63.3327,201.7789 65.0617,203.5979 65.0617,205.8329 L65.0617,228.7239 C65.0617,230.9589 63.3327,232.7779 61.2077,232.7779 L61.2077,232.7779 Z" id="Fill-18" fill="#808080"></path>
                    <mask id="mask-4" fill="white">
                        <use xlink:href="#path-3"></use>
                    </mask>
                    <g id="Clip-21"></g>
                    <polygon id="Fill-20" fill="#2D2B2C" mask="url(#mask-4)" points="30.726 245.494 63.097 245.494 63.097 235.828 30.726 235.828"></polygon>
                </g>
                <text id="ANTENA" font-family="SimplonOi-Headline, Simplon Oi" font-size="7" font-weight="500" fill="#FFFFFF">
                    <tspan x="34.333" y="242.1569">ANTENA</tspan>
                </text>
                <g id="Group-26" transform="translate(83.000000, 199.068000)" fill="#2D2B2C">
                    <polygon id="Fill-23" points="0.805 46.524 98.872 46.524 98.872 36.858 0.805 36.858"></polygon>
                    <polygon id="Fill-25" points="196.257 47.495 242.83 47.495 242.83 0.923 196.257 0.923"></polygon>
                </g>
                <text id="AV-/-OUT" font-family="SimplonOi-Headline, Simplon Oi" font-size="7" font-weight="500" letter-spacing="-0.567" fill="#FFFFFF">
                    <tspan x="119.8501" y="242.1871">A</tspan>
                    <tspan x="123.0281" y="242.1871">V / OUT</tspan>
                </text>
                <text id="12V---1.5-A" font-family="SimplonOi-Headline, Simplon Oi" font-size="7" font-weight="500" letter-spacing="0.175" fill="#FFFFFF">
                    <tspan x="285.5961" y="242.1871">1</tspan>
                    <tspan x="289.2361" y="242.1871">2V - </tspan>
                    <tspan x="303.1171" y="242.1871" letter-spacing="0.3283">1</tspan>
                    <tspan x="307.0644" y="242.1871">.5 A</tspan>
                </text>
                <g id="Group-78" transform="translate(0.000000, 0.068000)">
                    <path d="M228.6277,228.3184 L208.6627,228.3184 C208.0807,228.3184 207.6047,227.8424 207.6047,227.2604 L207.6047,207.2964 C207.6047,206.7144 208.0807,206.2374 208.6627,206.2374 L228.6277,206.2374 C229.2097,206.2374 229.6857,206.7144 229.6857,207.2964 L229.6857,227.2604 C229.6857,227.8424 229.2097,228.3184 228.6277,228.3184 Z" id="Fill-27" fill="#F2F3F5"></path>
                    <path d="M208.6628,206.6212 C208.2908,206.6212 207.9888,206.9242 207.9888,207.2962 L207.9888,227.2612 C207.9888,227.6332 208.2908,227.9342 208.6628,227.9342 L228.6278,227.9342 C228.9998,227.9342 229.3018,227.6332 229.3018,227.2612 L229.3018,207.2962 C229.3018,206.9242 228.9998,206.6212 228.6278,206.6212 L208.6628,206.6212 Z M228.6278,228.7032 L208.6628,228.7032 C207.8678,228.7032 207.2208,228.0562 207.2208,227.2612 L207.2208,207.2962 C207.2208,206.5012 207.8678,205.8532 208.6628,205.8532 L228.6278,205.8532 C229.4228,205.8532 230.0698,206.5012 230.0698,207.2962 L230.0698,227.2612 C230.0698,228.0562 229.4228,228.7032 228.6278,228.7032 L228.6278,228.7032 Z" id="Fill-29" fill="#5B5B5D"></path>
                    <polygon id="Fill-31" fill="#5A5A5C" points="218.5158 208.5001 209.7628 208.5001 209.7628 218.5001 212.7628 218.5001 212.7628 221.5001 215.7628 221.5001 215.7628 224.5001 218.5158 224.5001 221.7628 224.5001 221.7628 221.5001 224.7628 221.5001 224.7628 218.5001 227.7628 218.5001 227.7628 208.5001"></polygon>
                    <mask id="mask-6" fill="white">
                        <use xlink:href="#path-5"></use>
                    </mask>
                    <g id="Clip-34"></g>
                    <polygon id="Fill-33" fill="#3F4243" mask="url(#mask-6)" points="209.763 209.5 227.763 209.5 227.763 208.5 209.763 208.5"></polygon>
                    <polygon id="Fill-35" fill="#3F4243" mask="url(#mask-6)" points="209.763 218.5 212.763 218.5 212.763 217.5 209.763 217.5"></polygon>
                    <polygon id="Fill-36" fill="#3F4243" mask="url(#mask-6)" points="224.763 218.5 227.763 218.5 227.763 217.5 224.763 217.5"></polygon>
                    <polygon id="Fill-37" fill="#3F4243" mask="url(#mask-6)" points="212.763 221.5 215.763 221.5 215.763 220.5 212.763 220.5"></polygon>
                    <polygon id="Fill-38" fill="#3F4243" mask="url(#mask-6)" points="215.763 224.5 221.763 224.5 221.763 223.5 215.763 223.5"></polygon>
                    <polygon id="Fill-39" fill="#3F4243" mask="url(#mask-6)" points="221.763 221.5 224.763 221.5 224.763 220.5 221.763 220.5"></polygon>
                    <polygon id="Fill-40" fill="#BDBEC2" mask="url(#mask-6)" points="216.542 215.028 217.982 215.028 217.982 209.814 216.542 209.814"></polygon>
                    <polygon id="Fill-41" fill="#BDBEC2" mask="url(#mask-6)" points="214.174 215.028 215.614 215.028 215.614 209.814 214.174 209.814"></polygon>
                    <polygon id="Fill-42" fill="#BDBEC2" mask="url(#mask-6)" points="218.91 215.028 220.35 215.028 220.35 209.814 218.91 209.814"></polygon>
                    <polygon id="Fill-43" fill="#BDBEC2" mask="url(#mask-6)" points="221.278 215.028 222.718 215.028 222.718 209.814 221.278 209.814"></polygon>
                    <path d="M312.1291,217.9981 C312.1291,223.6551 307.5431,228.2411 301.8861,228.2411 C296.2291,228.2411 291.6431,223.6551 291.6431,217.9981 C291.6431,212.3411 296.2291,207.7551 301.8861,207.7551 C307.5431,207.7551 312.1291,212.3411 312.1291,217.9981" id="Fill-44" fill="#4A474B" mask="url(#mask-6)"></path>
                    <path d="M311.2092,217.9981 C311.2092,223.1471 307.0352,227.3211 301.8862,227.3211 C296.7362,227.3211 292.5622,223.1471 292.5622,217.9981 C292.5622,212.8501 296.7362,208.6751 301.8862,208.6751 C307.0352,208.6751 311.2092,212.8501 311.2092,217.9981" id="Fill-45" fill="#0A0909" mask="url(#mask-6)"></path>
                    <path d="M305.8347,217.9981 C305.8347,220.1801 304.0667,221.9471 301.8857,221.9471 C299.7047,221.9471 297.9367,220.1801 297.9367,217.9981 C297.9367,215.8171 299.7047,214.0491 301.8857,214.0491 C304.0667,214.0491 305.8347,215.8171 305.8347,217.9981" id="Fill-46" fill="#F2F3F5" mask="url(#mask-6)"></path>
                    <path d="M176.2214,218.1339 C176.2214,223.7909 171.6354,228.3769 165.9784,228.3769 C160.3214,228.3769 155.7354,223.7909 155.7354,218.1339 C155.7354,212.4779 160.3214,207.8909 165.9784,207.8909 C171.6354,207.8909 176.2214,212.4779 176.2214,218.1339" id="Fill-47" fill="#4A474B" mask="url(#mask-6)"></path>
                    <path d="M175.3015,218.1339 C175.3015,223.2829 171.1275,227.4579 165.9785,227.4579 C160.8285,227.4579 156.6545,223.2829 156.6545,218.1339 C156.6545,212.9859 160.8285,208.8109 165.9785,208.8109 C171.1275,208.8109 175.3015,212.9859 175.3015,218.1339" id="Fill-48" fill="#0A0909" mask="url(#mask-6)"></path>
                    <path d="M172.4597,218.1339 C172.4597,221.7139 169.5577,224.6159 165.9787,224.6159 C162.3977,224.6159 159.4967,221.7139 159.4967,218.1339 C159.4967,214.5549 162.3977,211.6529 165.9787,211.6529 C169.5577,211.6529 172.4597,214.5549 172.4597,218.1339" id="Fill-49" fill="#F2F3F5" mask="url(#mask-6)"></path>
                    <path d="M170.1526,218.1339 C170.1526,220.4399 168.2836,222.3089 165.9786,222.3089 C163.6726,222.3089 161.8036,220.4399 161.8036,218.1339 C161.8036,215.8289 163.6726,213.9599 165.9786,213.9599 C168.2836,213.9599 170.1526,215.8289 170.1526,218.1339" id="Fill-50" fill="#0A0909" mask="url(#mask-6)"></path>
                    <path d="M149.1892,218.1339 C149.1892,223.7909 144.6032,228.3769 138.9462,228.3769 C133.2892,228.3769 128.7032,223.7909 128.7032,218.1339 C128.7032,212.4779 133.2892,207.8909 138.9462,207.8909 C144.6032,207.8909 149.1892,212.4779 149.1892,218.1339" id="Fill-51" fill="#4A474B" mask="url(#mask-6)"></path>
                    <path d="M148.2693,218.1339 C148.2693,223.2829 144.0953,227.4579 138.9463,227.4579 C133.7963,227.4579 129.6233,223.2829 129.6233,218.1339 C129.6233,212.9859 133.7963,208.8109 138.9463,208.8109 C144.0953,208.8109 148.2693,212.9859 148.2693,218.1339" id="Fill-52" fill="#0A0909" mask="url(#mask-6)"></path>
                    <path d="M145.4275,218.1339 C145.4275,221.7139 142.5255,224.6159 138.9465,224.6159 C135.3665,224.6159 132.4645,221.7139 132.4645,218.1339 C132.4645,214.5549 135.3665,211.6529 138.9465,211.6529 C142.5255,211.6529 145.4275,214.5549 145.4275,218.1339" id="Fill-53" fill="#F2F3F5" mask="url(#mask-6)"></path>
                    <path d="M143.1208,218.1339 C143.1208,220.4399 141.2518,222.3089 138.9458,222.3089 C136.6408,222.3089 134.7708,220.4399 134.7708,218.1339 C134.7708,215.8289 136.6408,213.9599 138.9458,213.9599 C141.2518,213.9599 143.1208,215.8289 143.1208,218.1339" id="Fill-54" fill="#0A0909" mask="url(#mask-6)"></path>
                    <path d="M110.5554,218.1339 C110.5554,223.7909 105.9694,228.3769 100.3124,228.3769 C94.6554,228.3769 90.0694,223.7909 90.0694,218.1339 C90.0694,212.4779 94.6554,207.8909 100.3124,207.8909 C105.9694,207.8909 110.5554,212.4779 110.5554,218.1339" id="Fill-55" fill="#4A474B" mask="url(#mask-6)"></path>
                    <path d="M109.6355,218.1339 C109.6355,223.2829 105.4615,227.4579 100.3125,227.4579 C95.1625,227.4579 90.9885,223.2829 90.9885,218.1339 C90.9885,212.9859 95.1625,208.8109 100.3125,208.8109 C105.4615,208.8109 109.6355,212.9859 109.6355,218.1339" id="Fill-56" fill="#0A0909" mask="url(#mask-6)"></path>
                    <path d="M106.7937,218.1339 C106.7937,221.7139 103.8917,224.6159 100.3127,224.6159 C96.7317,224.6159 93.8307,221.7139 93.8307,218.1339 C93.8307,214.5549 96.7317,211.6529 100.3127,211.6529 C103.8917,211.6529 106.7937,214.5549 106.7937,218.1339" id="Fill-57" fill="#F2F3F5" mask="url(#mask-6)"></path>
                    <path d="M104.4866,218.1339 C104.4866,220.4399 102.6176,222.3089 100.3126,222.3089 C98.0066,222.3089 96.1376,220.4399 96.1376,218.1339 C96.1376,215.8289 98.0066,213.9599 100.3126,213.9599 C102.6176,213.9599 104.4866,215.8289 104.4866,218.1339" id="Fill-58" fill="#0A0909" mask="url(#mask-6)"></path>
                    <path d="M57.1887,218.168 C57.1887,223.825 52.6027,228.411 46.9457,228.411 C41.2887,228.411 36.7027,223.825 36.7027,218.168 C36.7027,212.511 41.2887,207.925 46.9457,207.925 C52.6027,207.925 57.1887,212.511 57.1887,218.168" id="Fill-59" fill="#4A474B" mask="url(#mask-6)"></path>
                    <path d="M56.2693,218.168 C56.2693,223.317 52.0953,227.491 46.9453,227.491 C41.7963,227.491 37.6223,223.317 37.6223,218.168 C37.6223,213.019 41.7963,208.845 46.9453,208.845 C52.0953,208.845 56.2693,213.019 56.2693,218.168" id="Fill-60" fill="#0A0909" mask="url(#mask-6)"></path>
                    <path d="M53.4275,218.168 C53.4275,221.748 50.5255,224.649 46.9455,224.649 C43.3655,224.649 40.4645,221.748 40.4645,218.168 C40.4645,214.588 43.3655,211.687 46.9455,211.687 C50.5255,211.687 53.4275,214.588 53.4275,218.168" id="Fill-61" fill="#F2F3F5" mask="url(#mask-6)"></path>
                    <path d="M48.2536,218.168 C48.2536,218.891 47.6686,219.476 46.9456,219.476 C46.2236,219.476 45.6376,218.891 45.6376,218.168 C45.6376,217.445 46.2236,216.86 46.9456,216.86 C47.6686,216.86 48.2536,217.445 48.2536,218.168" id="Fill-62" fill="#0A0909" mask="url(#mask-6)"></path>
                    <path d="M385.9724,219.8809 L385.9724,212.2189 C392.4004,216.5339 398.7224,220.7779 405.0994,225.0599 C398.7344,229.2319 392.4124,233.3749 385.9944,237.5809 L385.9944,229.9749 L351.0154,229.9749 L351.0154,219.8809 L385.9724,219.8809 Z" id="Fill-63" fill="#00D400" mask="url(#mask-6)"></path>
                    <path d="M345.1862,214.6749 L345.1862,222.3369 C338.7572,218.0219 332.4362,213.7789 326.0562,209.4949 C332.4222,205.3239 338.7432,201.1819 345.1632,196.9759 L345.1632,204.5799 L380.1402,204.5799 L380.1402,214.6749 L345.1862,214.6749 Z" id="Fill-64" fill="#00B9FA" mask="url(#mask-6)"></path>
                    <path d="M460.5876,96.1251 C445.9596,112.9691 451.5036,137.0861 465.8086,152.1461 C482.6276,169.8521 508.0056,174.2781 525.6916,190.7431 C542.2626,206.1711 552.4636,228.4051 552.6466,251.1101 C552.7306,261.5201 550.4736,274.6901 540.3556,280.0911 C528.8686,286.2221 515.6506,279.0621 507.9336,270.3351 C498.9446,260.1711 495.8876,245.6871 484.9756,237.2081 C473.8356,228.5521 459.1556,224.6801 445.2246,224.5151 C439.7516,224.4501 439.7476,232.9541 445.2246,233.0191 C458.3216,233.1741 474.5386,237.0411 483.5056,247.3771 C487.6876,252.1951 489.9886,258.4831 493.1506,263.9551 C496.0666,269.0021 499.4476,273.8601 503.5046,278.0601 C511.3326,286.1621 522.2386,291.6231 533.7166,290.6231 C544.8356,289.6541 553.3616,282.3931 557.5186,272.2521 C565.7816,252.0901 559.8806,226.7591 549.8866,208.3111 C544.6786,198.6961 537.7126,189.8751 529.4526,182.7021 C519.7676,174.2941 508.4726,169.0531 497.0776,163.4181 C485.1266,157.5081 473.1106,150.1681 465.9206,138.5611 C459.1486,127.6291 457.7106,112.3761 466.6006,102.1381 C470.1746,98.0231 464.1846,91.9831 460.5876,96.1251" id="Fill-65" fill="#1D1D1B" mask="url(#mask-6)"></path>
                    <path d="M494.0998,117.8995 L418.1888,117.8995 C416.1318,117.8995 414.4478,116.2155 414.4478,114.1585 L414.4478,4.6725 C414.4478,2.6155 416.1318,0.9315 418.1888,0.9315 L494.0998,0.9315 C496.1578,0.9315 497.8418,2.6155 497.8418,4.6725 L497.8418,114.1585 C497.8418,116.2155 496.1578,117.8995 494.0998,117.8995" id="Fill-66" fill="#E6E6E6" mask="url(#mask-6)"></path>
                    <path d="M484.2824,74.42 L428.0074,74.42 C426.4824,74.42 425.2354,73.173 425.2354,71.649 L425.2354,47.183 C425.2354,45.658 426.4824,44.411 428.0074,44.411 L484.2824,44.411 C485.8064,44.411 487.0534,45.658 487.0534,47.183 L487.0534,71.649 C487.0534,73.173 485.8064,74.42 484.2824,74.42" id="Fill-67" fill="#CFCFCF" mask="url(#mask-6)"></path>
                    <path d="M471.1833,50.0381 L481.4533,57.1151 C483.0643,58.2261 483.0643,60.6051 481.4533,61.7161 L471.1833,68.7931 C470.7173,69.1141 470.1643,69.2861 469.5983,69.2861 L442.6913,69.2861 C442.1243,69.2861 441.5723,69.1141 441.1053,68.7931 L430.8363,61.7161 C429.2253,60.6051 429.2253,58.2261 430.8363,57.1151 L441.1053,50.0381 C441.5723,49.7171 442.1243,49.5451 442.6913,49.5451 L469.5983,49.5451 C470.1643,49.5451 470.7173,49.7171 471.1833,50.0381" id="Fill-68" fill="#E0E0E0" mask="url(#mask-6)"></path>
                    <path d="M446.7097,57.2647 C446.7097,58.5997 445.6267,59.6827 444.2907,59.6827 C442.9557,59.6827 441.8727,58.5997 441.8727,57.2647 C441.8727,55.9287 442.9557,54.8457 444.2907,54.8457 C445.6267,54.8457 446.7097,55.9287 446.7097,57.2647" id="Fill-69" fill="#5A5657" mask="url(#mask-6)"></path>
                    <path d="M468.6887,54.9464 C469.9687,55.3284 470.6967,56.6754 470.3157,57.9554 C469.9337,59.2354 468.5867,59.9644 467.3067,59.5824 C466.0267,59.2004 465.2987,57.8534 465.6797,56.5734 C466.0617,55.2934 467.4087,54.5654 468.6887,54.9464" id="Fill-70" fill="#5A5657" mask="url(#mask-6)"></path>
                    <path d="M458.5627,61.5674 C458.5627,62.9034 457.4797,63.9864 456.1447,63.9864 C454.8087,63.9864 453.7257,62.9034 453.7257,61.5674 C453.7257,60.2314 454.8087,59.1494 456.1447,59.1494 C457.4797,59.1494 458.5627,60.2314 458.5627,61.5674" id="Fill-71" fill="#5A5657" mask="url(#mask-6)"></path>
                    <path d="M416.0705,1.5606 C415.2055,2.0686 414.4075,2.9896 414.4075,4.6726 L414.4075,114.3696 C414.4075,114.3696 414.5395,116.2016 416.0705,117.1416 L416.0705,1.5606 Z" id="Fill-72" fill="#CFCFCF" mask="url(#mask-6)"></path>
                    <polygon id="Fill-73" fill="#232323" mask="url(#mask-6)" points="426.716 124.695 492.463 124.695 492.463 32.313 426.716 32.313"></polygon>
                    <polygon id="Fill-74" fill="#303030" mask="url(#mask-6)" points="422.271 124.695 426.716 124.695 426.716 32.313 422.271 32.313"></polygon>
                    <path d="M423.4582,219.9669 L406.6872,214.4509 C404.7362,213.8099 403.6652,211.6879 404.3072,209.7379 C404.9492,207.7859 407.0702,206.7149 409.0202,207.3569 L425.7912,212.8719 C427.7422,213.5139 428.8132,215.6349 428.1722,217.5859 C427.5302,219.5369 425.4092,220.6089 423.4582,219.9669" id="Fill-75" fill="#CFCFCF" mask="url(#mask-6)"></path>
                    <polygon id="Fill-76" fill="#232323" mask="url(#mask-6)" points="482.3654 226.8233 474.8784 247.0973 427.8124 229.7173 435.2994 209.4413"></polygon>
                    <polygon id="Fill-77" fill="#303030" mask="url(#mask-6)" points="435.299 209.4415 427.812 229.7165 420.768 227.1155 428.255 206.8405"></polygon>
                </g>
            </g>
        </g>
    </g>
</svg>