<?xml version="1.0" encoding="UTF-8"?>
<svg width="600px" height="356px" viewBox="0 0 600 356" version="1.1" xmlns="http://www.w3.org/2000/svg" xmlns:xlink="http://www.w3.org/1999/xlink">
    <title>dontsupport5ghz</title>
    <g id="Page-1" stroke="none" stroke-width="1" fill="none" fill-rule="evenodd">
        <g id="dontsupport5ghz">
            <g id="Group">
                <rect id="Rectangle" fill="#FFFFFF" fill-rule="nonzero" x="0" y="0.5" width="600" height="355" rx="12"></rect>
                <rect id="Rectangle" stroke="#00C0D2" stroke-width="5" x="2.5" y="3" width="595" height="350" rx="9.5"></rect>
            </g>
            <path d="M0,12.5 C0,5.8726 5.3726,0.5 12,0.5 L588,0.5 C594.627,0.5 600,5.8726 600,12.5 L600,130.5 L0,130.5 L0,12.5 Z" id="Path" fill="#00C0D2" fill-rule="nonzero"></path>
            <path d="M43.24,30.2472 L55.48,30.2472 L55.48,26.0072 L38.96,26.0072 L38.96,54.0072 L55.48,54.0072 L55.48,49.7672 L43.24,49.7672 L43.24,42.0072 L55.48,42.0072 L55.48,37.7672 L43.24,37.7672 L43.24,30.2472 Z M67.1274,54.4072 C69.3674,54.4072 71.1941,53.9005 72.6074,52.8872 C74.0474,51.8739 74.7807,50.3539 74.8074,48.3272 C74.8074,46.3805 74.3274,44.9405 73.3674,44.0072 C72.4341,43.0472 71.0341,42.3272 69.1674,41.8472 L65.3674,40.8872 C64.8074,40.7539 64.2741,40.5539 63.7674,40.2872 C63.2874,40.0205 63.0474,39.5805 63.0474,38.9672 C63.0474,38.1405 63.3807,37.5805 64.0474,37.2872 C64.7141,36.9939 65.3674,36.8472 66.0074,36.8472 C66.9674,36.8472 67.7941,37.0472 68.4874,37.4472 C69.2074,37.8472 69.6474,38.5005 69.8074,39.4072 L74.2074,39.4072 C74.0207,37.1139 73.2074,35.4472 71.7674,34.4072 C70.3274,33.3405 68.5007,32.8072 66.2874,32.8072 C64.2074,32.8072 62.4341,33.3139 60.9674,34.3272 C59.5274,35.3405 58.8074,36.8605 58.8074,38.8872 C58.8074,40.8605 59.3407,42.3005 60.4074,43.2072 C61.4741,44.0872 62.6874,44.7005 64.0474,45.0472 L67.9674,46.0472 C68.6341,46.2072 69.2341,46.4339 69.7674,46.7272 C70.3007,47.0205 70.5674,47.5139 70.5674,48.2072 C70.5674,49.0339 70.2207,49.6072 69.5274,49.9272 C68.8607,50.2205 68.0741,50.3672 67.1674,50.3672 C66.0474,50.3672 65.0474,50.1272 64.1674,49.6472 C63.3141,49.1672 62.8074,48.4205 62.6474,47.4072 L58.3274,47.4072 C58.4341,49.7539 59.3274,51.5139 61.0074,52.6872 C62.7141,53.8339 64.7541,54.4072 67.1274,54.4072 Z M84.2074,48.0072 C84.2074,48.7539 84.3141,49.2739 84.5274,49.5672 C84.7674,49.8339 85.3007,49.9672 86.1274,49.9672 L89.2874,49.9672 L89.2874,54.0072 L84.9274,54.0072 C83.2207,54.0072 81.9674,53.5939 81.1674,52.7672 C80.3941,51.9139 80.0074,50.6872 80.0074,49.0872 L80.0074,37.3272 L77.0874,37.3272 L77.0874,33.3672 L80.0074,33.3672 L80.0074,28.6872 L84.2074,28.6872 L84.2074,33.3672 L89.2874,33.3672 L89.2874,37.3272 L84.2074,37.3272 L84.2074,48.0072 Z M100.651,50.3672 C99.344,50.3672 98.277,49.9939 97.451,49.2472 C96.651,48.4739 96.251,47.3139 96.251,45.7672 L96.251,45.0872 L109.251,45.0872 L109.251,41.3672 C109.251,37.9805 108.264,35.7139 106.291,34.5672 C104.317,33.3939 102.437,32.8072 100.651,32.8072 C98.864,32.8072 96.984,33.3939 95.011,34.5672 C93.037,35.7139 92.051,37.9805 92.051,41.3672 L92.051,45.8472 C92.051,49.2339 93.037,51.5139 95.011,52.6872 C96.984,53.8339 98.864,54.4072 100.651,54.4072 C102.304,54.4072 104.037,53.9272 105.851,52.9672 C107.691,52.0072 108.784,50.1672 109.131,47.4472 L104.851,47.4472 C104.584,48.4339 104.077,49.1672 103.331,49.6472 C102.584,50.1272 101.691,50.3672 100.651,50.3672 Z M100.651,36.8472 C101.931,36.8472 102.971,37.2205 103.771,37.9672 C104.597,38.7139 105.024,39.8339 105.051,41.3272 L105.051,41.3672 L96.251,41.3672 L96.251,41.3272 C96.251,39.8339 96.651,38.7139 97.451,37.9672 C98.277,37.2205 99.344,36.8472 100.651,36.8472 Z M137.788,46.9672 L133.548,46.9672 C133.361,48.1139 132.868,48.9672 132.068,49.5272 C131.295,50.0872 130.348,50.3672 129.228,50.3672 C127.921,50.3672 126.855,49.9939 126.028,49.2472 C125.228,48.4739 124.828,47.3139 124.828,45.7672 L124.828,41.4472 C124.828,39.9005 125.228,38.7539 126.028,38.0072 C126.855,37.2339 127.921,36.8472 129.228,36.8472 C130.348,36.8472 131.295,37.1272 132.068,37.6872 C132.841,38.2472 133.321,39.1005 133.508,40.2472 L137.788,40.2472 C137.521,37.3139 136.441,35.3405 134.548,34.3272 C132.681,33.3139 130.908,32.8072 129.228,32.8072 C127.441,32.8072 125.561,33.3939 123.588,34.5672 C121.615,35.7139 120.628,37.9805 120.628,41.3672 L120.628,45.8472 C120.628,49.2339 121.615,51.5139 123.588,52.6872 C125.561,53.8339 127.441,54.4072 129.228,54.4072 C130.908,54.4072 132.681,53.9005 134.548,52.8872 C136.441,51.8739 137.521,49.9005 137.788,46.9672 Z M149.61,50.3672 C148.304,50.3672 147.237,49.9939 146.41,49.2472 C145.61,48.4739 145.21,47.3139 145.21,45.7672 L145.21,45.0872 L158.21,45.0872 L158.21,41.3672 C158.21,37.9805 157.224,35.7139 155.25,34.5672 C153.277,33.3939 151.397,32.8072 149.61,32.8072 C147.824,32.8072 145.944,33.3939 143.97,34.5672 C141.997,35.7139 141.01,37.9805 141.01,41.3672 L141.01,45.8472 C141.01,49.2339 141.997,51.5139 143.97,52.6872 C145.944,53.8339 147.824,54.4072 149.61,54.4072 C151.264,54.4072 152.997,53.9272 154.81,52.9672 C156.65,52.0072 157.744,50.1672 158.09,47.4472 L153.81,47.4472 C153.544,48.4339 153.037,49.1672 152.29,49.6472 C151.544,50.1272 150.65,50.3672 149.61,50.3672 Z M149.61,36.8472 C150.89,36.8472 151.93,37.2205 152.73,37.9672 C153.557,38.7139 153.984,39.8339 154.01,41.3272 L154.01,41.3672 L145.21,41.3672 L145.21,41.3272 C145.21,39.8339 145.61,38.7139 146.41,37.9672 C147.237,37.2205 148.304,36.8472 149.61,36.8472 Z M166.307,48.0072 C166.307,48.7539 166.414,49.2739 166.627,49.5672 C166.867,49.8339 167.401,49.9672 168.227,49.9672 L168.867,49.9672 L168.867,54.0072 L167.027,54.0072 C165.321,54.0072 164.067,53.5939 163.267,52.7672 C162.494,51.9139 162.107,50.6872 162.107,49.0872 L162.107,26.0072 L166.307,26.0072 L166.307,48.0072 Z M176.216,33.3672 L172.016,33.3672 L172.016,45.8472 C172.016,48.8605 172.896,51.0472 174.656,52.4072 C176.443,53.7405 178.216,54.4072 179.976,54.4072 C181.043,54.4072 182.03,54.1672 182.936,53.6872 C183.87,53.1805 184.483,52.6339 184.776,52.0472 L184.776,54.0072 L188.976,54.0072 L188.976,33.3672 L184.776,33.3672 L184.776,45.7672 C184.776,47.3139 184.363,48.4605 183.536,49.2072 C182.736,49.9539 181.723,50.3272 180.496,50.3272 C179.27,50.3272 178.243,49.9539 177.416,49.2072 C176.616,48.4605 176.216,47.3139 176.216,45.7672 L176.216,33.3672 Z M197.814,48.0072 C197.814,48.7539 197.921,49.2739 198.134,49.5672 C198.374,49.8339 198.908,49.9672 199.734,49.9672 L200.374,49.9672 L200.374,54.0072 L198.534,54.0072 C196.828,54.0072 195.574,53.5939 194.774,52.7672 C194.001,51.9139 193.614,50.6872 193.614,49.0872 L193.614,26.0072 L197.814,26.0072 L197.814,48.0072 Z M211.683,36.8472 C212.91,36.8472 213.91,37.1805 214.683,37.8472 C215.483,38.5139 215.937,39.5139 216.043,40.8472 L216.043,40.8872 C214.31,40.9939 212.737,41.1272 211.323,41.2872 C209.91,41.4472 208.59,41.7139 207.363,42.0872 C205.657,42.6205 204.483,43.5005 203.843,44.7272 C203.203,45.9272 202.883,47.1139 202.883,48.2872 C202.883,50.3939 203.59,51.9405 205.003,52.9272 C206.417,53.9139 208.057,54.4072 209.923,54.4072 C211.283,54.4072 212.483,54.2205 213.523,53.8472 C214.563,53.4472 215.417,52.8472 216.083,52.0472 L216.083,54.0072 L220.283,54.0072 L220.283,41.3672 C220.283,37.9805 219.297,35.7139 217.323,34.5672 C215.35,33.3939 213.47,32.8072 211.683,32.8072 C210.03,32.8072 208.283,33.2872 206.443,34.2472 C204.63,35.2072 203.55,37.0472 203.203,39.7672 L207.483,39.7672 C207.75,38.7805 208.257,38.0472 209.003,37.5672 C209.75,37.0872 210.643,36.8472 211.683,36.8472 Z M210.603,50.3672 C209.483,50.3672 208.617,50.1672 208.003,49.7672 C207.39,49.3672 207.083,48.7539 207.083,47.9272 C207.083,47.4205 207.177,47.0205 207.363,46.7272 C207.577,46.4072 207.817,46.1672 208.083,46.0072 C208.83,45.5539 209.883,45.2339 211.243,45.0472 C212.63,44.8605 214.243,44.7139 216.083,44.6072 L216.083,45.7672 C216.083,47.6872 215.47,48.9405 214.243,49.5272 C213.017,50.0872 211.803,50.3672 210.603,50.3672 Z M235.332,37.0872 L235.332,33.0072 L233.732,33.0072 C232.666,33.0072 231.666,33.2605 230.732,33.7672 C229.826,34.2472 229.226,34.7805 228.932,35.3672 L228.932,33.3672 L224.732,33.3672 L224.732,54.0072 L228.932,54.0072 L228.932,41.6472 C228.932,40.1005 229.332,38.9539 230.132,38.2072 C230.959,37.4605 232.026,37.0872 233.332,37.0872 L235.332,37.0872 Z M253.733,50.3672 C252.426,50.3672 251.359,49.9939 250.533,49.2472 C249.733,48.4739 249.333,47.3139 249.333,45.7672 L249.333,45.0872 L262.333,45.0872 L262.333,41.3672 C262.333,37.9805 261.346,35.7139 259.373,34.5672 C257.399,33.3939 255.519,32.8072 253.733,32.8072 C251.946,32.8072 250.066,33.3939 248.093,34.5672 C246.119,35.7139 245.133,37.9805 245.133,41.3672 L245.133,45.8472 C245.133,49.2339 246.119,51.5139 248.093,52.6872 C250.066,53.8339 251.946,54.4072 253.733,54.4072 C255.386,54.4072 257.119,53.9272 258.933,52.9672 C260.773,52.0072 261.866,50.1672 262.213,47.4472 L257.933,47.4472 C257.666,48.4339 257.159,49.1672 256.413,49.6472 C255.666,50.1272 254.773,50.3672 253.733,50.3672 Z M253.733,36.8472 C255.013,36.8472 256.053,37.2205 256.853,37.9672 C257.679,38.7139 258.106,39.8339 258.133,41.3272 L258.133,41.3672 L249.333,41.3672 L249.333,41.3272 C249.333,39.8339 249.733,38.7139 250.533,37.9672 C251.359,37.2205 252.426,36.8472 253.733,36.8472 Z M253.733,26.0072 L251.053,31.1672 L254.413,31.1672 L259.133,26.0072 L253.733,26.0072 Z M290.87,46.9672 L286.63,46.9672 C286.443,48.1139 285.95,48.9672 285.15,49.5272 C284.377,50.0872 283.43,50.3672 282.31,50.3672 C281.003,50.3672 279.937,49.9939 279.11,49.2472 C278.31,48.4739 277.91,47.3139 277.91,45.7672 L277.91,41.4472 C277.91,39.9005 278.31,38.7539 279.11,38.0072 C279.937,37.2339 281.003,36.8472 282.31,36.8472 C283.43,36.8472 284.377,37.1272 285.15,37.6872 C285.923,38.2472 286.403,39.1005 286.59,40.2472 L290.87,40.2472 C290.603,37.3139 289.523,35.3405 287.63,34.3272 C285.763,33.3139 283.99,32.8072 282.31,32.8072 C280.523,32.8072 278.643,33.3939 276.67,34.5672 C274.697,35.7139 273.71,37.9805 273.71,41.3672 L273.71,45.8472 C273.71,49.2339 274.697,51.5139 276.67,52.6872 C278.643,53.8339 280.523,54.4072 282.31,54.4072 C283.99,54.4072 285.763,53.9005 287.63,52.8872 C289.523,51.8739 290.603,49.9005 290.87,46.9672 Z M307.092,45.7672 C307.092,47.3139 306.679,48.4739 305.852,49.2472 C305.052,49.9939 303.999,50.3672 302.692,50.3672 C301.386,50.3672 300.319,49.9939 299.492,49.2472 C298.692,48.4739 298.292,47.3139 298.292,45.7672 L298.292,41.4472 C298.292,39.9005 298.692,38.7539 299.492,38.0072 C300.319,37.2339 301.386,36.8472 302.692,36.8472 C303.999,36.8472 305.052,37.2339 305.852,38.0072 C306.679,38.7539 307.092,39.9005 307.092,41.4472 L307.092,45.7672 Z M294.092,45.8472 C294.092,49.2339 295.079,51.5139 297.052,52.6872 C299.026,53.8339 300.906,54.4072 302.692,54.4072 C304.479,54.4072 306.359,53.8339 308.332,52.6872 C310.306,51.5139 311.292,49.2339 311.292,45.8472 L311.292,41.3672 C311.292,37.9805 310.306,35.7139 308.332,34.5672 C306.359,33.3939 304.479,32.8072 302.692,32.8072 C300.906,32.8072 299.026,33.3939 297.052,34.5672 C295.079,35.7139 294.092,37.9805 294.092,41.3672 L294.092,45.8472 Z M332.264,41.4472 C332.264,39.9005 332.678,38.7539 333.504,38.0072 C334.331,37.2605 335.318,36.8872 336.464,36.8872 C337.611,36.8872 338.598,37.2605 339.424,38.0072 C340.251,38.7539 340.664,39.9005 340.664,41.4472 L340.664,54.0072 L344.864,54.0072 L344.864,41.3672 C344.864,38.1939 343.931,35.9805 342.064,34.7272 C340.224,33.4472 338.358,32.8072 336.464,32.8072 C335.398,32.8072 334.251,33.0472 333.024,33.5272 C331.798,34.0072 330.851,34.7405 330.184,35.7272 C329.518,34.7405 328.598,34.0072 327.424,33.5272 C326.278,33.0472 325.224,32.8072 324.264,32.8072 C323.278,32.8072 322.331,33.0605 321.424,33.5672 C320.518,34.0739 319.931,34.6072 319.664,35.1672 L319.664,33.3672 L315.464,33.3672 L315.464,54.0072 L319.664,54.0072 L319.664,41.4472 C319.664,39.9005 320.078,38.7539 320.904,38.0072 C321.731,37.2605 322.718,36.8872 323.864,36.8872 C325.011,36.8872 325.998,37.2605 326.824,38.0072 C327.651,38.7539 328.064,39.9005 328.064,41.4472 L328.064,54.0072 L332.264,54.0072 L332.264,41.4472 Z M362.323,45.7672 C362.323,47.3139 361.91,48.4605 361.083,49.2072 C360.283,49.9539 359.23,50.3272 357.923,50.3272 C356.617,50.3272 355.55,49.9539 354.723,49.2072 C353.923,48.4605 353.523,47.3139 353.523,45.7672 L353.523,41.4472 C353.523,39.9005 353.923,38.7539 354.723,38.0072 C355.55,37.2605 356.617,36.8872 357.923,36.8872 C359.23,36.8872 360.283,37.2605 361.083,38.0072 C361.91,38.7539 362.323,39.9005 362.323,41.4472 L362.323,45.7672 Z M366.523,41.3672 C366.523,38.1939 365.59,35.9805 363.723,34.7272 C361.883,33.4472 360.083,32.8072 358.323,32.8072 C357.257,32.8072 356.257,33.0605 355.323,33.5672 C354.417,34.0472 353.817,34.5805 353.523,35.1672 L353.523,33.3672 L349.323,33.3672 L349.323,61.3672 L353.523,61.3672 L353.523,52.0472 C353.817,52.6339 354.417,53.1805 355.323,53.6872 C356.257,54.1672 357.257,54.4072 358.323,54.4072 C360.083,54.4072 361.883,53.7805 363.723,52.5272 C365.59,51.2472 366.523,49.0205 366.523,45.8472 L366.523,41.3672 Z M378.562,36.8472 C379.789,36.8472 380.789,37.1805 381.562,37.8472 C382.362,38.5139 382.816,39.5139 382.922,40.8472 L382.922,40.8872 C381.189,40.9939 379.616,41.1272 378.202,41.2872 C376.789,41.4472 375.469,41.7139 374.242,42.0872 C372.536,42.6205 371.362,43.5005 370.722,44.7272 C370.082,45.9272 369.762,47.1139 369.762,48.2872 C369.762,50.3939 370.469,51.9405 371.882,52.9272 C373.296,53.9139 374.936,54.4072 376.802,54.4072 C378.162,54.4072 379.362,54.2205 380.402,53.8472 C381.442,53.4472 382.296,52.8472 382.962,52.0472 L382.962,54.0072 L387.162,54.0072 L387.162,41.3672 C387.162,37.9805 386.176,35.7139 384.202,34.5672 C382.229,33.3939 380.349,32.8072 378.562,32.8072 C376.909,32.8072 375.162,33.2872 373.322,34.2472 C371.509,35.2072 370.429,37.0472 370.082,39.7672 L374.362,39.7672 C374.629,38.7805 375.136,38.0472 375.882,37.5672 C376.629,37.0872 377.522,36.8472 378.562,36.8472 Z M377.482,50.3672 C376.362,50.3672 375.496,50.1672 374.882,49.7672 C374.269,49.3672 373.962,48.7539 373.962,47.9272 C373.962,47.4205 374.056,47.0205 374.242,46.7272 C374.456,46.4072 374.696,46.1672 374.962,46.0072 C375.709,45.5539 376.762,45.2339 378.122,45.0472 C379.509,44.8605 381.122,44.7139 382.962,44.6072 L382.962,45.7672 C382.962,47.6872 382.349,48.9405 381.122,49.5272 C379.896,50.0872 378.682,50.3672 377.482,50.3672 Z M396.772,48.0072 C396.772,48.7539 396.878,49.2739 397.092,49.5672 C397.332,49.8339 397.865,49.9672 398.692,49.9672 L401.852,49.9672 L401.852,54.0072 L397.492,54.0072 C395.785,54.0072 394.532,53.5939 393.732,52.7672 C392.958,51.9139 392.572,50.6872 392.572,49.0872 L392.572,37.3272 L389.652,37.3272 L389.652,33.3672 L392.572,33.3672 L392.572,28.6872 L396.772,28.6872 L396.772,33.3672 L401.852,33.3672 L401.852,37.3272 L396.772,37.3272 L396.772,48.0072 Z M409.397,33.3672 L405.197,33.3672 L405.197,54.0072 L409.397,54.0072 L409.397,33.3672 Z M407.277,26.0072 L404.597,31.1672 L407.957,31.1672 L412.677,26.0072 L407.277,26.0072 Z M420.894,48.0472 L415.734,33.3672 L411.374,33.3672 L418.814,54.0072 L422.974,54.0072 L430.414,33.3672 L426.054,33.3672 L420.894,48.0472 Z M440.33,50.3672 C439.023,50.3672 437.957,49.9939 437.13,49.2472 C436.33,48.4739 435.93,47.3139 435.93,45.7672 L435.93,45.0872 L448.93,45.0872 L448.93,41.3672 C448.93,37.9805 447.943,35.7139 445.97,34.5672 C443.997,33.3939 442.117,32.8072 440.33,32.8072 C438.543,32.8072 436.663,33.3939 434.69,34.5672 C432.717,35.7139 431.73,37.9805 431.73,41.3672 L431.73,45.8472 C431.73,49.2339 432.717,51.5139 434.69,52.6872 C436.663,53.8339 438.543,54.4072 440.33,54.4072 C441.983,54.4072 443.717,53.9272 445.53,52.9672 C447.37,52.0072 448.463,50.1672 448.81,47.4472 L444.53,47.4472 C444.263,48.4339 443.757,49.1672 443.01,49.6472 C442.263,50.1272 441.37,50.3672 440.33,50.3672 Z M440.33,36.8472 C441.61,36.8472 442.65,37.2205 443.45,37.9672 C444.277,38.7139 444.703,39.8339 444.73,41.3272 L444.73,41.3672 L435.93,41.3672 L435.93,41.3272 C435.93,39.8339 436.33,38.7139 437.13,37.9672 C437.957,37.2205 439.023,36.8472 440.33,36.8472 Z M457.027,48.0072 C457.027,48.7539 457.133,49.2739 457.347,49.5672 C457.587,49.8339 458.12,49.9672 458.947,49.9672 L459.587,49.9672 L459.587,54.0072 L457.747,54.0072 C456.04,54.0072 454.787,53.5939 453.987,52.7672 C453.213,51.9139 452.827,50.6872 452.827,49.0872 L452.827,26.0072 L457.027,26.0072 L457.027,48.0072 Z M55.36,90.9672 L51.12,90.9672 C50.9333,92.1139 50.44,92.9672 49.64,93.5272 C48.8667,94.0872 47.92,94.3672 46.8,94.3672 C45.4933,94.3672 44.4267,93.9939 43.6,93.2472 C42.8,92.4739 42.4,91.3139 42.4,89.7672 L42.4,85.4472 C42.4,83.9005 42.8,82.7539 43.6,82.0072 C44.4267,81.2339 45.4933,80.8472 46.8,80.8472 C47.92,80.8472 48.8667,81.1272 49.64,81.6872 C50.4133,82.2472 50.8933,83.1005 51.08,84.2472 L55.36,84.2472 C55.0933,81.3139 54.0133,79.3405 52.12,78.3272 C50.2533,77.3139 48.48,76.8072 46.8,76.8072 C45.0133,76.8072 43.1333,77.3939 41.16,78.5672 C39.1867,79.7139 38.2,81.9805 38.2,85.3672 L38.2,89.8472 C38.2,93.2339 39.1867,95.5139 41.16,96.6872 C43.1333,97.8339 45.0133,98.4072 46.8,98.4072 C48.48,98.4072 50.2533,97.9005 52.12,96.8872 C54.0133,95.8739 55.0933,93.9005 55.36,90.9672 Z M71.5824,89.7672 C71.5824,91.3139 71.1691,92.4739 70.3424,93.2472 C69.5424,93.9939 68.4891,94.3672 67.1824,94.3672 C65.8757,94.3672 64.8091,93.9939 63.9824,93.2472 C63.1824,92.4739 62.7824,91.3139 62.7824,89.7672 L62.7824,85.4472 C62.7824,83.9005 63.1824,82.7539 63.9824,82.0072 C64.8091,81.2339 65.8757,80.8472 67.1824,80.8472 C68.4891,80.8472 69.5424,81.2339 70.3424,82.0072 C71.1691,82.7539 71.5824,83.9005 71.5824,85.4472 L71.5824,89.7672 Z M58.5824,89.8472 C58.5824,93.2339 59.5691,95.5139 61.5424,96.6872 C63.5157,97.8339 65.3957,98.4072 67.1824,98.4072 C68.9691,98.4072 70.8491,97.8339 72.8224,96.6872 C74.7957,95.5139 75.7824,93.2339 75.7824,89.8472 L75.7824,85.3672 C75.7824,81.9805 74.7957,79.7139 72.8224,78.5672 C70.8491,77.3939 68.9691,76.8072 67.1824,76.8072 C65.3957,76.8072 63.5157,77.3939 61.5424,78.5672 C59.5691,79.7139 58.5824,81.9805 58.5824,85.3672 L58.5824,89.8472 Z M96.754,85.4472 C96.754,83.9005 97.168,82.7539 97.994,82.0072 C98.821,81.2605 99.808,80.8872 100.954,80.8872 C102.101,80.8872 103.088,81.2605 103.914,82.0072 C104.741,82.7539 105.154,83.9005 105.154,85.4472 L105.154,98.0072 L109.354,98.0072 L109.354,85.3672 C109.354,82.1939 108.421,79.9805 106.554,78.7272 C104.714,77.4472 102.848,76.8072 100.954,76.8072 C99.888,76.8072 98.741,77.0472 97.514,77.5272 C96.288,78.0072 95.341,78.7405 94.674,79.7272 C94.008,78.7405 93.088,78.0072 91.914,77.5272 C90.768,77.0472 89.7145,76.8072 88.7545,76.8072 C87.7678,76.8072 86.8212,77.0605 85.9145,77.5672 C85.0078,78.0739 84.4212,78.6072 84.1545,79.1672 L84.1545,77.3672 L79.9545,77.3672 L79.9545,98.0072 L84.1545,98.0072 L84.1545,85.4472 C84.1545,83.9005 84.5678,82.7539 85.3945,82.0072 C86.2212,81.2605 87.2078,80.8872 88.3545,80.8872 C89.5012,80.8872 90.488,81.2605 91.314,82.0072 C92.141,82.7539 92.554,83.9005 92.554,85.4472 L92.554,98.0072 L96.754,98.0072 L96.754,85.4472 Z M129.654,80.8472 C130.881,80.8472 131.881,81.1805 132.654,81.8472 C133.454,82.5139 133.907,83.5139 134.014,84.8472 L134.014,84.8872 C132.281,84.9939 130.707,85.1272 129.294,85.2872 C127.881,85.4472 126.561,85.7139 125.334,86.0872 C123.627,86.6205 122.454,87.5005 121.814,88.7272 C121.174,89.9272 120.854,91.1139 120.854,92.2872 C120.854,94.3939 121.561,95.9405 122.974,96.9272 C124.387,97.9139 126.027,98.4072 127.894,98.4072 C129.254,98.4072 130.454,98.2205 131.494,97.8472 C132.534,97.4472 133.387,96.8472 134.054,96.0472 L134.054,98.0072 L138.254,98.0072 L138.254,85.3672 C138.254,81.9805 137.267,79.7139 135.294,78.5672 C133.321,77.3939 131.441,76.8072 129.654,76.8072 C128.001,76.8072 126.254,77.2872 124.414,78.2472 C122.601,79.2072 121.521,81.0472 121.174,83.7672 L125.454,83.7672 C125.721,82.7805 126.227,82.0472 126.974,81.5672 C127.721,81.0872 128.614,80.8472 129.654,80.8472 Z M128.574,94.3672 C127.454,94.3672 126.587,94.1672 125.974,93.7672 C125.361,93.3672 125.054,92.7539 125.054,91.9272 C125.054,91.4205 125.147,91.0205 125.334,90.7272 C125.547,90.4072 125.787,90.1672 126.054,90.0072 C126.801,89.5539 127.854,89.2339 129.214,89.0472 C130.601,88.8605 132.214,88.7139 134.054,88.6072 L134.054,89.7672 C134.054,91.6872 133.441,92.9405 132.214,93.5272 C130.987,94.0872 129.774,94.3672 128.574,94.3672 Z M150.063,98.4072 C152.303,98.4072 154.13,97.9005 155.543,96.8872 C156.983,95.8739 157.717,94.3539 157.743,92.3272 C157.743,90.3805 157.263,88.9405 156.303,88.0072 C155.37,87.0472 153.97,86.3272 152.103,85.8472 L148.303,84.8872 C147.743,84.7539 147.21,84.5539 146.703,84.2872 C146.223,84.0205 145.983,83.5805 145.983,82.9672 C145.983,82.1405 146.317,81.5805 146.983,81.2872 C147.65,80.9939 148.303,80.8472 148.943,80.8472 C149.903,80.8472 150.73,81.0472 151.423,81.4472 C152.143,81.8472 152.583,82.5005 152.743,83.4072 L157.143,83.4072 C156.957,81.1139 156.143,79.4472 154.703,78.4072 C153.263,77.3405 151.437,76.8072 149.223,76.8072 C147.143,76.8072 145.37,77.3139 143.903,78.3272 C142.463,79.3405 141.743,80.8605 141.743,82.8872 C141.743,84.8605 142.277,86.3005 143.343,87.2072 C144.41,88.0872 145.623,88.7005 146.983,89.0472 L150.903,90.0472 C151.57,90.2072 152.17,90.4339 152.703,90.7272 C153.237,91.0205 153.503,91.5139 153.503,92.2072 C153.503,93.0339 153.157,93.6072 152.463,93.9272 C151.797,94.2205 151.01,94.3672 150.103,94.3672 C148.983,94.3672 147.983,94.1272 147.103,93.6472 C146.25,93.1672 145.743,92.4205 145.583,91.4072 L141.263,91.4072 C141.37,93.7539 142.263,95.5139 143.943,96.6872 C145.65,97.8339 147.69,98.4072 150.063,98.4072 Z M179.491,74.0472 L179.491,70.0072 L175.131,70.0072 C173.425,70.0072 172.171,70.4339 171.371,71.2872 C170.598,72.1139 170.211,73.3272 170.211,74.9272 L170.211,77.3672 L167.291,77.3672 L167.291,81.3272 L170.211,81.3272 L170.211,98.0072 L174.411,98.0072 L174.411,81.3272 L179.491,81.3272 L179.491,77.3672 L174.411,77.3672 L174.411,76.0072 C174.411,75.2605 174.518,74.7539 174.731,74.4872 C174.971,74.1939 175.505,74.0472 176.331,74.0472 L179.491,74.0472 Z M192.38,81.0872 L192.38,77.0072 L190.78,77.0072 C189.713,77.0072 188.713,77.2605 187.78,77.7672 C186.873,78.2472 186.273,78.7805 185.98,79.3672 L185.98,77.3672 L181.78,77.3672 L181.78,98.0072 L185.98,98.0072 L185.98,85.6472 C185.98,84.1005 186.38,82.9539 187.18,82.2072 C188.007,81.4605 189.073,81.0872 190.38,81.0872 L192.38,81.0872 Z M202.742,94.3672 C201.435,94.3672 200.368,93.9939 199.542,93.2472 C198.742,92.4739 198.342,91.3139 198.342,89.7672 L198.342,89.0872 L211.342,89.0872 L211.342,85.3672 C211.342,81.9805 210.355,79.7139 208.382,78.5672 C206.408,77.3939 204.528,76.8072 202.742,76.8072 C200.955,76.8072 199.075,77.3939 197.102,78.5672 C195.128,79.7139 194.142,81.9805 194.142,85.3672 L194.142,89.8472 C194.142,93.2339 195.128,95.5139 197.102,96.6872 C199.075,97.8339 200.955,98.4072 202.742,98.4072 C204.395,98.4072 206.128,97.9272 207.942,96.9672 C209.782,96.0072 210.875,94.1672 211.222,91.4472 L206.942,91.4472 C206.675,92.4339 206.168,93.1672 205.422,93.6472 C204.675,94.1272 203.782,94.3672 202.742,94.3672 Z M202.742,80.8472 C204.022,80.8472 205.062,81.2205 205.862,81.9672 C206.688,82.7139 207.115,83.8339 207.142,85.3272 L207.142,85.3672 L198.342,85.3672 L198.342,85.3272 C198.342,83.8339 198.742,82.7139 199.542,81.9672 C200.368,81.2205 201.435,80.8472 202.742,80.8472 Z M218.958,89.7672 C218.958,91.3139 219.358,92.4605 220.158,93.2072 C220.958,93.9539 221.932,94.3272 223.078,94.3272 C224.385,94.3272 225.492,93.9539 226.398,93.2072 C227.305,92.4605 227.758,91.3139 227.758,89.7672 L227.758,85.4472 C227.758,83.9005 227.345,82.7539 226.518,82.0072 C225.718,81.2605 224.665,80.8872 223.358,80.8872 C222.052,80.8872 220.985,81.2605 220.158,82.0072 C219.358,82.7539 218.958,83.9005 218.958,85.4472 L218.958,89.7672 Z M214.758,85.3672 C214.758,82.1939 215.678,79.9805 217.518,78.7272 C219.385,77.4472 221.198,76.8072 222.958,76.8072 C224.025,76.8072 225.012,77.0605 225.918,77.5672 C226.852,78.0472 227.465,78.5805 227.758,79.1672 L227.758,77.3672 L231.958,77.3672 L231.958,105.367 L227.758,105.367 L227.758,96.0472 C227.465,96.6339 226.852,97.1805 225.918,97.6872 C225.012,98.1672 224.025,98.4072 222.958,98.4072 C221.198,98.4072 219.385,97.7805 217.518,96.5272 C215.678,95.2472 214.758,93.0205 214.758,89.8472 L214.758,85.3672 Z M240.597,77.3672 L236.397,77.3672 L236.397,89.8472 C236.397,92.8605 237.277,95.0472 239.037,96.4072 C240.824,97.7405 242.597,98.4072 244.357,98.4072 C245.424,98.4072 246.411,98.1672 247.317,97.6872 C248.251,97.1805 248.864,96.6339 249.157,96.0472 L249.157,98.0072 L253.357,98.0072 L253.357,77.3672 L249.157,77.3672 L249.157,89.7672 C249.157,91.3139 248.744,92.4605 247.917,93.2072 C247.117,93.9539 246.104,94.3272 244.877,94.3272 C243.651,94.3272 242.624,93.9539 241.797,93.2072 C240.997,92.4605 240.597,91.3139 240.597,89.7672 L240.597,77.3672 Z M266.115,94.3672 C264.809,94.3672 263.742,93.9939 262.915,93.2472 C262.115,92.4739 261.715,91.3139 261.715,89.7672 L261.715,89.0872 L274.715,89.0872 L274.715,85.3672 C274.715,81.9805 273.729,79.7139 271.755,78.5672 C269.782,77.3939 267.902,76.8072 266.115,76.8072 C264.329,76.8072 262.449,77.3939 260.475,78.5672 C258.502,79.7139 257.515,81.9805 257.515,85.3672 L257.515,89.8472 C257.515,93.2339 258.502,95.5139 260.475,96.6872 C262.449,97.8339 264.329,98.4072 266.115,98.4072 C267.769,98.4072 269.502,97.9272 271.315,96.9672 C273.155,96.0072 274.249,94.1672 274.595,91.4472 L270.315,91.4472 C270.049,92.4339 269.542,93.1672 268.795,93.6472 C268.049,94.1272 267.155,94.3672 266.115,94.3672 Z M267.795,70.0072 L264.435,70.0072 L259.155,75.1672 L263.835,75.1672 L266.115,72.9272 L268.395,75.1672 L273.075,75.1672 L267.795,70.0072 Z M266.115,80.8472 C267.395,80.8472 268.435,81.2205 269.235,81.9672 C270.062,82.7139 270.489,83.8339 270.515,85.3272 L270.515,85.3672 L261.715,85.3672 L261.715,85.3272 C261.715,83.8339 262.115,82.7139 262.915,81.9672 C263.742,81.2205 264.809,80.8472 266.115,80.8472 Z M282.892,85.4472 C282.892,83.9005 283.292,82.7539 284.092,82.0072 C284.919,81.2605 285.985,80.8872 287.292,80.8872 C288.599,80.8872 289.652,81.2605 290.452,82.0072 C291.279,82.7539 291.692,83.9005 291.692,85.4472 L291.692,98.0072 L295.892,98.0072 L295.892,85.3672 C295.892,82.1939 294.959,79.9805 293.092,78.7272 C291.252,77.4472 289.452,76.8072 287.692,76.8072 C286.625,76.8072 285.625,77.0605 284.692,77.5672 C283.785,78.0472 283.185,78.5805 282.892,79.1672 L282.892,77.3672 L278.692,77.3672 L278.692,98.0072 L282.892,98.0072 L282.892,85.4472 Z M316.925,90.9672 L312.685,90.9672 C312.498,92.1139 312.005,92.9672 311.205,93.5272 C310.431,94.0872 309.485,94.3672 308.365,94.3672 C307.058,94.3672 305.991,93.9939 305.165,93.2472 C304.365,92.4739 303.965,91.3139 303.965,89.7672 L303.965,85.4472 C303.965,83.9005 304.365,82.7539 305.165,82.0072 C305.991,81.2339 307.058,80.8472 308.365,80.8472 C309.485,80.8472 310.431,81.1272 311.205,81.6872 C311.978,82.2472 312.458,83.1005 312.645,84.2472 L316.925,84.2472 C316.658,81.3139 315.578,79.3405 313.685,78.3272 C311.818,77.3139 310.045,76.8072 308.365,76.8072 C306.578,76.8072 304.698,77.3939 302.725,78.5672 C300.751,79.7139 299.765,81.9805 299.765,85.3672 L299.765,89.8472 C299.765,93.2339 300.751,95.5139 302.725,96.6872 C304.698,97.8339 306.578,98.4072 308.365,98.4072 C310.045,98.4072 311.818,97.9005 313.685,96.8872 C315.578,95.8739 316.658,93.9005 316.925,90.9672 Z M324.907,70.0072 L320.707,70.0072 L320.707,74.2872 L324.907,74.2872 L324.907,70.0072 Z M324.907,77.3672 L320.707,77.3672 L320.707,98.0072 L324.907,98.0072 L324.907,77.3672 Z M337.524,80.8472 C338.751,80.8472 339.751,81.1805 340.524,81.8472 C341.324,82.5139 341.777,83.5139 341.884,84.8472 L341.884,84.8872 C340.151,84.9939 338.577,85.1272 337.164,85.2872 C335.751,85.4472 334.431,85.7139 333.204,86.0872 C331.497,86.6205 330.324,87.5005 329.684,88.7272 C329.044,89.9272 328.724,91.1139 328.724,92.2872 C328.724,94.3939 329.431,95.9405 330.844,96.9272 C332.257,97.9139 333.897,98.4072 335.764,98.4072 C337.124,98.4072 338.324,98.2205 339.364,97.8472 C340.404,97.4472 341.257,96.8472 341.924,96.0472 L341.924,98.0072 L346.124,98.0072 L346.124,85.3672 C346.124,81.9805 345.137,79.7139 343.164,78.5672 C341.191,77.3939 339.311,76.8072 337.524,76.8072 C335.871,76.8072 334.124,77.2872 332.284,78.2472 C330.471,79.2072 329.391,81.0472 329.044,83.7672 L333.324,83.7672 C333.591,82.7805 334.097,82.0472 334.844,81.5672 C335.591,81.0872 336.484,80.8472 337.524,80.8472 Z M336.444,94.3672 C335.324,94.3672 334.457,94.1672 333.844,93.7672 C333.231,93.3672 332.924,92.7539 332.924,91.9272 C332.924,91.4205 333.017,91.0205 333.204,90.7272 C333.417,90.4072 333.657,90.1672 333.924,90.0072 C334.671,89.5539 335.724,89.2339 337.084,89.0472 C338.471,88.8605 340.084,88.7139 341.924,88.6072 L341.924,89.7672 C341.924,91.6872 341.311,92.9405 340.084,93.5272 C338.857,94.0872 337.644,94.3672 336.444,94.3672 Z M357.933,98.4072 C360.173,98.4072 362,97.9005 363.413,96.8872 C364.853,95.8739 365.587,94.3539 365.613,92.3272 C365.613,90.3805 365.133,88.9405 364.173,88.0072 C363.24,87.0472 361.84,86.3272 359.973,85.8472 L356.173,84.8872 C355.613,84.7539 355.08,84.5539 354.573,84.2872 C354.093,84.0205 353.853,83.5805 353.853,82.9672 C353.853,82.1405 354.187,81.5805 354.853,81.2872 C355.52,80.9939 356.173,80.8472 356.813,80.8472 C357.773,80.8472 358.6,81.0472 359.293,81.4472 C360.013,81.8472 360.453,82.5005 360.613,83.4072 L365.013,83.4072 C364.827,81.1139 364.013,79.4472 362.573,78.4072 C361.133,77.3405 359.307,76.8072 357.093,76.8072 C355.013,76.8072 353.24,77.3139 351.773,78.3272 C350.333,79.3405 349.613,80.8605 349.613,82.8872 C349.613,84.8605 350.147,86.3005 351.213,87.2072 C352.28,88.0872 353.493,88.7005 354.853,89.0472 L358.773,90.0472 C359.44,90.2072 360.04,90.4339 360.573,90.7272 C361.107,91.0205 361.373,91.5139 361.373,92.2072 C361.373,93.0339 361.027,93.6072 360.333,93.9272 C359.667,94.2205 358.88,94.3672 357.973,94.3672 C356.853,94.3672 355.853,94.1272 354.973,93.6472 C354.12,93.1672 353.613,92.4205 353.453,91.4072 L349.133,91.4072 C349.24,93.7539 350.133,95.5139 351.813,96.6872 C353.52,97.8339 355.56,98.4072 357.933,98.4072 Z M369.481,82.7272 L374.841,82.7272 L374.841,77.3672 L369.481,77.3672 L369.481,82.7272 Z M369.481,98.0072 L374.841,98.0072 L374.841,92.6472 L369.481,92.6472 L369.481,98.0072 Z" id="Shape" fill="#FFFFFF" fill-rule="nonzero"></path>
            <g id="Group" transform="translate(48.000000, 172.000000)">
                <line x1="26" y1="26.243" x2="121.75" y2="26.243" id="Path" stroke="#17D615" stroke-width="2.2" stroke-linecap="square"></line>
                <rect id="Rectangle" stroke="#00C0D2" stroke-width="3.96" x="0.8174" y="2.734" width="64.0402" height="125.891" rx="9.108"></rect>
                <rect id="Rectangle" fill="#00C0D2" fill-rule="nonzero" x="15.1145" y="0.821" width="35.4459" height="8.53203" rx="3.3"></rect>
                <rect id="Rectangle" fill="#00C0D2" fill-rule="nonzero" x="19.5364" y="122.081" width="27.2804" height="2.22589" rx="1.11294"></rect>
                <path d="M25.65,33.228 C29.5988,33.228 32.8,30.027 32.8,26.078 C32.8,22.129 29.5988,18.928 25.65,18.928 C21.7012,18.928 18.5,22.129 18.5,26.078 C18.5,30.027 21.7012,33.228 25.65,33.228 Z" id="Path" fill="#17D615"></path>
                <path d="M33.6084,75.932 C35.0461,75.932 36.2117,74.804 36.2117,73.413 C36.2117,72.021 35.0461,70.893 33.6084,70.893 C32.1707,70.893 31.0051,72.021 31.0051,73.413 C31.0051,74.804 32.1707,75.932 33.6084,75.932 Z" id="Path" fill="#00C0D2"></path>
                <path d="M53.773,58.442 C48.771,53.105 41.5481,49.754 33.5163,49.754 C25.4147,49.754 18.1362,53.164 13.1294,58.581" id="Path" stroke="#00C0D2" stroke-width="2.80665" stroke-linecap="round"></path>
                <path d="M47.493,63.652 C44.053,59.982 39.085,57.677 33.5608,57.677 C27.9887,57.677 22.9826,60.022 19.5391,63.748" id="Path" stroke="#00C0D2" stroke-width="2.80665" stroke-linecap="round"></path>
                <path d="M41.0957,68.677 C39.2299,66.687 36.536,65.437 33.5404,65.437 C30.5188,65.437 27.8041,66.709 25.9368,68.729" id="Path" stroke="#00C0D2" stroke-width="2.80665" stroke-linecap="round"></path>
                <path d="M193.417,18.441 L193.417,18.985 L198.615,18.985 L198.615,18.54 C198.615,16.626 199.11,15.207 200.1,14.283 C201.123,13.326 202.443,12.847 204.06,12.847 C205.677,12.847 206.98,13.293 207.97,14.184 C208.993,15.042 209.505,16.362 209.505,18.144 C209.505,19.431 209.175,20.619 208.515,21.708 C207.888,22.764 206.997,23.902 205.842,25.123 L193.417,37.993 L193.417,42.993 L214.702,42.993 L214.702,37.993 L200.496,37.993 L209.752,28.39 C211.435,26.674 212.673,25.041 213.465,23.49 C214.29,21.939 214.702,20.124 214.702,18.045 C214.702,14.019 213.481,11.313 211.039,9.927 C208.597,8.541 206.271,7.848 204.06,7.848 C201.849,7.848 199.522,8.574 197.08,10.026 C194.638,11.445 193.417,14.25 193.417,18.441 Z M219.94,42.993 L226.573,42.993 L226.573,36.36 L219.94,36.36 L219.94,42.993 Z M253.722,34.429 L253.722,29.628 L250.109,29.628 L250.109,8.343 L244.911,8.343 L229.517,29.628 L229.517,34.429 L244.911,34.429 L244.911,42.993 L250.109,42.993 L250.109,34.429 L253.722,34.429 Z M235.556,29.628 L244.911,16.708 L244.911,29.628 L235.556,29.628 Z M278.71,7.848 C275.014,7.848 272.011,8.953 269.701,11.164 C267.424,13.375 266.286,16.345 266.286,20.074 L266.286,31.261 C266.286,34.99 267.424,37.96 269.701,40.171 C272.011,42.382 275.014,43.488 278.71,43.488 C282.406,43.488 285.393,42.382 287.67,40.171 C289.98,37.96 291.135,34.99 291.135,31.261 L291.135,23.935 L278.71,23.935 L278.71,29.034 L285.838,29.034 L285.838,31.261 C285.838,33.67 285.079,35.436 283.561,36.558 C282.043,37.68 280.426,38.241 278.71,38.241 C276.994,38.241 275.377,37.68 273.859,36.558 C272.341,35.436 271.582,33.67 271.582,31.261 L271.582,20.074 C271.582,17.665 272.341,15.9 273.859,14.778 C275.377,13.656 276.994,13.095 278.71,13.095 C280.294,13.095 281.796,13.573 283.215,14.53 C284.667,15.454 285.525,16.923 285.789,18.936 L291.085,18.936 C290.854,15.537 289.6,12.847 287.323,10.867 C285.079,8.854 282.208,7.848 278.71,7.848 Z M315.775,22.896 L301.519,22.896 L301.519,8.343 L296.222,8.343 L296.222,42.993 L301.519,42.993 L301.519,28.143 L315.775,28.143 L315.775,42.993 L321.071,42.993 L321.071,8.343 L315.775,8.343 L315.775,22.896 Z M344.121,22.351 L344.121,17.451 L325.757,17.451 L325.757,22.351 L337.637,22.351 L325.41,38.092 L325.41,42.993 L344.468,42.993 L344.468,38.092 L331.895,38.092 L344.121,22.351 Z" id="Shape" fill="#121212" fill-rule="nonzero"></path>
                <path d="M209.233,113.739 C209.233,115.422 208.738,116.693 207.748,117.551 C206.791,118.376 205.537,118.788 203.986,118.788 C202.435,118.788 201.115,118.343 200.026,117.452 C198.937,116.561 198.376,115.224 198.343,113.442 L198.343,113.393 L193.146,113.393 L193.146,113.442 C193.212,117.534 194.482,120.29 196.957,121.709 C199.432,123.095 201.825,123.788 204.135,123.788 C206.61,123.788 208.936,123.029 211.114,121.511 C213.325,119.993 214.431,117.402 214.431,113.739 L214.431,111.561 C214.431,107.37 213.243,104.565 210.867,103.146 C208.524,101.694 206.346,100.968 204.333,100.968 C203.31,100.968 202.254,101.133 201.165,101.463 C200.109,101.793 199.317,102.222 198.789,102.75 L198.789,93.642 L213.094,93.642 L213.094,88.643 L193.591,88.643 L193.591,109.037 L198.789,109.037 C199.185,108.014 199.812,107.255 200.67,106.76 C201.561,106.232 202.6,105.968 203.788,105.968 C205.405,105.968 206.709,106.446 207.699,107.403 C208.722,108.327 209.233,109.746 209.233,111.66 L209.233,113.739 Z M219.264,123.293 L225.897,123.293 L225.897,116.66 L219.264,116.66 L219.264,123.293 Z M247.788,113.096 C247.788,115.01 247.277,116.445 246.254,117.402 C245.264,118.326 243.96,118.788 242.343,118.788 C240.726,118.788 239.406,118.326 238.383,117.402 C237.393,116.445 236.898,115.01 236.898,113.096 L236.898,98.84 C236.898,96.926 237.393,95.507 238.383,94.583 C239.406,93.626 240.726,93.147 242.343,93.147 C243.96,93.147 245.264,93.626 246.254,94.583 C247.277,95.507 247.788,96.926 247.788,98.84 L247.788,113.096 Z M231.701,113.195 C231.701,117.386 232.922,120.207 235.364,121.659 C237.806,123.078 240.132,123.788 242.343,123.788 C244.554,123.788 246.881,123.078 249.323,121.659 C251.765,120.207 252.986,117.386 252.986,113.195 L252.986,98.741 C252.986,94.55 251.765,91.745 249.323,90.326 C246.881,88.874 244.554,88.148 242.343,88.148 C240.132,88.148 237.806,88.874 235.364,90.326 C232.922,91.745 231.701,94.55 231.701,98.741 L231.701,113.195 Z M279.774,88.148 C276.078,88.148 273.075,89.253 270.765,91.464 C268.488,93.675 267.349,96.645 267.349,100.374 L267.349,111.561 C267.349,115.29 268.488,118.26 270.765,120.471 C273.075,122.682 276.078,123.788 279.774,123.788 C283.47,123.788 286.456,122.682 288.733,120.471 C291.043,118.26 292.198,115.29 292.198,111.561 L292.198,104.235 L279.774,104.235 L279.774,109.334 L286.902,109.334 L286.902,111.561 C286.902,113.97 286.143,115.736 284.625,116.858 C283.107,117.98 281.49,118.541 279.774,118.541 C278.058,118.541 276.441,117.98 274.923,116.858 C273.405,115.736 272.646,113.97 272.646,111.561 L272.646,100.374 C272.646,97.965 273.405,96.2 274.923,95.078 C276.441,93.956 278.058,93.395 279.774,93.395 C281.358,93.395 282.859,93.873 284.278,94.83 C285.73,95.754 286.588,97.223 286.852,99.236 L292.149,99.236 C291.918,95.837 290.664,93.147 288.387,91.167 C286.143,89.154 283.272,88.148 279.774,88.148 Z M316.838,103.196 L302.582,103.196 L302.582,88.643 L297.286,88.643 L297.286,123.293 L302.582,123.293 L302.582,108.443 L316.838,108.443 L316.838,123.293 L322.135,123.293 L322.135,88.643 L316.838,88.643 L316.838,103.196 Z M345.185,102.651 L345.185,97.751 L326.82,97.751 L326.82,102.651 L338.7,102.651 L326.474,118.392 L326.474,123.293 L345.531,123.293 L345.531,118.392 L332.958,118.392 L345.185,102.651 Z" id="Shape" fill="#121212" fill-rule="nonzero" opacity="0.3"></path>
                <path d="M144.685,49.563 C157.655,49.563 168.17,39.048 168.17,26.078 C168.17,13.107 157.655,2.593 144.685,2.593 C131.715,2.593 121.2,13.107 121.2,26.078 C121.2,39.048 131.715,49.563 144.685,49.563 Z" id="Path" fill="#17D615"></path>
                <rect id="Rectangle" fill="#FFFFFF" fill-rule="nonzero" transform="translate(147.838861, 26.289948) rotate(-45.000000) translate(-147.838861, -26.289948) " x="134.898161" y="23.7777325" width="25.8814" height="5.02443" rx="2.51221"></rect>
                <path d="M142.241,35.44 C141.26,36.421 139.67,36.421 138.688,35.44 L132.346,29.098 C131.365,28.116 131.365,26.526 132.346,25.545 C133.327,24.564 134.918,24.564 135.899,25.545 L142.241,31.887 C143.222,32.868 143.222,34.459 142.241,35.44 Z" id="Path" fill="#FFFFFF"></path>
                <path d="M367.034,105.56 C367.034,104.398 367.254,103.571 367.694,103.078 C368.152,102.568 369.014,102.313 370.282,102.313 L370.704,102.313 L370.704,104.002 L370.123,104.002 C369.578,104.002 369.208,104.117 369.014,104.346 C368.838,104.557 368.75,104.891 368.75,105.349 L368.75,120.766 C368.75,121.224 368.838,121.558 369.014,121.77 C369.208,121.998 369.578,122.113 370.123,122.113 L370.704,122.113 L370.704,123.802 L370.282,123.802 C369.014,123.802 368.152,123.547 367.694,123.037 C367.254,122.544 367.034,121.717 367.034,120.555 L367.034,105.56 Z M373.857,120.793 L375.889,120.793 L375.889,102.313 L373.857,102.313 L373.857,120.793 Z M385.322,106.801 C384.706,106.801 384.073,106.942 383.421,107.223 C382.788,107.505 382.304,107.918 381.969,108.464 L381.969,107.17 L379.989,107.17 L379.989,120.793 L381.969,120.793 L381.969,112.107 C381.969,110.981 382.304,110.136 382.973,109.573 C383.659,108.992 384.442,108.702 385.322,108.702 C386.202,108.702 386.977,108.992 387.645,109.573 C388.332,110.136 388.675,110.981 388.675,112.107 L388.675,120.793 L390.655,120.793 L390.655,112.134 C390.655,110.145 390.083,108.763 388.939,107.989 C387.795,107.197 386.589,106.801 385.322,106.801 Z M399.39,106.801 C398.123,106.801 396.917,107.197 395.773,107.989 C394.629,108.763 394.057,110.145 394.057,112.134 L394.057,115.724 C394.057,117.73 394.629,119.121 395.773,119.895 C396.917,120.67 398.123,121.057 399.39,121.057 C400.587,121.057 401.731,120.714 402.822,120.027 C403.931,119.341 404.556,118.126 404.696,116.384 L402.69,116.384 C402.567,117.299 402.18,117.994 401.528,118.47 C400.895,118.927 400.182,119.156 399.39,119.156 C398.51,119.156 397.727,118.874 397.04,118.311 C396.372,117.73 396.037,116.877 396.037,115.75 L396.037,112.107 C396.037,110.981 396.372,110.136 397.04,109.573 C397.727,108.992 398.51,108.702 399.39,108.702 C400.182,108.702 400.895,108.939 401.528,109.414 C402.18,109.872 402.567,110.558 402.69,111.474 L404.696,111.474 C404.556,109.731 403.931,108.517 402.822,107.83 C401.731,107.144 400.587,106.801 399.39,106.801 Z M416.33,115.75 C416.33,116.877 415.986,117.73 415.3,118.311 C414.631,118.874 413.857,119.156 412.977,119.156 C412.097,119.156 411.314,118.874 410.627,118.311 C409.958,117.73 409.624,116.877 409.624,115.75 L409.624,112.107 C409.624,110.981 409.958,110.136 410.627,109.573 C411.314,108.992 412.097,108.702 412.977,108.702 C413.857,108.702 414.631,108.992 415.3,109.573 C415.986,110.136 416.33,110.981 416.33,112.107 L416.33,115.75 Z M418.31,112.134 C418.31,110.145 417.738,108.763 416.594,107.989 C415.45,107.197 414.244,106.801 412.977,106.801 C411.71,106.801 410.504,107.197 409.36,107.989 C408.216,108.763 407.644,110.145 407.644,112.134 L407.644,115.724 C407.644,117.713 408.216,119.103 409.36,119.895 C410.504,120.67 411.71,121.057 412.977,121.057 C414.244,121.057 415.45,120.67 416.594,119.895 C417.738,119.103 418.31,117.713 418.31,115.724 L418.31,112.134 Z M440.469,120.793 L440.469,112.134 C440.469,110.215 439.914,108.851 438.806,108.042 C437.697,107.214 436.535,106.801 435.321,106.801 C434.564,106.801 433.798,106.968 433.024,107.302 C432.25,107.637 431.634,108.182 431.176,108.939 C430.718,108.182 430.102,107.637 429.328,107.302 C428.571,106.968 427.814,106.801 427.058,106.801 C426.565,106.801 425.993,106.942 425.342,107.223 C424.708,107.505 424.224,107.918 423.89,108.464 L423.89,107.17 L421.91,107.17 L421.91,120.793 L423.89,120.793 L423.89,112.107 C423.89,111.016 424.215,110.18 424.866,109.599 C425.518,109.001 426.248,108.702 427.058,108.702 C427.832,108.702 428.545,108.992 429.196,109.573 C429.865,110.154 430.199,110.946 430.199,111.949 L430.199,120.793 L432.179,120.793 L432.179,112.107 C432.179,111.016 432.505,110.18 433.156,109.599 C433.807,109.001 434.538,108.702 435.347,108.702 C436.122,108.702 436.834,108.992 437.486,109.573 C438.154,110.154 438.489,110.946 438.489,111.949 L438.489,120.793 L440.469,120.793 Z M449.569,121.057 C450.836,121.057 452.042,120.67 453.186,119.895 C454.33,119.103 454.902,117.713 454.902,115.724 L454.902,112.134 C454.902,110.145 454.33,108.763 453.186,107.989 C452.042,107.197 450.836,106.801 449.569,106.801 C448.953,106.801 448.319,106.942 447.668,107.223 C447.035,107.505 446.551,107.918 446.216,108.464 L446.216,107.17 L444.236,107.17 L444.236,125.65 L446.216,125.65 L446.216,119.394 C446.551,119.939 447.035,120.353 447.668,120.634 C448.319,120.916 448.953,121.057 449.569,121.057 Z M452.922,115.75 C452.922,116.877 452.579,117.73 451.892,118.311 C451.223,118.874 450.449,119.156 449.569,119.156 C448.689,119.156 447.906,118.874 447.219,118.311 C446.551,117.73 446.216,116.877 446.216,115.75 L446.216,112.107 C446.216,110.981 446.551,110.136 447.219,109.573 C447.906,108.992 448.689,108.702 449.569,108.702 C450.449,108.702 451.223,108.992 451.892,109.573 C452.579,110.136 452.922,110.981 452.922,112.107 L452.922,115.75 Z M463.298,108.702 C464.178,108.702 464.952,108.992 465.621,109.573 C466.308,110.136 466.651,110.981 466.651,112.107 L466.651,112.345 C465.507,112.415 464.442,112.503 463.456,112.609 C462.488,112.714 461.617,112.882 460.843,113.11 C459.664,113.445 458.872,114.008 458.467,114.8 C458.08,115.592 457.886,116.331 457.886,117.018 C457.886,118.408 458.344,119.429 459.259,120.08 C460.192,120.731 461.239,121.057 462.4,121.057 C463.316,121.057 464.143,120.925 464.882,120.661 C465.621,120.379 466.211,119.957 466.651,119.394 L466.651,120.793 L468.631,120.793 L468.631,112.134 C468.631,110.145 468.059,108.763 466.915,107.989 C465.771,107.197 464.565,106.801 463.298,106.801 C462.119,106.801 460.984,107.135 459.892,107.804 C458.801,108.473 458.168,109.652 457.992,111.342 L460.024,111.342 C460.183,110.462 460.57,109.802 461.186,109.362 C461.82,108.922 462.524,108.702 463.298,108.702 Z M466.651,115.882 C466.651,116.938 466.272,117.748 465.516,118.311 C464.776,118.874 463.879,119.156 462.823,119.156 C461.82,119.156 461.072,118.945 460.579,118.522 C460.104,118.1 459.866,117.581 459.866,116.965 C459.866,116.578 459.936,116.226 460.077,115.909 C460.236,115.592 460.561,115.293 461.054,115.011 C461.512,114.765 462.189,114.58 463.087,114.457 C463.984,114.334 465.172,114.219 466.651,114.114 L466.651,115.882 Z M475.029,117.704 C475.029,118.144 475.117,118.452 475.293,118.628 C475.486,118.804 475.821,118.892 476.296,118.892 L478.382,118.892 L478.382,120.793 L476.296,120.793 C475.029,120.793 474.166,120.546 473.709,120.054 C473.269,119.543 473.049,118.707 473.049,117.546 L473.049,109.071 L471.122,109.071 L471.122,107.17 L473.049,107.17 L473.049,104.082 L475.029,104.082 L475.029,107.17 L478.382,107.17 L478.382,109.071 L475.029,109.071 L475.029,117.704 Z M483.393,107.17 L481.413,107.17 L481.413,120.793 L483.393,120.793 L483.393,107.17 Z M482.786,102.313 L480.753,105.718 L482.522,105.718 L485.637,102.313 L482.786,102.313 Z M492.649,120.793 L490.431,120.793 L485.521,107.17 L487.633,107.17 L491.54,118.232 L495.447,107.17 L497.559,107.17 L492.649,120.793 Z M504.603,119.156 C503.723,119.156 502.94,118.874 502.254,118.311 C501.585,117.73 501.251,116.877 501.251,115.75 L501.251,114.43 L509.936,114.43 L509.936,112.134 C509.936,110.145 509.364,108.763 508.22,107.989 C507.076,107.197 505.871,106.801 504.603,106.801 C503.336,106.801 502.131,107.197 500.987,107.989 C499.843,108.763 499.271,110.145 499.271,112.134 L499.271,115.724 C499.271,117.713 499.843,119.103 500.987,119.895 C502.131,120.67 503.336,121.057 504.603,121.057 C505.783,121.057 506.918,120.722 508.009,120.054 C509.1,119.385 509.734,118.206 509.91,116.516 L507.877,116.516 C507.719,117.396 507.323,118.056 506.689,118.496 C506.073,118.936 505.378,119.156 504.603,119.156 Z M507.956,112.609 L501.251,112.609 L501.251,112.107 C501.251,110.981 501.585,110.136 502.254,109.573 C502.94,108.992 503.723,108.702 504.603,108.702 C505.483,108.702 506.258,108.992 506.927,109.573 C507.613,110.136 507.956,110.981 507.956,112.107 L507.956,112.609 Z M515.335,117.704 C515.335,118.144 515.423,118.452 515.599,118.628 C515.792,118.804 516.127,118.892 516.602,118.892 L517.024,118.892 L517.024,120.793 L516.602,120.793 C515.335,120.793 514.472,120.546 514.015,120.054 C513.575,119.543 513.355,118.707 513.355,117.546 L513.355,102.313 L515.335,102.313 L515.335,117.704 Z M522.83,105.56 C522.83,104.398 522.601,103.571 522.143,103.078 C521.703,102.568 520.85,102.313 519.582,102.313 L519.16,102.313 L519.16,104.002 L519.741,104.002 C520.286,104.002 520.647,104.117 520.823,104.346 C521.017,104.557 521.114,104.891 521.114,105.349 L521.114,120.766 C521.114,121.224 521.017,121.558 520.823,121.77 C520.647,121.998 520.286,122.113 519.741,122.113 L519.16,122.113 L519.16,123.802 L519.582,123.802 C520.85,123.802 521.703,123.547 522.143,123.037 C522.601,122.544 522.83,121.717 522.83,120.555 L522.83,105.56 Z" id="Shape" fill="#282828" fill-rule="nonzero" opacity="0.4"></path>
                <path d="M367.034,25.66 C367.034,24.498 367.254,23.671 367.694,23.178 C368.152,22.668 369.014,22.413 370.282,22.413 L370.704,22.413 L370.704,24.102 L370.123,24.102 C369.578,24.102 369.208,24.217 369.014,24.446 C368.838,24.657 368.75,24.991 368.75,25.449 L368.75,40.866 C368.75,41.324 368.838,41.658 369.014,41.87 C369.208,42.098 369.578,42.213 370.123,42.213 L370.704,42.213 L370.704,43.902 L370.282,43.902 C369.014,43.902 368.152,43.647 367.694,43.137 C367.254,42.644 367.034,41.817 367.034,40.655 L367.034,25.66 Z M379.269,22.149 C377.509,22.149 376.074,22.712 374.965,23.838 C373.857,24.947 373.302,26.47 373.302,28.406 L373.302,34.9 C373.302,36.836 373.857,38.367 374.965,39.494 C376.074,40.602 377.509,41.157 379.269,41.157 C380.958,41.157 382.34,40.646 383.413,39.626 C384.505,38.605 385.103,37.206 385.209,35.428 L383.176,35.428 C383.07,36.642 382.648,37.566 381.909,38.2 C381.169,38.834 380.289,39.15 379.269,39.15 C378.177,39.15 377.245,38.79 376.47,38.068 C375.713,37.346 375.335,36.29 375.335,34.9 L375.335,28.406 C375.335,27.015 375.713,25.959 376.47,25.238 C377.245,24.516 378.177,24.155 379.269,24.155 C380.289,24.155 381.169,24.472 381.909,25.106 C382.648,25.739 383.07,26.663 383.176,27.878 L385.209,27.878 C385.103,26.1 384.505,24.701 383.413,23.68 C382.34,22.659 380.958,22.149 379.269,22.149 Z M396.787,35.85 C396.787,36.977 396.444,37.83 395.758,38.411 C395.089,38.974 394.315,39.256 393.435,39.256 C392.555,39.256 391.771,38.974 391.085,38.411 C390.416,37.83 390.082,36.977 390.082,35.85 L390.082,32.207 C390.082,31.081 390.416,30.236 391.085,29.673 C391.771,29.092 392.555,28.802 393.435,28.802 C394.315,28.802 395.089,29.092 395.758,29.673 C396.444,30.236 396.787,31.081 396.787,32.207 L396.787,35.85 Z M398.767,32.234 C398.767,30.245 398.195,28.863 397.051,28.089 C395.907,27.297 394.702,26.901 393.435,26.901 C392.167,26.901 390.962,27.297 389.818,28.089 C388.674,28.863 388.102,30.245 388.102,32.234 L388.102,35.824 C388.102,37.813 388.674,39.203 389.818,39.995 C390.962,40.77 392.167,41.157 393.435,41.157 C394.702,41.157 395.907,40.77 397.051,39.995 C398.195,39.203 398.767,37.813 398.767,35.824 L398.767,32.234 Z M420.927,40.893 L420.927,32.234 C420.927,30.315 420.372,28.951 419.264,28.142 C418.155,27.314 416.993,26.901 415.779,26.901 C415.022,26.901 414.256,27.068 413.482,27.402 C412.708,27.737 412.092,28.282 411.634,29.039 C411.176,28.282 410.56,27.737 409.786,27.402 C409.029,27.068 408.272,26.901 407.516,26.901 C407.023,26.901 406.451,27.042 405.8,27.323 C405.166,27.605 404.682,28.018 404.348,28.564 L404.348,27.27 L402.368,27.27 L402.368,40.893 L404.348,40.893 L404.348,32.207 C404.348,31.116 404.673,30.28 405.324,29.699 C405.976,29.101 406.706,28.802 407.516,28.802 C408.29,28.802 409.003,29.092 409.654,29.673 C410.323,30.254 410.657,31.046 410.657,32.049 L410.657,40.893 L412.637,40.893 L412.637,32.207 C412.637,31.116 412.963,30.28 413.614,29.699 C414.265,29.101 414.996,28.802 415.805,28.802 C416.58,28.802 417.292,29.092 417.944,29.673 C418.612,30.254 418.947,31.046 418.947,32.049 L418.947,40.893 L420.927,40.893 Z M430.027,41.157 C431.294,41.157 432.5,40.77 433.644,39.995 C434.788,39.203 435.36,37.813 435.36,35.824 L435.36,32.234 C435.36,30.245 434.788,28.863 433.644,28.089 C432.5,27.297 431.294,26.901 430.027,26.901 C429.411,26.901 428.777,27.042 428.126,27.323 C427.492,27.605 427.008,28.018 426.674,28.564 L426.674,27.27 L424.694,27.27 L424.694,45.75 L426.674,45.75 L426.674,39.494 C427.008,40.039 427.492,40.453 428.126,40.734 C428.777,41.016 429.411,41.157 430.027,41.157 Z M433.38,35.85 C433.38,36.977 433.036,37.83 432.35,38.411 C431.681,38.974 430.907,39.256 430.027,39.256 C429.147,39.256 428.364,38.974 427.677,38.411 C427.008,37.83 426.674,36.977 426.674,35.85 L426.674,32.207 C426.674,31.081 427.008,30.236 427.677,29.673 C428.364,29.092 429.147,28.802 430.027,28.802 C430.907,28.802 431.681,29.092 432.35,29.673 C433.036,30.236 433.38,31.081 433.38,32.207 L433.38,35.85 Z M443.756,28.802 C444.636,28.802 445.41,29.092 446.079,29.673 C446.765,30.236 447.109,31.081 447.109,32.207 L447.109,32.445 C445.965,32.515 444.9,32.603 443.914,32.709 C442.946,32.814 442.075,32.982 441.301,33.21 C440.121,33.545 439.329,34.108 438.925,34.9 C438.537,35.692 438.344,36.431 438.344,37.118 C438.344,38.508 438.801,39.529 439.717,40.18 C440.649,40.831 441.697,41.157 442.858,41.157 C443.773,41.157 444.601,41.025 445.34,40.761 C446.079,40.479 446.669,40.057 447.109,39.494 L447.109,40.893 L449.089,40.893 L449.089,32.234 C449.089,30.245 448.517,28.863 447.373,28.089 C446.229,27.297 445.023,26.901 443.756,26.901 C442.577,26.901 441.441,27.235 440.35,27.904 C439.259,28.573 438.625,29.752 438.449,31.442 L440.482,31.442 C440.641,30.562 441.028,29.902 441.644,29.462 C442.277,29.022 442.981,28.802 443.756,28.802 Z M447.109,35.982 C447.109,37.038 446.73,37.848 445.973,38.411 C445.234,38.974 444.337,39.256 443.281,39.256 C442.277,39.256 441.529,39.045 441.037,38.622 C440.561,38.2 440.324,37.681 440.324,37.065 C440.324,36.678 440.394,36.326 440.535,36.009 C440.693,35.692 441.019,35.393 441.512,35.111 C441.969,34.865 442.647,34.68 443.545,34.557 C444.442,34.434 445.63,34.319 447.109,34.214 L447.109,35.982 Z M455.487,37.804 C455.487,38.244 455.575,38.552 455.751,38.728 C455.944,38.904 456.279,38.992 456.754,38.992 L458.839,38.992 L458.839,40.893 L456.754,40.893 C455.487,40.893 454.624,40.646 454.167,40.154 C453.727,39.643 453.507,38.807 453.507,37.646 L453.507,29.171 L451.579,29.171 L451.579,27.27 L453.507,27.27 L453.507,24.182 L455.487,24.182 L455.487,27.27 L458.839,27.27 L458.839,29.171 L455.487,29.171 L455.487,37.804 Z M463.851,27.27 L461.871,27.27 L461.871,40.893 L463.851,40.893 L463.851,27.27 Z M463.243,22.413 L461.211,25.818 L462.979,25.818 L466.095,22.413 L463.243,22.413 Z M473.107,40.893 L470.889,40.893 L465.979,27.27 L468.091,27.27 L471.998,38.332 L475.905,27.27 L478.017,27.27 L473.107,40.893 Z M485.061,39.256 C484.181,39.256 483.398,38.974 482.712,38.411 C482.043,37.83 481.708,36.977 481.708,35.85 L481.708,34.53 L490.394,34.53 L490.394,32.234 C490.394,30.245 489.822,28.863 488.678,28.089 C487.534,27.297 486.328,26.901 485.061,26.901 C483.794,26.901 482.588,27.297 481.444,28.089 C480.3,28.863 479.728,30.245 479.728,32.234 L479.728,35.824 C479.728,37.813 480.3,39.203 481.444,39.995 C482.588,40.77 483.794,41.157 485.061,41.157 C486.24,41.157 487.376,40.822 488.467,40.154 C489.558,39.485 490.192,38.306 490.368,36.616 L488.335,36.616 C488.176,37.496 487.78,38.156 487.147,38.596 C486.531,39.036 485.836,39.256 485.061,39.256 Z M488.414,32.709 L481.708,32.709 L481.708,32.207 C481.708,31.081 482.043,30.236 482.712,29.673 C483.398,29.092 484.181,28.802 485.061,28.802 C485.941,28.802 486.716,29.092 487.384,29.673 C488.071,30.236 488.414,31.081 488.414,32.207 L488.414,32.709 Z M495.792,37.804 C495.792,38.244 495.88,38.552 496.056,38.728 C496.25,38.904 496.584,38.992 497.06,38.992 L497.482,38.992 L497.482,40.893 L497.06,40.893 C495.792,40.893 494.93,40.646 494.472,40.154 C494.032,39.643 493.812,38.807 493.812,37.646 L493.812,22.413 L495.792,22.413 L495.792,37.804 Z M503.287,25.66 C503.287,24.498 503.059,23.671 502.601,23.178 C502.161,22.668 501.307,22.413 500.04,22.413 L499.618,22.413 L499.618,24.102 L500.199,24.102 C500.744,24.102 501.105,24.217 501.281,24.446 C501.475,24.657 501.571,24.991 501.571,25.449 L501.571,40.866 C501.571,41.324 501.475,41.658 501.281,41.87 C501.105,42.098 500.744,42.213 500.199,42.213 L499.618,42.213 L499.618,43.902 L500.04,43.902 C501.307,43.902 502.161,43.647 502.601,43.137 C503.059,42.644 503.287,41.817 503.287,40.655 L503.287,25.66 Z" id="Shape" fill="#282828" fill-rule="nonzero"></path>
            </g>
        </g>
    </g>
</svg>