<?xml version="1.0" encoding="UTF-8"?>
<svg width="604px" height="415px" viewBox="0 0 604 415" version="1.1" xmlns="http://www.w3.org/2000/svg" xmlns:xlink="http://www.w3.org/1999/xlink">
    <!-- Generator: Sketch 53 (72520) - https://sketchapp.com -->
    <title>69_ts_tv_cabo_coaxial copy 37</title>
    <desc>Created with Sketch.</desc>
    <defs>
        <path d="M204.420362,10.4864335 C198.638282,19.7383304 22.8664969,78.7152529 2.62921984,97.7963993 L2.62921984,97.7963993 C-17.6080573,116.87612 100.924566,148.097352 125.786366,150.989817 L125.786366,150.989817 C150.648166,153.880857 190.811947,102.26411 232.753405,69.463356 L232.753405,69.463356 C277.852482,34.1935284 298.089759,33.6147502 309.653917,27.2553185 L309.653917,27.2553185 C321.218076,20.8944612 317.748258,14.5336038 317.748258,14.5336038 L317.748258,14.5336038 C317.748258,14.5336038 316.592127,20.8944612 308.497787,22.0505919 L308.497787,22.0505919 C300.402021,23.2067226 288.837862,22.6279445 282.47843,23.7855007 L282.47843,23.7855007 C276.118999,24.9416315 249.520864,40.5529601 220.03169,58.4765502 L220.03169,58.4765502 C190.543942,76.4015659 167.994403,72.3543956 167.994403,72.3543956 L167.994403,72.3543956 C167.994403,72.3543956 173.077957,52.3067182 189.387811,37.084568 L189.387811,37.084568 C206.734049,20.8944612 229.283587,12.8001205 234.486888,9.33030281 L234.486888,9.33030281 C239.691615,5.86048508 242.003876,4.12700178 237.577506,1.18179084 L237.577506,1.18179084 C237.102794,0.865316089 236.348672,0.724185459 235.37929,0.724185459 L235.37929,0.724185459 C227.314886,0.72561102 204.420362,10.4864335 204.420362,10.4864335" id="path-1"></path>
        <linearGradient x1="42.9734638%" y1="56.1760976%" x2="50%" y2="37.5360305%" id="linearGradient-3">
            <stop stop-color="#FFFFFF" offset="0%"></stop>
            <stop stop-color="#000000" offset="100%"></stop>
        </linearGradient>
        <linearGradient x1="49.281254%" y1="3.45065584%" x2="48.2279091%" y2="9.73998301%" id="linearGradient-4">
            <stop stop-color="#7F7F7F" offset="0%"></stop>
            <stop stop-color="#454545" offset="100%"></stop>
        </linearGradient>
    </defs>
    <g id="Page-1" stroke="none" stroke-width="1" fill="none" fill-rule="evenodd">
        <g id="Group-4-Copy" transform="translate(-22.500000, 6.073278)">
            <path d="M428.4,311.4 L432.39,311.4 L432.39,338 L428.4,338 L428.4,316.378 L423.308,320.748 L423.308,315.77 L428.4,311.4 Z M448.626,326.106 L455.732,311.4 L459.798,311.4 L459.798,338 L455.77,338 L455.77,319.532 L450.298,330.856 L446.954,330.856 L441.482,319.532 L441.482,338 L437.454,338 L437.454,311.4 L441.52,311.4 L448.626,326.106 Z" id="1M" fill="#00C0D2" fill-rule="nonzero" opacity="0.900000036"></path>
            <g id="Group-14">
                <g id="Group-97" opacity="0.15" style="mix-blend-mode: multiply;" transform="translate(0.000000, 287.756073)">
                    <mask id="mask-2" fill="white">
                        <use xlink:href="#path-1"></use>
                    </mask>
                    <g id="Clip-96"></g>
                    <path d="M40.8842953,78.0710061 L146.043059,139.050929 C170.904858,141.941968 190.811947,102.26411 232.753405,69.463356 C277.852482,34.1935284 298.089759,33.6147502 309.653917,27.2553185 C321.218076,20.8944612 317.748258,14.5336038 317.748258,14.5336038 C317.748258,14.5336038 316.592127,20.8944612 308.497787,22.0505919 C300.402021,23.2067226 288.837862,22.6279445 282.47843,23.7855007 C276.118999,24.9416315 249.520864,40.5529601 220.03169,58.4765502 C190.543942,76.4015659 167.994403,72.3543956 167.994403,72.3543956 C167.994403,72.3543956 173.077957,52.3067182 189.387811,37.084568 C206.734049,20.8944612 229.283587,12.8001205 234.486888,9.33030281 C239.691615,5.86048508 242.003876,4.12700178 237.577506,1.18179084 C237.102794,0.865316089 236.348672,0.724185459 235.37929,0.724185459 C227.314886,0.72561102 204.420362,10.4864335 204.420362,10.4864335 C198.638282,19.7383304 61.1215724,58.9898597 40.8842953,78.0710061 Z" id="Fill-95" fill="url(#linearGradient-3)" style="mix-blend-mode: screen;" mask="url(#mask-2)"></path>
                </g>
                <path d="M250.453609,60.8693392 C250.453609,60.8693392 263.326434,76.1955554 268.579629,86.1474032 C273.831399,96.0978255 272.953253,96.1234856 275.986849,90.297214 C279.02187,84.4709424 278.340452,79.4743479 281.510902,75.897613 C284.679926,72.3194526 289.890355,61.1316426 290.261001,58.1636226 C290.633072,55.1956027 293.60822,49.7585095 298.274084,46.8061708 C302.941374,43.853832 307.421915,40.5550817 306.029141,47.1098155 C304.466725,56.34318 298.209934,60.3276256 297.281893,65.9172539 C297.281893,65.9172539 296.207019,67.7433988 295.786479,72.6131183 C295.364512,77.4842634 293.773585,109.952862 281.335557,113.235931 C268.89753,116.520426 247.491292,89.7882884 246.308075,86.5836252 C245.123433,83.3803875 250.453609,60.8693392 250.453609,60.8693392" id="Fill-44" fill="#FF944D"></path>
                <polygon id="Fill-46" fill="#EA298C" points="298.052695 30.8739481 309.055181 37.122186 291.781648 65.182947 281.422089 58.0708185"></polygon>
                <polygon id="Fill-48" fill="#9D2EFF" points="296.796204 28.4245476 308.360363 35.1474977 289.835185 65.9866788 278.958148 58.312879"></polygon>
                <polygon id="Fill-50" fill="#00CEFF" points="296.292268 31.8923696 304.949706 36.9246032 291.081839 60.0087274 282.93903 54.2651384"></polygon>
                <path d="M240.174738,41.6597497 C240.174738,41.6597497 238.642259,46.4425099 246.076564,52.2887394 C253.509444,58.1349688 265.948897,62.9106013 265.948897,62.9106013 C265.948897,62.9106013 260.584508,55.9695403 262.233883,51.3207828 C263.881833,46.6734509 270.469354,48.8317517 272.790169,41.5214701 C275.110984,34.2111886 274.272753,9.77135492 257.623616,6.04493605 C250.130862,6.5709684 239.43202,14.9703793 241.414977,27.5024942 C243.399359,40.0346091 243.932519,41.5129168 240.174738,41.6597497" id="Fill-52" fill="#FF944D"></path>
                <path d="M242.90811,39.8485732 C242.90811,39.8485732 247.076453,34.4727792 249.877682,34.1862413 C252.678912,33.9011289 253.702465,32.3829054 251.269031,29.3293518 C248.835597,26.2757981 248.755765,20.8600884 251.813596,20.7845336 C254.871426,20.7089788 256.185794,24.3470128 255.942023,31.2110935 C256.174389,31.186859 259.584334,32.2546048 259.976363,29.149731 C260.366967,26.0434315 257.866531,24.6478064 259.495949,22.1245618 C261.125366,19.5998916 260.773252,18.456591 258.716166,16.7801301 C256.659081,15.1036693 249.973195,9.6523205 254.684677,7.28731327 C259.394734,4.92088047 264.515352,9.46842301 264.515352,9.46842301 C264.515352,9.46842301 266.744931,2.99209518 262.310008,3.44399831 C257.87651,3.89590144 254.165773,4.50889307 255.118048,2.29071871 C256.071749,0.0711187955 252.122942,-1.64953445 249.260414,2.65138588 C246.39646,6.95088065 231.550658,7.04924442 242.90811,39.8485732" id="Fill-54" fill="#7824CD"></path>
                <path d="M273.534027,35.2572659 C272.504772,35.3613319 267.606541,35.67353 265.071892,32.43893 C264.714076,31.9798991 264.793907,31.3170128 265.252938,30.9577712 C265.709118,30.5956784 266.374855,30.678361 266.734097,31.137392 C268.776927,33.7433192 273.686562,33.1317531 273.735032,33.1117952 C273.886141,33.6449554 273.853353,34.7996606 273.717925,35.2373081 C273.712223,35.2572659 273.633817,35.247287 273.534027,35.2572659" id="Fill-56" fill="#FFFFFF"></path>
                <g id="Group-62" transform="translate(209.557603, 41.133860)">
                    <path d="M104.963468,119.414048 C115.479838,129.46426 117.619607,132.966865 116.241088,135.129443 C111.652204,142.304296 102.234942,136.66905 91.0556857,124.139786 C82.2556919,114.283451 70.3807611,87.8335746 65.1746089,77.2844164 L65.2829516,77.2316706 C65.2829516,77.2316706 72.5832542,66.8108129 83.7525319,70.9078779 C90.3443303,90.7531255 98.3645417,113.110213 104.963468,119.414048" id="Fill-58" fill="#FF944D"></path>
                    <path d="M83.7526745,70.9074502 C72.5833968,66.8103852 65.2816686,77.2326685 65.2816686,77.2326685 L65.1747515,77.2854143 C63.7648707,74.4143326 62.8425321,72.7250417 62.6001866,72.8490656 C61.4711416,73.4321204 70.7358685,136.624429 70.7358685,136.624429 L0.170553184,108.211555 C0.170553184,108.211555 1.82277946,64.8331308 1.94252666,53.7850259 C2.15208426,32.7822221 11.7846062,2.33079375 30.6889829,0.404859587 C30.9755208,0.842507098 27.5826835,9.21055561 53.9284934,20.1945102 C53.9284934,20.1945102 67.672336,27.7642441 72.7986566,38.7881145 C74.9555318,43.4226163 78.9898721,56.5078492 83.7526745,70.9074502" id="Fill-60" fill="#58585B"></path>
                </g>
                <g id="Group-69" transform="translate(202.429794, 149.136799)">
                    <path d="M94.218865,146.981478 C100.581148,155.700215 118.145496,149.355039 117.853256,154.960348 C117.532505,161.118776 98.166246,165.453909 89.3477199,166.818172 C80.5306194,168.18386 83.6041309,165.988495 82.097312,155.771493 C81.9661603,154.907602 81.7451982,153.841282 81.4358512,152.612448 C82.9669048,152.640959 93.2010138,152.545446 93.9451571,147.079842 L94.218865,146.981478 Z" id="Fill-63" fill="#7A24CD"></path>
                    <path d="M94.218865,146.981478 L93.9451571,147.079842 C93.2010138,152.545446 82.9669048,152.640959 81.4358512,152.612448 C78.1670377,139.406042 65.6320717,107.050063 61.6618818,89.4572031 C56.9703575,68.6696591 48.1261713,39.9018194 39.0724275,38.9424162 C30.0058536,37.9844386 19.8815128,114.468687 18.2692023,126.419173 C18.0111756,128.34083 18.1551573,129.883288 18.608486,131.139208 L18.2250099,131.263232 C16.5385701,135.961884 3.6286813,133.539855 2.27154635,133.268998 C3.56167989,107.868335 7.29665214,0.198494198 7.29665214,0.198494198 L77.8534141,28.5115796 C78.0088004,34.6243892 88.4881061,130.587516 92.6678537,143.842391 C93.0470531,145.062672 93.5773622,146.099055 94.218865,146.981478" id="Fill-65" fill="#CB5205"></path>
                    <path d="M35.1471427,139.330202 C39.7759423,143.102239 19.246425,149.90502 7.66230878,152.031959 C-3.90755182,154.144642 1.12325622,147.971958 1.98714675,137.98162 C2.0598504,137.166199 2.14966081,135.545335 2.27083357,133.268713 C3.62939409,133.539569 16.5378573,135.961599 18.2242971,131.262947 L18.6077732,131.138923 C20.8829701,137.640911 31.2582098,136.159752 35.1471427,139.330202" id="Fill-67" fill="#7A24CD"></path>
                </g>
                <path d="M215.900412,151.373704 L217.184843,162.212251 C217.184843,162.212251 216.705854,168.963713 221.444422,170.675813 C226.18299,172.386487 230.801811,172.695834 232.012113,166.235187 C231.861003,164.481746 231.669978,158.140847 231.669978,158.140847" id="Stroke-70" stroke="#B41F73" stroke-width="0.812"></path>
            </g>
            <g id="Group-3" transform="translate(445.000000, 42.000000)">
                <path d="M10.9261019,-1.10134124e-13 L79.1264667,47.169324 L67.9923837,51.5196587 C65.8186364,52.3689903 63.3645804,52.0791424 61.4485142,50.7467641 L0.448653614,8.32918389 L10.9261019,-1.10134124e-13 Z" id="Rectangle-Copy-2" fill="#7F7F7F" transform="translate(39.787560, 26.030203) scale(-1, -1) translate(-39.787560, -26.030203) "></path>
                <path d="M69.2654005,44.0206854 L80.0633209,52.7581592 L76.6062764,118.086812 L66.0073259,110.507944 L66.0073259,45.5754356 C66.0073259,44.4708661 66.9027564,43.5754356 68.0073259,43.5754356 C68.465293,43.5754356 68.9093882,43.7326069 69.2654005,44.0206854 Z" id="Rectangle-Copy" fill="url(#linearGradient-4)" transform="translate(73.035323, 80.755470) scale(-1, 1) translate(-73.035323, -80.755470) "></path>
                <path d="M3.1394631,5.07925565 L66.4524912,48.9708048 C68.3389582,50.2785919 69.4643704,52.4281765 69.4643704,54.7236208 L69.4643704,118.086812 L4.19220214e-13,69.9308649 L4.16555679e-13,6.72291737 C4.15929881e-13,5.61834787 0.8954305,4.72291737 2,4.72291737 C2.40724178,4.72291737 2.80477924,4.84723716 3.1394631,5.07925565 Z" id="Rectangle" fill="#5E5E5E"></path>
                <polygon id="Rectangle" fill="#D8D8D8" points="0.448653614 48.083859 69.3385752 98.4337791 69.3385752 102.157559 0.448653614 51.8076385"></polygon>
            </g>
            <g id="Group-2" transform="translate(318.000000, 44.000000)" stroke="#00C0D2" stroke-linecap="round" stroke-width="5">
                <path d="M99.4240563,95.467561 C118.682683,95.467561 136.014736,91.1557708 148.079976,84.2782242 C158.85061,78.1386415 165.424056,69.9543756 165.424056,60.967561 C165.424056,41.9137372 135.87485,26.467561 99.4240563,26.467561 C77.2380938,26.467561 57.6089005,32.189768 45.6431305,40.9647946" id="Oval" opacity="0.699999988" transform="translate(105.533593, 60.967561) scale(-1, -1) translate(-105.533593, -60.967561) "></path>
                <path d="M97.6110446,108.4417 C123.970718,108.4417 147.69345,102.540065 164.207389,93.1266279 C178.949375,84.7232564 187.946584,73.5212857 187.946584,61.2208502 C187.946584,35.1414947 147.501985,14 97.6110446,14 C67.2446674,14 40.3777923,21.8321008 24,33.8426578" id="Oval-Copy-2" opacity="0.5" transform="translate(105.973292, 61.220850) scale(-1, -1) translate(-105.973292, -61.220850) "></path>
                <path d="M95.233814,121.865705 C129.087049,121.865705 159.553711,114.286346 180.762255,102.196844 C199.695112,91.4045513 211.250059,77.0180696 211.250059,61.2208502 C211.250059,27.7276214 159.307817,0.575994874 95.233814,0.575994874 C56.2348433,0.575994874 21.7302177,10.6346155 0.696525188,26.0595494" id="Oval-Copy-3" opacity="0.300000012" transform="translate(105.973292, 61.220850) scale(-1, -1) translate(-105.973292, -61.220850) "></path>
                <path d="M102.415383,81.0587504 C113.630708,81.0587504 123.724086,78.547765 130.750319,74.542603 C137.022634,70.9671966 140.850702,66.2010623 140.850702,60.967561 C140.850702,49.8715036 123.642623,40.8763717 102.415383,40.8763717 C89.4953141,40.8763717 78.0641883,44.2087179 71.0958825,49.3188837" id="Oval-Copy" opacity="0.900000036" transform="translate(105.973292, 60.967561) scale(-1, -1) translate(-105.973292, -60.967561) "></path>
            </g>
            <path d="M524.126467,247.708146 L327.173134,338" id="Line-3" stroke="#5F5F5F" stroke-width="3" stroke-linecap="square" stroke-dasharray="9"></path>
            <path d="M326,325.611328 L326,350.388672" id="Line-4" stroke="#5F5F5F" stroke-width="2" stroke-linecap="square"></path>
            <path d="M526,188.62207 L526,259.388672" id="Line-4-Copy" stroke="#5F5F5F" stroke-width="2" stroke-linecap="square"></path>
        </g>
    </g>
</svg>