<?xml version="1.0" encoding="UTF-8"?>
<svg width="91px" height="84px" viewBox="0 0 91 84" version="1.1" xmlns="http://www.w3.org/2000/svg" xmlns:xlink="http://www.w3.org/1999/xlink">
    <title>Slice</title>
    <g id="Page-1" stroke="none" stroke-width="1" fill="none" fill-rule="evenodd">
        <g id="Group-41" transform="translate(2.543108, -3.731645)">
            <g id="Group-39" transform="translate(0.000000, 27.882067)">
                <circle id="Oval" fill="#545454" cx="6.90306521" cy="35.3112887" r="1.45976624"></circle>
                <circle id="Oval-Copy" fill="#545454" cx="6.90306521" cy="35.3112887" r="1.45976624"></circle>
                <circle id="Oval-Copy-13" fill="#545454" cx="12.7710513" cy="35.3112887" r="1.45976624"></circle>
                <circle id="Oval-Copy-14" fill="#545454" cx="19.1215668" cy="35.3112887" r="1.45976624"></circle>
                <circle id="Oval-Copy-15" fill="#545454" cx="25.4720822" cy="35.3112887" r="1.45976624"></circle>
                <circle id="Oval-Copy-16" fill="#545454" cx="52.6885771" cy="35.3112887" r="1.45976624"></circle>
                <circle id="Oval-Copy-17" fill="#545454" cx="59.0390925" cy="35.3112887" r="1.45976624"></circle>
                <path d="M9.56658855,0 L62.0412371,0 C65.3549456,2.79460044e-16 68.0412371,2.6862915 68.0412371,6 L68.0412371,38.7319588 C68.0412371,40.388813 66.6980914,41.7319588 65.0412371,41.7319588 L3.197883,41.7319588 C1.54102875,41.7319588 0.197882995,40.388813 0.197882995,38.7319588 L0.197882995,5.21109416 C0.197882995,3.55962009 0.891910233,1.98416659 2.11046649,0.869497465 L2.11046649,0.869497465 L2.11046649,0.869497465" id="Rectangle" stroke="#545454" stroke-width="2.85" transform="translate(34.119560, 20.865979) scale(-1, 1) translate(-34.119560, -20.865979) "></path>
                <path d="M8.54839846,41.7319588 L19.5174706,41.7319588 C20.6220401,41.7319588 21.5174706,42.6273893 21.5174706,43.7319588 L21.5174706,44 L21.5174706,44 L6.54839846,44 L6.54839846,43.7319588 C6.54839846,42.6273893 7.44382896,41.7319588 8.54839846,41.7319588 Z" id="Rectangle-Copy-5" stroke="#545454" stroke-width="2.85" transform="translate(14.032935, 42.865979) scale(1, -1) translate(-14.032935, -42.865979) "></path>
                <path d="M49.3731407,41.7319588 L60.3422129,41.7319588 C61.4467824,41.7319588 62.3422129,42.6273893 62.3422129,43.7319588 L62.3422129,44 L62.3422129,44 L47.3731407,44 L47.3731407,43.7319588 C47.3731407,42.6273893 48.2685712,41.7319588 49.3731407,41.7319588 Z" id="Rectangle-Copy-6" stroke="#545454" stroke-width="2.85" transform="translate(54.857677, 42.865979) scale(1, -1) translate(-54.857677, -42.865979) "></path>
                <line x1="0.197882995" y1="28.8944632" x2="68.0412371" y2="28.8944632" id="Line" stroke="#545454" stroke-width="2.85" stroke-linecap="square"></line>
            </g>
            <path d="M87.0760743,29.9858666 C80.0488858,30.5380029 73.3517241,31.0637871 65.9687842,31.6441576 C67.7055036,29.7154453 69.048826,28.2234226 70.7052347,26.3838051 C61.2166479,24.2643548 53.1667525,26.4597238 45.8063999,32.5156545 C49.3532479,22.9078565 60.0922978,17.6958158 75.0947178,18.1739156 C75.6562655,16.1711669 76.2353811,14.1056754 76.9619422,11.5156545 C78.8398329,14.9200764 80.4987513,17.9116509 82.1413566,20.9120094 C83.753218,23.8552721 85.3493937,26.8085735 87.0760743,29.9858666" id="Fill-77" stroke="#545454" stroke-width="2.85" stroke-linecap="round" fill-rule="nonzero" transform="translate(66.441237, 22.015654) rotate(-45.000000) translate(-66.441237, -22.015654) "></path>
            <g id="Group-19" transform="translate(28.663476, 36.481309)" fill="#545454" fill-rule="nonzero">
                <path d="M0.160303165,9.00336442 C1.87332347,2.28571243 0.567313212,-1.49897469 5.09362274,0.562148477 C7.58040941,1.69330718 10.5457683,4.51002648 10.7112559,7.41616544 C10.9371241,11.4333437 -1.54600819,15.691955 0.160303165,9.00336442 Z M7.02463466,5.56483033 L7.01791263,5.56483033 C6.7042176,5.56483033 6.44653954,6.31807449 6.44653954,7.24670088 C6.44653954,8.17532727 6.7042176,8.92857143 7.01791263,8.92857143 C7.33160766,8.92857143 7.58928571,8.17532727 7.58928571,7.24670088 C7.58928571,6.31807449 7.34057037,5.56483033 7.02463466,5.56483033 Z M4.47698289,5.56258184 L4.47026086,5.56483033 C3.53141645,5.56483033 2.90178571,6.31132902 2.90178571,7.24670088 C2.90178571,8.18207274 3.52693509,8.92857143 4.47026086,8.92857143 C5.41358662,8.92857143 6.038736,8.18432123 6.038736,7.24670088 C6.038736,6.30908053 5.41358662,5.56258184 4.47698289,5.56258184 Z M4.47026086,6.35629882 C4.90271186,6.35629882 5.14246449,6.78800891 5.14246449,7.23770692 C5.14246449,7.68740493 4.90719322,8.13485444 4.47698289,8.13485444 L4.47026086,8.13710293 C4.04005053,8.13710293 3.79805722,7.68740493 3.79805722,7.23770692 C3.79805722,6.78800891 4.03780985,6.35629882 4.47026086,6.35629882 Z M6.80389115,4.06126423 C6.5935305,4.14919431 6.45683684,4.35581523 6.45773846,4.58448867 C6.45773846,4.89494036 6.70853945,5.14661567 7.01791263,5.14661567 C7.24579165,5.14752043 7.45169477,5.01035024 7.53931938,4.79925625 C7.62694398,4.58816227 7.57896913,4.3448719 7.41783305,4.18317408 C7.25669697,4.02147626 7.01425179,3.97333416 6.80389115,4.06126423 Z" id="Combined-Shape"></path>
            </g>
        </g>
        <g id="-Connections" transform="translate(-306.445379, -1499.500000)" fill="#F5A623" fill-rule="nonzero">
            <path id="Flow-arrow" d="M373.317694,607.767764 L393.933319,612.890848 L377.465477,626.309498 L375.811883,618.920075 C346.221182,634.395466 323.842998,689.778775 305.900186,783.862589 C298.145558,824.524276 291.217104,872.177459 284.330405,930.272051 C283.75636,935.114564 283.199162,939.868763 282.65094,944.606965 L282.352753,947.190287 L282.278451,947.835928 L282.278451,947.835928 L281.760585,952.357845 C277.68022,988.140409 273.866475,1025.25806 266.937985,1094.77816 C259.805651,1166.3436 255.833872,1204.92769 251.607432,1241.67721 L251.297676,1244.36338 C251.245958,1244.81068 251.19419,1245.25782 251.142365,1245.70486 L250.830688,1248.38629 C250.153706,1254.19532 249.465089,1260.00598 248.75123,1265.94238 C241.50068,1326.2373 234.137246,1375.36647 225.811878,1416.82091 C206.228329,1514.33313 181.361789,1568.24232 146.94001,1576.62428 C146.76716,1581.28086 143.185197,1585.21968 138.415161,1585.70917 C133.195865,1586.24477 128.530603,1582.44788 127.995007,1577.22858 C127.459412,1572.00929 131.256301,1567.34402 136.475597,1566.80843 C141.11997,1566.33183 145.325645,1569.28581 146.573212,1573.61992 C179.163253,1565.34953 203.594357,1512.2123 222.870608,1416.23021 C231.178098,1374.86479 238.530724,1325.80773 245.772688,1265.5842 C246.321483,1261.02047 246.855361,1256.531 247.380513,1252.0593 L247.694606,1249.37797 C247.746797,1248.93129 247.798913,1248.48467 247.850961,1248.03806 L248.16247,1245.35805 L248.426179,1243.07817 C252.726448,1205.81635 256.709086,1167.16341 263.952773,1094.48064 C270.632348,1027.45815 274.417841,990.542747 278.338292,955.904989 L278.632627,953.310993 C278.730854,952.447461 278.829213,951.584918 278.927751,950.722929 L279.223949,948.138188 L279.521506,945.554162 C280.118166,940.385083 280.724678,935.204636 281.351264,929.918895 C288.245566,871.760172 295.183481,824.041917 302.953298,783.300585 C321.212275,687.558945 344.016333,631.483143 375.136184,615.895859 L373.317694,607.767764 Z M136.781844,1569.79276 C133.210747,1570.15922 130.612875,1573.35124 130.979335,1576.92234 C131.345796,1580.49343 134.537817,1583.0913 138.108914,1582.72484 C141.680012,1582.35838 144.277883,1579.16636 143.911423,1575.59527 C143.544962,1572.02417 140.352941,1569.4263 136.781844,1569.79276 Z"></path>
        </g>
    </g>
</svg>