<?xml version="1.0" encoding="UTF-8"?>
<svg width="54px" height="66px" viewBox="0 0 54 66" version="1.1" xmlns="http://www.w3.org/2000/svg" xmlns:xlink="http://www.w3.org/1999/xlink">
    <title>Group 25</title>
    <g id="Page-1" stroke="none" stroke-width="1" fill="none" fill-rule="evenodd">
        <g id="iPhone-11-Copy-111" transform="translate(-372.000000, -2397.000000)" stroke="#5C5C5C" stroke-width="2.85">
            <g id="Group-39" transform="translate(283.970364, 2399.000000)">
                <g id="Group-25" transform="translate(89.500000, 0.000000)">
                    <rect id="Rectangle" fill="#F3F3F3" x="0.244455276" y="7" width="42" height="55" rx="4"></rect>
                    <path d="M4.24445528,0 L38.2444553,0 C40.4535943,-4.05812251e-16 42.2444553,1.790861 42.2444553,4 L42.2444553,51 C42.2444553,53.209139 40.4535943,55 38.2444553,55 L6.22097272,55 C4.39935459,55 2.71000971,55.9513706 1.76562537,57.5090711 C1.53084572,57.8963248 1.026588,58.0199295 0.639334234,57.7851499 C0.39418249,57.6365222 0.244455276,57.3706521 0.244455276,57.0839649 L0.244455276,53.5641031 L0.244455276,53.5641031 L0.244455276,4 C0.244455276,1.790861 2.03531628,4.05812251e-16 4.24445528,0 Z" id="Rectangle-Copy-11" fill="#F3F3F3"></path>
                    <path d="M42.5635557,6.5 L46.1444553,6.5 C48.3535943,6.5 50.1444553,8.290861 50.1444553,10.5 L50.1444553,22.5 C50.1444553,24.709139 48.3535943,26.5 46.1444553,26.5 L41.4919019,26.5 L41.4919019,26.5" id="Rectangle-Copy-5" transform="translate(43.944455, 16.500000) scale(-1, 1) rotate(-180.000000) translate(-43.944455, -16.500000) "></path>
                    <path d="M42.5635557,26.5 L46.1444553,26.5 C48.3535943,26.5 50.1444553,28.290861 50.1444553,30.5 L50.1444553,42.5 C50.1444553,44.709139 48.3535943,46.5 46.1444553,46.5 L41.4919019,46.5 L41.4919019,46.5" id="Rectangle-Copy-6" transform="translate(43.944455, 36.500000) scale(-1, 1) rotate(-180.000000) translate(-43.944455, -36.500000) "></path>
                    <line x1="10.2044553" y1="17.5090711" x2="32.2844553" y2="17.5090711" id="Line" stroke-linecap="round"></line>
                    <line x1="10.2044553" y1="25.5090711" x2="32.2844553" y2="25.5090711" id="Line-Copy" stroke-linecap="round"></line>
                    <line x1="10.2003376" y1="33.5090711" x2="24.6973965" y2="33.5090711" id="Line-Copy-2" stroke-linecap="round"></line>
                </g>
            </g>
        </g>
    </g>
</svg>