<?xml version="1.0" encoding="UTF-8"?>
<svg width="106px" height="70px" viewBox="0 0 106 70" version="1.1" xmlns="http://www.w3.org/2000/svg" xmlns:xlink="http://www.w3.org/1999/xlink">
    <!-- Generator: Sketch 53 (72520) - https://sketchapp.com -->
    <title>icon_blarga_sconexao copy</title>
    <desc>Created with Sketch.</desc>
    <g id="Page-1" stroke="none" stroke-width="1" fill="none" fill-rule="evenodd">
        <g id="selection_prelogin-copy-18" transform="translate(-197.000000, -223.000000)">
            <g id="Group-5" transform="translate(43.000000, -12.000000)">
                <g id="Group-13" transform="translate(125.000000, 236.500000)">
                    <g id="icon_blarga_sconexao-copy" transform="translate(31.742477, 0.600000)">
                        <g id="offline_icon-copy" transform="translate(0.935784, 0.935784)">
                            <g id="Group-9" transform="translate(0.117302, 0.827100)">
                                <circle id="Oval" fill="#FFFFFF" cx="49.6938105" cy="59.3232121" r="6.31703415"></circle>
                                <path d="M98.6260424,21.7851997 C86.4874539,8.40367438 68.9602587,-4.88498131e-15 49.4702801,-4.88498131e-15 C29.8113178,-4.88498131e-15 12.1493221,8.55003071 5.32907052e-15,22.1343852" id="Oval" stroke="#FFFFFF" stroke-width="6.534" opacity="0.300000012" stroke-linecap="round"></path>
                                <path d="M83.3869415,34.8499369 C75.0382144,25.6463378 62.9832899,19.8664249 49.5783944,19.8664249 C36.0572745,19.8664249 23.9096364,25.7469993 15.553527,35.0901011" id="Oval-Copy-2" stroke="#FFFFFF" stroke-width="6.534" stroke-linecap="round"></path>
                                <path d="M67.8623342,47.4495538 C63.3350486,42.4586945 56.7979936,39.3244063 49.5288865,39.3244063 C42.1967541,39.3244063 35.6094231,42.5132804 31.0781342,47.5797883" id="Oval-Copy-3" stroke="#FFFFFF" stroke-width="6.534" stroke-linecap="round"></path>
                            </g>
                        </g>
                    </g>
                </g>
            </g>
        </g>
    </g>
</svg>