<?xml version="1.0" encoding="UTF-8"?>
<svg width="90px" height="50px" viewBox="0 0 90 50" version="1.1" xmlns="http://www.w3.org/2000/svg" xmlns:xlink="http://www.w3.org/1999/xlink">
    <title>Group 41</title>
    <g id="Page-1" stroke="none" stroke-width="1" fill="none" fill-rule="evenodd">
        <g id="iPhone-11-Copy-112" transform="translate(-463.000000, -2710.000000)">
            <g id="Group-41" transform="translate(464.599116, 2711.925532)">
                <g id="Group-39" transform="translate(0.000000, -0.000000)">
                    <g id="Group-17-Copy" transform="translate(25.886090, 8.625384)">
                        <circle id="Oval" fill="#545454" cx="16.1621358" cy="16.7750431" r="3.53925268"></circle>
                        <path d="M33.4799238,17.5948874 C33.4799238,8.34966171 25.9851876,0.85492548 16.7399619,0.85492548 C7.49473623,0.85492548 0,8.34966171 0,17.5948874" id="Oval" stroke="#545454" stroke-width="2.85" stroke-linecap="round"></path>
                        <path d="M34.7002408,4.10426341 C35.1451685,4.45133108 35.2244998,5.09337024 34.8774321,5.53829802 C34.8761545,5.53993585 34.874872,5.54156979 34.8735844,5.5431998 L21.748135,22.1595591 C20.9573538,23.1606604 19.504746,23.3311585 18.5036446,22.5403773 C18.5027793,22.5396938 18.5019145,22.5390096 18.5010501,22.5383249 C17.5979334,21.82284 17.4458277,20.5107041 18.1613126,19.6075874 C18.2058532,19.5513663 18.2532636,19.4974796 18.3033548,19.4461421 L33.1717951,4.20776337 C33.5804984,3.78889124 34.2387989,3.74431387 34.7002408,4.10426341 Z" id="Rectangle" fill="#545454" transform="translate(26.099318, 13.723404) rotate(33.000000) translate(-26.099318, -13.723404) "></path>
                    </g>
                    <path d="M2,38.5851064 L31.5687326,38.5851064 C32.0023494,38.5851064 32.4242209,38.7260305 32.7707808,38.9866446 L34.472117,40.2660547 C34.8186769,40.5266688 35.2405484,40.6675929 35.6741652,40.6675929 L49.0820819,40.6675929 C49.5829126,40.6675929 50.0655167,40.4796877 50.4344867,40.1410247 L51.5559536,39.1116746 C51.9249236,38.7730116 52.4075276,38.5851064 52.9083584,38.5851064 L84.947933,38.5851064 C86.0525025,38.5851064 86.947933,39.4805369 86.947933,40.5851064 L86.947933,43.8851064 C86.947933,44.9896759 86.0525025,45.8851064 84.947933,45.8851064 L2,45.8851064 C0.8954305,45.8851064 6.11202024e-13,44.9896759 6.11066753e-13,43.8851064 L6.11066753e-13,40.5851064 C6.10931482e-13,39.4805369 0.8954305,38.5851064 2,38.5851064 Z" id="Rectangle" stroke="#545454" stroke-width="2.85"></path>
                    <path d="M23.7239665,-16.4174175 L58.2239665,-16.4174175 C60.9853902,-16.4174175 63.2239665,-14.1788413 63.2239665,-11.4174175 L63.2239665,50.9174175 C63.2239665,53.6788413 60.9853902,55.9174175 58.2239665,55.9174175 L23.7239665,55.9174175 L23.7239665,55.9174175" id="Rectangle-Copy-5" stroke="#545454" stroke-width="2.85" transform="translate(43.473966, 19.750000) scale(1, -1) rotate(-270.000000) translate(-43.473966, -19.750000) "></path>
                </g>
                <line x1="31.3796887" y1="38.5919139" x2="53.66212" y2="38.5919139" id="Line" stroke="#545454" stroke-width="2.86" stroke-linecap="square"></line>
            </g>
        </g>
    </g>
</svg>