<?xml version="1.0" encoding="UTF-8"?>
<svg width="37px" height="40px" viewBox="0 0 37 40" version="1.1" xmlns="http://www.w3.org/2000/svg" xmlns:xlink="http://www.w3.org/1999/xlink">
    <title>Group 5</title>
    <g id="Fibra-Fixo" stroke="none" stroke-width="1" fill="none" fill-rule="evenodd">
        <g id="iPhone-11-Copy-92" transform="translate(-272.000000, -844.000000)" fill-rule="nonzero">
            <g id="Group-6" transform="translate(78.500000, 843.106529)">
                <g id="Group-11" transform="translate(162.500000, 2.000000)">
                    <g id="Group-5" transform="translate(31.500000, 0.000000)">
                        <g id="Group-18" transform="translate(5.864303, 0.000000)">
                            <g id="Group-13" transform="translate(0.533642, 0.715753)">
                                <path d="M2.38969204,12.6943609 C5.09309882,16.770033 10.756681,22.6212454 17.1428834,19.8478808 C24.3544136,16.7150059 22.0545003,6.10211721 19.9086483,2.38962382 C18.470744,-0.104936955 16.8714423,-0.941348509 14.2230574,1.3147616 C11.2262007,3.86068098 8.43475902,4.02209374 5.83772782,3.79098002 C-1.54253599,3.13799205 -0.999653761,7.58417979 2.38969204,12.6943609 Z" id="Path" stroke="#545454" stroke-width="1.43"></path>
                                <path d="M14.4857311,8.10110085 C14.8606896,8.10258948 15.1994883,7.87688585 15.3436682,7.52954598 C15.4878482,7.1822061 15.408909,6.78188939 15.1437712,6.51582733 C14.8786335,6.24976528 14.4797075,6.17055093 14.1335743,6.3152335 C13.7874411,6.45991608 13.5625215,6.79989586 13.564005,7.17616146 C13.5630275,7.42177032 13.6598205,7.65760507 13.8328903,7.83127817 C14.00596,8.00495127 14.2409755,8.10208175 14.4857311,8.10110085 Z M14.4857311,8.78924272 C13.9658818,8.78924272 13.5455781,10.0286515 13.5455781,11.556639 C13.5455781,13.0846266 13.9658818,14.3240353 14.4857311,14.3240353 C15.0055805,14.3240353 15.4258842,13.0846266 15.4258842,11.556639 C15.4258842,10.0286515 15.0166411,8.78924272 14.4967918,8.78924272 L14.4857311,8.78924272 Z M10.2937545,8.78924272 C8.74526705,8.78924272 7.7129421,10.0175523 7.7129421,11.556639 C7.7129421,13.0957257 8.7378933,14.3240353 10.2937545,14.3240353 C11.8496156,14.3240353 12.8745668,13.0994255 12.8745668,11.556639 C12.8745668,10.0138526 11.8459288,8.785543 10.3048151,8.785543 L10.2937545,8.78924272 Z M10.2937545,13.0217312 C9.58587451,13.0217312 9.18769203,12.2817857 9.18769203,11.5418401 C9.18769203,10.8018946 9.58218763,10.0915469 10.2937545,10.0915469 C11.0053213,10.0915469 11.3998169,10.8018946 11.3998169,11.5418401 C11.3998169,12.2817857 11.0090082,13.0143317 10.3048151,13.0143317 L10.2937545,13.0217312 Z" id="Shape" fill="#545454"></path>
                            </g>
                        </g>
                        <g id="economizar" transform="translate(0.000000, 23.080393)" fill="#545454">
                            <path d="M31.0590111,2.71997005 L25.877557,5.16810457 C25.162172,3.83745626 23.7898602,2.9906213 22.279639,2.94798887 L17.4964104,2.81653897 C16.739039,2.79489977 15.9958784,2.60305383 15.3224799,2.25521204 L14.8357598,2.00297024 C12.343701,0.703973225 9.3733193,0.707202995 6.88384417,2.01136749 L6.91420366,0.90873808 C6.92421584,0.543455719 6.63644697,0.239215214 6.27116461,0.229203116 L1.02608486,0.0848342128 C0.660802577,0.0748220325 0.356885024,0.362590899 0.346872844,0.72787326 L0.029782929,12.2379811 C0.0200243606,12.6032635 0.307793145,12.9075039 0.673075506,12.9175161 L5.91815526,13.061885 L5.93624175,13.061885 C6.29474161,13.061885 6.58800108,12.7766999 6.59769023,12.418523 L6.61286997,11.8678542 L7.97549262,11.1382585 C8.51033573,10.8504896 9.13561125,10.7820193 9.71986919,10.9473815 L17.8568482,13.2311228 C17.871059,13.2353214 17.8852698,13.2385512 17.8998036,13.2417809 C18.4879372,13.3648335 19.0873749,13.4265214 19.6881045,13.4261997 C20.9606177,13.4268443 22.2182741,13.1526404 23.3748401,12.6216729 C23.4032617,12.608754 23.4307144,12.5935743 23.4568752,12.5764567 L35.2547519,4.94525324 C35.5486573,4.75502222 35.6436113,4.3690696 35.4714667,4.06418319 C34.5955642,2.51003763 32.6528823,1.91802834 31.0590111,2.71997005 L31.0590111,2.71997005 Z M1.37069695,11.6133516 L1.65103742,1.42549471 L5.57354317,1.53336761 L5.2932027,11.7215475 L1.37069695,11.6133516 Z M22.778955,11.4402381 C21.3420487,12.0887677 19.7371964,12.2676946 18.19274,11.9521501 L10.0777232,9.67422235 C9.16435582,9.41616699 8.18671685,9.52307104 7.35118596,9.97232627 L6.65485641,10.34536 L6.84121183,3.57164955 C9.04776262,2.10406073 11.8776511,1.95323237 14.2276018,3.17762262 L14.714322,3.42986443 C15.5650325,3.86910756 16.5032688,4.11133727 17.4602375,4.1391129 L22.243789,4.27056289 C23.5873562,4.30931963 24.7284194,5.26596538 25.0010085,6.5824028 L17.8759036,6.38571233 C17.5106212,6.37570015 17.2067038,6.66379205 17.1963686,7.02875138 C17.1863565,7.39403374 17.4744483,7.69827416 17.8394077,7.70828634 L25.7025057,7.92467822 L25.7209152,7.92467822 C26.0790921,7.92435519 26.3720285,7.6391701 26.3817177,7.28131622 C26.389792,6.99387031 26.3684758,6.70610144 26.3177691,6.42317719 L31.6322879,3.91206302 C31.6374555,3.90980219 31.6426231,3.9072184 31.6477906,3.90463462 C32.4016094,3.52320357 33.3130389,3.65077789 33.9331468,4.22470078 L22.778955,11.4402381 Z" id="Shape"></path>
                        </g>
                    </g>
                </g>
            </g>
        </g>
    </g>
</svg>