<svg width="37" height="37" viewBox="0 0 37 37" fill="none" xmlns="http://www.w3.org/2000/svg">
<path fill-rule="evenodd" clip-rule="evenodd" d="M3.52076 4.10901C3.39127 4.23519 3.29197 4.389 3.23027 4.55895L1.39147 9.62398C1.16362 10.2516 1.20603 10.9429 1.5248 11.5296C2.94706 14.1471 7.28104 21.7572 12.1415 26.6981C16.8827 31.5178 23.1281 34.8173 25.4669 35.9576C26.0638 36.2486 26.7507 36.2498 27.3612 35.9885L32.8861 33.6237C33.0776 33.5418 33.2444 33.4114 33.3703 33.2454L34.889 31.2414C35.6279 30.2665 35.5153 28.8918 34.6276 28.0502L29.5751 23.2598C28.6203 22.3545 27.1146 22.3868 26.1995 23.3321L21.7226 27.9567C21.7226 27.9567 17.4713 26.6981 14.8379 24.1317C12.2045 21.5653 8.53152 15.1012 8.53152 15.1012L13.8559 9.90731C14.8257 8.96128 14.8207 7.40055 13.8449 6.46072L9.1136 1.90381C8.18025 1.00486 6.70182 1.00917 5.77373 1.91356L3.52076 4.10901Z" stroke="#545454" stroke-width="1.5"/>
</svg>
