<?xml version="1.0" encoding="UTF-8"?>
<svg width="106px" height="77px" viewBox="0 0 106 77" version="1.1" xmlns="http://www.w3.org/2000/svg" xmlns:xlink="http://www.w3.org/1999/xlink">
    <!-- Generator: Sketch 53 (72520) - https://sketchapp.com -->
    <title>Slice Copy 12</title>
    <desc>Created with Sketch.</desc>
    <g id="Page-1" stroke="none" stroke-width="1" fill="none" fill-rule="evenodd">
        <g id="Group-40" transform="translate(3.500000, 0.250000)">
            <g id="Group-3-Copy-3">
                <g id="Group-6" transform="translate(0.224210, 0.000000)">
                    <g id="Group-10">
                        <g id="Group" transform="translate(9.750000, 0.000000)" stroke="#545454" stroke-width="3">
                            <rect id="Rectangle" x="1.5" y="1.5" width="86.0417073" height="48.4939994" rx="4"></rect>
                        </g>
                        <g id="Group-41" transform="translate(0.000000, 20.753000)">
                            <rect id="Rectangle" stroke="#545454" stroke-width="3" fill="#F5F5F5" x="1.5" y="1.5" width="24.5" height="52" rx="5"></rect>
                            <g id="Group-2" transform="translate(5.599265, 30.747000)" fill="#545454">
                                <rect id="Rectangle" x="5.68434189e-14" y="5.68434189e-14" width="4.07536765" height="4.07536765"></rect>
                                <rect id="Rectangle-Copy-2" x="6.11305147" y="5.68434189e-14" width="4.07536765" height="4.07536765"></rect>
                                <rect id="Rectangle-Copy-3" x="12.2261029" y="5.68434189e-14" width="4.07536765" height="4.07536765"></rect>
                                <rect id="Rectangle-Copy-6" x="5.68434189e-14" y="6.67763266" width="4.07536765" height="4.07536765"></rect>
                                <rect id="Rectangle-Copy-5" x="6.11305147" y="6.67763266" width="4.07536765" height="4.07536765"></rect>
                                <rect id="Rectangle-Copy-4" x="12.2261029" y="6.67763266" width="4.07536765" height="4.07536765"></rect>
                                <rect id="Rectangle-Copy-12" x="5.68434189e-14" y="13.3552653" width="4.07536765" height="4.07536765"></rect>
                                <rect id="Rectangle-Copy-11" x="6.11305147" y="13.3552653" width="4.07536765" height="4.07536765"></rect>
                                <rect id="Rectangle-Copy-10" x="12.2261029" y="13.3552653" width="4.07536765" height="4.07536765"></rect>
                            </g>
                            <circle id="Oval" fill="#545454" cx="13.75" cy="19.7469997" r="6"></circle>
                            <circle id="Oval-Copy-2" fill="#F5F5F5" cx="13.75" cy="19.7469997" r="3.17463235"></circle>
                            <path d="M8,14.2469997 L20.1130515,26.3600512" id="Line" stroke="#F5F5F5" stroke-linecap="square"></path>
                            <path d="M8,14.2469997 L20.1130515,26.3600512" id="Line-Copy" stroke="#F5F5F5" stroke-linecap="square" transform="translate(13.750000, 20.247000) rotate(-90.000000) translate(-13.750000, -20.247000) "></path>
                            <circle id="Oval-Copy" fill="#545454" cx="19.75" cy="7.24699969" r="2"></circle>
                        </g>
                    </g>
                </g>
                <g id="Group-14" transform="translate(26.500000, 51.000000)" fill="#545454">
                    <polygon id="Rectangle" points="44.5 1.33226763e-13 51.2888544 0 60.287881 7.4540911 56.7760489 7.5"></polygon>
                    <polygon id="Rectangle-Copy" points="15.787881 1.33643097e-13 8.99902654 0 1.3500312e-13 7.4540911 3.51183203 7.5"></polygon>
                </g>
            </g>
            <circle id="Oval" fill="#545454" cx="55.5" cy="26.5" r="10.5"></circle>
            <polygon id="Triangle" fill="#F5F5F5" transform="translate(57.377930, 26.500000) rotate(-270.000000) translate(-57.377930, -26.500000) " points="57.3779297 21.5 62.3779297 31.5 52.3779297 31.5"></polygon>
        </g>
    </g>
</svg>