<?xml version="1.0" encoding="UTF-8"?>
<svg width="47px" height="32px" viewBox="0 0 47 32" version="1.1" xmlns="http://www.w3.org/2000/svg" xmlns:xlink="http://www.w3.org/1999/xlink">
    <title>Group 41</title>
    <g id="Page-1" stroke="none" stroke-width="1" fill="none" fill-rule="evenodd">
        <g id="Group-41" transform="translate(1.306466, 1.522001)">
            <g id="Group-18">
                <g id="Group-8" transform="translate(0.000000, 0.000000)" stroke="#545454" stroke-width="1.5">
                    <g id="Group">
                        <path d="M18.6838379,0.00133347188 C23.9809525,0.00133347188 31.9266244,0.00133347188 42.5208536,0.00133347188 C43.6254231,0.00133347188 44.5208536,0.896763972 44.5208536,2.00133347 L44.5208536,23.7483332 C44.5208536,24.8529027 43.6254231,25.7483332 42.5208536,25.7483332 L2,25.7483332 C0.8954305,25.7483332 0,24.8529027 0,23.7483332 C0,10.3031415 0,3.14379516 0,2.27029419 C0,0.960042744 0.785797771,0.00224444686 2.09076427,0.00133347188 C6.38869382,-0.00166683984 14.4964329,0.00133347188 18.6838379,0.00133347188 Z" id="Rectangle" transform="translate(22.260427, 12.874167) scale(1, -1) translate(-22.260427, -12.874167) "></path>
                    </g>
                </g>
                <g id="Group-14" transform="translate(4.672069, 25.750000)" fill="#545454">
                    <polygon id="Rectangle" points="27.2827759 6.66133815e-14 30.6772031 0 35.1767164 3.72704555 33.4208004 3.75"></polygon>
                    <polygon id="Rectangle-Copy" points="3.64084403 0.711254564 0 3.72704555 1.75591601 3.75 6.95587158 0.711254564"></polygon>
                </g>
            </g>
            <g id="icon_blarga_sconexao-copy-2" transform="translate(22.260427, 13.093150) rotate(-360.000000) translate(-22.260427, -13.093150) translate(11.150311, 5.069147)">
                <g id="Group-9" transform="translate(0.000000, 0.000000)">
                    <circle id="Oval" fill="#545454" cx="11.1536696" cy="14.7731693" r="1.27483857"></circle>
                    <path d="M22.2202322,4.28879736 C19.2835393,1.62385295 15.3848136,0 11.1068168,0 C6.83202337,0 2.93593332,1.62142196 0,4.28281255" id="Oval" stroke="#545454" stroke-width="1.5" stroke-linecap="round"></path>
                    <path d="M18.7204117,7.85176235 C16.707283,6.04937974 14.048522,4.95336614 11.1337733,4.95336614 C8.13059875,4.95336614 5.39917948,6.11688885 3.36570922,8.01774055" id="Oval-Copy-2" stroke="#545454" stroke-width="1.5" stroke-linecap="round"></path>
                    <path d="M15.1019226,11.2604486 C14.0274804,10.3523414 12.6383865,9.80489358 11.1214293,9.80489358 C9.63464282,9.80489358 8.27068404,10.3307816 7.20541656,11.2066942" id="Oval-Copy-3" stroke="#545454" stroke-width="1.5" stroke-linecap="round"></path>
                </g>
            </g>
        </g>
    </g>
</svg>