<?xml version="1.0" encoding="UTF-8"?>
<svg width="63px" height="43px" viewBox="0 0 63 43" version="1.1" xmlns="http://www.w3.org/2000/svg" xmlns:xlink="http://www.w3.org/1999/xlink">
    <title>Group</title>
    <g id="FIBRA-INTERNET" stroke="none" stroke-width="1" fill="none" fill-rule="evenodd">
        <g id="iPhone-11-Copy-101" transform="translate(-321.000000, -120.000000)">
            <g id="Group" transform="translate(322.450000, 120.223442)">
                <path d="M43.519772,33.7633581 L43.519772,37.0765581 C43.519772,38.7334123 42.1766262,40.0765581 40.519772,40.0765581 L3,40.0765581 C1.34314575,40.0765581 6.46995335e-16,38.7334123 0,37.0765581 L0,18.8992143 L0,18.8992143 L5.3394899,14.5393323" id="Rectangle-Copy-15" stroke="#FFFFFF" stroke-width="2"></path>
                <path d="M13.6558856,-1 L26.7245581,-1 C28.2157269,-1 29.4245581,0.208831175 29.4245581,1.7 L29.4245581,28.2804437 C29.4245581,29.7716125 28.2157269,30.9804437 26.7245581,30.9804437 L22.4179481,30.9804437 L22.4179481,30.9804437" id="Rectangle" stroke="#FFFFFF" stroke-width="2" transform="translate(21.540222, 14.990222) rotate(-90.000000) translate(-21.540222, -14.990222) "></path>
                <polyline id="Rectangle" stroke="#FFFFFF" stroke-width="2" points="9.09494702e-13 20.0636429 21.9496403 31.9436429 31.1487619 26.9283257"></polyline>
                <rect id="Rectangle" fill="#FFFFFF" x="17.82" y="12.6945581" width="13.3287619" height="1" rx="0.5"></rect>
                <path d="M11.8186424,22.6851852 C11.9831737,22.6851852 12.0896971,22.6282321 12.1382127,22.5143258 C12.1867283,22.4004196 12.2109862,22.2190133 12.2109862,21.9701071 L12.2109862,20.394404 C12.8142674,20.343779 13.335283,20.1855758 13.774033,19.9197946 C14.212783,19.6540133 14.5450096,19.3112399 14.7707127,18.8914743 C14.9964158,18.4717086 15.1092674,18.0213571 15.1092674,17.5404196 C15.1092674,17.1565133 15.0386033,16.803193 14.8972752,16.4804586 C14.7559471,16.1577243 14.5545018,15.8803415 14.2929393,15.6483102 C14.0482518,15.4247165 13.770869,15.2538571 13.4607908,15.1357321 C13.1507127,15.0176071 12.7341112,14.8868258 12.2109862,14.7433883 L12.2109862,12.1108883 C12.7425487,12.2838571 13.0779393,12.6340133 13.217158,13.1613571 C13.3395018,13.6085446 13.6073924,13.8321383 14.0208299,13.8321383 C14.2402049,13.8321383 14.4268846,13.7551461 14.580869,13.6011618 C14.7348533,13.4471774 14.8118455,13.2647165 14.8118455,13.053779 C14.8118455,12.8639352 14.7601658,12.6551071 14.6568065,12.4272946 C14.5534471,12.1994821 14.4068455,11.9779977 14.2170018,11.7628415 C13.976533,11.4801852 13.6949315,11.2692477 13.3721971,11.130029 C13.0494627,10.9908102 12.6623924,10.8979977 12.2109862,10.8515915 L12.2109862,10.168154 C12.2109862,9.82221645 12.0759862,9.6492477 11.8059862,9.6492477 C11.5402049,9.6492477 11.4073143,9.8264352 11.4073143,10.1808102 L11.4073143,10.8515915 C10.534033,10.927529 9.86641584,11.197529 9.40446272,11.6615915 C8.94250959,12.125654 8.71153303,12.7204977 8.71153303,13.4461227 C8.71153303,14.0029977 8.82965803,14.4586227 9.06590803,14.8129977 C9.30215803,15.1673727 9.61012678,15.4405368 9.98981428,15.6324899 C10.3695018,15.824443 10.8420018,15.9984665 11.4073143,16.1545602 L11.4073143,19.0971383 C11.124658,19.0169821 10.8979002,18.9009665 10.7270408,18.7490915 C10.5561815,18.5972165 10.4285643,18.4295211 10.3441893,18.2460055 C10.2598143,18.0624899 10.1606737,17.7977633 10.0467674,17.4518258 C9.99614241,17.2915133 9.90543928,17.1670602 9.77465803,17.0784665 C9.64387678,16.9898727 9.48356428,16.9455758 9.29372053,16.9455758 C9.05747053,16.9455758 8.86024397,17.0267868 8.70204084,17.1892086 C8.54383772,17.3516305 8.46473616,17.5340915 8.46473616,17.7365915 C8.46473616,18.0108102 8.52379866,18.2903024 8.64192366,18.575068 C8.76004866,18.8598336 8.94250959,19.1340524 9.18930647,19.3977243 C9.43610334,19.6613961 9.74407209,19.8818258 10.1132127,20.0590133 C10.4823533,20.2362008 10.9137205,20.3522165 11.4073143,20.4070602 L11.4073143,22.115654 C11.4073143,22.3097165 11.4379002,22.453154 11.4990721,22.5459665 C11.560244,22.638779 11.6667674,22.6851852 11.8186424,22.6851852 Z M11.4073143,14.5092477 C11.0276268,14.370029 10.7449705,14.2149899 10.5593455,14.0441305 C10.3737205,13.8732711 10.280908,13.6212008 10.280908,13.2879196 C10.280908,12.9377633 10.3800487,12.6762008 10.5783299,12.5032321 C10.7766112,12.3302633 11.0529393,12.1910446 11.4073143,12.0855758 C11.4073143,12.0855758 11.7312036,11.9940717 12.2160842,12.1141583 C12.2160842,12.4921575 12.2160842,13.6768682 12.2160842,14.7449872 C12.1335633,14.7254051 11.8639733,14.6468253 11.4073143,14.5092477 Z M12.2109862,16.3887008 C12.6497362,16.5279196 12.9819627,16.6977243 13.2076658,16.8981149 C13.433369,17.0985055 13.5462205,17.3822165 13.5462205,17.7492477 C13.5462205,18.0909665 13.4302049,18.3904977 13.1981737,18.6478415 C12.9661424,18.9051852 12.6370799,19.0760446 12.2109862,19.1604196 C11.966923,19.1986586 11.6964723,19.1760754 11.3996341,19.0926698 C11.3996341,17.7492477 11.3996341,16.4787975 11.3996341,16.1576433 C11.585552,16.2013187 11.8560026,16.2783379 12.2109862,16.3887008 Z" id="$" fill="#FFFFFF" fill-rule="nonzero"></path>
                <rect id="Rectangle-Copy-16" fill="#FFFFFF" x="17.82" y="17.2845581" width="13.3287619" height="1" rx="0.5"></rect>
                <rect id="Rectangle-Copy-19" fill="#FFFFFF" x="17.82" y="21.8745581" width="9.03006249" height="1" rx="0.5"></rect>
                <line x1="11.05" y1="27.0765581" x2="1.04267578" y2="38.9384233" id="Line-8" stroke="#FFFFFF" stroke-linecap="square"></line>
                <line x1="42.8747978" y1="33.7633581" x2="38.4370537" y2="38.9384233" id="Line-8-Copy" stroke="#FFFFFF" stroke-linecap="square" transform="translate(40.519772, 36.576558) scale(-1, 1) translate(-40.519772, -36.576558) "></line>
                <path d="M45.7118339,3.85659724 L59.3720183,31.2858494 C59.7939134,32.1330025 59.4491737,33.1617693 58.6020207,33.5836644 C58.3647127,33.7018473 58.10322,33.7633581 57.838112,33.7633581 L30.5177433,33.7633581 C29.5713481,33.7633581 28.8041433,32.9961532 28.8041433,32.0497581 C28.8041433,31.78465 28.865654,31.5231574 28.983837,31.2858494 L42.6440213,3.85659724 C43.0659164,3.00944418 44.0946832,2.66470449 44.9418363,3.08659959 C45.2753959,3.25271737 45.5457162,3.52303758 45.7118339,3.85659724 Z" id="Triangle" stroke="#FFFFFF" stroke-width="2"></path>
                <path d="M45.6495545,23.6669986 L45.6495545,11.9117026 L43.1305625,11.9117026 L43.1305625,23.6669986 L45.6495545,23.6669986 Z M46.0094105,28.7049826 L46.0094105,25.490269 L42.7946969,25.490269 L42.7946969,28.7049826 L46.0094105,28.7049826 Z" id="!" fill="#FFFFFF" fill-rule="nonzero"></path>
                <path d="M14.3053711,7.1058856 L19.5971919,3.19565832 C21.0100132,2.15169775 22.9386196,2.15169775 24.3514409,3.19565832 L29.6432617,7.1058856 L29.6432617,7.1058856 L14.3053711,7.1058856 Z" id="Path-6" stroke="#FFFFFF" stroke-width="2"></path>
            </g>
        </g>
    </g>
</svg>