<?xml version="1.0" encoding="UTF-8"?>
<svg width="67px" height="58px" viewBox="0 0 67 58" version="1.1" xmlns="http://www.w3.org/2000/svg" xmlns:xlink="http://www.w3.org/1999/xlink">
    <title>Group 41</title>
    <g id="FIBRA-INTERNET" stroke="none" stroke-width="1" fill="none" fill-rule="evenodd">
        <g id="iPhone-11-Copy-108" transform="translate(-309.000000, -116.000000)">
            <g id="Group-41" transform="translate(311.062012, 117.975977)">
                <polygon id="Path-5" fill="#FFFFFF" points="30.5652721 31.8116699 20.8491699 44.3794678 27.5977051 44.3794678 20.8491699 55.4805176 36.1944092 41.4198242 29.9970459 41.4198242 38.9490234 31.8116699"></polygon>
                <path d="M16.7972271,38.3747105 C15.3483987,38.3747105 14.217531,38.3747105 12.8549785,38.3747105 C4.4789119,38.3747105 0.191389683,34.1353142 0.191389683,27.754608 C0.191389683,20.4010704 7.52940482,16.6921153 12.8549785,18.3511925 C12.8549785,16.476627 13.3037264,1.68547238 26.5631377,1.00301619 C39.7353155,0.325049886 41.0670513,8.88180648 41.0670513,12.7119737 C50.8521368,9.08629744 61.0568493,14.6784087 61.9013897,24.136505 C62.8701739,34.9860203 54.7313824,38.3747105 50.8521368,38.3747105 C48.102612,38.3747105 45.4137261,38.3747105 42.785479,38.3747105" id="Path-7" stroke="#FFFFFF" stroke-width="3.74" stroke-linecap="round"></path>
                <line x1="12.1474609" y1="44.50896" x2="7.04746094" y2="49.60896" id="Line-6" stroke="#FFFFFF" stroke-width="3.4" stroke-linecap="round"></line>
                <line x1="45.6104004" y1="46.0466797" x2="40.5104004" y2="51.1466797" id="Line-6-Copy" stroke="#FFFFFF" stroke-width="3.4" stroke-linecap="round"></line>
            </g>
        </g>
    </g>
</svg>