<?xml version="1.0" encoding="UTF-8"?>
<svg width="17px" height="21px" viewBox="0 0 17 21" version="1.1" xmlns="http://www.w3.org/2000/svg" xmlns:xlink="http://www.w3.org/1999/xlink">
    <!-- Generator: Sketch 64 (93537) - https://sketch.com -->
    <title>Group 2</title>
    <desc>Created with Sketch.</desc>
    <g id="--&gt;-Banda-Larga" stroke="none" stroke-width="1" fill="none" fill-rule="evenodd">
        <g id="iPhone-11-Copy-74" transform="translate(-57.000000, -189.000000)" stroke="#00B6C8" stroke-width="1.28">
            <g id="Group-6" transform="translate(41.622520, 175.689697)">
                <g id="icon_block-copy" transform="translate(16.377480, 14.000000)">
                    <g id="Group-2" transform="translate(0.201532, 0.317277)">
                        <polygon id="Stroke-1" points="0 18.6910928 14.5338087 18.6910928 14.5338087 4.1517453 0 4.1517453"></polygon>
                        <path d="M9.25678715,10.299743 C9.25678715,11.3981561 8.36573286,12.2888642 7.26731977,12.2888642 C6.16821433,12.2888642 5.27716003,11.3981561 5.27716003,10.299743 C5.27716003,9.20098375 6.16821433,8.30992946 7.26731977,8.30992946 C8.36573286,8.30992946 9.25678715,9.20098375 9.25678715,10.299743 L9.25678715,10.299743 Z" id="Stroke-3"></path>
                        <path d="M3.11439747,4.1517453 C3.11439747,1.86006719 4.97439543,6.92349881e-05 7.26780441,6.92349881e-05 C9.56017487,6.92349881e-05 11.4191343,1.86006719 11.4191343,4.1517453" id="Stroke-4"></path>
                        <line x1="7.26714668" y1="12.2888988" x2="7.26714668" y2="15.2029995" id="Stroke-5"></line>
                    </g>
                </g>
            </g>
        </g>
    </g>
</svg>