<?xml version="1.0" encoding="UTF-8"?>
<svg width="46px" height="63px" viewBox="0 0 46 63" version="1.1" xmlns="http://www.w3.org/2000/svg" xmlns:xlink="http://www.w3.org/1999/xlink">
    <title>Group 19</title>
    <g id="Page-1" stroke="none" stroke-width="1" fill="none" fill-rule="evenodd">
        <g id="iPhone-11-Copy-150" transform="translate(-355.000000, -33.000000)">
            <g id="Group-19" transform="translate(355.982997, 34.277428)">
                <g id="Group-12" transform="translate(0.000000, 3.685624)" stroke="#FFFFFF" stroke-width="1.24324324">
                    <circle id="Oval" cx="11.9229605" cy="2.87609384" r="2.87609384"></circle>
                    <path d="M11.5842014,5.75218769 L0.213577264,56.9598363 C0.168925479,57.1609258 0.295743289,57.3601385 0.496832771,57.4047903 C0.601201427,57.4279652 0.710497153,57.4052385 0.796975977,57.3423791 L20.2941654,43.170326 L20.2941654,43.170326" id="Path-2" stroke-linecap="round"></path>
                    <path d="M15.3467375,5.75218769 L10.1182805,28.6848914 L13.7492641,35.9314796 C14.2440807,36.9190171 13.8446516,38.1207026 12.8571141,38.6155192 C12.5790085,38.7548671 12.2722329,38.8274244 11.9611693,38.8274244 L7.76142934,38.8274244 L7.76142934,38.8274244 L3.71551051,56.9593444 C3.67065018,57.1603875 3.7972613,57.3597316 3.99830436,57.4045919 C4.1027113,57.4278891 4.21209561,57.4052342 4.29866045,57.3423844 L23.8182524,43.170326 L23.8182524,43.170326" id="Path-2-Copy" stroke-linecap="round" transform="translate(13.659514, 31.836935) scale(-1, 1) translate(-13.659514, -31.836935) "></path>
                    <line x1="5.98949316" y1="32.9518242" x2="14.7990543" y2="32.9518242" id="Line-2" stroke-linecap="square"></line>
                    <line x1="9.10037005" y1="20.4350927" x2="14.7990543" y2="20.4350927" id="Line-2-Copy" stroke-linecap="square"></line>
                </g>
                <g id="Group-60" transform="translate(0.292666, 0.000000)" stroke="#FFFFFF" stroke-dasharray="1.864864864864865" stroke-linecap="round" stroke-width="1.24324324">
                    <path d="M16.8705629,11.0870315 C17.9685094,9.99989459 18.6486486,8.49157061 18.6486486,6.82439159 C18.6486486,4.97724351 17.8137442,3.32509783 16.5007228,2.22474217" id="Oval-Copy"></path>
                    <path d="M20.4474174,13.3117737 C22.0966092,11.6788186 23.1182256,9.41321128 23.1182256,6.90899267 C23.1182256,4.13444806 21.8641411,1.65281057 19.8918919,0" id="Oval-Copy-4"></path>
                    <path d="M0.555525516,13.3117737 C2.20471733,11.6788186 3.22633372,9.41321128 3.22633372,6.90899267 C3.22633372,4.13444806 1.97224922,1.65281057 0,0" id="Oval-Copy-10" transform="translate(1.613167, 6.655887) scale(-1, 1) translate(-1.613167, -6.655887) "></path>
                    <path d="M4.54675089,11.0870315 C5.64469737,9.99989459 6.32483664,8.49157061 6.32483664,6.82439159 C6.32483664,4.97724351 5.48993214,3.32509783 4.17691078,2.22474217" id="Oval-Copy-13" transform="translate(5.250874, 6.655887) scale(-1, 1) translate(-5.250874, -6.655887) "></path>
                </g>
                <g id="Group-12" transform="translate(12.118719, 9.704555)">
                    <path d="M17.8647429,3.0633903 L31.4510885,30.3443763 C31.8707031,31.1869501 31.5278268,32.210156 30.685253,32.6297706 C30.4492278,32.7473147 30.1891486,32.808493 29.9254736,32.808493 L2.75278248,32.808493 C1.81150298,32.808493 1.04844518,32.0454352 1.04844518,31.1041557 C1.04844518,30.8404807 1.10962343,30.5804015 1.22716756,30.3443763 L14.8135131,3.0633903 C15.2331277,2.22081644 16.2563336,1.87794021 17.0989074,2.29755479 C17.4306641,2.46277464 17.6995231,2.73163365 17.8647429,3.0633903 Z" id="Triangle" stroke="#FFFFFF" stroke-width="1.5"></path>
                    <path d="M17.2540035,21.8748165 L17.2540035,10.1830626 L15.4644493,10.1830626 L15.4644493,21.8748165 L17.2540035,21.8748165 Z M17.6119143,26.8855681 L17.6119143,24.3801923 L15.1065385,24.3801923 L15.1065385,26.8855681 L17.6119143,26.8855681 Z" id="!" fill="#FFFFFF" fill-rule="nonzero"></path>
                </g>
            </g>
        </g>
    </g>
</svg>