<?xml version="1.0" encoding="UTF-8"?>
<svg width="25px" height="25px" viewBox="0 0 25 25" version="1.1" xmlns="http://www.w3.org/2000/svg" xmlns:xlink="http://www.w3.org/1999/xlink">
    <!-- Generator: Sketch 64 (93537) - https://sketch.com -->
    <title>Group 6 Copy</title>
    <desc>Created with Sketch.</desc>
    <g id="--&gt;-Banda-Larga" stroke="none" stroke-width="1" fill="none" fill-rule="evenodd">
        <g id="iPhone-11-Copy-72" transform="translate(-53.000000, -316.000000)" stroke="#00C0D2" stroke-width="1.6">
            <g id="Group-5" transform="translate(42.000000, 179.689697)">
                <g id="Group-6-Copy" transform="translate(23.500000, 149.057617) rotate(-45.000000) translate(-23.500000, -149.057617) translate(9.500000, 143.057617)">
                    <path d="M16.6639533,3.06505413 L2.95412883,3.06505413 C1.33171799,3.06505413 0.0163092976,4.39784683 0.0163092976,6.0416989 C0.0163092976,7.68555097 1.33171799,9.01834367 2.95412883,9.01834367 L16.6639533,9.01834367" id="Stroke-1" stroke-linecap="round" stroke-linejoin="round"></path>
                    <path d="M22.0499558,7.52989726 C21.2388728,7.52989726 20.581046,6.86362494 20.581046,6.04182293 C20.581046,5.21977286 21.2388728,4.55350054 22.0499558,4.55350054 L27.7405122,4.55350054 C27.0883163,1.98564832 24.7880036,0.0882853396 22.0499558,0.0882853396 C18.8048893,0.0882853396 16.1743167,2.75362267 16.1743167,6.04157487 C16.1743167,9.32927902 18.8048893,11.9951125 22.0499558,11.9951125 C24.7880036,11.9951125 27.0883163,10.0977495 27.7405122,7.52989726 L22.0499558,7.52989726 L22.0499558,7.52989726 Z" id="Stroke-3"></path>
                </g>
            </g>
        </g>
    </g>
</svg>