<?xml version="1.0" encoding="UTF-8"?>
<svg width="27px" height="25px" viewBox="0 0 27 25" version="1.1" xmlns="http://www.w3.org/2000/svg" xmlns:xlink="http://www.w3.org/1999/xlink">
    <!-- Generator: Sketch 64 (93537) - https://sketch.com -->
    <title>Group 2 Copy</title>
    <desc>Created with Sketch.</desc>
    <g id="--&gt;-Banda-Larga" stroke="none" stroke-width="1" fill="none" fill-rule="evenodd">
        <g id="iPhone-11-Copy-71" transform="translate(-52.000000, -379.000000)" fill="#00C0D2" stroke="#00C0D2" stroke-width="0.675">
            <g id="Group-5" transform="translate(42.000000, 179.689697)">
                <g id="Group-2-Copy" transform="translate(11.000000, 200.220459)">
                    <path d="M0.426248299,14.4419458 C0.190959238,14.4419458 0,14.251652 0,14.0171827 L0,8.49526226 C0,8.26079302 0.190959238,8.07049914 0.426248299,8.07049914 C0.661537359,8.07049914 0.852496597,8.26079302 0.852496597,8.49526226 L0.852496597,14.0171827 C0.852496597,14.251652 0.661537359,14.4419458 0.426248299,14.4419458" id="Fill-29"></path>
                    <path d="M3.83623469,18.689577 C3.60094563,18.689577 3.40998639,18.4992831 3.40998639,18.2648139 L3.40998639,4.67239424 C3.40998639,4.437925 3.60094563,4.24763113 3.83623469,4.24763113 C4.07152375,4.24763113 4.26248299,4.437925 4.26248299,4.67239424 L4.26248299,18.2648139 C4.26248299,18.4992831 4.07152375,18.689577 3.83623469,18.689577" id="Fill-31"></path>
                    <path d="M7.24622108,22.9372081 C7.01093202,22.9372081 6.81997278,22.7469142 6.81997278,22.512445 L6.81997278,0.424763113 C6.81997278,0.190293875 7.01093202,0 7.24622108,0 C7.48151014,0 7.67246937,0.190293875 7.67246937,0.424763113 L7.67246937,22.512445 C7.67246937,22.7469142 7.48151014,22.9372081 7.24622108,22.9372081" id="Fill-33"></path>
                    <path d="M10.6562075,22.0876819 C10.4209184,22.0876819 10.2299592,21.897388 10.2299592,21.6629188 L10.2299592,1.27428934 C10.2299592,1.0398201 10.4209184,0.849526226 10.6562075,0.849526226 C10.8914965,0.849526226 11.0824558,1.0398201 11.0824558,1.27428934 L11.0824558,21.6629188 C11.0824558,21.897388 10.8914965,22.0876819 10.6562075,22.0876819" id="Fill-35"></path>
                    <path d="M14.0661939,17.8400507 C13.8309048,17.8400507 13.6399456,17.6497569 13.6399456,17.4152876 L13.6399456,5.52192047 C13.6399456,5.28745123 13.8309048,5.09715735 14.0661939,5.09715735 C14.3014829,5.09715735 14.4924422,5.28745123 14.4924422,5.52192047 L14.4924422,17.4152876 C14.4924422,17.6497569 14.3014829,17.8400507 14.0661939,17.8400507" id="Fill-37"></path>
                    <path d="M17.4761802,22.0876819 C17.2408912,22.0876819 17.0499319,21.897388 17.0499319,21.6629188 L17.0499319,1.27428934 C17.0499319,1.0398201 17.2408912,0.849526226 17.4761802,0.849526226 C17.7114693,0.849526226 17.9024285,1.0398201 17.9024285,1.27428934 L17.9024285,21.6629188 C17.9024285,21.897388 17.7114693,22.0876819 17.4761802,22.0876819" id="Fill-39"></path>
                    <path d="M20.8861666,17.8400507 C20.6508776,17.8400507 20.4599183,17.6497569 20.4599183,17.4152876 L20.4599183,5.52192047 C20.4599183,5.28745123 20.6508776,5.09715735 20.8861666,5.09715735 C21.1214557,5.09715735 21.3124149,5.28745123 21.3124149,5.52192047 L21.3124149,17.4152876 C21.3124149,17.6497569 21.1214557,17.8400507 20.8861666,17.8400507" id="Fill-41"></path>
                    <path d="M24.296153,14.4419458 C24.060864,14.4419458 23.8699047,14.251652 23.8699047,14.0171827 L23.8699047,8.92002537 C23.8699047,8.68555613 24.060864,8.49526226 24.296153,8.49526226 C24.5314421,8.49526226 24.7224013,8.68555613 24.7224013,8.92002537 L24.7224013,14.0171827 C24.7224013,14.251652 24.5314421,14.4419458 24.296153,14.4419458" id="Fill-43"></path>
                </g>
            </g>
        </g>
    </g>
</svg>