<?xml version="1.0" encoding="UTF-8"?>
<svg width="591px" height="329px" viewBox="0 0 591 329" version="1.1" xmlns="http://www.w3.org/2000/svg" xmlns:xlink="http://www.w3.org/1999/xlink">
    <title>microfiltro-00</title>
    <defs>
        <rect id="path-1" x="0.951963497" y="5.68434189e-14" width="88.8195697" height="169.034575" rx="5.6"></rect>
        <polygon id="path-3" points="228.193648 162.551299 228.193648 0.0102139037 0.709002423 0.0102139037 0.709002423 162.551299 228.193648 162.551299"></polygon>
    </defs>
    <g id="Page-1" stroke="none" stroke-width="1" fill="none" fill-rule="evenodd">
        <g id="Group-6-Copy" transform="translate(65.500000, 39.500000)">
            <g id="Group-3" transform="translate(0.000000, 5.000000)">
                <g id="Group-3-Copy" transform="translate(4.602977, 28.787846)">
                    <g id="Group-2" transform="translate(0.316544, 0.000000)">
                        <rect id="Rectangle" fill="#23282F" x="0" y="0" width="96.4764291" height="184.228694" rx="9.6"></rect>
                        <g id="Fill-31-Copy" transform="translate(2.876466, 4.183325)">
                            <mask id="mask-2" fill="white">
                                <use xlink:href="#path-1"></use>
                            </mask>
                            <use id="Mask" fill="#6F7B84" xlink:href="#path-1"></use>
                            <path d="M11.5711716,-5.73874739 L93.5999629,180.045369 L115.5,101.439725 L115.5,-2.83835004 C115.5,-2.83835004 58.0821111,-5.78640752 21.1795726,-5.73874739 C-15.7229659,-5.69108726 11.5711716,-5.73874739 11.5711716,-5.73874739 Z" fill="#626E78" mask="url(#mask-2)"></path>
                        </g>
                        <rect id="Rectangle-Copy-3" fill="#23282F" x="38.2670739" y="0" width="19.9422813" height="9.31641358" rx="4.65820679"></rect>
                    </g>
                </g>
                <g id="offline_icon-copy-18" transform="translate(0.602977, 0.190917)" stroke="#00C0D2" stroke-linecap="round" stroke-width="3">
                    <g id="Group-9" transform="translate(0.094914, 0.234648)">
                        <path d="M43.6326074,9.63787092 C38.2624409,3.71782356 30.5083304,2.06848204e-15 21.8858757,2.06848204e-15 C13.1886619,2.06848204e-15 5.37491507,3.78257227 7.44653535e-14,9.79235217" id="Oval"></path>
                        <path d="M36.8907602,15.4177697 C33.1972455,11.3460559 27.8640924,8.78899627 21.933706,8.78899627 C15.9519014,8.78899627 10.5777313,11.390589 6.88095069,15.5240195" id="Oval-Copy-2"></path>
                        <path d="M30.0226037,20.9918973 C28.019712,18.7839185 25.1276893,17.3972952 21.9118035,17.3972952 C18.6680349,17.3972952 15.7537699,18.8080676 13.7491072,21.0495136" id="Oval-Copy-3"></path>
                    </g>
                </g>
                <g id="offline_icon-copy-19" transform="translate(58.000000, 0.190917)" stroke="#00C0D2" stroke-linecap="round" stroke-width="3">
                    <g id="Group-9" transform="translate(0.094914, 0.234648)">
                        <path d="M43.6326074,9.63787092 C38.2624409,3.71782356 30.5083304,2.06848204e-15 21.8858757,2.06848204e-15 C13.1886619,2.06848204e-15 5.37491507,3.78257227 7.44653535e-14,9.79235217" id="Oval"></path>
                        <path d="M36.8907602,15.4177697 C33.1972455,11.3460559 27.8640924,8.78899627 21.933706,8.78899627 C15.9519014,8.78899627 10.5777313,11.390589 6.88095069,15.5240195" id="Oval-Copy-2"></path>
                        <path d="M30.0226037,20.9918973 C28.019712,18.7839185 25.1276893,17.3972952 21.9118035,17.3972952 C18.6680349,17.3972952 15.7537699,18.8080676 13.7491072,21.0495136" id="Oval-Copy-3"></path>
                    </g>
                </g>
                <g id="Group-17" transform="translate(24.732919, 90.287846)">
                    <circle id="Oval" fill="#FFFFFF" cx="26.6835947" cy="35.199405" r="5.82447418"></circle>
                    <path d="M55.1831164,36.5486055 C55.1831164,21.3339308 42.8491856,9 27.6345109,9 C12.4198362,9 0.0859054473,21.3339308 0.0859054473,36.5486055" id="Oval" stroke="#FFFFFF" stroke-width="2.85" stroke-linecap="round"></path>
                    <path d="M49.3857439,4.41644141 C49.7600127,4.77243631 49.7896029,5.3592998 49.4530404,5.7511355 L24.9580483,34.2689065 C24.0837361,35.2868058 22.5497956,35.4032061 21.5318963,34.5288939 C21.4836643,34.4874656 21.437077,34.4441599 21.3922422,34.3990769 C20.3733503,33.374545 20.3779225,31.7180227 21.4024545,30.6991308 C21.4052776,30.6963232 21.4081071,30.6935221 21.4109429,30.6907275 L48.0611332,4.42815987 C48.4271665,4.06745052 49.0133862,4.0622644 49.3857439,4.41644141 Z" id="Rectangle" fill="#00C0D2" transform="translate(34.796328, 20.021861) rotate(-15.000000) translate(-34.796328, -20.021861) "></path>
                </g>
            </g>
            <g id="Group-4" transform="translate(231.000000, 0.000000)">
                <g id="Group-5" transform="translate(46.000000, 0.925678)" stroke="#00C0D2" stroke-linecap="round" stroke-width="3">
                    <g id="offline_icon-copy-21" transform="translate(89.969668, 0.000000)">
                        <g id="Group-9" transform="translate(0.094914, 0.234648)">
                            <path d="M43.6326074,9.63787092 C38.2624409,3.71782356 30.5083304,2.06848204e-15 21.8858757,2.06848204e-15 C13.1886619,2.06848204e-15 5.37491507,3.78257227 7.44653535e-14,9.79235217" id="Oval"></path>
                            <path d="M36.8907602,15.4177697 C33.1972455,11.3460559 27.8640924,8.78899627 21.933706,8.78899627 C15.9519014,8.78899627 10.5777313,11.390589 6.88095069,15.5240195" id="Oval-Copy-2"></path>
                            <path d="M30.0226037,20.9918973 C28.019712,18.7839185 25.1276893,17.3972952 21.9118035,17.3972952 C18.6680349,17.3972952 15.7537699,18.8080676 13.7491072,21.0495136" id="Oval-Copy-3"></path>
                        </g>
                    </g>
                    <g id="Group-9" transform="translate(0.094914, 0.234648)">
                        <path d="M43.6326074,9.63787092 C38.2624409,3.71782356 30.5083304,2.06848204e-15 21.8858757,2.06848204e-15 C13.1886619,2.06848204e-15 5.37491507,3.78257227 7.44653535e-14,9.79235217" id="Oval"></path>
                        <path d="M36.8907602,15.4177697 C33.1972455,11.3460559 27.8640924,8.78899627 21.933706,8.78899627 C15.9519014,8.78899627 10.5777313,11.390589 6.88095069,15.5240195" id="Oval-Copy-2"></path>
                        <path d="M30.0226037,20.9918973 C28.019712,18.7839185 25.1276893,17.3972952 21.9118035,17.3972952 C18.6680349,17.3972952 15.7537699,18.8080676 13.7491072,21.0495136" id="Oval-Copy-3"></path>
                    </g>
                </g>
                <path d="M135.987929,210.195041 L135.987929,188.759227 L114.327508,188.759227 L92.677277,188.759227 L92.677277,210.195041 C92.677277,215.215545 88.4311347,221.670479 82.4865354,220.474555 L82.4865354,225.256554 L114.327508,225.256554 L146.17867,225.256554 L146.17867,220.474555 C140.234071,221.670479 135.987929,215.215545 135.987929,210.195041" id="Fill-22" fill="#626E78"></path>
                <g id="Group-26" transform="translate(0.000000, 30.256554)">
                    <mask id="mask-4" fill="white">
                        <use xlink:href="#path-3"></use>
                    </mask>
                    <g id="Clip-25"></g>
                    <path d="M219.554928,162.551299 L9.3478928,162.551299 C4.59650309,162.551299 0.709002423,158.667462 0.709002423,153.92055 L0.709002423,8.64053699 C0.709002423,3.89362522 4.59650309,0.00978832442 9.3478928,0.00978832442 L219.554928,0.00978832442 C224.306318,0.00978832442 228.193819,3.89362522 228.193819,8.64053699 L228.193819,153.92055 C228.193819,158.667462 224.306318,162.551299 219.554928,162.551299" id="Fill-24" fill="#23282F" mask="url(#mask-4)"></path>
                </g>
                <path d="M1.04413336,156.433024 L1.04413336,183.30757 C1.04413336,188.015427 4.92306924,191.88757 9.67753636,191.88757 L220.02072,191.88757 C224.775187,191.88757 228.665206,188.015427 228.665206,183.30757 L228.665206,156.433024 L1.04413336,156.433024 Z" id="Fill-27" fill="#D1DDE8"></path>
                <polygon id="Fill-29" fill="#6F7B84" points="12.5296003 144.962436 217.179739 144.962436 217.179739 40.6843612 12.5296003 40.6843612"></polygon>
                <polygon id="Fill-31" fill="#626E78" points="89.7954689 40.836114 192.542428 144.962436 217.179739 144.962436 217.179739 40.6843612"></polygon>
                <path d="M120.075336,174.681687 C120.075336,177.273442 117.971656,179.374201 115.376297,179.374201 C112.781817,179.374201 110.678136,177.273442 110.678136,174.681687 C110.678136,172.089933 112.781817,169.989174 115.376297,169.989174 C117.971656,169.989174 120.075336,172.089933 120.075336,174.681687" id="Fill-32" fill="#495361"></path>
                <g id="Group-17" transform="translate(79.075336, 69.823399)">
                    <circle id="Oval" fill="#FFFFFF" cx="36.38672" cy="35.7264613" r="7.9424648"></circle>
                    <path d="M75.2497042,37.5662802 C75.2497042,16.8189965 58.4307077,0 37.683424,0 C16.9361403,0 0.117143792,16.8189965 0.117143792,37.5662802" id="Oval" stroke="#FFFFFF" stroke-width="2.85" stroke-linecap="round"></path>
                    <path d="M79.8287634,8.62502681 C80.33913,9.1104744 80.3794803,9.91074278 79.9205315,10.4450642 L46.5182695,49.3329337 C45.3260256,50.7209782 43.2342885,50.879706 41.8462441,49.6874621 C41.7804731,49.6309689 41.716945,49.5719157 41.6558066,49.5104388 C40.2664086,48.1133498 40.2726434,45.8544558 41.6697324,44.4650578 C41.6735821,44.4612293 41.6774405,44.4574096 41.6813076,44.4535987 L78.0224762,8.64100652 C78.5216125,8.14913013 79.321003,8.14205814 79.8287634,8.62502681 Z" id="Rectangle" fill="#00C0D2" transform="translate(59.934105, 29.905145) rotate(33.000000) translate(-59.934105, -29.905145) "></path>
                </g>
            </g>
        </g>
        <circle id="Oval" fill="#00C0D2" cx="88.9847564" cy="73.4847564" r="3.98475641"></circle>
        <circle id="Oval-Copy" fill="#00C0D2" cx="145.984756" cy="73.4847564" r="3.98475641"></circle>
        <circle id="Oval-Copy-14" fill="#00C0D2" cx="364.984756" cy="69.5" r="3.98475641"></circle>
        <circle id="Oval-Copy-13" fill="#00C0D2" cx="454.484756" cy="69.5" r="3.98475641"></circle>
    </g>
</svg>