<?xml version="1.0" encoding="UTF-8"?>
<svg width="51px" height="95px" viewBox="0 0 51 95" version="1.1" xmlns="http://www.w3.org/2000/svg" xmlns:xlink="http://www.w3.org/1999/xlink">
    <title>Group 49</title>
    <g id="Page-1" stroke="none" stroke-width="1" fill="none" fill-rule="evenodd">
        <g id="Group-49" transform="translate(0.608189, 0.474643)">
            <g id="Group-48" transform="translate(-0.000000, 0.000000)">
                <g id="Group-7-Copy-3" transform="translate(-0.000000, 0.000000)">
                    <g id="Group-4" transform="translate(-0.000000, 0.000000)">
                        <g id="Group-5" transform="translate(-0.000000, 0.000000)">
                            <g id="Group-3" transform="translate(-0.000000, 0.000000)">
                                <g id="Group-2" transform="translate(-0.000000, 0.000000)">
                                    <rect id="Rectangle" stroke="#00C0D2" stroke-width="2.87621053" x="1.43810526" y="1.43810526" width="46.5134143" height="91.4368372" rx="8.05338947"></rect>
                                    <g id="Rectangle-Copy-3" transform="translate(20.444812, 0.048686)" fill="#00C0D2">
                                        <rect x="0" y="3.66817687e-13" width="8.5" height="6.19694775" rx="2.39684211"></rect>
                                    </g>
                                    <rect id="Rectangle-Copy-4" fill="#00C0D2" x="15.0340142" y="88.1215509" width="19.8142068" height="1.61669809" rx="0.808349044"></rect>
                                </g>
                            </g>
                        </g>
                    </g>
                </g>
                <g id="Group-17-Copy-4" transform="translate(8.540507, 27.670975)">
                    <circle id="Oval" fill="#535353" cx="15.5538474" cy="17.9360106" r="3.18706289"></circle>
                    <path d="M31.1483483,18.6742725 C31.1483483,10.3490359 24.3994107,3.60009829 16.0741742,3.60009829 C7.74893766,3.60009829 1,10.3490359 1,18.6742725" id="Oval" stroke="#535353" stroke-width="2.85" stroke-linecap="round"></path>
                    <path d="M18.7277847,1.8251428 C18.9325789,2.01993775 18.9487702,2.34106044 18.7646084,2.55546692 L5.36132461,18.1599536 C4.88291439,18.7169325 4.04356568,18.7806249 3.48658681,18.3022147 C3.46019497,18.2795458 3.43470315,18.2558496 3.41017022,18.2311808 C2.85264822,17.6705727 2.85515005,16.7641491 3.41575821,16.2066271 C3.41730296,16.2050908 3.41885122,16.2035581 3.42040298,16.2020289 L18.0029781,1.83155496 C18.2032659,1.63418034 18.5240364,1.63134257 18.7277847,1.8251428 Z" id="Rectangle" fill="#00C0D2" transform="translate(10.744680, 10.364189) rotate(-75.000000) translate(-10.744680, -10.364189) "></path>
                </g>
            </g>
        </g>
    </g>
</svg>