<?xml version="1.0" encoding="UTF-8"?>
<svg width="721px" height="402px" viewBox="0 0 721 402" version="1.1" xmlns="http://www.w3.org/2000/svg" xmlns:xlink="http://www.w3.org/1999/xlink">
    <title>decodificador_desligar_tomada copy 2</title>
    <g id="Page-1" stroke="none" stroke-width="1" fill="none" fill-rule="evenodd">
        <g id="Group-7-Copy" transform="translate(109.849698, 17.974643)">
            <g id="Group-3" transform="translate(0.000000, 46.000000)">
                <g id="Group-2" transform="translate(0.000000, 52.000000)">
                    <g id="Group-6" transform="translate(112.660338, 102.200000)">
                        <g id="Group-5" transform="translate(0.000000, 0.212697)">
                            <path d="M12.0338251,148.2808 C10.9123855,148.2808 9.99466161,148.157587 9.99466161,148.006982 L9.99466161,141.225198 C9.99466161,141.074594 10.9123855,140.951381 12.0338251,140.951381 L63.5926987,140.951381 C64.7141382,140.951381 65.6316112,141.074594 65.6316112,141.225198 L65.6316112,148.006982 C65.6316112,148.157587 64.7141382,148.2808 63.5926987,148.2808 L12.0338251,148.2808 Z" id="Fill-48-Copy" fill="#2B2B2B" transform="translate(37.813136, 144.616090) scale(1, -1) translate(-37.813136, -144.616090) "></path>
                            <path d="M201.59924,148.2808 C200.477801,148.2808 199.560077,148.157587 199.560077,148.006982 L199.560077,141.225198 C199.560077,141.074594 200.477801,140.951381 201.59924,140.951381 L253.158114,140.951381 C254.279553,140.951381 255.197026,141.074594 255.197026,141.225198 L255.197026,148.006982 C255.197026,148.157587 254.279553,148.2808 253.158114,148.2808 L201.59924,148.2808 Z" id="Fill-48-Copy-2" fill="#2B2B2B" transform="translate(227.378552, 144.616090) scale(1, -1) translate(-227.378552, -144.616090) "></path>
                            <path d="M9.84171113,144.949246 C4.42925434,144.949246 0,142.512547 0,139.534138 L0,5.41510766 C0,2.4366985 4.42925434,0 9.84171113,0 L258.682742,0 C264.095198,0 268.523242,2.4366985 268.523242,5.41510766 L268.523242,139.534138 C268.523242,142.512547 264.095198,144.949246 258.682742,144.949246 L9.84171113,144.949246 Z" id="Fill-48" fill="#444444"></path>
                        </g>
                        <rect id="Rectangle" fill="#C1C1C1" x="0" y="96.8" width="268.8" height="9.6"></rect>
                        <g id="Group-14" transform="translate(116.800000, 33.812697)">
                            <path d="M0.515764979,29.0263524 C6.03434039,7.37171426 1.83046952,-4.83470599 16.4166714,1.81334316 C24.4170501,5.4622452 33.9853786,14.5023765 34.5135758,23.9050102 C35.2472634,36.8595892 -4.97820947,50.5833102 0.515764979,29.0263524 Z" id="Clip-14" fill="#C1C1C1"></path>
                            <path d="M14.5195028,26.3542534 C13.1338896,26.3542534 12.3669183,24.9310152 12.3669183,23.4875173 C12.3669183,22.0454666 13.1338896,20.6613005 14.5195028,20.6613005 C15.9014982,20.6613005 16.6662988,22.0454666 16.6662988,23.4875173 C16.6662988,24.9310152 15.9014982,26.3542534 14.5195028,26.3542534 Z M14.5195028,18.1143771 C11.4979254,18.1143771 9.48788182,20.5057356 9.48788182,23.5041592 C9.48788182,26.5062005 11.4979254,28.8953884 14.5195028,28.8953884 C17.5338447,28.8953884 19.5417176,26.5062005 19.5417176,23.5041592 C19.5417176,20.5057356 17.5338447,18.1143771 14.5195028,18.1143771 Z M22.7159657,18.1201655 C21.7022612,18.1201655 20.8759582,20.5339544 20.8759582,23.5099476 C20.8759582,26.487388 21.7022612,28.8990062 22.7159657,28.8990062 C23.7311173,28.8990062 24.5538025,26.487388 24.5538025,23.5099476 C24.5538025,20.5339544 23.7311173,18.1201655 22.7159657,18.1201655 Z M22.6928118,16.7837542 C23.6920452,16.7837542 24.497365,15.9740931 24.497365,14.9763068 C24.497365,13.9814148 23.6920452,13.1732008 22.6928118,13.1732008 C21.6979199,13.1732008 20.8911529,13.9814148 20.8911529,14.9763068 C20.8911529,15.9740931 21.6979199,16.7837542 22.6928118,16.7837542 L22.6928118,16.7837542 Z" id="Fill-16" fill="#444444"></path>
                        </g>
                    </g>
                    <g id="Group-4" transform="translate(414.642289, 73.326882) rotate(-93.000000) translate(-414.642289, -73.326882) translate(345.142289, 8.326882)" stroke="#00C0D2" stroke-linecap="round" stroke-width="12">
                        <g id="icon_blarga_sconexao-copy-3" transform="translate(69.200000, 65.052669) rotate(-219.000000) translate(-69.200000, -65.052669) translate(5.600000, 33.852669)">
                            <g id="offline_icon-copy-3" transform="translate(0.633962, 0.633962)">
                                <g id="Group-9" transform="translate(0.271698, 0.671698)">
                                    <path d="M124.901706,27.5891492 C109.52919,10.6425568 87.3324501,-4.88498131e-15 62.6500082,-4.88498131e-15 C37.7535623,-4.88498131e-15 15.3861091,10.827905 5.32907052e-15,28.0313637" id="Oval"></path>
                                    <path d="M105.602648,44.1345556 C95.0296771,32.4789604 79.7631147,25.1591801 62.7869259,25.1591801 C45.6635486,25.1591801 30.2795721,32.6064399 19.6972523,44.4387037" id="Oval-Copy-2"></path>
                                    <path d="M85.9420198,60.0909258 C80.2085879,53.7704163 71.9299498,49.8011001 62.7242283,49.8011001 C53.4386905,49.8011001 45.096382,53.8395449 39.3578803,60.255857" id="Oval-Copy-3"></path>
                                </g>
                            </g>
                        </g>
                    </g>
                    <g id="Group-4-Copy" transform="translate(79.738964, 77.022563) rotate(-190.000000) translate(-79.738964, -77.022563) translate(10.538964, 12.222563)" stroke="#00C0D2" stroke-linecap="round" stroke-width="12">
                        <g id="icon_blarga_sconexao-copy-4" transform="translate(69.200000, 65.052669) rotate(-219.000000) translate(-69.200000, -65.052669) translate(5.600000, 33.852669)">
                            <g id="offline_icon-copy-4" transform="translate(0.633962, 0.633962)">
                                <g id="Group-9" transform="translate(0.271698, 0.671698)">
                                    <path d="M124.901706,27.5891492 C109.52919,10.6425568 87.3324501,-4.88498131e-15 62.6500082,-4.88498131e-15 C37.7535623,-4.88498131e-15 15.3861091,10.827905 5.32907052e-15,28.0313637" id="Oval"></path>
                                    <path d="M105.602648,44.1345556 C95.0296771,32.4789604 79.7631147,25.1591801 62.7869259,25.1591801 C45.6635486,25.1591801 30.2795721,32.6064399 19.6972523,44.4387037" id="Oval-Copy-2"></path>
                                    <path d="M85.9420198,60.0909258 C80.2085879,53.7704163 71.9299498,49.8011001 62.7242283,49.8011001 C53.4386905,49.8011001 45.096382,53.8395449 39.3578803,60.255857" id="Oval-Copy-3"></path>
                                </g>
                            </g>
                        </g>
                    </g>
                </g>
                <path d="M18.408,52 L18.408,48.061 L7.215,48.061 L14.508,40.495 C15.834,39.143 16.8155,37.856 17.4525,36.634 C18.0895,35.412 18.408,33.982 18.408,32.344 C18.408,29.172 17.446,27.04 15.522,25.948 C13.598,24.856 11.765,24.31 10.023,24.31 C8.281,24.31 6.448,24.8755 4.524,26.0065 C2.6,27.1375 1.638,29.354 1.638,32.656 L1.638,33.085 L5.733,33.085 L5.733,32.734 C5.733,31.226 6.1295,30.1015 6.9225,29.3605 C7.7155,28.6195 8.749,28.249 10.023,28.249 C11.297,28.249 12.3305,28.5935 13.1235,29.2825 C13.9165,29.9715 14.313,31.018 14.313,32.422 C14.313,33.436 14.0595,34.3655 13.5525,35.2105 C13.0455,36.0555 12.337,36.959 11.427,37.921 L1.638,48.061 L1.638,52 L18.408,52 Z M28.0256787,52 L28.0256787,46.774 L22.7996787,46.774 L22.7996787,52 L28.0256787,52 Z M46.8083574,52 L46.8083574,45.253 L49.6553574,45.253 L49.6553574,41.47 L46.8083574,41.47 L46.8083574,24.7 L42.7133574,24.7 L30.5843574,41.47 L30.5843574,45.253 L42.7133574,45.253 L42.7133574,52 L46.8083574,52 Z M42.7133574,41.47 L35.3423574,41.47 L42.7133574,31.291 L42.7133574,41.47 Z M69.8657148,52.39 C72.7777148,52.39 75.1372148,51.519 76.9442148,49.777 C78.7512148,48.035 79.6547148,45.695 79.6547148,42.757 L79.6547148,36.985 L69.8657148,36.985 L69.8657148,41.002 L75.4817148,41.002 L75.4817148,42.757 C75.4817148,44.655 74.8837148,46.046 73.6877148,46.93 C72.4917148,47.814 71.2177148,48.256 69.8657148,48.256 C68.5137148,48.256 67.2397148,47.814 66.0437148,46.93 C64.8477148,46.046 64.2497148,44.655 64.2497148,42.757 L64.2497148,33.943 C64.2497148,32.045 64.8477148,30.654 66.0437148,29.77 C67.2397148,28.886 68.5137148,28.444 69.8657148,28.444 C71.1137148,28.444 72.3032148,28.8145 73.4342148,29.5555 C74.5652148,30.2965 75.2347148,31.46 75.4427148,33.046 L79.6157148,33.046 C79.4337148,30.368 78.4522148,28.2425 76.6712148,26.6695 C74.8902148,25.0965 72.6217148,24.31 69.8657148,24.31 C66.9537148,24.31 64.5942148,25.181 62.7872148,26.923 C60.9802148,28.665 60.0767148,31.005 60.0767148,33.943 L60.0767148,42.757 C60.0767148,45.695 60.9802148,48.035 62.7872148,49.777 C64.5942148,51.519 66.9537148,52.39 69.8657148,52.39 Z M88.1023935,52 L88.1023935,40.3 L99.3343935,40.3 L99.3343935,52 L103.507393,52 L103.507393,24.7 L99.3343935,24.7 L99.3343935,36.166 L88.1023935,36.166 L88.1023935,24.7 L83.9293935,24.7 L83.9293935,52 L88.1023935,52 Z M122.173072,52 L122.173072,48.139 L112.267072,48.139 L121.900072,35.737 L121.900072,31.876 L107.431072,31.876 L107.431072,35.737 L116.791072,35.737 L107.158072,48.139 L107.158072,52 L122.173072,52 Z" id="2.4GHz" fill="#535353" fill-rule="nonzero"></path>
                <path d="M380.42,52.39 C382.37,52.39 384.2095,51.792 385.9385,50.596 C387.6675,49.4 388.532,47.359 388.532,44.473 L388.532,42.757 C388.532,39.455 387.6025,37.2385 385.7435,36.1075 C383.8845,34.9765 382.162,34.411 380.576,34.411 C379.77,34.411 378.9445,34.541 378.0995,34.801 C377.2545,35.061 376.624,35.399 376.208,35.815 L376.208,28.639 L387.479,28.639 L387.479,24.7 L372.113,24.7 L372.113,40.768 L376.208,40.768 C376.52,39.962 377.0205,39.3575 377.7095,38.9545 C378.3985,38.5515 379.211,38.35 380.147,38.35 C381.421,38.35 382.4545,38.7205 383.2475,39.4615 C384.0405,40.2025 384.437,41.327 384.437,42.835 L384.437,44.473 C384.437,45.799 384.0535,46.7935 383.2865,47.4565 C382.5195,48.1195 381.525,48.451 380.303,48.451 C379.081,48.451 378.041,48.1 377.183,47.398 C376.325,46.696 375.883,45.643 375.857,44.239 L375.857,44.2 L371.762,44.2 L371.762,44.239 C371.814,47.463 372.815,49.6275 374.765,50.7325 C376.715,51.8375 378.6,52.39 380.42,52.39 Z M397.798679,52 L397.798679,46.774 L392.572679,46.774 L392.572679,52 L397.798679,52 Z M411.004357,52.39 C412.746357,52.39 414.579357,51.8245 416.503357,50.6935 C418.427357,49.5625 419.389357,47.346 419.389357,44.044 L419.389357,32.656 C419.389357,29.354 418.427357,27.1375 416.503357,26.0065 C414.579357,24.8755 412.746357,24.31 411.004357,24.31 C409.262357,24.31 407.429357,24.8755 405.505357,26.0065 C403.581357,27.1375 402.619357,29.354 402.619357,32.656 L402.619357,44.044 C402.619357,47.346 403.581357,49.5625 405.505357,50.6935 C407.429357,51.8245 409.262357,52.39 411.004357,52.39 Z M411.004357,48.451 C409.730357,48.451 408.696857,48.0805 407.903857,47.3395 C407.110857,46.5985 406.714357,45.474 406.714357,43.966 L406.714357,32.734 C406.714357,31.226 407.110857,30.1015 407.903857,29.3605 C408.696857,28.6195 409.730357,28.249 411.004357,28.249 C412.278357,28.249 413.311857,28.6195 414.104857,29.3605 C414.897857,30.1015 415.294357,31.226 415.294357,32.734 L415.294357,43.966 C415.294357,45.474 414.897857,46.5985 414.104857,47.3395 C413.311857,48.0805 412.278357,48.451 411.004357,48.451 Z M441.003715,52.39 C443.915715,52.39 446.275215,51.519 448.082215,49.777 C449.889215,48.035 450.792715,45.695 450.792715,42.757 L450.792715,36.985 L441.003715,36.985 L441.003715,41.002 L446.619715,41.002 L446.619715,42.757 C446.619715,44.655 446.021715,46.046 444.825715,46.93 C443.629715,47.814 442.355715,48.256 441.003715,48.256 C439.651715,48.256 438.377715,47.814 437.181715,46.93 C435.985715,46.046 435.387715,44.655 435.387715,42.757 L435.387715,33.943 C435.387715,32.045 435.985715,30.654 437.181715,29.77 C438.377715,28.886 439.651715,28.444 441.003715,28.444 C442.251715,28.444 443.441215,28.8145 444.572215,29.5555 C445.703215,30.2965 446.372715,31.46 446.580715,33.046 L450.753715,33.046 C450.571715,30.368 449.590215,28.2425 447.809215,26.6695 C446.028215,25.0965 443.759715,24.31 441.003715,24.31 C438.091715,24.31 435.732215,25.181 433.925215,26.923 C432.118215,28.665 431.214715,31.005 431.214715,33.943 L431.214715,42.757 C431.214715,45.695 432.118215,48.035 433.925215,49.777 C435.732215,51.519 438.091715,52.39 441.003715,52.39 Z M459.240393,52 L459.240393,40.3 L470.472394,40.3 L470.472394,52 L474.645394,52 L474.645394,24.7 L470.472394,24.7 L470.472394,36.166 L459.240393,36.166 L459.240393,24.7 L455.067393,24.7 L455.067393,52 L459.240393,52 Z M493.311072,52 L493.311072,48.139 L483.405072,48.139 L493.038072,35.737 L493.038072,31.876 L478.569072,31.876 L478.569072,35.737 L487.929072,35.737 L478.296072,48.139 L478.296072,52 L493.311072,52 Z" id="5.0GHz" fill="#535353" fill-rule="nonzero"></path>
            </g>
            <g id="Group-17-Copy" transform="translate(394.000000, 10.000000)">
                <circle id="Oval" fill="#535353" cx="36.38672" cy="35.7264613" r="7.9424648"></circle>
                <path d="M75.2497042,37.5662802 C75.2497042,16.8189965 58.4307077,0 37.683424,0 C16.9361403,0 0.117143792,16.8189965 0.117143792,37.5662802" id="Oval" stroke="#535353" stroke-width="2.85" stroke-linecap="round"></path>
                <path d="M79.8287634,8.62502681 C80.33913,9.1104744 80.3794803,9.91074278 79.9205315,10.4450642 L46.5182695,49.3329337 C45.3260256,50.7209782 43.2342885,50.879706 41.8462441,49.6874621 C41.7804731,49.6309689 41.716945,49.5719157 41.6558066,49.5104388 C40.2664086,48.1133498 40.2726434,45.8544558 41.6697324,44.4650578 C41.6735821,44.4612293 41.6774405,44.4574096 41.6813076,44.4535987 L78.0224762,8.64100652 C78.5216125,8.14913013 79.321003,8.14205814 79.8287634,8.62502681 Z" id="Rectangle" fill="#00C0D2" transform="translate(59.934105, 29.905145) rotate(33.000000) translate(-59.934105, -29.905145) "></path>
            </g>
            <g id="Group-17-Copy-2" transform="translate(15.000000, 0.000000)">
                <circle id="Oval" fill="#535353" cx="40.38672" cy="45.7264613" r="7.9424648"></circle>
                <path d="M79.2497042,47.5662802 C79.2497042,26.8189965 62.4307077,10 41.683424,10 C20.9361403,10 4.11714379,26.8189965 4.11714379,47.5662802" id="Oval" stroke="#535353" stroke-width="2.85" stroke-linecap="round"></path>
                <path d="M47.5710535,5.08454618 C48.0814201,5.56999377 48.1217704,6.37026216 47.6628215,6.90458357 L14.2605596,45.7924531 C13.0683157,47.1804976 10.9765786,47.3392253 9.58853413,46.1469814 C9.52276315,46.0904882 9.4592351,46.031435 9.39809671,45.9699582 C8.0086987,44.5728692 8.01493349,42.3139752 9.4120225,40.9245771 C9.41587218,40.9207487 9.4197306,40.916929 9.42359772,40.9131181 L45.7647663,5.10052589 C46.2639025,4.6086495 47.0632931,4.60157752 47.5710535,5.08454618 Z" id="Rectangle" fill="#00C0D2" transform="translate(27.676395, 26.364664) rotate(-75.000000) translate(-27.676395, -26.364664) "></path>
            </g>
        </g>
    </g>
</svg>