<?xml version="1.0" encoding="UTF-8"?>
<svg width="721px" height="402px" viewBox="0 0 721 402" version="1.1" xmlns="http://www.w3.org/2000/svg" xmlns:xlink="http://www.w3.org/1999/xlink">
    <title>decodificador_desligar_tomada copy 4</title>
    <defs>
        <path d="M204.420362,10.4864335 C198.638282,19.7383304 22.8664969,78.7152529 2.62921984,97.7963993 L2.62921984,97.7963993 C-17.6080573,116.87612 100.924566,148.097352 125.786366,150.989817 L125.786366,150.989817 C150.648166,153.880857 190.811947,102.26411 232.753405,69.463356 L232.753405,69.463356 C277.852482,34.1935284 298.089759,33.6147502 309.653917,27.2553185 L309.653917,27.2553185 C321.218076,20.8944612 317.748258,14.5336038 317.748258,14.5336038 L317.748258,14.5336038 C317.748258,14.5336038 316.592127,20.8944612 308.497787,22.0505919 L308.497787,22.0505919 C300.402021,23.2067226 288.837862,22.6279445 282.47843,23.7855007 L282.47843,23.7855007 C276.118999,24.9416315 249.520864,40.5529601 220.03169,58.4765502 L220.03169,58.4765502 C190.543942,76.4015659 167.994403,72.3543956 167.994403,72.3543956 L167.994403,72.3543956 C167.994403,72.3543956 173.077957,52.3067182 189.387811,37.084568 L189.387811,37.084568 C206.734049,20.8944612 229.283587,12.8001205 234.486888,9.33030281 L234.486888,9.33030281 C239.691615,5.86048508 242.003876,4.12700178 237.577506,1.18179084 L237.577506,1.18179084 C237.102794,0.865316089 236.348672,0.724185459 235.37929,0.724185459 L235.37929,0.724185459 C227.314886,0.724185459 204.420362,10.4864335 204.420362,10.4864335" id="path-1"></path>
        <linearGradient x1="42.9734638%" y1="56.1760976%" x2="50%" y2="37.5360305%" id="linearGradient-3">
            <stop stop-color="#FFFFFF" offset="0%"></stop>
            <stop stop-color="#000000" offset="100%"></stop>
        </linearGradient>
        <linearGradient x1="49.281254%" y1="3.45065584%" x2="48.2279091%" y2="9.73998301%" id="linearGradient-4">
            <stop stop-color="#7F7F7F" offset="0%"></stop>
            <stop stop-color="#454545" offset="100%"></stop>
        </linearGradient>
    </defs>
    <g id="Page-1" stroke="none" stroke-width="1" fill="none" fill-rule="evenodd">
        <g id="Group-14" transform="translate(41.359824, 6.988707)">
            <g id="Group-97" opacity="0.15" style="mix-blend-mode: multiply;" transform="translate(0.000000, 287.756073)">
                <mask id="mask-2" fill="white">
                    <use xlink:href="#path-1"></use>
                </mask>
                <g id="Clip-96"></g>
                <path d="M40.8842953,78.0710061 L146.043059,139.050929 C170.904858,141.941968 190.811947,102.26411 232.753405,69.463356 C277.852482,34.1935284 298.089759,33.6147502 309.653917,27.2553185 C321.218076,20.8944612 317.748258,14.5336038 317.748258,14.5336038 C317.748258,14.5336038 316.592127,20.8944612 308.497787,22.0505919 C300.402021,23.2067226 288.837862,22.6279445 282.47843,23.7855007 C276.118999,24.9416315 249.520864,40.5529601 220.03169,58.4765502 C190.543942,76.4015659 167.994403,72.3543956 167.994403,72.3543956 C167.994403,72.3543956 173.077957,52.3067182 189.387811,37.084568 C206.734049,20.8944612 229.283587,12.8001205 234.486888,9.33030281 C239.691615,5.86048508 242.003876,4.12700178 237.577506,1.18179084 C237.102794,0.865316089 236.348672,0.724185459 235.37929,0.724185459 C227.314886,0.72561102 204.420362,10.4864335 204.420362,10.4864335 C198.638282,19.7383304 61.1215724,58.9898597 40.8842953,78.0710061 Z" id="Fill-95" fill="url(#linearGradient-3)" style="mix-blend-mode: screen;" mask="url(#mask-2)"></path>
            </g>
            <path d="M250.453609,60.8693392 C250.453609,60.8693392 263.326434,76.1955554 268.579629,86.1474032 C273.831399,96.0978255 272.953253,96.1234856 275.986849,90.297214 C279.02187,84.4709424 278.340452,79.4743479 281.510902,75.897613 C284.679926,72.3194526 289.890355,61.1316426 290.261001,58.1636226 C290.633072,55.1956027 293.60822,49.7585095 298.274084,46.8061708 C302.941374,43.853832 307.421915,40.5550817 306.029141,47.1098155 C304.466725,56.34318 298.209934,60.3276256 297.281893,65.9172539 C297.281893,65.9172539 296.207019,67.7433988 295.786479,72.6131183 C295.364512,77.4842634 293.773585,109.952862 281.335557,113.235931 C268.89753,116.520426 247.491292,89.7882884 246.308075,86.5836252 C245.123433,83.3803875 250.453609,60.8693392 250.453609,60.8693392" id="Fill-44" fill="#FF944D"></path>
            <polygon id="Fill-46" fill="#EA298C" points="298.052695 30.8739481 309.055181 37.122186 291.781648 65.182947 281.422089 58.0708185"></polygon>
            <polygon id="Fill-48" fill="#9D2EFF" points="296.796204 28.4245476 308.360363 35.1474977 289.835185 65.9866788 278.958148 58.312879"></polygon>
            <polygon id="Fill-50" fill="#00CEFF" points="296.292268 31.8923696 304.949706 36.9246032 291.081839 60.0087274 282.93903 54.2651384"></polygon>
            <path d="M240.174738,41.6597497 C240.174738,41.6597497 238.642259,46.4425099 246.076564,52.2887394 C253.509444,58.1349688 265.948897,62.9106013 265.948897,62.9106013 C265.948897,62.9106013 260.584508,55.9695403 262.233883,51.3207828 C263.881833,46.6734509 270.469354,48.8317517 272.790169,41.5214701 C275.110984,34.2111886 274.272753,9.77135492 257.623616,6.04493605 C250.130862,6.5709684 239.43202,14.9703793 241.414977,27.5024942 C243.399359,40.0346091 243.932519,41.5129168 240.174738,41.6597497" id="Fill-52" fill="#FF944D"></path>
            <path d="M242.90811,39.8485732 C242.90811,39.8485732 247.076453,34.4727792 249.877682,34.1862413 C252.678912,33.9011289 253.702465,32.3829054 251.269031,29.3293518 C248.835597,26.2757981 248.755765,20.8600884 251.813596,20.7845336 C254.871426,20.7089788 256.185794,24.3470128 255.942023,31.2110935 C256.174389,31.186859 259.584334,32.2546048 259.976363,29.149731 C260.366967,26.0434315 257.866531,24.6478064 259.495949,22.1245618 C261.125366,19.5998916 260.773252,18.456591 258.716166,16.7801301 C256.659081,15.1036693 249.973195,9.6523205 254.684677,7.28731327 C259.394734,4.92088047 264.515352,9.46842301 264.515352,9.46842301 C264.515352,9.46842301 266.744931,2.99209518 262.310008,3.44399831 C257.87651,3.89590144 254.165773,4.50889307 255.118048,2.29071871 C256.071749,0.0711187955 252.122942,-1.64953445 249.260414,2.65138588 C246.39646,6.95088065 231.550658,7.04924442 242.90811,39.8485732" id="Fill-54" fill="#7824CD"></path>
            <path d="M273.534027,35.2572659 C272.504772,35.3613319 267.606541,35.67353 265.071892,32.43893 C264.714076,31.9798991 264.793907,31.3170128 265.252938,30.9577712 C265.709118,30.5956784 266.374855,30.678361 266.734097,31.137392 C268.776927,33.7433192 273.686562,33.1317531 273.735032,33.1117952 C273.886141,33.6449554 273.853353,34.7996606 273.717925,35.2373081 C273.712223,35.2572659 273.633817,35.247287 273.534027,35.2572659" id="Fill-56" fill="#FFFFFF"></path>
            <g id="Group-62" transform="translate(209.557603, 41.133860)">
                <path d="M104.963468,119.414048 C115.479838,129.46426 117.619607,132.966865 116.241088,135.129443 C111.652204,142.304296 102.234942,136.66905 91.0556857,124.139786 C82.2556919,114.283451 70.3807611,87.8335746 65.1746089,77.2844164 L65.2829516,77.2316706 C65.2829516,77.2316706 72.5832542,66.8108129 83.7525319,70.9078779 C90.3443303,90.7531255 98.3645417,113.110213 104.963468,119.414048" id="Fill-58" fill="#FF944D"></path>
                <path d="M83.7526745,70.9074502 C72.5833968,66.8103852 65.2816686,77.2326685 65.2816686,77.2326685 L65.1747515,77.2854143 C63.7648707,74.4143326 62.8425321,72.7250417 62.6001866,72.8490656 C61.4711416,73.4321204 70.7358685,136.624429 70.7358685,136.624429 L0.170553184,108.211555 C0.170553184,108.211555 1.82277946,64.8331308 1.94252666,53.7850259 C2.15208426,32.7822221 11.7846062,2.33079375 30.6889829,0.404859587 C30.9755208,0.842507098 27.5826835,9.21055561 53.9284934,20.1945102 C53.9284934,20.1945102 67.672336,27.7642441 72.7986566,38.7881145 C74.9555318,43.4226163 78.9898721,56.5078492 83.7526745,70.9074502" id="Fill-60" fill="#58585B"></path>
            </g>
            <g id="Group-69" transform="translate(202.429794, 149.136799)">
                <path d="M94.218865,146.981478 C100.581148,155.700215 118.145496,149.355039 117.853256,154.960348 C117.532505,161.118776 98.166246,165.453909 89.3477199,166.818172 C80.5306194,168.18386 83.6041309,165.988495 82.097312,155.771493 C81.9661603,154.907602 81.7451982,153.841282 81.4358512,152.612448 C82.9669048,152.640959 93.2010138,152.545446 93.9451571,147.079842 L94.218865,146.981478 Z" id="Fill-63" fill="#7A24CD"></path>
                <path d="M94.218865,146.981478 L93.9451571,147.079842 C93.2010138,152.545446 82.9669048,152.640959 81.4358512,152.612448 C78.1670377,139.406042 65.6320717,107.050063 61.6618818,89.4572031 C56.9703575,68.6696591 48.1261713,39.9018194 39.0724275,38.9424162 C30.0058536,37.9844386 19.8815128,114.468687 18.2692023,126.419173 C18.0111756,128.34083 18.1551573,129.883288 18.608486,131.139208 L18.2250099,131.263232 C16.5385701,135.961884 3.6286813,133.539855 2.27154635,133.268998 C3.56167989,107.868335 7.29665214,0.198494198 7.29665214,0.198494198 L77.8534141,28.5115796 C78.0088004,34.6243892 88.4881061,130.587516 92.6678537,143.842391 C93.0470531,145.062672 93.5773622,146.099055 94.218865,146.981478" id="Fill-65" fill="#CB5205"></path>
                <path d="M35.1471427,139.330202 C39.7759423,143.102239 19.246425,149.90502 7.66230878,152.031959 C-3.90755182,154.144642 1.12325622,147.971958 1.98714675,137.98162 C2.0598504,137.166199 2.14966081,135.545335 2.27083357,133.268713 C3.62939409,133.539569 16.5378573,135.961599 18.2242971,131.262947 L18.6077732,131.138923 C20.8829701,137.640911 31.2582098,136.159752 35.1471427,139.330202" id="Fill-67" fill="#7A24CD"></path>
            </g>
            <path d="M215.900412,151.373704 L217.184843,162.212251 C217.184843,162.212251 216.705854,168.963713 221.444422,170.675813 C226.18299,172.386487 230.801811,172.695834 232.012113,166.235187 C231.861003,164.481746 231.669978,158.140847 231.669978,158.140847" id="Stroke-70" stroke="#B41F73" stroke-width="0.812"></path>
        </g>
        <g id="Group-3" transform="translate(486.359824, 48.988707)">
            <path d="M10.9261019,-1.10134124e-13 L79.1264667,47.169324 L67.9923837,51.5196587 C65.8186364,52.3689903 63.3645804,52.0791424 61.4485142,50.7467641 L0.448653614,8.32918389 L0.448653614,8.32918389 L10.9261019,-1.10134124e-13 Z" id="Rectangle-Copy-2" fill="#7F7F7F" transform="translate(39.787560, 26.030203) scale(-1, -1) translate(-39.787560, -26.030203) "></path>
            <path d="M69.2654005,44.0206854 L80.0633209,52.7581592 L80.0633209,52.7581592 L76.6062764,118.086812 L66.0073259,110.507944 L66.0073259,45.5754356 C66.0073259,44.4708661 66.9027564,43.5754356 68.0073259,43.5754356 C68.465293,43.5754356 68.9093882,43.7326069 69.2654005,44.0206854 Z" id="Rectangle-Copy" fill="url(#linearGradient-4)" transform="translate(73.035323, 80.755470) scale(-1, 1) translate(-73.035323, -80.755470) "></path>
            <path d="M3.1394631,5.07925565 L66.4524912,48.9708048 C68.3389582,50.2785919 69.4643704,52.4281765 69.4643704,54.7236208 L69.4643704,118.086812 L69.4643704,118.086812 L4.19220214e-13,69.9308649 L4.19220214e-13,6.72291737 C4.19482594e-13,5.61834787 0.8954305,4.72291737 2,4.72291737 C2.40724178,4.72291737 2.80477924,4.84723716 3.1394631,5.07925565 Z" id="Rectangle" fill="#5E5E5E"></path>
            <polygon id="Rectangle" fill="#D8D8D8" points="0.448653614 48.083859 69.3385752 98.4337791 69.3385752 102.157559 0.448653614 51.8076385"></polygon>
        </g>
        <g id="Group-2" transform="translate(359.359824, 50.988707)" stroke="#00C0D2" stroke-linecap="round" stroke-width="5">
            <path d="M99.4240563,95.467561 C118.682683,95.467561 136.014736,91.1557708 148.079976,84.2782242 C158.85061,78.1386415 165.424056,69.9543756 165.424056,60.967561 C165.424056,41.9137372 135.87485,26.467561 99.4240563,26.467561 C77.2380938,26.467561 57.6089005,32.189768 45.6431305,40.9647946" id="Oval" opacity="0.699999988" transform="translate(105.533593, 60.967561) scale(-1, -1) translate(-105.533593, -60.967561) "></path>
            <path d="M97.6110446,108.4417 C123.970718,108.4417 147.69345,102.540065 164.207389,93.1266279 C178.949375,84.7232564 187.946584,73.5212857 187.946584,61.2208502 C187.946584,35.1414947 147.501985,14 97.6110446,14 C67.2446674,14 40.3777923,21.8321008 24,33.8426578" id="Oval-Copy-2" opacity="0.5" transform="translate(105.973292, 61.220850) scale(-1, -1) translate(-105.973292, -61.220850) "></path>
            <path d="M95.233814,121.865705 C129.087049,121.865705 159.553711,114.286346 180.762255,102.196844 C199.695112,91.4045513 211.250059,77.0180696 211.250059,61.2208502 C211.250059,27.7276214 159.307817,0.575994874 95.233814,0.575994874 C56.2348433,0.575994874 21.7302177,10.6346155 0.696525188,26.0595494" id="Oval-Copy-3" opacity="0.300000012" transform="translate(105.973292, 61.220850) scale(-1, -1) translate(-105.973292, -61.220850) "></path>
            <path d="M102.415383,81.0587504 C113.630708,81.0587504 123.724086,78.547765 130.750319,74.542603 C137.022634,70.9671966 140.850702,66.2010623 140.850702,60.967561 C140.850702,49.8715036 123.642623,40.8763717 102.415383,40.8763717 C89.4953141,40.8763717 78.0641883,44.2087179 71.0958825,49.3188837" id="Oval-Copy" opacity="0.900000036" transform="translate(105.973292, 60.967561) scale(-1, -1) translate(-105.973292, -60.967561) "></path>
        </g>
        <line x1="565.486291" y1="254.696853" x2="368.532958" y2="344.988707" id="Line-3" stroke="#5F5F5F" stroke-width="3" stroke-linecap="square" stroke-dasharray="9"></line>
        <line x1="567.359824" y1="195.610777" x2="567.359824" y2="266.377379" id="Line-4-Copy" stroke="#5F5F5F" stroke-width="2" stroke-linecap="square"></line>
        <line x1="366.832559" y1="288.699449" x2="366.832559" y2="359.466051" id="Line-4-Copy-3" stroke="#5F5F5F" stroke-width="2" stroke-linecap="square"></line>
        <path d="M481.503824,340.988707 L481.503824,324.188707 L479.703824,324.188707 L476.487824,326.948707 L476.487824,329.228707 L479.703824,326.468707 L479.703824,340.988707 L481.503824,340.988707 Z M491.596456,340.988707 L491.596456,333.092707 C491.596456,332.100707 491.892456,331.336707 492.484456,330.800707 C493.076456,330.264707 493.740456,329.996707 494.476456,329.996707 C495.180456,329.996707 495.832456,330.260707 496.432456,330.788707 C497.032456,331.316707 497.332456,332.036707 497.332456,332.948707 L497.332456,340.988707 L499.132456,340.988707 L499.132456,333.092707 C499.132456,332.100707 499.428456,331.336707 500.020456,330.800707 C500.612456,330.264707 501.276456,329.996707 502.012456,329.996707 C502.716456,329.996707 503.368456,330.260707 503.968456,330.788707 C504.568456,331.316707 504.868456,332.036707 504.868456,332.948707 L504.868456,340.988707 L506.668456,340.988707 L506.668456,333.116707 C506.668456,331.372707 506.164456,330.128707 505.156456,329.384707 C504.148456,328.640707 503.092456,328.268707 501.988456,328.268707 C501.300456,328.268707 500.604456,328.420707 499.900456,328.724707 C499.196456,329.028707 498.636456,329.524707 498.220456,330.212707 C497.804456,329.524707 497.248456,329.028707 496.552456,328.724707 C495.856456,328.420707 495.164456,328.268707 494.476456,328.268707 C494.028456,328.268707 493.512456,328.396707 492.928456,328.652707 C492.344456,328.908707 491.900456,329.284707 491.596456,329.780707 L491.596456,328.604707 L489.796456,328.604707 L489.796456,340.988707 L491.596456,340.988707 Z M514.138772,341.228707 C515.210772,341.228707 516.242772,340.924707 517.234772,340.316707 C518.226772,339.708707 518.802772,338.636707 518.962772,337.100707 L517.114772,337.100707 C516.970772,337.900707 516.614772,338.500707 516.046772,338.900707 C515.478772,339.300707 514.842772,339.500707 514.138772,339.500707 C513.338772,339.500707 512.630772,339.240707 512.014772,338.720707 C511.398772,338.200707 511.090772,337.428707 511.090772,336.404707 L511.090772,335.204707 L518.986772,335.204707 L518.986772,333.116707 C518.986772,331.308707 518.466772,330.048707 517.426772,329.336707 C516.386772,328.624707 515.290772,328.268707 514.138772,328.268707 C512.986772,328.268707 511.890772,328.624707 510.850772,329.336707 C509.810772,330.048707 509.290772,331.308707 509.290772,333.116707 L509.290772,336.380707 C509.290772,338.188707 509.810772,339.448707 510.850772,340.160707 C511.890772,340.872707 512.986772,341.228707 514.138772,341.228707 Z M517.186772,333.548707 L511.090772,333.548707 L511.090772,333.092707 C511.090772,332.068707 511.398772,331.296707 512.014772,330.776707 C512.630772,330.256707 513.338772,329.996707 514.138772,329.996707 C514.938772,329.996707 515.646772,330.256707 516.262772,330.776707 C516.878772,331.296707 517.186772,332.068707 517.186772,333.092707 L517.186772,333.548707 Z M527.081087,340.988707 L527.081087,339.260707 L525.185087,339.260707 C524.753087,339.260707 524.453087,339.180707 524.285087,339.020707 C524.117087,338.860707 524.033087,338.580707 524.033087,338.180707 L524.033087,338.180707 L524.033087,330.332707 L527.081087,330.332707 L527.081087,328.604707 L524.033087,328.604707 L524.033087,325.796707 L522.233087,325.796707 L522.233087,328.604707 L520.481087,328.604707 L520.481087,330.332707 L522.233087,330.332707 L522.233087,338.036707 C522.233087,339.092707 522.437087,339.848707 522.845087,340.304707 C523.253087,340.760707 524.033087,340.988707 525.185087,340.988707 L525.185087,340.988707 L527.081087,340.988707 Z M531.167403,340.988707 L531.167403,333.212707 C531.167403,332.188707 531.475403,331.416707 532.091403,330.896707 C532.707403,330.376707 533.415403,330.116707 534.215403,330.116707 L535.007403,330.116707 L535.007403,328.388707 L534.215403,328.388707 C533.655403,328.388707 533.083403,328.516707 532.499403,328.772707 C531.915403,329.028707 531.471403,329.404707 531.167403,329.900707 L531.167403,328.604707 L529.367403,328.604707 L529.367403,340.988707 L531.167403,340.988707 Z M541.205719,341.228707 C542.357719,341.228707 543.453719,340.872707 544.493719,340.160707 C545.533719,339.448707 546.053719,338.188707 546.053719,336.380707 L546.053719,333.116707 C546.053719,331.308707 545.533719,330.048707 544.493719,329.336707 C543.453719,328.624707 542.357719,328.268707 541.205719,328.268707 C540.053719,328.268707 538.957719,328.624707 537.917719,329.336707 C536.877719,330.048707 536.357719,331.308707 536.357719,333.116707 L536.357719,336.380707 C536.357719,338.188707 536.877719,339.448707 537.917719,340.160707 C538.957719,340.872707 540.053719,341.228707 541.205719,341.228707 Z M541.205719,339.500707 C540.405719,339.500707 539.697719,339.240707 539.081719,338.720707 C538.465719,338.200707 538.157719,337.428707 538.157719,336.404707 L538.157719,333.092707 C538.157719,332.068707 538.465719,331.296707 539.081719,330.776707 C539.697719,330.256707 540.405719,329.996707 541.205719,329.996707 C542.005719,329.996707 542.713719,330.256707 543.329719,330.776707 C543.945719,331.296707 544.253719,332.068707 544.253719,333.092707 L544.253719,336.404707 C544.253719,337.428707 543.945719,338.200707 543.329719,338.720707 C542.713719,339.240707 542.005719,339.500707 541.205719,339.500707 Z M558.282351,341.228707 C559.354351,341.228707 560.386351,340.924707 561.378351,340.316707 C562.370351,339.708707 562.946351,338.636707 563.106351,337.100707 L561.258351,337.100707 C561.114351,337.900707 560.758351,338.500707 560.190351,338.900707 C559.622351,339.300707 558.986351,339.500707 558.282351,339.500707 C557.482351,339.500707 556.774351,339.240707 556.158351,338.720707 C555.542351,338.200707 555.234351,337.428707 555.234351,336.404707 L555.234351,335.204707 L563.130351,335.204707 L563.130351,333.116707 C563.130351,331.308707 562.610351,330.048707 561.570351,329.336707 C560.530351,328.624707 559.434351,328.268707 558.282351,328.268707 C557.130351,328.268707 556.034351,328.624707 554.994351,329.336707 C553.954351,330.048707 553.434351,331.308707 553.434351,333.116707 L553.434351,336.380707 C553.434351,338.188707 553.954351,339.448707 554.994351,340.160707 C556.034351,340.872707 557.130351,341.228707 558.282351,341.228707 Z M561.330351,333.548707 L555.234351,333.548707 L555.234351,333.092707 C555.234351,332.068707 555.542351,331.296707 556.158351,330.776707 C556.774351,330.256707 557.482351,329.996707 558.282351,329.996707 C559.082351,329.996707 559.790351,330.256707 560.406351,330.776707 C561.022351,331.296707 561.330351,332.068707 561.330351,333.092707 L561.330351,333.548707 Z M572.526982,340.988707 L572.526982,333.092707 C572.526982,332.100707 572.822982,331.336707 573.414982,330.800707 C574.006982,330.264707 574.670982,329.996707 575.406982,329.996707 C576.110982,329.996707 576.762982,330.260707 577.362982,330.788707 C577.962982,331.316707 578.262982,332.036707 578.262982,332.948707 L578.262982,340.988707 L580.062982,340.988707 L580.062982,333.092707 C580.062982,332.100707 580.358982,331.336707 580.950982,330.800707 C581.542982,330.264707 582.206982,329.996707 582.942982,329.996707 C583.646982,329.996707 584.298982,330.260707 584.898982,330.788707 C585.498982,331.316707 585.798982,332.036707 585.798982,332.948707 L585.798982,340.988707 L587.598982,340.988707 L587.598982,333.116707 C587.598982,331.372707 587.094982,330.128707 586.086982,329.384707 C585.078982,328.640707 584.022982,328.268707 582.918982,328.268707 C582.230982,328.268707 581.534982,328.420707 580.830982,328.724707 C580.126982,329.028707 579.566982,329.524707 579.150982,330.212707 C578.734982,329.524707 578.178982,329.028707 577.482982,328.724707 C576.786982,328.420707 576.094982,328.268707 575.406982,328.268707 C574.958982,328.268707 574.442982,328.396707 573.858982,328.652707 C573.274982,328.908707 572.830982,329.284707 572.526982,329.780707 L572.526982,328.604707 L570.726982,328.604707 L570.726982,340.988707 L572.526982,340.988707 Z M595.069298,341.228707 C596.141298,341.228707 597.173298,340.924707 598.165298,340.316707 C599.157298,339.708707 599.733298,338.636707 599.893298,337.100707 L598.045298,337.100707 C597.901298,337.900707 597.545298,338.500707 596.977298,338.900707 C596.409298,339.300707 595.773298,339.500707 595.069298,339.500707 C594.269298,339.500707 593.561298,339.240707 592.945298,338.720707 C592.329298,338.200707 592.021298,337.428707 592.021298,336.404707 L592.021298,335.204707 L599.917298,335.204707 L599.917298,333.116707 C599.917298,331.308707 599.397298,330.048707 598.357298,329.336707 C597.317298,328.624707 596.221298,328.268707 595.069298,328.268707 C593.917298,328.268707 592.821298,328.624707 591.781298,329.336707 C590.741298,330.048707 590.221298,331.308707 590.221298,333.116707 L590.221298,336.380707 C590.221298,338.188707 590.741298,339.448707 591.781298,340.160707 C592.821298,340.872707 593.917298,341.228707 595.069298,341.228707 Z M598.117298,333.548707 L592.021298,333.548707 L592.021298,333.092707 C592.021298,332.068707 592.329298,331.296707 592.945298,330.776707 C593.561298,330.256707 594.269298,329.996707 595.069298,329.996707 C595.869298,329.996707 596.577298,330.256707 597.193298,330.776707 C597.809298,331.296707 598.117298,332.068707 598.117298,333.092707 L598.117298,333.548707 Z M604.387614,326.516707 L604.387614,324.188707 L602.587614,324.188707 L602.587614,326.516707 L604.387614,326.516707 Z M604.387614,340.988707 L604.387614,328.604707 L602.587614,328.604707 L602.587614,340.988707 L604.387614,340.988707 Z M612.02593,341.228707 C613.17793,341.228707 614.27393,340.872707 615.31393,340.160707 C616.35393,339.448707 616.87393,338.188707 616.87393,336.380707 L616.87393,333.116707 C616.87393,331.308707 616.35393,330.048707 615.31393,329.336707 C614.27393,328.624707 613.17793,328.268707 612.02593,328.268707 C610.87393,328.268707 609.77793,328.624707 608.73793,329.336707 C607.69793,330.048707 607.17793,331.308707 607.17793,333.116707 L607.17793,336.380707 C607.17793,338.188707 607.69793,339.448707 608.73793,340.160707 C609.77793,340.872707 610.87393,341.228707 612.02593,341.228707 Z M612.02593,339.500707 C611.22593,339.500707 610.51793,339.240707 609.90193,338.720707 C609.28593,338.200707 608.97793,337.428707 608.97793,336.404707 L608.97793,333.092707 C608.97793,332.068707 609.28593,331.296707 609.90193,330.776707 C610.51793,330.256707 611.22593,329.996707 612.02593,329.996707 C612.82593,329.996707 613.53393,330.256707 614.14993,330.776707 C614.76593,331.296707 615.07393,332.068707 615.07393,333.092707 L615.07393,336.404707 C615.07393,337.428707 614.76593,338.200707 614.14993,338.720707 C613.53393,339.240707 612.82593,339.500707 612.02593,339.500707 Z" id="1metroemeio" fill="#00C0D2" fill-rule="nonzero"></path>
    </g>
</svg>