<?xml version="1.0" encoding="UTF-8"?>
<svg width="721px" height="402px" viewBox="0 0 721 402" version="1.1" xmlns="http://www.w3.org/2000/svg" xmlns:xlink="http://www.w3.org/1999/xlink">
    <title>decodificador_desligar_tomada copy 4</title>
    <defs>
        <path d="M204.420362,10.4864335 C198.638282,19.7383304 22.8664969,78.7152529 2.62921984,97.7963993 L2.62921984,97.7963993 C-17.6080573,116.87612 100.924566,148.097352 125.786366,150.989817 L125.786366,150.989817 C150.648166,153.880857 190.811947,102.26411 232.753405,69.463356 L232.753405,69.463356 C277.852482,34.1935284 298.089759,33.6147502 309.653917,27.2553185 L309.653917,27.2553185 C321.218076,20.8944612 317.748258,14.5336038 317.748258,14.5336038 L317.748258,14.5336038 C317.748258,14.5336038 316.592127,20.8944612 308.497787,22.0505919 L308.497787,22.0505919 C300.402021,23.2067226 288.837862,22.6279445 282.47843,23.7855007 L282.47843,23.7855007 C276.118999,24.9416315 249.520864,40.5529601 220.03169,58.4765502 L220.03169,58.4765502 C190.543942,76.4015659 167.994403,72.3543956 167.994403,72.3543956 L167.994403,72.3543956 C167.994403,72.3543956 173.077957,52.3067182 189.387811,37.084568 L189.387811,37.084568 C206.734049,20.8944612 229.283587,12.8001205 234.486888,9.33030281 L234.486888,9.33030281 C239.691615,5.86048508 242.003876,4.12700178 237.577506,1.18179084 L237.577506,1.18179084 C237.102794,0.865316089 236.348672,0.724185459 235.37929,0.724185459 L235.37929,0.724185459 C227.314886,0.724185459 204.420362,10.4864335 204.420362,10.4864335" id="path-1"></path>
        <linearGradient x1="42.9734638%" y1="56.1760976%" x2="50%" y2="37.5360305%" id="linearGradient-3">
            <stop stop-color="#FFFFFF" offset="0%"></stop>
            <stop stop-color="#000000" offset="100%"></stop>
        </linearGradient>
        <linearGradient x1="49.281254%" y1="3.45065584%" x2="48.2279091%" y2="9.73998301%" id="linearGradient-4">
            <stop stop-color="#7F7F7F" offset="0%"></stop>
            <stop stop-color="#454545" offset="100%"></stop>
        </linearGradient>
    </defs>
    <g id="Page-1" stroke="none" stroke-width="1" fill="none" fill-rule="evenodd">
        <g id="Group" transform="translate(26.359824, 1.988707)">
            <g id="Group-14">
                <g id="Group-97" opacity="0.15" style="mix-blend-mode: multiply;" transform="translate(0.000000, 287.756073)">
                    <mask id="mask-2" fill="white">
                        <use xlink:href="#path-1"></use>
                    </mask>
                    <g id="Clip-96"></g>
                    <path d="M40.8842953,78.0710061 L146.043059,139.050929 C170.904858,141.941968 190.811947,102.26411 232.753405,69.463356 C277.852482,34.1935284 298.089759,33.6147502 309.653917,27.2553185 C321.218076,20.8944612 317.748258,14.5336038 317.748258,14.5336038 C317.748258,14.5336038 316.592127,20.8944612 308.497787,22.0505919 C300.402021,23.2067226 288.837862,22.6279445 282.47843,23.7855007 C276.118999,24.9416315 249.520864,40.5529601 220.03169,58.4765502 C190.543942,76.4015659 167.994403,72.3543956 167.994403,72.3543956 C167.994403,72.3543956 173.077957,52.3067182 189.387811,37.084568 C206.734049,20.8944612 229.283587,12.8001205 234.486888,9.33030281 C239.691615,5.86048508 242.003876,4.12700178 237.577506,1.18179084 C237.102794,0.865316089 236.348672,0.724185459 235.37929,0.724185459 C227.314886,0.72561102 204.420362,10.4864335 204.420362,10.4864335 C198.638282,19.7383304 61.1215724,58.9898597 40.8842953,78.0710061 Z" id="Fill-95" fill="url(#linearGradient-3)" style="mix-blend-mode: screen;" mask="url(#mask-2)"></path>
                </g>
                <path d="M250.453609,60.8693392 C250.453609,60.8693392 263.326434,76.1955554 268.579629,86.1474032 C273.831399,96.0978255 272.953253,96.1234856 275.986849,90.297214 C279.02187,84.4709424 278.340452,79.4743479 281.510902,75.897613 C284.679926,72.3194526 289.890355,61.1316426 290.261001,58.1636226 C290.633072,55.1956027 293.60822,49.7585095 298.274084,46.8061708 C302.941374,43.853832 307.421915,40.5550817 306.029141,47.1098155 C304.466725,56.34318 298.209934,60.3276256 297.281893,65.9172539 C297.281893,65.9172539 296.207019,67.7433988 295.786479,72.6131183 C295.364512,77.4842634 293.773585,109.952862 281.335557,113.235931 C268.89753,116.520426 247.491292,89.7882884 246.308075,86.5836252 C245.123433,83.3803875 250.453609,60.8693392 250.453609,60.8693392" id="Fill-44" fill="#FF944D"></path>
                <polygon id="Fill-46" fill="#EA298C" points="298.052695 30.8739481 309.055181 37.122186 291.781648 65.182947 281.422089 58.0708185"></polygon>
                <polygon id="Fill-48" fill="#9D2EFF" points="296.796204 28.4245476 308.360363 35.1474977 289.835185 65.9866788 278.958148 58.312879"></polygon>
                <polygon id="Fill-50" fill="#00CEFF" points="296.292268 31.8923696 304.949706 36.9246032 291.081839 60.0087274 282.93903 54.2651384"></polygon>
                <path d="M240.174738,41.6597497 C240.174738,41.6597497 238.642259,46.4425099 246.076564,52.2887394 C253.509444,58.1349688 265.948897,62.9106013 265.948897,62.9106013 C265.948897,62.9106013 260.584508,55.9695403 262.233883,51.3207828 C263.881833,46.6734509 270.469354,48.8317517 272.790169,41.5214701 C275.110984,34.2111886 274.272753,9.77135492 257.623616,6.04493605 C250.130862,6.5709684 239.43202,14.9703793 241.414977,27.5024942 C243.399359,40.0346091 243.932519,41.5129168 240.174738,41.6597497" id="Fill-52" fill="#FF944D"></path>
                <path d="M242.90811,39.8485732 C242.90811,39.8485732 247.076453,34.4727792 249.877682,34.1862413 C252.678912,33.9011289 253.702465,32.3829054 251.269031,29.3293518 C248.835597,26.2757981 248.755765,20.8600884 251.813596,20.7845336 C254.871426,20.7089788 256.185794,24.3470128 255.942023,31.2110935 C256.174389,31.186859 259.584334,32.2546048 259.976363,29.149731 C260.366967,26.0434315 257.866531,24.6478064 259.495949,22.1245618 C261.125366,19.5998916 260.773252,18.456591 258.716166,16.7801301 C256.659081,15.1036693 249.973195,9.6523205 254.684677,7.28731327 C259.394734,4.92088047 264.515352,9.46842301 264.515352,9.46842301 C264.515352,9.46842301 266.744931,2.99209518 262.310008,3.44399831 C257.87651,3.89590144 254.165773,4.50889307 255.118048,2.29071871 C256.071749,0.0711187955 252.122942,-1.64953445 249.260414,2.65138588 C246.39646,6.95088065 231.550658,7.04924442 242.90811,39.8485732" id="Fill-54" fill="#7824CD"></path>
                <path d="M273.534027,35.2572659 C272.504772,35.3613319 267.606541,35.67353 265.071892,32.43893 C264.714076,31.9798991 264.793907,31.3170128 265.252938,30.9577712 C265.709118,30.5956784 266.374855,30.678361 266.734097,31.137392 C268.776927,33.7433192 273.686562,33.1317531 273.735032,33.1117952 C273.886141,33.6449554 273.853353,34.7996606 273.717925,35.2373081 C273.712223,35.2572659 273.633817,35.247287 273.534027,35.2572659" id="Fill-56" fill="#FFFFFF"></path>
                <g id="Group-62" transform="translate(209.557603, 41.133860)">
                    <path d="M104.963468,119.414048 C115.479838,129.46426 117.619607,132.966865 116.241088,135.129443 C111.652204,142.304296 102.234942,136.66905 91.0556857,124.139786 C82.2556919,114.283451 70.3807611,87.8335746 65.1746089,77.2844164 L65.2829516,77.2316706 C65.2829516,77.2316706 72.5832542,66.8108129 83.7525319,70.9078779 C90.3443303,90.7531255 98.3645417,113.110213 104.963468,119.414048" id="Fill-58" fill="#FF944D"></path>
                    <path d="M83.7526745,70.9074502 C72.5833968,66.8103852 65.2816686,77.2326685 65.2816686,77.2326685 L65.1747515,77.2854143 C63.7648707,74.4143326 62.8425321,72.7250417 62.6001866,72.8490656 C61.4711416,73.4321204 70.7358685,136.624429 70.7358685,136.624429 L0.170553184,108.211555 C0.170553184,108.211555 1.82277946,64.8331308 1.94252666,53.7850259 C2.15208426,32.7822221 11.7846062,2.33079375 30.6889829,0.404859587 C30.9755208,0.842507098 27.5826835,9.21055561 53.9284934,20.1945102 C53.9284934,20.1945102 67.672336,27.7642441 72.7986566,38.7881145 C74.9555318,43.4226163 78.9898721,56.5078492 83.7526745,70.9074502" id="Fill-60" fill="#58585B"></path>
                </g>
                <g id="Group-69" transform="translate(202.429794, 149.136799)">
                    <path d="M94.218865,146.981478 C100.581148,155.700215 118.145496,149.355039 117.853256,154.960348 C117.532505,161.118776 98.166246,165.453909 89.3477199,166.818172 C80.5306194,168.18386 83.6041309,165.988495 82.097312,155.771493 C81.9661603,154.907602 81.7451982,153.841282 81.4358512,152.612448 C82.9669048,152.640959 93.2010138,152.545446 93.9451571,147.079842 L94.218865,146.981478 Z" id="Fill-63" fill="#7A24CD"></path>
                    <path d="M94.218865,146.981478 L93.9451571,147.079842 C93.2010138,152.545446 82.9669048,152.640959 81.4358512,152.612448 C78.1670377,139.406042 65.6320717,107.050063 61.6618818,89.4572031 C56.9703575,68.6696591 48.1261713,39.9018194 39.0724275,38.9424162 C30.0058536,37.9844386 19.8815128,114.468687 18.2692023,126.419173 C18.0111756,128.34083 18.1551573,129.883288 18.608486,131.139208 L18.2250099,131.263232 C16.5385701,135.961884 3.6286813,133.539855 2.27154635,133.268998 C3.56167989,107.868335 7.29665214,0.198494198 7.29665214,0.198494198 L77.8534141,28.5115796 C78.0088004,34.6243892 88.4881061,130.587516 92.6678537,143.842391 C93.0470531,145.062672 93.5773622,146.099055 94.218865,146.981478" id="Fill-65" fill="#CB5205"></path>
                    <path d="M35.1471427,139.330202 C39.7759423,143.102239 19.246425,149.90502 7.66230878,152.031959 C-3.90755182,154.144642 1.12325622,147.971958 1.98714675,137.98162 C2.0598504,137.166199 2.14966081,135.545335 2.27083357,133.268713 C3.62939409,133.539569 16.5378573,135.961599 18.2242971,131.262947 L18.6077732,131.138923 C20.8829701,137.640911 31.2582098,136.159752 35.1471427,139.330202" id="Fill-67" fill="#7A24CD"></path>
                </g>
                <path d="M215.900412,151.373704 L217.184843,162.212251 C217.184843,162.212251 216.705854,168.963713 221.444422,170.675813 C226.18299,172.386487 230.801811,172.695834 232.012113,166.235187 C231.861003,164.481746 231.669978,158.140847 231.669978,158.140847" id="Stroke-70" stroke="#B41F73" stroke-width="0.812"></path>
            </g>
            <g id="Group-3" transform="translate(445.000000, 42.000000)">
                <path d="M10.9261019,-1.10134124e-13 L79.1264667,47.169324 L67.9923837,51.5196587 C65.8186364,52.3689903 63.3645804,52.0791424 61.4485142,50.7467641 L0.448653614,8.32918389 L0.448653614,8.32918389 L10.9261019,-1.10134124e-13 Z" id="Rectangle-Copy-2" fill="#7F7F7F" transform="translate(39.787560, 26.030203) scale(-1, -1) translate(-39.787560, -26.030203) "></path>
                <path d="M69.2654005,44.0206854 L80.0633209,52.7581592 L80.0633209,52.7581592 L76.6062764,118.086812 L66.0073259,110.507944 L66.0073259,45.5754356 C66.0073259,44.4708661 66.9027564,43.5754356 68.0073259,43.5754356 C68.465293,43.5754356 68.9093882,43.7326069 69.2654005,44.0206854 Z" id="Rectangle-Copy" fill="url(#linearGradient-4)" transform="translate(73.035323, 80.755470) scale(-1, 1) translate(-73.035323, -80.755470) "></path>
                <path d="M3.1394631,5.07925565 L66.4524912,48.9708048 C68.3389582,50.2785919 69.4643704,52.4281765 69.4643704,54.7236208 L69.4643704,118.086812 L69.4643704,118.086812 L4.19220214e-13,69.9308649 L4.19220214e-13,6.72291737 C4.19482594e-13,5.61834787 0.8954305,4.72291737 2,4.72291737 C2.40724178,4.72291737 2.80477924,4.84723716 3.1394631,5.07925565 Z" id="Rectangle" fill="#5E5E5E"></path>
                <polygon id="Rectangle" fill="#D8D8D8" points="0.448653614 48.083859 69.3385752 98.4337791 69.3385752 102.157559 0.448653614 51.8076385"></polygon>
            </g>
            <g id="Group-2" transform="translate(318.000000, 44.000000)" stroke="#00C0D2" stroke-linecap="round" stroke-width="5">
                <path d="M99.4240563,95.467561 C118.682683,95.467561 136.014736,91.1557708 148.079976,84.2782242 C158.85061,78.1386415 165.424056,69.9543756 165.424056,60.967561 C165.424056,41.9137372 135.87485,26.467561 99.4240563,26.467561 C77.2380938,26.467561 57.6089005,32.189768 45.6431305,40.9647946" id="Oval" opacity="0.699999988" transform="translate(105.533593, 60.967561) scale(-1, -1) translate(-105.533593, -60.967561) "></path>
                <path d="M97.6110446,108.4417 C123.970718,108.4417 147.69345,102.540065 164.207389,93.1266279 C178.949375,84.7232564 187.946584,73.5212857 187.946584,61.2208502 C187.946584,35.1414947 147.501985,14 97.6110446,14 C67.2446674,14 40.3777923,21.8321008 24,33.8426578" id="Oval-Copy-2" opacity="0.5" transform="translate(105.973292, 61.220850) scale(-1, -1) translate(-105.973292, -61.220850) "></path>
                <path d="M95.233814,121.865705 C129.087049,121.865705 159.553711,114.286346 180.762255,102.196844 C199.695112,91.4045513 211.250059,77.0180696 211.250059,61.2208502 C211.250059,27.7276214 159.307817,0.575994874 95.233814,0.575994874 C56.2348433,0.575994874 21.7302177,10.6346155 0.696525188,26.0595494" id="Oval-Copy-3" opacity="0.300000012" transform="translate(105.973292, 61.220850) scale(-1, -1) translate(-105.973292, -61.220850) "></path>
                <path d="M102.415383,81.0587504 C113.630708,81.0587504 123.724086,78.547765 130.750319,74.542603 C137.022634,70.9671966 140.850702,66.2010623 140.850702,60.967561 C140.850702,49.8715036 123.642623,40.8763717 102.415383,40.8763717 C89.4953141,40.8763717 78.0641883,44.2087179 71.0958825,49.3188837" id="Oval-Copy" opacity="0.900000036" transform="translate(105.973292, 60.967561) scale(-1, -1) translate(-105.973292, -60.967561) "></path>
            </g>
            <line x1="524.126467" y1="247.708146" x2="327.173134" y2="338" id="Line-3" stroke="#5F5F5F" stroke-width="3" stroke-linecap="square" stroke-dasharray="9"></line>
            <line x1="526" y1="188.62207" x2="526" y2="259.388672" id="Line-4-Copy" stroke="#5F5F5F" stroke-width="2" stroke-linecap="square"></line>
            <path d="M421.744,334 L421.744,321.088 L425.752,329.488 L427.48,329.488 L431.488,321.088 L431.488,334 L433.312,334 L433.312,317.2 L431.464,317.2 L426.616,327.376 L421.768,317.2 L419.92,317.2 L419.92,334 L421.744,334 Z M441.070316,334.24 C442.142316,334.24 443.174316,333.936 444.166316,333.328 C445.158316,332.72 445.734316,331.648 445.894316,330.112 L444.046316,330.112 C443.902316,330.912 443.546316,331.512 442.978316,331.912 C442.410316,332.312 441.774316,332.512 441.070316,332.512 C440.270316,332.512 439.562316,332.252 438.946316,331.732 C438.330316,331.212 438.022316,330.44 438.022316,329.416 L438.022316,328.216 L445.918316,328.216 L445.918316,326.128 C445.918316,324.32 445.398316,323.06 444.358316,322.348 C443.318316,321.636 442.222316,321.28 441.070316,321.28 C439.918316,321.28 438.822316,321.636 437.782316,322.348 C436.742316,323.06 436.222316,324.32 436.222316,326.128 L436.222316,329.392 C436.222316,331.2 436.742316,332.46 437.782316,333.172 C438.822316,333.884 439.918316,334.24 441.070316,334.24 Z M444.118316,326.56 L438.022316,326.56 L438.022316,326.104 C438.022316,325.08 438.330316,324.308 438.946316,323.788 C439.562316,323.268 440.270316,323.008 441.070316,323.008 C441.870316,323.008 442.578316,323.268 443.194316,323.788 C443.810316,324.308 444.118316,325.08 444.118316,326.104 L444.118316,326.56 Z M450.388632,334 L450.388632,326.104 C450.388632,325.08 450.696632,324.308 451.312632,323.788 C451.928632,323.268 452.636632,323.008 453.436632,323.008 C454.236632,323.008 454.944632,323.268 455.560632,323.788 C456.176632,324.308 456.484632,325.08 456.484632,326.104 L456.484632,334 L458.284632,334 L458.284632,326.128 C458.284632,324.32 457.764632,323.06 456.724632,322.348 C455.684632,321.636 454.588632,321.28 453.436632,321.28 C452.876632,321.28 452.304632,321.408 451.720632,321.664 C451.136632,321.92 450.692632,322.296 450.388632,322.792 L450.388632,321.616 L448.588632,321.616 L448.588632,334 L450.388632,334 Z M465.754947,334.24 C466.906947,334.24 468.002947,333.884 469.042947,333.172 C470.082947,332.46 470.602947,331.2 470.602947,329.392 L470.602947,326.128 C470.602947,324.32 470.082947,323.06 469.042947,322.348 C468.002947,321.636 466.906947,321.28 465.754947,321.28 C464.602947,321.28 463.506947,321.636 462.466947,322.348 C461.426947,323.06 460.906947,324.32 460.906947,326.128 L460.906947,329.392 C460.906947,331.2 461.426947,332.46 462.466947,333.172 C463.506947,333.884 464.602947,334.24 465.754947,334.24 Z M465.754947,332.512 C464.954947,332.512 464.246947,332.252 463.630947,331.732 C463.014947,331.212 462.706947,330.44 462.706947,329.416 L462.706947,326.104 C462.706947,325.08 463.014947,324.308 463.630947,323.788 C464.246947,323.268 464.954947,323.008 465.754947,323.008 C466.554947,323.008 467.262947,323.268 467.878947,323.788 C468.494947,324.308 468.802947,325.08 468.802947,326.104 L468.802947,329.416 C468.802947,330.44 468.494947,331.212 467.878947,331.732 C467.262947,332.252 466.554947,332.512 465.754947,332.512 Z M477.497263,334.24 C478.745263,334.24 479.785263,333.968 480.617263,333.424 C481.449263,332.88 481.865263,332 481.865263,330.784 C481.865263,329.648 481.569263,328.808 480.977263,328.264 C480.385263,327.72 479.625263,327.336 478.697263,327.112 L476.369263,326.536 C475.873263,326.424 475.465263,326.236 475.145263,325.972 C474.825263,325.708 474.665263,325.32 474.665263,324.808 C474.665263,324.248 474.885263,323.808 475.325263,323.488 C475.765263,323.168 476.321263,323.008 476.993263,323.008 C477.761263,323.008 478.377263,323.2 478.841263,323.584 C479.305263,323.968 479.593263,324.52 479.705263,325.24 L481.553263,325.24 C481.457263,323.864 480.989263,322.86 480.149263,322.228 C479.309263,321.596 478.265263,321.28 477.017263,321.28 C475.881263,321.28 474.901263,321.596 474.077263,322.228 C473.253263,322.86 472.841263,323.744 472.841263,324.88 C472.841263,325.984 473.181263,326.792 473.861263,327.304 C474.541263,327.816 475.217263,328.152 475.889263,328.312 L478.313263,328.912 C479.001263,329.072 479.461263,329.316 479.693263,329.644 C479.925263,329.972 480.041263,330.336 480.041263,330.736 C480.025263,331.28 479.813263,331.712 479.405263,332.032 C478.997263,332.352 478.361263,332.512 477.497263,332.512 C476.681263,332.512 475.977263,332.316 475.385263,331.924 C474.793263,331.532 474.457263,330.904 474.377263,330.04 L472.529263,330.04 C472.625263,331.528 473.153263,332.6 474.113263,333.256 C475.073263,333.912 476.201263,334.24 477.497263,334.24 Z M493.661895,334.24 C494.221895,334.24 494.793895,334.112 495.377895,333.856 C495.961895,333.6 496.405895,333.224 496.709895,332.728 L496.709895,332.728 L496.709895,334 L498.509895,334 L498.509895,317.2 L496.709895,317.2 L496.709895,322.792 C496.405895,322.296 495.961895,321.92 495.377895,321.664 C494.793895,321.408 494.221895,321.28 493.661895,321.28 C492.509895,321.28 491.413895,321.636 490.373895,322.348 C489.333895,323.06 488.813895,324.32 488.813895,326.128 L488.813895,326.128 L488.813895,329.392 C488.813895,331.2 489.333895,332.46 490.373895,333.172 C491.413895,333.884 492.509895,334.24 493.661895,334.24 Z M493.661895,332.512 C492.861895,332.512 492.153895,332.252 491.537895,331.732 C490.921895,331.212 490.613895,330.44 490.613895,329.416 L490.613895,329.416 L490.613895,326.104 C490.613895,325.08 490.921895,324.308 491.537895,323.788 C492.153895,323.268 492.861895,323.008 493.661895,323.008 C494.461895,323.008 495.169895,323.268 495.785895,323.788 C496.401895,324.308 496.709895,325.08 496.709895,326.104 L496.709895,326.104 L496.709895,329.416 C496.709895,330.44 496.401895,331.212 495.785895,331.732 C495.169895,332.252 494.461895,332.512 493.661895,332.512 Z M506.148211,334.24 C507.220211,334.24 508.252211,333.936 509.244211,333.328 C510.236211,332.72 510.812211,331.648 510.972211,330.112 L509.124211,330.112 C508.980211,330.912 508.624211,331.512 508.056211,331.912 C507.488211,332.312 506.852211,332.512 506.148211,332.512 C505.348211,332.512 504.640211,332.252 504.024211,331.732 C503.408211,331.212 503.100211,330.44 503.100211,329.416 L503.100211,328.216 L510.996211,328.216 L510.996211,326.128 C510.996211,324.32 510.476211,323.06 509.436211,322.348 C508.396211,321.636 507.300211,321.28 506.148211,321.28 C504.996211,321.28 503.900211,321.636 502.860211,322.348 C501.820211,323.06 501.300211,324.32 501.300211,326.128 L501.300211,329.392 C501.300211,331.2 501.820211,332.46 502.860211,333.172 C503.900211,333.884 504.996211,334.24 506.148211,334.24 Z M509.196211,326.56 L503.100211,326.56 L503.100211,326.104 C503.100211,325.08 503.408211,324.308 504.024211,323.788 C504.640211,323.268 505.348211,323.008 506.148211,323.008 C506.948211,323.008 507.656211,323.268 508.272211,323.788 C508.888211,324.308 509.196211,325.08 509.196211,326.104 L509.196211,326.56 Z M522.936842,334 L522.936842,317.2 L521.136842,317.2 L517.920842,319.96 L517.920842,322.24 L521.136842,319.48 L521.136842,334 L522.936842,334 Z M533.029474,334 L533.029474,326.104 C533.029474,325.112 533.325474,324.348 533.917474,323.812 C534.509474,323.276 535.173474,323.008 535.909474,323.008 C536.613474,323.008 537.265474,323.272 537.865474,323.8 C538.465474,324.328 538.765474,325.048 538.765474,325.96 L538.765474,334 L540.565474,334 L540.565474,326.104 C540.565474,325.112 540.861474,324.348 541.453474,323.812 C542.045474,323.276 542.709474,323.008 543.445474,323.008 C544.149474,323.008 544.801474,323.272 545.401474,323.8 C546.001474,324.328 546.301474,325.048 546.301474,325.96 L546.301474,334 L548.101474,334 L548.101474,326.128 C548.101474,324.384 547.597474,323.14 546.589474,322.396 C545.581474,321.652 544.525474,321.28 543.421474,321.28 C542.733474,321.28 542.037474,321.432 541.333474,321.736 C540.629474,322.04 540.069474,322.536 539.653474,323.224 C539.237474,322.536 538.681474,322.04 537.985474,321.736 C537.289474,321.432 536.597474,321.28 535.909474,321.28 C535.461474,321.28 534.945474,321.408 534.361474,321.664 C533.777474,321.92 533.333474,322.296 533.029474,322.792 L533.029474,321.616 L531.229474,321.616 L531.229474,334 L533.029474,334 Z M555.571789,334.24 C556.643789,334.24 557.675789,333.936 558.667789,333.328 C559.659789,332.72 560.235789,331.648 560.395789,330.112 L558.547789,330.112 C558.403789,330.912 558.047789,331.512 557.479789,331.912 C556.911789,332.312 556.275789,332.512 555.571789,332.512 C554.771789,332.512 554.063789,332.252 553.447789,331.732 C552.831789,331.212 552.523789,330.44 552.523789,329.416 L552.523789,328.216 L560.419789,328.216 L560.419789,326.128 C560.419789,324.32 559.899789,323.06 558.859789,322.348 C557.819789,321.636 556.723789,321.28 555.571789,321.28 C554.419789,321.28 553.323789,321.636 552.283789,322.348 C551.243789,323.06 550.723789,324.32 550.723789,326.128 L550.723789,329.392 C550.723789,331.2 551.243789,332.46 552.283789,333.172 C553.323789,333.884 554.419789,334.24 555.571789,334.24 Z M558.619789,326.56 L552.523789,326.56 L552.523789,326.104 C552.523789,325.08 552.831789,324.308 553.447789,323.788 C554.063789,323.268 554.771789,323.008 555.571789,323.008 C556.371789,323.008 557.079789,323.268 557.695789,323.788 C558.311789,324.308 558.619789,325.08 558.619789,326.104 L558.619789,326.56 Z M568.514105,334 L568.514105,332.272 L566.618105,332.272 C566.186105,332.272 565.886105,332.192 565.718105,332.032 C565.550105,331.872 565.466105,331.592 565.466105,331.192 L565.466105,331.192 L565.466105,323.344 L568.514105,323.344 L568.514105,321.616 L565.466105,321.616 L565.466105,318.808 L563.666105,318.808 L563.666105,321.616 L561.914105,321.616 L561.914105,323.344 L563.666105,323.344 L563.666105,331.048 C563.666105,332.104 563.870105,332.86 564.278105,333.316 C564.686105,333.772 565.466105,334 566.618105,334 L566.618105,334 L568.514105,334 Z M572.600421,334 L572.600421,326.224 C572.600421,325.2 572.908421,324.428 573.524421,323.908 C574.140421,323.388 574.848421,323.128 575.648421,323.128 L576.440421,323.128 L576.440421,321.4 L575.648421,321.4 C575.088421,321.4 574.516421,321.528 573.932421,321.784 C573.348421,322.04 572.904421,322.416 572.600421,322.912 L572.600421,321.616 L570.800421,321.616 L570.800421,334 L572.600421,334 Z M582.638737,334.24 C583.790737,334.24 584.886737,333.884 585.926737,333.172 C586.966737,332.46 587.486737,331.2 587.486737,329.392 L587.486737,326.128 C587.486737,324.32 586.966737,323.06 585.926737,322.348 C584.886737,321.636 583.790737,321.28 582.638737,321.28 C581.486737,321.28 580.390737,321.636 579.350737,322.348 C578.310737,323.06 577.790737,324.32 577.790737,326.128 L577.790737,329.392 C577.790737,331.2 578.310737,332.46 579.350737,333.172 C580.390737,333.884 581.486737,334.24 582.638737,334.24 Z M582.638737,332.512 C581.838737,332.512 581.130737,332.252 580.514737,331.732 C579.898737,331.212 579.590737,330.44 579.590737,329.416 L579.590737,326.104 C579.590737,325.08 579.898737,324.308 580.514737,323.788 C581.130737,323.268 581.838737,323.008 582.638737,323.008 C583.438737,323.008 584.146737,323.268 584.762737,323.788 C585.378737,324.308 585.686737,325.08 585.686737,326.104 L585.686737,329.416 C585.686737,330.44 585.378737,331.212 584.762737,331.732 C584.146737,332.252 583.438737,332.512 582.638737,332.512 Z M424.312,358.24 C425.384,358.24 426.416,357.936 427.408,357.328 C428.4,356.72 428.976,355.648 429.136,354.112 L427.288,354.112 C427.144,354.912 426.788,355.512 426.22,355.912 C425.652,356.312 425.016,356.512 424.312,356.512 C423.512,356.512 422.804,356.252 422.188,355.732 C421.572,355.212 421.264,354.44 421.264,353.416 L421.264,352.216 L429.16,352.216 L429.16,350.128 C429.16,348.32 428.64,347.06 427.6,346.348 C426.56,345.636 425.464,345.28 424.312,345.28 C423.16,345.28 422.064,345.636 421.024,346.348 C419.984,347.06 419.464,348.32 419.464,350.128 L419.464,353.392 C419.464,355.2 419.984,356.46 421.024,357.172 C422.064,357.884 423.16,358.24 424.312,358.24 Z M427.36,350.56 L421.264,350.56 L421.264,350.104 C421.264,349.08 421.572,348.308 422.188,347.788 C422.804,347.268 423.512,347.008 424.312,347.008 C425.112,347.008 425.82,347.268 426.436,347.788 C427.052,348.308 427.36,349.08 427.36,350.104 L427.36,350.56 Z M438.556632,358 L438.556632,350.104 C438.556632,349.112 438.852632,348.348 439.444632,347.812 C440.036632,347.276 440.700632,347.008 441.436632,347.008 C442.140632,347.008 442.792632,347.272 443.392632,347.8 C443.992632,348.328 444.292632,349.048 444.292632,349.96 L444.292632,358 L446.092632,358 L446.092632,350.104 C446.092632,349.112 446.388632,348.348 446.980632,347.812 C447.572632,347.276 448.236632,347.008 448.972632,347.008 C449.676632,347.008 450.328632,347.272 450.928632,347.8 C451.528632,348.328 451.828632,349.048 451.828632,349.96 L451.828632,358 L453.628632,358 L453.628632,350.128 C453.628632,348.384 453.124632,347.14 452.116632,346.396 C451.108632,345.652 450.052632,345.28 448.948632,345.28 C448.260632,345.28 447.564632,345.432 446.860632,345.736 C446.156632,346.04 445.596632,346.536 445.180632,347.224 C444.764632,346.536 444.208632,346.04 443.512632,345.736 C442.816632,345.432 442.124632,345.28 441.436632,345.28 C440.988632,345.28 440.472632,345.408 439.888632,345.664 C439.304632,345.92 438.860632,346.296 438.556632,346.792 L438.556632,345.616 L436.756632,345.616 L436.756632,358 L438.556632,358 Z M461.098947,358.24 C462.170947,358.24 463.202947,357.936 464.194947,357.328 C465.186947,356.72 465.762947,355.648 465.922947,354.112 L464.074947,354.112 C463.930947,354.912 463.574947,355.512 463.006947,355.912 C462.438947,356.312 461.802947,356.512 461.098947,356.512 C460.298947,356.512 459.590947,356.252 458.974947,355.732 C458.358947,355.212 458.050947,354.44 458.050947,353.416 L458.050947,352.216 L465.946947,352.216 L465.946947,350.128 C465.946947,348.32 465.426947,347.06 464.386947,346.348 C463.346947,345.636 462.250947,345.28 461.098947,345.28 C459.946947,345.28 458.850947,345.636 457.810947,346.348 C456.770947,347.06 456.250947,348.32 456.250947,350.128 L456.250947,353.392 C456.250947,355.2 456.770947,356.46 457.810947,357.172 C458.850947,357.884 459.946947,358.24 461.098947,358.24 Z M464.146947,350.56 L458.050947,350.56 L458.050947,350.104 C458.050947,349.08 458.358947,348.308 458.974947,347.788 C459.590947,347.268 460.298947,347.008 461.098947,347.008 C461.898947,347.008 462.606947,347.268 463.222947,347.788 C463.838947,348.308 464.146947,349.08 464.146947,350.104 L464.146947,350.56 Z M470.417263,343.528 L470.417263,341.2 L468.617263,341.2 L468.617263,343.528 L470.417263,343.528 Z M470.417263,358 L470.417263,345.616 L468.617263,345.616 L468.617263,358 L470.417263,358 Z M478.055579,358.24 C479.207579,358.24 480.303579,357.884 481.343579,357.172 C482.383579,356.46 482.903579,355.2 482.903579,353.392 L482.903579,350.128 C482.903579,348.32 482.383579,347.06 481.343579,346.348 C480.303579,345.636 479.207579,345.28 478.055579,345.28 C476.903579,345.28 475.807579,345.636 474.767579,346.348 C473.727579,347.06 473.207579,348.32 473.207579,350.128 L473.207579,353.392 C473.207579,355.2 473.727579,356.46 474.767579,357.172 C475.807579,357.884 476.903579,358.24 478.055579,358.24 Z M478.055579,356.512 C477.255579,356.512 476.547579,356.252 475.931579,355.732 C475.315579,355.212 475.007579,354.44 475.007579,353.416 L475.007579,350.104 C475.007579,349.08 475.315579,348.308 475.931579,347.788 C476.547579,347.268 477.255579,347.008 478.055579,347.008 C478.855579,347.008 479.563579,347.268 480.179579,347.788 C480.795579,348.308 481.103579,349.08 481.103579,350.104 L481.103579,353.416 C481.103579,354.44 480.795579,355.212 480.179579,355.732 C479.563579,356.252 478.855579,356.512 478.055579,356.512 Z M495.132211,358.24 C495.692211,358.24 496.264211,358.112 496.848211,357.856 C497.432211,357.6 497.876211,357.224 498.180211,356.728 L498.180211,356.728 L498.180211,358 L499.980211,358 L499.980211,341.2 L498.180211,341.2 L498.180211,346.792 C497.876211,346.296 497.432211,345.92 496.848211,345.664 C496.264211,345.408 495.692211,345.28 495.132211,345.28 C493.980211,345.28 492.884211,345.636 491.844211,346.348 C490.804211,347.06 490.284211,348.32 490.284211,350.128 L490.284211,350.128 L490.284211,353.392 C490.284211,355.2 490.804211,356.46 491.844211,357.172 C492.884211,357.884 493.980211,358.24 495.132211,358.24 Z M495.132211,356.512 C494.332211,356.512 493.624211,356.252 493.008211,355.732 C492.392211,355.212 492.084211,354.44 492.084211,353.416 L492.084211,353.416 L492.084211,350.104 C492.084211,349.08 492.392211,348.308 493.008211,347.788 C493.624211,347.268 494.332211,347.008 495.132211,347.008 C495.932211,347.008 496.640211,347.268 497.256211,347.788 C497.872211,348.308 498.180211,349.08 498.180211,350.104 L498.180211,350.104 L498.180211,353.416 C498.180211,354.44 497.872211,355.212 497.256211,355.732 C496.640211,356.252 495.932211,356.512 495.132211,356.512 Z M507.618526,358.24 C508.690526,358.24 509.722526,357.936 510.714526,357.328 C511.706526,356.72 512.282526,355.648 512.442526,354.112 L510.594526,354.112 C510.450526,354.912 510.094526,355.512 509.526526,355.912 C508.958526,356.312 508.322526,356.512 507.618526,356.512 C506.818526,356.512 506.110526,356.252 505.494526,355.732 C504.878526,355.212 504.570526,354.44 504.570526,353.416 L504.570526,352.216 L512.466526,352.216 L512.466526,350.128 C512.466526,348.32 511.946526,347.06 510.906526,346.348 C509.866526,345.636 508.770526,345.28 507.618526,345.28 C506.466526,345.28 505.370526,345.636 504.330526,346.348 C503.290526,347.06 502.770526,348.32 502.770526,350.128 L502.770526,353.392 C502.770526,355.2 503.290526,356.46 504.330526,357.172 C505.370526,357.884 506.466526,358.24 507.618526,358.24 Z M510.666526,350.56 L504.570526,350.56 L504.570526,350.104 C504.570526,349.08 504.878526,348.308 505.494526,347.788 C506.110526,347.268 506.818526,347.008 507.618526,347.008 C508.418526,347.008 509.126526,347.268 509.742526,347.788 C510.358526,348.308 510.666526,349.08 510.666526,350.104 L510.666526,350.56 Z M524.575158,358.24 C525.135158,358.24 525.707158,358.112 526.291158,357.856 C526.875158,357.6 527.319158,357.224 527.623158,356.728 L527.623158,356.728 L527.623158,358 L529.423158,358 L529.423158,341.2 L527.623158,341.2 L527.623158,346.792 C527.319158,346.296 526.875158,345.92 526.291158,345.664 C525.707158,345.408 525.135158,345.28 524.575158,345.28 C523.423158,345.28 522.327158,345.636 521.287158,346.348 C520.247158,347.06 519.727158,348.32 519.727158,350.128 L519.727158,350.128 L519.727158,353.392 C519.727158,355.2 520.247158,356.46 521.287158,357.172 C522.327158,357.884 523.423158,358.24 524.575158,358.24 Z M524.575158,356.512 C523.775158,356.512 523.067158,356.252 522.451158,355.732 C521.835158,355.212 521.527158,354.44 521.527158,353.416 L521.527158,353.416 L521.527158,350.104 C521.527158,349.08 521.835158,348.308 522.451158,347.788 C523.067158,347.268 523.775158,347.008 524.575158,347.008 C525.375158,347.008 526.083158,347.268 526.699158,347.788 C527.315158,348.308 527.623158,349.08 527.623158,350.104 L527.623158,350.104 L527.623158,353.416 C527.623158,354.44 527.315158,355.212 526.699158,355.732 C526.083158,356.252 525.375158,356.512 524.575158,356.512 Z M534.349474,343.528 L534.349474,341.2 L532.549474,341.2 L532.549474,343.528 L534.349474,343.528 Z M534.349474,358 L534.349474,345.616 L532.549474,345.616 L532.549474,358 L534.349474,358 Z M554.203789,358 L554.203789,356.272 L552.307789,356.272 C551.875789,356.272 551.575789,356.192 551.407789,356.032 C551.239789,355.872 551.155789,355.592 551.155789,355.192 L551.155789,355.192 L551.155789,347.344 L554.203789,347.344 L554.203789,345.616 L551.155789,345.616 L551.155789,342.808 L549.355789,342.808 L549.355789,345.616 L547.603789,345.616 L547.603789,347.344 L549.355789,347.344 L549.355789,355.048 C549.355789,356.104 549.559789,356.86 549.967789,357.316 C550.375789,357.772 551.155789,358 552.307789,358 L552.307789,358 L554.203789,358 Z M541.579789,358.24 C542.827789,358.24 543.867789,357.968 544.699789,357.424 C545.531789,356.88 545.947789,356 545.947789,354.784 C545.947789,353.648 545.651789,352.808 545.059789,352.264 C544.467789,351.72 543.707789,351.336 542.779789,351.112 L540.451789,350.536 C539.955789,350.424 539.547789,350.236 539.227789,349.972 C538.907789,349.708 538.747789,349.32 538.747789,348.808 C538.747789,348.248 538.967789,347.808 539.407789,347.488 C539.847789,347.168 540.403789,347.008 541.075789,347.008 C541.843789,347.008 542.459789,347.2 542.923789,347.584 C543.387789,347.968 543.675789,348.52 543.787789,349.24 L545.635789,349.24 C545.539789,347.864 545.071789,346.86 544.231789,346.228 C543.391789,345.596 542.347789,345.28 541.099789,345.28 C539.963789,345.28 538.983789,345.596 538.159789,346.228 C537.335789,346.86 536.923789,347.744 536.923789,348.88 C536.923789,349.984 537.263789,350.792 537.943789,351.304 C538.623789,351.816 539.299789,352.152 539.971789,352.312 L542.395789,352.912 C543.083789,353.072 543.543789,353.316 543.775789,353.644 C544.007789,353.972 544.123789,354.336 544.123789,354.736 C544.107789,355.28 543.895789,355.712 543.487789,356.032 C543.079789,356.352 542.443789,356.512 541.579789,356.512 C540.763789,356.512 540.059789,356.316 539.467789,355.924 C538.875789,355.532 538.539789,354.904 538.459789,354.04 L536.611789,354.04 C536.707789,355.528 537.235789,356.6 538.195789,357.256 C539.155789,357.912 540.283789,358.24 541.579789,358.24 Z M559.274105,344.296 L560.930105,342.592 L562.586105,344.296 L564.722105,344.296 L561.722105,341.2 L560.138105,341.2 L557.138105,344.296 L559.274105,344.296 Z M560.042105,358.24 C560.874105,358.24 561.626105,358.116 562.298105,357.868 C562.970105,357.62 563.506105,357.24 563.906105,356.728 L563.906105,358 L565.706105,358 L565.706105,350.128 C565.706105,348.32 565.186105,347.06 564.146105,346.348 C563.106105,345.636 562.010105,345.28 560.858105,345.28 C559.786105,345.28 558.754105,345.584 557.762105,346.192 C556.770105,346.8 556.194105,347.872 556.034105,349.408 L557.882105,349.408 C558.026105,348.608 558.382105,348.008 558.950105,347.608 C559.518105,347.208 560.154105,347.008 560.858105,347.008 C561.658105,347.008 562.366105,347.268 562.982105,347.788 C563.598105,348.308 563.906105,349.08 563.906105,350.104 L563.906105,350.32 C562.866105,350.384 561.902105,350.464 561.014105,350.56 C560.126105,350.656 559.330105,350.808 558.626105,351.016 C557.554105,351.32 556.838105,351.832 556.478105,352.552 C556.118105,353.272 555.938105,353.944 555.938105,354.568 C555.938105,355.832 556.358105,356.76 557.198105,357.352 C558.038105,357.944 558.986105,358.24 560.042105,358.24 Z M560.426105,356.512 C559.514105,356.512 558.838105,356.32 558.398105,355.936 C557.958105,355.552 557.738105,355.08 557.738105,354.52 C557.738105,354.168 557.806105,353.848 557.942105,353.56 C558.078105,353.272 558.370105,353 558.818105,352.744 C559.234105,352.52 559.850105,352.352 560.666105,352.24 C561.482105,352.128 562.562105,352.024 563.906105,351.928 L563.906105,353.536 C563.906105,354.496 563.566105,355.232 562.886105,355.744 C562.206105,356.256 561.386105,356.512 560.426105,356.512 Z M570.464421,358 L570.464421,350.104 C570.464421,349.08 570.772421,348.308 571.388421,347.788 C572.004421,347.268 572.712421,347.008 573.512421,347.008 C574.312421,347.008 575.020421,347.268 575.636421,347.788 C576.252421,348.308 576.560421,349.08 576.560421,350.104 L576.560421,358 L578.360421,358 L578.360421,350.128 C578.360421,348.32 577.840421,347.06 576.800421,346.348 C575.760421,345.636 574.664421,345.28 573.512421,345.28 C572.952421,345.28 572.380421,345.408 571.796421,345.664 C571.212421,345.92 570.768421,346.296 570.464421,346.792 L570.464421,345.616 L568.664421,345.616 L568.664421,358 L570.464421,358 Z M585.830737,358.24 C586.918737,358.24 587.962737,357.928 588.962737,357.304 C589.962737,356.68 590.526737,355.576 590.654737,353.992 L588.830737,353.992 C588.718737,354.824 588.370737,355.452 587.786737,355.876 C587.202737,356.3 586.550737,356.512 585.830737,356.512 C585.030737,356.512 584.322737,356.252 583.706737,355.732 C583.090737,355.212 582.782737,354.44 582.782737,353.416 L582.782737,350.104 C582.782737,349.08 583.090737,348.308 583.706737,347.788 C584.322737,347.268 585.030737,347.008 585.830737,347.008 C586.550737,347.008 587.202737,347.22 587.786737,347.644 C588.370737,348.068 588.718737,348.696 588.830737,349.528 L590.654737,349.528 C590.526737,347.944 589.962737,346.84 588.962737,346.216 C587.962737,345.592 586.918737,345.28 585.830737,345.28 C584.678737,345.28 583.582737,345.636 582.542737,346.348 C581.502737,347.06 580.982737,348.32 580.982737,350.128 L580.982737,353.392 C580.982737,355.216 581.502737,356.48 582.542737,357.184 C583.582737,357.888 584.678737,358.24 585.830737,358.24 Z M595.005053,343.528 L595.005053,341.2 L593.205053,341.2 L593.205053,343.528 L595.005053,343.528 Z M595.005053,358 L595.005053,345.616 L593.205053,345.616 L593.205053,358 L595.005053,358 Z M601.683368,358.24 C602.515368,358.24 603.267368,358.116 603.939368,357.868 C604.611368,357.62 605.147368,357.24 605.547368,356.728 L605.547368,358 L607.347368,358 L607.347368,350.128 C607.347368,348.32 606.827368,347.06 605.787368,346.348 C604.747368,345.636 603.651368,345.28 602.499368,345.28 C601.427368,345.28 600.395368,345.584 599.403368,346.192 C598.411368,346.8 597.835368,347.872 597.675368,349.408 L599.523368,349.408 C599.667368,348.608 600.023368,348.008 600.591368,347.608 C601.159368,347.208 601.795368,347.008 602.499368,347.008 C603.299368,347.008 604.007368,347.268 604.623368,347.788 C605.239368,348.308 605.547368,349.08 605.547368,350.104 L605.547368,350.32 C604.507368,350.384 603.543368,350.464 602.655368,350.56 C601.767368,350.656 600.971368,350.808 600.267368,351.016 C599.195368,351.32 598.479368,351.832 598.119368,352.552 C597.759368,353.272 597.579368,353.944 597.579368,354.568 C597.579368,355.832 597.999368,356.76 598.839368,357.352 C599.679368,357.944 600.627368,358.24 601.683368,358.24 Z M602.067368,356.512 C601.155368,356.512 600.479368,356.32 600.039368,355.936 C599.599368,355.552 599.379368,355.08 599.379368,354.52 C599.379368,354.168 599.447368,353.848 599.583368,353.56 C599.719368,353.272 600.011368,353 600.459368,352.744 C600.875368,352.52 601.491368,352.352 602.307368,352.24 C603.123368,352.128 604.203368,352.024 605.547368,351.928 L605.547368,353.536 C605.547368,354.496 605.207368,355.232 604.527368,355.744 C603.847368,356.256 603.027368,356.512 602.067368,356.512 Z" id="Menosde1metroemeiodedistância" fill="#00C0D2" fill-rule="nonzero"></path>
        </g>
    </g>
</svg>