<?xml version="1.0" encoding="UTF-8"?>
<svg width="510px" height="112px" viewBox="0 0 510 112" version="1.1" xmlns="http://www.w3.org/2000/svg" xmlns:xlink="http://www.w3.org/1999/xlink">
    <title>Slice</title>
    <defs>
        <filter id="filter-1">
            <feColorMatrix in="SourceGraphic" type="matrix" values="0 0 0 0 0.820760 0 0 0 0 0.820760 0 0 0 0 0.820760 0 0 0 1.000000 0"></feColorMatrix>
        </filter>
    </defs>
    <g id="Page-1" stroke="none" stroke-width="1" fill="none" fill-rule="evenodd">
        <g id="Group-12" transform="translate(4.650000, 4.924784)">
            <g id="Group-10-Copy" transform="translate(0.000000, 0.010643)">
                <path d="M83.8196577,42.5 L83.8196577,37.5005 L69.6131577,37.5005 L78.8696577,27.8975 C80.5526577,26.1815 81.7984077,24.548 82.6069077,22.997 C83.4154077,21.446 83.8196577,19.631 83.8196577,17.552 C83.8196577,13.526 82.5986577,10.82 80.1566577,9.434 C77.7146577,8.048 75.3881577,7.355 73.1771577,7.355 C70.9661577,7.355 68.6396577,8.07275 66.1976577,9.50825 C63.7556577,10.94375 62.5346577,13.757 62.5346577,17.948 L62.5346577,18.4925 L67.7321577,18.4925 L67.7321577,18.047 C67.7321577,16.133 68.2354077,14.70575 69.2419077,13.76525 C70.2484077,12.82475 71.5601577,12.3545 73.1771577,12.3545 C74.7941577,12.3545 76.1059077,12.79175 77.1124077,13.66625 C78.1189077,14.54075 78.6221577,15.869 78.6221577,17.651 C78.6221577,18.938 78.3004077,20.11775 77.6569077,21.19025 C77.0134077,22.26275 76.1141577,23.4095 74.9591577,24.6305 L62.5346577,37.5005 L62.5346577,42.5 L83.8196577,42.5 Z M95.7126841,42.5 L95.7126841,35.867 L89.0796841,35.867 L89.0796841,42.5 L95.7126841,42.5 Z M119.23821,42.5 L119.23821,33.9365 L122.85171,33.9365 L122.85171,29.135 L119.23821,29.135 L119.23821,7.85 L114.04071,7.85 L98.6462104,29.135 L98.6462104,33.9365 L114.04071,33.9365 L114.04071,42.5 L119.23821,42.5 Z M114.04071,29.135 L104.68521,29.135 L114.04071,16.2155 L114.04071,29.135 Z M147.875263,42.995 C151.571263,42.995 154.566013,41.8895 156.859513,39.6785 C159.153013,37.4675 160.299763,34.4975 160.299763,30.7685 L160.299763,23.4425 L147.875263,23.4425 L147.875263,28.541 L155.003263,28.541 L155.003263,30.7685 C155.003263,33.1775 154.244263,34.943 152.726263,36.065 C151.208263,37.187 149.591263,37.748 147.875263,37.748 C146.159263,37.748 144.542263,37.187 143.024263,36.065 C141.506263,34.943 140.747263,33.1775 140.747263,30.7685 L140.747263,19.5815 C140.747263,17.1725 141.506263,15.407 143.024263,14.285 C144.542263,13.163 146.159263,12.602 147.875263,12.602 C149.459263,12.602 150.969013,13.07225 152.404513,14.01275 C153.840013,14.95325 154.689763,16.43 154.953763,18.443 L160.250263,18.443 C160.019263,15.044 158.773513,12.34625 156.513013,10.34975 C154.252513,8.35325 151.373263,7.355 147.875263,7.355 C144.179263,7.355 141.184513,8.4605 138.891013,10.6715 C136.597513,12.8825 135.450763,15.8525 135.450763,19.5815 L135.450763,30.7685 C135.450763,34.4975 136.597513,37.4675 138.891013,39.6785 C141.184513,41.8895 144.179263,42.995 147.875263,42.995 Z M170.70779,42.5 L170.70779,27.65 L184.96379,27.65 L184.96379,42.5 L190.26029,42.5 L190.26029,7.85 L184.96379,7.85 L184.96379,22.403 L170.70779,22.403 L170.70779,7.85 L165.41129,7.85 L165.41129,42.5 L170.70779,42.5 Z M213.637316,42.5 L213.637316,37.5995 L201.064316,37.5995 L213.290816,21.8585 L213.290816,16.958 L194.926316,16.958 L194.926316,21.8585 L206.806316,21.8585 L194.579816,37.5995 L194.579816,42.5 L213.637316,42.5 Z" id="2.4GHz" fill="#00C0D2" fill-rule="nonzero"></path>
                <g id="icon_blarga_sconexao-copy-11" transform="translate(-0.000000, 12.000000)">
                    <g id="offline_icon-copy-16" transform="translate(0.199698, 0.199698)">
                        <g id="Group-9" transform="translate(0.085585, 0.211585)">
                            <circle id="Oval" fill="#00C0D2" cx="19.8239236" cy="23.6652979" r="2.52"></circle>
                            <path d="M39.3440373,8.69058201 C34.5016948,3.35240541 27.5097218,-3.41948692e-15 19.7347526,-3.41948692e-15 C11.8923721,-3.41948692e-15 4.84662438,3.41079008 3.73034936e-15,8.82987958" id="Oval" stroke="#00C0D2" stroke-width="2.835" stroke-linecap="round"></path>
                            <path d="M33.264834,13.902385 C29.9343483,10.2308725 25.1253811,7.92514172 19.7778817,7.92514172 C14.3840178,7.92514172 9.53806522,10.2710286 6.20463449,13.9981917" id="Oval-Copy-2" stroke="#00C0D2" stroke-width="2.835" stroke-linecap="round"></path>
                            <path d="M27.0717362,18.9286416 C25.2657052,16.9376811 22.6579342,15.6873465 19.7581319,15.6873465 C16.8331875,15.6873465 14.2053603,16.9594566 12.3977323,18.9805949" id="Oval-Copy-3" stroke="#00C0D2" stroke-width="2.835" stroke-linecap="round"></path>
                        </g>
                    </g>
                </g>
                <g id="Group-3-Copy-2" transform="translate(30.000000, 0.000000)">
                    <circle id="Oval" fill="#17D615" cx="11.7425" cy="11.7425" r="11.7425"></circle>
                    <g id="Group-2" transform="translate(12.255373, 10.300451) rotate(-45.000000) translate(-12.255373, -10.300451) translate(5.255373, 6.300451)" fill="#FFFFFF">
                        <rect id="Rectangle" x="0.187480449" y="4.59091795" width="12.9407129" height="2.51221482" rx="1.25610741"></rect>
                        <path d="M-0.798830089,2.3485 L3.68600581,2.3485 C4.37973478,2.3485 4.94211322,2.91087844 4.94211322,3.60460741 C4.94211322,4.29833638 4.37973478,4.86071482 3.68600581,4.86071482 L-0.798830089,4.86071482 C-1.49255906,4.86071482 -2.0549375,4.29833638 -2.0549375,3.60460741 C-2.0549375,2.91087844 -1.49255906,2.3485 -0.798830089,2.3485 Z" id="Rectangle-Copy" transform="translate(1.443588, 3.604607) rotate(-90.000000) translate(-1.443588, -3.604607) "></path>
                    </g>
                </g>
            </g>
            <g id="Group-17-Copy-2" opacity="0.200000003" transform="translate(354.467144, 59.010643)">
                <circle id="Oval" fill="#535353" cx="36.2695762" cy="35.7264613" r="7.9424648"></circle>
                <path d="M75.1325604,37.5662802 C75.1325604,16.8189965 58.3135639,9.09494702e-13 37.5662802,9.09494702e-13 C16.8189965,9.09494702e-13 2.27373675e-13,16.8189965 2.27373675e-13,37.5662802" id="Oval" stroke="#535353" stroke-width="2.85" stroke-linecap="round"></path>
                <path d="M79.7116196,8.62502681 C80.2219862,9.1104744 80.2623365,9.91074278 79.8033877,10.4450642 L46.4011257,49.3329337 C45.2088818,50.7209782 43.1171448,50.879706 41.7291003,49.6874621 C41.6633293,49.6309689 41.5998012,49.5719157 41.5386628,49.5104388 C40.1492648,48.1133498 40.1554996,45.8544558 41.5525886,44.4650578 C41.5564383,44.4612293 41.5602967,44.4574096 41.5641638,44.4535987 L77.9053324,8.64100652 C78.4044687,8.14913013 79.2038592,8.14205814 79.7116196,8.62502681 Z" id="Rectangle" fill="#B6B6B6" transform="translate(59.816961, 29.905145) rotate(33.000000) translate(-59.816961, -29.905145) "></path>
            </g>
            <g id="Group-32" transform="translate(75.249627, 50.936759)">
                <circle id="Oval-Copy-4" fill="#535353" cx="39.4870928" cy="45.1903451" r="7.9424648"></circle>
                <path d="M78.350077,47.030164 C78.350077,26.2828804 61.5310805,9.46388381 40.7837968,9.46388381 C20.0365132,9.46388381 3.21751662,26.2828804 3.21751662,47.030164" id="Oval-Copy" stroke="#535353" stroke-width="2.85" stroke-linecap="round"></path>
                <path d="M46.6714263,4.54842999 C47.1817929,5.03387758 47.2221432,5.83414597 46.7631944,6.36846738 L13.3609324,45.2563369 C12.1686885,46.6443814 10.0769515,46.8031092 8.68890697,45.6108652 C8.62313598,45.554372 8.55960794,45.4953189 8.49846955,45.433842 C7.10907153,44.036753 7.11530632,41.777859 8.51239533,40.388461 C8.51624502,40.3846325 8.52010343,40.3808128 8.52397055,40.3770019 L44.8651391,4.5644097 C45.3642754,4.07253331 46.1636659,4.06546133 46.6714263,4.54842999 Z" id="Rectangle-Copy-2" fill="#00C0D2" transform="translate(26.776768, 25.828548) rotate(-75.000000) translate(-26.776768, -25.828548) "></path>
            </g>
            <g id="Group-11-Copy" transform="translate(306.000000, 0.000000)">
                <path d="M74.2761577,42.995 C76.7511577,42.995 79.0859077,42.236 81.2804077,40.718 C83.4749077,39.2 84.5721577,36.6095 84.5721577,32.9465 L84.5721577,30.7685 C84.5721577,26.5775 83.3924077,23.76425 81.0329077,22.32875 C78.6734077,20.89325 76.4871577,20.1755 74.4741577,20.1755 C73.4511577,20.1755 72.4034077,20.3405 71.3309077,20.6705 C70.2584077,21.0005 69.4581577,21.4295 68.9301577,21.9575 L68.9301577,12.8495 L83.2356577,12.8495 L83.2356577,7.85 L63.7326577,7.85 L63.7326577,28.244 L68.9301577,28.244 C69.3261577,27.221 69.9614077,26.45375 70.8359077,25.94225 C71.7104077,25.43075 72.7416577,25.175 73.9296577,25.175 C75.5466577,25.175 76.8584077,25.64525 77.8649077,26.58575 C78.8714077,27.52625 79.3746577,28.9535 79.3746577,30.8675 L79.3746577,32.9465 C79.3746577,34.6295 78.8879077,35.89175 77.9144077,36.73325 C76.9409077,37.57475 75.6786577,37.9955 74.1276577,37.9955 C72.5766577,37.9955 71.2566577,37.55 70.1676577,36.659 C69.0786577,35.768 68.5176577,34.4315 68.4846577,32.6495 L68.4846577,32.6 L63.2871577,32.6 L63.2871577,32.6495 C63.3531577,36.7415 64.6236577,39.48875 67.0986577,40.89125 C69.5736577,42.29375 71.9661577,42.995 74.2761577,42.995 Z M109.914763,42.995 C113.610763,42.995 116.605513,41.8895 118.899013,39.6785 C121.192513,37.4675 122.339263,34.4975 122.339263,30.7685 L122.339263,23.4425 L109.914763,23.4425 L109.914763,28.541 L117.042763,28.541 L117.042763,30.7685 C117.042763,33.1775 116.283763,34.943 114.765763,36.065 C113.247763,37.187 111.630763,37.748 109.914763,37.748 C108.198763,37.748 106.581763,37.187 105.063763,36.065 C103.545763,34.943 102.786763,33.1775 102.786763,30.7685 L102.786763,19.5815 C102.786763,17.1725 103.545763,15.407 105.063763,14.285 C106.581763,13.163 108.198763,12.602 109.914763,12.602 C111.498763,12.602 113.008513,13.07225 114.444013,14.01275 C115.879513,14.95325 116.729263,16.43 116.993263,18.443 L122.289763,18.443 C122.058763,15.044 120.813013,12.34625 118.552513,10.34975 C116.292013,8.35325 113.412763,7.355 109.914763,7.355 C106.218763,7.355 103.224013,8.4605 100.930513,10.6715 C98.6370132,12.8825 97.4902632,15.8525 97.4902632,19.5815 L97.4902632,30.7685 C97.4902632,34.4975 98.6370132,37.4675 100.930513,39.6785 C103.224013,41.8895 106.218763,42.995 109.914763,42.995 Z M132.74729,42.5 L132.74729,27.65 L147.00329,27.65 L147.00329,42.5 L152.29979,42.5 L152.29979,7.85 L147.00329,7.85 L147.00329,22.403 L132.74729,22.403 L132.74729,7.85 L127.45079,7.85 L127.45079,42.5 L132.74729,42.5 Z M175.676816,42.5 L175.676816,37.5995 L163.103816,37.5995 L175.330316,21.8585 L175.330316,16.958 L156.965816,16.958 L156.965816,21.8585 L168.845816,21.8585 L156.619316,37.5995 L156.619316,42.5 L175.676816,42.5 Z" id="5.0GHz" fill="#121212" fill-rule="nonzero" opacity="0.200000003"></path>
                <g filter="url(#filter-1)" id="icon_blarga_sconexao-copy-10">
                    <g transform="translate(0.000000, 12.000000)">
                        <g id="offline_icon-copy-15" transform="translate(0.199698, 0.199698)">
                            <g id="Group-9" transform="translate(0.085585, 0.211585)">
                                <circle id="Oval" fill="#00C0D2" cx="19.8239236" cy="23.6652979" r="2.52"></circle>
                                <path d="M39.3440373,8.69058201 C34.5016948,3.35240541 27.5097218,-3.41948692e-15 19.7347526,-3.41948692e-15 C11.8923721,-3.41948692e-15 4.84662438,3.41079008 3.73034936e-15,8.82987958" id="Oval" stroke="#00C0D2" stroke-width="2.835" stroke-linecap="round"></path>
                                <path d="M33.264834,13.902385 C29.9343483,10.2308725 25.1253811,7.92514172 19.7778817,7.92514172 C14.3840178,7.92514172 9.53806522,10.2710286 6.20463449,13.9981917" id="Oval-Copy-2" stroke="#00C0D2" stroke-width="2.835" stroke-linecap="round"></path>
                                <path d="M27.0717362,18.9286416 C25.2657052,16.9376811 22.6579342,15.6873465 19.7581319,15.6873465 C16.8331875,15.6873465 14.2053603,16.9594566 12.3977323,18.9805949" id="Oval-Copy-3" stroke="#00C0D2" stroke-width="2.835" stroke-linecap="round"></path>
                            </g>
                        </g>
                    </g>
                </g>
                <g id="Group-3-Copy-3" transform="translate(30.000000, 0.000000)">
                    <circle id="Oval" fill="#E66262" cx="11.7425" cy="11.7425" r="11.7425"></circle>
                    <g id="Group-2" transform="translate(11.742500, 11.742500) rotate(-45.000000) translate(-11.742500, -11.742500) translate(4.742500, 9.742500)" fill="#FFFFFF">
                        <rect id="Rectangle" x="0.193720755" y="0.590917949" width="13.3714458" height="2.51221482" rx="1.25610741"></rect>
                    </g>
                    <g id="Group-2-Copy" transform="translate(11.742500, 11.742500) rotate(-135.000000) translate(-11.742500, -11.742500) translate(4.742500, 9.742500)" fill="#FFFFFF">
                        <rect id="Rectangle" x="0.196778583" y="0.590917949" width="13.5825103" height="2.51221482" rx="1.25610741"></rect>
                    </g>
                </g>
            </g>
        </g>
    </g>
</svg>