<?xml version="1.0" encoding="UTF-8"?>
<svg width="510px" height="112px" viewBox="0 0 510 112" version="1.1" xmlns="http://www.w3.org/2000/svg" xmlns:xlink="http://www.w3.org/1999/xlink">
    <title>Slice Copy</title>
    <g id="Page-1" stroke="none" stroke-width="1" fill="none" fill-rule="evenodd">
        <g id="Group-10-Copy" transform="translate(4.650000, 4.245717)">
            <path d="M83.8196577,42.5 L83.8196577,37.5005 L69.6131577,37.5005 L78.8696577,27.8975 C80.5526577,26.1815 81.7984077,24.548 82.6069077,22.997 C83.4154077,21.446 83.8196577,19.631 83.8196577,17.552 C83.8196577,13.526 82.5986577,10.82 80.1566577,9.434 C77.7146577,8.048 75.3881577,7.355 73.1771577,7.355 C70.9661577,7.355 68.6396577,8.07275 66.1976577,9.50825 C63.7556577,10.94375 62.5346577,13.757 62.5346577,17.948 L62.5346577,18.4925 L67.7321577,18.4925 L67.7321577,18.047 C67.7321577,16.133 68.2354077,14.70575 69.2419077,13.76525 C70.2484077,12.82475 71.5601577,12.3545 73.1771577,12.3545 C74.7941577,12.3545 76.1059077,12.79175 77.1124077,13.66625 C78.1189077,14.54075 78.6221577,15.869 78.6221577,17.651 C78.6221577,18.938 78.3004077,20.11775 77.6569077,21.19025 C77.0134077,22.26275 76.1141577,23.4095 74.9591577,24.6305 L62.5346577,37.5005 L62.5346577,42.5 L83.8196577,42.5 Z M95.7126841,42.5 L95.7126841,35.867 L89.0796841,35.867 L89.0796841,42.5 L95.7126841,42.5 Z M119.23821,42.5 L119.23821,33.9365 L122.85171,33.9365 L122.85171,29.135 L119.23821,29.135 L119.23821,7.85 L114.04071,7.85 L98.6462104,29.135 L98.6462104,33.9365 L114.04071,33.9365 L114.04071,42.5 L119.23821,42.5 Z M114.04071,29.135 L104.68521,29.135 L114.04071,16.2155 L114.04071,29.135 Z M147.875263,42.995 C151.571263,42.995 154.566013,41.8895 156.859513,39.6785 C159.153013,37.4675 160.299763,34.4975 160.299763,30.7685 L160.299763,23.4425 L147.875263,23.4425 L147.875263,28.541 L155.003263,28.541 L155.003263,30.7685 C155.003263,33.1775 154.244263,34.943 152.726263,36.065 C151.208263,37.187 149.591263,37.748 147.875263,37.748 C146.159263,37.748 144.542263,37.187 143.024263,36.065 C141.506263,34.943 140.747263,33.1775 140.747263,30.7685 L140.747263,19.5815 C140.747263,17.1725 141.506263,15.407 143.024263,14.285 C144.542263,13.163 146.159263,12.602 147.875263,12.602 C149.459263,12.602 150.969013,13.07225 152.404513,14.01275 C153.840013,14.95325 154.689763,16.43 154.953763,18.443 L160.250263,18.443 C160.019263,15.044 158.773513,12.34625 156.513013,10.34975 C154.252513,8.35325 151.373263,7.355 147.875263,7.355 C144.179263,7.355 141.184513,8.4605 138.891013,10.6715 C136.597513,12.8825 135.450763,15.8525 135.450763,19.5815 L135.450763,30.7685 C135.450763,34.4975 136.597513,37.4675 138.891013,39.6785 C141.184513,41.8895 144.179263,42.995 147.875263,42.995 Z M170.70779,42.5 L170.70779,27.65 L184.96379,27.65 L184.96379,42.5 L190.26029,42.5 L190.26029,7.85 L184.96379,7.85 L184.96379,22.403 L170.70779,22.403 L170.70779,7.85 L165.41129,7.85 L165.41129,42.5 L170.70779,42.5 Z M213.637316,42.5 L213.637316,37.5995 L201.064316,37.5995 L213.290816,21.8585 L213.290816,16.958 L194.926316,16.958 L194.926316,21.8585 L206.806316,21.8585 L194.579816,37.5995 L194.579816,42.5 L213.637316,42.5 Z" id="2.4GHz" fill="#00C0D2" fill-rule="nonzero"></path>
            <g id="icon_blarga_sconexao-copy-10" transform="translate(-0.000000, 12.000000)">
                <g id="offline_icon-copy-16" transform="translate(0.199698, 0.199698)">
                    <g id="Group-9" transform="translate(0.085585, 0.211585)">
                        <circle id="Oval" fill="#00C0D2" cx="19.8239236" cy="23.6652979" r="2.52"></circle>
                        <path d="M39.3440373,8.69058201 C34.5016948,3.35240541 27.5097218,-3.41948692e-15 19.7347526,-3.41948692e-15 C11.8923721,-3.41948692e-15 4.84662438,3.41079008 3.73034936e-15,8.82987958" id="Oval" stroke="#00C0D2" stroke-width="2.835" stroke-linecap="round"></path>
                        <path d="M33.264834,13.902385 C29.9343483,10.2308725 25.1253811,7.92514172 19.7778817,7.92514172 C14.3840178,7.92514172 9.53806522,10.2710286 6.20463449,13.9981917" id="Oval-Copy-2" stroke="#00C0D2" stroke-width="2.835" stroke-linecap="round"></path>
                        <path d="M27.0717362,18.9286416 C25.2657052,16.9376811 22.6579342,15.6873465 19.7581319,15.6873465 C16.8331875,15.6873465 14.2053603,16.9594566 12.3977323,18.9805949" id="Oval-Copy-3" stroke="#00C0D2" stroke-width="2.835" stroke-linecap="round"></path>
                    </g>
                </g>
            </g>
            <g id="Group-3-Copy-2" transform="translate(30.000000, 0.000000)">
                <circle id="Oval" fill="#17D615" cx="11.7425" cy="11.7425" r="11.7425"></circle>
                <g id="Group-2" transform="translate(12.255373, 10.300451) rotate(-45.000000) translate(-12.255373, -10.300451) translate(5.255373, 6.300451)" fill="#FFFFFF">
                    <rect id="Rectangle" x="0.187480449" y="4.59091795" width="12.9407129" height="2.51221482" rx="1.25610741"></rect>
                    <path d="M-0.798830089,2.3485 L3.68600581,2.3485 C4.37973478,2.3485 4.94211322,2.91087844 4.94211322,3.60460741 C4.94211322,4.29833638 4.37973478,4.86071482 3.68600581,4.86071482 L-0.798830089,4.86071482 C-1.49255906,4.86071482 -2.0549375,4.29833638 -2.0549375,3.60460741 C-2.0549375,2.91087844 -1.49255906,2.3485 -0.798830089,2.3485 Z" id="Rectangle-Copy" transform="translate(1.443588, 3.604607) rotate(-90.000000) translate(-1.443588, -3.604607) "></path>
                </g>
            </g>
        </g>
        <g id="Group-32" transform="translate(100.749325, 56.861543)">
            <circle id="Oval-Copy-4" fill="#535353" cx="39.4870928" cy="45.1903451" r="7.9424648"></circle>
            <path d="M78.350077,47.030164 C78.350077,26.2828804 61.5310805,9.46388381 40.7837968,9.46388381 C20.0365132,9.46388381 3.21751662,26.2828804 3.21751662,47.030164" id="Oval-Copy" stroke="#535353" stroke-width="2.85" stroke-linecap="round"></path>
            <path d="M46.6714263,4.54842999 C47.1817929,5.03387758 47.2221432,5.83414597 46.7631944,6.36846738 L13.3609324,45.2563369 C12.1686885,46.6443814 10.0769515,46.8031092 8.68890697,45.6108652 C8.62313598,45.554372 8.55960794,45.4953189 8.49846955,45.433842 C7.10907153,44.036753 7.11530632,41.777859 8.51239533,40.388461 C8.51624502,40.3846325 8.52010343,40.3808128 8.52397055,40.3770019 L44.8651391,4.5644097 C45.3642754,4.07253331 46.1636659,4.06546133 46.6714263,4.54842999 Z" id="Rectangle-Copy-2" fill="#00C0D2" transform="translate(26.776768, 25.828548) rotate(-75.000000) translate(-26.776768, -25.828548) "></path>
        </g>
        <path d="M379.926158,47.240717 C382.401158,47.240717 384.735908,46.481717 386.930408,44.963717 C389.124908,43.445717 390.222158,40.855217 390.222158,37.192217 L390.222158,35.014217 C390.222158,30.823217 389.042408,28.009967 386.682908,26.574467 C384.323408,25.138967 382.137158,24.421217 380.124158,24.421217 C379.101158,24.421217 378.053408,24.586217 376.980908,24.916217 C375.908408,25.246217 375.108158,25.675217 374.580158,26.203217 L374.580158,17.095217 L388.885658,17.095217 L388.885658,12.095717 L369.382658,12.095717 L369.382658,32.489717 L374.580158,32.489717 C374.976158,31.466717 375.611408,30.699467 376.485908,30.187967 C377.360408,29.676467 378.391658,29.420717 379.579658,29.420717 C381.196658,29.420717 382.508408,29.890967 383.514908,30.831467 C384.521408,31.771967 385.024658,33.199217 385.024658,35.113217 L385.024658,37.192217 C385.024658,38.875217 384.537908,40.137467 383.564408,40.978967 C382.590908,41.820467 381.328658,42.241217 379.777658,42.241217 C378.226658,42.241217 376.906658,41.795717 375.817658,40.904717 C374.728658,40.013717 374.167658,38.677217 374.134658,36.895217 L374.134658,36.845717 L368.937158,36.845717 L368.937158,36.895217 C369.003158,40.987217 370.273658,43.734467 372.748658,45.136967 C375.223658,46.539467 377.616158,47.240717 379.926158,47.240717 Z M415.564763,47.240717 C419.260763,47.240717 422.255513,46.135217 424.549013,43.924217 C426.842513,41.713217 427.989263,38.743217 427.989263,35.014217 L427.989263,27.688217 L415.564763,27.688217 L415.564763,32.786717 L422.692763,32.786717 L422.692763,35.014217 C422.692763,37.423217 421.933763,39.188717 420.415763,40.310717 C418.897763,41.432717 417.280763,41.993717 415.564763,41.993717 C413.848763,41.993717 412.231763,41.432717 410.713763,40.310717 C409.195763,39.188717 408.436763,37.423217 408.436763,35.014217 L408.436763,23.827217 C408.436763,21.418217 409.195763,19.652717 410.713763,18.530717 C412.231763,17.408717 413.848763,16.847717 415.564763,16.847717 C417.148763,16.847717 418.658513,17.317967 420.094013,18.258467 C421.529513,19.198967 422.379263,20.675717 422.643263,22.688717 L427.939763,22.688717 C427.708763,19.289717 426.463013,16.591967 424.202513,14.595467 C421.942013,12.598967 419.062763,11.600717 415.564763,11.600717 C411.868763,11.600717 408.874013,12.706217 406.580513,14.917217 C404.287013,17.128217 403.140263,20.098217 403.140263,23.827217 L403.140263,35.014217 C403.140263,38.743217 404.287013,41.713217 406.580513,43.924217 C408.874013,46.135217 411.868763,47.240717 415.564763,47.240717 Z M438.39729,46.745717 L438.39729,31.895717 L452.65329,31.895717 L452.65329,46.745717 L457.94979,46.745717 L457.94979,12.095717 L452.65329,12.095717 L452.65329,26.648717 L438.39729,26.648717 L438.39729,12.095717 L433.10079,12.095717 L433.10079,46.745717 L438.39729,46.745717 Z M481.326816,46.745717 L481.326816,41.845217 L468.753816,41.845217 L480.980316,26.104217 L480.980316,21.203717 L462.615816,21.203717 L462.615816,26.104217 L474.495816,26.104217 L462.269316,41.845217 L462.269316,46.745717 L481.326816,46.745717 Z" id="5.0GHz" fill="#00C0D2" fill-rule="nonzero"></path>
        <g id="offline_icon-copy-15" transform="translate(305.849698, 16.445415)">
            <g id="Group-9" transform="translate(0.085585, 0.211585)">
                <circle id="Oval" fill="#00C0D2" cx="19.8239236" cy="23.6652979" r="2.52"></circle>
                <path d="M39.3440373,8.69058201 C34.5016948,3.35240541 27.5097218,-3.41948692e-15 19.7347526,-3.41948692e-15 C11.8923721,-3.41948692e-15 4.84662438,3.41079008 3.73034936e-15,8.82987958" id="Oval" stroke="#00C0D2" stroke-width="2.835" stroke-linecap="round"></path>
                <path d="M33.264834,13.902385 C29.9343483,10.2308725 25.1253811,7.92514172 19.7778817,7.92514172 C14.3840178,7.92514172 9.53806522,10.2710286 6.20463449,13.9981917" id="Oval-Copy-2" stroke="#00C0D2" stroke-width="2.835" stroke-linecap="round"></path>
                <path d="M27.0717362,18.9286416 C25.2657052,16.9376811 22.6579342,15.6873465 19.7581319,15.6873465 C16.8331875,15.6873465 14.2053603,16.9594566 12.3977323,18.9805949" id="Oval-Copy-3" stroke="#00C0D2" stroke-width="2.835" stroke-linecap="round"></path>
            </g>
        </g>
        <g id="Group-17-Copy-2" transform="translate(379.000000, 63.245717)">
            <circle id="Oval" fill="#535353" cx="36.38672" cy="35.7264613" r="7.9424648"></circle>
            <path d="M75.2497042,37.5662802 C75.2497042,16.8189965 58.4307077,0 37.683424,0 C16.9361403,0 0.117143792,16.8189965 0.117143792,37.5662802" id="Oval" stroke="#535353" stroke-width="2.85" stroke-linecap="round"></path>
            <path d="M79.8287634,8.62502681 C80.33913,9.1104744 80.3794803,9.91074278 79.9205315,10.4450642 L46.5182695,49.3329337 C45.3260256,50.7209782 43.2342885,50.879706 41.8462441,49.6874621 C41.7804731,49.6309689 41.716945,49.5719157 41.6558066,49.5104388 C40.2664086,48.1133498 40.2726434,45.8544558 41.6697324,44.4650578 C41.6735821,44.4612293 41.6774405,44.4574096 41.6813076,44.4535987 L78.0224762,8.64100652 C78.5216125,8.14913013 79.321003,8.14205814 79.8287634,8.62502681 Z" id="Rectangle" fill="#00C0D2" transform="translate(59.934105, 29.905145) rotate(33.000000) translate(-59.934105, -29.905145) "></path>
        </g>
        <g id="Group-3-Copy-4" transform="translate(334.650000, 4.245717)">
            <circle id="Oval" fill="#17D615" cx="11.7425" cy="11.7425" r="11.7425"></circle>
            <g id="Group-2" transform="translate(12.255373, 10.300451) rotate(-45.000000) translate(-12.255373, -10.300451) translate(5.255373, 6.300451)" fill="#FFFFFF">
                <rect id="Rectangle" x="0.187480449" y="4.59091795" width="12.9407129" height="2.51221482" rx="1.25610741"></rect>
                <path d="M-0.798830089,2.3485 L3.68600581,2.3485 C4.37973478,2.3485 4.94211322,2.91087844 4.94211322,3.60460741 C4.94211322,4.29833638 4.37973478,4.86071482 3.68600581,4.86071482 L-0.798830089,4.86071482 C-1.49255906,4.86071482 -2.0549375,4.29833638 -2.0549375,3.60460741 C-2.0549375,2.91087844 -1.49255906,2.3485 -0.798830089,2.3485 Z" id="Rectangle-Copy" transform="translate(1.443588, 3.604607) rotate(-90.000000) translate(-1.443588, -3.604607) "></path>
            </g>
        </g>
    </g>
</svg>