<?xml version="1.0" encoding="UTF-8"?>
<svg width="221px" height="213px" viewBox="0 0 221 213" version="1.1" xmlns="http://www.w3.org/2000/svg" xmlns:xlink="http://www.w3.org/1999/xlink">
    <title>Group 2</title>
    <defs>
        <linearGradient x1="77.4837965%" y1="90.1320598%" x2="15.4446545%" y2="-39.4905638%" id="linearGradient-1">
            <stop stop-color="#CBDDF8" offset="0%"></stop>
            <stop stop-color="#F3F3F3" offset="100%"></stop>
        </linearGradient>
        <linearGradient x1="50%" y1="0%" x2="50%" y2="100%" id="linearGradient-2">
            <stop stop-color="#BECFE9" offset="0%"></stop>
            <stop stop-color="#9FB3D8" offset="100%"></stop>
        </linearGradient>
        <linearGradient x1="34.3256148%" y1="5.61736931%" x2="71.6893692%" y2="95.2396023%" id="linearGradient-3">
            <stop stop-color="#F6CACA" offset="0%"></stop>
            <stop stop-color="#E4A5A5" offset="100%"></stop>
        </linearGradient>
    </defs>
    <g id="prototipo" stroke="none" stroke-width="1" fill="none" fill-rule="evenodd">
        <g id="01_central_de_notificações_nao_lida-copy-15" transform="translate(-101.000000, -225.000000)">
            <g id="Group-2" transform="translate(101.686191, 225.731006)">
                <path d="M39.5192181,125.688674 C61.600886,158.979127 107.861531,206.772353 160.024603,184.119263 C218.929025,158.529661 200.143129,71.8426384 182.615617,41.5186608 C170.870687,21.1428656 157.807448,14.3109813 136.175203,32.7390902 C111.69661,53.5343871 88.895865,54.8528209 67.6830822,52.9650634 C7.40042826,47.6313994 11.8347388,83.9482579 39.5192181,125.688674 Z" id="Path-Copy" fill="url(#linearGradient-1)" fill-rule="nonzero" opacity="0.5" transform="translate(110.000000, 106.000000) rotate(-16.000000) translate(-110.000000, -106.000000) "></path>
                <g id="Group-16" transform="translate(95.313809, 59.230238)">
                    <path d="M11.4647534,2.7646552 C12.2711679,1.36775106 13.7620803,0.507722465 15.375644,0.508438078 C17.4203238,0.502581341 19.2116219,1.87598324 19.7374806,3.85236015 L21.008061,8.6005119 C20.8655798,8.61299733 20.7253018,8.64090613 20.5828206,8.65632931 C20.109107,8.70406802 19.6390656,8.76502637 19.1719623,8.83847032 C18.9237216,8.87739557 18.6754809,8.9177898 18.4287092,8.96479393 C17.9079916,9.06467771 17.3931495,9.17851589 16.884183,9.30483949 C16.7710792,9.33348268 16.6572412,9.34964026 16.5456064,9.37975242 C16.4339716,9.4098644 16.3634654,9.43997637 16.2716603,9.46568181 C15.6973286,9.62358617 15.1310757,9.80205503 14.573636,9.99961923 C14.4230759,10.0517645 14.2820635,10.1061131 14.13591,10.1604615 C13.5557029,10.3771213 12.9843088,10.6136109 12.4224626,10.8706646 C12.3791306,10.8897602 12.332861,10.9051834 12.2887945,10.9257477 L11.0196829,6.18787798 C10.703874,5.03333898 10.8639819,3.8002149 11.4647534,2.7646552 Z" id="Path" fill="#BECFE9"></path>
                    <path d="M42.3486716,77.2192007 C42.5579868,80.7827014 40.2327511,84.0024845 36.7838229,84.9249406 C33.3348947,85.8459277 29.7133733,84.219144 28.1108261,81.0294731 L42.3486716,77.2192007 Z" id="Path" fill="#9FB3D8"></path>
                    <path d="M66.1246836,67.7324446 L2.77045768,84.6994676 C2.33713843,84.8213847 1.87297263,84.6620111 1.60490223,84.2991981 C1.32287744,83.9451981 1.29276546,83.4523893 1.5299893,83.0675428 C4.82174753,77.3528686 6.5557593,70.8751116 6.55943145,64.2805789 C6.56016584,60.989555 6.12831557,57.7132202 5.27342772,54.5353001 L1.36253708,39.9148118 C-1.29833733,29.9866577 3.08186006,19.5135495 12.0199897,14.4363688 L12.0464295,14.4246178 C13.3096656,13.7313068 14.6367979,13.1613817 16.008731,12.7221867 C16.4420503,12.578971 16.8614153,12.4078466 17.3050168,12.2918053 C18.8245722,11.8893324 20.3815841,11.6447639 21.951816,11.5610378 C22.2837827,11.5426769 22.6164837,11.522847 22.9484504,11.5199092 L23.1805333,11.5199092 C33.3855711,11.5221126 42.3148873,18.3839813 44.9449153,28.244567 L48.8558062,42.8679933 C51.4696766,52.4869482 57.7719025,60.6869659 66.394223,65.6884995 C66.7401441,65.8735782 66.9546002,66.2349225 66.9515254,66.6271131 C66.9678203,67.1426898 66.6248369,67.6017145 66.1246836,67.7309759 L66.1246836,67.7324446 Z" id="Path" fill="url(#linearGradient-2)"></path>
                    <circle id="Oval" stroke="#FAFBFF" stroke-width="3" fill="url(#linearGradient-3)" cx="53.7999666" cy="64.0676418" r="21.25"></circle>
                    <text id="1" opacity="0.800000012" font-family="SimplonBP-Medium, Simplon BP" font-size="30" font-weight="400" fill="#FFFFFF">
                        <tspan x="47.7999666" y="74.0676418">1</tspan>
                    </text>
                </g>
            </g>
        </g>
    </g>
</svg>