<svg width="81" height="81" viewBox="0 0 81 81" fill="none" xmlns="http://www.w3.org/2000/svg">
<circle cx="40.2745" cy="40.1319" r="40.1261" fill="white"/>
<path fill-rule="evenodd" clip-rule="evenodd" d="M49.5156 36.3341L66.7527 36.3203H66.7535V50.6381L49.5315 50.6519L49.5156 36.3341Z" fill="white"/>
<path d="M20.6813 48.8055C19.5323 48.8055 19.1621 48.5982 19.1621 47.149V27.1713C19.1621 25.729 19.288 25.6163 20.7205 25.6163H58.9276C60.6874 25.6163 60.8367 25.7647 60.8367 26.8137L60.7635 38.7896H63.9618L64.035 25.0909C64.035 23.4044 63.0021 23.0625 60.9694 23.0625H18.6856C16.6574 23.0625 15.9668 23.7846 15.9668 25.4692V48.9858C15.9668 50.6748 16.6145 51.3593 18.6426 51.3593H36.0931V53.7559C31.6394 54.2688 27.9548 55.3209 27.9548 55.5507C27.9548 55.6422 28.0068 55.7373 28.0792 56.1895L52.6471 56.1901C52.718 55.738 52.77 55.6447 52.77 55.5507C52.77 55.5507 48.621 54.3208 43.9743 53.7559V51.3593H52.7693C52.77 51.1664 52.77 48.8055 52.77 48.8055H20.6813Z" fill="#50B748"/>
<path fill-rule="evenodd" clip-rule="evenodd" d="M55.1761 41.197L55.6026 40.8355C56.1889 40.3387 57.14 40.3387 57.7263 40.8355L60.7841 43.4268L63.8418 40.8355C64.4281 40.3387 65.3792 40.3387 65.9655 40.8355L66.3921 41.197C66.9784 41.6943 66.9784 42.4999 66.3921 42.9967L63.3343 45.5876L66.2449 48.054C66.8312 48.5509 66.8312 49.3569 66.2449 49.8538L65.8183 50.2152C65.232 50.7121 64.2809 50.7121 63.6946 50.2152L60.7841 47.7488L57.8731 50.2152C57.2867 50.7121 56.3357 50.7121 55.7493 50.2152L55.3228 49.8538C54.7365 49.3569 54.7365 48.5509 55.3228 48.054L58.2333 45.5876L55.1761 42.9967C54.5897 42.4999 54.5897 41.6939 55.1761 41.197Z" fill="#5BBA44"/>
<path d="M40.4509 28.0156L40.4469 32.0371L40.4387 36.0587L40.109 35.1265V35.1225L39.6816 44.0773C40.105 45.2658 40.3288 45.9008 40.3288 45.9008C40.3329 45.9049 40.569 45.9171 40.862 45.9333C41.7372 45.9781 42.824 46.0717 43.6502 46.1735C43.8415 46.1979 44.0044 46.2101 44.0166 46.1979C44.0288 46.1898 44.0329 42.095 44.0288 37.0966L44.0206 28.0156H40.4509V28.0156Z" fill="#50B748"/>
<path d="M34 28.0041V37.0973C34 42.0997 34.0041 46.1945 34.0122 46.2027C34.0204 46.2108 34.3297 46.1782 34.7001 46.1375C35.0746 46.0968 35.5874 46.0439 35.8439 46.0236C36.2346 45.991 37.415 45.9177 37.5494 45.9137C37.5901 45.9137 37.5941 45.7101 37.5982 42.0631L37.6063 38.2125L37.8913 39.0185C37.936 39.1446 37.9482 39.1813 37.993 39.3034L38.4204 30.3445C38.3309 30.0881 38.3756 30.2224 38.2739 29.9294C37.9238 28.9403 37.6267 28.1058 37.6145 28.0651L37.5901 28L34 28.0041Z" fill="#50B748"/>
<path d="M34 28.0039L37.6023 38.2124V38.2083L37.8872 39.0142C39.4706 43.4916 40.3213 45.8972 40.3253 45.9013C40.3294 45.9053 40.5655 45.9176 40.8586 45.9338C41.7337 45.9786 42.8205 46.0722 43.6468 46.174C43.834 46.1984 44.0009 46.2106 44.009 46.1984L40.4393 36.0551V36.0591L40.1096 35.127C39.7881 34.2153 39.5723 33.6047 38.2698 29.9333C37.9198 28.9442 37.6226 28.1097 37.6104 28.069L37.586 28.0039H35.791H34Z" fill="#50B748"/>
</svg>
