<svg width="43" height="43" viewBox="0 0 43 43" fill="none" xmlns="http://www.w3.org/2000/svg">
<path fill-rule="evenodd" clip-rule="evenodd" d="M21.119 42.238C32.7827 42.238 42.238 32.7827 42.238 21.119C42.238 9.45529 32.7827 0 21.119 0C9.45529 0 0 9.45529 0 21.119C0 32.7827 9.45529 42.238 21.119 42.238Z" fill="white"/>
<path fill-rule="evenodd" clip-rule="evenodd" d="M33.1883 18.0849C33.2288 18.4524 32.9586 18.7927 32.5802 18.8335H32.5126C32.1748 18.8335 31.8775 18.5749 31.837 18.221C31.6343 16.1929 30.4587 14.3962 28.6749 13.4298C27.8236 12.967 26.9047 12.722 25.9588 12.7084C25.5805 12.6948 25.2832 12.3953 25.2967 12.0142C25.3102 11.6331 25.6075 11.3336 25.9859 11.3472C27.1345 11.3744 28.2966 11.6739 29.3236 12.232C31.4992 13.4025 32.945 15.594 33.1883 18.0849ZM22.986 22.3861L25.2967 20.0585C25.4859 20.1266 25.6886 20.1674 25.9048 20.1674C26.3642 20.1674 26.7831 19.9905 27.1074 19.6638C27.4317 19.3371 27.6074 18.9152 27.6074 18.4524C27.6074 17.9896 27.4317 17.5676 27.1074 17.241C26.7831 16.9143 26.3642 16.7374 25.9048 16.7374C25.4453 16.7374 25.0264 16.9143 24.7021 17.241C24.3778 17.5676 24.2021 17.9896 24.2021 18.4524C24.2021 18.6838 24.2427 18.9016 24.3238 19.1057L22.0265 21.4197L14.135 13.4706C13.8647 13.1984 13.4458 13.1984 13.1755 13.4706C10.8108 15.8526 9.5 19.0105 9.5 22.3861C9.5 25.7617 10.7972 28.9196 13.162 31.3016C15.5268 33.6836 18.6753 35.0039 22.013 35.0039C25.3643 35.0039 28.4993 33.6972 30.864 31.3016C31.1343 31.0294 31.1343 30.6074 30.864 30.3352L22.986 22.3861ZM25.6615 18.2074C25.7291 18.1393 25.8102 18.0985 25.9048 18.0985C25.9994 18.0985 26.0804 18.1393 26.148 18.2074C26.2156 18.2754 26.2561 18.3571 26.2561 18.4524C26.2561 18.5477 26.2156 18.6293 26.148 18.6974C26.0129 18.8335 25.7832 18.8335 25.648 18.6974C25.5805 18.6293 25.5399 18.5477 25.5399 18.4524C25.5399 18.3571 25.594 18.2754 25.6615 18.2074ZM14.1214 30.3488C16.2295 32.4722 19.0402 33.6428 22.0265 33.6428C24.7967 33.6428 27.3912 32.6355 29.4317 30.8116L13.662 14.927C11.8377 16.9824 10.8513 19.6094 10.8513 22.3861C10.8513 25.3942 12.0134 28.2254 14.1214 30.3488ZM25.6075 13.6748C25.2291 13.6748 24.9318 13.9606 24.9183 14.3417C24.9183 14.7092 25.2156 15.0223 25.567 15.0359C26.1886 15.0495 26.7831 15.2129 27.3372 15.5123C28.4993 16.1384 29.256 17.309 29.3911 18.6293C29.4317 18.9832 29.729 19.2419 30.0668 19.2419H30.1343C30.5127 19.201 30.783 18.8607 30.7424 18.4932C30.5803 16.7237 29.5398 15.1584 27.9858 14.3145C27.2561 13.9062 26.4318 13.6884 25.6075 13.6748Z" fill="#54B847"/>
<path d="M32.5802 18.8335V19.0835H32.5936L32.607 19.0821L32.5802 18.8335ZM33.1883 18.0849L32.9394 18.1092L32.9398 18.1123L33.1883 18.0849ZM31.837 18.221L31.5882 18.2459L31.5886 18.2495L31.837 18.221ZM28.6749 13.4298L28.5555 13.6494L28.5558 13.6496L28.6749 13.4298ZM25.9588 12.7084L25.9498 12.9583L25.9552 12.9583L25.9588 12.7084ZM25.2967 12.0142L25.5465 12.023L25.5465 12.023L25.2967 12.0142ZM25.9859 11.3472L25.9769 11.5971L25.9799 11.5971L25.9859 11.3472ZM29.3236 12.232L29.2042 12.4516L29.2051 12.4521L29.3236 12.232ZM25.2967 20.0585L25.3813 19.8233L25.2315 19.7694L25.1193 19.8824L25.2967 20.0585ZM22.986 22.3861L22.8086 22.21L22.6338 22.386L22.8084 22.5621L22.986 22.3861ZM27.1074 19.6638L26.93 19.4877L26.93 19.4877L27.1074 19.6638ZM27.1074 17.241L27.2849 17.0648L27.2849 17.0648L27.1074 17.241ZM24.7021 17.241L24.5247 17.0648L24.5247 17.0648L24.7021 17.241ZM24.3238 19.1057L24.5012 19.2819L24.6165 19.1657L24.5561 19.0135L24.3238 19.1057ZM22.0265 21.4197L21.8491 21.5958L22.0265 21.7745L22.204 21.5958L22.0265 21.4197ZM14.135 13.4706L13.9575 13.6467L13.9575 13.6467L14.135 13.4706ZM13.1755 13.4706L13.353 13.6467L13.353 13.6467L13.1755 13.4706ZM13.162 31.3016L13.3394 31.1255L13.3394 31.1255L13.162 31.3016ZM30.864 31.3016L30.6866 31.1255L30.6861 31.126L30.864 31.3016ZM30.864 30.3352L30.6865 30.5112L30.6866 30.5113L30.864 30.3352ZM25.6615 18.2074L25.4841 18.0313L25.4841 18.0313L25.6615 18.2074ZM26.148 18.2074L26.3254 18.0313L26.3254 18.0313L26.148 18.2074ZM26.148 18.6974L26.3254 18.8735L26.3254 18.8735L26.148 18.6974ZM25.648 18.6974L25.8255 18.5213L25.8254 18.5213L25.648 18.6974ZM14.1214 30.3488L13.944 30.5249L13.944 30.5249L14.1214 30.3488ZM29.4317 30.8116L29.5983 30.998L29.7947 30.8224L29.6091 30.6355L29.4317 30.8116ZM13.662 14.927L13.8394 14.7509L13.6518 14.5619L13.475 14.7611L13.662 14.927ZM24.9183 14.3417L24.6683 14.3329V14.3417H24.9183ZM25.6075 13.6748L25.6116 13.4248H25.6075V13.6748ZM25.567 15.0359L25.5573 15.2858L25.5615 15.2859L25.567 15.0359ZM27.3372 15.5123L27.2183 15.7323L27.2186 15.7324L27.3372 15.5123ZM29.3911 18.6293L29.1424 18.6548L29.1428 18.6578L29.3911 18.6293ZM30.1343 19.2419V19.4919H30.1478L30.1612 19.4904L30.1343 19.2419ZM30.7424 18.4932L30.4934 18.516L30.4939 18.5206L30.7424 18.4932ZM27.9858 14.3145L27.8637 14.5327L27.8665 14.5342L27.9858 14.3145ZM32.607 19.0821C33.1219 19.0265 33.4926 18.5634 33.4368 18.0575L32.9398 18.1123C32.9651 18.3414 32.7952 18.5589 32.5534 18.585L32.607 19.0821ZM32.5126 19.0835H32.5802V18.5835H32.5126V19.0835ZM31.5886 18.2495C31.6435 18.7288 32.0469 19.0835 32.5126 19.0835V18.5835C32.3027 18.5835 32.1115 18.421 32.0854 18.1925L31.5886 18.2495ZM28.5558 13.6496C30.2652 14.5757 31.3936 16.2985 31.5882 18.2459L32.0857 18.1961C31.875 16.0873 30.6522 14.2167 28.794 13.21L28.5558 13.6496ZM25.9552 12.9583C26.8594 12.9713 27.7387 13.2054 28.5555 13.6494L28.7943 13.2101C27.9086 12.7286 26.9501 12.4726 25.9624 12.4584L25.9552 12.9583ZM25.0469 12.0053C25.0281 12.5329 25.4422 12.9399 25.9498 12.9582L25.9678 12.4585C25.7187 12.4496 25.5382 12.2577 25.5465 12.023L25.0469 12.0053ZM25.9948 11.0974C25.4666 11.0784 25.0648 11.4983 25.0469 12.0053L25.5465 12.023C25.5556 11.7678 25.7484 11.5888 25.9769 11.5971L25.9948 11.0974ZM29.4429 12.0123C28.3801 11.4347 27.1789 11.1254 25.9918 11.0973L25.9799 11.5971C27.09 11.6235 28.2131 11.9131 29.2042 12.4516L29.4429 12.0123ZM33.4371 18.0606C33.1859 15.4882 31.6922 13.2225 29.442 12.0118L29.2051 12.4521C31.3061 13.5825 32.7042 15.6998 32.9395 18.1092L33.4371 18.0606ZM25.1193 19.8824L22.8086 22.21L23.1634 22.5622L25.4741 20.2347L25.1193 19.8824ZM25.9048 19.9174C25.7207 19.9174 25.5466 19.8828 25.3813 19.8233L25.2121 20.2938C25.4251 20.3704 25.6565 20.4174 25.9048 20.4174V19.9174ZM26.93 19.4877C26.6519 19.7678 26.2966 19.9174 25.9048 19.9174V20.4174C26.4319 20.4174 26.9143 20.2132 27.2849 19.8399L26.93 19.4877ZM27.3574 18.4524C27.3574 18.8487 27.2082 19.2075 26.93 19.4877L27.2849 19.8399C27.6553 19.4668 27.8574 18.9817 27.8574 18.4524H27.3574ZM26.93 17.4171C27.2082 17.6973 27.3574 18.0561 27.3574 18.4524H27.8574C27.8574 17.9231 27.6553 17.438 27.2849 17.0648L26.93 17.4171ZM25.9048 16.9874C26.2966 16.9874 26.6519 17.137 26.93 17.4171L27.2849 17.0648C26.9143 16.6916 26.4319 16.4874 25.9048 16.4874V16.9874ZM24.8795 17.4171C25.1576 17.137 25.513 16.9874 25.9048 16.9874V16.4874C25.3777 16.4874 24.8952 16.6916 24.5247 17.0648L24.8795 17.4171ZM24.4521 18.4524C24.4521 18.0561 24.6014 17.6973 24.8795 17.4171L24.5247 17.0648C24.1542 17.438 23.9521 17.9231 23.9521 18.4524H24.4521ZM24.5561 19.0135C24.4873 18.8402 24.4521 18.6539 24.4521 18.4524H23.9521C23.9521 18.7137 23.9981 18.9629 24.0914 19.198L24.5561 19.0135ZM22.204 21.5958L24.5012 19.2819L24.1463 18.9296L21.8491 21.2436L22.204 21.5958ZM13.9575 13.6467L21.8491 21.5958L22.204 21.2436L14.3124 13.2945L13.9575 13.6467ZM13.353 13.6467C13.5254 13.473 13.7851 13.473 13.9575 13.6467L14.3124 13.2945C13.9443 12.9238 13.3662 12.9238 12.9981 13.2945L13.353 13.6467ZM9.75 22.3861C9.75 19.0767 11.0345 15.9821 13.353 13.6467L12.9981 13.2945C10.587 15.7231 9.25 18.9442 9.25 22.3861H9.75ZM13.3394 31.1255C11.0214 28.7906 9.75 25.6962 9.75 22.3861H9.25C9.25 25.8273 10.5731 29.0486 12.9846 31.4777L13.3394 31.1255ZM22.013 34.7539C18.7426 34.7539 15.6578 33.4607 13.3394 31.1255L12.9846 31.4777C15.3958 33.9065 18.608 35.2539 22.013 35.2539V34.7539ZM30.6861 31.126C28.3684 33.474 25.2974 34.7539 22.013 34.7539V35.2539C25.4311 35.2539 28.6302 33.9205 31.042 31.4772L30.6861 31.126ZM30.6866 30.5113C30.8601 30.6861 30.8601 30.9507 30.6866 31.1255L31.0415 31.4777C31.4085 31.108 31.4085 30.5288 31.0415 30.1591L30.6866 30.5113ZM22.8084 22.5621L30.6865 30.5112L31.0416 30.1592L23.1635 22.2101L22.8084 22.5621ZM25.9048 17.8485C25.7305 17.8485 25.5885 17.9261 25.4841 18.0313L25.839 18.3835C25.8697 18.3526 25.8899 18.3485 25.9048 18.3485V17.8485ZM26.3254 18.0313C26.221 17.9261 26.0791 17.8485 25.9048 17.8485V18.3485C25.9197 18.3485 25.9399 18.3526 25.9706 18.3835L26.3254 18.0313ZM26.5061 18.4524C26.5061 18.2787 26.4299 18.1365 26.3254 18.0313L25.9706 18.3835C26.0012 18.4144 26.0061 18.4356 26.0061 18.4524H26.5061ZM26.3254 18.8735C26.4299 18.7683 26.5061 18.6261 26.5061 18.4524H26.0061C26.0061 18.4692 26.0012 18.4904 25.9706 18.5213L26.3254 18.8735ZM25.4706 18.8735C25.7035 19.1081 26.0925 19.1081 26.3254 18.8735L25.9706 18.5213C25.9332 18.5589 25.8628 18.5589 25.8255 18.5213L25.4706 18.8735ZM25.2899 18.4524C25.2899 18.6261 25.3661 18.7683 25.4706 18.8735L25.8254 18.5213C25.7948 18.4904 25.7899 18.4692 25.7899 18.4524H25.2899ZM25.4841 18.0313C25.3993 18.1167 25.2899 18.2588 25.2899 18.4524H25.7899C25.7899 18.4523 25.7899 18.4522 25.79 18.452C25.79 18.4518 25.7901 18.4512 25.7904 18.4502C25.7909 18.4482 25.7923 18.4442 25.7956 18.4381C25.8026 18.4249 25.816 18.4066 25.839 18.3835L25.4841 18.0313ZM22.0265 33.3928C19.1069 33.3928 16.36 32.2488 14.2989 30.1727L13.944 30.5249C16.0989 32.6955 18.9735 33.8928 22.0265 33.8928V33.3928ZM29.2651 30.6252C27.2699 32.4086 24.7346 33.3928 22.0265 33.3928V33.8928C24.8588 33.8928 27.5125 32.8624 29.5983 30.998L29.2651 30.6252ZM13.4846 15.1032L29.2543 30.9877L29.6091 30.6355L13.8394 14.7509L13.4846 15.1032ZM11.1013 22.3861C11.1013 19.6695 12.066 17.1018 13.849 15.093L13.475 14.7611C11.6095 16.8629 10.6013 19.5492 10.6013 22.3861H11.1013ZM14.2989 30.1727C12.2376 28.0964 11.1013 25.3287 11.1013 22.3861H10.6013C10.6013 25.4598 11.7892 28.3544 13.944 30.5249L14.2989 30.1727ZM25.1682 14.3506C25.1769 14.1038 25.3639 13.9248 25.6075 13.9248V13.4248C25.0943 13.4248 24.6868 13.8174 24.6685 14.3329L25.1682 14.3506ZM25.5766 14.7861C25.365 14.7779 25.1683 14.5805 25.1683 14.3417H24.6683C24.6683 14.838 25.0662 15.2667 25.5573 15.2857L25.5766 14.7861ZM27.456 15.2924C26.8688 14.975 26.2355 14.8005 25.5724 14.786L25.5615 15.2859C26.1416 15.2986 26.6975 15.4507 27.2183 15.7323L27.456 15.2924ZM29.6398 18.6039C29.4966 17.2046 28.6938 15.9593 27.4557 15.2922L27.2186 15.7324C28.3048 16.3176 29.0154 17.4135 29.1424 18.6548L29.6398 18.6039ZM30.0668 18.9919C29.8569 18.9919 29.6657 18.8294 29.6395 18.6009L29.1428 18.6578C29.1977 19.1371 29.6011 19.4919 30.0668 19.4919V18.9919ZM30.1343 18.9919H30.0668V19.4919H30.1343V18.9919ZM30.4939 18.5206C30.5192 18.7497 30.3493 18.9672 30.1075 18.9933L30.1612 19.4904C30.6761 19.4348 31.0467 18.9718 30.9909 18.4658L30.4939 18.5206ZM27.8665 14.5342C29.3477 15.3386 30.339 16.8304 30.4935 18.516L30.9914 18.4704C30.8215 16.6171 29.7319 14.9783 28.1051 14.0948L27.8665 14.5342ZM25.6034 13.9247C26.3869 13.9377 27.1706 14.1448 27.8637 14.5327L28.1079 14.0963C27.3416 13.6675 26.4767 13.4391 25.6116 13.4248L25.6034 13.9247Z" fill="#52B848"/>
<path fill-rule="evenodd" clip-rule="evenodd" d="M16.1703 6.02753L16.3729 5.82278C16.6513 5.54133 17.1029 5.54133 17.3814 5.82278L18.8333 7.29052L20.2853 5.82278C20.5637 5.54133 21.0153 5.54133 21.2938 5.82278L21.4963 6.02753C21.7747 6.30921 21.7747 6.7655 21.4963 7.04694L20.0443 8.51444L21.4264 9.91152C21.7048 10.193 21.7048 10.6495 21.4264 10.9309L21.2239 11.1357C20.9454 11.4171 20.4938 11.4171 20.2154 11.1357L18.8333 9.7386L17.451 11.1357C17.1726 11.4171 16.721 11.4171 16.4426 11.1357L16.24 10.9309C15.9616 10.6495 15.9616 10.193 16.24 9.91152L17.6221 8.51444L16.1703 7.04694C15.8919 6.7655 15.8919 6.30897 16.1703 6.02753Z" fill="#51B848"/>
</svg>
