<?xml version="1.0" encoding="UTF-8"?>
<svg width="43px" height="43px" viewBox="0 0 43 43" version="1.1" xmlns="http://www.w3.org/2000/svg" xmlns:xlink="http://www.w3.org/1999/xlink">
    <!-- Generator: Sketch 64 (93537) - https://sketch.com -->
    <title>Group 12</title>
    <desc>Created with Sketch.</desc>
    <g id="LOGIN-TV" stroke="none" stroke-width="1" fill="none" fill-rule="evenodd">
        <g id="iPhone-11-Copy-88" transform="translate(-48.000000, -515.000000)">
            <g id="Group-4" transform="translate(43.000000, 494.500000)">
                <g id="Group-12" transform="translate(5.500000, 20.733705)">
                    <g id="Group-31-Copy-2" fill="#FFFFFF">
                        <g id="Group-33" transform="translate(0.000000, 0.388286)">
                            <circle id="Oval" cx="21.1189799" cy="21.1189799" r="21.1189799"></circle>
                        </g>
                    </g>
                    <g id="Group" transform="translate(7.400000, 11.800000)">
                        <g id="tv" fill-rule="nonzero" stroke="#50B748" stroke-width="1.6">
                            <path d="M24.8,18.4 L25.6,18.4 C25.8209139,18.4 26.0209139,18.3104569 26.1656854,18.1656854 C26.3104569,18.0209139 26.4,17.8209139 26.4,17.6 L26.4,1.6 C26.4,1.3790861 26.3104569,1.1790861 26.1656854,1.03431458 C26.0209139,0.88954305 25.8209139,0.8 25.6,0.8 L1.6,0.8 C1.3790861,0.8 1.1790861,0.88954305 1.03431458,1.03431458 C0.88954305,1.1790861 0.8,1.3790861 0.8,1.6 L0.8,17.6 C0.8,17.8209139 0.88954305,18.0209139 1.03431458,18.1656854 C1.1790861,18.3104569 1.3790861,18.4 1.6,18.4 L15.2,18.3996361 L2.25807744,18.393748 C1.83754512,18.3564601 1.46335137,18.157093 1.19949913,17.8577472 C0.950924835,17.5757346 0.8,17.2055097 0.8,16.8 L0.806250927,2.25808917 C0.843536153,1.83755208 1.04290426,1.46335382 1.34225279,1.19949913 C1.6242654,0.950924835 1.99449027,0.8 2.4,0.8 L24.9418394,0.806244598 C25.3624056,0.843513589 25.7366312,1.04288732 26.0005009,1.34225279 C26.2490752,1.6242654 26.4,1.99449027 26.4,2.4 L26.3937491,16.9419108 C26.3564638,17.3624479 26.1570957,17.7366462 25.8577472,18.0005009 C25.5757346,18.2490752 25.2055097,18.4 24.8,18.4 Z" id="Combined-Shape"></path>
                        </g>
                        <path d="M23.5827678,10.5851031 L20.2605954,12.9580834 C20.1282295,13.0526305 19.9442801,13.0219722 19.8497331,12.8896063 C19.8140526,12.8396536 19.7948718,12.7798007 19.7948718,12.7184137 L19.7948718,7.97245305 C19.7948718,7.80978809 19.9267378,7.67792208 20.0894028,7.67792208 C20.1507898,7.67792208 20.2106427,7.69710286 20.2605954,7.73278334 L23.5827678,10.1057636 C23.7151338,10.2003107 23.745792,10.3842601 23.6512449,10.516626 C23.6323538,10.5430736 23.6092154,10.566212 23.5827678,10.5851031 Z" id="Triangle" fill="#50B748" fill-rule="nonzero"></path>
                        <path d="M16.8449506,15.37593 L17.0875293,15.1307169 C17.4209677,14.7936571 17.9618409,14.7936571 18.2952793,15.1307169 L20.034188,16.888511 L21.7730967,15.1307169 C22.1065352,14.7936571 22.6474084,14.7936571 22.9808468,15.1307169 L23.2234254,15.37593 C23.5568639,15.7132786 23.5568639,16.2597371 23.2234254,16.5967969 L21.4845167,18.3543022 L23.1397087,20.0274703 C23.4731471,20.36453 23.4731471,20.9112774 23.1397087,21.2483371 L22.89713,21.4935503 C22.5636916,21.83061 22.0228184,21.83061 21.68938,21.4935503 L20.034188,19.8203821 L18.3787104,21.4935503 C18.0452719,21.83061 17.5043988,21.83061 17.1709603,21.4935503 L16.9283817,21.2483371 C16.5949432,20.9112774 16.5949432,20.36453 16.9283817,20.0274703 L18.5835736,18.3543022 L16.8449506,16.5967969 C16.5115122,16.2597371 16.5115122,15.7129898 16.8449506,15.37593 Z" id="Path" fill="#50B748"></path>
                        <path d="M9.39487179,11.2779221 C9.39487179,11.7197499 9.03669959,12.0779221 8.59487179,12.0779221 L6.79487179,12.0779221 L6.79487179,11.2779221 L9.39487179,11.2779221 Z M6.39487179,11.2779221 L6.39487179,12.0779221 L4.59487179,12.0779221 C4.153044,12.0779221 3.79487179,11.7197499 3.79487179,11.2779221 L3.79487179,11.2779221 L6.39487179,11.2779221 Z M9.39487179,10.0779221 L9.39487179,10.8779221 L7.79487179,10.8779221 L7.79487179,10.0779221 L9.39487179,10.0779221 Z M5.39487179,10.0779221 L5.39487179,10.8779221 L3.79487179,10.8779221 L3.79487179,10.0779221 L5.39487179,10.0779221 Z M7.39487179,8.87792208 L7.39487179,10.8779221 L5.79487179,10.8779221 L5.79487179,8.87792208 L7.39487179,8.87792208 Z M9.39487179,8.87792208 L9.39487179,9.67792208 L7.79487179,9.67792208 L7.79487179,8.87792208 L9.39487179,8.87792208 Z M5.39487179,8.87792208 L5.39487179,9.67792208 L3.79487179,9.67792208 L3.79487179,8.87792208 L5.39487179,8.87792208 Z M6.39487179,7.67792208 L6.39487179,8.47792208 L3.79487179,8.47792208 C3.79487179,8.03609428 4.153044,7.67792208 4.59487179,7.67792208 L4.59487179,7.67792208 L6.39487179,7.67792208 Z M8.59487179,7.67792208 C9.03669959,7.67792208 9.39487179,8.03609428 9.39487179,8.47792208 L9.39487179,8.47792208 L6.79487179,8.47792208 L6.79487179,7.67792208 Z" id="Combined-Shape" fill="#50B748" fill-rule="nonzero"></path>
                    </g>
                </g>
            </g>
        </g>
    </g>
</svg>