<svg width="43" height="43" viewBox="0 0 43 43" fill="none" xmlns="http://www.w3.org/2000/svg">
<path fill-rule="evenodd" clip-rule="evenodd" d="M21.119 42.238C32.7827 42.238 42.238 32.7827 42.238 21.119C42.238 9.45529 32.7827 0 21.119 0C9.45529 0 0 9.45529 0 21.119C0 32.7827 9.45529 42.238 21.119 42.238Z" fill="white"/>
<path fill-rule="evenodd" clip-rule="evenodd" d="M15.7106 21.0629C15.7899 21.7489 16.2032 22.4665 16.8295 23.0594L18.9609 25.1749C19.5581 25.7967 20.2812 26.2068 20.9723 26.2855C21.6424 26.349 22.3423 26.1475 23.1903 25.2079C23.2028 25.1941 23.2155 25.18 23.2283 25.1657C23.5024 24.861 23.844 24.4814 24.4224 24.2891C25.028 24.0877 25.7268 24.2227 26.4206 24.5931C27.0026 25.0593 27.6191 25.5074 28.2205 25.9444C28.9516 26.4757 29.6603 26.9907 30.257 27.5019C30.9011 28.1412 31.0982 29.0649 30.883 29.7496C30.6818 30.3961 30.2372 30.8947 29.8307 31.3098C27.4729 33.6501 25.0471 34.6317 22.6041 34.2119C20.1611 33.7922 17.8632 32.1242 15.3376 29.6174L12.3537 26.6557C9.82811 24.1489 8.14765 21.8681 7.72473 19.4433C7.30182 17.0185 8.2908 14.6108 10.6487 12.2705C11.0669 11.8671 11.5691 11.4258 12.2205 11.226C12.9104 11.0124 13.841 11.2082 14.4851 11.8474C15.0001 12.4396 15.5189 13.143 16.0542 13.8687C16.4946 14.4656 16.946 15.0776 17.4157 15.6553C17.7889 16.3438 17.9249 17.0375 17.722 17.6385C17.5282 18.2128 17.1457 18.5518 16.8387 18.8239C16.8244 18.8366 16.8102 18.8491 16.7963 18.8615C15.8497 19.7032 15.6466 20.3979 15.7106 21.0629ZM15.8305 16.5279L13.1863 13.0969C13.0205 12.8982 12.901 12.8922 12.76 12.9382C12.5848 12.9925 12.2489 13.2306 11.9275 13.5398C10.5412 14.9105 8.98459 17.1803 9.50308 19.1326C9.8164 20.9291 11.2172 22.9891 13.6325 25.3865L16.6164 28.3481C19.0317 30.7454 21.1072 32.1358 22.9172 32.4468C24.8841 32.9615 27.1709 31.4164 28.5519 30.0405C28.8635 29.7215 29.1034 29.3881 29.158 29.2141C29.1627 29.1992 29.1672 29.1856 29.1715 29.1729C29.2147 29.043 29.223 29.0181 28.9982 28.791L25.5414 26.1665C25.1467 25.964 25.0323 25.9823 24.9952 25.9946C24.9562 26.0076 24.8027 26.116 24.5423 26.4045C23.4123 27.6565 22.048 28.1888 20.7992 28.0704C19.5568 27.9528 18.4993 27.2774 17.6821 26.4442L15.5507 24.3287C14.7114 23.5174 14.0309 22.4679 13.9123 21.2348C13.7931 19.9953 14.3293 18.6411 15.5907 17.5195C15.8814 17.261 15.9906 17.1087 16.0037 17.07C16.0161 17.0332 16.0345 16.9197 15.8305 16.5279Z" fill="#50B748"/>
<path d="M33.929 22.1533C33.7417 17.3627 31.2643 12.7454 26.892 10.0133C24.5848 8.57159 22.0371 7.83425 19.5004 7.74318" stroke="#50B748" stroke-width="1.6" stroke-linecap="round" stroke-linejoin="round" stroke-dasharray="3.2"/>
<path d="M29.1287 21.0947C29.0133 18.1415 27.486 15.295 24.7906 13.6107C23.3683 12.722 21.7977 12.2674 20.2339 12.2113" stroke="#50B748" stroke-width="1.6" stroke-linecap="round" stroke-linejoin="round" stroke-dasharray="3.2"/>
</svg>
