<svg fill="none" height="81" viewBox="0 0 81 81" width="81" xmlns="http://www.w3.org/2000/svg"><g clip-rule="evenodd" fill="#fff" fill-rule="evenodd"><path d="m50.2471 15.85h-19.2471c-.6351 0-1.15.5149-1.15 1.15v46.4942c0 .6352.5149 1.15 1.15 1.15h19.2471c.6351 0 1.15-.5148 1.15-1.15v-46.4942c0-.6351-.5149-1.15-1.15-1.15zm-17.6994 27.6142h4.0379v4.0379h-4.0379zm6.0569 0h4.0379v4.0379h-4.0379zm10.0947 0h-4.0379v4.0379h4.0379zm-16.1516 6.6163h4.0379v4.0378h-4.0379zm10.0948 0h-4.0379v4.0378h4.0379zm2.0189 0h4.0379v4.0378h-4.0379zm-8.0758 6.6162h-4.0379v4.0379h4.0379zm2.019 0h4.0379v4.0379h-4.0379zm10.0947 0h-4.0379v4.0379h4.0379zm-10.0778-26.5574-1.9842-1.9842c1.0544-.9537 2.4525-1.5345 3.9862-1.5345 1.5968 0 3.0465.6295 4.1146 1.654l-1.9803 1.9802c-.5607-.5182-1.3105-.8348-2.1342-.8348-.7606 0-1.4582.27-2.0021.7193zm-2.6362-1.2927c-.8175 1.0182-1.3066 2.3114-1.3066 3.7188 0 1.5968.6295 3.0465 1.654 4.1146l1.9803-1.9803c-.5182-.5608-.8349-1.3106-.8349-2.1343 0-.6334.1873-1.223.5094-1.7166zm6.3549 6.355c-.4936.3221-1.0832.5093-1.7166.5093-.569 0-1.1026-.1511-1.5631-.4153l-2.0165 2.0166c.9957.7521 2.2355 1.1981 3.5795 1.1981 1.4074 0 2.7006-.4891 3.7189-1.3066zm.7095-.6341 1.9842 1.9842c.9537-1.0545 1.5345-2.4525 1.5345-3.9863 0-1.344-.446-2.5838-1.1981-3.5795l-2.0165 2.0165c.2642.4604.4152.9941.4152 1.563 0 .7606-.2699 1.4582-.7193 2.0021zm3.5187-12.4056c1.0944 0 1.9816-.8871 1.9816-1.9816 0-1.0944-.8872-1.9816-1.9816-1.9816s-1.9816.8872-1.9816 1.9816c0 1.0945.8872 1.9816 1.9816 1.9816z"/><path d="m80.2521 40.1261c0 22.161-17.965 40.126-40.126 40.126-22.1611 0-40.1261-17.965-40.1261-40.126 0-22.1611 17.965-40.1261 40.1261-40.1261 22.161 0 40.126 17.965 40.126 40.1261zm-49.2521-27.1261c-2.2091 0-4 1.7909-4 4v46.4942c0 2.2092 1.7909 4 4 4h19.2471c2.2092 0 4-1.7908 4-4v-46.4942c0-2.2091-1.7908-4-4-4z"/></g></svg>