<?xml version="1.0" encoding="UTF-8"?>
<svg width="78px" height="78px" viewBox="0 0 78 78" version="1.1" xmlns="http://www.w3.org/2000/svg" xmlns:xlink="http://www.w3.org/1999/xlink">
    <title>Group 26</title>
    <g id="Page-1" stroke="none" stroke-width="1" fill="none" fill-rule="evenodd">
        <g id="Group-26" transform="translate(0.300000, 0.467600)">
            <g id="Group-33" fill="#FFFFFF">
                <circle id="Oval" cx="38.0141638" cy="38.0141638" r="38.0141638"></circle>
            </g>
            <g id="Group-20" transform="translate(14.400000, 21.570547)">
                <g id="Group">
                    <path d="M32.3619434,9.95409512 L43.0954487,9.95409512 L43.0954487,3.82667264 C43.0954487,2.83292432 42.954021,2.69231635 41.2868884,2.69231635 L5.09068291,2.69231635 C3.73354842,2.69231635 3.61426344,2.79970049 3.61426344,4.16543699 L3.61426344,23.0917446 C3.61426344,24.4640072 3.96426128,24.660977 5.05354028,24.660977 L28.8055367,24.660977 L28.8055367,12.9074558 C28.8048225,11.2788951 30.4012412,9.95409512 32.3619434,9.95409512 Z" id="Shape"></path>
                    <path d="M5.052826,24.660977 C3.96426128,24.660977 3.61354916,24.4646004 3.61354916,23.0917446 L3.61354916,4.16543699 C3.61354916,2.79910721 3.73283413,2.69231635 5.08996863,2.69231635 L41.2861741,2.69231635 C42.9533067,2.69231635 43.0947344,2.83292432 43.0947344,3.82667264 L43.0253717,15.1722787 L46.0553531,15.1722787 L46.1247157,2.19455226 C46.1247157,0.596842275 45.1461503,0.272909987 43.2204479,0.272909987 L3.16212337,0.272909987 C1.24070664,0.272909987 0.586424957,0.956964801 0.586424957,2.55289494 L0.586424957,24.8318424 C0.586424957,26.4319255 1.1999926,27.0803833 3.12140933,27.0803833 L19.6534503,27.0803833 L19.6534503,29.3508758 C15.4341906,29.8367742 11.9434978,30.8334889 11.9434978,31.0512236 C11.9434978,31.1378429 11.9927832,31.2280219 12.0613542,31.6563719 L35.3362108,31.6569652 C35.4033532,31.2286151 35.4526386,31.140216 35.4526386,31.0512236 C35.4526386,31.0512236 31.5219486,29.8860167 27.1198328,29.3508758 L27.1198328,27.0803833 L35.4519243,27.0803833 C35.4524005,26.9585548 35.4526386,26.152086 35.4526386,24.660977 L5.052826,24.660977 Z" id="Shape" fill="#50B748" fill-rule="nonzero"></path>
                    <path d="M5.052826,24.660977 C3.96426128,24.660977 3.61354916,24.4646004 3.61354916,23.0917446 L3.61354916,4.16543699 C3.61354916,2.79910721 3.73283413,2.69231635 5.08996863,2.69231635 L41.2861741,2.69231635 C42.9533067,2.69231635 43.0947344,2.83292432 43.0947344,3.82667264 L43.0253717,15.1722787 L46.0553531,15.1722787 L46.1247157,2.19455226 C46.1247157,0.596842275 45.1461503,0.272909987 43.2204479,0.272909987 L3.16212337,0.272909987 C1.24070664,0.272909987 0.586424957,0.956964801 0.586424957,2.55289494 L0.586424957,24.8318424 C0.586424957,26.4319255 1.1999926,27.0803833 3.12140933,27.0803833 L19.6534503,27.0803833 L19.6534503,29.3508758 C15.4341906,29.8367742 11.9434978,30.8334889 11.9434978,31.0512236 C11.9434978,31.1378429 11.9927832,31.2280219 12.0613542,31.6563719 L35.3362108,31.6569652 C35.4033532,31.2286151 35.4526386,31.140216 35.4526386,31.0512236 C35.4526386,31.0512236 31.5219486,29.8860167 27.1198328,29.3508758 L27.1198328,27.0803833 L35.4519243,27.0803833 C35.4524005,26.9585548 35.4526386,26.152086 35.4526386,24.660977 L5.052826,24.660977 Z" id="Shape-Copy" fill="#50B748" fill-rule="nonzero" transform="translate(23.355570, 15.964938) scale(-1, 1) translate(-23.355570, -15.964938) "></path>
                </g>
                <g id="Group-15" transform="translate(6.034589, 4.976949)">
                    <rect id="Rectangle" fill="#D8D8D8" x="0" y="-1.85837266e-15" width="7" height="17.4737284"></rect>
                    <rect id="Rectangle-Copy-8" fill="#989898" x="7" y="-1.85837266e-15" width="7" height="17.4737284"></rect>
                    <rect id="Rectangle-Copy-14" fill="#7F7F7F" x="21" y="-1.85837266e-15" width="7" height="17.4737284"></rect>
                    <rect id="Rectangle-Copy-9" fill="#BEBEBE" x="14" y="-1.85837266e-15" width="7" height="17.4737284"></rect>
                    <rect id="Rectangle-Copy-15" fill="#C7C7C7" x="28" y="-1.85837266e-15" width="7" height="17.4737284"></rect>
                </g>
            </g>
        </g>
    </g>
</svg>