<svg width="81" height="81" viewBox="0 0 81 81" fill="none" xmlns="http://www.w3.org/2000/svg">
<circle cx="40.1261" cy="40.1261" r="40.1261" fill="white"/>
<path d="M27.7713 42.7581C28.7769 41.7525 30.4073 41.7525 31.4129 42.7581L39.3481 50.6934C40.3537 51.699 40.3537 53.3294 39.3481 54.335L35.6292 58.0539C32.2605 61.4226 26.9667 61.4656 23.8037 58.3026C20.6406 55.1395 20.6836 49.8458 24.0523 46.4771L27.7713 42.7581Z" stroke="#5BBA44" stroke-width="2.85"/>
<path d="M40.7576 28.7713C39.752 29.7769 39.752 31.4073 40.7576 32.4129L48.6929 40.3481C49.6985 41.3537 51.3289 41.3537 52.3345 40.3481L56.0535 36.6292C59.4221 33.2605 59.4651 27.9667 56.3021 24.8037C53.139 21.6406 47.8453 21.6836 44.4766 25.0523L40.7576 28.7713Z" stroke="#5BBA44" stroke-width="2.85"/>
<path d="M41.2889 36.3045L42.2965 35.2969L40.2812 33.2816L39.2736 34.2892L41.2889 36.3045ZM35.2889 38.274C34.7324 38.8305 34.7324 39.7328 35.2889 40.2892C35.8454 40.8457 36.7476 40.8457 37.3041 40.2892L35.2889 38.274ZM39.2736 34.2892L35.2889 38.274L37.3041 40.2892L41.2889 36.3045L39.2736 34.2892Z" fill="#5BBA44"/>
<path d="M47.2889 42.3045L48.2965 41.2969L46.2812 39.2816L45.2736 40.2892L47.2889 42.3045ZM41.2889 44.274C40.7324 44.8305 40.7324 45.7328 41.2889 46.2892C41.8454 46.8457 42.7476 46.8457 43.3041 46.2892L41.2889 44.274ZM45.2736 40.2892L41.2889 44.274L43.3041 46.2892L47.2889 42.3045L45.2736 40.2892Z" fill="#5BBA44"/>
<path d="M63.2889 20.3045C63.8454 19.748 63.8454 18.8457 63.2889 18.2892C62.7324 17.7328 61.8301 17.7328 61.2736 18.2892L63.2889 20.3045ZM57.2889 22.274L56.2813 23.2816L58.2965 25.2969L59.3041 24.2892L57.2889 22.274ZM61.2736 18.2892L57.2889 22.274L59.3041 24.2892L63.2889 20.3045L61.2736 18.2892Z" fill="#5BBA44"/>
<path d="M23.2889 61.2891L24.2965 60.2815L22.2812 58.2662L21.2736 59.2739L23.2889 61.2891ZM17.2889 63.2586C16.7324 63.8151 16.7324 64.7174 17.2889 65.2739C17.8454 65.8304 18.7476 65.8304 19.3041 65.2739L17.2889 63.2586ZM21.2736 59.2739L17.2889 63.2586L19.3041 65.2739L23.2889 61.2891L21.2736 59.2739Z" fill="#5BBA44"/>
</svg>
