<svg width="43" height="43" viewBox="0 0 43 43" fill="none" xmlns="http://www.w3.org/2000/svg">
<path fill-rule="evenodd" clip-rule="evenodd" d="M21.619 42.238C33.2827 42.238 42.738 32.7827 42.738 21.119C42.738 9.45529 33.2827 0 21.619 0C9.95529 0 0.5 9.45529 0.5 21.119C0.5 32.7827 9.95529 42.238 21.619 42.238Z" fill="white"/>
<path d="M21.577 8.6715C14.7312 8.6715 9.1616 14.4569 9.1616 21.5679C9.1616 23.5811 9.59605 25.5097 10.4528 27.3004C10.5381 27.4789 10.6893 27.6139 10.872 27.6749C11.0547 27.7355 11.2532 27.7176 11.4228 27.6239L14.0714 26.1634C14.4185 25.9723 14.5503 25.525 14.3663 25.1648C14.182 24.8045 13.7514 24.6673 13.4048 24.8587L11.4223 25.9519C10.8653 24.5658 10.5836 23.0944 10.5836 21.5679C10.5836 19.5818 11.0752 17.713 11.9371 16.0845L12.4705 16.5138C12.6 16.618 12.7535 16.6685 12.9055 16.6685C13.1179 16.6685 13.3281 16.5699 13.4681 16.3823C13.7088 16.0598 13.6522 15.5959 13.3415 15.346L12.7057 14.8343C14.5722 12.1881 17.5072 10.406 20.8453 10.1768V10.8101C20.8453 11.2179 21.1637 11.5486 21.5563 11.5486C21.9489 11.5486 22.2673 11.2179 22.2673 10.8101V10.1733C25.6463 10.3921 28.6148 12.2029 30.487 14.891L29.9218 15.3457C29.6114 15.5954 29.5548 16.0596 29.7952 16.382C29.9352 16.5699 30.1454 16.6682 30.3578 16.6682C30.5098 16.6682 30.663 16.6177 30.7928 16.5136L31.2497 16.1458C32.0915 17.7598 32.5701 19.6068 32.5701 21.5676C32.5701 23.1027 32.2853 24.5817 31.7227 25.9742L29.5158 24.848C29.1635 24.6681 28.7373 24.8195 28.5642 25.1852C28.391 25.5513 28.5365 25.9938 28.889 26.1739L31.7511 27.6343C31.8519 27.6859 31.9589 27.71 32.0641 27.71C32.3256 27.71 32.5771 27.5597 32.7014 27.2998C33.5582 25.5095 33.9926 23.5808 33.9926 21.5674C33.9924 14.4566 28.4228 8.6715 21.577 8.6715Z" fill="#52B747" stroke="#51B748" stroke-width="0.5832"/>
<path d="M23.0943 21.8198L17.36 14.4443C17.2302 14.2733 17.0678 14.1437 16.892 14.2615C16.716 14.3796 16.7954 14.6106 16.892 14.8036L20.9567 23.2172C20.9613 23.2268 20.9665 23.2362 20.9722 23.2453C21.2391 23.6918 21.6312 23.9291 22.0553 23.9291C22.2605 23.9291 22.4732 23.8736 22.6831 23.7592C23.0025 23.585 23.2173 23.3162 23.3049 22.982C23.3993 22.6214 23.3318 22.212 23.1201 21.8582C23.1121 21.8448 23.1036 21.8319 23.0943 21.8198Z" fill="#52B747" stroke="#51B747" stroke-width="1.7496"/>
</svg>
