<svg width="43" height="43" viewBox="0 0 43 43" fill="none" xmlns="http://www.w3.org/2000/svg">
<path fill-rule="evenodd" clip-rule="evenodd" d="M21.619 42.238C33.2827 42.238 42.738 32.7827 42.738 21.119C42.738 9.45529 33.2827 0 21.619 0C9.95529 0 0.5 9.45529 0.5 21.119C0.5 32.7827 9.95529 42.238 21.619 42.238Z" fill="white"/>
<path fill-rule="evenodd" clip-rule="evenodd" d="M17.2002 21.5038C17.2795 22.1897 17.6928 22.9073 18.3191 23.5002L20.4505 25.6157C21.0477 26.2375 21.7708 26.6476 22.4619 26.7263C23.1319 26.7898 23.8319 26.5883 24.6798 25.6488C24.6924 25.6349 24.705 25.6208 24.7179 25.6065C24.992 25.3018 25.3335 24.9222 25.912 24.7299C26.5175 24.5285 27.2164 24.6635 27.9101 25.034C28.4921 25.5001 29.1087 25.9482 29.7101 26.3852C30.4412 26.9165 31.1499 27.4315 31.7465 27.9427C32.3907 28.582 32.5878 29.5057 32.3726 30.1904C32.1713 30.8369 31.7267 31.3355 31.3203 31.7506C28.9624 34.0909 26.5367 35.0725 24.0937 34.6527C21.6507 34.233 19.3528 32.565 16.8272 30.0582L13.8433 27.0965C11.3177 24.5897 9.63722 22.3089 9.2143 19.8841C8.79139 17.4593 9.78037 15.0516 12.1382 12.7113C12.5565 12.3079 13.0587 11.8666 13.7101 11.6668C14.3999 11.4532 15.3306 11.649 15.9746 12.2882C16.4897 12.8805 17.0085 13.5838 17.5438 14.3095C17.9841 14.9064 18.4356 15.5184 18.9052 16.0961C19.2785 16.7847 19.4145 17.4783 19.2116 18.0794C19.0178 18.6536 18.6353 18.9926 18.3283 19.2647C18.3139 19.2774 18.2998 19.2899 18.2858 19.3023C17.3393 20.144 17.1362 20.8387 17.2002 21.5038ZM17.3201 16.9687L14.6759 13.5377C14.51 13.339 14.3906 13.333 14.2496 13.379C14.0744 13.4333 13.7385 13.6714 13.417 13.9806C12.0308 15.3513 10.4742 17.6211 10.9926 19.5734C11.306 21.3699 12.7068 23.4299 15.1221 25.8273L18.106 28.7889C20.5213 31.1862 22.5968 32.5767 24.4068 32.8876C26.3737 33.4023 28.6605 31.8572 30.0415 30.4813C30.3531 30.1624 30.5929 29.8289 30.6476 29.6549C30.6523 29.64 30.6568 29.6264 30.661 29.6137C30.7043 29.4838 30.7126 29.4589 30.4877 29.2319L27.031 26.6073C26.6362 26.4048 26.5219 26.4231 26.4848 26.4354C26.4458 26.4484 26.2923 26.5568 26.0319 26.8453C24.9019 28.0973 23.5376 28.6296 22.2887 28.5113C21.0464 28.3936 19.9889 27.7182 19.1716 26.885L17.0403 24.7695C16.201 23.9583 15.5204 22.9087 15.4019 21.6756C15.2826 20.4361 15.8189 19.0819 17.0803 17.9603C17.371 17.7019 17.4801 17.5495 17.4932 17.5108C17.5056 17.474 17.5241 17.3605 17.3201 16.9687Z" fill="#50B748"/>
<path d="M24.0346 11.5606L24.2493 11.3611C24.5445 11.0868 25.0232 11.0868 25.3184 11.3611L28.8737 14.6696L32.1559 11.5606C32.4511 11.2863 32.9298 11.2863 33.225 11.5606L33.4397 11.7601C33.7349 12.0346 33.7349 12.4792 33.4397 12.7534L30.1575 15.8622L33.7714 19.0661C34.0666 19.3403 34.0666 19.7852 33.7714 20.0594L33.5567 20.2589C33.2615 20.5332 32.7827 20.5332 32.4876 20.2589L28.8737 17.0551L25.3184 20.2589C25.0232 20.5332 24.5445 20.5332 24.2493 20.2589L24.0346 20.0594C23.7394 19.7852 23.7394 19.3403 24.0346 19.0661L27.5896 15.8622L24.0346 12.5539C23.7394 12.2797 23.7394 11.8348 24.0346 11.5606Z" fill="#50B748"/>
</svg>
