<?xml version="1.0" encoding="UTF-8"?>
<svg width="43px" height="43px" viewBox="0 0 43 43" version="1.1" xmlns="http://www.w3.org/2000/svg" xmlns:xlink="http://www.w3.org/1999/xlink">
    <!-- Generator: Sketch 64 (93537) - https://sketch.com -->
    <title>Group 6</title>
    <desc>Created with Sketch.</desc>
    <g id="LOGIN-FIXO-Cobre" stroke="none" stroke-width="1" fill="none" fill-rule="evenodd">
        <g id="iPhone-11-Copy-92" transform="translate(-46.000000, -652.000000)">
            <g id="Group-5" transform="translate(40.000000, 252.000000)">
                <g id="Group-6" transform="translate(6.500000, 400.505886)">
                    <circle id="Oval-Copy-10" fill="#FFFFFF" cx="21.1189799" cy="21.1189799" r="21.1189799"></circle>
                    <g id="icone_nao_faz_nao_recebe_chamada" transform="translate(4.618980, 5.618980)">
                        <g id="phone" transform="translate(0.589618, 8.254546)" fill="#00BB32" fill-rule="nonzero">
                            <path d="M9.19996912,12.3811042 C8.57363408,11.7882002 8.1603224,11.070589 8.08102872,10.3846153 C8.01706504,9.71957472 8.22012344,9.02487712 9.1666776,8.18320184 C9.48001544,7.90458506 9.88960768,7.56123322 10.0924581,6.96021567 C10.2953266,6.35918017 10.1593154,5.6655237 9.78608904,4.9769502 C8.74550192,3.69698353 7.79417336,2.24845085 6.85549826,1.1691006 C6.21143694,0.529830791 5.28079158,0.334093885 4.59093903,0.547691417 C3.93957439,0.747491092 3.43731761,1.18875028 3.01908978,1.592194 C0.661230014,3.93249847 -0.327754562,6.34016174 0.0951572728,8.7649676 C0.518072122,11.1897765 2.19853389,13.4705814 4.72415922,15.9774056 C5.72307849,16.9688887 6.82139898,18.0590331 7.70803146,18.9390684 C10.2336568,21.4458926 12.5315708,23.1138477 14.9745658,23.5336113 C17.4175606,23.9533718 19.8432784,22.9717494 22.2011291,20.631445 C22.6075897,20.2163275 23.0521794,19.7178126 23.2534655,19.0712938 C23.468677,18.3865826 23.2715505,17.4628622 22.6273927,16.8235954 C21.5399714,15.891905 20.0805627,14.9476612 18.7909933,13.9148204 C18.0972615,13.5443575 17.3983996,13.4093737 16.7928563,13.610732 C16.1873312,13.8120724 15.8414132,14.2186246 15.5606947,14.5296178 C14.7127069,15.4691286 14.0127991,15.6706755 13.3427707,15.607188 C12.6516522,15.5284846 11.9285715,15.1183334 11.3313082,14.4965742 L9.19996912,12.3811042 Z M5.55671452,2.41855162 L8.2009172,5.84957193 C8.40496432,6.2413509 8.38649952,6.35486011 8.3740872,6.39166437 C8.36100568,6.43038633 8.25182648,6.58272221 7.96112811,6.84121065 C6.6997743,7.96280412 6.16349661,9.31692976 6.28271297,10.5564991 C6.4012843,11.7895884 7.08185923,12.839117 7.92116627,13.6503874 C8.69984336,14.4232678 9.29574128,15.0147298 10.0525053,15.7658604 C10.8697546,16.5990272 11.9272603,17.2744281 13.1695978,17.3921168 C14.4184638,17.5104457 15.7827454,16.9781601 16.9127509,15.726193 C17.1731599,15.4376467 17.3266564,15.3292893 17.3656627,15.3162991 C17.4027581,15.3039732 17.5171006,15.2856549 17.9118149,15.488189 L21.3685859,18.1127198 C21.6153257,18.361859 21.5812957,18.3675972 21.5284272,18.5358102 C21.4737803,18.7097314 21.2339731,19.0432254 20.9223384,19.3621678 C19.5413492,20.7381122 17.2545605,22.283137 15.2876142,21.7685087 C13.4776216,21.4575154 11.4021321,20.067112 8.98683432,17.6697882 C7.98791502,16.678308 6.88959452,15.5881636 6.00296204,14.7081284 C3.58766127,12.3108105 2.18682686,10.2507713 1.87350413,8.45425256 C1.35501304,6.5019485 2.91161662,4.23217705 4.2978896,2.86148318 C4.61930838,2.5522969 4.95522229,2.31415522 5.1304449,2.25989721 C5.27141752,2.21391133 5.39090214,2.2198529 5.55671452,2.41855162 L5.55671452,2.41855162 Z" id="Shape"></path>
                        </g>
                        <g id="Group-2-Copy" stroke-linecap="round" stroke-linejoin="round" transform="translate(20.089618, 9.801909) rotate(-90.000000) translate(-20.089618, -9.801909) translate(10.589618, 5.301909)" stroke="#00BB32" stroke-width="1.6">
                            <line x1="1.0122244" y1="4.77626548" x2="17.9242187" y2="4.77626548" id="Line-2"></line>
                            <line x1="13.2523533" y1="2.84111573" x2="18.7257841" y2="2.84111573" id="Line-2-Copy" transform="translate(15.989069, 2.841116) rotate(45.000000) translate(-15.989069, -2.841116) "></line>
                            <line x1="13.2523535" y1="6.71141564" x2="18.7257842" y2="6.71141564" id="Line-2-Copy-2" transform="translate(15.989069, 6.711416) scale(-1, 1) rotate(-135.000000) translate(-15.989069, -6.711416) "></line>
                        </g>
                        <g id="Group-2-Copy-Copy" stroke-linecap="round" stroke-linejoin="round" transform="translate(23.089618, 12.754546) rotate(-360.000000) translate(-23.089618, -12.754546) translate(13.589618, 8.254546)" stroke="#00BB32" stroke-width="1.6">
                            <line x1="1.0122244" y1="4.77626548" x2="17.9242187" y2="4.77626548" id="Line-2"></line>
                            <line x1="13.2523533" y1="2.84111573" x2="18.7257841" y2="2.84111573" id="Line-2-Copy" transform="translate(15.989069, 2.841116) rotate(45.000000) translate(-15.989069, -2.841116) "></line>
                            <line x1="13.2523535" y1="6.71141564" x2="18.7257842" y2="6.71141564" id="Line-2-Copy-2" transform="translate(15.989069, 6.711416) scale(-1, 1) rotate(-135.000000) translate(-15.989069, -6.711416) "></line>
                        </g>
                    </g>
                </g>
            </g>
        </g>
    </g>
</svg>