<svg width="81" height="81" viewBox="0 0 81 81" fill="none" xmlns="http://www.w3.org/2000/svg">
<circle cx="40.1261" cy="40.1261" r="40.1261" fill="white"/>
<path d="M37.1945 64.6187C42.7519 65.7298 50.9393 64.9362 50.9393 55.0344C50.9393 39.1231 62.4793 36.7357 56.053 27.1245C48.2723 15.4878 22.0061 18.0735 17.7815 35.1214C14.0483 50.2264 24.2109 62.0234 37.1945 64.6187Z" stroke="#50B748" stroke-width="2.85"/>
<path fill-rule="evenodd" clip-rule="evenodd" d="M44.8538 35.7803C44.5254 36.5718 43.7542 37.0866 42.8999 37.0847C42.3404 37.0838 41.8041 36.8599 41.409 36.4622C41.014 36.0646 40.7925 35.5257 40.7934 34.9641C40.794 34.1068 41.3094 33.3343 42.099 33.0071C42.8886 32.6799 43.7968 32.8625 44.3999 33.4697C45.0031 34.0768 45.1822 34.9889 44.8538 35.7803ZM40.7773 44.9764C40.7773 41.4851 41.744 38.6533 42.9288 38.6533C44.1151 38.6533 45.077 41.4834 45.077 44.9764C45.077 48.4694 44.1183 51.2996 42.9288 51.2996C41.7392 51.2996 40.7773 48.4678 40.7773 44.9764ZM33.3468 38.6534C29.8199 38.6534 27.4648 41.4594 27.4648 44.9766C27.4648 48.4937 29.8135 51.3013 33.3468 51.3013C36.8801 51.3013 39.224 48.4921 39.224 44.9701C39.224 41.4482 36.8705 38.647 33.3468 38.647V38.6534ZM30.8281 44.956C30.8281 46.6502 31.7243 48.3203 33.3451 48.3203V48.3139C34.9594 48.3139 35.8556 46.6325 35.8556 44.9496C35.8556 43.2666 34.9659 41.6416 33.3451 41.6416C31.7243 41.6416 30.8281 43.2618 30.8281 44.956Z" fill="#50B748"/>
</svg>
