<svg width="43" height="43" viewBox="0 0 43 43" fill="none" xmlns="http://www.w3.org/2000/svg">
<path fill-rule="evenodd" clip-rule="evenodd" d="M21.619 42.238C33.2827 42.238 42.738 32.7827 42.738 21.119C42.738 9.45529 33.2827 0 21.619 0C9.95529 0 0.5 9.45529 0.5 21.119C0.5 32.7827 9.95529 42.238 21.619 42.238Z" fill="white"/>
<path fill-rule="evenodd" clip-rule="evenodd" d="M14.8188 23.1628C14.8981 23.8488 15.3114 24.5664 15.9378 25.1593L18.0691 27.2748C18.6664 27.8965 19.3894 28.3067 20.0806 28.3854C20.7506 28.4489 21.4505 28.2473 22.2985 27.3078C22.311 27.2939 22.3237 27.2798 22.3365 27.2656C22.6106 26.9609 22.9522 26.5813 23.5307 26.3889C24.1362 26.1876 24.8351 26.3226 25.5288 26.693C26.1108 27.1591 26.7274 27.6072 27.3287 28.0442C28.0599 28.5756 28.7685 29.0906 29.3652 29.6018C30.0093 30.2411 30.2065 31.1648 29.9913 31.8495C29.79 32.496 29.3454 32.9945 28.9389 33.4096C26.5811 35.7499 24.1554 36.7316 21.7124 36.3118C19.2694 35.892 16.9715 34.2241 14.4458 31.7173L11.462 28.7556C8.93633 26.2488 7.25587 23.968 6.83295 21.5432C6.41004 19.1184 7.39903 16.7107 9.75689 14.3704C10.1751 13.9669 10.6774 13.5257 11.3287 13.3259C12.0186 13.1123 12.9492 13.308 13.5933 13.9473C14.1083 14.5395 14.6272 15.2429 15.1625 15.9685C15.6028 16.5654 16.0542 17.1775 16.5239 17.7551C16.8971 18.4437 17.0331 19.1374 16.8303 19.7384C16.6364 20.3126 16.2539 20.6517 15.9469 20.9237C15.9326 20.9364 15.9184 20.949 15.9045 20.9614C14.9579 21.8031 14.7549 22.4978 14.8188 23.1628ZM14.9387 18.6278L12.2945 15.1967C12.1287 14.998 12.0092 14.9921 11.8682 15.0381C11.693 15.0923 11.3571 15.3305 11.0357 15.6397C9.64941 17.0104 8.09281 19.2801 8.6113 21.2324C8.92462 23.029 10.3255 25.089 12.7408 27.4863L15.7246 30.448C18.1399 32.8453 20.2154 34.2357 22.0254 34.5467C23.9924 35.0613 26.2791 33.5163 27.6601 32.1404C27.9718 31.8214 28.2116 31.4879 28.2662 31.314C28.2709 31.2991 28.2755 31.2854 28.2797 31.2728C28.3229 31.1429 28.3312 31.1179 28.1064 30.8909L24.6496 28.2664C24.2549 28.0638 24.1406 28.0822 24.1035 28.0945C24.0645 28.1075 23.911 28.2158 23.6505 28.5044C22.5205 29.7564 21.1563 30.2886 19.9074 30.1703C18.6651 30.0526 17.6076 29.3772 16.7903 28.5441L14.659 26.4286C13.8197 25.6173 13.1391 24.5678 13.0205 23.3347C12.9013 22.0951 13.4376 20.741 14.6989 19.6194C14.9896 19.3609 15.0988 19.2086 15.1119 19.1699C15.1243 19.1331 15.1428 19.0195 14.9387 18.6278Z" fill="#50B748"/>
<path d="M18.371 14.7633L26.9351 7.05205" stroke="#50B748" stroke-width="1.6" stroke-linecap="round" stroke-linejoin="round"/>
<path d="M21.4692 6.7656L26.9351 7.05206" stroke="#50B748" stroke-width="1.6" stroke-linecap="round" stroke-linejoin="round"/>
<path d="M26.6487 12.518L26.9351 7.05206" stroke="#50B748" stroke-width="1.6" stroke-linecap="round" stroke-linejoin="round"/>
<path d="M37.2534 16.3579L29.1045 24.5067" stroke="#50B748" stroke-width="1.6" stroke-linecap="round" stroke-linejoin="round"/>
<path d="M34.578 24.5067H29.1045" stroke="#50B748" stroke-width="1.6" stroke-linecap="round" stroke-linejoin="round"/>
<path d="M29.1045 19.0333V24.5067" stroke="#50B748" stroke-width="1.6" stroke-linecap="round" stroke-linejoin="round"/>
<path d="M19.1073 20.0095L19.2842 19.856C19.5275 19.6449 19.9221 19.6449 20.1653 19.856L21.4339 20.9568L22.7025 19.856C22.9457 19.6449 23.3403 19.6449 23.5836 19.856L23.7606 20.0095C24.0038 20.2208 24.0038 20.563 23.7606 20.7741L22.492 21.8747L23.6995 22.9225C23.9427 23.1336 23.9427 23.476 23.6995 23.6871L23.5225 23.8407C23.2793 24.0517 22.8847 24.0517 22.6414 23.8407L21.4339 22.7928L20.2262 23.8407C19.9829 24.0517 19.5883 24.0517 19.3451 23.8407L19.1681 23.6871C18.9249 23.476 18.9249 23.1336 19.1681 22.9225L20.3756 21.8747L19.1073 20.7741C18.864 20.563 18.864 20.2206 19.1073 20.0095Z" fill="#50B748"/>
</svg>
