<svg width="43" height="43" viewBox="0 0 43 43" fill="none" xmlns="http://www.w3.org/2000/svg">
<path fill-rule="evenodd" clip-rule="evenodd" d="M21.619 42.238C33.2827 42.238 42.738 32.7827 42.738 21.119C42.738 9.45529 33.2827 0 21.619 0C9.95529 0 0.5 9.45529 0.5 21.119C0.5 32.7827 9.95529 42.238 21.619 42.238Z" fill="white"/>
<path fill-rule="evenodd" clip-rule="evenodd" d="M14.2002 23.8798C14.2795 24.5658 14.6928 25.2834 15.3191 25.8763L17.4505 27.9918C18.0477 28.6136 18.7708 29.0237 19.4619 29.1024C20.1319 29.1659 20.8319 28.9643 21.6798 28.0248C21.6924 28.0109 21.705 27.9969 21.7179 27.9826C21.992 27.6779 22.3335 27.2983 22.912 27.106C23.5175 26.9046 24.2164 27.0396 24.9101 27.41C25.4921 27.8762 26.1087 28.3242 26.7101 28.7613C27.4412 29.2926 28.1499 29.8076 28.7465 30.3188C29.3907 30.9581 29.5878 31.8818 29.3726 32.5665C29.1713 33.213 28.7267 33.7115 28.3203 34.1267C25.9624 36.467 23.5367 37.4486 21.0937 37.0288C18.6507 36.6091 16.3528 34.9411 13.8272 32.4343L10.8433 29.4726C8.31768 26.9658 6.63722 24.685 6.2143 22.2602C5.79139 19.8354 6.78037 17.4277 9.13823 15.0874C9.55646 14.684 10.0587 14.2427 10.7101 14.0429C11.3999 13.8293 12.3306 14.0251 12.9746 14.6643C13.4897 15.2565 14.0085 15.9599 14.5438 16.6856C14.9841 17.2825 15.4356 17.8945 15.9052 18.4722C16.2785 19.1607 16.4145 19.8544 16.2116 20.4554C16.0178 21.0297 15.6353 21.3687 15.3283 21.6408C15.3139 21.6535 15.2998 21.666 15.2858 21.6784C14.3393 22.5201 14.1362 23.2148 14.2002 23.8798ZM14.3201 19.3448L11.6759 15.9138C11.51 15.7151 11.3906 15.7091 11.2496 15.7551C11.0744 15.8094 10.7385 16.0475 10.417 16.3567C9.03076 17.7274 7.47416 19.9972 7.99265 21.9495C8.30597 23.746 9.7068 25.806 12.1221 28.2033L15.106 31.165C17.5213 33.5623 19.5968 34.9527 21.4068 35.2637C23.3737 35.7784 25.6605 34.2333 27.0415 32.8574C27.3531 32.5384 27.5929 32.205 27.6476 32.031C27.6523 32.0161 27.6568 32.0024 27.661 31.9898C27.7043 31.8599 27.7126 31.835 27.4877 31.6079L24.031 28.9834C23.6362 28.7809 23.5219 28.7992 23.4848 28.8115C23.4458 28.8245 23.2923 28.9329 23.0319 29.2214C21.9019 30.4734 20.5376 31.0057 19.2887 30.8873C18.0464 30.7696 16.9889 30.0942 16.1716 29.2611L14.0403 27.1456C13.201 26.3343 12.5204 25.2848 12.4019 24.0517C12.2826 22.8122 12.8189 21.458 14.0803 20.3364C14.371 20.0779 14.4801 19.9256 14.4932 19.8869C14.5056 19.8501 14.5241 19.7366 14.3201 19.3448Z" fill="#50B748"/>
<path d="M18.3016 21.5058L18.4786 21.3522C18.7218 21.1412 19.1164 21.1412 19.3596 21.3522L20.6282 22.453L21.8968 21.3522C22.1401 21.1412 22.5347 21.1412 22.7779 21.3522L22.9549 21.5058C23.1981 21.7171 23.1981 22.0593 22.9549 22.2704L21.6863 23.371L22.8938 24.4188C23.1371 24.6299 23.1371 24.9723 22.8938 25.1833L22.7168 25.3369C22.4736 25.548 22.079 25.548 21.8357 25.3369L20.6282 24.2891L19.4205 25.3369C19.1773 25.548 18.7827 25.548 18.5394 25.3369L18.3624 25.1833C18.1192 24.9723 18.1192 24.6299 18.3624 24.4188L19.57 23.371L18.3016 22.2704C18.0583 22.0593 18.0583 21.7169 18.3016 21.5058Z" fill="#50B748"/>
<path d="M24.6567 19.6977L33.2209 11.9865" stroke="#50B748" stroke-width="1.6" stroke-linecap="round" stroke-linejoin="round"/>
<path d="M27.755 11.7L33.2209 11.9865" stroke="#50B748" stroke-width="1.6" stroke-linecap="round" stroke-linejoin="round"/>
<path d="M32.9344 17.4524L33.2209 11.9865" stroke="#50B748" stroke-width="1.6" stroke-linecap="round" stroke-linejoin="round"/>
</svg>
