<svg width="43" height="43" viewBox="0 0 43 43" fill="none" xmlns="http://www.w3.org/2000/svg">
<path fill-rule="evenodd" clip-rule="evenodd" d="M21.619 42.238C33.2827 42.238 42.738 32.7827 42.738 21.119C42.738 9.45529 33.2827 0 21.619 0C9.95529 0 0.5 9.45529 0.5 21.119C0.5 32.7827 9.95529 42.238 21.619 42.238Z" fill="white"/>
<path fill-rule="evenodd" clip-rule="evenodd" d="M13.8188 22.247C13.8981 22.9329 14.3114 23.6505 14.9378 24.2435L17.0691 26.3589C17.6664 26.9807 18.3894 27.3908 19.0806 27.4695C19.7506 27.533 20.4505 27.3315 21.2985 26.392C21.311 26.3781 21.3237 26.364 21.3365 26.3497C21.6106 26.0451 21.9522 25.6654 22.5307 25.4731C23.1362 25.2717 23.8351 25.4067 24.5288 25.7772C25.1108 26.2433 25.7274 26.6914 26.3287 27.1284C27.0599 27.6597 27.7685 28.1747 28.3652 28.6859C29.0093 29.3252 29.2065 30.2489 28.9913 30.9336C28.79 31.5802 28.3454 32.0787 27.9389 32.4938C25.5811 34.8341 23.1554 35.8157 20.7124 35.396C18.2694 34.9762 15.9715 33.3082 13.4458 30.8014L10.462 27.8398C7.93633 25.3329 6.25587 23.0521 5.83295 20.6273C5.41004 18.2025 6.39903 15.7948 8.75689 13.4545C9.17511 13.0511 9.67737 12.6098 10.3287 12.41C11.0186 12.1964 11.9492 12.3922 12.5933 13.0314C13.1083 13.6237 13.6272 14.327 14.1625 15.0527C14.6028 15.6496 15.0542 16.2616 15.5239 16.8393C15.8971 17.5279 16.0331 18.2215 15.8303 18.8226C15.6364 19.3968 15.2539 19.7358 14.9469 20.0079C14.9326 20.0206 14.9184 20.0331 14.9045 20.0455C13.9579 20.8872 13.7549 21.5819 13.8188 22.247ZM13.9387 17.7119L11.2945 14.2809C11.1287 14.0822 11.0092 14.0763 10.8682 14.1222C10.693 14.1765 10.3571 14.4146 10.0357 14.7238C8.64941 16.0945 7.09281 18.3643 7.6113 20.3166C7.92462 22.1131 9.32546 24.1732 11.7408 26.5705L14.7246 29.5321C17.1399 31.9295 19.2154 33.3199 21.0254 33.6309C22.9924 34.1455 25.2791 32.6005 26.6601 31.2245C26.9718 30.9056 27.2116 30.5721 27.2662 30.3982C27.2709 30.3832 27.2755 30.3696 27.2797 30.3569C27.3229 30.227 27.3312 30.2021 27.1064 29.9751L23.6496 27.3505C23.2549 27.148 23.1406 27.1663 23.1035 27.1786C23.0645 27.1916 22.911 27.3 22.6505 27.5885C21.5205 28.8405 20.1563 29.3728 18.9074 29.2545C17.6651 29.1368 16.6076 28.4614 15.7903 27.6282L13.659 25.5127C12.8197 24.7015 12.1391 23.6519 12.0205 22.4188C11.9013 21.1793 12.4376 19.8252 13.6989 18.7036C13.9896 18.4451 14.0988 18.2927 14.1119 18.254C14.1243 18.2172 14.1428 18.1037 13.9387 17.7119Z" fill="#50B748"/>
<path d="M32.7573 9.53098L24.6084 17.6798" stroke="#50B748" stroke-width="1.6" stroke-linecap="round" stroke-linejoin="round"/>
<path d="M30.0819 17.6798H24.6084" stroke="#50B748" stroke-width="1.6" stroke-linecap="round" stroke-linejoin="round"/>
<path d="M24.6084 12.2064V17.6798" stroke="#50B748" stroke-width="1.6" stroke-linecap="round" stroke-linejoin="round"/>
<path d="M17.9202 19.8729L18.0972 19.7194C18.3405 19.5083 18.735 19.5083 18.9783 19.7194L20.2469 20.8202L21.5155 19.7194C21.7587 19.5083 22.1533 19.5083 22.3966 19.7194L22.5735 19.8729C22.8168 20.0842 22.8168 20.4264 22.5735 20.6375L21.3049 21.7381L22.5125 22.7859C22.7557 22.997 22.7557 23.3394 22.5125 23.5505L22.3355 23.704C22.0922 23.9151 21.6977 23.9151 21.4544 23.704L20.2469 22.6562L19.0392 23.704C18.7959 23.9151 18.4013 23.9151 18.1581 23.704L17.9811 23.5505C17.7378 23.3394 17.7378 22.997 17.9811 22.7859L19.1886 21.7381L17.9202 20.6375C17.677 20.4264 17.677 20.084 17.9202 19.8729Z" fill="#50B748"/>
</svg>
