<svg width="43" height="43" viewBox="0 0 43 43" fill="none" xmlns="http://www.w3.org/2000/svg">
<path fill-rule="evenodd" clip-rule="evenodd" d="M21.119 42.6261C32.7827 42.6261 42.238 33.1709 42.238 21.5072C42.238 9.84347 32.7827 0.388184 21.119 0.388184C9.45529 0.388184 0 9.84347 0 21.5072C0 33.1709 9.45529 42.6261 21.119 42.6261Z" fill="white"/>
<path d="M10.807 26.0724C10.2023 26.0724 10.0074 25.9633 10.0074 25.2006V14.686C10.0074 13.9269 10.0737 13.8676 10.8277 13.8676H30.9367C31.8628 13.8676 31.9414 13.9457 31.9414 14.4978L31.9029 20.8009H33.5862L33.6247 13.591C33.6247 12.7034 33.0811 12.5234 32.0113 12.5234H9.75663C8.68917 12.5234 8.32568 12.9035 8.32568 13.7901V26.1673C8.32568 27.0562 8.66655 27.4165 9.73401 27.4165H18.9185V28.6779C16.5744 28.9478 14.6352 29.5015 14.6352 29.6225C14.6352 29.6706 14.6625 29.7207 14.7006 29.9587L27.6311 29.959C27.6684 29.7211 27.6958 29.6719 27.6958 29.6225C27.6958 29.6225 25.5121 28.9752 23.0665 28.6779V27.4165H27.6954C27.6958 27.315 27.6958 26.0724 27.6958 26.0724H10.807Z" fill="#50B748"/>
<path fill-rule="evenodd" clip-rule="evenodd" d="M28.9621 22.0676L29.1866 21.8774C29.4952 21.6159 29.9958 21.6159 30.3044 21.8774L31.9137 23.2412L33.523 21.8774C33.8316 21.6159 34.3322 21.6159 34.6408 21.8774L34.8653 22.0676C35.1738 22.3294 35.1738 22.7533 34.8653 23.0149L33.2559 24.3784L34.7878 25.6766C35.0964 25.9381 35.0964 26.3623 34.7878 26.6238L34.5633 26.8141C34.2547 27.0756 33.7541 27.0756 33.4455 26.8141L31.9137 25.5159L30.3816 26.8141C30.073 27.0756 29.5724 27.0756 29.2638 26.8141L29.0393 26.6238C28.7307 26.3623 28.7307 25.9381 29.0393 25.6766L30.5712 24.3784L28.9621 23.0149C28.6535 22.7533 28.6535 22.3291 28.9621 22.0676Z" fill="#5BBA44"/>
</svg>
