<svg width="43" height="43" viewBox="0 0 43 43" fill="none" xmlns="http://www.w3.org/2000/svg">
<path fill-rule="evenodd" clip-rule="evenodd" d="M21.619 42.238C33.2827 42.238 42.738 32.7827 42.738 21.119C42.738 9.45529 33.2827 0 21.619 0C9.95529 0 0.5 9.45529 0.5 21.119C0.5 32.7827 9.95529 42.238 21.619 42.238Z" fill="white"/>
<path fill-rule="evenodd" clip-rule="evenodd" d="M18.9918 7.75035C18.5143 7.30947 17.7388 7.31344 17.2613 7.75749L10.7017 13.8497C9.53923 14.9115 11.2829 16.5045 12.4454 15.4427L16.3368 11.8895C16.6567 11.5969 16.9165 11.6961 16.9165 12.1116V20.6524C16.9165 21.2741 17.4689 21.7776 18.15 21.7776C18.831 21.7776 19.3826 21.2741 19.3826 20.6524V12.1116C19.3826 11.6969 19.6424 11.5969 19.9631 11.8895L23.8538 15.4427C25.017 16.5045 26.7607 14.9115 25.5982 13.8497L18.9918 7.75035Z" fill="#50B748"/>
<path fill-rule="evenodd" clip-rule="evenodd" d="M24.7667 33.5382C25.2441 33.9791 26.0196 33.9751 26.4971 33.5311L33.0566 27.4388C34.2198 26.3771 32.4754 24.784 31.313 25.8458L27.4215 29.399C27.1017 29.6916 26.8419 29.5925 26.8419 29.177V20.6361C26.8419 20.0145 26.2895 19.5109 25.6085 19.5109C24.9274 19.5109 24.3758 20.0145 24.3758 20.6361V29.177C24.3758 29.5917 24.116 29.6916 23.7954 29.399L19.9048 25.8458C18.7416 24.784 16.9979 26.3771 18.1604 27.4388L24.7667 33.5382Z" fill="#50B748"/>
</svg>
