<svg width="43" height="43" viewBox="0 0 43 43" fill="none" xmlns="http://www.w3.org/2000/svg">
<path fill-rule="evenodd" clip-rule="evenodd" d="M21.619 42.238C33.2827 42.238 42.738 32.7827 42.738 21.119C42.738 9.45529 33.2827 0 21.619 0C9.95529 0 0.5 9.45529 0.5 21.119C0.5 32.7827 9.95529 42.238 21.619 42.238Z" fill="white"/>
<path d="M33.463 14.9285C30.7651 11.6533 26.6782 9.56506 22.1036 9.56506C17.4226 9.56506 13.2523 11.7516 10.5583 15.159" stroke="#50B748" stroke-width="2.4" stroke-linecap="round"/>
<path fill-rule="evenodd" clip-rule="evenodd" d="M17.0975 31.6556C16.6041 31.1623 16.6041 30.3624 17.0975 29.869L25.1372 21.8293C25.6306 21.336 26.4304 21.336 26.9238 21.8293V21.8293C27.4172 22.3227 27.4172 23.1226 26.9238 23.6159L18.8841 31.6556C18.3907 32.149 17.5908 32.149 17.0975 31.6556V31.6556Z" fill="#50B748"/>
<path fill-rule="evenodd" clip-rule="evenodd" d="M26.9238 31.6556C26.4304 32.149 25.6306 32.149 25.1372 31.6556L17.0975 23.6159C16.6041 23.1226 16.6041 22.3227 17.0975 21.8293V21.8293C17.5908 21.336 18.3907 21.336 18.8841 21.8293L26.9238 29.869C27.4172 30.3624 27.4172 31.1623 26.9238 31.6556V31.6556Z" fill="#50B748"/>
<path d="M27.9819 17.9169C26.5946 16.2328 24.4931 15.159 22.1409 15.159C19.7339 15.159 17.5895 16.2833 16.2042 18.0354" stroke="#50B748" stroke-width="2.4" stroke-linecap="round"/>
</svg>
