<svg width="43" height="43" viewBox="0 0 43 43" fill="none" xmlns="http://www.w3.org/2000/svg">
<path fill-rule="evenodd" clip-rule="evenodd" d="M21.119 42.238C32.7827 42.238 42.238 32.7827 42.238 21.119C42.238 9.45529 32.7827 0 21.119 0C9.45529 0 0 9.45529 0 21.119C0 32.7827 9.45529 42.238 21.119 42.238Z" fill="white"/>
<path d="M19.1225 29.3117V31.2482C16.5381 31.5961 14.3999 32.3098 14.3999 32.4657C14.3999 32.5278 14.4301 32.5923 14.4721 32.8991L28.7286 32.8995C28.7697 32.5928 28.7999 32.5295 28.7999 32.4657C28.7999 32.4657 26.3923 31.6314 23.6958 31.2482V29.3117H19.1225Z" fill="#50B748"/>
<mask id="path-3-inside-1" fill="white">
<path fill-rule="evenodd" clip-rule="evenodd" d="M9.59991 10.1117C8.71625 10.1117 7.99991 10.8281 7.99991 11.7117V27.7117C7.99991 28.5954 8.71625 29.3117 9.59991 29.3117H33.5999C34.4836 29.3117 35.1999 28.5954 35.1999 27.7117V11.7117C35.1999 10.8281 34.4836 10.1117 33.5999 10.1117H9.59991ZM10.3999 11.7117C9.95808 11.7117 9.59991 12.0699 9.59991 12.5117V26.9117C9.59991 27.3535 9.95808 27.7117 10.3999 27.7117H32.7999C33.2417 27.7117 33.5999 27.3535 33.5999 26.9117V12.5117C33.5999 12.0699 33.2417 11.7117 32.7999 11.7117H10.3999Z"/>
</mask>
<path fill-rule="evenodd" clip-rule="evenodd" d="M9.59991 10.1117C8.71625 10.1117 7.99991 10.8281 7.99991 11.7117V27.7117C7.99991 28.5954 8.71625 29.3117 9.59991 29.3117H33.5999C34.4836 29.3117 35.1999 28.5954 35.1999 27.7117V11.7117C35.1999 10.8281 34.4836 10.1117 33.5999 10.1117H9.59991ZM10.3999 11.7117C9.95808 11.7117 9.59991 12.0699 9.59991 12.5117V26.9117C9.59991 27.3535 9.95808 27.7117 10.3999 27.7117H32.7999C33.2417 27.7117 33.5999 27.3535 33.5999 26.9117V12.5117C33.5999 12.0699 33.2417 11.7117 32.7999 11.7117H10.3999Z" fill="#50B748"/>
<path d="M9.59991 11.7117L9.59991 11.7117V8.51171C7.8326 8.51171 6.39991 9.9444 6.39991 11.7117H9.59991ZM9.59991 27.7117V11.7117H6.39991V27.7117H9.59991ZM9.59991 27.7117L9.59991 27.7117H6.39991C6.39991 29.479 7.83259 30.9117 9.59991 30.9117V27.7117ZM33.5999 27.7117H9.59991V30.9117H33.5999V27.7117ZM33.5999 27.7117L33.5999 27.7117V30.9117C35.3672 30.9117 36.7999 29.479 36.7999 27.7117H33.5999ZM33.5999 11.7117V27.7117H36.7999V11.7117H33.5999ZM33.5999 11.7117H33.5999H36.7999C36.7999 9.9444 35.3672 8.51171 33.5999 8.51171V11.7117ZM9.59991 11.7117H33.5999V8.51171H9.59991V11.7117ZM11.1999 12.5117C11.1999 12.9535 10.8417 13.3117 10.3999 13.3117V10.1117C9.07442 10.1117 7.99991 11.1862 7.99991 12.5117H11.1999ZM11.1999 26.9117V12.5117H7.99991V26.9117H11.1999ZM10.3999 26.1117C10.8417 26.1117 11.1999 26.4699 11.1999 26.9117H7.99991C7.99991 28.2372 9.07442 29.3117 10.3999 29.3117V26.1117ZM32.7999 26.1117H10.3999V29.3117H32.7999V26.1117ZM31.9999 26.9117C31.9999 26.4699 32.3581 26.1117 32.7999 26.1117V29.3117C34.1254 29.3117 35.1999 28.2372 35.1999 26.9117H31.9999ZM31.9999 12.5117V26.9117H35.1999V12.5117H31.9999ZM32.7999 13.3117C32.3581 13.3117 31.9999 12.9535 31.9999 12.5117H35.1999C35.1999 11.1862 34.1254 10.1117 32.7999 10.1117V13.3117ZM10.3999 13.3117H32.7999V10.1117H10.3999V13.3117Z" fill="#50B748" mask="url(#path-3-inside-1)"/>
<path fill-rule="evenodd" clip-rule="evenodd" d="M18.4449 16.6876L18.6874 16.4424C19.0209 16.1054 19.5617 16.1054 19.8952 16.4424L21.6341 18.2002L23.373 16.4424C23.7064 16.1054 24.2473 16.1054 24.5808 16.4424L24.8233 16.6876C25.1568 17.025 25.1568 17.5715 24.8233 17.9085L23.0844 19.666L24.7396 21.3392C25.0731 21.6762 25.0731 22.223 24.7396 22.5601L24.497 22.8053C24.1636 23.1423 23.6227 23.1423 23.2893 22.8053L21.6341 21.1321L19.9786 22.8053C19.6452 23.1423 19.1043 23.1423 18.7709 22.8053L18.5283 22.5601C18.1948 22.223 18.1948 21.6762 18.5283 21.3392L20.1835 19.666L18.4449 17.9085C18.1114 17.5715 18.1114 17.0247 18.4449 16.6876Z" fill="#50B748"/>
</svg>
