<?xml version="1.0" encoding="UTF-8"?>
<svg width="43px" height="43px" viewBox="0 0 43 43" version="1.1" xmlns="http://www.w3.org/2000/svg" xmlns:xlink="http://www.w3.org/1999/xlink">
    <!-- Generator: Sketch 64 (93537) - https://sketch.com -->
    <title>Group 16</title>
    <desc>Created with Sketch.</desc>
    <g id="LOGIN-TV" stroke="none" stroke-width="1" fill="none" fill-rule="evenodd">
        <g id="iPhone-11-Copy-88" transform="translate(-48.000000, -435.000000)">
            <g id="Group-5" transform="translate(43.000000, 415.169667)">
                <g id="Group-16" transform="translate(5.500000, 20.064038)">
                    <g id="Group-31-Copy" fill="#FFFFFF">
                        <g id="Group-33" transform="translate(0.000000, 0.388286)">
                            <circle id="Oval" cx="21.1189799" cy="21.1189799" r="21.1189799"></circle>
                        </g>
                    </g>
                    <g id="TV_Icon_telapretaouazul" transform="translate(6.900000, 9.900000)">
                        <g id="noun_15113_cc">
                            <g id="Group">
                                <path d="M29.2420214,20.1763833 L19.4307934,20.1763833 C18.7263162,20.1763833 18.1534729,19.6088242 18.1534729,18.9112704 L18.1534729,9.1892733 C18.1534729,8.49171948 18.726745,7.92416046 19.4307934,7.92416046 L29.2420214,7.92416046 C29.9469274,7.92416046 30.5197709,8.49171948 30.5197709,9.1892733 L30.5197709,18.9116952 C30.5201994,19.6088242 29.9469274,20.1763833 29.2420214,20.1763833 Z M29.2424501,18.9019244 C29.2420214,18.9019244 29.2420214,18.9019244 29.2424501,18.9019244 L29.2424501,18.9019244 L29.2424501,18.9019244 Z M29.2338746,9.1892733 L19.4312222,9.19861934 L19.4402265,18.9112704 L29.2343034,18.9019244 L29.2343034,9.1892733 L29.2338746,9.1892733 Z" id="Shape" fill="#50B748" fill-rule="nonzero"></path>
                                <g id="Shape">
                                    <path d="M19.4265057,7.12762367 L25.8697066,7.12762367 L25.8697066,2.74008658 C25.8697066,2.02851371 25.7848091,1.92783146 24.7840484,1.92783146 L3.05587892,1.92783146 C2.24120655,1.92783146 2.16960114,2.00472381 2.16960114,2.98265859 L2.16960114,16.5348294 C2.16960114,17.5174372 2.37970085,17.6584773 3.03358262,17.6584773 L17.2916353,17.6584773 L17.2916353,9.24237576 C17.2912066,8.07624589 18.2495185,7.12762367 19.4265057,7.12762367 Z"></path>
                                    <path d="M17.2912066,17.6584773 L3.03315385,17.6584773 C2.37970085,17.6584773 2.16917236,17.517862 2.16917236,16.5348294 L2.16917236,2.98265859 C2.16917236,2.00429899 2.24077778,1.92783146 3.05545014,1.92783146 L24.7836197,1.92783146 C25.7843803,1.92783146 25.8692778,2.02851371 25.8692778,2.74008658 L25.8692778,7.12762367 L27.688141,7.12762367 L27.688141,1.57140779 C27.688141,0.427368543 27.1007194,0.195417027 25.9447422,0.195417027 L1.89818661,0.195417027 C0.744782051,0.195417027 0.352024217,0.685234055 0.352024217,1.82799885 L0.352024217,17.7808254 C0.352024217,18.9265639 0.72034188,19.3908918 1.87374644,19.3908918 L11.7977422,19.3908918 L11.7977422,21.0166765 C9.26496866,21.3646038 7.16954558,22.0783007 7.16954558,22.2342095 C7.16954558,22.2962332 7.19913105,22.3608058 7.24029345,22.6675255 L21.2119245,22.6679504 C21.2522293,22.3612306 21.2818148,22.2979325 21.2818148,22.2342095 C21.2818148,22.2342095 18.9222664,21.3998638 16.2797265,21.0166765 L16.2797265,19.3908918 L17.3353704,19.3908918 C17.3070712,19.2532502 17.2916353,19.1109356 17.2916353,18.9647977 L17.2916353,17.6584773 L17.2912066,17.6584773 Z" fill="#51B747" fill-rule="nonzero"></path>
                                </g>
                            </g>
                        </g>
                        <path d="M22.3869186,12.4469078 L22.5135128,12.3189387 C22.6875239,12.1430377 22.9697888,12.1430377 23.1437999,12.3189387 L24.0512821,13.2362766 L24.9587642,12.3189387 C25.1327753,12.1430377 25.4150402,12.1430377 25.5890513,12.3189387 L25.7156455,12.4469078 C25.8896566,12.6229595 25.8896566,12.9081391 25.7156455,13.0840401 L24.8081633,14.0012272 L25.6719563,14.8744015 C25.8459675,15.0503024 25.8459675,15.3356328 25.6719563,15.5115338 L25.5453621,15.6395028 C25.371351,15.8154038 25.0890862,15.8154038 24.9150751,15.6395028 L24.0512821,14.7663286 L23.1873399,15.6395028 C23.0133288,15.8154038 22.731064,15.8154038 22.5570529,15.6395028 L22.4304587,15.5115338 C22.2564475,15.3356328 22.2564475,15.0503024 22.4304587,14.8744015 L23.2942517,14.0012272 L22.3869186,13.0840401 C22.2129075,12.9081391 22.2129075,12.6228088 22.3869186,12.4469078 Z" id="Path" fill="#50B748"></path>
                    </g>
                </g>
            </g>
        </g>
    </g>
</svg>