<?xml version="1.0" encoding="UTF-8"?>
<svg width="328px" height="513px" viewBox="0 0 328 513" version="1.1" xmlns="http://www.w3.org/2000/svg" xmlns:xlink="http://www.w3.org/1999/xlink">
    <title>pause</title>
    <g id="Novo" stroke="none" stroke-width="1" fill="none" fill-rule="evenodd">
        <g id="pause" transform="translate(1.000000, 1.000000)">
            <g id="Group">
                <circle id="Oval" fill="#FFE47B" fill-rule="nonzero" cx="75.138418" cy="75.138418" r="60.5"></circle>
                <circle id="Oval-Copy-2" stroke="#D8D8D8" stroke-width="2" cx="75.138418" cy="75.138418" r="75.138418"></circle>
                <circle id="Oval-Copy" fill="#D8D8D8" fill-rule="nonzero" cx="265.776836" cy="75.5" r="60.5"></circle>
                <rect id="Rectangle" fill="#00C0D2" fill-rule="nonzero" x="52.3618359" y="49" width="16" height="53"></rect>
                <rect id="Rectangle-Copy" fill="#00C0D2" fill-rule="nonzero" x="82.3618359" y="49" width="16" height="53"></rect>
                <path d="M275.914622,52.8420789 L297.678554,96.3699429 C298.172533,97.3578999 297.772084,98.559246 296.784127,99.0532241 C296.506416,99.1920801 296.20019,99.2643701 295.8897,99.2643701 L252.361836,99.2643701 C251.257266,99.2643701 250.361836,98.3689396 250.361836,97.2643701 C250.361836,96.9538799 250.434126,96.6476538 250.572982,96.3699429 L272.336914,52.8420789 C272.830892,51.8541219 274.032238,51.4536732 275.020195,51.9476517 C275.40725,52.1411791 275.721095,52.4550241 275.914622,52.8420789 Z" id="Triangle" fill="#00C0D2" fill-rule="nonzero" transform="translate(274.125987, 75.500219) rotate(90.000000) translate(-274.125987, -75.500219) "></path>
            </g>
            <g id="Group-3" transform="translate(62.365198, 169.000000)">
                <g id="Group-13-Copy" transform="translate(44.196638, 0.000000)" fill-rule="nonzero">
                    <g id="Group-6" transform="translate(0.656638, 0.000000)">
                        <g id="Group" transform="translate(0.240000, 0.720000)">
                            <g id="Group-27-Copy" transform="translate(0.021139, 0.409848)">
                                <path d="M50.8985636,339.998958 C47.7035446,340.004696 40.9892554,340.333296 30.1319086,331.138219 C19.1884878,321.870245 9.82328434,302.973601 5.86617423,267.53055 C1.90906411,232.0875 7.76054912,153.58805 9.82328434,124.169566 C11.8860196,94.7510808 -5.40754124,55.4051875 1.74327418,27.4552763 C6.51048446,8.82200215 22.9206891,-0.326786161 50.973888,0.0089113546 C79.0259425,-0.326378365 95.4355219,8.82241742 100.202626,27.4552763 C107.353441,55.4051875 90.0598806,94.7510808 92.1226158,124.169566 C94.185351,153.58805 100.036836,232.265497 96.0797259,267.53055 C92.1226158,302.795604 82.7574124,321.870245 71.8139916,331.138219 C60.8705708,340.406192 54.136158,340.047734 50.9720121,340.047734 C50.9472383,340.047734 50.9227555,340.030225 50.8985636,339.998958 Z" id="Combined-Shape" fill="#645E5E"></path>
                                <g id="STB" transform="translate(13.000000, 10.000000)" fill="#FFFFFF" font-family="SimplonBP-Regular, Simplon BP" font-size="5.76" font-weight="normal">
                                    <text>
                                        <tspan x="0.6840134" y="5.1198128">STB</tspan>
                                    </text>
                                </g>
                                <g id="Group-32" transform="translate(14.368214, 16.420816)">
                                    <circle id="Oval" fill="#D8D8D8" cx="3.7631037" cy="3.7631037" r="3.7631037"></circle>
                                    <circle id="Oval-Copy" fill="#464646" cx="3.7631037" cy="3.7631037" r="1.88155185"></circle>
                                </g>
                                <g id="Group-32-Copy-2" transform="translate(29.420629, 10.947211)">
                                    <circle id="Oval" fill="#D8D8D8" cx="3.7631037" cy="3.7631037" r="3.7631037"></circle>
                                    <circle id="Oval-Copy" fill="#464646" cx="3.7631037" cy="3.7631037" r="1.88155185"></circle>
                                </g>
                                <g id="Group-32-Copy-5" transform="translate(45.157244, 6.842007)" fill="#D8D8D8">
                                    <circle id="Oval" cx="5.81570571" cy="5.81570571" r="5.81570571"></circle>
                                </g>
                                <g id="Group-32-Copy-25" transform="translate(22.578622, 109.472108)" fill="#D8D8D8">
                                    <circle id="Oval" cx="3.7631037" cy="3.7631037" r="3.7631037"></circle>
                                </g>
                                <g id="Group-32-Copy-26" transform="translate(72.525271, 109.472108)" fill="#D8D8D8">
                                    <circle id="Oval" cx="3.7631037" cy="3.7631037" r="3.7631037"></circle>
                                </g>
                                <g id="Group-32-Copy-27" transform="translate(74.577873, 161.471359)" fill="#D8D8D8">
                                    <circle id="Oval" cx="3.7631037" cy="3.7631037" r="3.7631037"></circle>
                                </g>
                                <circle id="Oval" fill="#EB7065" cx="64.6569635" cy="174.129071" r="3.7631037"></circle>
                                <polygon id="Triangle" fill="#FFE47B" transform="translate(38.691205, 174.231699) rotate(1.000000) translate(-38.691205, -174.231699) " points="38.6911789 170.431708 42.4904317 178.03169 34.8919791 178.031663"></polygon>
                                <g id="Group-32-Copy-28" transform="translate(22.578622, 162.839760)" fill="#D8D8D8">
                                    <circle id="Oval" cx="3.7631037" cy="3.7631037" r="3.7631037"></circle>
                                </g>
                                <circle id="Oval" fill="#FFE47B" cx="50.9729501" cy="57.8149568" r="5.81570571"></circle>
                                <circle id="Oval" fill="#2C2828" cx="26.3417259" cy="89.2881877" r="5.81570571"></circle>
                                <circle id="Oval-Copy-2" fill="#2C2828" cx="76.2883749" cy="89.2881877" r="5.81570571"></circle>
                                <circle id="Oval-Copy-3" fill="#2C2828" cx="82.446181" cy="42.762542" r="5.81570571"></circle>
                                <g id="Group-23" transform="translate(34.894234, 30.789030)" fill="#2C2828">
                                    <ellipse id="Oval-Copy-13" cx="26.4825907" cy="5.81570571" rx="5.67484087" ry="5.81570571"></ellipse>
                                    <ellipse id="Oval-Copy-14" cx="5.67484087" cy="5.81570571" rx="5.67484087" ry="5.81570571"></ellipse>
                                    <path d="M10.2380096,1.80575592 C12.0252149,2.63892557 13.8660116,3.02711568 15.7603996,2.97032626 C17.674191,2.91295517 19.5855675,2.53524315 21.4945291,1.83719021 L21.4945235,1.8371748 C22.6149104,1.42748119 23.8552857,2.00361193 24.2649794,3.12399883 C24.3657352,3.39953539 24.4093046,3.69270928 24.3930298,3.98563807 L24.1809466,7.80324617 C24.1147699,8.99435473 23.0955389,9.90629221 21.9044303,9.84011553 C21.7165329,9.82967616 21.5308053,9.79472672 21.3519652,9.73615496 C19.5671817,9.15162205 17.5241299,8.92178908 15.2228099,9.04665604 C13.2386224,9.15431575 11.4902778,9.51536893 9.97777604,10.1298156 L9.9777756,10.1298145 C8.8725599,10.5788031 7.61262836,10.046826 7.16363974,8.94161028 C7.04868141,8.65863261 6.99504487,8.35449167 7.00627018,8.04926098 L7.16679627,3.68409667 C7.21063877,2.49196241 8.21259589,1.56108802 9.40473014,1.60493051 C9.69311648,1.61553635 9.97645389,1.68382238 10.2380096,1.80575592 Z" id="Rectangle-Copy-45"></path>
                                </g>
                                <g id="Group-23-Copy" transform="translate(34.894234, 71.156870)" fill="#2C2828">
                                    <ellipse id="Oval-Copy-13" cx="26.4825907" cy="5.81570571" rx="5.67484087" ry="5.81570571"></ellipse>
                                    <ellipse id="Oval-Copy-14" cx="5.67484087" cy="5.81570571" rx="5.67484087" ry="5.81570571"></ellipse>
                                    <path d="M10.2380096,1.80575592 C12.0252149,2.63892557 13.8660116,3.02711568 15.7603996,2.97032626 C17.674191,2.91295517 19.5855675,2.53524315 21.4945291,1.83719021 L21.4945235,1.8371748 C22.6149104,1.42748119 23.8552857,2.00361193 24.2649794,3.12399883 C24.3657352,3.39953539 24.4093046,3.69270928 24.3930298,3.98563807 L24.1809466,7.80324617 C24.1147699,8.99435473 23.0955389,9.90629221 21.9044303,9.84011553 C21.7165329,9.82967616 21.5308053,9.79472672 21.3519652,9.73615496 C19.5671817,9.15162205 17.5241299,8.92178908 15.2228099,9.04665604 C13.2386224,9.15431575 11.4902778,9.51536893 9.97777604,10.1298156 L9.9777756,10.1298145 C8.8725599,10.5788031 7.61262836,10.046826 7.16363974,8.94161028 C7.04868141,8.65863261 6.99504487,8.35449167 7.00627018,8.04926098 L7.16679627,3.68409667 C7.21063877,2.49196241 8.21259589,1.56108802 9.40473014,1.60493051 C9.69311648,1.61553635 9.97645389,1.68382238 10.2380096,1.80575592 Z" id="Rectangle-Copy-45"></path>
                                </g>
                                <g id="Group-23-Copy-2" transform="translate(79.530961, 196.321494) rotate(-83.000000) translate(-79.530961, -196.321494) translate(63.030961, 190.321494)" fill="#2C2828">
                                    <ellipse id="Oval-Copy-13" cx="26.5945826" cy="5.6999766" rx="5.69883914" ry="5.6999766"></ellipse>
                                    <ellipse id="Oval-Copy-14" cx="5.69883914" cy="5.6999766" rx="5.69883914" ry="5.6999766"></ellipse>
                                    <path d="M10.2533543,1.75706805 C12.0568741,2.58245002 13.9147722,2.96716685 15.8270486,2.91121852 C17.7567606,2.85476007 19.6840276,2.48177268 21.6088497,1.79225634 L21.6088524,1.79226394 C22.7319003,1.38996191 23.9684407,1.97424185 24.3707427,3.09728971 C24.4683999,3.36990488 24.5102433,3.65937349 24.4937852,3.94848433 L24.2849546,7.61687897 C24.2171546,8.80788513 23.1966906,9.71842363 22.0056845,9.65062364 C21.8224959,9.64019532 21.6413825,9.60646793 21.4667198,9.55025623 C19.6686021,8.97156811 17.6087573,8.74369367 15.2871855,8.86663292 C13.284135,8.97270482 11.5204208,9.3297451 9.99604273,9.93775375 L9.99603571,9.93773614 C8.8879968,10.3796851 7.6314834,9.83971247 7.18953446,8.73167356 C7.07784949,8.45166091 7.02601554,8.1513702 7.03736721,7.85011988 L7.1960157,3.63982341 C7.24093587,2.4477326 8.24373142,1.51776706 9.43582223,1.56268724 C9.71843029,1.57333643 9.99619647,1.63937961 10.2533543,1.75706805 Z" id="Rectangle-Copy-45"></path>
                                </g>
                                <g id="Group-23-Copy-3" transform="translate(21.847008, 196.321494) scale(-1, 1) rotate(-83.000000) translate(-21.847008, -196.321494) translate(5.347008, 190.321494)" fill="#2C2828">
                                    <ellipse id="Oval-Copy-13" cx="26.5945826" cy="5.6999766" rx="5.69883914" ry="5.6999766"></ellipse>
                                    <ellipse id="Oval-Copy-14" cx="5.69883914" cy="5.6999766" rx="5.69883914" ry="5.6999766"></ellipse>
                                    <path d="M10.2533543,1.75706805 C12.0568741,2.58245002 13.9147722,2.96716685 15.8270486,2.91121852 C17.7567606,2.85476007 19.6840276,2.48177268 21.6088497,1.79225634 L21.6088524,1.79226394 C22.7319003,1.38996191 23.9684407,1.97424185 24.3707427,3.09728971 C24.4683999,3.36990488 24.5102433,3.65937349 24.4937852,3.94848433 L24.2849546,7.61687897 C24.2171546,8.80788513 23.1966906,9.71842363 22.0056845,9.65062364 C21.8224959,9.64019532 21.6413825,9.60646793 21.4667198,9.55025623 C19.6686021,8.97156811 17.6087573,8.74369367 15.2871855,8.86663292 C13.284135,8.97270482 11.5204208,9.3297451 9.99604273,9.93775375 L9.99603571,9.93773614 C8.8879968,10.3796851 7.6314834,9.83971247 7.18953446,8.73167356 C7.07784949,8.45166091 7.02601554,8.1513702 7.03736721,7.85011988 L7.1960157,3.63982341 C7.24093587,2.4477326 8.24373142,1.51776706 9.43582223,1.56268724 C9.71843029,1.57333643 9.99619647,1.63937961 10.2533543,1.75706805 Z" id="Rectangle-Copy-45"></path>
                                </g>
                                <circle id="Oval-Copy-4" fill="#2C2828" cx="18.1313178" cy="42.762542" r="5.81570571"></circle>
                                <circle id="Oval-Copy-5" fill="#2C2828" cx="27.7101272" cy="57.8149568" r="5.81570571"></circle>
                                <circle id="Oval-Copy-6" fill="#2C2828" cx="74.9199736" cy="57.8149568" r="5.81570571"></circle>
                                <g id="Group-32-Copy-6" transform="translate(41.052040, 129.998128)" fill="#D8D8D8">
                                    <circle id="Oval" cx="9.92090975" cy="9.92090975" r="9.92090975"></circle>
                                </g>
                                <g id="Group-37" transform="translate(21.894422, 220.312616)" fill="#D8D8D8">
                                    <g id="Group-32-Copy-7">
                                        <ellipse id="Oval" cx="6.66566634" cy="4.75139356" rx="6.66566634" ry="4.75139356"></ellipse>
                                    </g>
                                    <g id="Group-32-Copy-8" transform="translate(24.123364, 0.000000)">
                                        <ellipse id="Oval" cx="6.66566634" cy="4.75139356" rx="6.66566634" ry="4.75139356"></ellipse>
                                    </g>
                                    <g id="Group-32-Copy-9" transform="translate(48.246728, 0.000000)">
                                        <ellipse id="Oval" cx="6.66566634" cy="4.75139356" rx="6.66566634" ry="4.75139356"></ellipse>
                                    </g>
                                    <g id="Group-32-Copy-12" transform="translate(0.000000, 19.639093)">
                                        <ellipse id="Oval" cx="6.66566634" cy="4.75139356" rx="6.66566634" ry="4.75139356"></ellipse>
                                    </g>
                                    <g id="Group-32-Copy-11" transform="translate(24.123364, 19.639093)">
                                        <ellipse id="Oval" cx="6.66566634" cy="4.75139356" rx="6.66566634" ry="4.75139356"></ellipse>
                                    </g>
                                    <g id="Group-32-Copy-10" transform="translate(48.246728, 19.639093)">
                                        <ellipse id="Oval" cx="6.66566634" cy="4.75139356" rx="6.66566634" ry="4.75139356"></ellipse>
                                    </g>
                                    <g id="Group-32-Copy-15" transform="translate(0.000000, 39.278187)">
                                        <ellipse id="Oval" cx="6.66566634" cy="4.75139356" rx="6.66566634" ry="4.75139356"></ellipse>
                                    </g>
                                    <g id="Group-32-Copy-14" transform="translate(24.123364, 39.278187)">
                                        <ellipse id="Oval" cx="6.66566634" cy="4.75139356" rx="6.66566634" ry="4.75139356"></ellipse>
                                    </g>
                                    <g id="Group-32-Copy-13" transform="translate(48.246728, 39.278187)">
                                        <ellipse id="Oval" cx="6.66566634" cy="4.75139356" rx="6.66566634" ry="4.75139356"></ellipse>
                                    </g>
                                    <g id="Group-32-Copy-18" transform="translate(0.000000, 58.917280)">
                                        <ellipse id="Oval" cx="6.66566634" cy="4.75139356" rx="6.66566634" ry="4.75139356"></ellipse>
                                    </g>
                                    <g id="Group-32-Copy-17" transform="translate(24.123364, 58.917280)">
                                        <ellipse id="Oval" cx="6.66566634" cy="4.75139356" rx="6.66566634" ry="4.75139356"></ellipse>
                                    </g>
                                    <g id="Group-32-Copy-16" transform="translate(48.246728, 58.917280)">
                                        <ellipse id="Oval" cx="6.66566634" cy="4.75139356" rx="6.66566634" ry="4.75139356"></ellipse>
                                    </g>
                                </g>
                                <g id="Group-32-Copy-4" transform="translate(84.946087, 20.420816) scale(-1, 1) translate(-84.946087, -20.420816) translate(80.946087, 16.420816)">
                                    <circle id="Oval" fill="#D8D8D8" cx="3.7631037" cy="3.7631037" r="3.7631037"></circle>
                                    <circle id="Oval-Copy" fill="#464646" cx="3.7631037" cy="3.7631037" r="1.88155185"></circle>
                                </g>
                                <g id="Group-32-Copy-3" transform="translate(70.577873, 14.947211) scale(-1, 1) translate(-70.577873, -14.947211) translate(66.577873, 10.947211)">
                                    <circle id="Oval" fill="#D8D8D8" cx="3.7631037" cy="3.7631037" r="3.7631037"></circle>
                                    <circle id="Oval-Copy" fill="#464646" cx="3.7631037" cy="3.7631037" r="1.88155185"></circle>
                                </g>
                                <g id="Group-38" transform="translate(26.683826, 115.629914)" fill="#D8D8D8">
                                    <path d="M10.7485638,6.3856833 L15.614165,12.212641 C15.8218614,12.4273518 16.0920056,12.5347072 16.4245974,12.5347072 C16.7571892,12.5347072 17.0591997,12.4273518 17.3306288,12.212641 C19.1920233,10.8880261 21.5350152,10.2257187 24.3596045,10.2257187 C27.1841937,10.2257187 29.3184194,10.8880261 30.7622815,12.212641 C31.009374,12.4273518 31.2661548,12.5347072 31.532624,12.5347072 C31.7990933,12.5347072 32.0582384,12.4273518 32.3100594,12.212641 L38.0484636,6.2549546 C38.2347274,6.06640235 38.3278592,5.80484225 38.3278592,5.47027432 C38.3278592,5.13570638 38.2347274,4.88159083 38.0484636,4.70792766 C33.5501636,1.56930922 28.9872105,0 24.3596045,0 C17.4181954,0 12.6842113,2.71584553 11.2984891,4.35490239 C11.0494674,4.64944968 10.7897081,4.87294037 10.6290651,5.36149417 C10.5021138,5.74758346 10.5419467,6.08897984 10.7485638,6.3856833 Z" id="Path-8"></path>
                                    <path d="M28.7581904,24.5693848 L33.6185258,30.4026555 C33.8259974,30.617599 34.0958492,30.7250707 34.4280811,30.7250707 C34.760313,30.7250707 35.0619966,30.617599 35.3331319,30.4026555 C37.192512,29.0766056 39.5329682,28.4135806 42.3545005,28.4135806 C45.1760329,28.4135806 47.3079488,29.0766056 48.7502483,30.4026555 C48.9970733,30.617599 49.2535762,30.7250707 49.5197571,30.7250707 C49.7859379,30.7250707 50.0448026,30.617599 50.296351,30.4026555 L56.0285448,24.4385145 C56.214607,24.2497579 56.3076381,23.9879145 56.3076381,23.652984 C56.3076381,23.3180536 56.214607,23.0636628 56.0285448,22.8898114 C51.5351131,19.7477925 46.9770983,18.1767831 42.3545005,18.1767831 C35.4206038,18.1767831 30.691743,20.895571 29.3075205,22.5364037 C29.0587683,22.8312701 28.7992902,23.0550029 28.638821,23.544086 C28.5120071,23.9305936 28.5517969,24.2723599 28.7581904,24.5693848 Z" id="Path-8-Copy" transform="translate(42.437032, 24.450927) rotate(90.000000) translate(-42.437032, -24.450927) "></path>
                                    <path d="M10.0664199,42.1065419 L14.9320211,47.9334995 C15.1397175,48.1482104 15.4098617,48.2555658 15.7424535,48.2555658 C16.0750454,48.2555658 16.3770558,48.1482104 16.6484849,47.9334995 C18.5098794,46.6088847 20.8528714,45.9465772 23.6774606,45.9465772 C26.5020499,45.9465772 28.6362755,46.6088847 30.0801376,47.9334995 C30.3272301,48.1482104 30.5840109,48.2555658 30.8504802,48.2555658 C31.1169494,48.2555658 31.3760945,48.1482104 31.6279155,47.9334995 L37.3663197,41.9758132 C37.5525835,41.7872609 37.6457154,41.5257008 37.6457154,41.1911329 C37.6457154,40.8565649 37.5525835,40.6024494 37.3663197,40.4287862 C32.8680197,37.2901678 28.3050667,35.7208586 23.6774606,35.7208586 C16.7360515,35.7208586 12.0020674,38.4367041 10.6163452,40.075761 C10.3673235,40.3703082 10.1075642,40.5937989 9.94692124,41.0823527 C9.81996994,41.468442 9.85980284,41.8098384 10.0664199,42.1065419 Z" id="Path-8-Copy-2" transform="translate(23.760081, 41.988212) rotate(-180.000000) translate(-23.760081, -41.988212) "></path>
                                    <path d="M-7.37204592,23.9311062 L-2.51171054,29.7643769 C-2.30423888,29.9793204 -2.03438711,30.0867921 -1.70215522,30.0867921 C-1.36992333,30.0867921 -1.06823973,29.9793204 -0.797104421,29.7643769 C1.06227565,28.4383269 3.40273186,27.7753019 6.2242642,27.7753019 C9.04579653,27.7753019 11.1777125,28.4383269 12.6200119,29.7643769 C12.866837,29.9793204 13.1233399,30.0867921 13.3895208,30.0867921 C13.6557016,30.0867921 13.9145663,29.9793204 14.1661147,29.7643769 L19.8983085,23.8002358 C20.0843707,23.6114793 20.1774018,23.3496358 20.1774018,23.0147054 C20.1774018,22.679775 20.0843707,22.4253841 19.8983085,22.2515328 C15.4048768,19.1095139 10.846862,17.5385045 6.2242642,17.5385045 C-0.709632534,17.5385045 -5.43849328,20.2572924 -6.82271581,21.8981251 C-7.07146801,22.1929915 -7.33094615,22.4167243 -7.49141528,22.9058074 C-7.61822918,23.292315 -7.5784394,23.6340813 -7.37204592,23.9311062 Z" id="Path-8-Copy-3" transform="translate(6.306796, 23.812648) rotate(-90.000000) translate(-6.306796, -23.812648) "></path>
                                </g>
                                <rect id="Rectangle" fill="#D8D8D8" x="42.4204417" y="95.1038934" width="17.1050168" height="9.57880941" rx="2.16"></rect>
                                <rect id="Rectangle-Copy-44" fill="#5B8FC9" x="46.5256457" y="172.418569" width="8.89460874" height="7.52620739" rx="0.72"></rect>
                                <path d="M44.1326882,188.273272 C46.4127756,188.474715 48.6928631,188.575436 50.9729505,188.575436 C53.2530379,188.575436 55.5331253,188.474715 57.8132128,188.273272 L57.8132102,188.273243 C59.7168725,188.105056 61.3964375,189.511938 61.5646237,191.4156 C61.5735701,191.516863 61.5780599,191.618471 61.5780599,191.720128 L61.5780599,192.410098 C61.5780599,194.25759 60.1795628,195.805189 58.3415108,195.991714 C55.8853241,196.240966 53.4291373,196.365593 50.9729505,196.365593 C48.5167634,196.365593 46.0605764,196.240966 43.6043893,195.991713 L43.6043895,195.991712 C41.7663436,195.805187 40.3678511,194.257594 40.3678511,192.410108 L40.3678511,191.720128 C40.3678511,189.809051 41.9170854,188.259816 43.8281628,188.259816 C43.92982,188.259816 44.0314279,188.264296 44.1326908,188.273243 L44.1326882,188.273272 Z" id="Rectangle-Copy-41" fill="#D8D8D8"></path>
                                <rect id="Rectangle-Copy-42" fill="#D8D8D8" x="35.578435" y="204.576001" width="11.6314114" height="7.52620739" rx="2.16"></rect>
                                <rect id="Rectangle-Copy-43" fill="#D8D8D8" x="54.7360538" y="204.576001" width="11.6314114" height="7.52620739" rx="2.16"></rect>
                            </g>
                        </g>
                    </g>
                </g>
                <path d="M96.1250454,341.128805 C92.9300264,341.134543 86.2157372,341.463144 75.3583904,332.268066 C64.4149696,323.000093 55.0497661,304.103448 51.092656,268.660398 C47.1355459,233.217348 52.9870309,154.717898 55.0497661,125.299413 C57.1125014,95.880928 39.8189406,56.5350351 46.969756,28.5851239 C51.7369663,9.9518498 68.1471709,0.8030615 96.2003698,1.138759 C124.252424,0.8034693 140.662004,9.952265 145.429108,28.5851239 C152.579923,56.5350351 135.286362,95.880928 137.349098,125.299413 C139.411833,154.717898 145.263318,233.395345 141.306208,268.660398 C137.349098,303.925451 127.983894,323.000093 117.040473,332.268066 C106.097053,341.53604 99.3626398,341.177582 96.1984939,341.177582 C96.1737201,341.177582 96.1492373,341.160072 96.1250454,341.128805 Z M95.0515697,71.1798633 C101.709325,71.1798633 107.106501,65.7826865 107.106501,59.1249316 C107.106501,52.4671767 101.709325,47.07 95.0515697,47.07 C88.3938148,47.07 82.996638,52.4671767 82.996638,59.1249316 C82.996638,65.7826865 88.3938148,71.1798633 95.0515697,71.1798633 Z M120.55157,71.1798633 C127.209325,71.1798633 132.606501,65.7826865 132.606501,59.1249316 C132.606501,52.4671767 127.209325,47.07 120.55157,47.07 C113.893815,47.07 108.496638,52.4671767 108.496638,59.1249316 C108.496638,65.7826865 113.893815,71.1798633 120.55157,71.1798633 Z" id="Combined-Shape" fill="#FFFFFF" fill-rule="nonzero" opacity="0.5"></path>
                <path d="M76.16,48.4201891 C63.5324155,49.4123565 51.4978764,50.3571704 38.2310204,51.4000736 C41.3518378,47.9342526 43.7657358,45.2531458 46.7422379,41.9474246 C29.6916164,38.1388549 15.2262673,42.0838476 2.00000001,52.9661196 C8.37354781,35.7012801 27.6712029,26.3354458 54.6299684,27.1945725 C55.6390477,23.5957109 56.6796959,19.884103 57.985298,15.2299362 C61.3597945,21.3475499 64.3408064,26.723293 67.2925043,32.1148206 C70.1889565,37.4037491 73.0572221,42.710717 76.16,48.4201891" id="Fill-77-Copy" fill="#00C0D2" fill-rule="nonzero" transform="translate(39.080000, 34.098028) rotate(5.000000) translate(-39.080000, -34.098028) "></path>
                <path d="M214.276638,48.4201891 C201.649054,49.4123565 189.614514,50.3571704 176.347658,51.4000736 C179.468476,47.9342526 181.882374,45.2531458 184.858876,41.9474246 C167.808254,38.1388549 153.342905,42.0838476 140.116638,52.9661196 C146.490186,35.7012801 165.787841,26.3354458 192.746606,27.1945725 C193.755686,23.5957109 194.796334,19.884103 196.101936,15.2299362 C199.476433,21.3475499 202.457444,26.723293 205.409142,32.1148206 C208.305595,37.4037491 211.17386,42.710717 214.276638,48.4201891" id="Fill-77-Copy-2" fill="#00C0D2" fill-rule="nonzero" transform="translate(177.196638, 34.098028) scale(-1, 1) rotate(5.000000) translate(-177.196638, -34.098028) "></path>
                <circle id="Oval-Copy-7" stroke="#00C0D2" stroke-width="4.32" cx="96.1994319" cy="59.3717234" r="11.719818"></circle>
                <circle id="Oval-Copy-10" stroke="#00C0D2" stroke-width="4.32" cx="119.720973" cy="58.7892039" r="11.719818"></circle>
            </g>
        </g>
    </g>
</svg>