<?xml version="1.0" encoding="UTF-8"?>
<svg width="517px" height="234px" viewBox="0 0 517 234" version="1.1" xmlns="http://www.w3.org/2000/svg" xmlns:xlink="http://www.w3.org/1999/xlink">
    <title>PIP</title>
    <g id="Novo" stroke="none" stroke-width="1" fill="none" fill-rule="evenodd">
        <g id="PIP" fill-rule="nonzero">
            <g id="Group-3-Copy-2">
                <g id="Group-2">
                    <path d="M49.0261508,21.214757 C66.042959,7.07158566 88.7131489,0 117.03672,0 C145.40739,0 167.908276,7.27341564 184.539378,21.8202469 L184.539378,21.8202472 C188.729667,25.485394 189.155379,31.853483 185.490232,36.0437722 C185.360103,36.1925456 185.225627,36.3374594 185.086978,36.4783256 L165.043051,56.8427079 C160.38575,61.5744677 153.097002,62.5087004 147.396878,59.1045 C138.596865,53.849 128.476813,51.22125 117.03672,51.22125 C105.31479,51.22125 94.6421441,53.825612 85.0187826,59.034336 L85.0187842,59.0343389 C79.3202575,62.1187135 72.2634704,61.0171006 67.7761503,56.3426455 L48.1974154,35.947417 C44.3421398,31.9313645 44.4724753,25.5503924 48.4885277,21.6951169 C48.66195,21.5286373 48.8412724,21.3684148 49.0261508,21.214757 Z" id="Rectangle-Copy-15" fill="#00C0D2"></path>
                    <path d="M49.0261508,192.632973 C66.042959,178.489801 88.7131489,171.418216 117.03672,171.418216 C145.40739,171.418216 167.908276,178.691631 184.539378,193.238463 L184.539378,193.238463 C188.729667,196.90361 189.155379,203.271699 185.490232,207.461988 C185.360103,207.610761 185.225627,207.755675 185.086978,207.896541 L165.043051,228.260924 C160.38575,232.992683 153.097002,233.926916 147.396878,230.522716 C138.596865,225.267216 128.476813,222.639466 117.03672,222.639466 C105.31479,222.639466 94.6421441,225.243828 85.0187826,230.452552 L85.0187842,230.452555 C79.3202575,233.536929 72.2634704,232.435316 67.7761503,227.760861 L48.1974154,207.365633 C44.3421398,203.34958 44.4724753,196.968608 48.4885277,193.113332 C48.66195,192.946853 48.8412724,192.78663 49.0261508,192.632973 Z" id="Rectangle-Copy-14" fill="#D8D8D8" transform="translate(116.686145, 201.989108) scale(-1, 1) rotate(-180.000000) translate(-116.686145, -201.989108) "></path>
                    <path d="M134.735259,106.923865 C151.752067,92.7806939 174.422257,85.7091082 202.745829,85.7091082 C231.116499,85.7091082 253.617384,92.9825239 270.248486,107.529355 L270.248486,107.529355 C274.438775,111.194502 274.864487,117.562591 271.19934,121.75288 C271.069212,121.901654 270.934735,122.046568 270.796086,122.187434 L250.752159,142.551816 C246.094858,147.283576 238.806111,148.217809 233.105986,144.813608 C224.305974,139.558108 214.185921,136.930358 202.745829,136.930358 C191.023898,136.930358 180.351252,139.53472 170.727891,144.743444 L170.727892,144.743447 C165.029366,147.827822 157.972579,146.726209 153.485259,142.051754 L133.906524,121.656525 C130.051248,117.640473 130.181584,111.259501 134.197636,107.404225 C134.371058,107.237746 134.550381,107.077523 134.735259,106.923865 Z" id="Rectangle-Copy-13" fill="#D8D8D8" transform="translate(202.395253, 116.280000) rotate(90.000000) translate(-202.395253, -116.280000) "></path>
                    <path d="M-36.6829578,106.923865 C-19.6661496,92.7806943 3.00404035,85.7091086 31.3276118,85.7091086 C59.6982818,85.7091086 82.1991676,92.9825243 98.8302693,107.529355 L98.8302691,107.529355 C103.020559,111.194502 103.44627,117.562591 99.7811234,121.75288 C99.6509948,121.901654 99.5165185,122.046568 99.377869,122.187434 L79.333942,142.551816 C74.6766412,147.283576 67.3878936,148.217809 61.687769,144.813608 C52.8877568,139.558108 42.7677044,136.930358 31.3276118,136.930358 C19.6056815,136.930358 8.93303557,139.53472 -0.690325987,144.743444 L-0.69032442,144.743447 C-6.38885103,147.827822 -13.4456382,146.726209 -17.9329583,142.051754 L-37.5116932,121.656525 C-41.3669688,117.640473 -41.2366333,111.259501 -37.2205809,107.404225 C-37.0471586,107.237746 -36.8678362,107.077523 -36.6829578,106.923865 Z" id="Rectangle-Copy-12" fill="#D8D8D8" transform="translate(30.977036, 116.280000) scale(-1, 1) rotate(90.000000) translate(-30.977036, -116.280000) "></path>
                </g>
                <circle id="Oval" fill="#D8D8D8" cx="117" cy="116.28" r="38.1624187"></circle>
                <path d="M111.39264,118.93184 L111.39264,111.77216 C111.39264,110.230392 110.906885,109.100484 109.93536,108.3824 C108.963835,107.664316 107.928965,107.30528 106.83072,107.30528 C105.732475,107.30528 104.697605,107.664316 103.72608,108.3824 C102.754555,109.100484 102.2688,110.230392 102.2688,111.77216 L102.2688,118.93184 C102.2688,120.473608 102.754555,121.603516 103.72608,122.3216 C104.697605,123.039684 105.732475,123.39872 106.83072,123.39872 C107.928965,123.39872 108.963835,123.039684 109.93536,122.3216 C110.906885,121.603516 111.39264,120.473608 111.39264,118.93184 Z M98.87904,118.93184 L98.87904,111.77216 C98.87904,109.385588 99.6129527,107.484807 101.0808,106.06976 C102.548647,104.654713 104.465268,103.9472 106.83072,103.9472 C109.196172,103.9472 111.112793,104.654713 112.58064,106.06976 C114.048487,107.484807 114.7824,109.385588 114.7824,111.77216 L114.7824,118.93184 C114.7824,121.318412 114.048487,123.219193 112.58064,124.63424 C111.112793,126.049287 109.196172,126.7568 106.83072,126.7568 C104.465268,126.7568 102.548647,126.049287 101.0808,124.63424 C99.6129527,123.219193 98.87904,121.318412 98.87904,118.93184 Z M122.19552,120.00896 L122.19552,126.44 L118.80576,126.44 L118.80576,104.264 L122.19552,104.264 L122.19552,115.09856 L131.4144,104.264 L135.59616,104.264 L127.83456,113.38784 L136.45152,126.44 L132.45984,126.44 L125.58528,116.01728 L122.19552,120.00896 Z" id="OK" fill="#7E7E7E"></path>
                <g id="Group" transform="translate(118.504264, 33.253567) rotate(-45.000000) translate(-118.504264, -33.253567) translate(106.504264, 21.253567)" fill="#FFFFFF">
                    <rect id="Rectangle" x="0" y="0" width="23.0203125" height="3.6" rx="1.8"></rect>
                    <rect id="Rectangle-Copy" transform="translate(21.170039, 11.548828) rotate(-90.000000) translate(-21.170039, -11.548828) " x="9.65988288" y="9.74882794" width="23.0203125" height="3.6" rx="1.8"></rect>
                </g>
                <g id="Group-Copy" transform="translate(118.504264, 199.306433) scale(-1, 1) rotate(135.000000) translate(-118.504264, -199.306433) translate(106.504264, 187.306433)" fill="#7E7E7E">
                    <rect id="Rectangle" x="0" y="0" width="23.0203125" height="3.6" rx="1.8"></rect>
                    <rect id="Rectangle-Copy" transform="translate(21.170039, 11.548828) rotate(-90.000000) translate(-21.170039, -11.548828) " x="9.65988288" y="9.74882794" width="23.0203125" height="3.6" rx="1.8"></rect>
                </g>
                <g id="Group-Copy-3" transform="translate(35.053567, 115.855736) rotate(-135.000000) translate(-35.053567, -115.855736) translate(23.053567, 103.855736)" fill="#7E7E7E">
                    <rect id="Rectangle" x="0" y="0" width="23.0203125" height="3.6" rx="1.8"></rect>
                    <rect id="Rectangle-Copy" transform="translate(21.170039, 11.548828) rotate(-90.000000) translate(-21.170039, -11.548828) " x="9.65988287" y="9.74882794" width="23.0203125" height="3.6" rx="1.8"></rect>
                </g>
                <g id="Group-Copy-2" transform="translate(201.106433, 115.855736) scale(-1, 1) rotate(-135.000000) translate(-201.106433, -115.855736) translate(189.106433, 103.855736)" fill="#7E7E7E">
                    <rect id="Rectangle" x="0" y="0" width="23.0203125" height="3.6" rx="1.8"></rect>
                    <rect id="Rectangle-Copy" transform="translate(21.170039, 11.548828) rotate(-90.000000) translate(-21.170039, -11.548828) " x="9.65988288" y="9.74882794" width="23.0203125" height="3.6" rx="1.8"></rect>
                </g>
            </g>
            <g id="Group-3-Copy-3" transform="translate(282.500000, 0.000000)">
                <g id="Group-2" transform="translate(116.860000, 117.140000) rotate(-90.000000) translate(-116.860000, -117.140000) translate(0.360000, 0.640000)" fill="#D8D8D8">
                    <path d="M49.0261508,21.214757 C66.042959,7.07158566 88.7131489,0 117.03672,0 C145.40739,0 167.908276,7.27341564 184.539378,21.8202469 L184.539378,21.8202472 C188.729667,25.485394 189.155379,31.853483 185.490232,36.0437722 C185.360103,36.1925456 185.225627,36.3374594 185.086978,36.4783256 L165.043051,56.8427079 C160.38575,61.5744677 153.097002,62.5087004 147.396878,59.1045 C138.596865,53.849 128.476813,51.22125 117.03672,51.22125 C105.31479,51.22125 94.6421441,53.825612 85.0187826,59.034336 L85.0187842,59.0343389 C79.3202575,62.1187135 72.2634704,61.0171006 67.7761503,56.3426455 L48.1974154,35.947417 C44.3421398,31.9313645 44.4724753,25.5503924 48.4885277,21.6951169 C48.66195,21.5286373 48.8412724,21.3684148 49.0261508,21.214757 Z" id="Rectangle-Copy-15"></path>
                    <path d="M49.0261508,192.632973 C66.042959,178.489801 88.7131489,171.418216 117.03672,171.418216 C145.40739,171.418216 167.908276,178.691631 184.539378,193.238463 L184.539378,193.238463 C188.729667,196.90361 189.155379,203.271699 185.490232,207.461988 C185.360103,207.610761 185.225627,207.755675 185.086978,207.896541 L165.043051,228.260924 C160.38575,232.992683 153.097002,233.926916 147.396878,230.522716 C138.596865,225.267216 128.476813,222.639466 117.03672,222.639466 C105.31479,222.639466 94.6421441,225.243828 85.0187826,230.452552 L85.0187842,230.452555 C79.3202575,233.536929 72.2634704,232.435316 67.7761503,227.760861 L48.1974154,207.365633 C44.3421398,203.34958 44.4724753,196.968608 48.4885277,193.113332 C48.66195,192.946853 48.8412724,192.78663 49.0261508,192.632973 Z" id="Rectangle-Copy-14" transform="translate(116.686145, 201.989108) scale(-1, 1) rotate(-180.000000) translate(-116.686145, -201.989108) "></path>
                    <path d="M134.735259,106.923865 C151.752067,92.7806939 174.422257,85.7091082 202.745829,85.7091082 C231.116499,85.7091082 253.617384,92.9825239 270.248486,107.529355 L270.248486,107.529355 C274.438775,111.194502 274.864487,117.562591 271.19934,121.75288 C271.069212,121.901654 270.934735,122.046568 270.796086,122.187434 L250.752159,142.551816 C246.094858,147.283576 238.806111,148.217809 233.105986,144.813608 C224.305974,139.558108 214.185921,136.930358 202.745829,136.930358 C191.023898,136.930358 180.351252,139.53472 170.727891,144.743444 L170.727892,144.743447 C165.029366,147.827822 157.972579,146.726209 153.485259,142.051754 L133.906524,121.656525 C130.051248,117.640473 130.181584,111.259501 134.197636,107.404225 C134.371058,107.237746 134.550381,107.077523 134.735259,106.923865 Z" id="Rectangle-Copy-13" transform="translate(202.395253, 116.280000) rotate(90.000000) translate(-202.395253, -116.280000) "></path>
                    <path d="M-36.6829578,106.923865 C-19.6661496,92.7806943 3.00404035,85.7091086 31.3276118,85.7091086 C59.6982818,85.7091086 82.1991676,92.9825243 98.8302693,107.529355 L98.8302691,107.529355 C103.020559,111.194502 103.44627,117.562591 99.7811234,121.75288 C99.6509948,121.901654 99.5165185,122.046568 99.377869,122.187434 L79.333942,142.551816 C74.6766412,147.283576 67.3878936,148.217809 61.687769,144.813608 C52.8877568,139.558108 42.7677044,136.930358 31.3276118,136.930358 C19.6056815,136.930358 8.93303557,139.53472 -0.690325987,144.743444 L-0.69032442,144.743447 C-6.38885103,147.827822 -13.4456382,146.726209 -17.9329583,142.051754 L-37.5116932,121.656525 C-41.3669688,117.640473 -41.2366333,111.259501 -37.2205809,107.404225 C-37.0471586,107.237746 -36.8678362,107.077523 -36.6829578,106.923865 Z" id="Rectangle-Copy-12" transform="translate(30.977036, 116.280000) scale(-1, 1) rotate(90.000000) translate(-30.977036, -116.280000) "></path>
                </g>
                <circle id="Oval" fill="#00C0D2" cx="117" cy="117" r="38.1624187"></circle>
                <path d="M111.39264,119.65184 L111.39264,112.49216 C111.39264,110.950392 110.906885,109.820484 109.93536,109.1024 C108.963835,108.384316 107.928965,108.02528 106.83072,108.02528 C105.732475,108.02528 104.697605,108.384316 103.72608,109.1024 C102.754555,109.820484 102.2688,110.950392 102.2688,112.49216 L102.2688,119.65184 C102.2688,121.193608 102.754555,122.323516 103.72608,123.0416 C104.697605,123.759684 105.732475,124.11872 106.83072,124.11872 C107.928965,124.11872 108.963835,123.759684 109.93536,123.0416 C110.906885,122.323516 111.39264,121.193608 111.39264,119.65184 Z M98.87904,119.65184 L98.87904,112.49216 C98.87904,110.105588 99.6129527,108.204807 101.0808,106.78976 C102.548647,105.374713 104.465268,104.6672 106.83072,104.6672 C109.196172,104.6672 111.112793,105.374713 112.58064,106.78976 C114.048487,108.204807 114.7824,110.105588 114.7824,112.49216 L114.7824,119.65184 C114.7824,122.038412 114.048487,123.939193 112.58064,125.35424 C111.112793,126.769287 109.196172,127.4768 106.83072,127.4768 C104.465268,127.4768 102.548647,126.769287 101.0808,125.35424 C99.6129527,123.939193 98.87904,122.038412 98.87904,119.65184 Z M122.19552,120.72896 L122.19552,127.16 L118.80576,127.16 L118.80576,104.984 L122.19552,104.984 L122.19552,115.81856 L131.4144,104.984 L135.59616,104.984 L127.83456,114.10784 L136.45152,127.16 L132.45984,127.16 L125.58528,116.73728 L122.19552,120.72896 Z" id="OK" fill="#FFFFFF"></path>
                <g id="Group-Copy-3" transform="translate(116.215736, 198.586433) rotate(135.000000) translate(-116.215736, -198.586433) translate(104.215736, 186.586433)" fill="#7E7E7E">
                    <rect id="Rectangle" x="0" y="0" width="23.0203125" height="3.6" rx="1.8"></rect>
                    <rect id="Rectangle-Copy" transform="translate(21.170039, 11.548828) rotate(-90.000000) translate(-21.170039, -11.548828) " x="9.65988287" y="9.74882794" width="23.0203125" height="3.6" rx="1.8"></rect>
                </g>
                <g id="Group-Copy-2" transform="translate(116.215736, 32.533567) scale(-1, 1) rotate(-45.000000) translate(-116.215736, -32.533567) translate(104.215736, 20.533567)" fill="#7E7E7E">
                    <rect id="Rectangle" x="0" y="0" width="23.0203125" height="3.6" rx="1.8"></rect>
                    <rect id="Rectangle-Copy" transform="translate(21.170039, 11.548828) rotate(-90.000000) translate(-21.170039, -11.548828) " x="9.65988288" y="9.74882794" width="23.0203125" height="3.6" rx="1.8"></rect>
                </g>
                <g id="Group-Copy-5" transform="translate(199.666433, 115.984264) rotate(45.000000) translate(-199.666433, -115.984264) translate(187.666433, 103.984264)" fill="#7E7E7E">
                    <rect id="Rectangle" x="0" y="0" width="23.0203125" height="3.6" rx="1.8"></rect>
                    <rect id="Rectangle-Copy" transform="translate(21.170039, 11.548828) rotate(-90.000000) translate(-21.170039, -11.548828) " x="9.65988287" y="9.74882794" width="23.0203125" height="3.6" rx="1.8"></rect>
                </g>
                <g id="Group-Copy-4" transform="translate(33.613567, 115.984264) scale(-1, 1) rotate(45.000000) translate(-33.613567, -115.984264) translate(21.613567, 103.984264)" fill="#7E7E7E">
                    <rect id="Rectangle" x="0" y="0" width="23.0203125" height="3.6" rx="1.8"></rect>
                    <rect id="Rectangle-Copy" transform="translate(21.170039, 11.548828) rotate(-90.000000) translate(-21.170039, -11.548828) " x="9.65988288" y="9.74882794" width="23.0203125" height="3.6" rx="1.8"></rect>
                </g>
            </g>
        </g>
    </g>
</svg>