<?xml version="1.0" encoding="UTF-8"?>
<svg width="591px" height="330px" viewBox="0 0 591 330" version="1.1" xmlns="http://www.w3.org/2000/svg" xmlns:xlink="http://www.w3.org/1999/xlink">
    <title>decodificador_desligar_tomada copy</title>
    <g id="MESH-+-repetidor" stroke="none" stroke-width="1" fill="none" fill-rule="evenodd">
        <g id="Group-3-Copy" transform="translate(21.638000, 26.186885)">
            <g id="Group-2" transform="translate(27.199865, 0.000000)">
                <g id="Group-6" transform="translate(112.322473, 101.009433)">
                    <g id="Group-5" transform="translate(0.000000, 0.212697)">
                        <path d="M12.0338251,148.2808 C10.9123855,148.2808 9.99466161,148.157587 9.99466161,148.006982 L9.99466161,141.225198 C9.99466161,141.074594 10.9123855,140.951381 12.0338251,140.951381 L63.5926987,140.951381 C64.7141382,140.951381 65.6316112,141.074594 65.6316112,141.225198 L65.6316112,148.006982 C65.6316112,148.157587 64.7141382,148.2808 63.5926987,148.2808 L12.0338251,148.2808 Z" id="Fill-48-Copy" fill="#2B2B2B" transform="translate(37.813136, 144.616090) scale(1, -1) translate(-37.813136, -144.616090) "></path>
                        <path d="M201.59924,148.2808 C200.477801,148.2808 199.560077,148.157587 199.560077,148.006982 L199.560077,141.225198 C199.560077,141.074594 200.477801,140.951381 201.59924,140.951381 L253.158114,140.951381 C254.279553,140.951381 255.197026,141.074594 255.197026,141.225198 L255.197026,148.006982 C255.197026,148.157587 254.279553,148.2808 253.158114,148.2808 L201.59924,148.2808 Z" id="Fill-48-Copy-2" fill="#2B2B2B" transform="translate(227.378552, 144.616090) scale(1, -1) translate(-227.378552, -144.616090) "></path>
                        <path d="M9.84171113,144.949246 C4.42925434,144.949246 0,142.512547 0,139.534138 L0,5.41510766 C0,2.4366985 4.42925434,0 9.84171113,0 L258.682742,0 C264.095198,0 268.523242,2.4366985 268.523242,5.41510766 L268.523242,139.534138 C268.523242,142.512547 264.095198,144.949246 258.682742,144.949246 L9.84171113,144.949246 Z" id="Fill-48" fill="#444444"></path>
                    </g>
                    <rect id="Rectangle" fill="#C1C1C1" x="0" y="96.8" width="268.8" height="9.6"></rect>
                    <g id="Group-14" transform="translate(116.800000, 33.812697)">
                        <path d="M0.515764979,29.0263524 C6.03434039,7.37171426 1.83046952,-4.83470599 16.4166714,1.81334316 C24.4170501,5.4622452 33.9853786,14.5023765 34.5135758,23.9050102 C35.2472634,36.8595892 -4.97820947,50.5833102 0.515764979,29.0263524 Z" id="Clip-14" fill="#C1C1C1"></path>
                        <path d="M14.5195028,26.3542534 C13.1338896,26.3542534 12.3669183,24.9310152 12.3669183,23.4875173 C12.3669183,22.0454666 13.1338896,20.6613005 14.5195028,20.6613005 C15.9014982,20.6613005 16.6662988,22.0454666 16.6662988,23.4875173 C16.6662988,24.9310152 15.9014982,26.3542534 14.5195028,26.3542534 Z M14.5195028,18.1143771 C11.4979254,18.1143771 9.48788182,20.5057356 9.48788182,23.5041592 C9.48788182,26.5062005 11.4979254,28.8953884 14.5195028,28.8953884 C17.5338447,28.8953884 19.5417176,26.5062005 19.5417176,23.5041592 C19.5417176,20.5057356 17.5338447,18.1143771 14.5195028,18.1143771 Z M22.7159657,18.1201655 C21.7022612,18.1201655 20.8759582,20.5339544 20.8759582,23.5099476 C20.8759582,26.487388 21.7022612,28.8990062 22.7159657,28.8990062 C23.7311173,28.8990062 24.5538025,26.487388 24.5538025,23.5099476 C24.5538025,20.5339544 23.7311173,18.1201655 22.7159657,18.1201655 Z M22.6928118,16.7837542 C23.6920452,16.7837542 24.497365,15.9740931 24.497365,14.9763068 C24.497365,13.9814148 23.6920452,13.1732008 22.6928118,13.1732008 C21.6979199,13.1732008 20.8911529,13.9814148 20.8911529,14.9763068 C20.8911529,15.9740931 21.6979199,16.7837542 22.6928118,16.7837542 L22.6928118,16.7837542 Z" id="Fill-16" fill="#444444"></path>
                    </g>
                </g>
                <g id="Group-4" transform="translate(414.036207, 75.408503) rotate(-93.000000) translate(-414.036207, -75.408503) translate(346.542659, 12.693109)" stroke="#00C0D2" stroke-linecap="round" stroke-width="8">
                    <g id="icon_blarga_sconexao-copy-3" transform="translate(67.493548, 62.715393) rotate(-219.000000) translate(-67.493548, -62.715393) translate(5.042695, 32.587465)">
                        <g id="offline_icon-copy-3" transform="translate(-0.000000, -0.000000)">
                            <g id="Group-9" transform="translate(-0.000000, -0.000000)">
                                <path d="M124.901706,27.5891492 C109.52919,10.6425568 87.3324501,-4.88498131e-15 62.6500082,-4.88498131e-15 C37.7535623,-4.88498131e-15 15.3861091,10.827905 5.32907052e-15,28.0313637" id="Oval"></path>
                                <path d="M105.602648,44.1345556 C95.0296771,32.4789604 79.7631147,25.1591801 62.7869259,25.1591801 C45.6635486,25.1591801 30.2795721,32.6064399 19.6972523,44.4387037" id="Oval-Copy-2"></path>
                                <path d="M85.9420198,60.0909258 C80.2085879,53.7704163 71.9299498,49.8011001 62.7242283,49.8011001 C53.4386905,49.8011001 45.096382,53.8395449 39.3578803,60.255857" id="Oval-Copy-3"></path>
                            </g>
                        </g>
                    </g>
                </g>
                <g id="Group-4-Copy" transform="translate(79.401098, 75.831996) rotate(-190.000000) translate(-79.401098, -75.831996) translate(10.201098, 11.031996)" stroke="#00C0D2" stroke-linecap="round" stroke-width="8">
                    <g id="icon_blarga_sconexao-copy-4" transform="translate(69.200000, 65.052669) rotate(-219.000000) translate(-69.200000, -65.052669) translate(5.600000, 33.852669)">
                        <g id="offline_icon-copy-4" transform="translate(0.633962, 0.633962)">
                            <g id="Group-9" transform="translate(0.271698, 0.671698)">
                                <path d="M124.901706,27.5891492 C109.52919,10.6425568 87.3324501,-4.88498131e-15 62.6500082,-4.88498131e-15 C37.7535623,-4.88498131e-15 15.3861091,10.827905 5.32907052e-15,28.0313637" id="Oval"></path>
                                <path d="M105.602648,44.1345556 C95.0296771,32.4789604 79.7631147,25.1591801 62.7869259,25.1591801 C45.6635486,25.1591801 30.2795721,32.6064399 19.6972523,44.4387037" id="Oval-Copy-2"></path>
                                <path d="M85.9420198,60.0909258 C80.2085879,53.7704163 71.9299498,49.8011001 62.7242283,49.8011001 C53.4386905,49.8011001 45.096382,53.8395449 39.3578803,60.255857" id="Oval-Copy-3"></path>
                            </g>
                        </g>
                    </g>
                </g>
            </g>
            <path d="M16.77,171.809433 L16.77,167.870433 L5.577,167.870433 L12.87,160.304433 C14.196,158.952433 15.1775,157.665433 15.8145,156.443433 C16.4515,155.221433 16.77,153.791433 16.77,152.153433 C16.77,148.981433 15.808,146.849433 13.884,145.757433 C11.96,144.665433 10.127,144.119433 8.385,144.119433 C6.643,144.119433 4.81,144.684933 2.886,145.815933 C0.962,146.946933 0,149.163433 0,152.465433 L0,152.894433 L4.095,152.894433 L4.095,152.543433 C4.095,151.035433 4.4915,149.910933 5.2845,149.169933 C6.0775,148.428933 7.111,148.058433 8.385,148.058433 C9.659,148.058433 10.6925,148.402933 11.4855,149.091933 C12.2785,149.780933 12.675,150.827433 12.675,152.231433 C12.675,153.245433 12.4215,154.174933 11.9145,155.019933 C11.4075,155.864933 10.699,156.768433 9.789,157.730433 L0,167.870433 L0,171.809433 L16.77,171.809433 Z M26.3876787,171.809433 L26.3876787,166.583433 L21.1616787,166.583433 L21.1616787,171.809433 L26.3876787,171.809433 Z M45.1703574,171.809433 L45.1703574,165.062433 L48.0173574,165.062433 L48.0173574,161.279433 L45.1703574,161.279433 L45.1703574,144.509433 L41.0753574,144.509433 L28.9463574,161.279433 L28.9463574,165.062433 L41.0753574,165.062433 L41.0753574,171.809433 L45.1703574,171.809433 Z M41.0753574,161.279433 L33.7043574,161.279433 L41.0753574,151.100433 L41.0753574,161.279433 Z M68.2277148,172.199433 C71.1397148,172.199433 73.4992148,171.328433 75.3062148,169.586433 C77.1132148,167.844433 78.0167148,165.504433 78.0167148,162.566433 L78.0167148,156.794433 L68.2277148,156.794433 L68.2277148,160.811433 L73.8437148,160.811433 L73.8437148,162.566433 C73.8437148,164.464433 73.2457148,165.855433 72.0497148,166.739433 C70.8537148,167.623433 69.5797148,168.065433 68.2277148,168.065433 C66.8757148,168.065433 65.6017148,167.623433 64.4057148,166.739433 C63.2097148,165.855433 62.6117148,164.464433 62.6117148,162.566433 L62.6117148,153.752433 C62.6117148,151.854433 63.2097148,150.463433 64.4057148,149.579433 C65.6017148,148.695433 66.8757148,148.253433 68.2277148,148.253433 C69.4757148,148.253433 70.6652148,148.623933 71.7962148,149.364933 C72.9272148,150.105933 73.5967148,151.269433 73.8047148,152.855433 L77.9777148,152.855433 C77.7957148,150.177433 76.8142148,148.051933 75.0332148,146.478933 C73.2522148,144.905933 70.9837148,144.119433 68.2277148,144.119433 C65.3157148,144.119433 62.9562148,144.990433 61.1492148,146.732433 C59.3422148,148.474433 58.4387148,150.814433 58.4387148,153.752433 L58.4387148,162.566433 C58.4387148,165.504433 59.3422148,167.844433 61.1492148,169.586433 C62.9562148,171.328433 65.3157148,172.199433 68.2277148,172.199433 Z M86.4643935,171.809433 L86.4643935,160.109433 L97.6963935,160.109433 L97.6963935,171.809433 L101.869393,171.809433 L101.869393,144.509433 L97.6963935,144.509433 L97.6963935,155.975433 L86.4643935,155.975433 L86.4643935,144.509433 L82.2913935,144.509433 L82.2913935,171.809433 L86.4643935,171.809433 Z M120.535072,171.809433 L120.535072,167.948433 L110.629072,167.948433 L120.262072,155.546433 L120.262072,151.685433 L105.793072,151.685433 L105.793072,155.546433 L115.153072,155.546433 L105.520072,167.948433 L105.520072,171.809433 L120.535072,171.809433 Z" id="2.4GHz" fill="#535353" fill-rule="nonzero"></path>
            <path d="M437.282,173.699433 C439.232,173.699433 441.0715,173.101433 442.8005,171.905433 C444.5295,170.709433 445.394,168.668433 445.394,165.782433 L445.394,164.066433 C445.394,160.764433 444.4645,158.547933 442.6055,157.416933 C440.7465,156.285933 439.024,155.720433 437.438,155.720433 C436.632,155.720433 435.8065,155.850433 434.9615,156.110433 C434.1165,156.370433 433.486,156.708433 433.07,157.124433 L433.07,149.948433 L444.341,149.948433 L444.341,146.009433 L428.975,146.009433 L428.975,162.077433 L433.07,162.077433 C433.382,161.271433 433.8825,160.666933 434.5715,160.263933 C435.2605,159.860933 436.073,159.659433 437.009,159.659433 C438.283,159.659433 439.3165,160.029933 440.1095,160.770933 C440.9025,161.511933 441.299,162.636433 441.299,164.144433 L441.299,165.782433 C441.299,167.108433 440.9155,168.102933 440.1485,168.765933 C439.3815,169.428933 438.387,169.760433 437.165,169.760433 C435.943,169.760433 434.903,169.409433 434.045,168.707433 C433.187,168.005433 432.745,166.952433 432.719,165.548433 L432.719,165.509433 L428.624,165.509433 L428.624,165.548433 C428.676,168.772433 429.677,170.936933 431.627,172.041933 C433.577,173.146933 435.462,173.699433 437.282,173.699433 Z M454.660679,173.309433 L454.660679,168.083433 L449.434679,168.083433 L449.434679,173.309433 L454.660679,173.309433 Z M467.866357,173.699433 C469.608357,173.699433 471.441357,173.133933 473.365357,172.002933 C475.289357,170.871933 476.251357,168.655433 476.251357,165.353433 L476.251357,153.965433 C476.251357,150.663433 475.289357,148.446933 473.365357,147.315933 C471.441357,146.184933 469.608357,145.619433 467.866357,145.619433 C466.124357,145.619433 464.291357,146.184933 462.367357,147.315933 C460.443357,148.446933 459.481357,150.663433 459.481357,153.965433 L459.481357,165.353433 C459.481357,168.655433 460.443357,170.871933 462.367357,172.002933 C464.291357,173.133933 466.124357,173.699433 467.866357,173.699433 Z M467.866357,169.760433 C466.592357,169.760433 465.558857,169.389933 464.765857,168.648933 C463.972857,167.907933 463.576357,166.783433 463.576357,165.275433 L463.576357,154.043433 C463.576357,152.535433 463.972857,151.410933 464.765857,150.669933 C465.558857,149.928933 466.592357,149.558433 467.866357,149.558433 C469.140357,149.558433 470.173857,149.928933 470.966857,150.669933 C471.759857,151.410933 472.156357,152.535433 472.156357,154.043433 L472.156357,165.275433 C472.156357,166.783433 471.759857,167.907933 470.966857,168.648933 C470.173857,169.389933 469.140357,169.760433 467.866357,169.760433 Z M497.865715,173.699433 C500.777715,173.699433 503.137215,172.828433 504.944215,171.086433 C506.751215,169.344433 507.654715,167.004433 507.654715,164.066433 L507.654715,158.294433 L497.865715,158.294433 L497.865715,162.311433 L503.481715,162.311433 L503.481715,164.066433 C503.481715,165.964433 502.883715,167.355433 501.687715,168.239433 C500.491715,169.123433 499.217715,169.565433 497.865715,169.565433 C496.513715,169.565433 495.239715,169.123433 494.043715,168.239433 C492.847715,167.355433 492.249715,165.964433 492.249715,164.066433 L492.249715,155.252433 C492.249715,153.354433 492.847715,151.963433 494.043715,151.079433 C495.239715,150.195433 496.513715,149.753433 497.865715,149.753433 C499.113715,149.753433 500.303215,150.123933 501.434215,150.864933 C502.565215,151.605933 503.234715,152.769433 503.442715,154.355433 L507.615715,154.355433 C507.433715,151.677433 506.452215,149.551933 504.671215,147.978933 C502.890215,146.405933 500.621715,145.619433 497.865715,145.619433 C494.953715,145.619433 492.594215,146.490433 490.787215,148.232433 C488.980215,149.974433 488.076715,152.314433 488.076715,155.252433 L488.076715,164.066433 C488.076715,167.004433 488.980215,169.344433 490.787215,171.086433 C492.594215,172.828433 494.953715,173.699433 497.865715,173.699433 Z M516.102394,173.309433 L516.102394,161.609433 L527.334394,161.609433 L527.334394,173.309433 L531.507394,173.309433 L531.507394,146.009433 L527.334394,146.009433 L527.334394,157.475433 L516.102394,157.475433 L516.102394,146.009433 L511.929394,146.009433 L511.929394,173.309433 L516.102394,173.309433 Z M550.173072,173.309433 L550.173072,169.448433 L540.267072,169.448433 L549.900072,157.046433 L549.900072,153.185433 L535.431072,153.185433 L535.431072,157.046433 L544.791072,157.046433 L535.158072,169.448433 L535.158072,173.309433 L550.173072,173.309433 Z" id="5.0GHz" fill="#535353" fill-rule="nonzero"></path>
        </g>
    </g>
</svg>