<?xml version="1.0" encoding="UTF-8"?>
<svg width="591px" height="330px" viewBox="0 0 591 330" version="1.1" xmlns="http://www.w3.org/2000/svg" xmlns:xlink="http://www.w3.org/1999/xlink">
    <title>decodificador_desligar_tomada copy 2</title>
    <defs>
        <path d="M166.031985,7.9412667 C161.328454,15.4673796 18.3439063,63.44316 1.88154911,78.965043 L1.88154911,78.965043 C-14.5808081,94.4857664 81.8415698,119.883208 102.065824,122.236133 L102.065824,122.236133 C122.290078,124.587899 154.961989,82.5993786 189.079981,55.9170472 L189.079981,55.9170472 C225.766592,27.2262061 242.228949,26.7553892 251.63601,21.5822013 L251.63601,21.5822013 C261.043072,16.4078538 258.220489,11.2335062 258.220489,11.2335062 L258.220489,11.2335062 C258.220489,11.2335062 257.280015,16.4078538 250.695536,17.348328 L250.695536,17.348328 C244.109897,18.2888022 234.702836,17.8179852 229.529648,18.7596191 L229.529648,18.7596191 C224.35646,19.7000933 202.719756,32.399394 178.731286,46.9796432 L178.731286,46.9796432 C154.743975,61.561052 136.40067,58.2688125 136.40067,58.2688125 L136.40067,58.2688125 C136.40067,58.2688125 140.535973,41.9606884 153.803501,29.5779714 L153.803501,29.5779714 C167.914093,16.4078538 186.257398,9.82337474 190.490112,7.0007925 L190.490112,7.0007925 C194.723986,4.17821027 196.604934,2.7680788 193.004228,0.372246877 L193.004228,0.372246877 C192.618066,0.114805111 192.004612,0 191.216052,0 L191.216052,0 C184.655925,0 166.031985,7.9412667 166.031985,7.9412667" id="path-1"></path>
        <linearGradient x1="42.9734638%" y1="56.1760976%" x2="50%" y2="37.5360305%" id="linearGradient-3">
            <stop stop-color="#FFFFFF" offset="0%"></stop>
            <stop stop-color="#000000" offset="100%"></stop>
        </linearGradient>
        <linearGradient x1="49.281254%" y1="3.45065584%" x2="48.2279091%" y2="9.73998301%" id="linearGradient-4">
            <stop stop-color="#7F7F7F" offset="0%"></stop>
            <stop stop-color="#454545" offset="100%"></stop>
        </linearGradient>
    </defs>
    <g id="MESH-+-repetidor" stroke="none" stroke-width="1" fill="none" fill-rule="evenodd">
        <g id="Group-2" transform="translate(268.595899, 71.206311)" stroke="#00C0D2" stroke-linecap="round" stroke-width="5">
            <path d="M92.8862366,94.6060557 C110.126874,93.929156 125.520081,89.789967 136.528628,83.5147672 C147.299262,77.3751845 153.872708,69.1909186 153.872708,60.204104 C153.872708,41.1502802 124.323502,25.704104 87.8727083,25.704104 C69.7378606,25.704104 53.3113078,29.5273728 41.3820164,35.7160414" id="Oval" opacity="0.699999988" transform="translate(97.627362, 60.155080) scale(-1, -1) translate(-97.627362, -60.155080) "></path>
            <path d="M92.4125613,107.580195 C115.631332,106.542541 136.343215,100.913937 151.211481,92.4385821 C165.953467,84.0352107 174.950676,72.8332399 174.950676,60.5328044 C174.950676,34.453449 134.506077,13.3119542 84.6151361,13.3119542 C59.157301,13.3119542 36.1590588,18.8166743 19.7388859,27.6732745" id="Oval-Copy-2" opacity="0.5" transform="translate(97.344781, 60.446075) scale(-1, -1) translate(-97.344781, -60.446075) "></path>
            <path d="M91.1196173,121.0042 C119.900126,119.520486 145.548936,112.345209 164.038094,101.620849 C182.644369,90.8285564 194,76.4420747 194,60.6448553 C194,27.1516266 142.953733,-2.84217094e-14 79.9849708,-2.84217094e-14 C48.8227494,-2.84217094e-14 20.580466,6.64970476 0,17.4268978" id="Oval-Copy-3" opacity="0.300000012" transform="translate(97.000000, 60.502100) scale(-1, -1) translate(-97.000000, -60.502100) "></path>
            <path d="M96.3661549,80.197245 C108.103247,80.197245 118.666196,77.6862597 126.019308,73.6810976 C132.583428,70.1056913 136.589588,65.3395569 136.589588,60.1060557 C136.589588,49.0099982 118.580943,40.0148664 96.3661549,40.0148664 C82.8450099,40.0148664 70.8820776,43.3472125 63.5895875,48.4573784" id="Oval-Copy" opacity="0.900000036" transform="translate(100.089588, 60.106056) scale(-1, -1) translate(-100.089588, -60.106056) "></path>
        </g>
        <g id="Group-14" transform="translate(-2.754076, 9.306511)">
            <g id="Group-97" opacity="0.15" style="mix-blend-mode: multiply;" transform="translate(0.000000, 234.669172)">
                <mask id="mask-2" fill="white">
                    <use xlink:href="#path-1"></use>
                </mask>
                <g id="Clip-96"></g>
                <path d="M33.0007908,62.9190865 L118.543975,112.524242 C138.768229,114.876007 154.961989,82.5993786 189.079981,55.9170472 C225.766592,27.2262061 242.228949,26.7553892 251.63601,21.5822013 C261.043072,16.4078538 258.220489,11.2335062 258.220489,11.2335062 C258.220489,11.2335062 257.280015,16.4078538 250.695536,17.348328 C244.109897,18.2888022 234.702836,17.8179852 229.529648,18.7596191 C224.35646,19.7000933 202.719756,32.399394 178.731286,46.9796432 C154.743975,61.561052 136.40067,58.2688125 136.40067,58.2688125 C136.40067,58.2688125 140.535973,41.9606884 153.803501,29.5779714 C167.914093,16.4078538 186.257398,9.82337474 190.490112,7.0007925 C194.723986,4.17821027 196.604934,2.7680788 193.004228,0.372246877 C192.618066,0.114805111 192.004612,0 191.216052,0 C184.655925,0.00115964759 166.031985,7.9412667 166.031985,7.9412667 C161.328454,15.4673796 49.463148,47.3972035 33.0007908,62.9190865 Z" id="Fill-95" fill="url(#linearGradient-3)" style="mix-blend-mode: screen;" mask="url(#mask-2)"></path>
            </g>
            <path d="M203.478513,49.515199 C203.478513,49.515199 213.950131,61.9825703 218.223432,70.0780701 C222.495574,78.1724103 221.781231,78.1932839 224.248961,73.4538042 C226.717851,68.7143245 226.163539,64.6497597 228.742596,61.7402039 C231.320492,58.8294885 235.559004,49.7285742 235.860512,47.3141879 C236.16318,44.8998016 238.583365,40.4769057 242.378892,38.0752755 C246.175578,35.6736454 249.82035,32.9902209 248.687374,38.3222805 C247.416401,45.8333179 242.326707,49.0745329 241.571777,53.6215111 C241.571777,53.6215111 240.697403,55.1070197 240.355306,59.0683759 C240.012051,63.0308917 238.717884,89.4430252 228.599959,92.1136936 C218.482034,94.7855217 201.068765,73.0398101 200.106258,70.4329223 C199.142591,67.8271941 203.478513,49.515199 203.478513,49.515199" id="Fill-44" fill="#FF944D"></path>
            <polygon id="Fill-46" fill="#EA298C" points="242.198798 25.1149381 251.148958 30.1976735 237.097509 53.0241767 228.670349 47.2386948"></polygon>
            <polygon id="Fill-48" fill="#9D2EFF" points="241.176685 23.1224316 250.583746 28.5913297 235.514126 53.677986 226.666015 47.435603"></polygon>
            <polygon id="Fill-50" fill="#00CEFF" points="240.766749 25.9433903 247.809289 30.0369463 236.528238 48.8151198 229.90433 44.1428996"></polygon>
            <path d="M195.11699,33.8888318 C195.11699,33.8888318 193.870369,37.7794494 199.917931,42.5351642 C205.964334,47.290879 216.083419,51.1756984 216.083419,51.1756984 C216.083419,51.1756984 211.719665,45.5293743 213.061377,41.7477635 C214.40193,37.9673124 219.760661,39.7230188 221.648567,33.776346 C223.536474,27.8296731 222.854601,7.94867482 209.311077,4.91735602 C203.215969,5.34526598 194.512814,12.1779096 196.125884,22.3723716 C197.740113,32.5668335 198.173821,33.7693881 195.11699,33.8888318" id="Fill-52" fill="#FF944D"></path>
            <path d="M197.340498,32.4154995 C197.340498,32.4154995 200.731308,28.0424685 203.010015,27.8093793 C205.288723,27.5774498 206.12135,26.3424251 204.141832,23.8584599 C202.162313,21.3744948 202.097373,16.9689936 204.584817,16.9075323 C207.072261,16.846071 208.141456,19.8054916 207.943156,25.3891948 C208.132179,25.3694808 210.906056,26.2380568 211.224959,23.7123443 C211.542702,21.1854722 209.508681,20.0501773 210.834158,17.997601 C212.159635,15.9438651 211.873202,15.0138278 210.199831,13.6500822 C208.526459,12.2863366 203.087712,7.85184425 206.920347,5.9279889 C210.751823,4.0029739 214.917277,7.70224971 214.917277,7.70224971 C214.917277,7.70224971 216.730966,2.43397071 213.123302,2.80157899 C209.516798,3.16918728 206.498235,3.66783574 207.27288,1.86342409 C208.048684,0.0578527936 204.83646,-1.34184185 202.507888,2.15681493 C200.178156,5.65431207 188.101586,5.73432775 197.340498,32.4154995" id="Fill-54" fill="#7824CD"></path>
            <path d="M222.253671,28.6806225 C221.416406,28.7652768 217.431857,29.0192396 215.370003,26.3879992 C215.078932,26.0145927 215.143872,25.4753566 215.517279,25.1831254 C215.888366,24.8885749 216.429921,24.9558345 216.722152,25.329241 C218.383927,27.4490768 222.377754,26.951588 222.417182,26.9353529 C222.540104,27.3690611 222.513433,28.3083756 222.403266,28.6643875 C222.398627,28.6806225 222.334847,28.672505 222.253671,28.6806225" id="Fill-56" fill="#FFFFFF"></path>
            <g id="Group-62" transform="translate(170.349701, 33.790378)">
                <path d="M85.2455784,96.8100481 C93.8002987,104.985564 95.5409297,107.834818 94.4195505,109.594003 C90.6866449,115.430509 83.0260129,110.846422 73.9320565,100.65428 C66.773552,92.6364764 57.1136875,71.120375 52.8786545,62.5389828 L52.9667877,62.4960758 C52.9667877,62.4960758 58.9053431,54.019052 67.9911819,57.3518791 C73.3533924,73.4953332 79.8775697,91.6820864 85.2455784,96.8100481" id="Fill-58" fill="#FF944D"></path>
                <path d="M67.9912979,57.3515312 C58.905459,54.0187041 52.9657441,62.4968876 52.9657441,62.4968876 L52.8787705,62.5397946 C51.731879,60.2042643 50.981587,58.8300819 50.7844469,58.9309713 C49.866006,59.4052671 57.4025557,110.810126 57.4025557,110.810126 L0,87.6971894 C0,87.6971894 1.34403156,52.4102729 1.44144196,43.423004 C1.61191015,26.3379161 9.44764892,1.56668389 24.8257356,0 C25.0588248,0.35601181 22.2988635,7.16314317 43.7303106,16.0982279 C43.7303106,16.0982279 54.9104731,22.2559566 59.0805658,31.2235114 C60.8351126,34.9935257 64.1169153,45.6379309 67.9912979,57.3515312" id="Fill-60" fill="#58585B"></path>
            </g>
            <g id="Group-69" transform="translate(164.541978, 121.479334)">
                <path d="M76.514683,119.403114 C81.6901902,126.495519 95.9782082,121.333927 95.7404804,125.893662 C95.4795597,130.903339 79.7257472,134.429828 72.5521672,135.53961 C65.3797469,136.650553 67.8799471,134.864695 66.6541996,126.553501 C66.547512,125.850755 66.3677666,124.983338 66.1161231,123.983722 C67.3615846,124.006915 75.6866947,123.929219 76.2920307,119.48313 L76.514683,119.403114 Z" id="Fill-63" fill="#7A24CD"></path>
                <path d="M76.514683,119.403114 L76.2920307,119.48313 C75.6866947,123.929219 67.3615846,124.006915 66.1161231,123.983722 C63.4570512,113.240747 53.2602699,86.9202255 50.0306514,72.6090146 C46.2142511,55.6990334 39.0197975,32.297345 31.6548756,31.5169022 C24.279517,30.737619 16.0436998,92.9550316 14.7321384,102.676357 C14.5222421,104.239562 14.6393665,105.494301 15.0081345,106.51595 L14.6961893,106.61684 C13.3243262,110.439038 2.8225576,108.468797 1.71857309,108.248464 C2.76805416,87.5858632 5.80633085,0 5.80633085,0 L63.2019287,23.0317608 C63.3283303,28.0043297 71.8528997,106.067167 75.2529865,116.84957 C75.5614527,117.842229 75.9928416,118.685292 76.514683,119.403114" id="Fill-65" fill="#CB5205"></path>
                <path d="M28.461786,113.179054 C32.2271617,116.247481 15.5270768,121.781319 6.10378046,123.511514 C-3.30791939,125.230111 0.784476957,120.208837 1.4872234,112.082027 C1.54636542,111.418709 1.61942322,110.100189 1.71799327,108.248232 C2.82313742,108.468565 13.3237464,110.438806 14.6956095,106.616608 L15.0075547,106.515719 C16.8583522,111.804871 25.2982674,110.599997 28.461786,113.179054" id="Fill-67" fill="#7A24CD"></path>
            </g>
            <path d="M175.370627,123.137514 L176.415469,131.954314 C176.415469,131.954314 176.025828,137.446405 179.880496,138.839142 C183.735165,140.230719 187.492423,140.482363 188.476964,135.22684 C188.354041,133.800473 188.198649,128.642361 188.198649,128.642361" id="Stroke-70" stroke="#B41F73" stroke-width="0.812"></path>
        </g>
        <g id="Group-3" transform="translate(386.595899, 44.306511)">
            <path d="M10.9261019,-1.10134124e-13 L79.1264667,47.169324 L67.9923837,51.5196587 C65.8186364,52.3689903 63.3645804,52.0791424 61.4485142,50.7467641 L0.448653614,8.32918389 L0.448653614,8.32918389 L10.9261019,-1.10134124e-13 Z" id="Rectangle-Copy-2" fill="#7F7F7F" transform="translate(39.787560, 26.030203) scale(-1, -1) translate(-39.787560, -26.030203) "></path>
            <path d="M69.2654005,44.0206854 L80.0633209,52.7581592 L80.0633209,52.7581592 L76.6062764,118.086812 L66.0073259,110.507944 L66.0073259,45.5754356 C66.0073259,44.4708661 66.9027564,43.5754356 68.0073259,43.5754356 C68.465293,43.5754356 68.9093882,43.7326069 69.2654005,44.0206854 Z" id="Rectangle-Copy" fill="url(#linearGradient-4)" transform="translate(73.035323, 80.755470) scale(-1, 1) translate(-73.035323, -80.755470) "></path>
            <path d="M3.1394631,5.07925565 L66.4524912,48.9708048 C68.3389582,50.2785919 69.4643704,52.4281765 69.4643704,54.7236208 L69.4643704,118.086812 L69.4643704,118.086812 L4.19220214e-13,69.9308649 L4.19220214e-13,6.72291737 C4.19482594e-13,5.61834787 0.8954305,4.72291737 2,4.72291737 C2.40724178,4.72291737 2.80477924,4.84723716 3.1394631,5.07925565 Z" id="Rectangle" fill="#5E5E5E"></path>
            <polygon id="Rectangle" fill="#D8D8D8" points="0.448653614 48.083859 69.4643704 96.6601306 69.4643704 100.38391 0.448653614 51.8076385"></polygon>
        </g>
        <path d="M322.374846,297.094511 C324.874846,297.094511 327.233179,296.327844 329.449846,294.794511 C331.666513,293.261177 332.774846,290.644511 332.774846,286.944511 L332.774846,284.744511 C332.774846,280.511177 331.583179,277.669511 329.199846,276.219511 C326.816513,274.769511 324.608179,274.044511 322.574846,274.044511 C321.541513,274.044511 320.483179,274.211177 319.399846,274.544511 C318.316513,274.877844 317.508179,275.311177 316.974846,275.844511 L316.974846,266.644511 L331.424846,266.644511 L331.424846,261.594511 L311.724846,261.594511 L311.724846,282.194511 L316.974846,282.194511 C317.374846,281.161177 318.016513,280.386177 318.899846,279.869511 C319.783179,279.352844 320.824846,279.094511 322.024846,279.094511 C323.658179,279.094511 324.983179,279.569511 325.999846,280.519511 C327.016513,281.469511 327.524846,282.911177 327.524846,284.844511 L327.524846,286.944511 C327.524846,288.644511 327.033179,289.919511 326.049846,290.769511 C325.066513,291.619511 323.791513,292.044511 322.224846,292.044511 C320.658179,292.044511 319.324846,291.594511 318.224846,290.694511 C317.124846,289.794511 316.558179,288.444511 316.524846,286.644511 L316.524846,286.594511 L311.274846,286.594511 L311.274846,286.644511 C311.341513,290.777844 312.624846,293.552844 315.124846,294.969511 C317.624846,296.386177 320.041513,297.094511 322.374846,297.094511 Z M344.338004,296.594511 L344.338004,289.894511 L337.638004,289.894511 L337.638004,296.594511 L344.338004,296.594511 Z M360.951162,297.094511 C363.184495,297.094511 365.534495,296.369511 368.001162,294.919511 C370.467829,293.469511 371.701162,290.627844 371.701162,286.394511 L371.701162,271.794511 C371.701162,267.561177 370.467829,264.719511 368.001162,263.269511 C365.534495,261.819511 363.184495,261.094511 360.951162,261.094511 C358.717829,261.094511 356.367829,261.819511 353.901162,263.269511 C351.434495,264.719511 350.201162,267.561177 350.201162,271.794511 L350.201162,286.394511 C350.201162,290.627844 351.434495,293.469511 353.901162,294.919511 C356.367829,296.369511 358.717829,297.094511 360.951162,297.094511 Z M360.951162,292.044511 C359.317829,292.044511 357.992829,291.569511 356.976162,290.619511 C355.959495,289.669511 355.451162,288.227844 355.451162,286.294511 L355.451162,271.894511 C355.451162,269.961177 355.959495,268.519511 356.976162,267.569511 C357.992829,266.619511 359.317829,266.144511 360.951162,266.144511 C362.584495,266.144511 363.909495,266.619511 364.926162,267.569511 C365.942829,268.519511 366.451162,269.961177 366.451162,271.894511 L366.451162,286.294511 C366.451162,288.227844 365.942829,289.669511 364.926162,290.619511 C363.909495,291.569511 362.584495,292.044511 360.951162,292.044511 Z M398.777478,297.094511 C402.510811,297.094511 405.535811,295.977844 407.852478,293.744511 C410.169144,291.511177 411.327478,288.511177 411.327478,284.744511 L411.327478,277.344511 L398.777478,277.344511 L398.777478,282.494511 L405.977478,282.494511 L405.977478,284.744511 C405.977478,287.177844 405.210811,288.961177 403.677478,290.094511 C402.144144,291.227844 400.510811,291.794511 398.777478,291.794511 C397.044144,291.794511 395.410811,291.227844 393.877478,290.094511 C392.344144,288.961177 391.577478,287.177844 391.577478,284.744511 L391.577478,273.444511 C391.577478,271.011177 392.344144,269.227844 393.877478,268.094511 C395.410811,266.961177 397.044144,266.394511 398.777478,266.394511 C400.377478,266.394511 401.902478,266.869511 403.352478,267.819511 C404.802478,268.769511 405.660811,270.261177 405.927478,272.294511 L411.277478,272.294511 C411.044144,268.861177 409.785811,266.136177 407.502478,264.119511 C405.219144,262.102844 402.310811,261.094511 398.777478,261.094511 C395.044144,261.094511 392.019144,262.211177 389.702478,264.444511 C387.385811,266.677844 386.227478,269.677844 386.227478,273.444511 L386.227478,284.744511 C386.227478,288.511177 387.385811,291.511177 389.702478,293.744511 C392.019144,295.977844 395.044144,297.094511 398.777478,297.094511 Z M421.840636,296.594511 L421.840636,281.594511 L436.240636,281.594511 L436.240636,296.594511 L441.590636,296.594511 L441.590636,261.594511 L436.240636,261.594511 L436.240636,276.294511 L421.840636,276.294511 L421.840636,261.594511 L416.490636,261.594511 L416.490636,296.594511 L421.840636,296.594511 Z M465.203793,296.594511 L465.203793,291.644511 L452.503793,291.644511 L464.853793,275.744511 L464.853793,270.794511 L446.303793,270.794511 L446.303793,275.744511 L458.303793,275.744511 L445.953793,291.644511 L445.953793,296.594511 L465.203793,296.594511 Z" id="5.0GHz" fill="#00C0D2" fill-rule="nonzero"></path>
        <path d="M325.821425,244.306511 L325.821425,234.436511 C325.821425,233.196511 326.191425,232.241511 326.931425,231.571511 C327.671425,230.901511 328.501425,230.566511 329.421425,230.566511 C330.301425,230.566511 331.116425,230.896511 331.866425,231.556511 C332.616425,232.216511 332.991425,233.116511 332.991425,234.256511 L332.991425,244.306511 L335.241425,244.306511 L335.241425,234.436511 C335.241425,233.196511 335.611425,232.241511 336.351425,231.571511 C337.091425,230.901511 337.921425,230.566511 338.841425,230.566511 C339.721425,230.566511 340.536425,230.896511 341.286425,231.556511 C342.036425,232.216511 342.411425,233.116511 342.411425,234.256511 L342.411425,244.306511 L344.661425,244.306511 L344.661425,234.466511 C344.661425,232.286511 344.031425,230.731511 342.771425,229.801511 C341.511425,228.871511 340.191425,228.406511 338.811425,228.406511 C337.951425,228.406511 337.081425,228.596511 336.201425,228.976511 C335.321425,229.356511 334.621425,229.976511 334.101425,230.836511 C333.581425,229.976511 332.886425,229.356511 332.016425,228.976511 C331.146425,228.596511 330.281425,228.406511 329.421425,228.406511 C328.861425,228.406511 328.216425,228.566511 327.486425,228.886511 C326.756425,229.206511 326.201425,229.676511 325.821425,230.296511 L325.821425,228.826511 L323.571425,228.826511 L323.571425,244.306511 L325.821425,244.306511 Z M352.79932,244.606511 C353.83932,244.606511 354.77932,244.451511 355.61932,244.141511 C356.45932,243.831511 357.12932,243.356511 357.62932,242.716511 L357.62932,244.306511 L359.87932,244.306511 L359.87932,234.466511 C359.87932,232.206511 359.22932,230.631511 357.92932,229.741511 C356.62932,228.851511 355.25932,228.406511 353.81932,228.406511 C352.47932,228.406511 351.18932,228.786511 349.94932,229.546511 C348.70932,230.306511 347.98932,231.646511 347.78932,233.566511 L350.09932,233.566511 C350.27932,232.566511 350.72432,231.816511 351.43432,231.316511 C352.14432,230.816511 352.93932,230.566511 353.81932,230.566511 C354.81932,230.566511 355.70432,230.891511 356.47432,231.541511 C357.24432,232.191511 357.62932,233.156511 357.62932,234.436511 L357.62932,234.706511 C356.32932,234.786511 355.12432,234.886511 354.01432,235.006511 C352.90432,235.126511 351.90932,235.316511 351.02932,235.576511 C349.68932,235.956511 348.79432,236.596511 348.34432,237.496511 C347.89432,238.396511 347.66932,239.236511 347.66932,240.016511 C347.66932,241.596511 348.19432,242.756511 349.24432,243.496511 C350.29432,244.236511 351.47932,244.606511 352.79932,244.606511 Z M353.27932,242.446511 C352.13932,242.446511 351.29432,242.206511 350.74432,241.726511 C350.19432,241.246511 349.91932,240.656511 349.91932,239.956511 C349.91932,239.516511 350.00432,239.116511 350.17432,238.756511 C350.34432,238.396511 350.70932,238.056511 351.26932,237.736511 C351.78932,237.456511 352.55932,237.246511 353.57932,237.106511 C354.59932,236.966511 355.94932,236.836511 357.62932,236.716511 L357.62932,238.726511 C357.62932,239.926511 357.20432,240.846511 356.35432,241.486511 C355.50432,242.126511 354.47932,242.446511 353.27932,242.446511 Z M365.827215,226.216511 L365.827215,223.306511 L363.577215,223.306511 L363.577215,226.216511 L365.827215,226.216511 Z M365.827215,244.306511 L365.827215,228.826511 L363.577215,228.826511 L363.577215,244.306511 L365.827215,244.306511 Z M374.865109,244.606511 C376.425109,244.606511 377.725109,244.266511 378.765109,243.586511 C379.805109,242.906511 380.325109,241.806511 380.325109,240.286511 C380.325109,238.866511 379.955109,237.816511 379.215109,237.136511 C378.475109,236.456511 377.525109,235.976511 376.365109,235.696511 L373.455109,234.976511 C372.835109,234.836511 372.325109,234.601511 371.925109,234.271511 C371.525109,233.941511 371.325109,233.456511 371.325109,232.816511 C371.325109,232.116511 371.600109,231.566511 372.150109,231.166511 C372.700109,230.766511 373.395109,230.566511 374.235109,230.566511 C375.195109,230.566511 375.965109,230.806511 376.545109,231.286511 C377.125109,231.766511 377.485109,232.456511 377.625109,233.356511 L379.935109,233.356511 C379.815109,231.636511 379.230109,230.381511 378.180109,229.591511 C377.130109,228.801511 375.825109,228.406511 374.265109,228.406511 C372.845109,228.406511 371.620109,228.801511 370.590109,229.591511 C369.560109,230.381511 369.045109,231.486511 369.045109,232.906511 C369.045109,234.286511 369.470109,235.296511 370.320109,235.936511 C371.170109,236.576511 372.015109,236.996511 372.855109,237.196511 L375.885109,237.946511 C376.745109,238.146511 377.320109,238.451511 377.610109,238.861511 C377.900109,239.271511 378.045109,239.726511 378.045109,240.226511 C378.025109,240.906511 377.760109,241.446511 377.250109,241.846511 C376.740109,242.246511 375.945109,242.446511 374.865109,242.446511 C373.845109,242.446511 372.965109,242.201511 372.225109,241.711511 C371.485109,241.221511 371.065109,240.436511 370.965109,239.356511 L368.655109,239.356511 C368.775109,241.216511 369.435109,242.556511 370.635109,243.376511 C371.835109,244.196511 373.245109,244.606511 374.865109,244.606511 Z M391.680899,249.826511 L391.680899,242.716511 C392.060899,243.336511 392.615899,243.806511 393.345899,244.126511 C394.075899,244.446511 394.790899,244.606511 395.490899,244.606511 C396.930899,244.606511 398.300899,244.161511 399.600899,243.271511 C400.900899,242.381511 401.550899,240.806511 401.550899,238.546511 L401.550899,234.466511 C401.550899,232.206511 400.900899,230.631511 399.600899,229.741511 C398.300899,228.851511 396.930899,228.406511 395.490899,228.406511 C394.790899,228.406511 394.075899,228.566511 393.345899,228.886511 C392.615899,229.206511 392.060899,229.676511 391.680899,230.296511 L391.680899,228.826511 L389.430899,228.826511 L389.430899,249.826511 L391.680899,249.826511 Z M395.490899,242.446511 C394.490899,242.446511 393.605899,242.121511 392.835899,241.471511 C392.065899,240.821511 391.680899,239.856511 391.680899,238.576511 L391.680899,234.436511 C391.680899,233.156511 392.065899,232.191511 392.835899,231.541511 C393.605899,230.891511 394.490899,230.566511 395.490899,230.566511 C396.490899,230.566511 397.375899,230.891511 398.145899,231.541511 C398.915899,232.191511 399.300899,233.156511 399.300899,234.436511 L399.300899,238.576511 C399.300899,239.856511 398.915899,240.821511 398.145899,241.471511 C397.375899,242.121511 396.490899,242.446511 395.490899,242.446511 Z M410.678793,244.606511 C412.018793,244.606511 413.308793,244.226511 414.548793,243.466511 C415.788793,242.706511 416.508793,241.366511 416.708793,239.446511 L414.398793,239.446511 C414.218793,240.446511 413.773793,241.196511 413.063793,241.696511 C412.353793,242.196511 411.558793,242.446511 410.678793,242.446511 C409.678793,242.446511 408.793793,242.121511 408.023793,241.471511 C407.253793,240.821511 406.868793,239.856511 406.868793,238.576511 L406.868793,237.076511 L416.738793,237.076511 L416.738793,234.466511 C416.738793,232.206511 416.088793,230.631511 414.788793,229.741511 C413.488793,228.851511 412.118793,228.406511 410.678793,228.406511 C409.238793,228.406511 407.868793,228.851511 406.568793,229.741511 C405.268793,230.631511 404.618793,232.206511 404.618793,234.466511 L404.618793,238.546511 C404.618793,240.806511 405.268793,242.381511 406.568793,243.271511 C407.868793,244.161511 409.238793,244.606511 410.678793,244.606511 Z M414.488793,235.006511 L406.868793,235.006511 L406.868793,234.436511 C406.868793,233.156511 407.253793,232.191511 408.023793,231.541511 C408.793793,230.891511 409.678793,230.566511 410.678793,230.566511 C411.678793,230.566511 412.563793,230.891511 413.333793,231.541511 C414.103793,232.191511 414.488793,233.156511 414.488793,234.436511 L414.488793,235.006511 Z M422.326688,244.306511 L422.326688,234.586511 C422.326688,233.306511 422.711688,232.341511 423.481688,231.691511 C424.251688,231.041511 425.136688,230.716511 426.136688,230.716511 L427.126688,230.716511 L427.126688,228.556511 L426.136688,228.556511 C425.436688,228.556511 424.721688,228.716511 423.991688,229.036511 C423.261688,229.356511 422.706688,229.826511 422.326688,230.446511 L422.326688,228.826511 L420.076688,228.826511 L420.076688,244.306511 L422.326688,244.306511 Z M436.074583,244.306511 L436.074583,242.146511 L433.704583,242.146511 C433.164583,242.146511 432.789583,242.046511 432.579583,241.846511 C432.369583,241.646511 432.264583,241.296511 432.264583,240.796511 L432.264583,240.796511 L432.264583,230.986511 L436.074583,230.986511 L436.074583,228.826511 L432.264583,228.826511 L432.264583,225.316511 L430.014583,225.316511 L430.014583,228.826511 L427.824583,228.826511 L427.824583,230.986511 L430.014583,230.986511 L430.014583,240.616511 C430.014583,241.936511 430.269583,242.881511 430.779583,243.451511 C431.289583,244.021511 432.264583,244.306511 433.704583,244.306511 L433.704583,244.306511 L436.074583,244.306511 Z M444.572478,244.606511 C446.012478,244.606511 447.382478,244.161511 448.682478,243.271511 C449.982478,242.381511 450.632478,240.806511 450.632478,238.546511 L450.632478,234.466511 C450.632478,232.206511 449.982478,230.631511 448.682478,229.741511 C447.382478,228.851511 446.012478,228.406511 444.572478,228.406511 C443.132478,228.406511 441.762478,228.851511 440.462478,229.741511 C439.162478,230.631511 438.512478,232.206511 438.512478,234.466511 L438.512478,238.546511 C438.512478,240.806511 439.162478,242.381511 440.462478,243.271511 C441.762478,244.161511 443.132478,244.606511 444.572478,244.606511 Z M444.572478,242.446511 C443.572478,242.446511 442.687478,242.121511 441.917478,241.471511 C441.147478,240.821511 440.762478,239.856511 440.762478,238.576511 L440.762478,234.436511 C440.762478,233.156511 441.147478,232.191511 441.917478,231.541511 C442.687478,230.891511 443.572478,230.566511 444.572478,230.566511 C445.572478,230.566511 446.457478,230.891511 447.227478,231.541511 C447.997478,232.191511 448.382478,233.156511 448.382478,234.436511 L448.382478,238.576511 C448.382478,239.856511 447.997478,240.821511 447.227478,241.471511 C446.457478,242.121511 445.572478,242.446511 444.572478,242.446511 Z" id="maisperto" fill="#00C0D2" fill-rule="nonzero"></path>
    </g>
</svg>