<?xml version="1.0" encoding="UTF-8"?>
<svg width="592px" height="330px" viewBox="0 0 592 330" version="1.1" xmlns="http://www.w3.org/2000/svg" xmlns:xlink="http://www.w3.org/1999/xlink">
    <title>decodificador_desligar_tomada copy 3</title>
    <defs>
        <path d="M151.614642,7.25168892 C147.319541,14.1242738 16.7510181,57.9340901 1.71816529,72.1081345 L1.71816529,72.1081345 C-13.3146875,86.28112 74.7348788,109.473182 93.2029651,111.621791 L93.2029651,111.621791 C111.671051,113.769342 141.505906,75.4268835 172.661271,51.0615053 L172.661271,51.0615053 C206.16221,24.8620258 221.195063,24.4320921 229.785264,19.7081166 L229.785264,19.7081166 C238.375466,14.9830821 235.797982,10.2580477 235.797982,10.2580477 L235.797982,10.2580477 C235.797982,10.2580477 234.939174,14.9830821 228.926456,15.8418905 L228.926456,15.8418905 C222.912679,16.7006989 214.322478,16.2707652 209.598502,17.1306325 L209.598502,17.1306325 C204.874527,17.9894409 185.11664,29.5860013 163.211202,42.9001784 L163.211202,42.9001784 C141.306823,56.2154144 124.556354,53.2090557 124.556354,53.2090557 L124.556354,53.2090557 C124.556354,53.2090557 128.332569,38.3170432 140.448015,27.0095762 L140.448015,27.0095762 C153.333317,14.9830821 170.083787,8.97036461 173.948954,6.39288055 L173.948954,6.39288055 C177.81518,3.81539649 179.532797,2.52771341 176.244757,0.339922918 L176.244757,0.339922918 C175.892127,0.10483604 175.331943,0 174.611857,0 L174.611857,0 C168.621377,0 151.614642,7.25168892 151.614642,7.25168892" id="path-1"></path>
        <linearGradient x1="42.9734638%" y1="56.1760976%" x2="50%" y2="37.5360305%" id="linearGradient-3">
            <stop stop-color="#FFFFFF" offset="0%"></stop>
            <stop stop-color="#000000" offset="100%"></stop>
        </linearGradient>
        <linearGradient x1="49.281254%" y1="3.45065584%" x2="48.2279091%" y2="9.73998301%" id="linearGradient-4">
            <stop stop-color="#7F7F7F" offset="0%"></stop>
            <stop stop-color="#454545" offset="100%"></stop>
        </linearGradient>
    </defs>
    <g id="MESH-+-repetidor" stroke="none" stroke-width="1" fill="none" fill-rule="evenodd">
        <g id="Group-4-Copy" transform="translate(6.659220, 5.135361)">
            <g id="Group-14" transform="translate(512.028115, 200.000000) scale(-1, 1) translate(-512.028115, -200.000000) translate(391.000000, 37.000000)">
                <g id="Group-97" opacity="0.15" style="mix-blend-mode: multiply;" transform="translate(0.000000, 214.291737)">
                    <mask id="mask-2" fill="white">
                        <use xlink:href="#path-1"></use>
                    </mask>
                    <g id="Clip-96"></g>
                    <path d="M30.1351759,57.4555244 L108.25024,102.753229 C126.718327,104.900779 141.505906,75.4268835 172.661271,51.0615053 C206.16221,24.8620258 221.195063,24.4320921 229.785264,19.7081166 C238.375466,14.9830821 235.797982,10.2580477 235.797982,10.2580477 C235.797982,10.2580477 234.939174,14.9830821 228.926456,15.8418905 C222.912679,16.7006989 214.322478,16.2707652 209.598502,17.1306325 C204.874527,17.9894409 185.11664,29.5860013 163.211202,42.9001784 C141.306823,56.2154144 124.556354,53.2090557 124.556354,53.2090557 C124.556354,53.2090557 128.332569,38.3170432 140.448015,27.0095762 C153.333317,14.9830821 170.083787,8.97036461 173.948954,6.39288055 C177.81518,3.81539649 179.532797,2.52771341 176.244757,0.339922918 C175.892127,0.10483604 175.331943,0 174.611857,0 C168.621377,0.0010589499 151.614642,7.25168892 151.614642,7.25168892 C147.319541,14.1242738 45.1680287,43.28148 30.1351759,57.4555244 Z" id="Fill-95" fill="url(#linearGradient-3)" style="mix-blend-mode: screen;" mask="url(#mask-2)"></path>
                </g>
                <path d="M185.809511,45.2155599 C185.809511,45.2155599 195.371828,56.6003303 199.274059,63.9928595 C203.17523,71.3843298 202.522917,71.4033909 204.776362,67.0754627 C207.030867,62.7475345 206.524689,59.0359151 208.879793,56.3790098 C211.233839,53.7210455 215.104301,45.4104067 215.379628,43.205673 C215.656014,41.0009393 217.866042,36.9621044 221.331985,34.7690191 C224.798987,32.5759339 228.127266,30.1255238 227.092672,34.9945755 C225.932063,41.853394 221.284332,44.8131589 220.594956,48.9653015 C220.594956,48.9653015 219.796508,50.3218163 219.484117,53.9391892 C219.170668,57.557621 217.98888,81.6762639 208.749542,84.1150255 C199.510204,86.5548461 183.609013,66.6974176 182.730084,64.3168982 C181.850097,61.9374378 185.809511,45.2155599 185.809511,45.2155599" id="Fill-44" fill="#FF944D"></path>
                <polygon id="Fill-46" fill="#EA298C" points="221.16753 22.9340891 229.340505 27.5754666 216.509209 48.4198364 208.813821 43.1367353"></polygon>
                <polygon id="Fill-48" fill="#9D2EFF" points="220.234172 21.1146014 228.824373 26.1086092 215.063319 49.0168724 206.983532 43.316545"></polygon>
                <polygon id="Fill-50" fill="#00CEFF" points="219.859833 23.690603 226.290836 27.4286961 215.989371 44.5762718 209.940649 40.3097627"></polygon>
                <path d="M178.174058,30.9461041 C178.174058,30.9461041 177.035687,34.498881 182.558111,38.8416345 C188.079476,43.1843881 197.319872,46.7318703 197.319872,46.7318703 C197.319872,46.7318703 193.335044,41.5758432 194.560249,38.1226076 C195.784395,34.6704309 200.677803,36.273681 202.401773,30.8433859 C204.125743,25.4130909 203.503081,7.25845376 191.135605,4.49035872 C185.569764,4.88111123 177.622345,11.120444 179.095345,20.4296726 C180.569403,29.7389012 180.96545,30.8370323 178.174058,30.9461041" id="Fill-52" fill="#FF944D"></path>
                <path d="M180.204489,29.6007082 C180.204489,29.6007082 183.300858,25.6074082 185.381695,25.3945592 C187.462531,25.1827693 188.222857,24.0549876 186.41523,21.7867169 C184.607602,19.5184462 184.548301,15.4954956 186.819749,15.4393712 C189.091196,15.3832469 190.067548,18.085687 189.886468,23.1845308 C190.059077,23.1665286 192.592085,23.9596821 192.883296,21.6532892 C193.173448,19.3458374 191.31605,18.3091254 192.52643,16.4347841 C193.73681,14.5593839 193.475249,13.710106 191.947184,12.4647809 C190.419119,11.2194559 185.452644,7.17003144 188.952474,5.41323356 C192.451244,3.65537672 196.254992,7.03342691 196.254992,7.03342691 C196.254992,7.03342691 197.91119,2.22261751 194.616797,2.55830463 C191.323463,2.89399175 188.567016,3.3493402 189.274395,1.70161416 C189.982832,0.0528291616 187.049541,-1.22532337 184.923169,1.96952848 C182.795739,5.16332138 171.767835,5.23638893 180.204489,29.6007082" id="Fill-54" fill="#7824CD"></path>
                <path d="M202.954333,26.1901483 C202.189771,26.2674516 198.551219,26.4993617 196.668406,24.0966043 C196.40261,23.7556225 196.461911,23.2632108 196.802893,22.9963554 C197.141757,22.7273821 197.636287,22.7888012 197.903142,23.1297831 C199.420617,25.0655435 203.067641,24.611254 203.103645,24.5964287 C203.215894,24.992476 203.191538,25.8502254 203.090938,26.175323 C203.086702,26.1901483 203.02846,26.1827356 202.954333,26.1901483" id="Fill-56" fill="#FFFFFF"></path>
                <g id="Group-62" transform="translate(155.557430, 30.856199)">
                    <path d="M77.8433013,88.4035733 C85.6551747,95.8691701 87.2446585,98.47101 86.220654,100.077437 C82.8118942,105.407132 75.8164712,101.221103 67.5121861,91.9139922 C60.9752883,84.5924126 52.1542357,64.9446561 48.2869506,57.1084269 L48.3674308,57.0692457 C48.3674308,57.0692457 53.7903133,49.328322 62.0871857,52.371744 C66.9837701,67.1133855 72.9414222,83.7208968 77.8433013,88.4035733" id="Fill-58" fill="#FF944D"></path>
                    <path d="M62.0872916,52.3714263 C53.7904192,49.3280043 48.3664778,57.069987 48.3664778,57.069987 L48.2870565,57.1091681 C47.2397551,54.976443 46.5546145,53.7215874 46.374593,53.8137161 C45.5359047,54.2468266 52.4180201,101.187958 52.4180201,101.187958 L0,80.0820273 C0,80.0820273 1.22732293,47.8592408 1.31627473,39.652379 C1.47194036,24.0508701 8.62726484,1.43064132 22.6699995,0 C22.8828484,0.32509762 20.3625476,6.54113354 39.9330008,14.7003425 C39.9330008,14.7003425 50.1423367,20.3233665 53.9503206,28.5122261 C55.5525118,31.9548722 58.54934,41.6749733 62.0872916,52.3714263" id="Fill-60" fill="#58585B"></path>
                </g>
                <g id="Group-69" transform="translate(150.254019, 110.930708)">
                    <path d="M69.8705509,109.034777 C74.5966443,115.511314 87.643966,110.797928 87.4268813,114.961719 C87.1886176,119.536383 72.8027832,122.756649 66.2521191,123.770064 C59.702514,124.784538 61.9856099,123.153756 60.8662999,115.564262 C60.7688765,114.922538 60.6047393,114.130443 60.3749471,113.217629 C61.5122593,113.238808 69.1144607,113.167858 69.6672325,109.107844 L69.8705509,109.034777 Z" id="Fill-63" fill="#7A24CD"></path>
                    <path d="M69.8705509,109.034777 L69.6672325,109.107844 C69.1144607,113.167858 61.5122593,113.238808 60.3749471,113.217629 C57.946775,103.407517 48.6354285,79.3725309 45.6862531,66.3040301 C42.2012489,50.8624227 35.6315238,29.4928137 28.9061329,28.7801404 C22.1712116,28.0685261 14.6505494,84.8833061 13.452877,93.7604832 C13.2612071,95.1879476 13.368161,96.3337314 13.7049071,97.2666663 L13.4200496,97.3587949 C12.1673119,100.849094 2.57746156,99.0499379 1.56934125,98.8487374 C2.52769091,79.9803681 5.30213965,0 5.30213965,0 L57.713806,21.031804 C57.8292316,25.5725812 65.6135723,96.8568527 68.7184134,106.702969 C69.0000941,107.60943 69.3940234,108.379287 69.8705509,109.034777" id="Fill-65" fill="#CB5205"></path>
                    <path d="M25.9903144,103.351181 C29.4287247,106.153162 14.1787872,111.206471 5.5737603,112.786424 C-3.02067709,114.355788 0.716357109,109.770535 1.35808075,102.349414 C1.41208719,101.743695 1.47880104,100.539669 1.56881178,98.8485256 C2.57799103,99.0497261 12.1667824,100.848882 13.4195201,97.3585831 L13.7043776,97.2664545 C15.3944617,102.096325 23.1014991,100.996076 25.9903144,103.351181" id="Fill-67" fill="#7A24CD"></path>
                </g>
                <path d="M160.142365,112.4449 L161.096479,120.496097 C161.096479,120.496097 160.740672,125.511283 164.260621,126.783082 C167.780571,128.053822 171.211568,128.283614 172.110617,123.484453 C171.998368,122.181945 171.856469,117.471736 171.856469,117.471736" id="Stroke-70" stroke="#B41F73" stroke-width="0.812"></path>
            </g>
            <path d="M237.428947,176.904 L237.428947,171.854 L223.078947,171.854 L232.428947,162.154 C234.128947,160.420667 235.387281,158.770667 236.203947,157.204 C237.020614,155.637333 237.428947,153.804 237.428947,151.704 C237.428947,147.637333 236.195614,144.904 233.728947,143.504 C231.262281,142.104 228.912281,141.404 226.678947,141.404 C224.445614,141.404 222.095614,142.129 219.628947,143.579 C217.162281,145.029 215.928947,147.870667 215.928947,152.104 L215.928947,152.654 L221.178947,152.654 L221.178947,152.204 C221.178947,150.270667 221.687281,148.829 222.703947,147.879 C223.720614,146.929 225.045614,146.454 226.678947,146.454 C228.312281,146.454 229.637281,146.895667 230.653947,147.779 C231.670614,148.662333 232.178947,150.004 232.178947,151.804 C232.178947,153.104 231.853947,154.295667 231.203947,155.379 C230.553947,156.462333 229.645614,157.620667 228.478947,158.854 L215.928947,171.854 L215.928947,176.904 L237.428947,176.904 Z M249.442105,176.904 L249.442105,170.204 L242.742105,170.204 L242.742105,176.904 L249.442105,176.904 Z M273.205263,176.904 L273.205263,168.254 L276.855263,168.254 L276.855263,163.404 L273.205263,163.404 L273.205263,141.904 L267.955263,141.904 L252.405263,163.404 L252.405263,168.254 L267.955263,168.254 L267.955263,176.904 L273.205263,176.904 Z M267.955263,163.404 L258.505263,163.404 L267.955263,150.354 L267.955263,163.404 Z M302.131579,177.404 C305.864912,177.404 308.889912,176.287333 311.206579,174.054 C313.523246,171.820667 314.681579,168.820667 314.681579,165.054 L314.681579,157.654 L302.131579,157.654 L302.131579,162.804 L309.331579,162.804 L309.331579,165.054 C309.331579,167.487333 308.564912,169.270667 307.031579,170.404 C305.498246,171.537333 303.864912,172.104 302.131579,172.104 C300.398246,172.104 298.764912,171.537333 297.231579,170.404 C295.698246,169.270667 294.931579,167.487333 294.931579,165.054 L294.931579,153.754 C294.931579,151.320667 295.698246,149.537333 297.231579,148.404 C298.764912,147.270667 300.398246,146.704 302.131579,146.704 C303.731579,146.704 305.256579,147.179 306.706579,148.129 C308.156579,149.079 309.014912,150.570667 309.281579,152.604 L314.631579,152.604 C314.398246,149.170667 313.139912,146.445667 310.856579,144.429 C308.573246,142.412333 305.664912,141.404 302.131579,141.404 C298.398246,141.404 295.373246,142.520667 293.056579,144.754 C290.739912,146.987333 289.581579,149.987333 289.581579,153.754 L289.581579,165.054 C289.581579,168.820667 290.739912,171.820667 293.056579,174.054 C295.373246,176.287333 298.398246,177.404 302.131579,177.404 Z M325.194737,176.904 L325.194737,161.904 L339.594737,161.904 L339.594737,176.904 L344.944737,176.904 L344.944737,141.904 L339.594737,141.904 L339.594737,156.604 L325.194737,156.604 L325.194737,141.904 L319.844737,141.904 L319.844737,176.904 L325.194737,176.904 Z M368.557895,176.904 L368.557895,171.954 L355.857895,171.954 L368.207895,156.054 L368.207895,151.104 L349.657895,151.104 L349.657895,156.054 L361.657895,156.054 L349.307895,171.954 L349.307895,176.904 L368.557895,176.904 Z" id="2.4GHz" fill="#00C0D2" fill-rule="nonzero"></path>
            <path d="M228.745526,123.904 L228.745526,114.034 C228.745526,112.794 229.115526,111.839 229.855526,111.169 C230.595526,110.499 231.425526,110.164 232.345526,110.164 C233.225526,110.164 234.040526,110.494 234.790526,111.154 C235.540526,111.814 235.915526,112.714 235.915526,113.854 L235.915526,123.904 L238.165526,123.904 L238.165526,114.034 C238.165526,112.794 238.535526,111.839 239.275526,111.169 C240.015526,110.499 240.845526,110.164 241.765526,110.164 C242.645526,110.164 243.460526,110.494 244.210526,111.154 C244.960526,111.814 245.335526,112.714 245.335526,113.854 L245.335526,123.904 L247.585526,123.904 L247.585526,114.064 C247.585526,111.884 246.955526,110.329 245.695526,109.399 C244.435526,108.469 243.115526,108.004 241.735526,108.004 C240.875526,108.004 240.005526,108.194 239.125526,108.574 C238.245526,108.954 237.545526,109.574 237.025526,110.434 C236.505526,109.574 235.810526,108.954 234.940526,108.574 C234.070526,108.194 233.205526,108.004 232.345526,108.004 C231.785526,108.004 231.140526,108.164 230.410526,108.484 C229.680526,108.804 229.125526,109.274 228.745526,109.894 L228.745526,108.424 L226.495526,108.424 L226.495526,123.904 L228.745526,123.904 Z M255.723421,124.204 C256.763421,124.204 257.703421,124.049 258.543421,123.739 C259.383421,123.429 260.053421,122.954 260.553421,122.314 L260.553421,123.904 L262.803421,123.904 L262.803421,114.064 C262.803421,111.804 262.153421,110.229 260.853421,109.339 C259.553421,108.449 258.183421,108.004 256.743421,108.004 C255.403421,108.004 254.113421,108.384 252.873421,109.144 C251.633421,109.904 250.913421,111.244 250.713421,113.164 L253.023421,113.164 C253.203421,112.164 253.648421,111.414 254.358421,110.914 C255.068421,110.414 255.863421,110.164 256.743421,110.164 C257.743421,110.164 258.628421,110.489 259.398421,111.139 C260.168421,111.789 260.553421,112.754 260.553421,114.034 L260.553421,114.304 C259.253421,114.384 258.048421,114.484 256.938421,114.604 C255.828421,114.724 254.833421,114.914 253.953421,115.174 C252.613421,115.554 251.718421,116.194 251.268421,117.094 C250.818421,117.994 250.593421,118.834 250.593421,119.614 C250.593421,121.194 251.118421,122.354 252.168421,123.094 C253.218421,123.834 254.403421,124.204 255.723421,124.204 Z M256.203421,122.044 C255.063421,122.044 254.218421,121.804 253.668421,121.324 C253.118421,120.844 252.843421,120.254 252.843421,119.554 C252.843421,119.114 252.928421,118.714 253.098421,118.354 C253.268421,117.994 253.633421,117.654 254.193421,117.334 C254.713421,117.054 255.483421,116.844 256.503421,116.704 C257.523421,116.564 258.873421,116.434 260.553421,116.314 L260.553421,118.324 C260.553421,119.524 260.128421,120.444 259.278421,121.084 C258.428421,121.724 257.403421,122.044 256.203421,122.044 Z M268.751316,105.814 L268.751316,102.904 L266.501316,102.904 L266.501316,105.814 L268.751316,105.814 Z M268.751316,123.904 L268.751316,108.424 L266.501316,108.424 L266.501316,123.904 L268.751316,123.904 Z M277.789211,124.204 C279.349211,124.204 280.649211,123.864 281.689211,123.184 C282.729211,122.504 283.249211,121.404 283.249211,119.884 C283.249211,118.464 282.879211,117.414 282.139211,116.734 C281.399211,116.054 280.449211,115.574 279.289211,115.294 L276.379211,114.574 C275.759211,114.434 275.249211,114.199 274.849211,113.869 C274.449211,113.539 274.249211,113.054 274.249211,112.414 C274.249211,111.714 274.524211,111.164 275.074211,110.764 C275.624211,110.364 276.319211,110.164 277.159211,110.164 C278.119211,110.164 278.889211,110.404 279.469211,110.884 C280.049211,111.364 280.409211,112.054 280.549211,112.954 L282.859211,112.954 C282.739211,111.234 282.154211,109.979 281.104211,109.189 C280.054211,108.399 278.749211,108.004 277.189211,108.004 C275.769211,108.004 274.544211,108.399 273.514211,109.189 C272.484211,109.979 271.969211,111.084 271.969211,112.504 C271.969211,113.884 272.394211,114.894 273.244211,115.534 C274.094211,116.174 274.939211,116.594 275.779211,116.794 L278.809211,117.544 C279.669211,117.744 280.244211,118.049 280.534211,118.459 C280.824211,118.869 280.969211,119.324 280.969211,119.824 C280.949211,120.504 280.684211,121.044 280.174211,121.444 C279.664211,121.844 278.869211,122.044 277.789211,122.044 C276.769211,122.044 275.889211,121.799 275.149211,121.309 C274.409211,120.819 273.989211,120.034 273.889211,118.954 L271.579211,118.954 C271.699211,120.814 272.359211,122.154 273.559211,122.974 C274.759211,123.794 276.169211,124.204 277.789211,124.204 Z M296.465,123.904 L296.465,121.744 L295.985,121.744 C295.445,121.744 295.07,121.644 294.86,121.444 C294.65,121.244 294.545,120.894 294.545,120.394 L294.545,120.394 L294.545,102.904 L292.295,102.904 L292.295,120.214 C292.295,121.534 292.55,122.479 293.06,123.049 C293.57,123.619 294.545,123.904 295.985,123.904 L295.985,123.904 L296.465,123.904 Z M305.022895,124.204 C306.462895,124.204 307.832895,123.759 309.132895,122.869 C310.432895,121.979 311.082895,120.404 311.082895,118.144 L311.082895,114.064 C311.082895,111.804 310.432895,110.229 309.132895,109.339 C307.832895,108.449 306.462895,108.004 305.022895,108.004 C303.582895,108.004 302.212895,108.449 300.912895,109.339 C299.612895,110.229 298.962895,111.804 298.962895,114.064 L298.962895,118.144 C298.962895,120.404 299.612895,121.979 300.912895,122.869 C302.212895,123.759 303.582895,124.204 305.022895,124.204 Z M305.022895,122.044 C304.022895,122.044 303.137895,121.719 302.367895,121.069 C301.597895,120.419 301.212895,119.454 301.212895,118.174 L301.212895,114.034 C301.212895,112.754 301.597895,111.789 302.367895,111.139 C303.137895,110.489 304.022895,110.164 305.022895,110.164 C306.022895,110.164 306.907895,110.489 307.677895,111.139 C308.447895,111.789 308.832895,112.754 308.832895,114.034 L308.832895,118.174 C308.832895,119.454 308.447895,120.419 307.677895,121.069 C306.907895,121.719 306.022895,122.044 305.022895,122.044 Z M316.820789,123.904 L316.820789,114.034 C316.820789,112.754 317.205789,111.789 317.975789,111.139 C318.745789,110.489 319.630789,110.164 320.630789,110.164 C321.630789,110.164 322.515789,110.489 323.285789,111.139 C324.055789,111.789 324.440789,112.754 324.440789,114.034 L324.440789,123.904 L326.690789,123.904 L326.690789,114.064 C326.690789,111.804 326.040789,110.229 324.740789,109.339 C323.440789,108.449 322.070789,108.004 320.630789,108.004 C319.930789,108.004 319.215789,108.164 318.485789,108.484 C317.755789,108.804 317.200789,109.274 316.820789,109.894 L316.820789,108.424 L314.570789,108.424 L314.570789,123.904 L316.820789,123.904 Z M335.998684,129.724 C337.438684,129.724 338.808684,129.284 340.108684,128.404 C341.408684,127.524 342.058684,125.944 342.058684,123.664 L342.058684,108.424 L339.808684,108.424 L339.808684,109.894 C339.428684,109.274 338.873684,108.804 338.143684,108.484 C337.413684,108.164 336.698684,108.004 335.998684,108.004 C334.558684,108.004 333.188684,108.449 331.888684,109.339 C330.588684,110.229 329.938684,111.804 329.938684,114.064 L329.938684,117.544 C329.938684,119.804 330.588684,121.379 331.888684,122.269 C333.188684,123.159 334.558684,123.604 335.998684,123.604 C336.698684,123.604 337.413684,123.444 338.143684,123.124 C338.873684,122.804 339.428684,122.334 339.808684,121.714 L339.808684,123.694 C339.808684,124.974 339.423684,125.939 338.653684,126.589 C337.883684,127.239 336.998684,127.564 335.998684,127.564 C335.098684,127.564 334.283684,127.299 333.553684,126.769 C332.823684,126.239 332.388684,125.454 332.248684,124.414 L329.968684,124.414 C330.128684,126.394 330.833684,127.774 332.083684,128.554 C333.333684,129.334 334.638684,129.724 335.998684,129.724 Z M335.998684,121.444 C334.998684,121.444 334.113684,121.119 333.343684,120.469 C332.573684,119.819 332.188684,118.854 332.188684,117.574 L332.188684,114.034 C332.188684,112.754 332.573684,111.789 333.343684,111.139 C334.113684,110.489 334.998684,110.164 335.998684,110.164 C336.998684,110.164 337.883684,110.489 338.653684,111.139 C339.423684,111.789 339.808684,112.754 339.808684,114.034 L339.808684,117.574 C339.808684,118.854 339.423684,119.819 338.653684,120.469 C337.883684,121.119 336.998684,121.444 335.998684,121.444 Z M351.606579,124.204 C352.946579,124.204 354.236579,123.824 355.476579,123.064 C356.716579,122.304 357.436579,120.964 357.636579,119.044 L355.326579,119.044 C355.146579,120.044 354.701579,120.794 353.991579,121.294 C353.281579,121.794 352.486579,122.044 351.606579,122.044 C350.606579,122.044 349.721579,121.719 348.951579,121.069 C348.181579,120.419 347.796579,119.454 347.796579,118.174 L347.796579,116.674 L357.666579,116.674 L357.666579,114.064 C357.666579,111.804 357.016579,110.229 355.716579,109.339 C354.416579,108.449 353.046579,108.004 351.606579,108.004 C350.166579,108.004 348.796579,108.449 347.496579,109.339 C346.196579,110.229 345.546579,111.804 345.546579,114.064 L345.546579,118.144 C345.546579,120.404 346.196579,121.979 347.496579,122.869 C348.796579,123.759 350.166579,124.204 351.606579,124.204 Z M355.416579,114.604 L347.796579,114.604 L347.796579,114.034 C347.796579,112.754 348.181579,111.789 348.951579,111.139 C349.721579,110.489 350.606579,110.164 351.606579,110.164 C352.606579,110.164 353.491579,110.489 354.261579,111.139 C355.031579,111.789 355.416579,112.754 355.416579,114.034 L355.416579,114.604 Z" id="maislonge" fill="#00C0D2" fill-rule="nonzero"></path>
            <g id="Group-3" transform="translate(40.500000, 59.500000) scale(-1, 1) translate(-40.500000, -59.500000) ">
                <path d="M10.9261019,-1.10134124e-13 L79.1264667,47.169324 L67.9923837,51.5196587 C65.8186364,52.3689903 63.3645804,52.0791424 61.4485142,50.7467641 L0.448653614,8.32918389 L0.448653614,8.32918389 L10.9261019,-1.10134124e-13 Z" id="Rectangle-Copy-2" fill="#7F7F7F" transform="translate(39.787560, 26.030203) scale(-1, -1) translate(-39.787560, -26.030203) "></path>
                <path d="M69.2654005,44.0206854 L80.0633209,52.7581592 L80.0633209,52.7581592 L76.6062764,118.086812 L66.0073259,110.507944 L66.0073259,45.5754356 C66.0073259,44.4708661 66.9027564,43.5754356 68.0073259,43.5754356 C68.465293,43.5754356 68.9093882,43.7326069 69.2654005,44.0206854 Z" id="Rectangle-Copy" fill="url(#linearGradient-4)" transform="translate(73.035323, 80.755470) scale(-1, 1) translate(-73.035323, -80.755470) "></path>
                <path d="M3.1394631,5.07925565 L66.4524912,48.9708048 C68.3389582,50.2785919 69.4643704,52.4281765 69.4643704,54.7236208 L69.4643704,118.086812 L69.4643704,118.086812 L4.19220214e-13,69.9308649 L4.19220214e-13,6.72291737 C4.19482594e-13,5.61834787 0.8954305,4.72291737 2,4.72291737 C2.40724178,4.72291737 2.80477924,4.84723716 3.1394631,5.07925565 Z" id="Rectangle" fill="#5E5E5E"></path>
                <polygon id="Rectangle" fill="#D8D8D8" points="0.448653614 48.083859 69.3385752 98.4337791 69.3385752 102.157559 0.448653614 51.8076385"></polygon>
            </g>
            <g id="Group-2" transform="translate(98.500000, 87.401900) scale(-1, 1) translate(-98.500000, -87.401900) translate(1.500000, 26.899800)" stroke="#00C0D2" stroke-linecap="round" stroke-width="5">
                <path d="M92.8862366,94.6060557 C110.126874,93.929156 125.520081,89.789967 136.528628,83.5147672 C147.299262,77.3751845 153.872708,69.1909186 153.872708,60.204104 C153.872708,41.1502802 124.323502,25.704104 87.8727083,25.704104 C69.7378606,25.704104 53.3113078,29.5273728 41.3820164,35.7160414" id="Oval" opacity="0.699999988" transform="translate(97.627362, 60.155080) scale(-1, -1) translate(-97.627362, -60.155080) "></path>
                <path d="M92.4125613,107.580195 C115.631332,106.542541 136.343215,100.913937 151.211481,92.4385821 C165.953467,84.0352107 174.950676,72.8332399 174.950676,60.5328044 C174.950676,34.453449 134.506077,13.3119542 84.6151361,13.3119542 C59.157301,13.3119542 36.1590588,18.8166743 19.7388859,27.6732745" id="Oval-Copy-2" opacity="0.5" transform="translate(97.344781, 60.446075) scale(-1, -1) translate(-97.344781, -60.446075) "></path>
                <path d="M91.1196173,121.0042 C119.900126,119.520486 145.548936,112.345209 164.038094,101.620849 C182.644369,90.8285564 194,76.4420747 194,60.6448553 C194,27.1516266 142.953733,-2.84217094e-14 79.9849708,-2.84217094e-14 C48.8227494,-2.84217094e-14 20.580466,6.64970476 0,17.4268978" id="Oval-Copy-3" opacity="0.300000012" transform="translate(97.000000, 60.502100) scale(-1, -1) translate(-97.000000, -60.502100) "></path>
                <path d="M96.3661549,80.197245 C108.103247,80.197245 118.666196,77.6862597 126.019308,73.6810976 C132.583428,70.1056913 136.589588,65.3395569 136.589588,60.1060557 C136.589588,49.0099982 118.580943,40.0148664 96.3661549,40.0148664 C82.8450099,40.0148664 70.8820776,43.3472125 63.5895875,48.4573784" id="Oval-Copy" opacity="0.900000036" transform="translate(100.089588, 60.106056) scale(-1, -1) translate(-100.089588, -60.106056) "></path>
            </g>
            <line x1="414.850507" y1="159.022292" x2="42.90811" y2="308.785708" id="Line-2-Copy" stroke="#979797" stroke-width="3" stroke-linecap="square" stroke-dasharray="8" transform="translate(228.908110, 233.785708) scale(-1, 1) translate(-228.908110, -233.785708) "></line>
        </g>
    </g>
</svg>