<?xml version="1.0" encoding="UTF-8"?>
<svg width="592px" height="330px" viewBox="0 0 592 330" version="1.1" xmlns="http://www.w3.org/2000/svg" xmlns:xlink="http://www.w3.org/1999/xlink">
    <title>decodificador_desligar_tomada copy 4</title>
    <g id="MESH-+-repetidor" stroke="none" stroke-width="1" fill="none" fill-rule="evenodd">
        <g id="Group-3-Copy-2" transform="translate(80.747644, -12.879497)">
            <g id="Group-2" transform="translate(181.481825, 25.192705)">
                <rect id="Rectangle" fill="#000000" x="0" y="0" width="160.268405" height="306.044069" rx="13.9244889"></rect>
                <rect id="Rectangle-Copy" fill="#686868" x="6.35985735" y="6.94941571" width="147.548691" height="292.414267" rx="9.13794585"></rect>
                <rect id="Rectangle-Copy-3" fill="#000000" x="63.5699618" y="0" width="33.1284817" height="15.4765963" rx="7.73829816"></rect>
            </g>
            <g id="Group-2-Copy" stroke="#00C0D2" stroke-linecap="round" stroke-width="8.70280557">
                <g id="icon_blarga_sconexao-copy-4" transform="translate(86.834310, 80.686941) rotate(-219.000000) translate(-86.834310, -80.686941) translate(6.487716, 41.925637)">
                    <g id="offline_icon-copy-4" transform="translate(0.000000, -0.000000)">
                        <g id="Group-9" transform="translate(0.000000, 0.000000)">
                            <path d="M160.693189,35.4950187 C140.915568,13.6922582 112.358193,0 80.6028193,0 C48.5721175,0 19.7951096,13.9307192 0,36.063953" id="Oval"></path>
                            <path d="M135.863847,56.7816305 C122.261116,41.7860405 102.61981,32.3687243 80.7789718,32.3687243 C58.7487674,32.3687243 38.9564016,41.9500502 25.3416419,57.1729343" id="Oval-Copy-2"></path>
                            <path d="M110.569325,77.3104135 C103.192937,69.1787164 92.5419951,64.0719641 80.6983077,64.0719641 C68.7519322,64.0719641 58.0190751,69.2676543 50.6361644,77.5226068" id="Oval-Copy-3"></path>
                        </g>
                    </g>
                </g>
            </g>
        </g>
        <path d="M110.325341,188.021127 C112.501042,188.021127 114.553454,187.353912 116.482576,186.019482 C118.411698,184.685052 119.376259,182.407818 119.376259,179.18778 L119.376259,177.273162 C119.376259,173.588975 118.339174,171.115927 116.265006,169.854021 C114.190837,168.592114 112.268967,167.96116 110.499397,167.96116 C109.600107,167.96116 108.67906,168.106207 107.736256,168.396301 C106.793452,168.686394 106.089975,169.063516 105.625826,169.527665 L105.625826,161.521084 L118.20138,161.521084 L118.20138,157.126167 L101.056853,157.126167 L101.056853,175.053947 L105.625826,175.053947 C105.973938,174.154657 106.532368,173.48019 107.301116,173.030545 C108.069864,172.5809 108.976406,172.356077 110.020743,172.356077 C111.442201,172.356077 112.595323,172.76946 113.480108,173.596227 C114.364893,174.422993 114.807286,175.677648 114.807286,177.36019 L114.807286,179.18778 C114.807286,180.667256 114.379398,181.776864 113.523622,182.516603 C112.667846,183.256341 111.558238,183.62621 110.194799,183.62621 C108.831359,183.62621 107.670985,183.234584 106.713677,182.451332 C105.756368,181.668079 105.263209,180.4932 105.2342,178.926695 L105.2342,178.883181 L100.665227,178.883181 L100.665227,178.926695 C100.723245,182.523855 101.840105,184.938884 104.015807,186.171781 C106.191508,187.404678 108.294686,188.021127 110.325341,188.021127 Z M129.43945,187.585987 L129.43945,181.755107 L123.60857,181.755107 L123.60857,187.585987 L129.43945,187.585987 Z M143.897558,188.021127 C145.841185,188.021127 147.886344,187.390174 150.033036,186.128267 C152.179728,184.86636 153.253074,182.393313 153.253074,178.709125 L153.253074,166.003029 C153.253074,162.318841 152.179728,159.845794 150.033036,158.583887 C147.886344,157.321981 145.841185,156.691027 143.897558,156.691027 C141.953932,156.691027 139.908773,157.321981 137.762081,158.583887 C135.615388,159.845794 134.542042,162.318841 134.542042,166.003029 L134.542042,178.709125 C134.542042,182.393313 135.615388,184.86636 137.762081,186.128267 C139.908773,187.390174 141.953932,188.021127 143.897558,188.021127 Z M143.897558,183.62621 C142.4761,183.62621 141.322978,183.212827 140.438193,182.386061 C139.553408,181.559294 139.111015,180.30464 139.111015,178.622097 L139.111015,166.090057 C139.111015,164.407515 139.553408,163.15286 140.438193,162.326094 C141.322978,161.499327 142.4761,161.085944 143.897558,161.085944 C145.319017,161.085944 146.472138,161.499327 147.356924,162.326094 C148.241709,163.15286 148.684101,164.407515 148.684101,166.090057 L148.684101,178.622097 C148.684101,180.30464 148.241709,181.559294 147.356924,182.386061 C146.472138,183.212827 145.319017,183.62621 143.897558,183.62621 Z M176.817066,188.021127 C180.066113,188.021127 182.698712,187.049314 184.714862,185.105687 C186.731012,183.162061 187.739087,180.551219 187.739087,177.273162 L187.739087,170.833086 L176.817066,170.833086 L176.817066,175.315031 L183.083086,175.315031 L183.083086,177.273162 C183.083086,179.390845 182.415871,180.942845 181.08144,181.929163 C179.74701,182.915481 178.325552,183.40864 176.817066,183.40864 C175.308579,183.40864 173.887121,182.915481 172.552691,181.929163 C171.218261,180.942845 170.551046,179.390845 170.551046,177.273162 L170.551046,167.438992 C170.551046,165.321309 171.218261,163.769309 172.552691,162.782991 C173.887121,161.796673 175.308579,161.303514 176.817066,161.303514 C178.209515,161.303514 179.536692,161.716897 180.798599,162.543664 C182.060506,163.37043 182.807497,164.668599 183.039572,166.438169 L187.695573,166.438169 C187.492507,163.450206 186.397404,161.078692 184.410263,159.323626 C182.423123,157.56856 179.892057,156.691027 176.817066,156.691027 C173.568018,156.691027 170.93542,157.66284 168.91927,159.606467 C166.90312,161.550094 165.895045,164.160935 165.895045,167.438992 L165.895045,177.273162 C165.895045,180.551219 166.90312,183.162061 168.91927,185.105687 C170.93542,187.049314 173.568018,188.021127 176.817066,188.021127 Z M196.888484,187.585987 L196.888484,174.531779 L209.420524,174.531779 L209.420524,187.585987 L214.076525,187.585987 L214.076525,157.126167 L209.420524,157.126167 L209.420524,169.919292 L196.888484,169.919292 L196.888484,157.126167 L192.232483,157.126167 L192.232483,187.585987 L196.888484,187.585987 Z M234.626597,187.585987 L234.626597,183.278098 L223.574034,183.278098 L234.321999,169.440637 L234.321999,165.132749 L218.178294,165.132749 L218.178294,169.440637 L228.621661,169.440637 L217.873696,183.278098 L217.873696,187.585987 L234.626597,187.585987 Z" id="5.0GHz" fill="#00C0D2" fill-rule="nonzero"></path>
    </g>
</svg>