<?xml version="1.0" encoding="UTF-8"?>
<svg width="592px" height="330px" viewBox="0 0 592 330" version="1.1" xmlns="http://www.w3.org/2000/svg" xmlns:xlink="http://www.w3.org/1999/xlink">
    <title>decodificador_desligar_tomada copy 5</title>
    <g id="MESH-+-repetidor" stroke="none" stroke-width="1" fill="none" fill-rule="evenodd">
        <g id="Group-5-Copy" transform="translate(73.564834, -15.801255)">
            <g id="Group-3">
                <g id="Group-2" transform="translate(182.009388, 25.265939)">
                    <rect id="Rectangle" fill="#000000" x="0" y="0" width="160.734302" height="306.933732" rx="13.9649671"></rect>
                    <rect id="Rectangle-Copy" fill="#686868" x="6.37834531" y="6.9696175" width="147.977611" height="293.264309" rx="9.16450965"></rect>
                    <path d="M36.5084262,6.99524316 L124.225876,6.99524316 C121.356727,6.99524316 118.881189,9.00825396 118.296092,11.8171108 L118.07329,12.8867136 C117.358405,16.3186405 114.333735,18.7781841 110.828142,18.7781841 L49.1527991,18.7781841 C45.6590234,18.7781841 42.6507799,16.312508 41.9649216,12.8867136 L41.6250364,11.1890205 C41.1368158,8.75040715 38.9954313,6.99524316 36.5084262,6.99524316 L36.5084262,6.99524316 L36.5084262,6.99524316 Z" id="Rectangle-Copy-3" fill="#000000"></path>
                </g>
                <g id="Group-2-Copy" stroke="#00C0D2" stroke-linecap="round" stroke-width="8.72810443">
                    <g id="icon_blarga_sconexao-copy-3" transform="translate(87.086735, 80.921496) rotate(-219.000000) translate(-87.086735, -80.921496) translate(6.506575, 42.047514)">
                        <g id="Group-9" transform="translate(0.000000, -0.000000)">
                            <path d="M161.16032,35.5982019 C141.325206,13.7320613 112.684815,0 80.8371298,0 C48.7133155,0 19.8526535,13.9712155 0,36.16879" id="Oval"></path>
                            <path d="M136.2588,56.9466933 C122.616526,41.9075116 102.918123,32.4628195 81.0137944,32.4628195 C58.9195487,32.4628195 39.069647,42.071998 25.4153095,57.3391347" id="Oval-Copy-2"></path>
                            <path d="M110.890747,77.5351531 C103.492916,69.3798173 92.8110125,64.2582198 80.9328959,64.2582198 C68.9517925,64.2582198 58.1877352,69.4690138 50.7833625,77.7479633" id="Oval-Copy-3"></path>
                        </g>
                    </g>
                </g>
            </g>
            <path d="M21.9894452,201.580883 C24.1714713,201.580883 26.2298493,200.911728 28.1645791,199.573419 C30.0993089,198.23511 31.0666738,195.951256 31.0666738,192.721857 L31.0666738,190.801674 C31.0666738,187.106776 30.0265747,184.62654 27.9463765,183.360965 C25.8661782,182.09539 23.9387218,181.462602 22.1640073,181.462602 C21.2621032,181.462602 20.3383788,181.608071 19.3928341,181.899008 C18.4472895,182.189944 17.7417677,182.568162 17.2762688,183.033661 L17.2762688,175.003805 L29.8883797,175.003805 L29.8883797,170.596112 L12.694014,170.596112 L12.694014,188.576007 L17.2762688,188.576007 C17.625393,187.674103 18.1854463,186.997675 18.9564289,186.546723 C19.7274115,186.095771 20.636589,185.870295 21.6839615,185.870295 C23.1095519,185.870295 24.2660258,186.28488 25.153383,187.11405 C26.0407403,187.94322 26.484419,189.201522 26.484419,190.888955 L26.484419,192.721857 C26.484419,194.205635 26.0552872,195.318468 25.1970236,196.060357 C24.33876,196.802246 23.2259266,197.17319 21.8585236,197.17319 C20.4911206,197.17319 19.3273733,196.780426 18.3672819,195.994896 C17.4071904,195.209367 16.9125978,194.031073 16.8835041,192.460014 L16.8835041,192.416373 L12.3012493,192.416373 L12.3012493,192.460014 C12.3594366,196.06763 13.4795434,198.489679 15.6615695,199.726161 C17.8435956,200.962642 19.9528875,201.580883 21.9894452,201.580883 Z M41.1591188,201.144478 L41.1591188,195.296648 L35.3112888,195.296648 L35.3112888,201.144478 L41.1591188,201.144478 Z M55.6592565,201.580883 C57.6085331,201.580883 59.6596377,200.948095 61.8125701,199.68252 C63.9655025,198.416945 65.0419687,195.936709 65.0419687,192.241811 L65.0419687,179.498779 C65.0419687,175.803881 63.9655025,173.323645 61.8125701,172.05807 C59.6596377,170.792495 57.6085331,170.159707 55.6592565,170.159707 C53.7099798,170.159707 51.6588753,170.792495 49.5059428,172.05807 C47.3530104,173.323645 46.2765442,175.803881 46.2765442,179.498779 L46.2765442,192.241811 C46.2765442,195.936709 47.3530104,198.416945 49.5059428,199.68252 C51.6588753,200.948095 53.7099798,201.580883 55.6592565,201.580883 Z M55.6592565,197.17319 C54.2336661,197.17319 53.0771922,196.758605 52.189835,195.929435 C51.3024777,195.100265 50.858799,193.841964 50.858799,192.15453 L50.858799,179.58606 C50.858799,177.898626 51.3024777,176.640325 52.189835,175.811155 C53.0771922,174.981985 54.2336661,174.5674 55.6592565,174.5674 C57.0848469,174.5674 58.2413207,174.981985 59.128678,175.811155 C60.0160353,176.640325 60.4597139,177.898626 60.4597139,179.58606 L60.4597139,192.15453 C60.4597139,193.841964 60.0160353,195.100265 59.128678,195.929435 C58.2413207,196.758605 57.0848469,197.17319 55.6592565,197.17319 Z M88.6744599,201.580883 C91.9329522,201.580883 94.5732038,200.606245 96.5952147,198.656968 C98.6172255,196.707691 99.628231,194.08926 99.628231,190.801674 L99.628231,184.342877 L88.6744599,184.342877 L88.6744599,188.837851 L94.9586951,188.837851 L94.9586951,190.801674 C94.9586951,192.925513 94.2895404,194.482025 92.9512311,195.47121 C91.6129217,196.460395 90.1873313,196.954988 88.6744599,196.954988 C87.1615885,196.954988 85.7359981,196.460395 84.3976887,195.47121 C83.0593794,194.482025 82.3902247,192.925513 82.3902247,190.801674 L82.3902247,180.938916 C82.3902247,178.815077 83.0593794,177.258565 84.3976887,176.26938 C85.7359981,175.280195 87.1615885,174.785602 88.6744599,174.785602 C90.0709566,174.785602 91.4019925,175.200187 92.6675677,176.029357 C93.9331428,176.858527 94.6823051,178.160469 94.9150546,179.935184 L99.5845904,179.935184 C99.3809347,176.938535 98.2826482,174.560126 96.289731,172.799959 C94.2968138,171.039791 91.7583901,170.159707 88.6744599,170.159707 C85.4159676,170.159707 82.775716,171.134345 80.7537051,173.083622 C78.7316943,175.032899 77.7206889,177.65133 77.7206889,180.938916 L77.7206889,190.801674 C77.7206889,194.08926 78.7316943,196.707691 80.7537051,198.656968 C82.775716,200.606245 85.4159676,201.580883 88.6744599,201.580883 Z M108.804225,201.144478 L108.804225,188.052321 L121.372695,188.052321 L121.372695,201.144478 L126.042231,201.144478 L126.042231,170.596112 L121.372695,170.596112 L121.372695,183.426426 L108.804225,183.426426 L108.804225,170.596112 L104.134689,170.596112 L104.134689,201.144478 L108.804225,201.144478 Z M146.652042,201.144478 L146.652042,196.824066 L135.567349,196.824066 L146.346558,182.94638 L146.346558,178.625968 L130.155925,178.625968 L130.155925,182.94638 L140.62965,182.94638 L129.850441,196.824066 L129.850441,201.144478 L146.652042,201.144478 Z" id="5.0GHz" fill="#00C0D2" fill-rule="nonzero"></path>
        </g>
    </g>
</svg>