<?xml version="1.0" encoding="UTF-8"?>
<svg width="592px" height="330px" viewBox="0 0 592 330" version="1.1" xmlns="http://www.w3.org/2000/svg" xmlns:xlink="http://www.w3.org/1999/xlink">
    <title>decodificador_desligar_tomada copy 6</title>
    <defs>
        <path d="M14.3950144,4.6044469 L87.561141,28.0076568 C92.1316745,29.4696059 95.2332307,33.7180399 95.2332307,38.516693 L95.2332307,231.244494 C95.2332307,237.338156 90.2933412,242.278046 84.1996787,242.278046 C82.7285259,242.278046 81.2722276,241.983842 79.91645,241.41274 L6.75032339,210.592551 C2.65977157,208.869465 -2.40158539e-15,204.862959 0,200.424305 L0,15.1134831 C1.03009841e-15,9.01982056 4.93988953,4.07993104 11.0335521,4.07993104 C12.1744183,4.07993104 13.308383,4.25687261 14.3950144,4.6044469 Z" id="path-1"></path>
        <linearGradient x1="43.3817786%" y1="1.81225459%" x2="58.7535415%" y2="88.8764514%" id="linearGradient-3">
            <stop stop-color="#383838" offset="0%"></stop>
            <stop stop-color="#CCCCCC" offset="7.2103338%"></stop>
            <stop stop-color="#C1C1C1" offset="18.4055405%"></stop>
            <stop stop-color="#C0C0C0" offset="21.2394526%"></stop>
            <stop stop-color="#505050" offset="25.5259159%"></stop>
            <stop stop-color="#A6A6A6" offset="33.5026755%"></stop>
            <stop stop-color="#9E9E9E" offset="94.7203225%"></stop>
            <stop stop-color="#767676" offset="100%"></stop>
        </linearGradient>
        <linearGradient x1="44.7040962%" y1="0%" x2="54.6807486%" y2="85.8768367%" id="linearGradient-4">
            <stop stop-color="#B4B4B4" offset="0%"></stop>
            <stop stop-color="#BABABA" offset="21.8837864%"></stop>
            <stop stop-color="#9B9B9B" offset="23.676693%"></stop>
            <stop stop-color="#838383" offset="25.4342462%"></stop>
            <stop stop-color="#7C7C7C" offset="26.7827036%"></stop>
            <stop stop-color="#A6A6A6" offset="34.1026846%"></stop>
            <stop stop-color="#A5A5A5" offset="35.4148775%"></stop>
            <stop stop-color="#A5A5A5" offset="39.1880702%"></stop>
            <stop stop-color="#A8A8A8" offset="60.0664259%"></stop>
            <stop stop-color="#939393" offset="100%"></stop>
        </linearGradient>
        <path d="M14.3950144,7.43828896 L87.561141,30.8414989 C92.1316745,32.303448 95.2332307,36.551882 95.2332307,41.3505351 L95.2332307,234.078336 C95.2332307,240.171999 90.2933412,245.111888 84.1996787,245.111888 C82.7285259,245.111888 81.2722276,244.817684 79.91645,244.246582 L6.75032339,213.426393 C2.65977157,211.703307 1.86881073e-13,207.696801 1.89282659e-13,203.258148 L1.89282659e-13,17.9473252 C1.90312757e-13,11.8536626 4.93988953,6.9137731 11.0335521,6.9137731 C12.1744183,6.9137731 13.308383,7.09071467 14.3950144,7.43828896 Z" id="path-5"></path>
        <ellipse id="path-7" cx="21.2280854" cy="23.9336257" rx="21.2280854" ry="23.9336257"></ellipse>
        <path d="M0.699645878,0 L10.0425334,3.93689772 C10.5376343,4.14552291 10.7698687,4.71600561 10.5612436,5.21110651 C10.4892376,5.38198818 10.3698914,5.52872987 10.217266,5.63404308 C9.30786686,6.2615383 8.14029238,6.37908775 7.12406134,5.94546178 L0,2.90562345 L0,2.90562345 L0.699645878,0 Z" id="path-9"></path>
        <linearGradient x1="44.4973162%" y1="1.81225459%" x2="57.2780839%" y2="88.8764514%" id="linearGradient-11">
            <stop stop-color="#BEBEBE" offset="0%"></stop>
            <stop stop-color="#CCCCCC" offset="3.13359624%"></stop>
            <stop stop-color="#CCCCCC" offset="7.2103338%"></stop>
            <stop stop-color="#C1C1C1" offset="18.4055405%"></stop>
            <stop stop-color="#C0C0C0" offset="21.2394526%"></stop>
            <stop stop-color="#7B7B7B" offset="25.5259159%"></stop>
            <stop stop-color="#A6A6A6" offset="33.5026755%"></stop>
            <stop stop-color="#9E9E9E" offset="94.7203225%"></stop>
            <stop stop-color="#767676" offset="100%"></stop>
        </linearGradient>
        <linearGradient x1="44.7040962%" y1="0%" x2="54.6807486%" y2="85.8768367%" id="linearGradient-12">
            <stop stop-color="#C8C8C8" offset="0%"></stop>
            <stop stop-color="#939393" offset="100%"></stop>
        </linearGradient>
        <ellipse id="path-13" cx="2.47475547" cy="1.6216282" rx="2.47475547" ry="1.6216282"></ellipse>
    </defs>
    <g id="MESH-+-repetidor" stroke="none" stroke-width="1" fill="none" fill-rule="evenodd">
        <g id="Group-6-Copy" transform="translate(200.579102, 3.191602)">
            <g id="Group-2" transform="translate(74.034748, 0.000000)" stroke="#00C0D2" stroke-linecap="round" stroke-width="5">
                <path d="M173.256065,88.4277699 C185.917445,81.2104064 193.644834,71.5894232 193.644834,61.0250069 C193.644834,38.6263553 158.908375,20.4686606 116.058781,20.4686606 C89.9781552,20.4686606 66.9031304,27.1953797 52.8368141,37.5108294" id="Oval" opacity="0.699999988" transform="translate(123.240824, 54.448215) scale(-1, -1) translate(-123.240824, -54.448215) "></path>
                <path d="M192.214586,103.679471 C209.544473,93.800919 220.121108,80.632484 220.121108,66.172753 C220.121108,35.5152641 172.576611,10.6624589 113.927502,10.6624589 C78.2304202,10.6624589 46.6471654,19.8694557 27.3943128,33.9884212" id="Oval-Copy-2" opacity="0.5" transform="translate(123.757710, 57.170965) scale(-1, -1) translate(-123.757710, -57.170965) "></path>
                <path d="M211.675596,119.46001 C233.932046,106.77317 247.515421,89.8611955 247.515421,71.2908333 C247.515421,31.9179932 186.454912,0 111.132957,0 C65.2878626,0 24.7260787,11.8243739 0,29.9570974" id="Oval-Copy-3" opacity="0.300000012" transform="translate(123.757710, 59.730005) scale(-1, -1) translate(-123.757710, -59.730005) "></path>
                <path d="M148.374294,71.4895463 C155.74769,67.2864907 160.247761,61.6836793 160.247761,55.5314564 C160.247761,42.4875275 140.018869,31.9133338 115.065266,31.9133338 C99.8771274,31.9133338 86.4393102,35.8306609 78.2477443,41.8378973" id="Oval-Copy" opacity="0.900000036" transform="translate(119.247753, 51.701440) scale(-1, -1) translate(-119.247753, -51.701440) "></path>
            </g>
            <g id="Group-3" transform="translate(59.068992, 37.776453)">
                <g id="Group-2-Copy">
                    <path d="M17.0675885,0.363330355 L94.4866894,25.3217423 C99.8606105,27.0541899 103.507982,32.0497436 103.521427,37.696001 L103.548204,48.9410587 C103.549729,49.5813907 103.857767,50.1822776 104.376769,50.5573306 L105.289352,51.2168031 L105.289352,51.2168031 L105.289352,76.1554682 L103.621113,78.2724264 L104.002531,234.434359 C104.004188,235.112974 103.943235,235.790296 103.820446,236.457713 C103.280925,239.390274 101.703861,241.932986 99.0892562,244.085848 C96.0385925,246.59776 90.5888237,247.08391 82.7399497,245.544299 L13.5126622,213.718404 C9.73178393,211.980219 7.25044084,208.262693 7.09551303,204.104289 L0,13.6542265 L0,13.6542265 C0.590986767,7.71532132 2.83144371,3.81453645 6.72137083,1.95187192 C10.611298,0.0892073843 14.0600372,-0.440306469 17.0675885,0.363330355 L17.0675885,0.363330355 Z" id="Rectangle" fill="#9D9D9D"></path>
                    <g id="Rectangle" transform="translate(0.000000, 2.833842)">
                        <mask id="mask-2" fill="white">
                            <use xlink:href="#path-1"></use>
                        </mask>
                        <use id="Mask" fill="#BCBCBC" xlink:href="#path-1"></use>
                        <path d="M-71.0839348,-35.4130651 L18.6206911,-2.91322522e-13 L18.6206911,-2.91322522e-13 C13.1072248,-3.26849658e-13 10.3504917,3.03605981 10.3504917,9.10817944 C10.3504917,60.4297747 10.3504917,121.267335 10.3504917,191.620859 C10.3504887,194.619841 9.12972434,197.48962 6.96922327,199.569555 L0.309483578,205.980949 L0.309483578,205.980949 L-77.0009978,174.971083 C-81.1249012,173.316952 -83.8542137,169.350545 -83.9255869,164.907839 L-87.071976,-30.942549 L-87.071976,-30.942549 L-80.7153284,-34.6688857 C-77.7898126,-36.3838552 -74.238172,-36.6582764 -71.0839348,-35.4130651 Z" fill="url(#linearGradient-3)" mask="url(#mask-2)"></path>
                        <path d="M44.3415224,181.268398 C46.5120293,178.089576 48.1869321,175.894103 49.3662308,174.681978 C50.909124,166.840452 51.2437013,161.8384 50.3699627,159.67582 C49.3030913,157.035221 50.6320401,188.22929 49.2153419,261.998308 C49.2242177,270.388575 58.9465939,266.46048 55.538683,267.837366 C55.2423402,267.957096 54.9557158,268.103189 54.6788099,268.275645 C50.4949663,270.881334 45.0903617,270.39601 41.4376804,267.086617 L37.0104917,263.075507 L37.0104917,263.075507 L38.2859445,207.788071 C38.290081,207.608766 38.2898449,207.429386 38.2852364,207.250093 L37.8601093,190.710426 L37.8601093,190.710426 L44.3415224,181.268398 Z" id="Rectangle-Copy" fill="#DEDEDE" mask="url(#mask-2)" transform="translate(46.636780, 217.380746) rotate(-68.000000) translate(-46.636780, -217.380746) "></path>
                    </g>
                    <mask id="mask-6" fill="white">
                        <use xlink:href="#path-5"></use>
                    </mask>
                    <path stroke="url(#linearGradient-4)" stroke-width="2.20671041" d="M11.0335521,8.0171283 C12.0603317,8.0171283 13.0808999,8.17637572 14.0588682,8.48919258 L14.0588682,8.48919258 L87.2249948,31.8924025 C89.2817348,32.5502796 91.007955,33.8351158 92.2199902,35.4953312 C93.4320254,37.1555466 94.1298755,39.1911412 94.1298755,41.3505351 L94.1298755,41.3505351 L94.1298755,234.078336 C94.1298755,236.820484 93.0184004,239.303033 91.2213882,241.100046 C89.424376,242.897058 86.9418268,244.008533 84.1996787,244.008533 C82.8756411,244.008533 81.5649727,243.743749 80.3447728,243.229757 L80.3447728,243.229757 L7.17864625,212.409569 C5.33789794,211.63418 3.81907518,210.345021 2.76043949,208.750362 C1.70180381,207.155702 1.10335521,205.255541 1.10335521,203.258148 L1.10335521,203.258148 L1.10335521,17.9473252 C1.10335521,15.205177 2.21483035,12.7226278 4.01184253,10.9256156 C5.80885471,9.12860345 8.29140393,8.0171283 11.0335521,8.0171283 Z"></path>
                </g>
                <g id="Oval-Copy" transform="translate(27.020651, 49.754568)">
                    <mask id="mask-8" fill="white">
                        <use xlink:href="#path-7"></use>
                    </mask>
                    <use id="Mask" fill="#A9A9A9" xlink:href="#path-7"></use>
                    <ellipse fill="#F5F5F5" mask="url(#mask-8)" cx="24.6588871" cy="23.9336257" rx="21.2280854" ry="23.9336257"></ellipse>
                    <g id="Group-2" mask="url(#mask-8)" stroke="#00C0D2" stroke-linecap="round" stroke-width="5">
                        <g transform="translate(-12.054896, -87.531021)">
                            <path d="M173.256065,88.4277699 C185.917445,81.2104064 193.644834,71.5894232 193.644834,61.0250069 C193.644834,38.6263553 158.908375,20.4686606 116.058781,20.4686606 C89.9781552,20.4686606 66.9031304,27.1953797 52.8368141,37.5108294" id="Oval" opacity="0.699999988" transform="translate(123.240824, 54.448215) scale(-1, -1) translate(-123.240824, -54.448215) "></path>
                            <path d="M192.214586,103.679471 C209.544473,93.800919 220.121108,80.632484 220.121108,66.172753 C220.121108,35.5152641 172.576611,10.6624589 113.927502,10.6624589 C78.2304202,10.6624589 46.6471654,19.8694557 27.3943128,33.9884212" id="Oval-Copy-2" opacity="0.5" transform="translate(123.757710, 57.170965) scale(-1, -1) translate(-123.757710, -57.170965) "></path>
                            <path d="M211.675596,119.46001 C233.932046,106.77317 247.515421,89.8611955 247.515421,71.2908333 C247.515421,31.9179932 186.454912,0 111.132957,0 C65.2878626,0 24.7260787,11.8243739 0,29.9570974" id="Oval-Copy-3" opacity="0.300000012" transform="translate(123.757710, 59.730005) scale(-1, -1) translate(-123.757710, -59.730005) "></path>
                            <path d="M148.374294,73.4895463 C155.74769,69.2864907 160.247761,63.6836793 160.247761,57.5314564 C160.247761,44.4875275 140.018869,33.9133338 115.065266,33.9133338 C99.8771274,33.9133338 86.4393102,37.8306609 78.2477443,43.8378973" id="Oval-Copy" opacity="0.900000036" transform="translate(119.247753, 53.701440) scale(-1, -1) translate(-119.247753, -53.701440) "></path>
                        </g>
                    </g>
                </g>
                <path d="M102.861085,50.1769085 L99.9102369,52.2066283 C99.0965078,52.766346 98.6103986,53.6907153 98.6103986,54.6783585 L98.6103986,77.7962527 C98.6103986,78.1443703 98.7914371,78.4674366 99.0883526,78.64917 L99.8454568,79.1125716 C100.227691,79.3465261 100.727211,79.2263217 100.961165,78.8440875 C101.039212,78.7165742 101.080515,78.5699778 101.080515,78.4204753 L101.080515,55.5407919 C101.080515,54.5147679 101.604872,53.5599044 102.470655,53.0093196 L104.306227,51.8420095 C104.695824,51.5942505 104.810805,51.077572 104.563046,50.6879758 C104.514189,50.611149 104.45311,50.5428193 104.382222,50.4856858 L104.05533,50.2222214 C103.711049,49.9447419 103.225403,49.9263152 102.861085,50.1769085 Z" id="Path-4" fill="#D8D8D8"></path>
            </g>
            <g id="Path-7-Copy-2" transform="translate(100.806742, 256.137751)">
                <mask id="mask-10" fill="white">
                    <use xlink:href="#path-9"></use>
                </mask>
                <use id="Mask" fill="#9F9F9F" xlink:href="#path-9"></use>
                <path d="M0.699645878,0 L10.0425334,3.93689772 C10.5376343,4.14552291 10.7698687,4.71600561 10.5612436,5.21110651 C10.4892376,5.38198818 10.3698914,5.52872987 10.217266,5.63404308 C9.30784287,6.26155485 8.14027197,6.37920988 7.12393624,5.94575503 L-0.118225312,2.85706102 L-0.118225312,2.85706102 L0.699645878,0 Z" id="Mask-Copy-2" fill="#9F9F9F" mask="url(#mask-10)"></path>
                <path d="M0.699645878,1.21949016 L10.0425334,5.15638788 C10.5376343,5.36501307 10.7698687,5.93549577 10.5612436,6.43059667 C10.4892376,6.60147834 10.3698914,6.74822003 10.217266,6.85353324 C9.30123621,7.48560368 8.13521683,7.63320511 7.09058243,7.24932682 L-0.280865455,4.54049506 L-0.280865455,4.54049506 L0.699645878,1.21949016 Z" fill="#F5F5F5" mask="url(#mask-10)"></path>
            </g>
            <g id="Group-4" transform="translate(0.000000, 81.135285)">
                <g id="Group-2">
                    <path d="M22.0462421,1.38722364 L93.7722273,23.8641072 C98.374232,25.3062445 101.506388,29.5701196 101.506388,34.3927959 L101.506388,226.602333 C101.506388,230.078023 99.8686577,233.350535 97.0866039,235.433944 L88.3953365,241.942613 L88.3953365,241.942613 L14.064881,210.859328 C9.99055528,209.155539 7.32465016,205.186447 7.28846921,200.770372 L5.69595587,6.39573651 L5.69595587,6.39573651 L13.5314152,2.19282101 C16.1459396,0.790398447 19.2150938,0.500022301 22.0462421,1.38722364 Z" id="Rectangle" fill="url(#linearGradient-11)"></path>
                    <path d="M12,5.54065447 C13.1267101,5.54065447 14.2466042,5.7154005 15.3197524,6.05866199 L15.3197524,6.05866199 L87.2249948,29.0585604 C89.2817348,29.7164375 91.007955,31.0012737 92.2199902,32.6614891 C93.4320254,34.3217045 94.1298755,36.3572991 94.1298755,38.516693 L94.1298755,38.516693 L94.1298755,231.244494 C94.1298755,233.986642 93.0184004,236.469191 91.2213882,238.266203 C89.424376,240.063216 86.9418268,241.174691 84.1996787,241.174691 C82.8756411,241.174691 81.5649727,240.909907 80.3447728,240.395915 L80.3447728,240.395915 L7.17864625,209.575727 C5.33789794,208.800338 3.81907518,207.511179 2.76043949,205.91652 C1.70180381,204.32186 1.10335521,202.421699 1.10335521,200.424305 L1.10335521,200.424305 L1.10335521,16.4372993 C1.10335521,13.4282739 2.32300372,10.7041127 4.29490858,8.73220783 C6.26681343,6.76030298 8.99097463,5.54065447 12,5.54065447 Z" id="Rectangle-Copy-5" stroke="url(#linearGradient-12)" stroke-width="2.20671041" fill="#2D2D2D"></path>
                    <path d="M11.0164352,7.23320358 C11.8222705,7.23320358 12.6233582,7.35654998 13.391869,7.59895778 L13.391869,7.59895778 L86.4542495,30.6446848 C88.3154566,31.2317567 89.8782267,32.3891696 90.9748292,33.887714 C92.0714318,35.3862583 92.7018667,37.2259341 92.6984034,39.1775317 L92.6984034,39.1775317 L92.3569319,231.597922 C92.3530456,233.787906 91.4618608,235.768989 90.0241517,237.201604 C88.5864426,238.63422 86.6022092,239.518368 84.4122254,239.514481 C83.3649168,239.512623 82.3283479,239.303343 81.3623555,238.898723 L81.3623555,238.898723 L7.98649194,208.164152 C6.51247202,207.546737 5.29579664,206.51707 4.44762625,205.242232 C3.59945585,203.967393 3.11979043,202.447382 3.11979043,200.849278 L3.11979043,200.849278 L3.11979043,15.1298484 C3.11979043,12.9492501 4.00365251,10.9750889 5.43266414,9.54607729 C6.86167578,8.11706566 8.83583698,7.23320358 11.0164352,7.23320358 Z" id="Rectangle-Copy-6" stroke="#000000" stroke-width="2.20671041"></path>
                    <polygon id="Path" fill="#D8D8D8" points="101.506388 214.59083 95.2332307 219.596273 93.4362351 219.277421 93.4362351 220.379185 95.2332307 220.757556 101.506388 215.752676"></polygon>
                </g>
                <path d="M97.5144831,139.449137 C98.1307077,139.449137 98.5236015,138.949588 98.5236015,138.333364 C98.5236015,137.717139 98.1307077,137.21759 97.5144831,137.21759 C96.8982584,137.21759 96.5388058,137.717139 96.5388058,138.333364 C96.5388058,138.949588 96.8982584,139.449137 97.5144831,139.449137 Z" id="Oval" fill="#272727"></path>
                <path d="M97.0093233,113.601616 L97.5144831,113.402607 C98.3090697,113.089578 99.2069696,113.479957 99.5199987,114.274544 C99.5911094,114.45505 99.6276176,114.647325 99.6276176,114.841333 L99.6276176,138.313777 C99.6276176,139.356415 98.9899573,140.292981 98.0198829,140.675144 L97.5144831,140.874247 C96.7198965,141.187276 95.8219965,140.796897 95.5089674,140.00231 C95.4378567,139.821804 95.4013485,139.629529 95.4013485,139.435521 L95.4013485,115.963335 C95.4013485,114.920542 96.039104,113.983836 97.0093233,113.601616 Z" id="Rectangle" stroke="#454545" stroke-width="0.5" opacity="0.5"></path>
                <path d="M97.8891501,47.4290369 L97.979814,47.3933197 C98.6185406,47.141692 99.3403155,47.4554977 99.5919433,48.0942243 C99.6491054,48.2393236 99.6784525,48.3938838 99.6784525,48.5498367 L99.6784525,67.0791588 C99.6784525,68.1217963 99.0407922,69.0583622 98.0707178,69.4405251 L97.979814,69.4763369 C97.3410873,69.7279646 96.6193124,69.414159 96.3676846,68.7754323 C96.3105225,68.630333 96.2811754,68.4757728 96.2811754,68.3198199 L96.2811754,49.7907558 C96.2811754,48.7479627 96.9189309,47.8112569 97.8891501,47.4290369 Z" id="Rectangle-Copy-2" fill="#585858"></path>
                <path d="M98.7216241,47.4290369 L98.8122879,47.3933197 C99.4510146,47.141692 100.172789,47.4554977 100.424417,48.0942243 C100.481579,48.2393236 100.510926,48.3938838 100.510926,48.5498367 L100.510926,67.0791588 C100.510926,68.1217963 99.8732661,69.0583622 98.9031917,69.4405251 L98.8122879,69.4763369 C98.1735612,69.7279646 97.4517863,69.414159 97.2001586,68.7754323 C97.1429964,68.630333 97.1136493,68.4757728 97.1136493,68.3198199 L97.1136493,49.7907558 C97.1136493,48.7479627 97.7514048,47.8112569 98.7216241,47.4290369 Z" id="Rectangle-Copy-3" fill="#CCCCCC"></path>
                <path d="M26.0268375,12.3265655 L69.6796448,26.0085401 C68.424084,26.1159343 67.7963036,26.49734 67.7963036,27.1527571 C67.7963036,27.9696432 67.7963036,28.7495025 67.7963036,29.4923347 C67.7963041,31.1491892 66.4531581,32.4923352 64.7963036,32.4923352 C64.481139,32.4923352 64.1679429,32.4426728 63.8682382,32.345175 L29.7303546,21.2396848 C28.082951,20.7037658 26.9677726,19.1682804 26.9677726,17.4358984 C26.9677726,16.5704187 26.9677726,15.6687441 26.9677726,14.7308746 C26.9677726,13.7073633 26.6541275,12.9059269 26.0268375,12.3265655 Z" id="Rectangle" fill="#000000"></path>
            </g>
            <g id="Group-5" transform="translate(118.945216, 264.923901)">
                <ellipse id="Oval" fill="#F5F5F5" cx="2.47475547" cy="1.6216282" rx="2.47475547" ry="1.6216282"></ellipse>
                <g id="Oval-Copy-5">
                    <mask id="mask-14" fill="white">
                        <use xlink:href="#path-13"></use>
                    </mask>
                    <use id="Mask" fill="#9F9F9F" xlink:href="#path-13"></use>
                    <ellipse fill="#F5F5F5" mask="url(#mask-14)" cx="2.6355769" cy="2.66672822" rx="2.31393404" ry="1.6216282"></ellipse>
                </g>
            </g>
        </g>
    </g>
</svg>