<?xml version="1.0" encoding="UTF-8"?>
<svg width="592px" height="330px" viewBox="0 0 592 330" version="1.1" xmlns="http://www.w3.org/2000/svg" xmlns:xlink="http://www.w3.org/1999/xlink">
    <title>decodificador_desligar_tomada copy 8</title>
    <g id="MESH-+-repetidor" stroke="none" stroke-width="1" fill="none" fill-rule="evenodd">
        <g id="Group-3-Copy-2" transform="translate(236.115359, 32.259132)">
            <g id="Group-2">
                <rect id="Rectangle" fill="#000000" x="0" y="0" width="136.380749" height="260.428868" rx="15"></rect>
                <rect id="Rectangle-Copy" fill="#686868" x="5.41193448" y="5.91362045" width="125.55688" height="248" rx="10.5"></rect>
                <rect id="Rectangle-Copy-3" fill="#000000" x="54.0949976" y="0" width="28.1907538" height="13.1698434" rx="6.58492169"></rect>
            </g>
            <path d="M176.683844,102.010033 C165.483844,102.890033 154.809844,103.728033 143.042844,104.653033 C145.810844,101.579033 147.951844,99.2010328 150.591844,96.2690328 C135.468844,92.8910328 122.638844,96.3900328 110.907844,106.042033 C116.560844,90.7290328 133.676844,82.4220328 157.587844,83.1840328 C158.482844,79.9920328 159.405844,76.7000328 160.563844,72.5720328 C163.556844,77.9980328 166.200844,82.7660328 168.818844,87.5480328 C171.387844,92.2390328 173.931844,96.9460328 176.683844,102.010033" id="Fill-77" fill="#00BCCE" fill-rule="nonzero"></path>
            <path d="M179.472905,147.127221 C168.272905,148.007221 157.598905,148.845221 145.831906,149.770221 C148.599906,146.696221 150.740906,144.318221 153.380905,141.386221 C138.257906,138.008221 125.427906,141.507221 113.696906,151.159221 C119.349906,135.846221 136.465906,127.539221 160.376905,128.301221 C161.271905,125.109221 162.194905,121.817221 163.352905,117.689221 C166.345905,123.115221 168.989905,127.883221 171.607905,132.665221 C174.176905,137.356221 176.720905,142.063221 179.472905,147.127221" id="Fill-77-Copy" fill="#00BCCE" fill-rule="nonzero" transform="translate(146.584905, 134.424221) rotate(-180.000000) translate(-146.584905, -134.424221) "></path>
            <rect id="Rectangle" fill="#D8D8D8" opacity="0.5" x="16.2319294" y="25.365627" width="105" height="20" rx="10"></rect>
            <circle id="Oval" fill="#FFFFFF" cx="26.156308" cy="35.3030574" r="9.11199643"></circle>
            <path d="M26.156308,40.3807666 C28.9260931,40.3807666 31.1714476,38.1354121 31.1714476,35.365627 C31.1714476,32.5958419 28.9260931,30.3504875 26.156308,30.3504875 C23.3865229,30.3504875 21.1411684,32.5958419 21.1411684,35.365627" id="Oval-Copy" stroke="#BF3535" stroke-linecap="round" transform="translate(26.156308, 35.365627) rotate(-225.000000) translate(-26.156308, -35.365627) "></path>
            <line x1="26.156308" y1="29.4860799" x2="26.156308" y2="36.4860799" id="Line" stroke="#BF3535" stroke-linecap="round"></line>
        </g>
    </g>
</svg>