<?xml version="1.0" encoding="UTF-8"?>
<svg width="605px" height="415px" viewBox="0 0 605 415" version="1.1" xmlns="http://www.w3.org/2000/svg" xmlns:xlink="http://www.w3.org/1999/xlink">
    <!-- Generator: Sketch 53 (72520) - https://sketchapp.com -->
    <title>69_ts_tv_cabo_coaxial copy 32</title>
    <desc>Created with Sketch.</desc>
    <defs>
        <radialGradient cx="50%" cy="50%" fx="50%" fy="50%" r="50%" gradientTransform="translate(0.500000,0.500000),scale(0.027897,1.000000),rotate(90.000000),scale(1.000000,18.616626),translate(-0.500000,-0.500000)" id="radialGradient-1">
            <stop stop-color="#040404" offset="0%"></stop>
            <stop stop-color="#151515" stop-opacity="0" offset="100%"></stop>
        </radialGradient>
    </defs>
    <g id="Page-1" stroke="none" stroke-width="1" fill="none" fill-rule="evenodd">
        <g id="Group-3-Copy" transform="translate(-845.000000, 62.693146)" fill="url(#radialGradient-1)" opacity="0.300000012">
            <g id="Group-2">
                <g id="Group-8">
                    <g id="Group" transform="translate(0.669006, 0.000000)">
                        <path d="M536.205564,287.011167 C755.387403,287.011167 933.06939,282.054373 933.06939,275.939858 C933.06939,269.825343 755.387403,264.86855 536.205564,264.86855 C317.023725,264.86855 139.341738,269.825343 139.341738,275.939858 C139.341738,282.054373 317.023725,287.011167 536.205564,287.011167 Z" id="Oval-Copy"></path>
                    </g>
                </g>
            </g>
        </g>
        <g id="Group-3-Copy" transform="translate(-3.000000, 47.000000)">
            <g id="Group-2" transform="translate(-0.000000, 15.693900)">
                <g id="Group-6" transform="translate(140.780631, 126.646363)">
                    <g id="Group-5" transform="translate(0.000000, 0.265787)">
                        <path d="M15.037497,185.292047 C13.6361434,185.292047 12.4893534,185.13808 12.4893534,184.949884 L12.4893534,176.47535 C12.4893534,176.287155 13.6361434,176.133188 15.037497,176.133188 L79.4655905,176.133188 C80.8669441,176.133188 82.0134206,176.287155 82.0134206,176.47535 L82.0134206,184.949884 C82.0134206,185.13808 80.8669441,185.292047 79.4655905,185.292047 L15.037497,185.292047 Z" id="Fill-48-Copy" fill="#2B2B2B" transform="translate(47.251387, 180.712617) scale(1, -1) translate(-47.251387, -180.712617) "></path>
                        <path d="M251.9189,185.292047 C250.517546,185.292047 249.370756,185.13808 249.370756,184.949884 L249.370756,176.47535 C249.370756,176.287155 250.517546,176.133188 251.9189,176.133188 L316.346993,176.133188 C317.748347,176.133188 318.894823,176.287155 318.894823,176.47535 L318.894823,184.949884 C318.894823,185.13808 317.748347,185.292047 316.346993,185.292047 L251.9189,185.292047 Z" id="Fill-48-Copy-2" fill="#2B2B2B" transform="translate(284.132790, 180.712617) scale(1, -1) translate(-284.132790, -180.712617) "></path>
                        <path d="M12.2982261,181.128929 C5.53480698,181.128929 0,178.084025 0,174.362198 L0,6.76673167 C0,3.04490436 5.53480698,0 12.2982261,0 L323.250582,0 C330.014001,0 335.547295,3.04490436 335.547295,6.76673167 L335.547295,174.362198 C335.547295,178.084025 330.014001,181.128929 323.250582,181.128929 L12.2982261,181.128929 Z" id="Fill-48" fill="#444444"></path>
                    </g>
                    <rect id="Rectangle" fill="#C1C1C1" x="0" y="120.961515" width="335.893132" height="11.9961833"></rect>
                    <g id="Group-14" transform="translate(145.953563, 42.252429)">
                        <path d="M0.64450117,36.2714004 C7.5405264,9.21171202 2.28735915,-6.04146034 20.5143124,2.26595802 C30.511605,6.82563485 42.4682115,18.1222048 43.128248,29.8717587 C44.0450659,46.0598321 -6.22078263,63.2090272 0.64450117,36.2714004 Z" id="Clip-14" fill="#C1C1C1"></path>
                        <path d="M18.143606,32.932339 C16.4121403,32.932339 15.4537312,31.1538571 15.4537312,29.3500587 C15.4537312,27.5480686 16.4121403,25.8184113 18.143606,25.8184113 C19.8705508,25.8184113 20.8262475,27.5480686 20.8262475,29.3500587 C20.8262475,31.1538571 19.8705508,32.932339 18.143606,32.932339 Z M18.143606,22.6357695 C14.3678355,22.6357695 11.8560801,25.624017 11.8560801,29.3708543 C11.8560801,33.1222125 14.3678355,36.1077475 18.143606,36.1077475 C21.9103348,36.1077475 24.4193777,33.1222125 24.4193777,29.3708543 C24.4193777,25.624017 21.9103348,22.6357695 18.143606,22.6357695 Z M28.3859258,22.6430028 C27.1191983,22.6430028 26.086648,25.6592792 26.086648,29.3780876 C26.086648,33.0987043 27.1191983,36.1122683 28.3859258,36.1122683 C29.6544618,36.1122683 30.6824912,33.0987043 30.6824912,29.3780876 C30.6824912,25.6592792 29.6544618,22.6430028 28.3859258,22.6430028 Z M28.3569927,20.97302 C29.6056371,20.97302 30.6119668,19.9612654 30.6119668,18.7144294 C30.6119668,17.4712099 29.6056371,16.4612636 28.3569927,16.4612636 C27.1137733,16.4612636 26.1056353,17.4712099 26.1056353,18.7144294 C26.1056353,19.9612654 27.1137733,20.97302 28.3569927,20.97302 L28.3569927,20.97302 Z" id="Fill-16" fill="#444444"></path>
                    </g>
                </g>
                <g id="Group-4" transform="translate(517.995259, 90.921771) rotate(-93.000000) translate(-517.995259, -90.921771) translate(431.495259, 9.921771)" stroke="#00C0D2" stroke-linecap="round" stroke-width="12">
                    <g id="icon_blarga_sconexao-copy-3" transform="translate(86.445031, 81.233240) rotate(-219.000000) translate(-86.445031, -81.233240) translate(6.945031, 42.233240)">
                        <g id="offline_icon-copy-3" transform="translate(0.792201, 0.792201)">
                            <g id="Group-9" transform="translate(0.339515, 0.839356)">
                                <path d="M156.077474,34.4754678 C136.867941,13.2989649 109.130842,-4.88498131e-15 78.2876022,-4.88498131e-15 C47.176943,-4.88498131e-15 19.2265193,13.5305764 5.32907052e-15,35.0280601" id="Oval"></path>
                                <path d="M131.961325,55.1506478 C118.749315,40.5857878 99.6721816,31.4389724 78.4586949,31.4389724 C57.0612812,31.4389724 37.8374268,40.7450864 24.6137343,55.5307119" id="Oval-Copy-2"></path>
                                <path d="M107.393356,75.0897667 C100.228846,67.1916426 89.8838398,62.2315756 78.3803479,62.2315756 C66.7771173,62.2315756 56.3525484,67.2780259 49.1817027,75.2958651" id="Oval-Copy-3"></path>
                            </g>
                        </g>
                    </g>
                </g>
                <g id="Group-4-Copy" transform="translate(99.599494, 95.101935) rotate(-190.000000) translate(-99.599494, -95.101935) translate(13.099494, 14.101935)" stroke="#00C0D2" stroke-linecap="round" stroke-width="12">
                    <g id="icon_blarga_sconexao-copy-4" transform="translate(86.445031, 81.233240) rotate(-219.000000) translate(-86.445031, -81.233240) translate(6.945031, 42.233240)">
                        <g id="offline_icon-copy-4" transform="translate(0.792201, 0.792201)">
                            <g id="Group-9" transform="translate(0.339515, 0.839356)">
                                <path d="M156.077474,34.4754678 C136.867941,13.2989649 109.130842,-4.88498131e-15 78.2876022,-4.88498131e-15 C47.176943,-4.88498131e-15 19.2265193,13.5305764 5.32907052e-15,35.0280601" id="Oval"></path>
                                <path d="M131.961325,55.1506478 C118.749315,40.5857878 99.6721816,31.4389724 78.4586949,31.4389724 C57.0612812,31.4389724 37.8374268,40.7450864 24.6137343,55.5307119" id="Oval-Copy-2"></path>
                                <path d="M107.393356,75.0897667 C100.228846,67.1916426 89.8838398,62.2315756 78.3803479,62.2315756 C66.7771173,62.2315756 56.3525484,67.2780259 49.1817027,75.2958651" id="Oval-Copy-3"></path>
                            </g>
                        </g>
                    </g>
                </g>
            </g>
            <path d="M28.9223319,9.64114776 C28.9223319,6.13108687 29.9449327,3.77495929 31.9901651,2.57269434 C34.0353974,1.37042939 35.9838665,0.769305935 37.8356309,0.769305935 C39.6873953,0.769305935 41.6358645,1.349701 43.6810968,2.51050854 C45.7263291,3.67131607 46.74893,5.93762061 46.74893,9.30949012 C46.74893,11.0507014 46.4103662,12.5707837 45.7332284,13.8697826 C45.0560907,15.1687816 44.0127615,16.5368556 42.6032095,17.9740459 L34.8507122,26.0167436 L46.74893,26.0167436 L46.74893,30.2039213 L28.9223319,30.2039213 L28.9223319,26.0167436 L39.3280903,15.2378704 C40.2954299,14.2152542 41.0485616,13.2548386 41.587508,12.3565947 C42.1264543,11.4583507 42.3959235,10.4702972 42.3959235,9.39240453 C42.3959235,7.8999377 41.9744461,6.78751382 41.1314787,6.05509954 C40.2885113,5.32268526 39.1899064,4.95648362 37.8356309,4.95648362 C36.4813555,4.95648362 35.3827505,5.35032312 34.5397832,6.13801395 C33.6968158,6.92570478 33.2753384,8.12104223 33.2753384,9.72406217 L33.2753384,10.097177 L28.9223319,10.097177 L28.9223319,9.64114776 Z M51.4173075,30.2039213 L51.4173075,24.6486559 L56.9725729,24.6486559 L56.9725729,30.2039213 L51.4173075,30.2039213 Z M79.965035,23.0318249 L76.938659,23.0318249 L76.938659,30.2039213 L72.5856525,30.2039213 L72.5856525,23.0318249 L59.6924618,23.0318249 L59.6924618,19.010476 L72.5856525,1.18387798 L76.938659,1.18387798 L76.938659,19.010476 L79.965035,19.010476 L79.965035,23.0318249 Z M64.7502408,19.010476 L72.5856525,19.010476 L72.5856525,8.19014559 L64.7502408,19.010476 Z M101.448751,0.769305935 C104.378408,0.769305935 106.789811,1.6053512 108.683033,3.27746682 C110.576255,4.94958244 111.619584,7.20897751 111.813052,10.0557198 L107.377131,10.0557198 C107.156025,8.36978505 106.44435,7.13299081 105.242085,6.34529998 C104.03982,5.55760915 102.775388,5.16376964 101.448751,5.16376964 C100.011561,5.16376964 98.6573056,5.63361326 97.3859449,6.5733146 C96.1145843,7.51301594 95.4789135,8.99164146 95.4789135,11.0092355 L95.4789135,20.3785638 C95.4789135,22.3961579 96.1145843,23.8747834 97.3859449,24.8144847 C98.6573056,25.7541861 100.011561,26.2240297 101.448751,26.2240297 C102.885941,26.2240297 104.240196,25.7541861 105.511557,24.8144847 C106.782918,23.8747834 107.418588,22.3961579 107.418588,20.3785638 L107.418588,18.5129896 L101.448751,18.5129896 L101.448751,14.2428975 L111.854509,14.2428975 L111.854509,20.3785638 C111.854509,23.5016888 110.894094,25.9890963 108.973234,27.8408607 C107.052374,29.6926251 104.544238,30.6184934 101.448751,30.6184934 C98.3532642,30.6184934 95.8451284,29.6926251 93.9242683,27.8408607 C92.0034082,25.9890963 91.0429926,23.5016888 91.0429926,20.3785638 L91.0429926,11.0092355 C91.0429926,7.88611047 92.0034082,5.39870306 93.9242683,3.54693866 C95.8451284,1.69517425 98.3532642,0.769305935 101.448751,0.769305935 Z M132.774111,13.3722962 L132.774111,1.18387798 L137.210032,1.18387798 L137.210032,30.2039213 L132.774111,30.2039213 L132.774111,17.7667599 L120.834436,17.7667599 L120.834436,30.2039213 L116.398515,30.2039213 L116.398515,1.18387798 L120.834436,1.18387798 L120.834436,13.3722962 L132.774111,13.3722962 Z M156.761546,12.9162669 L146.521617,26.0996581 L157.051747,26.0996581 L157.051747,30.2039213 L141.090723,30.2039213 L141.090723,26.0996581 L151.330652,12.9162669 L141.380923,12.9162669 L141.380923,8.81200366 L156.761546,8.81200366 L156.761546,12.9162669 Z" id="2.4GHz" fill="#535353" fill-rule="nonzero"></path>
            <path d="M469.724034,22.2026808 L469.724034,20.4614782 C469.724034,18.8584583 469.302557,17.6631208 468.45959,16.87543 C467.616622,16.0877392 466.518017,15.6938997 465.163742,15.6938997 C464.168764,15.6938997 463.305081,15.9080931 462.572666,16.3364863 C461.840252,16.7648796 461.308223,17.4074598 460.976564,18.2642464 L456.623558,18.2642464 L456.623558,1.18387798 L472.957696,1.18387798 L472.957696,5.37105567 L460.976564,5.37105567 L460.976564,12.9991813 C461.418777,12.556969 462.088995,12.1976768 462.987239,11.921294 C463.885482,11.6449113 464.762985,11.506722 465.619771,11.506722 C467.305706,11.506722 469.136714,12.1078454 471.112851,13.3101104 C473.088987,14.5123753 474.077041,16.8685029 474.077041,20.3785638 L474.077041,22.2026808 C474.077041,25.2705293 473.158082,27.4401013 471.320137,28.711462 C469.482191,29.9828226 467.526813,30.6184934 465.453942,30.6184934 C463.519263,30.6184934 461.515518,30.0311889 459.442648,28.8565622 C457.369777,27.6819355 456.305719,25.3810836 456.250443,21.9539376 L456.250443,21.9124804 L460.603449,21.9124804 L460.603449,21.9539376 C460.631088,23.4464044 461.100931,24.5657377 462.012994,25.3119712 C462.925057,26.0582046 464.030572,26.4313157 465.329571,26.4313157 C466.62857,26.4313157 467.685718,26.078933 468.501047,25.374157 C469.316376,24.669381 469.724034,23.6122328 469.724034,22.2026808 Z M478.372303,30.2039213 L478.372303,24.6486559 L483.927569,24.6486559 L483.927569,30.2039213 L478.372303,30.2039213 Z M502.525567,21.6637371 L502.525567,9.72406217 C502.525567,8.12104223 502.10409,6.92570478 501.261123,6.13801395 C500.418155,5.35032312 499.31955,4.95648362 497.965275,4.95648362 C496.610999,4.95648362 495.512394,5.35032312 494.669427,6.13801395 C493.82646,6.92570478 493.404982,8.12104223 493.404982,9.72406217 L493.404982,21.6637371 C493.404982,23.2667571 493.82646,24.4620945 494.669427,25.2497854 C495.512394,26.0374762 496.610999,26.4313157 497.965275,26.4313157 C499.31955,26.4313157 500.418155,26.0374762 501.261123,25.2497854 C502.10409,24.4620945 502.525567,23.2667571 502.525567,21.6637371 Z M489.051976,21.7466516 L489.051976,9.64114776 C489.051976,6.13108687 490.074577,3.77495929 492.119809,2.57269434 C494.165041,1.37042939 496.11351,0.769305935 497.965275,0.769305935 C499.817039,0.769305935 501.765508,1.37042939 503.810741,2.57269434 C505.855973,3.77495929 506.878574,6.13108687 506.878574,9.64114776 L506.878574,21.7466516 C506.878574,25.2567124 505.855973,27.61284 503.810741,28.815105 C501.765508,30.0173699 499.817039,30.6184934 497.965275,30.6184934 C496.11351,30.6184934 494.165041,30.0173699 492.119809,28.815105 C490.074577,27.61284 489.051976,25.2567124 489.051976,21.7466516 Z M529.854749,0.769305935 C532.784406,0.769305935 535.19581,1.6053512 537.089031,3.27746682 C538.982253,4.94958244 540.025582,7.20897751 540.21905,10.0557198 L535.783129,10.0557198 C535.562023,8.36978505 534.850348,7.13299081 533.648083,6.34529998 C532.445818,5.55760915 531.181386,5.16376964 529.854749,5.16376964 C528.417559,5.16376964 527.063304,5.63361326 525.791943,6.5733146 C524.520582,7.51301594 523.884912,8.99164146 523.884912,11.0092355 L523.884912,20.3785638 C523.884912,22.3961579 524.520582,23.8747834 525.791943,24.8144847 C527.063304,25.7541861 528.417559,26.2240297 529.854749,26.2240297 C531.291939,26.2240297 532.646195,25.7541861 533.917555,24.8144847 C535.188916,23.8747834 535.824587,22.3961579 535.824587,20.3785638 L535.824587,18.5129896 L529.854749,18.5129896 L529.854749,14.2428975 L540.260508,14.2428975 L540.260508,20.3785638 C540.260508,23.5016888 539.300092,25.9890963 537.379232,27.8408607 C535.458372,29.6926251 532.950236,30.6184934 529.854749,30.6184934 C526.759262,30.6184934 524.251127,29.6926251 522.330267,27.8408607 C520.409406,25.9890963 519.448991,23.5016888 519.448991,20.3785638 L519.448991,11.0092355 C519.448991,7.88611047 520.409406,5.39870306 522.330267,3.54693866 C524.251127,1.69517425 526.759262,0.769305935 529.854749,0.769305935 Z M561.180109,13.3722962 L561.180109,1.18387798 L565.61603,1.18387798 L565.61603,30.2039213 L561.180109,30.2039213 L561.180109,17.7667599 L549.240434,17.7667599 L549.240434,30.2039213 L544.804513,30.2039213 L544.804513,1.18387798 L549.240434,1.18387798 L549.240434,13.3722962 L561.180109,13.3722962 Z M585.167544,12.9162669 L574.927615,26.0996581 L585.457745,26.0996581 L585.457745,30.2039213 L569.496721,30.2039213 L569.496721,26.0996581 L579.73665,12.9162669 L569.786921,12.9162669 L569.786921,8.81200366 L585.167544,8.81200366 L585.167544,12.9162669 Z" id="5.0GHz" fill="#535353" fill-rule="nonzero"></path>
        </g>
    </g>
</svg>