<?xml version="1.0" encoding="UTF-8"?>
<svg width="604px" height="414px" viewBox="0 0 604 414" version="1.1" xmlns="http://www.w3.org/2000/svg" xmlns:xlink="http://www.w3.org/1999/xlink">
    <!-- Generator: Sketch 53 (72520) - https://sketchapp.com -->
    <title>69_ts_tv_cabo_coaxial copy 29</title>
    <desc>Created with Sketch.</desc>
    <g id="Page-1" stroke="none" stroke-width="1" fill="none" fill-rule="evenodd">
        <g id="Group-3-Copy" transform="translate(263.417927, 31.908159)">
            <g id="Group-2" transform="translate(0.604229, 0.000000)">
                <rect id="Rectangle" fill="#000000" x="0" y="0" width="184.157171" height="351.661389" rx="18"></rect>
                <rect id="Rectangle-Copy" fill="#686868" x="7.30782424" y="7.98525906" width="169.541522" height="322.658387" rx="10.5"></rect>
                <rect id="Rectangle-Copy-3" fill="#000000" x="73.045366" y="0" width="38.066439" height="17.7834564" rx="8.89172819"></rect>
            </g>
        </g>
        <g id="Group-2-Copy" transform="translate(52.904496, 0.000000)">
            <g id="Group-4" transform="translate(0.000000, 0.000000)" stroke="#00C0D2" stroke-linecap="round" stroke-width="15">
                <g id="icon_blarga_sconexao-copy-2" transform="translate(102.300066, 96.168964) rotate(-219.000000) translate(-102.300066, -96.168964) translate(8.278618, 50.045235)">
                    <g id="offline_icon-copy-2" transform="translate(0.937202, 0.937202)">
                        <g id="Group-9" transform="translate(0.401658, 0.992988)">
                            <path d="M184.645271,40.7857195 C161.919701,15.7331542 129.105714,-4.88498131e-15 92.6170516,-4.88498131e-15 C55.8120219,-4.88498131e-15 22.7456645,16.0071589 5.32907052e-15,41.4394561" id="Oval"></path>
                            <path d="M156.114998,65.2452017 C140.484715,48.0144479 117.915779,37.1934361 92.8194605,37.1934361 C67.5055497,37.1934361 44.763038,48.202904 29.1189337,65.6948312" id="Oval-Copy-2"></path>
                            <path d="M127.050207,88.8338971 C118.574333,79.490132 106.335818,73.6221941 92.7267731,73.6221941 C78.9997336,73.6221941 66.6670933,79.5923266 58.1837247,89.0777189" id="Oval-Copy-3"></path>
                        </g>
                    </g>
                </g>
            </g>
            <path d="M256.282362,196.974342 L256.282362,195.186161 C256.282362,193.53989 255.849513,192.312302 254.983802,191.503358 C254.11809,190.694415 252.989844,190.289949 251.599029,190.289949 C250.577206,190.289949 249.69022,190.509922 248.938045,190.949874 C248.18587,191.389825 247.639486,192.049743 247.298879,192.929646 L242.828425,192.929646 L242.828425,175.388437 L259.60327,175.388437 L259.60327,179.688588 L247.298879,179.688588 L247.298879,187.522526 C247.753022,187.068382 248.441323,186.699396 249.363803,186.415556 C250.286282,186.131716 251.187459,185.989799 252.067363,185.989799 C253.798785,185.989799 255.679195,186.607141 257.70865,187.841844 C259.738104,189.076547 260.752816,191.496244 260.752816,195.101009 L260.752816,196.974342 C260.752816,200.124963 259.809063,202.353072 257.921528,203.658735 C256.033994,204.964398 254.025858,205.617219 251.89706,205.617219 C249.910181,205.617219 247.852374,205.014069 245.723576,203.80775 C243.594778,202.601431 242.502011,200.238501 242.445243,196.718888 L242.445243,196.676312 L246.915697,196.676312 L246.915697,196.718888 C246.944081,198.251622 247.426601,199.401156 248.363272,200.167523 C249.299944,200.933891 250.435286,201.317069 251.769332,201.317069 C253.103379,201.317069 254.18905,200.955178 255.026377,200.231387 C255.863705,199.507596 256.282362,198.421925 256.282362,196.974342 Z M265.163968,205.191462 L265.163968,199.486311 L270.869118,199.486311 L270.869118,205.191462 L265.163968,205.191462 Z M289.968904,196.420857 L289.968904,184.159041 C289.968904,182.512771 289.536055,181.285182 288.670344,180.476239 C287.804633,179.667296 286.676387,179.26283 285.285572,179.26283 C283.894757,179.26283 282.766511,179.667296 281.9008,180.476239 C281.035088,181.285182 280.602239,182.512771 280.602239,184.159041 L280.602239,196.420857 C280.602239,198.067128 281.035088,199.294717 281.9008,200.10366 C282.766511,200.912603 283.894757,201.317069 285.285572,201.317069 C286.676387,201.317069 287.804633,200.912603 288.670344,200.10366 C289.536055,199.294717 289.968904,198.067128 289.968904,196.420857 Z M276.131786,196.506009 L276.131786,184.07389 C276.131786,180.469125 277.181977,178.049427 279.282391,176.814725 C281.382805,175.580022 283.383845,174.962679 285.285572,174.962679 C287.187298,174.962679 289.188338,175.580022 291.288753,176.814725 C293.389167,178.049427 294.439358,180.469125 294.439358,184.07389 L294.439358,196.506009 C294.439358,200.110774 293.389167,202.530471 291.288753,203.765174 C289.188338,204.999877 287.187298,205.617219 285.285572,205.617219 C283.383845,205.617219 281.382805,204.999877 279.282391,203.765174 C277.181977,202.530471 276.131786,200.110774 276.131786,196.506009 Z M318.035448,174.962679 C321.044149,174.962679 323.520614,175.821282 325.464916,177.538512 C327.409218,179.255743 328.480697,181.576098 328.679385,184.499647 L324.12378,184.499647 C323.896708,182.768225 323.165832,181.498061 321.931129,180.689118 C320.696426,179.880175 319.397878,179.475709 318.035448,179.475709 C316.559481,179.475709 315.168687,179.958229 313.863024,180.923284 C312.557361,181.88834 311.90454,183.406859 311.90454,185.47889 L311.90454,195.101009 C311.90454,197.173039 312.557361,198.691559 313.863024,199.656614 C315.168687,200.62167 316.559481,201.10419 318.035448,201.10419 C319.511414,201.10419 320.902208,200.62167 322.207871,199.656614 C323.513534,198.691559 324.166356,197.173039 324.166356,195.101009 L324.166356,193.1851 L318.035448,193.1851 L318.035448,188.799798 L328.721961,188.799798 L328.721961,195.101009 C328.721961,198.308398 327.735633,200.862918 325.762946,202.764644 C323.79026,204.666371 321.214453,205.617219 318.035448,205.617219 C314.856442,205.617219 312.280635,204.666371 310.307949,202.764644 C308.335263,200.862918 307.348934,198.308398 307.348934,195.101009 L307.348934,185.47889 C307.348934,182.2715 308.335263,179.716981 310.307949,177.815255 C312.280635,175.913528 314.856442,174.962679 318.035448,174.962679 Z M337.646143,191.822676 L337.646143,205.191462 L333.175689,205.191462 L333.175689,175.388437 L337.646143,175.388437 L337.646143,185.138284 C337.958366,184.513836 338.604092,183.939069 339.583339,183.413966 C340.562586,182.888862 341.619874,182.626314 342.755233,182.626314 C344.628575,182.626314 346.55156,183.300424 348.524247,184.648663 C350.496933,185.996901 351.483261,188.359832 351.483261,191.737525 L351.483261,205.191462 L347.012808,205.191462 L347.012808,191.822676 C347.012808,190.176406 346.579958,188.955913 345.714247,188.161162 C344.848536,187.366411 343.72029,186.969041 342.329475,186.969041 C340.93866,186.969041 339.810414,187.366411 338.944703,188.161162 C338.078992,188.955913 337.646143,190.176406 337.646143,191.822676 Z M371.05138,187.437374 L360.53517,200.976463 L371.349411,200.976463 L371.349411,205.191462 L354.957747,205.191462 L354.957747,200.976463 L365.473957,187.437374 L355.255777,187.437374 L355.255777,183.222375 L371.05138,183.222375 L371.05138,187.437374 Z" id="5.0Ghz" fill="#00C0D2" fill-rule="nonzero"></path>
        </g>
    </g>
</svg>