<?xml version="1.0" encoding="UTF-8"?>
<svg width="605px" height="415px" viewBox="0 0 605 415" version="1.1" xmlns="http://www.w3.org/2000/svg" xmlns:xlink="http://www.w3.org/1999/xlink">
    <!-- Generator: Sketch 53 (72520) - https://sketchapp.com -->
    <title>69_ts_tv_cabo_coaxial copy 31</title>
    <desc>Created with Sketch.</desc>
    <defs>
        <linearGradient x1="50%" y1="0%" x2="50%" y2="100%" id="linearGradient-1">
            <stop stop-color="#FFBF00" offset="0%"></stop>
            <stop stop-color="#FF8B00" offset="100%"></stop>
        </linearGradient>
    </defs>
    <g id="Page-1" stroke="none" stroke-width="1" fill="none" fill-rule="evenodd">
        <g id="Group-4-Copy" transform="translate(27.386819, 48.693146)">
            <g id="Group-3" transform="translate(108.500000, 5.000000)">
                <rect id="Rectangle" fill="#DBD8D3" x="30.325" y="0.6" width="287.079995" height="310.5"></rect>
                <rect id="Rectangle-Copy" stroke="#885050" stroke-width="9.9" fill="#BDE1E8" transform="translate(66.550000, 191.400000) scale(-1, 1) translate(-66.550000, -191.400000) " x="5.8" y="76.65" width="121.5" height="229.5"></rect>
                <rect id="Rectangle-Copy-8" stroke="#885050" stroke-width="9.9" fill="#BDE1E8" transform="translate(286.652985, 260.294147) scale(-1, 1) rotate(-45.000000) translate(-286.652985, -260.294147) " x="224.273912" y="260.722894" width="124.758146" height="1"></rect>
                <rect id="Rectangle-Copy-9" stroke="#885050" stroke-width="9.9" fill="#BDE1E8" transform="translate(286.652985, 260.294147) scale(-1, 1) rotate(-315.000000) translate(-286.652985, -260.294147) " x="224.273912" y="260.722894" width="124.758146" height="1"></rect>
                <rect id="Rectangle-Copy-7" stroke="#CBAD74" stroke-width="9.9" fill="#BDE1E8" transform="translate(285.021736, 212.685303) scale(-1, 1) translate(-285.021736, -212.685303) " x="202.446736" y="213.11405" width="165.15" height="1"></rect>
                <rect id="Rectangle-Copy-5" fill="#BDE1E8" opacity="0.889999986" transform="translate(282.843050, 167.244930) scale(-1, 1) translate(-282.843050, -167.244930) " x="219.236101" y="126.325809" width="127.213899" height="81.8382408"></rect>
                <path d="M224.300348,197.452072 L233.438067,196.106615 C235.568933,195.792862 237.742356,195.941101 239.810888,196.541275 L240.185801,196.650054 C242.005989,197.178172 243.920562,197.296547 245.791943,196.996673 L247.006653,196.802026 C248.089762,196.628466 249.184953,196.541275 250.281879,196.541275 C250.568681,196.541275 250.855483,196.541275 251.142285,196.541275 C256.661351,195.461102 262.180417,194.380929 267.699483,193.300756 L267.699483,193.300756 C270.39399,192.773396 273.166488,192.787349 275.85555,193.341802 L281.71754,194.550476 C283.092856,194.83405 284.493458,194.976941 285.897705,194.976941 L288.475077,194.976941 C288.925882,194.976941 289.376567,194.991667 289.82641,195.021097 L298.11703,195.56348 C298.799333,195.608118 299.483429,195.618921 300.166801,195.59585 L318.15022,194.988727 C318.38295,194.98087 318.615795,194.976941 318.848657,194.976941 L325.622517,194.976941 C327.465478,194.976941 329.300185,194.730822 331.07799,194.245111 L333.111286,193.689597 C335.954942,192.912687 338.957372,192.931827 341.790892,193.744929 L341.790892,193.744929 L341.790892,203.302372 L224.300348,203.302372 L224.300348,197.452072 Z" id="Path-2" fill="#FF7E00"></path>
                <rect id="Rectangle-Copy-6" fill="#88C3CE" opacity="0.699999988" transform="translate(283.045620, 174.132306) scale(-1, 1) translate(-283.045620, -174.132306) " x="224.300348" y="144.96224" width="117.490544" height="58.3401321"></rect>
                <g id="Rectangle-Copy-3-+-Rectangle-Copy-4-Mask" transform="translate(5.300000, 77.638241)" fill="#98B8BE">
                    <polygon id="Rectangle-Copy-46" transform="translate(51.811183, 87.027182) scale(-1, 1) rotate(-30.000000) translate(-51.811183, -87.027182) " points="48.7202494 -10.6093378 54.7001297 -7.15685231 54.9021167 174.399468 48.976059 184.663701"></polygon>
                    <polygon id="Rectangle-Copy-47" transform="translate(61.191584, 106.399310) scale(-1, 1) rotate(-30.000000) translate(-61.191584, -106.399310) " points="58.2110341 -0.0675096074 64.0562743 -10.1917626 64.1721338 212.723254 58.2444041 222.990383"></polygon>
                </g>
                <circle id="Oval" fill="#FFFFFF" cx="239.35" cy="156.3" r="3.6"></circle>
                <circle id="Oval-Copy" fill="#FFFFFF" cx="243.828225" cy="168.166705" r="2.6782246"></circle>
                <circle id="Oval-Copy-4" fill="#FFFFFF" cx="238.910888" cy="177.249643" r="2.2391123"></circle>
                <circle id="Oval-Copy-5" fill="#FFFFFF" cx="241.391332" cy="185.213025" r="1.55866845"></circle>
                <g id="Group-2" transform="translate(276.404995, 165.444930)" fill="url(#linearGradient-1)">
                    <path d="M0.0498861923,9.5656013 C1.86881482,5.12391313 9.2460009,1.8 18.0700052,1.8 C24.1386345,1.8 29.5229365,3.37216979 32.8854892,5.79886816 C34.0974628,3.12197612 36.7929424,1.09962956 40.0856763,0.506488437 L40.0856763,17.4569329 C37.1825946,16.9339823 34.7437764,15.3000679 33.376608,13.0860974 C30.0619905,15.7228952 24.44339,17.4569329 18.0700052,17.4569329 C9.2460009,17.4569329 1.86881482,14.1330197 0.0498861923,9.69133155 L-4.26325641e-14,9.69133155 C0.00805751063,9.67035219 0.0162387223,9.64939707 0.0245432077,9.62846643 C0.0162387223,9.60753578 0.00805751065,9.58658067 -4.71844785e-14,9.5656013 L0.0498861923,9.5656013 Z" id="Combined-Shape"></path>
                </g>
                <path d="M292.242402,178.795666 C292.553563,174.291121 293.890412,170.904334 295.492402,170.904334 C297.094393,170.904334 298.431242,174.291121 298.742402,178.795666 L292.242402,178.795666 Z" id="Combined-Shape-Copy-2" fill="#FF8B00" transform="translate(295.492402, 174.850000) rotate(-90.000000) translate(-295.492402, -174.850000) "></path>
                <ellipse id="Oval" fill="#484848" cx="283.785868" cy="172.95" rx="1.23586823" ry="1.35"></ellipse>
            </g>
            <g id="Group-9" transform="translate(511.867925, 78.632075) rotate(-270.000000) translate(-511.867925, -78.632075) translate(433.367925, 40.632075)" stroke-linecap="round" stroke-width="10">
                <path d="M156.127132,34.4864366 C136.911487,13.3031961 109.165563,-4.88498131e-15 78.3125102,-4.88498131e-15 C47.1919529,-4.88498131e-15 19.2326364,13.5348813 5.32907052e-15,35.0392047" id="Oval" stroke="#636363" opacity="0.1"></path>
                <path d="M132.00331,55.1681945 C118.787096,40.5987005 99.7038934,31.4489751 78.4836574,31.4489751 C57.0794358,31.4489751 37.8494652,40.7580499 24.6215654,55.5483796" id="Oval-Copy-2" stroke="#636363" opacity="0.1"></path>
                <path d="M103.22328,75.1434275 C97.0913811,68.3836496 88.2373869,64.1384705 78.3918781,64.1384705 C68.4610058,64.1384705 59.5389162,68.4575826 53.401595,75.3198212" id="Oval-Copy-3" stroke="#00C0D2"></path>
            </g>
            <g id="icon_blarga_sconexao-copy-4" transform="translate(39.500000, 84.500000) rotate(-270.000000) translate(-39.500000, -84.500000) translate(-40.000000, 45.500000)" stroke="#00C0D2" stroke-linecap="round" stroke-width="10">
                <g id="offline_icon-copy-4" transform="translate(0.792453, 0.792453)">
                    <g id="Group-9" transform="translate(0.339623, 0.839623)">
                        <path d="M156.127132,34.4864366 C136.911487,13.3031961 109.165563,-4.88498131e-15 78.3125102,-4.88498131e-15 C47.1919529,-4.88498131e-15 19.2326364,13.5348813 5.32907052e-15,35.0392047" id="Oval"></path>
                        <path d="M132.00331,55.1681945 C118.787096,40.5987005 99.7038934,31.4489751 78.4836574,31.4489751 C57.0794358,31.4489751 37.8494652,40.7580499 24.6215654,55.5483796" id="Oval-Copy-2"></path>
                        <path d="M107.427525,75.1136573 C100.260735,67.2130203 89.9124373,62.2513752 78.4052854,62.2513752 C66.7983631,62.2513752 56.3704775,67.2994311 49.1973503,75.3198212" id="Oval-Copy-3"></path>
                    </g>
                </g>
            </g>
        </g>
    </g>
</svg>