<?xml version="1.0" encoding="UTF-8"?>
<svg width="604px" height="415px" viewBox="0 0 604 415" version="1.1" xmlns="http://www.w3.org/2000/svg" xmlns:xlink="http://www.w3.org/1999/xlink">
    <!-- Generator: Sketch 53 (72520) - https://sketchapp.com -->
    <title>69_ts_tv_cabo_coaxial copy 45</title>
    <desc>Created with Sketch.</desc>
    <defs>
        <radialGradient cx="50%" cy="0%" fx="50%" fy="0%" r="201.342282%" gradientTransform="translate(0.500000,0.000000),scale(1.000000,0.496667),rotate(90.000000),translate(-0.500000,-0.000000)" id="radialGradient-1">
            <stop stop-color="#00C0D2" offset="0%"></stop>
            <stop stop-color="#56FF00" stop-opacity="0" offset="100%"></stop>
        </radialGradient>
        <radialGradient cx="50%" cy="0%" fx="50%" fy="0%" r="480.084746%" gradientTransform="translate(0.500000,0.000000),scale(1.000000,0.208297),rotate(90.000000),translate(-0.500000,-0.000000)" id="radialGradient-2">
            <stop stop-color="#00C0D2" offset="0%"></stop>
            <stop stop-color="#56FF00" stop-opacity="0" offset="100%"></stop>
        </radialGradient>
        <radialGradient cx="50%" cy="50%" fx="50%" fy="50%" r="50%" id="radialGradient-3">
            <stop stop-color="#00C0D2" offset="0%"></stop>
            <stop stop-color="#56FF00" stop-opacity="0" offset="100%"></stop>
        </radialGradient>
    </defs>
    <g id="Page-1" stroke="none" stroke-width="1" fill="none" fill-rule="evenodd">
        <g id="Group-45" transform="translate(40.844158, 231.000000)" fill="url(#radialGradient-1)">
            <polygon id="Triangle" transform="translate(150.500000, 74.815000) rotate(-90.000000) translate(-150.500000, -74.815000) " points="150.5 -75.185 225 224.815 76 224.815"></polygon>
        </g>
        <polygon id="Triangle-Copy" fill="url(#radialGradient-2)" transform="translate(324.291920, 82.350000) rotate(-90.000000) translate(-324.291920, -82.350000) " points="324.29192 -200.9 383.29192 365.6 265.29192 365.6"></polygon>
        <circle id="Oval" fill="url(#radialGradient-3)" cx="44.04192" cy="82.35" r="30.5"></circle>
        <circle id="Oval-Copy-17" fill="url(#radialGradient-3)" cx="44.04192" cy="306.5" r="30.5"></circle>
        <g id="Group-3-Copy" transform="translate(501.541920, 7.000000)">
            <g id="Group-2" transform="translate(0.258991, 0.000000)">
                <rect id="Rectangle" fill="#000000" x="0" y="0" width="78.9352602" height="150.732568" rx="9.6"></rect>
                <rect id="Rectangle-Copy" fill="#686868" x="3.13235159" y="3.42272038" width="72.670557" height="138.301016" rx="5.6"></rect>
                <rect id="Rectangle-Copy-3" fill="#000000" x="31.3094241" y="0" width="16.316412" height="7.6225202" rx="3.8112601"></rect>
            </g>
        </g>
        <g id="icon_blarga_sconexao-copy-8" transform="translate(513.041920, 52.693146)">
            <g id="offline_icon-copy-12" transform="translate(0.285283, 0.285283)">
                <g id="Group-9" transform="translate(0.122264, 0.302264)">
                    <circle id="Oval" fill="#00C0D2" cx="28.3198909" cy="33.8075684" r="3.6"></circle>
                    <path d="M56.2057675,12.4151172 C49.2881354,4.78915058 39.2996025,-4.88498131e-15 28.1925037,-4.88498131e-15 C16.989103,-4.88498131e-15 6.92374912,4.87255725 5.32907052e-15,12.6141137" id="Oval" stroke="#A2A2A2" stroke-width="4.05" stroke-linecap="round"></path>
                    <path d="M47.5211915,19.86055 C42.7633547,14.6155322 35.8934016,11.321631 28.2541167,11.321631 C20.5485969,11.321631 13.6258075,14.672898 8.86376355,19.9974167" id="Oval-Copy-2" stroke="#00C0D2" stroke-width="4.05" stroke-linecap="round"></path>
                    <path d="M38.6739089,27.0409166 C36.0938645,24.1966873 32.3684774,22.4104951 28.2259027,22.4104951 C24.0474107,22.4104951 20.2933719,24.2277952 17.7110461,27.1151356" id="Oval-Copy-3" stroke="#00C0D2" stroke-width="4.05" stroke-linecap="round"></path>
                </g>
            </g>
        </g>
        <path d="M321.949715,75.592 C321.949715,71.5279797 323.133703,68.800007 325.501715,67.408 C327.869727,66.015993 330.125704,65.32 332.269715,65.32 C334.413726,65.32 336.669703,65.9919933 339.037715,67.336 C341.405727,68.6800067 342.589715,71.3039805 342.589715,75.208 C342.589715,77.2240101 342.197719,78.9839925 341.413715,80.488 C340.629711,81.9920075 339.421723,83.5759917 337.789715,85.24 L328.813715,94.552 L342.589715,94.552 L342.589715,99.4 L321.949715,99.4 L321.949715,94.552 L333.997715,82.072 C335.11772,80.8879941 335.989712,79.7760052 336.613715,78.736 C337.237718,77.6959948 337.549715,76.5520062 337.549715,75.304 C337.549715,73.5759914 337.06172,72.2880042 336.085715,71.44 C335.10971,70.5919958 333.837723,70.168 332.269715,70.168 C330.701707,70.168 329.42972,70.6239954 328.453715,71.536 C327.47771,72.4480046 326.989715,73.8319907 326.989715,75.688 L326.989715,76.12 L321.949715,76.12 L321.949715,75.592 Z M347.994858,99.4 L347.994858,92.968 L354.426858,92.968 L354.426858,99.4 L347.994858,99.4 Z M381.048001,91.096 L377.544001,91.096 L377.544001,99.4 L372.504001,99.4 L372.504001,91.096 L357.576001,91.096 L357.576001,86.44 L372.504001,65.8 L377.544001,65.8 L377.544001,86.44 L381.048001,86.44 L381.048001,91.096 Z M363.432001,86.44 L372.504001,86.44 L372.504001,73.912 L363.432001,86.44 Z M405.922286,65.32 C409.314303,65.32 412.106275,66.2879903 414.298286,68.224 C416.490297,70.1600097 417.698285,72.7759835 417.922286,76.072 L412.786286,76.072 C412.530285,74.1199902 411.706293,72.6880046 410.314286,71.776 C408.922279,70.8639954 407.458294,70.408 405.922286,70.408 C404.258278,70.408 402.690294,70.9519946 401.218286,72.04 C399.746279,73.1280054 399.010286,74.8399883 399.010286,77.176 L399.010286,88.024 C399.010286,90.3600117 399.746279,92.0719946 401.218286,93.16 C402.690294,94.2480054 404.258278,94.792 405.922286,94.792 C407.586295,94.792 409.154279,94.2480054 410.626286,93.16 C412.098294,92.0719946 412.834286,90.3600117 412.834286,88.024 L412.834286,85.864 L405.922286,85.864 L405.922286,80.92 L417.970286,80.92 L417.970286,88.024 C417.970286,91.6400181 416.858298,94.5199893 414.634286,96.664 C412.410275,98.8080107 409.506304,99.88 405.922286,99.88 C402.338268,99.88 399.434298,98.8080107 397.210286,96.664 C394.986275,94.5199893 393.874286,91.6400181 393.874286,88.024 L393.874286,77.176 C393.874286,73.5599819 394.986275,70.6800107 397.210286,68.536 C399.434298,66.3919893 402.338268,65.32 405.922286,65.32 Z M442.191429,79.912 L442.191429,65.8 L447.327429,65.8 L447.327429,99.4 L442.191429,99.4 L442.191429,85 L428.367429,85 L428.367429,99.4 L423.231429,99.4 L423.231429,65.8 L428.367429,65.8 L428.367429,79.912 L442.191429,79.912 Z M469.964572,79.384 L458.108572,94.648 L470.300572,94.648 L470.300572,99.4 L451.820572,99.4 L451.820572,94.648 L463.676572,79.384 L452.156572,79.384 L452.156572,74.632 L469.964572,74.632 L469.964572,79.384 Z" id="2.4GHz" fill="#535353" fill-rule="nonzero"></path>
        <path d="M337.549715,313.536 L337.549715,311.52 C337.549715,309.663991 337.06172,308.280005 336.085715,307.368 C335.10971,306.455995 333.837723,306 332.269715,306 C331.117709,306 330.117719,306.247998 329.269715,306.744 C328.421711,307.240002 327.805717,307.983995 327.421715,308.976 L322.381715,308.976 L322.381715,289.2 L341.293715,289.2 L341.293715,294.048 L327.421715,294.048 L327.421715,302.88 C327.933717,302.367997 328.70971,301.952002 329.749715,301.632 C330.78972,301.311998 331.80571,301.152 332.797715,301.152 C334.749725,301.152 336.869703,301.847993 339.157715,303.24 C341.445726,304.632007 342.589715,307.35998 342.589715,311.424 L342.589715,313.536 C342.589715,317.088018 341.525725,319.599993 339.397715,321.072 C337.269704,322.544007 335.005727,323.28 332.605715,323.28 C330.365704,323.28 328.045727,322.600007 325.645715,321.24 C323.245703,319.879993 322.013715,317.21602 321.949715,313.248 L321.949715,313.2 L326.989715,313.2 L326.989715,313.248 C327.021715,314.976009 327.56571,316.271996 328.621715,317.136 C329.67772,318.000004 330.957707,318.432 332.461715,318.432 C333.965722,318.432 335.18971,318.024004 336.133715,317.208 C337.07772,316.391996 337.549715,315.168008 337.549715,313.536 Z M347.562858,322.8 L347.562858,316.368 L353.994858,316.368 L353.994858,322.8 L347.562858,322.8 Z M375.528001,312.912 L375.528001,299.088 C375.528001,297.231991 375.040005,295.848005 374.064001,294.936 C373.087996,294.023995 371.816008,293.568 370.248001,293.568 C368.679993,293.568 367.408005,294.023995 366.432001,294.936 C365.455996,295.848005 364.968001,297.231991 364.968001,299.088 L364.968001,312.912 C364.968001,314.768009 365.455996,316.151995 366.432001,317.064 C367.408005,317.976005 368.679993,318.432 370.248001,318.432 C371.816008,318.432 373.087996,317.976005 374.064001,317.064 C375.040005,316.151995 375.528001,314.768009 375.528001,312.912 Z M359.928001,313.008 L359.928001,298.992 C359.928001,294.92798 361.111989,292.200007 363.480001,290.808 C365.848012,289.415993 368.10399,288.72 370.248001,288.72 C372.392011,288.72 374.647989,289.415993 377.016001,290.808 C379.384012,292.200007 380.568001,294.92798 380.568001,298.992 L380.568001,313.008 C380.568001,317.07202 379.384012,319.799993 377.016001,321.192 C374.647989,322.584007 372.392011,323.28 370.248001,323.28 C368.10399,323.28 365.848012,322.584007 363.480001,321.192 C361.111989,319.799993 359.928001,317.07202 359.928001,313.008 Z M407.170286,288.72 C410.562303,288.72 413.354275,289.68799 415.546286,291.624 C417.738297,293.56001 418.946285,296.175984 419.170286,299.472 L414.034286,299.472 C413.778285,297.51999 412.954293,296.088005 411.562286,295.176 C410.170279,294.263995 408.706294,293.808 407.170286,293.808 C405.506278,293.808 403.938294,294.351995 402.466286,295.44 C400.994279,296.528005 400.258286,298.239988 400.258286,300.576 L400.258286,311.424 C400.258286,313.760012 400.994279,315.471995 402.466286,316.56 C403.938294,317.648005 405.506278,318.192 407.170286,318.192 C408.834295,318.192 410.402279,317.648005 411.874286,316.56 C413.346294,315.471995 414.082286,313.760012 414.082286,311.424 L414.082286,309.264 L407.170286,309.264 L407.170286,304.32 L419.218286,304.32 L419.218286,311.424 C419.218286,315.040018 418.106298,317.919989 415.882286,320.064 C413.658275,322.208011 410.754304,323.28 407.170286,323.28 C403.586268,323.28 400.682298,322.208011 398.458286,320.064 C396.234275,317.919989 395.122286,315.040018 395.122286,311.424 L395.122286,300.576 C395.122286,296.959982 396.234275,294.080011 398.458286,291.936 C400.682298,289.791989 403.586268,288.72 407.170286,288.72 Z M443.439429,303.312 L443.439429,289.2 L448.575429,289.2 L448.575429,322.8 L443.439429,322.8 L443.439429,308.4 L429.615429,308.4 L429.615429,322.8 L424.479429,322.8 L424.479429,289.2 L429.615429,289.2 L429.615429,303.312 L443.439429,303.312 Z M471.212572,302.784 L459.356572,318.048 L471.548572,318.048 L471.548572,322.8 L453.068572,322.8 L453.068572,318.048 L464.924572,302.784 L453.404572,302.784 L453.404572,298.032 L471.212572,298.032 L471.212572,302.784 Z" id="5.0GHz" fill="#535353" fill-rule="nonzero"></path>
        <g id="Group-46" transform="translate(501.541920, 231.000000)">
            <g id="Group-3-Copy-8" transform="translate(0.000000, -0.000000)">
                <g id="Group-2" transform="translate(0.258991, 0.000000)">
                    <rect id="Rectangle" fill="#000000" x="0" y="0" width="78.9352602" height="150.732568" rx="9.6"></rect>
                    <rect id="Rectangle-Copy" fill="#686868" x="3.13235159" y="3.42272038" width="72.670557" height="138.301016" rx="5.6"></rect>
                    <rect id="Rectangle-Copy-3" fill="#000000" x="31.3094241" y="0" width="16.316412" height="7.6225202" rx="3.8112601"></rect>
                </g>
            </g>
            <g id="icon_blarga_sconexao-copy-9" opacity="0.600000024" transform="translate(9.500000, 45.100000)">
                <g id="offline_icon-copy-13" transform="translate(0.297687, 0.288084)">
                    <g id="Group-9" transform="translate(0.127580, 0.305232)">
                        <ellipse id="Oval" fill="#A2A2A2" cx="29.5511905" cy="34.13948" rx="3.75652174" ry="3.63534362"></ellipse>
                        <path d="M58.6494966,12.5370047 C51.4310978,4.83616889 41.0082809,-4.88498131e-15 29.4182647,-4.88498131e-15 C17.7277597,-4.88498131e-15 7.22478169,4.92039442 5.32907052e-15,12.7379549" id="Oval" stroke="#A2A2A2" stroke-width="4.05" stroke-linecap="round"></path>
                        <path d="M49.5873302,20.0555344 C44.622631,14.7590227 37.4539843,11.4327831 29.4825565,11.4327831 C21.4420141,11.4327831 14.2182339,14.8169517 9.24914458,20.1937447" id="Oval-Copy-2" stroke="#A2A2A2" stroke-width="4.05" stroke-linecap="round"></path>
                        <path d="M40.3553832,27.3063955 C37.663163,24.4342425 33.7758025,22.630514 29.4531159,22.630514 C25.0929503,22.630514 21.1756924,24.4656557 18.4810916,27.3813431" id="Oval-Copy-3" stroke="#A2A2A2" stroke-width="4.05" stroke-linecap="round"></path>
                    </g>
                </g>
            </g>
        </g>
        <path d="M33.052,133.272 L38.708,121.4 L40.864,121.4 L40.864,141 L38.736,141 L38.736,125.936 L34.06,135.736 L32.044,135.736 L27.368,125.936 L27.368,141 L25.24,141 L25.24,121.4 L27.396,121.4 L33.052,133.272 Z M49.7473683,128.176 C48.9260308,128.176 48.1840382,128.409331 47.5213683,128.876 C46.8586983,129.342669 46.4433691,130.042662 46.2753683,130.976 L44.1193683,130.976 C44.3060359,129.183991 44.9780291,127.933337 46.1353683,127.224 C47.2927074,126.514663 48.4966953,126.16 49.7473683,126.16 C51.091375,126.16 52.3700289,126.575329 53.5833683,127.406 C54.7967077,128.236671 55.4033683,129.706656 55.4033683,131.816 L55.4033683,141 L53.3033683,141 L53.3033683,139.516 C52.8366993,140.113336 52.2113722,140.556665 51.4273683,140.846 C50.6433643,141.135335 49.7660398,141.28 48.7953683,141.28 C47.5633621,141.28 46.4573732,140.93467 45.4773683,140.244 C44.4973634,139.55333 44.0073683,138.470674 44.0073683,136.996 C44.0073683,136.267996 44.2173662,135.484004 44.6373683,134.644 C45.0573704,133.803996 45.8926953,133.206668 47.1433683,132.852 C47.9647057,132.609332 48.8933631,132.432001 49.9293683,132.32 C50.9653734,132.207999 52.0900289,132.114667 53.3033683,132.04 L53.3033683,131.788 C53.3033683,130.593327 52.9440385,129.69267 52.2253683,129.086 C51.506698,128.47933 50.6807063,128.176 49.7473683,128.176 Z M53.3033683,135.792 L53.3033683,133.916 C51.7353604,134.028001 50.475373,134.149333 49.5233683,134.28 C48.5713635,134.410667 47.852704,134.606665 47.3673683,134.868 C46.844699,135.166668 46.5040357,135.483998 46.3453683,135.82 C46.1867008,136.156002 46.1073683,136.529331 46.1073683,136.94 C46.1073683,137.593337 46.3640324,138.143998 46.8773683,138.592 C47.3907042,139.040002 48.1793629,139.264 49.2433683,139.264 C50.3633739,139.264 51.320031,138.965336 52.1133683,138.368 C52.9067056,137.770664 53.3033683,136.912006 53.3033683,135.792 Z M60.9547365,121.4 L60.9547365,124.116 L58.8547365,124.116 L58.8547365,121.4 L60.9547365,121.4 Z M60.9547365,126.552 L60.9547365,141 L58.8547365,141 L58.8547365,126.552 L60.9547365,126.552 Z M73.4221048,135.652 L73.4221048,131.788 C73.4221048,130.593327 73.0627751,129.69267 72.3441048,129.086 C71.6254345,128.47933 70.7994428,128.176 69.8661048,128.176 C68.9327668,128.176 68.1067751,128.47933 67.3881048,129.086 C66.6694345,129.69267 66.3101048,130.593327 66.3101048,131.788 L66.3101048,135.652 C66.3101048,136.846673 66.6694345,137.74733 67.3881048,138.354 C68.1067751,138.96067 68.9327668,139.264 69.8661048,139.264 C70.7994428,139.264 71.6254345,138.96067 72.3441048,138.354 C73.0627751,137.74733 73.4221048,136.846673 73.4221048,135.652 Z M75.5221048,131.816 L75.5221048,135.624 C75.5221048,137.733344 74.9154442,139.203329 73.7021048,140.034 C72.4887654,140.864671 71.2101115,141.28 69.8661048,141.28 C68.5220981,141.28 67.2434442,140.864671 66.0301048,140.034 C64.8167654,139.203329 64.2101048,137.733344 64.2101048,135.624 L64.2101048,131.816 C64.2101048,129.706656 64.8167654,128.236671 66.0301048,127.406 C67.2434442,126.575329 68.5220981,126.16 69.8661048,126.16 C71.2101115,126.16 72.4887654,126.575329 73.7021048,127.406 C74.9154442,128.236671 75.5221048,129.706656 75.5221048,131.816 Z M80.8774731,126.552 L80.8774731,128.064 C81.2321415,127.48533 81.7501363,127.046668 82.4314731,126.748 C83.1128098,126.449332 83.7801365,126.3 84.4334731,126.3 L85.3574731,126.3 L85.3574731,128.316 L84.4334731,128.316 C83.5001351,128.316 82.6741433,128.61933 81.9554731,129.226 C81.2368028,129.83267 80.8774731,130.733327 80.8774731,131.928 L80.8774731,141 L78.7774731,141 L78.7774731,126.552 L80.8774731,126.552 Z M98.2242096,128.176 C97.4028721,128.176 96.6608796,128.409331 95.9982096,128.876 C95.3355396,129.342669 94.9202104,130.042662 94.7522096,130.976 L92.5962096,130.976 C92.7828772,129.183991 93.4548705,127.933337 94.6122096,127.224 C95.7695487,126.514663 96.9735367,126.16 98.2242096,126.16 C99.5682163,126.16 100.84687,126.575329 102.06021,127.406 C103.273549,128.236671 103.88021,129.706656 103.88021,131.816 L103.88021,141 L101.78021,141 L101.78021,139.516 C101.313541,140.113336 100.688214,140.556665 99.9042096,140.846 C99.1202057,141.135335 98.2428811,141.28 97.2722096,141.28 C96.0402034,141.28 94.9342145,140.93467 93.9542096,140.244 C92.9742047,139.55333 92.4842096,138.470674 92.4842096,136.996 C92.4842096,136.267996 92.6942075,135.484004 93.1142096,134.644 C93.5342117,133.803996 94.3695367,133.206668 95.6202096,132.852 C96.441547,132.609332 97.3702044,132.432001 98.4062096,132.32 C99.4422148,132.207999 100.56687,132.114667 101.78021,132.04 L101.78021,131.788 C101.78021,130.593327 101.42088,129.69267 100.70221,129.086 C99.9835393,128.47933 99.1575476,128.176 98.2242096,128.176 Z M101.78021,135.792 L101.78021,133.916 C100.212202,134.028001 98.9522143,134.149333 98.0002096,134.28 C97.0482048,134.410667 96.3295453,134.606665 95.8442096,134.868 C95.3215403,135.166668 94.980877,135.483998 94.8222096,135.82 C94.6635421,136.156002 94.5842096,136.529331 94.5842096,136.94 C94.5842096,137.593337 94.8408737,138.143998 95.3542096,138.592 C95.8675455,139.040002 96.6562043,139.264 97.7202096,139.264 C98.8402152,139.264 99.7968723,138.965336 100.59021,138.368 C101.383547,137.770664 101.78021,136.912006 101.78021,135.792 Z M109.375578,137.724 C109.375578,138.190669 109.473577,138.517332 109.669578,138.704 C109.865579,138.890668 110.215575,138.984 110.719578,138.984 L111.167578,138.984 L111.167578,141 L110.719578,141 C109.375571,141 108.46558,140.734003 107.989578,140.202 C107.513575,139.669997 107.275578,138.788006 107.275578,137.556 L107.275578,121.4 L109.375578,121.4 L109.375578,137.724 Z M119.154946,126.16 C120.424286,126.16 121.642274,126.523996 122.808946,127.252 C123.975619,127.980004 124.633612,129.267991 124.782946,131.116 L122.654946,131.116 C122.524279,130.145328 122.118283,129.412669 121.436946,128.918 C120.755609,128.423331 119.99495,128.176 119.154946,128.176 C118.221608,128.176 117.395616,128.47933 116.676946,129.086 C115.958276,129.69267 115.598946,130.593327 115.598946,131.788 L115.598946,135.652 C115.598946,136.846673 115.958276,137.74733 116.676946,138.354 C117.395616,138.96067 118.221608,139.264 119.154946,139.264 C119.99495,139.264 120.755609,139.016669 121.436946,138.522 C122.118283,138.027331 122.524279,137.294672 122.654946,136.324 L124.782946,136.324 C124.633612,138.172009 123.975619,139.459996 122.808946,140.188 C121.642274,140.916004 120.424286,141.28 119.154946,141.28 C117.810939,141.28 116.532286,140.869337 115.318946,140.048 C114.105607,139.226663 113.498946,137.752011 113.498946,135.624 L113.498946,131.816 C113.498946,129.706656 114.105607,128.236671 115.318946,127.406 C116.532286,126.575329 117.810939,126.16 119.154946,126.16 Z M132.658314,128.176 C131.836977,128.176 131.094984,128.409331 130.432314,128.876 C129.769644,129.342669 129.354315,130.042662 129.186314,130.976 L127.030314,130.976 C127.216982,129.183991 127.888975,127.933337 129.046314,127.224 C130.203653,126.514663 131.407641,126.16 132.658314,126.16 C134.002321,126.16 135.280975,126.575329 136.494314,127.406 C137.707654,128.236671 138.314314,129.706656 138.314314,131.816 L138.314314,141 L136.214314,141 L136.214314,139.516 C135.747645,140.113336 135.122318,140.556665 134.338314,140.846 C133.55431,141.135335 132.676986,141.28 131.706314,141.28 C130.474308,141.28 129.368319,140.93467 128.388314,140.244 C127.408309,139.55333 126.918314,138.470674 126.918314,136.996 C126.918314,136.267996 127.128312,135.484004 127.548314,134.644 C127.968316,133.803996 128.803641,133.206668 130.054314,132.852 C130.875652,132.609332 131.804309,132.432001 132.840314,132.32 C133.87632,132.207999 135.000975,132.114667 136.214314,132.04 L136.214314,131.788 C136.214314,130.593327 135.854985,129.69267 135.136314,129.086 C134.417644,128.47933 133.591652,128.176 132.658314,128.176 Z M136.214314,135.792 L136.214314,133.916 C134.646307,134.028001 133.386319,134.149333 132.434314,134.28 C131.48231,134.410667 130.76365,134.606665 130.278314,134.868 C129.755645,135.166668 129.414982,135.483998 129.256314,135.82 C129.097647,136.156002 129.018314,136.529331 129.018314,136.94 C129.018314,137.593337 129.274978,138.143998 129.788314,138.592 C130.30165,139.040002 131.090309,139.264 132.154314,139.264 C133.27432,139.264 134.230977,138.965336 135.024314,138.368 C135.817652,137.770664 136.214314,136.912006 136.214314,135.792 Z M147.421683,126.16 C148.765689,126.16 150.044343,126.575329 151.257683,127.406 C152.471022,128.236671 153.077683,129.706656 153.077683,131.816 L153.077683,141 L150.977683,141 L150.977683,131.788 C150.977683,130.593327 150.618353,129.69267 149.899683,129.086 C149.181012,128.47933 148.355021,128.176 147.421683,128.176 C146.488345,128.176 145.662353,128.47933 144.943683,129.086 C144.225012,129.69267 143.865683,130.593327 143.865683,131.788 L143.865683,141 L141.765683,141 L141.765683,126.552 L143.865683,126.552 L143.865683,127.924 C144.220351,127.34533 144.738346,126.906668 145.419683,126.608 C146.101019,126.309332 146.768346,126.16 147.421683,126.16 Z M161.793051,126.16 C163.062391,126.16 164.280378,126.523996 165.447051,127.252 C166.613723,127.980004 167.271717,129.267991 167.421051,131.116 L165.293051,131.116 C165.162384,130.145328 164.756388,129.412669 164.075051,128.918 C163.393714,128.423331 162.633055,128.176 161.793051,128.176 C160.859713,128.176 160.033721,128.47933 159.315051,129.086 C158.596381,129.69267 158.237051,130.593327 158.237051,131.788 L158.237051,135.652 C158.237051,136.846673 158.596381,137.74733 159.315051,138.354 C160.033721,138.96067 160.859713,139.264 161.793051,139.264 C162.633055,139.264 163.393714,139.016669 164.075051,138.522 C164.756388,138.027331 165.162384,137.294672 165.293051,136.324 L167.421051,136.324 C167.271717,138.172009 166.613723,139.459996 165.447051,140.188 C164.280378,140.916004 163.062391,141.28 161.793051,141.28 C160.449044,141.28 159.17039,140.869337 157.957051,140.048 C156.743712,139.226663 156.137051,137.752011 156.137051,135.624 L156.137051,131.816 C156.137051,129.706656 156.743712,128.236671 157.957051,127.406 C159.17039,126.575329 160.449044,126.16 161.793051,126.16 Z M175.660419,139.264 C176.481757,139.264 177.223749,139.030669 177.886419,138.564 C178.549089,138.097331 178.964418,137.397338 179.132419,136.464 L181.288419,136.464 C181.101752,138.256009 180.429758,139.506663 179.272419,140.216 C178.11508,140.925337 176.911092,141.28 175.660419,141.28 C174.316412,141.28 173.037759,140.864671 171.824419,140.034 C170.61108,139.203329 170.004419,137.733344 170.004419,135.624 L170.004419,131.816 C170.004419,129.706656 170.61108,128.236671 171.824419,127.406 C173.037759,126.575329 174.316412,126.16 175.660419,126.16 C177.004426,126.16 178.28308,126.575329 179.496419,127.406 C180.709759,128.236671 181.316419,129.706656 181.316419,131.816 L181.316419,134.252 L172.104419,134.252 L172.104419,135.652 C172.104419,136.846673 172.463749,137.74733 173.182419,138.354 C173.901089,138.96067 174.727081,139.264 175.660419,139.264 Z M179.216419,132.32 L179.216419,131.788 C179.216419,130.593327 178.857089,129.69267 178.138419,129.086 C177.419749,128.47933 176.593757,128.176 175.660419,128.176 C174.727081,128.176 173.901089,128.47933 173.182419,129.086 C172.463749,129.69267 172.104419,130.593327 172.104419,131.788 L172.104419,132.32 L179.216419,132.32 Z M33.052,162.272 L38.708,150.4 L40.864,150.4 L40.864,170 L38.736,170 L38.736,154.936 L34.06,164.736 L32.044,164.736 L27.368,154.936 L27.368,170 L25.24,170 L25.24,150.4 L27.396,150.4 L33.052,162.272 Z M49.9153683,168.264 C50.7367057,168.264 51.4786983,168.030669 52.1413683,167.564 C52.8040382,167.097331 53.2193674,166.397338 53.3873683,165.464 L55.5433683,165.464 C55.3567007,167.256009 54.6847074,168.506663 53.5273683,169.216 C52.3700291,169.925337 51.1660412,170.28 49.9153683,170.28 C48.5713615,170.28 47.2927077,169.864671 46.0793683,169.034 C44.8660289,168.203329 44.2593683,166.733344 44.2593683,164.624 L44.2593683,160.816 C44.2593683,158.706656 44.8660289,157.236671 46.0793683,156.406 C47.2927077,155.575329 48.5713615,155.16 49.9153683,155.16 C51.259375,155.16 52.5380289,155.575329 53.7513683,156.406 C54.9647077,157.236671 55.5713683,158.706656 55.5713683,160.816 L55.5713683,163.252 L46.3593683,163.252 L46.3593683,164.652 C46.3593683,165.846673 46.718698,166.74733 47.4373683,167.354 C48.1560385,167.96067 48.9820303,168.264 49.9153683,168.264 Z M53.4713683,161.32 L53.4713683,160.788 C53.4713683,159.593327 53.1120385,158.69267 52.3933683,158.086 C51.674698,157.47933 50.8487063,157.176 49.9153683,157.176 C48.9820303,157.176 48.1560385,157.47933 47.4373683,158.086 C46.718698,158.69267 46.3593683,159.593327 46.3593683,160.788 L46.3593683,161.32 L53.4713683,161.32 Z M64.3427365,155.16 C65.6867432,155.16 66.9653971,155.575329 68.1787365,156.406 C69.3920759,157.236671 69.9987365,158.706656 69.9987365,160.816 L69.9987365,170 L67.8987365,170 L67.8987365,160.788 C67.8987365,159.593327 67.5394068,158.69267 66.8207365,158.086 C66.1020663,157.47933 65.2760745,157.176 64.3427365,157.176 C63.4093985,157.176 62.5834068,157.47933 61.8647365,158.086 C61.1460663,158.69267 60.7867365,159.593327 60.7867365,160.788 L60.7867365,170 L58.6867365,170 L58.6867365,155.552 L60.7867365,155.552 L60.7867365,156.924 C61.141405,156.34533 61.6593998,155.906668 62.3407365,155.608 C63.0220733,155.309332 63.6893999,155.16 64.3427365,155.16 Z M82.2701048,164.652 L82.2701048,160.788 C82.2701048,159.593327 81.9107751,158.69267 81.1921048,158.086 C80.4734345,157.47933 79.6474428,157.176 78.7141048,157.176 C77.7807668,157.176 76.9547751,157.47933 76.2361048,158.086 C75.5174345,158.69267 75.1581048,159.593327 75.1581048,160.788 L75.1581048,164.652 C75.1581048,165.846673 75.5174345,166.74733 76.2361048,167.354 C76.9547751,167.96067 77.7807668,168.264 78.7141048,168.264 C79.6474428,168.264 80.4734345,167.96067 81.1921048,167.354 C81.9107751,166.74733 82.2701048,165.846673 82.2701048,164.652 Z M84.3701048,160.816 L84.3701048,164.624 C84.3701048,166.733344 83.7634442,168.203329 82.5501048,169.034 C81.3367654,169.864671 80.0581115,170.28 78.7141048,170.28 C77.3700981,170.28 76.0914442,169.864671 74.8781048,169.034 C73.6647654,168.203329 73.0581048,166.733344 73.0581048,164.624 L73.0581048,160.816 C73.0581048,158.706656 73.6647654,157.236671 74.8781048,156.406 C76.0914442,155.575329 77.3700981,155.16 78.7141048,155.16 C80.0581115,155.16 81.3367654,155.575329 82.5501048,156.406 C83.7634442,157.236671 84.3701048,158.706656 84.3701048,160.816 Z M89.7254731,155.552 L89.7254731,157.064 C90.0801415,156.48533 90.5981363,156.046668 91.2794731,155.748 C91.9608098,155.449332 92.6281365,155.3 93.2814731,155.3 L94.2054731,155.3 L94.2054731,157.316 L93.2814731,157.316 C92.3481351,157.316 91.5221433,157.61933 90.8034731,158.226 C90.0848028,158.83267 89.7254731,159.733327 89.7254731,160.928 L89.7254731,170 L87.6254731,170 L87.6254731,155.552 L89.7254731,155.552 Z M107.80021,167.004 L113.14821,150.4 L115.33221,150.4 L109.03221,170 L106.56821,170 L100.26821,150.4 L102.45221,150.4 L107.80021,167.004 Z M121.191578,168.264 C122.012915,168.264 122.754908,168.030669 123.417578,167.564 C124.080248,167.097331 124.495577,166.397338 124.663578,165.464 L126.819578,165.464 C126.63291,167.256009 125.960917,168.506663 124.803578,169.216 C123.646239,169.925337 122.442251,170.28 121.191578,170.28 C119.847571,170.28 118.568917,169.864671 117.355578,169.034 C116.142238,168.203329 115.535578,166.733344 115.535578,164.624 L115.535578,160.816 C115.535578,158.706656 116.142238,157.236671 117.355578,156.406 C118.568917,155.575329 119.847571,155.16 121.191578,155.16 C122.535585,155.16 123.814238,155.575329 125.027578,156.406 C126.240917,157.236671 126.847578,158.706656 126.847578,160.816 L126.847578,163.252 L117.635578,163.252 L117.635578,164.652 C117.635578,165.846673 117.994908,166.74733 118.713578,167.354 C119.432248,167.96067 120.25824,168.264 121.191578,168.264 Z M124.747578,161.32 L124.747578,160.788 C124.747578,159.593327 124.388248,158.69267 123.669578,158.086 C122.950908,157.47933 122.124916,157.176 121.191578,157.176 C120.25824,157.176 119.432248,157.47933 118.713578,158.086 C117.994908,158.69267 117.635578,159.593327 117.635578,160.788 L117.635578,161.32 L124.747578,161.32 Z M132.006946,166.724 C132.006946,167.190669 132.104945,167.517332 132.300946,167.704 C132.496947,167.890668 132.846944,167.984 133.350946,167.984 L133.798946,167.984 L133.798946,170 L133.350946,170 C132.006939,170 131.096948,169.734003 130.620946,169.202 C130.144944,168.669997 129.906946,167.788006 129.906946,166.556 L129.906946,150.4 L132.006946,150.4 L132.006946,166.724 Z M145.342314,164.652 L145.342314,160.788 C145.342314,159.593327 144.982985,158.69267 144.264314,158.086 C143.545644,157.47933 142.719652,157.176 141.786314,157.176 C140.852976,157.176 140.026985,157.47933 139.308314,158.086 C138.589644,158.69267 138.230314,159.593327 138.230314,160.788 L138.230314,164.652 C138.230314,165.846673 138.589644,166.74733 139.308314,167.354 C140.026985,167.96067 140.852976,168.264 141.786314,168.264 C142.719652,168.264 143.545644,167.96067 144.264314,167.354 C144.982985,166.74733 145.342314,165.846673 145.342314,164.652 Z M147.442314,160.816 L147.442314,164.624 C147.442314,166.733344 146.835654,168.203329 145.622314,169.034 C144.408975,169.864671 143.130321,170.28 141.786314,170.28 C140.442308,170.28 139.163654,169.864671 137.950314,169.034 C136.736975,168.203329 136.130314,166.733344 136.130314,164.624 L136.130314,160.816 C136.130314,158.706656 136.736975,157.236671 137.950314,156.406 C139.163654,155.575329 140.442308,155.16 141.786314,155.16 C143.130321,155.16 144.408975,155.575329 145.622314,156.406 C146.835654,157.236671 147.442314,158.706656 147.442314,160.816 Z M155.961683,155.16 C157.231022,155.16 158.44901,155.523996 159.615683,156.252 C160.782355,156.980004 161.440349,158.267991 161.589683,160.116 L159.461683,160.116 C159.331015,159.145328 158.925019,158.412669 158.243683,157.918 C157.562346,157.423331 156.801687,157.176 155.961683,157.176 C155.028345,157.176 154.202353,157.47933 153.483683,158.086 C152.765012,158.69267 152.405683,159.593327 152.405683,160.788 L152.405683,164.652 C152.405683,165.846673 152.765012,166.74733 153.483683,167.354 C154.202353,167.96067 155.028345,168.264 155.961683,168.264 C156.801687,168.264 157.562346,168.016669 158.243683,167.522 C158.925019,167.027331 159.331015,166.294672 159.461683,165.324 L161.589683,165.324 C161.440349,167.172009 160.782355,168.459996 159.615683,169.188 C158.44901,169.916004 157.231022,170.28 155.961683,170.28 C154.617676,170.28 153.339022,169.869337 152.125683,169.048 C150.912343,168.226663 150.305683,166.752011 150.305683,164.624 L150.305683,160.816 C150.305683,158.706656 150.912343,157.236671 152.125683,156.406 C153.339022,155.575329 154.617676,155.16 155.961683,155.16 Z M166.665051,150.4 L166.665051,153.116 L164.565051,153.116 L164.565051,150.4 L166.665051,150.4 Z M166.665051,155.552 L166.665051,170 L164.565051,170 L164.565051,155.552 L166.665051,155.552 Z M175.576419,170.28 C174.232412,170.28 172.953759,169.864671 171.740419,169.034 C170.52708,168.203329 169.920419,166.733344 169.920419,164.624 L169.920419,160.816 C169.920419,158.706656 170.52708,157.236671 171.740419,156.406 C172.953759,155.575329 174.232412,155.16 175.576419,155.16 C176.229756,155.16 176.897082,155.309332 177.578419,155.608 C178.259756,155.906668 178.777751,156.34533 179.132419,156.924 L179.132419,150.4 L181.232419,150.4 L181.232419,170 L179.132419,170 L179.132419,168.516 C178.777751,169.09467 178.259756,169.533332 177.578419,169.832 C176.897082,170.130668 176.229756,170.28 175.576419,170.28 Z M172.020419,164.652 C172.020419,165.846673 172.379749,166.74733 173.098419,167.354 C173.817089,167.96067 174.643081,168.264 175.576419,168.264 C176.509757,168.264 177.335749,167.96067 178.054419,167.354 C178.773089,166.74733 179.132419,165.846673 179.132419,164.652 L179.132419,160.788 C179.132419,159.593327 178.773089,158.69267 178.054419,158.086 C177.335749,157.47933 176.509757,157.176 175.576419,157.176 C174.643081,157.176 173.817089,157.47933 173.098419,158.086 C172.379749,158.69267 172.020419,159.593327 172.020419,160.788 L172.020419,164.652 Z M189.975787,157.176 C189.15445,157.176 188.412457,157.409331 187.749787,157.876 C187.087117,158.342669 186.671788,159.042662 186.503787,159.976 L184.347787,159.976 C184.534455,158.183991 185.206448,156.933337 186.363787,156.224 C187.521127,155.514663 188.725115,155.16 189.975787,155.16 C191.319794,155.16 192.598448,155.575329 193.811787,156.406 C195.025127,157.236671 195.631787,158.706656 195.631787,160.816 L195.631787,170 L193.531787,170 L193.531787,168.516 C193.065118,169.113336 192.439791,169.556665 191.655787,169.846 C190.871784,170.135335 189.994459,170.28 189.023787,170.28 C187.791781,170.28 186.685792,169.93467 185.705787,169.244 C184.725783,168.55333 184.235787,167.470674 184.235787,165.996 C184.235787,165.267996 184.445785,164.484004 184.865787,163.644 C185.28579,162.803996 186.121115,162.206668 187.371787,161.852 C188.193125,161.609332 189.121782,161.432001 190.157787,161.32 C191.193793,161.207999 192.318448,161.114667 193.531787,161.04 L193.531787,160.788 C193.531787,159.593327 193.172458,158.69267 192.453787,158.086 C191.735117,157.47933 190.909125,157.176 189.975787,157.176 Z M193.531787,164.792 L193.531787,162.916 C191.96378,163.028001 190.703792,163.149333 189.751787,163.28 C188.799783,163.410667 188.081123,163.606665 187.595787,163.868 C187.073118,164.166668 186.732455,164.483998 186.573787,164.82 C186.41512,165.156002 186.335787,165.529331 186.335787,165.94 C186.335787,166.593337 186.592452,167.143998 187.105787,167.592 C187.619123,168.040002 188.407782,168.264 189.471787,168.264 C190.591793,168.264 191.54845,167.965336 192.341787,167.368 C193.135125,166.770664 193.531787,165.912006 193.531787,164.792 Z M204.347156,170.28 C203.003149,170.28 201.724495,169.864671 200.511156,169.034 C199.297816,168.203329 198.691156,166.733344 198.691156,164.624 L198.691156,160.816 C198.691156,158.706656 199.297816,157.236671 200.511156,156.406 C201.724495,155.575329 203.003149,155.16 204.347156,155.16 C205.000492,155.16 205.667819,155.309332 206.349156,155.608 C207.030492,155.906668 207.548487,156.34533 207.903156,156.924 L207.903156,150.4 L210.003156,150.4 L210.003156,170 L207.903156,170 L207.903156,168.516 C207.548487,169.09467 207.030492,169.533332 206.349156,169.832 C205.667819,170.130668 205.000492,170.28 204.347156,170.28 Z M200.791156,164.652 C200.791156,165.846673 201.150485,166.74733 201.869156,167.354 C202.587826,167.96067 203.413818,168.264 204.347156,168.264 C205.280494,168.264 206.106485,167.96067 206.825156,167.354 C207.543826,166.74733 207.903156,165.846673 207.903156,164.652 L207.903156,160.788 C207.903156,159.593327 207.543826,158.69267 206.825156,158.086 C206.106485,157.47933 205.280494,157.176 204.347156,157.176 C203.413818,157.176 202.587826,157.47933 201.869156,158.086 C201.150485,158.69267 200.791156,159.593327 200.791156,160.788 L200.791156,164.652 Z M218.914524,168.264 C219.735861,168.264 220.477854,168.030669 221.140524,167.564 C221.803194,167.097331 222.218523,166.397338 222.386524,165.464 L224.542524,165.464 C224.355856,167.256009 223.683863,168.506663 222.526524,169.216 C221.369185,169.925337 220.165197,170.28 218.914524,170.28 C217.570517,170.28 216.291863,169.864671 215.078524,169.034 C213.865185,168.203329 213.258524,166.733344 213.258524,164.624 L213.258524,160.816 C213.258524,158.706656 213.865185,157.236671 215.078524,156.406 C216.291863,155.575329 217.570517,155.16 218.914524,155.16 C220.258531,155.16 221.537185,155.575329 222.750524,156.406 C223.963863,157.236671 224.570524,158.706656 224.570524,160.816 L224.570524,163.252 L215.358524,163.252 L215.358524,164.652 C215.358524,165.846673 215.717854,166.74733 216.436524,167.354 C217.155194,167.96067 217.981186,168.264 218.914524,168.264 Z M222.470524,161.32 L222.470524,160.788 C222.470524,159.593327 222.111194,158.69267 221.392524,158.086 C220.673854,157.47933 219.847862,157.176 218.914524,157.176 C217.981186,157.176 217.155194,157.47933 216.436524,158.086 C215.717854,158.69267 215.358524,159.593327 215.358524,160.788 L215.358524,161.32 L222.470524,161.32 Z" id="MaioralcanceMenorVelocidade" fill="#6D6D6D" fill-rule="nonzero" opacity="0.900000036"></path>
        <path d="M33.052,367.272 L38.708,355.4 L40.864,355.4 L40.864,375 L38.736,375 L38.736,359.936 L34.06,369.736 L32.044,369.736 L27.368,359.936 L27.368,375 L25.24,375 L25.24,355.4 L27.396,355.4 L33.052,367.272 Z M49.9153683,373.264 C50.7367057,373.264 51.4786983,373.030669 52.1413683,372.564 C52.8040382,372.097331 53.2193674,371.397338 53.3873683,370.464 L55.5433683,370.464 C55.3567007,372.256009 54.6847074,373.506663 53.5273683,374.216 C52.3700291,374.925337 51.1660412,375.28 49.9153683,375.28 C48.5713615,375.28 47.2927077,374.864671 46.0793683,374.034 C44.8660289,373.203329 44.2593683,371.733344 44.2593683,369.624 L44.2593683,365.816 C44.2593683,363.706656 44.8660289,362.236671 46.0793683,361.406 C47.2927077,360.575329 48.5713615,360.16 49.9153683,360.16 C51.259375,360.16 52.5380289,360.575329 53.7513683,361.406 C54.9647077,362.236671 55.5713683,363.706656 55.5713683,365.816 L55.5713683,368.252 L46.3593683,368.252 L46.3593683,369.652 C46.3593683,370.846673 46.718698,371.74733 47.4373683,372.354 C48.1560385,372.96067 48.9820303,373.264 49.9153683,373.264 Z M53.4713683,366.32 L53.4713683,365.788 C53.4713683,364.593327 53.1120385,363.69267 52.3933683,363.086 C51.674698,362.47933 50.8487063,362.176 49.9153683,362.176 C48.9820303,362.176 48.1560385,362.47933 47.4373683,363.086 C46.718698,363.69267 46.3593683,364.593327 46.3593683,365.788 L46.3593683,366.32 L53.4713683,366.32 Z M64.3427365,360.16 C65.6867432,360.16 66.9653971,360.575329 68.1787365,361.406 C69.3920759,362.236671 69.9987365,363.706656 69.9987365,365.816 L69.9987365,375 L67.8987365,375 L67.8987365,365.788 C67.8987365,364.593327 67.5394068,363.69267 66.8207365,363.086 C66.1020663,362.47933 65.2760745,362.176 64.3427365,362.176 C63.4093985,362.176 62.5834068,362.47933 61.8647365,363.086 C61.1460663,363.69267 60.7867365,364.593327 60.7867365,365.788 L60.7867365,375 L58.6867365,375 L58.6867365,360.552 L60.7867365,360.552 L60.7867365,361.924 C61.141405,361.34533 61.6593998,360.906668 62.3407365,360.608 C63.0220733,360.309332 63.6893999,360.16 64.3427365,360.16 Z M82.2701048,369.652 L82.2701048,365.788 C82.2701048,364.593327 81.9107751,363.69267 81.1921048,363.086 C80.4734345,362.47933 79.6474428,362.176 78.7141048,362.176 C77.7807668,362.176 76.9547751,362.47933 76.2361048,363.086 C75.5174345,363.69267 75.1581048,364.593327 75.1581048,365.788 L75.1581048,369.652 C75.1581048,370.846673 75.5174345,371.74733 76.2361048,372.354 C76.9547751,372.96067 77.7807668,373.264 78.7141048,373.264 C79.6474428,373.264 80.4734345,372.96067 81.1921048,372.354 C81.9107751,371.74733 82.2701048,370.846673 82.2701048,369.652 Z M84.3701048,365.816 L84.3701048,369.624 C84.3701048,371.733344 83.7634442,373.203329 82.5501048,374.034 C81.3367654,374.864671 80.0581115,375.28 78.7141048,375.28 C77.3700981,375.28 76.0914442,374.864671 74.8781048,374.034 C73.6647654,373.203329 73.0581048,371.733344 73.0581048,369.624 L73.0581048,365.816 C73.0581048,363.706656 73.6647654,362.236671 74.8781048,361.406 C76.0914442,360.575329 77.3700981,360.16 78.7141048,360.16 C80.0581115,360.16 81.3367654,360.575329 82.5501048,361.406 C83.7634442,362.236671 84.3701048,363.706656 84.3701048,365.816 Z M89.7254731,360.552 L89.7254731,362.064 C90.0801415,361.48533 90.5981363,361.046668 91.2794731,360.748 C91.9608098,360.449332 92.6281365,360.3 93.2814731,360.3 L94.2054731,360.3 L94.2054731,362.316 L93.2814731,362.316 C92.3481351,362.316 91.5221433,362.61933 90.8034731,363.226 C90.0848028,363.83267 89.7254731,364.733327 89.7254731,365.928 L89.7254731,375 L87.6254731,375 L87.6254731,360.552 L89.7254731,360.552 Z M107.07221,362.176 C106.250872,362.176 105.50888,362.409331 104.84621,362.876 C104.18354,363.342669 103.76821,364.042662 103.60021,364.976 L101.44421,364.976 C101.630877,363.183991 102.30287,361.933337 103.46021,361.224 C104.617549,360.514663 105.821537,360.16 107.07221,360.16 C108.416216,360.16 109.69487,360.575329 110.90821,361.406 C112.121549,362.236671 112.72821,363.706656 112.72821,365.816 L112.72821,375 L110.62821,375 L110.62821,373.516 C110.161541,374.113336 109.536214,374.556665 108.75221,374.846 C107.968206,375.135335 107.090881,375.28 106.12021,375.28 C104.888203,375.28 103.782214,374.93467 102.80221,374.244 C101.822205,373.55333 101.33221,372.470674 101.33221,370.996 C101.33221,370.267996 101.542207,369.484004 101.96221,368.644 C102.382212,367.803996 103.217537,367.206668 104.46821,366.852 C105.289547,366.609332 106.218204,366.432001 107.25421,366.32 C108.290215,366.207999 109.41487,366.114667 110.62821,366.04 L110.62821,365.788 C110.62821,364.593327 110.26888,363.69267 109.55021,363.086 C108.831539,362.47933 108.005548,362.176 107.07221,362.176 Z M110.62821,369.792 L110.62821,367.916 C109.060202,368.028001 107.800214,368.149333 106.84821,368.28 C105.896205,368.410667 105.177545,368.606665 104.69221,368.868 C104.16954,369.166668 103.828877,369.483998 103.67021,369.82 C103.511542,370.156002 103.43221,370.529331 103.43221,370.94 C103.43221,371.593337 103.688874,372.143998 104.20221,372.592 C104.715545,373.040002 105.504204,373.264 106.56821,373.264 C107.688215,373.264 108.644872,372.965336 109.43821,372.368 C110.231547,371.770664 110.62821,370.912006 110.62821,369.792 Z M118.223578,371.724 C118.223578,372.190669 118.321577,372.517332 118.517578,372.704 C118.713579,372.890668 119.063575,372.984 119.567578,372.984 L120.015578,372.984 L120.015578,375 L119.567578,375 C118.223571,375 117.31358,374.734003 116.837578,374.202 C116.361575,373.669997 116.123578,372.788006 116.123578,371.556 L116.123578,355.4 L118.223578,355.4 L118.223578,371.724 Z M128.002946,360.16 C129.272286,360.16 130.490274,360.523996 131.656946,361.252 C132.823619,361.980004 133.481612,363.267991 133.630946,365.116 L131.502946,365.116 C131.372279,364.145328 130.966283,363.412669 130.284946,362.918 C129.603609,362.423331 128.84295,362.176 128.002946,362.176 C127.069608,362.176 126.243616,362.47933 125.524946,363.086 C124.806276,363.69267 124.446946,364.593327 124.446946,365.788 L124.446946,369.652 C124.446946,370.846673 124.806276,371.74733 125.524946,372.354 C126.243616,372.96067 127.069608,373.264 128.002946,373.264 C128.84295,373.264 129.603609,373.016669 130.284946,372.522 C130.966283,372.027331 131.372279,371.294672 131.502946,370.324 L133.630946,370.324 C133.481612,372.172009 132.823619,373.459996 131.656946,374.188 C130.490274,374.916004 129.272286,375.28 128.002946,375.28 C126.658939,375.28 125.380286,374.869337 124.166946,374.048 C122.953607,373.226663 122.346946,371.752011 122.346946,369.624 L122.346946,365.816 C122.346946,363.706656 122.953607,362.236671 124.166946,361.406 C125.380286,360.575329 126.658939,360.16 128.002946,360.16 Z M141.506314,362.176 C140.684977,362.176 139.942984,362.409331 139.280314,362.876 C138.617644,363.342669 138.202315,364.042662 138.034314,364.976 L135.878314,364.976 C136.064982,363.183991 136.736975,361.933337 137.894314,361.224 C139.051653,360.514663 140.255641,360.16 141.506314,360.16 C142.850321,360.16 144.128975,360.575329 145.342314,361.406 C146.555654,362.236671 147.162314,363.706656 147.162314,365.816 L147.162314,375 L145.062314,375 L145.062314,373.516 C144.595645,374.113336 143.970318,374.556665 143.186314,374.846 C142.40231,375.135335 141.524986,375.28 140.554314,375.28 C139.322308,375.28 138.216319,374.93467 137.236314,374.244 C136.256309,373.55333 135.766314,372.470674 135.766314,370.996 C135.766314,370.267996 135.976312,369.484004 136.396314,368.644 C136.816316,367.803996 137.651641,367.206668 138.902314,366.852 C139.723652,366.609332 140.652309,366.432001 141.688314,366.32 C142.72432,366.207999 143.848975,366.114667 145.062314,366.04 L145.062314,365.788 C145.062314,364.593327 144.702985,363.69267 143.984314,363.086 C143.265644,362.47933 142.439652,362.176 141.506314,362.176 Z M145.062314,369.792 L145.062314,367.916 C143.494307,368.028001 142.234319,368.149333 141.282314,368.28 C140.33031,368.410667 139.61165,368.606665 139.126314,368.868 C138.603645,369.166668 138.262982,369.483998 138.104314,369.82 C137.945647,370.156002 137.866314,370.529331 137.866314,370.94 C137.866314,371.593337 138.122978,372.143998 138.636314,372.592 C139.14965,373.040002 139.938309,373.264 141.002314,373.264 C142.12232,373.264 143.078977,372.965336 143.872314,372.368 C144.665652,371.770664 145.062314,370.912006 145.062314,369.792 Z M156.269683,360.16 C157.613689,360.16 158.892343,360.575329 160.105683,361.406 C161.319022,362.236671 161.925683,363.706656 161.925683,365.816 L161.925683,375 L159.825683,375 L159.825683,365.788 C159.825683,364.593327 159.466353,363.69267 158.747683,363.086 C158.029012,362.47933 157.203021,362.176 156.269683,362.176 C155.336345,362.176 154.510353,362.47933 153.791683,363.086 C153.073012,363.69267 152.713683,364.593327 152.713683,365.788 L152.713683,375 L150.613683,375 L150.613683,360.552 L152.713683,360.552 L152.713683,361.924 C153.068351,361.34533 153.586346,360.906668 154.267683,360.608 C154.949019,360.309332 155.616346,360.16 156.269683,360.16 Z M170.641051,360.16 C171.910391,360.16 173.128378,360.523996 174.295051,361.252 C175.461723,361.980004 176.119717,363.267991 176.269051,365.116 L174.141051,365.116 C174.010384,364.145328 173.604388,363.412669 172.923051,362.918 C172.241714,362.423331 171.481055,362.176 170.641051,362.176 C169.707713,362.176 168.881721,362.47933 168.163051,363.086 C167.444381,363.69267 167.085051,364.593327 167.085051,365.788 L167.085051,369.652 C167.085051,370.846673 167.444381,371.74733 168.163051,372.354 C168.881721,372.96067 169.707713,373.264 170.641051,373.264 C171.481055,373.264 172.241714,373.016669 172.923051,372.522 C173.604388,372.027331 174.010384,371.294672 174.141051,370.324 L176.269051,370.324 C176.119717,372.172009 175.461723,373.459996 174.295051,374.188 C173.128378,374.916004 171.910391,375.28 170.641051,375.28 C169.297044,375.28 168.01839,374.869337 166.805051,374.048 C165.591712,373.226663 164.985051,371.752011 164.985051,369.624 L164.985051,365.816 C164.985051,363.706656 165.591712,362.236671 166.805051,361.406 C168.01839,360.575329 169.297044,360.16 170.641051,360.16 Z M184.508419,373.264 C185.329757,373.264 186.071749,373.030669 186.734419,372.564 C187.397089,372.097331 187.812418,371.397338 187.980419,370.464 L190.136419,370.464 C189.949752,372.256009 189.277758,373.506663 188.120419,374.216 C186.96308,374.925337 185.759092,375.28 184.508419,375.28 C183.164412,375.28 181.885759,374.864671 180.672419,374.034 C179.45908,373.203329 178.852419,371.733344 178.852419,369.624 L178.852419,365.816 C178.852419,363.706656 179.45908,362.236671 180.672419,361.406 C181.885759,360.575329 183.164412,360.16 184.508419,360.16 C185.852426,360.16 187.13108,360.575329 188.344419,361.406 C189.557759,362.236671 190.164419,363.706656 190.164419,365.816 L190.164419,368.252 L180.952419,368.252 L180.952419,369.652 C180.952419,370.846673 181.311749,371.74733 182.030419,372.354 C182.749089,372.96067 183.575081,373.264 184.508419,373.264 Z M188.064419,366.32 L188.064419,365.788 C188.064419,364.593327 187.705089,363.69267 186.986419,363.086 C186.267749,362.47933 185.441757,362.176 184.508419,362.176 C183.575081,362.176 182.749089,362.47933 182.030419,363.086 C181.311749,363.69267 180.952419,364.593327 180.952419,365.788 L180.952419,366.32 L188.064419,366.32 Z M33.052,396.272 L38.708,384.4 L40.864,384.4 L40.864,404 L38.736,404 L38.736,388.936 L34.06,398.736 L32.044,398.736 L27.368,388.936 L27.368,404 L25.24,404 L25.24,384.4 L27.396,384.4 L33.052,396.272 Z M49.7473683,391.176 C48.9260308,391.176 48.1840382,391.409331 47.5213683,391.876 C46.8586983,392.342669 46.4433691,393.042662 46.2753683,393.976 L44.1193683,393.976 C44.3060359,392.183991 44.9780291,390.933337 46.1353683,390.224 C47.2927074,389.514663 48.4966953,389.16 49.7473683,389.16 C51.091375,389.16 52.3700289,389.575329 53.5833683,390.406 C54.7967077,391.236671 55.4033683,392.706656 55.4033683,394.816 L55.4033683,404 L53.3033683,404 L53.3033683,402.516 C52.8366993,403.113336 52.2113722,403.556665 51.4273683,403.846 C50.6433643,404.135335 49.7660398,404.28 48.7953683,404.28 C47.5633621,404.28 46.4573732,403.93467 45.4773683,403.244 C44.4973634,402.55333 44.0073683,401.470674 44.0073683,399.996 C44.0073683,399.267996 44.2173662,398.484004 44.6373683,397.644 C45.0573704,396.803996 45.8926953,396.206668 47.1433683,395.852 C47.9647057,395.609332 48.8933631,395.432001 49.9293683,395.32 C50.9653734,395.207999 52.0900289,395.114667 53.3033683,395.04 L53.3033683,394.788 C53.3033683,393.593327 52.9440385,392.69267 52.2253683,392.086 C51.506698,391.47933 50.6807063,391.176 49.7473683,391.176 Z M53.3033683,398.792 L53.3033683,396.916 C51.7353604,397.028001 50.475373,397.149333 49.5233683,397.28 C48.5713635,397.410667 47.852704,397.606665 47.3673683,397.868 C46.844699,398.166668 46.5040357,398.483998 46.3453683,398.82 C46.1867008,399.156002 46.1073683,399.529331 46.1073683,399.94 C46.1073683,400.593337 46.3640324,401.143998 46.8773683,401.592 C47.3907042,402.040002 48.1793629,402.264 49.2433683,402.264 C50.3633739,402.264 51.320031,401.965336 52.1133683,401.368 C52.9067056,400.770664 53.3033683,399.912006 53.3033683,398.792 Z M60.9547365,384.4 L60.9547365,387.116 L58.8547365,387.116 L58.8547365,384.4 L60.9547365,384.4 Z M60.9547365,389.552 L60.9547365,404 L58.8547365,404 L58.8547365,389.552 L60.9547365,389.552 Z M73.4221048,398.652 L73.4221048,394.788 C73.4221048,393.593327 73.0627751,392.69267 72.3441048,392.086 C71.6254345,391.47933 70.7994428,391.176 69.8661048,391.176 C68.9327668,391.176 68.1067751,391.47933 67.3881048,392.086 C66.6694345,392.69267 66.3101048,393.593327 66.3101048,394.788 L66.3101048,398.652 C66.3101048,399.846673 66.6694345,400.74733 67.3881048,401.354 C68.1067751,401.96067 68.9327668,402.264 69.8661048,402.264 C70.7994428,402.264 71.6254345,401.96067 72.3441048,401.354 C73.0627751,400.74733 73.4221048,399.846673 73.4221048,398.652 Z M75.5221048,394.816 L75.5221048,398.624 C75.5221048,400.733344 74.9154442,402.203329 73.7021048,403.034 C72.4887654,403.864671 71.2101115,404.28 69.8661048,404.28 C68.5220981,404.28 67.2434442,403.864671 66.0301048,403.034 C64.8167654,402.203329 64.2101048,400.733344 64.2101048,398.624 L64.2101048,394.816 C64.2101048,392.706656 64.8167654,391.236671 66.0301048,390.406 C67.2434442,389.575329 68.5220981,389.16 69.8661048,389.16 C71.2101115,389.16 72.4887654,389.575329 73.7021048,390.406 C74.9154442,391.236671 75.5221048,392.706656 75.5221048,394.816 Z M80.8774731,389.552 L80.8774731,391.064 C81.2321415,390.48533 81.7501363,390.046668 82.4314731,389.748 C83.1128098,389.449332 83.7801365,389.3 84.4334731,389.3 L85.3574731,389.3 L85.3574731,391.316 L84.4334731,391.316 C83.5001351,391.316 82.6741433,391.61933 81.9554731,392.226 C81.2368028,392.83267 80.8774731,393.733327 80.8774731,394.928 L80.8774731,404 L78.7774731,404 L78.7774731,389.552 L80.8774731,389.552 Z M98.9522096,401.004 L104.30021,384.4 L106.48421,384.4 L100.18421,404 L97.7202096,404 L91.4202096,384.4 L93.6042096,384.4 L98.9522096,401.004 Z M112.343578,402.264 C113.164915,402.264 113.906908,402.030669 114.569578,401.564 C115.232248,401.097331 115.647577,400.397338 115.815578,399.464 L117.971578,399.464 C117.78491,401.256009 117.112917,402.506663 115.955578,403.216 C114.798239,403.925337 113.594251,404.28 112.343578,404.28 C110.999571,404.28 109.720917,403.864671 108.507578,403.034 C107.294238,402.203329 106.687578,400.733344 106.687578,398.624 L106.687578,394.816 C106.687578,392.706656 107.294238,391.236671 108.507578,390.406 C109.720917,389.575329 110.999571,389.16 112.343578,389.16 C113.687585,389.16 114.966238,389.575329 116.179578,390.406 C117.392917,391.236671 117.999578,392.706656 117.999578,394.816 L117.999578,397.252 L108.787578,397.252 L108.787578,398.652 C108.787578,399.846673 109.146908,400.74733 109.865578,401.354 C110.584248,401.96067 111.41024,402.264 112.343578,402.264 Z M115.899578,395.32 L115.899578,394.788 C115.899578,393.593327 115.540248,392.69267 114.821578,392.086 C114.102908,391.47933 113.276916,391.176 112.343578,391.176 C111.41024,391.176 110.584248,391.47933 109.865578,392.086 C109.146908,392.69267 108.787578,393.593327 108.787578,394.788 L108.787578,395.32 L115.899578,395.32 Z M123.158946,400.724 C123.158946,401.190669 123.256945,401.517332 123.452946,401.704 C123.648947,401.890668 123.998944,401.984 124.502946,401.984 L124.950946,401.984 L124.950946,404 L124.502946,404 C123.158939,404 122.248948,403.734003 121.772946,403.202 C121.296944,402.669997 121.058946,401.788006 121.058946,400.556 L121.058946,384.4 L123.158946,384.4 L123.158946,400.724 Z M136.494314,398.652 L136.494314,394.788 C136.494314,393.593327 136.134985,392.69267 135.416314,392.086 C134.697644,391.47933 133.871652,391.176 132.938314,391.176 C132.004976,391.176 131.178985,391.47933 130.460314,392.086 C129.741644,392.69267 129.382314,393.593327 129.382314,394.788 L129.382314,398.652 C129.382314,399.846673 129.741644,400.74733 130.460314,401.354 C131.178985,401.96067 132.004976,402.264 132.938314,402.264 C133.871652,402.264 134.697644,401.96067 135.416314,401.354 C136.134985,400.74733 136.494314,399.846673 136.494314,398.652 Z M138.594314,394.816 L138.594314,398.624 C138.594314,400.733344 137.987654,402.203329 136.774314,403.034 C135.560975,403.864671 134.282321,404.28 132.938314,404.28 C131.594308,404.28 130.315654,403.864671 129.102314,403.034 C127.888975,402.203329 127.282314,400.733344 127.282314,398.624 L127.282314,394.816 C127.282314,392.706656 127.888975,391.236671 129.102314,390.406 C130.315654,389.575329 131.594308,389.16 132.938314,389.16 C134.282321,389.16 135.560975,389.575329 136.774314,390.406 C137.987654,391.236671 138.594314,392.706656 138.594314,394.816 Z M147.113683,389.16 C148.383022,389.16 149.60101,389.523996 150.767683,390.252 C151.934355,390.980004 152.592349,392.267991 152.741683,394.116 L150.613683,394.116 C150.483015,393.145328 150.077019,392.412669 149.395683,391.918 C148.714346,391.423331 147.953687,391.176 147.113683,391.176 C146.180345,391.176 145.354353,391.47933 144.635683,392.086 C143.917012,392.69267 143.557683,393.593327 143.557683,394.788 L143.557683,398.652 C143.557683,399.846673 143.917012,400.74733 144.635683,401.354 C145.354353,401.96067 146.180345,402.264 147.113683,402.264 C147.953687,402.264 148.714346,402.016669 149.395683,401.522 C150.077019,401.027331 150.483015,400.294672 150.613683,399.324 L152.741683,399.324 C152.592349,401.172009 151.934355,402.459996 150.767683,403.188 C149.60101,403.916004 148.383022,404.28 147.113683,404.28 C145.769676,404.28 144.491022,403.869337 143.277683,403.048 C142.064343,402.226663 141.457683,400.752011 141.457683,398.624 L141.457683,394.816 C141.457683,392.706656 142.064343,391.236671 143.277683,390.406 C144.491022,389.575329 145.769676,389.16 147.113683,389.16 Z M157.817051,384.4 L157.817051,387.116 L155.717051,387.116 L155.717051,384.4 L157.817051,384.4 Z M157.817051,389.552 L157.817051,404 L155.717051,404 L155.717051,389.552 L157.817051,389.552 Z M166.728419,404.28 C165.384412,404.28 164.105759,403.864671 162.892419,403.034 C161.67908,402.203329 161.072419,400.733344 161.072419,398.624 L161.072419,394.816 C161.072419,392.706656 161.67908,391.236671 162.892419,390.406 C164.105759,389.575329 165.384412,389.16 166.728419,389.16 C167.381756,389.16 168.049082,389.309332 168.730419,389.608 C169.411756,389.906668 169.929751,390.34533 170.284419,390.924 L170.284419,384.4 L172.384419,384.4 L172.384419,404 L170.284419,404 L170.284419,402.516 C169.929751,403.09467 169.411756,403.533332 168.730419,403.832 C168.049082,404.130668 167.381756,404.28 166.728419,404.28 Z M163.172419,398.652 C163.172419,399.846673 163.531749,400.74733 164.250419,401.354 C164.969089,401.96067 165.795081,402.264 166.728419,402.264 C167.661757,402.264 168.487749,401.96067 169.206419,401.354 C169.925089,400.74733 170.284419,399.846673 170.284419,398.652 L170.284419,394.788 C170.284419,393.593327 169.925089,392.69267 169.206419,392.086 C168.487749,391.47933 167.661757,391.176 166.728419,391.176 C165.795081,391.176 164.969089,391.47933 164.250419,392.086 C163.531749,392.69267 163.172419,393.593327 163.172419,394.788 L163.172419,398.652 Z M181.127787,391.176 C180.30645,391.176 179.564457,391.409331 178.901787,391.876 C178.239117,392.342669 177.823788,393.042662 177.655787,393.976 L175.499787,393.976 C175.686455,392.183991 176.358448,390.933337 177.515787,390.224 C178.673127,389.514663 179.877115,389.16 181.127787,389.16 C182.471794,389.16 183.750448,389.575329 184.963787,390.406 C186.177127,391.236671 186.783787,392.706656 186.783787,394.816 L186.783787,404 L184.683787,404 L184.683787,402.516 C184.217118,403.113336 183.591791,403.556665 182.807787,403.846 C182.023784,404.135335 181.146459,404.28 180.175787,404.28 C178.943781,404.28 177.837792,403.93467 176.857787,403.244 C175.877783,402.55333 175.387787,401.470674 175.387787,399.996 C175.387787,399.267996 175.597785,398.484004 176.017787,397.644 C176.43779,396.803996 177.273115,396.206668 178.523787,395.852 C179.345125,395.609332 180.273782,395.432001 181.309787,395.32 C182.345793,395.207999 183.470448,395.114667 184.683787,395.04 L184.683787,394.788 C184.683787,393.593327 184.324458,392.69267 183.605787,392.086 C182.887117,391.47933 182.061125,391.176 181.127787,391.176 Z M184.683787,398.792 L184.683787,396.916 C183.11578,397.028001 181.855792,397.149333 180.903787,397.28 C179.951783,397.410667 179.233123,397.606665 178.747787,397.868 C178.225118,398.166668 177.884455,398.483998 177.725787,398.82 C177.56712,399.156002 177.487787,399.529331 177.487787,399.94 C177.487787,400.593337 177.744452,401.143998 178.257787,401.592 C178.771123,402.040002 179.559782,402.264 180.623787,402.264 C181.743793,402.264 182.70045,401.965336 183.493787,401.368 C184.287125,400.770664 184.683787,399.912006 184.683787,398.792 Z M195.499156,404.28 C194.155149,404.28 192.876495,403.864671 191.663156,403.034 C190.449816,402.203329 189.843156,400.733344 189.843156,398.624 L189.843156,394.816 C189.843156,392.706656 190.449816,391.236671 191.663156,390.406 C192.876495,389.575329 194.155149,389.16 195.499156,389.16 C196.152492,389.16 196.819819,389.309332 197.501156,389.608 C198.182492,389.906668 198.700487,390.34533 199.055156,390.924 L199.055156,384.4 L201.155156,384.4 L201.155156,404 L199.055156,404 L199.055156,402.516 C198.700487,403.09467 198.182492,403.533332 197.501156,403.832 C196.819819,404.130668 196.152492,404.28 195.499156,404.28 Z M191.943156,398.652 C191.943156,399.846673 192.302485,400.74733 193.021156,401.354 C193.739826,401.96067 194.565818,402.264 195.499156,402.264 C196.432494,402.264 197.258485,401.96067 197.977156,401.354 C198.695826,400.74733 199.055156,399.846673 199.055156,398.652 L199.055156,394.788 C199.055156,393.593327 198.695826,392.69267 197.977156,392.086 C197.258485,391.47933 196.432494,391.176 195.499156,391.176 C194.565818,391.176 193.739826,391.47933 193.021156,392.086 C192.302485,392.69267 191.943156,393.593327 191.943156,394.788 L191.943156,398.652 Z M210.066524,402.264 C210.887861,402.264 211.629854,402.030669 212.292524,401.564 C212.955194,401.097331 213.370523,400.397338 213.538524,399.464 L215.694524,399.464 C215.507856,401.256009 214.835863,402.506663 213.678524,403.216 C212.521185,403.925337 211.317197,404.28 210.066524,404.28 C208.722517,404.28 207.443863,403.864671 206.230524,403.034 C205.017185,402.203329 204.410524,400.733344 204.410524,398.624 L204.410524,394.816 C204.410524,392.706656 205.017185,391.236671 206.230524,390.406 C207.443863,389.575329 208.722517,389.16 210.066524,389.16 C211.410531,389.16 212.689185,389.575329 213.902524,390.406 C215.115863,391.236671 215.722524,392.706656 215.722524,394.816 L215.722524,397.252 L206.510524,397.252 L206.510524,398.652 C206.510524,399.846673 206.869854,400.74733 207.588524,401.354 C208.307194,401.96067 209.133186,402.264 210.066524,402.264 Z M213.622524,395.32 L213.622524,394.788 C213.622524,393.593327 213.263194,392.69267 212.544524,392.086 C211.825854,391.47933 210.999862,391.176 210.066524,391.176 C209.133186,391.176 208.307194,391.47933 207.588524,392.086 C206.869854,392.69267 206.510524,393.593327 206.510524,394.788 L206.510524,395.32 L213.622524,395.32 Z" id="MenoralcanceMaiorVelocidade" fill="#6D6D6D" fill-rule="nonzero" opacity="0.900000036"></path>
    </g>
</svg>