<?xml version="1.0" encoding="UTF-8"?>
<svg width="605px" height="415px" viewBox="0 0 605 415" version="1.1" xmlns="http://www.w3.org/2000/svg" xmlns:xlink="http://www.w3.org/1999/xlink">
    <!-- Generator: Sketch 53 (72520) - https://sketchapp.com -->
    <title>69_ts_tv_cabo_coaxial copy 39</title>
    <desc>Created with Sketch.</desc>
    <defs>
        <radialGradient cx="50%" cy="50%" fx="50%" fy="50%" r="50%" gradientTransform="translate(0.500000,0.500000),scale(0.051264,1.000000),rotate(90.000000),scale(1.000000,18.616626),translate(-0.500000,-0.500000)" id="radialGradient-1">
            <stop stop-color="#040404" offset="0%"></stop>
            <stop stop-color="#151515" stop-opacity="0" offset="100%"></stop>
        </radialGradient>
        <linearGradient x1="50%" y1="0%" x2="50%" y2="100%" id="linearGradient-2">
            <stop stop-color="#000000" offset="0%"></stop>
            <stop stop-color="#434343" offset="100%"></stop>
        </linearGradient>
        <linearGradient x1="50%" y1="0%" x2="50%" y2="100%" id="linearGradient-3">
            <stop stop-color="#383838" offset="0%"></stop>
            <stop stop-color="#959595" offset="100%"></stop>
        </linearGradient>
        <linearGradient x1="50%" y1="0%" x2="50%" y2="100%" id="linearGradient-4">
            <stop stop-color="#383838" offset="0%"></stop>
            <stop stop-color="#525252" offset="100%"></stop>
        </linearGradient>
        <linearGradient x1="14.124954%" y1="7.62622665%" x2="81.7079161%" y2="80.4047389%" id="linearGradient-5">
            <stop stop-color="#C8C8C8" offset="0%"></stop>
            <stop stop-color="#939393" offset="100%"></stop>
        </linearGradient>
        <linearGradient x1="49.281254%" y1="3.45065584%" x2="48.2279091%" y2="9.73998301%" id="linearGradient-6">
            <stop stop-color="#7F7F7F" offset="0%"></stop>
            <stop stop-color="#454545" offset="100%"></stop>
        </linearGradient>
        <radialGradient cx="50%" cy="50%" fx="50%" fy="50%" r="50%" gradientTransform="translate(0.500000,0.500000),scale(0.027897,1.000000),rotate(90.000000),scale(1.000000,18.616626),translate(-0.500000,-0.500000)" id="radialGradient-7">
            <stop stop-color="#040404" offset="0%"></stop>
            <stop stop-color="#151515" stop-opacity="0" offset="100%"></stop>
        </radialGradient>
    </defs>
    <g id="FINAL" stroke="none" stroke-width="1" fill="none" fill-rule="evenodd">
        <g id="Group-5-Copy" transform="translate(73.000000, 30.693146)">
            <g id="Group-6-Copy" transform="translate(147.636794, 290.797220) rotate(2.000000) translate(-147.636794, -290.797220) translate(84.636794, 250.797220)">
                <path d="M47.1758353,-13.4202572 L91.472686,37.3977711 C95.5725364,42.1011825 96.7663549,48.6725676 94.5828101,54.5174786 L75.6360301,105.234205 C74.4763734,108.338373 71.0198603,109.914711 67.9156921,108.755054 C66.7250238,108.310244 65.7063725,107.498807 65.006606,106.437735 L33.0534619,57.9864463 C31.1460426,55.0941824 30.2986353,51.6308093 30.6551783,48.1846062 L36.6847885,-10.0952138 C37.0258035,-13.3913286 39.9742797,-15.7869104 43.2703945,-15.4458955 C44.7817295,-15.2895333 46.1774601,-14.5656085 47.1758353,-13.4202572 Z" id="Rectangle-Copy-4" fill="#A6A6A6" transform="translate(63.116797, 46.828931) rotate(-270.000000) translate(-63.116797, -46.828931) "></path>
                <path d="M52.6102613,-21.5343107 L95.5857331,28.2871548 C99.6279964,32.9733507 100.804272,39.4860454 98.6566991,45.2902041 L80.1101794,95.4151465 C78.9602772,98.5229413 75.5087318,100.110127 72.4009369,98.9602249 C71.3685082,98.5782202 70.4610729,97.9195431 69.7779627,97.056295 L28.267224,44.5990653 C25.1339891,40.6395881 24.2030371,35.3694238 25.7901309,30.5761207 L42.3710778,-19.5012638 C43.4126577,-22.6470189 46.8071634,-24.3527899 49.9529185,-23.31121 C50.9830877,-22.9701143 51.9014652,-22.356018 52.6102613,-21.5343107 Z" id="Rectangle" fill="#000000" transform="translate(62.371525, 37.858876) rotate(-270.000000) translate(-62.371525, -37.858876) "></path>
                <ellipse id="Oval" stroke="#979797" transform="translate(37.391839, 57.526034) rotate(13.000000) translate(-37.391839, -57.526034) " cx="37.3918389" cy="57.5260342" rx="4.58544414" ry="2.80729884"></ellipse>
            </g>
            <g id="Group-8">
                <g id="Group-8-Copy" transform="translate(77.000000, 0.000000)">
                    <g id="Group" transform="translate(0.000000, 0.500000)">
                        <g id="Group-7" opacity="0.300000012" transform="translate(219.417903, 209.192693) rotate(20.000000) translate(-219.417903, -209.192693) translate(-10.082097, 199.692693)" fill="url(#radialGradient-1)">
                            <ellipse id="Oval" cx="181.466617" cy="9.30271319" rx="181.466617" ry="9.30271319"></ellipse>
                            <ellipse id="Oval-Copy" cx="276.872885" cy="9.30271319" rx="181.466617" ry="9.30271319"></ellipse>
                        </g>
                        <path d="M163.065295,154.407992 L169.108597,149.796074 C170.687856,148.590869 172.945111,148.8941 174.150316,150.47336 C174.804795,151.330967 175.0398,152.437042 174.790545,153.486663 L164.72229,195.884408 C164.53561,196.670522 164.161203,197.399686 163.631124,198.009473 L162.768363,199.001965 C162.423579,199.398594 161.822544,199.440623 161.425915,199.095838 C161.218011,198.91511 161.098631,198.653153 161.098631,198.377677 L161.098631,158.382772 C161.098631,156.823689 161.825892,155.353837 163.065295,154.407992 Z" id="Rectangle-Copy-2" fill="url(#linearGradient-2)" transform="translate(167.993265, 174.193797) rotate(49.000000) translate(-167.993265, -174.193797) "></path>
                        <path d="M160.065295,154.407992 L166.108597,149.796074 C167.687856,148.590869 169.945111,148.8941 171.150316,150.47336 C171.804795,151.330967 172.0398,152.437042 171.790545,153.486663 L161.72229,195.884408 C161.53561,196.670522 161.161203,197.399686 160.631124,198.009473 L159.768363,199.001965 C159.423579,199.398594 158.822544,199.440623 158.425915,199.095838 C158.218011,198.91511 158.098631,198.653153 158.098631,198.377677 L158.098631,158.382772 C158.098631,156.823689 158.825892,155.353837 160.065295,154.407992 Z" id="Rectangle-Copy-7" fill="url(#linearGradient-3)" transform="translate(164.993265, 174.193797) rotate(49.000000) translate(-164.993265, -174.193797) "></path>
                        <path d="M283.298867,201.796057 L289.342169,197.184139 C290.921428,195.978934 293.178683,196.282165 294.383888,197.861425 C295.038367,198.719032 295.273372,199.825107 295.024117,200.874728 L284.955862,243.272473 C284.769183,244.058587 284.394775,244.787751 283.864696,245.397538 L283.001936,246.39003 C282.657151,246.786659 282.056116,246.828688 281.659487,246.483903 C281.451583,246.303175 281.332203,246.041218 281.332203,245.765742 L281.332203,205.770837 C281.332203,204.211754 282.059464,202.741902 283.298867,201.796057 Z" id="Rectangle-Copy-6" fill="url(#linearGradient-4)" transform="translate(288.226837, 221.581862) scale(-1, 1) rotate(25.000000) translate(-288.226837, -221.581862) "></path>
                        <path d="M281.443398,201.796057 L287.4867,197.184139 C289.06596,195.978934 291.323214,196.282165 292.528419,197.861425 C293.182898,198.719032 293.417903,199.825107 293.168648,200.874728 L283.100393,243.272473 C282.913714,244.058587 282.539307,244.787751 282.009227,245.397538 L281.146467,246.39003 C280.801682,246.786659 280.200648,246.828688 279.804019,246.483903 C279.596115,246.303175 279.476734,246.041218 279.476734,245.765742 L279.476734,205.770837 C279.476734,204.211754 280.203996,202.741902 281.443398,201.796057 Z" id="Rectangle-Copy-3" fill="url(#linearGradient-3)" transform="translate(286.371368, 221.581862) scale(-1, 1) rotate(25.000000) translate(-286.371368, -221.581862) "></path>
                        <path d="M114.026443,0.610519344 L359.597768,77.8987825 C361.680245,78.5541969 363.096714,80.4849666 363.096714,82.6681468 L363.096714,229.751515 C363.096714,232.512939 360.858138,234.751515 358.096714,234.751515 C357.53077,234.751515 356.968934,234.655432 356.435153,234.467362 L110.863828,147.943829 C108.863458,147.239027 107.525389,145.348884 107.525389,143.227982 L107.525389,5.37988367 C107.525389,2.61845992 109.763965,0.379883672 112.525389,0.379883672 C113.034565,0.379883672 113.540754,0.457659149 114.026443,0.610519344 Z" id="Rectangle" fill="#000000"></path>
                        <path d="M109.57988,5.05055291 C109.23876,4.94277097 108.883132,4.88792429 108.525389,4.88792429 C106.592392,4.88792429 105.025389,6.45492766 105.025389,8.38792429 L105.025389,146.232598 C105.025389,147.715649 105.960074,149.037701 107.358235,149.532258 L351.92956,236.041951 C352.304407,236.174542 352.699107,236.242291 353.096714,236.242291 C355.029711,236.242291 356.596714,234.675288 356.596714,232.742291 L356.596714,85.6638244 C356.596714,84.1370507 355.607037,82.7864444 354.151206,82.326453 L109.57988,5.05055291 Z" id="Rectangle-Copy-5" stroke="url(#linearGradient-5)" stroke-width="3" fill="#000000"></path>
                    </g>
                </g>
                <g id="Group-4" transform="translate(109.500000, 181.000000) scale(-1, 1) translate(-109.500000, -181.000000) translate(0.000000, 118.000000)">
                    <g id="Group-3" transform="translate(132.000000, 0.000000)">
                        <path d="M10.9261019,-1.10134124e-13 L79.1264667,47.169324 L67.9923837,51.5196587 C65.8186364,52.3689903 63.3645804,52.0791424 61.4485142,50.7467641 L0.448653614,8.32918389 L10.9261019,-1.10134124e-13 Z" id="Rectangle-Copy-2" fill="#7F7F7F" transform="translate(39.787560, 26.030203) scale(-1, -1) translate(-39.787560, -26.030203) "></path>
                        <path d="M69.2654005,44.0206854 L80.0633209,52.7581592 L76.6062764,118.086812 L66.0073259,110.507944 L66.0073259,45.5754356 C66.0073259,44.4708661 66.9027564,43.5754356 68.0073259,43.5754356 C68.465293,43.5754356 68.9093882,43.7326069 69.2654005,44.0206854 Z" id="Rectangle-Copy" fill="url(#linearGradient-6)" transform="translate(73.035323, 80.755470) scale(-1, 1) translate(-73.035323, -80.755470) "></path>
                        <path d="M3.1394631,5.07925565 L66.4524912,48.9708048 C68.3389582,50.2785919 69.4643704,52.4281765 69.4643704,54.7236208 L69.4643704,118.086812 L4.19220214e-13,69.9308649 L4.16555679e-13,6.72291737 C4.15929881e-13,5.61834787 0.8954305,4.72291737 2,4.72291737 C2.40724178,4.72291737 2.80477924,4.84723716 3.1394631,5.07925565 Z" id="Rectangle" fill="#5E5E5E"></path>
                        <polygon id="Rectangle" fill="#D8D8D8" points="0.448653614 48.083859 69.3385752 98.4337791 69.3385752 102.157559 0.448653614 51.8076385"></polygon>
                    </g>
                    <g id="Group-2" transform="translate(0.250000, 0.000000)" stroke="#00C0D2" stroke-linecap="round" stroke-width="5">
                        <path d="M102.424056,97.467561 C121.682683,97.467561 139.014736,93.1557708 151.079976,86.2782242 C161.85061,80.1386415 168.424056,71.9543756 168.424056,62.967561 C168.424056,43.9137372 138.87485,28.467561 102.424056,28.467561 C80.2380938,28.467561 60.6089005,34.189768 48.6431305,42.9647946" id="Oval" opacity="0.699999988" transform="translate(108.533593, 62.967561) scale(-1, -1) translate(-108.533593, -62.967561) "></path>
                        <path d="M100.611045,110.4417 C126.970718,110.4417 150.69345,104.540065 167.207389,95.1266279 C181.949375,86.7232564 190.946584,75.5212857 190.946584,63.2208502 C190.946584,37.1414947 150.501985,16 100.611045,16 C70.2446674,16 43.3777923,23.8321008 27,35.8426578" id="Oval-Copy-2" opacity="0.5" transform="translate(108.973292, 63.220850) scale(-1, -1) translate(-108.973292, -63.220850) "></path>
                        <path d="M97.9387499,125.531905 C132.722093,125.531905 164.025818,117.744305 185.81706,105.322648 C205.270092,94.2338398 217.142508,79.4520936 217.142508,63.2208502 C217.142508,28.8074046 163.773167,0.909794939 97.9387499,0.909794939 C57.8682938,0.909794939 22.4156635,11.2447733 0.804076334,27.0935028" id="Oval-Copy-4" opacity="0.200000003" transform="translate(108.973292, 63.220850) scale(-1, -1) translate(-108.973292, -63.220850) "></path>
                        <path d="M101.798268,82.4990707 C113.213796,82.4990707 123.487349,79.9432622 130.639006,75.8666047 C137.023287,72.2273744 140.919689,67.3761606 140.919689,62.0492371 C140.919689,50.7551059 123.404432,41.5994035 101.798268,41.5994035 C88.6475654,41.5994035 77.0123847,44.9912348 69.9196888,50.1926213" id="Oval-Copy" opacity="0.9" transform="translate(105.419689, 62.049237) scale(-1, -1) translate(-105.419689, -62.049237) "></path>
                    </g>
                </g>
            </g>
        </g>
        <g id="Group-3-Copy" transform="translate(554.000000, 62.000000)" fill="url(#radialGradient-7)" opacity="0.300000012">
            <g id="Group-2">
                <g id="Group-8">
                    <g id="Group" transform="translate(0.669006, 0.000000)">
                        <ellipse id="Oval" cx="397.472279" cy="276.287039" rx="396.863826" ry="11.0713084"></ellipse>
                    </g>
                </g>
            </g>
        </g>
    </g>
</svg>