<?xml version="1.0" encoding="UTF-8"?>
<svg width="37px" height="37px" viewBox="0 0 37 37" version="1.1" xmlns="http://www.w3.org/2000/svg" xmlns:xlink="http://www.w3.org/1999/xlink">
    <title>Slice Copy 4</title>
    <defs>
        <path d="M18.8876465,4.27989888 C16.7198253,1.86958443 13.7634152,0.32162926 10.3371854,0.32162926 C6.76727845,0.32162926 3.46356713,1.97894348 1.53333861,4.58917325 C0.884056835,5.46719085 -0.490752039,8.08482832 1.30409309,7.84409201 C4.32089077,7.43945947 5.36087257,6.13050885 10.0825706,6.13050885 C14.8042687,6.13050885 17.3491175,7.84409201 19.1146884,7.84409201 C20.8802592,7.84409201 19.5780009,5.04747654 18.8876465,4.27989888 Z" id="path-1"></path>
    </defs>
    <g id="Apresentacao_pwa" stroke="none" stroke-width="1" fill="none" fill-rule="evenodd">
        <g id="Group-15" transform="translate(0.271923, 0.319916)">
            <g id="Group-14">
                <circle id="Oval" fill="#FFCA28" cx="18.161252" cy="17.9595441" r="17.9244391"></circle>
                <path d="M29.7479587,4.28302817 C33.6250037,7.5709226 36.0856911,12.4778712 36.0856911,17.9595441 C36.0856911,27.8589384 28.0606463,35.8839832 18.161252,35.8839832 C12.6667205,35.8839832 7.74961277,33.411738 4.46162513,29.5189438 C7.58630355,32.1691918 11.6314217,33.7679618 16.0499525,33.7679618 C25.9493469,33.7679618 33.9743917,25.742917 33.9743917,15.8435227 C33.9743917,11.5055858 32.4334129,7.52756381 29.8690001,4.42700157 Z" id="Combined-Shape" fill="#DE9A1F" opacity="0.5"></path>
                <g id="Path-4" transform="translate(7.519124, 21.859404)">
                    <mask id="mask-2" fill="white">
                        <use xlink:href="#path-1"></use>
                    </mask>
                    <use id="Mask" fill="#3E4347" transform="translate(10.208531, 4.090645) rotate(-180.000000) translate(-10.208531, -4.090645) " xlink:href="#path-1"></use>
                    <path d="M5.48735167,7.62857826 C5.611931,6.86353857 6.48414948,4.30748595 8.1047148,4.57817031 C9.72528012,4.84885467 9.62502375,5.14245877 10.6791324,5.14245877 C11.733241,5.14245877 12.3131196,4.57817031 13.2583691,4.57817031 C14.2036187,4.57817031 15.4245255,5.88139453 16.1199866,7.62857826 C14.6564356,8.80267253 7.70669694,8.47320445 5.48735167,7.62857826 Z" fill="#E24B4B" mask="url(#mask-2)"></path>
                </g>
                <circle id="Oval-Copy-2" fill="#3E4347" cx="11.4533535" cy="13.6417677" r="2.201755"></circle>
                <circle id="Oval-Copy-3" fill="#3E4347" cx="24.8827649" cy="13.6417677" r="2.201755"></circle>
            </g>
            <g id="Group-11" transform="translate(4.944053, 7.890693)">
                <g id="Group-13" transform="translate(19.419394, 6.067756) rotate(-345.000000) translate(-19.419394, -6.067756) translate(13.919394, 1.567756)">
                    <g id="Group-12" transform="translate(0.000000, 0.000000)">
                        <path d="M7.44617039,-1.13686838e-13 C9.0364967,-1.13686838e-13 10.3257109,1.28921419 10.3257109,2.87954049 C10.3257109,3.78829838 9.90474299,4.59873395 9.24717609,5.12647829 L5.82001177,8.53772522 C5.45386644,8.90217174 4.86200945,8.90211363 4.49593569,8.53759523 L4.49593569,8.53759523 L1.02462477,5.08213212 C0.398047737,4.55391623 -1.78417281e-11,3.76321288 -1.78417281e-11,2.87954049 C-1.78417281e-11,1.28921419 1.28921419,-1.13686838e-13 2.87954049,-1.13686838e-13 C3.80993547,-1.13686838e-13 4.63727038,0.441252634 5.16369106,1.12590375 C5.68844051,0.441252634 6.51577541,-1.13686838e-13 7.44617039,-1.13686838e-13 Z" id="Combined-Shape" fill="#E24B4B"></path>
                        <path d="M10.3257109,2.87954049 C10.3257109,3.78829838 9.90474299,4.59873395 9.24717609,5.12647829 L5.82001177,8.53772522 C5.48437855,8.87180119 4.95908484,8.89959203 4.59189666,8.62113188 L4.49593569,8.53759523 L4.43788487,8.48325468 C4.70152667,8.50412586 4.97230384,8.4140106 5.17435042,8.21290146 L5.17435042,8.21290146 L8.60151474,4.80165453 C9.25908163,4.27391019 9.68004953,3.46347462 9.68004953,2.55471674 C9.68004953,1.55775082 9.1733935,0.679120753 8.40351699,0.162262114 C9.5227554,0.556932187 10.3257109,1.62446619 10.3257109,2.87954049 Z" id="Combined-Shape" fill="#D03F3F"></path>
                    </g>
                    <circle id="Oval" fill="#E76F6F" cx="2.66738905" cy="2.96304422" r="1"></circle>
                </g>
                <g id="Group-13-Copy" transform="translate(6.482446, 6.067756) scale(-1, 1) rotate(-345.000000) translate(-6.482446, -6.067756) translate(0.982446, 1.567756)">
                    <g id="Group-12" transform="translate(0.000000, -0.000000)">
                        <path d="M7.44617039,3.41060513e-13 C9.0364967,3.41060513e-13 10.3257109,1.28921419 10.3257109,2.87954049 C10.3257109,3.78829838 9.90474299,4.59873395 9.24717609,5.12647829 L5.82001177,8.53772522 C5.45386644,8.90217174 4.86200945,8.90211363 4.49593569,8.53759523 L4.49593569,8.53759523 L1.02462477,5.08213212 C0.398047737,4.55391623 -9.65627578e-12,3.76321288 -9.65627578e-12,2.87954049 C-9.65627578e-12,1.28921419 1.28921419,3.41060513e-13 2.87954049,3.41060513e-13 C3.80993547,3.41060513e-13 4.63727038,0.441252634 5.16369106,1.12590375 C5.68844051,0.441252634 6.51577541,3.41060513e-13 7.44617039,3.41060513e-13 Z" id="Combined-Shape" fill="#E24B4B"></path>
                        <path d="M10.3257109,2.8795405 C10.3257109,3.78829838 9.90474299,4.59873395 9.24717609,5.12647829 L5.82001177,8.53772522 C5.48437855,8.87180119 4.95908484,8.89959203 4.59189666,8.62113188 L4.49593569,8.53759523 L4.43788487,8.48325468 C4.70152667,8.50412586 4.97230384,8.4140106 5.17435042,8.21290146 L5.17435042,8.21290146 L8.60151474,4.80165453 C9.25908163,4.27391019 9.68004953,3.46347462 9.68004953,2.55471674 C9.68004953,1.55775082 9.1733935,0.679120753 8.40351699,0.162262114 C9.5227554,0.556932187 10.3257109,1.62446619 10.3257109,2.8795405 Z" id="Combined-Shape" fill="#D03F3F"></path>
                    </g>
                    <circle id="Oval" fill="#E76F6F" cx="2.66738905" cy="2.96304422" r="1"></circle>
                </g>
            </g>
        </g>
    </g>
</svg>