<?xml version="1.0" encoding="UTF-8"?>
<svg width="60px" height="60px" viewBox="0 0 60 60" version="1.1" xmlns="http://www.w3.org/2000/svg" xmlns:xlink="http://www.w3.org/1999/xlink">
    <title>Slice Copy 7</title>
    <g id="prototipo" stroke="none" stroke-width="1" fill="none" fill-rule="evenodd">
        <g id="gritar" transform="translate(10.808958, 1.500000)" fill="#00C0D2" fill-rule="nonzero">
            <path d="M11.2909568,35.8366722 C12.1294002,37.2905366 14.0154456,37.828804 15.5069827,36.9665515 C16.982848,36.1136418 17.490073,34.2278977 16.6362592,32.750827 L14.3216492,28.7412474 C15.2129616,28.0080985 15.7270511,27.3583199 15.8639178,26.7919118 C16.0007845,26.2255037 15.9145563,25.5589482 15.6052331,24.7922456 C15.7248815,24.7690391 16.5114872,24.6147318 30.3831738,21.8935582 C32.0980346,21.8004313 33.1254442,19.9249342 32.2592738,18.4255612 L29.6951198,13.9844033 C30.852738,12.0105253 31.0820893,10.4183399 30.3831738,9.2078469 C29.6842584,7.99735395 28.267263,7.53230926 26.1321877,7.81271282 L23.2856394,2.88211137 C22.8733495,2.16783716 22.1346634,1.73535476 21.3100836,1.72480638 C21.300138,1.72480638 21.2904938,1.72480638 21.2805482,1.72480638 C20.4836955,1.72480638 19.7603799,2.12142445 19.3318154,2.79199828 L9.25301506,15.6314532 L2.70067966,19.4143939 C0.123566379,20.9017116 -0.769125606,24.2078668 0.723918341,26.7919118 C2.08797108,29.1547428 4.96375346,30.0842034 7.40554639,29.1065218 L11.2909568,35.8366722 Z M15.300235,33.5226651 C15.7263884,34.2598442 15.4741321,35.2031683 14.7348433,35.6302259 C13.9931434,36.0590918 13.0486137,35.7956843 12.6272823,35.0654369 L8.76959905,28.3829048 L11.4422503,26.8398315 C15.9069159,34.5738837 15.2285061,33.3987972 15.300235,33.5226651 Z M13.5501126,27.4046204 L12.7785759,26.0682948 L14.1149015,25.2967582 C14.4289064,25.8205331 14.5388432,26.2580757 14.4447117,26.6093861 C14.3505802,26.9606965 14.0523805,27.2257746 13.5501126,27.4046204 Z M29.3062174,9.98549028 C29.7015588,10.5809428 29.543675,11.4158306 28.832566,12.4901538 L26.9947415,9.30666093 C28.1944656,9.16808101 28.9649575,9.39435746 29.3062174,9.98549028 Z M20.622331,3.63797619 C20.8293801,3.29922338 21.1578859,3.26426312 21.2910965,3.2678797 C21.4228002,3.26938659 21.7510048,3.31037447 21.9490124,3.65334659 L30.9229481,19.1970978 C31.2152882,19.7031174 30.8599594,20.3393338 30.2737723,20.3538001 C30.1685902,20.3562111 30.1200678,20.3751982 29.8506328,20.4255288 L20.3580194,3.98366072 C20.5572325,3.72748648 20.58285,3.70277323 20.622331,3.63797619 L20.622331,3.63797619 Z M19.3312127,5.29165654 L28.2499956,20.7395684 L14.7896947,23.3796704 L10.6969338,16.290876 L19.3312127,5.29165654 Z M2.06024398,26.0203751 C1.72149117,25.4341881 1.54247059,24.7687378 1.54247059,24.0954515 C1.54247059,22.7193435 2.28206077,21.4378693 3.47221632,20.7507195 L9.48568151,17.2788046 L13.3433648,23.9604326 L7.32989961,27.4326489 C5.48755448,28.4959229 3.1238193,27.8624189 2.06024398,26.0203751 Z" id="Shape" stroke="#00C0D2" stroke-width="0.3"></path>
            <path d="M8.17708305,24.2705542 C7.9640063,23.9016632 7.4920429,23.775083 7.12315193,23.9881596 L5.78682629,24.7596963 C5.41853813,24.9724717 4.94567049,24.8455901 4.73289518,24.4773018 C4.51981844,24.1084109 4.04785504,23.9818306 3.67896407,24.1949074 C3.31007311,24.4079841 3.18349288,24.8799475 3.39656962,25.2488385 C4.0315804,26.348881 5.44807348,26.736759 6.55836295,26.0960219 L7.89468859,25.3244853 C8.26357956,25.1114085 8.39015979,24.6397465 8.17708305,24.2705542 L8.17708305,24.2705542 Z" id="Path"></path>
            <path d="M38.3559203,3.37517152 L34.056713,5.76753788 C33.6845069,5.97488836 33.5503921,6.44474214 33.7577425,6.81694832 C33.9644903,7.18885306 34.4340427,7.32357062 34.807153,7.11591878 L39.1060588,4.72355234 C39.4785664,4.51620186 39.6123797,4.04634807 39.4050293,3.67414197 C39.1979801,3.30163443 38.7281264,3.16782104 38.3559203,3.37517152 L38.3559203,3.37517152 Z" id="Path"></path>
            <path d="M37.9050535,11.3660008 L34.924089,10.5673398 C34.5124018,10.4570341 34.0892623,10.7011532 33.9789566,11.1128403 C33.8686509,11.5245275 34.1130714,11.9473657 34.5247585,12.0576713 L37.5060244,12.8563323 C37.9201226,12.9675421 38.3411525,12.7195051 38.4508555,12.3108318 C38.561161,11.8991446 38.3167406,11.4760051 37.9050535,11.3660008 Z" id="Path"></path>
            <path d="M30.4139148,0.572022062 L29.6143497,3.553288 C29.504044,3.9649751 29.748163,4.38781338 30.1598502,4.49842041 C30.5712359,4.60842464 30.9943755,4.36490838 31.1049826,3.95291984 L31.9042463,0.971653978 C32.0145519,0.559966801 31.7704329,0.136827243 31.3587458,0.0265215726 C30.94736,-0.0837840975 30.5242204,0.160334962 30.4139148,0.572022062 L30.4139148,0.572022062 Z" id="Path"></path>
        </g>
    </g>
</svg>