<?xml version="1.0" encoding="UTF-8"?>
<svg width="61px" height="60px" viewBox="0 0 61 60" version="1.1" xmlns="http://www.w3.org/2000/svg" xmlns:xlink="http://www.w3.org/1999/xlink">
    <title>Slice Copy 6</title>
    <g id="prototipo" stroke="none" stroke-width="1" fill="none" fill-rule="evenodd">
        <g id="Group-39" transform="translate(14.000000, 1.500000)">
            <path d="M18.0668857,1.76706162 L33.6157197,32.5491296 C33.8647285,33.0420931 33.6669642,33.6435805 33.1740007,33.8925894 C33.0341962,33.9632083 32.8797582,34 32.7231303,34 L1.62546231,34 C1.07317756,34 0.625462311,33.5522847 0.625462311,33 C0.625462311,32.843372 0.662253979,32.688934 0.732872905,32.5491296 L16.2817069,1.76706162 C16.5307157,1.2740981 17.1322032,1.07633378 17.6251667,1.32534265 C17.8157978,1.42163543 17.9705929,1.57643055 18.0668857,1.76706162 Z" id="Triangle" stroke="#00C0D2" stroke-width="2"></path>
            <path d="M18.2189391,23.8805501 L18.2189391,10.2305501 L16.1296534,10.2305501 L16.1296534,23.8805501 L18.2189391,23.8805501 Z M18.6367963,29.7305501 L18.6367963,26.8055501 L15.7117963,26.8055501 L15.7117963,29.7305501 L18.6367963,29.7305501 Z" id="!" fill="#00C0D2" fill-rule="nonzero"></path>
        </g>
    </g>
</svg>