<?xml version="1.0" encoding="UTF-8"?>
<svg width="60px" height="60px" viewBox="0 0 60 60" version="1.1" xmlns="http://www.w3.org/2000/svg" xmlns:xlink="http://www.w3.org/1999/xlink">
    <title>Slice Copy 3</title>
    <g id="prototipo" stroke="none" stroke-width="1" fill="none" fill-rule="evenodd">
        <g id="Group-75" transform="translate(19.000000, 2.000000)" stroke="#00C0D2" stroke-width="2">
            <path d="M22.29112,47.1290133 L22.29112,32.1507022 C22.29112,31.4143467 21.6941867,30.8173689 20.9577867,30.8173689 L1.55555556,30.8173689 C0.819177778,30.8173689 0.222222222,31.4143467 0.222222222,32.1507022 L0.222222222,47.1290133" id="Path"></path>
            <path d="M19.9236978,27.6159911 L19.9236978,21.9367911 C19.9236978,21.2004356 19.3267644,20.6034578 18.5903644,20.6034578 L4.13814222,20.6034578 C3.40175111,20.6034578 2.80479556,21.2004356 2.80479556,21.9367911 L2.80479556,27.6159911" id="Path"></path>
            <circle id="Oval" cx="5.93174222" cy="5.51021333" r="1.77178667"></circle>
            <circle id="Oval" cx="16.9389867" cy="5.51021333" r="1.77178667"></circle>
            <circle id="Oval" cx="11.4354311" cy="1.99400889" r="1.77178667"></circle>
            <line x1="5.99976837" y1="6.95161492" x2="6.00221542" y2="18.0161132" id="Path"></line>
            <line x1="17.0070573" y1="6.95161492" x2="17.0095043" y2="18.0161132" id="Path"></line>
            <line x1="11.5059252" y1="3.66808" x2="11.5059252" y2="18.0162377" id="Path"></line>
        </g>
    </g>
</svg>