<?xml version="1.0" encoding="UTF-8"?>
<svg width="60px" height="60px" viewBox="0 0 60 60" version="1.1" xmlns="http://www.w3.org/2000/svg" xmlns:xlink="http://www.w3.org/1999/xlink">
    <title>Slice Copy 13</title>
    <g id="prototipo" stroke="none" stroke-width="1" fill="none" fill-rule="evenodd">
        <g id="Group-42" transform="translate(15.000000, 1.732318)" stroke="#00C0D2">
            <g id="icone_fibra_fixo_menu" stroke-width="2">
                <path d="M2.46889585,3.38742269 L0.875094083,7.77758156 C0.674595255,8.32969928 0.716555848,8.94079991 0.990589951,9.46035654 C3.85476428,14.8907052 6.92583501,19.2719829 10.2038021,22.6041894 C13.4399964,25.8939319 17.2816943,28.5716997 21.7288956,30.6374928 C22.2653545,30.8866737 22.8824504,30.8960628 23.4262375,30.6633077 L28.2101435,28.6156705 C28.3763599,28.5445255 28.5211948,28.4313398 28.6304028,28.2872456 L29.9486989,26.5478227 C30.5900604,25.70158 30.492304,24.5083646 29.7217589,23.777795 L25.3362174,19.6197727 C24.5074413,18.8339932 23.2005156,18.8619974 22.4061596,19.6825566 L19.4204361,23.0468459 C16.9603443,22.3185396 14.9683685,21.2118427 13.4445087,19.7267551 C11.9206488,18.2416674 10.0960011,15.6288487 7.97056547,11.888299 L11.6919309,8.0298028 C12.5154994,7.22641604 12.5318599,5.90750823 11.7284731,5.08393974 C11.713355,5.06844177 11.6979961,5.05318043 11.6824021,5.03816128 L7.57562331,1.08276119 C6.76547119,0.302471843 5.48219585,0.306221197 4.67661708,1.09123123 L2.72103489,2.99688181 C2.60864133,3.10640564 2.52244866,3.23991039 2.46889585,3.38742269 Z" id="Path-2"></path>
            </g>
            <line x1="3.25" y1="3" x2="6.78112793" y2="6.69030762" id="Line-5" stroke-linecap="round"></line>
            <line x1="23.7253418" y1="24.4387207" x2="27.965332" y2="28.1396484" id="Line-5-Copy" stroke-linecap="round"></line>
        </g>
    </g>
</svg>