<?xml version="1.0" encoding="UTF-8"?>
<svg width="60px" height="60px" viewBox="0 0 60 60" version="1.1" xmlns="http://www.w3.org/2000/svg" xmlns:xlink="http://www.w3.org/1999/xlink">
    <title>Slice Copy 23</title>
    <g id="prototipo" stroke="none" stroke-width="1" fill="none" fill-rule="evenodd">
        <g id="Group-48" transform="translate(0.017682, -170.732318)"></g>
        <g id="Group-49" transform="translate(10.518712, 2.341153)" stroke="#00C0D2" stroke-width="2">
            <rect id="Rectangle" x="0" y="0" width="38.041739" height="26.6680049" rx="3"></rect>
            <path d="M12.4168457,5.17490511 C10.5129031,5.17490511 8.96945521,6.718353 8.96945521,8.62229559 C8.96945521,10.5262382 10.5129031,12.0696861 12.4168457,12.0696861 C14.3207883,12.0696861 15.8642362,10.5262382 15.8642362,8.62229559 C15.8642362,6.718353 14.3207883,5.17490511 12.4168457,5.17490511 Z" id="Shape" fill-rule="nonzero"></path>
            <path d="M-1.42108547e-14,22.0265231 L7.06831555,15.0481891 C7.46133344,14.6601744 8.09448543,14.6642303 8.4825001,15.0572482 C8.50073223,15.0757154 8.51823859,15.0948854 8.53497942,15.1147145 L11.9210834,19.125473 C12.2773603,19.5474744 12.9082796,19.6007546 13.330281,19.2444777 C13.3416441,19.2348843 13.3527918,19.2250387 13.3637157,19.2149482 L25.2237283,8.25973657 C25.611626,7.90143161 26.2112613,7.90648244 26.5930682,8.27127073 L38.041739,19.2096285 L38.041739,19.2096285" id="Path-8" stroke-linecap="round"></path>
        </g>
    </g>
</svg>