<?xml version="1.0" encoding="UTF-8"?>
<svg width="61px" height="60px" viewBox="0 0 61 60" version="1.1" xmlns="http://www.w3.org/2000/svg" xmlns:xlink="http://www.w3.org/1999/xlink">
    <title>Slice Copy 5</title>
    <g id="prototipo" stroke="none" stroke-width="1" fill="none" fill-rule="evenodd">
        <g id="Group-15" transform="translate(12.634451, 2.000000)" stroke="#00C0D2">
            <g id="Group-4">
                <g id="Group-3-Copy-4" transform="translate(8.595136, 16.140081)" stroke-width="1.6">
                    <path d="M0.945275037,2.12984777 C0.855516691,2.21960612 0.8,2.34360612 0.8,2.48057273 L0.8,20.0622464 C0.8,20.0829957 0.810059146,20.1024573 0.826986328,20.1144574 L20.7998876,34.2737434 L20.7998876,17.2409397 C20.7998876,16.0866591 20.2339661,15.0057251 19.2853427,14.348095 L1.57858685,2.07294463 C1.49558525,2.01540404 1.39699596,1.98457273 0.945275037,2.12984777 Z" id="Rectangle"></path>
                    <path d="M1.02357521,2.08138325 L3.97526786,0.656536213 C4.81584437,0.250771424 5.80966912,0.32828588 6.57716694,0.859474198 L22.3761114,11.793987 C24.0082485,12.9235956 24.9822142,14.7821645 24.9822142,16.7670794 C24.9822142,22.0116052 24.9822142,27.2561311 24.9822142,32.5006569 C24.9822142,32.5006569 23.7005517,33.385557 21.1372267,35.1553571" id="Path-3"></path>
                </g>
                <g id="Group-4-Copy-2" stroke-linecap="round" stroke-width="2">
                    <g id="icon_blarga_sconexao-copy-4" transform="translate(0.000000, 0.255029)">
                        <g id="offline_icon-copy-4" transform="translate(0.126955, 0.126955)">
                            <g id="Group-9" transform="translate(0.054409, 0.134512)">
                                <path d="M21.1476001,8.63232284 C19.0302957,6.29821597 15.9730697,4.83238351 12.5734802,4.83238351 C9.14441528,4.83238351 6.06367639,6.32374455 3.94449973,8.69323042" id="Oval-Copy-2"></path>
                                <path d="M24.7462233,5.51012994 C21.743104,2.19950477 17.406829,0.120413242 12.5849562,0.120413242 C7.72127631,0.120413242 3.35165133,2.23571371 0.345876535,5.59651937" id="Oval-Copy-5"></path>
                                <path d="M17.2104346,11.8276872 C16.0622785,10.5619651 14.4044287,9.76708433 12.5609246,9.76708433 C10.7014368,9.76708433 9.03083657,10.5758085 7.88166519,11.8607157" id="Oval-Copy-3"></path>
                            </g>
                        </g>
                    </g>
                </g>
            </g>
            <line x1="10.286203" y1="31.3566895" x2="28.8387271" y2="44.6588133" id="Line" stroke-width="1.6" stroke-linecap="square"></line>
        </g>
    </g>
</svg>