<?xml version="1.0" encoding="UTF-8"?>
<svg width="60px" height="60px" viewBox="0 0 60 60" version="1.1" xmlns="http://www.w3.org/2000/svg" xmlns:xlink="http://www.w3.org/1999/xlink">
    <title>Slice Copy 15</title>
    <g id="prototipo" stroke="none" stroke-width="1" fill="none" fill-rule="evenodd">
        <g id="jornal" transform="translate(30.018712, 19.232318) scale(-1, 1) translate(-30.018712, -19.232318) translate(11.518712, 0.732318)" fill="#00C0D2" fill-rule="nonzero">
            <path d="M33.0751632,4.57250878 L27.2835749,4.57250878 L27.2835749,1.067246 C27.2835749,0.477841611 26.8057333,0 26.2163289,0 L1.067246,0 C0.477841611,0 0,0.477841611 0,1.067246 L0,30.7888377 C0,33.8986502 2.53001338,36.4287347 5.63982593,36.4287347 C5.63982593,36.4287347 23.3690588,36.4287347 30.7889088,36.4287347 C33.9036307,36.4287347 36.4286636,33.9036307 36.4286636,30.7888377 L36.4286636,7.92600917 C36.4286636,6.07689874 34.9242736,4.57250878 33.0751632,4.57250878 Z M29.7216628,7.92608032 L29.7216628,11.4314142 L27.2835749,11.4314142 L27.2835749,6.70707194 L29.9491285,6.70707194 C29.7997141,7.09035555 29.7216628,7.50217021 29.7216628,7.92608032 Z M5.63982593,34.2941004 C3.70697227,34.2941004 2.13449201,32.7216913 2.13449201,30.7888377 L2.13449201,2.13449201 L25.1490829,2.13449201 L25.1490829,30.7888377 C25.1490829,32.1140014 25.6072872,33.3315157 26.3723602,34.2941004 L5.63982593,34.2941004 Z M30.7888377,34.2941716 C29.2251088,34.2941716 27.9010123,33.2700423 27.4494961,31.8560837 L27.2835037,29.7215917 L27.2835037,27.2835037 L27.2835037,25.1490117 L27.2835037,22.7109238 L27.2835037,20.5764318 L27.2835037,18.1383439 L27.2835037,16.0038519 L27.2835037,13.565764 L30.7888377,13.565764 C31.3782421,13.565764 31.8560837,13.0879223 31.8560837,12.4985179 L31.8560837,7.92608032 C31.8560837,7.26018996 32.3944737,6.70700079 33.075092,6.70700079 C33.7472436,6.70700079 34.2941004,7.25392879 34.2941004,7.92608032 L34.2941004,30.7888377 C34.2941716,32.7248219 32.7248219,34.2941716 30.7888377,34.2941716 Z" id="Shape"></path>
            <path d="M21.643749,4.57250878 L5.63982593,4.57250878 C5.05042154,4.57250878 4.57257993,5.05035039 4.57257993,5.63975478 C4.57257993,6.22915917 5.05042154,6.70700079 5.63982593,6.70700079 L21.643749,6.70700079 C22.2331533,6.70700079 22.710995,6.22915917 22.710995,5.63975478 C22.710995,5.05035039 22.2331533,4.57250878 21.643749,4.57250878 Z" id="Path"></path>
            <path d="M21.643749,20.5764318 L15.9280774,20.5764318 C15.338673,20.5764318 14.8608314,21.0542734 14.8608314,21.6436778 C14.8608314,22.2330822 15.338673,22.7109238 15.9280774,22.7109238 L21.643749,22.7109238 C22.2331533,22.7109238 22.710995,22.2330822 22.710995,21.6436778 C22.710995,21.0542734 22.2331533,20.5764318 21.643749,20.5764318 Z" id="Path"></path>
            <path d="M11.3554975,20.5764318 L5.63982593,20.5764318 C5.05042154,20.5764318 4.57257993,21.0542734 4.57257993,21.6436778 C4.57257993,22.2330822 5.05042154,22.7109238 5.63982593,22.7109238 L11.3554975,22.7109238 C11.9449019,22.7109238 12.4227435,22.2330822 12.4227435,21.6436778 C12.4227435,21.0542734 11.9449019,20.5764318 11.3554975,20.5764318 Z" id="Path"></path>
            <path d="M21.643749,29.7215917 L15.9280774,29.7215917 C15.338673,29.7215917 14.8608314,30.1994333 14.8608314,30.7888377 C14.8608314,31.3782421 15.338673,31.8560837 15.9280774,31.8560837 L21.643749,31.8560837 C22.2331533,31.8560837 22.710995,31.3782421 22.710995,30.7888377 C22.710995,30.1994333 22.2331533,29.7215917 21.643749,29.7215917 Z" id="Path"></path>
            <path d="M11.3554975,29.7215917 L5.63982593,29.7215917 C5.05042154,29.7215917 4.57257993,30.1994333 4.57257993,30.7888377 C4.57257993,31.3782421 5.05042154,31.8560837 5.63982593,31.8560837 L11.3554975,31.8560837 C11.9449019,31.8560837 12.4227435,31.3782421 12.4227435,30.7888377 C12.4227435,30.1994333 11.9449019,29.7215917 11.3554975,29.7215917 Z" id="Path"></path>
            <path d="M21.643749,25.1490117 L15.9280774,25.1490117 C15.338673,25.1490117 14.8608314,25.6268533 14.8608314,26.2162577 C14.8608314,26.8056621 15.338673,27.2835037 15.9280774,27.2835037 L21.643749,27.2835037 C22.2331533,27.2835037 22.710995,26.8056621 22.710995,26.2162577 C22.710995,25.6268533 22.2331533,25.1490117 21.643749,25.1490117 Z" id="Path"></path>
            <path d="M11.3554975,25.1490117 L5.63982593,25.1490117 C5.05042154,25.1490117 4.57257993,25.6268533 4.57257993,26.2162577 C4.57257993,26.8056621 5.05042154,27.2835037 5.63982593,27.2835037 L11.3554975,27.2835037 C11.9449019,27.2835037 12.4227435,26.8056621 12.4227435,26.2162577 C12.4227435,25.6268533 11.9449019,25.1490117 11.3554975,25.1490117 Z" id="Path"></path>
            <path d="M21.643749,9.14501756 L5.63982593,9.14501756 C5.05042154,9.14501756 4.57257993,9.62285917 4.57257993,10.2122636 L4.57257993,17.0710979 C4.57257993,17.6605023 5.05042154,18.1383439 5.63982593,18.1383439 L21.643749,18.1383439 C22.2331533,18.1383439 22.710995,17.6605023 22.710995,17.0710979 L22.710995,10.2122636 C22.710995,9.62285917 22.2331533,9.14501756 21.643749,9.14501756 Z M20.576503,16.003923 L6.70707194,16.003923 L6.70707194,11.2795807 L20.576503,11.2795807 L20.576503,16.003923 Z" id="Shape"></path>
        </g>
    </g>
</svg>