<?xml version="1.0" encoding="UTF-8"?>
<svg width="78px" height="96px" viewBox="0 0 78 96" version="1.1" xmlns="http://www.w3.org/2000/svg" xmlns:xlink="http://www.w3.org/1999/xlink">
    <title>Group 21 Copy 2</title>
    <g id="prototipo" stroke="none" stroke-width="1" fill="none" fill-rule="evenodd">
        <g id="Group-21-Copy-2" transform="translate(0.200000, 0.000000)" fill="#000000" fill-rule="nonzero">
            <g id="Group-27">
                <g id="notification">
                    <path d="M74.2042871,69.382748 C65.8372935,64.5263429 59.7226239,56.5661157 57.1890496,47.2298555 L53.0632748,31.8044938 C50.0167872,20.3569214 39.8406508,12.2502583 28.0018078,11.8396177 L26.4576446,6.07825408 C25.3233471,1.84555795 20.9728822,-0.66554757 16.740186,0.46874995 C12.5090392,1.60304747 9.99793388,5.95273765 11.1314567,10.184659 L12.6732954,15.9429235 C2.64591947,22.2342458 -2.10821276,34.3279958 0.950671537,45.7631714 L5.07644628,61.1885332 C5.90392562,64.2729856 6.32308879,67.4535124 6.32308879,70.6472108 C6.32153931,77.0446798 4.64178724,83.329029 1.45196271,88.8742253 C0.549328463,90.3889464 0.670196231,92.3034607 1.75645666,93.6918904 C2.57463848,94.7680784 3.84839881,95.4003098 5.19963848,95.4010848 C5.58083683,95.4003098 5.96048549,95.350723 6.32773765,95.2515495 L29.1415289,89.1407542 C30.8933367,93.2130682 34.8951447,95.8566633 39.3285124,95.8706214 C42.5028409,95.8752583 45.5268595,94.5201445 47.6350723,92.1469525 C49.743285,89.7745351 50.7342458,86.6118286 50.3561466,83.4607438 L73.1707129,77.3499483 C75.0798038,76.8370352 76.399277,75.0983988 76.3801174,73.1226756 C76.3837809,71.5746385 75.5516529,70.1443698 74.2042871,69.382748 L74.2042871,69.382748 Z M14.6714876,5.75129137 C15.5222106,4.27763425 17.0950413,3.37035134 18.7972623,3.37110627 C20.9542871,3.36492774 22.8440083,4.81379127 23.3987603,6.89876033 L24.7391528,11.9077995 C24.588843,11.920971 24.4408574,11.9504132 24.2905476,11.9666838 C23.7908057,12.0170456 23.2949379,12.0813533 22.8021695,12.1588326 C22.5402893,12.1998966 22.278409,12.2425103 22.0180784,12.2920971 C21.46875,12.397469 20.9256198,12.517562 20.3886881,12.6508264 C20.2693698,12.6810434 20.149277,12.6980888 20.0315084,12.7298555 C19.9137398,12.761622 19.8393596,12.7933884 19.7425103,12.8205062 C19.136622,12.9870867 18.5392562,13.1753615 17.951188,13.3837809 C17.7923554,13.4387913 17.643595,13.4961261 17.4894111,13.5534607 C16.8773244,13.7820248 16.2745351,14.0315084 15.6818182,14.302686 C15.6361053,14.3228307 15.5872935,14.3391013 15.5408057,14.3607955 L14.2019627,9.36260331 C13.8688017,8.1446281 14.0377067,6.84374995 14.6714876,5.75129137 Z M47.2523244,84.2967459 C47.4731405,88.0560434 45.0201445,91.4527377 41.3817148,92.4258781 C37.743285,93.397469 33.922779,91.6813016 32.2321797,88.316374 L47.2523244,84.2967459 Z M72.3347107,74.2887396 L5.49948337,92.1880165 C5.04235537,92.3166323 4.55268595,92.148502 4.26988641,91.7657542 C3.97236575,91.3923037 3.94059927,90.8724175 4.19085739,90.4664255 C7.66348145,84.4377582 9.4927686,77.6040805 9.49664251,70.6472108 C9.49741726,67.1753615 9.04183894,63.7190083 8.13997924,60.3664772 L4.0142045,44.9426654 C1.2071282,34.4690083 5.82799577,23.4204545 15.2572314,18.0643079 L15.285124,18.0519112 C16.6177686,17.3205062 18.0178203,16.7192666 19.4651343,16.25594 C19.9222623,16.1048553 20.3646694,15.9243285 20.8326446,15.8019112 C22.4356921,15.3773244 24.0782541,15.1193181 25.7347624,15.0309917 C26.0849691,15.011622 26.4359504,14.9907025 26.786157,14.9876033 L27.0309917,14.9876033 C37.7967459,14.9899277 47.2166838,22.2288222 49.9912189,32.6311983 L54.1169939,48.0581096 C56.8744836,58.2055785 63.5229856,66.8561466 72.61906,72.1324897 C72.9839877,72.3277377 73.2102272,72.708936 73.2069834,73.1226756 C73.2241736,73.6665806 72.862345,74.1508264 72.3347107,74.2871901 L72.3347107,74.2887396 Z" id="Shape"></path>
                </g>
            </g>
        </g>
    </g>
</svg>