<?xml version="1.0" encoding="UTF-8"?>
<svg width="21px" height="26px" viewBox="0 0 21 26" version="1.1" xmlns="http://www.w3.org/2000/svg" xmlns:xlink="http://www.w3.org/1999/xlink">
    <!-- Generator: Sketch 63.1 (92452) - https://sketch.com -->
    <title>Slice</title>
    <desc>Created with Sketch.</desc>
    <g id="prototipo" stroke="none" stroke-width="1" fill="none" fill-rule="evenodd">
        <g id="Group-27-Copy" transform="translate(0.291615, -0.500000)" fill="#909090" fill-rule="nonzero">
            <g id="notification" transform="translate(12.579986, 14.368085) rotate(15.000000) translate(-12.579986, -14.368085) translate(3.079986, 2.368085)">
                <path d="M18.2058854,17.0229297 C16.1530589,15.8314196 14.652836,13.8783925 14.0312282,11.5877582 L13.0189769,7.80317407 C12.2715268,4.99453324 9.77483043,3.00557836 6.87019207,2.90482844 L6.49133447,1.49128846 C6.21303666,0.45280425 5.14565809,-0.163290873 4.10717387,0.115006939 C3.06906977,0.39330475 2.4529747,1.46049324 2.73108243,2.49878737 L3.10936973,3.91156697 C0.649171478,5.45513134 -0.517246125,8.42231065 0.233245514,11.22791 L1.24549676,15.0124941 C1.4485173,15.7692589 1.55135821,16.5495953 1.55135821,17.3331633 C1.55097805,18.9027706 1.13885397,20.4446241 0.356236382,21.8051278 C0.134776728,22.1767618 0.164431413,22.6464844 0.430943413,22.9871331 C0.631682818,23.2511738 0.944197573,23.4062906 1.27572174,23.4064808 C1.36924806,23.4062906 1.46239416,23.3941246 1.5524988,23.3697926 L7.14982055,21.8705202 C7.57962337,22.8696549 8.56145961,23.5182561 9.64917822,23.5216807 C10.4279939,23.5228184 11.1699313,23.1903437 11.6871774,22.6080854 C12.2044235,22.0260171 12.4475539,21.2500529 12.354788,20.4769401 L17.9522999,18.9776676 C18.4206918,18.8518253 18.7444221,18.4252541 18.7397214,17.940514 C18.7406202,17.560706 18.5364591,17.2097922 18.2058854,17.0229297 L18.2058854,17.0229297 Z M3.59962251,1.41106876 C3.80834585,1.0495097 4.19423696,0.826909505 4.61187376,0.827094726 C5.14109583,0.825578834 5.60473543,1.18105484 5.74084283,1.69259816 L6.06970566,2.92155673 C6.03282742,2.92478831 5.99651943,2.93201191 5.95964119,2.93600388 C5.83703044,2.94836003 5.71537019,2.96413781 5.59447037,2.98314722 C5.53021853,2.9932222 5.46596669,3.00367739 5.40209506,3.01584342 C5.26731833,3.04169622 5.13406236,3.07116082 5.00232713,3.10385701 C4.97305261,3.11127069 4.94358806,3.11545274 4.91469375,3.12324664 C4.88579944,3.13104048 4.86755041,3.13883433 4.8437886,3.14548764 C4.69513501,3.18635784 4.54857243,3.23255073 4.40429097,3.28368604 C4.36532168,3.29718273 4.32882361,3.31124972 4.29099486,3.32531666 C4.14082052,3.38139445 3.99292726,3.44260478 3.84750526,3.5091377 C3.8362897,3.51408018 3.8243138,3.51807214 3.8129081,3.52339478 L3.48442544,2.29709751 C3.40268499,1.99826953 3.44412553,1.67910147 3.59962251,1.41106876 Z M11.5932709,20.6820516 C11.6474477,21.6043884 11.0456097,22.4377611 10.1529276,22.6765193 C9.26024559,22.9148973 8.32289146,22.4938388 7.90810603,21.66826 L11.5932709,20.6820516 Z M17.7471883,18.2266057 L1.34928814,22.6181604 C1.23713262,22.649716 1.11699313,22.6084656 1.04760878,22.5145591 C0.974612634,22.4229337 0.966818787,22.2953806 1.02821916,22.1957712 C1.88022109,20.7166487 2.32903332,19.0400185 2.32998378,17.3331633 C2.33017386,16.4813515 2.21839856,15.6333415 1.99712894,14.8108042 L0.984877693,11.0266003 C0.296166684,8.45690781 1.42988805,5.74616547 3.74333368,4.43204473 L3.75017707,4.42900323 C4.07713897,4.24955437 4.42063909,4.10204132 4.77573493,3.988365 C4.88789044,3.95129663 4.9964342,3.90700471 5.11125106,3.87696986 C5.50455581,3.77279828 5.90755537,3.7094969 6.31397666,3.68782619 C6.3998992,3.68307385 6.48601183,3.67794129 6.57193438,3.67718092 L6.63200413,3.67718092 C9.27336213,3.67775121 11.5845266,5.45380067 12.2652537,8.00600453 L13.277505,11.7909688 C13.95405,14.2806317 15.5852477,16.4030327 17.8169529,17.6975737 C17.9064872,17.7454775 17.9619946,17.8390038 17.9611988,17.940514 C17.9654164,18.0739601 17.8766424,18.1927689 17.7471883,18.2262255 L17.7471883,18.2266057 Z" id="Shape"></path>
            </g>
        </g>
    </g>
</svg>