<?xml version="1.0" encoding="UTF-8"?>
<svg width="25px" height="29px" viewBox="0 0 25 29" version="1.1" xmlns="http://www.w3.org/2000/svg" xmlns:xlink="http://www.w3.org/1999/xlink">
    <!-- Generator: Sketch 63.1 (92452) - https://sketch.com -->
    <title>Slice Copy</title>
    <desc>Created with Sketch.</desc>
    <g id="prototipo" stroke="none" stroke-width="1" fill="none" fill-rule="evenodd">
        <g id="notification-copy" transform="translate(3.000000, 1.000000)" fill="#FFFFFF" fill-rule="nonzero" stroke="#FFFFFF" stroke-width="0.5">
            <path d="M20.3997333,19.0742289 C18.0995369,17.7391393 16.4185339,15.5507683 15.722021,12.9841077 L14.5877913,8.74347313 C13.7502719,5.59638511 10.9527183,3.36775694 7.69806481,3.25486644 L7.27355407,1.67099189 C6.96172078,0.507368125 5.76572082,-0.18296777 4.60209705,0.128865519 C3.4388992,0.440698808 2.74856336,1.63648578 3.06018367,2.79989656 L3.48405539,4.38291911 C0.727398021,6.11248626 -0.579575382,9.43721699 0.261352094,12.580897 L1.39558177,16.8215316 C1.62306671,17.6694881 1.73830017,18.5438567 1.73830017,19.4218463 C1.7378742,21.1805946 1.27608829,22.9082447 0.399163623,24.432692 C0.151017611,24.8491088 0.184245748,25.3754339 0.48287301,25.7571315 C0.70780194,26.0529897 1.05797539,26.2267984 1.42944892,26.2270114 C1.53424536,26.2267984 1.63861576,26.2131663 1.73957821,26.1859022 L8.01138912,24.5059643 C8.4929841,25.625497 9.59313369,26.352256 10.8119247,26.3560932 C11.6845893,26.357368 12.5159317,25.9848294 13.0955071,25.3324077 C13.6750825,24.680199 13.9475106,23.8107295 13.8435662,22.9444549 L20.1155902,21.2645169 C20.6404243,21.1235103 21.0031649,20.6455364 20.9978977,20.1023841 C20.9989048,19.6768084 20.7701419,19.2836087 20.3997333,19.0742289 L20.3997333,19.0742289 Z M4.03338467,1.58110555 C4.26725961,1.17597785 4.69965143,0.926553858 5.16761435,0.926761399 C5.7606088,0.925062838 6.28011796,1.32337446 6.43262659,1.89655984 L6.80111809,3.27361052 C6.75979595,3.27723152 6.71911276,3.28532558 6.67779062,3.28979859 C6.54040501,3.30364369 6.40408445,3.32132272 6.26861594,3.34262281 C6.19662162,3.35391184 6.12462729,3.3656269 6.053059,3.37925896 C5.90204139,3.40822708 5.75272778,3.44124223 5.60511819,3.47787838 C5.57231602,3.48618543 5.53930093,3.49087142 5.50692479,3.4996045 C5.47454866,3.50833752 5.45410058,3.51707054 5.42747542,3.52452558 C5.26090876,3.57032073 5.09668507,3.62207996 4.93501739,3.67937718 C4.89135222,3.69450026 4.85045605,3.71026235 4.80806886,3.72602439 C4.6397982,3.78885966 4.47408348,3.85744597 4.31113782,3.93199626 C4.29857076,3.93753431 4.28515174,3.94200731 4.27237164,3.94797134 L3.90430611,2.57390264 C3.81271576,2.23906526 3.85914998,1.88143676 4.03338467,1.58110555 Z M12.9902847,23.1742828 C13.05099,24.2077631 12.3766291,25.141559 11.376377,25.4090881 C10.3761249,25.6761911 9.32581757,25.2043942 8.86104962,24.2793314 L12.9902847,23.1742828 Z M19.8857622,20.4229504 L1.51188022,25.3436968 C1.38620973,25.3790549 1.25159317,25.3328337 1.17384787,25.2276113 C1.09205553,25.1249449 1.08332251,24.9820213 1.15212175,24.8704088 C2.10679172,23.213049 2.60968679,21.3343812 2.61075178,19.4218463 C2.61096477,18.4673893 2.4857203,17.5171924 2.23778722,16.5955376 L1.10355755,12.3553291 C0.331855399,9.47598318 1.6021926,6.43859062 4.19441334,4.96611554 L4.20208137,4.96270753 C4.56844289,4.7616347 4.95333549,4.59634602 5.35122114,4.46897146 C5.47689163,4.42743628 5.59851515,4.37780709 5.72716768,4.34415297 C6.16786649,4.22742849 6.61942835,4.15649916 7.07482426,4.13221708 C7.17110066,4.12689208 7.26759005,4.12114104 7.36386644,4.12028903 L7.43117472,4.12028903 C10.390822,4.12092805 12.9804867,6.11099524 13.7432428,8.97074509 L14.8774725,13.2118056 C15.6355427,16.0014782 17.4633032,18.379633 19.9639335,19.830169 C20.064257,19.8838452 20.1264532,19.9886417 20.1255614,20.1023841 C20.1302872,20.2519107 20.0308158,20.3850363 19.8857622,20.4225244 L19.8857622,20.4229504 Z" id="Shape"></path>
        </g>
    </g>
</svg>