<?xml version="1.0" encoding="UTF-8"?>
<svg width="61px" height="61px" viewBox="0 0 61 61" version="1.1" xmlns="http://www.w3.org/2000/svg" xmlns:xlink="http://www.w3.org/1999/xlink">
    <title>Slice Copy 24</title>
    <g id="prototipo" stroke="none" stroke-width="1" fill="none" fill-rule="evenodd">
        <g id="Group-46" transform="translate(-2.000000, -7.572754)" stroke="#00C0D2" stroke-width="2">
            <g id="Group-30-Copy" transform="translate(21.153163, 20.679688)">
                <circle id="Oval" cx="11.25" cy="11.25" r="11.25"></circle>
            </g>
            <g id="Group-44" transform="translate(10.000000, 10.000000)" stroke-linecap="round">
                <g id="Group-43" transform="translate(22.000000, 0.000000)">
                    <line x1="0.5" y1="-2.44249065e-14" x2="0.5" y2="6.08255756" id="Line-2-Copy-3"></line>
                    <line x1="0.5" y1="38.0058594" x2="0.5" y2="44.0884169" id="Line-2-Copy-5"></line>
                </g>
                <g id="Group-43-Copy" transform="translate(22.500000, 22.500000) rotate(-90.000000) translate(-22.500000, -22.500000) translate(22.000000, 0.000000)">
                    <line x1="0.5" y1="-2.44249065e-14" x2="0.5" y2="6.08255756" id="Line-2-Copy-3"></line>
                    <line x1="0.5" y1="38.0058594" x2="0.5" y2="44.0884169" id="Line-2-Copy-5"></line>
                </g>
            </g>
            <g id="Group-44-Copy" transform="translate(32.500000, 32.500000) rotate(-45.000000) translate(-32.500000, -32.500000) translate(10.000000, 10.000000)" stroke-linecap="round">
                <g id="Group-43" transform="translate(22.000000, 0.000000)">
                    <line x1="0.5" y1="-2.44249065e-14" x2="0.5" y2="6.08255756" id="Line-2-Copy-3"></line>
                    <line x1="0.5" y1="38.0058594" x2="0.5" y2="44.0884169" id="Line-2-Copy-5"></line>
                </g>
                <g id="Group-43-Copy" transform="translate(22.500000, 22.500000) rotate(-90.000000) translate(-22.500000, -22.500000) translate(22.000000, 0.000000)">
                    <line x1="0.5" y1="-2.44249065e-14" x2="0.5" y2="6.08255756" id="Line-2-Copy-3"></line>
                    <line x1="0.5" y1="38.0058594" x2="0.5" y2="44.0884169" id="Line-2-Copy-5"></line>
                </g>
            </g>
        </g>
    </g>
</svg>