<?xml version="1.0" encoding="UTF-8"?>
<svg width="60px" height="60px" viewBox="0 0 60 60" version="1.1" xmlns="http://www.w3.org/2000/svg" xmlns:xlink="http://www.w3.org/1999/xlink">
    <title>Slice Copy 10</title>
    <g id="prototipo" stroke="none" stroke-width="1" fill="none" fill-rule="evenodd">
        <g id="Group-41" transform="translate(14.557861, 1.500000)">
            <polygon id="Path-5" fill="#00C0D2" points="16.2148659 18.1245117 10.4995117 25.517334 14.4692383 25.517334 10.4995117 32.0473633 19.526123 23.7763672 15.8806152 23.7763672 21.1464844 18.1245117"></polygon>
            <path d="M8.88012695,20.9848633 C8.1053524,20.9848633 7.50061035,20.9848633 6.77197266,20.9848633 C2.29279263,20.9848633 0,18.7178064 0,15.3056641 C0,11.373291 3.92407227,9.38989258 6.77197266,10.2770996 C6.77197266,9.2746582 7.01194477,1.36494983 14.1025391,1 C21.1464844,0.637451172 21.8586426,5.21325684 21.8586426,7.26147461 C25.8305664,6.30444336 32.5483741,8.31304413 33,13.3708496 C33.5180664,19.1727295 29.1657715,20.9848633 27.0913086,20.9848633 C25.6209745,20.9848633 24.1830676,20.9848633 22.7775879,20.9848633" id="Path-7" stroke="#00C0D2" stroke-width="2" stroke-linecap="round"></path>
            <line x1="5.38085937" y1="25.5935059" x2="2.38085937" y2="28.5935059" id="Line-6" stroke="#00C0D2" stroke-width="2" stroke-linecap="round"></line>
            <line x1="25.0649414" y1="26.4980469" x2="22.0649414" y2="29.4980469" id="Line-6-Copy" stroke="#00C0D2" stroke-width="2" stroke-linecap="round"></line>
        </g>
    </g>
</svg>