<?xml version="1.0" encoding="UTF-8"?>
<svg width="61px" height="61px" viewBox="0 0 61 61" version="1.1" xmlns="http://www.w3.org/2000/svg" xmlns:xlink="http://www.w3.org/1999/xlink">
    <title>Slice Copy 22</title>
    <defs>
        <circle id="path-1" cx="18.914607" cy="18.914607" r="18.914607"></circle>
    </defs>
    <g id="prototipo" stroke="none" stroke-width="1" fill="none" fill-rule="evenodd">
        <g id="Group-10-Copy" transform="translate(12.500000, 2.500000)">
            <g id="Group-9">
                <g id="Group-5">
                    <mask id="mask-2" fill="white">
                        <use xlink:href="#path-1"></use>
                    </mask>
                    <g id="Mask-Copy-2"></g>
                    <g mask="url(#mask-2)" stroke="#00C0D2">
                        <g transform="translate(4.400989, 6.133607)">
                            <line x1="4.663009" y1="9.50404141" x2="24.1295428" y2="9.50404141" id="Line-3" stroke-width="1" stroke-linecap="square"></line>
                            <line x1="7.59737123" y1="27.9911369" x2="21.863737" y2="27.9911369" id="Line-3-Copy-4" stroke-width="2" stroke-linecap="square"></line>
                            <line x1="14.3962759" y1="6.44917095" x2="14.3962759" y2="0.33943005" id="Line-3-Copy" stroke-width="1" stroke-linecap="square"></line>
                            <line x1="11.6808355" y1="6.44917095" x2="11.6808355" y2="2.68428178" id="Line-3-Copy-2" stroke-width="1" stroke-linecap="square"></line>
                            <line x1="17.1117163" y1="6.44917095" x2="17.1117163" y2="2.68428178" id="Line-3-Copy-3" stroke-width="1" stroke-linecap="square"></line>
                            <path d="M7.44399391,27.5177593 L8.69430786,27.5177593 L8.69430786,21.5699765 L7.44399391,22.0641352 L7.44399391,27.5177593 Z" id="Rectangle" stroke-width="2"></path>
                            <path d="M20.6473691,27.521737 L21.9929054,27.521737 L21.9929054,21.5459395 L20.5904838,22.075436 L20.6473691,27.521737 Z" id="Rectangle-Copy-2" stroke-width="2" transform="translate(21.291695, 25.493807) scale(-1, 1) translate(-21.291695, -25.493807) "></path>
                            <path d="M0,28.737527 L0.937052626,24.7518657 C1.15918375,23.8070527 1.82467829,23.0280795 2.7232128,22.6611334 L8.99589076,20.0994791 L8.99589076,20.0994791 L9.69430786,17.4352356 C11.4117886,18.2575137 12.9791112,18.6686528 14.3962759,18.6686528 C15.8134405,18.6686528 17.3663993,18.2575137 19.0551522,17.4352356 L20.221943,20.0994791 L26.3081352,22.6192316 C27.253795,23.0107428 27.9346023,23.8573551 28.1140805,24.8649964 C28.5208722,27.1488403 28.724268,28.4396838 28.724268,28.737527 C28.724268,29.0997076 24.656853,31.3082128 16.5220229,35.3630425 L5.91052463,33.118959 L0,28.737527 Z" id="Path-2" stroke-width="2"></path>
                        </g>
                    </g>
                </g>
                <circle id="Mask-Copy-3" stroke="#00C0D2" stroke-width="2" cx="18.914607" cy="18.914607" r="18.914607"></circle>
                <path d="M18.7972649,24.8022598 C23.4838159,24.8022598 27.2830162,21.0030596 27.2830162,16.3165086 C27.2830162,11.6299576 23.4838159,7.15189723 18.7972649,7.15189723 C14.1107139,7.15189723 10.3115137,11.6299576 10.3115137,16.3165086 C10.3115137,21.0030596 14.1107139,24.8022598 18.7972649,24.8022598 Z" id="Oval" stroke="#00C0D2" stroke-width="2"></path>
            </g>
            <path d="M14.6544366,30.5710862 C18.879787,30.5710862 22.3838405,27.4828468 23.0325839,23.4403811" id="Oval-Copy-2" stroke="#00C0D2" transform="translate(18.843510, 27.005734) rotate(40.000000) translate(-18.843510, -27.005734) "></path>
        </g>
    </g>
</svg>