<?xml version="1.0" encoding="UTF-8"?>
<svg width="16px" height="17px" viewBox="0 0 16 17" version="1.1" xmlns="http://www.w3.org/2000/svg" xmlns:xlink="http://www.w3.org/1999/xlink">
    <title>icone_fibra_fixo_menu</title>
    <g id="Page-1" stroke="none" stroke-width="1" fill="none" fill-rule="evenodd">
        <g id="icone_fibra_fixo_menu" transform="translate(0.000000, 1.000000)" stroke="#282828">
            <path d="M1.67190999,1.53033401 L0.90071559,3.65460443 C0.803700028,3.92175817 0.82400354,4.21745202 0.956600687,4.46885039 C2.34249149,7.09643847 3.82849346,9.21641152 5.41460658,10.8287695 C6.98050705,12.4205804 8.83939311,13.7162745 10.9912647,14.7158518 C11.2508416,14.8364232 11.5494364,14.8409663 11.8125592,14.7283429 L14.1273524,13.7375507 C14.2077797,13.7031257 14.2778611,13.6483584 14.3307037,13.5786354 L14.9685889,12.7369792 C15.2789251,12.3275069 15.2316236,11.7501446 14.8587792,11.3966432 L12.736743,9.38469694 C12.3357223,9.00448103 11.7033389,9.01803143 11.3189731,9.41507622 L9.87426819,11.0429582 C8.68390119,10.6905519 7.72004192,10.1550534 6.98269039,9.43646258 C6.24533885,8.71787178 5.36244478,7.45360468 4.3340082,5.64366128 L6.13466888,3.77664697 C6.53316976,3.38791144 6.54108615,2.74973024 6.15235062,2.35122936 C6.14503537,2.34373034 6.13760366,2.33634582 6.13005819,2.32907849 L4.14290715,0.41517522 C3.75089806,0.0376158598 3.12995838,0.0394300632 2.7401622,0.419273629 L1.79391275,1.34136262 C1.73952877,1.39435802 1.69782264,1.45895709 1.67190999,1.53033401 Z" id="Path-2"></path>
        </g>
    </g>
</svg>