<?xml version="1.0" encoding="UTF-8"?>
<svg width="608px" height="334px" viewBox="0 0 608 334" version="1.1" xmlns="http://www.w3.org/2000/svg" xmlns:xlink="http://www.w3.org/1999/xlink">
    <!-- Generator: Sketch 53 (72520) - https://sketchapp.com -->
    <title>cabodiretamenteligadonalinhatel</title>
    <desc>Created with Sketch.</desc>
    <g id="Page-1" stroke="none" stroke-width="1" fill="none" fill-rule="evenodd">
        <g id="cabodiretamenteligadonalinhatel" transform="translate(0.500000, 0.000000)" fill-rule="nonzero">
            <rect id="XMLID_100_" fill="#F5F5F5" x="0.333" y="0.793" width="606.33" height="333"></rect>
            <g id="XMLID_96_" transform="translate(443.000000, 49.000000)">
                <g id="XMLID_98_" fill="#E6E6E6">
                    <path d="M100.104,147.774 L4.725,147.774 C2.14,147.774 0.024,145.659 0.024,143.073 L0.024,5.51 C0.024,2.925 2.139,0.809 4.725,0.809 L100.104,0.809 C102.689,0.809 104.805,2.924 104.805,5.51 L104.805,143.073 C104.805,145.659 102.69,147.774 100.104,147.774 Z" id="XMLID_99_"></path>
                </g>
                <path d="M2,1.599 C1,2.237 0,3.395 0,5.51 C0,10.128 0,143.338 0,143.338 C0,143.338 0,145.64 2,146.822 L2,1.599 Z" id="XMLID_97_" fill="#CFCFCF"></path>
            </g>
            <g id="XMLID_86_" transform="translate(477.000000, 105.000000)">
                <g id="XMLID_90_">
                    <path d="M34.138,35.803 L2.472,35.803 C1.549,35.803 0.794,35.048 0.794,34.125 L0.794,2.459 C0.794,1.536 1.549,0.781 2.472,0.781 L34.138,0.781 C35.061,0.781 35.817,1.536 35.817,2.459 L35.817,34.125 C35.817,35.048 35.061,35.803 34.138,35.803 Z" id="XMLID_95_" fill="#F2F3F5"></path>
                    <polyline id="XMLID_94_" fill="#E5E9EC" points="35.006 35.055 35.01 1.029 0.987 35.055"></polyline>
                    <path d="M34.138,36.412 L2.472,36.412 C1.211,36.412 0.184,35.386 0.184,34.124 L0.184,2.458 C0.184,1.197 1.21,0.17 2.472,0.17 L34.138,0.17 C35.399,0.17 36.425,1.196 36.425,2.458 L36.425,34.124 C36.426,35.386 35.4,36.412 34.138,36.412 Z M2.472,1.389 C1.882,1.389 1.403,1.869 1.403,2.458 L1.403,34.124 C1.403,34.714 1.883,35.193 2.472,35.193 L34.138,35.193 C34.728,35.193 35.207,34.713 35.207,34.124 L35.207,2.458 C35.207,1.868 34.727,1.389 34.138,1.389 L2.472,1.389 Z" id="XMLID_91_" fill="#5B5B5D"></path>
                </g>
                <g id="XMLID_87_" transform="translate(5.000000, 5.000000)" fill="#AAABAD">
                    <g id="XMLID_88_">
                        <polygon id="XMLID_4_" points="13.111 0.732 0 0.732 0 17.732 4 17.732 4 21.732 8 21.732 8 25.732 13.111 25.732 18 25.732 18 21.732 22 21.732 22 17.732 26 17.732 26 0.732"></polygon>
                    </g>
                </g>
            </g>
            <path d="M479,139.732 L512,139.732" id="XMLID_3_" fill="#E5E9EC"></path>
            <path d="M364.056,301 L67.709,301 C63.034,301 59.209,297.175 59.209,292.5 L59.209,292.5 C59.209,287.825 63.034,284 67.709,284 L364.056,284 C368.731,284 372.556,287.825 372.556,292.5 L372.556,292.5 C372.556,297.175 368.731,301 364.056,301 Z" id="XMLID_84_" fill="#D5DAE2"></path>
            <g id="XMLID_80_" transform="translate(365.000000, 117.000000)" fill="#8B8C8D">
                <g id="XMLID_81_">
                    <path d="M15.82,140.96 C11.927,140.96 7.948,140.891 3.865,140.753 L3.899,139.753 C54.367,141.474 90.253,132.57 110.561,113.321 C130.248,94.659 130.722,70.517 130.977,57.548 L131,56.403 C131.494,32.853 130.261,4.596 130.249,4.313 L131.248,4.269 C131.261,4.552 132.495,32.841 132,56.423 L131.977,57.567 C131.72,70.683 131.24,95.097 111.249,114.046 C92.39,131.924 60.315,140.96 15.82,140.96 Z" id="XMLID_83_"></path>
                    <path d="M15.82,144.46 L15.82,144.46 C11.922,144.46 7.86,144.39 3.747,144.251 C2.819,144.22 1.942,143.821 1.308,143.143 C0.674,142.464 0.336,141.562 0.368,140.634 L0.402,139.634 C0.468,137.701 2.074,136.177 4.019,136.255 C53.51,137.943 88.541,129.372 108.154,110.781 C126.779,93.126 127.234,69.937 127.478,57.479 L127.501,56.333 C127.991,33.01 126.765,4.749 126.752,4.471 C126.71,3.543 127.039,2.637 127.666,1.951 C128.293,1.265 129.167,0.858 130.095,0.817 L131.094,0.773 C133.025,0.671 134.657,2.183 134.744,4.112 C134.757,4.394 135.994,32.913 135.499,56.497 L135.477,57.638 C135.209,71.264 134.712,96.63 113.657,116.587 C94.146,135.082 61.229,144.46 15.82,144.46 Z" id="XMLID_82_"></path>
                </g>
            </g>
            <g id="XMLID_6_" transform="translate(41.000000, 64.000000)">
                <path d="M23,212.732 L23,217.708 C23,223.287 26.003,227.732 29.211,227.732 L75.174,227.732 C78.382,227.732 80,223.287 80,217.708 L80,212.732 L23,212.732 Z" id="XMLID_2_" fill="#2D2B2C"></path>
                <path d="M270,212.732 L270,217.708 C270,223.287 272.628,227.732 275.836,227.732 L321.799,227.732 C325.007,227.732 327,223.287 327,217.708 L327,212.732 L270,212.732 Z" id="XMLID_1_" fill="#2D2B2C"></path>
                <path d="M321.838,143.515 L313.967,143.515 C312.946,143.515 312.111,142.68 312.111,141.659 L312.111,2.603 C312.111,1.582 312.946,0.747 313.967,0.747 L321.838,0.747 C322.859,0.747 323.694,1.582 323.694,2.603 L323.694,141.659 C323.694,142.679 322.859,143.515 321.838,143.515 Z" id="XMLID_77_" fill="#2D2B2C"></path>
                <path d="M331.429,213.601 L18.335,213.601 C8.606,213.601 0.646,205.641 0.646,195.912 L0.646,129.102 C0.646,119.373 8.606,111.413 18.335,111.413 L331.429,111.413 C341.158,111.413 349.118,119.373 349.118,129.102 L349.118,195.912 C349.118,205.642 341.158,213.601 331.429,213.601 Z" id="XMLID_76_" fill="#645E5E"></path>
                <path d="M316.581,189.064 L33.183,189.064 C27.517,189.064 22.882,184.429 22.882,178.763 L22.882,146.252 C22.882,140.586 27.517,135.951 33.183,135.951 L316.581,135.951 C322.247,135.951 326.882,140.586 326.882,146.252 L326.882,178.763 C326.882,184.429 322.247,189.064 316.581,189.064 Z" id="XMLID_75_" fill="#7C7777"></path>
                <circle id="XMLID_74_" fill="#00D400" cx="48.638" cy="163.473" r="7.965"></circle>
                <circle id="XMLID_47_" fill="#00B9FA" cx="79.551" cy="163.572" r="7.866"></circle>
                <circle id="XMLID_7_" fill="#00B9FA" cx="110.463" cy="163.473" r="7.965"></circle>
            </g>
        </g>
    </g>
</svg>