<?xml version="1.0" encoding="UTF-8"?>
<svg width="592px" height="330px" viewBox="0 0 592 330" version="1.1" xmlns="http://www.w3.org/2000/svg" xmlns:xlink="http://www.w3.org/1999/xlink">
    <title>decodificador_desligar_tomada copy</title>
    <g id="REVISADO---Apresentação" stroke="none" stroke-width="1" fill="none" fill-rule="evenodd">
        <g id="Page-1" transform="translate(68.000000, 30.000585)">
            <path d="M97.3177611,143.250108 L4.57690362,143.250108 C2.06340362,143.250108 0.00690361702,141.188556 0.00690361702,138.667906 L0.00690361702,4.58122744 C0.00690361702,2.06155235 2.06340362,0 4.57690362,0 L97.3177611,0 C99.8312611,0 101.888733,2.06155235 101.888733,4.58122744 L101.888733,138.667906 C101.888733,141.188556 99.8312611,143.250108 97.3177611,143.250108 Z" id="Fill-1" fill="#E6E6E6"></path>
            <path d="M1.94468085,0.769158845 C0.972340426,1.3910361 0,2.51977256 0,4.58132491 L0,138.926307 C0,138.926307 0,141.170134 1.94468085,142.322264 L1.94468085,0.769158845 Z" id="Fill-3" fill="#CFCFCF"></path>
            <path d="M65.6959864,87.9903682 L36.1747587,87.9903682 C35.3142374,87.9903682 34.610263,87.2846643 34.610263,86.4220289 L34.610263,56.8282744 C34.610263,55.965639 35.3142374,55.2589603 36.1747587,55.2589603 L65.6959864,55.2589603 C66.5565077,55.2589603 67.2604821,55.965639 67.2604821,56.8282744 L67.2604821,86.4220289 C67.2604821,87.2846643 66.5565077,87.9903682 65.6959864,87.9903682" id="Fill-5" fill="#F2F3F5"></path>
            <polyline id="Fill-7" fill="#E5E9EC" points="66.668813 87.291 66.67173 55.4914332 34.953013 87.291"></polyline>
            <path d="M36.1747587,55.8284946 C35.6253864,55.8284946 35.1781098,56.27687 35.1781098,56.8275921 L35.1781098,86.4213466 C35.1781098,86.9730433 35.6253864,87.4214188 36.1747587,87.4214188 L65.6959864,87.4214188 C66.2453587,87.4214188 66.6926353,86.9730433 66.6926353,86.4213466 L66.6926353,56.8275921 C66.6926353,56.27687 66.2453587,55.8284946 65.6959864,55.8284946 L36.1747587,55.8284946 Z M65.6959864,88.5599025 L36.1747587,88.5599025 C34.9991991,88.5599025 34.0424162,87.600769 34.0424162,86.4213466 L34.0424162,56.8275921 C34.0424162,55.6491444 34.9991991,54.6900108 36.1747587,54.6900108 L65.6959864,54.6900108 C66.871546,54.6900108 67.8283289,55.6491444 67.8283289,56.8275921 L67.8283289,86.4213466 C67.8283289,87.600769 66.871546,88.5599025 65.6959864,88.5599025 L65.6959864,88.5599025 Z" id="Fill-9" fill="#5B5B5D"></path>
            <polygon id="Fill-11" fill="#5A5A5C" points="50.9174815 60.3341805 38.8935198 60.3341805 38.8935198 74.9551191 42.7828815 74.9551191 42.7828815 78.8540361 46.6722432 78.8540361 46.6722432 83.7276823 50.9174815 83.7276823 55.423307 83.7276823 55.423307 78.8540361 59.3126687 78.8540361 59.3126687 74.9551191 63.2020304 74.9551191 63.2020304 60.3341805"></polygon>
            <polygon id="Fill-13" fill="#3F4243" points="38.893617 61.3089097 63.2021277 61.3089097 63.2021277 60.3341805 38.893617 60.3341805"></polygon>
            <polygon id="Fill-15" fill="#3F4243" points="38.893617 74.9551191 42.7829787 74.9551191 42.7829787 73.9803899 38.893617 73.9803899"></polygon>
            <polygon id="Fill-16" fill="#3F4243" points="59.312766 74.9551191 63.2021277 74.9551191 63.2021277 73.9803899 59.312766 73.9803899"></polygon>
            <polygon id="Fill-17" fill="#3F4243" points="42.7829787 78.8540361 46.6723404 78.8540361 46.6723404 77.8793069 42.7829787 77.8793069"></polygon>
            <polygon id="Fill-18" fill="#3F4243" points="46.6723404 83.7276823 55.4234043 83.7276823 55.4234043 82.7529531 46.6723404 82.7529531"></polygon>
            <polygon id="Fill-19" fill="#3F4243" points="55.4234043 78.8540361 59.312766 78.8540361 59.312766 77.8793069 55.4234043 77.8793069"></polygon>
            <polygon id="Fill-20" fill="#BDBEC2" points="48.1726617 68.2889458 50.3020872 68.2889458 50.3020872 60.5612924 48.1726617 60.5612924"></polygon>
            <polygon id="Fill-21" fill="#BDBEC2" points="44.6712638 68.2889458 46.8006894 68.2889458 46.8006894 60.5612924 44.6712638 60.5612924"></polygon>
            <polygon id="Fill-22" fill="#BDBEC2" points="51.6740596 68.2889458 53.8034851 68.2889458 53.8034851 60.5612924 51.6740596 60.5612924"></polygon>
            <polygon id="Fill-23" fill="#BDBEC2" points="55.1764298 68.2889458 57.3058553 68.2889458 57.3058553 60.5612924 55.1764298 60.5612924"></polygon>
            <path d="M339.618967,102.135736 C315.934699,86.016639 285.296252,94.163426 257.994877,101.438805 C240.173822,106.187686 223.339692,110.67339 210.396869,108.242415 C177.050454,101.981729 167.249262,80.9792383 166.819488,80.0230289 C165.742135,77.5696354 162.882481,76.4516209 160.430239,77.5208989 C157.969245,78.5960253 156.842303,81.4675776 157.913822,83.9346173 C158.385407,85.0185162 169.887222,110.553498 208.60679,117.823029 C223.712099,120.659491 241.577881,115.898913 260.49282,110.859563 C285.923411,104.081296 312.115345,97.1168556 331.969564,108.823354 L339.618967,102.135736 Z" id="Fill-24" fill="#B5AE86"></path>
            <path d="M177.831535,81.7321191 L158.141641,98.2752238 C157.088597,99.1612527 155.503682,99.0208917 154.620797,97.9642852 L131.070711,69.7975343 C130.186854,68.7419025 130.326871,67.1530939 131.379916,66.2680397 L151.069809,49.7239603 C152.123826,48.8389061 153.708741,48.9792671 154.591626,50.0348989 L178.141711,78.2016498 C179.024597,79.2582563 178.885552,80.847065 177.831535,81.7321191" id="Fill-25" fill="#F2F3F5"></path>
            <path d="M130.902691,66.7117365 C130.276504,67.4807978 130.197744,68.9029278 130.997008,69.8591372 L154.547093,98.0258881 C155.346357,98.9820975 156.758195,99.1526751 157.622606,98.6692094 L130.902691,66.7117365 Z" id="Fill-26" fill="#CFCFCF"></path>
            <path d="M178.488156,81.1378267 C179.114344,80.3687653 179.193103,78.9466354 178.393839,77.990426 L154.843754,49.8236751 C154.04449,48.8674657 152.632652,48.6968881 151.768241,49.1803538 L178.488156,81.1378267 Z" id="Fill-27" fill="#CFCFCF"></path>
            <path d="M147.986712,52.2441227 L147.553049,51.7255668 C146.903525,50.9487076 145.846591,50.2274079 145.070663,50.8785271 L133.522176,60.5819567 C132.747221,61.2330758 132.744304,62.845278 133.3948,63.6221372 L133.827491,64.1406931 L147.986712,52.2441227 Z" id="Fill-28" fill="#CFCFCF"></path>
            <polygon id="Fill-29" fill="#E3E4E7" points="163.306519 69.7776498 148.938245 81.8496715 136.895809 67.4460975 151.264083 55.3740758"></polygon>
            <polygon id="Fill-30" fill="#8D8F90" points="148.693409 74.2223177 146.658301 75.9329675 138.462443 66.1301155 140.497552 64.4204404"></polygon>
            <polygon id="Fill-31" fill="#BDBEC2" points="148.693409 74.2223177 147.05696 75.5976606 139.195588 66.1954224 140.832037 64.8200794"></polygon>
            <polygon id="Fill-32" fill="#8D8F90" points="151.759977 71.6458159 149.724868 73.3564657 141.529011 63.5536137 143.564119 61.8439386"></polygon>
            <polygon id="Fill-33" fill="#BDBEC2" points="151.759977 71.6458159 150.123528 73.0211588 142.262155 63.6189206 143.898604 62.2435776"></polygon>
            <polygon id="Fill-34" fill="#8D8F90" points="154.826447 69.0692166 152.791338 70.7798664 144.595481 60.9770144 146.630589 59.2663646"></polygon>
            <polygon id="Fill-35" fill="#BDBEC2" points="154.826447 69.0692166 153.189998 70.4445596 145.328625 61.0423213 146.965074 59.6669783"></polygon>
            <polygon id="Fill-36" fill="#8D8F90" points="157.893014 66.4927148 155.857905 68.2033646 147.662048 58.4005126 149.697156 56.6908375"></polygon>
            <polygon id="Fill-37" fill="#BDBEC2" points="157.893014 66.4927148 156.256565 67.8680578 148.395193 58.4658195 150.031641 57.0904765"></polygon>
            <path d="M170.545983,80.0882383 L157.780125,90.8141588 C157.345489,91.1796823 156.691104,91.1221733 156.325504,90.6854946 L151.876074,85.3634729 C151.511446,84.927769 151.568814,84.2717762 152.004423,83.905278 L164.77028,73.1803321 C165.204917,72.8138339 165.859302,72.8723177 166.224902,73.3080217 L170.674331,78.6300433 C171.038959,79.066722 170.981591,79.7227148 170.545983,80.0882383" id="Fill-38" fill="#5A5A5C"></path>
            <path d="M167.780452,75.9181516 L170.323122,78.9593069 C170.323122,78.9593069 170.747063,78.9066715 170.048922,79.4934585 C169.349809,80.0802455 157.270424,90.2301011 157.270424,90.2301011 C157.270424,90.2301011 169.666792,79.6913285 167.780452,75.9181516" id="Fill-39" fill="#3E3F41"></path>
            <polygon id="Fill-40" fill="#EDEAD3" points="452.234754 155.783664 398.607263 106.526697 348.587154 99.2776354 328.583194 121.11157 340.089871 170.55861 393.730975 219.827274"></polygon>
            <polygon id="Fill-41" fill="#D8D4B6" points="398.444493 106.421134 348.522591 99.205213 328.43112 120.95922 339.970857 170.431603"></polygon>
            <polygon id="Fill-42" fill="#D8D4B6" points="327.168147 119.136282 346.344645 98.1445126 340.071105 92.3848375 320.894607 113.376606"></polygon>
            <path d="M453.616158,170.827733 L408.810711,219.876108 C405.030252,224.013834 398.618639,224.296505 394.491054,220.507733 L381.722279,208.785639 C377.593722,204.995892 377.311743,198.569502 381.092203,194.430801 L425.898622,145.382426 C429.678109,141.2447 436.089722,140.962029 440.217307,144.751776 L452.986081,156.472895 C457.114639,160.262643 457.396618,166.690007 453.616158,170.827733" id="Fill-43" fill="#D8D4B6"></path>
            <polygon id="Fill-44" fill="#F2F3F5" points="426.064989 194.928401 406.196185 216.678509 384.499381 196.760892 404.368185 175.010783"></polygon>
            <polyline id="Fill-45" fill="#E5E9EC" points="425.241125 194.897209 404.163702 175.54396 405.94114 216.024466"></polyline>
            <path d="M385.222024,196.728921 L406.164292,215.953505 L425.341763,194.959787 L404.399494,175.735202 L385.222024,196.728921 Z M426.442452,195.274625 L406.573648,217.024733 C406.382097,217.233325 406.05928,217.247946 405.850226,217.056899 L384.153422,197.139282 C383.945341,196.94726 383.930756,196.62365 384.122307,196.414083 L403.991111,174.663975 C404.18169,174.455383 404.50548,174.440762 404.71356,174.632783 L426.410365,194.550401 C426.618446,194.741448 426.633031,195.066032 426.442452,195.274625 L426.442452,195.274625 Z" id="Fill-46" fill="#5B5B5D"></path>
            <polygon id="Fill-47" fill="#5A5A5C" points="398.30856 189.464751 390.815704 197.667097 399.942091 206.04587 402.727847 202.995942 405.7703 205.788542 407.62747 203.755256 410.669923 206.547856 413.519853 203.428722 416.241434 200.448975 413.198981 197.656375 415.985709 194.606448 412.943255 191.813848 414.800426 189.780563 405.674038 181.401791"></polygon>
            <polygon id="Fill-48" fill="#3F4243" points="391.146689 197.304693 391.146689 197.304693 405.944738 181.104693"></polygon>
            <polygon id="Fill-49" fill="#3F4243" points="399.942091 206.04548 399.942091 206.04548 402.727847 202.995552"></polygon>
            <polygon id="Fill-50" fill="#3F4243" points="412.942964 191.813653 412.942964 191.813653 414.800134 189.780368"></polygon>
            <polygon id="Fill-51" fill="#3F4243" points="404.756149 204.857578 405.7703 205.788444 407.62747 203.755159 406.613319 202.824292"></polygon>
            <polygon id="Fill-52" fill="#3F4243" points="409.655675 205.617184 410.669826 206.548051 416.241337 200.44917 415.227186 199.518303"></polygon>
            <polygon id="Fill-53" fill="#3F4243" points="412.185219 196.725119 413.19937 197.655986 415.985125 194.606058 414.970974 193.675191"></polygon>
            <polygon id="Fill-54" fill="#BDBEC2" points="402.685842 194.236343 401.389712 195.654574 396.267423 190.951505 397.56258 189.533274"></polygon>
            <polygon id="Fill-55" fill="#BDBEC2" points="400.555152 196.56887 399.259022 197.987101 394.136733 193.284032 395.43189 191.865801"></polygon>
            <polygon id="Fill-56" fill="#BDBEC2" points="404.816629 191.903913 403.520499 193.322144 398.398209 188.619076 399.693367 187.200845"></polygon>
            <polygon id="Fill-57" fill="#BDBEC2" points="406.947318 189.571484 405.651188 190.989715 400.528899 186.286646 401.824056 184.868415"></polygon>
            <polygon id="Fill-58" fill="#F2F3F5" points="450.209466 168.497838 430.340662 190.247946 408.643858 170.330329 428.512662 148.58022"></polygon>
            <polyline id="Fill-59" fill="#E5E9EC" points="449.385602 168.466646 428.308179 149.113397 430.085617 189.593903"></polyline>
            <path d="M409.366501,170.298357 L430.308769,189.522942 L449.486239,168.529224 L428.543971,149.304639 L409.366501,170.298357 Z M450.586929,168.844061 L430.718124,190.59417 C430.526573,190.802762 430.203756,190.817383 429.994703,190.626336 L408.297899,170.708718 C408.089818,170.516697 408.075233,170.193087 408.266784,169.98352 L428.135588,148.233412 C428.326167,148.024819 428.649956,148.010199 428.858037,148.20222 L450.554841,168.119838 C450.762922,168.310884 450.777507,168.635469 450.586929,168.844061 L450.586929,168.844061 Z" id="Fill-60" fill="#5B5B5D"></path>
            <polygon id="Fill-61" fill="#5A5A5C" points="422.453036 163.034188 414.960181 171.236534 424.086568 179.615307 426.872324 176.565379 429.914777 179.357978 431.771947 177.324693 434.8144 180.117292 437.66433 176.998159 440.385911 174.018412 437.343458 171.225812 440.130185 168.175884 437.087732 165.383285 438.944902 163.35 429.818515 154.971227"></polygon>
            <polygon id="Fill-62" fill="#3F4243" points="415.291166 170.87413 415.291166 170.87413 430.089215 154.67413"></polygon>
            <polygon id="Fill-63" fill="#3F4243" points="424.086568 179.614917 424.086568 179.614917 426.872324 176.564989"></polygon>
            <polygon id="Fill-64" fill="#3F4243" points="437.08744 165.38309 437.08744 165.38309 438.944611 163.349805"></polygon>
            <polygon id="Fill-65" fill="#3F4243" points="428.900626 178.427014 429.914777 179.357881 431.771947 177.324596 430.757796 176.393729"></polygon>
            <polygon id="Fill-66" fill="#3F4243" points="433.800152 179.186621 434.814303 180.117487 440.385814 174.018606 439.371663 173.08774"></polygon>
            <polygon id="Fill-67" fill="#3F4243" points="436.329696 170.294556 437.343847 171.225422 440.129602 168.175495 439.115451 167.244628"></polygon>
            <polygon id="Fill-68" fill="#BDBEC2" points="426.830319 167.80578 425.534189 169.224011 420.411899 164.520942 421.707057 163.102711"></polygon>
            <polygon id="Fill-69" fill="#BDBEC2" points="424.699629 170.138307 423.403499 171.556538 418.28121 166.853469 419.576367 165.435238"></polygon>
            <polygon id="Fill-70" fill="#BDBEC2" points="428.961105 165.47335 427.664976 166.891581 422.542686 162.188513 423.837844 160.770282"></polygon>
            <polygon id="Fill-71" fill="#BDBEC2" points="431.091795 163.140921 429.795665 164.559152 424.673376 159.856083 425.968533 158.437852"></polygon>
            <path d="M454.418922,256.254563 C454.418922,263.79117 432.168856,269.900773 404.721631,269.900773 C377.274405,269.900773 355.024339,263.79117 355.024339,256.254563 C355.024339,248.717957 377.274405,242.608354 404.721631,242.608354 C432.168856,242.608354 454.418922,248.717957 454.418922,256.254563" id="Fill-72" fill="#D5DAE2"></path>
        </g>
        <g id="Group-2" transform="translate(427.107648, 160.107648) rotate(-45.000000) translate(-427.107648, -160.107648) translate(335.107648, 68.107648)" fill="#EF0000">
            <rect id="Rectangle" x="0" y="87" width="183.185219" height="9.58792419"></rect>
            <rect id="Rectangle-Copy" transform="translate(91.592609, 91.793962) rotate(-90.000000) translate(-91.592609, -91.793962) " x="0" y="87" width="183.185219" height="9.58792419"></rect>
        </g>
        <g id="-Connections" transform="translate(-44101.000000, -1773.000000)" fill="#F5A623" fill-rule="nonzero">
            <path id="Flow-arrow" d="M19861.6873,1447.15105 C19866.374,1447.99691 19869.6328,1452.14603 19869.4976,1456.76621 L19868.1473,1456.44777 C20007.7905,1488.23678 21860.5961,2048.31211 25339.7645,3108.82887 C27975.3075,3912.19256 30585.7967,4709.85284 36835.9386,6620.81555 C43036.2307,8516.53684 45628.5368,9308.64932 48256.2467,10109.6761 C51690.0196,11156.4218 53560,11721.993 53788.4107,11781.3809 L53793.231,11782.616 L53794.8831,11774.8567 L53811.489,11788.1041 L53790.9276,11793.4404 L53792.606,11785.552 L53787.6758,11784.2895 C53559.1912,11724.8832 51689.383,11159.3641 48255.3719,10112.5457 C45627.6609,9311.51861 43035.3545,8519.40602 36835.0614,6623.68445 C30584.9205,4712.72202 27974.4317,3915.06185 25338.8898,3111.69851 C21895.0127,2061.93922 20044.2325,1502.38888 19872.1811,1460.48429 L19868.9402,1459.71727 C19867.402,1464.00785 19862.9468,1466.68534 19858.3127,1465.84895 C19853.1494,1464.91707 19849.7192,1459.97596 19850.651,1454.81268 C19851.5829,1449.64939 19856.524,1446.21916 19861.6873,1447.15105 Z M19853.6033,1455.34552 C19852.9657,1458.87829 19855.3127,1462.25905 19858.8455,1462.89665 C19862.3783,1463.53426 19865.759,1461.18726 19866.3967,1457.65448 C19867.0343,1454.12171 19864.6873,1450.74095 19861.1545,1450.10335 C19857.6217,1449.46574 19854.241,1451.81274 19853.6033,1455.34552 Z"></path>
        </g>
    </g>
</svg>