<?xml version="1.0" encoding="UTF-8"?>
<svg width="592px" height="330px" viewBox="0 0 592 330" version="1.1" xmlns="http://www.w3.org/2000/svg" xmlns:xlink="http://www.w3.org/1999/xlink">
    <title>decodificador_desligar_tomada copy 2</title>
    <defs>
        <polygon id="path-1" points="0 0 8.09939098 0 8.09939098 99.8306053 7.94953076e-14 99.8306053 7.94953076e-14 1.98738269e-14"></polygon>
        <polygon id="path-3" points="180.67409 129.261713 180.67409 0 0 0 3.84630735e-14 129.261713 180.67409 129.261713"></polygon>
    </defs>
    <g id="REVISADO---Apresentação" stroke="none" stroke-width="1" fill="none" fill-rule="evenodd">
        <g id="Group-5" transform="translate(2.638428, 64.026518)">
            <g id="Group-4" transform="translate(-0.000000, -0.000000)">
                <g id="Group-3" transform="translate(258.086951, 32.125936)">
                    <path d="M83.8317024,145.026198 C77.5944092,144.194093 71.8395972,141.590792 66.4728679,137.20301 C60.6166648,132.415957 54.4674769,121.567123 47.9574769,110.081273 C41.5537626,98.7835212 33.5858303,84.725837 28.8749957,83.6203257 C27.7624919,83.3595062 26.8010258,82.606416 26.5276197,81.4974084 C25.8906047,78.9101904 28.0694618,76.9711754 30.2699957,77.483025 C37.1806648,79.0703182 43.6305295,89.6856039 53.4325897,106.978709 C59.3706047,117.454845 65.5114017,128.288296 70.4557851,132.331348 C79.2306498,139.504935 88.9439054,140.872664 101.022018,136.63522 C103.876349,135.633897 107.174003,133.203311 110.261184,130.086063 C111.805123,128.526739 113.29592,126.796799 114.651763,124.987845 C131.449101,106.843055 107.376086,91.6372054 94.6826348,81.828852 C93.3428754,80.6646039 91.8324994,79.3332355 90.2424092,77.8836941 C82.2912588,70.6310926 72.3451536,60.3885062 71.058537,53.5058069 C69.4670483,44.9903633 72.8465145,27.6252355 72.9912588,26.8896265 C73.3268979,25.1841603 74.9764242,24.0709573 76.6860859,24.4100926 C78.3908528,24.7450325 79.5012588,26.3994535 79.166319,28.1042205 C78.2461085,32.7849874 76.1078077,46.2650926 77.2447851,52.350649 C77.948928,56.1181979 84.1351761,63.4029648 91.8359957,70.7583558 C93.7610258,72.5973784 95.7790558,74.4405964 97.8201611,76.2425588 C112.182717,87.341025 137.548642,103.424431 123.049033,123.783739 C122.043514,125.517875 120.897447,127.221243 119.65768,128.853288 C114.697214,135.381469 108.247349,140.769175 103.105078,142.573236 C96.1888152,144.999626 89.7899957,145.821243 83.8317024,145.026198" id="Fill-1" fill="#00B9FA"></path>
                    <path d="M77.9106092,34.3510235 C78.3805039,30.705843 78.9420002,27.4312641 79.3098047,25.5621738 C79.6447445,23.8567077 78.5343385,22.2029859 76.8295716,21.8673468 C75.11991,21.5282114 73.4703836,22.6421137 73.1347445,24.3468806 C73.0676167,24.6874144 72.3096318,28.5857227 71.670519,33.518219 L77.9106092,34.3510235 Z" id="Fill-3" fill="#3E3F41"></path>
                    <path d="M84.6719889,33.4817881 L66.3586806,31.037916 C65.379034,30.9064573 64.6839814,29.998134 64.8147408,29.0177881 L68.3025904,2.88478813 C68.4333498,1.90514152 69.3423724,1.21008888 70.322019,1.34084828 L88.6353273,3.78472046 C89.6149739,3.91547986 90.3100265,4.82450242 90.1792671,5.80414903 L86.6914175,31.9378483 C86.5606581,32.9174949 85.6516355,33.6125475 84.6719889,33.4817881" id="Fill-5" fill="#F2F3F5"></path>
                    <path d="M69.8552709,1.30204001 C69.1441355,1.34189715 68.3532859,1.98800242 68.2344137,2.87604753 L64.7465641,29.0090475 C64.6283912,29.8963934 65.2227521,30.7277994 65.8982258,30.9522581 L69.8552709,1.30204001 Z" id="Fill-7" fill="#CFCFCF"></path>
                    <path d="M85.3049483,33.5425528 C86.0160836,33.5026957 86.8076325,32.8565904 86.9258054,31.9692445 L90.4136551,5.83554528 C90.5325273,4.94819941 89.9374671,4.1167934 89.2619934,3.89233475 L85.3049483,33.5425528 Z" id="Fill-9" fill="#CFCFCF"></path>
                    <path d="M85.7665919,3.65445054 L85.8686821,2.8866761 C85.9651784,2.16575129 85.7959603,1.54202197 85.0750355,1.44552573 L74.3338851,0.0120670795 C73.6129603,-0.0844291611 72.7962385,0.407841516 72.6997423,1.12946558 L72.5976521,1.89654076 L85.7665919,3.65445054 Z" id="Fill-11" fill="#CFCFCF"></path>
                    <polygon id="Fill-13" fill="#E3E4E7" points="83.9542806 19.98574 70.5909498 18.2019581 72.3740325 4.83862723 85.7373633 6.62240918"></polygon>
                    <polygon id="Fill-15" fill="#8D8F90" points="74.5103054 14.3801475 72.6174408 14.127719 73.8313355 5.03329791 75.7242002 5.28572648"></polygon>
                    <polygon id="Fill-17" fill="#BDBEC2" points="74.5103054 14.3801475 72.9887415 14.1773656 74.1529897 5.45354603 75.6745536 5.65702723"></polygon>
                    <polygon id="Fill-19" fill="#8D8F90" points="77.3626085 14.7611678 75.4690445 14.5087393 76.6829393 5.41361896 78.5765032 5.66604753"></polygon>
                    <polygon id="Fill-21" fill="#BDBEC2" points="77.3626085 14.7611678 75.8403453 14.5576866 77.0045934 5.83456633 78.5268566 6.03734828"></polygon>
                    <polygon id="Fill-23" fill="#8D8F90" points="80.2149115 15.1415588 78.3213476 14.8891302 79.5352423 5.79470918 81.428107 6.04713776"></polygon>
                    <polygon id="Fill-25" fill="#BDBEC2" points="80.2149115 15.1415588 78.6926483 14.9387769 79.8568964 6.21495731 81.3791596 6.41773926"></polygon>
                    <polygon id="Fill-27" fill="#8D8F90" points="83.0669348 15.5225791 81.1733709 15.2701505 82.3872656 6.17503024 84.2808295 6.42745881"></polygon>
                    <polygon id="Fill-29" fill="#BDBEC2" points="83.0669348 15.5225791 81.5446716 15.3190979 82.7089197 6.59527836 84.2311829 6.79875956"></polygon>
                    <path d="M82.007434,28.8192017 L70.1342009,27.2340062 C69.7293363,27.1801641 69.4426445,26.8046678 69.4964867,26.3998032 L70.1551784,21.4624122 C70.2090205,21.0575475 70.585216,20.7708558 70.9893814,20.8246979 L82.8626145,22.4091941 C83.2674791,22.4630363 83.5541709,22.8385325 83.5003288,23.2433972 L82.841637,28.1814874 C82.7877949,28.5856528 82.4122987,28.8730438 82.007434,28.8192017" id="Fill-31" fill="#5A5A5C"></path>
                    <path d="M82.8736626,25.3325408 L82.4967679,28.1540069 C82.4967679,28.1540069 82.6925573,28.6399844 82.0429558,28.5532776 C81.3926551,28.4665708 70.1571363,26.9673829 70.1571363,26.9673829 C70.1571363,26.9673829 81.7905273,28.1603002 82.8736626,25.3325408" id="Fill-33" fill="#3E3F41"></path>
                    <g id="Group-4-Copy" transform="translate(16.489722, 75.504366) rotate(-75.000000) translate(-16.489722, -75.504366) translate(6.814698, 61.025365)">
                        <path d="M11.8949576,28.9580025 C11.8810497,25.7871012 11.987475,22.9226721 12.0890627,21.2817187 C12.1809755,19.7855552 11.0399274,18.4975274 9.54029874,18.405827 C8.0358326,18.3111102 6.74905448,19.4513316 6.65653707,20.9480983 C6.6383964,21.2461244 6.43401153,24.6667885 6.45094282,28.9580025 L11.8949576,28.9580025 Z" id="Fill-25" fill="#3E3F41"></path>
                        <path d="M17.5908858,27.4428353 L1.61379391,27.4428353 C0.758763714,27.4428353 0.0591385808,26.7448268 0.0591385808,25.8917723 L0.0591385808,3.14465808 C0.0591385808,2.29220688 0.758763714,1.59419837 1.61379391,1.59419837 L17.5908858,1.59419837 C18.4459159,1.59419837 19.1455411,2.29220688 19.1455411,3.14465808 L19.1455411,25.8917723 C19.1455411,26.7448268 18.4459159,27.4428353 17.5908858,27.4428353" id="Fill-26" fill="#F2F3F5"></path>
                        <path d="M1.20937793,1.61422765 C0.604688965,1.72945637 -1.98738269e-14,2.37256534 -1.98738269e-14,3.14477874 L-1.98738269e-14,25.891893 C-1.98738269e-14,26.6641064 0.604688965,27.3072154 1.20937793,27.4224441 L1.20937793,1.61422765 Z" id="Fill-27" fill="#CFCFCF"></path>
                        <path d="M18.140669,27.4226251 C18.7453579,27.3073963 19.3500469,26.6642874 19.3500469,25.892074 L19.3500469,3.14495973 C19.3500469,2.37274633 18.7453579,1.72963736 18.140669,1.61440864 L18.140669,27.4226251 Z" id="Fill-28" fill="#CFCFCF"></path>
                        <path d="M15.1172241,1.80987515 L15.1172241,1.14203122 C15.1172241,0.514004544 14.9007455,-2.48422836e-15 14.2712643,-2.48422836e-15 L4.90100406,-2.48422836e-15 C4.27152285,-2.48422836e-15 3.62813379,0.514004544 3.62813379,1.14203122 L3.62813379,1.80987515 L15.1172241,1.80987515 Z" id="Fill-29" fill="#CFCFCF"></path>
                        <polygon id="Fill-30" fill="#E3E4E7" points="3.77271492 15.9834901 15.4317229 15.9834901 15.4317229 4.35142251 3.77271492 4.35142251"></polygon>
                        <polygon id="Fill-31" fill="#8D8F90" points="5.04437582 12.2672131 6.69578138 12.2672131 6.69578138 4.35081921 5.04437582 4.35081921"></polygon>
                        <polygon id="Fill-32" fill="#BDBEC2" points="5.36788441 12.2672131 6.69578138 12.2672131 6.69578138 4.67418358 5.36788441 4.67418358"></polygon>
                        <polygon id="Fill-33" fill="#8D8F90" points="7.53267091 12.2672131 9.18407647 12.2672131 9.18407647 4.35081921 7.53267091 4.35081921"></polygon>
                        <polygon id="Fill-34" fill="#BDBEC2" points="7.85617951 12.2672131 9.18407647 12.2672131 9.18407647 4.67418358 7.85617951 4.67418358"></polygon>
                        <polygon id="Fill-35" fill="#8D8F90" points="10.020966 12.2672131 11.6723716 12.2672131 11.6723716 4.35081921 10.020966 4.35081921"></polygon>
                        <polygon id="Fill-36" fill="#BDBEC2" points="10.3444746 12.2672131 11.6723716 12.2672131 11.6723716 4.67418358 10.3444746 4.67418358"></polygon>
                        <polygon id="Fill-37" fill="#8D8F90" points="12.5092611 12.2672131 14.1606667 12.2672131 14.1606667 4.35081921 12.5092611 4.35081921"></polygon>
                        <polygon id="Fill-38" fill="#BDBEC2" points="12.8327697 12.2672131 14.1606667 12.2672131 14.1606667 4.67418358 12.8327697 4.67418358"></polygon>
                        <path d="M14.7735794,23.7593774 L4.41525742,23.7593774 C4.06211906,23.7593774 3.77307774,23.471004 3.77307774,23.1186816 L3.77307774,18.8208314 C3.77307774,18.468509 4.06211906,18.1801356 4.41525742,18.1801356 L14.7735794,18.1801356 C15.1267177,18.1801356 15.4157591,18.468509 15.4157591,18.8208314 L15.4157591,23.1186816 C15.4157591,23.471004 15.1267177,23.7593774 14.7735794,23.7593774" id="Fill-39" fill="#5A5A5C"></path>
                        <path d="M15.1172241,20.6790906 L15.1172241,23.1344879 C15.1172241,23.1344879 15.3403544,23.5284373 14.7737608,23.5284373 L4.40455442,23.5284373 C4.40455442,23.5284373 14.5125352,23.2207586 15.1172241,20.6790906" id="Fill-40" fill="#3E3F41"></path>
                    </g>
                </g>
                <g id="Group" transform="translate(0.000000, 19.578947)">
                    <path d="M226.477726,165.199326 L19.2569436,165.199326 C15.9886579,165.199326 13.3140338,162.524702 13.3140338,159.255717 C13.3140338,155.986732 15.9886579,153.312808 19.2569436,153.312808 L226.477726,153.312808 C229.746711,153.312808 232.421335,155.986732 232.421335,159.255717 C232.421335,162.524702 229.746711,165.199326 226.477726,165.199326" id="Fill-35" fill="#D5DAE2"></path>
                    <path d="M15.8609752,148.418071 L15.8609752,151.710131 C15.8609752,155.611236 17.7300654,158.906792 19.9732534,158.906792 L52.1127947,158.906792 C54.3559827,158.906792 55.718118,155.611236 55.718118,151.710131 L55.718118,148.418071 L15.8609752,148.418071 Z" id="Fill-37" fill="#2D2B2C"></path>
                    <path d="M188.575331,148.418071 L188.575331,151.710131 C188.575331,155.611236 190.182203,158.906792 192.425391,158.906792 L224.564932,158.906792 C226.80812,158.906792 228.432474,155.611236 228.432474,151.710131 L228.432474,148.418071 L188.575331,148.418071 Z" id="Fill-39" fill="#2D2B2C"></path>
                    <g id="Group-43" transform="translate(217.790826, 0.000000)">
                        <mask id="mask-2" fill="white">
                            <use xlink:href="#path-1"></use>
                        </mask>
                        <g id="Clip-42"></g>
                        <path d="M6.80158647,99.8306053 L1.29780451,99.8306053 C0.58387218,99.8306053 0,99.2460338 0,98.5328008 L0,1.29815414 C0,0.584221805 0.58387218,-0.00034962406 1.29780451,-0.00034962406 L6.80158647,-0.00034962406 C7.5155188,-0.00034962406 8.09939098,0.584221805 8.09939098,1.29815414 L8.09939098,98.5328008 C8.09939098,99.2460338 7.5155188,99.8306053 6.80158647,99.8306053" id="Fill-41" fill="#2D2B2C" mask="url(#mask-2)"></path>
                    </g>
                    <path d="M231.780474,148.838738 L11.887218,148.838738 C5.34924812,148.838738 0,143.48949 0,136.95152 L0,89.2711895 C0,82.7332195 5.34924812,77.3839714 11.887218,77.3839714 L231.780474,77.3839714 C238.318444,77.3839714 243.667692,82.7332195 243.667692,89.2711895 L243.667692,136.95152 C243.667692,143.48949 238.318444,148.838738 231.780474,148.838738" id="Fill-44" fill="#645E5E"></path>
                    <path d="M220.916885,131.681217 L22.7513662,131.681217 C18.7894263,131.681217 15.5484113,128.439503 15.5484113,124.477563 L15.5484113,101.744308 C15.5484113,97.7823677 18.7894263,94.5413526 22.7513662,94.5413526 L220.916885,94.5413526 C224.878825,94.5413526 228.11984,97.7823677 228.11984,101.744308 L228.11984,124.477563 C228.11984,128.439503 224.878825,131.681217 220.916885,131.681217" id="Fill-46" fill="#7C7777"></path>
                    <path d="M37.4964113,117.724225 C35.3217496,119.898886 31.7947421,119.898886 29.6193812,117.724225 C27.4447195,115.549563 27.4447195,112.022556 29.6193812,109.847195 C31.7947421,107.672533 35.3217496,107.672533 37.4964113,109.847195 C39.6717722,112.022556 39.6717722,115.549563 37.4964113,117.724225" id="Fill-48" fill="#00D400"></path>
                    <path d="M57.9234068,118.618773 C55.2928353,120.13754 51.9287526,119.236209 50.4099857,116.605638 C48.8912188,113.974367 49.7925496,110.610983 52.4231211,109.092217 C55.0536925,107.57275 58.4177752,108.474081 59.9365421,111.105352 C61.455309,113.736623 60.5539782,117.100006 57.9234068,118.618773" id="Fill-50" fill="#00B9FA"></path>
                    <path d="M79.5738068,118.609193 C76.9096714,120.147539 73.5029346,119.23502 71.965288,116.570885 C70.4269421,113.90675 71.3401602,110.500013 74.0042955,108.962366 C76.6677316,107.42472 80.0744684,108.337238 81.6128143,111.000674 C83.1504609,113.665509 82.2379421,117.071547 79.5738068,118.609193" id="Fill-52" fill="#00B9FA"></path>
                </g>
                <path d="M324.813849,25.4557787 C318.041333,25.9866754 311.586883,26.4928371 304.471508,27.0502787 C306.145287,25.1963632 307.439926,23.7617355 309.036305,21.9922809 C299.891593,19.9549648 292.133434,22.0658825 285.039828,27.8888542 C288.458135,18.6500448 298.807991,13.6391038 313.266709,14.0982088 C313.807905,12.1731049 314.366033,10.1870686 315.066263,7.69607705 C316.876097,10.9701412 318.474895,13.8460328 320.05797,16.7309738 C321.611416,19.5616186 323.14914,22.4007094 324.813849,25.4557787" id="Fill-41" fill="#00C0D2" transform="translate(304.926839, 17.792466) scale(-1, 1) rotate(-26.000000) translate(-304.926839, -17.792466) "></path>
                <path d="M294.915543,156.922037 C288.143027,157.452934 281.688577,157.959095 274.573202,158.516537 C276.246981,156.662622 277.54162,155.227994 279.137999,153.458539 C269.993288,151.421223 262.235128,153.532141 255.141522,159.355112 C258.559829,150.116303 268.909685,145.105362 283.368403,145.564467 C283.909599,143.639363 284.467727,141.653327 285.167957,139.162335 C286.977791,142.4364 288.576589,145.312291 290.159665,148.197232 C291.713111,151.027877 293.250835,153.866968 294.915543,156.922037" id="Fill-41-Copy" fill="#00C0D2" transform="translate(275.028533, 149.258724) scale(-1, 1) rotate(-225.000000) translate(-275.028533, -149.258724) "></path>
            </g>
            <g id="Group-17" transform="translate(405.920432, 30.848906)">
                <path d="M107.587278,142.98861 L107.587278,125.893786 L90.3286543,125.893786 L73.0781508,125.893786 L73.0781508,142.98861 C73.0781508,146.992407 69.6949031,152.140145 64.9583563,151.186409 L64.9583563,155 L90.3286543,155 L115.707072,155 L115.707072,151.186409 C110.970525,152.140145 107.587278,146.992407 107.587278,142.98861" id="Fill-22" fill="#626E78"></path>
                <g id="Group-26" transform="translate(0.101024, -0.000000)">
                    <mask id="mask-4" fill="white">
                        <use xlink:href="#path-3"></use>
                    </mask>
                    <g id="Clip-25"></g>
                    <path d="M173.812999,129.261713 L6.86122638,129.261713 C3.08755187,129.261713 0,126.17307 0,122.398062 L0,6.86331303 C0,3.08830472 3.08755187,-0.000338444352 6.86122638,-0.000338444352 L173.812999,-0.000338444352 C177.586673,-0.000338444352 180.674225,3.08830472 180.674225,6.86331303 L180.674225,122.398062 C180.674225,126.17307 177.586673,129.261713 173.812999,129.261713" id="Fill-24" fill="#495361" mask="url(#mask-4)"></path>
                </g>
                <path d="M0,100.848565 L0,122.397994 C0,126.173002 3.07875543,129.277891 6.85242994,129.277891 L173.804202,129.277891 C177.577877,129.277891 180.665428,126.173002 180.665428,122.397994 L180.665428,100.848565 L0,100.848565 Z" id="Fill-27" fill="#D1DDE8"></path>
                <polygon id="Fill-29" fill="#6F7B84" points="9.24851364 91.3217628 171.626812 91.3217628 171.626812 8.57888745 9.24851364 8.57888745"></polygon>
                <polygon id="Fill-31" fill="#626E78" points="70.3926641 8.69944133 151.696843 91.3719202 171.19247 91.3719202 171.19247 8.57895514"></polygon>
                <path d="M94.1067271,114.962778 C94.1067271,116.963661 92.4854748,118.585486 90.4852987,118.585486 C88.4857993,118.585486 86.864547,116.963661 86.864547,114.962778 C86.864547,112.961895 88.4857993,111.340069 90.4852987,111.340069 C92.4854748,111.340069 94.1067271,112.961895 94.1067271,114.962778 L213.975219,64.6755038" id="Fill-32" fill="#495361"></path>
            </g>
        </g>
        <g id="-Connections" transform="translate(-43254.000000, -1773.000000)" fill="#F5A623" fill-rule="nonzero">
            <path id="Flow-arrow" d="M19861.6873,1447.15105 C19866.374,1447.99691 19869.6328,1452.14603 19869.4976,1456.76621 L19868.1473,1456.44777 C20007.7905,1488.23678 21860.5961,2048.31211 25339.7645,3108.82887 C27975.3075,3912.19256 30585.7967,4709.85284 36835.9386,6620.81555 C43036.2307,8516.53684 45628.5368,9308.64932 48256.2467,10109.6761 C51690.0196,11156.4218 53560,11721.993 53788.4107,11781.3809 L53793.231,11782.616 L53794.8831,11774.8567 L53811.489,11788.1041 L53790.9276,11793.4404 L53792.606,11785.552 L53787.6758,11784.2895 C53559.1912,11724.8832 51689.383,11159.3641 48255.3719,10112.5457 C45627.6609,9311.51861 43035.3545,8519.40602 36835.0614,6623.68445 C30584.9205,4712.72202 27974.4317,3915.06185 25338.8898,3111.69851 C21895.0127,2061.93922 20044.2325,1502.38888 19872.1811,1460.48429 L19868.9402,1459.71727 C19867.402,1464.00785 19862.9468,1466.68534 19858.3127,1465.84895 C19853.1494,1464.91707 19849.7192,1459.97596 19850.651,1454.81268 C19851.5829,1449.64939 19856.524,1446.21916 19861.6873,1447.15105 Z M19853.6033,1455.34552 C19852.9657,1458.87829 19855.3127,1462.25905 19858.8455,1462.89665 C19862.3783,1463.53426 19865.759,1461.18726 19866.3967,1457.65448 C19867.0343,1454.12171 19864.6873,1450.74095 19861.1545,1450.10335 C19857.6217,1449.46574 19854.241,1451.81274 19853.6033,1455.34552 Z"></path>
        </g>
    </g>
</svg>