<?xml version="1.0" encoding="UTF-8"?>
<svg width="399px" height="190px" viewBox="0 0 399 190" version="1.1" xmlns="http://www.w3.org/2000/svg" xmlns:xlink="http://www.w3.org/1999/xlink">
    <!-- Generator: Sketch 51.2 (57519) - http://www.bohemiancoding.com/sketch -->
    <title>isolar-modem@1x</title>
    <desc>Created with Sketch.</desc>
    <defs>
        <polygon id="path-1" points="0 0.675682906 0 41.3039949 138.499264 41.3039949 138.499264 0.675682906"></polygon>
        <polygon id="path-3" points="218.548374 155.882528 218.548374 0.00979487179 0.679034356 0.00979487179 0.679034356 155.882528 218.548374 155.882528"></polygon>
        <polygon id="path-5" points="0 190 399 190 399 0 0 0"></polygon>
    </defs>
    <g id="fluxo_ts_fibra_internet_lenta_s40" stroke="none" stroke-width="1" fill="none" fill-rule="evenodd">
        <g id="ts_isolar_modem_intro" transform="translate(-137.000000, -475.000000)">
            <g id="isolar-modem" transform="translate(0.000000, 465.000000)">
                <g transform="translate(108.000000, -12.000000)" id="Page-1">
                    <g transform="translate(29.000000, 22.000000)">
                        <path d="M386.003619,190 L11.9963812,190 C9.24820817,190 7,187.74998 7,184.999591 C7,182.25002 9.24820817,180 11.9963812,180 L386.003619,180 C388.751792,180 391,182.25002 391,184.999591 C391,187.74998 388.751792,190 386.003619,190 Z" id="Fill-1" fill="#D5DAE2"></path>
                        <path d="M126,174.916616 C141.916306,176.53566 155.300696,186.763975 189.377916,185.954452 C223.455136,185.14412 271,148 271,148" id="Stroke-3" stroke="#CC5200" stroke-width="5" stroke-linecap="round" stroke-linejoin="round"></path>
                        <path d="M10,180 L10,182.277625 C10,184.655875 10.5442963,187 11.8178519,187 L30.0599259,187 C31.3334815,187 32,184.655875 32,182.277625 L32,180 L10,180 Z" id="Fill-5" fill="#2D2B2C"></path>
                        <path d="M107,180 L107,182.277625 C107,184.655875 108.47775,187 109.760821,187 L128.151786,187 C129.434857,187 130,184.655875 130,182.277625 L130,180 L107,180 Z" id="Fill-7" fill="#2D2B2C"></path>
                        <path d="M128.198866,153 L124.801134,153 C124.360688,153 124,152.666403 124,152.259038 L124,96.7409623 C124,96.333597 124.360688,96 124.801134,96 L128.198866,96 C128.639312,96 129,96.333597 129,96.7409623 L129,152.259038 C129,152.666403 128.639312,153 128.198866,153" id="Fill-9" fill="#2D2B2C"></path>
                        <g id="Group-13" transform="translate(0.000000, 139.000000)">
                            <mask id="mask-2" fill="white">
                                <use xlink:href="#path-1"></use>
                            </mask>
                            <g id="Clip-12"></g>
                            <path d="M131.469031,41.3039949 L7.02998834,41.3039949 C3.16401288,41.3039949 -0.000244785275,38.139435 -0.000244785275,34.2712769 L-0.000244785275,7.70840085 C-0.000244785275,3.84024274 3.16401288,0.675682906 7.02998834,0.675682906 L131.469031,0.675682906 C135.335823,0.675682906 138.499264,3.84024274 138.499264,7.70840085 L138.499264,34.2712769 C138.499264,38.139435 135.335823,41.3039949 131.469031,41.3039949" id="Fill-11" fill="#645E5E" mask="url(#mask-2)"></path>
                        </g>
                        <path d="M125.914315,171 L13.0856846,171 C10.8385581,171 9,169.173631 9,166.941402 L9,154.058598 C9,151.826369 10.8385581,150 13.0856846,150 L125.914315,150 C128.161442,150 130,151.826369 130,154.058598 L130,166.941402 C130,169.173631 128.161442,171 125.914315,171" id="Fill-14" fill="#7C7777"></path>
                        <path d="M21.1213996,163.1214 C19.9499323,164.292867 18.0500677,164.292867 16.8786004,163.1214 C15.7071332,161.949932 15.7071332,160.050068 16.8786004,158.8786 C18.0500677,157.707133 19.9499323,157.707133 21.1213996,158.8786 C22.2928668,160.050068 22.2928668,161.949932 21.1213996,163.1214" id="Fill-16" fill="#00D400"></path>
                        <path d="M32.4999001,163.597659 C31.0648931,164.42594 29.2306206,163.934295 28.4023405,162.500071 C27.5740605,161.065064 28.065705,159.230791 29.4999291,158.402511 C30.9349361,157.574231 32.7692085,158.065093 33.5974886,159.5001 C34.4257687,160.935107 33.9349071,162.769379 32.4999001,163.597659" id="Fill-18" fill="#00B9FA"></path>
                        <path d="M44.4995987,163.597712 C43.0647667,164.425679 41.2302536,163.934774 40.4022875,162.499942 C39.5743214,161.06511 40.0652257,159.230597 41.5000577,158.402631 C42.9348897,157.573892 44.7694028,158.065569 45.5973689,159.500401 C46.4261081,160.935233 45.9344308,162.769746 44.4995987,163.597712" id="Fill-20" fill="#00B9FA"></path>
                        <path d="M310.24,172.556395 L310.24,152 L289.49512,152 L268.76,152 L268.76,172.556395 C268.76,177.37093 264.693333,183.561047 259,182.414186 L259,187 L289.49512,187 L320,187 L320,182.414186 C314.306667,183.561047 310.24,177.37093 310.24,172.556395" id="Fill-22" fill="#626E78"></path>
                        <g id="Group-26" transform="translate(180.000000, 0.000000)">
                            <mask id="mask-4" fill="white">
                                <use xlink:href="#path-3"></use>
                            </mask>
                            <g id="Clip-25"></g>
                            <path d="M210.274795,155.882528 L8.95277669,155.882528 C4.4022184,155.882528 0.679034356,152.158028 0.679034356,147.605861 L0.679034356,8.28605342 C0.679034356,3.73388675 4.4022184,0.00938675214 8.95277669,0.00938675214 L210.274795,0.00938675214 C214.825353,0.00938675214 218.548537,3.73388675 218.548537,8.28605342 L218.548537,147.605861 C218.548537,152.158028 214.825353,155.882528 210.274795,155.882528" id="Fill-24" fill="#495361" mask="url(#mask-4)"></path>
                        </g>
                        <path d="M181,121 L181,146.772 C181,151.286714 184.714981,155 189.268487,155 L390.720899,155 C395.274404,155 399,151.286714 399,146.772 L399,121 L181,121 Z" id="Fill-27" fill="#D1DDE8"></path>
                        <mask id="mask-6" fill="white">
                            <use xlink:href="#path-5"></use>
                        </mask>
                        <g id="Clip-30"></g>
                        <polygon id="Fill-29" fill="#6F7B84" mask="url(#mask-6)" points="192 110 388 110 388 10 192 10"></polygon>
                        <polygon id="Fill-31" fill="#626E78" mask="url(#mask-6)" points="266 10.1455271 364.404057 110 388 110 388 10"></polygon>
                        <path d="M295,138.5 C295,140.985426 292.985238,143 290.49958,143 C288.014762,143 286,140.985426 286,138.5 C286,136.014574 288.014762,134 290.49958,134 C292.985238,134 295,136.014574 295,138.5" id="Fill-32" fill="#495361" mask="url(#mask-6)"></path>
                    </g>
                </g>
            </g>
        </g>
    </g>
</svg>