<?xml version="1.0" encoding="UTF-8"?>
<svg width="591px" height="329px" viewBox="0 0 591 329" version="1.1" xmlns="http://www.w3.org/2000/svg" xmlns:xlink="http://www.w3.org/1999/xlink">
    <title>microfiltro-01</title>
    <g id="Page-1" stroke="none" stroke-width="1" fill="none" fill-rule="evenodd">
        <g id="microfiltro-01" transform="translate(9.000000, 13.000000)">
            <polygon id="Fill-18" fill="#3F4243" points="0.705959304 47.1645442 0.705959304 47.1645442 6.89546817 47.1645442"></polygon>
            <g id="Group-2" transform="translate(7.080114, 39.035019)">
                <path d="M74.881305,110.290918 L3.51710027,110.290918 C1.58287875,110.290918 0,108.7033 0,106.763288 L0,3.52762965 C0,1.58761752 1.58287875,0 3.51710027,0 L74.881305,0 C76.8155266,0 78.3984053,1.58761752 78.3984053,3.52762965 L78.3984053,106.763288 C78.3984053,108.7033 76.8155266,110.290918 74.881305,110.290918 Z" id="Fill-1" fill="#E6E6E6"></path>
                <path d="M1.22419084,0 C1.22419084,0.478863754 0,1.34818565 0,2.93580317 L0,106.369146 C0,106.369146 0,108.096739 1.22419084,108.983251 L1.22419084,0 Z" id="Fill-3" fill="#CFCFCF"></path>
                <path d="M51.061126,67.7841696 L28.3450408,67.7841696 C27.6827536,67.7841696 27.140437,67.2402295 27.140437,66.5759595 L27.140437,43.7918677 C27.140437,43.1275977 27.6827536,42.5836576 28.3450408,42.5836576 L51.061126,42.5836576 C51.7234132,42.5836576 52.2657298,43.1275977 52.2657298,43.7918677 L52.2657298,66.5759595 C52.2657298,67.2402295 51.7234132,67.7841696 51.061126,67.7841696" id="Fill-5" fill="#F2F3F5"></path>
                <polyline id="Fill-7" fill="#E5E9EC" points="51.5459055 67.0671018 51.5483539 42.5836576 27.140437 67.0671018"></polyline>
                <path d="M27.6008338,42.2774672 C27.1772637,42.2774672 26.8332661,42.6224947 26.8332661,43.0473328 L26.8332661,65.8314247 C26.8332661,66.2562628 27.1772637,66.6012902 27.6008338,66.6012902 L50.3169189,66.6012902 C50.7404889,66.6012902 51.0844866,66.2562628 51.0844866,65.8314247 L51.0844866,43.0473328 C51.0844866,42.6224947 50.7404889,42.2774672 50.3169189,42.2774672 L27.6008338,42.2774672 Z M50.3169189,67.4779793 L27.6008338,67.4779793 C26.6961567,67.4779793 25.960418,66.7388101 25.960418,65.8314247 L25.960418,43.0473328 C25.960418,42.1399474 26.6961567,41.4007782 27.6008338,41.4007782 L50.3169189,41.4007782 C51.2228201,41.4007782 51.9585588,42.1399474 51.9585588,43.0473328 L51.9585588,65.8314247 C51.9585588,66.7388101 51.2228201,67.4779793 50.3169189,67.4779793 L50.3169189,67.4779793 Z" id="Fill-9" fill="#5B5B5D"></path>
                <polygon id="Fill-11" fill="#5A5A5C" points="39.3013469 46.1322957 29.500475 46.1322957 29.500475 57.1829977 33.1730475 57.1829977 33.1730475 60.8665651 35.6214292 60.8665651 35.6214292 63.3222766 39.3013469 63.3222766 42.9665742 63.3222766 42.9665742 60.8665651 45.4149559 60.8665651 45.4149559 57.1829977 49.0875284 57.1829977 49.0875284 46.1322957"></polygon>
                <polygon id="Fill-13" fill="#3F4243" points="29.500475 47.3601515 49.0875284 47.3601515 49.0875284 46.1322957 29.500475 46.1322957"></polygon>
                <polygon id="Fill-15" fill="#3F4243" points="29.500475 56.8231865 33.1730475 56.8231865 33.1730475 55.5953307 29.500475 55.5953307"></polygon>
                <polygon id="Fill-16" fill="#3F4243" points="44.8407221 56.8231865 48.5132946 56.8231865 48.5132946 55.5953307 44.8407221 55.5953307"></polygon>
                <polygon id="Fill-17" fill="#3F4243" points="33.040532 60.3718247 35.4889137 60.3718247 35.4889137 59.1439689 33.040532 59.1439689"></polygon>
                <polygon id="Fill-19" fill="#3F4243" points="42.4806841 60.3718247 44.9290657 60.3718247 44.9290657 59.1439689 42.4806841 59.1439689"></polygon>
                <polygon id="Fill-20" fill="#BDBEC2" points="36.580589 52.0824848 38.2185564 52.0824848 38.2185564 46.1322957 36.580589 46.1322957"></polygon>
                <polygon id="Fill-21" fill="#BDBEC2" points="34.220551 52.0824848 35.8585184 52.0824848 35.8585184 46.1322957 34.220551 46.1322957"></polygon>
                <polygon id="Fill-22" fill="#BDBEC2" points="40.1206461 52.0824848 41.7586134 52.0824848 41.7586134 46.1322957 40.1206461 46.1322957"></polygon>
                <polygon id="Fill-23" fill="#BDBEC2" points="42.4806841 52.0824848 44.1186514 52.0824848 44.1186514 46.1322957 42.4806841 46.1322957"></polygon>
            </g>
            <path d="M182.947454,61.0503652 C161.143391,55.4145072 140.614935,69.6060643 122.325524,82.2640295 C110.387215,90.526271 99.111193,98.3305224 88.8843028,99.9758491 C62.5348192,104.214407 49.7175412,91.2642124 49.1470683,90.6699302 C47.6988505,89.1400219 45.2847462,89.0724898 43.7532834,90.517676 C42.2144756,91.9690016 42.1410241,94.3964725 43.5880177,95.9398872 C44.2233727,96.6164357 59.5012743,112.471737 90.0950275,107.549264 C102.030888,105.630125 113.998578,97.3470099 126.670177,88.5776639 C143.704793,76.7865649 161.254792,64.6541219 179.054527,68.041776 L182.947454,61.0503652 Z" id="Fill-54" fill="#B5AE86"></path>
            <polygon id="Fill-70" fill="#EDEAD3" points="280.536397 70.8143971 227.787238 48.6000304 188.831038 56.5454851 179.800182 78.0464677 201.413271 111.614817 254.174672 133.834095"></polygon>
            <polygon id="Fill-71" fill="#D8D4B6" points="227.638499 48.5649137 188.764319 56.5091406 179.64777 77.9732875 201.29024 111.552687 218.7486 69.8169811"></polygon>
            <polygon id="Fill-72" fill="#D8D4B6" points="178.22979 76.9595697 186.870129 56.303352 180.700207 53.706437 172.059868 74.3626548"></polygon>
            <path d="M285.609322,81.4317888 L265.28653,130.015586 C263.620406,133.999978 259.049277,135.874914 255.076778,134.202575 L242.200739,128.784047 C238.22824,127.112935 236.3589,122.528122 238.026248,118.544958 L258.34904,69.9599323 C260.015164,65.9767681 264.586293,64.1018324 268.557568,65.7729441 L281.434831,71.1926995 C285.40733,72.8638112 287.275445,77.4486247 285.609322,81.4317888" id="Fill-73" fill="#D8D4B6"></path>
            <polygon id="Fill-74" fill="#F2F3F5" points="271.52366 106.780749 262.571152 128.183503 241.232282 119.204193 250.184789 97.8014393"></polygon>
            <polyline id="Fill-75" fill="#E5E9EC" points="270.905443 106.97696 250.174996 98.250589 262.208791 127.765786"></polyline>
            <path d="M241.758928,118.987722 L262.355939,127.655156 L270.997502,106.996483 L250.400492,98.3290489 L241.758928,118.987722 Z M271.894834,106.937546 L262.942327,128.339072 C262.855409,128.545352 262.620364,128.642352 262.4147,128.555175 L241.077054,119.575865 C240.87139,119.489915 240.774679,119.252939 240.861597,119.047887 L249.814104,97.6451333 C249.899797,97.4400814 250.136066,97.3430808 250.340506,97.4290307 L271.679377,106.40834 C271.883816,106.49429 271.980528,106.731266 271.894834,106.937546 L271.894834,106.937546 Z" id="Fill-76" fill="#5B5B5D"></path>
            <polygon id="Fill-77" fill="#5A5A5C" points="249.525317 110.122358 246.148999 118.194282 255.124766 121.971166 256.380786 118.970287 259.372709 120.228839 260.208831 118.228662 263.200753 119.487214 264.48493 116.417575 265.711569 113.485455 262.719646 112.226903 263.974442 109.226023 260.98252 107.966243 261.819866 105.966066 252.844099 102.189182"></polygon>
            <polygon id="Fill-78" fill="#3F4243" points="246.298228 117.836976 246.298228 117.836976 252.966396 101.895724"></polygon>
            <polygon id="Fill-79" fill="#3F4243" points="255.124889 121.970921 255.124889 121.970921 256.379684 118.970041"></polygon>
            <polygon id="Fill-80" fill="#3F4243" points="260.983009 107.966489 260.983009 107.966489 261.820356 105.966312"></polygon>
            <polygon id="Fill-81" fill="#3F4243" points="258.374871 119.809404 259.372586 120.22933 260.208708 118.227925 259.212217 117.809226"></polygon>
            <polygon id="Fill-82" fill="#3F4243" points="262.203772 119.067779 263.201488 119.487705 265.712303 113.485946 264.714588 113.06602"></polygon>
            <polygon id="Fill-83" fill="#3F4243" points="261.72242 111.806853 262.720136 112.22678 263.974932 109.225901 262.977216 108.805974"></polygon>
            <polygon id="Fill-84" fill="#BDBEC2" points="254.029728 112.491997 253.445789 113.888069 248.407019 111.767562 248.990958 110.37149"></polygon>
            <polygon id="Fill-85" fill="#BDBEC2" points="253.069717 114.787228 252.485778 116.1833 247.447009 114.062793 248.030948 112.666721"></polygon>
            <polygon id="Fill-86" fill="#BDBEC2" points="254.989861 110.196766 254.405922 111.592838 249.368376 109.472331 249.951091 108.076259"></polygon>
            <polygon id="Fill-87" fill="#BDBEC2" points="255.949993 107.901658 255.366054 109.29773 250.328509 107.177223 250.911224 105.781151"></polygon>
            <polygon id="Fill-88" fill="#F2F3F5" points="282.403044 80.7725531 273.450536 102.175307 252.111665 93.1959979 261.064173 71.7932438"></polygon>
            <polyline id="Fill-89" fill="#E5E9EC" points="281.784827 80.9687644 261.05438 72.2423934 273.088175 101.757591"></polyline>
            <path d="M252.638312,92.9795269 L273.235323,101.646961 L281.876886,80.9882873 L261.279875,72.3208534 L252.638312,92.9795269 Z M282.774218,80.9293503 L273.821711,102.330877 C273.734793,102.537156 273.499748,102.634157 273.294084,102.546979 L251.956438,93.5676698 C251.750774,93.4817199 251.654063,93.2447437 251.74098,93.0396918 L260.693488,71.6369377 C260.779181,71.4318858 261.01545,71.3348852 261.21989,71.4208351 L282.558761,80.4001444 C282.7632,80.4860943 282.859912,80.7230705 282.774218,80.9293503 L282.774218,80.9293503 Z" id="Fill-90" fill="#5B5B5D"></path>
            <polygon id="Fill-91" fill="#5A5A5C" points="260.404579 84.1141626 257.028261 92.1860865 266.004028 95.9629709 267.260048 92.9620913 270.25197 94.2206435 271.088092 92.2204664 274.080015 93.4790186 275.364191 90.4093792 276.59083 87.4772596 273.598908 86.2187074 274.854928 83.2178279 271.861781 81.9580478 272.699128 79.9578708 263.72336 76.1809864"></polygon>
            <polygon id="Fill-92" fill="#3F4243" points="257.17749 91.8287804 257.17749 91.8287804 263.845657 75.8875289"></polygon>
            <polygon id="Fill-93" fill="#3F4243" points="266.004273 95.9627253 266.004273 95.9627253 267.259068 92.9618458"></polygon>
            <polygon id="Fill-94" fill="#3F4243" points="271.862393 81.9582934 271.862393 81.9582934 272.69974 79.9581163"></polygon>
            <polygon id="Fill-95" fill="#3F4243" points="269.254255 93.801208 270.25197 94.2211346 271.088092 92.2197297 270.091601 91.8010309"></polygon>
            <polygon id="Fill-96" fill="#3F4243" points="273.083156 93.0595831 274.080872 93.4795098 276.591687 87.4777507 275.593972 87.057824"></polygon>
            <polygon id="Fill-97" fill="#3F4243" points="272.601682 85.7986579 273.599398 86.2185846 274.854193 83.2177051 273.856478 82.7977784"></polygon>
            <polygon id="Fill-98" fill="#BDBEC2" points="264.909112 86.4838015 264.325173 87.8798735 259.286403 85.7593665 259.870342 84.3632945"></polygon>
            <polygon id="Fill-99" fill="#BDBEC2" points="263.948979 88.7790323 263.36504 90.1751043 258.327494 88.0545974 258.910209 86.6585253"></polygon>
            <polygon id="Fill-100" fill="#BDBEC2" points="265.869244 84.1886934 265.285305 85.5847655 260.246536 83.4642585 260.830475 82.0681865"></polygon>
            <polygon id="Fill-101" fill="#BDBEC2" points="266.829255 81.8934626 266.245316 83.2895346 261.207771 81.1690277 261.790485 79.7729557"></polygon>
            <g id="Group" transform="translate(391.766309, 0.000000)">
                <path d="M174.837614,180.859423 L5.87878974,180.859423 C2.74067318,180.859423 0.173496669,178.284561 0.173496669,175.13705 L0.173496669,173.892053 C0.173496669,170.744541 2.74067318,168.169679 5.87878974,168.169679 L174.837614,168.169679 C177.975731,168.169679 180.542907,170.744541 180.542907,173.892053 L180.542907,175.13705 C180.542907,178.284561 177.975731,180.859423 174.837614,180.859423" id="Fill-40" fill="#D5DAE2"></path>
                <path d="M165.588221,172.637992 L14.4386188,172.637992 C10.2383073,172.637992 6.80198748,169.191384 6.80198748,164.978498 L6.80198748,16.5568586 C6.80198748,12.3439724 10.2383073,8.89736503 14.4386188,8.89736503 L165.588221,8.89736503 C169.788532,8.89736503 173.224852,12.3439724 173.224852,16.5568586 L173.224852,164.978498 C173.224852,169.191384 169.788532,172.637992 165.588221,172.637992" id="Fill-41" fill="#444444"></path>
                <path d="M60.177982,158.783998 L29.1262365,158.783998 C24.5578946,158.783998 20.8192641,155.034175 20.8192641,150.452156 L20.8192641,8.71279892 C20.8192641,4.12995647 24.5578946,0.380133391 29.1262365,0.380133391 L60.177982,0.380133391 C64.7471455,0.380133391 68.4849545,4.12995647 68.4849545,8.71279892 L68.4849545,150.452156 C68.4849545,155.034175 64.7471455,158.783998 60.177982,158.783998" id="Fill-42" fill="#232323"></path>
                <polygon id="Fill-43" fill="#6F7B84" points="80.6357911 62.7148655 156.240577 62.7148655 156.240577 24.0878151 80.6357911 24.0878151"></polygon>
                <polygon id="Fill-44" fill="#626E78" points="109.445591 24.3102832 146.960049 63.0716384 156.719427 63.0716384 156.719427 24.0869912"></polygon>
                <path d="M97.8155006,83.5207395 C97.8155006,87.3999236 94.6798485,90.5449631 90.8122431,90.5449631 C86.9446376,90.5449631 83.809807,87.3999236 83.809807,83.5207395 C83.809807,79.6415553 86.9446376,76.4965158 90.8122431,76.4965158 C94.6798485,76.4965158 97.8155006,79.6415553 97.8155006,83.5207395" id="Fill-45" fill="#232323"></path>
                <path d="M125.440866,83.5207395 C125.440866,87.3999236 122.305214,90.5449631 118.437609,90.5449631 C114.570003,90.5449631 111.435173,87.3999236 111.435173,83.5207395 C111.435173,79.6415553 114.570003,76.4965158 118.437609,76.4965158 C122.305214,76.4965158 125.440866,79.6415553 125.440866,83.5207395" id="Fill-46" fill="#232323"></path>
                <path d="M153.066232,83.5207395 C153.066232,87.3999236 149.93058,90.5449631 146.062975,90.5449631 C142.195369,90.5449631 139.060539,87.3999236 139.060539,83.5207395 C139.060539,79.6415553 142.195369,76.4965158 146.062975,76.4965158 C149.93058,76.4965158 153.066232,79.6415553 153.066232,83.5207395" id="Fill-47" fill="#232323"></path>
                <path d="M97.8155006,106.602462 C97.8155006,110.481646 94.6798485,113.626686 90.8122431,113.626686 C86.9446376,113.626686 83.809807,110.481646 83.809807,106.602462 C83.809807,102.723278 86.9446376,99.5782383 90.8122431,99.5782383 C94.6798485,99.5782383 97.8155006,102.723278 97.8155006,106.602462" id="Fill-48" fill="#232323"></path>
                <path d="M125.440866,106.602462 C125.440866,110.481646 122.305214,113.626686 118.437609,113.626686 C114.570003,113.626686 111.435173,110.481646 111.435173,106.602462 C111.435173,102.723278 114.570003,99.5782383 118.437609,99.5782383 C122.305214,99.5782383 125.440866,102.723278 125.440866,106.602462" id="Fill-49" fill="#232323"></path>
                <path d="M153.066232,106.602462 C153.066232,110.481646 149.93058,113.626686 146.062975,113.626686 C142.195369,113.626686 139.060539,110.481646 139.060539,106.602462 C139.060539,102.723278 142.195369,99.5782383 146.062975,99.5782383 C149.93058,99.5782383 153.066232,102.723278 153.066232,106.602462" id="Fill-50" fill="#232323"></path>
                <path d="M97.8155006,129.684102 C97.8155006,133.563286 94.6798485,136.708326 90.8122431,136.708326 C86.9446376,136.708326 83.809807,133.563286 83.809807,129.684102 C83.809807,125.804918 86.9446376,122.659878 90.8122431,122.659878 C94.6798485,122.659878 97.8155006,125.804918 97.8155006,129.684102" id="Fill-51" fill="#232323"></path>
                <path d="M125.440866,129.684102 C125.440866,133.563286 122.305214,136.708326 118.437609,136.708326 C114.570003,136.708326 111.435173,133.563286 111.435173,129.684102 C111.435173,125.804918 114.570003,122.659878 118.437609,122.659878 C122.305214,122.659878 125.440866,125.804918 125.440866,129.684102" id="Fill-52" fill="#232323"></path>
                <path d="M153.066232,129.684102 C153.066232,133.563286 149.93058,136.708326 146.062975,136.708326 C142.195369,136.708326 139.060539,133.563286 139.060539,129.684102 C139.060539,125.804918 142.195369,122.659878 146.062975,122.659878 C149.93058,122.659878 153.066232,125.804918 153.066232,129.684102" id="Fill-53" fill="#232323"></path>
            </g>
            <path d="M405.902543,54.7303164 C384.09848,49.0944584 363.570024,63.2860155 345.280613,75.9439807 C333.342304,84.2062222 322.066282,92.0104736 311.839392,93.6558003 C285.489908,97.8943585 272.67263,84.9441636 272.102157,84.3498814 C270.65394,82.8199731 268.239835,82.752441 266.708373,84.1976272 C265.169565,85.6489528 265.096113,88.0764236 266.543107,89.6198384 C267.178462,90.2963869 282.456364,106.151689 313.050117,101.229215 C324.985977,99.3100762 336.953667,91.0269611 349.625266,82.2576151 C366.659882,70.4665161 384.209882,58.3340731 402.009616,61.7217272 L405.902543,54.7303164 Z" id="Fill-54" fill="#444444"></path>
            <path d="M358.199353,151.256568 C336.39529,145.62071 315.866834,159.812267 297.577423,172.470232 C285.639114,180.732473 274.363092,188.536725 264.136202,190.182052 C237.786718,194.42061 224.96944,181.470415 224.398967,180.876133 C222.95075,179.346224 220.536645,179.278692 219.005183,180.723878 C217.466375,182.175204 217.392923,184.602675 218.839917,186.14609 C219.475272,186.822638 234.753173,202.67794 265.346927,197.755466 C277.282787,195.836327 289.250477,187.553212 301.922076,178.783866 C318.956692,166.992767 336.506692,154.860324 354.306426,158.247978 L358.199353,151.256568 Z" id="Fill-54" fill="#444444" transform="translate(288.000219, 174.343483) scale(-1, 1) rotate(122.000000) translate(-288.000219, -174.343483) "></path>
            <g id="cabo-telefonico" transform="translate(147.502375, 150.225681)">
                <g id="Page-1" transform="translate(19.675590, 13.859488)">
                    <g id="Group-38" transform="translate(0.056669, 0.557015)">
                        <path d="M172.50851,128.536701 L14.0988927,128.536701 C11.5999136,128.536701 9.55529431,126.458944 9.55529431,123.919462 L9.55529431,123.919462 C9.55529431,121.379981 11.5999136,119.302224 14.0988927,119.302224 L172.50851,119.302224 C175.00749,119.302224 177.052109,121.379981 177.052109,123.919462 L177.052109,123.919462 C177.052109,126.458944 175.00749,128.536701 172.50851,128.536701" id="Fill-16" fill="#D5DAE2"></path>
                        <path d="M12.1162802,115.275394 L12.1162802,118.057688 C12.1162802,121.088226 13.7215068,123.423462 15.4363142,123.423462 L40.0054216,123.423462 C41.7202291,123.423462 42.5851164,121.088226 42.5851164,118.057688 L42.5851164,115.275394 L12.1162802,115.275394 Z" id="Fill-22" fill="#2D2B2C"></path>
                        <path d="M144.147904,115.275394 L144.147904,118.057688 C144.147904,121.088226 145.552678,123.423462 147.267485,123.423462 L171.836592,123.423462 C173.5514,123.423462 174.61674,121.088226 174.61674,118.057688 L174.61674,115.275394 L144.147904,115.275394 Z" id="Fill-24" fill="#2D2B2C"></path>
                        <path d="M171.85744,77.7552769 L167.650067,77.7552769 C167.104301,77.7552769 166.657959,77.3017011 166.657959,76.7470892 L166.657959,1.21123538 C166.657959,0.656623517 167.104301,0.203047706 167.650067,0.203047706 L171.85744,0.203047706 C172.403206,0.203047706 172.849548,0.656623517 172.849548,1.21123538 L172.849548,76.7470892 C172.849548,77.3017011 172.403206,77.7552769 171.85744,77.7552769" id="Fill-26" fill="#2D2B2C"></path>
                        <path d="M176.984329,115.826747 L9.62275339,115.826747 C4.42220413,115.826747 0.167792416,111.502838 0.167792416,106.218001 L0.167792416,69.9265041 C0.167792416,64.6416669 4.42220413,60.3177585 9.62275339,60.3177585 L176.984329,60.3177585 C182.184878,60.3177585 186.439825,64.6416669 186.439825,69.9265041 L186.439825,106.218001 C186.439825,111.502838 182.184878,115.826747 176.984329,115.826747" id="Fill-28" fill="#645E5E"></path>
                        <path d="M169.047518,102.498082 L17.5596714,102.498082 C14.5309622,102.498082 12.0533647,99.9803287 12.0533647,96.9025316 L12.0533647,79.242408 C12.0533647,76.164611 14.5309622,73.6468578 17.5596714,73.6468578 L169.047518,73.6468578 C172.076227,73.6468578 174.553825,76.164611 174.553825,79.242408 L174.553825,96.9025316 C174.553825,99.9803287 172.076227,102.498082 169.047518,102.498082" id="Fill-30" fill="#7C7777"></path>
                        <path d="M28.831751,91.656099 C27.168794,93.3460084 24.4731038,93.3460084 22.8101468,91.656099 C21.1477243,89.9661896 21.1477243,87.2268089 22.8101468,85.5368995 C24.4731038,83.8475333 27.168794,83.8475333 28.831751,85.5368995 C30.494708,87.2268089 30.494708,89.9661896 28.831751,91.656099" id="Fill-32" fill="#00D400"></path>
                        <path d="M44.4472969,92.3509119 C42.4363537,93.5307522 39.864677,92.8305615 38.703654,90.787026 C37.5426309,88.7434904 38.2316543,86.1301332 40.2425975,84.9502929 C42.2535406,83.7704526 44.8252173,84.4706433 45.9862404,86.5141789 C47.1472634,88.5577144 46.45824,91.1710716 44.4472969,92.3509119" id="Fill-34" fill="#00B9FA"></path>
                        <path d="M60.9977549,92.3436873 C58.9611537,93.5387373 56.3574046,92.8293122 55.1814144,90.7597028 C54.0059588,88.6906366 54.7035348,86.044144 56.7401359,84.8496371 C58.7762025,83.6545871 61.3804862,84.363469 62.5564764,86.4330784 C63.731932,88.5026878 63.034356,91.1486373 60.9977549,92.3436873" id="Fill-36" fill="#00B9FA"></path>
                    </g>
                </g>
            </g>
        </g>
    </g>
</svg>