<?xml version="1.0" encoding="UTF-8"?>
<svg width="592px" height="329px" viewBox="0 0 592 329" version="1.1" xmlns="http://www.w3.org/2000/svg" xmlns:xlink="http://www.w3.org/1999/xlink">
    <title>microfiltro-00</title>
    <g id="Page-1" stroke="none" stroke-width="1" fill="none" fill-rule="evenodd">
        <g id="microfiltro-00" transform="translate(78.500000, 38.000000)">
            <g id="Group-2" transform="translate(0.000000, 9.050557)">
                <path d="M87.2470251,128.504097 L4.09790582,128.504097 C1.84427157,128.504097 0,126.654304 0,124.393923 L0,4.110174 C0,1.84979289 1.84427157,0 4.09790582,0 L87.2470251,0 C89.5006594,0 91.344931,1.84979289 91.344931,4.110174 L91.344931,124.393923 C91.344931,126.654304 89.5006594,128.504097 87.2470251,128.504097 Z" id="Fill-1" fill="#E6E6E6"></path>
                <path d="M1.42635079,0 C1.42635079,0.557942172 0,1.57082181 0,3.4206147 L0,123.934693 C0,123.934693 0,125.947577 1.42635079,126.980485 L1.42635079,0 Z" id="Fill-3" fill="#CFCFCF"></path>
                <path d="M59.4932385,78.9778857 L33.0258732,78.9778857 C32.2542175,78.9778857 31.6223441,78.3441206 31.6223441,77.5701547 L31.6223441,51.0235522 C31.6223441,50.2495863 32.2542175,49.6158212 33.0258732,49.6158212 L59.4932385,49.6158212 C60.2648943,49.6158212 60.8967677,50.2495863 60.8967677,51.0235522 L60.8967677,77.5701547 C60.8967677,78.3441206 60.2648943,78.9778857 59.4932385,78.9778857" id="Fill-5" fill="#F2F3F5"></path>
                <polyline id="Fill-7" fill="#E5E9EC" points="60.0580734 78.1424031 60.0609261 49.6158212 31.6223441 78.1424031"></polyline>
                <path d="M32.1587696,49.2590673 C31.6652522,49.2590673 31.2644477,49.6610718 31.2644477,50.1560667 L31.2644477,76.7026691 C31.2644477,77.1976639 31.6652522,77.5996684 32.1587696,77.5996684 L58.6261349,77.5996684 C59.1196522,77.5996684 59.5204568,77.1976639 59.5204568,76.7026691 L59.5204568,50.1560667 C59.5204568,49.6610718 59.1196522,49.2590673 58.6261349,49.2590673 L32.1587696,49.2590673 Z M58.6261349,78.6211318 L32.1587696,78.6211318 C31.1046964,78.6211318 30.2474595,77.759898 30.2474595,76.7026691 L30.2474595,50.1560667 C30.2474595,49.0988378 31.1046964,48.237604 32.1587696,48.237604 L58.6261349,48.237604 C59.6816345,48.237604 60.5388713,49.0988378 60.5388713,50.1560667 L60.5388713,76.7026691 C60.5388713,77.759898 59.6816345,78.6211318 58.6261349,78.6211318 L58.6261349,78.6211318 Z" id="Fill-9" fill="#5B5B5D"></path>
                <polygon id="Fill-11" fill="#5A5A5C" points="45.7914775 53.750473 34.3721131 53.750473 34.3721131 66.6260616 38.6511655 66.6260616 38.6511655 70.9179244 41.5038671 70.9179244 41.5038671 73.7791664 45.7914775 73.7791664 50.0619718 73.7791664 50.0619718 70.9179244 52.9146734 70.9179244 52.9146734 66.6260616 57.1937258 66.6260616 57.1937258 53.750473"></polygon>
                <polygon id="Fill-13" fill="#3F4243" points="34.3721131 55.1810939 57.1937258 55.1810939 57.1937258 53.750473 34.3721131 53.750473"></polygon>
                <polygon id="Fill-15" fill="#3F4243" points="34.3721131 66.206832 38.6511655 66.206832 38.6511655 64.776211 34.3721131 64.776211"></polygon>
                <polygon id="Fill-16" fill="#3F4243" points="52.2456119 66.206832 56.5246643 66.206832 56.5246643 64.776211 52.2456119 64.776211"></polygon>
                <polygon id="Fill-17" fill="#3F4243" points="38.4967667 70.3414838 41.3494683 70.3414838 41.3494683 68.9108628 38.4967667 68.9108628"></polygon>
                <polygon id="Fill-19" fill="#3F4243" points="49.4958429 70.3414838 52.3485445 70.3414838 52.3485445 68.9108628 49.4958429 68.9108628"></polygon>
                <polygon id="Fill-20" fill="#BDBEC2" points="42.6214203 60.6832621 44.5298776 60.6832621 44.5298776 53.750473 42.6214203 53.750473"></polygon>
                <polygon id="Fill-21" fill="#BDBEC2" points="39.8716512 60.6832621 41.7801086 60.6832621 41.7801086 53.750473 39.8716512 53.750473"></polygon>
                <polygon id="Fill-22" fill="#BDBEC2" points="46.7460738 60.6832621 48.6545312 60.6832621 48.6545312 53.750473 46.7460738 53.750473"></polygon>
                <polygon id="Fill-23" fill="#BDBEC2" points="49.4958429 60.6832621 51.4043002 60.6832621 51.4043002 53.750473 49.4958429 53.750473"></polygon>
            </g>
            <g id="Group-5" transform="translate(275.754197, 120.171367) rotate(-3.000000) translate(-275.754197, -120.171367) translate(122.254197, 8.171367)">
                <g id="Group-3" transform="translate(157.250113, 111.899342) rotate(28.000000) translate(-157.250113, -111.899342) translate(15.250113, 61.399342)">
                    <path d="M163.583303,14.5472692 C138.178569,7.98071899 114.260093,24.515836 92.9504118,39.2641074 C79.0406389,48.8907558 65.9025218,57.9837826 53.9867873,59.9008147 C23.2860128,64.8393182 8.35212006,49.750559 7.6874406,49.0581385 C6.00006761,47.2755847 3.18730385,47.1969006 1.40293901,48.8807415 C-0.389983931,50.5717354 -0.475564978,53.400073 1.21038166,55.1983636 C1.95065772,55.9866357 19.7515156,74.4602441 55.3974482,68.7248847 C69.3043684,66.4888242 83.2483737,56.8378552 98.0125307,46.6203603 C117.860202,32.8821073 138.308367,18.7461417 159.047507,22.6932249 L163.583303,14.5472692 Z" id="Fill-54" fill="#B5AE86"></path>
                    <polygon id="Fill-70" fill="#EDEAD3" points="277.287852 25.9237101 215.827822 0.0409157593 170.438487 9.29846395 159.916298 34.3500675 185.098521 73.4618138 246.572814 99.3503305"></polygon>
                    <polygon id="Fill-71" fill="#D8D4B6" points="215.654521 -1.44250242e-13 170.360751 9.25611757 159.738717 34.2648025 184.955173 73.3894243 205.296564 24.7615832"></polygon>
                    <polygon id="Fill-72" fill="#D8D4B6" points="158.086575 33.0836818 168.153759 9.0163455 160.964951 5.99058218 150.897767 30.0579185"></polygon>
                    <path d="M283.198507,38.2944325 L259.519657,94.9012424 C257.578394,99.5436074 252.2524,101.728166 247.623891,99.7796599 L232.621534,93.4663296 C227.993026,91.5192545 225.814988,86.1773159 227.757678,81.5363815 L251.436527,24.9281409 C253.377791,20.2872066 258.703784,18.1026484 263.330866,20.0497235 L278.33465,26.3644844 C282.963159,28.3115595 285.13977,33.6534981 283.198507,38.2944325" id="Fill-73" fill="#D8D4B6"></path>
                    <polygon id="Fill-74" fill="#F2F3F5" points="266.786772 67.8294591 256.355868 92.7666129 231.493148 82.3044819 241.924051 57.367328"></polygon>
                    <polyline id="Fill-75" fill="#E5E9EC" points="266.066465 68.0580723 241.91264 57.8906492 255.933669 92.2799157"></polyline>
                    <path d="M232.106764,82.0522634 L256.105116,92.1510167 L266.173726,68.0808192 L242.175374,57.9820658 L232.106764,82.0522634 Z M267.219241,68.0121494 L256.788338,92.9478726 C256.687067,93.1882169 256.413208,93.301236 256.173581,93.1996619 L231.312286,82.7375308 C231.07266,82.6373874 230.959978,82.3612775 231.061249,82.1223638 L241.492152,57.18521 C241.591997,56.9462963 241.867282,56.8332772 242.105483,56.9334207 L266.968204,67.3955517 C267.206404,67.4956952 267.319086,67.771805 267.219241,68.0121494 L267.219241,68.0121494 Z" id="Fill-76" fill="#5B5B5D"></path>
                    <polygon id="Fill-77" fill="#5A5A5C" points="241.155676 71.722894 237.2218 81.1277961 247.679804 85.5283862 249.14324 82.0319486 252.629242 83.4983351 253.603439 81.1678535 257.089441 82.63424 258.585683 79.0576876 260.014886 75.6413648 256.528885 74.1749783 257.990894 70.6785407 254.504893 69.2107236 255.480517 66.8802421 245.022513 62.479652"></polygon>
                    <polygon id="Fill-78" fill="#3F4243" points="237.395673 80.7114854 237.395673 80.7114854 245.165005 62.1377336"></polygon>
                    <polygon id="Fill-79" fill="#3F4243" points="247.679947 85.5281001 247.679947 85.5281001 249.141957 82.0316625"></polygon>
                    <polygon id="Fill-80" fill="#3F4243" points="254.505464 69.2110097 254.505464 69.2110097 255.481087 66.8805282"></polygon>
                    <polygon id="Fill-81" fill="#3F4243" points="251.466623 83.0096349 252.629099 83.4989073 253.603297 81.1669951 252.442247 80.6791534"></polygon>
                    <polygon id="Fill-82" fill="#3F4243" points="255.927821 82.1455399 257.090296 82.6348122 260.015742 75.641937 258.853266 75.1526647"></polygon>
                    <polygon id="Fill-83" fill="#3F4243" points="255.366979 73.6855629 256.529455 74.1748352 257.991465 70.6783976 256.828989 70.1891253"></polygon>
                    <polygon id="Fill-84" fill="#BDBEC2" points="246.403934 74.4838494 245.723564 76.1104654 239.852704 73.639783 240.533074 72.013167"></polygon>
                    <polygon id="Fill-85" fill="#BDBEC2" points="245.285389 77.1581091 244.60502 78.7847251 238.73416 76.3140427 239.41453 74.6874267"></polygon>
                    <polygon id="Fill-86" fill="#BDBEC2" points="247.522621 71.8095896 246.842251 73.4362056 240.972818 70.9655232 241.651761 69.3389072"></polygon>
                    <polygon id="Fill-87" fill="#BDBEC2" points="248.641308 69.1354729 247.960938 70.7620889 242.091505 68.2914066 242.770448 66.6647905"></polygon>
                    <polygon id="Fill-88" fill="#F2F3F5" points="279.462751 37.5263321 269.031848 62.463486 244.169127 52.0013549 254.600031 27.0642011"></polygon>
                    <polyline id="Fill-89" fill="#E5E9EC" points="278.742444 37.7549454 254.58862 27.5875222 268.609648 61.9767887"></polyline>
                    <path d="M244.782743,51.7491365 L268.781095,61.8478898 L278.849706,37.7776922 L254.851354,27.6789389 L244.782743,51.7491365 Z M279.895221,37.7090224 L269.464317,62.6447457 C269.363047,62.88509 269.089187,62.998109 268.84956,62.8965349 L243.988266,52.4344039 C243.748639,52.3342604 243.635957,52.0581506 243.737228,51.8192369 L254.168132,26.882083 C254.267976,26.6431693 254.543262,26.5301503 254.781462,26.6302938 L279.644183,37.0924248 C279.882384,37.1925683 279.995065,37.4686781 279.895221,37.7090224 L279.895221,37.7090224 Z" id="Fill-90" fill="#5B5B5D"></path>
                    <polygon id="Fill-91" fill="#5A5A5C" points="253.831513 41.4197671 249.897637 50.8246692 260.355641 55.2252593 261.819077 51.7288216 265.305079 53.1952081 266.279276 50.8647266 269.765277 52.3311131 271.261519 48.7545607 272.690723 45.3382378 269.204722 43.8718514 270.668158 40.3754138 267.18073 38.9075967 268.156354 36.5771151 257.69835 32.1765251"></polygon>
                    <polygon id="Fill-92" fill="#3F4243" points="250.071509 50.4083585 250.071509 50.4083585 257.840842 31.8346067"></polygon>
                    <polygon id="Fill-93" fill="#3F4243" points="260.355927 55.2249731 260.355927 55.2249731 261.817936 51.7285355"></polygon>
                    <polygon id="Fill-94" fill="#3F4243" points="267.181443 38.9078828 267.181443 38.9078828 268.157067 36.5774012"></polygon>
                    <polygon id="Fill-95" fill="#3F4243" points="264.142603 52.706508 265.305079 53.1957804 266.279276 50.8638682 265.118227 50.3760265"></polygon>
                    <polygon id="Fill-96" fill="#3F4243" points="268.6038 51.842413 269.766276 52.3316853 272.691721 45.3388101 271.529245 44.8495377"></polygon>
                    <polygon id="Fill-97" fill="#3F4243" points="268.042816 43.3824359 269.205292 43.8717083 270.667302 40.3752707 269.504826 39.8859983"></polygon>
                    <polygon id="Fill-98" fill="#BDBEC2" points="259.079913 44.1807224 258.399544 45.8073385 252.528684 43.3366561 253.209053 41.71004"></polygon>
                    <polygon id="Fill-99" fill="#BDBEC2" points="257.961226 46.8549822 257.280857 48.4815982 251.411423 46.0109158 252.090366 44.3842998"></polygon>
                    <polygon id="Fill-100" fill="#BDBEC2" points="260.1986 41.5066057 259.518231 43.1332218 253.647371 40.6625394 254.32774 39.0359234"></polygon>
                    <polygon id="Fill-101" fill="#BDBEC2" points="261.317144 38.832346 260.636775 40.458962 254.767342 37.9882796 255.446285 36.3616636"></polygon>
                </g>
                <g id="Group-4" transform="translate(26.975913, 34.884787) rotate(-31.000000) translate(-26.975913, -34.884787) translate(10.475913, 10.384787)">
                    <path d="M19.8213211,48.251378 C19.7980183,42.968644 19.9751193,38.1954248 20.1440642,35.4611963 C20.2978624,32.9681514 18.3963578,30.8219679 15.8971376,30.6691018 C13.3909266,30.5113422 11.2470734,32.4112156 11.0921101,34.9053092 C11.0618165,35.4018908 10.7215963,41.1020936 10.7495596,48.251378 L19.8213211,48.251378 Z" id="Path" fill="#3E3F41"></path>
                    <path d="M29.3102018,45.7276899 L2.68797248,45.7276899 C1.26417431,45.7276899 0.0978715596,44.5637174 0.0978715596,43.1422495 L0.0978715596,5.23974037 C0.0978715596,3.8193211 1.26417431,2.65628073 2.68797248,2.65628073 L29.3102018,2.65628073 C30.7351651,2.65628073 31.9014679,3.8193211 31.9014679,5.23974037 L31.9014679,43.1422495 C31.9014679,44.5637174 30.7351651,45.7276899 29.3102018,45.7276899 Z" id="Path" fill="#F2F3F5"></path>
                    <path d="M2.01568807,2.6898367 C1.00784404,2.88185138 3.31152027e-14,3.95342844 3.31152027e-14,5.24020642 L3.31152027e-14,43.1434147 C3.31152027e-14,44.4297266 1.00784404,45.5016532 2.01568807,45.6939009 L2.01568807,2.6898367 Z" id="Path" fill="#CFCFCF"></path>
                    <path d="M30.2283303,45.6939009 C31.2350092,45.5016532 32.2428532,44.4297266 32.2428532,43.1434147 L32.2428532,5.24020642 C32.2428532,3.95342844 31.2350092,2.88185138 30.2283303,2.6898367 L30.2283303,45.6939009 Z" id="Path" fill="#CFCFCF"></path>
                    <path d="M25.1902752,3.01572569 L25.1902752,1.90301927 C25.1902752,0.856492661 24.8302477,-6.62304055e-14 23.7804587,-6.62304055e-14 L8.16761468,-6.62304055e-14 C7.11899083,-6.62304055e-14 6.04706422,0.856492661 6.04706422,1.90301927 L6.04706422,3.01572569 L25.1902752,3.01572569 Z" id="Path" fill="#CFCFCF"></path>
                    <polygon id="Path" fill="#E3E4E7" points="6.28591743 26.6330651 25.7122569 26.6330651 25.7122569 7.2508844 6.28591743 7.2508844"></polygon>
                    <polygon id="Path" fill="#8D8F90" points="8.40646789 20.4405917 11.1585229 20.4405917 11.1585229 7.24971927 8.40646789 7.24971927"></polygon>
                    <polygon id="Path" fill="#BDBEC2" points="8.94359633 20.4404752 11.1561927 20.4404752 11.1561927 7.7884789 8.94359633 7.7884789"></polygon>
                    <polygon id="Path" fill="#8D8F90" points="12.5531927 20.4405917 15.3040826 20.4405917 15.3040826 7.24971927 12.5531927 7.24971927"></polygon>
                    <polygon id="Path" fill="#BDBEC2" points="13.0903211 20.4404752 15.3029174 20.4404752 15.3029174 7.7884789 13.0903211 7.7884789"></polygon>
                    <polygon id="Path" fill="#8D8F90" points="16.6987523 20.4405917 19.4508073 20.4405917 19.4508073 7.24971927 16.6987523 7.24971927"></polygon>
                    <polygon id="Path" fill="#BDBEC2" points="17.2358807 20.4404752 19.4484771 20.4404752 19.4484771 7.7884789 17.2358807 7.7884789"></polygon>
                    <polygon id="Path" fill="#8D8F90" points="20.8431468 20.4405917 23.5952018 20.4405917 23.5952018 7.24971927 20.8431468 7.24971927"></polygon>
                    <polygon id="Path" fill="#BDBEC2" points="21.3826055 20.4404752 23.5952018 20.4404752 23.5952018 7.7884789 21.3826055 7.7884789"></polygon>
                    <path d="M24.6181927,39.5896284 L7.35784404,39.5896284 C6.76944954,39.5896284 6.28824771,39.1090092 6.28824771,38.5220128 L6.28824771,31.360611 C6.28824771,30.7734982 6.76944954,30.2929954 7.35784404,30.2929954 L24.6181927,30.2929954 C25.2065872,30.2929954 25.687789,30.7734982 25.687789,31.360611 L25.687789,38.5220128 C25.687789,39.1090092 25.2065872,39.5896284 24.6181927,39.5896284 Z" id="Path" fill="#5A5A5C"></path>
                    <path d="M25.1891101,34.4569642 L25.1891101,38.548345 C25.1891101,38.548345 25.560789,39.204667 24.6170275,39.204667 L7.33920183,39.204667 C7.33920183,39.204667 24.1812661,38.6920064 25.1891101,34.4569642 Z" id="Path" fill="#3E3F41"></path>
                </g>
            </g>
            <ellipse id="Oval" fill="#D5DAE2" cx="355.856197" cy="239.758268" rx="57.5213127" ry="13.3990826"></ellipse>
        </g>
    </g>
</svg>