<?xml version="1.0" encoding="UTF-8"?>
<svg width="591px" height="329px" viewBox="0 0 591 329" version="1.1" xmlns="http://www.w3.org/2000/svg" xmlns:xlink="http://www.w3.org/1999/xlink">
    <title>microfiltro-03</title>
    <g id="Page-1" stroke="none" stroke-width="1" fill="none" fill-rule="evenodd">
        <g id="microfiltro-03" transform="translate(0.000000, 1.000000)">
            <path d="M64.5527,94.6782 L3.03198,94.6782 C1.36455,94.6782 0,93.3154 0,91.65 L0,3.02826 C0,1.36288 1.36455,0 3.03198,0 L64.5527,0 C66.2202,0 67.5847,1.36288 67.5847,3.02826 L67.5847,91.65 C67.5847,93.3154 66.2202,94.6782 64.5527,94.6782 Z" id="Path" fill="#E6E6E6"></path>
            <path d="M1.05533,0 C1.05533,0.411076 0,1.15734 0,2.52021 L0,91.3116 C0,91.3116 0,92.7947 1.05533,93.5557 L1.05533,0 Z" id="Path" fill="#CFCFCF"></path>
            <path d="M44.0177,58.1887 L24.4349,58.1887 C23.864,58.1887 23.3965,57.7218 23.3965,57.1515 L23.3965,37.5927 C23.3965,37.0225 23.864,36.5555 24.4349,36.5555 L44.0177,36.5555 C44.5887,36.5555 45.0562,37.0225 45.0562,37.5927 L45.0562,57.1515 C45.0562,57.7218 44.5887,58.1887 44.0177,58.1887" id="Path" fill="#F2F3F5"></path>
            <polyline id="Path" fill="#E5E9EC" points="44.4356 57.5731 44.4378 36.5555 23.3965 57.5731"></polyline>
            <path d="M23.7931,36.2927 C23.4279,36.2927 23.1314,36.5889 23.1314,36.9536 L23.1314,56.5124 C23.1314,56.8771 23.4279,57.1733 23.7931,57.1733 L43.3758,57.1733 C43.741,57.1733 44.0375,56.8771 44.0375,56.5124 L44.0375,36.9536 C44.0375,36.5889 43.741,36.2927 43.3758,36.2927 L23.7931,36.2927 Z M43.3759,57.9258 L23.7931,57.9258 C23.0132,57.9258 22.3789,57.2913 22.3789,56.5124 L22.3789,36.9536 C22.3789,36.1746 23.0132,35.5401 23.7931,35.5401 L43.3759,35.5401 C44.1568,35.5401 44.7911,36.1746 44.7911,36.9536 L44.7911,56.5124 C44.7911,57.2913 44.1568,57.9258 43.3759,57.9258 L43.3759,57.9258 Z" id="Shape" fill="#5B5B5D"></path>
            <polygon id="Path" fill="#5A5A5C" points="33.8807 39.6019 25.4316 39.6019 25.4316 49.0882 28.5976 49.0882 28.5976 52.2504 30.7083 52.2504 30.7083 54.3585 33.8807 54.3585 37.0403 54.3585 37.0403 52.2504 39.151 52.2504 39.151 49.0882 42.317 49.0882 42.317 39.6019"></polygon>
            <polygon id="Path" fill="#3F4243" points="25.4316 40.6559 42.317 40.6559 42.317 39.6019 25.4316 39.6019"></polygon>
            <polygon id="Path" fill="#3F4243" points="25.4316 48.7793 28.5976 48.7793 28.5976 47.7253 25.4316 47.7253"></polygon>
            <polygon id="Path" fill="#3F4243" points="38.6562 48.7793 41.8223 48.7793 41.8223 47.7253 38.6562 47.7253"></polygon>
            <polygon id="Path" fill="#3F4243" points="28.4824 51.8256 30.5931 51.8256 30.5931 50.7716 28.4824 50.7716"></polygon>
            <polygon id="Path" fill="#3F4243" points="36.6211 51.8256 38.7318 51.8256 38.7318 50.7716 36.6211 50.7716"></polygon>
            <polygon id="Path" fill="#BDBEC2" points="31.5352 44.7098 32.9472 44.7098 32.9472 39.6019 31.5352 39.6019"></polygon>
            <polygon id="Path" fill="#BDBEC2" points="29.5 44.7098 30.912 44.7098 30.912 39.6019 29.5 39.6019"></polygon>
            <polygon id="Path" fill="#BDBEC2" points="34.5859 44.7098 35.998 44.7098 35.998 39.6019 34.5859 39.6019"></polygon>
            <polygon id="Path" fill="#BDBEC2" points="36.6211 44.7098 38.0331 44.7098 38.0331 39.6019 36.6211 39.6019"></polygon>
            <path d="M185.121,92.4801 C166.324,87.6421 148.627,99.8247 132.86,110.691 C122.569,117.783 112.848,124.483 104.032,125.895 C81.3169,129.534 70.2675,118.417 69.7757,117.907 C68.5272,116.593 66.4461,116.535 65.1259,117.776 C63.7993,119.022 63.736,121.106 64.9834,122.431 C65.5312,123.012 78.7017,136.622 105.076,132.397 C115.365,130.749 125.682,123.639 136.606,116.111 C151.291,105.989 166.42,95.5737 181.765,98.4818 L185.121,92.4801 Z" id="Path" fill="#B5AE86"></path>
            <polygon id="Path" fill="#EDEAD3" points="269.947 100.304 224.474 81.2346 190.891 88.0553 183.105 106.513 201.737 135.329 247.221 154.403"></polygon>
            <polygon id="Path" fill="#D8D4B6" points="224.477 81.2346 190.965 88.0542 183.105 106.48 201.763 135.306 216.813 99.4782"></polygon>
            <path d="M78.964,118.135 L70.7792,132.603 C70.3357,133.387 69.352,133.654 68.5931,133.195 L48.601,121.118 C47.8421,120.659 47.5837,119.643 48.0283,118.859 L56.2131,104.391 C56.6566,103.607 57.6403,103.34 58.3992,103.799 L78.3913,115.876 C79.1502,116.335 79.4076,117.351 78.964,118.135" id="Path" fill="#F2F3F5"></path>
            <path d="M47.8813,118.806 C47.6728,119.438 47.9281,120.363 48.6076,120.788 L68.6293,133.335 C69.3088,133.761 70.1857,133.547 70.5977,133.042 L47.8813,118.806 Z" id="Path" fill="#CFCFCF"></path>
            <path d="M79.6821,118.331 C79.8907,117.699 79.6353,116.774 78.9558,116.349 L58.9342,103.802 C58.2546,103.375 57.3778,103.59 56.9668,104.095 L79.6821,118.331 Z" id="Path" fill="#CFCFCF"></path>
            <path d="M54.7734,106.189 L54.4052,105.953 C53.8528,105.6 53.0695,105.378 52.746,105.983 L47.9354,114.983 C47.6129,115.587 47.9547,116.636 48.5071,116.988 L48.8754,117.224 L54.7734,106.189 Z" id="Path" fill="#CFCFCF"></path>
            <polygon id="Path" fill="#E3E4E7" points="68.1021 113.985 62.1166 124.845 51.8789 118.497 57.8644 107.636"></polygon>
            <polygon id="Path" fill="#BDBEC2" points="60.2614 119.426 59.5799 120.823 52.8965 116.141 53.578 114.744"></polygon>
            <polygon id="Path" fill="#BDBEC2" points="61.279 117.395 60.5974 118.792 53.9141 114.11 54.5956 112.713"></polygon>
            <polygon id="Path" fill="#BDBEC2" points="62.2966 115.364 61.615 116.762 54.9316 112.079 55.6132 110.682"></polygon>
            <polygon id="Path" fill="#BDBEC2" points="64.3317 113.334 63.6502 114.731 56.9668 110.048 57.6484 108.651"></polygon>
            <path d="M74.3969,118.193 L69.0858,127.992 C68.9027,128.33 68.4968,128.446 68.1835,128.248 L64.4125,125.87 C64.0992,125.672 63.9924,125.234 64.1755,124.896 L69.4866,115.096 C69.6697,114.758 70.0756,114.643 70.3899,114.84 L74.1599,117.218 C74.4732,117.416 74.58,117.855 74.3969,118.193" id="Path" fill="#5A5A5C"></path>
            <path d="M71.3677,116.775 L73.5294,118.155 C73.5294,118.155 73.7705,118.022 73.4795,118.567 C73.1886,119.11 68.1562,128.516 68.1562,128.516 C68.1562,128.516 73.2944,118.784 71.3677,116.775" id="Path" fill="#3E3F41"></path>
            <polygon id="Path" fill="#D8D4B6" points="181.303 105.258 188.752 87.5256 183.433 85.2963 175.984 103.028"></polygon>
            <path d="M274.497,109.417 L256.977,151.124 C255.541,154.544 251.6,156.153 248.176,154.718 L237.076,150.066 C233.651,148.632 232.04,144.696 233.477,141.277 L250.996,99.5694 C252.433,96.1501 256.373,94.5405 259.797,95.9751 L270.898,100.628 C274.323,102.062 275.933,105.998 274.497,109.417" id="Path" fill="#D8D4B6"></path>
            <polygon id="Path" fill="#F2F3F5" points="262.117 131.591 254.399 149.964 236.004 142.256 243.722 123.883"></polygon>
            <polyline id="Path" fill="#E5E9EC" points="260.996 131.374 243.125 123.883 253.499 149.22"></polyline>
            <path d="M236.805,141.401 L254.561,148.842 L262.011,131.107 L244.255,123.667 L236.805,141.401 Z M262.784,131.057 L255.067,149.429 C254.992,149.606 254.789,149.689 254.612,149.614 L236.217,141.906 C236.04,141.832 235.956,141.629 236.031,141.453 L243.749,123.08 C243.823,122.904 244.027,122.82 244.203,122.894 L262.598,130.602 C262.775,130.676 262.858,130.88 262.784,131.057 L262.784,131.057 Z" id="Shape" fill="#5B5B5D"></path>
            <polygon id="Path" fill="#5A5A5C" points="242.983 133.739 240.072 140.668 247.81 143.911 248.893 141.335 251.472 142.415 252.193 140.698 254.772 141.778 255.879 139.143 256.937 136.626 254.357 135.546 255.439 132.97 252.86 131.888 253.582 130.171 245.844 126.929"></polygon>
            <polygon id="Path" fill="#3F4243" points="240.072 140.614 240.072 140.614 245.821 126.929"></polygon>
            <polygon id="Path" fill="#3F4243" points="248.211 144.737 248.211 144.737 249.293 142.161"></polygon>
            <polygon id="Path" fill="#3F4243" points="253.297 132.708 253.297 132.708 254.019 130.991"></polygon>
            <polygon id="Path" fill="#3F4243" points="250.244 142.862 251.104 143.223 251.825 141.505 250.966 141.145"></polygon>
            <polygon id="Path" fill="#3F4243" points="254.314 142.235 255.175 142.596 257.339 137.444 256.479 137.083"></polygon>
            <polygon id="Path" fill="#3F4243" points="253.297 135.598 254.157 135.958 255.239 133.382 254.379 133.022"></polygon>
            <polygon id="Path" fill="#BDBEC2" points="246.955 135.857 246.451 137.056 242.107 135.235 242.611 134.037"></polygon>
            <path d="M337.347,111.027 L329.162,125.495 C328.718,126.279 327.735,126.546 326.976,126.087 L306.984,114.01 C306.225,113.551 305.967,112.535 306.411,111.751 L314.596,97.2829 C315.039,96.4987 316.023,96.2317 316.782,96.6911 L336.774,108.768 C337.533,109.227 337.79,110.243 337.347,111.027" id="Path" fill="#F2F3F5"></path>
            <path d="M306.264,111.698 C306.056,112.33 306.311,113.255 306.99,113.68 L327.012,126.227 C327.692,126.653 328.568,126.439 328.98,125.934 L306.264,111.698 Z" id="Path" fill="#CFCFCF"></path>
            <path d="M338.065,111.223 C338.273,110.591 338.018,109.666 337.339,109.241 L317.317,96.6938 C316.637,96.2674 315.761,96.4822 315.35,96.9871 L338.065,111.223 Z" id="Path" fill="#CFCFCF"></path>
            <path d="M313.156,99.0806 L312.788,98.8447 C312.236,98.492 311.452,98.2695 311.129,98.8748 L306.318,107.875 C305.996,108.479 306.338,109.527 306.89,109.88 L307.258,110.116 L313.156,99.0806 Z" id="Path" fill="#CFCFCF"></path>
            <polygon id="Path" fill="#E3E4E7" points="326.485 106.877 320.499 117.737 310.262 111.389 316.247 100.528"></polygon>
            <polygon id="Path" fill="#BDBEC2" points="318.644 112.318 317.963 113.715 311.279 109.033 311.961 107.636"></polygon>
            <polygon id="Path" fill="#BDBEC2" points="319.662 110.287 318.98 111.684 312.297 107.002 312.978 105.605"></polygon>
            <polygon id="Path" fill="#BDBEC2" points="320.679 108.256 319.998 109.653 313.314 104.971 313.996 103.574"></polygon>
            <polygon id="Path" fill="#BDBEC2" points="322.715 106.226 322.033 107.623 315.35 102.94 316.031 101.543"></polygon>
            <path d="M332.78,111.085 L327.469,120.884 C327.285,121.222 326.88,121.337 326.566,121.14 L322.795,118.762 C322.482,118.564 322.375,118.126 322.558,117.788 L327.869,107.988 C328.053,107.65 328.458,107.535 328.773,107.732 L332.543,110.11 C332.856,110.308 332.963,110.747 332.78,111.085" id="Path" fill="#5A5A5C"></path>
            <path d="M329.751,109.667 L331.912,111.047 C331.912,111.047 332.153,110.914 331.862,111.459 C331.571,112.002 326.539,121.408 326.539,121.408 C326.539,121.408 331.677,111.676 329.751,109.667" id="Path" fill="#3E3F41"></path>
            <path d="M308.864,160.041 L300.68,174.508 C300.236,175.292 299.252,175.559 298.494,175.1 L278.501,163.023 C277.743,162.565 277.484,161.548 277.929,160.764 L286.114,146.296 C286.557,145.512 287.541,145.245 288.3,145.704 L308.292,157.782 C309.051,158.24 309.308,159.256 308.864,160.041" id="Path" fill="#F2F3F5"></path>
            <path d="M277.782,160.711 C277.573,161.343 277.829,162.268 278.508,162.693 L298.53,175.24 C299.209,175.667 300.086,175.452 300.498,174.947 L277.782,160.711 Z" id="Path" fill="#CFCFCF"></path>
            <path d="M309.583,160.236 C309.791,159.604 309.536,158.679 308.856,158.254 L288.835,145.707 C288.155,145.281 287.278,145.496 286.867,146 L309.583,160.236 Z" id="Path" fill="#CFCFCF"></path>
            <path d="M284.674,148.094 L284.306,147.858 C283.753,147.505 282.97,147.283 282.646,147.888 L277.836,156.888 C277.513,157.493 277.855,158.541 278.408,158.894 L278.776,159.129 L284.674,148.094 Z" id="Path" fill="#CFCFCF"></path>
            <polygon id="Path" fill="#E3E4E7" points="298.002 155.891 292.017 166.751 281.779 160.402 287.765 149.541"></polygon>
            <polygon id="Path" fill="#BDBEC2" points="290.162 161.331 289.48 162.729 282.797 158.046 283.478 156.649"></polygon>
            <polygon id="Path" fill="#BDBEC2" points="291.179 159.301 290.498 160.698 283.814 156.015 284.496 154.618"></polygon>
            <polygon id="Path" fill="#BDBEC2" points="292.197 157.27 291.515 158.667 284.832 153.984 285.514 152.587"></polygon>
            <polygon id="Path" fill="#BDBEC2" points="294.232 155.239 293.551 156.636 286.867 151.954 287.549 150.557"></polygon>
            <path d="M304.297,160.098 L298.986,169.898 C298.803,170.236 298.397,170.351 298.084,170.153 L294.313,167.775 C294,167.578 293.893,167.139 294.076,166.801 L299.387,157.001 C299.57,156.663 299.976,156.548 300.29,156.746 L304.06,159.124 C304.374,159.321 304.48,159.76 304.297,160.098" id="Path" fill="#5A5A5C"></path>
            <path d="M301.268,158.68 L303.43,160.061 C303.43,160.061 303.671,159.927 303.38,160.472 C303.089,161.015 298.057,170.421 298.057,170.421 C298.057,170.421 303.195,160.69 301.268,158.68" id="Path" fill="#3E3F41"></path>
            <polygon id="Path" fill="#BDBEC2" points="245.937 137.888 245.434 139.087 241.09 137.266 241.593 136.068"></polygon>
            <polygon id="Path" fill="#BDBEC2" points="247.971 133.826 247.468 135.025 243.125 133.205 243.627 132.006"></polygon>
            <polygon id="Path" fill="#BDBEC2" points="248.987 131.796 248.483 132.994 244.141 131.174 244.643 129.975"></polygon>
            <polygon id="Path" fill="#F2F3F5" points="271.271 109.251 263.554 127.624 245.158 119.916 252.876 101.543"></polygon>
            <polyline id="Path" fill="#E5E9EC" points="271.168 109.034 253.297 101.543 263.671 126.88"></polyline>
            <path d="M245.959,119.062 L263.715,126.502 L271.165,108.768 L253.409,101.327 L245.959,119.062 Z M271.938,108.717 L264.221,127.089 C264.146,127.266 263.943,127.349 263.766,127.275 L245.371,119.566 C245.194,119.493 245.111,119.289 245.186,119.113 L252.903,100.74 C252.977,100.564 253.181,100.481 253.357,100.555 L271.753,108.263 C271.929,108.337 272.012,108.54 271.938,108.717 L271.938,108.717 Z" id="Shape" fill="#5B5B5D"></path>
            <polygon id="Path" fill="#5A5A5C" points="252.139 111.4 249.229 118.329 256.966 121.571 258.049 118.995 260.628 120.075 261.349 118.358 263.928 119.439 265.035 116.804 266.093 114.287 263.514 113.206 264.596 110.63 262.016 109.549 262.738 107.832 255 104.589"></polygon>
            <polygon id="Path" fill="#3F4243" points="249.229 118.274 249.229 118.274 254.977 104.589"></polygon>
            <polygon id="Path" fill="#3F4243" points="257.365 122.397 257.365 122.397 258.447 119.821"></polygon>
            <polygon id="Path" fill="#3F4243" points="262.451 110.368 262.451 110.368 263.173 108.651"></polygon>
            <polygon id="Path" fill="#3F4243" points="260.418 120.523 261.278 120.883 261.999 119.165 261.14 118.806"></polygon>
            <polygon id="Path" fill="#3F4243" points="263.469 119.896 264.329 120.256 266.493 115.104 265.633 114.744"></polygon>
            <polygon id="Path" fill="#3F4243" points="262.451 113.258 263.311 113.619 264.393 111.043 263.533 110.682"></polygon>
            <polygon id="Path" fill="#BDBEC2" points="256.109 113.518 255.605 114.716 251.262 112.896 251.765 111.698"></polygon>
            <polygon id="Path" fill="#BDBEC2" points="255.09 115.549 254.587 116.747 250.244 114.927 250.746 113.728"></polygon>
            <polygon id="Path" fill="#BDBEC2" points="257.126 111.487 256.623 112.685 252.279 110.865 252.783 109.667"></polygon>
            <polygon id="Path" fill="#BDBEC2" points="258.143 109.456 257.64 110.655 253.297 108.834 253.799 107.636"></polygon>
            <path d="M585.09,195.874 L439.436,195.874 C436.731,195.874 434.518,193.664 434.518,190.962 L434.518,189.893 C434.518,187.191 436.731,184.981 439.436,184.981 L585.09,184.981 C587.795,184.981 590.008,187.191 590.008,189.893 L590.008,190.962 C590.008,193.664 587.795,195.874 585.09,195.874" id="Path" fill="#D5DAE2"></path>
            <path d="M577.117,188.817 L446.816,188.817 C443.195,188.817 440.232,185.858 440.232,182.242 L440.232,54.8303 C440.232,51.2138 443.195,48.2551 446.816,48.2551 L577.117,48.2551 C580.738,48.2551 583.7,51.2138 583.7,54.8303 L583.7,182.242 C583.7,185.858 580.738,188.817 577.117,188.817" id="Path" fill="#444444"></path>
            <path d="M486.246,176.924 L459.478,176.924 C455.539,176.924 452.316,173.705 452.316,169.772 L452.316,48.0967 C452.316,44.1626 455.539,40.9436 459.478,40.9436 L486.246,40.9436 C490.185,40.9436 493.407,44.1626 493.407,48.0967 L493.407,169.772 C493.407,173.705 490.185,176.924 486.246,176.924" id="Path" fill="#232323"></path>
            <polygon id="Path" fill="#6F7B84" points="503.881 94.4543 569.057 94.4543 569.057 61.2952 503.881 61.2952"></polygon>
            <polygon id="Path" fill="#626E78" points="528.717 61.4862 561.057 94.7606 569.47 94.7606 569.47 61.2946"></polygon>
            <path d="M518.691,112.315 C518.691,115.645 515.988,118.345 512.654,118.345 C509.32,118.345 506.617,115.645 506.617,112.315 C506.617,108.985 509.32,106.285 512.654,106.285 C515.988,106.285 518.691,108.985 518.691,112.315" id="Path" fill="#232323"></path>
            <path d="M542.507,112.315 C542.507,115.645 539.804,118.345 536.47,118.345 C533.136,118.345 530.434,115.645 530.434,112.315 C530.434,108.985 533.136,106.285 536.47,106.285 C539.804,106.285 542.507,108.985 542.507,112.315" id="Path" fill="#232323"></path>
            <path d="M566.322,112.315 C566.322,115.645 563.619,118.345 560.285,118.345 C556.95,118.345 554.248,115.645 554.248,112.315 C554.248,108.985 556.95,106.285 560.285,106.285 C563.619,106.285 566.322,108.985 566.322,112.315" id="Path" fill="#232323"></path>
            <path d="M518.691,132.129 C518.691,135.459 515.988,138.159 512.654,138.159 C509.32,138.159 506.617,135.459 506.617,132.129 C506.617,128.799 509.32,126.099 512.654,126.099 C515.988,126.099 518.691,128.799 518.691,132.129" id="Path" fill="#232323"></path>
            <path d="M542.507,132.129 C542.507,135.459 539.804,138.159 536.47,138.159 C533.136,138.159 530.434,135.459 530.434,132.129 C530.434,128.799 533.136,126.099 536.47,126.099 C539.804,126.099 542.507,128.799 542.507,132.129" id="Path" fill="#232323"></path>
            <path d="M566.322,132.129 C566.322,135.459 563.619,138.159 560.285,138.159 C556.95,138.159 554.248,135.459 554.248,132.129 C554.248,128.799 556.95,126.099 560.285,126.099 C563.619,126.099 566.322,128.799 566.322,132.129" id="Path" fill="#232323"></path>
            <path d="M518.691,151.943 C518.691,155.274 515.988,157.973 512.654,157.973 C509.32,157.973 506.617,155.274 506.617,151.943 C506.617,148.613 509.32,145.914 512.654,145.914 C515.988,145.914 518.691,148.613 518.691,151.943" id="Path" fill="#232323"></path>
            <path d="M542.507,151.943 C542.507,155.274 539.804,157.973 536.47,157.973 C533.136,157.973 530.434,155.274 530.434,151.943 C530.434,148.613 533.136,145.914 536.47,145.914 C539.804,145.914 542.507,148.613 542.507,151.943" id="Path" fill="#232323"></path>
            <path d="M566.322,151.943 C566.322,155.274 563.619,157.973 560.285,157.973 C556.95,157.973 554.248,155.274 554.248,151.943 C554.248,148.613 556.95,145.914 560.285,145.914 C563.619,145.914 566.322,148.613 566.322,151.943" id="Path" fill="#232323"></path>
            <path d="M446.554,87.4029 C427.758,82.5649 410.061,94.7475 394.294,105.614 C384.002,112.706 374.282,119.406 365.465,120.818 C342.75,124.457 331.701,113.34 331.209,112.83 C329.961,111.516 327.88,111.458 326.559,112.699 C325.233,113.945 325.17,116.029 326.417,117.354 C326.965,117.934 340.135,131.545 366.509,127.319 C376.799,125.672 387.116,118.561 398.039,111.033 C412.724,100.912 427.854,90.4965 443.198,93.4046 L446.554,87.4029 Z" id="Path" fill="#444444"></path>
            <path d="M339.754,278.712 C325.691,265.335 326.644,243.871 327.504,224.742 C328.065,212.256 328.596,200.462 325.122,192.237 C316.17,171.045 300.887,167.566 300.194,167.419 C298.419,167.057 297.267,165.322 297.619,163.545 C297.973,161.76 299.706,160.602 301.491,160.958 C302.274,161.115 320.796,165.071 331.188,189.677 C335.244,199.276 334.681,211.793 334.085,225.046 C333.283,242.864 332.468,261.213 343.066,272.685 L339.754,278.712 Z" id="Path" fill="#444444"></path>
            <path d="M369.178,318.929 L232.618,318.929 C230.464,318.929 228.701,317.145 228.701,314.965 L228.701,314.965 C228.701,312.785 230.464,311.001 232.618,311.001 L369.178,311.001 C371.332,311.001 373.095,312.785 373.095,314.965 L373.095,314.965 C373.095,317.145 371.332,318.929 369.178,318.929" id="Path" fill="#D5DAE2"></path>
            <path d="M230.908,307.545 L230.908,309.933 C230.908,312.535 232.292,314.539 233.77,314.539 L254.951,314.539 C256.429,314.539 257.174,312.535 257.174,309.933 L257.174,307.545 L230.908,307.545 Z" id="Path" fill="#2D2B2C"></path>
            <path d="M344.729,307.545 L344.729,309.933 C344.729,312.535 345.94,314.539 347.418,314.539 L368.598,314.539 C370.076,314.539 370.995,312.535 370.995,309.933 L370.995,307.545 L344.729,307.545 Z" id="Path" fill="#2D2B2C"></path>
            <path d="M368.615,275.336 L364.988,275.336 C364.518,275.336 364.133,274.946 364.133,274.47 L364.133,209.627 C364.133,209.151 364.518,208.762 364.988,208.762 L368.615,208.762 C369.086,208.762 369.47,209.151 369.47,209.627 L369.47,274.47 C369.47,274.946 369.086,275.336 368.615,275.336" id="Path" fill="#2D2B2C"></path>
            <path d="M373.035,308.018 L228.758,308.018 C224.275,308.018 220.607,304.306 220.607,299.769 L220.607,268.615 C220.607,264.078 224.275,260.367 228.758,260.367 L373.035,260.367 C377.518,260.367 381.186,264.078 381.186,268.615 L381.186,299.769 C381.186,304.306 377.518,308.018 373.035,308.018" id="Path" fill="#645E5E"></path>
            <path d="M366.193,296.576 L235.6,296.576 C232.989,296.576 230.854,294.415 230.854,291.773 L230.854,276.612 C230.854,273.97 232.989,271.809 235.6,271.809 L366.193,271.809 C368.804,271.809 370.94,273.97 370.94,276.612 L370.94,291.773 C370.94,294.415 368.804,296.576 366.193,296.576" id="Path" fill="#7C7777"></path>
            <path d="M245.317,287.269 C243.883,288.719 241.559,288.719 240.126,287.269 C238.693,285.818 238.693,283.466 240.126,282.016 C241.559,280.566 243.883,280.566 245.317,282.016 C246.75,283.466 246.75,285.818 245.317,287.269" id="Path" fill="#00D400"></path>
            <path d="M258.779,287.865 C257.046,288.878 254.829,288.277 253.828,286.523 C252.827,284.768 253.421,282.525 255.155,281.512 C256.888,280.499 259.105,281.101 260.106,282.855 C261.107,284.609 260.513,286.852 258.779,287.865" id="Path" fill="#00B9FA"></path>
            <path d="M273.047,287.859 C271.292,288.885 269.047,288.276 268.033,286.499 C267.02,284.723 267.621,282.451 269.377,281.426 C271.132,280.4 273.377,281.009 274.391,282.785 C275.404,284.562 274.803,286.833 273.047,287.859" id="Path" fill="#00B9FA"></path>
            <path d="M259.786,165.975 C261.096,168.342 262.11,170.173 263.361,172.432 C253.225,172.371 245.563,168.257 239.509,160.377 C240.855,170.979 250.539,178.789 265.891,181.808 C265.991,183.976 266.094,186.213 266.224,189.018 C268.931,185.993 271.319,183.338 273.693,180.67 C276.021,178.052 278.336,175.421 280.837,172.593 C273.828,170.39 267.149,168.29 259.786,165.975 Z" id="Path" fill="#00C0D2"></path>
            <path d="M282.599,93.7542 C284.868,92.2794 286.623,91.1385 288.787,89.7314 C279.809,85.027 271.113,85.0627 262.068,89.1775 C268.233,80.4486 280.451,78.0991 295.423,82.6407 C296.529,80.7737 297.67,78.8472 299.101,76.4312 C300.072,80.3732 300.934,83.8382 301.777,87.3082 C302.604,90.7128 303.413,94.1223 304.293,97.7936 C297.071,96.4486 290.187,95.1674 282.599,93.7542 Z" id="Path" fill="#00C0D2"></path>
            <path d="M47.3284,59.4308 C49.7867,66.3539 52.1289,72.9524 54.7118,80.226 C55.8135,77.7543 56.6658,75.8425 57.717,73.4844 C63.768,81.6164 65.0931,90.2112 62.4439,99.7879 C70.1009,92.3335 70.5102,79.8987 63.6823,65.8209 C65.3533,64.4366 67.0776,63.0082 69.24,61.2169 C65.1947,60.8752 61.6375,60.5658 58.0783,60.2756 C54.5863,59.9914 51.0923,59.7259 47.3284,59.4308 Z" id="Path" fill="#00C0D2"></path>
        </g>
    </g>
</svg>