<?xml version="1.0" encoding="UTF-8"?>
<svg width="591px" height="329px" viewBox="0 0 591 329" version="1.1" xmlns="http://www.w3.org/2000/svg" xmlns:xlink="http://www.w3.org/1999/xlink">
    <title>modemremovecable</title>
    <g id="Page-1" stroke="none" stroke-width="1" fill="none" fill-rule="evenodd">
        <g id="modemremovecable" transform="translate(35.000000, 44.000000)">
            <path d="M516.006,130.997 L433.525,130.997 C431.29,130.997 429.461,129.172 429.461,126.941 L429.461,8.2552 C429.461,6.025 431.29,4.2002 433.525,4.2002 L516.006,4.2002 C518.242,4.2002 520.072,6.025 520.072,8.2552 L520.072,126.941 C520.072,129.172 518.242,130.997 516.006,130.997 Z" id="Path" fill="#E6E6E6"></path>
            <path d="M431.183,4.8809 C430.318,5.4313 429.453,6.4304 429.453,8.2552 L429.453,127.169 C429.453,127.169 429.453,129.155 431.183,130.175 L431.183,4.8809 Z" id="Path" fill="#CFCFCF"></path>
            <path d="M487.882,82.0842 L461.627,82.0842 C460.861,82.0842 460.235,81.4595 460.235,80.696 L460.235,54.5014 C460.235,53.7378 460.861,53.1123 461.627,53.1123 L487.882,53.1123 C488.647,53.1123 489.273,53.7378 489.273,54.5014 L489.273,80.696 C489.273,81.4595 488.647,82.0842 487.882,82.0842 Z" id="Path" fill="#F2F3F5"></path>
            <polyline id="Path" fill="#E5E9EC" points="488.747 81.4649 488.75 53.3179 460.54 81.4649"></polyline>
            <path d="M461.627,53.6161 C461.138,53.6161 460.741,54.013 460.741,54.5005 L460.741,80.6951 C460.741,81.1834 461.138,81.5803 461.627,81.5803 L487.882,81.5803 C488.371,81.5803 488.769,81.1834 488.769,80.6951 L488.769,54.5005 C488.769,54.013 488.371,53.6161 487.882,53.6161 L461.627,53.6161 Z M487.882,82.588 L461.627,82.588 C460.581,82.588 459.73,81.739 459.73,80.6951 L459.73,54.5005 C459.73,53.4574 460.581,52.6084 461.627,52.6084 L487.882,52.6084 C488.928,52.6084 489.779,53.4574 489.779,54.5005 L489.779,80.6951 C489.779,81.739 488.928,82.588 487.882,82.588 Z" id="Shape" fill="#5B5B5D"></path>
            <polygon id="Path" fill="#5A5A5C" points="474.739 57.9614 464.045 57.9614 464.045 70.903 467.504 70.903 467.504 74.3541 470.963 74.3541 470.963 78.668 474.739 78.668 478.746 78.668 478.746 74.3541 482.205 74.3541 482.205 70.903 485.664 70.903 485.664 57.9614"></polygon>
            <polygon id="Path" fill="#3F4243" points="464.045 58.8237 485.664 58.8237 485.664 57.9609 464.045 57.9609"></polygon>
            <polygon id="Path" fill="#3F4243" points="464.045 70.9028 467.504 70.9028 467.504 70.04 464.045 70.04"></polygon>
            <polygon id="Path" fill="#3F4243" points="482.205 70.9028 485.664 70.9028 485.664 70.04 482.205 70.04"></polygon>
            <polygon id="Path" fill="#3F4243" points="467.504 74.3535 470.963 74.3535 470.963 73.4907 467.504 73.4907"></polygon>
            <polygon id="Path" fill="#3F4243" points="470.963 78.6675 478.746 78.6675 478.746 77.8047 470.963 77.8047"></polygon>
            <polygon id="Path" fill="#3F4243" points="478.746 74.3535 482.205 74.3535 482.205 73.4907 478.746 73.4907"></polygon>
            <polygon id="Path" fill="#BDBEC2" points="472.298 64.6457 474.192 64.6457 474.192 57.8057 472.298 57.8057"></polygon>
            <path d="M431.963,230.632 C424.181,230.632 416.701,228.388 409.404,223.898 C401.443,219 392.129,206.735 382.27,193.751 C372.563,180.966 360.481,165.055 354.532,164.501 C352.391,164.301 350.819,162.409 351.019,160.274 C351.219,158.139 353.109,156.562 355.256,156.77 C363.986,157.582 373.629,169.512 388.474,189.061 C397.468,200.905 406.767,213.153 413.49,217.29 C425.42,224.631 437.55,224.718 451.664,217.565 C454.998,215.875 458.643,212.363 461.918,208.046 C463.555,205.888 465.1,203.528 466.466,201.094 C484.087,176.161 452.091,161.494 434.926,151.57 C433.093,150.364 431.024,148.983 428.838,147.469 C417.904,139.898 404.036,128.995 401.333,120.788 C397.988,110.632 399.291,88.8418 399.348,87.9195 C399.48,85.7789 401.32,84.1483 403.471,84.2837 C405.615,84.4149 407.247,86.2569 407.116,88.3974 C406.754,94.272 406.338,111.107 408.727,118.364 C410.207,122.857 418.981,130.756 429.625,138.495 C432.286,140.43 435.061,142.355 437.858,144.226 C457.279,155.455 491.005,170.985 476.563,198.252 C475.613,200.536 474.488,202.807 473.234,205.005 C468.222,213.8 461.197,221.441 455.188,224.487 C447.107,228.583 439.398,230.632 431.963,230.632 Z" id="Path" fill="#8B8C8D"></path>
            <path d="M406.838,99.374 C406.818,94.84 406.97,90.7433 407.115,88.3966 C407.247,86.2569 405.615,84.4149 403.47,84.2837 C401.319,84.1483 399.479,85.7789 399.346,87.9195 C399.32,88.3457 399.028,93.238 399.052,99.374 L406.838,99.374 Z" id="Path" fill="#3E3F41"></path>
            <path d="M414.982,97.208 L392.133,97.208 C390.911,97.208 389.91,96.209 389.91,94.989 L389.91,62.4585 C389.91,61.2394 390.911,60.2412 392.133,60.2412 L414.982,60.2412 C416.205,60.2412 417.206,61.2394 417.206,62.4585 L417.206,94.989 C417.206,96.209 416.205,97.208 414.982,97.208 Z" id="Path" fill="#F2F3F5"></path>
            <path d="M391.556,60.27 C390.691,60.4348 389.826,61.3545 389.826,62.4589 L389.826,94.99 C389.826,96.094 390.691,97.014 391.556,97.179 L391.556,60.27 Z" id="Path" fill="#CFCFCF"></path>
            <path d="M415.77,97.179 C416.634,97.014 417.499,96.094 417.499,94.99 L417.499,62.4589 C417.499,61.3545 416.634,60.4348 415.77,60.27 L415.77,97.179 Z" id="Path" fill="#CFCFCF"></path>
            <path d="M411.446,60.5497 L411.446,59.5947 C411.446,58.6965 411.137,57.9614 410.236,57.9614 L396.836,57.9614 C395.936,57.9614 395.016,58.6965 395.016,59.5947 L395.016,60.5497 L411.446,60.5497 Z" id="Path" fill="#CFCFCF"></path>
            <polygon id="Path" fill="#E3E4E7" points="395.221 80.8197 411.894 80.8197 411.894 64.1846 395.221 64.1846"></polygon>
            <polygon id="Path" fill="#8D8F90" points="397.041 75.5049 399.403 75.5049 399.403 64.1836 397.041 64.1836"></polygon>
            <polygon id="Path" fill="#BDBEC2" points="397.502 75.5048 399.401 75.5048 399.401 64.646 397.502 64.646"></polygon>
            <polygon id="Path" fill="#8D8F90" points="400.6 75.5049 402.961 75.5049 402.961 64.1836 400.6 64.1836"></polygon>
            <polygon id="Path" fill="#BDBEC2" points="401.061 75.5048 402.96 75.5048 402.96 64.646 401.061 64.646"></polygon>
            <polygon id="Path" fill="#8D8F90" points="404.158 75.5049 406.52 75.5049 406.52 64.1836 404.158 64.1836"></polygon>
            <polygon id="Path" fill="#BDBEC2" points="404.619 75.5048 406.518 75.5048 406.518 64.646 404.619 64.646"></polygon>
            <polygon id="Path" fill="#8D8F90" points="407.715 75.5049 410.077 75.5049 410.077 64.1836 407.715 64.1836"></polygon>
            <polygon id="Path" fill="#BDBEC2" points="408.178 75.5048 410.077 75.5048 410.077 64.646 408.178 64.646"></polygon>
            <path d="M410.955,91.9399 L396.141,91.9399 C395.636,91.9399 395.223,91.5274 395.223,91.0236 L395.223,84.8772 C395.223,84.3733 395.636,83.9609 396.141,83.9609 L410.955,83.9609 C411.46,83.9609 411.873,84.3733 411.873,84.8772 L411.873,91.0236 C411.873,91.5274 411.46,91.9399 410.955,91.9399 Z" id="Path" fill="#5A5A5C"></path>
            <path d="M411.445,87.5347 L411.445,91.0462 C411.445,91.0462 411.764,91.6095 410.954,91.6095 L396.125,91.6095 C396.125,91.6095 410.58,91.1695 411.445,87.5347 Z" id="Path" fill="#3E3F41"></path>
            <path d="M355.916,156.777 C351.531,155.623 347.613,154.416 345.384,153.668 C343.351,152.987 341.15,154.087 340.468,156.124 C339.78,158.167 340.879,160.367 342.912,161.049 C343.317,161.184 347.967,162.733 353.901,164.298 L355.916,156.777 Z" id="Path" fill="#3E3F41"></path>
            <path d="M355.932,148.348 L350.019,170.419 C349.702,171.6 348.479,172.308 347.3,171.992 L315.878,163.572 C314.701,163.257 313.995,162.032 314.312,160.851 L320.226,138.781 C320.542,137.599 321.765,136.891 322.943,137.207 L354.365,145.626 C355.543,145.942 356.249,147.167 355.932,148.348 Z" id="Path" fill="#F2F3F5"></path>
            <path d="M314.19,161.417 C314.125,162.295 314.79,163.369 315.856,163.654 L347.279,172.074 C348.346,172.36 349.458,171.763 349.841,170.97 L314.19,161.417 Z" id="Path" fill="#CFCFCF"></path>
            <path d="M356.108,147.581 C356.173,146.703 355.508,145.63 354.441,145.344 L323.019,136.925 C321.952,136.639 320.84,137.236 320.457,138.029 L356.108,147.581 Z" id="Path" fill="#CFCFCF"></path>
            <path d="M319.608,142.278 L318.686,142.03 C317.818,141.798 317.028,141.907 316.795,142.776 L313.327,155.72 C313.094,156.59 313.566,157.669 314.433,157.901 L315.356,158.148 L319.608,142.278 Z" id="Path" fill="#CFCFCF"></path>
            <polygon id="Path" fill="#E3E4E7" points="334.988 163.195 339.304 147.089 323.235 142.784 318.92 158.889"></polygon>
            <polygon id="Path" fill="#8D8F90" points="330.324 160.062 330.935 157.781 320 154.851 319.389 157.132"></polygon>
            <polygon id="Path" fill="#BDBEC2" points="330.444 159.616 330.935 157.781 320.447 154.971 319.955 156.805"></polygon>
            <polygon id="Path" fill="#8D8F90" points="331.246 156.625 331.857 154.344 320.922 151.414 320.311 153.695"></polygon>
            <polygon id="Path" fill="#BDBEC2" points="331.366 156.179 331.857 154.344 321.368 151.534 320.877 153.368"></polygon>
            <polygon id="Path" fill="#8D8F90" points="332.166 153.188 332.777 150.907 321.842 147.977 321.23 150.258"></polygon>
            <polygon id="Path" fill="#BDBEC2" points="332.286 152.741 332.777 150.907 322.288 148.096 321.797 149.931"></polygon>
            <polygon id="Path" fill="#8D8F90" points="333.088 149.751 333.699 147.47 322.764 144.54 322.152 146.821"></polygon>
            <polygon id="Path" fill="#BDBEC2" points="333.208 149.304 333.699 147.47 323.21 144.659 322.719 146.494"></polygon>
            <path d="M349.8,150.877 L345.966,165.185 C345.836,165.673 345.33,165.966 344.843,165.835 L338.907,164.244 C338.42,164.114 338.128,163.608 338.259,163.12 L342.093,148.811 C342.224,148.324 342.729,148.031 343.216,148.162 L349.153,149.752 C349.64,149.883 349.931,150.389 349.8,150.877 Z" id="Path" fill="#5A5A5C"></path>
            <path d="M345.672,149.262 L349.064,150.171 C349.064,150.171 349.691,150.008 349.481,150.791 L345.643,165.115 C345.643,165.115 348.959,151.038 345.672,149.262 Z" id="Path" fill="#3E3F41"></path>
            <polygon id="Path" fill="#BDBEC2" points="469.184 64.6457 471.077 64.6457 471.077 57.8057 469.184 57.8057"></polygon>
            <polygon id="Path" fill="#BDBEC2" points="475.411 64.6457 477.305 64.6457 477.305 57.8057 475.411 57.8057"></polygon>
            <polygon id="Path" fill="#BDBEC2" points="478.525 64.6457 480.419 64.6457 480.419 57.8057 478.525 57.8057"></polygon>
            <path d="M352.496,16.8107 C360.868,21.739 368.847,26.436 377.643,31.6133 C376.654,28.181 375.89,25.5253 374.947,22.2501 C387.979,25.3644 396.627,32.9414 402.095,44.8732 C403.493,30.8549 393.331,17.9255 374.458,9.4512 C374.969,6.6374 375.497,3.7347 376.159,0.09386 C371.78,3.1676 367.922,5.8619 364.078,8.5777 C360.307,11.2422 356.551,13.9275 352.496,16.8107 Z" id="Path" fill="#00C0D2"></path>
            <path d="M367.964,219.8 C361.652,212.414 355.637,205.375 349.005,197.616 C348.823,201.184 348.681,203.944 348.506,207.347 C337.199,200.16 331.488,190.18 330.203,177.118 C324.317,189.918 329.716,205.451 344.801,219.608 C343.402,222.102 341.958,224.675 340.147,227.902 C345.288,226.421 349.813,225.13 354.331,223.813 C358.765,222.522 363.191,221.206 367.964,219.8 Z" id="Path" fill="#00C0D2"></path>
            <path d="M278.81,222.75 L22.538,222.75 C18.4952,222.75 15.1875,219.45 15.1875,215.417 C15.1875,211.383 18.4952,208.083 22.538,208.083 L278.81,208.083 C282.853,208.083 286.161,211.383 286.161,215.417 C286.161,219.45 282.853,222.75 278.81,222.75 Z" id="Path" fill="#D5DAE2"></path>
            <path d="M19.6152,202.044 L19.6152,206.107 C19.6152,210.92 21.9268,214.986 24.7009,214.986 L64.4484,214.986 C67.2226,214.986 68.9071,210.92 68.9071,206.107 L68.9071,202.044 L19.6152,202.044 Z" id="Path" fill="#2D2B2C"></path>
            <path d="M233.213,202.044 L233.213,206.107 C233.213,210.92 235.2,214.986 237.974,214.986 L277.722,214.986 C280.496,214.986 282.505,210.92 282.505,206.107 L282.505,202.044 L233.213,202.044 Z" id="Path" fill="#2D2B2C"></path>
            <path d="M277.757,142.094 L270.951,142.094 C270.068,142.094 269.346,141.374 269.346,140.493 L269.346,20.5193 C269.346,19.6384 270.068,18.918 270.951,18.918 L277.757,18.918 C278.64,18.918 279.362,19.6384 279.362,20.5193 L279.362,140.493 C279.362,141.374 278.64,142.094 277.757,142.094 Z" id="Path" fill="#2D2B2C"></path>
            <path d="M286.646,202.563 L14.7011,202.563 C6.61549,202.563 0,195.963 0,187.896 L0,129.065 C0,120.998 6.61549,114.398 14.7011,114.398 L286.646,114.398 C294.732,114.398 301.347,120.998 301.347,129.065 L301.347,187.896 C301.347,195.963 294.732,202.563 286.646,202.563 Z" id="Path" fill="#645E5E"></path>
            <path d="M273.211,181.393 L28.1365,181.393 C23.2367,181.393 19.2285,177.394 19.2285,172.506 L19.2285,144.455 C19.2285,139.568 23.2367,135.569 28.1365,135.569 L273.211,135.569 C278.11,135.569 282.119,139.568 282.119,144.455 L282.119,172.506 C282.119,177.394 278.11,181.393 273.211,181.393 Z" id="Path" fill="#7C7777"></path>
            <path d="M46.372,164.173 C43.6817,166.857 39.3207,166.857 36.6304,164.173 C33.9409,161.489 33.9409,157.138 36.6304,154.454 C39.3207,151.771 43.6817,151.771 46.372,154.454 C49.0623,157.138 49.0623,161.489 46.372,164.173 Z" id="Path" fill="#00D400"></path>
            <path d="M71.634,165.277 C68.3808,167.15 64.2204,166.038 62.3421,162.793 C60.4638,159.547 61.5785,155.396 64.8318,153.522 C68.085,151.648 72.2454,152.76 74.1237,156.006 C76.002,159.252 74.8873,163.403 71.634,165.277 Z" id="Path" fill="#00B9FA"></path>
            <path d="M98.4094,165.265 C95.1147,167.163 90.9024,166.036 88.9999,162.749 C87.0983,159.463 88.2268,155.259 91.5216,153.362 C94.8155,151.464 99.0286,152.59 100.931,155.877 C102.833,159.164 101.704,163.367 98.4094,165.265 Z" id="Path" fill="#00B9FA"></path>
        </g>
    </g>
</svg>