<?xml version="1.0" encoding="UTF-8"?>
<svg width="479px" height="237px" viewBox="0 0 479 237" version="1.1" xmlns="http://www.w3.org/2000/svg" xmlns:xlink="http://www.w3.org/1999/xlink">
    <!-- Generator: Sketch 46.2 (44496) - http://www.bohemiancoding.com/sketch -->
    <title>Page 1</title>
    <desc>Created with Sketch.</desc>
    <defs>
        <polygon id="path-1" points="0.4643 0.747 12.0473 0.747 12.0473 143.5155 0.4643 143.5155 0.4643 0.747"></polygon>
    </defs>
    <g id="Page-1" stroke="none" stroke-width="1" fill="none" fill-rule="evenodd">
        <g id="ts_internet_intermitente_reconectar_cabo_de_rede_teste" transform="translate(-125.000000, -507.000000)">
            <g id="Page-1" transform="translate(125.000000, 506.000000)">
                <path d="M416.3768,226.3466 C407.4568,225.1566 399.2268,221.4336 391.5518,215.1586 C383.1768,208.3126 374.3828,192.7976 365.0728,176.3716 C355.9148,160.2146 344.5198,140.1106 337.7828,138.5296 C336.1918,138.1566 334.8168,137.0796 334.4258,135.4936 C333.5148,131.7936 336.6308,129.0206 339.7778,129.7526 C349.6608,132.0226 358.8848,147.2036 372.9028,171.9346 C381.3948,186.9166 390.1768,202.4096 397.2478,208.1916 C409.7968,218.4506 423.6878,220.4066 440.9608,214.3466 C445.0428,212.9146 449.7588,209.4386 454.1738,204.9806 C456.3818,202.7506 458.5138,200.2766 460.4528,197.6896 C484.4748,171.7406 450.0478,149.9946 431.8948,135.9676 C429.9788,134.3026 427.8188,132.3986 425.5448,130.3256 C414.1738,119.9536 399.9498,105.3056 398.1098,95.4626 C395.8338,83.2846 400.6668,58.4506 400.8738,57.3986 C401.3538,54.9596 403.7128,53.3676 406.1578,53.8526 C408.5958,54.3316 410.1838,56.6976 409.7048,59.1356 C408.3888,65.8296 405.3308,85.1076 406.9568,93.8106 C407.9638,99.1986 416.8108,109.6166 427.8238,120.1356 C430.5768,122.7656 433.4628,125.4016 436.3818,127.9786 C456.9218,143.8506 493.1978,166.8516 472.4618,195.9676 C471.0238,198.4476 469.3848,200.8836 467.6118,203.2176 C460.5178,212.5536 451.2938,220.2586 443.9398,222.8386 C434.0488,226.3086 424.8978,227.4836 416.3768,226.3466" id="Fill-1" fill="#00B9FA"></path>
                <path d="M407.909,68.0692 C408.581,62.8562 409.384,58.1732 409.91,55.5002 C410.389,53.0612 408.801,50.6962 406.363,50.2162 C403.918,49.7312 401.559,51.3242 401.079,53.7622 C400.983,54.2492 399.899,59.8242 398.985,66.8782 L407.909,68.0692 Z" id="Fill-3" fill="#3E3F41"></path>
                <path d="M417.5785,66.8261 L391.3885,63.3311 C389.9875,63.1431 388.9935,61.8441 389.1805,60.4421 L394.1685,23.0691 C394.3555,21.6681 395.6555,20.6741 397.0565,20.8611 L423.2465,24.3561 C424.6475,24.5431 425.6415,25.8431 425.4545,27.2441 L420.4665,64.6181 C420.2795,66.0191 418.9795,67.0131 417.5785,66.8261" id="Fill-5" fill="#F2F3F5"></path>
                <path d="M396.389,20.8056 C395.372,20.8626 394.241,21.7866 394.071,23.0566 L389.083,60.4296 C388.914,61.6986 389.764,62.8876 390.73,63.2086 L396.389,20.8056 Z" id="Fill-7" fill="#CFCFCF"></path>
                <path d="M418.4837,66.913 C419.5007,66.856 420.6327,65.932 420.8017,64.663 L425.7897,27.289 C425.9597,26.02 425.1087,24.831 424.1427,24.51 L418.4837,66.913 Z" id="Fill-9" fill="#CFCFCF"></path>
                <path d="M419.1439,24.1698 L419.2899,23.0718 C419.4279,22.0408 419.1859,21.1488 418.1549,21.0108 L402.7939,18.9608 C401.7629,18.8228 400.5949,19.5268 400.4569,20.5588 L400.3109,21.6558 L419.1439,24.1698 Z" id="Fill-11" fill="#CFCFCF"></path>
                <polygon id="Fill-13" fill="#E3E4E7" points="416.5521 47.5253 397.4411 44.9743 399.9911 25.8633 419.1021 28.4143"></polygon>
                <polygon id="Fill-15" fill="#8D8F90" points="403.0462 39.5087 400.3392 39.1477 402.0752 26.1417 404.7822 26.5027"></polygon>
                <polygon id="Fill-17" fill="#BDBEC2" points="403.0462 39.5087 400.8702 39.2187 402.5352 26.7427 404.7112 27.0337"></polygon>
                <polygon id="Fill-19" fill="#8D8F90" points="407.1253 40.0536 404.4173 39.6926 406.1533 26.6856 408.8613 27.0466"></polygon>
                <polygon id="Fill-21" fill="#BDBEC2" points="407.1253 40.0536 404.9483 39.7626 406.6133 27.2876 408.7903 27.5776"></polygon>
                <polygon id="Fill-23" fill="#8D8F90" points="411.2044 40.5976 408.4964 40.2366 410.2324 27.2306 412.9394 27.5916"></polygon>
                <polygon id="Fill-25" fill="#BDBEC2" points="411.2044 40.5976 409.0274 40.3076 410.6924 27.8316 412.8694 28.1216"></polygon>
                <polygon id="Fill-27" fill="#8D8F90" points="415.2831 41.1425 412.5751 40.7815 414.3111 27.7745 417.0191 28.1355"></polygon>
                <polygon id="Fill-29" fill="#BDBEC2" points="415.2831 41.1425 413.1061 40.8515 414.7711 28.3755 416.9481 28.6665"></polygon>
                <path d="M413.7679,60.1581 L396.7879,57.8911 C396.2089,57.8141 395.7989,57.2771 395.8759,56.6981 L396.8179,49.6371 C396.8949,49.0581 397.4329,48.6481 398.0109,48.7251 L414.9909,50.9911 C415.5699,51.0681 415.9799,51.6051 415.9029,52.1841 L414.9609,59.2461 C414.8839,59.8241 414.3469,60.2351 413.7679,60.1581" id="Fill-31" fill="#5A5A5C"></path>
                <path d="M415.0067,55.1718 L414.4677,59.2068 C414.4677,59.2068 414.7477,59.9018 413.8187,59.7778 C412.8887,59.6538 396.8207,57.5098 396.8207,57.5098 C396.8207,57.5098 413.4577,59.2158 415.0067,55.1718" id="Fill-33" fill="#3E3F41"></path>
                <path d="M323.8875,237.2528 L27.5395,237.2528 C22.8655,237.2528 19.0405,233.4278 19.0405,228.7528 C19.0405,224.0778 22.8655,220.2538 27.5395,220.2538 L323.8875,220.2538 C328.5625,220.2538 332.3875,224.0778 332.3875,228.7528 C332.3875,233.4278 328.5625,237.2528 323.8875,237.2528" id="Fill-35" fill="#D5DAE2"></path>
                <path d="M22.6829,213.2538 L22.6829,217.9618 C22.6829,223.5408 25.3559,228.2538 28.5639,228.2538 L74.5269,228.2538 C77.7349,228.2538 79.6829,223.5408 79.6829,217.9618 L79.6829,213.2538 L22.6829,213.2538 Z" id="Fill-37" fill="#2D2B2C"></path>
                <path d="M269.683,213.2538 L269.683,217.9618 C269.683,223.5408 271.981,228.2538 275.189,228.2538 L321.152,228.2538 C324.36,228.2538 326.683,223.5408 326.683,217.9618 L326.683,213.2538 L269.683,213.2538 Z" id="Fill-39" fill="#2D2B2C"></path>
                <g id="Group-43" transform="translate(311.000000, 0.253000)">
                    <mask id="mask-2" fill="white">
                        <use xlink:href="#path-1"></use>
                    </mask>
                    <g id="Clip-42"></g>
                    <path d="M10.1913,143.5155 L2.3203,143.5155 C1.2993,143.5155 0.4643,142.6795 0.4643,141.6595 L0.4643,2.6035 C0.4643,1.5825 1.2993,0.7465 2.3203,0.7465 L10.1913,0.7465 C11.2123,0.7465 12.0473,1.5825 12.0473,2.6035 L12.0473,141.6595 C12.0473,142.6795 11.2123,143.5155 10.1913,143.5155" id="Fill-41" fill="#2D2B2C" mask="url(#mask-2)"></path>
                </g>
                <path d="M331.471,213.8554 L17,213.8554 C7.65,213.8554 0,206.2054 0,196.8554 L0,128.6674 C0,119.3174 7.65,111.6674 17,111.6674 L331.471,111.6674 C340.821,111.6674 348.471,119.3174 348.471,128.6674 L348.471,196.8554 C348.471,206.2054 340.821,213.8554 331.471,213.8554" id="Fill-44" fill="#645E5E"></path>
                <path d="M315.9349,189.3183 L32.5369,189.3183 C26.8709,189.3183 22.2359,184.6823 22.2359,179.0163 L22.2359,146.5053 C22.2359,140.8393 26.8709,136.2043 32.5369,136.2043 L315.9349,136.2043 C321.6009,136.2043 326.2359,140.8393 326.2359,146.5053 L326.2359,179.0163 C326.2359,184.6823 321.6009,189.3183 315.9349,189.3183" id="Fill-46" fill="#7C7777"></path>
                <path d="M53.6239,169.3583 C50.5139,172.4683 45.4699,172.4683 42.3589,169.3583 C39.2489,166.2483 39.2489,161.2043 42.3589,158.0933 C45.4699,154.9833 50.5139,154.9833 53.6239,158.0933 C56.7349,161.2043 56.7349,166.2483 53.6239,169.3583" id="Fill-48" fill="#00D400"></path>
                <path d="M82.8367,170.6376 C79.0747,172.8096 74.2637,171.5206 72.0917,167.7586 C69.9197,163.9956 71.2087,159.1856 74.9707,157.0136 C78.7327,154.8406 83.5437,156.1296 85.7157,159.8926 C87.8877,163.6556 86.5987,168.4656 82.8367,170.6376" id="Fill-50" fill="#00B9FA"></path>
                <path d="M113.7991,170.6239 C109.9891,172.8239 105.1171,171.5189 102.9181,167.7089 C100.7181,163.8989 102.0241,159.0269 105.8341,156.8279 C109.6431,154.6289 114.5151,155.9339 116.7151,159.7429 C118.9141,163.5539 117.6091,168.4249 113.7991,170.6239" id="Fill-52" fill="#00B9FA"></path>
            </g>
        </g>
    </g>
</svg>