<?xml version="1.0" encoding="UTF-8"?>
<svg width="592px" height="329px" viewBox="0 0 592 329" version="1.1" xmlns="http://www.w3.org/2000/svg" xmlns:xlink="http://www.w3.org/1999/xlink">
    <title>modemInverter</title>
    <defs>
        <polygon id="path-1" points="0.465 0.5 12.048 0.5 12.048 143.268 0.465 143.268"></polygon>
    </defs>
    <g id="Page-1" stroke="none" stroke-width="1" fill="none" fill-rule="evenodd">
        <g id="modemInverter" transform="translate(20.000000, 21.000000)">
            <path d="M488.981,247.847 C480.061,246.657 471.831,242.934 464.156,236.659 C455.781,229.813 446.987,214.298 437.677,197.872 C428.519,181.715 417.124,161.611 410.387,160.03 C408.796,159.657 407.421,158.58 407.03,156.994 C406.119,153.294 409.235,150.521 412.382,151.253 C422.265,153.523 431.489,168.704 445.507,193.435 C453.999,208.417 462.781,223.91 469.852,229.692 C482.401,239.951 496.292,241.907 513.565,235.847 C517.647,234.415 522.363,230.939 526.778,226.481 C528.986,224.251 531.118,221.777 533.057,219.19 C557.079,193.241 522.652,171.495 504.499,157.468 C502.583,155.803 500.423,153.899 498.149,151.826 C486.778,141.454 472.554,126.806 470.714,116.963 C468.438,104.785 473.271,79.9506 473.478,78.8986 C473.958,76.4596 476.317,74.8676 478.762,75.3526 C481.2,75.8316 482.788,78.1976 482.309,80.6356 C480.993,87.3296 477.935,106.608 479.561,115.311 C480.568,120.699 489.415,131.117 500.428,141.636 C503.181,144.266 506.067,146.902 508.986,149.479 C529.526,165.351 565.802,188.352 545.066,217.468 C543.628,219.948 541.989,222.384 540.216,224.718 C533.122,234.054 523.898,241.759 516.544,244.339 C506.653,247.809 497.502,248.984 488.981,247.847 Z" id="Path" fill="#00B9FA"></path>
            <path d="M480.512,89.5689 C481.184,84.3559 481.987,79.6729 482.513,76.9999 C482.992,74.5609 481.404,72.1959 478.966,71.7159 C476.521,71.2309 474.162,72.8239 473.682,75.2619 C473.586,75.7489 472.502,81.3239 471.588,88.3779 L480.512,89.5689 Z" id="Path" fill="#3E3F41"></path>
            <path d="M490.182,88.326 L463.992,84.831 C462.591,84.643 461.597,83.344 461.784,81.942 L466.772,44.569 C466.959,43.168 468.259,42.174 469.66,42.361 L495.85,45.856 C497.251,46.043 498.245,47.343 498.058,48.744 L493.07,86.118 C492.883,87.519 491.583,88.513 490.182,88.326 Z" id="Path" fill="#F2F3F5"></path>
            <path d="M468.993,42.3052 C467.976,42.3622 466.845,43.2862 466.675,44.5562 L461.687,81.9292 C461.518,83.1982 462.368,84.3872 463.334,84.7082 L468.993,42.3052 Z" id="Path" fill="#CFCFCF"></path>
            <path d="M491.087,88.4128 C492.104,88.3558 493.236,87.4318 493.405,86.1628 L498.393,48.7888 C498.563,47.5198 497.712,46.3308 496.746,46.0098 L491.087,88.4128 Z" id="Path" fill="#CFCFCF"></path>
            <path d="M491.747,45.6696 L491.893,44.5716 C492.031,43.5406 491.789,42.6486 490.758,42.5106 L475.397,40.4606 C474.366,40.3226 473.198,41.0266 473.06,42.0586 L472.914,43.1556 L491.747,45.6696 Z" id="Path" fill="#CFCFCF"></path>
            <polygon id="Path" fill="#E3E4E7" points="489.156 69.0253 470.045 66.4743 472.595 47.3633 491.706 49.9143"></polygon>
            <polygon id="Path" fill="#8D8F90" points="475.649 61.0086 472.942 60.6476 474.678 47.6416 477.385 48.0026"></polygon>
            <polygon id="Path" fill="#BDBEC2" points="475.65 61.0087 473.474 60.7187 475.139 48.2427 477.315 48.5337"></polygon>
            <polygon id="Path" fill="#8D8F90" points="479.729 61.5535 477.021 61.1925 478.757 48.1855 481.465 48.5465"></polygon>
            <polygon id="Path" fill="#BDBEC2" points="479.729 61.5536 477.552 61.2626 479.217 48.7876 481.394 49.0776"></polygon>
            <polygon id="Path" fill="#8D8F90" points="483.808 62.0975 481.1 61.7365 482.836 48.7305 485.543 49.0915"></polygon>
            <polygon id="Path" fill="#BDBEC2" points="483.808 62.0975 481.631 61.8075 483.296 49.3315 485.473 49.6215"></polygon>
            <polygon id="Path" fill="#8D8F90" points="487.887 62.6424 485.179 62.2814 486.915 49.2744 489.623 49.6354"></polygon>
            <polygon id="Path" fill="#BDBEC2" points="487.886 62.6425 485.709 62.3515 487.374 49.8755 489.551 50.1665"></polygon>
            <path d="M486.371,81.6581 L469.391,79.3911 C468.812,79.3141 468.402,78.7771 468.479,78.1981 L469.421,71.1371 C469.498,70.5581 470.036,70.1481 470.614,70.2251 L487.594,72.4911 C488.173,72.5681 488.583,73.1051 488.506,73.6841 L487.564,80.7461 C487.487,81.3241 486.95,81.7351 486.371,81.6581 Z" id="Path" fill="#5A5A5C"></path>
            <path d="M487.61,76.6714 L487.071,80.7064 C487.071,80.7064 487.351,81.4014 486.422,81.2774 C485.492,81.1534 469.424,79.0094 469.424,79.0094 C469.424,79.0094 486.061,80.7154 487.61,76.6714 Z" id="Path" fill="#3E3F41"></path>
            <path d="M413.496,150.715 C409.111,149.561 405.193,148.354 402.964,147.606 C400.931,146.925 398.73,148.025 398.048,150.062 C397.36,152.105 398.459,154.305 400.492,154.987 C400.897,155.122 405.547,156.671 411.481,158.236 L413.496,150.715 Z" id="Path" fill="#3E3F41"></path>
            <path d="M413.512,142.286 L407.599,164.357 C407.282,165.538 406.059,166.246 404.881,165.93 L373.458,157.51 C372.281,157.195 371.575,155.97 371.892,154.789 L377.806,132.719 C378.122,131.537 379.345,130.829 380.523,131.145 L411.945,139.564 C413.124,139.88 413.829,141.105 413.512,142.286 Z" id="Path" fill="#F2F3F5"></path>
            <path d="M371.77,155.355 C371.705,156.233 372.37,157.307 373.437,157.592 L404.859,166.012 C405.926,166.298 407.038,165.701 407.421,164.908 L371.77,155.355 Z" id="Path" fill="#CFCFCF"></path>
            <path d="M413.688,141.519 C413.753,140.641 413.088,139.568 412.021,139.282 L380.599,130.863 C379.532,130.577 378.42,131.174 378.037,131.967 L413.688,141.519 Z" id="Path" fill="#CFCFCF"></path>
            <path d="M377.188,136.216 L376.266,135.968 C375.398,135.736 374.608,135.845 374.375,136.714 L370.907,149.658 C370.674,150.528 371.146,151.607 372.013,151.839 L372.936,152.086 L377.188,136.216 Z" id="Path" fill="#CFCFCF"></path>
            <polygon id="Path" fill="#E3E4E7" points="392.568 157.133 396.884 141.027 380.815 136.722 376.5 152.827"></polygon>
            <polygon id="Path" fill="#8D8F90" points="387.904 154 388.516 151.719 377.58 148.789 376.969 151.07"></polygon>
            <polygon id="Path" fill="#BDBEC2" points="388.024 153.554 388.516 151.719 378.027 148.909 377.535 150.743"></polygon>
            <polygon id="Path" fill="#8D8F90" points="388.826 150.563 389.437 148.282 378.502 145.352 377.891 147.633"></polygon>
            <polygon id="Path" fill="#BDBEC2" points="388.946 150.117 389.437 148.282 378.949 145.472 378.457 147.306"></polygon>
            <polygon id="Path" fill="#8D8F90" points="389.746 147.126 390.357 144.845 379.422 141.915 378.811 144.196"></polygon>
            <polygon id="Path" fill="#BDBEC2" points="389.866 146.679 390.357 144.845 379.868 142.034 379.377 143.869"></polygon>
            <polygon id="Path" fill="#8D8F90" points="390.668 143.689 391.279 141.408 380.344 138.478 379.732 140.759"></polygon>
            <polygon id="Path" fill="#BDBEC2" points="390.788 143.242 391.279 141.408 380.79 138.597 380.299 140.432"></polygon>
            <path d="M407.38,144.815 L403.546,159.123 C403.416,159.611 402.91,159.904 402.424,159.773 L396.487,158.182 C396,158.052 395.709,157.546 395.839,157.058 L399.673,142.749 C399.804,142.262 400.309,141.969 400.796,142.1 L406.733,143.69 C407.22,143.821 407.511,144.327 407.38,144.815 Z" id="Path" fill="#5A5A5C"></path>
            <path d="M403.252,143.2 L406.644,144.109 C406.644,144.109 407.271,143.946 407.061,144.729 L403.223,159.053 C403.223,159.053 406.539,144.976 403.252,143.2 Z" id="Path" fill="#3E3F41"></path>
            <path d="M323.888,258.753 L27.54,258.753 C22.866,258.753 19.041,254.928 19.041,250.253 C19.041,245.578 22.866,241.754 27.54,241.754 L323.888,241.754 C328.563,241.754 332.388,245.578 332.388,250.253 C332.388,254.928 328.563,258.753 323.888,258.753 Z" id="Path" fill="#D5DAE2"></path>
            <path d="M22.6836,234.754 L22.6836,239.462 C22.6836,245.041 25.3566,249.754 28.5646,249.754 L74.5276,249.754 C77.7356,249.754 79.6836,245.041 79.6836,239.462 L79.6836,234.754 L22.6836,234.754 Z" id="Path" fill="#2D2B2C"></path>
            <path d="M269.684,234.754 L269.684,239.462 C269.684,245.041 271.982,249.754 275.19,249.754 L321.153,249.754 C324.361,249.754 326.684,245.041 326.684,239.462 L326.684,234.754 L269.684,234.754 Z" id="Path" fill="#2D2B2C"></path>
            <g id="Clipped" transform="translate(311.000000, 22.000000)">
                <mask id="mask-2" fill="white">
                    <use xlink:href="#path-1"></use>
                </mask>
                <g id="Path"></g>
                <path d="M10.192,143.269 L2.321,143.269 C1.3,143.269 0.465,142.433 0.465,141.413 L0.465,2.3565 C0.465,1.3355 1.3,0.4995 2.321,0.4995 L10.192,0.4995 C11.213,0.4995 12.048,1.3355 12.048,2.3565 L12.048,141.413 C12.048,142.433 11.213,143.269 10.192,143.269 Z" id="Path" fill="#2D2B2C" mask="url(#mask-2)"></path>
            </g>
            <path d="M331.471,235.355 L17,235.355 C7.65,235.355 0,227.705 0,218.355 L0,150.167 C0,140.817 7.65,133.167 17,133.167 L331.471,133.167 C340.821,133.167 348.471,140.817 348.471,150.167 L348.471,218.355 C348.471,227.705 340.821,235.355 331.471,235.355 Z" id="Path" fill="#645E5E"></path>
            <path d="M315.935,210.818 L32.5373,210.818 C26.8713,210.818 22.2363,206.182 22.2363,200.516 L22.2363,168.005 C22.2363,162.339 26.8713,157.704 32.5373,157.704 L315.935,157.704 C321.601,157.704 326.236,162.339 326.236,168.005 L326.236,200.516 C326.236,206.182 321.601,210.818 315.935,210.818 Z" id="Path" fill="#7C7777"></path>
            <path d="M53.6248,190.858 C50.5148,193.968 45.4708,193.968 42.3598,190.858 C39.2498,187.748 39.2498,182.704 42.3598,179.593 C45.4708,176.483 50.5148,176.483 53.6248,179.593 C56.7358,182.704 56.7358,187.748 53.6248,190.858 Z" id="Path" fill="#00D400"></path>
            <path d="M82.8372,192.138 C79.0752,194.31 74.2642,193.021 72.0922,189.259 C69.9202,185.496 71.2092,180.686 74.9712,178.514 C78.7332,176.341 83.5442,177.63 85.7162,181.393 C87.8882,185.156 86.5992,189.966 82.8372,192.138 Z" id="Path" fill="#00B9FA"></path>
            <path d="M113.799,192.124 C109.989,194.324 105.117,193.019 102.918,189.209 C100.718,185.399 102.024,180.527 105.834,178.328 C109.643,176.129 114.515,177.434 116.715,181.243 C118.914,185.054 117.609,189.925 113.799,192.124 Z" id="Path" fill="#00B9FA"></path>
            <path d="M405.711,17.3278 C414.084,22.256 422.063,26.9531 430.859,32.1303 C429.87,28.698 429.105,26.0424 428.163,22.7672 C441.194,25.8815 449.843,33.4585 455.311,45.3903 C456.709,31.372 446.547,18.4426 427.674,9.9682 C428.185,7.1545 428.713,4.2518 429.375,0.61095 C424.996,3.68472 421.138,6.379 417.294,9.0948 C413.523,11.7593 409.766,14.4446 405.711,17.3278 Z" id="Path" fill="#00C0D2"></path>
            <path d="M421.18,220.317 C414.869,212.931 408.853,205.893 402.222,198.134 C402.04,201.701 401.898,204.461 401.723,207.864 C390.415,200.677 384.705,190.697 383.42,177.635 C377.534,190.435 382.933,205.968 398.018,220.125 C396.619,222.619 395.175,225.192 393.364,228.419 C398.505,226.938 403.03,225.647 407.548,224.33 C411.982,223.039 416.408,221.723 421.18,220.317 Z" id="Path" fill="#00C0D2"></path>
        </g>
    </g>
</svg>