<?xml version="1.0" encoding="iso-8859-1"?>
<!-- Generator: Adobe Illustrator 19.0.0, SVG Export Plug-In . SVG Version: 6.00 Build 0)  -->
<svg version="1.1" id="Layer_1" xmlns="http://www.w3.org/2000/svg" xmlns:xlink="http://www.w3.org/1999/xlink" x="0px" y="0px"
	 viewBox="-19 309 573 175" style="enable-background:new -19 309 573 175;" xml:space="preserve">
<title>icons-wps</title>
<desc>Created with Sketch.</desc>
<g id="D3-troubleshooting">
	<g id="_x31_6_x5F_TS_x5F_wifi_x5F_1" transform="translate(-67.000000, -333.000000)">
		<g id="icons-wps" transform="translate(67.000000, 332.000000)">
			<g id="Group-7" transform="translate(0.000000, 2.783382)">
				<g id="Clip-6">
				</g>
				<defs>
					<filter id="Adobe_OpacityMaskFilter" filterUnits="userSpaceOnUse" x="382.236" y="309.638" width="171.094" height="171.838">
						<feColorMatrix  type="matrix" values="1 0 0 0 0  0 1 0 0 0  0 0 1 0 0  0 0 0 1 0"/>
					</filter>
				</defs>
				<mask maskUnits="userSpaceOnUse" x="382.236" y="309.638" width="171.094" height="171.838" id="mask-2">
					<g style="filter:url(#Adobe_OpacityMaskFilter);">
						<polygon id="path-1" style="fill:#FFFFFF;" points="-19,481.476 467.783,481.476 553.331,481.476 553.331,309.638 
							382.236,309.638 382.236,481.476 						"/>
					</g>
				</mask>
				<path id="Fill-5" style="mask:url(#mask-2);fill:#E6E6E6;" d="M525.501,481.476H410.065c-15.306,0-27.829-12.522-27.829-27.828
					V337.466c0-15.306,12.523-27.828,27.829-27.828h115.436c15.306,0,27.83,12.522,27.83,27.828v116.182
					C553.331,468.953,540.807,481.476,525.501,481.476"/>
			</g>
			<g id="antena" transform="translate(413.130535, 15.400506)">
				<path id="Fill-20" style="fill:#FFFFFF;" d="M106.745,456.572H2.561c-11.672,0-21.222-9.549-21.222-21.221V330.527
					c0-11.671,9.55-21.221,21.222-21.221h104.185c11.672,0,21.222,9.549,21.222,21.221v104.824
					C127.967,447.023,118.417,456.572,106.745,456.572"/>
				<path id="Fill-28" style="fill:#645E5E;" d="M73.421,345.19c-1.075-1.075-2.867-1.075-3.942,0c-1.075,1.075-1.075,2.866,0,3.942
					c8.242,8.241,8.242,21.499,0,29.74c-1.075,1.075-1.075,2.867,0,3.941c0.359,0.359,1.075,0.717,1.792,0.717
					c0.717,0,1.433-0.358,1.791-0.717C83.813,372.064,83.813,355.223,73.421,345.19"/>
				<path id="Fill-30" style="fill:#645E5E;" d="M39.737,378.514c-8.242-8.242-8.242-21.499,0-29.74
					c1.075-1.075,1.075-2.866,0-3.942c-1.075-1.075-2.867-1.075-3.942,0c-10.391,10.391-10.391,27.233,0,37.624
					c0.359,0.358,1.075,0.717,1.792,0.717s1.433-0.359,1.792-0.717C40.812,381.38,40.812,379.589,39.737,378.514"/>
				<path id="Fill-32" style="fill:#645E5E;" d="M83.096,335.516c-1.075-1.075-2.867-1.075-3.942,0
					c-1.075,1.075-1.075,2.866,0,3.942c13.617,13.616,13.617,35.473,0,48.731c-1.075,1.075-1.075,2.866,0,3.941
					c0.359,0.359,1.075,0.717,1.792,0.717c0.717,0,1.433-0.358,1.791-0.717C98.505,376.364,98.505,350.924,83.096,335.516"/>
				<path id="Fill-34" style="fill:#645E5E;" d="M20.387,363.823c0-9.316,3.583-17.916,10.033-24.365
					c1.075-1.075,1.075-2.867,0-3.942c-1.075-1.075-2.867-1.075-3.941,0c-7.525,7.525-11.825,17.558-11.825,28.307
					s4.3,20.782,11.825,28.307c0.358,0.359,1.075,0.717,1.791,0.717c0.717,0,1.433-0.358,1.792-0.717
					c1.075-1.075,1.075-2.866,0-3.942C23.97,381.738,20.387,373.139,20.387,363.823"/>
				<path id="Fill-36" style="fill:#645E5E;" d="M92.054,326.558c-1.075-1.075-2.867-1.075-3.942,0
					c-1.075,1.075-1.075,2.866,0,3.942c8.959,8.957,13.617,20.782,13.617,33.323c0,12.54-5.017,24.365-13.617,33.323
					c-1.075,1.075-1.075,2.866,0,3.941c0.359,0.359,1.075,0.717,1.792,0.717c0.717,0,1.433-0.358,1.791-0.717
					c10.034-10.033,15.409-22.932,15.409-37.264C107.104,349.848,101.73,336.59,92.054,326.558"/>
				<path id="Fill-38" style="fill:#645E5E;" d="M21.462,330.499c1.075-1.075,1.075-2.866,0-3.942c-1.075-1.075-2.867-1.075-3.942,0
					c-20.425,20.424-20.425,53.748,0,74.172c0.359,0.359,1.075,0.717,1.792,0.717s1.433-0.358,1.791-0.717
					c1.075-1.074,1.075-2.866,0-3.941C3.186,378.514,3.186,348.774,21.462,330.499"/>
				<path id="Fill-40" style="fill:#645E5E;" d="M54.935,440.128L54.935,440.128c-2.354,0-4.263-1.909-4.263-4.263v-63.503
					c0-2.354,1.909-4.263,4.263-4.263c2.354,0,4.263,1.909,4.263,4.263v63.503C59.198,438.219,57.289,440.128,54.935,440.128"/>
				<path id="Fill-42" style="fill:#645E5E;" d="M64.462,368.099c0,5.343-4.332,9.675-9.675,9.675c-5.343,0-9.675-4.332-9.675-9.675
					s4.332-9.675,9.675-9.675C60.131,358.424,64.462,362.756,64.462,368.099"/>
			</g>
			<g id="chave" transform="translate(0.000000, 0.931217)">
				<path id="Fill-8" style="fill:#E6E6E6;" d="M124.265,481.112H8.829C-6.477,481.112-19,468.59-19,453.284V337.102
					c0-15.306,12.523-27.828,27.829-27.828h115.436c15.306,0,27.83,12.522,27.83,27.828v116.182
					C152.095,468.59,139.571,481.112,124.265,481.112"/>
				<path id="Fill-10" style="fill:#FFFFFF;" d="M118.583,468.715H14.399c-11.672,0-21.222-9.549-21.222-21.221V342.671
					c0-11.671,9.55-21.221,21.222-21.221h104.185c11.672,0,21.222,9.549,21.222,21.221v104.824
					C139.805,459.166,130.255,468.715,118.583,468.715"/>
				<g id="Group-2" transform="translate(26.000000, 65.000000)">
					<path id="Fill-12" style="fill:#645E5E;" d="M20.656,337.863L20.656,337.863c-2.074,0-3.757-1.67-3.757-3.731v-19.704
						c0-2.06,1.682-3.731,3.757-3.731l0,0c2.074,0,3.757,1.671,3.757,3.731v19.704C24.413,336.194,22.73,337.863,20.656,337.863"/>
					<path id="Fill-14" style="fill:#645E5E;" d="M1.874,337.465L1.874,337.465c-2.074,0-3.757-1.67-3.757-3.731v-10.581
						c0-2.061,1.682-3.731,3.757-3.731l0,0c2.074,0,3.757,1.67,3.757,3.731v10.581C5.631,335.796,3.949,337.465,1.874,337.465"/>
					<path id="Stroke-16" style="fill:none;stroke:#645E5E;stroke-width:9;" d="M95.893,331.122c0,11.946-9.751,21.63-21.78,21.63
						s-21.781-9.684-21.781-21.63c0-11.946,9.752-21.63,21.781-21.63S95.893,319.176,95.893,331.122z"/>
					<path id="Fill-18" style="fill:#645E5E;" d="M-18.09,335.116L-18.09,335.116c0-1.915,1.563-3.467,3.491-3.467H50.84
						c1.929,0,3.491,1.552,3.491,3.467l0,0c0,1.915-1.562,3.467-3.491,3.467h-65.439C-16.527,338.583-18.09,337.031-18.09,335.116"
						/>
				</g>
			</g>
			<g id="setas" transform="translate(200.884808, 1.913043)">
				<path id="Fill-1" style="fill:#E6E6E6;" d="M124.266,481.066H8.83c-15.306,0-27.829-12.522-27.829-27.828V337.056
					c0-15.306,12.523-27.828,27.829-27.828h115.436c15.306,0,27.83,12.522,27.83,27.828v116.182
					C152.096,468.544,139.572,481.066,124.266,481.066"/>
				<path id="Fill-3" style="fill:#FFFFFF;" d="M118.641,468.779H14.456c-11.672,0-21.222-9.549-21.222-21.221V342.735
					c0-11.671,9.55-21.221,21.222-21.221h104.185c11.672,0,21.222,9.549,21.222,21.221v104.824
					C139.863,459.23,130.313,468.779,118.641,468.779"/>
				<path id="Fill-22" style="fill:#645E5E;" d="M87.837,342.113c-0.221,0-0.443,0.003-0.667,0.012
					c-4.988,0.171-10.215,2.218-14.719,5.764c-0.626,0.493-1.243,1.021-1.833,1.571c-1.004,0.935-2.271,1.606-3.665,1.938
					l-3.203,0.764c-10.248,2.444-19.533,8.345-26.148,16.615c-6.72,8.402-10.421,18.965-10.421,29.744
					c0,2.517,0.201,5.051,0.595,7.533l0.189,1.187l-9.135,2.802c-0.243,0.075-0.364,0.25-0.414,0.347
					c-0.049,0.097-0.12,0.296-0.038,0.538l0.98,2.871c2.451,7.183,6.795,13.647,12.559,18.693l0.569,0.498l-0.112,0.748
					c-0.575,3.838,0.207,7.247,2.261,9.856c2.453,3.116,6.46,4.742,11.29,4.575c4.988-0.171,10.215-2.218,14.719-5.764
					c0.625-0.492,1.242-1.021,1.833-1.571c1.004-0.936,2.271-1.606,3.665-1.938l3.203-0.764
					c10.248-2.445,19.533-8.345,26.148-16.616c6.72-8.402,10.421-18.964,10.421-29.744c0-2.518-0.201-5.052-0.595-7.534
					l-0.189-1.187l9.135-2.801l0.406,1.323l-0.406-1.323c0.244-0.076,0.364-0.25,0.414-0.347c0.05-0.097,0.12-0.297,0.038-0.538
					l-0.98-2.871c-2.451-7.183-6.794-13.647-12.558-18.694l-0.569-0.498l0.111-0.747c0.575-3.839-0.207-7.247-2.261-9.857
					C96.12,343.728,92.366,342.113,87.837,342.113 M45.254,450.949c-5.394,0-9.915-1.988-12.792-5.642
					c-2.4-3.048-3.404-6.916-2.922-11.226c-5.852-5.29-10.271-11.979-12.799-19.388l-0.98-2.871
					c-0.305-0.893-0.237-1.849,0.193-2.69c0.429-0.841,1.163-1.456,2.066-1.734l6.849-2.101c-0.301-2.242-0.454-4.516-0.454-6.776
					c0-11.405,3.916-22.582,11.027-31.473c6.998-8.75,16.824-14.993,27.668-17.579l3.203-0.764c0.928-0.221,1.766-0.661,2.42-1.271
					c0.646-0.601,1.321-1.18,2.007-1.72c4.964-3.908,10.765-6.165,16.336-6.356c5.728-0.196,10.546,1.802,13.559,5.628
					c2.399,3.048,3.403,6.915,2.923,11.226c5.852,5.29,10.27,11.979,12.799,19.388l0.98,2.871c0.306,0.893,0.237,1.849-0.193,2.69
					c-0.429,0.841-1.163,1.457-2.067,1.735l-6.849,2.1c0.301,2.242,0.454,4.516,0.454,6.777c0,11.405-3.916,22.582-11.027,31.473
					c-6.997,8.749-16.824,14.992-27.668,17.578l-3.203,0.764c-0.928,0.222-1.766,0.661-2.42,1.271
					c-0.647,0.603-1.322,1.182-2.007,1.721c-4.963,3.907-10.765,6.164-16.335,6.355C45.764,450.944,45.508,450.949,45.254,450.949"
					/>
				<path id="Fill-24" style="fill:#645E5E;" d="M22.797,412.626c4.513,13.221,15.767,23.321,29.664,26.2
					c7.022-7.198,11.352-17.035,11.352-27.886c0-3.622-0.483-7.131-1.387-10.468l-12.8,3.926c-0.874-3.718-1.338-7.595-1.338-11.58
					c0-14.689,6.283-27.909,16.306-37.124c-19.373,4.62-33.78,22.04-33.78,42.827c0,3.872,0.503,7.626,1.442,11.204L22.797,412.626z
					"/>
				<path id="Fill-26" style="fill:#645E5E;" d="M110.299,377.668c-4.513-13.221-15.767-23.321-29.664-26.2
					c-7.022,7.198-11.352,17.035-11.352,27.886c0,3.622,0.483,7.131,1.387,10.468l12.8-3.926c0.874,3.718,1.338,7.595,1.338,11.58
					c0,14.689-6.283,27.908-16.306,37.124c19.373-4.62,33.78-22.04,33.78-42.827c0-3.872-0.503-7.626-1.442-11.204L110.299,377.668z
					"/>
			</g>
		</g>
	</g>
</g>
</svg>
