<?xml version="1.0" encoding="UTF-8"?>
<svg width="417px" height="131px" viewBox="0 0 417 131" version="1.1" xmlns="http://www.w3.org/2000/svg" xmlns:xlink="http://www.w3.org/1999/xlink">
    <!-- Generator: Sketch 63.1 (92452) - https://sketch.com -->
    <title>iPhone 11 Copy 100</title>
    <desc>Created with Sketch.</desc>
    <defs>
        <linearGradient x1="15.2857197%" y1="0%" x2="76.4288328%" y2="94.6215897%" id="linearGradient-1">
            <stop stop-color="#FFD700" offset="0%"></stop>
            <stop stop-color="#FF0000" offset="100%"></stop>
        </linearGradient>
        <path d="M-94.819878,192.755636 C-156.029037,260.830352 28.9739488,268.506198 192.070651,268.506198 C228.195136,268.506198 220.210084,250.639809 249.795809,242.109983 C378.761976,204.927898 449.140767,94.1578872 491.756458,-25.2352993 C543.074081,-168.262328 534.483664,-314.675411 443.130575,-406.599837 C400.451534,-449.545799 380.362436,-467.389517 299.224614,-480.648105 C29.1096651,-524.826526 -44.6459039,-347.49125 22.9832177,-169.805012 C90.6123394,7.88122547 -21.5292701,111.24435 -94.819878,192.755636 Z" id="path-2"></path>
        <filter x="-1.6%" y="-1.3%" width="103.2%" height="102.6%" filterUnits="objectBoundingBox" id="filter-3">
            <feGaussianBlur stdDeviation="9.5" in="SourceAlpha" result="shadowBlurInner1"></feGaussianBlur>
            <feOffset dx="0" dy="1" in="shadowBlurInner1" result="shadowOffsetInner1"></feOffset>
            <feComposite in="shadowOffsetInner1" in2="SourceAlpha" operator="arithmetic" k2="-1" k3="1" result="shadowInnerInner1"></feComposite>
            <feColorMatrix values="0 0 0 0 0   0 0 0 0 0   0 0 0 0 0  0 0 0 0.283790428 0" type="matrix" in="shadowInnerInner1"></feColorMatrix>
        </filter>
    </defs>
    <g id="Page-1" stroke="none" stroke-width="1" fill="none" fill-rule="evenodd">
        <g id="Path-Copy" fill-rule="nonzero" transform="translate(208.155843, -109.493802) scale(1, -1) rotate(-278.000000) translate(-208.155843, 109.493802) ">
            <use fill="url(#linearGradient-1)" xlink:href="#path-2"></use>
            <use fill="black" fill-opacity="1" filter="url(#filter-3)" xlink:href="#path-2"></use>
        </g>
        <g id="-Connections" transform="translate(-3586.831476, -2922.500000)"></g>
    </g>
</svg>