<svg width="152" height="58" viewBox="0 0 152 58" fill="none" xmlns="http://www.w3.org/2000/svg">
<path fill-rule="evenodd" clip-rule="evenodd" d="M139.411 30.5527C140.122 31.7832 141.695 32.2049 142.926 31.4944C144.156 30.7839 144.578 29.2104 143.867 27.9799C143.157 26.7493 141.583 26.3277 140.353 27.0381C139.122 27.7486 138.701 29.3221 139.411 30.5527Z" fill="#4FB647"/>
<path fill-rule="evenodd" clip-rule="evenodd" d="M137.558 45.0048C138.268 46.2354 139.842 46.657 141.073 45.9465C142.303 45.2361 142.725 43.6625 142.014 42.432C141.304 41.2014 139.73 40.7798 138.5 41.4903C137.269 42.2007 136.848 43.7742 137.558 45.0048Z" fill="#4FB647"/>
<path fill-rule="evenodd" clip-rule="evenodd" d="M130.157 50.2244C130.868 51.4549 132.441 51.8765 133.672 51.1661C134.902 50.4556 135.324 48.8821 134.613 47.6515C133.903 46.421 132.329 45.9994 131.099 46.7098C129.868 47.4203 129.447 48.9938 130.157 50.2244Z" fill="#4FB647"/>
<path d="M120.794 31.38C120.794 31.38 128.871 33.8217 135.484 31.38" stroke="#4FB647" stroke-width="1.824"/>
<path d="M120.758 31.4007C120.758 31.4007 129.083 35.4488 134.489 39.6883" stroke="#4FB647" stroke-width="1.824"/>
<path d="M119.438 31.0405C119.438 31.0405 124.88 32.7061 129.112 43.3525" stroke="#4FB647" stroke-width="1.824"/>
<path d="M18.0539 25.2852C0.30048 26.2461 -2.96515 43.5719 12.2168 47.6332C27.3988 51.6944 59.1319 33.8841 79.0611 28.9139C107.701 21.7714 117.737 30.4896 121.308 31.6248" stroke="#4FB647" stroke-width="3.8"/>
<mask id="path-8-inside-1" fill="white">
<rect x="16.4699" y="0.599976" width="85.7679" height="49.6007" rx="3.648"/>
</mask>
<rect x="16.4699" y="0.599976" width="85.7679" height="49.6007" rx="3.648" stroke="#4FB647" stroke-width="7.6" mask="url(#path-8-inside-1)"/>
<path fill-rule="evenodd" clip-rule="evenodd" d="M84.557 49.7249L91.0963 49.7249L99.7644 56.9049L96.3817 56.9491L84.557 49.7249Z" fill="#4FB647"/>
<path fill-rule="evenodd" clip-rule="evenodd" d="M32.7237 49.7249L26.1844 49.7249L17.5163 56.9049L20.899 56.9491L32.7237 49.7249Z" fill="#4FB647"/>
<rect x="31.3289" y="19.2724" width="22.1375" height="37.05" rx="3.325" fill="#F3F3F3" stroke="#4FB647" stroke-width="2.85"/>
<rect x="37.8096" y="19.1912" width="9.26706" height="2.68765" rx="1.34382" fill="#F3F3F3" stroke="#4FB647" stroke-width="2.68765"/>
<rect x="36.9698" y="51.8249" width="10.9466" height="1.0081" rx="0.50405" fill="#F3F3F3" stroke="#4FB647" stroke-width="1.0081"/>
</svg>
