<?xml version="1.0" encoding="UTF-8"?>
<svg width="35px" height="37px" viewBox="0 0 35 37" version="1.1" xmlns="http://www.w3.org/2000/svg" xmlns:xlink="http://www.w3.org/1999/xlink">
    <title>Group 2</title>
    <g id="Page-1" stroke="none" stroke-width="1" fill="none" fill-rule="evenodd">
        <g id="Group-2" transform="translate(1.500000, 0.000000)">
            <g id="Group-13">
                <g id="Group-11">
                    <rect id="Rectangle" stroke="#00C0D2" stroke-width="1.3" x="-3.55271368e-13" y="5" width="32.1853651" height="31" rx="3"></rect>
                    <g id="Group-8" transform="translate(7.563836, 0.000000)" fill="#00C0D2">
                        <rect id="Rectangle" x="-2.2759572e-14" y="0" width="1.3" height="10" rx="0.65"></rect>
                        <rect id="Rectangle-Copy" x="15.7589351" y="0" width="1.3" height="10" rx="0.65"></rect>
                    </g>
                </g>
            </g>
            <g id="Group-12" transform="translate(5.605087, 14.314635)" fill="#00C0D2" fill-rule="nonzero">
                <g id="Group-10">
                    <circle id="Oval" cx="1" cy="1" r="1"></circle>
                    <circle id="Oval-Copy" cx="7.50180735" cy="1" r="1"></circle>
                    <circle id="Oval-Copy-6" cx="14.0036147" cy="1" r="1"></circle>
                    <circle id="Oval-Copy-4" cx="20.505422" cy="1" r="1"></circle>
                </g>
                <g id="Group-10-Copy" transform="translate(0.000000, 4.447011)">
                    <circle id="Oval" cx="1" cy="1" r="1"></circle>
                    <circle id="Oval-Copy" cx="7.50180735" cy="1" r="1"></circle>
                    <circle id="Oval-Copy-6" cx="14.0036147" cy="1" r="1"></circle>
                    <circle id="Oval-Copy-4" cx="20.505422" cy="1" r="1"></circle>
                </g>
                <g id="Group-10-Copy-3" transform="translate(0.000000, 8.894023)">
                    <circle id="Oval" cx="1" cy="1" r="1"></circle>
                    <circle id="Oval-Copy" cx="7.50180735" cy="1" r="1"></circle>
                    <circle id="Oval-Copy-6" cx="14.0036147" cy="1" r="1"></circle>
                    <circle id="Oval-Copy-4" cx="20.505422" cy="1" r="1"></circle>
                </g>
                <g id="Group-10-Copy-2" transform="translate(0.000000, 13.341034)">
                    <circle id="Oval" cx="1" cy="1" r="1"></circle>
                    <circle id="Oval-Copy" cx="7.50180735" cy="1" r="1"></circle>
                    <circle id="Oval-Copy-6" cx="14.0036147" cy="1" r="1"></circle>
                    <circle id="Oval-Copy-4" cx="20.505422" cy="1" r="1"></circle>
                </g>
            </g>
        </g>
    </g>
</svg>