<?xml version="1.0" encoding="UTF-8"?>
<svg width="63px" height="45px" viewBox="0 0 63 45" version="1.1" xmlns="http://www.w3.org/2000/svg" xmlns:xlink="http://www.w3.org/1999/xlink">
    <title>Group 25 Copy</title>
    <g id="FIBRA-INTERNET" stroke="none" stroke-width="1" fill="none" fill-rule="evenodd">
        <g id="Group-25-Copy" transform="translate(1.000000, 0.000000)">
            <g id="Group-18" transform="translate(0.000000, 0.200000)">
                <g id="Group-51" transform="translate(0.450000, 0.000000)">
                    <g id="Group-49">
                        <g id="Group-48" fill="#FFFFFF" stroke="#00C0D2">
                            <path d="M0,18.4252014 L19.1620192,2.34001469 C20.7727149,0.987947285 23.1230127,0.99216455 24.7288459,2.35000354 L43.74,18.4252014 L43.74,18.4252014 L43.74,38.7457387 L0,38.7457387 L0,18.4252014 Z" id="Rectangle-Copy-15"></path>
                            <rect id="Rectangle" x="5.238" y="6.66708482" width="33.102" height="27.756" rx="2.7"></rect>
                            <path d="M0,19.0870848 L21.9496403,30.9670848 L43.74,19.0870848 L43.74,39.8470848 C43.74,41.5039391 42.3968542,42.8470848 40.74,42.8470848 L3,42.8470848 C1.34314575,42.8470848 2.02906125e-16,41.5039391 0,39.8470848 L0,19.0870848 L0,19.0870848 Z" id="Rectangle"></path>
                        </g>
                        <rect id="Rectangle" fill="#00C0D2" x="17.82" y="11.718" width="16.2" height="1" rx="0.5"></rect>
                        <path d="M11.8186424,21.7086271 C11.9831737,21.7086271 12.0896971,21.651674 12.1382127,21.5377677 C12.1867283,21.4238615 12.2109862,21.2424552 12.2109862,20.993549 L12.2109862,19.4178459 C12.8142674,19.3672209 13.335283,19.2090177 13.774033,18.9432365 C14.212783,18.6774552 14.5450096,18.3346818 14.7707127,17.9149162 C14.9964158,17.4951506 15.1092674,17.044799 15.1092674,16.5638615 C15.1092674,16.1799552 15.0386033,15.8266349 14.8972752,15.5039006 C14.7559471,15.1811662 14.5545018,14.9037834 14.2929393,14.6717521 C14.0482518,14.4481584 13.770869,14.277299 13.4607908,14.159174 C13.1507127,14.041049 12.7341112,13.9102677 12.2109862,13.7668302 L12.2109862,11.1343302 C12.7425487,11.307299 13.0779393,11.6574552 13.217158,12.184799 C13.3395018,12.6319865 13.6073924,12.8555802 14.0208299,12.8555802 C14.2402049,12.8555802 14.4268846,12.7785881 14.580869,12.6246037 C14.7348533,12.4706193 14.8118455,12.2881584 14.8118455,12.0772209 C14.8118455,11.8873771 14.7601658,11.678549 14.6568065,11.4507365 C14.5534471,11.222924 14.4068455,11.0014396 14.2170018,10.7862834 C13.976533,10.5036271 13.6949315,10.2926896 13.3721971,10.1534709 C13.0494627,10.0142521 12.6623924,9.92143962 12.2109862,9.87503337 L12.2109862,9.19159587 C12.2109862,8.84565837 12.0759862,8.67268962 11.8059862,8.67268962 C11.5402049,8.67268962 11.4073143,8.84987712 11.4073143,9.20425212 L11.4073143,9.87503337 C10.534033,9.95097087 9.86641584,10.2209709 9.40446272,10.6850334 C8.94250959,11.1490959 8.71153303,11.7439396 8.71153303,12.4695646 C8.71153303,13.0264396 8.82965803,13.4820646 9.06590803,13.8364396 C9.30215803,14.1908146 9.61012678,14.4639787 9.98981428,14.6559318 C10.3695018,14.8478849 10.8420018,15.0219084 11.4073143,15.1780021 L11.4073143,18.1205802 C11.124658,18.040424 10.8979002,17.9244084 10.7270408,17.7725334 C10.5561815,17.6206584 10.4285643,17.4529631 10.3441893,17.2694474 C10.2598143,17.0859318 10.1606737,16.8212052 10.0467674,16.4752677 C9.99614241,16.3149552 9.90543928,16.1905021 9.77465803,16.1019084 C9.64387678,16.0133146 9.48356428,15.9690177 9.29372053,15.9690177 C9.05747053,15.9690177 8.86024397,16.0502287 8.70204084,16.2126506 C8.54383772,16.3750724 8.46473616,16.5575334 8.46473616,16.7600334 C8.46473616,17.0342521 8.52379866,17.3137443 8.64192366,17.5985099 C8.76004866,17.8832756 8.94250959,18.1574943 9.18930647,18.4211662 C9.43610334,18.6848381 9.74407209,18.9052677 10.1132127,19.0824552 C10.4823533,19.2596427 10.9137205,19.3756584 11.4073143,19.4305021 L11.4073143,21.1390959 C11.4073143,21.3331584 11.4379002,21.4765959 11.4990721,21.5694084 C11.560244,21.6622209 11.6667674,21.7086271 11.8186424,21.7086271 Z M11.4073143,13.5326896 C11.0276268,13.3934709 10.7449705,13.2384318 10.5593455,13.0675724 C10.3737205,12.8967131 10.280908,12.6446427 10.280908,12.3113615 C10.280908,11.9612052 10.3800487,11.6996427 10.5783299,11.526674 C10.7766112,11.3537052 11.0529393,11.2144865 11.4073143,11.1090177 C11.4073143,11.1090177 11.7312036,11.0175136 12.2160842,11.1376003 C12.2160842,11.5155994 12.2160842,12.7003101 12.2160842,13.7684291 C12.1335633,13.748847 11.8639733,13.6702672 11.4073143,13.5326896 Z M12.2109862,15.4121427 C12.6497362,15.5513615 12.9819627,15.7211662 13.2076658,15.9215568 C13.433369,16.1219474 13.5462205,16.4056584 13.5462205,16.7726896 C13.5462205,17.1144084 13.4302049,17.4139396 13.1981737,17.6712834 C12.9661424,17.9286271 12.6370799,18.0994865 12.2109862,18.1838615 C11.966923,18.2221006 11.6964723,18.1995173 11.3996341,18.1161117 C11.3996341,16.7726896 11.3996341,15.5022394 11.3996341,15.1810852 C11.585552,15.2247606 11.8560026,15.3017798 12.2109862,15.4121427 Z" id="$" fill="#00C0D2" fill-rule="nonzero"></path>
                        <rect id="Rectangle-Copy-16" fill="#00C0D2" x="17.82" y="16.308" width="16.2" height="1" rx="0.5"></rect>
                        <rect id="Rectangle-Copy-19" fill="#00C0D2" x="17.82" y="20.898" width="10.3938018" height="1" rx="0.5"></rect>
                    </g>
                </g>
                <line x1="11.5" y1="26.1" x2="0.5" y2="39.1" id="Line-8" stroke="#00C0D2" stroke-linecap="square"></line>
                <line x1="43.969772" y1="26.1" x2="32.969772" y2="39.1" id="Line-8-Copy" stroke="#00C0D2" stroke-linecap="square" transform="translate(38.469772, 32.600000) scale(-1, 1) translate(-38.469772, -32.600000) "></line>
            </g>
            <g id="Group-12" transform="translate(28.200000, 0.000000)">
                <path d="M17.9618339,3.08003916 L31.6220183,30.5092914 C32.0439134,31.3564444 31.6991737,32.3852112 30.8520207,32.8071063 C30.6147127,32.9252893 30.35322,32.9868 30.088112,32.9868 L2.76774325,32.9868 C1.82134811,32.9868 1.05414325,32.2195951 1.05414325,31.2732 C1.05414325,31.008092 1.11565399,30.7465993 1.23383695,30.5092914 L14.8940213,3.08003916 C15.3159164,2.2328861 16.3446832,1.88814641 17.1918363,2.3100415 C17.5253959,2.47615928 17.7957162,2.74647949 17.9618339,3.08003916 Z" id="Triangle" fill="#FC0000"></path>
                <path d="M17.8995545,22.8904405 L17.8995545,11.1351445 L15.3805625,11.1351445 L15.3805625,22.8904405 L17.8995545,22.8904405 Z M18.2594105,27.9284245 L18.2594105,24.7137109 L15.0446969,24.7137109 L15.0446969,27.9284245 L18.2594105,27.9284245 Z" id="!" fill="#FFFFFF" fill-rule="nonzero"></path>
            </g>
        </g>
    </g>
</svg>