<svg width="73" height="42" viewBox="0 0 73 42" fill="none" xmlns="http://www.w3.org/2000/svg">
<rect x="11.8167" y="1.4" width="60.1635" height="34.2452" rx="1.35" stroke="#00C0D2" stroke-width="1.3"/>
<path fill-rule="evenodd" clip-rule="evenodd" d="M58.2914 35.9542L62.9776 35.9542L69.1894 41.0996L66.7653 41.1312L58.2914 35.9542Z" fill="#00C0D2"/>
<path fill-rule="evenodd" clip-rule="evenodd" d="M29.4721 35.9542L24.7859 35.9542L18.5741 41.0996L20.9982 41.1312L29.4721 35.9542Z" fill="#00C0D2"/>
<rect x="19.6619" y="20.8333" width="28" height="20" rx="3" fill="white" stroke="#00C0D2" stroke-width="1.3"/>
<path fill-rule="evenodd" clip-rule="evenodd" d="M43.8044 32.5C44.7249 32.5 45.471 31.7538 45.471 30.8333C45.471 29.9129 44.7249 29.1667 43.8044 29.1667C42.8839 29.1667 42.1377 29.9129 42.1377 30.8333C42.1377 31.7538 42.8839 32.5 43.8044 32.5Z" stroke="#00C0D2"/>
<rect x="6.77861" y="13.4214" width="15" height="27.4119" rx="2" fill="white" stroke="#00C0D2" stroke-width="1.3"/>
<g filter="url(#filter0_d)">
<rect x="11.0175" y="13.4214" width="6.52216" height="1.51573" rx="0.757863" fill="#00C0D2"/>
<rect x="11.0175" y="13.4214" width="6.52216" height="1.51573" rx="0.757863" stroke="#00C0D2"/>
</g>
<rect width="7.5" height="0.833333" rx="0.416667" transform="matrix(1 0 0 -1 10.5286 38.8646)" fill="#00C0D2"/>
<defs>
<filter id="filter0_d" x="0.517534" y="4.92139" width="27.5222" height="22.5157" filterUnits="userSpaceOnUse" color-interpolation-filters="sRGB">
<feFlood flood-opacity="0" result="BackgroundImageFix"/>
<feColorMatrix in="SourceAlpha" type="matrix" values="0 0 0 0 0 0 0 0 0 0 0 0 0 0 0 0 0 0 127 0"/>
<feOffset dy="2"/>
<feGaussianBlur stdDeviation="5"/>
<feColorMatrix type="matrix" values="0 0 0 0 0 0 0 0 0 0 0 0 0 0 0 0 0 0 0.158982 0"/>
<feBlend mode="normal" in2="BackgroundImageFix" result="effect1_dropShadow"/>
<feBlend mode="normal" in="SourceGraphic" in2="effect1_dropShadow" result="shape"/>
</filter>
</defs>
</svg>
