<?xml version="1.0" encoding="UTF-8"?>
<svg width="53px" height="52px" viewBox="0 0 53 52" version="1.1" xmlns="http://www.w3.org/2000/svg" xmlns:xlink="http://www.w3.org/1999/xlink">
    <title>Group 39</title>
    <g id="FIBRA-INTERNET" stroke="none" stroke-width="1" fill="none" fill-rule="evenodd">
        <g id="Group-39" transform="translate(1.500000, 1.000000)">
            <g id="Group-13" transform="translate(13.000000, 0.000000)">
                <g id="Group-19" transform="translate(0.798705, 0.000000)">
                    <g id="Group-12" transform="translate(0.000000, 2.605838)" stroke="#00C0D2">
                        <circle id="Oval" cx="9.59020733" cy="2.67206542" r="2.31337983"></circle>
                        <path d="M9.3177272,4.98544525 L0.171790408,46.1742061 C0.135874842,46.335952 0.237880472,46.4961883 0.399626359,46.5321038 C0.483575061,46.5507446 0.57148684,46.5324644 0.641045894,46.4819035 L16.3235678,35.0826434 L16.3235678,35.0826434" id="Path-2" stroke-linecap="round"></path>
                        <path d="M12.3441149,4.98544525 L2.99245326,46.1700702 C2.95576551,46.3316427 3.0570046,46.4923644 3.21857708,46.5290522 C3.30286753,46.5481917 3.39131739,46.5300451 3.46126229,46.4792621 L19.1581595,35.0826434 L19.1581595,35.0826434" id="Path-2-Copy" stroke-linecap="round" transform="translate(10.987001, 25.966655) scale(-1, 1) translate(-10.987001, -25.966655) "></path>
                        <line x1="4.81763581" y1="26.8634137" x2="14.3131487" y2="26.8634137" id="Line-2" stroke-linecap="square"></line>
                        <line x1="7.31986287" y1="16.795608" x2="11.9035872" y2="16.795608" id="Line-2-Copy" stroke-linecap="square"></line>
                    </g>
                    <g id="Group-60" stroke="#00C0D2" stroke-dasharray="1.5" stroke-linecap="round">
                        <path d="M13.805206,8.91782967 C14.6883369,8.04339347 15.2354054,6.83017636 15.2354054,5.48918454 C15.2354054,4.003435 14.5638518,2.67453521 13.5077259,1.78946653" id="Oval-Copy"></path>
                        <path d="M16.6822411,10.7072962 C18.008765,9.39383234 18.8304999,7.57149603 18.8304999,5.55723324 C18.8304999,3.32553431 17.8217798,1.32943459 16.2354054,0" id="Oval-Copy-4"></path>
                        <path d="M0.682241145,10.7072962 C2.008765,9.39383234 2.83049992,7.57149603 2.83049992,5.55723324 C2.83049992,3.32553431 1.82177978,1.32943459 0.235405404,0" id="Oval-Copy-10" transform="translate(1.532953, 5.353648) scale(-1, 1) translate(-1.532953, -5.353648) "></path>
                        <path d="M3.8925746,8.91782967 C4.77570546,8.04339347 5.322774,6.83017636 5.322774,5.48918454 C5.322774,4.003435 4.65122039,2.67453521 3.59509451,1.78946653" id="Oval-Copy-13" transform="translate(4.458934, 5.353648) scale(-1, 1) translate(-4.458934, -5.353648) "></path>
                    </g>
                    <g id="Group-12" transform="translate(9.747666, 7.805838)">
                        <path d="M14.3694671,2.46403133 L25.2976147,24.4074331 C25.6351307,25.0851555 25.359339,25.908169 24.6816165,26.245685 C24.4917702,26.3402314 24.282576,26.38944 24.0704896,26.38944 L2.2141946,26.38944 C1.45707848,26.38944 0.843314602,25.7756761 0.843314602,25.01856 C0.843314602,24.8064736 0.892523193,24.5972794 0.987069561,24.4074331 L11.9152171,2.46403133 C12.2527331,1.78630888 13.0757466,1.51051713 13.753469,1.8480332 C14.0203168,1.98092743 14.2365729,2.19718359 14.3694671,2.46403133 Z" id="Triangle" fill="#FC0000"></path>
                        <path d="M14.3196436,18.3123524 L14.3196436,8.90811559 L12.30445,8.90811559 L12.30445,18.3123524 L14.3196436,18.3123524 Z M14.6075284,22.3427396 L14.6075284,19.7709687 L12.0357575,19.7709687 L12.0357575,22.3427396 L14.6075284,22.3427396 Z" id="!" fill="#FFFFFF" fill-rule="nonzero"></path>
                    </g>
                </g>
            </g>
            <g id="Group-41" transform="translate(0.000000, 10.000000)">
                <polygon id="Path-5" fill="#00C0D2" points="8.10743297 9.06225586 5.24975586 12.758667 7.23461914 12.758667 5.24975586 16.0236816 9.76306152 11.8881836 7.94030762 11.8881836 10.5732422 9.06225586"></polygon>
                <path d="M4.44006348,10.4924316 C4.0526762,10.4924316 3.75030518,10.4924316 3.38598633,10.4924316 C1.14639632,10.4924316 0,9.35890321 0,7.65283203 C0,5.68664551 1.96203613,4.69494629 3.38598633,5.1385498 C3.38598633,4.6373291 3.50597238,0.682474916 7.05126953,0.5 C10.5732422,0.318725586 10.9293213,2.60662842 10.9293213,3.6307373 C12.9152832,3.15222168 16.2741871,4.15652207 16.5,6.6854248 C16.7590332,9.58636475 14.5828857,10.4924316 13.5456543,10.4924316 C12.8104873,10.4924316 12.0915338,10.4924316 11.3887939,10.4924316" id="Path-7" stroke="#00C0D2" stroke-linecap="round"></path>
                <line x1="2.69042969" y1="12.7967529" x2="1.19042969" y2="14.2967529" id="Line-6" stroke="#00C0D2" stroke-linecap="round"></line>
                <line x1="12.5324707" y1="13.2490234" x2="11.0324707" y2="14.7490234" id="Line-6-Copy" stroke="#00C0D2" stroke-linecap="round"></line>
            </g>
        </g>
    </g>
</svg>