<svg width="55" height="36" viewBox="0 0 55 36" fill="none" xmlns="http://www.w3.org/2000/svg">
<g id="Group 4 Copy 2">
<g id="icon_blarga_sconexao copy 4">
<g id="offline_icon copy 4">
<g id="Group 9">
<path id="Oval" fill-rule="evenodd" clip-rule="evenodd" d="M27.4199 35.4724C28.8347 35.4724 29.9817 34.3254 29.9817 32.9106C29.9817 31.4957 28.8347 30.3487 27.4199 30.3487C26.005 30.3487 24.858 31.4957 24.858 32.9106C24.858 34.3254 26.005 35.4724 27.4199 35.4724Z" fill="#00C0D2"/>
<path id="Oval Copy 2" d="M45.4778 19.8567C41.0327 14.9566 34.6145 11.8792 27.4774 11.8792C20.2785 11.8792 13.8109 15.0102 9.36195 19.9846" stroke="#00C0D2" stroke-width="2.6" stroke-linecap="round"/>
<path id="Oval Copy 5" opacity="0.2" d="M53.0326 13.3021C46.728 6.35182 37.6245 1.98701 27.5015 1.98701C17.2908 1.98701 8.11733 6.42783 1.80707 13.4834" stroke="#00C0D2" stroke-width="2.6" stroke-linecap="round"/>
<path id="Oval Copy 3" d="M37.2122 26.565C34.8018 23.9078 31.3213 22.239 27.4511 22.239C23.5473 22.239 20.0401 23.9368 17.6275 26.6344" stroke="#00C0D2" stroke-width="2.6" stroke-linecap="round"/>
</g>
</g>
</g>
</g>
</svg>
