<svg width="27" height="18" viewBox="0 0 27 18" fill="none" xmlns="http://www.w3.org/2000/svg">
<g clip-path="url(#clip0)">
<path d="M3.7008 9.4048C4.1808 9.4048 4.6032 9.5632 4.968 9.88C5.3424 10.1872 5.5296 10.648 5.5296 11.2624V11.392C4.9056 11.4304 4.3248 11.4784 3.7872 11.536C3.2592 11.5936 2.784 11.6848 2.3616 11.8096C1.7184 11.992 1.2864 12.2992 1.0656 12.7312C0.8544 13.1632 0.7488 13.5664 0.7488 13.9408C0.7488 14.6992 0.9984 15.256 1.4976 15.6112C2.0064 15.9664 2.5776 16.144 3.2112 16.144C3.7104 16.144 4.1616 16.072 4.5648 15.928C4.968 15.7744 5.2896 15.544 5.5296 15.2368V16H6.6096V11.2768C6.6096 10.192 6.2976 9.4384 5.6736 9.016C5.0496 8.584 4.392 8.368 3.7008 8.368C3.0576 8.368 2.4384 8.5504 1.8432 8.9152C1.248 9.28 0.9024 9.9232 0.8064 10.8448H1.9152C2.0016 10.3648 2.2128 10.0048 2.5488 9.7648C2.8944 9.5248 3.2784 9.4048 3.7008 9.4048ZM5.5296 13.3216C5.5296 13.8976 5.3232 14.3392 4.9104 14.6464C4.5072 14.9536 4.0176 15.1072 3.4416 15.1072C2.8944 15.1072 2.4864 14.992 2.2176 14.7616C1.9584 14.5312 1.8288 14.248 1.8288 13.912C1.8288 13.7008 1.8672 13.5088 1.944 13.336C2.0304 13.1632 2.208 13 2.4768 12.8464C2.7264 12.712 3.096 12.6112 3.5856 12.544C4.0752 12.4768 4.7232 12.4144 5.5296 12.3568V13.3216ZM11.1888 16.144C11.88 16.144 12.5376 15.9328 13.1616 15.5104C13.7856 15.0784 14.0976 14.32 14.0976 13.2352V11.2768C14.0976 10.192 13.7856 9.4384 13.1616 9.016C12.5376 8.584 11.88 8.368 11.1888 8.368C10.8528 8.368 10.5072 8.4448 10.152 8.5984C9.8064 8.752 9.5424 8.9776 9.36 9.2752V5.92H8.28V16H9.36V15.2368C9.5424 15.5344 9.8064 15.76 10.152 15.9136C10.5072 16.0672 10.8528 16.144 11.1888 16.144ZM13.0176 13.2496C13.0176 13.864 12.8304 14.3296 12.456 14.6464C12.0912 14.9536 11.6688 15.1072 11.1888 15.1072C10.7088 15.1072 10.2816 14.9536 9.9072 14.6464C9.5424 14.3296 9.36 13.864 9.36 13.2496V11.2624C9.36 10.648 9.5424 10.1872 9.9072 9.88C10.2816 9.5632 10.7088 9.4048 11.1888 9.4048C11.6688 9.4048 12.0912 9.5632 12.456 9.88C12.8304 10.1872 13.0176 10.648 13.0176 11.2624V13.2496ZM18.37 8.368C17.6788 8.368 17.0212 8.584 16.3972 9.016C15.7732 9.4384 15.4612 10.192 15.4612 11.2768V13.2352C15.4612 14.3296 15.7732 15.088 16.3972 15.5104C17.0212 15.9328 17.6788 16.144 18.37 16.144C19.0228 16.144 19.6468 15.9568 20.242 15.5824C20.8468 15.208 21.1876 14.5456 21.2644 13.5952H20.17C20.1028 14.0944 19.8916 14.4736 19.5364 14.7328C19.1908 14.9824 18.802 15.1072 18.37 15.1072C17.89 15.1072 17.4628 14.9536 17.0884 14.6464C16.7236 14.3296 16.5412 13.864 16.5412 13.2496V11.2624C16.5412 10.648 16.7236 10.1872 17.0884 9.88C17.4628 9.5632 17.89 9.4048 18.37 9.4048C18.802 9.4048 19.1908 9.5344 19.5364 9.7936C19.8916 10.0432 20.1028 10.4176 20.17 10.9168H21.2644C21.1876 9.9664 20.8468 9.304 20.242 8.9296C19.6468 8.5552 19.0228 8.368 18.37 8.368Z" fill="#227819"/>
<path fill-rule="evenodd" clip-rule="evenodd" d="M25.1484 5.99749C25.565 6.06348 25.9587 5.76361 26.0276 5.32808C26.0709 5.05514 25.9763 4.79378 25.7973 4.62031C24.3072 2.7799 22.1981 1.47276 19.7245 1.08097C17.242 0.687783 14.8237 1.28467 12.8335 2.5843C12.6092 2.69389 12.4381 2.91341 12.3948 3.18656C12.3258 3.62232 12.6075 4.02892 13.0241 4.09491C13.254 4.13131 13.4749 4.05367 13.6401 3.90566C15.3196 2.81615 17.3575 2.31753 19.4486 2.64873C21.5469 2.98106 23.3361 4.09151 24.5973 5.65518L24.6249 5.63412C24.7369 5.8224 24.9211 5.9615 25.1484 5.99749ZM19.2743 3.92051C17.6921 3.66991 16.1538 3.99091 14.862 4.72397C14.6199 4.81613 14.4316 5.0282 14.3884 5.30189C14.3239 5.70905 14.6022 6.09136 15.0101 6.15597C15.2366 6.19183 15.4532 6.11941 15.6184 5.98664C16.624 5.42447 17.8172 5.1793 19.0444 5.37367C20.265 5.567 21.3188 6.1636 22.1061 6.99786C22.2166 7.17662 22.3988 7.30966 22.6227 7.34513C23.0304 7.4097 23.4132 7.1321 23.4777 6.72494C23.5211 6.45129 23.4075 6.19119 23.2057 6.02895C22.205 4.94254 20.8475 4.16967 19.2743 3.92051Z" fill="#227819"/>
</g>
<defs>
<clipPath id="clip0">
<rect width="27" height="18" fill="white"/>
</clipPath>
</defs>
</svg>
