<svg width="24" height="16" viewBox="0 0 24 16" fill="none" xmlns="http://www.w3.org/2000/svg">
<g clip-path="url(#clip0)">
<path d="M4.11139 8.45566C4.54339 8.45566 4.92355 8.59822 5.25187 8.88334C5.58883 9.15982 5.75731 9.57454 5.75731 10.1275V10.2441C5.19571 10.2787 4.67299 10.3219 4.18915 10.3737C3.71395 10.4256 3.28627 10.5077 2.90611 10.62C2.32723 10.7841 1.93843 11.0606 1.73971 11.4494C1.54963 11.8382 1.45459 12.2011 1.45459 12.5381C1.45459 13.2206 1.67923 13.7217 2.12851 14.0414C2.58643 14.3611 3.10051 14.5209 3.67075 14.5209C4.12003 14.5209 4.52611 14.4561 4.88899 14.3265C5.25187 14.1883 5.54131 13.9809 5.75731 13.7045V14.3913H6.72931V10.1405C6.72931 9.16414 6.44851 8.4859 5.88691 8.10574C5.32531 7.71694 4.73347 7.52254 4.11139 7.52254C3.53251 7.52254 2.97523 7.6867 2.43955 8.01502C1.90387 8.34334 1.59283 8.92222 1.50643 9.75166H2.50435C2.58211 9.31966 2.77219 8.99566 3.07459 8.77966C3.38563 8.56366 3.73123 8.45566 4.11139 8.45566ZM5.75731 11.9808C5.75731 12.4992 5.57155 12.8966 5.20003 13.1731C4.83715 13.4496 4.39651 13.5878 3.87811 13.5878C3.38563 13.5878 3.01843 13.4841 2.77651 13.2768C2.54323 13.0694 2.42659 12.8145 2.42659 12.5121C2.42659 12.3221 2.46115 12.1493 2.53027 11.9937C2.60803 11.8382 2.76787 11.6913 3.00979 11.5531C3.23443 11.4321 3.56707 11.3414 4.00771 11.2809C4.44835 11.2205 5.03155 11.1643 5.75731 11.1125V11.9808Z" fill="#C9C9C9"/>
<path d="M10.8506 14.5209C11.4727 14.5209 12.0645 14.3309 12.6261 13.9507C13.1877 13.5619 13.4685 12.8793 13.4685 11.903V10.1405C13.4685 9.16414 13.1877 8.4859 12.6261 8.10574C12.0645 7.71694 11.4727 7.52254 10.8506 7.52254C10.5482 7.52254 10.2371 7.59166 9.91747 7.7299C9.60643 7.86814 9.36883 8.07118 9.20467 8.33902V5.31934H8.23267V14.3913H9.20467V13.7045C9.36883 13.9723 9.60643 14.1753 9.91747 14.3136C10.2371 14.4518 10.5482 14.5209 10.8506 14.5209ZM12.4965 11.916C12.4965 12.4689 12.328 12.888 11.9911 13.1731C11.6627 13.4496 11.2826 13.5878 10.8506 13.5878C10.4186 13.5878 10.0341 13.4496 9.69715 13.1731C9.36883 12.888 9.20467 12.4689 9.20467 11.916V10.1275C9.20467 9.57454 9.36883 9.15982 9.69715 8.88334C10.0341 8.59822 10.4186 8.45566 10.8506 8.45566C11.2826 8.45566 11.6627 8.59822 11.9911 8.88334C12.328 9.15982 12.4965 9.57454 12.4965 10.1275V11.916Z" fill="#C9C9C9"/>
<path d="M17.3137 7.52254C16.6916 7.52254 16.0998 7.71694 15.5382 8.10574C14.9766 8.4859 14.6958 9.16414 14.6958 10.1405V11.903C14.6958 12.888 14.9766 13.5705 15.5382 13.9507C16.0998 14.3309 16.6916 14.5209 17.3137 14.5209C17.9012 14.5209 18.4628 14.3525 18.9985 14.0155C19.5428 13.6785 19.8495 13.0824 19.9186 12.227H18.9337C18.8732 12.6763 18.6831 13.0176 18.3634 13.2509C18.0524 13.4755 17.7025 13.5878 17.3137 13.5878C16.8817 13.5878 16.4972 13.4496 16.1602 13.1731C15.8319 12.888 15.6678 12.4689 15.6678 11.916V10.1275C15.6678 9.57454 15.8319 9.15982 16.1602 8.88334C16.4972 8.59822 16.8817 8.45566 17.3137 8.45566C17.7025 8.45566 18.0524 8.5723 18.3634 8.80558C18.6831 9.03022 18.8732 9.36718 18.9337 9.81646H19.9186C19.8495 8.9611 19.5428 8.36494 18.9985 8.02798C18.4628 7.69102 17.9012 7.52254 17.3137 7.52254Z" fill="#C9C9C9"/>
<path fill-rule="evenodd" clip-rule="evenodd" d="M22.1896 5.95271C22.4964 6.00129 22.7861 5.78054 22.8369 5.45991C22.8687 5.25899 22.7991 5.06658 22.6673 4.93889C21.5704 3.58405 20.0178 2.62178 18.1968 2.33337C16.3693 2.04392 14.589 2.48332 13.1239 3.44006C12.9588 3.52073 12.8328 3.68233 12.8009 3.88342C12.7501 4.2042 12.9575 4.50353 13.2642 4.55211C13.4334 4.57891 13.5961 4.52175 13.7177 4.41279C14.9541 3.61073 16.4543 3.24367 17.9937 3.48748C19.5384 3.73214 20.8555 4.5496 21.7839 5.70071L21.8043 5.68521C21.8867 5.82382 22.0223 5.92621 22.1896 5.95271ZM17.8654 4.42372C16.7006 4.23924 15.5682 4.47555 14.6172 5.0152C14.439 5.08304 14.3003 5.23916 14.2686 5.44063C14.2211 5.74037 14.426 6.02181 14.7263 6.06938C14.893 6.09578 15.0524 6.04246 15.174 5.94472C15.9143 5.53088 16.7927 5.35039 17.6961 5.49348C18.5947 5.6358 19.3705 6.07499 19.95 6.68914C20.0314 6.82074 20.1655 6.91868 20.3303 6.94479C20.6305 6.99233 20.9123 6.78797 20.9598 6.48823C20.9917 6.28678 20.9081 6.0953 20.7595 5.97587C20.0228 5.1761 19.0235 4.60715 17.8654 4.42372Z" fill="#C9C9C9"/>
</g>
<defs>
<clipPath id="clip0">
<rect x="0.78064" y="0.691406" width="23" height="15" fill="white"/>
</clipPath>
</defs>
</svg>
