<?xml version="1.0" encoding="UTF-8"?>
<svg width="47px" height="69px" viewBox="0 0 47 69" version="1.1" xmlns="http://www.w3.org/2000/svg" xmlns:xlink="http://www.w3.org/1999/xlink">
    <title>Group 15</title>
    <g id="Page-1" stroke="none" stroke-width="1" fill="none" fill-rule="evenodd">
        <g id="Group-15" transform="translate(1.500000, 1.000000)" stroke="#00C0D2">
            <g id="Group-4">
                <g id="Group-3-Copy-4" transform="translate(11.132258, 19.741935)" stroke-width="1.3">
                    <path d="M0.839209019,3.18769751 C0.722306013,3.30460051 0.65,3.46610051 0.65,3.64448849 L0.65,27.278457 C0.65,27.3478373 0.683635269,27.4129122 0.740235534,27.4530375 L27.3257668,46.3001812 L27.3257668,22.8249128 C27.3257668,21.6214441 26.7357293,20.4944476 25.7466816,19.8087935 L1.66404658,3.11358575 C1.55594369,3.03864378 1.42753909,2.99848849 0.839209019,3.18769751 Z" id="Rectangle"></path>
                    <path d="M0.867741935,3.15240028 L4.50268349,1.29939021 C5.34896819,0.86797362 6.36344485,0.934035134 7.14663317,1.47156107 L29.7308972,16.9718275 C31.3743455,18.099776 32.3564924,19.9650681 32.3564924,21.9583543 C32.3564924,29.0577798 32.3564924,36.1572052 32.3564924,43.2566307 C32.3564924,43.2566307 30.7520696,44.5040378 27.5432239,46.9988522" id="Path-3"></path>
                </g>
                <g id="Group-4-Copy-2" stroke-linecap="round" stroke-width="1.5">
                    <g id="icon_blarga_sconexao-copy-4" transform="translate(0.000000, 0.330309)">
                        <g id="offline_icon-copy-4" transform="translate(0.164430, 0.164430)">
                            <g id="Group-9" transform="translate(0.070470, 0.174217)">
                                <path d="M27.3899726,11.1804216 C24.6476798,8.15733047 20.6880184,6.25881194 16.2849343,6.25881194 C11.8436741,6.25881194 7.85355924,8.1903946 5.10884161,11.259308" id="Oval-Copy-2"></path>
                                <path d="M32.0508414,7.13661632 C28.161258,2.84875707 22.5449965,0.155956959 16.2997978,0.155956959 C10.0004514,0.155956959 4.34099555,2.89565421 0.447972761,7.24850628" id="Oval-Copy-5"></path>
                                <path d="M22.2906302,15.3189973 C20.80356,13.6796578 18.6563443,12.6501433 16.2686725,12.6501433 C13.8602989,12.6501433 11.6965691,13.6975876 10.208184,15.3617752" id="Oval-Copy-3"></path>
                            </g>
                        </g>
                    </g>
                </g>
            </g>
            <line x1="12" y1="40.5" x2="38.1043203" y2="59.0845076" id="Line" stroke-width="1.3" stroke-linecap="square"></line>
        </g>
    </g>
</svg>