<?xml version="1.0" encoding="UTF-8"?>
<svg width="193px" height="193px" viewBox="0 0 193 193" version="1.1" xmlns="http://www.w3.org/2000/svg" xmlns:xlink="http://www.w3.org/1999/xlink">
    <!-- Generator: Sketch 48.2 (47327) - http://www.bohemiancoding.com/sketch -->
    <title>minha oi</title>
    <desc>Created with Sketch.</desc>
    <defs>
        <linearGradient x1="50%" y1="100%" x2="50%" y2="0%" id="linearGradient-1">
            <stop stop-color="#F24354" offset="0%"></stop>
            <stop stop-color="#EC2C85" offset="100%"></stop>
        </linearGradient>
    </defs>
    <g id="outros_apps" stroke="none" stroke-width="1" fill="none" fill-rule="evenodd" transform="translate(-50.000000, -234.000000)">
        <g id="Minha-Oi" transform="translate(50.000000, 234.000000)">
            <g id="minha-oi">
                <g id="Group-8">
                    <rect id="Background" fill="url(#linearGradient-1)" x="0" y="0" width="193" height="193" rx="18"></rect>
                    <path d="M75.4677348,36.1757322 C150.782523,-20.6980511 165.197403,86.4644499 158.559162,140.689159 C149.489836,214.765431 -63.4554219,136.688923 74.1978731,37.1090144 L75.4677348,36.1757322 Z M104.065771,125.042429 C107.554062,125.042429 110.381274,116.739256 110.381274,106.490226 C110.381274,96.2420641 107.554062,87.9333927 104.065771,87.9333927 C100.58008,87.9333927 97.7404441,96.2420641 97.7404441,106.490226 C97.7404441,116.739256 100.58008,125.042429 104.065771,125.042429 Z M75.8924667,125.030275 C86.2539023,125.030275 93.1539175,116.805816 93.1539175,106.469969 C93.1539175,96.1471443 86.2539023,87.9131354 75.8924667,87.9131354 C65.5038713,87.9131354 58.595766,96.1471443 58.595766,106.469969 C58.595766,116.805816 65.5038713,125.030275 75.8924667,125.030275 Z M75.89238,96.6828048 C80.6398424,96.6828048 83.2711576,101.447319 83.2711576,106.410355 C83.2711576,111.381493 80.6398424,116.282599 75.89238,116.282599 C71.1284484,116.282599 68.4916435,111.381493 68.4916435,106.410355 C68.4916435,101.447319 71.1284484,96.6828048 75.89238,96.6828048 Z M103.986314,70.9001967 C100.565056,70.9001967 97.7921631,73.6844163 97.7921631,77.1084767 C97.7921631,80.5429552 100.565056,83.3297793 103.986314,83.3297793 C107.420286,83.3297793 110.188267,80.5429552 110.188267,77.1084767 C110.188267,73.6844163 107.420286,70.9001967 103.986314,70.9001967 Z" id="Oi" fill="#FFFFFF"></path>
                </g>
            </g>
        </g>
    </g>
</svg>