<?xml version="1.0" encoding="UTF-8"?>
<svg width="193px" height="193px" viewBox="0 0 193 193" version="1.1" xmlns="http://www.w3.org/2000/svg" xmlns:xlink="http://www.w3.org/1999/xlink">
    <!-- Generator: Sketch 48.2 (47327) - http://www.bohemiancoding.com/sketch -->
    <title>oiplay</title>
    <desc>Created with Sketch.</desc>
    <defs>
        <linearGradient x1="50%" y1="100%" x2="50%" y2="0%" id="linearGradient-1">
            <stop stop-color="#F24354" offset="0%"></stop>
            <stop stop-color="#EC2C85" offset="100%"></stop>
        </linearGradient>
        <rect id="path-2" x="0" y="0" width="193" height="193" rx="18"></rect>
        <linearGradient x1="1.13677979%" y1="0%" x2="95.7794189%" y2="94.2436218%" id="linearGradient-4">
            <stop stop-color="#C800FF" offset="0%"></stop>
            <stop stop-color="#2778FF" offset="50.5022321%"></stop>
            <stop stop-color="#00CEFF" offset="100%"></stop>
        </linearGradient>
    </defs>
    <g id="outros_apps" stroke="none" stroke-width="1" fill="none" fill-rule="evenodd" transform="translate(-50.000000, -878.000000)" opacity="0.900000036">
        <g id="Oi-Play" transform="translate(50.000000, 878.000000)">
            <g id="oiplay">
                <g id="Group-8">
                    <mask id="mask-3" fill="white">
                        <use xlink:href="#path-2"></use>
                    </mask>
                    <use id="Background" fill="url(#linearGradient-1)" xlink:href="#path-2"></use>
                    <rect id="Rectangle" fill="url(#linearGradient-4)" mask="url(#mask-3)" x="0" y="0" width="193" height="193"></rect>
                    <path d="M121.892665,88.7293197 C124.254773,88.7293197 125.225862,90.2253216 125.225862,91.9837801 C125.225862,93.7422385 124.254773,95.2382405 121.892665,95.2382405 L117.719607,95.2382405 L117.719607,88.7293197 L121.892665,88.7293197 Z M117.719607,98.0202792 L121.892665,98.0202792 C126.14446,98.0202792 128.086638,95.2644861 128.086638,92.0100257 C128.086638,88.7555653 126.14446,85.9997722 121.892665,85.9997722 L114.911322,85.9997722 L114.911322,104.371726 L117.719607,104.371726 L117.719607,98.0202792 Z M130.632466,104.371726 L141.471919,104.371726 L141.471919,101.589687 L133.44075,101.589687 L133.44075,85.9997722 L130.632466,85.9997722 L130.632466,104.371726 Z M154.778462,104.371726 L157.665484,104.371726 L151.2353,85.9997722 L148.348278,85.9997722 L141.918095,104.371726 L144.805116,104.371726 L146.353609,99.9362115 L153.229969,99.9362115 L154.778462,104.371726 Z M147.245961,97.3378923 L149.791789,90.0416021 L152.337617,97.3378923 L147.245961,97.3378923 Z M165.40795,97.364138 L165.40795,104.371726 L162.599665,104.371726 L162.599665,97.364138 L156.143236,85.9997722 L159.240222,85.9997722 L164.01693,94.450871 L168.793638,85.9997722 L171.890625,85.9997722 L165.40795,97.364138 Z M85.2629436,79.4712484 C76.5300042,73.6858989 69.8626627,61.0664062 51.9009492,61.0664062 C31.719632,61.0664062 21.109375,79.5110066 21.109375,95.2087884 C21.109375,118.125042 40.5096952,131.92875 64.2124301,131.92875 C85.8733308,131.92875 102.470623,116.241327 102.470623,103.552524 C102.470623,91.6483741 94.9773465,85.906591 85.2629436,79.4712484 Z M69.1209669,111.045952 C67.2831028,111.045952 65.7861537,106.675294 65.7861537,101.280366 C65.7861537,95.8858962 67.2831028,91.5123433 69.1209669,91.5123433 C70.9600497,91.5123433 72.4506009,95.8858962 72.4506009,101.280366 C72.4506009,106.675294 70.9600497,111.045952 69.1209669,111.045952 Z M69.0790761,82.5463386 C70.8895208,82.5463386 72.3488444,84.0119077 72.3488444,85.8142789 C72.3488444,87.622134 70.8895208,89.089074 69.0790761,89.089074 C67.2753339,89.089074 65.8134207,87.622134 65.8134207,85.8142789 C65.8134207,84.0119077 67.2753339,82.5463386 69.0790761,82.5463386 Z M54.2675516,111.039554 C48.7905184,111.039554 45.1484551,106.71033 45.1484551,101.269703 C45.1484551,95.8359319 48.7905184,91.50168 54.2675516,91.50168 C59.7301134,91.50168 63.3680637,95.8359319 63.3680637,101.269703 C63.3680637,106.71033 59.7301134,111.039554 54.2675516,111.039554 Z M54.2675058,96.1178799 C51.7558852,96.1178799 50.3657196,98.6258446 50.3657196,101.238308 C50.3657196,103.855037 51.7558852,106.434901 54.2675058,106.434901 C56.7704437,106.434901 58.1577151,103.855037 58.1577151,101.238308 C58.1577151,98.6258446 56.7704437,96.1178799 54.2675058,96.1178799 Z" id="logo" fill="#FFFFFF" fill-rule="nonzero" mask="url(#mask-3)"></path>
                </g>
            </g>
        </g>
    </g>
</svg>