<?xml version="1.0" encoding="UTF-8"?>
<svg width="193px" height="193px" viewBox="0 0 193 193" version="1.1" xmlns="http://www.w3.org/2000/svg" xmlns:xlink="http://www.w3.org/1999/xlink">
    <!-- Generator: Sketch 48.2 (47327) - http://www.bohemiancoding.com/sketch -->
    <title>icon-oi-wifi</title>
    <desc>Created with Sketch.</desc>
    <defs>
        <linearGradient x1="7.67059326%" y1="2.5970459%" x2="95.0836182%" y2="100%" id="linearGradient-1">
            <stop stop-color="#FFFF00" offset="0%"></stop>
            <stop stop-color="#FF6D00" offset="49.3671084%"></stop>
            <stop stop-color="#EA288C" offset="100%"></stop>
        </linearGradient>
        <polygon id="path-2" points="6.610976e-05 99.4139908 93.3241749 99.4139908 93.3241749 0.0313672872 6.610976e-05 0.0313672872"></polygon>
        <polygon id="path-4" points="6.610976e-05 99.4139908 93.3241749 99.4139908 93.3241749 0.0313672872 6.610976e-05 0.0313672872"></polygon>
    </defs>
    <g id="outros_apps" stroke="none" stroke-width="1" fill="none" fill-rule="evenodd" transform="translate(-50.000000, -1200.000000)">
        <g id="Oi-Wifi" transform="translate(50.000000, 1200.000000)">
            <g id="icon-oi-wifi">
                <rect id="Fundo" fill="url(#linearGradient-1)" fill-rule="nonzero" x="0" y="0" width="193" height="193" rx="24"></rect>
                <path d="M0,24.5047788 C0,10.9711632 10.9732335,0 24.5047788,0 L168.495221,0 C182.028837,0 193,10.9732335 193,24.5047788 L193,168.495221 C193,182.028837 182.026766,193 168.495221,193 L24.5047788,193 C10.9711632,193 0,182.026766 0,168.495221 L0,24.5047788 Z" id="Combined-Shape" fill="url(#linearGradient-1)" fill-rule="nonzero"></path>
                <g id="Logo-Oi" transform="translate(19.224609, 15.832031)">
                    <g id="Group-5" transform="translate(0.000000, 0.174540)">
                        <g id="Fill-3-Clipped">
                            <mask id="mask-3" fill="white">
                                <use xlink:href="#path-2"></use>
                            </mask>
                            <g id="path-2"></g>
                            <path d="M61.62212,69.5303509 C59.1377834,69.5303509 57.1142789,63.6247893 57.1142789,56.3352533 C57.1142789,49.0463349 59.1377834,43.1368627 61.62212,43.1368627 C64.1081043,43.1368627 66.1229604,49.0463349 66.1229604,56.3352533 C66.1229604,63.6247893 64.1081043,69.5303509 61.62212,69.5303509 M61.5654942,31.0221461 C64.0127668,31.0221461 65.9854109,33.0023987 65.9854109,35.4377327 C65.9854109,37.8804765 64.0127668,39.8625815 61.5654942,39.8625815 C59.1272818,39.8625815 57.1511375,37.8804765 57.1511375,35.4377327 C57.1511375,33.0023987 59.1272818,31.0221461 61.5654942,31.0221461 M41.5439826,69.5217061 C34.1403908,69.5217061 29.2172236,63.6721294 29.2172236,56.3208455 C29.2172236,48.9788239 34.1403908,43.1224548 41.5439826,43.1224548 C48.9280126,43.1224548 53.8456205,48.9788239 53.8456205,56.3208455 C53.8456205,63.6721294 48.9280126,69.5217061 41.5439826,69.5217061 M88.8911419,15.766318 C71.177706,-9.93538894 11.3878588,-4.22206897 1.78326593,33.4294878 C-6.72607722,66.7868953 16.4051282,92.8572368 45.9636935,98.573438 C58.6162061,101.019887 77.2529548,99.2880663 77.2529548,77.4087552 C77.2529548,42.2662184 103.521652,36.9943953 88.8911419,15.766318" id="Fill-3" fill="#FFFFFF" fill-rule="nonzero" mask="url(#mask-3)"></path>
                        </g>
                        <g id="Fill-1-Clipped">
                            <mask id="mask-5" fill="white">
                                <use xlink:href="#path-4"></use>
                            </mask>
                            <g id="path-2"></g>
                            <path d="M41.6735841,49.3635127 C38.2784952,49.3635127 36.3993357,52.7522332 36.3993357,56.2821502 C36.3993357,59.8178305 38.2784952,63.3037008 41.6735841,63.3037008 C45.056936,63.3037008 46.9321831,59.8178305 46.9321831,56.2821502 C46.9321831,52.7522332 45.056936,49.3635127 41.6735841,49.3635127" id="Fill-1" fill="#FFFFFF" fill-rule="nonzero" mask="url(#mask-5)"></path>
                        </g>
                    </g>
                </g>
                <g id="Page-1" transform="translate(70.113281, 95.369141)" fill="#FFFFFF" fill-rule="nonzero">
                    <path d="M107.411693,23.1692501 C93.5804142,8.48344938 74.3852361,0 53.8416085,0 C33.2989102,0 14.1038284,8.48340684 0.271616217,23.1691525 L5.75963378,28.3382072 C18.1828038,15.1484503 35.4002761,7.5390625 53.8416085,7.5390625 C72.2838272,7.5390625 89.5012973,15.1484494 101.923491,28.3381097 L107.411693,23.1692501 Z" id="Stroke-1"></path>
                    <path d="M20.8378922,42.4721011 C29.3201284,33.4655266 41.0718571,28.2714844 53.6627851,28.2714844 C66.2540311,28.2714844 78.0065844,33.4657895 86.4875424,42.4719568 L91.9760989,37.3034744 C82.0859972,26.8008977 68.3555591,20.7324219 53.6627851,20.7324219 C38.9703726,20.7324219 25.240912,26.8005841 15.3496078,37.3033299 L20.8378922,42.4721011 Z" id="Stroke-3"></path>
                    <path d="M75.1141851,51.7691178 C69.6402592,45.9562139 62.035908,42.5957031 53.9012812,42.5957031 C45.7674446,42.5957031 38.1631474,45.9563164 32.6893181,51.7691178 L38.1778694,56.9376059 C42.2425015,52.6212675 47.8688849,50.1347656 53.9012812,50.1347656 C59.9345071,50.1347656 65.5609299,52.6211915 69.6256338,56.9376059 L75.1141851,51.7691178 Z" id="Stroke-5"></path>
                    <circle id="Oval-1" cx="54.1255521" cy="69.9575833" r="7.00641133"></circle>
                </g>
            </g>
        </g>
    </g>
</svg>