<svg width="1230" height="186" viewBox="0 0 1230 186" fill="none" xmlns="http://www.w3.org/2000/svg">
<rect width="1230" height="186" fill="#F3F3F3"/>
<g filter="url(#filter0_i)">
<path d="M607.494 30C722.703 32.8032 837.523 61.8937 917.61 107.454C1001.74 155.312 1077.65 198.499 1170.67 176.003C1207.97 166.986 1398.76 101.626 1326.96 -199.674C1304.94 -292.092 1242.47 -382.316 1163.72 -423.227C966.263 -526.33 775.98 -377.926 628.385 -227.632C621.085 -220.198 614.111 -212.213 607.494 -203.832C600.799 -211.911 593.645 -219.869 586.021 -227.632C438.426 -377.926 248.143 -526.329 50.6895 -423.227C-28.061 -382.315 -90.5314 -292.092 -112.556 -199.674C-184.358 101.626 6.43512 166.986 43.7336 176.003C136.753 198.5 212.669 155.313 296.796 107.454C376.884 61.8939 492.286 27.1968 607.494 30Z" fill="url(#paint0_linear)"/>
</g>
<defs>
<filter id="filter0_i" x="-128.567" y="-461.492" width="1471.54" height="643.624" filterUnits="userSpaceOnUse" color-interpolation-filters="sRGB">
<feFlood flood-opacity="0" result="BackgroundImageFix"/>
<feBlend mode="normal" in="SourceGraphic" in2="BackgroundImageFix" result="shape"/>
<feColorMatrix in="SourceAlpha" type="matrix" values="0 0 0 0 0 0 0 0 0 0 0 0 0 0 0 0 0 0 127 0" result="hardAlpha"/>
<feOffset dy="-4"/>
<feGaussianBlur stdDeviation="7.5"/>
<feComposite in2="hardAlpha" operator="arithmetic" k2="-1" k3="1"/>
<feColorMatrix type="matrix" values="0 0 0 0 0 0 0 0 0 0 0 0 0 0 0 0 0 0 0.25 0"/>
<feBlend mode="normal" in2="shape" result="effect1_innerShadow"/>
</filter>
<linearGradient id="paint0_linear" x1="484" y1="270" x2="503.182" y2="-121.567" gradientUnits="userSpaceOnUse">
<stop stop-color="#FFE600"/>
<stop offset="0.127943" stop-color="#D9E510"/>
<stop offset="0.721514" stop-color="#52B847"/>
</linearGradient>
</defs>
</svg>
