<svg width="278" height="445" viewBox="0 0 278 445" fill="none" xmlns="http://www.w3.org/2000/svg">
<path d="M37.0319 331.946V324.526H1.96191V331.946H15.7519V373.526H23.2419V331.946H37.0319Z" fill="#50B748"/>
<path d="M57.269 313.746L51.529 321.376H57.899L66.859 313.746H57.269ZM49.709 331.946H71.129V324.526H42.219V373.526H71.129V366.106H49.709V352.526H71.129V345.106H49.709V331.946Z" fill="#50B748"/>
<path d="M113.439 358.336H105.949C105.809 359.736 105.412 360.973 104.759 362.046C104.152 363.119 103.382 364.006 102.449 364.706C101.515 365.406 100.489 365.943 99.3686 366.316C98.2486 366.643 97.1052 366.806 95.9386 366.806C94.6786 366.806 93.4419 366.619 92.2286 366.246C91.0619 365.826 89.9886 365.219 89.0086 364.426C88.0286 363.586 87.2586 362.536 86.6986 361.276C86.1386 360.016 85.8586 358.569 85.8586 356.936V341.116C85.8586 339.483 86.1386 338.036 86.6986 336.776C87.2586 335.516 88.0286 334.489 89.0086 333.696C89.9886 332.856 91.0619 332.249 92.2286 331.876C93.4419 331.456 94.6786 331.246 95.9386 331.246C97.1052 331.246 98.2486 331.433 99.3686 331.806C100.489 332.133 101.515 332.646 102.449 333.346C103.382 334.046 104.152 334.933 104.759 336.006C105.412 337.079 105.809 338.316 105.949 339.716H113.439C113.299 337.289 112.785 335.096 111.899 333.136C111.012 331.176 109.799 329.496 108.259 328.096C106.719 326.696 104.899 325.646 102.799 324.946C100.699 324.199 98.4119 323.826 95.9386 323.826C93.3252 323.826 90.9452 324.223 88.7986 325.016C86.6519 325.809 84.7852 326.976 83.1986 328.516C81.6586 330.009 80.4686 331.829 79.6286 333.976C78.7886 336.123 78.3686 338.503 78.3686 341.116V356.936C78.3686 359.549 78.7886 361.929 79.6286 364.076C80.4686 366.223 81.6586 368.066 83.1986 369.606C84.7852 371.099 86.6519 372.243 88.7986 373.036C90.9452 373.829 93.3252 374.226 95.9386 374.226C98.4119 374.226 100.675 373.853 102.729 373.106C104.829 372.359 106.649 371.309 108.189 369.956C109.729 368.556 110.942 366.876 111.829 364.916C112.762 362.956 113.299 360.763 113.439 358.336Z" fill="#50B748"/>
<path d="M156.221 324.526H148.731V359.666L128.571 324.526H121.081V373.526H128.571V338.386L148.731 373.526H156.221V324.526Z" fill="#50B748"/>
<path d="M191.143 331.946V324.526H165.033V331.946H174.343V366.106H165.033V373.526H191.143V366.106H181.833V331.946H191.143Z" fill="#50B748"/>
<path d="M232.449 358.336H224.959C224.819 359.736 224.423 360.973 223.769 362.046C223.163 363.119 222.393 364.006 221.459 364.706C220.526 365.406 219.499 365.943 218.379 366.316C217.259 366.643 216.116 366.806 214.949 366.806C213.689 366.806 212.453 366.619 211.239 366.246C210.073 365.826 208.999 365.219 208.019 364.426C207.039 363.586 206.269 362.536 205.709 361.276C205.149 360.016 204.869 358.569 204.869 356.936V341.116C204.869 339.483 205.149 338.036 205.709 336.776C206.269 335.516 207.039 334.489 208.019 333.696C208.999 332.856 210.073 332.249 211.239 331.876C212.453 331.456 213.689 331.246 214.949 331.246C216.116 331.246 217.259 331.433 218.379 331.806C219.499 332.133 220.526 332.646 221.459 333.346C222.393 334.046 223.163 334.933 223.769 336.006C224.423 337.079 224.819 338.316 224.959 339.716H232.449C232.309 337.289 231.796 335.096 230.91 333.136C230.023 331.176 228.81 329.496 227.27 328.096C225.73 326.696 223.909 325.646 221.809 324.946C219.709 324.199 217.423 323.826 214.949 323.826C212.336 323.826 209.956 324.223 207.809 325.016C205.663 325.809 203.796 326.976 202.209 328.516C200.669 330.009 199.479 331.829 198.639 333.976C197.799 336.123 197.379 338.503 197.379 341.116V356.936C197.379 359.549 197.799 361.929 198.639 364.076C199.479 366.223 200.669 368.066 202.209 369.606C203.796 371.099 205.663 372.243 207.809 373.036C209.956 373.829 212.336 374.226 214.949 374.226C217.423 374.226 219.686 373.853 221.739 373.106C223.839 372.359 225.659 371.309 227.199 369.956C228.739 368.556 229.953 366.876 230.839 364.916C231.773 362.956 232.309 360.763 232.449 358.336Z" fill="#50B748"/>
<path d="M238.622 356.936C238.622 359.549 239.042 361.929 239.882 364.076C240.722 366.223 241.912 368.066 243.452 369.606C245.039 371.099 246.905 372.243 249.052 373.036C251.199 373.829 253.579 374.226 256.192 374.226C258.805 374.226 261.185 373.829 263.332 373.036C265.479 372.243 267.322 371.099 268.862 369.606C270.449 368.066 271.662 366.223 272.502 364.076C273.342 361.929 273.762 359.549 273.762 356.936V341.116C273.762 338.503 273.342 336.123 272.502 333.976C271.662 331.829 270.449 330.009 268.862 328.516C267.322 326.976 265.479 325.809 263.332 325.016C261.185 324.223 258.805 323.826 256.192 323.826C253.579 323.826 251.199 324.223 249.052 325.016C246.905 325.809 245.039 326.976 243.452 328.516C241.912 330.009 240.722 331.829 239.882 333.976C239.042 336.123 238.622 338.503 238.622 341.116V356.936ZM266.272 356.936C266.272 358.569 265.992 360.016 265.432 361.276C264.872 362.536 264.102 363.586 263.122 364.426C262.142 365.219 261.045 365.826 259.832 366.246C258.665 366.619 257.452 366.806 256.192 366.806C254.932 366.806 253.695 366.619 252.482 366.246C251.315 365.826 250.242 365.219 249.262 364.426C248.282 363.586 247.512 362.536 246.952 361.276C246.392 360.016 246.112 358.569 246.112 356.936V341.116C246.112 339.483 246.392 338.036 246.952 336.776C247.512 335.516 248.282 334.489 249.262 333.696C250.242 332.856 251.315 332.249 252.482 331.876C253.695 331.456 254.932 331.246 256.192 331.246C257.452 331.246 258.665 331.456 259.832 331.876C261.045 332.249 262.142 332.856 263.122 333.696C264.102 334.489 264.872 335.516 265.432 336.776C265.992 338.036 266.272 339.483 266.272 341.116V356.936Z" fill="#50B748"/>
<path d="M112.087 443.474H106.207L93.1873 407.354H98.7873L109.147 436.684L119.507 407.354H125.107L112.087 443.474Z" fill="#50B748"/>
<path d="M135.386 394.474H130.136V401.264H135.386V394.474ZM135.386 407.354H130.136V443.474H135.386V407.354Z" fill="#50B748"/>
<path d="M150.484 407.354H145.234V443.474H150.484V420.794C150.484 417.807 151.371 415.567 153.144 414.074C154.964 412.534 157.041 411.764 159.374 411.764H161.684V406.724H159.374C157.741 406.724 156.061 407.097 154.334 407.844C152.654 408.591 151.371 409.687 150.484 411.134V407.354Z" fill="#50B748"/>
<path d="M174.439 435.284C174.439 436.451 174.673 437.267 175.139 437.734C175.653 438.201 176.539 438.434 177.799 438.434H183.329V443.474H177.799C174.439 443.474 172.153 442.821 170.939 441.514C169.773 440.161 169.189 437.944 169.189 434.864V412.394H164.079V407.354H169.189V399.164H174.439V407.354H183.329V412.394H174.439V435.284Z" fill="#50B748"/>
<path d="M204.182 444.174C205.722 444.174 207.332 443.801 209.012 443.054C210.692 442.307 211.975 441.211 212.862 439.764V443.474H218.112V407.354H212.862V430.104C212.862 433.044 211.952 435.284 210.132 436.824C208.359 438.364 206.375 439.134 204.182 439.134C202.035 439.134 200.052 438.411 198.232 436.964C196.412 435.471 195.502 433.114 195.502 429.894V407.354H190.252V430.244C190.252 435.564 191.839 439.227 195.012 441.234C198.185 443.194 201.242 444.174 204.182 444.174Z" fill="#50B748"/>
<path d="M240.728 411.414C243.061 411.414 245.115 412.184 246.888 413.724C248.708 415.217 249.618 417.457 249.618 420.444V421.074C246.585 421.261 243.761 421.494 241.148 421.774C238.581 422.054 236.271 422.497 234.218 423.104C231.091 423.991 228.991 425.484 227.918 427.584C226.891 429.684 226.378 431.644 226.378 433.464C226.378 437.151 227.591 439.857 230.018 441.584C232.491 443.311 235.268 444.174 238.348 444.174C240.775 444.174 242.968 443.824 244.928 443.124C246.888 442.377 248.451 441.257 249.618 439.764V443.474H254.868V420.514C254.868 415.241 253.351 411.577 250.318 409.524C247.285 407.424 244.088 406.374 240.728 406.374C237.601 406.374 234.591 407.261 231.698 409.034C228.805 410.807 227.125 413.934 226.658 418.414H232.048C232.468 416.081 233.495 414.331 235.128 413.164C236.808 411.997 238.675 411.414 240.728 411.414ZM249.618 430.454C249.618 433.254 248.615 435.401 246.608 436.894C244.648 438.387 242.268 439.134 239.468 439.134C236.808 439.134 234.825 438.574 233.518 437.454C232.258 436.334 231.628 434.957 231.628 433.324C231.628 432.297 231.815 431.364 232.188 430.524C232.608 429.684 233.471 428.891 234.778 428.144C235.991 427.491 237.788 427.001 240.168 426.674C242.548 426.347 245.698 426.044 249.618 425.764V430.454Z" fill="#50B748"/>
<path d="M269.387 435.284C269.387 436.451 269.62 437.267 270.087 437.734C270.6 438.201 271.487 438.434 272.747 438.434H273.867V443.474H272.747C269.387 443.474 267.1 442.821 265.887 441.514C264.72 440.161 264.137 437.944 264.137 434.864V394.474H269.387V435.284Z" fill="#50B748"/>
<path d="M30.7621 159.762C64.6732 210.887 135.716 284.283 215.824 249.495C306.284 210.196 277.435 77.07 250.517 30.501C232.48 -0.790403 212.419 -11.2822 179.198 17.0181C141.606 48.9537 106.59 50.9785 74.0137 48.0794C-18.5632 39.8884 -11.7534 95.6607 30.7621 159.762Z" fill="url(#paint0_linear)"/>
<path fill-rule="evenodd" clip-rule="evenodd" d="M193.255 94.9754C191.446 99.3324 187.196 102.164 182.493 102.145C179.423 102.157 176.475 100.939 174.304 98.7603C172.133 96.5818 170.919 93.6235 170.931 90.5426C170.912 85.8228 173.734 81.5581 178.076 79.7433C182.417 77.9284 187.422 78.922 190.747 82.2595C194.073 85.5969 195.063 90.6184 193.255 94.9754ZM170.7 145.491C170.7 126.324 175.972 110.777 182.493 110.777H182.632C189.153 110.777 194.286 126.324 194.286 145.491C194.286 164.658 189.014 180.204 182.493 180.204C175.972 180.204 170.7 164.658 170.7 145.491ZM129.909 110.777C110.485 110.777 97.5361 126.185 97.5361 145.491C97.5361 164.797 110.393 180.204 129.909 180.204C149.426 180.204 162.283 164.843 162.283 145.491C162.283 126.138 149.38 110.73 130.048 110.73L129.909 110.777ZM116.035 145.305C116.035 154.587 121.03 163.869 129.909 163.869L130.048 163.776C138.881 163.776 143.784 154.587 143.784 145.305C143.784 136.023 138.835 127.113 129.909 127.113C120.984 127.113 116.035 136.023 116.035 145.305Z" fill="white"/>
<defs>
<linearGradient id="paint0_linear" x1="164.937" y1="290.144" x2="333.11" y2="97.0697" gradientUnits="userSpaceOnUse">
<stop stop-color="#FFF100"/>
<stop offset="0.07" stop-color="#D7E410"/>
<stop offset="0.18" stop-color="#A7D424"/>
<stop offset="0.27" stop-color="#81C734"/>
<stop offset="0.36" stop-color="#66BE3F"/>
<stop offset="0.44" stop-color="#56B946"/>
<stop offset="0.5" stop-color="#50B748"/>
<stop offset="1" stop-color="#50B748"/>
</linearGradient>
</defs>
</svg>
