<svg width="103" height="103" viewBox="0 0 103 103" fill="none" xmlns="http://www.w3.org/2000/svg">
<path d="M45.9938 33.804C45.9938 33.3116 46.5469 33.0221 46.9516 33.3026L75.3884 53.0163C76.7225 53.9412 77.5184 55.4614 77.5184 57.0847V84.2514L45.9938 61.9028V33.804Z" stroke="#00C0D2" stroke-width="2.5"/>
<path fill-rule="evenodd" clip-rule="evenodd" d="M44.7438 50.3286L78.7068 74.3706V78.3714L44.7438 54.3294V50.3286Z" fill="#00C0D2"/>
<path d="M46.3092 33.5388L50.7172 30.8262C51.9861 30.0453 53.5984 30.0968 54.8149 30.957L80.4276 49.0681C82.7285 50.6951 84.0964 53.3378 84.0964 56.1558V81.4388L77.9967 85.2888" stroke="#00C0D2" stroke-width="2.5"/>
<line x1="30.2216" y1="34.1296" x2="45.3445" y2="42.4019" stroke="#00C0D2" stroke-width="2.5" stroke-dasharray="2 2"/>
<line x1="64.444" y1="37.9546" x2="75.2479" y2="26.9838" stroke="#00C0D2" stroke-width="2.5" stroke-dasharray="2 2"/>
<line x1="55.7607" y1="70.1051" x2="46.7197" y2="79.2504" stroke="#00C0D2" stroke-width="2.5" stroke-dasharray="2 2"/>
<path fill-rule="evenodd" clip-rule="evenodd" d="M101.464 16.4586C101.464 7.98733 94.5717 1.09485 86.1004 1.09485C77.629 1.09485 70.7366 7.98733 70.7366 16.4586C70.7366 20.9331 72.6607 24.9663 75.7234 27.7765L75.7088 27.7893L76.2072 28.2094C76.2241 28.2237 76.2417 28.2366 76.2593 28.2494C76.2755 28.2613 76.2917 28.2731 76.3072 28.286C76.572 28.5055 76.8463 28.7139 77.1257 28.9156L77.126 28.9158L77.126 28.9159C77.2164 28.9811 77.3068 29.0464 77.3989 29.11C77.6972 29.3156 78.0034 29.5106 78.3162 29.6955C78.3843 29.7357 78.4529 29.7747 78.5215 29.8138L78.5218 29.814C78.8643 30.009 79.214 30.1928 79.5721 30.3615C79.5852 30.3676 79.5984 30.3734 79.6116 30.3793L79.6118 30.3794C79.6251 30.3852 79.6383 30.3911 79.6515 30.3972C80.8186 30.9397 82.0644 31.3381 83.3673 31.5733L83.4701 31.5917C83.8746 31.6615 84.2835 31.7174 84.6975 31.7548C84.7229 31.7571 84.7483 31.7589 84.7738 31.7608L84.7739 31.7608C84.7988 31.7626 84.8238 31.7644 84.8489 31.7666C85.2612 31.8007 85.678 31.8224 86.1004 31.8224C86.5188 31.8224 86.9317 31.8006 87.3417 31.7677C87.3677 31.7655 87.3937 31.7636 87.4197 31.7618C87.4457 31.76 87.4716 31.7582 87.4976 31.756C87.9083 31.7185 88.3139 31.6643 88.7144 31.5956L88.7652 31.5866C88.7832 31.5834 88.8011 31.5801 88.8189 31.5766C90.1022 31.3464 91.3302 30.957 92.4822 30.4285C92.4998 30.4204 92.5175 30.4125 92.5353 30.4045C92.5603 30.3934 92.5853 30.3822 92.6101 30.3704C92.9548 30.2084 93.2917 30.0335 93.6219 29.8475C93.704 29.8011 93.7856 29.7542 93.8672 29.7061C94.1677 29.529 94.4633 29.3441 94.7504 29.1475C94.8333 29.091 94.9147 29.0321 94.9964 28.973L95.0572 28.929C95.3024 28.7525 95.5432 28.5703 95.7773 28.3798C95.8006 28.361 95.8247 28.3434 95.8488 28.3257L95.8488 28.3257C95.8784 28.304 95.9079 28.2823 95.936 28.2586L96.4472 27.8318L96.4321 27.8189C99.5216 25.0076 101.464 20.956 101.464 16.4586ZM71.853 16.4586C71.853 8.603 78.2438 2.21222 86.0995 2.21222C93.9551 2.21222 100.346 8.603 100.346 16.4586C100.346 20.6918 98.4883 24.4975 95.5473 27.1088C95.3831 26.9954 95.2177 26.8937 95.0484 26.8088L90.3181 24.4439C89.8935 24.2316 89.6298 23.8048 89.6298 23.3305V21.6784C89.7393 21.5432 89.8549 21.3901 89.9745 21.222C90.5868 20.3571 91.0779 19.3951 91.436 18.3598C92.1438 18.0235 92.6009 17.3185 92.6009 16.5223V14.5418C92.6009 14.0574 92.4232 13.5876 92.1053 13.2183V10.6109C92.1344 10.3209 92.2371 8.68456 91.0533 7.33478C90.0236 6.15931 88.3571 5.56432 86.0995 5.56432C83.8418 5.56432 82.1753 6.15931 81.1456 7.33423C79.9618 8.684 80.0646 10.3204 80.0936 10.6103V13.2177C79.7763 13.587 79.5981 14.0569 79.5981 14.5412V16.5218C79.5981 17.1369 79.874 17.7107 80.3467 18.0978C80.7992 19.8705 81.7305 21.2125 82.0747 21.6672V23.2841C82.0747 23.74 81.8261 24.159 81.4255 24.378L77.008 26.7876C76.8672 26.8641 76.7275 26.9535 76.5879 27.0535C73.6833 24.4433 71.853 20.6611 71.853 16.4586ZM93.8623 28.3962C94.064 28.2649 94.2628 28.1275 94.4584 27.9856C94.4796 27.9703 94.501 27.9551 94.5224 27.94C94.5618 27.9121 94.6012 27.8842 94.64 27.8549C94.6103 27.8392 94.5807 27.8236 94.5506 27.8085L89.8202 25.4436C89.0146 25.0413 88.514 24.2313 88.514 23.3307V21.2641L88.6525 21.106C88.7749 20.9658 88.9174 20.7825 89.0637 20.5758C89.6593 19.7344 90.1286 18.7886 90.4582 17.7645L90.5476 17.4879L90.8253 17.4025C91.2141 17.2824 91.4851 16.9209 91.4851 16.5225V14.542C91.4851 14.2822 91.3745 14.0398 91.1739 13.8587L90.9895 13.6923L90.9945 10.5072L90.9946 10.5066C90.9981 10.4734 91.1426 9.11843 90.2051 8.0596C89.395 7.1456 88.0151 6.68189 86.101 6.68189C84.1797 6.68189 82.7953 7.14951 81.9875 8.07022C81.041 9.14904 81.2059 10.4927 81.2075 10.5061L81.2126 10.5793V13.6911L81.0282 13.8576C80.8271 14.0392 80.717 14.2811 80.717 14.5409V16.5214C80.717 16.8348 80.8779 17.1254 81.1466 17.2991L81.3371 17.4226L81.388 17.6438C81.8444 19.6333 83.0523 21.1026 83.0646 21.1166L83.1931 21.2719L83.1936 23.2843C83.1936 24.1497 82.7216 24.9447 81.9618 25.3592L77.5442 27.7688L77.4906 27.799C77.5032 27.8085 77.5155 27.8183 77.5278 27.8281C77.5401 27.8378 77.5523 27.8476 77.5649 27.8571C77.8085 28.0398 78.0588 28.2124 78.3124 28.3784C78.3929 28.4309 78.4739 28.4828 78.5555 28.5342C78.8309 28.7063 79.1102 28.8711 79.3957 29.0236C79.4205 29.0371 79.4456 29.0498 79.4709 29.0626C79.4866 29.0706 79.5024 29.0786 79.5181 29.0868C79.8309 29.2494 80.1477 29.4035 80.4706 29.5427L80.4779 29.546C80.8192 29.6924 81.1667 29.8248 81.5182 29.9444C81.5291 29.948 81.5401 29.9518 81.5511 29.9555C81.5622 29.9593 81.5732 29.9631 81.5841 29.9667C82.2919 30.2041 83.0188 30.3857 83.7574 30.5092L83.8043 30.5176C84.1535 30.5745 84.506 30.6164 84.8602 30.6477C84.9057 30.6519 84.9515 30.6552 84.9973 30.6585C85.0123 30.6595 85.0273 30.6606 85.0423 30.6617C85.3937 30.688 85.7468 30.7053 86.101 30.7053C86.4513 30.7053 86.7999 30.6885 87.1469 30.6623C87.1617 30.6612 87.1765 30.6602 87.1912 30.6592C87.2388 30.6558 87.2862 30.6526 87.3335 30.6483C87.6843 30.6176 88.0341 30.5768 88.381 30.5204C88.3873 30.5193 88.3935 30.5181 88.3997 30.5169C88.4036 30.5161 88.4074 30.5154 88.4112 30.5148C88.7799 30.4539 89.1464 30.3796 89.5084 30.2902C89.5088 30.2902 89.5092 30.2901 89.5096 30.29C89.5103 30.2899 89.5111 30.2896 89.5118 30.2896C89.8705 30.2008 90.2252 30.0974 90.5755 29.9812C90.5893 29.9767 90.6029 29.9721 90.6164 29.9674C90.6265 29.964 90.6365 29.9605 90.6465 29.9572C91.3152 29.7321 91.9661 29.4549 92.5952 29.1326C92.6173 29.1212 92.6394 29.11 92.6615 29.0988C92.7002 29.0792 92.7389 29.0596 92.7773 29.0393C93.0511 28.894 93.3192 28.7387 93.5829 28.5756C93.6675 28.523 93.7503 28.4691 93.8333 28.4151L93.8623 28.3962Z" fill="#00C0D2"/>
<path d="M75.7234 27.7765L76.2203 28.3382L76.8437 27.7866L76.2304 27.2238L75.7234 27.7765ZM75.7088 27.7893L75.2119 27.2276L74.5615 27.803L75.2254 28.3627L75.7088 27.7893ZM76.2072 28.2094L76.6912 27.6365L76.6906 27.636L76.2072 28.2094ZM76.2593 28.2494L76.702 27.644L76.7019 27.644L76.2593 28.2494ZM76.3072 28.286L76.7859 27.7086L76.7854 27.7082L76.3072 28.286ZM77.1257 28.9156L76.6866 29.5237L76.6877 29.5245L77.1257 28.9156ZM77.126 28.9158L76.688 29.5247L76.6989 29.5325L76.71 29.5399L77.126 28.9158ZM77.126 28.9159L77.5651 28.3078L77.5537 28.2996L77.542 28.2918L77.126 28.9159ZM77.3989 29.11L76.9725 29.7271L76.9733 29.7276L77.3989 29.11ZM78.3162 29.6955L77.9346 30.3412L77.935 30.3414L78.3162 29.6955ZM78.5215 29.8138L78.1505 30.4656L78.1507 30.4657L78.5215 29.8138ZM78.5218 29.814L78.8929 29.1622L78.8926 29.1621L78.5218 29.814ZM79.5721 30.3615L79.2525 31.04L79.2542 31.0407L79.5721 30.3615ZM79.6116 30.3793L79.3082 31.0652L79.3086 31.0654L79.6116 30.3793ZM79.6118 30.3794L79.915 29.6934L79.9147 29.6933L79.6118 30.3794ZM79.6515 30.3972L79.3336 31.0765L79.3353 31.0774L79.6515 30.3972ZM83.3673 31.5733L83.234 32.3113L83.2349 32.3115L83.3673 31.5733ZM83.4701 31.5917L83.3377 32.3299L83.3425 32.3308L83.4701 31.5917ZM84.6975 31.7548L84.63 32.5018L84.6311 32.5019L84.6975 31.7548ZM84.7738 31.7608L84.7199 32.5088L84.7255 32.5092L84.7738 31.7608ZM84.7739 31.7608L84.8278 31.0127L84.8222 31.0123L84.7739 31.7608ZM84.8489 31.7666L84.7832 32.5137L84.7871 32.514L84.8489 31.7666ZM87.3417 31.7677L87.4018 32.5153L87.406 32.5149L87.3417 31.7677ZM87.4976 31.756L87.5619 32.5032L87.5657 32.5029L87.4976 31.756ZM88.7144 31.5956L88.8412 32.3348L88.8457 32.334L88.7144 31.5956ZM88.7652 31.5866L88.8965 32.325L88.898 32.3247L88.7652 31.5866ZM88.8189 31.5766L88.6865 30.8383L88.6764 30.8403L88.8189 31.5766ZM92.4822 30.4285L92.7949 31.1102L92.7959 31.1097L92.4822 30.4285ZM92.5353 30.4045L92.2291 29.7199L92.2291 29.7199L92.5353 30.4045ZM92.6101 30.3704L92.2911 29.6917L92.289 29.6926L92.6101 30.3704ZM93.6219 29.8475L93.9901 30.5009L93.9906 30.5006L93.6219 29.8475ZM93.8672 29.7061L94.2478 30.3524L94.2479 30.3523L93.8672 29.7061ZM94.7504 29.1475L94.3283 28.5276L94.3267 28.5287L94.7504 29.1475ZM94.9964 28.973L94.5569 28.3652L94.5566 28.3655L94.9964 28.973ZM95.0572 28.929L94.619 28.3203L94.6177 28.3213L95.0572 28.929ZM95.7773 28.3798L95.3065 27.796L95.3039 27.7981L95.7773 28.3798ZM95.8488 28.3257L95.4629 27.6826L95.4331 27.7005L95.4052 27.721L95.8488 28.3257ZM95.8488 28.3257L96.2347 28.9688L96.2644 28.951L96.2923 28.9305L95.8488 28.3257ZM95.936 28.2586L95.4553 27.6829L95.4515 27.686L95.936 28.2586ZM96.4472 27.8318L96.9279 28.4075L97.6104 27.8376L96.9336 27.2609L96.4472 27.8318ZM96.4321 27.8189L95.9273 27.2642L95.2974 27.8374L95.9457 28.3898L96.4321 27.8189ZM95.5473 27.1088L95.1212 27.726L95.6054 28.0603L96.0453 27.6697L95.5473 27.1088ZM95.0484 26.8088L95.3847 26.1384L95.3838 26.138L95.0484 26.8088ZM90.3181 24.4439L89.9827 25.1147L89.9827 25.1147L90.3181 24.4439ZM89.6298 21.6784L89.0469 21.2064L88.8798 21.4128V21.6784H89.6298ZM89.9745 21.222L90.5857 21.6566L90.5866 21.6554L89.9745 21.222ZM91.436 18.3598L91.1141 17.6824L90.83 17.8174L90.7272 18.1147L91.436 18.3598ZM92.1053 13.2183H91.3553V13.4966L91.5369 13.7076L92.1053 13.2183ZM92.1053 10.6109L91.359 10.5361L91.3553 10.5734V10.6109H92.1053ZM91.0533 7.33478L90.4891 7.82897L90.4894 7.82932L91.0533 7.33478ZM81.1456 7.33423L81.7095 7.82876L81.7097 7.82854L81.1456 7.33423ZM80.0936 10.6103H80.8436V10.5729L80.8399 10.5356L80.0936 10.6103ZM80.0936 13.2177L80.6624 13.7065L80.8436 13.4957V13.2177H80.0936ZM80.3467 18.0978L81.0734 17.9123L81.0125 17.6737L80.822 17.5176L80.3467 18.0978ZM82.0747 21.6672H82.8247V21.4155L82.6728 21.2147L82.0747 21.6672ZM81.4255 24.378L81.7847 25.0364L81.7853 25.0361L81.4255 24.378ZM77.008 26.7876L77.3662 27.4465L77.3671 27.446L77.008 26.7876ZM76.5879 27.0535L76.0866 27.6114L76.5347 28.014L77.0245 27.6633L76.5879 27.0535ZM94.4584 27.9856L94.0193 27.3776L94.0179 27.3786L94.4584 27.9856ZM93.8623 28.3962L94.2714 29.0248L94.2714 29.0248L93.8623 28.3962ZM94.5224 27.94L94.9557 28.5522L94.9557 28.5522L94.5224 27.94ZM94.64 27.8549L95.0926 28.4529L96.0318 27.7419L94.9903 27.1917L94.64 27.8549ZM94.5506 27.8085L94.886 27.1377L94.8859 27.1377L94.5506 27.8085ZM89.8202 25.4436L90.1556 24.7728L90.1552 24.7726L89.8202 25.4436ZM88.514 21.2641L87.9499 20.7698L87.764 20.982V21.2641H88.514ZM88.6525 21.106L89.2166 21.6003L89.2177 21.5991L88.6525 21.106ZM89.0637 20.5758L89.6758 21.0092L89.6759 21.0091L89.0637 20.5758ZM90.4582 17.7645L89.7446 17.5338L89.7443 17.5347L90.4582 17.7645ZM90.5476 17.4879L90.3269 16.7711L89.954 16.886L89.834 17.2573L90.5476 17.4879ZM90.8253 17.4025L91.0459 18.1193L91.0466 18.1191L90.8253 17.4025ZM91.1739 13.8587L90.6712 14.4154L90.6714 14.4155L91.1739 13.8587ZM90.9895 13.6923L90.2395 13.6911L90.239 14.025L90.4869 14.2489L90.9895 13.6923ZM90.9945 10.5072L90.2485 10.4302L90.2446 10.468L90.2445 10.506L90.9945 10.5072ZM90.9946 10.5066L90.2488 10.4271L90.2486 10.4296L90.9946 10.5066ZM90.2051 8.0596L90.7667 7.56243L90.7664 7.56214L90.2051 8.0596ZM81.9875 8.07022L81.4237 7.57557L81.4237 7.57562L81.9875 8.07022ZM81.2075 10.5061L81.9558 10.4547L81.9543 10.4338L81.9517 10.413L81.2075 10.5061ZM81.2126 10.5793H81.9626V10.5535L81.9608 10.5279L81.2126 10.5793ZM81.2126 13.6911L81.7152 14.2478L81.9626 14.0244V13.6911H81.2126ZM81.0282 13.8576L81.5308 14.4143L81.5308 14.4143L81.0282 13.8576ZM81.1466 17.2991L81.5545 16.6697L81.5539 16.6693L81.1466 17.2991ZM81.3371 17.4226L82.0681 17.2546L82 16.9585L81.745 16.7932L81.3371 17.4226ZM81.388 17.6438L82.119 17.4761L82.1189 17.4759L81.388 17.6438ZM83.0646 21.1166L83.6425 20.6385L83.6352 20.6297L83.6276 20.6211L83.0646 21.1166ZM83.1931 21.2719L83.9431 21.2717L83.943 21.0018L83.771 20.7938L83.1931 21.2719ZM83.1936 23.2843H83.9436V23.2841L83.1936 23.2843ZM81.9618 25.3592L82.3209 26.0177L82.321 26.0176L81.9618 25.3592ZM77.5442 27.7688L77.1851 27.1104L77.1765 27.1152L77.5442 27.7688ZM77.4906 27.799L77.1229 27.1453L76.1245 27.7069L77.0385 28.3974L77.4906 27.799ZM77.5649 27.8571L77.1128 28.4555L77.1149 28.4571L77.5649 27.8571ZM78.3124 28.3784L77.9018 29.006L77.9025 29.0064L78.3124 28.3784ZM78.5555 28.5342L78.1556 29.1688L78.1581 29.1703L78.5555 28.5342ZM79.3957 29.0236L79.7529 28.3642L79.7491 28.3621L79.3957 29.0236ZM79.4709 29.0626L79.1315 29.7314L79.1315 29.7315L79.4709 29.0626ZM79.5181 29.0868L79.1718 29.752L79.1722 29.7523L79.5181 29.0868ZM80.4706 29.5427L80.7849 28.8617L80.7762 28.8577L80.7674 28.8539L80.4706 29.5427ZM80.4779 29.546L80.1636 30.227L80.1729 30.2313L80.1823 30.2353L80.4779 29.546ZM81.5182 29.9444L81.2766 30.6544L81.281 30.6559L81.5182 29.9444ZM81.5841 29.9667L81.8226 29.2556L81.8213 29.2552L81.5841 29.9667ZM83.7574 30.5092L83.8892 29.7708L83.881 29.7694L83.7574 30.5092ZM83.8043 30.5176L83.6725 31.256L83.6835 31.2578L83.8043 30.5176ZM84.8602 30.6477L84.9294 29.9009L84.9262 29.9006L84.8602 30.6477ZM84.9973 30.6585L84.9441 31.4066H84.9441L84.9973 30.6585ZM85.0423 30.6617L85.0982 29.9138L85.0972 29.9137L85.0423 30.6617ZM87.1469 30.6623L87.0934 29.9142L87.0903 29.9144L87.1469 30.6623ZM87.1912 30.6592L87.2432 31.4074L87.2432 31.4073L87.1912 30.6592ZM87.3335 30.6483L87.2681 29.9012L87.2662 29.9013L87.3335 30.6483ZM88.381 30.5204L88.5014 31.2606L88.5041 31.2602L88.381 30.5204ZM88.3997 30.5169L88.2578 29.7804L88.2576 29.7805L88.3997 30.5169ZM88.4112 30.5148L88.289 29.7748L88.2879 29.775L88.4112 30.5148ZM89.5084 30.2902V29.5402H89.4172L89.3287 29.562L89.5084 30.2902ZM89.5096 30.29L89.6742 31.0217L89.6745 31.0217L89.5096 30.29ZM89.5118 30.2896V31.0396H89.6033L89.6921 31.0176L89.5118 30.2896ZM90.5755 29.9812L90.3433 29.2681L90.3394 29.2694L90.5755 29.9812ZM90.6164 29.9674L90.3728 29.2581L90.3727 29.2581L90.6164 29.9674ZM90.6465 29.9572L90.8836 30.6687L90.8858 30.668L90.6465 29.9572ZM92.5952 29.1326L92.9372 29.8001L92.9379 29.7997L92.5952 29.1326ZM92.6615 29.0988L93.0007 29.7677L93.0007 29.7677L92.6615 29.0988ZM92.7773 29.0393L93.1274 29.7026L93.1288 29.7018L92.7773 29.0393ZM93.5829 28.5756L93.9775 29.2134L93.9787 29.2126L93.5829 28.5756ZM93.8333 28.4151L93.4242 27.7865L93.4241 27.7865L93.8333 28.4151ZM86.1004 1.84485C94.1575 1.84485 100.714 8.40154 100.714 16.4586H102.214C102.214 7.57311 94.9859 0.344849 86.1004 0.344849V1.84485ZM71.4866 16.4586C71.4866 8.40154 78.0432 1.84485 86.1004 1.84485V0.344849C77.2148 0.344849 69.9866 7.57311 69.9866 16.4586H71.4866ZM76.2304 27.2238C73.3154 24.5491 71.4866 20.7135 71.4866 16.4586H69.9866C69.9866 21.1528 72.006 25.3834 75.2163 28.3291L76.2304 27.2238ZM76.2058 28.351L76.2203 28.3382L75.2264 27.2148L75.2119 27.2276L76.2058 28.351ZM76.6906 27.636L76.1923 27.2159L75.2254 28.3627L75.7238 28.7829L76.6906 27.636ZM76.7019 27.644C76.6973 27.6406 76.6943 27.6384 76.6914 27.6363C76.6888 27.6343 76.6872 27.6331 76.6863 27.6325C76.6843 27.631 76.6866 27.6326 76.6912 27.6365L75.7232 28.7824C75.7634 28.8164 75.8024 28.8444 75.8166 28.8549L76.7019 27.644ZM76.7854 27.7082C76.7496 27.6786 76.7152 27.6537 76.702 27.644L75.8166 28.8548C75.8208 28.8579 75.8237 28.8601 75.8264 28.8621C75.829 28.864 75.8307 28.8652 75.8317 28.866C75.834 28.8677 75.8325 28.8666 75.829 28.8638L76.7854 27.7082ZM77.5647 28.3075C77.2949 28.1128 77.0345 27.9148 76.7859 27.7086L75.8285 28.8633C76.1095 29.0963 76.3977 29.3151 76.6866 29.5237L77.5647 28.3075ZM77.5639 28.307L77.5636 28.3068L76.6877 29.5245L76.688 29.5247L77.5639 28.307ZM77.542 28.2918L77.542 28.2918L76.71 29.5399L76.71 29.5399L77.542 28.2918ZM77.8252 28.493C77.7406 28.4346 77.6566 28.3739 77.5651 28.3078L76.6869 29.5239C76.7762 29.5884 76.873 29.6583 76.9725 29.7271L77.8252 28.493ZM78.6978 29.0499C78.3993 28.8734 78.1078 28.6878 77.8244 28.4925L76.9733 29.7276C77.2866 29.9435 77.6074 30.1478 77.9346 30.3412L78.6978 29.0499ZM78.8925 29.162C78.823 29.1224 78.7595 29.0863 78.6974 29.0496L77.935 30.3414C78.009 30.3851 78.0828 30.4271 78.1505 30.4656L78.8925 29.162ZM78.8926 29.1621L78.8923 29.1619L78.1507 30.4657L78.151 30.4659L78.8926 29.1621ZM79.8918 29.683C79.5533 29.5235 79.2208 29.3489 78.8929 29.1622L78.1507 30.4657C78.5078 30.669 78.8748 30.862 79.2525 31.04L79.8918 29.683ZM79.9149 29.6933C79.9005 29.687 79.8947 29.6844 79.8901 29.6822L79.2542 31.0407C79.2757 31.0508 79.2963 31.0599 79.3082 31.0652L79.9149 29.6933ZM79.9147 29.6933L79.9145 29.6932L79.3086 31.0654L79.3088 31.0655L79.9147 29.6933ZM79.9694 29.718C79.9477 29.7078 79.9271 29.6987 79.915 29.6934L79.3085 31.0653C79.323 31.0717 79.3289 31.0744 79.3336 31.0765L79.9694 29.718ZM83.5005 30.8352C82.2613 30.6115 81.0768 30.2327 79.9676 29.7171L79.3353 31.0774C80.5603 31.6467 81.8676 32.0646 83.234 32.3113L83.5005 30.8352ZM83.6025 30.8535L83.4997 30.835L83.2349 32.3115L83.3377 32.3299L83.6025 30.8535ZM84.765 31.0079C84.3736 30.9725 83.9848 30.9195 83.5977 30.8526L83.3425 32.3308C83.7643 32.4036 84.1935 32.4623 84.63 32.5018L84.765 31.0079ZM84.8277 31.0127C84.8012 31.0108 84.782 31.0094 84.7639 31.0078L84.6311 32.5019C84.6638 32.5048 84.6955 32.5071 84.7199 32.5088L84.8277 31.0127ZM84.8222 31.0123L84.8221 31.0123L84.7255 32.5092L84.7256 32.5092L84.8222 31.0123ZM84.9146 31.0195C84.8826 31.0166 84.8517 31.0144 84.8278 31.0127L84.7201 32.5088C84.7459 32.5107 84.765 32.5121 84.7832 32.5137L84.9146 31.0195ZM86.1004 31.0724C85.7036 31.0724 85.308 31.052 84.9107 31.0191L84.7871 32.514C85.2144 32.5493 85.6524 32.5724 86.1004 32.5724V31.0724ZM87.2817 31.0201C86.885 31.052 86.4931 31.0724 86.1004 31.0724V32.5724C86.5445 32.5724 86.9784 32.5493 87.4018 32.5153L87.2817 31.0201ZM87.3674 31.0136C87.3424 31.0154 87.3104 31.0176 87.2774 31.0205L87.406 32.5149C87.425 32.5133 87.445 32.5119 87.472 32.51L87.3674 31.0136ZM87.4333 31.0087C87.4143 31.0103 87.3944 31.0118 87.3674 31.0136L87.472 32.51C87.497 32.5082 87.5289 32.506 87.5619 32.5032L87.4333 31.0087ZM88.5876 30.8564C88.2054 30.922 87.8194 30.9735 87.4295 31.0091L87.5657 32.5029C87.9971 32.4635 88.4223 32.4067 88.8412 32.3348L88.5876 30.8564ZM88.634 30.8482L88.5832 30.8572L88.8457 32.334L88.8965 32.325L88.634 30.8482ZM88.6764 30.8403C88.6631 30.8429 88.6487 30.8455 88.6325 30.8484L88.898 32.3247C88.9176 32.3212 88.9391 32.3173 88.9614 32.313L88.6764 30.8403ZM92.1695 29.7468C91.0742 30.2493 89.9068 30.6195 88.6865 30.8384L88.9513 32.3148C90.2976 32.0734 91.5861 31.6648 92.7949 31.1102L92.1695 29.7468ZM92.2291 29.7199C92.2121 29.7275 92.1905 29.7371 92.1684 29.7473L92.7959 31.1097C92.8091 31.1037 92.823 31.0975 92.8415 31.0892L92.2291 29.7199ZM92.289 29.6926C92.2729 29.7003 92.2554 29.7082 92.2291 29.7199L92.8414 31.0892C92.8652 31.0786 92.8977 31.0641 92.9312 31.0482L92.289 29.6926ZM93.2537 29.1941C92.9385 29.3717 92.618 29.538 92.2911 29.6917L92.9292 31.0492C93.2916 30.8788 93.6449 30.6954 93.9901 30.5009L93.2537 29.1941ZM93.4865 29.0599C93.4093 29.1054 93.3318 29.15 93.2532 29.1944L93.9906 30.5006C94.0763 30.4522 94.1619 30.403 94.2478 30.3524L93.4865 29.0599ZM94.3267 28.5287C94.0564 28.7137 93.7757 28.8895 93.4864 29.06L94.2479 30.3523C94.5598 30.1686 94.8701 29.9745 95.1742 29.7663L94.3267 28.5287ZM94.5566 28.3655C94.4734 28.4257 94.4007 28.4782 94.3283 28.5276L95.1726 29.7673C95.2659 29.7038 95.356 29.6385 95.4362 29.5805L94.5566 28.3655ZM94.6177 28.3213L94.5569 28.3652L95.4358 29.5807L95.4966 29.5368L94.6177 28.3213ZM95.3039 27.7981C95.0835 27.9775 94.8548 28.1506 94.619 28.3203L95.4953 29.5377C95.7501 29.3544 96.003 29.1632 96.2507 28.9615L95.3039 27.7981ZM95.4052 27.721C95.3834 27.737 95.3454 27.7647 95.3065 27.796L96.2481 28.9636C96.2558 28.9574 96.266 28.9498 96.2924 28.9305L95.4052 27.721ZM95.4629 27.6826L95.4629 27.6826L96.2346 28.9688L96.2347 28.9688L95.4629 27.6826ZM95.4515 27.686C95.4467 27.6901 95.4383 27.6967 95.4052 27.7209L96.2923 28.9305C96.3185 28.9113 96.3692 28.8745 96.4204 28.8312L95.4515 27.686ZM95.9665 27.2561L95.4553 27.6829L96.4167 28.8343L96.9279 28.4075L95.9665 27.2561ZM95.9457 28.3898L95.9608 28.4026L96.9336 27.2609L96.9185 27.248L95.9457 28.3898ZM100.714 16.4586C100.714 20.7354 98.8678 24.5886 95.9273 27.2642L96.9369 28.3736C100.175 25.4267 102.214 21.1767 102.214 16.4586H100.714ZM86.0995 1.46222C77.8296 1.46222 71.103 8.18878 71.103 16.4586H72.603C72.603 9.01721 78.658 2.96222 86.0995 2.96222V1.46222ZM101.096 16.4586C101.096 8.18878 94.3693 1.46222 86.0995 1.46222V2.96222C93.5409 2.96222 99.5959 9.01721 99.5959 16.4586H101.096ZM96.0453 27.6697C99.1389 24.9228 101.096 20.9161 101.096 16.4586H99.5959C99.5959 20.4675 97.8376 24.0723 95.0494 26.548L96.0453 27.6697ZM94.7121 27.4792C94.8425 27.5446 94.9775 27.6268 95.1212 27.726L95.9735 26.4917C95.7887 26.3641 95.5929 26.2429 95.3847 26.1384L94.7121 27.4792ZM89.9827 25.1147L94.7131 27.4796L95.3838 26.138L90.6534 23.7731L89.9827 25.1147ZM88.8798 23.3305C88.8798 24.0889 89.304 24.7754 89.9827 25.1147L90.6535 23.7731C90.4829 23.6878 90.3798 23.5207 90.3798 23.3305H88.8798ZM88.8798 21.6784V23.3305H90.3798V21.6784H88.8798ZM89.3632 20.7874C89.2512 20.9449 89.1451 21.0853 89.0469 21.2064L90.2126 22.1505C90.3335 22.0012 90.4586 21.8354 90.5857 21.6566L89.3632 20.7874ZM90.7272 18.1147C90.3914 19.0853 89.9323 19.9836 89.3624 20.7886L90.5866 21.6554C91.2413 20.7306 91.7643 19.7049 92.1448 18.605L90.7272 18.1147ZM91.8509 16.5223C91.8509 17.024 91.565 17.4682 91.1141 17.6824L91.7579 19.0373C92.7227 18.5788 93.3509 17.6129 93.3509 16.5223H91.8509ZM91.8509 14.5418V16.5223H93.3509V14.5418H91.8509ZM91.5369 13.7076C91.7402 13.9438 91.8509 14.241 91.8509 14.5418H93.3509C93.3509 13.8739 93.1061 13.2313 92.6737 12.729L91.5369 13.7076ZM91.3553 10.6109V13.2183H92.8553V10.6109H91.3553ZM90.4894 7.82932C91.4625 8.93872 91.3821 10.3063 91.359 10.5361L92.8516 10.6857C92.8866 10.3356 93.0118 8.43041 91.6172 6.84025L90.4894 7.82932ZM86.0995 6.31432C88.2397 6.31432 89.6561 6.87798 90.4891 7.82897L91.6175 6.8406C90.3912 5.44065 88.4744 4.81432 86.0995 4.81432V6.31432ZM81.7097 7.82854C82.5427 6.87798 83.9592 6.31432 86.0995 6.31432V4.81432C83.7245 4.81432 81.8078 5.44064 80.5816 6.83991L81.7097 7.82854ZM80.8399 10.5356C80.8168 10.3057 80.7364 8.93816 81.7095 7.82876L80.5818 6.83969C79.1871 8.42985 79.3123 10.335 79.3473 10.6851L80.8399 10.5356ZM80.8436 13.2177V10.6103H79.3436V13.2177H80.8436ZM80.3481 14.5412C80.3481 14.2409 80.4589 13.9434 80.6624 13.7065L79.5248 12.7289C79.0937 13.2306 78.8481 13.8728 78.8481 14.5412H80.3481ZM80.3481 16.5218V14.5412H78.8481V16.5218H80.3481ZM80.822 17.5176C80.521 17.2711 80.3481 16.9093 80.3481 16.5218H78.8481C78.8481 17.3645 79.227 18.1502 79.8714 18.678L80.822 17.5176ZM82.6728 21.2147C82.3562 20.7964 81.4907 19.547 81.0734 17.9123L79.62 18.2833C80.1078 20.194 81.1049 21.6285 81.4766 22.1198L82.6728 21.2147ZM82.8247 23.2841V21.6672H81.3247V23.2841H82.8247ZM81.7853 25.0361C82.4261 24.6857 82.8247 24.0146 82.8247 23.2841H81.3247C81.3247 23.4654 81.2261 23.6323 81.0657 23.7199L81.7853 25.0361ZM77.3671 27.446L81.7847 25.0364L81.0664 23.7196L76.6489 26.1292L77.3671 27.446ZM77.0245 27.6633C77.1441 27.5777 77.2575 27.5056 77.3662 27.4465L76.6498 26.1287C76.4769 26.2226 76.311 26.3293 76.1512 26.4437L77.0245 27.6633ZM71.103 16.4586C71.103 20.8836 73.0311 24.8656 76.0866 27.6114L77.0892 26.4957C74.3355 24.0211 72.603 20.4385 72.603 16.4586H71.103ZM94.0179 27.3786C93.8316 27.5138 93.6432 27.6439 93.4531 27.7677L94.2714 29.0248C94.4847 28.886 94.694 28.7413 94.8989 28.5926L94.0179 27.3786ZM94.0891 27.3278C94.0682 27.3426 94.0439 27.3598 94.0193 27.3776L94.8975 28.5936C94.9154 28.5807 94.9338 28.5676 94.9557 28.5522L94.0891 27.3278ZM94.1873 27.2569C94.1597 27.2778 94.13 27.2988 94.0891 27.3278L94.9557 28.5522C94.9935 28.5254 95.0427 28.4906 95.0926 28.4529L94.1873 27.2569ZM94.2151 28.4793C94.2366 28.49 94.2588 28.5018 94.2896 28.518L94.9903 27.1917C94.9619 27.1767 94.9249 27.1571 94.886 27.1377L94.2151 28.4793ZM89.4848 26.1144L94.2152 28.4793L94.8859 27.1377L90.1556 24.7728L89.4848 26.1144ZM87.764 23.3307C87.764 24.5152 88.425 25.5853 89.4852 26.1146L90.1552 24.7726C89.6041 24.4974 89.264 23.9473 89.264 23.3307H87.764ZM87.764 21.2641V23.3307H89.264V21.2641H87.764ZM88.0885 20.6117L87.9499 20.7698L89.0781 21.7584L89.2166 21.6003L88.0885 20.6117ZM88.4517 20.1424C88.3157 20.3344 88.1889 20.4966 88.0874 20.6129L89.2177 21.5991C89.3609 21.4349 89.519 21.2306 89.6758 21.0092L88.4517 20.1424ZM89.7443 17.5347C89.437 18.4893 89.0012 19.366 88.4516 20.1425L89.6759 21.0091C90.3174 20.1028 90.8201 19.0879 91.1721 17.9943L89.7443 17.5347ZM89.834 17.2573L89.7446 17.5338L91.1719 17.9952L91.2612 17.7186L89.834 17.2573ZM90.6046 16.6857L90.3269 16.7711L90.7683 18.2048L91.0459 18.1193L90.6046 16.6857ZM90.7351 16.5225C90.7351 16.5823 90.6877 16.66 90.6039 16.6859L91.0466 18.1191C91.7405 17.9047 92.2351 17.2594 92.2351 16.5225H90.7351ZM90.7351 14.542V16.5225H92.2351V14.542H90.7351ZM90.6714 14.4155C90.722 14.4612 90.7351 14.5045 90.7351 14.542H92.2351C92.2351 14.06 92.0269 13.6183 91.6764 13.302L90.6714 14.4155ZM90.4869 14.2489L90.6712 14.4154L91.6765 13.3021L91.4922 13.1356L90.4869 14.2489ZM90.2445 10.506L90.2395 13.6911L91.7395 13.6934L91.7445 10.5084L90.2445 10.506ZM90.2486 10.4296L90.2485 10.4302L91.7406 10.5842L91.7406 10.5837L90.2486 10.4296ZM89.6436 8.55678C90.3557 9.36111 90.2489 10.426 90.2488 10.4271L91.7404 10.5862C91.7473 10.5208 91.9295 8.87574 90.7667 7.56243L89.6436 8.55678ZM86.101 7.43189C87.9206 7.43189 89.04 7.87575 89.6439 8.55707L90.7664 7.56214C89.7501 6.41545 88.1096 5.93189 86.101 5.93189V7.43189ZM82.5512 8.56487C83.1525 7.87957 84.2743 7.43189 86.101 7.43189V5.93189C84.0852 5.93189 82.4381 6.41945 81.4237 7.57557L82.5512 8.56487ZM81.9517 10.413C81.9553 10.4417 81.8296 9.38743 82.5512 8.56482L81.4237 7.57562C80.2525 8.91064 80.4564 10.5436 80.4633 10.5991L81.9517 10.413ZM81.9608 10.5279L81.9558 10.4547L80.4593 10.5575L80.4643 10.6307L81.9608 10.5279ZM81.9626 13.6911V10.5793H80.4626V13.6911H81.9626ZM81.5308 14.4143L81.7152 14.2478L80.7099 13.1345L80.5255 13.301L81.5308 14.4143ZM81.467 14.5409C81.467 14.5031 81.4797 14.4604 81.5308 14.4143L80.5256 13.3009C80.1744 13.618 79.967 14.0591 79.967 14.5409H81.467ZM81.467 16.5214V14.5409H79.967V16.5214H81.467ZM81.5539 16.6693C81.4925 16.6296 81.467 16.5729 81.467 16.5214H79.967C79.967 17.0968 80.2633 17.6211 80.7394 17.9289L81.5539 16.6693ZM81.745 16.7932L81.5545 16.6697L80.7387 17.9285L80.9292 18.052L81.745 16.7932ZM82.1189 17.4759L82.0681 17.2546L80.6062 17.5905L80.657 17.8118L82.1189 17.4759ZM83.6276 20.6211C83.6564 20.6538 82.5363 19.295 82.119 17.4761L80.657 17.8115C81.1526 19.9716 82.4482 21.5514 82.5016 21.6121L83.6276 20.6211ZM83.771 20.7938L83.6425 20.6385L82.4867 21.5947L82.6152 21.75L83.771 20.7938ZM83.9436 23.2841L83.9431 21.2717L82.4431 21.2721L82.4436 23.2845L83.9436 23.2841ZM82.321 26.0176C83.3215 25.4717 83.9436 24.4243 83.9436 23.2843H82.4436C82.4436 23.8751 82.1216 24.4177 81.6025 24.7009L82.321 26.0176ZM77.9034 28.4273L82.3209 26.0177L81.6026 24.7008L77.1851 27.1104L77.9034 28.4273ZM77.8583 28.4527L77.912 28.4225L77.1765 27.1152L77.1229 27.1453L77.8583 28.4527ZM77.9947 27.2411C77.9836 27.2323 77.964 27.2167 77.9427 27.2006L77.0385 28.3974C77.0424 28.4003 77.0474 28.4043 77.0609 28.415L77.9947 27.2411ZM78.0171 27.2587C78.0132 27.2558 78.0081 27.2518 77.9947 27.2411L77.0609 28.415C77.072 28.4238 77.0915 28.4394 77.1128 28.4555L78.0171 27.2587ZM78.723 27.7507C78.4795 27.5914 78.2428 27.428 78.0149 27.2571L77.1149 28.4571C77.3742 28.6516 77.6381 28.8335 77.9018 29.006L78.723 27.7507ZM78.9553 27.8997C78.8771 27.8504 78.7995 27.8006 78.7224 27.7503L77.9025 29.0064C77.9863 29.0611 78.0707 29.1152 78.1556 29.1688L78.9553 27.8997ZM79.7491 28.3621C79.4821 28.2195 79.2178 28.0637 78.9528 27.8982L78.1581 29.1703C78.444 29.3489 78.7383 29.5228 79.0423 29.6852L79.7491 28.3621ZM79.8102 28.3938C79.7835 28.3802 79.7673 28.372 79.7529 28.3642L79.0385 29.6831C79.0736 29.7021 79.1078 29.7194 79.1315 29.7314L79.8102 28.3938ZM79.8644 28.4215C79.8446 28.4112 79.8254 28.4015 79.8102 28.3938L79.1315 29.7315C79.1478 29.7397 79.1601 29.746 79.1718 29.752L79.8644 28.4215ZM80.7674 28.8539C80.4654 28.7238 80.1655 28.578 79.8639 28.4213L79.1722 29.7523C79.4964 29.9207 79.83 30.0833 80.1739 30.2315L80.7674 28.8539ZM80.7921 28.865L80.7849 28.8617L80.1564 30.2236L80.1636 30.227L80.7921 28.865ZM81.7597 29.2343C81.4254 29.1206 81.096 28.995 80.7735 28.8567L80.1823 30.2353C80.5425 30.3898 80.9081 30.529 81.2766 30.6544L81.7597 29.2343ZM81.7937 29.2458C81.7831 29.2422 81.7694 29.2375 81.7553 29.2328L81.281 30.6559C81.2887 30.6584 81.2971 30.6613 81.3086 30.6652L81.7937 29.2458ZM81.8213 29.2552C81.8135 29.2526 81.8052 29.2498 81.7937 29.2458L81.3086 30.6652C81.3191 30.6688 81.3329 30.6735 81.3469 30.6782L81.8213 29.2552ZM83.881 29.7694C83.1814 29.6525 82.493 29.4805 81.8226 29.2556L81.3456 30.6778C82.0909 30.9278 82.8561 31.1189 83.6337 31.2489L83.881 29.7694ZM83.9361 29.7792L83.8892 29.7709L83.6255 31.2475L83.6725 31.2559L83.9361 29.7792ZM84.9262 29.9006C84.5868 29.8707 84.2529 29.8309 83.9251 29.7774L83.6835 31.2578C84.054 31.3182 84.4252 31.3622 84.7942 31.3948L84.9262 29.9006ZM85.0506 29.9104C85.0033 29.907 84.9655 29.9043 84.9294 29.9009L84.791 31.3945C84.8458 31.3996 84.8996 31.4034 84.9441 31.4066L85.0506 29.9104ZM85.0972 29.9137C85.0813 29.9125 85.0655 29.9114 85.0506 29.9104L84.9441 31.4066C84.9592 31.4076 84.9734 31.4087 84.9874 31.4097L85.0972 29.9137ZM86.101 29.9553C85.7708 29.9553 85.4373 29.9391 85.0982 29.9138L84.9864 31.4096C85.3502 31.4368 85.7228 31.4553 86.101 31.4553V29.9553ZM87.0903 29.9144C86.7568 29.9396 86.4277 29.9553 86.101 29.9553V31.4553C86.475 31.4553 86.8431 31.4374 87.2035 31.4101L87.0903 29.9144ZM87.1393 29.9109C87.1247 29.912 87.1091 29.913 87.0934 29.9142L87.2003 31.4104C87.2143 31.4094 87.2283 31.4084 87.2432 31.4074L87.1393 29.9109ZM87.2662 29.9013C87.2278 29.9048 87.1882 29.9076 87.1393 29.911L87.2432 31.4073C87.2895 31.4041 87.3445 31.4003 87.4008 31.3953L87.2662 29.9013ZM88.2606 29.7801C87.9358 29.8329 87.6048 29.8717 87.2681 29.9012L87.3989 31.3954C87.7638 31.3635 88.1324 31.3206 88.5014 31.2606L88.2606 29.7801ZM88.2576 29.7805L88.2579 29.7805L88.5041 31.2602C88.5153 31.2583 88.5248 31.2566 88.5307 31.2554C88.5338 31.2548 88.5365 31.2543 88.5382 31.254C88.5404 31.2536 88.541 31.2534 88.5419 31.2533L88.2576 29.7805ZM88.2879 29.775C88.2746 29.7772 88.2634 29.7793 88.2578 29.7804L88.5417 31.2533C88.5437 31.2529 88.5402 31.2536 88.5345 31.2546L88.2879 29.775ZM89.3287 29.562C88.987 29.6464 88.6398 29.7169 88.289 29.7748L88.5334 31.2547C88.92 31.1909 89.3058 31.1127 89.6882 31.0183L89.3287 29.562ZM89.345 29.5583C89.3656 29.5537 89.4276 29.5402 89.5084 29.5402V31.0402C89.5901 31.0402 89.6528 31.0266 89.6742 31.0217L89.345 29.5583ZM89.5118 29.5396C89.4324 29.5396 89.3713 29.5525 89.3489 29.5574C89.3424 29.5589 89.3371 29.5601 89.3338 29.5609C89.3307 29.5617 89.3281 29.5623 89.3281 29.5623C89.3257 29.5629 89.3346 29.5607 89.3447 29.5584L89.6745 31.0217C89.685 31.0193 89.6942 31.017 89.6922 31.0175C89.6922 31.0175 89.6916 31.0176 89.6908 31.0178C89.69 31.018 89.6887 31.0183 89.6871 31.0187C89.6839 31.0195 89.6789 31.0207 89.6725 31.0221C89.6509 31.0269 89.5905 31.0396 89.5118 31.0396V29.5396ZM90.3394 29.2694C90.0066 29.3798 89.6704 29.4777 89.3315 29.5616L89.6921 31.0176C90.0705 30.9239 90.4439 30.8151 90.8117 30.6931L90.3394 29.2694ZM90.3727 29.2581C90.3584 29.263 90.3504 29.2658 90.3433 29.2681L90.8077 30.6944C90.8282 30.6877 90.8474 30.6811 90.8601 30.6768L90.3727 29.2581ZM90.4094 29.2457C90.3955 29.2503 90.3822 29.2549 90.3728 29.2581L90.86 30.6768C90.8707 30.6731 90.8774 30.6708 90.8836 30.6687L90.4094 29.2457ZM92.2531 28.4651C91.6556 28.7713 91.039 29.0337 90.4072 29.2464L90.8858 30.668C91.5914 30.4304 92.2766 30.1386 92.9372 29.8001L92.2531 28.4651ZM92.3223 28.4299C92.3005 28.441 92.2766 28.4531 92.2524 28.4655L92.9379 29.7997C92.958 29.7894 92.9783 29.7791 93.0007 29.7677L92.3223 28.4299ZM92.4272 28.376C92.3951 28.393 92.3619 28.4098 92.3223 28.4299L93.0007 29.7677C93.0385 29.7485 93.0826 29.7262 93.1274 29.7026L92.4272 28.376ZM93.1883 27.9378C92.9369 28.0933 92.6832 28.2402 92.4258 28.3768L93.1288 29.7018C93.4189 29.5479 93.7015 29.3841 93.9775 29.2134L93.1883 27.9378ZM93.4241 27.7865C93.34 27.8413 93.2639 27.8908 93.1871 27.9385L93.9787 29.2126C94.0712 29.1552 94.1606 29.097 94.2425 29.0436L93.4241 27.7865ZM93.4532 27.7677L93.4242 27.7865L94.2424 29.0437L94.2714 29.0248L93.4532 27.7677Z" fill="#00C0D2"/>
<path fill-rule="evenodd" clip-rule="evenodd" d="M32.2509 25.8012C32.2509 17.3299 25.3584 10.4374 16.8871 10.4374C8.41578 10.4374 1.5233 17.3299 1.5233 25.8012C1.5233 30.2757 3.44741 34.3089 6.51011 37.119L6.49558 37.1319L6.99393 37.552C7.01079 37.5663 7.02842 37.5792 7.04601 37.592C7.06222 37.6039 7.0784 37.6157 7.09393 37.6286C7.35875 37.8481 7.63306 38.0565 7.9124 38.2582L7.91273 38.2584L7.91275 38.2584C8.00314 38.3237 8.09353 38.389 8.1856 38.4526C8.48394 38.6582 8.7901 38.8532 9.10296 39.0381C9.17101 39.0783 9.23963 39.1173 9.30824 39.1564L9.30855 39.1566C9.65103 39.3515 10.0008 39.5353 10.3589 39.7041C10.3719 39.7102 10.3851 39.716 10.3983 39.7219L10.3985 39.7219C10.4118 39.7278 10.4251 39.7337 10.4382 39.7398C11.6053 40.2823 12.8512 40.6807 14.154 40.9159L14.2568 40.9343C14.6613 41.0041 15.0703 41.06 15.4842 41.0974C15.5097 41.0997 15.5351 41.1015 15.5606 41.1034L15.5607 41.1034C15.5856 41.1052 15.6105 41.107 15.6356 41.1092C16.048 41.1432 16.4647 41.165 16.8871 41.165C17.3055 41.165 17.7184 41.1432 18.1285 41.1103C18.1545 41.108 18.1804 41.1062 18.2064 41.1044C18.2324 41.1026 18.2584 41.1008 18.2844 41.0985C18.695 41.0611 19.1006 41.0069 19.5012 40.9382L19.552 40.9292C19.5699 40.9259 19.5879 40.9227 19.6056 40.9192C20.8889 40.689 22.1169 40.2996 23.2689 39.7711C23.2866 39.763 23.3043 39.7551 23.322 39.7471C23.347 39.736 23.372 39.7248 23.3969 39.713C23.7416 39.551 24.0785 39.3761 24.4086 39.1901C24.4908 39.1437 24.5723 39.0968 24.6539 39.0487C24.9545 38.8716 25.25 38.6867 25.5372 38.4901C25.62 38.4336 25.7014 38.3747 25.7831 38.3156L25.8439 38.2716C26.0892 38.0951 26.33 37.9129 26.5641 37.7224C26.5874 37.7036 26.6114 37.686 26.6355 37.6683L26.6355 37.6683C26.6651 37.6466 26.6947 37.6249 26.7227 37.6012L27.2339 37.1744L27.2188 37.1615C30.3083 34.3502 32.2509 30.2986 32.2509 25.8012ZM2.63977 25.8012C2.63977 17.9456 9.03055 11.5548 16.8862 11.5548C24.7418 11.5548 31.1326 17.9456 31.1326 25.8012C31.1326 30.0344 29.275 33.8401 26.3341 36.4514C26.1698 36.338 26.0045 36.2363 25.8352 36.1514L21.1048 33.7865C20.6802 33.5742 20.4165 33.1474 20.4165 32.673V31.021C20.526 30.8858 20.6417 30.7327 20.7612 30.5646C21.3735 29.6997 21.8646 28.7377 22.2227 27.7024C22.9306 27.3661 23.3876 26.661 23.3876 25.8649V23.8844C23.3876 23.4 23.2099 22.9302 22.892 22.5609V19.9535C22.9211 19.6635 23.0239 18.0272 21.84 16.6774C20.8104 15.5019 19.1438 14.9069 16.8862 14.9069C14.6286 14.9069 12.962 15.5019 11.9323 16.6768C10.7485 18.0266 10.8513 19.663 10.8803 19.9529V22.5603C10.563 22.9296 10.3848 23.3995 10.3848 23.8838V25.8644C10.3848 26.4795 10.6608 27.0532 11.1334 27.4404C11.586 29.2131 12.5173 30.5551 12.8614 31.0098V32.6267C12.8614 33.0826 12.6128 33.5016 12.2122 33.7206L7.79474 36.1302C7.65395 36.2067 7.51428 36.2961 7.37461 36.3961C4.47001 33.7859 2.63977 30.0037 2.63977 25.8012ZM24.649 37.7388C24.8507 37.6075 25.0496 37.4701 25.2451 37.3282C25.2664 37.3129 25.2877 37.2977 25.3091 37.2826C25.3485 37.2547 25.388 37.2268 25.4267 37.1975C25.3971 37.1818 25.3675 37.1662 25.3373 37.1511L20.6069 34.7862C19.8013 34.3839 19.3007 33.5738 19.3007 32.6732V30.6067L19.4393 30.4486C19.5616 30.3083 19.7041 30.1251 19.8505 29.9184C20.446 29.077 20.9153 28.1312 21.245 27.1071L21.3343 26.8305L21.612 26.7451C22.0009 26.6249 22.2718 26.2635 22.2718 25.8651V23.8846C22.2718 23.6248 22.1612 23.3823 21.9606 23.2013L21.7763 23.0348L21.7813 19.8498L21.7813 19.8492C21.7849 19.816 21.9294 18.461 20.9919 17.4022C20.1818 16.4882 18.8018 16.0245 16.8878 16.0245C14.9665 16.0245 13.582 16.4921 12.7742 17.4128C11.8278 18.4916 11.9926 19.8353 11.9943 19.8487L11.9993 19.9219V23.0337L11.8149 23.2002C11.6138 23.3818 11.5037 23.6237 11.5037 23.8835V25.864C11.5037 26.1774 11.6646 26.468 11.9334 26.6417L12.1239 26.7652L12.1747 26.9864C12.6312 28.9759 13.839 30.4452 13.8513 30.4592L13.9798 30.6145L13.9804 32.6269C13.9804 33.4923 13.5083 34.2873 12.7485 34.7018L8.33098 37.1114L8.27735 37.1416C8.28992 37.1511 8.30221 37.1609 8.3145 37.1707C8.32679 37.1804 8.33908 37.1902 8.35166 37.1997C8.59524 37.3824 8.84553 37.555 9.09917 37.721C9.17962 37.7735 9.26063 37.8254 9.3422 37.8768C9.61763 38.0489 9.89697 38.2137 10.1825 38.3662C10.2072 38.3796 10.2324 38.3924 10.2576 38.4052C10.2734 38.4132 10.2891 38.4212 10.3048 38.4294C10.6177 38.5919 10.9344 38.7461 11.2574 38.8853L11.2646 38.8886C11.606 39.035 11.9535 39.1674 12.3049 39.2869C12.3158 39.2906 12.3268 39.2943 12.3379 39.2981C12.3489 39.3019 12.3599 39.3057 12.3708 39.3093C13.0787 39.5467 13.8055 39.7283 14.5441 39.8518L14.591 39.8602C14.9402 39.9171 15.2927 39.959 15.6469 39.9903C15.6924 39.9945 15.7382 39.9978 15.7841 40.0011C15.7991 40.0021 15.8141 40.0032 15.8291 40.0043C16.1805 40.0306 16.5336 40.0479 16.8878 40.0479C17.2381 40.0479 17.5867 40.0311 17.9336 40.0049C17.9485 40.0038 17.9632 40.0028 17.978 40.0017C18.0256 39.9984 18.0729 39.9951 18.1202 39.9909C18.4711 39.9602 18.8208 39.9194 19.1678 39.8629C19.174 39.8619 19.1802 39.8607 19.1865 39.8594C19.1903 39.8587 19.1941 39.858 19.1979 39.8574C19.5667 39.7965 19.9332 39.7222 20.2952 39.6328C20.2956 39.6328 20.296 39.6327 20.2963 39.6326C20.2971 39.6325 20.2978 39.6322 20.2985 39.6322C20.6572 39.5434 21.012 39.44 21.3623 39.3238C21.376 39.3193 21.3896 39.3147 21.4031 39.31C21.4132 39.3066 21.4232 39.3031 21.4332 39.2998C22.102 39.0746 22.7528 38.7975 23.3819 38.4752C23.404 38.4638 23.4261 38.4526 23.4482 38.4414C23.487 38.4218 23.5256 38.4022 23.564 38.3819C23.8378 38.2366 24.106 38.0813 24.3697 37.9182C24.4543 37.8656 24.537 37.8117 24.6201 37.7577L24.649 37.7388Z" fill="#00C0D2"/>
<path d="M6.51011 37.119L7.00709 37.6807L7.63049 37.1292L7.01717 36.5664L6.51011 37.119ZM6.49558 37.1319L5.9986 36.5702L5.34825 37.1456L6.01216 37.7053L6.49558 37.1319ZM6.99393 37.552L7.47793 36.9791L7.47735 36.9786L6.99393 37.552ZM7.04601 37.592L7.4887 36.9866L7.48869 36.9866L7.04601 37.592ZM7.09393 37.6286L7.57263 37.0512L7.57212 37.0508L7.09393 37.6286ZM7.9124 38.2582L7.47337 38.8663L7.47446 38.8671L7.9124 38.2582ZM7.91273 38.2584L7.47478 38.8673L7.48561 38.8751L7.49671 38.8825L7.91273 38.2584ZM7.91275 38.2584L8.35186 37.6504L8.34047 37.6422L8.32877 37.6344L7.91275 38.2584ZM8.1856 38.4526L7.75928 39.0697L7.76002 39.0702L8.1856 38.4526ZM9.10296 39.0381L8.72133 39.6838L8.72176 39.684L9.10296 39.0381ZM9.30824 39.1564L8.93728 39.8082L8.93743 39.8083L9.30824 39.1564ZM9.30855 39.1566L9.67963 38.5048L9.67937 38.5046L9.30855 39.1566ZM10.3589 39.7041L10.0392 40.3825L10.0409 40.3833L10.3589 39.7041ZM10.3983 39.7219L10.095 40.4078L10.0954 40.4079L10.3983 39.7219ZM10.3985 39.7219L10.7018 39.036L10.7015 39.0359L10.3985 39.7219ZM10.4382 39.7398L10.1203 40.4191L10.1221 40.4199L10.4382 39.7398ZM14.154 40.9159L14.0208 41.6539L14.0216 41.6541L14.154 40.9159ZM14.2568 40.9343L14.1244 41.6725L14.1292 41.6734L14.2568 40.9343ZM15.4842 41.0974L15.4167 41.8444L15.4178 41.8445L15.4842 41.0974ZM15.5606 41.1034L15.5067 41.8514L15.5123 41.8518L15.5606 41.1034ZM15.5607 41.1034L15.6145 40.3553L15.6089 40.3549L15.5607 41.1034ZM15.6356 41.1092L15.57 41.8563L15.5739 41.8566L15.6356 41.1092ZM18.1285 41.1103L18.1886 41.8579L18.1928 41.8575L18.1285 41.1103ZM18.2844 41.0985L18.3487 41.8458L18.3524 41.8454L18.2844 41.0985ZM19.5012 40.9382L19.628 41.6774L19.6324 41.6766L19.5012 40.9382ZM19.552 40.9292L19.6832 41.6676L19.6847 41.6673L19.552 40.9292ZM19.6056 40.9192L19.4732 40.1809L19.4631 40.1829L19.6056 40.9192ZM23.2689 39.7711L23.5817 40.4528L23.5827 40.4523L23.2689 39.7711ZM23.322 39.7471L23.0159 39.0625L23.0159 39.0625L23.322 39.7471ZM23.3969 39.713L23.0778 39.0342L23.0758 39.0352L23.3969 39.713ZM24.4086 39.1901L24.7768 39.8435L24.7774 39.8432L24.4086 39.1901ZM24.6539 39.0487L25.0346 39.695L25.0347 39.6949L24.6539 39.0487ZM25.5372 38.4901L25.115 37.8702L25.1134 37.8713L25.5372 38.4901ZM25.7831 38.3156L25.3437 37.7078L25.3433 37.7081L25.7831 38.3156ZM25.8439 38.2716L25.4058 37.6629L25.4045 37.6638L25.8439 38.2716ZM26.5641 37.7224L26.0932 37.1386L26.0906 37.1407L26.5641 37.7224ZM26.6355 37.6683L26.2496 37.0252L26.2199 37.043L26.1919 37.0636L26.6355 37.6683ZM26.6355 37.6683L27.0214 38.3114L27.0511 38.2936L27.0791 38.2731L26.6355 37.6683ZM26.7227 37.6012L26.242 37.0255L26.2383 37.0286L26.7227 37.6012ZM27.2339 37.1744L27.7146 37.7501L28.3971 37.1802L27.7203 36.6035L27.2339 37.1744ZM27.2188 37.1615L26.7141 36.6068L26.0841 37.18L26.7324 37.7324L27.2188 37.1615ZM26.3341 36.4514L25.9079 37.0686L26.3921 37.4029L26.8321 37.0122L26.3341 36.4514ZM25.8352 36.1514L26.1715 35.481L26.1706 35.4806L25.8352 36.1514ZM21.1048 33.7865L20.7694 34.4573L20.7694 34.4573L21.1048 33.7865ZM20.4165 31.021L19.8337 30.549L19.6665 30.7554V31.021H20.4165ZM20.7612 30.5646L21.3725 30.9991L21.3733 30.9979L20.7612 30.5646ZM22.2227 27.7024L21.9009 27.025L21.6168 27.16L21.514 27.4572L22.2227 27.7024ZM22.892 22.5609H22.142V22.8392L22.3236 23.0502L22.892 22.5609ZM22.892 19.9535L22.1458 19.8787L22.142 19.916V19.9535H22.892ZM21.84 16.6774L21.2759 17.1716L21.2762 17.1719L21.84 16.6774ZM11.9323 16.6768L12.4962 17.1714L12.4964 17.1711L11.9323 16.6768ZM10.8803 19.9529H11.6303V19.9155L11.6266 19.8782L10.8803 19.9529ZM10.8803 22.5603L11.4492 23.0491L11.6303 22.8383V22.5603H10.8803ZM11.1334 27.4404L11.8601 27.2549L11.7992 27.0163L11.6087 26.8602L11.1334 27.4404ZM12.8614 31.0098H13.6114V30.758L13.4595 30.5573L12.8614 31.0098ZM12.2122 33.7206L12.5714 34.379L12.572 34.3786L12.2122 33.7206ZM7.79474 36.1302L8.15296 36.7891L8.15388 36.7886L7.79474 36.1302ZM7.37461 36.3961L6.87331 36.954L7.3214 37.3566L7.81123 37.0059L7.37461 36.3961ZM25.2451 37.3282L24.806 36.7202L24.8046 36.7212L25.2451 37.3282ZM24.649 37.7388L25.0581 38.3674L25.0582 38.3674L24.649 37.7388ZM25.3091 37.2826L25.7424 37.8948L25.7424 37.8948L25.3091 37.2826ZM25.4267 37.1975L25.8794 37.7954L26.8185 37.0845L25.777 36.5343L25.4267 37.1975ZM25.3373 37.1511L25.6727 36.4803L25.6727 36.4803L25.3373 37.1511ZM20.6069 34.7862L20.9423 34.1154L20.942 34.1152L20.6069 34.7862ZM19.3007 30.6067L18.7367 30.1124L18.5507 30.3246V30.6067H19.3007ZM19.4393 30.4486L20.0034 30.9429L20.0044 30.9417L19.4393 30.4486ZM19.8505 29.9184L20.4626 30.3518L20.4626 30.3517L19.8505 29.9184ZM21.245 27.1071L20.5313 26.8764L20.531 26.8773L21.245 27.1071ZM21.3343 26.8305L21.1137 26.1137L20.7407 26.2286L20.6207 26.5999L21.3343 26.8305ZM21.612 26.7451L21.8327 27.4619L21.8334 27.4616L21.612 26.7451ZM21.9606 23.2013L21.458 23.758L21.4581 23.7581L21.9606 23.2013ZM21.7763 23.0348L21.0263 23.0337L21.0257 23.3676L21.2736 23.5915L21.7763 23.0348ZM21.7813 19.8498L21.0353 19.7727L21.0313 19.8106L21.0313 19.8486L21.7813 19.8498ZM21.7813 19.8492L21.0356 19.7697L21.0353 19.7722L21.7813 19.8492ZM20.9919 17.4022L21.5534 16.905L21.5531 16.9047L20.9919 17.4022ZM12.7742 17.4128L12.2104 16.9182L12.2104 16.9182L12.7742 17.4128ZM11.9943 19.8487L12.7425 19.7973L12.7411 19.7764L12.7385 19.7556L11.9943 19.8487ZM11.9993 19.9219H12.7493V19.8961L12.7475 19.8705L11.9993 19.9219ZM11.9993 23.0337L12.502 23.5904L12.7493 23.367V23.0337H11.9993ZM11.8149 23.2002L12.3175 23.7569L12.3176 23.7568L11.8149 23.2002ZM11.9334 26.6417L12.3413 26.0123L12.3406 26.0119L11.9334 26.6417ZM12.1239 26.7652L12.8548 26.5972L12.7868 26.3011L12.5318 26.1358L12.1239 26.7652ZM12.1747 26.9864L12.9057 26.8187L12.9057 26.8184L12.1747 26.9864ZM13.8513 30.4592L14.4292 29.9811L14.4219 29.9723L14.4144 29.9637L13.8513 30.4592ZM13.9798 30.6145L14.7298 30.6143L14.7298 30.3444L14.5577 30.1364L13.9798 30.6145ZM13.9804 32.6269H14.7304V32.6267L13.9804 32.6269ZM12.7485 34.7018L13.1076 35.3602L13.1077 35.3602L12.7485 34.7018ZM8.33098 37.1114L7.97181 36.453L7.96327 36.4578L8.33098 37.1114ZM8.27735 37.1416L7.90964 36.4879L6.91128 37.0495L7.82525 37.74L8.27735 37.1416ZM8.35166 37.1997L7.8995 37.7981L7.90165 37.7997L8.35166 37.1997ZM9.09917 37.721L8.68859 38.3486L8.6892 38.349L9.09917 37.721ZM9.3422 37.8768L8.94236 38.5114L8.94482 38.5129L9.3422 37.8768ZM10.1825 38.3662L10.5397 37.7067L10.5359 37.7047L10.1825 38.3662ZM10.2576 38.4052L9.91824 39.074L9.91829 39.0741L10.2576 38.4052ZM10.3048 38.4294L9.95853 39.0946L9.95899 39.0949L10.3048 38.4294ZM11.2574 38.8853L11.5716 38.2043L11.5629 38.2002L11.5541 38.1964L11.2574 38.8853ZM11.2646 38.8886L10.9504 39.5696L10.9597 39.5739L10.9691 39.5779L11.2646 38.8886ZM12.3049 39.2869L12.0633 39.997L12.0677 39.9985L12.3049 39.2869ZM12.3708 39.3093L12.6093 38.5982L12.608 38.5978L12.3708 39.3093ZM14.5441 39.8518L14.6759 39.1134L14.6678 39.112L14.5441 39.8518ZM14.591 39.8602L14.4592 40.5986L14.4702 40.6004L14.591 39.8602ZM15.6469 39.9903L15.7161 39.2435L15.7129 39.2432L15.6469 39.9903ZM15.7841 40.0011L15.7309 40.7492H15.7309L15.7841 40.0011ZM15.8291 40.0043L15.885 39.2564L15.884 39.2563L15.8291 40.0043ZM17.9336 40.0049L17.8802 39.2568L17.877 39.257L17.9336 40.0049ZM17.978 40.0017L18.0299 40.7499L18.03 40.7499L17.978 40.0017ZM18.1202 39.9909L18.0548 39.2437L18.0529 39.2439L18.1202 39.9909ZM19.1678 39.8629L19.2882 40.6032L19.2909 40.6028L19.1678 39.8629ZM19.1865 39.8594L19.0446 39.123L19.0443 39.123L19.1865 39.8594ZM19.1979 39.8574L19.0757 39.1174L19.0746 39.1176L19.1979 39.8574ZM20.2952 39.6328V38.8828H20.204L20.1154 38.9046L20.2952 39.6328ZM20.2963 39.6326L20.461 40.3643L20.4612 40.3643L20.2963 39.6326ZM20.2985 39.6322V40.3822H20.39L20.4788 40.3602L20.2985 39.6322ZM21.3623 39.3238L21.1301 38.6107L21.1261 38.612L21.3623 39.3238ZM21.4031 39.31L21.1595 38.6007L21.1595 38.6007L21.4031 39.31ZM21.4332 39.2998L21.6704 40.0113L21.6725 40.0106L21.4332 39.2998ZM23.3819 38.4752L23.724 39.1426L23.7246 39.1423L23.3819 38.4752ZM23.4482 38.4414L23.7874 39.1103L23.7875 39.1103L23.4482 38.4414ZM23.564 38.3819L23.9141 39.0452L23.9156 39.0444L23.564 38.3819ZM24.3697 37.9182L24.7642 38.556L24.7655 38.5552L24.3697 37.9182ZM24.6201 37.7577L24.2109 37.1291L24.2109 37.1291L24.6201 37.7577ZM16.8871 11.1874C24.9442 11.1874 31.5009 17.7441 31.5009 25.8012H33.0009C33.0009 16.9157 25.7726 9.68744 16.8871 9.68744V11.1874ZM2.2733 25.8012C2.2733 17.7441 8.82999 11.1874 16.8871 11.1874V9.68744C8.00156 9.68744 0.7733 16.9157 0.7733 25.8012H2.2733ZM7.01717 36.5664C4.1021 33.8917 2.2733 30.0561 2.2733 25.8012H0.7733C0.7733 30.4954 2.79272 34.726 6.00305 37.6717L7.01717 36.5664ZM6.99256 37.6936L7.00709 37.6807L6.01313 36.5573L5.9986 36.5702L6.99256 37.6936ZM7.47735 36.9786L6.979 36.5585L6.01216 37.7053L6.51051 38.1254L7.47735 36.9786ZM7.48869 36.9866C7.48407 36.9832 7.48101 36.981 7.47818 36.9789C7.4755 36.9769 7.47392 36.9757 7.47301 36.975C7.47107 36.9736 7.47336 36.9752 7.47793 36.9791L6.50993 38.125C6.55017 38.159 6.5891 38.187 6.60333 38.1974L7.48869 36.9866ZM7.57212 37.0508C7.53639 37.0212 7.50196 36.9963 7.4887 36.9866L6.60332 38.1974C6.60756 38.2005 6.61047 38.2027 6.61318 38.2047C6.61576 38.2066 6.6174 38.2078 6.61846 38.2086C6.6207 38.2103 6.61924 38.2092 6.61575 38.2063L7.57212 37.0508ZM8.35143 37.6501C8.08169 37.4554 7.82128 37.2574 7.57263 37.0512L6.61523 38.2059C6.89621 38.4389 7.18444 38.6577 7.47337 38.8663L8.35143 37.6501ZM8.35068 37.6496L8.35035 37.6493L7.47446 38.8671L7.47478 38.8673L8.35068 37.6496ZM8.32877 37.6344L8.32876 37.6344L7.49671 38.8825L7.49672 38.8825L8.32877 37.6344ZM8.61192 37.8356C8.52737 37.7772 8.4433 37.7165 8.35186 37.6504L7.47363 38.8665C7.56298 38.931 7.6597 39.0009 7.75928 39.0697L8.61192 37.8356ZM9.48458 38.3925C9.186 38.216 8.89455 38.0303 8.61119 37.8351L7.76002 39.0702C8.07332 39.2861 8.39419 39.4904 8.72133 39.6838L9.48458 38.3925ZM9.67921 38.5046C9.60974 38.465 9.54627 38.4289 9.48415 38.3922L8.72176 39.684C8.79576 39.7277 8.86951 39.7697 8.93728 39.8082L9.67921 38.5046ZM9.67937 38.5046L9.67906 38.5045L8.93743 39.8083L8.93774 39.8085L9.67937 38.5046ZM10.6785 39.0256C10.34 38.8661 10.0075 38.6915 9.67963 38.5048L8.93748 39.8083C9.29456 40.0116 9.6615 40.2046 10.0392 40.3825L10.6785 39.0256ZM10.7017 39.0359C10.6873 39.0296 10.6814 39.0269 10.6768 39.0248L10.0409 40.3833C10.0624 40.3934 10.083 40.4025 10.095 40.4078L10.7017 39.0359ZM10.7015 39.0359L10.7013 39.0358L10.0954 40.4079L10.0956 40.408L10.7015 39.0359ZM10.7561 39.0605C10.7345 39.0504 10.7138 39.0413 10.7018 39.036L10.0953 40.4079C10.1098 40.4143 10.1157 40.417 10.1203 40.4191L10.7561 39.0605ZM14.2873 40.1778C13.048 39.9541 11.8636 39.5753 10.7543 39.0597L10.1221 40.4199C11.347 40.9893 12.6543 41.4072 14.0208 41.6539L14.2873 40.1778ZM14.3892 40.1961L14.2864 40.1776L14.0216 41.6541L14.1244 41.6725L14.3892 40.1961ZM15.5518 40.3505C15.1603 40.3151 14.7715 40.2621 14.3844 40.1952L14.1292 41.6734C14.5511 41.7462 14.9802 41.8049 15.4167 41.8444L15.5518 40.3505ZM15.6145 40.3553C15.5879 40.3534 15.5688 40.352 15.5507 40.3504L15.4178 41.8445C15.4505 41.8474 15.4822 41.8497 15.5067 41.8514L15.6145 40.3553ZM15.6089 40.3549L15.6089 40.3549L15.5123 41.8518L15.5124 41.8518L15.6089 40.3549ZM15.7013 40.362C15.6693 40.3592 15.6385 40.357 15.6145 40.3553L15.5068 41.8514C15.5326 41.8533 15.5517 41.8547 15.57 41.8563L15.7013 40.362ZM16.8871 40.415C16.4903 40.415 16.0948 40.3946 15.6974 40.3617L15.5739 41.8566C16.0011 41.8919 16.4392 41.915 16.8871 41.915V40.415ZM18.0684 40.3627C17.6717 40.3946 17.2798 40.415 16.8871 40.415V41.915C17.3313 41.915 17.7651 41.8919 18.1886 41.8579L18.0684 40.3627ZM18.1541 40.3562C18.1291 40.358 18.0972 40.3602 18.0642 40.363L18.1928 41.8575C18.2118 41.8559 18.2317 41.8545 18.2587 41.8526L18.1541 40.3562ZM18.2201 40.3513C18.2011 40.3529 18.1811 40.3544 18.1541 40.3562L18.2587 41.8526C18.2837 41.8508 18.3157 41.8486 18.3487 41.8458L18.2201 40.3513ZM19.3744 40.199C18.9922 40.2646 18.6062 40.3161 18.2163 40.3516L18.3524 41.8454C18.7838 41.8061 19.209 41.7493 19.628 41.6774L19.3744 40.199ZM19.4207 40.1907L19.3699 40.1998L19.6324 41.6766L19.6832 41.6676L19.4207 40.1907ZM19.4631 40.1829C19.4499 40.1854 19.4355 40.1881 19.4192 40.191L19.6847 41.6673C19.7044 41.6638 19.7259 41.6599 19.7481 41.6555L19.4631 40.1829ZM22.9562 39.0894C21.861 39.5919 20.6935 39.9621 19.4732 40.181L19.7381 41.6574C21.0844 41.4159 22.3729 41.0074 23.5817 40.4528L22.9562 39.0894ZM23.0159 39.0625C22.9988 39.0701 22.9773 39.0797 22.9552 39.0899L23.5827 40.4523C23.5959 40.4463 23.6098 40.44 23.6282 40.4318L23.0159 39.0625ZM23.0758 39.0352C23.0596 39.0429 23.0421 39.0507 23.0159 39.0625L23.6282 40.4318C23.652 40.4212 23.6845 40.4067 23.718 40.3908L23.0758 39.0352ZM24.0405 38.5367C23.7253 38.7143 23.4048 38.8806 23.0778 39.0342L23.7159 40.3918C24.0784 40.2214 24.4317 40.038 24.7768 39.8435L24.0405 38.5367ZM24.2733 38.4025C24.1961 38.448 24.1185 38.4926 24.0399 38.537L24.7774 39.8432C24.863 39.7948 24.9486 39.7456 25.0346 39.695L24.2733 38.4025ZM25.1134 37.8713C24.8432 38.0563 24.5625 38.2321 24.2732 38.4026L25.0347 39.6949C25.3465 39.5112 25.6569 39.3171 25.961 39.1089L25.1134 37.8713ZM25.3433 37.7081C25.2602 37.7683 25.1875 37.8208 25.115 37.8702L25.9594 39.1099C26.0526 39.0464 26.1427 38.9811 26.223 38.923L25.3433 37.7081ZM25.4045 37.6638L25.3437 37.7078L26.2226 38.9233L26.2834 38.8794L25.4045 37.6638ZM26.0906 37.1407C25.8702 37.3201 25.6415 37.4932 25.4058 37.6629L26.2821 38.8803C26.5368 38.6969 26.7897 38.5058 27.0375 38.3041L26.0906 37.1407ZM26.1919 37.0636C26.1701 37.0796 26.1321 37.1073 26.0932 37.1386L27.0349 38.3062C27.0426 38.3 27.0528 38.2924 27.0791 38.2731L26.1919 37.0636ZM26.2497 37.0252L26.2496 37.0252L27.0214 38.3114L27.0214 38.3114L26.2497 37.0252ZM26.2383 37.0286C26.2334 37.0327 26.225 37.0393 26.192 37.0635L27.0791 38.2731C27.1052 38.2539 27.1559 38.2171 27.2072 38.1737L26.2383 37.0286ZM26.7532 36.5987L26.242 37.0255L27.2034 38.1769L27.7146 37.7501L26.7532 36.5987ZM26.7324 37.7324L26.7475 37.7452L27.7203 36.6035L27.7052 36.5906L26.7324 37.7324ZM31.5009 25.8012C31.5009 30.078 29.6545 33.9311 26.7141 36.6068L27.7236 37.7162C30.9622 34.7693 33.0009 30.5193 33.0009 25.8012H31.5009ZM16.8862 10.8048C8.61633 10.8048 1.88977 17.5314 1.88977 25.8012H3.38977C3.38977 18.3598 9.44476 12.3048 16.8862 12.3048V10.8048ZM31.8826 25.8012C31.8826 17.5314 25.1561 10.8048 16.8862 10.8048V12.3048C24.3276 12.3048 30.3826 18.3598 30.3826 25.8012H31.8826ZM26.8321 37.0122C29.9257 34.2654 31.8826 30.2587 31.8826 25.8012H30.3826C30.3826 29.8101 28.6243 33.4149 25.8361 35.8906L26.8321 37.0122ZM25.4989 36.8218C25.6293 36.8872 25.7642 36.9694 25.9079 37.0686L26.7602 35.8342C26.5754 35.7066 26.3796 35.5855 26.1715 35.481L25.4989 36.8218ZM20.7694 34.4573L25.4998 36.8222L26.1706 35.4806L21.4402 33.1157L20.7694 34.4573ZM19.6665 32.673C19.6665 33.4315 20.0907 34.118 20.7694 34.4573L21.4402 33.1157C21.2697 33.0304 21.1665 32.8633 21.1665 32.673H19.6665ZM19.6665 31.021V32.673H21.1665V31.021H19.6665ZM20.15 30.13C20.038 30.2875 19.9318 30.4279 19.8337 30.549L20.9993 31.493C21.1202 31.3438 21.2454 31.1779 21.3725 30.9991L20.15 30.13ZM21.514 27.4572C21.1782 28.4279 20.719 29.3262 20.1491 30.1312L21.3733 30.9979C22.028 30.0732 22.5511 29.0475 22.9315 27.9476L21.514 27.4572ZM22.6376 25.8649C22.6376 26.3666 22.3517 26.8108 21.9009 27.025L22.5446 28.3799C23.5095 27.9214 24.1376 26.9555 24.1376 25.8649H22.6376ZM22.6376 23.8844V25.8649H24.1376V23.8844H22.6376ZM22.3236 23.0502C22.527 23.2864 22.6376 23.5836 22.6376 23.8844H24.1376C24.1376 23.2165 23.8929 22.5739 23.4605 22.0716L22.3236 23.0502ZM22.142 19.9535V22.5609H23.642V19.9535H22.142ZM21.2762 17.1719C22.2492 18.2813 22.1688 19.6489 22.1458 19.8787L23.6383 20.0283C23.6734 19.6782 23.7986 17.773 22.4039 16.1828L21.2762 17.1719ZM16.8862 15.6569C19.0265 15.6569 20.4429 16.2206 21.2759 17.1716L22.4042 16.1832C21.1779 14.7832 19.2612 14.1569 16.8862 14.1569V15.6569ZM12.4964 17.1711C13.3294 16.2206 14.7459 15.6569 16.8862 15.6569V14.1569C14.5112 14.1569 12.5946 14.7832 11.3683 16.1825L12.4964 17.1711ZM11.6266 19.8782C11.6036 19.6483 11.5232 18.2808 12.4962 17.1714L11.3685 16.1823C9.97381 17.7724 10.099 19.6776 10.1341 20.0277L11.6266 19.8782ZM11.6303 22.5603V19.9529H10.1303V22.5603H11.6303ZM11.1348 23.8838C11.1348 23.5835 11.2456 23.286 11.4492 23.0491L10.3115 22.0715C9.8804 22.5732 9.6348 23.2154 9.6348 23.8838H11.1348ZM11.1348 25.8644V23.8838H9.6348V25.8644H11.1348ZM11.6087 26.8602C11.3078 26.6137 11.1348 26.2519 11.1348 25.8644H9.6348C9.6348 26.7071 10.0138 27.4928 10.6582 28.0206L11.6087 26.8602ZM13.4595 30.5573C13.143 30.139 12.2774 28.8896 11.8601 27.2549L10.4067 27.6259C10.8945 29.5366 11.8916 30.9711 12.2634 31.4624L13.4595 30.5573ZM13.6114 32.6267V31.0098H12.1114V32.6267H13.6114ZM12.572 34.3786C13.2129 34.0283 13.6114 33.3571 13.6114 32.6267H12.1114C12.1114 32.808 12.0128 32.9748 11.8525 33.0625L12.572 34.3786ZM8.15388 36.7886L12.5714 34.379L11.8531 33.0622L7.43559 35.4718L8.15388 36.7886ZM7.81123 37.0059C7.93084 36.9203 8.04424 36.8482 8.15296 36.7891L7.43651 35.4713C7.26367 35.5652 7.09772 35.6719 6.93799 35.7863L7.81123 37.0059ZM1.88977 25.8012C1.88977 30.2262 3.81782 34.2082 6.87331 36.954L7.87591 35.8383C5.12221 33.3637 3.38977 29.7811 3.38977 25.8012H1.88977ZM24.8046 36.7212C24.6184 36.8563 24.43 36.9865 24.2398 37.1103L25.0582 38.3674C25.2714 38.2286 25.4808 38.0839 25.6856 37.9352L24.8046 36.7212ZM24.8758 36.6704C24.8549 36.6852 24.8306 36.7024 24.806 36.7202L25.6842 37.9362C25.7021 37.9233 25.7206 37.9102 25.7424 37.8948L24.8758 36.6704ZM24.974 36.5995C24.9464 36.6204 24.9168 36.6414 24.8758 36.6704L25.7424 37.8948C25.7802 37.868 25.8295 37.8332 25.8794 37.7954L24.974 36.5995ZM25.0019 37.8219C25.0233 37.8326 25.0456 37.8444 25.0764 37.8606L25.777 36.5343C25.7486 36.5193 25.7116 36.4997 25.6727 36.4803L25.0019 37.8219ZM20.2716 35.457L25.0019 37.8219L25.6727 36.4803L20.9423 34.1154L20.2716 35.457ZM18.5507 32.6732C18.5507 33.8578 19.2118 34.9279 20.2719 35.4572L20.942 34.1152C20.3909 33.84 20.0507 33.2899 20.0507 32.6732H18.5507ZM18.5507 30.6067V32.6732H20.0507V30.6067H18.5507ZM18.8752 29.9543L18.7367 30.1124L19.8648 31.101L20.0033 30.9429L18.8752 29.9543ZM19.2384 29.485C19.1024 29.677 18.9757 29.8391 18.8742 29.9555L20.0044 30.9417C20.1476 30.7775 20.3058 30.5732 20.4626 30.3518L19.2384 29.485ZM20.531 26.8773C20.2238 27.8318 19.788 28.7086 19.2383 29.4851L20.4626 30.3517C21.1041 29.4454 21.6069 28.4305 21.9589 27.3369L20.531 26.8773ZM20.6207 26.5999L20.5313 26.8764L21.9586 27.3378L22.048 27.0612L20.6207 26.5999ZM21.3913 26.0283L21.1137 26.1137L21.555 27.5473L21.8327 27.4619L21.3913 26.0283ZM21.5218 25.8651C21.5218 25.9249 21.4745 26.0026 21.3906 26.0285L21.8334 27.4616C22.5272 27.2473 23.0218 26.602 23.0218 25.8651H21.5218ZM21.5218 23.8846V25.8651H23.0218V23.8846H21.5218ZM21.4581 23.7581C21.5087 23.8038 21.5218 23.8471 21.5218 23.8846H23.0218C23.0218 23.4026 22.8137 22.9609 22.4631 22.6446L21.4581 23.7581ZM21.2736 23.5915L21.458 23.758L22.4633 22.6447L22.2789 22.4782L21.2736 23.5915ZM21.0313 19.8486L21.0263 23.0337L22.5263 23.036L22.5313 19.851L21.0313 19.8486ZM21.0353 19.7722L21.0353 19.7727L22.5273 19.9268L22.5274 19.9263L21.0353 19.7722ZM20.4303 17.8994C21.1425 18.7037 21.0357 19.7686 21.0356 19.7697L22.5271 19.9287C22.5341 19.8634 22.7162 18.2183 21.5534 16.905L20.4303 17.8994ZM16.8878 16.7745C18.7073 16.7745 19.8267 17.2183 20.4306 17.8997L21.5531 16.9047C20.5368 15.758 18.8963 15.2745 16.8878 15.2745V16.7745ZM13.3379 17.9075C13.9392 17.2222 15.061 16.7745 16.8878 16.7745V15.2745C14.8719 15.2745 13.2248 15.762 12.2104 16.9182L13.3379 17.9075ZM12.7385 19.7556C12.7421 19.7843 12.6163 18.73 13.338 17.9074L12.2104 16.9182C11.0392 18.2532 11.2431 19.8862 11.2501 19.9417L12.7385 19.7556ZM12.7475 19.8705L12.7425 19.7973L11.246 19.9001L11.2511 19.9733L12.7475 19.8705ZM12.7493 23.0337V19.9219H11.2493V23.0337H12.7493ZM12.3176 23.7568L12.502 23.5904L11.4966 22.4771L11.3123 22.6436L12.3176 23.7568ZM12.2537 23.8835C12.2537 23.8457 12.2665 23.803 12.3175 23.7569L11.3124 22.6435C10.9611 22.9606 10.7537 23.4017 10.7537 23.8835H12.2537ZM12.2537 25.864V23.8835H10.7537V25.864H12.2537ZM12.3406 26.0119C12.2792 25.9722 12.2537 25.9155 12.2537 25.864H10.7537C10.7537 26.4394 11.05 26.9637 11.5262 27.2715L12.3406 26.0119ZM12.5318 26.1358L12.3413 26.0123L11.5255 27.2711L11.716 27.3946L12.5318 26.1358ZM12.9057 26.8184L12.8548 26.5972L11.3929 26.9331L11.4438 27.1544L12.9057 26.8184ZM14.4144 29.9637C14.4431 29.9964 13.323 28.6376 12.9057 26.8187L11.4437 27.1541C11.9393 29.3142 13.2349 30.894 13.2883 30.9547L14.4144 29.9637ZM14.5577 30.1364L14.4292 29.9811L13.2735 30.9373L13.402 31.0926L14.5577 30.1364ZM14.7304 32.6267L14.7298 30.6143L13.2298 30.6147L13.2304 32.6271L14.7304 32.6267ZM13.1077 35.3602C14.1083 34.8143 14.7304 33.7669 14.7304 32.6269H13.2304C13.2304 33.2177 12.9083 33.7603 12.3893 34.0434L13.1077 35.3602ZM8.69013 37.7698L13.1076 35.3602L12.3893 34.0434L7.97184 36.453L8.69013 37.7698ZM8.64506 37.7953L8.69869 37.7651L7.96327 36.4578L7.90964 36.4879L8.64506 37.7953ZM8.7814 36.5837C8.7703 36.5749 8.75072 36.5593 8.72945 36.5432L7.82525 37.74C7.82912 37.7429 7.83412 37.7469 7.8476 37.7576L8.7814 36.5837ZM8.80381 36.6013C8.79992 36.5984 8.79489 36.5944 8.7814 36.5837L7.8476 37.7576C7.8587 37.7664 7.87825 37.782 7.8995 37.7981L8.80381 36.6013ZM9.50976 37.0933C9.26621 36.934 9.02956 36.7706 8.80166 36.5997L7.90165 37.7997C8.16092 37.9942 8.42486 38.1761 8.68859 38.3486L9.50976 37.0933ZM9.74204 37.2423C9.66386 37.193 9.58622 37.1432 9.50915 37.0929L8.6892 38.349C8.77302 38.4037 8.85741 38.4578 8.94236 38.5114L9.74204 37.2423ZM10.5359 37.7047C10.2689 37.5621 10.0045 37.4063 9.73958 37.2408L8.94482 38.5129C9.23076 38.6915 9.52509 38.8654 9.82905 39.0277L10.5359 37.7047ZM10.597 37.7364C10.5702 37.7228 10.5541 37.7146 10.5397 37.7068L9.82527 39.0257C9.86036 39.0447 9.89456 39.062 9.91824 39.074L10.597 37.7364ZM10.6511 37.7641C10.6314 37.7538 10.6121 37.7441 10.5969 37.7363L9.91829 39.0741C9.93459 39.0823 9.94688 39.0886 9.95853 39.0946L10.6511 37.7641ZM11.5541 38.1964C11.2521 38.0664 10.9522 37.9206 10.6506 37.7639L9.95899 39.0949C10.2831 39.2633 10.6168 39.4259 10.9606 39.5741L11.5541 38.1964ZM11.5789 38.2076L11.5716 38.2043L10.9431 39.5662L10.9504 39.5696L11.5789 38.2076ZM12.5465 38.5769C12.2121 38.4632 11.8827 38.3376 11.5602 38.1993L10.9691 39.5779C11.3293 39.7324 11.6948 39.8716 12.0633 39.997L12.5465 38.5769ZM12.5804 38.5884C12.5698 38.5848 12.5561 38.5801 12.5421 38.5754L12.0677 39.9985C12.0755 40.001 12.0838 40.0039 12.0953 40.0078L12.5804 38.5884ZM12.608 38.5978C12.6003 38.5952 12.5919 38.5923 12.5804 38.5884L12.0953 40.0078C12.1059 40.0114 12.1196 40.0161 12.1336 40.0208L12.608 38.5978ZM14.6678 39.112C13.9682 38.9951 13.2797 38.8231 12.6093 38.5982L12.1323 40.0204C12.8776 40.2704 13.6429 40.4615 14.4204 40.5915L14.6678 39.112ZM14.7229 39.1218L14.6759 39.1134L14.4123 40.5901L14.4592 40.5985L14.7229 39.1218ZM15.7129 39.2432C15.3736 39.2133 15.0397 39.1734 14.7118 39.1199L14.4702 40.6004C14.8408 40.6608 15.2119 40.7048 15.581 40.7374L15.7129 39.2432ZM15.8373 39.2529C15.7901 39.2496 15.7523 39.2469 15.7161 39.2435L15.5778 40.7371C15.6326 40.7422 15.6864 40.746 15.7309 40.7492L15.8373 39.2529ZM15.884 39.2563C15.868 39.2551 15.8522 39.254 15.8373 39.2529L15.7309 40.7492C15.7459 40.7502 15.7601 40.7513 15.7742 40.7523L15.884 39.2563ZM16.8878 39.2979C16.5576 39.2979 16.224 39.2817 15.885 39.2564L15.7732 40.7522C16.1369 40.7794 16.5096 40.7979 16.8878 40.7979V39.2979ZM17.877 39.257C17.5435 39.2822 17.2144 39.2979 16.8878 39.2979V40.7979C17.2617 40.7979 17.6299 40.78 17.9902 40.7527L17.877 39.257ZM17.9261 39.2535C17.9114 39.2546 17.8959 39.2556 17.8802 39.2568L17.9871 40.7529C18.001 40.7519 18.015 40.751 18.0299 40.7499L17.9261 39.2535ZM18.0529 39.2439C18.0145 39.2474 17.9749 39.2501 17.926 39.2535L18.03 40.7499C18.0762 40.7467 18.1313 40.7429 18.1875 40.7379L18.0529 39.2439ZM19.0474 39.1227C18.7225 39.1755 18.3916 39.2142 18.0548 39.2437L18.1857 40.738C18.5506 40.7061 18.9191 40.6632 19.2882 40.6032L19.0474 39.1227ZM19.0443 39.123L19.0447 39.1231L19.2909 40.6028C19.3021 40.6009 19.3115 40.5991 19.3175 40.598C19.3205 40.5974 19.3232 40.5969 19.325 40.5966C19.3271 40.5961 19.3277 40.596 19.3286 40.5959L19.0443 39.123ZM19.0746 39.1176C19.0613 39.1198 19.0501 39.1219 19.0446 39.123L19.3284 40.5959C19.3305 40.5955 19.3269 40.5962 19.3212 40.5972L19.0746 39.1176ZM20.1154 38.9046C19.7738 38.989 19.4266 39.0594 19.0757 39.1174L19.3201 40.5973C19.7068 40.5335 20.0925 40.4553 20.475 40.3609L20.1154 38.9046ZM20.1317 38.9009C20.1524 38.8963 20.2143 38.8828 20.2952 38.8828V40.3828C20.3768 40.3828 20.4396 40.3691 20.461 40.3643L20.1317 38.9009ZM20.2985 38.8822C20.2192 38.8822 20.158 38.8951 20.1356 38.9C20.1291 38.9015 20.1238 38.9027 20.1205 38.9035C20.1174 38.9043 20.1149 38.9049 20.1148 38.9049C20.1124 38.9055 20.1213 38.9032 20.1314 38.901L20.4612 40.3643C20.4717 40.3619 20.481 40.3595 20.4789 40.3601C20.4789 40.3601 20.4783 40.3602 20.4775 40.3604C20.4767 40.3606 20.4754 40.3609 20.4738 40.3613C20.4707 40.3621 20.4656 40.3633 20.4593 40.3647C20.4376 40.3695 20.3772 40.3822 20.2985 40.3822V38.8822ZM21.1261 38.612C20.7933 38.7224 20.4572 38.8203 20.1182 38.9042L20.4788 40.3602C20.8573 40.2665 21.2307 40.1577 21.5984 40.0357L21.1261 38.612ZM21.1595 38.6007C21.1451 38.6056 21.1372 38.6084 21.1301 38.6107L21.5945 40.037C21.6149 40.0303 21.6341 40.0237 21.6468 40.0193L21.1595 38.6007ZM21.1961 38.5883C21.1823 38.5929 21.1689 38.5975 21.1595 38.6007L21.6468 40.0194C21.6575 40.0157 21.6642 40.0134 21.6704 40.0113L21.1961 38.5883ZM23.0399 37.8077C22.4424 38.1139 21.8258 38.3763 21.1939 38.589L21.6725 40.0106C22.3782 39.773 23.0633 39.4812 23.724 39.1426L23.0399 37.8077ZM23.1091 37.7725C23.0872 37.7835 23.0634 37.7956 23.0392 37.8081L23.7246 39.1423C23.7447 39.132 23.7651 39.1217 23.7874 39.1103L23.1091 37.7725ZM23.214 37.7186C23.1819 37.7355 23.1487 37.7524 23.109 37.7725L23.7875 39.1103C23.8253 39.0911 23.8694 39.0688 23.9141 39.0452L23.214 37.7186ZM23.9751 37.2804C23.7237 37.4359 23.4699 37.5828 23.2125 37.7194L23.9156 39.0444C24.2057 38.8905 24.4883 38.7267 24.7642 38.556L23.9751 37.2804ZM24.2109 37.1291C24.1268 37.1839 24.0506 37.2334 23.9739 37.2811L24.7655 38.5552C24.8579 38.4978 24.9473 38.4396 25.0292 38.3862L24.2109 37.1291ZM24.2399 37.1102L24.2109 37.1291L25.0292 38.3863L25.0581 38.3674L24.2399 37.1102Z" fill="#00C0D2"/>
<path fill-rule="evenodd" clip-rule="evenodd" d="M47.6147 86.6699C47.6147 78.1986 40.7222 71.3061 32.2509 71.3061C23.7796 71.3061 16.8871 78.1986 16.8871 86.6699C16.8871 91.1444 18.8112 95.1775 21.8739 97.9877L21.8594 98.0005L22.3577 98.4207C22.3746 98.4349 22.3922 98.4478 22.4098 98.4607C22.426 98.4725 22.4422 98.4844 22.4577 98.4972C22.7225 98.7168 22.9969 98.9252 23.2762 99.1269L23.2765 99.1271L23.2765 99.1271C23.3669 99.1924 23.4573 99.2577 23.5494 99.3213C23.8477 99.5269 24.1539 99.7218 24.4668 99.9068C24.5348 99.9469 24.6034 99.986 24.672 100.025L24.6724 100.025C25.0148 100.22 25.3646 100.404 25.7227 100.573C25.7357 100.579 25.7489 100.585 25.7621 100.591L25.7623 100.591C25.7756 100.596 25.7889 100.602 25.802 100.608C26.9691 101.151 28.215 101.549 29.5178 101.785L29.6206 101.803C30.0251 101.873 30.4341 101.929 30.848 101.966C30.8735 101.968 30.8989 101.97 30.9244 101.972L30.9245 101.972C30.9494 101.974 30.9743 101.976 30.9994 101.978C31.4118 102.012 31.8285 102.034 32.2509 102.034C32.6693 102.034 33.0822 102.012 33.4923 101.979C33.5183 101.977 33.5442 101.975 33.5702 101.973C33.5962 101.971 33.6222 101.969 33.6482 101.967C34.0588 101.93 34.4644 101.876 34.865 101.807L34.9158 101.798C34.9337 101.795 34.9517 101.791 34.9694 101.788C36.2527 101.558 37.4807 101.168 38.6327 100.64C38.6504 100.632 38.6681 100.624 38.6858 100.616C38.7108 100.605 38.7358 100.593 38.7607 100.582C39.1054 100.42 39.4423 100.245 39.7724 100.059C39.8546 100.012 39.9361 99.9654 40.0177 99.9174C40.3183 99.7403 40.6138 99.5554 40.901 99.3587C40.9838 99.3023 41.0652 99.2434 41.1469 99.1842L41.2077 99.1403C41.453 98.9637 41.6938 98.7816 41.9279 98.5911C41.9512 98.5723 41.9752 98.5546 41.9993 98.537L41.9993 98.5369C42.0289 98.5152 42.0585 98.4936 42.0865 98.4698L42.5977 98.043L42.5826 98.0302C45.6721 95.2189 47.6147 91.1673 47.6147 86.6699ZM18.0036 86.6699C18.0036 78.8142 24.3943 72.4235 32.25 72.4235C40.1056 72.4235 46.4964 78.8142 46.4964 86.6699C46.4964 90.903 44.6388 94.7088 41.6979 97.3201C41.5336 97.2067 41.3683 97.105 41.199 97.0201L36.4686 94.6551C36.044 94.4429 35.7803 94.016 35.7803 93.5417V91.8897C35.8898 91.7545 36.0055 91.6014 36.125 91.4332C36.7373 90.5684 37.2284 89.6063 37.5865 88.5711C38.2944 88.2348 38.7514 87.5297 38.7514 86.7336V84.753C38.7514 84.2687 38.5737 83.7988 38.2558 83.4295V80.8221C38.2849 80.5322 38.3877 78.8958 37.2038 77.546C36.1742 76.3706 34.5076 75.7756 32.25 75.7756C29.9924 75.7756 28.3258 76.3706 27.2961 77.5455C26.1123 78.8952 26.2151 80.5316 26.2441 80.8216V83.429C25.9268 83.7983 25.7486 84.2681 25.7486 84.7525V86.733C25.7486 87.3481 26.0246 87.9219 26.4972 88.3091C26.9498 90.0818 27.8811 91.4237 28.2252 91.8785V93.4953C28.2252 93.9512 27.9766 94.3702 27.576 94.5892L23.1585 96.9988C23.0178 97.0754 22.8781 97.1648 22.7384 97.2648C19.8338 94.6546 18.0036 90.8723 18.0036 86.6699ZM40.0128 98.6075C40.2145 98.4762 40.4134 98.3388 40.6089 98.1969C40.6302 98.1815 40.6515 98.1664 40.6729 98.1512C40.7123 98.1234 40.7518 98.0954 40.7905 98.0661C40.7609 98.0505 40.7313 98.0348 40.7011 98.0197L35.9707 95.6548C35.1651 95.2526 34.6645 94.4425 34.6645 93.5419V91.4753L34.8031 91.3172C34.9254 91.177 35.0679 90.9937 35.2143 90.787C35.8098 89.9457 36.2791 88.9998 36.6088 87.9757L36.6981 87.6992L36.9758 87.6137C37.3647 87.4936 37.6356 87.1321 37.6356 86.7338V84.7533C37.6356 84.4935 37.525 84.251 37.3244 84.07L37.1401 83.9035L37.1451 80.7184L37.1451 80.7179C37.1487 80.6847 37.2932 79.3297 36.3557 78.2708C35.5456 77.3568 34.1656 76.8931 32.2516 76.8931C30.3303 76.8931 28.9458 77.3608 28.138 78.2815C27.1916 79.3603 27.3564 80.7039 27.3581 80.7173L27.3631 80.7905V83.9024L27.1787 84.0689C26.9776 84.2504 26.8675 84.4923 26.8675 84.7521V86.7327C26.8675 87.0461 27.0284 87.3366 27.2972 87.5104L27.4877 87.6338L27.5385 87.8551C27.995 89.8445 29.2028 91.3139 29.2151 91.3278L29.3436 91.4832L29.3442 93.4955C29.3442 94.3609 28.8721 95.1559 28.1123 95.5705L23.6948 97.9801L23.6411 98.0103C23.6537 98.0197 23.666 98.0295 23.6783 98.0393C23.6906 98.0491 23.7029 98.0589 23.7155 98.0684C23.959 98.251 24.2093 98.4237 24.463 98.5896C24.5434 98.6421 24.6244 98.6941 24.706 98.7455C24.9814 98.9176 25.2608 99.0824 25.5463 99.2349C25.571 99.2483 25.5962 99.2611 25.6214 99.2739C25.6372 99.2819 25.6529 99.2899 25.6686 99.298C25.9815 99.4606 26.2982 99.6148 26.6212 99.7539L26.6284 99.7573C26.9698 99.9036 27.3173 100.036 27.6687 100.156C27.6796 100.159 27.6906 100.163 27.7017 100.167C27.7127 100.171 27.7237 100.174 27.7346 100.178C28.4425 100.415 29.1693 100.597 29.9079 100.72L29.9548 100.729C30.304 100.786 30.6565 100.828 31.0107 100.859C31.0562 100.863 31.102 100.866 31.1479 100.87C31.1629 100.871 31.1779 100.872 31.1929 100.873C31.5443 100.899 31.8974 100.917 32.2516 100.917C32.6019 100.917 32.9505 100.9 33.2974 100.874C33.3123 100.872 33.327 100.871 33.3418 100.87C33.3894 100.867 33.4367 100.864 33.484 100.86C33.8349 100.829 34.1846 100.788 34.5316 100.732C34.5378 100.731 34.544 100.729 34.5503 100.728C34.5541 100.727 34.5579 100.727 34.5617 100.726C34.9305 100.665 35.297 100.591 35.659 100.501C35.6594 100.501 35.6598 100.501 35.6601 100.501C35.6609 100.501 35.6616 100.501 35.6623 100.501C36.021 100.412 36.3758 100.309 36.7261 100.192C36.7398 100.188 36.7534 100.183 36.7669 100.179C36.777 100.175 36.787 100.172 36.797 100.168C37.4658 99.9433 38.1166 99.6662 38.7457 99.3438C38.7678 99.3325 38.7899 99.3213 38.812 99.3101C38.8508 99.2904 38.8894 99.2708 38.9278 99.2505C39.2016 99.1053 39.4698 98.95 39.7335 98.7868C39.8181 98.7343 39.9008 98.6804 39.9839 98.6263L40.0128 98.6075Z" fill="#00C0D2"/>
<path d="M21.8739 97.9877L22.3709 98.5494L22.9943 97.9978L22.381 97.4351L21.8739 97.9877ZM21.8594 98.0005L21.3624 97.4388L20.7121 98.0143L21.376 98.574L21.8594 98.0005ZM22.3577 98.4207L22.8417 97.8477L22.8411 97.8473L22.3577 98.4207ZM22.4098 98.4607L22.8525 97.8553L22.8525 97.8553L22.4098 98.4607ZM22.4577 98.4972L22.9364 97.9199L22.9359 97.9194L22.4577 98.4972ZM23.2762 99.1269L22.8372 99.7349L22.8383 99.7357L23.2762 99.1269ZM23.2765 99.1271L22.8386 99.7359L22.8494 99.7437L22.8605 99.7511L23.2765 99.1271ZM23.2765 99.1271L23.7157 98.5191L23.7043 98.5109L23.6926 98.5031L23.2765 99.1271ZM23.5494 99.3213L23.1231 99.9383L23.1238 99.9388L23.5494 99.3213ZM24.4668 99.9068L24.0851 100.552L24.0856 100.553L24.4668 99.9068ZM24.672 100.025L24.3011 100.677L24.3012 100.677L24.672 100.025ZM24.6724 100.025L25.0434 99.3734L25.0432 99.3733L24.6724 100.025ZM25.7227 100.573L25.403 101.251L25.4047 101.252L25.7227 100.573ZM25.7621 100.591L25.4588 101.276L25.4592 101.277L25.7621 100.591ZM25.7623 100.591L26.0656 99.9046L26.0653 99.9045L25.7623 100.591ZM25.802 100.608L25.4841 101.288L25.4859 101.289L25.802 100.608ZM29.5178 101.785L29.3846 102.523L29.3854 102.523L29.5178 101.785ZM29.6206 101.803L29.4882 102.541L29.493 102.542L29.6206 101.803ZM30.848 101.966L30.7805 102.713L30.7816 102.713L30.848 101.966ZM30.9244 101.972L30.8705 102.72L30.8761 102.72L30.9244 101.972ZM30.9245 101.972L30.9783 101.224L30.9727 101.224L30.9245 101.972ZM30.9994 101.978L30.9338 102.725L30.9377 102.725L30.9994 101.978ZM33.4923 101.979L33.5524 102.727L33.5566 102.726L33.4923 101.979ZM33.6482 101.967L33.7125 102.714L33.7162 102.714L33.6482 101.967ZM34.865 101.807L34.9918 102.546L34.9962 102.545L34.865 101.807ZM34.9158 101.798L35.047 102.536L35.0485 102.536L34.9158 101.798ZM34.9694 101.788L34.837 101.05L34.8269 101.052L34.9694 101.788ZM38.6327 100.64L38.9455 101.321L38.9465 101.321L38.6327 100.64ZM38.6858 100.616L38.3797 99.9311L38.3797 99.9311L38.6858 100.616ZM38.7607 100.582L38.4416 99.9029L38.4396 99.9039L38.7607 100.582ZM39.7724 100.059L40.1406 100.712L40.1412 100.712L39.7724 100.059ZM40.0177 99.9174L40.3984 100.564L40.3985 100.564L40.0177 99.9174ZM40.901 99.3587L40.4788 98.7388L40.4772 98.7399L40.901 99.3587ZM41.1469 99.1842L40.7075 98.5764L40.7071 98.5767L41.1469 99.1842ZM41.2077 99.1403L40.7696 98.5316L40.7683 98.5325L41.2077 99.1403ZM41.9279 98.5911L41.457 98.0073L41.4544 98.0094L41.9279 98.5911ZM41.9993 98.537L41.6134 97.8938L41.5837 97.9117L41.5557 97.9322L41.9993 98.537ZM41.9993 98.5369L42.3852 99.1801L42.4149 99.1622L42.4429 99.1417L41.9993 98.5369ZM42.0865 98.4698L41.6058 97.8941L41.6021 97.8973L42.0865 98.4698ZM42.5977 98.043L43.0784 98.6187L43.7609 98.0488L43.0841 97.4721L42.5977 98.043ZM42.5826 98.0302L42.0779 97.4754L41.4479 98.0487L42.0962 98.601L42.5826 98.0302ZM41.6979 97.3201L41.2717 97.9372L41.7559 98.2715L42.1959 97.8809L41.6979 97.3201ZM41.199 97.0201L41.5353 96.3497L41.5344 96.3492L41.199 97.0201ZM36.4686 94.6551L36.1332 95.326L36.1332 95.326L36.4686 94.6551ZM35.7803 91.8897L35.1975 91.4176L35.0303 91.624V91.8897H35.7803ZM36.125 91.4332L36.7363 91.8678L36.7371 91.8666L36.125 91.4332ZM37.5865 88.5711L37.2647 87.8937L36.9806 88.0286L36.8778 88.3259L37.5865 88.5711ZM38.2558 83.4295H37.5058V83.7079L37.6874 83.9188L38.2558 83.4295ZM38.2558 80.8221L37.5096 80.7474L37.5058 80.7847V80.8221H38.2558ZM37.2038 77.546L36.6397 78.0402L36.64 78.0406L37.2038 77.546ZM27.2961 77.5455L27.86 78.04L27.8602 78.0398L27.2961 77.5455ZM26.2441 80.8216H26.9941V80.7841L26.9904 80.7468L26.2441 80.8216ZM26.2441 83.429L26.813 83.9178L26.9941 83.7069V83.429H26.2441ZM26.4972 88.3091L27.2239 88.1236L27.163 87.8849L26.9725 87.7289L26.4972 88.3091ZM28.2252 91.8785H28.9752V91.6267L28.8233 91.4259L28.2252 91.8785ZM27.576 94.5892L27.9352 95.2476L27.9358 95.2473L27.576 94.5892ZM23.1585 96.9988L23.5168 97.6577L23.5177 97.6572L23.1585 96.9988ZM22.7384 97.2648L22.2371 97.8226L22.6852 98.2253L23.175 97.8746L22.7384 97.2648ZM40.6089 98.1969L40.1698 97.5888L40.1684 97.5899L40.6089 98.1969ZM40.0128 98.6075L40.4219 99.2361L40.422 99.236L40.0128 98.6075ZM40.6729 98.1512L41.1062 98.7634L41.1062 98.7634L40.6729 98.1512ZM40.7905 98.0661L41.2432 98.6641L42.1823 97.9532L41.1408 97.403L40.7905 98.0661ZM40.7011 98.0197L41.0365 97.3489L41.0365 97.3489L40.7011 98.0197ZM35.9707 95.6548L36.3061 94.984L36.3058 94.9838L35.9707 95.6548ZM34.6645 91.4753L34.1005 90.981L33.9145 91.1932V91.4753H34.6645ZM34.8031 91.3172L35.3672 91.8115L35.3682 91.8103L34.8031 91.3172ZM35.2143 90.787L35.8264 91.2205L35.8264 91.2203L35.2143 90.787ZM36.6088 87.9757L35.8951 87.7451L35.8948 87.7459L36.6088 87.9757ZM36.6981 87.6992L36.4775 86.9824L36.1045 87.0972L35.9845 87.4685L36.6981 87.6992ZM36.9758 87.6137L37.1965 88.3305L37.1972 88.3303L36.9758 87.6137ZM37.3244 84.07L36.8218 84.6266L36.8219 84.6268L37.3244 84.07ZM37.1401 83.9035L36.3901 83.9023L36.3895 84.2363L36.6374 84.4601L37.1401 83.9035ZM37.1451 80.7184L36.3991 80.6414L36.3951 80.6792L36.3951 80.7173L37.1451 80.7184ZM37.1451 80.7179L36.3994 80.6384L36.3991 80.6408L37.1451 80.7179ZM36.3557 78.2708L36.9172 77.7737L36.9169 77.7734L36.3557 78.2708ZM28.138 78.2815L27.5742 77.7868L27.5742 77.7869L28.138 78.2815ZM27.3581 80.7173L28.1063 80.6659L28.1049 80.645L28.1023 80.6243L27.3581 80.7173ZM27.3631 80.7905H28.1131V80.7648L28.1113 80.7391L27.3631 80.7905ZM27.3631 83.9024L27.8658 84.459L28.1131 84.2356V83.9024H27.3631ZM27.1787 84.0689L27.6813 84.6256L27.6814 84.6255L27.1787 84.0689ZM27.2972 87.5104L27.7051 86.881L27.7044 86.8805L27.2972 87.5104ZM27.4877 87.6338L28.2186 87.4659L28.1506 87.1697L27.8956 87.0044L27.4877 87.6338ZM27.5385 87.8551L28.2695 87.6873L28.2695 87.6871L27.5385 87.8551ZM29.2151 91.3278L29.793 90.8497L29.7857 90.8409L29.7782 90.8324L29.2151 91.3278ZM29.3436 91.4832L30.0936 91.4829L30.0936 91.213L29.9215 91.0051L29.3436 91.4832ZM29.3442 93.4955H30.0942V93.4953L29.3442 93.4955ZM28.1123 95.5705L28.4714 96.2289L28.4715 96.2289L28.1123 95.5705ZM23.6948 97.9801L23.3356 97.3216L23.3271 97.3264L23.6948 97.9801ZM23.6411 98.0103L23.2734 97.3566L22.2751 97.9182L23.1891 98.6087L23.6411 98.0103ZM23.7155 98.0684L23.2633 98.6667L23.2655 98.6684L23.7155 98.0684ZM24.463 98.5896L24.0524 99.2172L24.053 99.2176L24.463 98.5896ZM24.706 98.7455L24.3062 99.38L24.3086 99.3816L24.706 98.7455ZM25.5463 99.2349L25.9035 98.5754L25.8997 98.5734L25.5463 99.2349ZM25.6214 99.2739L25.282 99.9427L25.2821 99.9427L25.6214 99.2739ZM25.6686 99.298L25.3223 99.9633L25.3228 99.9635L25.6686 99.298ZM26.6212 99.7539L26.9354 99.0729L26.9267 99.0689L26.9179 99.0651L26.6212 99.7539ZM26.6284 99.7573L26.3142 100.438L26.3235 100.443L26.3329 100.447L26.6284 99.7573ZM27.6687 100.156L27.4271 100.866L27.4315 100.867L27.6687 100.156ZM27.7346 100.178L27.9731 99.4669L27.9718 99.4664L27.7346 100.178ZM29.9079 100.72L30.0397 99.9821L30.0316 99.9807L29.9079 100.72ZM29.9548 100.729L29.823 101.467L29.834 101.469L29.9548 100.729ZM31.0107 100.859L31.0799 100.112L31.0767 100.112L31.0107 100.859ZM31.1479 100.87L31.0947 101.618H31.0947L31.1479 100.87ZM31.1929 100.873L31.2488 100.125L31.2478 100.125L31.1929 100.873ZM33.2974 100.874L33.244 100.125L33.2408 100.126L33.2974 100.874ZM33.3418 100.87L33.3937 101.619L33.3938 101.619L33.3418 100.87ZM33.484 100.86L33.4186 100.112L33.4167 100.113L33.484 100.86ZM34.5316 100.732L34.652 101.472L34.6547 101.471L34.5316 100.732ZM34.5503 100.728L34.4084 99.9917L34.4081 99.9917L34.5503 100.728ZM34.5617 100.726L34.4395 99.986L34.4384 99.9862L34.5617 100.726ZM35.659 100.501V99.7514H35.5678L35.4792 99.7733L35.659 100.501ZM35.6601 100.501L35.8248 101.233L35.825 101.233L35.6601 100.501ZM35.6623 100.501V101.251H35.7538L35.8426 101.229L35.6623 100.501ZM36.7261 100.192L36.4939 99.4793L36.4899 99.4806L36.7261 100.192ZM36.7669 100.179L36.5233 99.4693L36.5233 99.4694L36.7669 100.179ZM36.797 100.168L37.0342 100.88L37.0363 100.879L36.797 100.168ZM38.7457 99.3438L39.0878 100.011L39.0884 100.011L38.7457 99.3438ZM38.812 99.3101L39.1512 99.979L39.1513 99.979L38.812 99.3101ZM38.9278 99.2505L39.2779 99.9138L39.2794 99.913L38.9278 99.2505ZM39.7335 98.7868L40.128 99.4246L40.1293 99.4239L39.7335 98.7868ZM39.9839 98.6263L39.5747 97.9977L39.5747 97.9978L39.9839 98.6263ZM32.2509 72.0561C40.308 72.0561 46.8647 78.6128 46.8647 86.6699H48.3647C48.3647 77.7844 41.1364 70.5561 32.2509 70.5561V72.0561ZM17.6371 86.6699C17.6371 78.6128 24.1938 72.0561 32.2509 72.0561V70.5561C23.3654 70.5561 16.1371 77.7844 16.1371 86.6699H17.6371ZM22.381 97.4351C19.4659 94.7604 17.6371 90.9247 17.6371 86.6699H16.1371C16.1371 91.364 18.1565 95.5947 21.3669 98.5403L22.381 97.4351ZM22.3564 98.5623L22.3709 98.5494L21.3769 97.426L21.3624 97.4388L22.3564 98.5623ZM22.8411 97.8473L22.3428 97.4271L21.376 98.574L21.8743 98.9941L22.8411 97.8473ZM22.8525 97.8553C22.8479 97.8519 22.8448 97.8496 22.842 97.8475C22.8393 97.8456 22.8377 97.8444 22.8368 97.8437C22.8349 97.8422 22.8372 97.8439 22.8417 97.8477L21.8737 98.9936C21.914 99.0276 21.9529 99.0557 21.9671 99.0661L22.8525 97.8553ZM22.9359 97.9194C22.9002 97.8899 22.8658 97.865 22.8525 97.8553L21.9671 99.0661C21.9714 99.0692 21.9743 99.0713 21.977 99.0733C21.9796 99.0752 21.9812 99.0764 21.9823 99.0772C21.9845 99.0789 21.983 99.0779 21.9795 99.075L22.9359 97.9194ZM23.7152 98.5188C23.4455 98.324 23.1851 98.126 22.9364 97.9199L21.979 99.0746C22.26 99.3075 22.5482 99.5263 22.8372 99.7349L23.7152 98.5188ZM23.7145 98.5182L23.7142 98.518L22.8383 99.7357L22.8386 99.7359L23.7145 98.5182ZM23.6926 98.5031L23.6926 98.503L22.8605 99.7511L22.8605 99.7511L23.6926 98.5031ZM23.9757 98.7042C23.8912 98.6458 23.8071 98.5851 23.7157 98.5191L22.8374 99.7351C22.9268 99.7996 23.0235 99.8695 23.1231 99.9383L23.9757 98.7042ZM24.8484 99.2611C24.5498 99.0846 24.2584 98.899 23.975 98.7037L23.1238 99.9388C23.4371 100.155 23.758 100.359 24.0851 100.552L24.8484 99.2611ZM25.043 99.3732C24.9735 99.3337 24.9101 99.2975 24.848 99.2609L24.0856 100.553C24.1596 100.596 24.2333 100.638 24.3011 100.677L25.043 99.3732ZM25.0432 99.3733L25.0429 99.3731L24.3012 100.677L24.3015 100.677L25.0432 99.3733ZM26.0423 99.8943C25.7038 99.7348 25.3713 99.5601 25.0434 99.3734L24.3013 100.677C24.6584 100.88 25.0253 101.073 25.403 101.251L26.0423 99.8943ZM26.0655 99.9046C26.0511 99.8982 26.0452 99.8956 26.0406 99.8935L25.4047 101.252C25.4262 101.262 25.4468 101.271 25.4588 101.276L26.0655 99.9046ZM26.0653 99.9045L26.0651 99.9044L25.4592 101.277L25.4594 101.277L26.0653 99.9045ZM26.1199 99.9292C26.0983 99.9191 26.0776 99.91 26.0656 99.9046L25.4591 101.277C25.4736 101.283 25.4795 101.286 25.4841 101.288L26.1199 99.9292ZM29.6511 101.046C28.4118 100.823 27.2274 100.444 26.1181 99.9284L25.4859 101.289C26.7108 101.858 28.0181 102.276 29.3846 102.523L29.6511 101.046ZM29.753 101.065L29.6502 101.046L29.3854 102.523L29.4882 102.541L29.753 101.065ZM30.9156 101.219C30.5241 101.184 30.1353 101.131 29.7482 101.064L29.493 102.542C29.9149 102.615 30.344 102.674 30.7805 102.713L30.9156 101.219ZM30.9783 101.224C30.9517 101.222 30.9326 101.221 30.9145 101.219L30.7816 102.713C30.8143 102.716 30.846 102.718 30.8705 102.72L30.9783 101.224ZM30.9727 101.224L30.9727 101.224L30.8761 102.72L30.8762 102.72L30.9727 101.224ZM31.0651 101.231C31.0331 101.228 31.0023 101.226 30.9783 101.224L30.8706 102.72C30.8964 102.722 30.9155 102.723 30.9338 102.725L31.0651 101.231ZM32.2509 101.284C31.8541 101.284 31.4586 101.263 31.0612 101.23L30.9377 102.725C31.3649 102.761 31.803 102.784 32.2509 102.784V101.284ZM33.4322 101.231C33.0355 101.263 32.6436 101.284 32.2509 101.284V102.784C32.6951 102.784 33.1289 102.761 33.5524 102.727L33.4322 101.231ZM33.5179 101.225C33.4929 101.227 33.461 101.229 33.428 101.232L33.5566 102.726C33.5756 102.725 33.5955 102.723 33.6225 102.721L33.5179 101.225ZM33.5839 101.22C33.5649 101.222 33.5449 101.223 33.5179 101.225L33.6225 102.721C33.6475 102.719 33.6795 102.717 33.7125 102.714L33.5839 101.22ZM34.7382 101.068C34.356 101.133 33.97 101.185 33.5801 101.22L33.7162 102.714C34.1476 102.675 34.5728 102.618 34.9918 102.546L34.7382 101.068ZM34.7845 101.059L34.7337 101.068L34.9962 102.545L35.047 102.536L34.7845 101.059ZM34.8269 101.052C34.8137 101.054 34.7993 101.057 34.783 101.06L35.0485 102.536C35.0682 102.532 35.0897 102.529 35.1119 102.524L34.8269 101.052ZM38.32 99.9581C37.2248 100.461 36.0573 100.831 34.837 101.05L35.1019 102.526C36.4482 102.285 37.7367 101.876 38.9455 101.321L38.32 99.9581ZM38.3797 99.9311C38.3626 99.9387 38.3411 99.9484 38.319 99.9585L38.9465 101.321C38.9597 101.315 38.9736 101.309 38.992 101.3L38.3797 99.9311ZM38.4396 99.9039C38.4234 99.9115 38.4059 99.9194 38.3797 99.9311L38.992 101.3C39.0158 101.29 39.0483 101.275 39.0818 101.259L38.4396 99.9039ZM39.4043 99.4053C39.0891 99.5829 38.7686 99.7492 38.4416 99.9029L39.0797 101.26C39.4422 101.09 39.7955 100.907 40.1406 100.712L39.4043 99.4053ZM39.6371 99.2712C39.5599 99.3166 39.4823 99.3613 39.4037 99.4056L40.1412 100.712C40.2268 100.663 40.3124 100.614 40.3984 100.564L39.6371 99.2712ZM40.4772 98.7399C40.207 98.925 39.9263 99.1008 39.637 99.2712L40.3985 100.564C40.7103 100.38 41.0207 100.186 41.3248 99.9775L40.4772 98.7399ZM40.7071 98.5767C40.624 98.6369 40.5513 98.6895 40.4788 98.7388L41.3232 99.9786C41.4164 99.9151 41.5065 99.8498 41.5868 99.7917L40.7071 98.5767ZM40.7683 98.5325L40.7075 98.5764L41.5864 99.792L41.6472 99.748L40.7683 98.5325ZM41.4544 98.0094C41.234 98.1887 41.0053 98.3618 40.7696 98.5316L41.6459 99.749C41.9006 99.5656 42.1535 99.3744 42.4013 99.1728L41.4544 98.0094ZM41.5557 97.9322C41.5339 97.9482 41.4959 97.9759 41.457 98.0073L42.3987 99.1749C42.4064 99.1687 42.4166 99.161 42.4429 99.1417L41.5557 97.9322ZM41.6135 97.8938L41.6134 97.8938L42.3852 99.1801L42.3852 99.1801L41.6135 97.8938ZM41.6021 97.8973C41.5972 97.9014 41.5888 97.9079 41.5558 97.9322L42.4429 99.1417C42.469 99.1226 42.5197 99.0857 42.571 99.0424L41.6021 97.8973ZM42.117 97.4673L41.6058 97.8941L42.5672 99.0455L43.0784 98.6187L42.117 97.4673ZM42.0962 98.601L42.1113 98.6139L43.0841 97.4721L43.069 97.4593L42.0962 98.601ZM46.8647 86.6699C46.8647 90.9467 45.0183 94.7998 42.0779 97.4754L43.0874 98.5849C46.326 95.6379 48.3647 91.3879 48.3647 86.6699H46.8647ZM32.25 71.6735C23.9801 71.6735 17.2536 78.4 17.2536 86.6699H18.7536C18.7536 79.2285 24.8086 73.1735 32.25 73.1735V71.6735ZM47.2464 86.6699C47.2464 78.4 40.5199 71.6735 32.25 71.6735V73.1735C39.6914 73.1735 45.7464 79.2285 45.7464 86.6699H47.2464ZM42.1959 97.8809C45.2895 95.134 47.2464 91.1273 47.2464 86.6699H45.7464C45.7464 90.6787 43.9881 94.2836 41.1999 96.7592L42.1959 97.8809ZM40.8627 97.6904C40.9931 97.7558 41.128 97.838 41.2717 97.9372L42.124 96.7029C41.9392 96.5753 41.7434 96.4541 41.5353 96.3497L40.8627 97.6904ZM36.1332 95.326L40.8636 97.6909L41.5344 96.3492L36.804 93.9843L36.1332 95.326ZM35.0303 93.5417C35.0303 94.3001 35.4545 94.9866 36.1332 95.326L36.804 93.9843C36.6335 93.8991 36.5303 93.7319 36.5303 93.5417H35.0303ZM35.0303 91.8897V93.5417H36.5303V91.8897H35.0303ZM35.5138 90.9986C35.4018 91.1562 35.2956 91.2965 35.1975 91.4176L36.3631 92.3617C36.484 92.2124 36.6092 92.0466 36.7363 91.8678L35.5138 90.9986ZM36.8778 88.3259C36.542 89.2965 36.0828 90.1949 35.5129 90.9998L36.7371 91.8666C37.3918 90.9419 37.9149 89.9161 38.2953 88.8163L36.8778 88.3259ZM38.0014 86.7336C38.0014 87.2352 37.7155 87.6794 37.2647 87.8937L37.9084 89.2485C38.8733 88.7901 39.5014 87.8242 39.5014 86.7336H38.0014ZM38.0014 84.753V86.7336H39.5014V84.753H38.0014ZM37.6874 83.9188C37.8908 84.155 38.0014 84.4522 38.0014 84.753H39.5014C39.5014 84.0851 39.2567 83.4426 38.8243 82.9402L37.6874 83.9188ZM37.5058 80.8221V83.4295H39.0058V80.8221H37.5058ZM36.64 78.0406C37.613 79.15 37.5326 80.5175 37.5096 80.7474L39.0021 80.8969C39.0372 80.5468 39.1624 78.6416 37.7677 77.0515L36.64 78.0406ZM32.25 76.5256C34.3903 76.5256 35.8067 77.0892 36.6397 78.0402L37.768 77.0518C36.5417 75.6519 34.625 75.0256 32.25 75.0256V76.5256ZM27.8602 78.0398C28.6932 77.0892 30.1097 76.5256 32.25 76.5256V75.0256C29.875 75.0256 27.9584 75.6519 26.7321 77.0512L27.8602 78.0398ZM26.9904 80.7468C26.9674 80.517 26.887 79.1494 27.86 78.04L26.7323 77.0509C25.3376 78.6411 25.4628 80.5463 25.4979 80.8964L26.9904 80.7468ZM26.9941 83.429V80.8216H25.4941V83.429H26.9941ZM26.4986 84.7525C26.4986 84.4522 26.6094 84.1546 26.813 83.9178L25.6753 82.9402C25.2442 83.4419 24.9986 84.084 24.9986 84.7525H26.4986ZM26.4986 86.733V84.7525H24.9986V86.733H26.4986ZM26.9725 87.7289C26.6716 87.4824 26.4986 87.1206 26.4986 86.733H24.9986C24.9986 87.5757 25.3776 88.3614 26.022 88.8893L26.9725 87.7289ZM28.8233 91.4259C28.5068 91.0077 27.6412 89.7582 27.2239 88.1236L25.7705 88.4946C26.2583 90.4053 27.2554 91.8398 27.6272 92.3311L28.8233 91.4259ZM28.9752 93.4953V91.8785H27.4752V93.4953H28.9752ZM27.9358 95.2473C28.5767 94.8969 28.9752 94.2258 28.9752 93.4953H27.4752C27.4752 93.6766 27.3766 93.8435 27.2163 93.9312L27.9358 95.2473ZM23.5177 97.6572L27.9352 95.2476L27.2169 93.9308L22.7994 96.3404L23.5177 97.6572ZM23.175 97.8746C23.2946 97.7889 23.408 97.7169 23.5168 97.6577L22.8003 96.3399C22.6275 96.4339 22.4615 96.5406 22.3018 96.655L23.175 97.8746ZM17.2536 86.6699C17.2536 91.0949 19.1816 95.0768 22.2371 97.8226L23.2397 96.7069C20.486 94.2323 18.7536 90.6497 18.7536 86.6699H17.2536ZM40.1684 97.5899C39.9822 97.725 39.7938 97.8552 39.6036 97.9789L40.422 99.236C40.6352 99.0972 40.8446 98.9525 41.0494 98.8039L40.1684 97.5899ZM40.2396 97.5391C40.2187 97.5539 40.1944 97.5711 40.1698 97.5888L41.048 98.8049C41.0659 98.792 41.0844 98.7789 41.1062 98.7634L40.2396 97.5391ZM40.3378 97.4681C40.3102 97.489 40.2806 97.5101 40.2396 97.5391L41.1062 98.7634C41.144 98.7366 41.1933 98.7019 41.2432 98.6641L40.3378 97.4681ZM40.3657 98.6906C40.3871 98.7013 40.4094 98.713 40.4402 98.7293L41.1408 97.403C41.1124 97.3879 41.0754 97.3684 41.0365 97.3489L40.3657 98.6906ZM35.6354 96.3257L40.3657 98.6906L41.0365 97.3489L36.3061 94.984L35.6354 96.3257ZM33.9145 93.5419C33.9145 94.7265 34.5756 95.7965 35.6357 96.3258L36.3058 94.9838C35.7547 94.7087 35.4145 94.1585 35.4145 93.5419H33.9145ZM33.9145 91.4753V93.5419H35.4145V91.4753H33.9145ZM34.239 90.8229L34.1005 90.981L35.2286 91.9696L35.3671 91.8115L34.239 90.8229ZM34.6022 90.3536C34.4662 90.5456 34.3395 90.7078 34.238 90.8241L35.3682 91.8103C35.5114 91.6462 35.6696 91.4419 35.8264 91.2205L34.6022 90.3536ZM35.8948 87.7459C35.5876 88.7005 35.1518 89.5772 34.6021 90.3537L35.8264 91.2203C36.4679 90.3141 36.9707 89.2991 37.3227 88.2055L35.8948 87.7459ZM35.9845 87.4685L35.8951 87.7451L37.3224 88.2064L37.4118 87.9299L35.9845 87.4685ZM36.7551 86.8969L36.4775 86.9824L36.9188 88.416L37.1965 88.3305L36.7551 86.8969ZM36.8856 86.7338C36.8856 86.7936 36.8383 86.8712 36.7544 86.8971L37.1972 88.3303C37.891 88.116 38.3856 87.4707 38.3856 86.7338H36.8856ZM36.8856 84.7533V86.7338H38.3856V84.7533H36.8856ZM36.8219 84.6268C36.8725 84.6724 36.8856 84.7157 36.8856 84.7533H38.3856C38.3856 84.2712 38.1775 83.8296 37.8269 83.5132L36.8219 84.6268ZM36.6374 84.4601L36.8218 84.6266L37.8271 83.5133L37.6427 83.3469L36.6374 84.4601ZM36.3951 80.7173L36.3901 83.9023L37.8901 83.9047L37.8951 80.7196L36.3951 80.7173ZM36.3991 80.6408L36.3991 80.6414L37.8911 80.7955L37.8912 80.7949L36.3991 80.6408ZM35.7941 78.768C36.5063 79.5724 36.3995 80.6373 36.3994 80.6384L37.8909 80.7974C37.8979 80.732 38.08 79.087 36.9172 77.7737L35.7941 78.768ZM32.2516 77.6431C34.0711 77.6431 35.1905 78.087 35.7944 78.7683L36.9169 77.7734C35.9006 76.6267 34.2601 76.1431 32.2516 76.1431V77.6431ZM28.7017 78.7761C29.303 78.0908 30.4248 77.6431 32.2516 77.6431V76.1431C30.2357 76.1431 28.5886 76.6307 27.5742 77.7868L28.7017 78.7761ZM28.1023 80.6243C28.1059 80.6529 27.9801 79.5987 28.7018 78.7761L27.5742 77.7869C26.403 79.1219 26.6069 80.7549 26.6139 80.8104L28.1023 80.6243ZM28.1113 80.7391L28.1063 80.6659L26.6098 80.7687L26.6149 80.8419L28.1113 80.7391ZM28.1131 83.9024V80.7905H26.6131V83.9024H28.1131ZM27.6814 84.6255L27.8658 84.459L26.8604 83.3457L26.6761 83.5122L27.6814 84.6255ZM27.6175 84.7521C27.6175 84.7144 27.6303 84.6716 27.6813 84.6256L26.6762 83.5122C26.3249 83.8292 26.1175 84.2703 26.1175 84.7521H27.6175ZM27.6175 86.7327V84.7521H26.1175V86.7327H27.6175ZM27.7044 86.8805C27.643 86.8409 27.6175 86.7841 27.6175 86.7327H26.1175C26.1175 87.308 26.4138 87.8323 26.89 88.1402L27.7044 86.8805ZM27.8956 87.0044L27.7051 86.881L26.8893 88.1397L27.0798 88.2632L27.8956 87.0044ZM28.2695 87.6871L28.2186 87.4659L26.7567 87.8018L26.8076 88.023L28.2695 87.6871ZM29.7782 90.8324C29.8069 90.8651 28.6868 89.5063 28.2695 87.6873L26.8075 88.0228C27.3031 90.1828 28.5987 91.7627 28.6521 91.8233L29.7782 90.8324ZM29.9215 91.0051L29.793 90.8497L28.6373 91.8059L28.7658 91.9612L29.9215 91.0051ZM30.0942 93.4953L30.0936 91.4829L28.5936 91.4834L28.5942 93.4957L30.0942 93.4953ZM28.4715 96.2289C29.4721 95.683 30.0942 94.6355 30.0942 93.4955H28.5942C28.5942 94.0864 28.2721 94.6289 27.7531 94.9121L28.4715 96.2289ZM24.0539 98.6385L28.4714 96.2289L27.7531 94.9121L23.3356 97.3217L24.0539 98.6385ZM24.0089 98.6639L24.0625 98.6338L23.3271 97.3264L23.2734 97.3566L24.0089 98.6639ZM24.1452 97.4524C24.1341 97.4435 24.1145 97.4279 24.0932 97.4118L23.1891 98.6087C23.1929 98.6116 23.1979 98.6155 23.2114 98.6262L24.1452 97.4524ZM24.1676 97.47C24.1637 97.467 24.1587 97.4631 24.1452 97.4524L23.2114 98.6262C23.2225 98.6351 23.2421 98.6507 23.2633 98.6667L24.1676 97.47ZM24.8736 97.962C24.63 97.8026 24.3934 97.6393 24.1655 97.4684L23.2655 98.6684C23.5247 98.8628 23.7887 99.0447 24.0524 99.2172L24.8736 97.962ZM25.1058 98.111C25.0277 98.0617 24.95 98.0119 24.8729 97.9616L24.053 99.2176C24.1368 99.2724 24.2212 99.3265 24.3062 99.38L25.1058 98.111ZM25.8997 98.5734C25.6327 98.4307 25.3683 98.2749 25.1034 98.1094L24.3086 99.3816C24.5946 99.5602 24.8889 99.734 25.1928 99.8964L25.8997 98.5734ZM25.9608 98.605C25.934 98.5915 25.9179 98.5832 25.9035 98.5754L25.1891 99.8944C25.2242 99.9134 25.2584 99.9307 25.282 99.9427L25.9608 98.605ZM26.0149 98.6327C25.9952 98.6225 25.9759 98.6127 25.9607 98.605L25.2821 99.9427C25.2984 99.951 25.3107 99.9572 25.3223 99.9633L26.0149 98.6327ZM26.9179 99.0651C26.6159 98.935 26.316 98.7892 26.0144 98.6325L25.3228 99.9635C25.6469 100.132 25.9806 100.295 26.3244 100.443L26.9179 99.0651ZM26.9427 99.0763L26.9354 99.0729L26.3069 100.435L26.3142 100.438L26.9427 99.0763ZM27.9103 99.4456C27.5759 99.3318 27.2465 99.2062 26.924 99.068L26.3329 100.447C26.6931 100.601 27.0586 100.74 27.4271 100.866L27.9103 99.4456ZM27.9442 99.4571C27.9336 99.4535 27.9199 99.4488 27.9059 99.4441L27.4315 100.867C27.4393 100.87 27.4476 100.873 27.4591 100.876L27.9442 99.4571ZM27.9718 99.4664C27.9641 99.4639 27.9557 99.461 27.9442 99.4571L27.4591 100.876C27.4697 100.88 27.4834 100.885 27.4974 100.889L27.9718 99.4664ZM30.0316 99.9807C29.332 99.8637 28.6435 99.6918 27.9731 99.4669L27.4961 100.889C28.2414 101.139 29.0067 101.33 29.7842 101.46L30.0316 99.9807ZM30.0867 99.9905L30.0397 99.9821L29.7761 101.459L29.823 101.467L30.0867 99.9905ZM31.0767 100.112C30.7374 100.082 30.4035 100.042 30.0756 99.9886L29.834 101.469C30.2046 101.529 30.5757 101.573 30.9448 101.606L31.0767 100.112ZM31.2011 100.122C31.1539 100.118 31.1161 100.116 31.0799 100.112L30.9416 101.606C30.9964 101.611 31.0502 101.615 31.0947 101.618L31.2011 100.122ZM31.2478 100.125C31.2318 100.124 31.216 100.123 31.2011 100.122L31.0947 101.618C31.1097 101.619 31.1239 101.62 31.138 101.621L31.2478 100.125ZM32.2516 100.167C31.9214 100.167 31.5878 100.15 31.2488 100.125L31.137 101.621C31.5007 101.648 31.8734 101.667 32.2516 101.667V100.167ZM33.2408 100.126C32.9073 100.151 32.5782 100.167 32.2516 100.167V101.667C32.6255 101.667 32.9937 101.649 33.354 101.621L33.2408 100.126ZM33.2899 100.122C33.2752 100.123 33.2597 100.124 33.244 100.125L33.3509 101.622C33.3648 101.621 33.3788 101.62 33.3937 101.619L33.2899 100.122ZM33.4167 100.113C33.3783 100.116 33.3387 100.119 33.2898 100.122L33.3938 101.619C33.44 101.615 33.4951 101.612 33.5513 101.607L33.4167 100.113ZM34.4112 99.9913C34.0863 100.044 33.7554 100.083 33.4186 100.112L33.5495 101.607C33.9144 101.575 34.2829 101.532 34.652 101.472L34.4112 99.9913ZM34.4081 99.9917L34.4085 99.9918L34.6547 101.471C34.6659 101.47 34.6753 101.468 34.6813 101.467C34.6843 101.466 34.687 101.466 34.6888 101.465C34.6909 101.465 34.6915 101.465 34.6924 101.465L34.4081 99.9917ZM34.4384 99.9862C34.4251 99.9884 34.4139 99.9906 34.4084 99.9917L34.6922 101.465C34.6943 101.464 34.6907 101.465 34.685 101.466L34.4384 99.9862ZM35.4792 99.7733C35.1376 99.8576 34.7904 99.9281 34.4395 99.986L34.6839 101.466C35.0706 101.402 35.4563 101.324 35.8388 101.23L35.4792 99.7733ZM35.4955 99.7696C35.5162 99.7649 35.5781 99.7514 35.659 99.7514V101.251C35.7406 101.251 35.8034 101.238 35.8248 101.233L35.4955 99.7696ZM35.6623 99.7509C35.583 99.7509 35.5218 99.7637 35.4994 99.7687C35.4929 99.7701 35.4876 99.7714 35.4843 99.7722C35.4812 99.7729 35.4787 99.7736 35.4786 99.7736C35.4762 99.7742 35.4851 99.7719 35.4952 99.7696L35.825 101.233C35.8355 101.231 35.8448 101.228 35.8427 101.229C35.8427 101.229 35.8421 101.229 35.8413 101.229C35.8405 101.229 35.8392 101.23 35.8376 101.23C35.8345 101.231 35.8294 101.232 35.8231 101.233C35.8014 101.238 35.741 101.251 35.6623 101.251V99.7509ZM36.4899 99.4806C36.1571 99.591 35.821 99.6889 35.482 99.7729L35.8426 101.229C36.2211 101.135 36.5945 101.026 36.9622 100.904L36.4899 99.4806ZM36.5233 99.4694C36.5089 99.4743 36.501 99.477 36.4939 99.4793L36.9583 100.906C36.9787 100.899 36.9979 100.892 37.0106 100.888L36.5233 99.4694ZM36.5599 99.4569C36.5461 99.4615 36.5327 99.4661 36.5233 99.4693L37.0106 100.888C37.0213 100.884 37.028 100.882 37.0342 100.88L36.5599 99.4569ZM38.4037 98.6764C37.8062 98.9825 37.1896 99.2449 36.5577 99.4576L37.0363 100.879C37.742 100.642 38.4271 100.35 39.0878 100.011L38.4037 98.6764ZM38.4729 98.6411C38.451 98.6522 38.4272 98.6643 38.403 98.6767L39.0884 100.011C39.1085 100.001 39.1289 99.9903 39.1512 99.979L38.4729 98.6411ZM38.5778 98.5872C38.5457 98.6042 38.5125 98.621 38.4728 98.6411L39.1513 99.979C39.1891 99.9598 39.2332 99.9374 39.2779 99.9138L38.5778 98.5872ZM39.3389 98.149C39.0875 98.3045 38.8337 98.4514 38.5763 98.588L39.2794 99.913C39.5695 99.7591 39.8521 99.5954 40.128 99.4246L39.3389 98.149ZM39.5747 97.9978C39.4906 98.0525 39.4144 98.1021 39.3377 98.1498L40.1293 99.4239C40.2217 99.3664 40.3111 99.3082 40.393 99.2549L39.5747 97.9978ZM39.6037 97.9789L39.5747 97.9977L40.393 99.2549L40.4219 99.2361L39.6037 97.9789Z" fill="#00C0D2"/>
</svg>
