<svg width="72" height="85" viewBox="0 0 72 85" fill="none" xmlns="http://www.w3.org/2000/svg">
<path d="M54.3122 33.9378C49.7786 28.0106 43.2325 24.2882 35.9533 24.2882C28.611 24.2882 22.0145 28.0754 17.4769 34.0925" stroke="#00C0D2" stroke-width="3" stroke-linecap="round"/>
<path d="M62.0176 26.0093C55.5873 17.6023 46.495 12.9168 36.1705 12.9168C25.7563 12.9168 16.2075 17.6942 9.77151 26.2287" stroke="#00C0D2" stroke-width="3" stroke-linecap="round"/>
<path d="M70.2363 19.2844C61.783 8.23232 49.8302 2.07275 36.2573 2.07275C22.5667 2.07275 10.0136 8.3532 1.55273 19.5728" stroke="#00C0D2" stroke-width="3" stroke-linecap="round"/>
<path fill-rule="evenodd" clip-rule="evenodd" d="M17.9776 81.6612C17.9776 82.1583 18.3806 82.5612 18.8776 82.5612H52.0696C52.5667 82.5612 52.9696 82.1583 52.9696 81.6612V47.4972C52.9696 47.0002 52.5667 46.5972 52.0696 46.5972H18.8776C18.3806 46.5972 17.9776 47.0002 17.9776 47.4972V81.6612Z" stroke="#00C0D2" stroke-width="3"/>
<path fill-rule="evenodd" clip-rule="evenodd" d="M39.7294 61.1768C39.7294 63.8608 37.6118 66.0372 35.0012 66.0372C32.3897 66.0372 30.2721 63.8608 30.2721 61.1768C30.2721 58.4937 32.3897 56.3172 35.0012 56.3172C37.6118 56.3172 39.7294 58.4937 39.7294 61.1768Z" stroke="#00C0D2" stroke-width="3"/>
<path d="M25.5435 46.5972C25.5435 41.131 30.2024 36.6972 35.9488 36.6972C41.6919 36.6972 46.3495 41.131 46.3495 46.5972" stroke="#00C0D2" stroke-width="3"/>
<path d="M35.0008 66.0372V72.8412" stroke="#00C0D2" stroke-width="3"/>
</svg>
