<svg width="82" height="78" viewBox="0 0 82 78" fill="none" xmlns="http://www.w3.org/2000/svg">
<mask id="mask0" mask-type="alpha" maskUnits="userSpaceOnUse" x="1" y="9" width="68" height="68">
<path fill-rule="evenodd" clip-rule="evenodd" d="M35.2619 76.0248C53.7274 76.0248 68.6967 61.0555 68.6967 42.59C68.6967 24.1245 53.7274 9.15527 35.2619 9.15527C16.7964 9.15527 1.82715 24.1245 1.82715 42.59C1.82715 61.0555 16.7964 76.0248 35.2619 76.0248Z" fill="white"/>
</mask>
<g mask="url(#mask0)">
<path d="M17.8493 36.7975H52.2597" stroke="#00C0D2" stroke-width="2.4" stroke-linecap="square"/>
<path d="M21.8545 69.4765H48.2545" stroke="#00C0D2" stroke-width="2.4" stroke-linecap="square"/>
<path d="M35.0545 31.3975V20.5975" stroke="#00C0D2" stroke-width="2.4" stroke-linecap="square"/>
<path d="M30.2545 31.3975V24.7424" stroke="#00C0D2" stroke-width="2.4" stroke-linecap="square"/>
<path d="M39.8545 31.3975V24.7424" stroke="#00C0D2" stroke-width="2.4" stroke-linecap="square"/>
<path d="M21.2545 58.6573L25.543 57.2014V69.2074H21.8545H21.2545V58.6573ZM20.6013 73.5293L20.602 73.5296C20.6003 73.5288 20.5992 73.5282 20.5989 73.5281L20.6 73.5286L20.6013 73.5293Z" stroke="#00C0D2" stroke-width="2.4"/>
<path d="M49.4353 70.2004L49.7246 71.7968V58.6573L45.4361 57.2014V69.2145H48.2545H49.2565L49.4353 70.2004Z" stroke="#00C0D2" stroke-width="2.4"/>
<path fill-rule="evenodd" clip-rule="evenodd" d="M9.60664 70.7959L11.464 62.8957C11.7306 61.762 12.5292 60.8272 13.6074 60.3869L25.5084 55.5267L26.743 50.8172C26.743 50.8172 31.2969 52.9975 35.0545 52.9975C38.8121 52.9975 43.2898 50.8172 43.2898 50.8172L45.3523 55.5267L56.9741 60.3382C58.1041 60.8061 58.9191 61.8129 59.1335 63.0169C59.6027 65.6508 60.3816 70.1248 60.3816 70.7959C60.3816 71.7562 38.8121 82.5076 38.8121 82.5076L20.0545 78.5408L9.60664 70.7959Z" stroke="#00C0D2" stroke-width="2.4"/>
</g>
<path fill-rule="evenodd" clip-rule="evenodd" d="M35.2619 76.0248C53.7274 76.0248 68.6967 61.0555 68.6967 42.59C68.6967 24.1245 53.7274 9.15527 35.2619 9.15527C16.7964 9.15527 1.82715 24.1245 1.82715 42.59C1.82715 61.0555 16.7964 76.0248 35.2619 76.0248Z" stroke="#00C0D2" stroke-width="3"/>
<path fill-rule="evenodd" clip-rule="evenodd" d="M35.0545 52.9975C43.3388 52.9975 50.0545 46.2817 50.0545 37.9975C50.0545 29.7132 43.3388 21.7975 35.0545 21.7975C26.7702 21.7975 20.0545 29.7132 20.0545 37.9975C20.0545 46.2817 26.7702 52.9975 35.0545 52.9975Z" stroke="#00C0D2" stroke-width="2.4"/>
<path d="M25.4127 56.9606C31.1343 61.7616 39.3881 61.5612 44.8598 56.8244" stroke="#00C0D2" stroke-width="2.4"/>
<path fill-rule="evenodd" clip-rule="evenodd" d="M65.7862 2.38218C66.1645 1.66367 67.1962 1.67186 67.5631 2.3963L79.8301 26.6181C80.1669 27.2833 79.6836 28.0699 78.9379 28.0699H53.9165C53.1639 28.0699 52.681 27.2699 53.0317 26.604L65.7862 2.38218Z" fill="#F3F3F3" stroke="#00C0D2" stroke-width="3"/>
<path d="M67.6485 10.0698H65.5485V19.8698H67.6485V10.0698ZM65.2685 24.0698H67.9485V21.3898H65.2685V24.0698Z" fill="#00C0D2"/>
</svg>
