<svg width="84" height="83" viewBox="0 0 84 83" fill="none" xmlns="http://www.w3.org/2000/svg">
<path d="M41.2026 31.7725C41.2026 32.6571 40.4801 33.374 39.5885 33.374C38.697 33.374 37.9744 32.6571 37.9744 31.7725C37.9744 30.8878 38.697 30.1709 39.5885 30.1709C40.4801 30.1709 41.2026 30.8878 41.2026 31.7725Z" fill="#00C0D2"/>
<path d="M32.7475 30.617C27.1915 32.0177 22.9867 36.5553 22.0352 42.1764C21.8707 43.1479 22.6235 44.0438 23.6291 44.0438C24.4028 44.0438 25.0862 43.4895 25.2186 42.7075C25.9589 38.337 29.2262 34.8098 33.5426 33.7219C34.407 33.5042 34.9291 32.6327 34.7097 31.7756C34.4903 30.9179 33.6126 30.3992 32.7475 30.617Z" fill="#00C0D2"/>
<path d="M52.5013 1.9834V9.35059C52.5013 10.2352 53.2239 10.9521 54.1154 10.9521C55.007 10.9521 55.7295 10.2352 55.7295 9.35059V1.9834C55.7295 1.09879 55.007 0.381836 54.1154 0.381836C53.2239 0.381836 52.5013 1.09879 52.5013 1.9834Z" fill="#00C0D2"/>
<path d="M83.1692 30.1709C83.1692 29.2863 82.446 28.5693 81.5551 28.5693H75.0987C74.2072 28.5693 73.4846 29.2863 73.4846 30.1709C73.4846 31.0555 74.2072 31.7725 75.0987 31.7725H81.5551C82.4467 31.7725 83.1692 31.0555 83.1692 30.1709Z" fill="#00C0D2"/>
<path d="M33.571 9.78601C32.9405 10.4116 32.9405 11.4257 33.571 12.0513L38.1371 16.582C38.7676 17.207 39.7897 17.207 40.4202 16.582C41.0507 15.9564 41.0507 14.9423 40.4202 14.3167L35.854 9.78601C35.2235 9.1604 34.2015 9.1604 33.571 9.78601Z" fill="#00C0D2"/>
<path d="M72.3768 9.78601L67.8107 14.3167C67.1802 14.9423 67.1802 15.9564 67.8107 16.582C68.4412 17.207 69.4632 17.207 70.0937 16.582L74.6599 12.0513C75.2904 11.4257 75.2904 10.4116 74.6599 9.78601C74.0294 9.1604 73.0073 9.1604 72.3768 9.78601Z" fill="#00C0D2"/>
<path d="M25.916 72.6248L21.7193 79.992C21.2811 80.7621 21.5548 81.7387 22.3303 82.1741C23.1134 82.6127 24.0951 82.3318 24.5301 81.5679L28.7268 74.2007C29.165 73.4306 28.8914 72.454 28.1158 72.0186C27.3397 71.5832 26.3548 71.8547 25.916 72.6248Z" fill="#00C0D2"/>
<path fill-rule="evenodd" clip-rule="evenodd" d="M57.2673 71.642C58.0649 72.0374 59.0347 71.7164 59.4331 70.9257L62.2149 65.4046H63.8C70.9204 65.4046 76.7128 59.6572 76.7128 52.5928C76.7128 46.5394 72.4594 41.4569 66.7634 40.1244C69.0112 37.3216 70.2564 33.837 70.2564 30.1709C70.2564 21.3398 63.0157 14.1553 54.1154 14.1553C47.5474 14.1553 41.7329 18.0422 39.2336 23.9605C38.2834 23.831 37.3219 23.7646 36.3603 23.7646C26.5232 23.7646 18.1507 30.5169 15.9395 39.7803H13.4401C6.32045 39.7803 0.527344 45.5278 0.527344 52.5928C0.527344 59.6572 6.32045 65.4046 13.4401 65.4046H16.6393L14.5795 69.4936C14.1804 70.2844 14.5038 71.2466 15.3014 71.642C16.0984 72.038 17.0681 71.7171 17.4666 70.9257L20.249 65.4046H37.6226L35.5621 69.4936C35.1636 70.2844 35.4871 71.2466 36.2841 71.642C37.0816 72.038 38.0514 71.7171 38.4498 70.9257L41.2316 65.4046H58.6059L56.5454 69.4936C56.1469 70.2844 56.4698 71.2466 57.2673 71.642ZM54.1154 17.3584C61.2351 17.3584 67.0282 23.1059 67.0282 30.1709C67.0282 33.8739 65.44 37.3448 62.6531 39.7803H56.7819C55.0707 32.5745 49.572 26.7939 42.4542 24.6593C44.5708 20.2318 49.0644 17.3584 54.1154 17.3584ZM13.4401 42.9834C8.10037 42.9834 3.75554 47.2939 3.75554 52.5928C3.75554 57.8911 8.10037 62.2015 13.4401 62.2015H63.8C69.1398 62.2015 73.4846 57.8911 73.4846 52.5928C73.4846 47.2939 69.1398 42.9834 63.8 42.9834H55.4616C54.6734 42.9834 54.0001 42.4178 53.8695 41.6465C52.4824 33.441 45.2328 26.9678 36.3603 26.9678C27.653 26.9678 20.2893 33.1407 18.8512 41.6465C18.7206 42.4178 18.0479 42.9834 17.2591 42.9834H13.4401Z" fill="#00C0D2"/>
<path d="M46.8993 72.6248L42.7026 79.992C42.2644 80.7621 42.5381 81.7387 43.3136 82.1741C44.0967 82.6127 45.0784 82.3318 45.5134 81.5679L49.7101 74.2007C50.1483 73.4306 49.8746 72.454 49.0991 72.0186C48.323 71.5832 47.3381 71.8547 46.8993 72.6248Z" fill="#00C0D2"/>
<path d="M1.34763 82.1741C2.13009 82.6127 3.11179 82.3318 3.54684 81.5679L7.7435 74.2007C8.18233 73.4306 7.90869 72.4534 7.13254 72.0186C6.35701 71.5832 5.37216 71.8547 4.93333 72.6248L0.736669 79.992C0.297836 80.7621 0.571476 81.7387 1.34763 82.1741Z" fill="#00C0D2"/>
</svg>
