<?xml version="1.0" encoding="UTF-8"?>
<svg width="604px" height="415px" viewBox="0 0 604 415" version="1.1" xmlns="http://www.w3.org/2000/svg" xmlns:xlink="http://www.w3.org/1999/xlink">
    <!-- Generator: Sketch 53 (72520) - https://sketchapp.com -->
    <title>69_ts_tv_cabo_coaxial copy 44</title>
    <desc>Created with Sketch.</desc>
    <defs>
        <rect id="path-1" x="0" y="0" width="124" height="135"></rect>
    </defs>
    <g id="Page-1" stroke="none" stroke-width="1" fill="none" fill-rule="evenodd">
        <g id="Group-25" transform="translate(-30.500000, 47.073278)">
            <g id="Group-6" transform="translate(140.500000, 0.000000)">
                <path d="M113.329153,248.567551 L128.242649,237.192957 C130.438326,235.518304 133.575848,235.940677 135.250502,238.136354 C136.158997,239.327503 136.485536,240.863244 136.140263,242.320978 L117.53478,320.872887 C117.348332,321.660065 116.97367,322.390251 116.442947,323.00078 L114.332877,325.428146 C113.729683,326.122043 112.678184,326.195573 111.984287,325.59238 C111.620869,325.276466 111.412044,324.818668 111.411707,324.337135 L111.361382,252.546681 C111.360288,250.985876 112.088117,249.514095 113.329153,248.567551 Z" id="Rectangle-Copy-2" fill="#929292" transform="translate(123.818149, 281.084535) rotate(49.000000) translate(-123.818149, -281.084535) "></path>
                <path d="M304.582078,248.567551 L319.495574,237.192957 C321.691251,235.518304 324.828774,235.940677 326.503427,238.136354 C327.411922,239.327503 327.738461,240.863244 327.393189,242.320978 L308.787705,320.872887 C308.601257,321.660065 308.226595,322.390251 307.695872,323.00078 L305.585802,325.428146 C304.982609,326.122043 303.93111,326.195573 303.237213,325.59238 C302.873795,325.276466 302.66497,324.818668 302.664632,324.337135 L302.614308,252.546681 C302.613214,250.985876 303.341043,249.514095 304.582078,248.567551 Z" id="Rectangle-Copy-36" fill="#929292" transform="translate(315.071074, 281.084535) scale(-1, 1) rotate(49.000000) translate(-315.071074, -281.084535) "></path>
                <g id="Group-5">
                    <rect id="Rectangle" fill="#5A5657" x="0.496997331" y="0" width="435.224199" height="276" rx="5"></rect>
                    <rect id="Rectangle-Copy" fill="#7D7878" x="14.8674933" y="36.1535288" width="405.861961" height="224.249024" rx="5"></rect>
                    <path d="M225.893053,236.658153 C225.893053,241.043917 222.335231,244.599355 217.946527,244.599355 C213.557822,244.599355 210,241.043917 210,236.658153 C210,232.272389 213.557822,228.71695 217.946527,228.71695 C222.335231,228.71695 225.893053,232.272389 225.893053,236.658153" id="Fill-51" fill="#212020"></path>
                    <path d="M225.893053,54.7609003 C225.893053,59.1466643 222.335231,62.7021025 217.946527,62.7021025 C213.557822,62.7021025 210,59.1466643 210,54.7609003 C210,50.3751362 213.557822,46.819698 217.946527,46.819698 C222.335231,46.819698 225.893053,50.3751362 225.893053,54.7609003" id="Fill-51-Copy" fill="#212020"></path>
                    <rect id="Rectangle-Copy-30" fill="#6E6666" x="30.2077402" y="73.5598566" width="137.098532" height="172.88764" rx="5"></rect>
                    <rect id="Rectangle-Copy-35" fill="#6E6666" transform="translate(336.136621, 127.259415) scale(-1, 1) translate(-336.136621, -127.259415) " x="277" y="73.5598566" width="118.273243" height="107.399118" rx="5"></rect>
                    <rect id="Rectangle-Copy-38" fill="#5E5656" transform="translate(336.390903, 92.000000) scale(-1, 1) translate(-336.390903, -92.000000) " x="286.890903" y="82" width="99" height="20" rx="5"></rect>
                    <rect id="Rectangle-Copy-37" fill="#6E6666" transform="translate(336.136621, 220.500000) scale(-1, 1) translate(-336.136621, -220.500000) " x="277" y="199" width="118.273243" height="43" rx="5"></rect>
                    <rect id="Rectangle-Copy-31" fill="#5C5454" x="44.8827986" y="124.432584" width="38.4415314" height="74.2785727" rx="5"></rect>
                    <rect id="Rectangle-Copy-33" fill="#5C5454" transform="translate(64.103564, 103.716534) scale(1, -1) translate(-64.103564, -103.716534) " x="44.8827986" y="91.3120392" width="38.4415314" height="24.8089888" rx="5"></rect>
                    <rect id="Rectangle-Copy-34" fill="#5C5454" transform="translate(64.103564, 219.904705) scale(1, -1) translate(-64.103564, -219.904705) " x="44.8827986" y="207.500211" width="38.4415314" height="24.8089888" rx="5"></rect>
                    <g id="Group-4" transform="translate(55.190948, 94.283885)">
                        <rect id="Rectangle" fill="#D8D8D8" x="0.775800712" y="0.775280899" width="17.0676157" height="17.0561798"></rect>
                        <polygon id="Fill-31" fill="#5A5A5C" points="9.32776228 2.2035809 2.53717865 2.2035809 2.53717865 9.95638989 4.86458078 9.95638989 4.86458078 12.2822326 7.19198292 12.2822326 7.19198292 14.6080753 9.32776228 14.6080753 11.8467872 14.6080753 11.8467872 12.2822326 14.1741893 12.2822326 14.1741893 9.95638989 16.5015915 9.95638989 16.5015915 2.2035809"></polygon>
                        <polygon id="Fill-33" fill="#3F4243" points="2.53764413 2.97862921 16.5020569 2.97862921 16.5020569 2.20334831 2.53764413 2.20334831"></polygon>
                        <polygon id="Fill-35" fill="#3F4243" points="2.53764413 9.9561573 4.86504626 9.9561573 4.86504626 9.1808764 2.53764413 9.1808764"></polygon>
                        <polygon id="Fill-36" fill="#3F4243" points="14.1746548 9.9561573 16.5020569 9.9561573 16.5020569 9.1808764 14.1746548 9.1808764"></polygon>
                        <polygon id="Fill-37" fill="#3F4243" points="4.86504626 12.282 7.1924484 12.282 7.1924484 11.5067191 4.86504626 11.5067191"></polygon>
                        <polygon id="Fill-38" fill="#3F4243" points="7.1924484 14.6078427 11.8472527 14.6078427 11.8472527 13.8325618 7.1924484 13.8325618"></polygon>
                        <polygon id="Fill-39" fill="#3F4243" points="11.8472527 12.282 14.1746548 12.282 14.1746548 11.5067191 11.8472527 11.5067191"></polygon>
                        <polygon id="Fill-40" fill="#BDBEC2" points="7.79679715 7.26438202 8.91395018 7.26438202 8.91395018 3.2228427 7.79679715 3.2228427"></polygon>
                        <polygon id="Fill-41" fill="#BDBEC2" points="5.95970107 7.26438202 7.07685409 7.26438202 7.07685409 3.2228427 5.95970107 3.2228427"></polygon>
                        <polygon id="Fill-42" fill="#BDBEC2" points="9.63389324 7.26438202 10.7510463 7.26438202 10.7510463 3.2228427 9.63389324 3.2228427"></polygon>
                        <polygon id="Fill-43" fill="#BDBEC2" points="11.4709893 7.26438202 12.5881423 7.26438202 12.5881423 3.2228427 11.4709893 3.2228427"></polygon>
                        <path d="M1.68379786,0.746905618 C1.3952,0.746905618 1.16090819,0.98181573 1.16090819,1.27022022 L1.16090819,16.7479281 C1.16090819,17.0363326 1.3952,17.2704674 1.68379786,17.2704674 L17.1726591,17.2704674 C17.4612569,17.2704674 17.6955488,17.0363326 17.6955488,16.7479281 L17.6955488,1.27022022 C17.6955488,0.98181573 17.4612569,0.746905618 17.1726591,0.746905618 L1.68379786,0.746905618 Z M17.1726591,17.8658831 L1.68379786,17.8658831 C1.0670363,17.8658831 0.565093238,17.3650517 0.565093238,16.7479281 L0.565093238,1.27022022 C0.565093238,0.653096629 1.0670363,0.151489888 1.68379786,0.151489888 L17.1726591,0.151489888 C17.7894206,0.151489888 18.2913637,0.653096629 18.2913637,1.27022022 L18.2913637,16.7479281 C18.2913637,17.3650517 17.7894206,17.8658831 17.1726591,17.8658831 L17.1726591,17.8658831 Z" id="Fill-29" fill="#5B5B5D"></path>
                    </g>
                    <rect id="Rectangle-Copy-32" fill="#5C5454" x="110.748582" y="91.3120392" width="38.4415314" height="107.399118" rx="5"></rect>
                    <polygon id="Fill-74" fill="#2D2B2C" points="51.5428659 153.346482 76.6563107 153.346482 76.6563107 145.851842 51.5428659 145.851842"></polygon>
                    <g id="Group-3" transform="translate(121.435540, 103.357663)">
                        <path d="M16.64398,8.3255526 C16.64398,12.7113166 13.0861579,16.2667548 8.69745329,16.2667548 C4.30874867,16.2667548 0.750926601,12.7113166 0.750926601,8.3255526 C0.750926601,3.93978855 4.30874867,0.384350351 8.69745329,0.384350351 C13.0861579,0.384350351 16.64398,3.93978855 16.64398,8.3255526" id="Fill-51" fill="#4A474B"></path>
                        <path d="M15.9302433,8.3255526 C15.9302433,12.3174739 12.6920512,15.5534964 8.69745329,15.5534964 C4.70207963,15.5534964 1.46388746,12.3174739 1.46388746,8.3255526 C1.46388746,4.33363125 4.70207963,1.09760878 8.69745329,1.09760878 C12.6920512,1.09760878 15.9302433,4.33363125 15.9302433,8.3255526" id="Fill-52" fill="#0A0909"></path>
                        <path d="M13.7255729,8.3255526 C13.7255729,11.1010582 11.4741992,13.3501481 8.69760845,13.3501481 C5.9194661,13.3501481 3.66886824,11.1010582 3.66886824,8.3255526 C3.66886824,5.55082226 5.9194661,3.30095709 8.69760845,3.30095709 C11.4741992,3.30095709 13.7255729,5.55082226 13.7255729,8.3255526" id="Fill-53" fill="#F2F3F5"></path>
                        <path d="M8.69784119,11.5623504 C6.90884475,11.5623504 5.45887322,10.1133504 5.45887322,8.3255526 C5.45887322,6.53775485 6.90884475,5.08875485 8.69784119,5.08875485 C10.4860618,5.08875485 11.9360334,6.53775485 11.9360334,8.3255526 C11.9360334,10.1133504 10.4860618,11.5623504 8.69784119,11.5623504 Z" id="Fill-54" fill="#0A0909"></path>
                    </g>
                    <g id="Group-3" transform="translate(55.557635, 210.253115)">
                        <path d="M16.64398,8.3255526 C16.64398,12.7113166 13.0861579,16.2667548 8.69745329,16.2667548 C4.30874867,16.2667548 0.750926601,12.7113166 0.750926601,8.3255526 C0.750926601,3.93978855 4.30874867,0.384350351 8.69745329,0.384350351 C13.0861579,0.384350351 16.64398,3.93978855 16.64398,8.3255526" id="Fill-51" fill="#4A474B"></path>
                        <path d="M15.9302433,8.3255526 C15.9302433,12.3174739 12.6920512,15.5534964 8.69745329,15.5534964 C4.70207963,15.5534964 1.46388746,12.3174739 1.46388746,8.3255526 C1.46388746,4.33363125 4.70207963,1.09760878 8.69745329,1.09760878 C12.6920512,1.09760878 15.9302433,4.33363125 15.9302433,8.3255526" id="Fill-52" fill="#0A0909"></path>
                        <path d="M13.7255729,8.3255526 C13.7255729,11.1010582 11.4741992,13.3501481 8.69760845,13.3501481 C5.9194661,13.3501481 3.66886824,11.1010582 3.66886824,8.3255526 C3.66886824,5.55082226 5.9194661,3.30095709 8.69760845,3.30095709 C11.4741992,3.30095709 13.7255729,5.55082226 13.7255729,8.3255526" id="Fill-53" fill="#F2F3F5"></path>
                        <path d="M8.69756248,9.23662805 C8.19400592,9.23662805 7.78587616,8.82877176 7.78587616,8.3255526 C7.78587616,7.82233344 8.19400592,7.41447715 8.69756248,7.41447715 C9.20090067,7.41447715 9.60903042,7.82233344 9.60903042,8.3255526 C9.60903042,8.82877176 9.20090067,9.23662805 8.69756248,9.23662805 Z" id="Fill-54" fill="#0A0909"></path>
                    </g>
                    <g id="Group-3-Copy" transform="translate(121.435540, 121.189124)">
                        <path d="M16.64398,8.3255526 C16.64398,12.7113166 13.0861579,16.2667548 8.69745329,16.2667548 C4.30874867,16.2667548 0.750926601,12.7113166 0.750926601,8.3255526 C0.750926601,3.93978855 4.30874867,0.384350351 8.69745329,0.384350351 C13.0861579,0.384350351 16.64398,3.93978855 16.64398,8.3255526" id="Fill-51" fill="#4A474B"></path>
                        <path d="M15.9302433,8.3255526 C15.9302433,12.3174739 12.6920512,15.5534964 8.69745329,15.5534964 C4.70207963,15.5534964 1.46388746,12.3174739 1.46388746,8.3255526 C1.46388746,4.33363125 4.70207963,1.09760878 8.69745329,1.09760878 C12.6920512,1.09760878 15.9302433,4.33363125 15.9302433,8.3255526" id="Fill-52" fill="#0A0909"></path>
                        <path d="M13.7255729,8.3255526 C13.7255729,11.1010582 11.4741992,13.3501481 8.69760845,13.3501481 C5.9194661,13.3501481 3.66886824,11.1010582 3.66886824,8.3255526 C3.66886824,5.55082226 5.9194661,3.30095709 8.69760845,3.30095709 C11.4741992,3.30095709 13.7255729,5.55082226 13.7255729,8.3255526" id="Fill-53" fill="#F2F3F5"></path>
                        <path d="M8.69784119,11.5623504 C6.90884475,11.5623504 5.45887322,10.1133504 5.45887322,8.3255526 C5.45887322,6.53775485 6.90884475,5.08875485 8.69784119,5.08875485 C10.4860618,5.08875485 11.9360334,6.53775485 11.9360334,8.3255526 C11.9360334,10.1133504 10.4860618,11.5623504 8.69784119,11.5623504 Z" id="Fill-54" fill="#0A0909"></path>
                    </g>
                    <g id="Group-3-Copy-2" transform="translate(121.435540, 139.020585)">
                        <path d="M16.64398,8.3255526 C16.64398,12.7113166 13.0861579,16.2667548 8.69745329,16.2667548 C4.30874867,16.2667548 0.750926601,12.7113166 0.750926601,8.3255526 C0.750926601,3.93978855 4.30874867,0.384350351 8.69745329,0.384350351 C13.0861579,0.384350351 16.64398,3.93978855 16.64398,8.3255526" id="Fill-51" fill="#4A474B"></path>
                        <path d="M15.9302433,8.3255526 C15.9302433,12.3174739 12.6920512,15.5534964 8.69745329,15.5534964 C4.70207963,15.5534964 1.46388746,12.3174739 1.46388746,8.3255526 C1.46388746,4.33363125 4.70207963,1.09760878 8.69745329,1.09760878 C12.6920512,1.09760878 15.9302433,4.33363125 15.9302433,8.3255526" id="Fill-52" fill="#0A0909"></path>
                        <path d="M13.7255729,8.3255526 C13.7255729,11.1010582 11.4741992,13.3501481 8.69760845,13.3501481 C5.9194661,13.3501481 3.66886824,11.1010582 3.66886824,8.3255526 C3.66886824,5.55082226 5.9194661,3.30095709 8.69760845,3.30095709 C11.4741992,3.30095709 13.7255729,5.55082226 13.7255729,8.3255526" id="Fill-53" fill="#F2F3F5"></path>
                        <path d="M8.69784119,11.5623504 C6.90884475,11.5623504 5.45887322,10.1133504 5.45887322,8.3255526 C5.45887322,6.53775485 6.90884475,5.08875485 8.69784119,5.08875485 C10.4860618,5.08875485 11.9360334,6.53775485 11.9360334,8.3255526 C11.9360334,10.1133504 10.4860618,11.5623504 8.69784119,11.5623504 Z" id="Fill-54" fill="#0A0909"></path>
                    </g>
                    <g id="Group-3-Copy-3" transform="translate(121.435540, 156.852045)">
                        <path d="M16.64398,8.3255526 C16.64398,12.7113166 13.0861579,16.2667548 8.69745329,16.2667548 C4.30874867,16.2667548 0.750926601,12.7113166 0.750926601,8.3255526 C0.750926601,3.93978855 4.30874867,0.384350351 8.69745329,0.384350351 C13.0861579,0.384350351 16.64398,3.93978855 16.64398,8.3255526" id="Fill-51" fill="#4A474B"></path>
                        <path d="M15.9302433,8.3255526 C15.9302433,12.3174739 12.6920512,15.5534964 8.69745329,15.5534964 C4.70207963,15.5534964 1.46388746,12.3174739 1.46388746,8.3255526 C1.46388746,4.33363125 4.70207963,1.09760878 8.69745329,1.09760878 C12.6920512,1.09760878 15.9302433,4.33363125 15.9302433,8.3255526" id="Fill-52" fill="#0A0909"></path>
                        <path d="M13.7255729,8.3255526 C13.7255729,11.1010582 11.4741992,13.3501481 8.69760845,13.3501481 C5.9194661,13.3501481 3.66886824,11.1010582 3.66886824,8.3255526 C3.66886824,5.55082226 5.9194661,3.30095709 8.69760845,3.30095709 C11.4741992,3.30095709 13.7255729,5.55082226 13.7255729,8.3255526" id="Fill-53" fill="#F2F3F5"></path>
                        <path d="M8.69784119,11.5623504 C6.90884475,11.5623504 5.45887322,10.1133504 5.45887322,8.3255526 C5.45887322,6.53775485 6.90884475,5.08875485 8.69784119,5.08875485 C10.4860618,5.08875485 11.9360334,6.53775485 11.9360334,8.3255526 C11.9360334,10.1133504 10.4860618,11.5623504 8.69784119,11.5623504 Z" id="Fill-54" fill="#0A0909"></path>
                    </g>
                    <g id="Group-3-Copy-4" transform="translate(121.435540, 174.683506)">
                        <path d="M16.64398,8.3255526 C16.64398,12.7113166 13.0861579,16.2667548 8.69745329,16.2667548 C4.30874867,16.2667548 0.750926601,12.7113166 0.750926601,8.3255526 C0.750926601,3.93978855 4.30874867,0.384350351 8.69745329,0.384350351 C13.0861579,0.384350351 16.64398,3.93978855 16.64398,8.3255526" id="Fill-51" fill="#4A474B"></path>
                        <path d="M15.9302433,8.3255526 C15.9302433,12.3174739 12.6920512,15.5534964 8.69745329,15.5534964 C4.70207963,15.5534964 1.46388746,12.3174739 1.46388746,8.3255526 C1.46388746,4.33363125 4.70207963,1.09760878 8.69745329,1.09760878 C12.6920512,1.09760878 15.9302433,4.33363125 15.9302433,8.3255526" id="Fill-52" fill="#0A0909"></path>
                        <path d="M13.7255729,8.3255526 C13.7255729,11.1010582 11.4741992,13.3501481 8.69760845,13.3501481 C5.9194661,13.3501481 3.66886824,11.1010582 3.66886824,8.3255526 C3.66886824,5.55082226 5.9194661,3.30095709 8.69760845,3.30095709 C11.4741992,3.30095709 13.7255729,5.55082226 13.7255729,8.3255526" id="Fill-53" fill="#F2F3F5"></path>
                        <path d="M8.69784119,11.5623504 C6.90884475,11.5623504 5.45887322,10.1133504 5.45887322,8.3255526 C5.45887322,6.53775485 6.90884475,5.08875485 8.69784119,5.08875485 C10.4860618,5.08875485 11.9360334,6.53775485 11.9360334,8.3255526 C11.9360334,10.1133504 10.4860618,11.5623504 8.69784119,11.5623504 Z" id="Fill-54" fill="#0A0909"></path>
                    </g>
                    <g id="Group-2" transform="translate(116.533752, 7.752809)" fill="#212020">
                        <rect id="Rectangle-Copy-2" x="0" y="0.425826152" width="4.6093472" height="19.1363886" rx="2.3046736"></rect>
                        <rect id="Rectangle-Copy-3" x="9.30960854" y="0.425826152" width="4.6093472" height="19.1363886" rx="2.3046736"></rect>
                        <rect id="Rectangle-Copy-4" x="18.6192171" y="0.425826152" width="4.6093472" height="19.1363886" rx="2.3046736"></rect>
                        <rect id="Rectangle-Copy-5" x="27.9288256" y="0.425826152" width="4.6093472" height="19.1363886" rx="2.3046736"></rect>
                        <rect id="Rectangle-Copy-6" x="37.2384342" y="0.425826152" width="4.6093472" height="19.1363886" rx="2.3046736"></rect>
                        <rect id="Rectangle-Copy-7" x="46.5480427" y="0.425826152" width="4.6093472" height="19.1363886" rx="2.3046736"></rect>
                        <rect id="Rectangle-Copy-8" x="55.8576512" y="0.425826152" width="4.6093472" height="19.1363886" rx="2.3046736"></rect>
                        <rect id="Rectangle-Copy-15" x="65.1672598" y="0.425826152" width="4.6093472" height="19.1363886" rx="2.3046736"></rect>
                        <rect id="Rectangle-Copy-14" x="74.4768683" y="0.425826152" width="4.6093472" height="19.1363886" rx="2.3046736"></rect>
                        <rect id="Rectangle-Copy-13" x="83.7864769" y="0.425826152" width="4.6093472" height="19.1363886" rx="2.3046736"></rect>
                        <rect id="Rectangle-Copy-12" x="93.0960854" y="0.425826152" width="4.6093472" height="19.1363886" rx="2.3046736"></rect>
                        <rect id="Rectangle-Copy-11" x="102.405694" y="0.425826152" width="4.6093472" height="19.1363886" rx="2.3046736"></rect>
                        <rect id="Rectangle-Copy-10" x="111.715302" y="0.425826152" width="4.6093472" height="19.1363886" rx="2.3046736"></rect>
                        <rect id="Rectangle-Copy-9" x="121.024911" y="0.425826152" width="4.6093472" height="19.1363886" rx="2.3046736"></rect>
                        <rect id="Rectangle-Copy-22" x="130.33452" y="0.425826152" width="4.6093472" height="19.1363886" rx="2.3046736"></rect>
                        <rect id="Rectangle-Copy-21" x="139.644128" y="0.425826152" width="4.6093472" height="19.1363886" rx="2.3046736"></rect>
                        <rect id="Rectangle-Copy-20" x="148.953737" y="0.425826152" width="4.6093472" height="19.1363886" rx="2.3046736"></rect>
                        <rect id="Rectangle-Copy-19" x="158.263345" y="0.425826152" width="4.6093472" height="19.1363886" rx="2.3046736"></rect>
                        <rect id="Rectangle-Copy-18" x="167.572954" y="0.425826152" width="4.6093472" height="19.1363886" rx="2.3046736"></rect>
                        <rect id="Rectangle-Copy-17" x="176.882562" y="0.425826152" width="4.6093472" height="19.1363886" rx="2.3046736"></rect>
                        <rect id="Rectangle-Copy-16" x="186.192171" y="0.425826152" width="4.6093472" height="19.1363886" rx="2.3046736"></rect>
                        <rect id="Rectangle-Copy-29" x="195.501779" y="0.425826152" width="4.6093472" height="19.1363886" rx="2.3046736"></rect>
                        <rect id="Rectangle-Copy-28" x="204.811388" y="0.425826152" width="4.6093472" height="19.1363886" rx="2.3046736"></rect>
                        <rect id="Rectangle-Copy-27" x="214.120996" y="0.425826152" width="4.6093472" height="19.1363886" rx="2.3046736"></rect>
                        <rect id="Rectangle-Copy-26" x="223.430605" y="0.425826152" width="4.6093472" height="19.1363886" rx="2.3046736"></rect>
                        <rect id="Rectangle-Copy-25" x="232.740214" y="0.425826152" width="4.6093472" height="19.1363886" rx="2.3046736"></rect>
                        <rect id="Rectangle-Copy-24" x="242.049822" y="0.425826152" width="4.6093472" height="19.1363886" rx="2.3046736"></rect>
                        <rect id="Rectangle-Copy-23" x="251.359431" y="0.425826152" width="4.6093472" height="19.1363886" rx="2.3046736"></rect>
                    </g>
                    <g id="Group-2-Copy" transform="translate(50.902830, 167.631212)">
                        <path d="M23.5047445,0.0631853933 L13.1966804,0.0631853933 L2.88861637,0.0631853933 C2.07945623,0.0631853933 1.41769822,0.725275281 1.41769822,1.53311798 L1.41769822,5.16685955 C1.41769822,5.97547753 2.07945623,6.63679213 2.88861637,6.63679213 L4.39987616,6.63679213 L4.61011815,6.95930899 L4.62640996,6.9872191 C4.62640996,6.9872191 5.50616797,8.21758989 5.80329964,8.21758989 L8.57756299,8.21758989 L13.1966804,8.21758989 L17.8157979,8.21758989 L20.5900612,8.21758989 C20.8871929,8.21758989 21.7677267,6.9872191 21.7677267,6.9872191 L21.7832427,6.95930899 L21.9934847,6.63679213 L23.5047445,6.63679213 C24.3139046,6.63679213 24.9756626,5.97547753 24.9756626,5.16685955 L24.9756626,1.53311798 C24.9756626,0.725275281 24.3139046,0.0631853933 23.5047445,0.0631853933" id="Fill-63" fill="#0A0909"></path>
                        <path d="M23.5047445,0.0631853933 L13.1966804,0.0631853933 L2.88861637,0.0631853933 C2.07945623,0.0631853933 1.41769822,0.725275281 1.41769822,1.53311798 L1.41769822,5.16685955 C1.41769822,5.97547753 2.07945623,6.63679213 2.88861637,6.63679213 L4.39987616,6.63679213 L4.61011815,6.95930899 L4.62640996,6.9872191 C4.62640996,6.9872191 5.50616797,8.21758989 5.80329964,8.21758989 L8.57756299,8.21758989 L13.1966804,8.21758989 L17.8157979,8.21758989 L20.5900612,8.21758989 C20.8871929,8.21758989 21.7677267,6.9872191 21.7677267,6.9872191 L21.7832427,6.95930899 L21.9934847,6.63679213 L23.5047445,6.63679213 C24.3139046,6.63679213 24.9756626,5.97547753 24.9756626,5.16685955 L24.9756626,1.53311798 C24.9756626,0.725275281 24.3139046,0.0631853933 23.5047445,0.0631853933 Z" id="Stroke-64" stroke="#4A474B"></path>
                        <polygon id="Fill-65" fill="#BDBEC2" points="8.0667758 4.01052809 9.18392883 4.01052809 9.18392883 2.40492135 8.0667758 2.40492135"></polygon>
                        <polygon id="Fill-66" fill="#BDBEC2" points="6.22967972 4.01052809 7.34683274 4.01052809 7.34683274 2.40492135 6.22967972 2.40492135"></polygon>
                        <polygon id="Fill-67" fill="#BDBEC2" points="9.90387189 4.01052809 11.0210249 4.01052809 11.0210249 2.40492135 9.90387189 2.40492135"></polygon>
                        <polygon id="Fill-68" fill="#BDBEC2" points="11.740968 4.01052809 12.858121 4.01052809 12.858121 2.40492135 11.740968 2.40492135"></polygon>
                        <polygon id="Fill-69" fill="#BDBEC2" points="15.3717153 4.01052809 16.4888683 4.01052809 16.4888683 2.40492135 15.3717153 2.40492135"></polygon>
                        <polygon id="Fill-70" fill="#BDBEC2" points="13.535395 4.01052809 14.652548 4.01052809 14.652548 2.40492135 13.535395 2.40492135"></polygon>
                        <polygon id="Fill-71" fill="#BDBEC2" points="17.2095872 4.01052809 18.3267402 4.01052809 18.3267402 2.40492135 17.2095872 2.40492135"></polygon>
                        <polygon id="Fill-72" fill="#BDBEC2" points="19.0466833 4.01052809 20.1638363 4.01052809 20.1638363 2.40492135 19.0466833 2.40492135"></polygon>
                        <polygon id="Fill-73" fill="#5A5A5C" points="6.23045552 4.75867416 20.1638363 4.75867416 20.1638363 3.53993258 6.23045552 3.53993258"></polygon>
                        <polygon id="Fill-74" fill="#2D2B2C" points="0.640035587 19.8634287 25.7534804 19.8634287 25.7534804 12.3687883 0.640035587 12.3687883"></polygon>
                        <text id="HDMI-2" font-family="SimplonOi-Headline, Simplon Oi" font-size="5" font-weight="500" fill="#FFFFFF">
                            <tspan x="4.84045338" y="18.3687883">HDMI 2</tspan>
                        </text>
                    </g>
                    <g id="Group-2-Copy-2" transform="translate(50.902830, 133.205409)">
                        <path d="M23.5047445,0.0631853933 L13.1966804,0.0631853933 L2.88861637,0.0631853933 C2.07945623,0.0631853933 1.41769822,0.725275281 1.41769822,1.53311798 L1.41769822,5.16685955 C1.41769822,5.97547753 2.07945623,6.63679213 2.88861637,6.63679213 L4.39987616,6.63679213 L4.61011815,6.95930899 L4.62640996,6.9872191 C4.62640996,6.9872191 5.50616797,8.21758989 5.80329964,8.21758989 L8.57756299,8.21758989 L13.1966804,8.21758989 L17.8157979,8.21758989 L20.5900612,8.21758989 C20.8871929,8.21758989 21.7677267,6.9872191 21.7677267,6.9872191 L21.7832427,6.95930899 L21.9934847,6.63679213 L23.5047445,6.63679213 C24.3139046,6.63679213 24.9756626,5.97547753 24.9756626,5.16685955 L24.9756626,1.53311798 C24.9756626,0.725275281 24.3139046,0.0631853933 23.5047445,0.0631853933" id="Fill-63" fill="#0A0909"></path>
                        <path d="M23.5047445,0.0631853933 L13.1966804,0.0631853933 L2.88861637,0.0631853933 C2.07945623,0.0631853933 1.41769822,0.725275281 1.41769822,1.53311798 L1.41769822,5.16685955 C1.41769822,5.97547753 2.07945623,6.63679213 2.88861637,6.63679213 L4.39987616,6.63679213 L4.61011815,6.95930899 L4.62640996,6.9872191 C4.62640996,6.9872191 5.50616797,8.21758989 5.80329964,8.21758989 L8.57756299,8.21758989 L13.1966804,8.21758989 L17.8157979,8.21758989 L20.5900612,8.21758989 C20.8871929,8.21758989 21.7677267,6.9872191 21.7677267,6.9872191 L21.7832427,6.95930899 L21.9934847,6.63679213 L23.5047445,6.63679213 C24.3139046,6.63679213 24.9756626,5.97547753 24.9756626,5.16685955 L24.9756626,1.53311798 C24.9756626,0.725275281 24.3139046,0.0631853933 23.5047445,0.0631853933 Z" id="Stroke-64" stroke="#4A474B"></path>
                        <polygon id="Fill-65" fill="#BDBEC2" points="8.0667758 4.01052809 9.18392883 4.01052809 9.18392883 2.40492135 8.0667758 2.40492135"></polygon>
                        <polygon id="Fill-66" fill="#BDBEC2" points="6.22967972 4.01052809 7.34683274 4.01052809 7.34683274 2.40492135 6.22967972 2.40492135"></polygon>
                        <polygon id="Fill-67" fill="#BDBEC2" points="9.90387189 4.01052809 11.0210249 4.01052809 11.0210249 2.40492135 9.90387189 2.40492135"></polygon>
                        <polygon id="Fill-68" fill="#BDBEC2" points="11.740968 4.01052809 12.858121 4.01052809 12.858121 2.40492135 11.740968 2.40492135"></polygon>
                        <polygon id="Fill-69" fill="#BDBEC2" points="15.3717153 4.01052809 16.4888683 4.01052809 16.4888683 2.40492135 15.3717153 2.40492135"></polygon>
                        <polygon id="Fill-70" fill="#BDBEC2" points="13.535395 4.01052809 14.652548 4.01052809 14.652548 2.40492135 13.535395 2.40492135"></polygon>
                        <polygon id="Fill-71" fill="#BDBEC2" points="17.2095872 4.01052809 18.3267402 4.01052809 18.3267402 2.40492135 17.2095872 2.40492135"></polygon>
                        <polygon id="Fill-72" fill="#BDBEC2" points="19.0466833 4.01052809 20.1638363 4.01052809 20.1638363 2.40492135 19.0466833 2.40492135"></polygon>
                        <polygon id="Fill-73" fill="#5A5A5C" points="6.23045552 4.75867416 20.1638363 4.75867416 20.1638363 3.53993258 6.23045552 3.53993258"></polygon>
                        <polygon id="Fill-74" fill="#2D2B2C" points="0.640035587 20.141074 25.7534804 20.141074 25.7534804 12.6464335 0.640035587 12.6464335"></polygon>
                        <text id="HDMI-1" font-family="SimplonOi-Headline, Simplon Oi" font-size="5" font-weight="500" fill="#FFFFFF">
                            <tspan x="4.84045338" y="17.7945915">HDMI 1</tspan>
                        </text>
                    </g>
                </g>
                <polygon id="Fill-74" fill="#2D2B2C" points="112 210 149 210 149 203 112 203"></polygon>
                <text id="AV-/-in" font-family="SimplonOi-Headline, Simplon Oi" font-size="5" font-weight="500" letter-spacing="-0.405" fill="#FFFFFF">
                    <tspan x="124" y="208">A</tspan>
                    <tspan x="126.27" y="208" letter-spacing="-0.3375">V / in</tspan>
                </text>
            </g>
            <g id="Group-7" transform="translate(26.000000, 27.000000)">
                <g id="Group-3" transform="translate(68.000000, 100.500000) rotate(-270.000000) translate(-68.000000, -100.500000) translate(6.000000, 33.000000)">
                    <mask id="mask-2" fill="white">
                        <use xlink:href="#path-1"></use>
                    </mask>
                    <g id="Mask"></g>
                    <g mask="url(#mask-2)">
                        <g transform="translate(56.500000, 85.582031) rotate(-4.000000) translate(-56.500000, -85.582031) translate(26.000000, 6.582031)">
                            <path d="M26.5351,46.4682187 C27.8170333,52.1475521 34.1918333,61.4693438 45.6595,74.4335938 C59.8747833,92.3096349 63.7779979,112.070052 57.3691437,133.714844 C54.9092631,142.022664 52.1555699,150.055482 49.6758709,157.845683" id="Path-2" stroke="#EDCD63" stroke-width="9" fill="none"></path>
                            <path d="M22.6987,49.9418 C21.4597,44.8338 20.1477,40.2678 19.3327,37.6668 C18.5897,35.2958 19.9087,32.7708 22.2797,32.0268 C24.6567,31.2778 27.1757,32.6018 27.9207,34.9728 C28.0687,35.4458 29.7577,40.8688 31.4387,47.7798 L22.6987,49.9418 Z" id="Fill-35" stroke="none" fill="#3E3F41" fill-rule="evenodd"></path>
                            <path d="M12.9516,49.7652 L38.6006,43.4222 C39.9736,43.0822 40.8186,41.6812 40.4786,40.3092 L31.4266,3.7072 C31.0876,2.3342 29.6866,1.4892 28.3136,1.8282 L2.6646,8.1722 C1.2926,8.5112 0.4466,9.9122 0.7866,11.2852 L9.8386,47.8872 C10.1786,49.2592 11.5786,50.1042 12.9516,49.7652" id="Fill-36" stroke="none" fill="#F2F3F5" fill-rule="evenodd"></path>
                            <path d="M28.9713,1.7005 C29.9883,1.6455 31.2143,2.4405 31.5223,3.6835 L40.5743,40.2855 C40.8813,41.5285 40.1673,42.8035 39.2423,43.2285 L28.9713,1.7005 Z" id="Fill-37" stroke="none" fill="#CFCFCF" fill-rule="evenodd"></path>
                            <path d="M12.0609,49.951 C11.0439,50.006 9.8179,49.211 9.5099,47.968 L0.4579,11.366 C0.1509,10.123 0.8649,8.848 1.7899,8.423 L12.0609,49.951 Z" id="Fill-38" stroke="none" fill="#CFCFCF" fill-rule="evenodd"></path>
                            <path d="M6.7219,7.5373 L6.4559,6.4623 C6.2059,5.4523 6.3489,4.5393 7.3589,4.2893 L22.4029,0.5683 C23.4129,0.3193 24.6509,0.8903 24.8999,1.9003 L25.1659,2.9753 L6.7219,7.5373 Z" id="Fill-39" stroke="none" fill="#CFCFCF" fill-rule="evenodd"></path>
                            <polygon id="Fill-40" stroke="none" fill="#E3E4E7" fill-rule="evenodd" points="11.8572 30.4684 30.5742 25.8394 25.9452 7.1224 7.2282 11.7514"></polygon>
                            <polygon id="Fill-41" stroke="none" fill="#8D8F90" fill-rule="evenodd" points="24.4031 21.0208 27.0551 20.3648 23.9041 7.6268 21.2531 8.2828"></polygon>
                            <polygon id="Fill-42" stroke="none" fill="#BDBEC2" fill-rule="evenodd" points="24.4031 21.0208 26.5351 20.4938 23.5131 8.2758 21.3811 8.8028"></polygon>
                            <polygon id="Fill-43" stroke="none" fill="#8D8F90" fill-rule="evenodd" points="20.4085 22.0088 23.0605 21.3528 19.9095 8.6148 17.2585 9.2708"></polygon>
                            <polygon id="Fill-44" stroke="none" fill="#BDBEC2" fill-rule="evenodd" points="20.4085 22.0088 22.5405 21.4818 19.5185 9.2638 17.3865 9.7908"></polygon>
                            <polygon id="Fill-45" stroke="none" fill="#8D8F90" fill-rule="evenodd" points="16.4138 22.9967 19.0658 22.3407 15.9148 9.6027 13.2638 10.2587"></polygon>
                            <polygon id="Fill-46" stroke="none" fill="#BDBEC2" fill-rule="evenodd" points="16.4138 22.9967 18.5458 22.4697 15.5238 10.2517 13.3918 10.7787"></polygon>
                            <polygon id="Fill-47" stroke="none" fill="#8D8F90" fill-rule="evenodd" points="12.4191 23.9847 15.0711 23.3287 11.9201 10.5907 9.2691 11.2467"></polygon>
                            <polygon id="Fill-48" stroke="none" fill="#BDBEC2" fill-rule="evenodd" points="12.4191 23.9847 14.5511 23.4577 11.5291 11.2397 9.3971 11.7667"></polygon>
                            <path d="M16.0086,42.7196 L32.6376,38.6066 C33.2046,38.4666 33.5536,37.8876 33.4136,37.3216 L31.7036,30.4056 C31.5636,29.8386 30.9846,29.4896 30.4176,29.6296 L13.7886,33.7426 C13.2216,33.8826 12.8726,34.4616 13.0126,35.0286 L14.7226,41.9436 C14.8626,42.5106 15.4416,42.8596 16.0086,42.7196" id="Fill-49" stroke="none" fill="#5A5A5C" fill-rule="evenodd"></path>
                        </g>
                    </g>
                </g>
                <path d="M87.0765379,15.9998742 C78.1027518,23.6838194 69.5515529,31.0077004 60.1229439,39.0808229 C60.574124,34.7503801 60.9232686,31.4007023 61.35267,27.2702388 C46.4119277,33.7606883 37.672793,44.6833541 33.6739789,60.1620634 C29.0050748,43.6279955 38.413279,25.9610147 59.2042339,11.8021257 C57.9905922,8.53114791 56.7392332,5.15761102 55.1694014,0.926721875 C61.0697136,3.69238415 66.2656609,6.11262997 71.4479595,8.56143508 C76.5331034,10.963317 81.6045985,13.3937582 87.0765379,15.9998742" id="Fill-116" fill="#00C0D2" transform="translate(59.788269, 30.544393) scale(-1, 1) translate(-59.788269, -30.544393) "></path>
                <path d="M181.252261,101.812209 C179.52078,113.49869 177.872007,124.636184 176.05259,136.914771 C173.552074,133.350544 171.61799,130.59345 169.232236,127.194437 C162.214432,141.89485 162.784837,155.871679 169.921841,170.177067 C155.55085,160.761725 151.060729,141.255948 157.462795,116.930005 C154.400894,115.257587 151.243242,113.532512 147.282762,111.369322 C153.550221,109.58564 159.059477,108.003375 164.577168,106.451618 C169.990751,104.928187 175.41277,103.435264 181.252261,101.812209" id="Fill-116-Copy" fill="#00C0D2" transform="translate(164.267511, 135.994638) scale(1, -1) rotate(-228.000000) translate(-164.267511, -135.994638) "></path>
            </g>
            <g id="Group-3-Copy-9" transform="translate(83.366465, 228.605936) rotate(57.000000) translate(-83.366465, -228.605936) translate(52.866465, 149.605936)">
                <path d="M26.5351,46.4682187 C27.8170333,52.1475521 34.1918333,61.4693438 45.6595,74.4335938 C59.8747833,92.3096349 63.7779979,112.070052 57.3691437,133.714844 C54.9092631,142.022664 52.1555699,150.055482 49.6758709,157.845683" id="Path-2" stroke="#EDCD63" stroke-width="9"></path>
                <path d="M22.6987,49.9418 C21.4597,44.8338 20.1477,40.2678 19.3327,37.6668 C18.5897,35.2958 19.9087,32.7708 22.2797,32.0268 C24.6567,31.2778 27.1757,32.6018 27.9207,34.9728 C28.0687,35.4458 29.7577,40.8688 31.4387,47.7798 L22.6987,49.9418 Z" id="Fill-35" fill="#3E3F41"></path>
                <path d="M12.9516,49.7652 L38.6006,43.4222 C39.9736,43.0822 40.8186,41.6812 40.4786,40.3092 L31.4266,3.7072 C31.0876,2.3342 29.6866,1.4892 28.3136,1.8282 L2.6646,8.1722 C1.2926,8.5112 0.4466,9.9122 0.7866,11.2852 L9.8386,47.8872 C10.1786,49.2592 11.5786,50.1042 12.9516,49.7652" id="Fill-36" fill="#F2F3F5"></path>
                <path d="M28.9713,1.7005 C29.9883,1.6455 31.2143,2.4405 31.5223,3.6835 L40.5743,40.2855 C40.8813,41.5285 40.1673,42.8035 39.2423,43.2285 L28.9713,1.7005 Z" id="Fill-37" fill="#CFCFCF"></path>
                <path d="M12.0609,49.951 C11.0439,50.006 9.8179,49.211 9.5099,47.968 L0.4579,11.366 C0.1509,10.123 0.8649,8.848 1.7899,8.423 L12.0609,49.951 Z" id="Fill-38" fill="#CFCFCF"></path>
                <path d="M6.7219,7.5373 L6.4559,6.4623 C6.2059,5.4523 6.3489,4.5393 7.3589,4.2893 L22.4029,0.5683 C23.4129,0.3193 24.6509,0.8903 24.8999,1.9003 L25.1659,2.9753 L6.7219,7.5373 Z" id="Fill-39" fill="#CFCFCF"></path>
                <polygon id="Fill-40" fill="#E3E4E7" points="11.8572 30.4684 30.5742 25.8394 25.9452 7.1224 7.2282 11.7514"></polygon>
                <polygon id="Fill-41" fill="#8D8F90" points="24.4031 21.0208 27.0551 20.3648 23.9041 7.6268 21.2531 8.2828"></polygon>
                <polygon id="Fill-42" fill="#BDBEC2" points="24.4031 21.0208 26.5351 20.4938 23.5131 8.2758 21.3811 8.8028"></polygon>
                <polygon id="Fill-43" fill="#8D8F90" points="20.4085 22.0088 23.0605 21.3528 19.9095 8.6148 17.2585 9.2708"></polygon>
                <polygon id="Fill-44" fill="#BDBEC2" points="20.4085 22.0088 22.5405 21.4818 19.5185 9.2638 17.3865 9.7908"></polygon>
                <polygon id="Fill-45" fill="#8D8F90" points="16.4138 22.9967 19.0658 22.3407 15.9148 9.6027 13.2638 10.2587"></polygon>
                <polygon id="Fill-46" fill="#BDBEC2" points="16.4138 22.9967 18.5458 22.4697 15.5238 10.2517 13.3918 10.7787"></polygon>
                <polygon id="Fill-47" fill="#8D8F90" points="12.4191 23.9847 15.0711 23.3287 11.9201 10.5907 9.2691 11.2467"></polygon>
                <polygon id="Fill-48" fill="#BDBEC2" points="12.4191 23.9847 14.5511 23.4577 11.5291 11.2397 9.3971 11.7667"></polygon>
                <path d="M16.0086,42.7196 L32.6376,38.6066 C33.2046,38.4666 33.5536,37.8876 33.4136,37.3216 L31.7036,30.4056 C31.5636,29.8386 30.9846,29.4896 30.4176,29.6296 L13.7886,33.7426 C13.2216,33.8826 12.8726,34.4616 13.0126,35.0286 L14.7226,41.9436 C14.8626,42.5106 15.4416,42.8596 16.0086,42.7196" id="Fill-49" fill="#5A5A5C"></path>
            </g>
        </g>
    </g>
</svg>