<?xml version="1.0" encoding="UTF-8"?>
<svg width="76px" height="74px" viewBox="0 0 76 74" version="1.1" xmlns="http://www.w3.org/2000/svg" xmlns:xlink="http://www.w3.org/1999/xlink">
    <!-- Generator: Sketch 53 (72520) - https://sketchapp.com -->
    <title>Slice</title>
    <desc>Created with Sketch.</desc>
    <g id="Não-faz-chamada" stroke="none" stroke-width="1" fill="none" fill-rule="evenodd">
        <g id="Group-5-Copy-2" transform="translate(1.000000, 14.000000)" stroke="#595959">
            <g id="Group-2">
                <rect id="Rectangle" stroke-width="2" x="1" y="1" width="25" height="44" rx="6"></rect>
                <circle id="Oval" cx="12.7952365" cy="40.1573675" r="2.03888882"></circle>
                <rect id="Rectangle-Copy-3" fill="#979797" x="8.5" y="4.5" width="10" height="1" rx="0.5"></rect>
            </g>
            <rect id="Rectangle-Copy-2" stroke-width="2" x="49" y="1" width="25" height="44" rx="6"></rect>
            <g id="Group-4" transform="translate(31.500000, 15.986165)" fill="#979797">
                <rect id="Rectangle-Copy-3" x="0.5" y="6.01383464" width="10" height="1" rx="0.5"></rect>
                <g id="Group-3" transform="translate(6.857585, 6.500000) rotate(-315.000000) translate(-6.857585, -6.500000) translate(2.357585, 2.000000)">
                    <rect id="Rectangle-Copy-5" transform="translate(7.882324, 4.325846) rotate(-90.000000) translate(-7.882324, -4.325846) " x="4.0764974" y="4.07584635" width="7.61165365" height="1" rx="0.5"></rect>
                    <rect id="Rectangle-Copy-6" transform="translate(4.305827, 0.750000) rotate(-180.000000) translate(-4.305827, -0.750000) " x="0.5" y="0.5" width="7.61165365" height="1" rx="0.5"></rect>
                </g>
            </g>
            <rect id="Rectangle" fill="#D8D8D8" x="56.5" y="4.5" width="10" height="1" rx="0.5"></rect>
            <rect id="Rectangle-Copy-4" x="57.2145996" y="38.6184787" width="8.57080078" height="3.07777764" rx="1"></rect>
        </g>
    </g>
</svg>