<?xml version="1.0" encoding="UTF-8"?>
<svg width="76px" height="74px" viewBox="0 0 76 74" version="1.1" xmlns="http://www.w3.org/2000/svg" xmlns:xlink="http://www.w3.org/1999/xlink">
    <!-- Generator: Sketch 53 (72520) - https://sketchapp.com -->
    <title>Slice</title>
    <desc>Created with Sketch.</desc>
    <defs>
        <circle id="path-1" cx="29.6525214" cy="29.5" r="29.5"></circle>
    </defs>
    <g id="Não-faz-chamada" stroke="none" stroke-width="1" fill="none" fill-rule="evenodd">
        <g id="Group-12-Copy" transform="translate(8.000000, 6.000000)">
            <circle id="Oval" stroke="#595959" stroke-width="2" cx="29.6525214" cy="29.5" r="29.5"></circle>
            <g id="Path">
                <mask id="mask-2" fill="white">
                    <use xlink:href="#path-1"></use>
                </mask>
                <g id="Mask"></g>
                <polygon id="Path-3" stroke="#595959" stroke-width="2" mask="url(#mask-2)" points="58.3717597 19.8349979 53.3209784 22.1932733 49.9518378 22.8975186 49.9518378 24.8006952 48.8712714 26.2388323 49.9518378 30.6932733 51.0138495 31.7355663 52.6563261 34.1932733 56.4413809 35.1220703 58.3717597 37.8813477 62.3463691 25.045559"></polygon>
                <polygon stroke="#595959" stroke-width="2" stroke-linecap="round" stroke-linejoin="round" mask="url(#mask-2)" points="4.57154813 33.9014411 8.38320733 33 9.2679246 33.9014411 9.2679246 36.012206 10.3017854 36.6002811 12.50412 36.012206 12.50412 35.352849 15.1985735 35.352849 16.639015 33.9014411 17.1566308 36.012206 18.0937128 36.6002811 17.6331224 37.3435314 19.385559 38.0028884 19.385559 39.0411358 20.4457393 38.4437391 22.404619 39.0411358 23.0754908 40.1599865 23.9662396 40.1599865 26.670837 40.1599865 29.1659755 42.0259256 30.7997004 42.4818552 31.4664597 44.3996108 31.4664597 45.7660288 29.9739277 47.5003708 29.1659755 47.5003708 28.267276 49.5897511 27.3573359 49.9563043 27.3573359 52.3025734 27.3573359 54.0467851 26.670837 54.7705699 26.670837 55.6780426 25.8006503 57.1947008 25.8006503 57.9050517 24.7634995 58.2743464 24.7634995 58.8149918 23.0754908 58.8149918 22.404619 58.2743464 22.404619 58.8149918 21.6964614 59.3397358 19.8812419 60.2696896 18.9978955 61.6520089 19.385559 63.0123954 18.9978955 63.8894361 17.6331224 64.7722343 17.1566308 65.9867671 16.1052237 66.9109636 15.6396984 67.8718976 14.579244 68.6132287 14.579244 67.8718976 15.1985735 67.371691 13.8789046 66.3371448 12.9756768 65.9867671 12.2852026 66.3371448 12.2852026 65.7371436 11.8061064 65.2888905 10.9052136 65.2888905 11.5131654 64.7722343 12.746067 63.2221285 14.3647131 62.4559858 14.579244 61.6520089 14.3647131 61.1605755 13.8789046 61.1605755 13.5900714 60.9269904 13.8789046 59.7767483 13.5900714 59.5409699 12.9756768 59.7767483 12.50412 59.0783233 12.50412 58.2743464 12.0606648 57.9050517 10.9052136 57.9050517 10.9052136 56.2654323 10.5167276 55.6780426 11.09836 54.4358195 10.9052136 53.6833848 10.5167276 53.6833848 10.3017854 53.1498677 10.5167276 52.5076458 8.80431849 52.5076458 8.80431849 51.8747453 8.38320733 51.552332 8.80431849 51.3605565 8.38320733 50.2843378 6.24557467 49.5897511 5.60595726 49.0467754 4.82185704 49.0467754 4.29409728 48.2977678 4.29409728 46.515859 3.33288911 46.6939265 2.20416862 47.5003708 1.65831424 47.5003708 1.46996569 47.9506801 -0.273834807 47.9506801 -0.273834807 46.2351182 -1.0567013 47.0563672 -1.88548975 47.0563672 -1.88548975 46.515859 -2.79666355 46.515859 -2.50673838 45.7660288 -3.3588305 44.3996108 -3.1771989 43.8914536 -2.50673838 43.6083824 -2.79666355 42.9819248 -2.28809505 42.2952887 -1.0567013 41.8500514 -0.273834807 41.3418942 0.0607785895 41.5957672 0.648442511 38.7557343 0.0607785895 37.7198172 0.0607785895 37.3435314 0.980314299 37.1586098 0.980314299 36.7843802 0.308345896 36.7843802 0.308345896 36.012206 1.46996569 36.012206 2.63240797 35.6852691 2.92055109 36.6002811 3.33288911 36.7843802 4.09601602 36.7843802 4.29409728 36.7843802 5.60595726 36.012206 6.04132479 35.6852691 5.60595726 35.352849 5.25187844 34.5860209"></polygon>
                <polygon id="Path-2" stroke="#595959" stroke-width="2" mask="url(#mask-2)" points="51.1142433 5.94250702 49.4888306 10.3292568 44.4535732 8.8975675 43.3140232 8.13588189 41.9823036 8.13588189 41.9823036 9.5776717 41.1260871 13.2371813 39.8005832 14.6766402 40.398329 16.2694204 39.8005832 17.9593214 41.9823036 18.6930362 42.6828679 19.2395022 42.6828679 20.5 43.3140232 20.5 44.9567882 19.9455053 46.5923015 20.5 47.9804807 20.5 48.4334518 19.9455053 49.4888306 19.2395022 49.9741753 18.6930362 50.7519182 17.9593214 50.3300257 17.6081327 50.3300257 16.2694204 52.2931597 14.6766402 54.6243165 13.9214293 55.0594174 11.8458943 56.4413809 11.1720058"></polygon>
            </g>
            <g id="Group-9" transform="translate(25.477702, 33.868189) rotate(9.000000) translate(-25.477702, -33.868189) translate(15.977702, 17.368189)">
                <path d="M2.01652747,27.1331797 C0.637323564,23.3830071 1.03974616,19.2032706 3.22379526,14.5939702 C5.40784435,9.9846697 9.51656985,6.14305321 15.5499717,3.06912069" id="Line-2" stroke="#595959" stroke-width="1.5" stroke-linecap="square"></path>
                <g id="Group-3" transform="translate(5.443172, 0.581503)" fill="#979797" stroke="#595959">
                    <path d="M1.48066607,0.966876873 C1.23587381,0.966876873 1.03743048,1.16532021 1.03743048,1.41011246 C1.03743048,1.65490472 1.23587381,1.85334805 1.48066607,1.85334805 L10.4246192,1.85334805 C10.6694114,1.85334805 10.8678547,1.65490472 10.8678547,1.41011246 C10.8678547,1.16532021 10.6694114,0.966876873 10.4246192,0.966876873 L1.48066607,0.966876873 Z" id="Rectangle-Copy-5" transform="translate(5.952643, 1.410112) scale(-1, 1) rotate(-181.000000) translate(-5.952643, -1.410112) "></path>
                    <path d="M5.89863474,5.54265081 C5.65384248,5.54265081 5.45539915,5.74109414 5.45539915,5.9858864 C5.45539915,6.23067865 5.65384248,6.42912198 5.89863474,6.42912198 L14.8425878,6.42912198 C15.0873801,6.42912198 15.2858234,6.23067865 15.2858234,5.9858864 C15.2858234,5.74109414 15.0873801,5.54265081 14.8425878,5.54265081 L5.89863474,5.54265081 Z" id="Rectangle-Copy-6" transform="translate(10.370611, 5.985886) scale(-1, 1) rotate(-271.000000) translate(-10.370611, -5.985886) "></path>
                </g>
                <circle id="Oval-Copy-2" fill="#595959" cx="3.5" cy="28.8425313" r="3.5"></circle>
            </g>
            <circle id="Oval-Copy" fill="#595959" cx="40.9419099" cy="17.5" r="3.5"></circle>
        </g>
    </g>
</svg>