<?xml version="1.0" encoding="UTF-8"?>
<svg width="76px" height="74px" viewBox="0 0 76 74" version="1.1" xmlns="http://www.w3.org/2000/svg" xmlns:xlink="http://www.w3.org/1999/xlink">
    <!-- Generator: Sketch 53 (72520) - https://sketchapp.com -->
    <title>Slice</title>
    <desc>Created with Sketch.</desc>
    <g id="Não-faz-chamada" stroke="none" stroke-width="1" fill="none" fill-rule="evenodd">
        <g id="Group-12" transform="translate(0.500000, 2.000000)">
            <g id="Group-7" transform="translate(11.420271, 7.524813)">
                <path d="M48.4877611,41.1829532 C48.6396358,37.838062 47.503625,34.4354731 45.0797287,30.9751867 C42.6558324,27.5149002 39.095611,25.0149002 34.3990646,23.4751867" id="Line-2" stroke="#595959" stroke-width="1.5" stroke-linecap="square"></path>
                <g id="Group-3" transform="translate(37.388026, 24.921179) rotate(-105.000000) translate(-37.388026, -24.921179) translate(32.888026, 20.421179)" fill="#979797" stroke="#595959">
                    <rect id="Rectangle-Copy-5" transform="translate(7.882324, 4.325846) rotate(-90.000000) translate(-7.882324, -4.325846) " x="4.0764974" y="4.07584635" width="7.61165365" height="1" rx="0.5"></rect>
                    <rect id="Rectangle-Copy-6" transform="translate(4.305827, 0.750000) rotate(-180.000000) translate(-4.305827, -0.750000) " x="0.5" y="0.5" width="7.61165365" height="1" rx="0.5"></rect>
                </g>
                <polygon id="Path" stroke="#595959" stroke-width="2" stroke-linecap="round" stroke-linejoin="round" points="13.7951524 1.56808619 20.4256579 5.32907052e-14 21.9646525 1.56808619 21.9646525 5.23983058 23.7630871 6.26280651 27.5941201 5.23983058 27.5941201 4.09285756 32.2812098 4.09285756 34.7869047 1.56808619 35.6873143 5.23983058 37.317399 6.26280651 36.5161871 7.55571455 39.5646077 8.70268757 39.5646077 10.5087528 41.4088258 9.46956184 44.816361 10.5087528 45.9833644 12.4550301 47.532851 12.4550301 52.2375865 12.4550301 56.5779613 15.7008922 59.419879 16.4939966 60.5797287 19.829995 60.5797287 22.2069237 57.9834205 25.2238681 56.5779613 25.2238681 55.0146442 28.8584134 53.4317737 29.4960445 53.4317737 33.5774562 53.4317737 36.6115695 52.2375865 37.8706168 52.2375865 39.449195 50.7238682 42.0874714 50.7238682 43.32315 48.9197107 43.9655503 48.9197107 44.9060205 45.9833644 44.9060205 44.816361 43.9655503 44.816361 44.9060205 43.5844977 45.8188298 40.4268643 47.4365148 38.8902543 49.8411044 39.5646077 52.207541 38.8902543 53.733182 36.5161871 55.2688382 35.6873143 57.3815578 33.8583573 58.9892276 33.048561 60.6608037 31.2038659 61.9503733 31.2038659 60.6608037 32.2812098 59.790678 29.9856026 57.9910511 28.4144085 57.3815578 27.2133059 57.9910511 27.2133059 56.9473295 26.3799025 56.1675786 24.8127701 56.1675786 25.8703222 55.2688382 28.0149948 52.5723786 30.8306824 51.2396484 31.2038659 49.8411044 30.8306824 48.9862399 29.9856026 48.9862399 29.4831679 48.579911 29.9856026 46.5790273 29.4831679 46.1688831 28.4144085 46.5790273 27.5941201 45.3640943 27.5941201 43.9655503 26.8227151 43.32315 24.8127701 43.32315 24.8127701 40.4709787 24.136986 39.449195 25.1487545 37.2883074 24.8127701 35.9794228 24.136986 35.9794228 23.7630871 35.0513523 24.136986 33.9341863 21.1581945 33.9341863 21.1581945 32.8332353 20.4256579 32.2723869 21.1581945 31.9387871 20.4256579 30.0666696 16.7071762 28.8584134 15.5945408 27.9138895 14.2305729 27.9138895 13.3125176 26.6109663 13.3125176 23.5112777 11.6404646 23.8210319 9.6770185 25.2238681 8.72748699 25.2238681 8.39984854 26.0071959 5.36645067 26.0071959 5.36645067 23.0229199 4.00462887 24.4515094 2.56292432 24.4515094 2.56292432 23.5112777 0.977907763 23.5112777 1.48224205 22.2069237 7.2475359e-13 19.829995 0.315954105 18.9460389 1.48224205 18.4536274 0.977907763 17.3638838 1.86257926 16.1694581 4.00462887 15.3949532 5.36645067 14.5109971 5.9485216 14.9526175 6.97078216 10.0122875 5.9485216 8.21027608 5.9485216 7.55571455 7.54808396 7.23403751 7.54808396 6.58305282 6.379173 6.58305282 6.379173 5.23983058 8.39984854 5.23983058 10.4219548 4.67111319 10.9231892 6.26280651 11.6404646 6.58305282 12.9679488 6.58305282 13.3125176 6.58305282 15.5945408 5.23983058 16.3518768 4.67111319 15.5945408 4.09285756 14.9786092 2.75893509"></polygon>
                <circle id="Oval" fill="#595959" cx="49.1822677" cy="42.7788976" r="4.5"></circle>
                <circle id="Oval-Copy" fill="#595959" cx="26.7898643" cy="19.9751867" r="3.5"></circle>
            </g>
            <path d="M6.214,23.6 L6.214,21.234 C4.5673251,21.1126661 3.28467126,20.5016722 2.366,19.401 C1.44732874,18.3003278 0.96200026,16.9526746 0.91,15.358 L3.64,15.358 C3.69200026,16.2593378 3.94333108,16.9959971 4.394,17.568 C4.84466892,18.1400029 5.45132952,18.4866661 6.214,18.608 L6.214,13.07 L4.94,12.576 C3.79599428,12.1426645 2.88600338,11.5186707 2.21,10.704 C1.53399662,9.88932926 1.196,8.8320065 1.196,7.532 C1.196,6.02399246 1.66832861,4.84100429 2.613,3.983 C3.55767139,3.12499571 4.75799272,2.6526671 6.214,2.566 L6.214,0.2 L7.332,0.2 L7.332,2.566 C8.73600702,2.68733394 9.85399584,3.21166203 10.686,4.139 C11.5180042,5.06633797 11.9859995,6.24065956 12.09,7.662 L9.36,7.662 C9.2733329,7.02066346 9.06100169,6.4833355 8.723,6.05 C8.38499831,5.6166645 7.92133628,5.33933394 7.332,5.218 L7.332,10.522 L8.684,11.042 C10.0533402,11.579336 11.0109973,12.2856623 11.557,13.161 C12.1030027,14.0363377 12.376,15.071994 12.376,16.268 C12.376,17.672007 11.9600042,18.8289955 11.128,19.739 C10.2959958,20.6490046 9.03067516,21.1473329 7.332,21.234 L7.332,23.6 L6.214,23.6 Z M7.41,13.538 L7.332,13.512 L7.332,18.608 C8.07733706,18.5386663 8.64933134,18.2916688 9.048,17.867 C9.44666866,17.4423312 9.646,16.9093365 9.646,16.268 C9.646,15.730664 9.49000156,15.223669 9.178,14.747 C8.86599844,14.2703309 8.276671,13.867335 7.41,13.538 Z M3.926,7.532 C3.926,8.2253368 4.12966463,8.75399818 4.537,9.118 C4.94433537,9.48200182 5.43399714,9.77666554 6.006,10.002 L6.214,10.08 L6.214,5.192 C5.45132952,5.2786671 4.87933524,5.5386645 4.498,5.972 C4.11666476,6.4053355 3.926,6.9253303 3.926,7.532 Z" id="$" fill="#595959" fill-rule="nonzero"></path>
        </g>
    </g>
</svg>